<svg width="130" height="156" viewBox="0 0 130 156" fill="none" xmlns="http://www.w3.org/2000/svg">
<path d="M119.342 94.3218C119.342 94.3218 123.241 95.208 124.989 95.5891C126.736 95.9677 128.551 96.6026 128.482 97.9989C128.415 99.3944 127.407 99.8986 125.323 100.343C123.24 100.787 119.095 100.343 119.095 100.343C119.095 100.343 112.592 100.33 113.865 95.8735C114.742 92.8059 119.342 94.3218 119.342 94.3218Z" fill="#F8C2A0"/>
<path d="M118.343 124.706L118.221 112.91L118.317 91.4658L118.1 85.9663C118.1 85.9663 117.993 85.0037 117.858 83.9851C117.724 82.9665 116.545 81.0083 115.924 80.2045C115.303 79.3998 113.953 78.4067 113.264 76.5138C112.577 74.6209 112.657 72.7891 112.714 71.184C112.769 69.5772 112.695 66.0724 112.695 66.0724L111.732 58.568C111.732 58.568 112.063 58.1181 112.185 57.7395C112.307 57.3609 112.479 56.2566 112.122 55.3518C111.763 54.4469 111.051 54.3553 109.723 54.1583C108.395 53.9614 105.775 54.8408 104.94 55.1277C104.105 55.4154 103.036 56.0877 103.03 56.9671C103.024 57.8473 104.058 59.3362 104.058 59.3362C104.058 59.3362 103.073 63.1015 102.74 64.851C102.406 66.5995 102.296 69.8132 102.332 70.5661C102.366 71.3207 102.676 74.6693 102.599 75.4791C102.523 76.2897 101.421 77.9755 101.106 78.5238C100.789 79.0721 98.1635 82.1678 97.723 82.8154C97.2816 83.4614 96.7231 84.2321 96.5771 85.7863C96.4235 87.4076 96.1663 92.801 96.1663 92.801L96.224 100.665L96.4761 114.39L96.7757 123.236C96.7757 123.236 97.0499 131.864 97.0999 132.575C97.1475 133.287 98.7493 134.361 98.7493 134.361C100.143 135.508 103.444 136.204 105.137 136.565C106.831 136.928 109.903 136.9 112.219 136.626C114.536 136.353 116.354 135.178 117.183 134.192C118.012 133.208 117.83 131.617 118.24 129.058C118.649 126.497 118.343 124.706 118.343 124.706Z" fill="#5D6F5B"/>
<path d="M79.4885 124.08C79.4885 124.08 77.3664 122.384 77.3664 119.271C77.3664 116.158 75.3861 111.065 78.9223 109.226C78.9223 109.226 82.1767 109.367 84.0153 108.802C85.8547 108.236 87.6932 106.114 88.4011 104.699C89.1082 103.284 90.2405 98.4748 90.8059 97.2015C91.372 95.9283 93.7767 93.8062 95.757 93.6645C97.7382 93.5227 102.83 94.6551 104.245 95.3621C105.66 96.0692 108.808 97.6251 108.808 99.3227C108.808 101.02 107.853 100.383 105.2 100.596C103.148 100.761 98.4453 100.738 98.4453 100.738C98.4453 100.738 99.5767 104.274 99.4358 105.831C99.2941 107.387 98.8697 111.914 96.0405 114.461L96.465 116.158L96.7476 124.788C96.7476 124.788 94.4847 125.213 92.5035 125.213C90.5232 125.213 86.9862 124.08 86.9862 124.08H79.4885Z" fill="#F8C2A0"/>
<path d="M108.723 106.091C111.77 103.787 115.408 104.287 118.484 103.173C118.538 102.589 118.75 101.581 118.644 100.732C119.098 100.811 119.97 101.263 121.031 102.112C121.631 102.591 122.747 103.279 121.987 105.507C121.243 107.683 118.575 109.168 116.568 109.676C114.565 110.184 110.816 111.194 109.55 110.623C108.287 110.056 106.422 107.833 108.723 106.091Z" fill="#F8C2A0"/>
<path d="M28.7578 101.811C28.7578 101.811 27.4845 88.7969 27.4845 86.8157C27.4845 84.8346 27.201 66.0196 27.0601 63.0487C26.9184 60.0778 26.3522 48.1943 25.9278 45.0816C25.5034 41.969 23.5231 25.8414 23.5231 25.8414C23.5231 25.8414 20.2967 10.3733 17.864 6.31928C17.297 5.37369 12.771 2.49958 8.81042 0.801933C7.42005 0.206059 5.48558 2.14562 3.78794 6.24798C2.24223 9.9845 1.21261 15.327 1.02926 18.8742C0.817057 22.9825 0.285694 26.7258 1.24147 30.97C1.82206 33.5478 2.63693 34.541 2.93911 36.169C3.73361 40.4403 3.9611 41.7364 3.8584 47.0619C3.79813 50.2357 3.66062 59.4378 3.8584 68.566C4.11983 80.5981 5.35741 94.1861 5.83954 101.104C6.23339 106.749 8.10251 120.626 9.94191 124.163C11.7813 127.7 17.4396 126.71 19.5616 126.851C21.6837 126.993 35.5484 128.974 38.2357 129.115C40.924 129.256 48.1398 130.53 51.2516 129.54C54.3634 128.549 60.4469 127.417 60.4469 127.417C60.4469 127.417 65.9642 129.68 68.7934 128.973C71.6233 128.266 74.4525 127.559 75.7257 124.164C75.7257 124.164 75.1595 112.28 74.3107 108.885C73.4619 105.49 70.6328 104.641 68.5107 104.641C66.3886 104.641 59.5981 104.924 56.9098 104.499C54.2225 104.075 42.0554 103.65 42.0554 103.65L33.4263 102.377L28.7578 101.811Z" fill="#FF0000"/>
<path d="M78.9222 109.226L70.8448 108.743C70.8448 108.743 68.828 111.608 68.6158 113.942C68.4036 116.276 69.3594 121.157 70.3134 122.643C70.3134 122.643 71.1622 123.279 72.7546 123.491C74.3453 123.704 77.9452 124.246 79.4883 124.081L79.333 123.491C79.333 123.491 77.4232 121.582 77.104 118.611C76.7866 115.64 76.0718 110.453 78.9222 109.226Z" fill="#FF0000"/>
<path d="M104.373 70.1939C104.373 70.1939 104.586 74.3668 104.868 76.4184C105.152 78.47 106.637 79.1057 107.415 76.8428C108.193 74.5798 108.335 69.5573 108.335 69.5573C108.335 69.5573 109.325 73.0944 109.749 74.0137C110.173 74.9329 111.022 75.2164 111.518 74.3676C112.013 73.5188 112.932 71.3967 112.932 70.1235C112.932 68.8503 112.295 60.2203 112.295 60.2203L111.732 58.5676C111.732 58.5676 112.649 57.5329 112.295 55.9057C111.942 54.2785 111.022 53.8541 109.254 54.0663C107.486 54.2785 103.737 54.7742 103.242 56.6128C102.746 58.4513 104.091 59.0175 104.091 59.0175C104.091 59.0175 103.1 62.8372 102.888 64.2522C102.676 65.6672 102.534 70.3349 102.534 71.1132C102.534 71.8916 102.676 73.0231 102.676 73.0231C102.676 73.0231 103.878 72.67 104.373 70.1939Z" fill="#61EA67"/>
<path d="M119.26 94.3818C119.26 94.3818 125.058 95.3121 127.057 96.4114C130.284 98.1846 128.118 100.329 124.906 100.467C121.941 100.594 119.261 100.467 119.261 100.467" stroke="black" stroke-miterlimit="10" stroke-linecap="round" stroke-linejoin="round"/>
<path d="M29.0539 102.011C27.5031 91.8628 27.4513 89.1432 27.4267 76.8285C27.346 36.7878 20.9196 9.77145 17.5243 6.0935C17.5243 6.0935 14.8225 3.48846 8.45633 0.517578C8.45633 0.517578 5.80293 0.94199 3.89308 5.92883C1.98322 10.9157 0.604735 17.6001 0.709989 25.7701C0.794022 32.1439 2.86852 35.7437 2.86852 35.7437C3.71734 37.4414 4 51.7296 3.71734 58.0958C3.57898 61.2178 4.70708 88.6534 5.13149 94.0299C5.55591 99.4063 6.54647 108.459 7.53705 114.543C8.52677 120.626 10.4502 124.363 10.4502 124.363C12.4305 127.475 16.6755 126.909 18.6558 126.909C20.6369 126.909 40.4425 129.738 47.7984 129.738C55.1552 129.738 59.9654 127.475 59.9654 127.475C59.9654 127.475 65.9072 129.738 70.434 128.607C74.9616 127.475 75.8096 124.15 75.8096 124.15" stroke="black" stroke-miterlimit="10" stroke-linecap="round" stroke-linejoin="round"/>
<path d="M101.617 140.577C103.268 140.111 103.118 143.8 101.416 144.226C99.7141 144.654 100.327 140.942 101.617 140.577Z" fill="#6AFE7C"/>
<path d="M96.0404 93.5226C95.8987 90.5517 96.1338 89.1138 96.3231 86.4485C96.5132 83.7832 98.5869 81.3556 98.5869 81.3556C100.992 78.95 103.021 77.8745 102.746 74.3816C102.098 66.1243 103.437 61.1145 104.227 59.248C102.407 57.2142 103.075 56.5648 103.869 55.761C104.665 54.9606 110.507 53.1763 111.846 54.7687C113.186 56.3594 111.864 58.4968 111.864 58.4968C111.864 58.4968 113.141 64.1236 112.888 70.0756C112.8 72.1365 111.739 75.6455 115.911 79.9643C116.467 80.539 118.402 83.4606 118.229 86.0037L118.675 102.943" stroke="black" stroke-miterlimit="10" stroke-linecap="round" stroke-linejoin="round"/>
<path d="M118.304 116.524C118.385 122.719 119.022 126.88 117.935 132.691C117.408 135.514 113.759 136.71 108.887 136.752C103.582 136.797 97.5437 134.708 97.2542 132.073C97.1507 131.122 96.6193 122.485 96.3936 114.177" stroke="black" stroke-miterlimit="10" stroke-linecap="round" stroke-linejoin="round"/>
<path d="M122.546 78.3954L123.209 77.6357" stroke="black" stroke-miterlimit="10" stroke-linecap="round" stroke-linejoin="round"/>
<path d="M122.411 154.862L121.584 153.236" stroke="black" stroke-miterlimit="10" stroke-linecap="round" stroke-linejoin="round"/>
<path d="M97.2117 66.3088L97.4969 65.4277" stroke="black" stroke-miterlimit="10" stroke-linecap="round" stroke-linejoin="round"/>
<path d="M101.588 140.568C103.238 140.101 103.088 143.79 101.387 144.219C99.6836 144.644 100.298 140.933 101.588 140.568Z" stroke="black" stroke-miterlimit="10" stroke-linecap="round" stroke-linejoin="round"/>
<path d="M110.687 55.3486L106.085 56.7399" stroke="black" stroke-miterlimit="10" stroke-linecap="round" stroke-linejoin="round"/>
<path d="M122.358 111.183C121.896 112.445 119.418 115.032 118.362 115.79C117.308 116.55 114.102 117.761 112.415 117.573C110.724 117.38 108.617 117.762 108.405 114.95C108.324 113.876 109.817 111.798 111.928 110.72C114.038 109.645 115.25 109.962 116.461 109.518C119.44 108.425 121.296 106.728 121.296 106.728C121.296 106.728 123.768 107.339 122.358 111.183Z" fill="#F8C2A0"/>
<path d="M121.425 117.123C121.425 118.452 119.526 120.164 118.892 120.735C118.257 121.305 113.72 123.27 112.454 122.383C111.192 121.495 111.192 119.784 112.031 119.085C112.877 118.388 113.513 117.374 113.513 117.374C113.513 117.374 115.622 117.502 116.783 116.548C117.945 115.6 120.053 113.953 120.053 113.953C120.053 113.953 121.425 115.348 121.425 117.123Z" fill="#F8C2A0"/>
<path d="M98.1626 100.595H104.67C111.142 100.913 109.763 98.0485 104.953 95.7855C100.083 93.4937 94.7673 92.9555 91.9373 95.502C90.0283 97.22 90.5444 100.424 88.4155 104.681C87.3053 106.901 86.279 108.8 82.6002 109.083C78.9223 109.367 72.9805 109.083 72.9805 109.083L70.9289 108.871C70.9289 108.871 68.8069 109.932 68.5947 114.388C68.3825 118.845 69.8679 122.877 70.9289 123.089L72.9805 123.513C72.9805 123.513 77.0829 124.362 85.1467 124.078C89.4265 123.928 90.6641 125.847 96.818 124.786" stroke="black" stroke-miterlimit="10" stroke-linecap="round" stroke-linejoin="round"/>
<path d="M95.3325 115.309C101.84 109.65 98.4451 100.878 98.4451 100.878" stroke="black" stroke-miterlimit="10" stroke-linecap="round" stroke-linejoin="round"/>
<path d="M118.803 100.679C120.024 100.969 123.684 102.801 121.35 106.514C120.135 108.445 116.782 109.455 113.404 110.468C111.631 111 108.065 110.994 107.64 108.978C107.025 106.054 111.205 104.431 113.582 104.203C114.704 104.095 117.265 103.65 118.538 103.119" stroke="black" stroke-miterlimit="10" stroke-linecap="round" stroke-linejoin="round"/>
<path d="M111.718 110.973C110.261 111.557 107.697 114.484 108.565 116.17C109.52 118.027 112.661 117.501 114.453 117.178C118.676 116.417 121.297 113.677 122.305 111.449C123.647 108.484 121.351 106.408 121.351 106.408" stroke="black" stroke-miterlimit="10" stroke-linecap="round" stroke-linejoin="round"/>
<path d="M120.606 113.941C120.606 113.941 122.269 117.057 120.58 119.34C118.892 121.623 114.25 122.889 112.981 122.634C110.15 122.068 111.269 118.079 114.671 117.311" stroke="black" stroke-miterlimit="10" stroke-linecap="round" stroke-linejoin="round"/>
<path d="M27.0737 101.444C27.0737 101.444 34.4296 102.576 38.6738 103.142C42.9179 103.708 59.9656 104.84 63.6436 104.84C67.3224 104.84 72.5562 103.285 74.3956 109.084" stroke="black" stroke-miterlimit="10" stroke-linecap="round" stroke-linejoin="round"/>
<path d="M79.4173 109.084C77.5074 109.721 77.0728 110.579 76.8708 112.904C76.4464 117.784 78.3562 123.938 80.2661 123.938" stroke="black" stroke-miterlimit="10" stroke-linecap="round" stroke-linejoin="round"/>
<path d="M112.755 69.5912C112.755 69.5912 112.862 74.6841 110.952 74.8963C108.843 75.1306 108.298 67.8936 108.298 67.8936C108.298 67.8936 108.298 77.5489 106.283 78.1855C104.11 78.8722 104.479 69.4851 104.479 69.4851C104.479 69.4851 104.161 72.2438 102.676 73.0926" stroke="black" stroke-miterlimit="10" stroke-linecap="round" stroke-linejoin="round"/>
</svg>
