<svg width="37" height="230" viewBox="0 0 37 230" fill="none" xmlns="http://www.w3.org/2000/svg">
<path d="M24.0359 187.656C24.2218 189.259 24.3771 190.681 24.4136 191.251C24.5197 192.878 25.2276 197.936 25.4398 199.28C25.6521 200.624 26.2539 204.267 26.7131 205.54C27.1723 206.814 28.1985 213.392 28.2698 214.417C28.3394 215.443 28.6942 216.787 27.5271 216.893C26.36 216.999 25.3337 216.327 25.3337 216.327C25.3337 216.327 24.3075 220.925 23.777 222.163C23.2465 223.4 21.5836 225.135 21.0896 225.523C20.5939 225.912 19.1798 226.549 18.5083 225.134C18.5083 225.134 16.9864 227.574 16.0315 227.892C15.0766 228.211 14.1216 228.812 13.0971 228.387C12.0709 227.963 12.0709 226.443 12.0709 226.443C12.0709 226.443 10.0549 227.928 9.1 228.14C8.14508 228.353 7.47195 228.317 7.01273 227.398C6.55352 226.477 7.08404 225.276 7.64935 224.709C8.21636 224.143 10.1262 222.587 10.5506 221.845C10.975 221.102 11.8587 218.544 12.0242 217.636C12.4486 215.302 12.2118 213.25 12.2118 213.25C12.2118 213.25 10.7611 217.812 10.408 218.838C10.0549 219.864 7.57806 223.543 6.44743 224.355C5.3151 225.169 4.11317 225.735 3.37045 225.735C2.62773 225.735 1.67279 225.276 1.31968 224.533C0.881685 223.613 1.17708 222.305 1.70759 221.738C2.2381 221.172 3.40524 220.89 3.40524 220.89C3.40524 220.89 5.209 219.334 5.81081 217.848C6.41263 216.363 7.61456 212.047 7.61456 212.047C7.61456 212.047 8.78169 204.479 8.78169 202.251C8.78169 200.023 8.60428 195 8.64078 192.949C8.65605 192.057 8.95398 187.239 8.95398 187.239L9.37078 181.243L7.24872 153.55C7.24872 153.55 5.44582 127.236 5.33887 124.478C5.23361 121.719 4.70225 108.138 4.70225 106.44C4.70225 104.743 5.33885 92.5408 5.4458 89.676C5.55105 86.8113 8.20447 65.5907 8.62889 63.4686C9.0533 61.3466 11.9172 43.203 12.6608 39.8077C13.4027 36.4124 15.9491 22.0885 16.4805 19.8604C17.0102 17.6322 19.5592 5.17063 19.9836 3.57908C20.408 1.98754 20.7051 0.485117 23.5181 1.38657C27.056 2.5189 30.2391 6.12555 32.5037 10.3697C35.1096 15.2572 36.0119 19.5633 36.4627 22.6071C37.0297 26.4268 36.2156 30.2584 36.2156 30.2584L32.7134 52.1156L28.6815 75.14C28.6815 75.14 26.0298 92.2225 25.4984 94.4507C24.9687 96.6788 24.3321 101.666 24.3321 102.408C24.3321 103.151 25.3931 120.446 25.3931 123.629C25.3931 126.812 24.3321 151.322 24.4374 153.55C24.5443 155.778 23.6955 172.542 23.6955 172.542C23.6955 172.542 23.3763 178.696 23.4833 180.076C23.5885 181.456 24.0359 187.656 24.0359 187.656Z" fill="#F8C2A0"/>
<path d="M18.5312 224.887C18.5312 224.887 19.2391 227.292 21.7855 225.029C24.332 222.765 25.2768 218.084 25.6052 213.287C26.0297 207.062 25.6052 200.555 25.0382 197.159C24.4729 193.764 23.4832 181.385 23.4832 181.385V179.334C23.4832 164.055 26.8785 127.98 24.332 102.091C25.7478 94.4516 36.3565 29.6576 36.3565 29.6576C36.3565 29.6576 37.5236 18.7884 32.5036 10.3706C25.6036 -1.198 20.5921 1.4393 20.5921 1.4393C18.4701 7.38106 4.80908 74.3294 4.80908 103.789C4.80908 122.463 6.93114 153.869 9.47761 181.456" stroke="black" stroke-miterlimit="10" stroke-linecap="round" stroke-linejoin="round"/>
<path d="M9.33472 181.103C9.33472 181.103 8.6285 190.369 8.6285 201.404C8.6285 206.921 7.49619 214.418 6.64736 216.399C5.79854 218.38 4.13909 220.808 3.25207 220.927C1.13001 221.209 0.140286 224.322 2.40325 225.454C4.66621 226.585 7.49617 223.755 9.47733 220.643C11.4568 217.531 12.8726 209.609 12.8726 209.609" stroke="black" stroke-miterlimit="10" stroke-linecap="round" stroke-linejoin="round"/>
<path d="M22.7753 208.477C22.7753 208.477 22.2881 215.602 20.5107 221.067C19.4759 224.252 17.432 226.939 16.2665 227.717C13.7218 229.415 11.8815 228.424 12.0241 226.726" stroke="black" stroke-miterlimit="10" stroke-linecap="round" stroke-linejoin="round"/>
<path d="M18.8146 209.043C18.8146 209.043 18.3469 216.872 16.8334 220.078C14.4279 225.171 10.772 227.421 9.75932 228C8.76959 228.566 7.63727 228.849 6.92936 227.293C6.22313 225.736 8.56248 224.214 9.75932 222.907C11.3161 221.209 12.4484 217.956 12.4484 212.155" stroke="black" stroke-miterlimit="10" stroke-linecap="round" stroke-linejoin="round"/>
<path d="M25.6052 201.119C25.6052 201.119 28.4335 212.437 28.4335 215.266C28.4335 218.096 25.6052 216.398 25.6052 216.398" stroke="black" stroke-miterlimit="10" stroke-linecap="round" stroke-linejoin="round"/>
</svg>
