<svg width="161" height="187" viewBox="0 0 161 187" fill="none" xmlns="http://www.w3.org/2000/svg">
<path d="M159.085 129.319C159.756 126.441 160.57 111.918 158.255 104.172C156.508 98.3204 148.637 116.374 148.637 116.374L144.25 130.52L139.724 145.941L136.753 153.439L135.055 157.825L132.65 162.21C132.65 162.21 131.518 163.625 131.942 165.747C132.366 167.869 132.366 169.001 132.366 169.001C132.366 169.001 127.273 169.285 123.029 169.001C118.785 168.717 111.146 167.869 111.146 167.869L99.2622 166.171C99.2622 166.171 96.9993 167.585 96.9993 169.991C96.9993 172.396 98.1307 175.651 98.1307 175.651C98.1307 175.651 105.063 177.347 107.185 177.772C109.307 178.196 112.419 179.329 114.825 179.187C117.23 179.045 125.576 179.752 125.576 179.752L134.064 179.611C134.064 179.611 136.894 179.895 138.451 179.187C140.006 178.479 141.138 177.348 141.703 176.216C142.27 175.084 144.533 169.566 145.099 167.444C145.666 165.322 149.111 158.179 149.111 158.179L152.506 148.629C152.506 148.629 158.095 133.563 159.085 129.319Z" fill="#C32F25"/>
<path d="M90.2437 111.068C90.2437 111.068 88.2278 111.28 87.5912 111.174C86.9545 111.068 86.3179 108.097 86.3179 108.097L83.0287 85.9217L80.0579 69.0514L78.2541 58.4411L75.071 45.1782L71.6757 31.8092C71.6757 31.8092 69.6598 21.4112 69.0232 18.7586C68.3865 16.106 67.856 12.1802 68.7048 9.31543C69.5537 6.45065 71.7818 4.22249 74.3283 3.37367C76.8748 2.52485 79.4212 3.47977 79.4212 3.47977C79.4212 3.47977 82.286 1.14551 83.8776 1.14551C85.4691 1.14551 88.44 1.99433 90.1376 3.69198C91.8353 5.38962 92.7902 10.3765 92.7902 10.3765L94.0634 20.9867L94.7001 27.7773C94.7001 27.7773 99.8991 26.2919 101.915 25.9736C103.931 25.6553 107.432 25.7614 108.175 26.2919C108.918 26.8224 110.509 28.7323 110.403 30.8543C110.297 32.9764 107.645 39.4487 107.645 39.4487L104.143 45.9209L99.793 52.181L95.3367 58.4411L91.9414 62.6852L92.2597 65.55L94.0634 77.2213L97.3526 91.5452L99.793 101.094C99.793 101.094 100.748 105.232 100.748 105.869C100.748 106.506 99.1564 108.309 99.1564 108.309L90.2437 111.068Z" fill="#F9FFFF"/>
<path d="M78.6781 96.6393C78.6781 96.6393 78.2537 95.4365 78.1128 93.5267C77.9719 91.6168 78.6781 88.1511 79.3861 86.8779C80.094 85.6046 82.0021 82.2806 83.8424 81.7849C85.6809 81.2892 85.0443 86.877 84.6912 88.5042C84.3381 90.1314 83.7711 90.5558 83.7711 90.5558L82.216 92.0412C82.216 92.0412 80.2349 94.5173 80.0227 94.9417C79.8105 95.3661 78.8903 96.4984 78.6781 96.6393Z" fill="#F9FFFF"/>
<path d="M80.8715 110.008C80.2934 110.2 81.1542 106.472 81.5786 105.057C82.003 103.642 84.3381 99.3983 85.8931 98.6904C87.4499 97.9825 86.8837 101.449 86.8837 102.298C86.8837 103.147 86.8829 105.198 85.9644 105.905C85.0443 106.612 83.8424 107.603 83.5589 107.886C83.2762 108.168 81.0837 109.937 80.8715 110.008Z" fill="#F9FFFF"/>
<path d="M5.32667 142.333C4.51774 141.396 1.36521 138.796 0.870346 136.816C0.375482 134.836 0.799894 132.006 1.64872 130.945C2.49754 129.884 4.33694 127.833 4.33694 127.833C4.33694 127.833 4.12389 125.852 4.90226 124.72C5.68063 123.589 7.52003 121.678 9.28812 121.537C11.0571 121.396 15.3012 122.457 15.3012 122.457C15.3012 122.457 20.1819 124.084 21.3839 124.932C22.5875 125.781 27.8926 128.894 27.8926 128.894L31.5697 131.086C31.5697 131.086 33.1961 127.126 34.1875 125.499C35.1772 123.871 37.9359 120.83 39.9875 120.618C42.0391 120.406 43.949 121.042 44.8682 122.103C45.7875 123.164 47.9809 126.984 48.5462 128.964C49.1124 130.945 51.0231 140.211 51.0231 140.211L52.7199 149.406L55.1959 157.683L66.0888 160.442L77.2653 161.998L92.4023 163.696C92.4023 163.696 97.8492 163.766 98.2736 164.403C98.6981 165.039 99.0512 165.959 99.1929 166.808C99.3347 167.657 98.6268 173.599 98.6268 173.599C98.6268 173.599 98.1319 175.437 98.1319 175.65C98.1319 175.862 97.5657 176.286 97.1413 176.498C96.7169 176.711 94.2417 176.64 94.2417 176.64L81.5094 174.094L71.7479 172.042L68.8475 170.769C68.8475 170.769 61.6316 169.566 59.0156 168.647C56.3978 167.727 46.8485 163.836 46.8485 163.836L37.0166 160.088C37.0166 160.088 30.6513 157.471 28.9537 156.481C27.256 155.49 21.3142 152.095 21.3142 152.095L14.1689 148.487C14.168 148.487 6.66951 143.889 5.32667 142.333Z" fill="#F9FFFF"/>
<path d="M81.0838 181.309C80.493 181.752 79.5271 182.017 78.466 181.521C77.405 181.025 73.9401 178.196 72.6669 176.711C71.3936 175.225 68.7759 169.496 68.7759 167.94C68.7759 166.383 76.7684 166.948 77.2641 167.232C77.7598 167.515 77.9007 169.778 77.9007 169.99C77.9007 170.203 78.0416 174.234 78.0416 174.234C78.0416 174.234 78.3251 176.851 78.6782 177.63C79.0331 178.408 81.3656 181.096 81.0838 181.309Z" fill="#F9FFFF"/>
<path d="M84.126 171.336C84.126 170.416 89.7129 170.7 91.4819 171.194C93.2508 171.689 93.7448 172.75 93.8161 173.741C93.8874 174.732 94.0283 177.207 94.1693 177.843C94.3119 178.48 95.3729 181.664 95.7973 182.371C96.2217 183.078 97.2114 184.847 97.2114 185.13C97.2114 185.412 96.4322 185.624 95.0894 185.624C93.7448 185.624 89.6433 183.644 87.9457 182.017C86.248 180.39 85.2566 178.126 85.0444 176.994C84.8322 175.863 84.126 171.336 84.126 171.336Z" fill="#F9FFFF"/>
<path d="M89.925 110.291C90.2086 109.442 92.4715 107.886 94.0283 107.462C95.585 107.037 97.848 106.188 98.4133 106.613C98.9803 107.037 100.111 113.121 100.111 113.121C100.111 113.121 101.525 119.911 101.668 120.336C101.809 120.76 103.224 124.721 103.224 124.721C103.224 124.721 103.647 122.882 104.639 122.458C105.628 122.033 108.175 121.184 108.175 121.184C108.175 121.184 113.833 118.779 115.249 117.93C116.663 117.081 124.302 113.969 125.859 113.262C127.416 112.554 134.913 108.877 135.621 108.452C136.328 108.028 142.128 104.915 142.836 104.491C143.543 104.066 147.08 101.944 149.484 101.378C151.889 100.812 152.597 99.9639 155.284 100.247C157.973 100.529 159.953 106.754 158.68 109.583C157.406 112.412 149.485 117.082 148.069 117.647C146.655 118.213 141.987 120.477 139.865 121.043C137.743 121.608 130.244 123.589 130.244 123.589L121.898 126.56L114.4 129.389L109.59 131.794L106.477 132.926C106.477 132.926 103.223 134.624 102.092 135.048C100.96 135.473 96.5747 134.341 96.0086 132.077C95.4424 129.814 93.7448 124.721 93.6038 123.023C93.4621 121.325 90.9156 114.677 90.9156 114.677L89.925 110.291Z" fill="#C32F25"/>
<path d="M152.881 104.349C149.767 107.744 149.201 114.95 147.504 120.194C143.189 133.532 141.935 139.504 140.931 142.256C139.926 145.009 136.622 154.394 135.761 156.581C134.899 158.767 131.34 163.272 131.609 165.748C131.877 168.224 132.334 168.793 132.334 168.793" stroke="black" stroke-miterlimit="10" stroke-linecap="round" stroke-linejoin="round"/>
<path d="M133.925 168.749C133.925 168.749 130.315 169.63 125.579 169.321C120.844 169.012 117.239 168.991 112.648 168.118C108.058 167.243 101.275 166.711 99.8623 166.351" stroke="black" stroke-miterlimit="10" stroke-linecap="round" stroke-linejoin="round"/>
<path d="M98.0959 175.601C98.0959 175.601 107.434 177.916 110.257 178.638C113.081 179.36 117.501 178.993 122.147 179.5C128.295 180.171 134.043 179.46 136.092 179.684C138.141 179.909 140.732 178.338 141.894 175.528C143.668 171.243 144.572 171.059 146.14 165.818C147.334 161.819 150.802 152.727 151.445 151.388C152.089 150.05 158.66 130.804 158.66 130.804C158.66 130.804 160.358 124.438 160.146 116.799C160.035 112.798 159.127 100.326 155.225 100.287C151.408 100.248 145.641 102.693 142.394 104.796C139.149 106.899 130.696 110.828 129.366 111.617C128.036 112.404 120.647 115.703 117.884 116.801C115.12 117.9 111.293 119.629 109.964 120.416C108.633 121.205 105.235 122.14 105.235 122.14C105.235 122.14 103.905 122.928 103.688 123.775" stroke="black" stroke-miterlimit="10" stroke-linecap="round" stroke-linejoin="round"/>
<path d="M148.158 117.554C148.158 117.554 142.044 120.277 138.856 121.265C135.669 122.255 128.98 123.702 127.439 124.436C125.897 125.17 119.946 127.257 116.706 128.459C113.464 129.66 110.537 131.394 108.838 131.861C107.139 132.331 103.463 135.226 101.025 135.054C98.5874 134.881 96.3669 133.861 95.7956 131.684C95.2244 129.507 93.7618 125.521 93.6141 123.453C93.4665 121.384 91.9496 117.611 91.4819 115.912C91.0142 114.212 90.2859 111.77 90.0296 110.124C89.7741 108.479 98.2759 105.239 98.7436 106.938C99.2113 108.637 100.501 114.92 100.708 116.016C101.377 119.571 101.845 121.271 102.578 122.814C103.313 124.355 103.465 125.522 104.258 125.951" stroke="black" stroke-miterlimit="10" stroke-linecap="round" stroke-linejoin="round"/>
<path d="M94.007 176.586C94.007 176.586 95.3329 176.7 96.9236 176.655C98.5151 176.612 98.7027 171.47 99.0329 169.297C99.3631 167.124 99.3733 165.322 98.2647 164.362C98.2647 164.362 93.4417 163.805 91.2712 163.475C89.0983 163.144 80.9368 162.409 78.0746 162.128C75.2141 161.847 67.3726 160.743 65.0418 160.147C62.7126 159.55 57.0645 158.454 55.2659 157.543" stroke="black" stroke-miterlimit="10" stroke-linecap="round" stroke-linejoin="round"/>
<path d="M93.7567 174.041C93.7567 174.041 93.9494 177.7 94.4163 179.399C94.884 181.099 96.4059 183.969 97.0901 184.822C97.7751 185.675 95.9178 185.876 94.4341 185.496C92.952 185.118 88.1358 183.659 86.0367 179.512C85.0206 177.502 84.3289 172.078 84.3289 172.078" stroke="black" stroke-miterlimit="10" stroke-linecap="round" stroke-linejoin="round"/>
<path d="M77.8185 170.186C77.8185 170.186 78.0112 173.847 78.1088 175.225C78.2064 176.605 79.4083 179.845 80.7826 180.65C82.1568 181.452 79.7131 182.181 78.1266 181.324C76.5419 180.467 73.0048 177.53 72.0592 175.935C71.1145 174.337 68.9177 168.812 68.9177 168.812" stroke="black" stroke-miterlimit="10" stroke-linecap="round" stroke-linejoin="round"/>
<path d="M68.8523 170.825C68.8523 170.825 63.0268 169.785 61.1204 169.298C59.2148 168.81 54.9792 167.725 47.0978 164.128C39.2174 160.533 32.2273 158.742 27.5783 155.748C22.9276 152.752 16.4214 149.959 10.9787 146.535C5.53691 143.111 2.63563 140.338 1.11369 137.466C-0.407397 134.593 1.42012 130.096 4.2433 127.886C7.06564 125.675 11.1926 127.182 13.9954 128.576C16.7991 129.97 27.3186 135.597 29.5357 137.518" stroke="black" stroke-miterlimit="10" stroke-linecap="round" stroke-linejoin="round"/>
<path d="M55.2991 157.653C55.2991 157.653 53.4173 152.657 52.852 149.579C52.285 146.5 50.1247 134.665 49.4499 132.01C48.7751 129.354 46.5902 122.024 42.8299 120.837C39.073 119.65 35.0768 122.914 32.4471 128.785C30.7766 132.513 28.9287 141.651 30.1799 145.581C31.4302 149.512 35.9027 146.144 36.6072 143.391C37.3126 140.637 39.101 133.648 39.101 133.648L40.9192 130.953" stroke="black" stroke-miterlimit="10" stroke-linecap="round" stroke-linejoin="round"/>
<path d="M42.1262 133.294C42.1262 133.294 39.8403 134.289 39.1018 133.649" stroke="black" stroke-miterlimit="10" stroke-linecap="round" stroke-linejoin="round"/>
<path d="M36.2821 144.662C36.2821 144.662 39.8735 147.386 39.4881 149.771C39.1045 152.155 37.0299 153.204 34.385 152.075C31.7401 150.947 23.1254 145.809 21.0678 144.155C19.0086 142.499 14.4682 139.08 14.4682 139.08C14.4682 139.08 11.123 139.803 8.65039 136.235" stroke="black" stroke-miterlimit="10" stroke-linecap="round" stroke-linejoin="round"/>
<path d="M46.4679 153.362C46.4679 153.362 45.3687 150.599 43.4639 150.111C41.5575 149.623 39.488 149.771 39.488 149.771" stroke="black" stroke-miterlimit="10" stroke-linecap="round" stroke-linejoin="round"/>
<path d="M31.5855 131.274C31.5855 131.274 26.1955 127.638 21.4387 125.066C16.6819 122.494 11.9675 121.512 9.20968 121.709C6.451 121.906 4.04629 125.127 4.24406 127.886" stroke="black" stroke-miterlimit="10" stroke-linecap="round" stroke-linejoin="round"/>
<path d="M38.3958 136.401C38.3958 136.401 41.3997 139.652 42.3963 141.937C43.3911 144.223 42.4234 146.233 41.572 146.918C40.7198 147.602 38.9721 147.38 38.9721 147.38" stroke="black" stroke-miterlimit="10" stroke-linecap="round" stroke-linejoin="round"/>
<path d="M99.1085 108.159C99.1085 108.159 100.383 107.583 100.709 106.313C101.035 105.041 96.6673 89.4809 95.9441 86.1357C95.2201 82.7922 91.8129 66.1238 91.7798 62.7285" stroke="black" stroke-miterlimit="10" stroke-linecap="round" stroke-linejoin="round"/>
<path d="M90.2376 111.079C90.2376 111.079 87.849 111.597 87.1088 110.955C86.3703 110.315 83.9291 91.6367 83.211 87.3909C82.4912 83.1451 79.3709 62.7139 78.7505 59.8458C78.13 56.9801 74.5989 43.438 73.5616 39.5623C72.5209 35.6866 68.4848 17.9529 68.3473 14.0815C68.2098 10.2091 69.0874 5.01773 74.4503 3.45759C79.8149 1.89575 84.4053 6.00491 85.5427 11.26C86.6802 16.5159 87.8694 31.2633 87.8694 31.2633" stroke="black" stroke-miterlimit="10" stroke-linecap="round" stroke-linejoin="round"/>
<path d="M90.3354 64.8426C90.3354 64.8426 93.2231 60.6172 94.7153 59.1928C96.2075 57.7702 104.011 46.6778 105.298 44.2994C106.583 41.9201 110.82 33.3003 110.307 30.0112C109.796 26.7194 107.841 25.5429 103.225 25.9419C98.6097 26.34 90.0035 29.1029 86.6447 32.5305C83.2842 35.9572 83.4769 39.6181 86.8153 39.7955C90.1563 39.9738 99.3024 35.0939 101.642 33.8869" stroke="black" stroke-miterlimit="10" stroke-linecap="round" stroke-linejoin="round"/>
<path d="M101.574 36.8017C101.574 36.8017 99.3472 36.6828 99.0374 35.25" stroke="black" stroke-miterlimit="10" stroke-linecap="round" stroke-linejoin="round"/>
<path d="M75.9883 13.3291C75.9883 13.3291 75.4892 17.0376 77.5484 18.6928C77.5484 18.6928 79.3734 33.6024 79.246 37.6326C79.117 41.6611 81.1567 46.9221 83.3773 47.9416C85.5986 48.9618 88.4804 45.637 87.663 40.0119" stroke="black" stroke-miterlimit="10" stroke-linecap="round" stroke-linejoin="round"/>
<path d="M79.6484 3.43421C79.6484 3.43421 81.7315 0.582165 86.2336 1.50823C90.7358 2.4343 91.9335 6.5774 92.7059 10.6119C93.4766 14.6455 94.6785 27.5909 94.6785 27.5909" stroke="black" stroke-miterlimit="10" stroke-linecap="round" stroke-linejoin="round"/>
<path d="M95.0469 37.6143C95.0469 37.6143 95.1793 42.3863 93.5733 45.1348C91.9674 47.8833 88.7902 47.0701 87.3184 44.8887" stroke="black" stroke-miterlimit="10" stroke-linecap="round" stroke-linejoin="round"/>
<path d="M73.4299 15.3828C73.4299 15.3828 72.7798 17.9233 74.3671 18.7806C75.9518 19.6388 77.489 19.8052 77.489 19.8052" stroke="black" stroke-miterlimit="10" stroke-linecap="round" stroke-linejoin="round"/>
<path d="M86.8303 46.7939C86.8303 46.7939 89.8343 50.0449 89.5041 52.2179C89.1722 54.3909 86.4585 56.1768 86.4585 56.1768" stroke="black" stroke-miterlimit="10" stroke-linecap="round" stroke-linejoin="round"/>
<path d="M82.3886 82.667C82.3886 82.667 79.5773 85.7168 78.7488 88.9568C77.6649 93.1933 78.4908 97.0146 78.4908 97.0146C78.4908 97.0146 81.6976 92.42 83.7229 90.6816" stroke="black" stroke-miterlimit="10" stroke-linecap="round" stroke-linejoin="round"/>
<path d="M84.839 99.543C84.839 99.543 80.678 104.344 80.6959 110.443C80.6959 110.443 83.7346 107.384 86.1292 105.966" stroke="black" stroke-miterlimit="10" stroke-linecap="round" stroke-linejoin="round"/>
<path d="M84.3916 174.617L77.9788 173.743" stroke="black" stroke-miterlimit="10" stroke-linecap="round" stroke-linejoin="round"/>
<path d="M14.4681 139.079C14.4681 139.079 12.6822 141.626 10.1357 141.201" stroke="black" stroke-miterlimit="10" stroke-linecap="round" stroke-linejoin="round"/>
</svg>
