<svg width="29" height="231" viewBox="0 0 29 231" fill="none" xmlns="http://www.w3.org/2000/svg">
<path d="M26.0905 204.822C25.9691 202.379 25.2349 195.205 25.0015 193.238C24.7681 191.272 24.2325 187.584 24.488 184.83C24.488 184.83 25.0601 175.608 25.4216 172.854C25.7849 170.101 27.0964 147.73 27.2339 145.717C27.3714 143.703 27.8238 128.748 27.7873 124.396C27.7491 120.045 27.1804 109.212 26.9003 106.766C26.6219 104.322 25.9734 98.368 25.7943 96.2443C25.6169 94.1188 25.285 81.591 25.2205 79.0437C25.1543 76.4956 25.8486 59.6345 25.8486 59.6345L23.3174 32.0036L20.9568 13.7141C20.9568 13.7141 21.1521 8.09314 19.7082 5.52291C18.2627 2.95352 13.0492 0.709232 11.8821 0.691406C9.40607 1.39848 4.52533 5.43039 1.55445 21.9824C-1.87055 41.0674 3.2504 53.1198 3.2504 53.1198L4.09074 73.6138C4.09074 73.6138 4.75197 85.2978 5.00661 89.334C5.26126 93.371 5.83676 102.163 5.83676 102.163L6.57778 107.643C6.57778 107.643 6.85959 114.858 7.32729 123.514C7.45291 125.854 7.73643 137.74 7.81452 139.545C7.89261 141.35 9.51216 165.257 10.361 174.17C10.6029 176.709 10.6496 188.531 10.6496 188.531C10.6496 188.531 8.67607 190.586 7.81452 192.738C6.32908 196.451 5.79856 200.483 5.79856 204.727C5.79856 207.062 5.81639 211.593 5.79687 212.761C5.77904 213.927 4.38273 214.967 4.97606 217.735C5.56769 220.503 6.96739 219.251 8.14895 218.316C9.33136 217.379 10.3576 212.939 10.3576 212.939C10.3576 212.939 10.2337 214.104 10.4289 215.169C10.6233 216.233 10.0928 222.91 10.0928 222.91C10.0928 222.91 9.82877 226.089 10.3313 227.901C10.6046 228.891 11.1453 229.06 11.5782 229.011L11.5748 229.301C11.8931 229.306 12.6044 228.751 12.6044 228.751C12.6044 228.751 13.4796 230.357 14.7613 229.847C16.043 229.336 16.6499 227.915 16.6499 227.915C18.4435 228.579 19.5444 226.103 20.2557 224.682C20.9687 223.26 22.2157 218.293 22.2157 218.293C22.2157 218.293 22.4711 222.224 22.9915 222.816C23.5135 223.407 24.684 223.161 25.2366 221.79C25.79 220.42 26.1567 217.348 26.3537 214.963C26.5497 212.576 26.2102 207.265 26.0905 204.822Z" fill="#F8C2A0"/>
<path d="M25.3215 58.4108C25.3215 58.4108 9.61827 60.5328 3.6765 57.2784L3.25209 54.1666C3.25209 54.1666 0.846528 46.5264 0.422117 41.2925C-0.00229499 36.0587 1.27094 21.0626 2.54417 16.1105C3.55852 12.166 7.49621 1.11521 11.1733 0.97346C14.8521 0.831706 18.5725 3.91972 19.945 6.20815C21.2183 8.33021 22.208 20.4964 22.208 20.4964C22.208 20.4964 23.4812 33.5114 23.7648 35.6334C24.0483 37.7555 25.3215 58.4108 25.3215 58.4108Z" fill="#F0306C"/>
<path d="M23.09 205.889C23.09 205.889 23.5577 217 20.2422 224.802C19.2856 227.051 17.6347 228.652 16.7952 228.002" stroke="black" stroke-miterlimit="10" stroke-linecap="round" stroke-linejoin="round"/>
<path d="M19.4027 206.396C19.2321 210.427 18.7975 217.705 17.9801 222.398C17.1958 226.904 16.2756 228.99 15.2112 229.675C14.7817 229.951 13.2216 230.209 12.6758 228.928" stroke="black" stroke-miterlimit="10" stroke-linecap="round" stroke-linejoin="round"/>
<path d="M22.3423 217.196C22.142 220.423 22.1318 223.378 24.0188 223.095C27.4225 222.582 26.162 203.245 25.4804 198.004C23.9678 186.377 24.6791 180.442 24.972 176.63C26.2206 160.379 29.5887 126.758 26.8004 106.339C25.4125 96.1685 25.3675 96.2814 25.5407 83.9693C26.0975 43.932 21.1871 12.5493 21.0046 10.7421C20.8204 8.935 20.5904 7.83493 20.5904 7.83493C20.0997 5.33599 18.5829 3.91676 15.7724 2.59854C14.7029 2.09603 13.838 1.6835 11.7872 0.975586C11.7872 0.975586 7.49642 0.972193 3.67672 12.8557C0.863717 21.6088 0.226251 31.7454 0.705836 42.7767C0.918041 47.6575 3.4331 55.0312 3.4331 55.0312C3.4331 55.0312 4.11301 97.1455 5.72917 102.265C5.72917 102.265 7.0041 123.824 7.67722 134.871C8.35033 145.918 9.61848 164.405 10.2551 173.106C10.946 182.553 10.5386 188.845 10.5386 188.845" stroke="black" stroke-miterlimit="10" stroke-linecap="round" stroke-linejoin="round"/>
<path d="M10.1073 189.264C10.1073 189.264 5.58646 193.267 5.91326 205.545C5.98626 208.335 5.95825 212.157 5.34625 214.449C3.99153 219.522 6.72559 220.741 8.68722 217.898C9.99016 216.008 10.2872 210.707 10.2872 210.707" stroke="black" stroke-miterlimit="10" stroke-linecap="round" stroke-linejoin="round"/>
<path d="M10.0428 203.134C10.0428 203.134 10.4587 213.257 10.4256 215.379C10.3908 217.501 10.1039 222.165 10.1039 222.165C9.56154 229.585 11.788 229.195 11.788 229.195C11.788 229.195 12.9568 229.108 13.8506 226.364C15.3446 221.765 15.4286 207.181 15.4286 207.181" stroke="black" stroke-miterlimit="10" stroke-linecap="round" stroke-linejoin="round"/>
<path d="M25.1789 58.2693C25.1789 58.2693 20.3695 59.1181 13.2954 59.1181C7.3273 59.1181 3.67651 57.7031 3.67651 57.7031" stroke="black" stroke-miterlimit="10" stroke-linecap="round" stroke-linejoin="round"/>
</svg>
