<svg width="72" height="198" viewBox="0 0 72 198" fill="none" xmlns="http://www.w3.org/2000/svg">
<path d="M56.1887 162.201C56.1887 162.201 50.4591 163.474 49.5042 163.687C48.5493 163.899 48.231 163.156 47.5943 162.307C46.9577 161.458 44.199 156.153 44.199 156.153L42.077 151.272C42.077 151.272 40.6976 152.227 39.1061 149.999C37.5146 147.771 34.1193 138.965 34.1193 138.965L27.1165 122.2L19.9015 105.012L17.4611 97.6905L14.1719 87.823L5.04708 60.3423C5.04708 60.3423 1.8988 50.3338 0.943871 44.8165C-0.0110551 39.2991 1.08562 21.8278 2.35885 18.2203C3.63209 14.6128 5.18798 6.05329 9.99826 1.80917C10.763 1.13436 11.9438 0.18198 15.5513 2.30404C19.1588 4.4261 19.4771 8.2458 20.432 10.3679C21.3869 12.4899 27.4348 31.2701 28.3897 34.5593C29.3446 37.8485 34.2254 56.4165 34.2254 56.4165L36.7718 68.9366L42.2892 84.2155L48.8676 102.041L55.3398 119.229L59.6901 131.962C59.6901 131.962 61.3877 137.161 61.5999 138.222C61.8121 139.283 60.5389 143.527 60.5389 143.527C60.5389 143.527 62.8731 148.302 63.9342 151.06C64.9952 153.819 65.4196 155.729 65.3135 156.153C65.2074 156.578 64.9952 158.7 64.3586 159.549C63.722 160.397 56.1887 162.201 56.1887 162.201Z" fill="#D9D3B3"/>
<path d="M50.1765 161.106C50.1765 161.106 51.7324 159.479 53.2178 158.63C54.7033 157.781 58.1699 157.144 60.3624 157.357C62.5549 157.569 63.6864 157.923 63.6864 157.923C63.6864 157.923 66.0919 162.096 67.0112 163.723C67.9305 165.35 70.0525 167.542 70.6187 172.635C71.1849 177.728 70.9727 181.407 70.1238 184.166C69.275 186.924 67.0112 191.169 67.0112 191.169C67.0112 191.169 63.0498 197.181 62.4131 197.393C61.7765 197.605 61.3521 197.394 60.8572 197.04C60.3624 196.686 60.0789 195.554 60.0789 195.554C60.0789 195.554 58.5934 196.473 57.5324 196.969C56.4714 197.464 56.0478 197.534 55.0572 196.969C54.0667 196.403 54.1371 194.564 54.1371 194.564C54.1371 194.564 52.3682 195.272 51.8028 194.918C51.2375 194.564 50.3183 193.716 50.3887 193.008C50.4592 192.3 51.5906 190.602 51.5906 190.602C51.5906 190.602 49.7512 190.603 49.6808 189.613C49.6103 188.622 50.3887 186.924 50.3887 186.924C50.3887 186.924 52.5099 183.246 52.5099 182.114C52.5099 180.983 52.4395 173.484 52.4395 173.484L50.1765 161.106Z" fill="#F8C2A0"/>
<path d="M50.2844 163.327C50.2844 163.327 49.2089 163.973 48.1335 163.112C47.6021 162.687 42.1094 152.569 42.1094 151.063C42.1094 149.558 44.8519 146.008 50.2844 143.103C53.4242 141.424 59.1062 141.166 59.9661 142.457C60.8276 143.748 63.1933 149.557 64.0548 151.279C64.9156 153 65.9375 156.767 64.8604 158.917" stroke="black" stroke-miterlimit="10" stroke-linecap="round" stroke-linejoin="round"/>
<path d="M49.5859 162.252C49.5859 162.252 50.0163 159.886 55.6109 157.734C58.3993 156.661 63.4099 157.466 64.0558 158.111" stroke="black" stroke-miterlimit="10" stroke-linecap="round" stroke-linejoin="round"/>
<path d="M63.8401 158.163C63.8401 158.163 66.4749 162.789 69.2191 167.2C70.4482 169.176 71.6935 177.368 70.8328 181.67C70.382 183.925 68.7922 188.896 66.5708 192C64.5565 194.817 62.6416 197.116 62.3343 197.322C61.6884 197.752 59.5366 196.891 60.1825 194.309C60.8285 191.727 63.1959 189.362 63.4098 187.641C63.6254 185.92 64.5404 181.187 64.5404 181.187" stroke="black" stroke-miterlimit="10" stroke-linecap="round" stroke-linejoin="round"/>
<path d="M66.6371 168.921C66.6371 168.921 66.4215 176.452 66.2068 177.313C65.9912 178.174 63.4091 183.337 62.5484 184.628C61.6877 185.918 59.1055 185.273 59.1055 183.121C59.1055 180.972 59.698 178.61 59.698 176.346C59.698 174.41 58.5674 172.956 58.5674 172.956C58.5674 172.956 56.4699 171.021 55.8257 169.73" stroke="black" stroke-miterlimit="10" stroke-linecap="round" stroke-linejoin="round"/>
<path d="M50.5 161.606C50.5 161.606 51.7911 170.212 52.4362 173.224C52.4362 173.224 52.8665 180.324 52.4362 182.475C52.0058 184.627 51.1451 186.026 50.1775 187.64C49.6826 188.465 49.209 190.545 51.146 190.706" stroke="black" stroke-miterlimit="10" stroke-linecap="round" stroke-linejoin="round"/>
<path d="M59.9126 195.547C59.9126 195.547 57.7422 197.504 55.9868 197.16C53.5134 196.676 53.9429 194.417 54.7484 193.609C55.5565 192.803 58.6216 188.445 59.1063 187.64C59.591 186.833 59.86 184.896 59.86 184.896" stroke="black" stroke-miterlimit="10" stroke-linecap="round" stroke-linejoin="round"/>
<path d="M56.1481 177.797L56.3629 183.767C56.3629 183.767 54.5872 186.995 54.1042 187.962C53.6195 188.93 50.7997 191.369 50.5535 192.319C50.1775 193.772 50.8218 195.224 53.8894 194.739" stroke="black" stroke-miterlimit="10" stroke-linecap="round" stroke-linejoin="round"/>
<path d="M3.76465 55.0371C4.82568 60.13 17.6285 97.8679 17.6285 97.8679C17.6285 97.8679 18.4773 101.829 21.0238 107.771C22.5695 111.379 33.88 138.424 33.88 138.424C33.88 138.424 37.5911 147.836 38.0206 148.482C38.4509 149.127 39.2047 151.495 42.1094 151.71" stroke="black" stroke-miterlimit="10" stroke-linecap="round" stroke-linejoin="round"/>
<path d="M60.5044 143.749C60.5044 143.749 62.1188 140.522 61.4737 137.509C60.8278 134.498 52.573 111.59 48.3288 100.131C47.5929 98.1442 43.1705 86.6172 43.1705 86.6172C43.1705 86.6172 37.1524 71.8366 36.0209 64.4807C34.9378 57.4389 24.5618 20.7663 21.5909 13.1269C20.1657 9.46341 17.8468 2.15929 11.9355 0.712891" stroke="black" stroke-miterlimit="10" stroke-linecap="round" stroke-linejoin="round"/>
<path d="M11.9738 0.822266C11.9738 0.822266 7.68294 0.818872 3.86324 12.7024C1.05024 21.4555 0.412774 31.5921 0.892359 42.6234C1.10456 47.5041 3.61878 54.8779 3.61878 54.8779" stroke="black" stroke-miterlimit="10" stroke-linecap="round" stroke-linejoin="round"/>
</svg>
