<svg width="31" height="221" viewBox="0 0 31 221" fill="none" xmlns="http://www.w3.org/2000/svg">
<path d="M9.62445 195.237C10.0862 192.965 13.2319 188.092 13.2319 188.092C13.2319 188.092 13.6156 176.838 13.3737 174.299C12.5249 165.386 8.53541 141.019 8.45732 139.214C8.38007 137.409 7.13401 126.347 7.00753 124.007C6.54068 115.351 6.86577 107.313 6.86577 107.313L6.47956 101.832C6.47956 101.832 5.42193 95.6477 5.16813 91.6106C4.91348 87.5745 4.60196 73.9263 4.60196 73.9263L3.89489 53.9789C3.89489 53.9789 -1.22775 40.7373 2.19725 21.6524C5.16813 5.1003 10.0489 1.0684 12.5249 0.361328C13.692 0.379153 18.9063 2.62343 20.351 5.19282C21.7957 7.76305 21.5996 13.384 21.5996 13.384L23.9611 31.6736L26.4914 59.3044C26.4914 59.3044 25.7979 76.1655 25.8633 78.7136C25.9278 81.2609 26.2597 93.7887 26.4379 95.9142C26.6162 98.0388 27.2647 103.992 27.5439 106.436C27.8232 108.882 28.6152 119.938 28.6534 124.289C28.6899 128.641 28.5082 143.92 28.3707 145.934C28.2332 147.948 26.4278 169.77 26.0653 172.523C25.7029 175.277 24.1266 188.517 24.1266 188.517C23.8703 191.271 26.157 194.473 26.3896 196.439L26.9557 198.772C26.9557 198.772 28.1585 201.743 28.6534 203.37C29.1482 204.997 29.8553 208.605 29.5726 210.09C29.29 211.576 28.5829 213.768 26.4609 214.193C26.4609 214.193 25.6731 216.183 25.0459 216.81C24.197 217.658 22.7116 218.648 21.6506 217.446L20.9435 217.73C20.9435 217.73 19.8825 218.791 19.0337 218.861C18.1848 218.932 16.6281 217.658 16.6281 217.658C16.6281 217.658 15.0722 219.145 14.3651 219.427C13.6564 219.711 11.1099 220.842 11.9587 218.508C12.8075 216.174 13.7981 214.831 14.0808 213.699C14.3643 212.566 14.7887 207.969 15.0009 207.191C15.0009 207.191 13.4442 210.373 12.3831 211.081C11.3221 211.789 9.1262 212.834 9.97841 210.02C10.6855 207.686 10.2611 205.423 10.1202 203.159C9.97841 200.895 9.16524 197.5 9.62445 195.237Z" fill="#F8C2A0"/>
<path d="M4.88538 85.102C4.63074 81.0659 4.46097 74.4917 4.46097 74.4917L3.75389 54.5444C3.75389 54.5444 -1.3696 41.3027 2.05625 22.2178C5.02713 5.66574 9.90787 1.63383 12.3839 0.926758C13.551 0.944583 18.7645 3.18887 20.2092 5.75826C21.6539 8.3285 21.4578 13.9494 21.4578 13.9494L23.8192 32.239L26.3496 59.8699C26.3496 59.8699 26.0686 81.5616 26.2469 83.687C26.2469 83.687 17.4751 84.5359 15.3531 84.5359C13.231 84.5359 4.88538 85.102 4.88538 85.102Z" fill="#EFFEE7"/>
<path d="M21.7199 217.235C21.7199 217.235 23.3047 219.034 25.3979 216.103C28.2278 212.142 28.2279 206.202 27.8034 202.665C27.379 199.128 24.4082 190.923 24.4082 190.923L24.0542 189.083C23.842 186.324 31.6231 141.55 27.4435 106.011C26.2441 95.8158 26.0107 95.9533 26.183 83.6411C26.7407 43.6038 21.8303 12.2212 21.6469 10.414C21.4627 8.60687 21.2335 7.50681 21.2335 7.50681C20.7429 5.00787 19.2261 3.58864 16.4156 2.27041C15.3461 1.76791 14.4812 1.35538 12.4304 0.647461C12.4304 0.647461 8.13875 0.644068 4.31905 12.5276C1.50605 21.2807 0.868585 31.4173 1.34817 42.4486C1.56038 47.3293 4.07544 54.7031 4.07544 54.7031C4.07544 54.7031 4.31906 76.3319 5.30963 85.9516C6.29851 95.5552 6.15845 98.5422 6.72461 104.06C6.72461 104.06 6.36471 121.212 7.57344 132.212C8.98758 145.087 11.6512 160.914 12.8073 169.561C14.2927 180.667 13.2317 188.377 13.2317 188.377C13.2317 188.377 9.55375 192.621 9.55375 196.865C9.55375 201.109 10.5443 205.21 10.5443 207.473C10.5443 209.737 9.21846 211.521 10.4026 211.718C12.1002 212.002 14.5754 209.313 14.7171 205.351" stroke="black" stroke-miterlimit="10" stroke-linecap="round" stroke-linejoin="round"/>
<path d="M25.9642 83.9684C27.6449 83.7282 14.3634 84.2519 5.30981 85.3834" stroke="black" stroke-miterlimit="10" stroke-linecap="round" stroke-linejoin="round"/>
<path d="M20.6591 204.22C20.6591 204.22 20.9417 208.323 20.0225 211.577C18.9962 215.209 15.9906 219.64 12.8075 219.782C10.8985 219.868 12.1352 218.144 12.5953 217.377C13.4441 215.962 14.3634 213.911 14.7886 209.88C15.0568 207.332 14.6469 201.391 14.6469 201.391" stroke="black" stroke-miterlimit="10" stroke-linecap="round" stroke-linejoin="round"/>
<path d="M24.9744 204.504C24.9744 204.504 25.1153 212.285 22.2861 216.529C20.5104 219.194 17.335 219.077 16.7688 217.944" stroke="black" stroke-miterlimit="10" stroke-linecap="round" stroke-linejoin="round"/>
<path d="M27.5209 200.542C27.5209 200.542 29.9732 204.879 29.5012 210.303C29.2186 213.557 27.5209 214.265 26.813 214.265" stroke="black" stroke-miterlimit="10" stroke-linecap="round" stroke-linejoin="round"/>
</svg>
