<svg width="77" height="184" viewBox="0 0 77 184" fill="none" xmlns="http://www.w3.org/2000/svg">
<path d="M47.9343 162.895C46.3375 161.83 45.0072 158.97 45.0072 158.97C45.0072 158.97 42.2127 152.848 41.8805 151.251C41.5468 149.654 41.1484 146.46 41.0821 144.598C41.015 142.735 40.6829 140.007 40.6829 140.007L52.4599 137.545C52.4599 137.545 54.3219 140.139 55.1874 141.27C56.0529 142.402 58.3373 146.244 58.8251 147.25C59.313 148.256 60.2887 152.248 60.5665 154.212L57.3168 160.899L47.9343 162.895Z" fill="#B490AA"/>
<path d="M40.1154 74.6C39.8024 65.2319 32.6204 30.8821 32.6204 30.8821C32.6204 30.8821 34.2564 24.2374 33.2447 17.766C31.6662 7.66894 25.4001 1.73332 17.6225 0.815909C11.6246 0.108489 7.01437 4.02644 7.01437 4.02644C7.01437 4.02644 1.32069 7.66977 0.921472 17.2511C0.522251 26.8324 6.90979 33.8188 8.9059 35.6153C8.9059 35.6153 16.2915 59.7681 17.0899 62.7623C17.8884 65.7565 22.3158 78.6593 23.2523 79.5966L25.0744 79.9288C24.45 77.4305 23.8719 70.9463 28.0685 70.9463C32.6596 70.9463 34.4944 78.6593 34.4944 78.6593C36.3683 78.6593 39.2467 77.1343 40.0452 76.3358L40.1154 74.6Z" fill="#B490AA"/>
<path d="M23.0784 79.7294C23.0784 82.5399 23.7379 90.0724 25.607 96.4967C27.7357 103.816 39.8904 139.686 40.8269 140.31C41.7643 140.935 45.7358 142.362 48.2341 141.738C50.7324 141.114 52.5345 138.466 52.2215 137.217C51.9093 135.968 47.1642 97.6943 45.4235 90.2137C43.4019 81.5243 40.3774 76.003 40.3774 76.003C40.3774 76.003 39.2364 77.0506 38.4875 77.5951C37.0231 78.6602 34.4945 78.6594 34.4945 78.6594C34.4945 78.6594 33.098 74.4021 32.0999 73.2707C31.1019 72.1393 29.3054 70.077 26.7104 71.3409C24.1155 72.6048 24.5707 78.6698 25.0745 79.929L23.0784 79.7294Z" fill="#190521"/>
<path d="M55.6348 157.4C55.6348 157.4 55.9246 158.56 56.7949 160.301C57.6652 162.042 61.4363 165.812 64.6269 165.232C66.6238 164.869 62.8863 160.011 62.3058 158.851C61.7261 157.691 60.5659 154.211 60.5659 154.211C60.5659 154.211 58.914 154.444 57.983 154.777C57.052 155.11 55.5494 156.164 55.6348 157.4Z" fill="#B490AA"/>
<path d="M58.8252 147.25C58.8252 147.25 63.2669 154.915 65.3956 159.573C65.3956 159.573 68.9758 164.653 69.2664 165.813C69.5563 166.972 73.0374 172.775 73.0374 172.775C73.0374 172.775 75.8584 176.41 75.9382 177.705C76.042 179.401 71.8773 178.285 69.557 174.514C69.1282 173.817 66.2211 171.224 64.9157 169.293C62.8892 166.294 63.1759 165.522 63.1759 165.522L58.8252 147.25Z" fill="#B490AA"/>
<path d="M45.3013 159.308C45.3013 159.308 46.6706 164.086 47.8299 165.828C48.9909 167.568 49.9171 170.121 51.8221 172.614C51.8221 172.614 53.8326 175.385 55.1492 175.143C56.4651 174.901 54.7213 170.747 54.7213 170.747L54.0569 169.017L51.9267 163.561L50.7961 160.766L48.6675 160.567L45.3013 159.308Z" fill="#B490AA"/>
<path d="M50.7959 160.767C50.7959 160.767 53.0235 166.683 53.6048 168.134C54.1844 169.584 56.2149 174.224 56.2149 174.224C56.2149 174.224 58.5352 180.895 62.0164 181.766C63.4512 182.125 61.7265 177.706 61.7265 177.706L60.5784 173.076L57.9563 167.554L55.7877 164.16L54.7506 160.905L50.7959 160.767Z" fill="#B490AA"/>
<path d="M54.7493 160.905C54.7493 160.905 55.8143 165.03 57.9549 167.555C58.2448 168.713 60.5659 173.355 60.5659 173.355C60.5659 173.355 61.9057 178.384 63.4666 180.026C65.5298 182.197 68.3243 183.394 68.6876 182.055C69.0677 180.657 66.6572 176.255 66.3665 175.385C66.0775 174.515 64.3361 168.713 64.3361 168.713L62.3743 162.763L59.5127 161.033L54.7493 160.905Z" fill="#B490AA"/>
<path d="M40.1801 74.6537C39.8671 65.2856 32.6852 30.9358 32.6852 30.9358C32.6852 30.9358 34.3212 24.2911 33.3095 17.8198C31.731 7.72265 25.464 1.78703 17.6872 0.86962C11.6893 0.1622 7.07907 4.08015 7.07907 4.08015C7.07907 4.08015 1.38539 7.72348 0.98617 17.3048C0.586948 26.8861 6.97449 33.8725 8.97059 35.669C8.97059 35.669 16.3562 59.8219 17.1546 62.816C17.9531 65.8102 22.3804 78.713 23.317 79.6504L25.1391 79.9825C24.5147 77.4842 23.9358 71 28.1332 71C32.7243 71 34.5591 78.713 34.5591 78.713C36.433 78.713 39.3114 77.188 40.1098 76.3895L40.1801 74.6537Z" stroke="black" stroke-miterlimit="10" stroke-linecap="round" stroke-linejoin="round"/>
<path d="M40.4421 76.0566C40.4421 76.0566 43.4667 81.5778 45.4883 90.2673C47.2289 97.7479 51.974 136.022 52.2862 137.271C52.5992 138.52 50.7963 141.167 48.2988 141.792C45.8005 142.416 41.8282 140.988 40.8909 140.364C39.9551 139.74 27.8004 103.87 25.6717 96.5503C23.8026 90.126 23.1431 82.5935 23.1431 79.783" stroke="black" stroke-miterlimit="10" stroke-linecap="round" stroke-linejoin="round"/>
<path d="M2.78247 10.5844C2.78247 10.5844 11.3857 3.49823 18.321 6.57862C21.9451 8.18907 23.6626 14.3211 24.8786 15.0102C27.4009 16.4402 32.9899 16.041 32.9899 16.041" stroke="black" stroke-miterlimit="10" stroke-linecap="round" stroke-linejoin="round"/>
<path d="M40.842 140.465C41.0169 144.561 40.795 144.344 41.1966 147.884C41.7731 152.973 44.0973 156.877 44.9676 158.615C45.8371 160.356 49.3175 160.646 49.3175 160.646L54.2487 160.935L56.9434 161.224" stroke="black" stroke-miterlimit="10" stroke-linecap="round" stroke-linejoin="round"/>
<path d="M52.5091 137.732C52.5091 137.732 57.4402 144.113 58.8902 147.304C60.3394 150.493 60.6308 154.266 60.6308 154.266C60.6308 154.266 56.8598 154.554 56.2801 156.005C55.7005 157.456 55.6996 157.455 55.6996 157.455C55.6996 157.455 48.8266 154.57 47.2297 148.316" stroke="black" stroke-miterlimit="10" stroke-linecap="round" stroke-linejoin="round"/>
<path d="M60.6307 154.267C60.6307 154.267 61.7908 157.746 62.3704 158.907C62.9517 160.066 66.6884 164.924 64.6915 165.287C61.5009 165.869 57.7299 162.098 56.8596 160.357C55.9893 158.616 55.6995 157.456 55.6995 157.456" stroke="black" stroke-miterlimit="10" stroke-linecap="round" stroke-linejoin="round"/>
<path d="M58.8899 147.306C58.8899 147.306 63.3316 154.971 65.4603 159.629C65.4603 159.629 69.0405 164.709 69.3311 165.869C69.621 167.028 73.1022 172.83 73.1022 172.83C73.1022 172.83 75.9231 176.466 76.0029 177.761C76.1067 179.457 71.9421 178.34 69.6218 174.57C69.193 173.873 66.2859 171.28 64.9805 169.349C62.954 166.35 63.2407 165.578 63.2407 165.578" stroke="black" stroke-miterlimit="10" stroke-linecap="round" stroke-linejoin="round"/>
<path d="M45.366 159.361C45.366 159.361 46.7353 164.14 47.8946 165.881C49.0556 167.622 49.9818 170.175 51.8868 172.668C51.8868 172.668 53.8973 175.439 55.2139 175.197C56.5298 174.955 54.5385 170.219 54.5385 170.219" stroke="black" stroke-miterlimit="10" stroke-linecap="round" stroke-linejoin="round"/>
<path d="M50.7683 161.226C50.7683 161.226 53.0886 166.736 53.6699 168.187C54.2495 169.637 56.28 174.278 56.28 174.278C56.28 174.278 58.6003 180.949 62.0815 181.82C63.5163 182.178 61.7916 177.759 61.7916 177.759" stroke="black" stroke-miterlimit="10" stroke-linecap="round" stroke-linejoin="round"/>
<path d="M64.4001 168.766C64.4001 168.766 66.1416 174.568 66.4306 175.438C66.7212 176.308 69.1309 180.71 68.7517 182.108C68.3884 183.447 65.5938 182.249 63.5306 180.078C61.9696 178.436 60.6299 173.408 60.6299 173.408C60.6299 173.408 58.3096 168.767 58.019 167.607C55.8784 165.083 54.8132 160.958 54.8132 160.958" stroke="black" stroke-miterlimit="10" stroke-linecap="round" stroke-linejoin="round"/>
</svg>
