<svg width="43" height="231" viewBox="0 0 43 231" fill="none" xmlns="http://www.w3.org/2000/svg">
<path d="M41.3241 36.3985C41.3241 36.3985 39.6265 43.3299 39.202 46.867C38.7776 50.404 37.428 56.9816 37.1453 59.9524C36.8627 62.9233 35.665 67.3805 35.665 67.3805C35.665 67.3805 32.1933 68.5824 29.7895 68.158C27.3839 67.7336 21.3012 68.5824 14.4402 64.5505V55.8501C14.4402 55.8501 16.0368 41.9065 16.9867 36.7516C18.4721 28.6877 21.2308 14.8944 24.2017 7.67936C25.2644 5.09809 26.0266 0.168131 28.7989 1.52625C35.7312 4.92154 39.0204 14.3282 40.258 19.6333C41.9853 27.0393 41.7485 34.7008 41.3241 36.3985Z" fill="#7B633B"/>
<path d="M14.3688 64.4795C14.3688 64.4795 19.3879 67.0243 20.8767 67.3095C22.3681 67.5904 27.7352 68.0879 29.2232 68.1583C30.7137 68.2279 35.2634 67.3392 35.2634 67.3392L33.5641 80.7447L31.2213 98.8356L30.5126 102.95L29.8029 116.005L28.5985 132.18L27.1079 151.264L25.6165 164.885L25.0512 174.958L24.2695 186.095C24.2695 186.095 24.1982 189.5 24.3399 189.999C24.4808 190.494 25.9009 195.107 26.327 196.879C26.754 198.652 28.3149 204.54 28.3854 205.604C28.455 206.67 27.8158 209.011 27.8158 209.011C27.8158 209.011 27.0349 211.565 27.1784 212.841C27.321 214.119 28.5985 216.318 28.528 216.955C28.455 217.594 28.0289 218.446 26.5401 217.808C25.0512 217.168 22.9207 214.614 22.9207 214.119C22.9207 213.62 22.2841 211.705 22.2841 211.705L19.6587 219.014L17.602 225.61C17.602 225.61 16.8185 228.518 16.6784 228.874C16.5375 229.229 15.5427 230.862 14.62 230.079C13.6974 229.298 13.9096 227.03 13.9826 226.249C14.0539 225.47 14.9774 217.097 14.9774 217.097L13.3434 222.559C13.3434 222.559 11.2154 229.441 11.0024 229.797C10.7893 230.152 9.86918 230.578 9.79618 228.945C9.72488 227.313 9.65443 219.651 9.65443 219.651C9.65443 219.651 8.44825 223.411 8.02214 224.334C7.59773 225.256 6.53331 227.384 6.17681 227.598C5.8237 227.812 4.75927 227.525 4.82972 226.818C4.90017 226.107 4.90017 222.136 4.97232 221.07C5.04277 220.008 5.11408 214.261 5.11408 214.261L3.48094 220.291C3.48094 220.291 2.20516 223.058 1.8512 223.058C1.49469 223.058 1.07114 222.064 0.645027 220.149C0.218069 218.235 1.07114 211.494 1.07114 211.494C1.07114 211.494 1.8512 205.889 2.41821 204.543C2.98522 203.197 4.61921 197.732 5.61063 196.811C6.60206 195.888 9.72488 190.355 9.72488 190.355C9.72488 190.355 11.9946 186.454 12.279 183.474C12.5633 180.495 12.2094 175.672 11.9233 173.541C11.6415 171.413 11.2154 155.381 11.2154 155.381C11.2154 155.381 10.9319 135.163 10.9319 133.672C10.9319 132.182 11.4989 117 11.6415 115.157C11.7824 113.311 12.3494 103.734 13.5565 101.18L14.1965 83.3743L14.3688 64.4795Z" fill="#F8C2A0"/>
<path d="M13.5574 101.745C13.5574 98.3416 14.4393 76.0506 14.4393 63.2775C14.4393 44.5695 18.8269 29.856 20.8055 20.6242C21.381 17.9377 25.1149 3.85399 26.3228 1.73787C26.3228 1.73787 29.9295 -1.44436 35.7303 8.31711C41.5303 18.0786 42.4742 26.4446 41.083 36.7629C40.4124 41.7361 36.7209 62.2165 35.0233 71.978C33.9495 78.1532 31.2214 98.6955 30.37 103.518" stroke="black" stroke-miterlimit="10" stroke-linecap="round" stroke-linejoin="round"/>
<path d="M30.5822 103.095C30.5822 103.095 27.7845 145.713 26.7981 153.686C25.811 161.658 23.7712 187.404 24.3484 190.069C24.9307 192.731 27.5969 200.925 28.3006 204.785C29.0042 208.648 25.8568 211.582 28.0867 215.587C30.3191 219.591 24.3332 219.212 22.2739 211.727" stroke="black" stroke-miterlimit="10" stroke-linecap="round" stroke-linejoin="round"/>
<path d="M23.9903 206.374C23.9903 206.374 17.4705 224.861 16.9621 227.738C16.4536 230.616 13.9886 231.696 13.9072 227.45C13.8681 225.445 15.0921 217.949 15.6405 213.597" stroke="black" stroke-miterlimit="10" stroke-linecap="round" stroke-linejoin="round"/>
<path d="M16.6104 209.192C16.6104 209.192 12.3943 228.616 10.7433 230.198C9.09235 231.78 9.5244 214.589 11.2967 208.354" stroke="black" stroke-miterlimit="10" stroke-linecap="round" stroke-linejoin="round"/>
<path d="M6.16333 207.476C6.16333 207.476 3.72297 226.693 5.44183 227.723C7.1641 228.754 10.0195 218.558 10.0195 218.558" stroke="black" stroke-miterlimit="10" stroke-linecap="round" stroke-linejoin="round"/>
<path d="M5.64215 212.439C5.64215 212.439 3.03032 223.938 1.53045 223.086C0.0297324 222.236 1.11452 210.066 1.9209 206.457C3.59308 198.968 6.91453 194.494 9.29378 191.012C11.2724 188.114 13.3198 185.367 12.0253 174.587C11.4736 170.002 10.8319 130.129 11.1332 125.256C11.4337 120.384 11.6425 109.906 13.3435 101.817" stroke="black" stroke-miterlimit="10" stroke-linecap="round" stroke-linejoin="round"/>
<path d="M14.9773 64.5723C14.9773 64.5723 18.4643 67.0593 24.1998 67.7341C27.8073 68.1585 31.8392 68.583 35.6589 67.5219" stroke="black" stroke-miterlimit="10" stroke-linecap="round" stroke-linejoin="round"/>
</svg>
