<svg width="153" height="208" viewBox="0 0 153 208" fill="none" xmlns="http://www.w3.org/2000/svg">
<path d="M67.4521 124.301C67.4521 124.301 66.3979 123.271 67.1177 122.139C67.84 121.008 77.0336 107.888 77.0336 107.888L85.8427 94.1255L91.0715 85.4819C91.0715 85.4819 88.5539 77.6312 88.2203 76.3443C87.8867 75.0567 85.6271 65.7408 85.448 64.2732C85.2681 62.8065 84.3471 53.3879 84.8369 50.5571C85.3275 47.7263 86.9768 45.5151 88.5462 45.3606C90.1165 45.207 93.7173 46.5473 94.9523 47.2942C96.1873 48.0412 102.927 53.449 102.927 53.449C102.927 53.449 108.646 42.8506 109.471 41.3066C110.295 39.7635 120.677 18.8468 121.398 17.7153C122.121 16.583 128.816 5.13573 130.13 3.8243C131.443 2.51202 134.146 0.455319 135.768 0.53341C137.39 0.611502 139.705 1.41024 140.038 2.69791C140.372 3.98472 140.603 5.24523 140.037 6.19761C139.47 7.14914 133.133 17.1559 133.133 17.1559L127.569 27.1372L123.473 34.3149C123.473 34.3149 127.564 35.0118 128.439 35.8877C129.314 36.7637 132.503 39.3127 132.013 43.0179C131.521 46.723 127.812 53.2317 127.812 53.2317L120.188 64.8852L110.042 79.1879L103.862 87.7016L97.6015 98.7125L91.136 109.672L85.5991 119.112L82.1206 125.132C82.1206 125.132 78.1286 131.898 77.7933 131.924C77.458 131.949 74.8607 130.532 74.8607 130.532L75.6848 129.425L71.0299 125.305C71.0282 125.307 68.5335 123.479 67.4521 124.301Z" fill="#F9FFFF"/>
<path d="M84.0702 133.497C84.3792 134.198 85.0498 130.024 85.0769 128.608C85.1032 127.193 85.0557 122.587 83.5898 120.141C82.1239 117.695 80.8854 121.323 80.3965 123.278C79.9059 125.234 81.0119 127.808 81.0119 127.808C81.0119 127.808 83.583 132.391 84.0702 133.497Z" fill="#F9FFFF"/>
<path d="M91.0764 121.689C90.6036 121.931 89.125 114.637 87.968 112.707C87.968 112.707 90.3396 104.987 91.8573 106.352C93.3742 107.717 93.7841 111.758 93.8869 113.533C93.9887 115.309 92.0814 121.175 91.0764 121.689Z" fill="#F9FFFF"/>
<path d="M45.8768 186.823C46.229 185.595 47.2943 184.662 49.8162 184.2C52.3397 183.739 61.9382 181.66 61.9382 181.66L74.0093 178.887L88.2152 175.884L92.849 174.419C92.849 174.419 95.3759 165.645 95.7884 163.999C96.201 162.353 100.531 150.749 101.226 149.72C101.92 148.692 104.885 142.105 108.848 140.255C112.812 138.404 115.076 138.535 117.34 140.415C119.604 142.294 120.836 146.542 120.836 146.542L121.606 150.453L129.071 146.417C129.071 146.417 136.253 143.075 140.987 143.387C145.722 143.698 147.549 144.703 148.603 146.171C149.657 147.638 150.274 149.979 150.093 152.013C150.093 152.013 152.048 155.128 152.071 157.212C152.095 159.297 151.604 163.44 146.893 167.4C142.181 171.36 129.595 174.88 129.595 174.88L118.348 178.295L106.482 182.432L92.7895 186.439L77.6304 190.187L68.1592 193.064L62.445 194.914L53.6681 198.074L51.7889 199.026C51.7889 199.026 48.29 196.837 47.9301 196.09C47.5702 195.343 45.0008 189.884 45.8768 186.823Z" fill="#F9FFFF"/>
<path d="M53.1054 192.462C54.057 190.681 64.1232 186.909 63.4772 190.794C62.8321 194.68 61.3382 197.15 61.3382 197.15C61.3382 197.15 59.2509 201.549 57.1399 203.427C55.0289 205.304 52.1454 207.206 50.7304 206.306C49.3154 205.404 51.2728 202.832 51.2728 202.832L51.9688 200.928C51.9688 200.928 52.0758 194.392 53.1054 192.462Z" fill="#F9FFFF"/>
<path d="M69.7065 188.2C70.1156 185.794 79.204 183.907 79.0232 185.941C78.8415 187.974 78.1463 189.002 78.1463 189.002C78.1463 189.002 76.9088 192.63 76.4461 193.169C75.9818 193.71 73.0975 198.674 71.8625 199.677C70.6258 200.681 67.6651 202.454 66.5599 201.63C65.453 200.806 66.5098 198.337 67.1286 197.179C67.7466 196.021 68.9324 192.599 68.9324 192.599C68.9324 192.599 69.4739 189.563 69.7065 188.2Z" fill="#F9FFFF"/>
<path d="M2.15047 150.379C1.86612 146.923 -1.13193 132.261 1.40775 130.856C3.94743 129.451 11.3407 128.652 13.0213 130.095C14.702 131.537 15.2147 136.479 15.314 141.317C15.415 146.154 16.4379 156.037 16.4379 156.037L16.8775 169.419L18.6108 179.091L18.745 183.792L19.0166 188.527L19.2899 190.346L23.029 189.971L31.4128 189.397L41.7421 187.756L45.5839 187.552C45.5839 187.552 45.7885 190.228 46.4395 192.288C47.0914 194.347 48.9758 196.715 48.9758 196.715L46.2655 197.641L35.078 199.795L24.1324 200.99C24.1324 200.99 13.7352 202.322 12.7743 202.082C11.8135 201.841 9.75423 201.325 8.7611 198.305C7.76713 195.285 7.05071 187.668 7.05071 187.668C7.05071 187.668 5.5118 179.261 5.75287 178.3C5.99393 177.339 4.06116 169.467 4.16472 167.888C4.27082 166.307 2.76417 157.824 2.15047 150.379Z" fill="#C32F25"/>
<path d="M0.877434 136.373C-0.0774924 130.644 1.40795 129.052 2.68118 125.869C3.26942 124.399 5.12155 121.943 6.39478 122.155C8.26983 122.468 11.514 124.195 12.9214 125.256C16.1113 127.66 17.6527 130.234 18.8181 131.985C19.9844 133.736 24.9619 140.336 24.9619 140.336L31.6116 149.955L35.8379 156.11L38.375 159.371L39.2324 161.19L45.5009 154.131C45.5009 154.131 50.6176 147.684 52.6089 144.974C54.6003 142.265 58.6865 136.434 58.6865 136.434L65.107 127.688C65.107 127.688 66.8929 124.053 68.4718 124.156C70.0506 124.26 72.1081 125.942 72.1081 125.942L75.6825 129.426L70.5234 136.921L57.0984 154.996L48.7544 166.759L45.7657 171.115L44.4603 172.83C44.4603 172.83 43.0538 174.956 42.1956 175.47C41.3366 175.984 39.2086 176.91 36.8421 174.712C34.4764 172.515 28.3038 165.718 28.3038 165.718L24.6351 160.569L19.9038 154.425C19.9038 154.425 11.1601 144.504 10.7823 144.264C10.4072 144.024 1.37909 139.379 0.877434 136.373Z" fill="#C32F25"/>
<path d="M67.7983 124.915C67.7983 124.915 66.8188 123.913 66.9758 122.611C67.1337 121.31 76.8467 108.392 78.7337 105.537C80.6206 102.684 89.838 88.3834 91.101 85.2334" stroke="black" stroke-miterlimit="10" stroke-linecap="round" stroke-linejoin="round"/>
<path d="M75.0083 130.852C75.0083 130.852 77.0463 132.201 77.9673 131.871C78.8874 131.542 87.9359 115.019 90.1445 111.324C92.3548 107.628 102.67 89.7167 104.288 87.2713C105.904 84.8249 114.105 73.4847 116.478 70.2481C118.853 67.0115 129.045 51.95 130.576 48.3909C132.108 44.8327 133.172 39.676 128.74 36.2765C124.306 32.877 118.538 35.0423 115.574 39.5275C112.607 44.0144 106.152 57.3256 106.152 57.3256" stroke="black" stroke-miterlimit="10" stroke-linecap="round" stroke-linejoin="round"/>
<path d="M91.6801 87.7267C91.6801 87.7267 90.5223 82.7416 89.6463 80.8733C88.772 79.0059 85.5219 65.8398 85.1857 63.1558C84.8496 60.4727 84.0271 50.9039 85.6959 48.0239C87.3681 45.1413 89.6166 44.7534 93.7725 46.7982C97.93 48.8421 104.948 54.5369 106.838 58.9508C108.725 63.363 107.22 66.7048 104.042 65.659C100.867 64.6141 94.1103 56.7481 92.3668 54.7754" stroke="black" stroke-miterlimit="10" stroke-linecap="round" stroke-linejoin="round"/>
<path d="M91.3745 57.5203C91.3745 57.5203 93.4923 58.2163 94.3013 56.9932" stroke="black" stroke-miterlimit="10" stroke-linecap="round" stroke-linejoin="round"/>
<path d="M123.73 44.9209C123.73 44.9209 122.851 48.5581 120.33 49.3543C120.33 49.3543 113.223 62.5883 111.883 66.3893C110.542 70.1904 106.735 74.3555 104.294 74.4998C101.853 74.6441 100.375 70.5019 103.173 65.5549" stroke="black" stroke-miterlimit="10" stroke-linecap="round" stroke-linejoin="round"/>
<path d="M125.369 47.7598C125.369 47.7598 125.053 50.3648 123.265 50.5889C121.477 50.813 119.983 50.4123 119.983 50.4123" stroke="black" stroke-miterlimit="10" stroke-linecap="round" stroke-linejoin="round"/>
<path d="M101.492 72.1777C101.492 72.1777 97.5115 74.1181 97.0336 76.2606C96.5549 78.4047 98.4342 81.0564 98.4342 81.0564" stroke="black" stroke-miterlimit="10" stroke-linecap="round" stroke-linejoin="round"/>
<path d="M92.625 107.221C92.625 107.221 94.1376 111.081 93.7361 114.403C93.2116 118.743 91.0547 122.006 91.0547 122.006C91.0547 122.006 89.7314 116.559 88.4751 114.206" stroke="black" stroke-miterlimit="10" stroke-linecap="round" stroke-linejoin="round"/>
<path d="M84.2199 122.06C84.2199 122.06 86.3589 128.045 84.1316 133.72C84.1316 133.72 82.4076 129.767 80.6904 127.576" stroke="black" stroke-miterlimit="10" stroke-linecap="round" stroke-linejoin="round"/>
<path d="M8.90625 126.545C10.9341 127.394 14.4516 130.539 14.7241 134.169C14.9983 137.797 17.1008 158.87 16.9251 164.245C16.7511 169.619 18.8791 177.8 18.5905 180.627C18.3036 183.454 19.6108 188.388 19.1626 190.134" stroke="black" stroke-miterlimit="10" stroke-linecap="round" stroke-linejoin="round"/>
<path d="M45.1273 187.463C45.1273 187.463 37.9599 188.305 33.5307 189.141C29.1015 189.975 19.7246 190.935 17.8733 190.68" stroke="black" stroke-miterlimit="10" stroke-linecap="round" stroke-linejoin="round"/>
<path d="M48.9283 196.977C48.9283 196.977 41.7278 198.797 38.1882 199.367C34.6477 199.937 25.7181 200.82 22.5775 201.11C19.4377 201.4 14.3277 202.115 12.1811 201.947C10.0344 201.779 8.38259 198.399 8.02184 194.474C7.65939 190.55 6.07717 181.679 5.22835 175.419C4.79545 172.22 0.772028 143.27 0.665925 135.1C0.559822 126.93 4.48564 121.518 7.12463 122.199C7.12463 122.199 13.1046 123.844 17.5558 130.069C19.2263 132.403 34.2717 154.079 36.656 157.025C39.0378 159.971 39.2526 161.414 39.2526 161.414C39.2526 161.414 48.0829 151.689 51.232 147.096C54.3812 142.504 67.6279 124.151 67.6279 124.151C69.8807 123.051 75.6722 129.5 75.6722 129.5C75.6722 129.5 71.1565 136.005 68.4241 139.828C65.69 143.653 46.6043 169.12 44.3837 173.221C42.1658 177.323 38.8103 176.172 36.8988 174.806C34.9872 173.439 26.3021 163.765 25.0832 161.116C23.8643 158.469 16.0508 150.273 16.0508 150.273" stroke="black" stroke-miterlimit="10" stroke-linecap="round" stroke-linejoin="round"/>
<path d="M92.7742 175.217C92.7742 175.217 95.3257 165.909 96.9657 160.582C98.6056 155.256 103.878 140.46 111.849 139.055C119.817 137.651 121.72 148.375 121.84 153.662C121.964 158.948 120.94 166.35 117.786 167.127C114.629 167.907 111.71 155.387 113.069 149.66" stroke="black" stroke-miterlimit="10" stroke-linecap="round" stroke-linejoin="round"/>
<path d="M109.706 150.821C109.706 150.821 110.442 152.216 112.709 151.702" stroke="black" stroke-miterlimit="10" stroke-linecap="round" stroke-linejoin="round"/>
<path d="M51.8999 198.835C51.8999 198.835 48.3187 197.642 46.8766 193.878C46.0303 191.67 44.7596 186.766 46.4658 185.452C48.0242 184.251 50.8228 183.832 54.4668 183.069C58.1108 182.308 90.6996 175.834 92.1095 174.607" stroke="black" stroke-miterlimit="10" stroke-linecap="round" stroke-linejoin="round"/>
<path d="M77.4158 190.271C77.4158 190.271 90.6303 186.982 92.7065 186.364C94.7802 185.747 112.352 180.838 117.509 178.659C122.667 176.48 142.946 172.54 148.544 165.874C151.41 162.458 153.371 158.791 151.085 153.825C148.803 148.86 141.826 149.81 135.794 151.764C131.215 153.252 125.569 156.421 121.563 159.226" stroke="black" stroke-miterlimit="10" stroke-linecap="round" stroke-linejoin="round"/>
<path d="M142.766 160.014C142.766 160.014 139.65 162.553 137.016 162.37C137.016 162.37 126.862 167.812 122.104 169.711C116.866 171.804 113.968 173.262 110.506 171.39C107.046 169.516 111.201 165.054 114.564 163.891" stroke="black" stroke-miterlimit="10" stroke-linecap="round" stroke-linejoin="round"/>
<path d="M112.64 156.883C112.64 156.883 109.229 159.512 108.067 162.115C106.907 164.718 107.804 167.193 110.752 166.8" stroke="black" stroke-miterlimit="10" stroke-linecap="round" stroke-linejoin="round"/>
<path d="M122.042 150.536C122.042 150.536 131.042 145.037 135.455 144.123C140.774 143.025 145.468 143.079 148.216 145.81C150.963 148.541 150.068 152.032 150.068 152.032" stroke="black" stroke-miterlimit="10" stroke-linecap="round" stroke-linejoin="round"/>
<path d="M143.246 163.258C143.246 163.258 140.252 165.116 137.887 162.596" stroke="black" stroke-miterlimit="10" stroke-linecap="round" stroke-linejoin="round"/>
<path d="M52.443 194.157C52.443 194.157 52.0033 198.642 52.0432 200.405C52.0839 202.167 50.0502 204.547 50.4924 206.027C50.9329 207.509 54.8002 205.874 57.6361 202.933C60.4703 199.993 63.448 192.655 63.2859 191.573" stroke="black" stroke-miterlimit="10" stroke-linecap="round" stroke-linejoin="round"/>
<path d="M69.5259 189.233C69.5259 189.233 68.7017 193.51 68.0626 195.152C67.4208 196.795 65.7257 200.848 66.583 201.561C67.4395 202.273 70.7873 201.599 73.7581 197.489C77.2366 192.676 78.1754 187.949 78.1754 187.949" stroke="black" stroke-miterlimit="10" stroke-linecap="round" stroke-linejoin="round"/>
<path d="M68.8214 192.83L62.3916 195.067" stroke="black" stroke-miterlimit="10" stroke-linecap="round" stroke-linejoin="round"/>
<path d="M103.317 53.3131C103.317 53.3131 114.459 31.5018 116.263 28.1685C118.067 24.836 128.738 1.4458 134.367 0.843985C139.994 0.243868 140.679 3.26652 140.22 5.33935C139.762 7.41048 134.157 15.3164 133.186 17.11C132.214 18.9044 123.633 34.1476 123.633 34.1476" stroke="black" stroke-miterlimit="10" stroke-linecap="round" stroke-linejoin="round"/>
</svg>
