<svg width="99" height="134" viewBox="0 0 99 134" fill="none" xmlns="http://www.w3.org/2000/svg">
<path d="M3.41291 55.6378C2.70499 53.9402 0.0176198 43.3299 0.442031 37.8125C0.442031 37.8125 0.725539 26.2116 1.00735 24.0896C1.29085 21.9675 3.12941 13.4801 3.83732 11.499C4.54524 9.51784 7.94053 3.01077 9.49558 1.73753C11.0523 0.464296 12.6074 1.02961 13.1744 1.17137C13.7397 1.31312 20.9547 4.84932 22.5114 5.83989C24.0682 6.83047 31.8485 12.0652 33.687 14.0455C35.5273 16.0258 38.9226 18.8558 40.902 21.2605C42.8832 23.6652 45.1461 27.6258 45.1461 29.8896C45.1461 29.8896 53.9179 29.3234 57.4541 30.1723C60.992 31.0211 66.5093 34.4164 68.6314 36.2558C70.7535 38.0952 74.9976 42.4802 74.9976 42.4802L79.5235 48.422L80.7967 50.2613C80.7967 50.2613 84.8999 52.8087 86.4567 53.7984C88.0117 54.7881 93.8126 59.7402 95.3693 60.8716C96.9244 62.0031 98.1976 65.541 98.1976 67.3796C98.1976 69.2181 96.6426 74.1702 96.6426 74.1702L96.2181 75.726C96.2181 75.726 95.792 82.234 95.2267 84.7804C94.6614 87.3269 91.6905 92.7025 89.5685 95.249C87.4464 97.7954 80.9393 103.172 78.8173 104.728C76.6952 106.284 70.0455 110.246 68.207 109.538C66.3667 108.83 50.8061 95.6734 50.8061 95.6734C50.8061 95.6734 50.0982 94.2592 49.6738 92.4198C49.2494 90.5804 48.6841 84.0734 48.6841 82.6584C48.6841 81.2434 48.5414 76.8575 49.6738 74.7355C49.6738 74.7355 42.8832 77.4237 37.7902 77.4237C32.6973 77.4237 24.0665 75.8678 20.5303 73.7457C16.9941 71.6237 10.0609 65.9646 9.49558 64.2669C8.93026 62.5693 3.41291 55.6378 3.41291 55.6378Z" fill="#EFBC92"/>
<path d="M46.703 99.0688C46.703 99.0688 43.7321 99.2106 41.8936 99.635C40.0533 100.059 36.658 104.02 36.658 104.02C36.658 104.02 34.5359 106.283 34.1115 107.415C33.6871 108.548 33.4053 112.226 33.4053 112.226C33.4053 112.226 30.8588 114.348 30.8588 114.914C30.8588 115.479 30.2918 117.459 30.9998 118.874C31.7077 120.289 33.2627 121.279 34.8195 121.421C34.8195 121.421 34.9604 123.686 36.2336 125.524C37.5068 127.363 38.4966 127.929 39.0636 127.929C39.6289 127.929 42.318 127.929 42.318 127.929C42.318 127.929 42.4588 130.05 43.873 131.182C45.2888 132.315 47.2683 132.456 47.2683 132.456L49.1086 131.89C49.1086 131.89 51.088 133.729 52.3612 133.729C53.6345 133.729 56.8889 132.314 57.3133 132.031C57.7377 131.748 61.8409 128.636 62.2653 128.211C62.6897 127.787 64.6692 123.402 64.9527 122.129C65.2362 120.856 65.518 116.611 65.6606 114.489C65.8015 112.367 62.6897 105.718 59.2944 103.171C55.8991 100.625 52.3612 98.927 46.703 99.0688Z" fill="#EFBC92"/>
<path d="M69.9046 111.943C70.5013 110.153 69.9046 105.436 68.4887 102.748C67.0746 100.059 64.2447 96.3814 60.1431 95.1081C56.0399 93.8349 53.2099 93.127 52.2202 93.127C51.2305 93.127 49.5328 94.4002 48.9658 95.249C48.4005 96.0978 47.8352 98.9278 47.8352 98.9278C47.8352 98.9278 52.5037 99.3522 53.777 100.059C55.0502 100.766 59.0108 102.889 60.4249 104.445C61.8408 106.001 64.1037 109.821 64.1037 109.821L65.6605 114.489C65.6605 114.489 69.3376 113.64 69.9046 111.943Z" fill="#E48F4C"/>
<path d="M15.7148 2.37295C14.6453 1.87045 13.7804 1.45792 11.7296 0.75C11.7296 0.75 7.4388 0.746607 3.6191 12.6301C0.8061 21.3832 0.168633 31.5198 0.648218 42.5511C0.860424 47.4319 3.37464 54.8056 3.37464 54.8056" stroke="black" stroke-miterlimit="10" stroke-linecap="round" stroke-linejoin="round"/>
<path d="M16.1451 2.65723C16.1451 2.65723 27.1034 6.99046 36.6094 16.4956C46.1137 26.0007 45.1936 29.9868 45.1936 29.9868" stroke="black" stroke-miterlimit="10" stroke-linecap="round" stroke-linejoin="round"/>
<path d="M42.7405 30.5989C42.7405 30.5989 51.6336 28.4522 59.6057 30.9053C67.5787 33.3584 78.5803 44.3871 81.6454 52.6657" stroke="black" stroke-miterlimit="10" stroke-linecap="round" stroke-linejoin="round"/>
<path d="M80.7966 50.4033C80.7966 50.4033 86.6051 52.8157 95.0857 60.5892C97.6322 62.9235 97.9276 65.6957 98.0566 66.8136C98.481 70.4924 96.2181 75.868 96.2181 75.868" stroke="black" stroke-miterlimit="10" stroke-linecap="round" stroke-linejoin="round"/>
<path d="M96.4006 71.0732C96.4006 71.0732 96.7884 82.5867 93.9466 88.5505C87.5872 101.897 70.4698 109.255 70.4698 109.255" stroke="black" stroke-miterlimit="10" stroke-linecap="round" stroke-linejoin="round"/>
<path d="M57.0294 66.3887C57.0294 66.3887 48.9894 71.7863 48.6838 78.8384C48.3774 85.8904 49.794 93.4559 49.794 93.4559" stroke="black" stroke-miterlimit="10" stroke-linecap="round" stroke-linejoin="round"/>
<path d="M88.4275 79.3516C88.4275 79.3516 85.0543 87.6293 79.8417 91.6154" stroke="black" stroke-miterlimit="10" stroke-linecap="round" stroke-linejoin="round"/>
<path d="M40.2881 50.2227C40.2881 50.2227 47.6474 60.3415 60.5257 61.8753" stroke="black" stroke-miterlimit="10" stroke-linecap="round" stroke-linejoin="round"/>
<path d="M3.41284 55.2842C3.41284 55.2842 11.834 71.3719 24.0664 75.3045C39.9122 80.3975 49.5311 74.7384 49.5311 74.7384" stroke="black" stroke-miterlimit="10" stroke-linecap="round" stroke-linejoin="round"/>
<path d="M47.8351 98.7873C47.8351 98.7873 48.874 93.1494 52.2464 93.1494C55.6188 93.1494 62.9789 94.9905 66.3505 99.283C69.7245 103.575 70.6438 109.095 70.0301 111.547C69.4172 114.001 65.7376 114.613 65.7376 114.613" stroke="black" stroke-miterlimit="10" stroke-linecap="round" stroke-linejoin="round"/>
<path d="M33.4763 112.329C33.2692 110.81 33.6351 108.131 34.927 106.252C37.2061 102.937 40.3348 100.221 42.7302 99.6214C45.1256 99.0221 50.839 98.787 53.3651 99.8973C56.8181 101.417 62.1419 104.067 64.5373 110.353C66.931 116.639 64.8361 123.525 63.3405 126.519C61.8432 129.511 56.4243 133.042 53.461 133.404C50.7406 133.737 48.9708 132.207 48.9708 132.207" stroke="black" stroke-miterlimit="10" stroke-linecap="round" stroke-linejoin="round"/>
<path d="M42.8687 106.806C42.8687 106.806 37.067 111.225 34.995 112.193" stroke="black" stroke-miterlimit="10" stroke-linecap="round" stroke-linejoin="round"/>
<path d="M59.3062 124.07C59.3062 124.07 56.2674 127.938 52.676 130.01C51.7406 130.55 48.0644 132.639 46.8752 132.508C43.0063 132.082 42.3162 128.49 42.3162 128.49" stroke="black" stroke-miterlimit="10" stroke-linecap="round" stroke-linejoin="round"/>
<path d="M53.7803 119.651C52.0046 122.521 47.404 126.984 41.626 127.938C36.3633 128.808 34.995 123.219 34.995 121.723" stroke="black" stroke-miterlimit="10" stroke-linecap="round" stroke-linejoin="round"/>
<path d="M49.3604 113.021C49.3604 113.021 43.9738 118.27 41.0725 119.789C38.9343 120.908 35.0195 121.961 33.6147 121.17C30.5335 119.436 30.4147 117.718 30.7143 115.922C31.0131 114.125 32.3712 113.158 33.6147 112.192" stroke="black" stroke-miterlimit="10" stroke-linecap="round" stroke-linejoin="round"/>
</svg>
