<svg width="99" height="153" viewBox="0 0 99 153" fill="none" xmlns="http://www.w3.org/2000/svg">
<path d="M30.0209 14.196C31.0106 11.2251 37.5194 9.81099 44.8753 28.0607C46.7732 32.7708 47.6857 39.5105 47.9871 44.1883C48.2706 48.5733 47.7035 53.1001 47.7035 53.1001L39.2153 78.7057L36.8114 84.7892L33.698 92.2869L34.5468 91.7216C34.5468 91.7216 37.3768 88.6089 38.5091 87.7601C39.6397 86.9113 42.3288 87.1939 42.3288 87.1939C42.3288 87.1939 45.2997 83.0916 46.8547 80.9695C48.4115 78.8475 50.6744 77.5734 52.3721 77.0081C54.0697 76.4427 55.6265 77.1498 55.6265 77.1498L57.8894 73.1884C57.8894 73.1884 59.7297 76.0184 60.8603 77.5742C61.9926 79.1301 65.6714 81.253 67.51 81.5357L66.5203 83.7987C66.5203 83.7987 69.0667 84.6483 68.7832 88.3263C68.4997 92.0042 62.9824 102.897 62.9824 102.897C62.9824 102.897 54.6367 116.477 50.5335 121.43C46.4303 126.382 38.9335 135.718 32.8491 141.801C26.7665 147.885 21.1082 150.007 19.5515 150.573C17.9965 151.139 14.7421 152.837 10.2144 149.582C5.84809 146.444 2.43413 140.104 1.72621 135.011C1.72621 135.011 0.452975 125.108 0.877386 121.289C1.3018 117.469 1.7262 109.546 3.70735 103.322C5.6868 97.0972 8.80029 84.2231 8.80029 84.2231C8.80029 84.2231 11.9121 75.0278 12.3365 73.3301C12.7609 71.6325 15.1665 61.3049 15.8727 59.749C16.5806 58.1931 18.4208 51.2607 19.4106 48.2898C20.4003 45.319 22.665 38.104 22.8059 37.6796C22.9468 37.2551 25.9177 28.3425 25.9177 28.3425L30.0209 14.196Z" fill="#FF0000"/>
<path d="M60.0115 52.6394C60.4359 48.3953 63.7251 46.8037 63.7251 46.8037C63.7251 46.8037 65.2105 47.8648 64.8922 50.9417C66.3776 42.8779 67.8597 39.3655 70.7279 36.6179C73.1852 34.2658 78.0405 30.3383 80.2423 31.0309C87.8817 33.4356 85.1943 46.8742 85.1943 46.8742C85.1943 46.8742 88.8731 48.9971 87.7408 53.9483C87.7408 53.9483 88.7306 55.9294 89.155 58.6168C89.5794 61.3042 88.7305 63.5671 86.892 63.4262C86.892 63.4262 87.0329 67.1042 86.0432 67.2459C85.0517 67.3877 83.6376 66.1145 83.6376 66.1145L72.0376 71.9145C72.0376 71.9145 71.4706 74.8862 71.0462 76.4421C70.6218 77.998 68.6423 79.2712 68.6423 79.2712L67.51 81.535C67.51 81.535 63.5494 80.5445 61.8517 78.4224C60.1541 76.3003 57.8894 73.1877 57.8894 73.1877L59.1626 68.8027C59.1626 68.8027 59.8341 63.3125 59.7297 60.1727C59.587 55.9294 59.5871 56.8835 60.0115 52.6394Z" fill="#F8C2A0"/>
<path d="M83.6378 66.1149C83.6378 66.1149 82.5055 63.1449 79.3937 63.7102C79.3937 63.7102 77.4125 63.7094 75.1496 65.5488C72.8866 67.3882 71.7543 68.9441 71.7543 68.9441C71.7543 68.9441 71.3298 71.9158 73.1684 74.3205C75.0086 76.7252 77.696 77.9976 79.2527 76.5835C80.8078 75.1693 82.2236 73.4717 82.648 71.774C83.0725 70.0764 84.0622 68.0953 83.6378 66.1149Z" fill="#D5CABF"/>
<path d="M63.5496 46.0268C63.5496 46.0268 62.7008 44.6118 62.9826 42.0653C63.2661 39.5189 67.9347 19.5715 67.9347 19.5715L72.1788 1.74624C72.1788 1.74624 74.1582 1.18007 76.8473 0.897415C79.5347 0.614757 87.882 1.18092 87.882 1.18092C87.882 1.18092 92.4096 1.32183 93.9647 1.74624C95.5214 2.17065 96.9356 5.00063 96.9356 5.00063C96.9356 5.00063 98.0679 6.83918 98.0679 8.11241C98.0679 9.38565 93.5403 26.7865 93.5403 26.7865L90.145 40.2268C90.145 40.2268 89.0126 44.1874 88.3064 45.0362C87.5985 45.885 85.1946 46.8748 85.1946 46.8748C85.1946 46.8748 83.2135 45.6032 81.2323 45.3197C79.2529 45.0362 75.1496 45.3197 72.7441 46.8756C72.7441 46.8756 72.6032 45.4606 73.452 43.0559C74.3008 40.6512 77.6961 40.085 78.545 40.085C79.3938 40.085 83.4953 38.5291 83.6379 37.1141C83.7788 35.6992 81.9402 34.1441 80.1017 33.4362C78.2614 32.7283 74.0173 34.5677 72.3197 35.4165C70.622 36.2653 68.6426 38.1047 67.6511 41.0756L65.5291 48.1836C65.5291 48.1836 64.0436 47.547 63.5496 46.0268Z" fill="#D5CABF"/>
<path d="M67.3692 21.6937C67.3692 21.6937 64.2557 18.0149 61.5684 17.874C58.881 17.7331 55.6266 19.2899 55.0613 22.4016C54.4943 25.5134 55.9084 26.9284 57.7487 29.0505C59.5872 31.1725 64.3983 34.8505 64.3983 34.8505L67.3692 21.6937Z" fill="#49E61D"/>
<path d="M77.0593 7.97174L84.1334 8.18394L94.3889 8.25439C94.3889 8.25439 93.6216 6.28682 92.2669 5.84968C90.0752 5.14176 89.296 7.47602 89.296 7.47602C89.296 7.47602 88.2366 4.71735 86.6799 4.57644C85.7776 4.49411 85.0519 5.42527 85.0519 5.42527L83.7786 7.12291C83.7786 7.12291 82.7889 5.35397 80.8077 4.92956C78.8283 4.50514 78.4998 5.28096 78.1204 5.70792C77.555 6.34454 77.0593 7.97174 77.0593 7.97174Z" fill="#49E61D"/>
<path d="M55.4019 76.8067C55.4019 76.8067 50.1901 75.2644 46.3483 81.8996C43.2357 87.2752 40.6892 88.4076 40.6892 88.4076" stroke="black" stroke-miterlimit="10" stroke-linecap="round" stroke-linejoin="round"/>
<path d="M41.0558 87.0532C41.0558 87.0532 36.855 86.2104 31.5762 97.5218C29.5967 101.766 26.9077 103.746 26.9077 103.746C26.9077 103.746 17.995 107.141 16.2974 112.801" stroke="black" stroke-miterlimit="10" stroke-linecap="round" stroke-linejoin="round"/>
<path d="M24.2203 104.878C24.2203 104.878 21.392 103.18 18.562 104.878" stroke="black" stroke-miterlimit="10" stroke-linecap="round" stroke-linejoin="round"/>
<path d="M54.0701 78.8472C54.0701 78.8472 58.3142 74.8858 59.163 68.6613C59.163 68.6613 59.73 57.7692 59.73 55.081C59.73 52.3928 60.4363 48.9975 63.6906 46.5928" stroke="black" stroke-miterlimit="10" stroke-linecap="round" stroke-linejoin="round"/>
<path d="M66.2372 87.3349C63.5498 87.7602 53.2213 82.8081 53.7883 78.8467" stroke="black" stroke-miterlimit="10" stroke-linecap="round" stroke-linejoin="round"/>
<path d="M71.8953 47.1578C71.8953 47.1578 76.4679 44.5723 80.8512 45.2191C86.3253 46.0263 89.6382 50.4937 87.7411 53.9484" stroke="black" stroke-miterlimit="10" stroke-linecap="round" stroke-linejoin="round"/>
<path d="M79.5347 56.4945C79.5347 56.4945 83.497 55.363 85.4765 58.7583C87.7411 62.1536 87.1741 70.0765 84.3458 66.3977" stroke="black" stroke-miterlimit="10" stroke-linecap="round" stroke-linejoin="round"/>
<path d="M76.7063 50.5525C76.7063 50.5525 81.3748 48.0061 86.0434 52.2502C88.9387 54.8824 91.0523 63.5081 87.174 63.5676" stroke="black" stroke-miterlimit="10" stroke-linecap="round" stroke-linejoin="round"/>
<path d="M71.6133 70.3584C71.6133 70.3584 72.744 76.3002 68.7834 79.4128L64.8228 86.7687" stroke="black" stroke-miterlimit="10" stroke-linecap="round" stroke-linejoin="round"/>
<path d="M71.6134 68.9444C71.6134 68.9444 75.8576 63.2844 79.8182 63.5679C83.7788 63.8514 84.5631 65.7952 82.93 70.9247C81.1491 76.5244 77.5416 79.7074 73.3111 74.32C71.5642 72.0952 71.6134 68.9444 71.6134 68.9444Z" stroke="black" stroke-miterlimit="10" stroke-linecap="round" stroke-linejoin="round"/>
<path d="M64.8228 51.9676C64.8228 51.9676 66.5204 39.8006 70.7645 36.4053C75.0086 33.01 81.7992 32.4447 83.4969 35.84C85.1945 39.2353 77.2716 40.0841 75.2904 40.9329C73.311 41.7817 72.4257 44.6457 72.4257 46.9095" stroke="black" stroke-miterlimit="10" stroke-linecap="round" stroke-linejoin="round"/>
<path d="M85.4765 47.158C85.4765 47.158 87.2591 47.1852 89.0713 43.5624C90.628 40.4506 97.4186 10.1756 97.9848 8.478C98.5501 6.78036 95.4502 2.5931 94.1074 1.81558C93.2857 1.34024 88.4355 1.0508 79.3107 0.838595C77.3346 0.792759 72.4717 1.02108 72.2502 1.81558C70.8224 6.92125 63.9809 37.8031 63.6066 39.46C62.6169 43.8459 63.2408 46.1674 63.7484 46.675C65.0929 48.0221 66.2948 44.2703 66.861 42.7136" stroke="black" stroke-miterlimit="10" stroke-linecap="round" stroke-linejoin="round"/>
<path d="M74.1599 3.01855C74.1599 3.01855 75.2074 7.13365 76.1971 7.76942C77.1877 8.40519 94.165 8.05207 95.8626 8.33558C97.5603 8.61908 93.9647 3.58471 93.9647 3.58471" stroke="black" stroke-miterlimit="10" stroke-linecap="round" stroke-linejoin="round"/>
<path d="M77.3306 7.62851C77.3306 7.62851 77.8959 3.95056 80.7259 4.79939C83.555 5.64821 83.8376 7.62851 83.8376 7.62851C83.8376 7.62851 84.97 4.23406 86.9503 4.51672C88.9306 4.79938 89.2141 8.19468 89.2141 8.19468C89.2141 8.19468 89.4967 5.36555 91.7605 5.64821C94.0235 5.93087 94.307 8.19468 94.307 8.19468" stroke="black" stroke-miterlimit="10" stroke-linecap="round" stroke-linejoin="round"/>
<path d="M67.1444 21.6336C67.1444 21.6336 65.6046 19.5115 63.6023 18.5218C62.2671 17.8614 60.0601 17.5312 58.2122 18.521C55.5512 19.9461 54.401 23.0808 55.2244 25.5119C56.2099 28.4242 64.064 34.6494 64.064 34.6494" stroke="black" stroke-miterlimit="10" stroke-linecap="round" stroke-linejoin="round"/>
<path d="M67.5686 81.6178C67.5686 81.6178 64.7386 81.0517 61.9935 78.5646C59.3248 76.1463 58.3147 73.4717 58.3147 73.4717" stroke="black" stroke-miterlimit="10" stroke-linecap="round" stroke-linejoin="round"/>
<path d="M65.1411 30.9709C65.1411 30.9709 60.8444 24.3093 58.9974 23.6727C57.1486 23.0361 56.9178 25.3704 59.4591 25.5826C61.9997 25.7948 63.6022 23.3315 63.6022 23.3315C65.2065 21.2222 62.5947 19.6527 61.7544 21.0685C60.83 22.6244 64.5266 26.1615 65.7583 27.4347" stroke="black" stroke-miterlimit="10" stroke-linecap="round" stroke-linejoin="round"/>
<path d="M32.9919 94.4086C32.9919 94.4086 35.8219 86.4865 37.5196 83.0912C39.2172 79.6959 40.9149 74.0368 43.1778 67.8124C47.4016 56.1971 48.2708 51.4021 48.2708 51.4021C48.2708 51.4021 48.6952 41.3571 46.5731 33.7177C44.4511 26.0783 37.944 15.1854 35.5384 13.4877C33.1329 11.7901 31.0125 11.3682 30.162 13.6303C30.162 13.6303 29.1722 17.7327 28.7478 19.0059C28.3234 20.2792 24.6446 32.7288 24.6446 32.7288C20.4099 43.4215 21.7366 42.3927 17.8541 53.6659C15.2244 61.3019 14.0343 67.8124 12.0549 74.8856C11.1611 78.0746 6.88556 88.4549 2.49121 108.781C-2.03557 129.719 2.37321 146.872 13.2432 151.222C16.0724 152.354 25.1268 150.656 37.0103 137.641C44.839 129.066 61.06 109.628 67.5679 93.7838C70.6457 86.2896 67.0018 83.8806 67.0018 83.8806" stroke="black" stroke-miterlimit="10" stroke-linecap="round" stroke-linejoin="round"/>
<path d="M75.349 9.89355C75.349 9.89355 72.5207 22.0597 69.8325 36.9141" stroke="black" stroke-miterlimit="10" stroke-linecap="round" stroke-linejoin="round"/>
<path d="M63.7253 47.0166C63.7253 47.0166 65.1047 47.6532 65.1047 49.3509" stroke="black" stroke-miterlimit="10" stroke-linecap="round" stroke-linejoin="round"/>
</svg>
