<svg width="55" height="251" viewBox="0 0 55 251" fill="none" xmlns="http://www.w3.org/2000/svg">
<path d="M14.3781 124.185C14.0963 121.921 13.458 107.644 13.458 105.946C13.458 104.249 14.0946 92.0467 14.2024 89.1819C14.3068 86.3171 16.9611 65.0965 17.3855 62.9745C17.8099 60.8524 20.673 42.7088 21.4174 39.3135C22.1584 35.9183 24.7049 21.5944 25.2371 19.3662C25.7659 17.1381 28.3158 4.67648 28.7402 3.08494C29.1646 1.49339 29.4626 -0.00902313 32.2756 0.892427C35.8126 2.02476 38.9965 5.63141 41.2604 9.87552C43.8662 14.763 44.7685 19.0691 45.2201 22.113C45.7863 25.9327 44.9723 29.7643 44.9723 29.7643L41.4692 51.6215L37.4373 74.6458C37.4373 74.6458 34.7864 91.7284 34.2542 93.9565C33.7254 96.1847 33.0887 101.172 33.0887 101.914C33.0887 102.657 34.5742 119.457 34.4681 123.478C34.362 127.499 29.6586 127.157 26.1216 127.722C22.5846 128.287 14.6616 126.449 14.3781 124.185Z" fill="#F8C2A0"/>
<path d="M19.7546 48.3552C19.7546 48.3552 24.8476 20.2022 25.8373 15.9581C26.8287 11.714 29.517 0.679319 29.517 0.679319C29.517 0.679319 33.9359 -0.37407 38.9941 6.48018C43.3791 12.4219 45.5028 21.9007 45.0784 27.2763C44.654 32.6519 41.2587 52.8828 41.2587 52.8828C41.2587 52.8828 36.1658 53.5899 28.102 51.6096C23.1262 50.3881 19.7546 48.3552 19.7546 48.3552Z" fill="#F0306C"/>
<path d="M13.5667 103.293C13.5667 73.8341 27.2285 6.88577 29.3505 0.944009C29.3505 0.944009 34.3611 -1.69243 41.2612 9.87533C46.282 18.2931 45.114 29.1623 45.114 29.1623C45.114 29.1623 34.5054 93.9563 33.0896 101.596C33.0896 101.596 34.4689 118.667 34.3263 124.185C34.1863 129.702 15.0877 127.863 14.5216 124.892C13.9546 121.921 13.5667 103.293 13.5667 103.293Z" stroke="black" stroke-miterlimit="10" stroke-linecap="round" stroke-linejoin="round"/>
<path d="M20.3201 48.7793C20.3201 48.7793 25.1193 51.0966 29.0927 51.8919C36.1659 53.3069 41.5406 53.0234 41.5406 53.0234" stroke="black" stroke-miterlimit="10" stroke-linecap="round" stroke-linejoin="round"/>
<path d="M13.0386 177.473C13.0412 173.59 14.9909 172.393 14.9909 172.393C14.9909 172.393 13.8238 171.708 13.4325 170.483C13.0429 169.258 7.2641 134.539 9.13915 129.782C11.0134 125.026 17.0451 123.395 23.8306 122.849C33.1023 122.104 40.3512 123.272 43.2092 128.371C45.0995 131.741 40.2035 160.818 37.7606 169.628C37.4117 170.886 36.6818 172.32 36.4823 172.589C36.4823 172.589 37.809 173.662 38.8182 176.352L13.0386 177.473Z" fill="#4D796C"/>
<path d="M35.3061 240.539C35.3061 240.539 31.9439 237.475 31.5704 233.739C31.1978 230.002 30.5255 210.5 30.5255 210.5C30.5255 210.5 29.8524 201.607 31.3463 200.636C32.8411 199.665 34.335 199.44 34.8587 201.085C35.3825 202.729 35.9053 208.034 35.9053 209.977C35.9053 211.92 35.7551 223.427 35.7551 223.427L35.98 234.785L35.8298 237.475L35.3061 240.539Z" fill="#682527"/>
<path d="M31.1221 249.507C30.4421 250.323 29.0297 249.731 27.5349 248.834C26.041 247.938 20.0627 243.381 17.2234 240.84C14.385 238.299 8.18261 231.799 6.98747 229.184C5.79147 226.568 3.02686 221.264 2.42843 217.303C1.83171 213.342 0.858964 208.262 1.23329 205.198C1.60678 202.134 2.1305 197.127 2.50398 195.559C2.87662 193.989 5.04366 187.712 5.79148 186.592C6.53929 185.471 8.93042 181.437 10.5737 180.39C12.2179 179.344 14.3833 176.803 19.1664 175.532C23.9486 174.262 30.1502 174.635 32.318 175.084C34.4842 175.532 39.1171 176.655 41.7332 179.045C41.7332 179.045 45.6929 181.735 46.2905 182.706C46.8889 183.677 47.86 184.948 47.411 186.89C46.9636 188.833 46.2167 190.179 44.1235 191.15C44.1235 191.15 45.5427 194.288 44.497 196.156C43.4504 198.024 38.2191 200.117 38.2191 200.117L34.8569 201.088C34.8569 201.088 30.9718 201.461 30.6722 206.394C30.3734 211.326 31.0457 222.085 31.0457 222.085L31.3444 236.73L31.6449 246.519C31.6458 246.518 31.4955 249.058 31.1221 249.507Z" fill="#D03517"/>
<path d="M32.0421 202.767C32.0421 202.767 34.8212 203.166 35.0062 205.542C35.1904 207.918 31.0651 208.193 31.0651 208.193C31.0651 208.193 35.1463 208.724 35.4196 210.607C35.6912 212.489 30.7629 213.844 30.7629 213.844C30.7629 213.844 34.8865 213.567 35.5197 215.718C36.1513 217.869 31.2671 219.538 31.2671 219.538C31.2671 219.538 34.8976 219.171 34.4519 220.517C34.0071 221.863 31.4106 223.84 31.4106 223.84C31.4106 223.84 35.2693 225.044 34.8687 226.703C34.4681 228.363 31.3809 231.372 31.3809 231.372C31.3809 231.372 35.3245 230.962 34.7906 232.801C34.2567 234.641 31.9725 235.451 31.9725 235.451C31.9725 235.451 35.6479 235.4 35.6063 237.328C35.5656 239.256 31.7561 239.487 31.7561 239.487C31.7561 239.487 35.4366 241.678 35.0792 242.53C34.7219 243.382 31.8095 244.283 31.8095 244.283C31.8095 244.283 35.8033 246.428 35.1327 247.326C34.4621 248.224 31.8605 247.96 31.8605 247.96L31.4963 245.996L31.1975 225.671L30.5991 210.951L30.9726 205.198L32.0421 202.767Z" fill="white"/>
<path d="M11.5533 157.44C11.5533 157.44 13.4191 155.847 15.5793 155.392C19.8387 154.495 21.4107 154.73 22.9793 154.504C24.5488 154.275 25.4426 152.705 25.575 151.405C25.7075 150.104 25.6667 139.589 25.5012 136.521C25.418 135.019 23.7925 133.526 22.1764 133.478C20.3989 133.424 16.3645 133.648 12.5533 135.442C10.4643 136.425 9.14014 138.57 9.14014 138.57L11.5533 157.44Z" fill="#A8C7B6"/>
<path d="M35.3262 201.406C35.3262 201.406 36.5171 209.96 36.1275 217.225C35.7387 224.489 36.2149 237.131 35.9034 238.296C35.591 239.463 34.597 241.962 36.5756 242.556C38.8165 243.229 43.0657 239.363 45.0783 236.669C47.0917 233.975 52.2245 222.981 53.5538 214.461C54.8805 205.939 52.8849 191.525 47.6715 185.394C47.6715 185.394 47.5789 186.944 47.1868 187.897C46.7946 188.85 45.7862 190.419 44.1047 190.923C44.1047 190.923 44.945 192.94 44.889 194.061C44.8338 195.181 45.4492 196.863 42.087 198.6C38.724 200.338 35.3618 201.066 35.3618 201.066L35.3262 201.406Z" fill="#D03517"/>
<path d="M13.1143 178.37C13.1143 178.37 12.3861 175.12 14.8519 173.046L14.739 172.374C14.739 172.374 13.3384 171.308 13.1695 169.908C13.0023 168.507 14.9631 166.77 17.1488 165.873C19.3328 164.976 26.227 163.688 29.646 164.136C33.0651 164.584 36.5393 165.873 36.5393 165.873L38.332 167.498L37.7718 170.076L36.6514 172.934C36.6514 172.934 38.5009 175.12 38.9491 177.024C38.9491 177.024 35.0259 175.512 31.9998 175.12C28.9738 174.727 25.0496 174.222 22.4166 174.84C19.7819 175.456 16.4757 176.689 16.4757 176.689L13.1143 178.37Z" fill="#A8C7B6"/>
<path d="M18.7191 137.296C18.4186 136.62 21.1094 135.404 22.0057 136.62C22.9029 137.837 22.9029 147.839 22.9029 149.46C22.9029 151.083 19.6154 152.975 19.4661 150.407C19.3158 147.839 18.7191 137.296 18.7191 137.296Z" fill="#FBF86E"/>
<path d="M38.8932 176.801C37.8848 174.111 36.5572 173.037 36.5572 173.037C36.7576 172.768 37.4876 171.334 37.8364 170.076C40.2776 161.265 45.1745 132.188 43.2842 128.818C40.4262 123.72 33.1772 122.552 23.9055 123.298C17.1209 123.843 11.0875 125.474 9.21411 130.231C7.33906 134.988 13.1178 169.706 13.5075 170.931C13.8988 172.156 15.0667 172.842 15.0667 172.842C15.0667 172.842 13.1161 174.038 13.1144 177.921" stroke="black" stroke-miterlimit="10" stroke-linecap="round" stroke-linejoin="round"/>
<path d="M9.14038 138.57C9.14038 138.57 10.4645 136.426 12.5535 135.442C16.3639 133.648 20.3992 133.424 22.1758 133.478C23.7919 133.526 25.4191 135.019 25.5006 136.521C25.667 139.589 25.706 150.104 25.5744 151.405C25.4429 152.705 24.5482 154.276 22.9796 154.504C21.411 154.73 19.8389 154.495 15.5796 155.392C13.4193 155.847 11.5527 157.44 11.5527 157.44" stroke="black" stroke-miterlimit="10" stroke-linecap="round" stroke-linejoin="round"/>
<path d="M8.86353 134.445C8.86353 134.445 9.83373 131.477 12.3972 130.089C16.5887 127.819 22.5228 127.005 25.5718 127.06C30.3752 127.148 33.4641 127.358 36.1549 128.249C38.8465 129.141 43.156 131.238 43.4734 133.436" stroke="black" stroke-miterlimit="10" stroke-linecap="round" stroke-linejoin="round"/>
<path d="M25.9604 141.898C28.1343 140.821 33.1771 141.27 35.1948 142.166" stroke="black" stroke-miterlimit="10" stroke-linecap="round" stroke-linejoin="round"/>
<path d="M35.0335 128.252C35.0335 128.252 35.3569 132.69 35.4553 137.801C35.5546 142.912 32.8155 162.689 32.5481 164.168" stroke="black" stroke-miterlimit="10" stroke-linecap="round" stroke-linejoin="round"/>
<path d="M38.333 167.723C37.4358 166.378 35.3069 164.585 30.0392 164.248C25.2518 163.942 21.2971 164.472 17.261 165.818C15.8341 166.293 13.7715 167.957 13.2375 169.797" stroke="black" stroke-miterlimit="10" stroke-linecap="round" stroke-linejoin="round"/>
<path d="M31.6069 247.19C31.6069 247.19 31.9439 250.552 29.5782 249.808C27.7515 249.233 18.2227 243.284 10.2683 233.705C2.31402 224.126 0.630806 211.397 1.51104 203.101C2.39127 194.806 4.63131 185.699 10.8965 180.172C15.8188 175.828 21.0645 174.887 24.7713 174.672C28.4773 174.456 35.576 175.104 39.6139 177.56C43.6543 180.018 48.5036 183.64 47.4349 187.318C46.3662 190.997 43.8104 191.047 43.8104 191.047C43.8104 191.047 45.7729 193.584 44.5362 196.067C43.4208 198.312 40.6876 199.347 36.6998 200.567C34.7238 201.169 32.1739 201.381 31.2818 204.073C30.3905 206.766 30.6537 210.785 30.9355 217.151C31.2164 223.516 31.6884 242.214 31.6069 247.19Z" stroke="black" stroke-miterlimit="10" stroke-linecap="round" stroke-linejoin="round"/>
<path d="M35.177 201.107C35.177 201.107 36.3687 209.662 35.9791 216.927C35.5904 224.191 36.0649 236.833 35.7542 237.999C35.4418 239.165 34.4479 241.664 36.4265 242.258C38.6691 242.93 42.9166 239.066 44.9291 236.371C46.9417 233.677 52.0762 222.683 53.4038 214.163C54.7313 205.641 52.7349 191.227 47.5231 185.096" stroke="black" stroke-miterlimit="10" stroke-linecap="round" stroke-linejoin="round"/>
<path d="M31.8597 247.875C31.8597 247.875 34.4614 248.14 35.1319 247.241C35.8025 246.343 31.8088 244.199 31.8088 244.199C31.8088 244.199 34.7211 243.296 35.0785 242.444C35.4358 241.592 31.7553 239.401 31.7553 239.401C31.7553 239.401 35.5648 239.17 35.6056 237.242C35.6472 235.315 31.9718 235.366 31.9718 235.366C31.9718 235.366 34.256 234.555 34.7899 232.717C35.3238 230.876 31.3801 231.287 31.3801 231.287C31.3801 231.287 34.4682 228.277 34.868 226.619C35.2686 224.959 31.4099 223.755 31.4099 223.755C31.4099 223.755 34.0064 221.778 34.4512 220.432C34.8968 219.086 31.2664 219.452 31.2664 219.452C31.2664 219.452 36.1505 217.784 35.519 215.632C34.8866 213.482 30.7622 213.759 30.7622 213.759C30.7622 213.759 35.6913 212.404 35.4189 210.522C35.1455 208.64 31.0644 208.109 31.0644 208.109C31.0644 208.109 35.1888 207.833 35.0055 205.457C34.8204 203.081 32.0414 202.683 32.0414 202.683" stroke="black" stroke-miterlimit="10" stroke-linecap="round" stroke-linejoin="round"/>
<path d="M35.3061 240.689C35.3061 240.689 34.5218 240.24 34.1296 239.217" stroke="black" stroke-miterlimit="10" stroke-linecap="round" stroke-linejoin="round"/>
<path d="M37.3569 171.217C37.3569 171.217 36.2551 169.634 33.0525 168.571C30.658 167.776 27.6039 167.078 21.6613 167.644C18.8644 167.91 16.5344 169.349 15.7467 170.081C14.5006 171.24 14.8096 172.611 14.8096 172.611" stroke="black" stroke-miterlimit="10" stroke-linecap="round" stroke-linejoin="round"/>
<path d="M36.5573 173.038C36.5573 173.038 35.0311 172.086 32.2783 171.523C28.5843 170.767 25.7899 170.801 23.9692 170.911C21.4278 171.066 16.4885 171.748 15.3562 172.766" stroke="black" stroke-miterlimit="10" stroke-linecap="round" stroke-linejoin="round"/>
<path d="M18.719 137.632C18.719 135.811 21.1093 135.879 22.0056 137.005C22.9028 138.133 22.7356 147.409 22.9028 148.903C23.2025 151.596 19.6154 152.16 19.466 149.781C19.3157 147.4 18.719 139.453 18.719 137.632Z" stroke="black" stroke-miterlimit="10" stroke-linecap="round" stroke-linejoin="round"/>
<path d="M6.61314 201.57C6.61314 201.57 6.27701 203.588 6.5011 205.157" stroke="black" stroke-miterlimit="10" stroke-linecap="round" stroke-linejoin="round"/>
</svg>
