<svg width="102" height="124" viewBox="0 0 102 124" fill="none" xmlns="http://www.w3.org/2000/svg">
<path d="M65.9493 85.1872C65.9493 85.1872 63.2602 81.3675 60.9973 78.5383C58.7343 75.7092 50.1052 66.2304 47.5587 64.5328C45.0122 62.8351 38.2216 59.0145 29.4499 58.4492C20.679 57.8839 12.6152 57.6004 11.342 59.4398C10.0687 61.2792 8.37109 65.9469 7.52226 68.6351C6.67344 71.3233 4.40963 79.5289 4.26788 80.236C4.12612 80.943 2.85289 86.1786 3.2773 88.0171C3.2773 88.0171 1.86316 91.2698 1.72141 91.9777C1.57966 92.6857 0.872585 94.9495 1.86316 96.081C2.85374 97.2124 7.38051 100.89 7.38051 100.89L11.2002 103.296C11.2002 103.296 17.4246 107.399 19.264 108.389C21.1034 109.379 27.3279 111.36 31.0058 111.784C34.6838 112.209 42.1823 112.633 43.8799 112.916C45.5775 113.198 51.8028 112.208 53.9249 111.925C56.0469 111.642 67.0816 86.8848 65.9493 85.1872Z" fill="#EFBC92"/>
<path d="M71.7503 90.7036C71.7503 90.7036 78.2574 90.7036 80.5203 90.7036C82.785 90.7036 88.7268 90.1383 90 90.4209C91.2732 90.7036 93.5362 92.4012 94.385 94.5233C95.2338 96.6454 95.9417 100.041 95.9417 100.041C95.9417 100.041 97.0724 105.416 97.215 108.529C97.3559 111.642 95.3747 115.037 94.385 115.744C94.385 115.744 92.8283 118.008 91.8385 118.432C90.8488 118.857 88.8677 119.281 88.8677 119.281C88.8677 119.281 87.7353 122.252 86.4621 122.676C85.1889 123.101 82.6424 122.676 81.0873 120.554C81.0873 120.554 79.6715 122.958 75.9944 121.968C72.3156 120.979 71.7486 118.007 71.0424 116.451C71.0424 116.451 65.8085 115.886 63.9683 115.037C62.1297 114.188 58.8753 111.782 58.7344 111.075C58.5935 110.368 59.0179 104.992 59.7242 102.87C60.4321 100.748 63.6865 95.9383 64.5353 95.0895C65.3841 94.2406 69.7691 91.128 71.7503 90.7036Z" fill="#EFBC92"/>
<path d="M7.94678 67.3603C7.94678 67.3603 13.4641 53.4965 14.5956 51.7988C15.7271 50.1012 20.6791 43.0279 24.3571 40.7641C28.035 38.5003 31.4303 34.8223 35.6744 32.5585C39.9186 30.2947 45.8595 27.3238 47.6997 27.0412C47.6997 27.0412 52.7926 17.845 54.4903 16.0065C56.1879 14.1679 59.865 8.79234 65.1006 6.95294C70.3344 5.11354 75.4274 2.56792 78.8227 2.28442C82.218 2.00091 89.292 0.727675 91.8385 1.29384C94.385 1.86001 98.3456 7.94353 99.4779 11.1971C100.61 14.4506 101.882 21.6656 100.751 27.1829C99.6188 32.7003 99.4779 34.9285 99.4779 34.9285L97.0724 44.5838L96.2235 45.998C96.2235 45.998 94.5259 55.4776 93.2527 58.165C91.9794 60.8524 89.5756 67.2194 83.6338 71.0391C77.692 74.8588 71.3259 77.5462 69.4856 77.9706C67.6471 78.395 55.48 81.3659 48.265 79.81C41.05 78.2541 7.94678 67.3603 7.94678 67.3603Z" fill="#EFBC92"/>
<path d="M58.1689 89.2902C58.1689 89.2902 60.4319 87.0272 61.9886 86.3193C63.5436 85.6114 64.9595 84.9052 66.6571 85.8949C68.3548 86.8846 69.061 87.8752 69.061 87.8752C69.061 87.8752 70.9012 88.5831 71.3257 89.2902C71.7501 89.9973 71.7501 90.7043 71.7501 90.7043C71.7501 90.7043 68.3548 91.6941 65.3839 94.524C62.413 97.354 60.0074 101.315 59.7239 103.437C59.4421 105.559 58.0263 109.378 58.7342 111.076L60.0074 112.067C60.0074 112.067 57.3184 113.34 56.6122 113.34C55.9042 113.34 54.4901 112.208 54.4901 112.208C54.4901 112.208 51.9436 112.915 51.0948 112.349C50.246 111.784 49.6807 111.077 49.6807 107.964C49.6807 104.852 51.9436 98.2028 52.5089 96.5052C53.076 94.8076 57.461 89.7146 58.1689 89.2902Z" fill="#DA4F4D"/>
<path d="M56.8957 99.4767C58.1673 97.1424 62.2705 91.6964 63.2619 90.9884C64.2516 90.2805 67.0816 87.7341 68.2122 87.8758C69.3446 88.0176 71.3257 89.2908 71.3257 89.2908L71.7501 90.7049C71.7501 90.7049 68.7776 91.5546 67.2225 92.6861C65.6658 93.8176 61.7052 97.9199 61.5643 98.9105C61.4217 99.9011 59.2996 102.731 59.0178 106.267L58.7343 111.077L60.0075 112.067C60.0075 112.067 58.3099 113.199 57.1775 113.199C56.0469 113.199 54.2253 113.515 54.3493 110.936C54.4902 107.965 56.0469 101.033 56.8957 99.4767Z" fill="#49B6BB"/>
<path d="M96.4304 46.0886C98.5839 40.55 99.9021 32.7018 99.9021 32.7018C99.9021 32.7018 102.921 21.5049 99.7485 12.2316C95.3889 -0.514369 89.9412 1.03049 89.9412 1.03049" stroke="black" stroke-miterlimit="10" stroke-linecap="round" stroke-linejoin="round"/>
<path d="M90.2467 0.976562C90.2467 0.976562 67.5449 1.50199 57.438 12.5749C47.3302 23.6452 42.873 40.3356 42.873 40.3356" stroke="black" stroke-miterlimit="10" stroke-linecap="round" stroke-linejoin="round"/>
<path d="M47.9695 27.0273C47.9695 27.0273 34.8085 30.4642 19.8997 44.9103C10.2851 54.2279 2.21619 84.85 3.35277 88.2275C3.35277 88.2275 0.21552 94.0946 1.57279 95.8941C2.9309 97.6927 6.77013 100.611 11.285 103.303C11.285 103.303 17.1903 108.457 25.5037 110.698C37.9092 114.039 50.7629 112.349 50.7629 112.349" stroke="black" stroke-miterlimit="10" stroke-linecap="round" stroke-linejoin="round"/>
<path d="M35.3586 90.5854C35.3586 90.5854 27.3678 89.0753 19.9058 78.9531" stroke="black" stroke-miterlimit="10" stroke-linecap="round" stroke-linejoin="round"/>
<path d="M30.532 58.627C30.532 58.627 42.1006 59.9138 48.1289 64.8836C57.1893 72.355 65.8727 85.3224 65.8727 85.3224" stroke="black" stroke-miterlimit="10" stroke-linecap="round" stroke-linejoin="round"/>
<path d="M71.4165 90.7296C71.4165 90.7296 85.1615 90.4631 89.218 90.4512C93.2745 90.4393 95.0927 95.3914 95.5519 98.5456C96.0128 101.699 99.9157 111.024 94.3967 115.932" stroke="black" stroke-miterlimit="10" stroke-linecap="round" stroke-linejoin="round"/>
<path d="M91.2745 100.136C91.2745 100.136 93.9118 110.619 94.079 111.96C94.4329 114.803 94.9363 118.604 89.5293 119.07" stroke="black" stroke-miterlimit="10" stroke-linecap="round" stroke-linejoin="round"/>
<path d="M86.7752 102.4C86.7752 102.4 88.831 111.635 89.2885 113.888C89.746 116.138 89.4931 122.202 85.8881 122.663C82.2849 123.125 81.1101 120.642 81.1101 120.642" stroke="black" stroke-miterlimit="10" stroke-linecap="round" stroke-linejoin="round"/>
<path d="M81.6047 106.7C81.6047 106.7 83.0316 112.23 82.541 116.608C82.2702 119.025 81.4638 119.994 80.5081 121.095C78.8359 123.02 74.4916 122.33 72.6946 120.094C71.4358 118.527 71.1133 116.29 71.1133 116.29" stroke="black" stroke-miterlimit="10" stroke-linecap="round" stroke-linejoin="round"/>
<path d="M74.3032 113.854C74.3032 113.854 75.0994 116.408 74.8813 118.889" stroke="black" stroke-miterlimit="10" stroke-linecap="round" stroke-linejoin="round"/>
<path d="M74.4475 115.908C74.4475 115.908 70.8188 116.66 65.8778 115.398C61.0531 114.167 58.8572 111.049 58.8572 111.049" stroke="black" stroke-miterlimit="10" stroke-linecap="round" stroke-linejoin="round"/>
<path d="M58.7427 110.856C58.2826 107.702 59.2299 101.705 63.0971 96.8397C67.4448 91.3716 71.5005 90.8496 71.5005 90.8496" stroke="black" stroke-miterlimit="10" stroke-linecap="round" stroke-linejoin="round"/>
<path d="M59.5865 112.335C59.5865 112.335 55.7133 114.664 54.5793 112.187C53.4444 109.713 56.3457 99.5634 59.2639 95.7233C62.1813 91.8832 66.5816 87.3581 68.9244 87.9914C71.3859 88.656 72.0047 90.5217 72.0047 90.5217" stroke="black" stroke-miterlimit="10" stroke-linecap="round" stroke-linejoin="round"/>
<path d="M54.2602 112.222C54.2602 112.222 50.9311 113.629 49.9185 110.87C48.7751 107.759 50.707 98.004 54.9724 92.8083C59.2377 87.6118 61.2622 86.4795 63.9648 85.5695C66.6658 84.6605 69.2292 87.9131 69.2292 87.9131" stroke="black" stroke-miterlimit="10" stroke-linecap="round" stroke-linejoin="round"/>
<path d="M77.7902 36.4012C77.7902 36.4012 66.1613 35.2892 59.3164 38.2584C47.2368 43.4999 40.436 54.5405 40.436 54.5405" stroke="black" stroke-miterlimit="10" stroke-linecap="round" stroke-linejoin="round"/>
<path d="M96.507 45.5391C96.507 45.5391 94.9154 61.7287 85.8967 69.2C80.409 73.7446 69.5798 79.0158 61.6917 79.2645" stroke="black" stroke-miterlimit="10" stroke-linecap="round" stroke-linejoin="round"/>
</svg>
