<svg width="82" height="201" viewBox="0 0 82 201" fill="none" xmlns="http://www.w3.org/2000/svg">
<path d="M6.71883 168.354C5.53048 167.463 7.03714 165.383 7.03714 165.383L12.3423 156.152L17.223 147.558C17.223 147.558 19.6634 145.754 22.7404 146.391C25.8173 147.028 27.8333 147.983 28.4699 148.725C29.1065 149.468 30.6981 151.378 30.592 152.227C30.4859 153.075 29.4248 161.245 29.4248 161.245L27.8333 167.824L26.6662 170.582C26.6662 170.582 16.9047 170.476 15.2071 170.37C13.5094 170.264 7.56765 168.991 6.71883 168.354Z" fill="#B490AA"/>
<path d="M32.8906 72.4018C33.5544 65.7623 40.6234 39.8783 40.6234 39.8783L42.2828 32.9069C43.2793 15.6436 51.4909 5.51456 55.8937 3.36025C61.9246 0.408889 69.1396 -0.72259 75.2223 3.94594C80.215 7.77837 82.4517 19.2952 79.4639 26.5985C76.4752 33.9018 68.1762 40.8731 66.5167 46.8489C64.8564 52.8246 56.4064 78.3606 56.4064 78.3606L46.0474 87.398L35.7198 84.5688L32.8906 72.4018Z" fill="#B490AA"/>
<path d="M17.259 147.24C17.259 147.24 18.2343 142.438 19.23 140.777C20.2265 139.118 27.3457 94.9859 28.0086 91.0024C28.6724 87.0188 30.0007 73.4071 34.648 72.4115C39.2953 71.4158 36.6402 83.3664 36.6402 83.3664C36.6402 83.3664 43.9435 86.0224 46.2676 86.0224C46.2676 86.0224 51.9105 76.064 55.2311 77.3915C58.5517 78.7191 51.5795 95.6497 50.583 98.3057C49.5873 100.962 36.7055 135.068 35.0461 139.052C33.3858 143.034 30.6602 151.218 30.6602 151.218L29.9201 150.706C29.9201 150.706 28.0102 147.381 25.2516 146.886C22.4929 146.392 17.259 147.24 17.259 147.24Z" fill="#190521"/>
<path d="M7.35589 199.124C6.81774 199.064 7.24979 197.744 7.24979 197.744C7.24979 197.744 6.50707 197.426 5.76435 196.683C5.02163 195.941 4.91553 190.954 4.91553 190.954L5.55214 182.572L5.87045 178.54L9.05354 167.505C9.05354 167.505 10.7512 167.293 11.4939 167.293C12.2366 167.293 13.616 168.142 13.616 168.142C13.616 168.142 17.6479 167.93 19.6638 169.097L19.5577 175.251L17.2235 179.283L15.6319 182.253L13.0854 191.484C13.0854 191.484 11.6 195.835 11.1756 196.153C10.7512 196.471 9.26575 199.336 7.35589 199.124Z" fill="#B490AA"/>
<path d="M1.7318 187.77C0.920322 188.04 1.41349 185.542 1.51959 184.057C1.62569 182.571 3.53555 176.524 3.85385 175.356C4.17216 174.189 6.29422 167.187 6.29422 167.187C6.29422 167.187 8.09797 167.293 9.0529 167.505C10.0078 167.717 6.61253 177.372 6.61253 177.372L5.5515 182.571C5.5515 182.571 2.68672 187.452 1.7318 187.77Z" fill="#B490AA"/>
<path d="M19.6633 169.097C19.6633 169.097 21.9975 168.779 23.5891 169.203C25.1806 169.628 26.6661 170.582 26.6661 170.582L25.605 180.026L24.4379 191.909C24.4379 191.909 23.8013 197.002 23.3769 197.426C22.9525 197.851 21.6792 199.549 20.8304 199.549C19.9816 199.549 19.6633 197.851 19.6633 197.002C19.6633 196.153 19.345 184.906 19.345 184.906L19.5572 175.251L19.6633 169.097Z" fill="#B490AA"/>
<path d="M31.7595 167.399L28.7886 164.322C28.7886 164.322 29.6374 159.76 29.7435 159.017C29.8496 158.274 30.5923 152.227 30.5923 152.227L32.8205 156.152C32.8205 156.152 35.2608 160.927 35.6853 162.412C36.1097 163.898 36.1097 164.959 36.1097 164.959L38.2317 169.415L40.0355 172.068C40.0355 172.068 40.9904 173.023 40.9904 173.553C40.9904 174.084 39.505 175.888 37.0646 175.251C34.6242 174.614 33.0327 171.962 32.9266 171.431C32.8205 170.901 31.7595 167.399 31.7595 167.399Z" fill="#B490AA"/>
<path d="M56.1897 78.4084C56.1897 78.4084 64.6397 52.8724 66.3 46.8967C67.9595 40.9209 76.2585 33.9496 79.2472 26.6463C82.235 19.343 79.9983 7.82622 75.0056 3.99379C68.9229 -0.674739 61.7079 0.45674 55.677 3.4081C51.2733 5.56241 43.0626 15.6914 42.0661 32.9547L40.4067 39.9261C40.4067 39.9261 33.5117 66.1106 32.8479 72.7501" stroke="black" stroke-miterlimit="10" stroke-linecap="round" stroke-linejoin="round"/>
<path d="M17.3538 147.133C17.3538 147.133 18.0175 142.485 19.0132 140.824C20.0097 139.165 27.1288 95.0328 27.7917 91.0493C28.4555 87.0658 29.7838 73.454 34.4311 72.4583C39.0784 71.4627 36.4234 83.4133 36.4234 83.4133C36.4234 83.4133 43.7267 86.0693 46.0508 86.0693C46.0508 86.0693 51.6937 76.1108 55.0143 77.4384C58.3349 78.766 51.3627 95.6966 50.3662 98.3526C49.3705 101.009 36.4887 135.115 34.8292 139.099C33.1689 143.081 30.4434 151.265 30.4434 151.265" stroke="black" stroke-miterlimit="10" stroke-linecap="round" stroke-linejoin="round"/>
<path d="M44.7314 20.2639C44.7314 20.2639 53.0211 21.336 54.6814 21.336C56.3408 21.336 57.6692 18.3472 58.6649 16.6878C59.6606 15.0275 63.2639 5.83389 68.9561 4.40447C73.5652 3.24752 77.6878 6.43148 78.6844 9.08745" stroke="black" stroke-miterlimit="10" stroke-linecap="round" stroke-linejoin="round"/>
<path d="M6.10938 168.242C6.10938 168.242 7.39367 164.726 8.72123 162.403C10.0488 160.079 16.8614 148.011 16.8614 148.011C16.8614 148.011 17.7 146.583 20.6726 146.468C24.6426 146.314 29.6354 148.128 30.3 151.78C30.9638 155.432 28.4249 167.279 26.7646 170.931" stroke="black" stroke-miterlimit="10" stroke-linecap="round" stroke-linejoin="round"/>
<path d="M28.9722 164.727L31.96 167.715L35.9436 164.395C36.6073 162.071 30.3005 151.78 30.3005 151.78" stroke="black" stroke-miterlimit="10" stroke-linecap="round" stroke-linejoin="round"/>
<path d="M8.93902 167.817C8.93902 167.817 5.73387 178.006 5.73387 179.998C5.73387 181.989 4.97757 190.452 4.97757 190.452C4.97757 190.452 4.2705 196.253 6.67522 197.668" stroke="black" stroke-miterlimit="10" stroke-linecap="round" stroke-linejoin="round"/>
<path d="M13.324 168.525C13.324 168.525 9.71733 179.002 9.71733 180.329C9.71733 181.657 8.72085 189.956 8.72085 189.956C8.72085 189.956 6.39765 199.252 7.39332 199.252C8.59016 199.252 10.713 197.592 12.0414 194.272C13.3681 190.953 15.6939 182.321 15.6939 182.321L19.5501 175.457" stroke="black" stroke-miterlimit="10" stroke-linecap="round" stroke-linejoin="round"/>
<path d="M6.1101 168.383C6.1101 168.383 3.07809 177.673 2.7462 178.67C2.41346 179.665 0.687836 186.51 1.41867 187.633C2.14951 188.756 4.97862 183.662 5.68569 181.681" stroke="black" stroke-miterlimit="10" stroke-linecap="round" stroke-linejoin="round"/>
<path d="M26.4809 171.213C26.4809 171.213 25.6617 177.827 25.2076 182.672C24.9725 185.19 24.324 192.613 23.9921 194.936C23.6585 197.26 21.9999 199.584 20.6724 199.584C19.3439 199.584 19.344 187.634 19.344 184.978C19.344 182.322 19.6903 169.516 19.6903 169.516" stroke="black" stroke-miterlimit="10" stroke-linecap="round" stroke-linejoin="round"/>
<path d="M35.9435 164.395C35.9435 164.395 38.9321 171.366 40.5916 172.693C42.251 174.021 39.5959 175.681 37.6037 175.349C35.6115 175.017 32.2919 172.03 31.96 167.714" stroke="black" stroke-miterlimit="10" stroke-linecap="round" stroke-linejoin="round"/>
<path d="M6.67554 166.969L9.05311 167.382C9.05311 167.382 11.71 167.05 13.7022 168.378C13.7022 168.378 17.3537 167.715 19.677 169.042C19.677 169.042 23.9932 168.71 26.6492 170.702" stroke="black" stroke-miterlimit="10" stroke-linecap="round" stroke-linejoin="round"/>
</svg>
