<svg width="122" height="120" viewBox="0 0 122 120" fill="none" xmlns="http://www.w3.org/2000/svg">
<path d="M3.65268 43.1919C2.37945 39.6549 0.965301 30.6005 0.823547 28.1958C0.681794 25.791 0.964459 19.4249 1.53062 16.3122C2.09679 13.1996 3.08652 9.3799 6.0574 8.53107C9.02829 7.68225 11.0094 8.10666 13.5559 10.6531C16.1024 13.1996 19.6386 19.0005 20.9118 21.9713C22.185 24.9422 30.6733 44.6061 30.6733 44.6061L38.7371 64.5534L44.1135 77.5692L46.3765 82.9449L52.0356 73.1834L60.0994 56.914L65.475 45.4549L68.7294 38.2399C68.7294 38.2399 75.3774 39.0887 79.0562 43.0502C82.735 47.0116 84.0074 49.8399 84.2909 51.3966C84.5736 52.9534 83.5838 55.2163 83.5838 55.2163L77.2176 67.1007L69.1538 83.0866L60.8065 100.628L54.0159 113.502C54.0159 113.502 51.0459 118.171 49.6309 118.595C48.2159 119.02 44.8206 119.728 41.4253 118.03C38.03 116.332 37.0394 113.643 35.3418 110.956C33.6442 108.269 27.5606 95.6772 27.5606 95.6772L17.6583 75.4472C17.6583 75.4472 11.5747 62.8566 10.4433 60.3101C9.31094 57.7637 3.65268 43.1919 3.65268 43.1919Z" fill="#FF8039"/>
<path d="M68.3757 39.16L69.4367 38.4173L73.5748 29.5047C73.5748 29.5047 72.9381 25.1544 73.6809 21.653C74.4236 18.1516 76.7578 9.66341 76.7578 9.66341C76.7578 9.66341 77.5006 3.40334 78.0311 2.66062C78.5616 1.9179 79.5165 0.962978 81.002 1.49349C82.4874 2.02401 82.6996 3.93386 82.8057 5.84371C82.9118 7.75356 81.3203 12.5282 81.3203 12.5282C81.3203 12.5282 79.9409 14.9686 81.3203 17.4089C82.6996 19.8493 84.8217 19.8493 87.4743 19.531C90.1269 19.2127 100.207 16.2418 100.207 16.2418C100.207 16.2418 108.695 13.4831 109.968 13.2709C111.241 13.0587 113.363 12.7404 113.576 13.5892C113.788 14.438 112.196 16.5601 111.347 16.8784C110.499 17.1967 104.132 20.2737 104.132 20.2737C104.132 20.2737 107.846 19.8493 109.438 19.2127C111.029 18.5761 116.016 16.5601 116.016 16.5601C116.016 16.5601 117.82 15.393 118.456 15.9235C119.093 16.454 119.623 17.7272 118.669 18.7883C117.714 19.8493 116.228 21.8652 112.408 23.4568C112.408 23.4568 117.608 22.0775 119.093 21.8652C120.578 21.653 121.215 22.3958 121.215 23.0324C121.215 23.669 119.305 25.2605 119.305 25.2605L112.727 29.0802C112.727 29.0802 115.592 28.868 116.122 29.2924C116.653 29.7169 117.289 31.3084 114.531 32.8999C111.772 34.4915 100.313 37.9929 100.313 37.9929L90.0208 40.3271C90.0208 40.3271 85.14 41.2821 82.8057 40.9638L76.2273 53.9083C76.2273 53.9083 73.0442 51.9985 71.0283 47.9666C69.0123 43.9346 68.1635 41.4943 68.3757 39.16Z" fill="#F8C2A0"/>
<path d="M68.87 37.958C68.87 37.958 59.7451 58.1184 58.0475 61.7964C56.3498 65.4743 49.5703 77.739 48.64 79.2677C46.6588 82.5212 44.8203 87.0488 42.8391 87.7559" stroke="black" stroke-miterlimit="10" stroke-linecap="round" stroke-linejoin="round"/>
<path d="M46.3762 83.0866C46.3762 83.0866 37.1104 60.6632 35.4128 56.4191C33.7152 52.175 27.1359 36.4013 25.7218 33.006C24.3068 29.6107 20.5788 20.1998 17.2336 15.1807C14.6871 11.361 12.4937 9.73468 9.87682 8.39015C7.2599 7.04561 4.50122 8.67281 2.80357 11.9263C0.298695 16.7273 -0.310734 32.1563 4.14644 44.3938C4.14644 44.3938 13.2008 67.5956 16.3126 72.9712C19.4253 78.3468 35.2006 111.947 38.4541 116.05C40.4192 118.528 47.5085 120.859 51.1865 117.464C54.8644 114.069 66.2531 88.9579 69.3657 83.0161C72.4775 77.0744 84.3611 53.59 84.3611 53.59" stroke="black" stroke-miterlimit="10" stroke-linecap="round" stroke-linejoin="round"/>
<path d="M81.1076 44.8898C81.1076 44.8898 86.6249 52.7405 83.5123 54.7217C79.6222 57.1977 74.6031 53.1344 73.0438 51.0437C69.7189 46.5874 67.7386 42.0598 68.5875 38.3818" stroke="black" stroke-miterlimit="10" stroke-linecap="round" stroke-linejoin="round"/>
<path d="M76.2266 54.0139L82.8754 41.0693" stroke="black" stroke-miterlimit="10" stroke-linecap="round" stroke-linejoin="round"/>
<path d="M80.4463 40.5582C80.4463 40.5582 82.8781 41.2432 87.685 40.7856C93.6268 40.2203 100.59 37.7715 102.115 37.3904C103.639 37.0092 115.798 33.4314 116.545 30.8833C117.625 27.1977 108.526 30.2662 107.383 30.6482" stroke="black" stroke-miterlimit="10" stroke-linecap="round" stroke-linejoin="round"/>
<path d="M100.077 32.9363C100.077 32.9363 105.414 31.0307 110.369 29.6963C115.325 28.3628 120.089 24.7409 121.042 23.9795C121.995 23.2173 121.042 20.9297 118.374 21.8829C115.705 22.8353 100.648 27.0293 98.9338 27.2195" stroke="black" stroke-miterlimit="10" stroke-linecap="round" stroke-linejoin="round"/>
<path d="M98.3625 21.8831C98.3625 21.8831 105.415 20.1677 107.32 19.7857C109.227 19.4054 115.897 16.5466 117.231 15.9745C118.565 15.4024 120.218 16.8004 118.312 19.4682C116.405 22.1369 111.704 23.5341 108.655 24.551" stroke="black" stroke-miterlimit="10" stroke-linecap="round" stroke-linejoin="round"/>
<path d="M101.539 21.1185C101.539 21.1185 110.179 18.2605 112.657 15.7828C115.134 13.3051 112.848 12.733 110.56 13.3051C108.272 13.8772 95.5035 17.4974 95.5035 17.4974C92.8348 18.2597 84.6946 21.1032 82.0267 18.4345C79.358 15.7658 81.7441 12.7763 82.5929 8.39039C83.2134 5.18354 82.4511 1.45805 80.2561 1.29762C77.7852 1.11682 77.2063 6.25306 77.0161 8.15867C76.826 10.0643 74.7082 16.7776 73.9629 20.1322C72.8314 25.2251 73.6497 29.4403 73.6497 29.4403C72.8874 31.4733 69.0117 39.2884 69.0117 39.2884" stroke="black" stroke-miterlimit="10" stroke-linecap="round" stroke-linejoin="round"/>
<path d="M92.4538 32.3638C92.4538 32.3638 87.3074 30.8393 84.4486 30.6483C81.5906 30.4574 79.4932 31.4106 79.4932 31.4106" stroke="black" stroke-miterlimit="10" stroke-linecap="round" stroke-linejoin="round"/>
</svg>
