<svg width="33" height="222" viewBox="0 0 33 222" fill="none" xmlns="http://www.w3.org/2000/svg">
<path d="M4.39152 197.285C4.35078 196.394 4.92204 189.858 4.92204 189.858L6.61968 184.128L4.17932 157.921C4.17932 157.921 1.52674 128.106 1.42064 125.347C1.31454 122.589 0.395264 108.277 0.395264 106.579C0.395264 104.881 1.03188 92.6795 1.13798 89.8147C1.24409 86.95 3.89666 65.7294 4.32107 63.6073C4.74548 61.4853 7.61026 43.3417 8.35298 39.9464C9.0957 36.5511 11.6422 22.2272 12.1727 19.999C12.7032 17.7709 15.2514 5.30929 15.6758 3.71774C16.1002 2.1262 16.3981 0.62379 19.2111 1.52524C22.7482 2.65757 25.9321 6.26421 28.1959 10.5083C30.8027 15.3959 31.7041 19.7019 32.1557 22.7458C32.7218 26.5655 31.9078 30.3971 31.9078 30.3971L28.4064 52.2543L24.3745 75.2786C24.3745 75.2786 21.7219 92.3612 21.1914 94.5894C20.6609 96.8175 20.0243 101.804 20.0243 102.547C20.0243 103.29 21.0853 120.585 21.0853 123.768C21.0853 126.951 19.352 154.101 19.4581 156.329C19.5642 158.558 18.291 173.73 18.291 173.73C18.291 173.73 18.5032 180.096 18.6093 181.476C18.7154 182.855 19.8825 187.099 19.8825 187.099C21.2042 188.951 21.8858 191.879 22.1107 192.404C23.0656 194.632 23.8084 196.259 24.0206 197.603L24.3032 203.05L24.1615 206.658C24.1615 206.658 24.8685 209.7 24.8685 210.337C24.8685 210.973 24.4441 211.963 23.5953 211.68C22.7465 211.398 21.6854 209.416 21.6854 209.416C21.6854 209.416 20.8366 213.661 20.2 215.43C19.5634 217.198 18.7146 218.967 18.2902 219.037C17.8657 219.107 16.5925 219.533 16.0976 217.339C16.0976 217.339 15.461 218.894 14.9662 219.602C14.4713 220.31 13.6225 221.159 12.6319 220.735C11.6413 220.31 11.4291 219.249 11.4291 219.249C11.4291 219.249 10.2976 220.451 9.30706 220.663C8.31648 220.876 7.53896 220.592 7.46766 220.027C7.39636 219.461 7.75032 217.976 7.75032 217.976C7.75032 217.976 5.84046 218.684 5.48651 218.188C5.13255 217.692 5.48651 213.944 5.48651 213.944C5.48651 213.944 5.98137 208.001 5.62826 206.233C5.27515 204.465 4.49763 199.584 4.39152 197.285Z" fill="#F8C2A0"/>
<path d="M4.3917 63.6073C4.81611 61.4853 7.68089 43.3417 8.42361 39.9464C9.16633 36.5511 11.7128 22.2272 12.2433 19.999C12.7738 17.7709 15.322 5.30929 15.7464 3.71774C16.1708 2.1262 16.4688 0.62379 19.2817 1.52524C22.8188 2.65757 26.0027 6.26421 28.2665 10.5083C30.8733 15.3959 31.7756 19.7019 32.2263 22.7458C32.7925 26.5655 31.9784 30.3971 31.9784 30.3971L28.477 52.2543L24.4451 75.2786L23.8085 78.8386C23.8085 78.8386 20.8376 77.5654 18.5738 77.1409C15.6505 76.5935 8.95412 75.585 8.95412 75.585L2.87061 74.7362L4.3917 63.6073Z" fill="#EFFEE7"/>
<path d="M21.4742 199.938C21.4742 199.938 21.8986 206.091 21.4742 210.123C21.0498 214.155 19.4582 217.975 18.7155 218.824C18.1697 219.447 16.2751 219.142 16.3812 217.869" stroke="black" stroke-miterlimit="10" stroke-linecap="round" stroke-linejoin="round"/>
<path d="M10.4392 203.121C10.4392 203.121 10.351 210.918 9.90873 212.776C8.8477 217.232 7.69584 218.286 6.61954 218.399C4.60358 218.612 5.1341 217.551 5.55851 213.306C5.98292 209.062 5.40657 204.696 5.1341 202.378C4.70969 198.77 3.54255 193.041 6.51343 184.553C6.21804 177.769 0.501221 122.6 0.501221 103.926C0.501221 96.0695 1.47312 85.5458 2.93904 74.2242C6.9684 43.0945 14.7292 5.93383 16.2851 1.57682C16.2851 1.57682 21.2957 -1.05963 28.1958 10.5081C33.2166 18.9259 32.0494 29.7951 32.0494 29.7951C32.0494 29.7951 21.44 94.5892 20.0241 102.229C22.5706 128.118 18.397 163.438 18.397 177.55C18.397 177.55 18.5828 182.635 19.7763 187.099" stroke="black" stroke-miterlimit="10" stroke-linecap="round" stroke-linejoin="round"/>
<path d="M3.01221 74.876C3.01221 74.876 7.82249 75.4421 13.7642 76.291C19.4768 77.1075 24.2328 78.8383 24.2328 78.8383" stroke="black" stroke-miterlimit="10" stroke-linecap="round" stroke-linejoin="round"/>
<path d="M18.7155 201.741C18.7155 201.741 18.7155 207.046 18.2911 209.805C17.8667 212.564 16.5934 218.081 14.4714 220.203C12.3493 222.325 11.5005 219.354 11.5005 219.354" stroke="black" stroke-miterlimit="10" stroke-linecap="round" stroke-linejoin="round"/>
<path d="M14.8955 202.166C14.8955 202.166 15.9396 207.107 13.7284 213.943C12.5613 217.551 11.6063 219.461 10.227 220.31C8.34008 221.471 7.46834 220.522 7.36223 219.673C7.25613 218.824 8.21106 217.763 8.21106 217.763" stroke="black" stroke-miterlimit="10" stroke-linecap="round" stroke-linejoin="round"/>
<path d="M19.9888 187.522C19.9888 187.522 23.0208 194.125 23.5963 196.541C24.6573 200.998 23.9341 206.573 24.4451 208.106C25.6122 211.608 24.2779 212.028 23.5963 211.714C22.2169 211.077 21.5803 209.274 21.5803 209.274" stroke="black" stroke-miterlimit="10" stroke-linecap="round" stroke-linejoin="round"/>
</svg>
