<svg width="29" height="230" viewBox="0 0 29 230" fill="none" xmlns="http://www.w3.org/2000/svg">
<path d="M26.3133 204.356C26.1928 201.913 25.4585 194.738 25.2251 192.772C24.9917 190.805 24.4552 187.118 24.7115 184.363C24.7115 184.363 25.2828 175.141 25.6453 172.387C26.0077 169.634 27.32 147.264 27.4575 145.25C27.5959 143.236 28.0466 128.281 28.0101 123.93C27.9728 119.578 27.4032 108.745 27.1239 106.299C26.8447 103.855 26.1961 97.9012 26.0179 95.7775C25.8396 93.652 25.5086 81.1242 25.4432 78.5769C25.3779 76.0288 26.0714 59.1677 26.0714 59.1677L23.541 31.5368L21.1796 13.2472C21.1796 13.2472 21.3757 7.62635 19.931 5.05611C18.4863 2.48672 13.2728 0.242435 12.1057 0.224609C9.6297 0.931679 4.74897 4.9636 1.77809 21.5156C-1.64776 40.6006 3.47315 52.653 3.47315 52.653L4.31353 73.147C4.31353 73.147 4.97557 84.8311 5.23022 88.8672C5.48401 92.9042 6.05951 101.696 6.05951 101.696L6.80057 107.176C6.80057 107.176 7.0832 114.391 7.55091 123.047C7.67653 125.387 7.96007 137.273 8.03816 139.078C8.1154 140.883 9.73581 164.79 10.5846 173.703C10.8265 176.243 10.8732 188.064 10.8732 188.064C10.8732 188.064 8.89972 190.119 8.03816 192.271C6.55272 195.984 6.02221 200.016 6.02221 204.26C6.02221 206.595 6.04002 211.127 6.0205 212.294C6.00267 213.46 4.60634 214.5 5.19882 217.268C5.7913 220.036 7.19102 218.785 8.37258 217.849C9.55499 216.912 10.5812 212.472 10.5812 212.472C10.5812 212.472 10.4564 213.637 10.6517 214.702C10.8461 215.766 10.3155 222.443 10.3155 222.443C10.3155 222.443 10.0516 225.622 10.5541 227.434C10.8274 228.424 11.3672 228.593 11.801 228.544L11.7976 228.834C12.1159 228.839 12.8264 228.285 12.8264 228.285C12.8264 228.285 13.7023 229.891 14.9841 229.381C16.2658 228.87 16.8718 227.448 16.8718 227.448C18.6654 228.112 19.7663 225.636 20.4785 224.215C21.1915 222.794 22.4376 217.826 22.4376 217.826C22.4376 217.826 22.6939 221.757 23.2142 222.349C23.7354 222.941 24.9068 222.694 25.4594 221.323C26.012 219.953 26.3795 216.882 26.5764 214.496C26.7734 212.11 26.4338 206.798 26.3133 204.356Z" fill="#F8C2A0"/>
<path d="M23.3137 205.422C23.3137 205.422 23.7814 216.533 20.4659 224.335C19.5093 226.584 17.8574 228.186 17.0188 227.535" stroke="black" stroke-miterlimit="10" stroke-linecap="round" stroke-linejoin="round"/>
<path d="M19.6271 205.93C19.4564 209.96 19.0219 217.239 18.2045 221.931C17.4193 226.437 16.4992 228.524 15.4356 229.209C15.0061 229.485 13.4451 229.743 12.9001 228.461" stroke="black" stroke-miterlimit="10" stroke-linecap="round" stroke-linejoin="round"/>
<path d="M22.566 216.729C22.3656 219.956 22.3546 222.911 24.2415 222.628C27.6462 222.115 26.3848 202.778 25.704 197.537C24.1914 185.91 24.9027 179.975 25.1956 176.163C26.4442 159.912 29.8115 126.292 27.0239 105.872C25.6353 95.7017 25.5911 95.8146 25.7634 83.5025C26.322 43.4652 21.4107 12.0825 21.2273 10.2753C21.0431 8.4682 20.814 7.36812 20.814 7.36812C20.3233 4.86919 18.8065 3.44996 15.9961 2.13174C14.9266 1.62924 14.0616 1.21671 12.0108 0.508789C12.0108 0.508789 7.72005 0.505396 3.90035 12.3889C1.08735 21.142 0.449883 31.2786 0.929468 42.3099C1.14167 47.1907 3.65587 54.5644 3.65587 54.5644C3.65587 54.5644 4.33579 96.6787 5.95195 101.798C5.95195 101.798 7.2277 123.357 7.90081 134.404C8.57308 145.451 9.84211 163.939 10.4787 172.639C11.1697 182.086 10.7622 188.378 10.7622 188.378" stroke="black" stroke-miterlimit="10" stroke-linecap="round" stroke-linejoin="round"/>
<path d="M10.331 188.797C10.331 188.797 5.81017 192.8 6.13611 205.078C6.20996 207.868 6.18196 211.69 5.56996 213.982C4.21523 219.055 6.94842 220.275 8.9109 217.431C10.2138 215.542 10.5109 210.241 10.5109 210.241" stroke="black" stroke-miterlimit="10" stroke-linecap="round" stroke-linejoin="round"/>
<path d="M10.2662 202.667C10.2662 202.667 10.6813 212.79 10.6482 214.912C10.6142 217.034 10.3273 221.698 10.3273 221.698C9.78406 229.118 12.0114 228.728 12.0114 228.728C12.0114 228.728 13.1802 228.641 14.0732 225.897C15.568 221.299 15.652 206.714 15.652 206.714" stroke="black" stroke-miterlimit="10" stroke-linecap="round" stroke-linejoin="round"/>
</svg>
