<svg width="64" height="192" viewBox="0 0 64 192" fill="none" xmlns="http://www.w3.org/2000/svg">
<path d="M40.3028 150.212C42.9554 148.726 45.8202 148.514 46.3507 147.135C46.8812 145.755 46.7751 143.951 46.5629 142.997C46.3507 142.042 41.47 131.325 41.47 131.325C41.47 131.325 42.9554 128.248 42.3188 126.232C41.6822 124.216 39.5601 117.956 39.5601 117.956L36.4831 105.012L33.9367 95.993L32.8756 91.2183L31.4963 83.1545L38.8174 73.1809L47.3056 61.5095L55.1572 50.4748L61.2051 41.4561C61.2051 41.4561 62.7967 36.7876 63.0089 33.4984C63.2211 30.2092 62.6906 22.5698 62.6906 22.5698C62.6906 22.5698 61.8417 15.3548 60.038 12.49C58.2342 9.62523 56.2183 5.48721 54.7328 4.42618C53.2474 3.36516 50.1704 0.818686 47.4117 1.56141C47.4117 1.56141 46.2446 2.09192 44.9714 4.10788C43.6981 6.12383 33.6184 21.9332 33.6184 21.9332L19.1884 45.3819L8.89639 62.1462C8.89639 62.1462 5.18279 68.4062 3.69735 70.8466C2.21191 73.287 0.620363 79.0165 0.726466 82.1996C0.832568 85.3827 1.9997 90.0512 2.63632 92.0672C3.27293 94.0831 7.41095 106.815 7.41095 106.815L12.9283 123.474C12.9283 123.474 16.1114 132.174 16.5358 133.129C16.9602 134.084 17.809 136.63 18.8701 137.479C19.9311 138.328 22.4776 138.859 22.4776 138.859L25.5545 146.604C25.5545 146.604 27.6766 151.909 28.101 152.652C28.5254 153.395 29.0559 153.607 30.4353 153.607C31.8146 153.607 40.3028 150.212 40.3028 150.212Z" fill="#D9D3B3"/>
<path d="M29.7986 165.491C29.6746 164.224 29.869 159.407 30.0108 158.205C30.1525 157.003 30.5065 152.192 30.7891 151.626C31.0718 151.061 35.2455 148.09 36.5892 147.454C37.9328 146.817 43.805 145.403 44.7947 145.756C45.7845 146.109 48.1187 148.443 49.1093 149.504C50.0999 150.565 53.9892 155.022 54.9093 156.719C55.8294 158.417 59.4361 163.299 59.79 164.218C60.144 165.137 60.992 166.34 60.6389 167.471C60.2857 168.603 59.0821 168.956 58.0924 168.603C57.1027 168.25 54.5562 166.198 54.5562 166.198L51.0191 163.086L53.2117 169.735C53.2117 169.735 55.9712 179.001 56.466 180.628C56.9609 182.255 57.4558 185.721 57.0314 186.287C56.6069 186.853 54.9101 187.42 54.344 186.853C53.7778 186.287 51.0896 182.468 50.453 180.982L52.6463 187.561C52.6463 187.561 53.4239 189.754 51.7262 190.673C50.0286 191.592 49.251 190.319 49.251 190.319L46.2089 187.278C46.2089 187.278 45.8549 188.975 44.9356 188.975C44.0164 188.975 42.177 189.116 39.6305 186.146C39.6305 186.146 38.2868 186.499 37.2962 185.933C36.3056 185.368 33.9714 182.962 33.0521 180.346C32.1328 177.729 30.223 169.807 29.7986 165.491Z" fill="#F8C2A0"/>
<path d="M22.3799 138.657C22.3799 138.657 19.4981 139.053 17.522 135.657C16.4347 133.784 1.8723 91.2598 1.22634 87.0641C0.581237 82.8683 -0.171671 78.7796 4.45441 69.6369C7.51697 63.5814 43.3602 6.24 46.9108 1.39746" stroke="black" stroke-miterlimit="10" stroke-linecap="round" stroke-linejoin="round"/>
<path d="M41.4055 131.669C41.4055 131.669 43.4681 128.749 41.3877 123.125C39.7851 118.792 38.0085 110.547 38.0085 110.547C38.0085 110.547 32.9334 93.8331 32.9334 91.5727C32.9334 89.3123 30.6738 80.2765 30.6738 78.9863" stroke="black" stroke-miterlimit="10" stroke-linecap="round" stroke-linejoin="round"/>
<path d="M47.1648 1.64909C47.1648 1.64909 52.1745 -0.987355 59.0746 10.5804C64.0962 18.9982 62.9283 29.8674 62.9283 29.8674C62.9283 29.8674 63.3603 36.753 60.9743 41.7755L58.8335 45.0995C56.8974 48.3284 31.6423 83.2889 31.6423 83.2889" stroke="black" stroke-miterlimit="10" stroke-linecap="round" stroke-linejoin="round"/>
<path d="M46.3243 146.823C46.3243 146.823 47.5144 145.056 45.9729 141.632C45.1674 139.842 41.7933 130.279 40.5252 130.525C39.8919 130.649 35.2565 130.344 31.2764 131.994C26.3074 134.056 22.862 137.192 22.6999 138.046C22.3739 139.753 27.5305 151.164 27.9405 152.041C29.0677 154.453 30.5286 153.51 30.5286 153.51" stroke="black" stroke-miterlimit="10" stroke-linecap="round" stroke-linejoin="round"/>
<path d="M50.7536 162.84C50.7536 162.84 55.5401 167.169 57.5187 168.32C59.4948 169.47 61.7823 167.709 60.4047 165.128C59.0254 162.548 56.0986 157.635 51.2765 151.997C49.7121 150.171 45.4459 145.681 44.3883 145.886C44.3883 145.886 40.0635 145.903 37.652 147.03C35.2405 148.156 31.0303 150.455 30.684 152.057C30.3377 153.658 29.6094 163.444 29.8505 165.808C30.027 167.54 31.1534 176.179 33.1473 180.51C35.1395 184.835 37.669 186.863 39.7418 186.242" stroke="black" stroke-miterlimit="10" stroke-linecap="round" stroke-linejoin="round"/>
<path d="M33.8457 172.263C33.8457 172.263 34.9729 176.997 36.4898 180.79C37.7698 183.993 40.0031 186.876 41.8611 188.13C44.1317 189.661 45.6545 189.035 46.1995 187.615" stroke="black" stroke-miterlimit="10" stroke-linecap="round" stroke-linejoin="round"/>
<path d="M39.4768 172.484C39.4768 172.484 41.7517 179.11 42.6268 181.076C43.5019 183.044 45.6936 187.549 49.5702 190.576C51.1889 191.841 53.7498 190.093 52.5309 187.206L50.5378 181.181" stroke="black" stroke-miterlimit="10" stroke-linecap="round" stroke-linejoin="round"/>
<path d="M46.4814 170.464C46.4814 170.464 48.4762 178.186 51.3206 182.674C52.3324 184.27 53.5173 186.356 54.7787 186.934C56.04 187.51 57.8803 186.824 57.1062 183.687C56.3329 180.55 55.2973 176.916 53.991 172.733C53.2678 170.416 50.0482 160.347 50.0482 160.347" stroke="black" stroke-miterlimit="10" stroke-linecap="round" stroke-linejoin="round"/>
</svg>
