<svg width="141" height="112" viewBox="0 0 141 112" fill="none" xmlns="http://www.w3.org/2000/svg">
<path d="M43.3856 62.4659C43.3856 62.4659 41.688 61.1935 41.688 59.7785C41.688 58.3636 41.8297 55.6753 42.6786 54.1194C43.5274 52.5636 47.0636 48.0359 47.0636 48.0359L56.8251 40.68L62.4842 46.48L78.6118 60.91L91.4859 73.0762L96.5788 78.3109L101.954 64.3053L108.321 48.8856C108.321 48.8856 112.847 34.8792 113.98 32.8989C115.111 30.9186 120.062 17.7618 120.062 17.7618C120.062 17.7618 125.155 6.58534 126.288 4.46328C127.419 2.34123 127.136 -0.771402 130.673 0.926245C134.21 2.62389 134.918 4.32154 135.907 6.44359C136.898 8.56565 139.162 12.9515 139.586 16.3468C140.011 19.7421 140.011 25.8248 138.878 30.6351C137.747 35.4453 134.776 42.8021 134.776 42.8021L127.844 63.4565L122.326 79.018L117.516 93.0235C117.516 93.0235 114.829 101.654 113.555 103.776C112.282 105.898 109.028 109.576 107.33 110.284C105.632 110.991 103.794 111.981 101.53 110.708C99.2671 109.435 92.7591 104.483 92.7591 104.483L85.5441 98.6827C85.5441 98.6827 80.1677 93.8724 78.3291 92.1747C76.4897 90.4771 73.8015 87.9306 71.6795 86.2329C69.5574 84.5353 61.3527 78.1691 61.3527 78.1691L53.2888 71.2377L46.2148 65.1541L43.3856 62.4659Z" fill="#FF8039"/>
<path d="M34.2964 26.8865C34.2964 26.8865 28.4607 22.0058 27.6119 21.157C26.7631 20.3081 25.0654 17.8678 25.1715 15.8518C25.2776 13.8359 26.657 12.2443 27.6119 12.4565C28.5668 12.6687 29.9461 15.6396 29.9461 15.6396C29.9461 15.6396 32.7048 19.0349 34.1903 20.4142C35.6757 21.7936 40.4503 24.1278 42.0419 24.6583C43.6334 25.1889 48.1958 28.1597 49.4691 30.0696C50.7423 31.9794 53.2888 36.4358 53.2888 36.4358L57.4268 41.9531C57.4268 41.9531 56.8963 47.5766 55.7291 50.0169C54.562 52.4573 52.3339 56.5953 52.3339 56.5953C52.3339 56.5953 49.9996 52.4573 48.8325 50.7597C47.6653 49.062 44.6945 45.7728 44.6945 45.7728C44.6945 45.7728 37.9039 50.5474 36.2062 51.2902C34.5086 52.0329 25.1715 55.8526 23.6861 56.1709C22.2006 56.4892 16.8955 57.5502 15.7284 57.5502C14.5612 57.5502 10.7415 57.7624 9.36219 57.1258C9.36219 57.1258 7.13403 57.7624 5.86079 57.5502C4.58756 57.338 3.63263 55.8526 3.63263 55.8526C3.63263 55.8526 1.93499 55.6404 1.19227 54.4733C0.449547 53.3061 1.82888 52.139 1.82888 52.139C1.82888 52.139 1.19227 50.9719 1.82888 49.3803C2.4655 47.7888 5.64859 45.985 7.02793 45.4545C8.40726 44.924 15.4101 42.2714 18.0626 40.6799C20.7152 39.0883 25.8268 36.2185 27.2936 35.1625C29.9461 33.2527 33.0231 29.3269 34.2964 26.8865Z" fill="#F8C2A0"/>
<path d="M97.1863 77.569C98.4129 73.8698 99.7345 70.056 101.117 66.1964C102.387 62.65 105.254 57.1149 106.601 53.5447C109.27 46.4647 110.489 41.3913 113.147 34.8409C120.126 17.6361 126.35 3.70267 128.076 0.612108C128.076 0.612108 133.455 -1.15853 138.343 11.393C141.901 20.5263 138.949 31.0518 138.949 31.0518C138.949 31.0518 117.753 93.1932 115.093 100.493C113.584 105.499 107.899 112.003 103.435 111.254C98.9714 110.503 81.5587 95.8883 76.7272 90.4872C74.0432 87.4858 66.5685 82.5006 56.9089 74.3918C49.1846 67.9076 43.0391 62.1645 43.0391 62.1645" stroke="black" stroke-miterlimit="10" stroke-linecap="round" stroke-linejoin="round"/>
<path d="M57.3682 40.9014C60.0318 44.6396 67.8927 50.8267 82.5612 64.7117C90.9103 72.6159 96.4064 77.9398 96.4064 77.9398C99.4732 80.1764 103.633 82.7407 103.633 82.7407" stroke="black" stroke-miterlimit="10" stroke-linecap="round" stroke-linejoin="round"/>
<path d="M56.8225 40.3066C59.7026 43.6595 52.0512 61.8837 46.1893 62.6205C40.1423 63.381 41.1846 56.7585 43.2592 53.1629C44.4569 51.0875 46.7775 48.4443 46.7775 48.4443" stroke="black" stroke-miterlimit="10" stroke-linecap="round" stroke-linejoin="round"/>
<path d="M57.1085 41.6715C57.1085 41.6715 52.0759 34.9344 50.6711 32.101C49.2663 29.2676 45.6681 26.1202 40.4674 24.0177C35.2666 21.9151 31.1625 18.345 29.1687 14.1543C27.1739 9.96368 23.6556 14.2435 25.8252 18.3832C27.9956 22.5195 33.9085 25.7518 34.2701 26.9817C34.6308 28.2125 28.9089 34.0949 25.753 36.3578C22.5962 38.6225 12.789 43.6009 7.74101 45.2739C2.69306 46.9461 0.653333 50.4093 1.59383 51.6613" stroke="black" stroke-miterlimit="10" stroke-linecap="round" stroke-linejoin="round"/>
<path d="M23.2761 42.2412C22.7489 42.3957 16.4592 46.3427 14.3481 46.9624C12.2371 47.5812 7.20018 49.9511 4.70634 50.5571C1.64718 51.3007 -1.00877 54.943 3.35078 55.8903" stroke="black" stroke-miterlimit="10" stroke-linecap="round" stroke-linejoin="round"/>
<path d="M23.254 46.0684C23.254 46.0684 16.9328 49.2625 13.8702 50.5425C10.8085 51.8234 4.6223 52.8751 3.95937 55.1703C3.29559 57.4655 7.2078 57.9154 8.79 57.4519" stroke="black" stroke-miterlimit="10" stroke-linecap="round" stroke-linejoin="round"/>
<path d="M24.5138 49.7097C24.5138 49.7097 18.0899 52.5507 15.8023 53.2221C13.5173 53.8919 8.56268 54.5837 8.55079 56.4952C8.53891 58.4093 17.2377 57.3525 19.2553 57.1743C22.6591 56.8746 30.6159 54.3375 37.3581 50.5229C40.144 48.9466 45.4492 44.9011 46.9083 44.666" stroke="black" stroke-miterlimit="10" stroke-linecap="round" stroke-linejoin="round"/>
<path d="M52.383 56.4873C52.383 56.4873 47.0821 47.8616 45.2317 46.1113" stroke="black" stroke-miterlimit="10" stroke-linecap="round" stroke-linejoin="round"/>
<path d="M44.5256 35.2419C44.5256 35.2419 41.5784 34.961 38.2977 37.4523C35.0179 39.9436 31.4656 46.7146 31.4656 46.7146" stroke="black" stroke-miterlimit="10" stroke-linecap="round" stroke-linejoin="round"/>
</svg>
