<svg width="43" height="231" viewBox="0 0 43 231" fill="none" xmlns="http://www.w3.org/2000/svg">
<path d="M1.29674 36.3994C1.29674 36.3994 2.99439 43.3309 3.4188 46.868C3.84321 50.405 5.19285 56.9825 5.47635 59.9534C5.75816 62.9243 6.95669 67.3815 6.95669 67.3815C6.95669 67.3815 10.4284 68.5834 12.8322 68.159C15.2378 67.7346 21.3205 68.5834 28.1824 64.5515V55.8511C28.1824 55.8511 26.584 41.9074 25.6359 36.7525C24.1505 28.6887 21.3918 14.8953 18.4209 7.68034C17.3565 5.09907 16.5959 0.169108 13.8237 1.52722C6.89048 4.92252 3.60129 14.3292 2.36456 19.6343C0.635503 27.0403 0.872328 34.7018 1.29674 36.3994Z" fill="#7B633B"/>
<path d="M28.2519 64.4805C28.2519 64.4805 23.2337 67.0253 21.7448 67.3105C20.2526 67.5914 14.8864 68.0888 13.3975 68.1593C11.907 68.2289 7.35815 67.3401 7.35815 67.3401L9.05748 80.7456L11.4002 98.8366L12.1081 102.951L12.8195 116.006L14.0231 132.181L15.5136 151.265L17.0059 164.886L17.5712 174.959L18.3521 186.096C18.3521 186.096 18.4234 189.501 18.2825 190C18.1416 190.495 16.7207 195.108 16.2946 196.88C15.8684 198.653 14.3066 204.541 14.237 205.605C14.1674 206.671 14.8057 209.012 14.8057 209.012C14.8057 209.012 15.5866 211.566 15.444 212.842C15.3014 214.12 14.0231 216.319 14.0944 216.956C14.1674 217.595 14.5935 218.447 16.0823 217.808C17.5712 217.169 19.7017 214.615 19.7017 214.12C19.7017 213.621 20.3384 211.706 20.3384 211.706L22.9629 219.015L25.0205 225.611C25.0205 225.611 25.8031 228.519 25.944 228.875C26.0849 229.23 27.0797 230.863 28.0015 230.08C28.925 229.299 28.7128 227.031 28.6398 226.25C28.5685 225.471 27.645 217.098 27.645 217.098L29.2781 222.56C29.2781 222.56 31.407 229.442 31.6192 229.798C31.8331 230.153 32.7532 230.579 32.8262 228.946C32.8975 227.314 32.9671 219.652 32.9671 219.652C32.9671 219.652 34.1742 223.412 34.6003 224.335C35.0247 225.257 36.0891 227.385 36.4456 227.599C36.7987 227.813 37.8631 227.526 37.7918 226.819C37.7222 226.108 37.7222 222.137 37.6492 221.071C37.5796 220.009 37.5075 214.262 37.5075 214.262L39.1415 220.292C39.1415 220.292 40.4164 223.059 40.7712 223.059C41.1277 223.059 41.5504 222.065 41.9766 220.15C42.4044 218.236 41.5504 211.495 41.5504 211.495C41.5504 211.495 40.7712 205.89 40.2042 204.544C39.6372 203.198 38.0024 197.733 37.0109 196.812C36.0195 195.888 32.8975 190.356 32.8975 190.356C32.8975 190.356 30.6278 186.455 30.3426 183.475C30.0591 180.495 30.4122 175.673 30.6991 173.542C30.9809 171.414 31.407 155.382 31.407 155.382C31.407 155.382 31.6905 135.164 31.6905 133.673C31.6905 132.183 31.1235 117.001 30.9809 115.158C30.84 113.312 30.273 103.735 29.0659 101.181L28.4259 83.3753L28.2519 64.4805Z" fill="#F8C2A0"/>
<path d="M29.064 101.746C29.064 98.3426 28.1821 76.0516 28.1821 63.2785C28.1821 44.5705 23.7937 29.857 21.8159 20.6252C21.2387 17.9386 17.5056 3.85497 16.2986 1.73885C16.2986 1.73885 12.6911 -1.44338 6.8902 8.31808C1.09104 18.0795 0.146306 26.4456 1.53838 36.7639C2.2081 41.7371 5.90048 62.2175 7.59813 71.979C8.67104 78.1542 11.4 98.6965 12.2514 103.519" stroke="black" stroke-miterlimit="10" stroke-linecap="round" stroke-linejoin="round"/>
<path d="M12.0383 103.096C12.0383 103.096 14.8369 145.714 15.8232 153.687C16.8087 161.659 18.8501 187.405 18.2738 190.069C17.6915 192.732 15.0245 200.926 14.3217 204.786C13.6171 208.649 16.7654 211.583 14.5356 215.588C12.3023 219.592 18.2891 219.213 20.3483 211.728" stroke="black" stroke-miterlimit="10" stroke-linecap="round" stroke-linejoin="round"/>
<path d="M18.6311 206.375C18.6311 206.375 25.1501 224.862 25.6585 227.739C26.1678 230.617 28.6328 231.697 28.7143 227.451C28.7542 225.446 27.5293 217.95 26.9818 213.598" stroke="black" stroke-miterlimit="10" stroke-linecap="round" stroke-linejoin="round"/>
<path d="M26.0107 209.193C26.0107 209.193 30.2269 228.617 31.8778 230.199C33.5288 231.781 33.0967 214.59 31.3244 208.354" stroke="black" stroke-miterlimit="10" stroke-linecap="round" stroke-linejoin="round"/>
<path d="M36.458 207.477C36.458 207.477 38.8984 226.694 37.1795 227.724C35.4573 228.755 32.6018 218.559 32.6018 218.559" stroke="black" stroke-miterlimit="10" stroke-linecap="round" stroke-linejoin="round"/>
<path d="M36.9783 212.44C36.9783 212.44 39.5893 223.939 41.09 223.087C42.5908 222.237 41.506 210.067 40.6987 206.458C39.0274 198.969 35.7051 194.495 33.3259 191.013C31.3481 188.115 29.3007 185.368 30.5952 174.588C31.1469 170.003 31.7886 130.13 31.4873 125.257C31.1868 120.385 30.978 109.907 29.2761 101.818" stroke="black" stroke-miterlimit="10" stroke-linecap="round" stroke-linejoin="round"/>
<path d="M27.6432 64.5732C27.6432 64.5732 24.1554 67.0603 18.4208 67.7351C14.8133 68.1595 10.7814 68.5839 6.96167 67.5229" stroke="black" stroke-miterlimit="10" stroke-linecap="round" stroke-linejoin="round"/>
</svg>
