<svg width="91" height="174" viewBox="0 0 91 174" fill="none" xmlns="http://www.w3.org/2000/svg">
<path d="M5.01819 69.8282C5.01819 69.8282 4.45287 60.2085 2.75523 49.1738C1.99893 44.2642 1.34024 38.9879 1.19849 35.3091C2.18821 28.5186 11.7358 25.5239 13.4334 24.8873C15.1311 24.2507 29.0314 21.3859 30.729 21.0676C32.4267 20.7493 40.9149 19.476 43.4614 19.2638C46.0079 19.0516 54.6013 18.2028 59.8012 19.7943C64.9994 21.3859 70.3428 23.5665 71.9343 23.9909C73.5259 24.4153 82.402 26.9627 84.665 28.5186C86.2056 29.577 89.2529 32.7126 89.6883 36.6528C89.8929 38.5041 88.9405 42.2296 87.9907 44.7166C84.6709 53.4111 82.5429 57.6612 79.572 64.0274C79.572 64.0274 80.3852 81.8645 80.3852 83.2439C80.3852 84.6232 80.066 91.626 79.3242 94.703C78.5806 97.78 77.944 102.979 78.2631 105.95C78.5806 108.921 79.9608 125.367 80.4904 128.55C81.0218 131.733 82.4003 145.42 82.1881 148.922C81.9759 152.423 81.3393 161.866 81.3393 161.866L80.8096 167.171C80.8096 167.171 79.5593 169.816 78.4414 170.342C74.8339 172.04 59.23 173.229 43.2152 173.101C25.2151 172.955 15.2041 170.979 12.4454 168.645C8.42197 165.24 11.7358 148.922 11.7358 145.102C11.7358 141.282 10.4625 131.308 10.2503 128.338C10.0381 125.367 9.08405 111.573 9.08405 111.573L7.282 85.6732L5.01819 69.8282Z" fill="#F0306C"/>
<path d="M35.5029 20.4314C35.5029 20.4314 38.5417 20.9772 38.686 17.9911C38.8906 13.7996 39.2216 7.58534 39.158 4.94041C39.0748 1.54512 48.13 0.837201 48.13 0.837201C48.13 0.837201 57.1844 0.555392 57.6088 3.80808C57.8813 5.90043 57.9789 12.551 58.0137 17.0361C58.0332 19.5283 58.8456 19.7948 60.8624 20.5375C60.8624 20.5375 59.6808 23.4872 56.9357 24.4633C52.1619 26.161 44.7347 25.5244 40.1715 23.9328C37.6377 23.0492 35.5029 20.4314 35.5029 20.4314Z" fill="#F8C2A0"/>
<path d="M11.5966 167.16C9.05009 165.037 11.9845 148.997 11.4888 143.157C10.7817 134.81 6.43317 78.0339 4.73553 68.1307L1.16113 35.7804C2.50567 31.4658 3.28319 28.5654 11.347 25.5945C19.4108 22.6236 37.5196 20.078 37.5196 20.078C38.7699 19.7232 38.7928 18.2437 38.7928 16.2583C38.7928 13.9945 39.2173 6.21334 39.2173 6.21334C39.2173 6.21334 38.977 3.37063 40.2766 2.8138C43.2475 1.54057 46.9984 0.979492 51.1008 0.979492C55.2023 0.979492 57.6087 2.67714 57.8914 5.65141V16.3992C57.8914 19.3701 59.1646 19.6536 59.1646 19.6536C64.9782 21.7493 70.813 23.6006 75.434 25.098C79.0797 26.2804 82.2611 27.2472 84.2405 28.1656C86.2217 29.084 88.4151 31.3478 89.4761 35.1675C90.5787 39.1375 87.354 45.99 83.9587 54.2661C82.4665 57.9024 79.5364 63.9333 79.5364 63.9333C79.5364 63.9333 81.6584 85.1539 79.1119 95.3398C76.5655 105.526 81.363 131.918 81.8706 141.813C82.4359 152.848 82.0489 161.854 80.3512 168.645" stroke="black" stroke-miterlimit="10" stroke-linecap="round" stroke-linejoin="round"/>
<path d="M79.431 169.707C79.431 169.707 76.1767 171.546 68.8208 172.112C61.4649 172.678 45.0537 173.527 35.0087 172.678C24.9655 171.829 16.3346 171.121 12.374 168.15" stroke="black" stroke-miterlimit="10" stroke-linecap="round" stroke-linejoin="round"/>
<path d="M35.5757 20.8799C35.5757 20.8799 37.8386 25.4067 49.1569 25.6893C58.4956 25.9219 61.3222 20.8799 61.3222 20.8799" stroke="black" stroke-miterlimit="10" stroke-linecap="round" stroke-linejoin="round"/>
<path d="M43.8815 97.2795L51.3944 76.9977L42.1321 78.2107L49.6594 50.0264L53.3272 58.4942L64.058 50.4024L56.0112 71.6119L61.9258 71.4193L51.077 93.1737L60.0355 91.2877L46.5145 117.499L50.6025 95.9205L43.8815 97.2795Z" fill="#FFE23F"/>
<path d="M43.9707 97.0868L51.4837 76.8092L42.2205 78.0197L49.7478 49.8379L53.4173 58.3041L64.1481 50.2131L56.0996 71.4218L62.0133 71.2274L51.1654 92.9819L60.1238 91.0975L46.6021 117.31L50.6917 95.7304L43.9707 97.0868Z" stroke="black" stroke-miterlimit="10" stroke-linecap="round" stroke-linejoin="round"/>
</svg>
