<svg width="71" height="160" viewBox="0 0 71 160" fill="none" xmlns="http://www.w3.org/2000/svg">
<path d="M9.73071 39.4132C9.73071 39.4132 6.05133 25.8032 4.61407 21.8384C3.17681 17.8736 -0.775649 9.31678 0.481952 8.32198C1.73955 7.32718 5.51236 6.15936 6.94962 5.61871C8.38688 5.07805 20.158 2.64871 21.5953 2.37478C23.0325 2.10084 30.2188 1.02675 32.3747 0.846529C34.5306 0.666311 41.8103 -0.0545698 46.2084 1.30067C50.6064 2.65591 54.8319 4.81854 56.1829 5.17897C57.534 5.53941 64.8065 7.70203 66.6031 8.4229C68.3996 9.14377 70.2896 9.95836 70.6489 14.5503C71.0083 19.1423 63.5561 37.1713 63.1033 39.8746C63.1033 39.8746 63.6423 54.0253 63.6423 55.1932C63.6423 56.361 63.3764 62.3154 62.744 64.9249C62.1116 67.5345 61.5798 71.939 61.8314 74.4621C62.0829 76.9851 63.2686 90.9557 63.7214 93.659C64.1741 96.3622 65.3383 107.99 65.1586 110.96C64.979 113.93 64.44 121.953 64.44 121.953L63.9944 126.459L64.0879 128.081C64.0879 128.081 65.0796 141.777 65.2592 148.539C65.3455 151.884 57.0884 155.301 50.0818 157.37C44.0525 159.158 21.6097 160.707 11.1895 155.841C7.35205 154.047 5.71357 153.318 4.45597 151.516C3.19837 149.714 2.83906 141.698 2.83906 139.081C2.83906 136.464 3.47145 129.169 4.36974 125.659C4.36974 125.659 5.54111 110.974 5.54111 107.73C5.54111 104.486 4.46316 96.0162 4.2835 93.4931C4.10385 90.9701 3.29898 79.2559 3.29898 79.2559L6.62623 58.8047L9.73071 39.4132Z" fill="#F8C2A0"/>
</svg>
