<svg width="104" height="278" viewBox="0 0 104 278" fill="none" xmlns="http://www.w3.org/2000/svg">
<path d="M3.40446 271.016L3.50427 240.076L3.70388 201.451L3.90349 191.371C3.90349 191.371 3.30465 179.893 3.40446 178.496C3.50427 177.099 2.70582 152.048 2.70582 152.048L1.40835 105.439L0.709717 73.6008V61.9236C0.709717 61.9236 1.10894 56.8335 1.80757 54.4382C2.50621 52.0428 3.90349 46.6534 6.49842 44.5574C9.09336 42.4615 11.7881 40.2658 14.9819 39.3676C18.1756 38.4693 25.4614 35.4752 25.4614 35.4752L32.7472 33.4791C32.7472 33.4791 47.3188 31.7824 53.7063 31.8822C60.0939 31.982 64.5851 32.3812 67.9785 33.8783C71.3719 35.3754 76.7614 40.9644 78.458 42.7609C80.1547 44.5574 84.5462 51.2444 85.3446 54.7376C86.1431 58.2308 87.4405 66.5146 87.4405 66.5146L90.5345 96.6558L91.2331 126.398L91.6323 158.435L91.9318 200.354L91.832 227.6L92.2312 250.855L92.1314 262.432C92.1314 262.432 91.9318 266.524 91.6323 267.223C91.3329 267.922 89.4366 270.816 86.5423 271.714C83.6479 272.613 78.2584 274.609 75.4639 274.808C72.6693 275.008 71.0724 275.806 70.5734 271.615C70.0744 267.423 69.8748 256.344 69.8748 256.344L68.8767 234.886H68.2779L65.5832 258.041L63.2876 271.914C63.2876 271.914 62.9882 275.607 61.7906 276.106C60.5929 276.605 56.2015 277.004 56.2015 277.004L43.8256 277.403L25.661 277.204C25.661 277.204 15.7803 276.804 13.7842 276.405C11.7881 276.006 7.49648 275.906 5.79979 275.008C4.1031 274.11 3.30465 271.714 3.40446 271.016Z" fill="#475369"/>
<path d="M36.1406 35.7424C36.1406 35.7424 35.6081 30.42 35.7414 27.0929C35.8747 23.7658 36.9391 11.5232 36.9391 11.5232C36.9391 11.5232 36.8065 6.20004 38.8026 4.20393C40.7987 2.20782 43.5933 0.87682 47.0529 1.01016C50.5126 1.1435 54.1056 1.94114 55.8358 3.00627C57.566 4.07139 57.8319 8.32947 57.8319 8.32947L58.3645 19.7736L59.2954 28.2905L60.7598 37.2067L61.5582 42.6625C61.5582 42.6625 39.7336 44.5261 37.7375 41.5982C35.7414 38.6703 36.1406 35.7424 36.1406 35.7424Z" fill="#F8C2A0"/>
<path d="M52.2432 108.534C52.2432 108.534 44.6579 86.0434 43.1944 81.9186C41.7301 77.7939 38.0045 66.6157 37.2061 63.6878C36.4076 60.7599 33.6131 50.9119 33.3464 45.9887C33.0797 41.0655 32.6813 37.2066 32.8147 33.8795C32.9472 30.5524 33.6123 28.423 34.2774 27.7579C34.9433 27.0928 35.7418 27.0928 35.7418 27.0928C35.7418 27.0928 35.6092 28.5563 36.9394 29.754C38.2696 30.9517 43.9928 36.009 45.989 36.6741C45.989 36.6741 50.5129 36.2749 53.3075 36.6741C56.102 37.0733 61.0923 37.6713 61.0923 37.6713L59.5625 28.9555L59.4284 27.2253C59.4284 27.2253 61.6911 28.9547 63.9539 32.016C66.2151 35.0772 71.2725 44.3918 71.8042 45.5895C72.3376 46.7871 74.8654 57.1669 74.8654 58.3646C74.8654 59.5622 76.3298 77.1287 76.3298 81.3868C76.3298 85.6449 75.7972 100.017 75.7972 100.017L74.7656 114.521L73.6678 128.761L59.5625 129.826L52.2432 108.534Z" fill="#FBF86E"/>
<path d="M93.8283 67.4133C93.8283 67.4133 95.525 66.6148 96.9223 67.014C98.3195 67.4133 99.3176 69.7088 99.3176 70.7068C99.3176 71.7049 98.4193 74.1002 98.4193 74.1002C98.4193 74.1002 100.316 74.699 101.314 76.1961C102.312 77.6932 103.11 80.1883 102.511 82.0846C101.913 83.9809 99.118 86.2765 99.118 86.2765C99.118 86.2765 100.216 88.1728 99.7168 89.1708C99.2178 90.1689 97.7207 92.664 96.024 92.5642C94.3273 92.4644 92.7304 90.4683 92.7304 90.4683C92.7304 90.4683 91.5328 93.5623 90.4349 93.8617C89.3371 94.1611 87.6404 94.2609 86.5425 92.5642C85.4447 90.8675 85.4447 88.3724 85.4447 88.3724C85.4447 88.3724 82.3507 87.3743 81.4524 84.979C80.5542 82.5837 82.9495 80.1883 84.4466 79.2901C84.4466 79.2901 81.9515 77.294 81.153 74.5992C80.3546 71.9045 81.6521 69.11 82.5503 68.2117C83.4485 67.3135 84.3468 67.014 85.4447 67.6129C86.5425 68.2117 87.0415 69.4094 87.0415 69.4094C87.0415 69.4094 87.84 65.9162 89.1375 64.9181C90.4349 63.9201 92.6306 65.0179 92.6306 65.0179L93.8283 67.4133Z" fill="#F79EB4"/>
<path d="M52.6085 56.2349C52.6085 56.2349 49.3149 51.544 47.6182 48.5499C45.9216 45.5557 44.1251 41.7631 44.1251 40.3658C44.1251 38.9686 43.5262 37.6711 46.5204 36.9725C49.5145 36.2738 53.906 36.8727 55.1036 36.8727C56.3013 36.8727 61.092 37.6711 61.092 37.6711L60.9921 45.1565C60.9921 45.1565 60.7925 50.6458 60.2935 51.9433C59.7945 53.2407 59.2955 55.4364 59.2955 55.4364L64.1859 73.2018L67.6791 87.973L71.4717 102.445L74.7653 114.521L73.2682 131.189L71.5715 149.154L69.775 161.629L61.9902 136.778L55.7025 118.513L52.5087 109.93L52.9079 98.1531L52.7083 74.4993L52.6085 56.2349Z" fill="#E13122"/>
<path d="M60.1612 52.3761C60.1612 52.3761 56.3016 47.5199 55.4361 46.2552C54.5722 44.9905 49.7815 40.6661 49.7815 40.6661L45.1904 37.6049C45.1904 37.6049 46.8528 36.7394 50.845 36.6068C54.8372 36.4743 59.2287 37.4724 59.2287 37.4724L61.0252 37.8716L60.9597 47.4529L60.1612 52.3761Z" fill="#EF6354"/>
<path d="M61.4911 64.0208L59.2954 55.4375L56.0346 55.8367L52.6084 56.2359L52.5757 64.9525L52.8408 76.5962C52.8408 76.5962 55.5699 74.2017 56.3012 73.3362C57.0326 72.4707 59.2283 68.6126 59.4279 68.1463C59.6276 67.68 61.4911 64.0208 61.4911 64.0208Z" fill="#EF6354"/>
<path d="M52.7754 101.48C52.7754 101.48 57.0998 97.8869 58.2312 96.4896C59.3625 95.0923 62.9555 91.3668 63.5544 90.0358C64.1532 88.7048 66.6811 84.2471 66.6811 84.2471L70.2741 97.7543L73.3353 109.132C73.3353 109.132 70.3411 114.655 69.5427 115.853C68.7442 117.05 63.5544 122.772 63.5544 122.772L58.6304 127.23L54.8378 116.052L52.7754 109.797V101.48Z" fill="#EF6354"/>
<path d="M69.9772 162.849C68.7867 154.812 40.5306 75.0782 36.8881 62.6904C31.8979 45.7235 32.8959 34.3457 32.8959 34.3457" stroke="black" stroke-miterlimit="10" stroke-linecap="round" stroke-linejoin="round"/>
<path d="M65.6317 168.084C65.6317 168.084 43.6634 118.558 40.0816 111.395C30.5003 92.2319 25.3104 81.8522 25.3104 81.8522L33.2948 65.8833L22.9151 61.4919C22.9151 61.4919 21.7174 49.9145 26.1088 38.7363" stroke="black" stroke-miterlimit="10" stroke-linecap="round" stroke-linejoin="round"/>
<path d="M60.2424 27.7578C64.4343 31.3508 71.4047 43.9119 72.9513 49.5153C75.0799 57.2339 76.1139 67.2823 76.4109 84.2476C76.7087 101.214 71.7152 150.75 70.8218 156.107C69.9291 161.465 67.0013 180.112 67.0013 185.767C67.0013 191.422 70.1982 268.012 70.7939 271.882C71.3887 275.752 73.0798 275.365 76.7822 274.676C90.7717 272.071 91.7801 267.1 91.7801 267.1C91.7801 267.1 92.45 261.295 92.2265 254.375C92.0037 247.454 91.7801 209.505 91.7801 201.691C91.7801 193.878 91.4999 100.655 90.3836 94.6273" stroke="black" stroke-miterlimit="10" stroke-linecap="round" stroke-linejoin="round"/>
<path d="M68.5639 232.567C68.5639 232.567 65.2152 263.596 63.2055 272.526C62.7488 274.558 63.2367 277.072 57.4759 277.145C54.6527 277.181 22.8874 278.269 8.51545 275.675C5.49814 275.129 3.7248 273.878 3.52519 271.083C2.98384 263.51 3.82538 192.607 3.82538 192.607C3.82538 192.607 0.558951 69.4768 0.558951 67.0814C0.558951 67.0814 -0.638712 47.9188 9.74104 41.9305C16.3841 38.098 32.4966 33.5469 32.4966 33.5469" stroke="black" stroke-miterlimit="10" stroke-linecap="round" stroke-linejoin="round"/>
<path d="M64.4343 32.5488C71.6203 34.5449 83.1977 44.7251 85.9923 57.5001L87.5892 67.4807" stroke="black" stroke-miterlimit="10" stroke-linecap="round" stroke-linejoin="round"/>
<path d="M90.8126 78.3172C90.8126 78.3172 93.7892 75.4907 91.7052 74.1509C89.6213 72.8111 86.3477 74.4479 86.3477 76.6804C86.3477 78.9128 89.1757 83.3769 91.4082 82.7821C93.6406 82.1872 92.7472 78.4657 90.8126 78.3172Z" stroke="black" stroke-miterlimit="10" stroke-linecap="round" stroke-linejoin="round"/>
<path d="M89.7705 73.1089C89.7705 73.1089 90.9609 69.8346 93.3427 70.431C95.7229 71.0266 96.4678 74.598 94.6825 76.6812C94.6825 76.6812 98.1054 77.4261 97.659 79.9564C97.2127 82.4859 95.7236 83.6755 94.5339 83.6755C94.5339 83.6755 94.3846 87.5464 92.153 87.5464C89.9213 87.5464 87.5396 85.0153 88.8786 82.0395" stroke="black" stroke-miterlimit="10" stroke-linecap="round" stroke-linejoin="round"/>
<path d="M88.133 72.8118C88.133 72.8118 87.091 67.4542 84.5615 67.3057C82.0313 67.1556 80.543 71.3242 80.9893 74.1515C81.4356 76.978 84.4114 79.3598 84.4114 79.3598C84.4114 79.3598 81.1378 80.9966 81.2872 84.1217C81.4357 87.2468 85.4542 88.2895 85.4542 88.2895C85.4542 88.2895 85.9005 93.4978 88.4308 94.0934C90.9611 94.6891 93.3412 92.0111 92.1516 87.5462" stroke="black" stroke-miterlimit="10" stroke-linecap="round" stroke-linejoin="round"/>
<path d="M93.789 91.5638C93.789 91.5638 96.3185 93.7962 98.6994 91.1167C101.08 88.4387 98.8488 86.3539 98.8488 86.3539C98.8488 86.3539 102.123 84.7171 102.719 81.1457C103.314 77.5735 99.8907 74.002 98.1054 74.4483C98.1054 74.4483 100.486 70.7276 98.4024 68.1981C96.3193 65.6679 93.7898 67.751 93.7898 67.751C93.7898 67.751 93.492 64.7737 91.111 64.4766C88.7301 64.1788 87.0925 68.1966 87.2402 69.8342" stroke="black" stroke-miterlimit="10" stroke-linecap="round" stroke-linejoin="round"/>
<path d="M73.0278 188.074C70.3802 185.804 71.2417 179.367 74.8131 178.475C78.3846 177.582 78.8309 183.162 78.1618 185.618C77.4927 188.074 74.5903 189.412 73.0278 188.074Z" stroke="black" stroke-miterlimit="10" stroke-linecap="round" stroke-linejoin="round"/>
<path d="M52.8569 109.001C52.8569 109.001 52.7523 88.4264 52.7523 83.516C52.7523 78.6048 52.5295 56.5039 52.5295 56.5039" stroke="black" stroke-miterlimit="10" stroke-linecap="round" stroke-linejoin="round"/>
<path d="M59.2261 55.6104C59.2261 55.6104 64.8072 74.8089 65.4771 78.6039C66.1462 82.3989 74.8132 115.387 74.8132 115.387" stroke="black" stroke-miterlimit="10" stroke-linecap="round" stroke-linejoin="round"/>
<path d="M44.0273 38.9855C43.2121 42.2024 52.3063 56.279 52.3063 56.279L59.4492 55.3863C61.4589 50.9214 61.1108 37.7376 61.1108 37.7376C61.1108 37.7376 45.1778 34.4448 44.0273 38.9855Z" stroke="black" stroke-miterlimit="10" stroke-linecap="round" stroke-linejoin="round"/>
<path d="M43.9407 39.1367C43.9407 39.1367 43.409 54.8397 41.0136 55.6381C38.6183 56.4365 34.0935 51.9118 34.0935 51.9118" stroke="black" stroke-miterlimit="10" stroke-linecap="round" stroke-linejoin="round"/>
<path d="M60.4421 37.1396C60.4421 37.1396 66.9718 52.2142 68.4266 52.7093C69.8821 53.2043 70.8219 49.1163 70.4227 43.5272" stroke="black" stroke-miterlimit="10" stroke-linecap="round" stroke-linejoin="round"/>
<path d="M52.9751 101.663C52.9751 101.663 57.7123 97.2728 59.4489 95.4133C65.0324 89.4369 66.6293 84.2471 66.6293 84.2471" stroke="black" stroke-miterlimit="10" stroke-linecap="round" stroke-linejoin="round"/>
<path d="M53.1995 76.6623C53.1995 76.6623 55.6547 74.2063 57.4416 71.7511C59.2269 69.2959 61.2366 64.1611 61.2366 64.1611" stroke="black" stroke-miterlimit="10" stroke-linecap="round" stroke-linejoin="round"/>
<path d="M60.1188 52.3291C60.1188 52.3291 55.9438 46.3903 51.9244 42.5953C49.6297 40.4276 45.5369 37.8047 45.5369 37.8047" stroke="black" stroke-miterlimit="10" stroke-linecap="round" stroke-linejoin="round"/>
<path d="M59.6436 126.564C59.6436 126.564 64.7735 121.658 67.2288 118.979C69.684 116.301 73.0175 109.397 73.0175 109.397" stroke="black" stroke-miterlimit="10" stroke-linecap="round" stroke-linejoin="round"/>
<path d="M35.6904 27.958C36.2893 21.7701 36.5184 17.2254 37.2873 7.99696C38.0858 -1.58435 57.2484 -0.386685 57.6476 6.00086C58.074 12.8212 58.446 21.5705 59.6437 29.3553L60.4421 36.3417" stroke="black" stroke-miterlimit="10" stroke-linecap="round" stroke-linejoin="round"/>
<path d="M74.8142 158.902C74.8142 158.902 87.2771 103.938 88.4317 94.0928" stroke="black" stroke-miterlimit="10" stroke-linecap="round" stroke-linejoin="round"/>
<path d="M87.5894 67.4802L81.6011 59.4957L84.3956 52.709" stroke="black" stroke-miterlimit="10" stroke-linecap="round" stroke-linejoin="round"/>
<path d="M46.0701 36.7411C46.0701 36.7411 37.4868 31.9504 35.4907 27.3594C33.0954 27.3594 33.0954 31.9504 32.8958 33.1481" stroke="black" stroke-miterlimit="10" stroke-linecap="round" stroke-linejoin="round"/>
</svg>
