<svg width="91" height="174" viewBox="0 0 91 174" fill="none" xmlns="http://www.w3.org/2000/svg">
<path d="M4.90686 70.1671C4.90686 70.1671 4.34155 60.5474 2.6439 49.5127C1.8876 44.6031 1.22891 39.3268 1.08716 35.648C2.07689 28.8574 11.6244 25.8628 13.3221 25.2262C15.0197 24.5895 28.9201 21.7248 30.6177 21.4064C32.3154 21.0881 40.8036 19.8149 43.3501 19.6027C45.8965 19.3905 54.49 18.5417 59.6899 20.1332C64.8881 21.7248 70.2314 23.9054 71.823 24.3298C73.4145 24.7542 82.2907 27.3015 84.5536 28.8574C86.0942 29.9159 89.1415 33.0515 89.577 36.9917C89.7815 38.843 88.8291 42.5685 87.8793 45.0555C84.5596 53.75 82.4316 58.0001 79.4607 64.3662C79.4607 64.3662 80.2739 82.2034 80.2739 83.5827C80.2739 84.9621 79.9547 91.9649 79.2128 95.0419C78.4693 98.1188 77.8327 103.318 78.1518 106.289C78.4693 109.26 79.8494 125.706 80.3791 128.889C80.9105 132.072 82.289 145.759 82.0768 149.26C81.8646 152.762 81.2279 162.205 81.2279 162.205L80.6983 167.51C80.6983 167.51 79.448 170.155 78.3301 170.681C74.7226 172.379 59.1186 173.568 43.1039 173.44C25.1038 173.294 15.0927 171.318 12.3341 168.984C8.31064 165.579 11.6244 149.26 11.6244 145.441C11.6244 141.621 10.3512 131.647 10.139 128.676C9.9268 125.706 8.97273 111.912 8.97273 111.912L6.88717 87.7089L4.90686 70.1671Z" fill="#C32F25"/>
<path d="M50.3188 48.9823C50.3188 48.9823 40.3452 42.404 34.6156 39.4331C28.2078 36.1108 21.1405 32.9608 21.1405 32.9608L9.25701 28.5045C9.25701 28.5045 5.75562 28.9289 5.75562 28.1862C5.75562 27.4435 7.98378 25.6397 9.89363 25.0031C11.8035 24.3665 22.3077 22.1383 23.5809 21.9261C24.8541 21.7139 34.6156 20.3346 34.6156 20.3346C34.6156 20.3346 37.5865 22.6688 38.6475 23.5177C39.7085 24.3665 45.7564 26.2763 47.3479 26.2763C48.9395 26.2763 53.5019 26.0641 54.9873 25.2153C56.4728 24.3665 59.1254 22.7749 59.762 22.0322C60.3986 21.2895 61.4596 19.9102 61.4596 19.9102C61.4596 19.9102 66.6587 21.0773 67.6136 21.3956C68.5685 21.7139 77.7995 24.0482 79.4971 24.7909C81.1948 25.5336 84.8023 26.9129 85.9694 28.3984C87.1365 29.8838 86.4999 30.096 86.4999 30.096C86.4999 30.096 83.9534 28.0801 82.3619 27.974C80.7703 27.8679 79.0727 27.4435 74.7225 30.2021C72.0343 31.9066 63.6046 38.6411 61.2474 40.388C58.3826 42.5101 51.6982 47.9213 50.3188 48.9823Z" fill="#FFE480"/>
<path d="M5.47314 28.2912C5.89756 27.1598 8.58578 25.4621 10.7078 25.1786C13.8213 24.7627 17.6393 27.5833 22.0252 29.4227C26.4111 31.2621 49.7537 43.7118 49.7537 43.7118C49.7537 43.7118 58.3828 36.6377 62.9104 33.3842C67.4381 30.1306 72.3884 26.8763 75.0766 25.7448C77.0323 24.9214 78.3302 24.4715 79.3207 24.8959C81.0888 25.6539 84.305 27.192 85.8287 28.7157C86.1113 28.9983 86.394 29.8471 86.394 29.8471C86.394 29.8471 83.8475 28.0086 81.5845 28.0086C79.3216 28.0086 77.0578 28.433 74.3696 30.5551C71.6813 32.6771 59.6561 41.448 59.6561 41.448L50.0364 48.8752C50.0364 48.8752 37.4458 41.5898 34.1914 39.7504C30.9378 37.911 21.6008 33.1015 21.6008 33.1015C21.6008 33.1015 8.58578 28.433 5.47314 28.2912Z" fill="#F6A73E"/>
<path d="M35.3916 20.7703C35.3916 20.7703 40.9438 19.1821 41.0881 16.196C41.2918 12.0045 41.6568 7.28759 41.5931 4.64266C41.5091 1.24737 48.0187 1.17607 48.0187 1.17607C48.0187 1.17607 54.1022 0.469845 54.5266 3.72253C54.7991 5.81488 54.8967 12.4654 54.9315 16.9506C54.951 19.4427 58.9133 19.9096 61.0354 20.1218C61.0354 20.1218 59.8683 23.6232 55.7302 24.7903C50.8529 26.1654 47.5603 27.8673 40.0601 24.2717C37.6393 23.1105 35.3916 20.7703 35.3916 20.7703Z" fill="#E78CEC"/>
<path d="M84.1291 28.5049C86.1102 29.4233 88.3036 31.6871 89.3646 35.5068C90.4673 39.4768 87.2426 46.3293 83.8473 54.6053C82.3551 58.2417 79.4249 64.2726 79.4249 64.2726C79.4249 64.2726 81.547 85.4932 79.0005 95.679C76.454 105.865 81.2516 132.257 81.7592 142.152C82.3245 153.187 81.9374 162.194 80.2398 168.984" stroke="black" stroke-miterlimit="10" stroke-linecap="round" stroke-linejoin="round"/>
<path d="M35.3228 20.6519C38.1527 20.6519 41.228 17.9458 41.228 15.9604C41.228 13.6966 41.6524 5.91546 41.6524 5.91546C41.6524 5.91546 41.4122 3.07275 42.7109 2.51592C45.6818 1.24269 46.8871 1.31823 50.9895 1.31823C55.0901 1.31823 54.5265 2.59147 54.8092 5.56574V16.3135C54.8092 19.2844 59.0533 19.9923 59.0533 19.9923" stroke="black" stroke-miterlimit="10" stroke-linecap="round" stroke-linejoin="round"/>
<path d="M11.4852 167.499C8.93877 165.376 11.8731 149.336 11.3774 143.496C10.6704 135.149 6.32184 78.373 4.6242 68.4697L1.0498 36.1194C2.05821 32.8828 2.7483 30.4425 6.43219 28.1719" stroke="black" stroke-miterlimit="10" stroke-linecap="round" stroke-linejoin="round"/>
<path d="M79.3197 170.046C79.3197 170.046 76.0653 171.885 68.7094 172.451C61.3535 173.017 44.9424 173.866 34.8974 173.017C24.8541 172.168 16.2233 171.46 12.2627 168.489" stroke="black" stroke-miterlimit="10" stroke-linecap="round" stroke-linejoin="round"/>
<path d="M71.3978 63.3761C68.8768 59.4248 60.9853 58.7551 56.4017 61.6784C51.8197 64.6018 50.8444 71.2591 53.2899 75.2596C56.4016 80.3525 63.9859 79.5971 68.5687 76.6746C73.1515 73.7504 73.918 67.3282 71.3978 63.3761Z" fill="black" stroke="black" stroke-miterlimit="10" stroke-linecap="round" stroke-linejoin="round"/>
<path d="M53.9977 81.6263C52.4673 81.6263 56.4025 74.2695 56.4025 74.2695L60.7883 76.2507C60.7883 76.2507 54.9875 81.6263 53.9977 81.6263Z" fill="black" stroke="black" stroke-miterlimit="10" stroke-linecap="round" stroke-linejoin="round"/>
<path d="M65.1733 76.5326C65.1733 76.5326 69.4175 79.787 70.408 79.6453C71.3986 79.5035 68.993 74.1279 68.993 74.1279L65.1733 76.5326Z" fill="black" stroke="black" stroke-miterlimit="10" stroke-linecap="round" stroke-linejoin="round"/>
<path d="M57.4644 66.7072C57.1546 67.5619 62.5955 73.6259 63.2949 73.7032C63.9944 73.7804 68.814 66.085 68.4244 65.3075C68.0365 64.5291 57.7742 65.8524 57.4644 66.7072Z" fill="#61EA67"/>
<path d="M58.8784 20.0166C70.5276 22.1183 80.744 25.0213 84.0595 27.2316C87.0304 29.2119 86.8895 30.6269 86.8895 30.6269C86.8895 30.6269 83.6351 27.656 79.2501 28.2213C76.1502 28.6211 58.948 42.5104 50.2475 49.0888C50.2475 49.0888 22.0242 30.6269 5.68433 28.5048C5.68433 28.5048 5.91096 27.3139 8.3734 26.0993C9.99635 25.2997 13.2372 24.5043 15.7293 23.9772C23.0852 22.4205 25.3329 21.7151 36.5255 20.5819" stroke="black" stroke-miterlimit="10" stroke-linecap="round" stroke-linejoin="round"/>
<path d="M60.858 20.4404C60.858 20.4404 61.0702 21.7137 58.3115 23.6235C55.5529 25.5334 52.3698 26.5944 48.7623 26.5944C45.1548 26.5944 39.7283 24.5564 38.5764 23.8357C36.0299 22.2442 35.322 20.9828 35.322 20.9828" stroke="black" stroke-miterlimit="10" stroke-linecap="round" stroke-linejoin="round"/>
<path d="M11.3079 25.1093C11.3079 25.1093 13.0055 24.5788 21.2815 29.1412C24.2736 30.7905 49.9293 43.7834 49.9293 43.7834C49.9293 43.7834 59.5847 36.3562 61.2823 35.083C62.98 33.8098 72.7907 27.0251 74.1208 26.3826C77.1977 24.8971 78.2588 24.791 78.2588 24.791" stroke="black" stroke-miterlimit="10" stroke-linecap="round" stroke-linejoin="round"/>
</svg>
