<svg width="90" height="174" viewBox="0 0 90 174" fill="none" xmlns="http://www.w3.org/2000/svg">
<path d="M4.66931 70.2833C4.66931 70.2833 4.10315 60.6636 2.4055 49.6289C1.65005 44.7193 0.991363 39.443 0.849609 35.7642C1.83934 28.9736 11.3869 25.979 13.0845 25.3424C14.7822 24.7057 28.6825 21.841 30.3802 21.5227C32.0778 21.2044 40.566 19.9311 43.1125 19.7189C45.659 19.5067 54.2525 18.6579 59.4524 20.2494C64.6506 21.841 69.993 24.0216 71.5846 24.446C73.1761 24.8704 82.0531 27.4177 84.3169 28.9736C85.8567 30.0321 88.9031 33.1677 89.3394 37.1079C89.544 38.9592 89.4362 42.5047 88.7087 45.0656C85.844 55.1454 85.7727 59.7791 83.1914 67.7716C83.1914 67.7716 81.2815 80.2918 81.2815 81.6711C81.2815 83.0504 79.7172 92.0811 78.9753 95.1581C78.2317 98.235 77.5951 103.434 77.9143 106.405C78.2317 109.376 79.6119 125.822 80.1416 129.005C80.6729 132.188 82.0514 145.875 81.8392 149.377C81.627 152.878 80.9904 162.321 80.9904 162.321L80.4607 167.626C80.4607 167.626 79.2104 170.271 78.0925 170.798C74.485 172.495 58.8811 173.684 42.8663 173.556C24.8662 173.41 14.8552 171.434 12.0965 169.1C8.07309 165.695 11.3869 149.377 11.3869 145.557C11.3869 141.737 10.1137 131.764 9.90146 128.793C9.68925 125.822 8.73518 112.028 8.73518 112.028L6.3016 86.9762L4.66931 70.2833Z" fill="#EFBC92"/>
<path d="M73.783 25.508C73.783 25.508 70.5456 46.7506 70.5999 52.2459C70.6542 57.742 75.2336 65.8619 82.6608 70.7426L81.7059 79.9736L78.3106 100.027L78.0271 111.239C76.1792 109.55 68.0551 107.55 54.0479 107.419C31.3418 107.207 9.69685 110.603 8.63582 113.149L5.02832 73.6787C5.02832 73.6787 19.4583 73.2543 22.6159 58.0357C24.188 50.4591 20.0949 23.8103 20.0949 23.8103L26.8855 22.5371C26.8855 22.5371 31.4615 44.0403 33.2619 51.2324C35.7982 61.3708 54.766 61.875 60.414 55.429C66.0621 48.983 67.854 23.9292 67.854 23.9292L73.783 25.508Z" fill="#682527"/>
<path d="M35.1541 20.8865C35.1541 20.8865 38.1928 21.4323 38.3371 18.4461C38.5417 14.2547 38.8727 8.04042 38.8091 5.39549C38.7259 2.0002 47.7812 1.29228 47.7812 1.29228C47.7812 1.29228 56.8347 1.01047 57.2591 4.26316C57.5324 6.35551 57.63 13.006 57.6648 17.4912C57.6835 19.9834 58.4967 20.2499 60.5135 20.9926C60.5135 20.9926 59.3319 23.9423 56.5868 24.9184C51.8131 26.6161 44.3859 25.9795 39.8226 24.3879C37.2888 23.5043 35.1541 20.8865 35.1541 20.8865Z" fill="#EFBC92"/>
<path d="M11.2477 167.615C8.70122 165.493 11.6347 149.452 11.139 143.612C10.4328 135.265 6.0843 78.489 4.38665 68.5858L0.812256 36.2355C2.15679 31.9209 2.93431 29.0205 10.9981 26.0496C19.062 23.0787 37.1707 20.5331 37.1707 20.5331C38.4211 20.1783 38.444 18.6988 38.444 16.7134C38.444 14.4496 38.8684 6.66841 38.8684 6.66841C38.8684 6.66841 38.6282 3.82571 39.9277 3.26888C42.8986 1.99565 46.6487 1.43457 50.7519 1.43457C54.8534 1.43457 57.259 3.13221 57.5425 6.10649V16.8543C57.5425 19.8252 58.8157 20.1087 58.8157 20.1087C64.6285 22.2044 70.4641 24.0557 75.0843 25.553C78.73 26.7354 81.9114 27.7022 83.8925 28.6207C85.8728 29.5391 88.0662 31.8029 89.1272 35.6226C90.229 39.5926 88.6858 45.4766 86.5154 54.155C85.1012 59.8141 82.8383 69.4338 82.8383 69.4338C82.8383 69.4338 81.3095 85.609 78.7631 95.7948C76.2166 105.981 81.0142 132.373 81.5217 142.268C82.0871 153.303 81.7 162.309 80.0023 169.1" stroke="black" stroke-miterlimit="10" stroke-linecap="round" stroke-linejoin="round"/>
<path d="M79.0822 170.162C79.0822 170.162 75.8286 172.001 68.4719 172.567C61.116 173.133 44.704 173.982 34.6607 173.133C24.6166 172.284 15.9866 171.576 12.0251 168.605" stroke="black" stroke-miterlimit="10" stroke-linecap="round" stroke-linejoin="round"/>
<path d="M27.1692 22.5361C27.1692 22.5361 31.7452 44.0394 33.5447 51.2315C36.0818 61.3698 55.0496 61.874 60.6977 55.428C66.3449 48.9821 68.1368 23.9282 68.1368 23.9282" stroke="black" stroke-miterlimit="10" stroke-linecap="round" stroke-linejoin="round"/>
<path d="M74.0666 25.5068C74.0666 25.5068 70.8292 46.7495 70.8835 52.2448C70.937 57.7409 74.9154 65.8259 82.3426 70.7067" stroke="black" stroke-miterlimit="10" stroke-linecap="round" stroke-linejoin="round"/>
<path d="M78.3107 111.238C76.462 109.549 68.3371 107.549 54.3315 107.419C31.6255 107.206 9.98046 110.602 8.91943 113.148" stroke="black" stroke-miterlimit="10" stroke-linecap="round" stroke-linejoin="round"/>
<path d="M5.31201 73.6779C5.31201 73.6779 19.742 73.2535 22.8988 58.035C24.4708 50.4584 20.3786 23.8096 20.3786 23.8096" stroke="black" stroke-miterlimit="10" stroke-linecap="round" stroke-linejoin="round"/>
<path d="M43.7214 118.453C43.7214 118.453 36.2229 141.87 36.5064 160.4" stroke="black" stroke-miterlimit="10" stroke-linecap="round" stroke-linejoin="round"/>
<path d="M67.488 118.877C67.488 118.877 74.0664 142.644 74.4195 160.049" stroke="black" stroke-miterlimit="10" stroke-linecap="round" stroke-linejoin="round"/>
<path d="M59.9896 158.137C59.9896 158.137 54.0479 158.986 54.0479 161.249" stroke="black" stroke-miterlimit="10" stroke-linecap="round" stroke-linejoin="round"/>
<path d="M58.292 160.682C58.292 160.682 55.1802 161.248 55.1802 160.116" stroke="black" stroke-miterlimit="10" stroke-linecap="round" stroke-linejoin="round"/>
<path d="M46.3577 135.734C46.3577 135.734 47.2897 139.393 53.2034 138.127C53.2034 138.127 56.1404 142.873 61.1297 138.232C61.1297 138.232 65.1667 141.537 67.052 137.25" stroke="black" stroke-miterlimit="10" stroke-linecap="round" stroke-linejoin="round"/>
<path d="M43.8621 146.818C43.8621 146.818 45.5597 151.911 50.6526 148.799C50.6526 148.799 54.3314 153.325 60.2732 148.799C60.2732 148.799 63.6685 151.911 66.4985 149.365" stroke="black" stroke-miterlimit="10" stroke-linecap="round" stroke-linejoin="round"/>
<path d="M48.6021 125.244C48.6021 125.244 50.0875 127.791 52.2095 128.215C54.3316 128.639 56.6659 126.305 56.6659 126.305C56.6659 126.305 58.5757 128.852 60.4856 128.852C63.032 128.852 64.9419 126.093 64.9419 126.093" stroke="black" stroke-miterlimit="10" stroke-linecap="round" stroke-linejoin="round"/>
</svg>
