<svg width="90" height="175" viewBox="0 0 90 175" fill="none" xmlns="http://www.w3.org/2000/svg">
<path d="M4.71716 70.0001C4.71716 70.0001 4.151 60.3804 2.45335 49.3457C1.6979 44.4361 1.03921 39.1598 0.897461 35.481C1.88719 28.6904 11.4347 25.6958 13.1324 25.0592C14.83 24.4225 28.7304 21.5578 30.428 21.2395C32.1257 20.9211 40.6139 19.6479 43.1604 19.4357C45.7068 19.2235 54.3003 18.3747 59.5002 19.9662C64.6984 21.5578 70.0409 23.7384 71.6324 24.1628C73.224 24.5872 82.101 27.1345 84.3648 28.6904C85.9045 29.7489 88.951 32.8845 89.3873 36.8247C89.591 38.676 88.3729 45.0201 87.9451 47.6472C86.9545 53.7299 85.8231 62.0772 84.4081 67.311C84.4081 67.311 79.765 91.7979 79.0231 94.8749C78.2796 97.9518 77.643 103.151 77.9621 106.122C78.2796 109.093 79.6598 125.539 80.1894 128.722C80.7208 131.905 82.0993 145.592 81.8871 149.093C81.6749 152.595 81.0382 162.038 81.0382 162.038L80.5086 167.343C80.5086 167.343 79.2583 169.988 78.1404 170.514C74.5329 172.212 58.9289 173.401 42.9142 173.273C24.9141 173.127 14.903 171.151 12.1444 168.817C8.12095 165.412 11.4347 149.093 11.4347 145.274C11.4347 141.454 10.1615 131.48 9.9493 128.509C9.7371 125.539 8.78302 111.745 8.78302 111.745L6.32568 86.5869L4.71716 70.0001Z" fill="#D9D3B3"/>
<path d="M46.3876 161.176C47.166 160.967 52.4712 161.073 52.4712 161.073C52.4712 161.073 57.9512 161.205 58.4469 161.457C58.9434 161.709 59.0495 166.378 59.0495 166.378L59.0538 170.184L52.6834 170.728C52.6834 170.728 46.7467 170.655 46.3197 170.48C45.8928 170.304 46.105 165.529 46.105 165.529L46.3876 161.176Z" fill="#736A65"/>
<path d="M61.49 161.071C61.49 161.071 64.0365 161.39 65.8402 160.859C67.644 160.329 70.12 159.904 70.12 159.904C70.12 159.904 73.6562 159.8 75.2129 158.844C76.7688 157.888 78.6787 156.933 79.4214 155.978C80.1641 155.024 81.9678 151.416 81.9678 151.416C81.9678 151.416 81.5434 159.055 81.4373 160.329C81.3312 161.602 80.4824 167.968 80.4824 167.968C80.4824 167.968 79.8636 169.97 78.1405 170.515C74.1162 171.788 65.7341 172.53 65.7341 172.53L61.5961 172.849C61.5961 172.849 61.9144 170.408 61.9144 167.438C61.9144 164.467 61.49 161.071 61.49 161.071Z" fill="#736A65"/>
<path d="M43.0278 160.859C43.0278 160.859 42.8156 164.891 42.8156 166.482C42.8156 168.074 43.7705 173.273 43.7705 173.273C43.7705 173.273 34.8579 172.848 28.0673 172.318C24.8918 172.07 15.9715 170.514 15.1227 169.984C14.2739 169.453 10.7725 167.437 10.4542 166.058C10.1359 164.678 10.0298 160.647 10.242 158.843C10.4542 157.039 10.7725 154.917 10.7725 154.917C10.7725 154.917 14.2739 157.57 15.441 157.994C16.6082 158.418 20.1096 159.373 20.1096 159.373C20.1096 159.373 22.8682 160.116 25.0964 160.116C27.3246 160.116 30.5076 159.904 30.5076 159.904C30.5076 159.904 32.8419 160.647 35.3884 160.965C37.9348 161.283 43.0278 160.859 43.0278 160.859Z" fill="#736A65"/>
<path d="M35.2026 20.6033C35.2026 20.6033 38.2414 21.1491 38.3857 18.1629C38.5903 13.9715 38.9213 7.75722 38.8577 5.11229C38.7745 1.71699 47.8297 1.00908 47.8297 1.00908C47.8297 1.00908 56.8833 0.727267 57.3077 3.97996C57.581 6.07231 57.6786 12.7228 57.7134 17.208C57.7321 19.7002 58.5453 19.9667 60.5621 20.7094C60.5621 20.7094 59.3805 23.6591 56.6354 24.6352C51.8616 26.3329 44.4344 25.6962 39.8712 24.1047C37.3366 23.2211 35.2026 20.6033 35.2026 20.6033Z" fill="#F8C2A0"/>
<path d="M11.2955 167.331C8.74907 165.209 11.6826 149.169 11.1869 143.329C10.4807 134.982 6.13215 78.2058 4.43451 68.3026L0.860107 35.9523C2.20464 31.6377 2.98216 28.7373 11.046 25.7664C19.1098 22.7955 37.2186 20.2499 37.2186 20.2499C38.4689 19.8951 38.4918 18.4156 38.4918 16.4302C38.4918 14.1664 38.9162 6.38521 38.9162 6.38521C38.9162 6.38521 38.6752 3.5425 39.9756 2.98568C42.9465 1.71244 46.6966 1.15137 50.7998 1.15137C54.9013 1.15137 57.3068 2.84901 57.5904 5.82329V16.5711C57.5904 19.542 58.8636 19.8255 58.8636 19.8255C64.6763 21.9212 70.512 23.7725 75.1321 25.2698C78.7778 26.4522 81.9592 27.419 83.9404 28.3375C85.9207 29.2559 88.114 31.5197 89.175 35.3394C90.2777 39.3094 84.1254 68.16 84.1254 68.16C84.1254 68.16 81.3574 85.3258 78.8109 95.5116C76.2645 105.698 81.062 132.09 81.5696 141.985C82.1349 153.019 81.7478 162.026 80.0502 168.817" stroke="black" stroke-miterlimit="10" stroke-linecap="round" stroke-linejoin="round"/>
<path d="M43.2401 173.133C39.3083 173.139 37.8619 173.116 34.7086 172.85C24.6644 172.001 16.0345 171.293 12.073 168.322" stroke="black" stroke-miterlimit="10" stroke-linecap="round" stroke-linejoin="round"/>
<path d="M79.1301 169.879C79.1301 169.879 75.8765 171.717 68.5198 172.284C66.1134 172.469 63.3292 172.85 61.6316 172.85" stroke="black" stroke-miterlimit="10" stroke-linecap="round" stroke-linejoin="round"/>
<path d="M60.911 158.761C59.9442 158.366 44.6374 157.674 43.4635 159.023C42.2912 160.372 42.7878 172.005 43.747 173.368C44.707 174.731 60.7964 174.46 61.5841 172.722C62.2089 171.344 61.877 159.156 60.911 158.761ZM46.2085 170.479C45.9895 169.895 46.2765 161.175 46.2765 161.175C46.2765 161.175 57.8968 160.484 58.3365 161.456C58.7771 162.429 58.9434 170.183 58.9434 170.183C58.4953 170.569 46.4275 171.062 46.2085 170.479Z" fill="#FBF86E"/>
<path d="M61.6946 172.723C62.3193 171.344 61.9875 159.157 61.0206 158.762C60.0538 158.367 44.7462 157.675 43.5739 159.024C42.4009 160.373 42.8974 172.006 43.8574 173.369C44.8166 174.732 60.9077 174.461 61.6946 172.723Z" stroke="black" stroke-miterlimit="10" stroke-linecap="round" stroke-linejoin="round"/>
<path d="M59.0537 170.182C59.0537 170.182 58.8874 162.428 58.4468 161.455C58.0071 160.483 46.3876 161.174 46.3876 161.174C46.3876 161.174 46.1007 169.894 46.3197 170.477C46.5387 171.061 58.6056 170.567 59.0537 170.182Z" stroke="black" stroke-miterlimit="10" stroke-linecap="round" stroke-linejoin="round"/>
<path d="M61.8386 161.17C61.8386 161.17 67.3577 161.067 70.1198 159.904C72.881 158.742 74.049 155.064 74.049 155.064" stroke="black" stroke-miterlimit="10" stroke-linecap="round" stroke-linejoin="round"/>
<path d="M43.0858 160.879C43.0858 160.879 33.3107 161.11 31.0206 160.007C26.4055 157.782 25.6416 155.646 25.6416 155.646" stroke="black" stroke-miterlimit="10" stroke-linecap="round" stroke-linejoin="round"/>
<path d="M16.0474 155.064C16.0474 155.064 18.7661 158.631 21.7175 159.572C23.7767 160.227 31.0206 160.008 31.0206 160.008" stroke="black" stroke-miterlimit="10" stroke-linecap="round" stroke-linejoin="round"/>
<path d="M69.6885 160.007C69.6885 160.007 73.7586 159.571 75.2126 158.844C76.6658 158.119 80.3056 156.934 81.6085 151.431" stroke="black" stroke-miterlimit="10" stroke-linecap="round" stroke-linejoin="round"/>
<path d="M20.5536 159.135C20.5536 159.135 17.0692 158.631 13.7215 157.245C12.9108 156.909 11.5493 155.576 10.49 154.387" stroke="black" stroke-miterlimit="10" stroke-linecap="round" stroke-linejoin="round"/>
<path d="M51.1274 43.2969L49.5359 37.249L47.7321 32.6866L50.4908 25.1533L56.0082 24.835L59.0852 32.3683L57.8119 38.6283L56.6448 43.2969C56.6448 43.2969 60.3584 64.093 61.2072 67.9127C62.056 71.7324 65.133 97.1971 65.133 97.1971L66.5124 111.097L62.056 120.646L56.857 129.877C56.857 129.877 53.1434 126.057 51.658 123.829C50.1725 121.601 42.9575 111.309 42.9575 110.672C42.9575 110.036 45.9284 88.7089 45.9284 88.7089L48.7932 65.5785L51.1274 43.2969Z" fill="#736A65"/>
<path d="M43.5942 40.2199C42.9483 40.2199 39.0318 36.5063 38.3952 35.5513C37.7586 34.5964 35.8487 32.0499 34.3633 29.0791C33.45 27.2541 31.1802 24.4105 31.2863 21.8641C31.3924 19.3176 34.1511 16.665 34.1511 16.665L38.183 12.4209C38.183 12.4209 38.8196 13.9063 39.3501 15.1796C39.8806 16.4528 42.0027 20.2725 44.5492 21.5457C47.0956 22.819 50.4909 25.1532 50.4909 25.1532L48.6872 30.1401L45.8224 36.9307C45.8224 36.9307 44.0187 40.2199 43.5942 40.2199Z" fill="#D9D3B3"/>
<path d="M56.0081 24.8339C56.0081 24.8339 56.963 21.6508 57.0691 21.3325C57.1752 21.0142 57.8118 17.725 57.4935 16.5579C57.1752 15.3908 57.5996 12.1016 57.5996 12.1016L59.8278 15.7091C59.8278 15.7091 62.5864 20.3776 63.3292 21.863C64.0719 23.3485 64.6024 28.2292 64.6024 28.2292L64.2841 35.8686C64.2841 35.8686 63.6475 40.5371 63.2231 40.7493C62.7986 40.9615 60.7827 38.309 60.2522 36.5052C59.7217 34.7015 57.9179 29.7146 57.9179 29.7146L56.0081 24.8339Z" fill="#D9D3B3"/>
<path d="M47.8884 33.0755C47.8884 33.0755 49.7024 37.3001 49.845 38.4341C49.9867 39.5698 51.1233 43.4031 51.1233 43.4031C51.1233 43.4031 55.0975 43.2614 56.6585 43.1205C57.419 43.0509 58.2135 34.2129 58.9231 32.9346" stroke="black" stroke-miterlimit="10" stroke-linecap="round" stroke-linejoin="round"/>
<path d="M57.507 11.7129C57.507 11.7129 61.4693 18.787 62.459 20.2011C64.8188 23.5701 64.6074 29.3497 64.6074 31.7629C64.6074 34.1761 63.7552 40.8479 63.0456 40.7061C62.336 40.5644 60.4898 37.0146 60.0645 35.5954C59.6384 34.1753 56.0903 24.5225 56.0903 24.5225C56.0903 24.5225 58.0732 20.6255 57.3653 16.3814L57.507 11.7129Z" stroke="black" stroke-miterlimit="10" stroke-linecap="round" stroke-linejoin="round"/>
<path d="M38.4884 12.1729C38.4884 12.1729 31.1079 19.2707 31.2488 21.6839C31.3914 24.0971 34.7986 30.0593 35.5082 31.3367C36.2178 32.6142 41.2395 39.4413 43.2206 40.1492C44.7867 40.7086 46.7534 34.6387 47.6056 32.7925C48.4579 30.9471 50.5765 25.1531 50.5765 25.1531C50.5765 25.1531 45.4836 22.3231 43.9268 21.1916C42.371 20.0601 39.1327 17.3006 38.4884 12.1729Z" stroke="black" stroke-miterlimit="10" stroke-linecap="round" stroke-linejoin="round"/>
<path d="M56.6584 43.1201C56.6584 43.1201 59.7821 59.1595 60.6343 63.9867C61.4865 68.814 65.1772 96.7785 65.6033 100.327C66.0294 103.877 66.3129 109.839 66.4538 110.975C66.5964 112.111 57.6524 129.43 56.8018 129.855C55.9496 130.281 43.3149 111.826 43.0314 110.833C42.747 109.839 46.7221 82.2992 47.2908 79.1764C47.8578 76.0536 51.1241 43.4028 51.1241 43.4028" stroke="black" stroke-miterlimit="10" stroke-linecap="round" stroke-linejoin="round"/>
<path d="M56.2339 24.8701C56.2339 24.8701 52.1324 25.2945 50.5757 25.1528" stroke="black" stroke-miterlimit="10" stroke-linecap="round" stroke-linejoin="round"/>
</svg>
