<svg width="99" height="162" viewBox="0 0 99 174" fill="none" xmlns="http://www.w3.org/2000/svg">
<path d="M8.77197 111.295C8.77197 111.295 9.7269 125.089 9.9391 128.06C10.1513 131.03 11.4245 141.004 11.4245 144.824C11.4245 148.644 8.11074 164.398 12.1342 167.801C14.8928 170.136 24.9039 172.677 42.904 172.823C58.9187 172.951 74.5227 171.762 78.1301 170.064C79.248 169.538 80.4984 166.893 80.4984 166.893L81.0289 161.588C81.0289 161.588 81.6655 152.145 81.8777 148.644C82.0899 145.142 80.7106 131.455 80.1801 128.272C79.6495 125.089 78.2702 108.643 77.9519 105.672L38.9417 107.464L9.23288 109.727L8.77197 111.295Z" fill="#F8C2A0"/>
<path d="M1.13184 35.5023C1.45184 33.4745 2.65293 29.9383 4.84713 28.5233C7.04049 27.1083 11.709 24.9863 13.6893 24.4914C15.6696 23.9965 21.3287 22.7938 21.3287 22.7938L25.6433 21.4492L47.2883 23.2182L65.9624 21.7327L78.4121 25.8351C78.4121 25.8351 84.3538 27.6745 85.4149 28.5938C86.4759 29.513 89.0224 32.2021 89.4468 34.8895C89.8712 37.5769 89.1641 40.3355 88.7397 41.5383C88.3153 42.7411 85.981 48.9655 85.981 48.9655C85.981 48.9655 83.9999 53.7758 83.9294 54.4124C83.859 55.049 84.4947 56.6058 85.2731 57.5251C86.0515 58.4443 91.0027 64.4574 92.1342 66.0133C93.2656 67.5692 97.1566 73.9353 97.935 79.8771C98.7134 85.8189 96.874 91.1231 96.3791 92.1137C95.8843 93.1043 92.9134 97.5615 89.8712 98.9756C86.829 100.39 78.8365 101.805 78.8365 101.805L78.4825 106.969L78.6243 112.132C78.6243 112.132 77.1389 108.736 73.2487 108.171C69.3585 107.606 60.0215 107.818 55.9183 108.667C51.8151 109.515 34.415 113.547 34.415 113.547L24.3709 116.094L15.8827 117.509L9.3756 118.216L9.02164 111.638L1.13184 35.5023Z" fill="#EFFEE7"/>
<path d="M61.5774 20.2482C59.5614 19.5055 58.0038 19.2491 57.9843 16.7578C57.9495 12.2727 57.8528 5.62211 57.5794 3.52976C57.155 0.277072 48.1006 0.558881 48.1006 0.558881C48.1006 0.558881 39.0454 1.26681 39.1286 4.6621C39.1922 7.30704 38.862 13.5221 38.6575 17.7128C38.6329 18.2255 38.3052 19.6107 35.6526 20.0351C32.0655 20.6089 25.6433 21.4493 25.6433 21.4493C25.6433 21.4493 28.5437 22.3694 30.0292 23.36C31.5146 24.3506 34.415 26.6144 36.2536 28.7364C38.0922 30.8585 42.4076 34.9608 46.4395 36.2341C50.4714 37.5073 54.7155 38.5692 58.6057 38.0735C62.4958 37.5778 66.1746 36.8002 67.7305 34.8904C69.2864 32.9805 69.8084 31.2948 69.6404 29.0191C69.216 23.2895 66.599 21.8745 66.599 21.8745L61.5774 20.2482Z" fill="#F8C2A0"/>
<path d="M11.5673 166.881C9.0208 164.759 11.9552 148.719 11.4595 142.879C10.7524 134.532 6.40388 77.7556 4.70623 67.8524L1.13184 35.5021C2.47637 31.1875 3.25389 28.2871 11.3177 25.3162C19.3815 22.3453 37.4903 19.7997 37.4903 19.7997C38.7406 19.4449 38.7636 17.9654 38.7636 15.98C38.7636 13.7162 39.188 5.93502 39.188 5.93502C39.188 5.93502 38.9478 3.0923 40.2473 2.53547C43.2182 1.26224 46.9683 0.701172 51.0715 0.701172C55.173 0.701172 57.5794 2.39882 57.8621 5.37309V16.1209C57.8621 19.0918 59.1353 19.3753 59.1353 19.3753C64.948 21.471 70.7837 23.3223 75.4047 24.8196C79.0504 26.002 82.2318 26.9689 84.2121 27.8873C86.1924 28.8057 88.3858 31.0695 89.4468 34.8892C90.5494 38.8592 87.3247 45.7117 83.9294 53.9877C82.4372 57.6241 97.228 66.4374 98.0768 81.4327C99.1166 99.797 83.0806 101.804 78.8365 101.804C77.4215 111.99 81.4577 134.05 81.8413 141.535C82.4066 152.569 82.0196 161.576 80.3219 168.367" stroke="black" stroke-miterlimit="10" stroke-linecap="round" stroke-linejoin="round"/>
<path d="M61.9644 160.846C59.8423 160.422 55.5982 162.544 54.325 165.09" stroke="black" stroke-miterlimit="10" stroke-linecap="round" stroke-linejoin="round"/>
<path d="M59.8422 164.665L58.1445 162.118" stroke="black" stroke-miterlimit="10" stroke-linecap="round" stroke-linejoin="round"/>
<path d="M49.013 149.276L48.9358 146.668" stroke="black" stroke-miterlimit="10" stroke-linecap="round" stroke-linejoin="round"/>
<path d="M54.9673 125.054L53.897 123.119" stroke="black" stroke-miterlimit="10" stroke-linecap="round" stroke-linejoin="round"/>
<path d="M42.774 132.232L42.2944 134.734" stroke="black" stroke-miterlimit="10" stroke-linecap="round" stroke-linejoin="round"/>
<path d="M59.8413 136.369L60.6876 137.972" stroke="black" stroke-miterlimit="10" stroke-linecap="round" stroke-linejoin="round"/>
<path d="M61.5457 114.212L61.6119 116.001" stroke="black" stroke-miterlimit="10" stroke-linecap="round" stroke-linejoin="round"/>
<path d="M31.1096 144.976L31.1215 146.419" stroke="black" stroke-miterlimit="10" stroke-linecap="round" stroke-linejoin="round"/>
<path d="M79.4027 169.429C79.4027 169.429 76.1492 171.267 68.7924 171.834C61.4357 172.4 45.0245 173.249 34.9813 172.4C24.9371 171.551 16.3072 170.843 12.3457 167.872" stroke="black" stroke-miterlimit="10" stroke-linecap="round" stroke-linejoin="round"/>
<path d="M78.5537 112.556C78.5537 112.556 78.552 107.416 67.519 107.746C48.5623 108.312 40.074 112.556 27.6244 115.385C18.4528 117.469 9.79907 118.215 9.79907 118.215" stroke="black" stroke-miterlimit="10" stroke-linecap="round" stroke-linejoin="round"/>
<path d="M19.3222 82.0186C19.3222 82.0186 17.6764 97.5011 33.5519 101.132C44.9448 103.737 59.9401 99.0358 63.5069 86.6064" stroke="black" stroke-miterlimit="10" stroke-linecap="round" stroke-linejoin="round"/>
<path d="M25.6433 22.0146C25.6433 22.0146 29.4019 22.2286 33.5654 25.9761C36.3945 28.5226 43.8209 39.598 60.1615 37.8596C73.4601 36.4446 70.3474 25.1273 66.6695 22.2982" stroke="black" stroke-miterlimit="10" stroke-linecap="round" stroke-linejoin="round"/>
</svg>
