<svg width="91" height="174" viewBox="0 0 91 174" fill="none" xmlns="http://www.w3.org/2000/svg">
<path d="M4.91052 69.839C4.91052 69.839 4.34437 60.2193 2.64672 49.1846C1.89127 44.275 1.23257 38.9987 1.09082 35.3199C2.08055 28.5293 11.6281 25.5346 13.3258 24.898C15.0234 24.2614 28.9237 21.3966 30.6214 21.0783C32.319 20.76 40.8073 19.4868 43.3537 19.2746C45.9002 19.0624 54.4937 18.2135 59.6936 19.8051C64.8918 21.3966 70.2342 23.5772 71.8258 24.0017C73.4173 24.4261 82.2943 26.9734 84.5581 28.5293C86.0979 29.5878 89.1443 32.7233 89.5806 36.6636C89.7844 38.5148 88.832 42.2403 87.883 44.7274C84.5624 53.4219 82.4361 57.6719 79.4652 64.0381C79.4652 64.0381 80.2775 81.8753 80.2775 83.2546C80.2775 84.6339 79.9584 91.6367 79.2165 94.7137C78.4729 97.7907 77.8363 102.99 78.1555 105.961C78.4729 108.932 79.8531 125.377 80.3828 128.561C80.9142 131.744 82.2926 145.431 82.0804 148.932C81.8682 152.434 81.2316 161.877 81.2316 161.877L80.7019 167.182C80.7019 167.182 79.4516 169.827 78.3337 170.353C74.7262 172.051 59.1223 173.24 43.1076 173.112C25.1074 172.966 15.0964 170.99 12.3377 168.656C8.3143 165.251 11.6281 148.932 11.6281 145.113C11.6281 141.293 10.3549 131.319 10.1427 128.348C9.93046 125.377 8.97639 111.584 8.97639 111.584L7.17433 85.6839L4.91052 69.839Z" fill="#FF0000"/>
<path d="M35.3953 20.4422C35.3953 20.4422 38.4341 20.988 38.5784 18.0018C38.7829 13.8103 39.114 7.5961 39.0503 4.95117C38.9671 1.55587 48.0224 0.847944 48.0224 0.847944C48.0224 0.847944 57.0759 0.566134 57.5003 3.81882C57.7737 5.91117 57.8712 12.5617 57.906 17.0469C57.9247 19.539 58.7379 19.8056 60.7547 20.5483C60.7547 20.5483 59.5732 23.4979 56.8281 24.4741C52.0543 26.1717 44.6271 25.5351 40.0638 23.9436C37.5301 23.06 35.3953 20.4422 35.3953 20.4422Z" fill="#F8C2A0"/>
<path d="M11.4889 167.17C8.94243 165.048 11.876 149.008 11.3803 143.168C10.674 134.821 6.32551 78.0447 4.62786 68.1415L1.05347 35.7911C2.398 31.4766 3.17552 28.5761 11.2393 25.6052C19.3032 22.6344 37.412 20.0888 37.412 20.0888C38.6623 19.7339 38.6852 18.2544 38.6852 16.269C38.6852 14.0052 39.1096 6.22408 39.1096 6.22408C39.1096 6.22408 38.8685 3.38137 40.1689 2.82454C43.1398 1.5513 46.8899 0.990234 50.9931 0.990234C55.0946 0.990234 57.5002 2.68788 57.7837 5.66215V16.41C57.7837 19.3808 59.057 19.6643 59.057 19.6643C64.8697 21.7601 70.7054 23.6114 75.3255 25.1087C78.9712 26.2911 82.1526 27.2579 84.1337 28.1763C86.114 29.0948 88.3074 31.3586 89.3684 35.1783C90.4711 39.1482 87.2464 46.0008 83.8511 54.2768C82.3589 57.9132 79.4287 63.944 79.4287 63.944C79.4287 63.944 81.5508 85.1646 79.0043 95.3505C76.4578 105.536 81.2554 131.929 81.763 141.824C82.3283 152.858 81.9412 161.865 80.2436 168.656" stroke="black" stroke-miterlimit="10" stroke-linecap="round" stroke-linejoin="round"/>
<path d="M79.3234 169.718C79.3234 169.718 76.0698 171.556 68.7131 172.123C61.3572 172.689 44.9452 173.538 34.9019 172.689C24.8578 171.84 16.2278 171.132 12.2664 168.161" stroke="black" stroke-miterlimit="10" stroke-linecap="round" stroke-linejoin="round"/>
<path d="M50.7216 54.4883L33.0211 58.4413L26.542 70.7551L32.8538 79.2578L41.1859 79.2485L52.7282 86.017L65.98 79.6686L65.6371 64.1895L50.7216 54.4883ZM45.4088 66.2046L53.1246 72.2363L39.119 71.3867L45.4088 66.2046ZM48.6343 66.0221L61.443 66.6663L56.4197 72.1022L48.6343 66.0221ZM47.1565 63.8075L50.9168 57.1757L62.1841 64.4857L47.1565 63.8075ZM44.9385 63.4408L37.0869 59.8062L48.4331 57.2707L44.9385 63.4408ZM43.3529 65.0901L37.03 70.3069L35.7585 61.5692L43.3529 65.0901ZM50.68 74.3092L41.9524 77.1493L38.7939 73.586L50.68 74.3092ZM54.863 75.253L52.1849 83.2065L44.4377 78.6619L54.863 75.253ZM57.0886 75.1783L62.729 78.7977L54.5472 82.6998L57.0886 75.1783ZM58.2074 73.3474L63.6627 67.4354L63.8843 76.9881L58.2074 73.3474ZM33.7044 61.6634L35.0591 70.9639L29.3966 69.869L33.7044 61.6634ZM30.2675 72.2635L35.8043 73.3406L39.0596 77.0407L33.8147 77.0458L30.2675 72.2635Z" fill="white"/>
<path d="M60.9474 20.6069C60.9474 20.6069 59.2735 24.4708 53.308 25.1337C48.215 25.6999 43.1221 25.9825 38.878 23.7196C37.0776 22.7595 35.3953 20.4414 35.3953 20.4414" stroke="black" stroke-miterlimit="10" stroke-linecap="round" stroke-linejoin="round"/>
</svg>
