<svg width="72" height="147" viewBox="0 0 72 147" fill="none" xmlns="http://www.w3.org/2000/svg">
<path d="M5.2081 53.9119C5.2081 53.9119 4.61413 47.9508 3.18288 38.6476C2.77917 35.7161 2.05935 32.8368 1.03601 30.0602C1.86613 24.328 9.94553 21.809 11.3768 21.2723C12.808 20.7356 24.5299 18.3239 25.9612 18.052C27.3924 17.7801 34.5487 16.7138 36.6955 16.5349C38.8424 16.356 46.0917 15.6403 50.4713 16.9857C54.8509 18.3311 59.3236 20.1559 60.6689 20.5137C62.0143 20.8716 69.6142 23.6124 71.4033 24.328C72.1189 27.1905 71.8828 30.647 71.1671 36.6153C69.9219 46.9847 68.4263 50.9278 67.2598 55.2573C67.2598 55.2573 67.7965 69.305 67.7965 70.4643C67.7965 71.6236 67.5318 77.5346 66.902 80.1252C66.2723 82.7158 65.7427 87.1025 66.0075 89.6072C66.2723 92.1119 67.4387 105.981 67.8896 108.664C68.3404 111.348 69.4997 122.891 69.3208 125.839C69.1419 128.788 68.6267 136.724 68.6267 136.724L68.183 141.197C68.183 141.197 67.131 143.429 66.1864 143.873C63.145 145.304 49.9918 146.306 36.488 146.199C21.3096 146.077 12.8724 144.41 10.5466 142.442C7.15459 139.579 9.94553 125.811 9.94553 122.59C9.94553 119.37 8.87209 110.961 8.69318 108.457C8.51428 105.952 7.71278 94.3232 7.71278 94.3232L6.15988 72.5181L5.2081 53.9119Z" fill="#F8C2A0"/>
<path d="M29.9825 17.5154C29.9825 17.5154 32.5445 17.9734 32.6661 15.4616C32.8379 11.9264 33.117 6.68803 33.0597 4.46244C32.9882 1.59995 40.6239 1.00598 40.6239 1.00598C40.6239 1.00598 48.2309 0.755512 48.5888 3.49635C48.8178 5.25679 48.9036 10.8673 48.9323 14.6458C48.9323 16.7497 49.6479 16.9715 51.3368 17.6013C50.7007 19.0891 49.517 20.2754 48.0306 20.9146C44.0088 22.3459 37.7471 21.8092 33.897 20.4709C32.38 19.8038 31.0396 18.7918 29.9825 17.5154Z" fill="#F8C2A0"/>
<path d="M71.0453 24.0351C69.7571 23.4555 66.6943 22.4465 63.6171 21.4517C59.7241 20.1851 54.8006 18.6465 49.8986 16.8574C49.8986 16.8574 48.8251 16.6213 48.8251 14.1166V5.04965C48.589 2.54496 46.5638 1.11372 43.1001 1.11372C39.9866 1.02218 36.8856 1.54751 33.9759 2.65946C32.881 3.13178 33.0814 5.52196 33.0814 5.52196C33.0814 5.52196 32.7236 12.0842 32.7236 13.9878C32.7236 15.6623 32.7236 16.9075 31.6502 17.2081C31.6502 17.2081 16.3859 19.355 9.58749 21.8596C2.78906 24.3643 2.13069 26.8189 1 30.4543" stroke="black" stroke-linecap="round" stroke-linejoin="round"/>
<path d="M9.79498 141.219C7.64811 139.43 10.1242 125.904 9.70195 120.981C9.10798 113.946 5.68014 64.6468 5.4082 58.4424" stroke="black" stroke-linecap="round" stroke-linejoin="round"/>
<path d="M67.0737 54.1904C67.0737 54.1904 68.8627 72.081 66.7159 80.6685C64.569 89.256 68.6123 111.505 69.0417 119.849C69.5211 129.152 69.1919 136.745 67.7607 142.47" stroke="black" stroke-linecap="round" stroke-linejoin="round"/>
<path d="M25.5677 86.3937C25.5677 86.3937 16.6224 84.2469 15.1912 76.375" stroke="black" stroke-linecap="round" stroke-linejoin="round"/>
<path d="M62.0998 73.2412L61.9781 75.1949" stroke="black" stroke-linecap="round" stroke-linejoin="round"/>
<path d="M63.0802 74.2861H61.2911" stroke="black" stroke-linecap="round" stroke-linejoin="round"/>
<path d="M62.6656 73.5703L61.3489 74.9443" stroke="black" stroke-linecap="round" stroke-linejoin="round"/>
<path d="M62.7801 75.0588L61.3489 73.5703" stroke="black" stroke-linecap="round" stroke-linejoin="round"/>
<path d="M25.8964 73.6416L26.6692 75.4879" stroke="black" stroke-linecap="round" stroke-linejoin="round"/>
<path d="M27.1491 74.2285L25.3099 75.1946" stroke="black" stroke-linecap="round" stroke-linejoin="round"/>
<path d="M27.4783 75.0018L25.0309 74.2861" stroke="black" stroke-linecap="round" stroke-linejoin="round"/>
<path d="M26.6407 73.6279L25.9895 75.5959" stroke="black" stroke-linecap="round" stroke-linejoin="round"/>
<path d="M52.289 136.13C50.4999 135.772 46.9218 137.561 45.8484 139.708" stroke="black" stroke-linecap="round" stroke-linejoin="round"/>
<path d="M50.4999 139.35L49.0686 137.203" stroke="black" stroke-linecap="round" stroke-linejoin="round"/>
<path d="M14.7114 62.3412C14.7114 62.3412 13.2802 62.1766 13.5306 58.8848" stroke="black" stroke-linecap="round" stroke-linejoin="round"/>
<path d="M15.9066 59.916C15.7736 59.3603 15.5311 58.8366 15.1931 58.3758C14.8552 57.915 14.4287 57.5263 13.9386 57.2324" stroke="black" stroke-linecap="round" stroke-linejoin="round"/>
<path d="M16.8011 58.6634C16.3962 58.3515 15.9073 58.1677 15.3972 58.1358C14.8871 58.104 14.3791 58.2254 13.9386 58.4845" stroke="black" stroke-linecap="round" stroke-linejoin="round"/>
<path d="M59.3802 85.8574C60.7278 85.746 62.0529 85.4449 63.3162 84.9629" stroke="black" stroke-linecap="round" stroke-linejoin="round"/>
<path d="M41.3685 126.376L41.3041 124.172" stroke="black" stroke-linecap="round" stroke-linejoin="round"/>
<path d="M46.3852 105.953L45.4835 104.321" stroke="black" stroke-linecap="round" stroke-linejoin="round"/>
<path d="M36.1088 112.006L35.7009 114.11" stroke="black" stroke-linecap="round" stroke-linejoin="round"/>
<path d="M50.4998 115.491L51.2082 116.844" stroke="black" stroke-linecap="round" stroke-linejoin="round"/>
<path d="M36.974 82.6084L35.5284 82.7229" stroke="black" stroke-linecap="round" stroke-linejoin="round"/>
<path d="M42.7209 90.6094L42.6207 91.7973" stroke="black" stroke-linecap="round" stroke-linejoin="round"/>
<path d="M55.86 91.0032L54.257 90.4736" stroke="black" stroke-linecap="round" stroke-linejoin="round"/>
<path d="M51.9308 96.8135L51.988 98.3163" stroke="black" stroke-linecap="round" stroke-linejoin="round"/>
<path d="M26.2755 122.748L26.2827 123.965" stroke="black" stroke-linecap="round" stroke-linejoin="round"/>
<path d="M51.2152 66.5928L52.167 68.2602" stroke="black" stroke-linecap="round" stroke-linejoin="round"/>
<path d="M45.9623 74.7012L46.6779 75.8963" stroke="black" stroke-linecap="round" stroke-linejoin="round"/>
<path d="M37.6185 61.1045L36.9028 63.2514" stroke="black" stroke-linecap="round" stroke-linejoin="round"/>
<path d="M53.3619 77.8066L53.5981 79.2379" stroke="black" stroke-linecap="round" stroke-linejoin="round"/>
<path d="M67.2523 55.9805C67.5246 56.4322 67.9253 56.7925 68.4033 57.0156C68.8812 57.2386 69.4148 57.3142 69.9359 57.2328" stroke="black" stroke-linecap="round" stroke-linejoin="round"/>
<path d="M68.8627 59.2004C68.8627 59.2004 68.5049 58.4848 67.7893 57.2324" stroke="black" stroke-linecap="round" stroke-linejoin="round"/>
</svg>
