<svg width="107" height="164" viewBox="0 0 107 164" fill="none" xmlns="http://www.w3.org/2000/svg">
<path d="M15.0177 157.795C14.7452 156.429 18.272 151.145 19.1209 149.023C19.9697 146.901 21.5256 140.535 21.5256 140.535C21.5256 140.535 38.9256 135.443 48.2627 135.301C57.5997 135.159 65.8061 137.988 66.3715 137.988C66.9368 137.988 73.5864 142.799 73.5864 142.799C73.5864 142.799 76.2747 149.023 77.2652 150.721C78.255 152.418 82.3582 159.351 82.3582 159.351C82.3582 159.351 79.2455 161.472 76.4164 161.614C73.5864 161.755 63.1171 162.745 59.5809 162.887C56.0447 163.029 42.0382 163.594 37.9359 162.887C33.8335 162.18 23.7894 161.614 22.5161 161.189C21.2429 160.765 15.3003 159.21 15.0177 157.795Z" fill="#FDDBD1"/>
<path d="M21.5251 140.535C21.5251 140.535 23.081 133.32 23.3645 131.198C23.6472 129.076 23.789 119.598 23.789 119.598C23.789 119.598 47.2725 110.684 56.0442 109.977C64.8151 109.27 70.8986 114.221 70.8986 114.221L71.7475 122.427C71.7475 122.427 71.0395 124.125 71.323 126.529C71.6057 128.934 71.8884 134.593 72.1719 137.14C72.4545 139.686 73.586 142.799 73.586 142.799C73.586 142.799 70.6151 143.93 69.0592 143.93C67.5033 143.93 64.3899 142.516 63.4001 141.95C62.4104 141.384 58.8734 140.535 55.9025 141.384C52.9316 142.233 48.9701 143.931 46.4237 144.496C43.8772 145.062 36.6622 144.921 35.2481 144.779C33.8331 144.637 27.0425 143.648 27.0425 143.648L21.5251 140.535Z" fill="#190521"/>
<path d="M17.2806 101.632L12.1876 91.4457L8.51051 84.6551C8.51051 84.6551 4.54905 79.1378 3.84198 76.874C3.13406 74.6102 1.01202 69.8007 0.587608 66.2637C0.163196 62.7267 0.871115 56.3605 3.13408 52.6825C5.39704 49.0046 9.92466 45.4675 9.92466 45.4675C9.92466 45.4675 15.0176 41.7887 18.5538 41.2234C22.0917 40.6581 26.9011 37.9699 26.9011 37.9699L59.1564 37.8281L63.4005 39.384L72.1722 40.6573C72.1722 40.6573 75.8502 41.3643 76.8408 41.9305C77.8305 42.4967 80.6605 46.5999 81.5093 48.1557C82.3581 49.7116 84.4802 56.3605 84.4802 58.1999C84.4802 60.0393 85.4699 63.4346 85.4699 63.4346C85.4699 63.4346 90.4219 66.8299 92.1196 68.1031C93.8172 69.3763 98.7676 74.8937 100.324 76.874C101.881 78.8543 104.993 83.6654 105.417 87.2016V88.1913C105.417 88.1913 103.154 85.9275 100.183 85.2205C97.2125 84.5134 93.9581 83.8055 88.0164 84.7961C82.0746 85.7866 76.8408 88.3331 76.8408 88.3331C76.8408 88.3331 71.4643 92.1528 70.332 93.8504L67.9281 96.5387L61.562 96.3969C61.562 96.3969 57.4587 92.0119 54.2052 90.1725C50.9517 88.3331 40.3414 85.7875 36.8043 85.9284C33.2673 86.0693 30.8617 85.7866 25.6279 87.4843C20.394 89.1819 19.1208 92.5772 19.1208 92.5772L18.1302 95.6898L19.4035 99.7922L17.2806 101.632Z" fill="#FDDBD1"/>
<path d="M33.4089 31.3203C33.4089 31.3203 33.9751 23.6809 33.9751 22.125C33.9751 20.5692 34.2578 8.4021 34.2578 8.4021C34.2578 8.4021 33.9743 4.58242 35.8137 3.45094C37.6531 2.31946 40.1987 0.903602 45.1507 1.18711C50.1027 1.47062 52.083 3.30917 52.9319 4.5824C53.7807 5.85564 53.498 11.0903 53.498 11.0903L54.4878 20.8518L55.1957 27.0762L55.761 31.1794C55.761 31.1794 50.668 33.4424 47.5563 33.4424C44.4436 33.4424 37.6531 33.3015 37.6531 33.3015C37.6531 33.3015 34.9648 32.7345 33.4089 31.3203Z" fill="#190521"/>
<path d="M19.6858 40.9403L24.4952 39.1009C24.4952 39.1009 28.5984 37.6859 29.5882 36.5545C30.5796 35.423 33.4087 31.3206 33.4087 31.3206C33.4087 31.3206 37.0867 33.4427 41.0473 33.3009C45.0096 33.1592 48.5458 33.7262 50.5269 33.0183C52.5064 32.3103 55.7608 31.1797 55.7608 31.1797L59.297 35.423C59.297 35.423 63.1167 39.3844 63.4002 39.3844C63.6837 39.3844 72.1719 40.6577 72.1719 40.6577C72.1719 40.6577 72.0293 43.2041 72.0293 44.053C72.0293 44.9018 70.8987 46.5986 69.3419 47.1648C67.7852 47.7309 63.9655 47.8727 63.9655 47.8727C63.9655 47.8727 63.4002 48.7215 62.9758 50.2774C62.5514 51.8333 62.1269 54.238 61.2781 54.3797C60.4293 54.5215 56.3269 55.7947 53.9222 55.7947C51.5166 55.7947 46.989 55.7939 44.867 55.2286C42.7449 54.6633 39.7741 51.6924 39.7741 51.6924C39.7741 51.6924 36.2379 49.1459 35.1055 49.0041C33.9749 48.8624 28.7393 48.5797 27.7496 48.5797C26.7599 48.5797 24.4961 48.1545 22.9402 46.7403C21.3834 45.3262 19.6858 40.9403 19.6858 40.9403Z" fill="#B490AA"/>
<path d="M23.7893 119.597C23.7893 119.597 22.516 114.645 21.5255 112.241C20.5349 109.836 18.5546 104.601 18.5546 104.601L17.2805 101.631L19.4034 99.7917L18.1302 94.8397C18.1302 94.8397 19.1207 91.3026 22.9404 88.8979C26.7601 86.4932 31.1452 85.2199 38.7846 86.0688C46.424 86.9176 53.2146 89.8885 53.2146 89.8885L57.3178 92.2932C57.3178 92.2932 61.1375 95.8311 61.5619 96.3964L67.3619 96.5373C67.3619 96.5373 74.7186 88.8979 78.1139 87.4829C81.5092 86.0679 90.4211 83.8041 95.7966 84.3703C101.173 84.9365 105.417 87.2011 105.417 87.2011C105.417 87.2011 105.7 92.7168 103.86 96.6782C102.022 100.64 97.4943 106.44 93.1093 108.137C88.7242 109.835 84.0549 109.835 81.3667 109.128C78.6793 108.421 75.284 107.006 75.284 107.006L73.4454 115.211L71.7478 122.426C71.7478 122.426 65.806 123.7 64.9572 122.002C64.9572 122.002 64.6737 117.759 63.8249 116.202C62.976 114.645 60.4296 113.939 58.4493 115.353C56.469 116.767 55.3366 120.163 55.3366 120.163C55.3366 120.163 54.3469 122.427 53.3563 122.568C52.3657 122.709 45.4343 122.851 45.4343 122.851L35.3893 122.002L28.4578 121.011L23.7893 119.597Z" fill="#B490AA"/>
<path d="M85.5456 63.3175C85.5456 63.3175 84.5227 55.1179 82.1732 49.9867C78.7075 42.4178 76.5821 41.7396 76.5821 41.7396L74.258 41.0757C74.258 41.0757 64.9633 39.7482 63.3039 39.0836C61.6436 38.4198 56.9963 32.776 56.0006 31.1157C55.0049 29.4563 53.8089 15.9625 53.3845 6.62544C53.0297 -1.17949 34.286 -0.873061 34.286 7.04985C34.286 14.084 34.0908 27.1321 33.4262 30.12C32.7615 33.1079 31.1742 36.1925 26.1229 38.419C24.2742 39.2338 17.1593 41.7387 17.1593 41.7387C0.262609 47.8638 -0.688077 62.332 1.32363 69.9332C3.23349 77.1482 6.41657 81.8167 6.41657 81.8167C8.84251 84.5711 12.5629 92.3447 15.8945 98.4401C17.711 101.762 23.4677 115.437 23.7996 119.752C23.9762 122.058 23.719 133.135 21.3414 142.282C19.2669 150.259 15.0703 156.447 14.6926 158.211" stroke="black" stroke-miterlimit="10" stroke-linecap="round" stroke-linejoin="round"/>
<path d="M81.2304 60.9941C81.2304 60.9941 92.1853 67.9656 95.1732 70.9534C98.1619 73.9413 106.128 81.5764 105.464 90.2081C104.801 98.839 98.7959 105.694 93.1809 108.134C85.5458 111.454 76.1612 109.333 71.4926 103.109C67.8223 98.2151 67.1068 95.7518 65.9592 90.8719" stroke="black" stroke-miterlimit="10" stroke-linecap="round" stroke-linejoin="round"/>
<path d="M57.6612 73.9414C57.6612 73.9414 61.7322 80.1904 62.3085 88.8807C62.7007 94.791 60.3163 103.82 53.0138 109.131C45.7106 114.442 29.443 112.45 24.4638 107.471C19.4846 102.492 15.5002 91.5366 17.8243 82.2403" stroke="black" stroke-miterlimit="10" stroke-linecap="round" stroke-linejoin="round"/>
<path d="M17.823 101.494L19.1505 99.835" stroke="black" stroke-miterlimit="10" stroke-linecap="round" stroke-linejoin="round"/>
<path d="M105.132 87.5522C105.132 87.5522 101.48 84.8962 97.1641 84.5643C92.8487 84.2316 85.8773 83.9006 77.5784 87.8833C72.7435 90.2048 67.951 96.515 67.951 96.515L61.5891 96.4598C61.5891 96.4598 60.5986 94.196 55.335 90.872C51.7411 88.6014 40.6511 84.8589 31.5976 85.9904C23.521 86.9996 18.1582 91.3669 18.4408 95.8936" stroke="black" stroke-miterlimit="10" stroke-linecap="round" stroke-linejoin="round"/>
<path d="M75.5876 107.138C75.5876 107.138 71.2712 122.077 71.2712 125.065C71.2712 128.053 71.9477 136.889 72.6251 139.325C74.7471 146.965 77.2936 151.563 82.3866 159.414" stroke="black" stroke-miterlimit="10" stroke-linecap="round" stroke-linejoin="round"/>
<path d="M73.6147 142.721C73.6147 142.721 71.603 143.657 69.2798 143.988C66.9557 144.32 62.6403 140.669 58.6559 141C54.012 141.386 49.4054 144.429 45.045 144.651C32.9417 145.268 24.7751 143.559 22.1191 141.236" stroke="black" stroke-miterlimit="10" stroke-linecap="round" stroke-linejoin="round"/>
<path d="M23.8086 119.928C23.8086 119.928 31.4353 121.774 38.4704 122.416C44.9265 123.005 52.0974 123.37 53.7721 122.363C55.4477 121.354 56.9135 114.197 60.9531 114.499C64.9926 114.8 64.8611 120.287 64.8704 121.616C64.8797 122.943 69.9294 123.238 71.6041 122.23" stroke="black" stroke-miterlimit="10" stroke-linecap="round" stroke-linejoin="round"/>
<path d="M19.7134 40.8624C19.7134 40.8624 21.1428 46.0554 24.1298 47.7157C27.1185 49.3752 32.7615 48.0476 36.0812 49.3752C39.4009 50.7028 42.7208 54.0234 44.3802 55.0182C46.0405 56.0147 60.2116 56.2014 61.871 53.8765C63.5313 51.5533 62.3065 47.7149 64.6305 47.7149C66.9538 47.7149 70.9679 47.0477 71.6325 45.3883C72.2963 43.728 72.1987 40.7197 72.1987 40.7197" stroke="black" stroke-miterlimit="10" stroke-linecap="round" stroke-linejoin="round"/>
<path d="M33.7583 31.4481C33.7583 31.4481 35.7199 34.1728 46.3726 33.4403C53.6674 32.9386 56 31.1162 56 31.1162" stroke="black" stroke-miterlimit="10" stroke-linecap="round" stroke-linejoin="round"/>
<path d="M24.4624 39.416C24.4624 39.416 26.4564 43.3859 28.7779 43.7314C32.3048 44.2568 37.0768 44.3952 39.0681 44.7271C41.0612 45.0598 44.3809 49.7063 46.0412 50.039C47.7006 50.3717 56.3324 50.039 58.6556 49.3752C60.9788 48.7115 60.9788 44.396 62.6391 44.0633C64.2986 43.7314 66.194 43.7179 67.2872 43.0677C68.3797 42.4175 67.6191 40.079 67.6191 40.079" stroke="black" stroke-miterlimit="10" stroke-linecap="round" stroke-linejoin="round"/>
<path d="M82.1732 159.839C82.1732 159.839 78.9197 161.678 71.5629 162.244C64.207 162.81 47.795 163.659 37.7518 162.81C27.7076 161.961 19.0777 161.253 15.1162 158.282" stroke="black" stroke-miterlimit="10" stroke-linecap="round" stroke-linejoin="round"/>
</svg>
