<svg width="78" height="153" viewBox="0 0 78 153" fill="none" xmlns="http://www.w3.org/2000/svg">
<path d="M1.17312 50.8886C0.851084 49.5361 -0.780538 45.0062 0.457491 40.8699C1.69552 36.7336 1.79571 33.6278 2.24655 32.2824C3.00121 30.5229 4.02751 28.8929 5.28795 27.4519C6.27551 26.3785 14.77 23.3371 14.77 23.3371C14.77 23.3371 17.0957 22.6215 21.368 21.7412C24.0588 21.1902 32.7321 20.632 37.398 20.3672C42.0639 20.1025 46.4363 16.4528 48.5832 18.0629C50.7301 19.6731 57.3496 21.6411 57.3496 21.6411L65.4934 24.3246C65.4934 24.3246 70.1449 25.7559 70.7747 26.6504C71.4044 27.545 71.5547 32.2752 70.8391 35.7818C70.2322 38.6813 69.3701 41.5215 68.2628 44.2691L70.4097 51.4253L76.2349 65.5947L76.8646 68.1065C77.8522 72.9513 76.8646 74.2108 76.3852 75.8209C75.9057 77.4311 72.807 79.7712 71.662 80.9376C70.5171 82.1041 67.3683 83.8001 66.1875 84.5158C65.0067 85.2314 64.6632 86.3979 64.3054 88.5519C63.9476 90.7059 64.5702 95.8226 64.5702 95.8226L65.7367 104.253L67.8836 115.703L71.204 127.868L76.929 148.865C77.3799 149.852 76.2993 149.58 76.2993 149.58L70.467 150.568L59.3891 151.813L40.9045 152.264C40.9045 152.264 27.4508 151.82 21.7974 151.276C16.144 150.732 8.45816 149.215 8.45816 149.215L8.96626 143.111L9.4171 141.408L12.1078 131.446L14.7986 122.565L16.6592 114.465C16.6592 114.465 18.0046 107.015 18.0046 105.047C18.0046 103.079 17.6468 97.6904 17.6468 97.6904L16.5733 87.1278L15.5858 80.3079L4.39342 59.4761C4.39342 59.4761 1.92452 54.0302 1.17312 50.8886Z" fill="#7B633B"/>
<path d="M26.1485 5.68995C25.898 3.61464 28.689 2.29074 31.1579 1.39621C33.1258 0.680586 36.7755 1.1529 36.7755 1.1529C36.7755 1.1529 41.7849 1.25309 44.0964 4.11558C46.4078 6.97808 46.601 13.5117 46.601 13.5117C46.601 13.5117 46.7299 14.9859 46.873 16.3742C46.966 17.2687 48.4831 17.9844 48.4831 17.9844L50.4296 21.1546C50.4296 21.1546 55.3317 29.4129 55.575 31.8031C55.8183 34.1932 55.3388 37.664 52.9415 38.3797C50.5441 39.0953 45.406 40.412 42.0568 38.5013C39.0577 36.7441 36.319 34.5763 33.9202 32.0607C32.0984 30.1149 30.424 28.0362 28.9108 25.8419L26.8785 23.2084C26.8785 23.2084 24.016 21.0616 21.3753 21.7772C21.3753 21.7772 24.9534 19.1437 25.4472 17.7053C25.941 16.2669 26.0555 13.4115 26.0555 11.7298C26.0555 10.0481 26.3775 7.58636 26.1485 5.68995Z" fill="#F8C2A0"/>
<path d="M66.81 40.8916C66.81 40.8916 69.6152 49.3431 70.8818 52.6135C73.9948 60.7502 77.5801 66.7328 77.3225 72.4721C77.0648 78.2114 69.4506 82.7627 66.3162 84.6735C63.1817 86.5842 64.4055 91.1141 64.8849 97.8266C65.3644 104.539 68.7135 119.832 69.6724 122.945C72.4061 131.819 76.5353 147.276 77.0863 149.258" stroke="black" stroke-linecap="round" stroke-linejoin="round"/>
<path d="M45.9998 80.6084C43.0488 83.3095 39.2589 84.9139 35.2654 85.1526C33.3824 85.2182 31.5081 84.8674 29.7763 84.1252C28.0445 83.383 26.4978 82.2677 25.2467 80.8589" stroke="black" stroke-linecap="round" stroke-linejoin="round"/>
<path d="M48.6546 18.4277C49.821 19.859 54.6801 28.2747 55.3242 31.309C57.2349 40.3974 48.0391 39.8964 43.8742 38.9661C36.4246 37.3059 29.5975 26.7075 28.2951 24.8612C27.4805 23.7048 26.3416 22.8157 25.022 22.3062C23.7025 21.7967 22.2615 21.6897 20.8812 21.9987C20.8812 21.9987 10.9412 23.2296 5.71714 27.2872C3.57026 28.9402 2.44673 31.4521 1.80267 34.0212" stroke="black" stroke-linecap="round" stroke-linejoin="round"/>
<path d="M76.8648 149.53C76.8648 149.53 68.2773 151.677 49.349 152.164C39.7597 152.407 26.3847 152.643 8.91629 149.53C8.91629 149.53 7.6067 147.963 9.39576 141.429C11.1848 134.896 15.7362 118.408 17.1674 113.635C18.5987 108.861 18.1192 99.0859 17.6469 93.3609C17.1746 87.6359 17.1674 83.8216 13.3532 75.9498C11.3794 71.7614 9.1496 67.6985 6.67639 63.7842" stroke="black" stroke-linecap="round" stroke-linejoin="round"/>
<path d="M21.3536 21.7554C21.3536 21.7554 25.039 19.8304 25.6115 17.6835C26.184 15.5366 26.1125 8.05835 26.0409 6.34085C25.9694 4.62335 27.7584 0.866328 34.9146 1.04523C42.0709 1.22414 44.3609 3.72882 45.0765 5.68963C45.7998 7.89933 46.2797 10.1814 46.5078 12.4952C46.7439 14.6421 46.2716 16.5528 48.4185 17.984C50.2576 19.2078 56.4549 21.6266 60.5841 22.7573C63.2104 23.4729 69.651 25.6198 72.2702 27.2872" stroke="black" stroke-linecap="round" stroke-linejoin="round"/>
</svg>
