<svg width="90" height="174" viewBox="0 0 90 174" fill="none" xmlns="http://www.w3.org/2000/svg">
<path d="M4.73132 69.9923C4.73132 69.9923 4.16517 60.3726 2.46752 49.3379C1.71207 44.4283 1.05337 39.152 0.911621 35.4732C1.90135 28.6826 11.4489 25.688 13.1466 25.0513C14.8442 24.4147 28.7446 21.55 30.4422 21.2316C32.1399 20.9133 40.6281 19.6401 43.1746 19.4279C45.721 19.2157 54.3145 18.3669 59.5144 19.9584C64.7126 21.55 70.0551 23.7306 71.6466 24.155C73.2381 24.5794 82.1151 27.1267 84.3789 28.6826C85.9187 29.7411 88.966 32.8766 89.4014 36.8169C89.606 38.6682 88.6528 42.3936 87.7038 44.8807C84.384 53.5752 82.2569 57.8252 79.286 64.1914C79.286 64.1914 80.0984 82.0286 80.0984 83.4079C80.0984 84.7873 79.7792 91.7901 79.0373 94.867C78.2938 97.944 77.6571 103.143 77.9763 106.114C78.2938 109.085 79.6739 125.531 80.2036 128.714C80.7349 131.897 82.1134 145.584 81.9012 149.086C81.689 152.587 81.0524 162.03 81.0524 162.03L80.5228 167.335C80.5228 167.335 79.2724 169.98 78.1545 170.507C74.547 172.204 58.9431 173.393 42.9284 173.265C24.9282 173.119 14.9172 171.143 12.1585 168.809C8.13511 165.404 11.4489 149.086 11.4489 145.266C11.4489 141.446 10.1757 131.473 9.96347 128.502C9.75127 125.531 8.79722 111.737 8.79722 111.737L6.65392 88.1002L4.73132 69.9923Z" fill="#FF8039"/>
<path d="M48.4578 173.195C53.9751 171.286 56.5929 148.438 56.8747 141.93C57.1582 135.422 54.6117 114.485 54.6117 108.261C54.6117 102.036 53.7629 80.532 53.7629 75.7218C53.7629 73.3561 52.9573 57.843 52.42 46.2252C52.2639 42.8579 51.8539 38.3031 52.2783 37.7369C52.7027 37.1708 55.037 36.7472 55.744 37.6665C56.1472 38.1893 56.4511 39.4346 55.744 40.92C55.8196 42.3155 56.4486 44.4987 56.8764 46.0843C56.9366 46.3117 56.1574 47.1903 56.1685 47.4279C56.7236 59.0127 57.44 73.2916 57.44 75.7218C57.44 80.532 58.2897 102.036 58.2897 108.261C58.2897 114.485 60.837 135.422 60.5535 141.93C60.2708 148.438 59.2803 170.437 53.9751 173.195H48.4578Z" fill="#7B633B"/>
<path d="M70.1034 33.4222C70.1034 33.4222 63.7372 17.2946 61.1907 14.3237C58.6443 11.3528 56.5222 8.38194 44.8509 9.01856C41.6729 9.19172 35.7702 11.2391 34.2406 13.6871C31.0575 18.78 32.543 30.6635 32.543 30.6635C32.543 30.6635 39.1213 35.3329 48.6706 37.0306C58.2199 38.7282 70.1034 33.4222 70.1034 33.4222Z" fill="#FF8039"/>
<path d="M38.4849 16.0212C38.6894 11.8297 38.9348 7.74942 38.8711 5.10449C38.7879 1.70919 47.8432 1.00126 47.8432 1.00126C47.8432 1.00126 56.8967 0.719455 57.3211 3.97214C57.5945 6.06449 57.692 12.715 57.7268 17.2002C57.7455 19.6924 58.8566 21.5385 58.4322 25.7827C58.4322 25.7827 57.9942 35.8412 55.2491 36.8174C51.3819 38.1925 47.8219 32.9977 43.5778 27.0559C41.4439 24.068 39.7581 20.2653 38.4849 16.0212Z" fill="#F8C2A0"/>
<path d="M65.1055 21.9814C68.7333 23.2012 72.1889 24.3038 75.1462 25.2622C78.7919 26.4446 81.9733 27.4114 83.9544 28.3298C85.9347 29.2482 88.1281 31.512 89.1891 35.3317C90.2917 39.3017 87.0671 46.1542 83.6718 54.4303C82.1795 58.0666 79.2494 64.0975 79.2494 64.0975C79.2494 64.0975 81.3715 85.3181 78.825 95.504C76.2785 105.69 81.0761 132.082 81.5837 141.977C82.149 153.012 81.7619 162.019 80.0643 168.809" stroke="black" stroke-miterlimit="10" stroke-linecap="round" stroke-linejoin="round"/>
<path d="M57.6046 16.5633V5.81548C57.3211 2.8412 54.9156 1.14355 50.814 1.14355C46.7108 1.14355 42.9607 1.70462 39.9898 2.97786C38.6903 3.53469 38.9305 6.3774 38.9305 6.3774C38.9305 6.3774 38.5061 14.1586 38.5061 16.4224C38.5061 16.4224 41.8802 25.1457 46.9731 31.5119C52.066 37.8781 54.4707 38.159 56.3101 36.1804C58.1487 34.2018 59.3252 20.7123 57.6046 16.5633Z" stroke="black" stroke-miterlimit="10" stroke-linecap="round" stroke-linejoin="round"/>
<path d="M11.3097 167.323C8.76318 165.201 11.6967 149.161 11.201 143.321C10.4948 134.974 6.14631 78.1978 4.44866 68.2946L0.874268 35.9442C2.2188 31.6296 2.99633 28.7292 11.0601 25.7583C15.0921 24.2729 26.1581 21.9098 31.6942 20.9014" stroke="black" stroke-miterlimit="10" stroke-linecap="round" stroke-linejoin="round"/>
<path d="M79.1442 169.871C79.1442 169.871 75.8906 171.71 68.5339 172.276C61.178 172.842 44.766 173.691 34.7227 172.842C24.6786 171.993 16.0486 171.285 12.0872 168.314" stroke="black" stroke-miterlimit="10" stroke-linecap="round" stroke-linejoin="round"/>
<path d="M55.8855 40.1416C55.8855 40.1416 55.8592 39.6425 56.029 43.0692" stroke="black" stroke-miterlimit="10" stroke-linecap="round" stroke-linejoin="round"/>
<path d="M52.4902 39.788C51.3248 38.0394 52.4393 37.1685 54.1879 37.2415C56.7343 37.3476 56.5221 39.5758 55.8855 40.2124C55.2489 40.849 53.339 41.0612 52.4902 39.788Z" stroke="black" stroke-miterlimit="10" stroke-linecap="round" stroke-linejoin="round"/>
<path d="M53.9756 40.637C53.9756 40.637 51.217 45.7299 52.7024 47.2154C54.1878 48.7008 56.7343 47.2154 56.7343 46.3666C56.7343 45.5177 55.4611 40.4248 55.4611 40.4248" stroke="black" stroke-miterlimit="10" stroke-linecap="round" stroke-linejoin="round"/>
<path d="M52.5804 47.7451C53.0804 57.9785 53.7636 72.5282 53.7636 75.5797C53.7636 80.39 54.6125 101.894 54.6125 108.119C54.6125 114.343 57.1589 135.28 56.8754 141.788C56.5928 148.296 53.9758 171.144 48.4585 173.053" stroke="black" stroke-miterlimit="10" stroke-linecap="round" stroke-linejoin="round"/>
<path d="M56.3101 47.5342C56.8126 57.7922 57.4408 72.4208 57.4408 75.5801C57.4408 80.3904 58.2896 101.895 58.2896 108.119C58.2896 114.343 60.8369 135.28 60.5542 141.788C60.2707 148.296 59.281 170.295 53.9758 173.054" stroke="black" stroke-miterlimit="10" stroke-linecap="round" stroke-linejoin="round"/>
<path d="M52.0659 37.3828C52.0659 37.3828 52.2111 40.324 52.3834 43.8203" stroke="black" stroke-miterlimit="10" stroke-linecap="round" stroke-linejoin="round"/>
<path d="M38.9092 10.7158C38.9092 10.7158 34.2407 11.5646 32.9675 17.5064C32.2069 21.0519 32.543 33.2096 34.2407 38.3026C34.2407 38.3026 39.3336 29.3899 46.973 31.512" stroke="black" stroke-miterlimit="10" stroke-linecap="round" stroke-linejoin="round"/>
<path d="M57.5833 31.087C57.5833 31.087 65.2227 29.8138 69.4668 32.3602C69.4668 32.3602 66.6674 24.2141 64.3738 19.6279C60.9785 12.8373 58.0077 11.1396 58.0077 11.1396" stroke="black" stroke-miterlimit="10" stroke-linecap="round" stroke-linejoin="round"/>
<path d="M45.8032 63.3859C45.9382 61.1086 45.7659 58.7268 45.2473 55.6608C45.1369 55.0081 44.9986 54.3562 44.8373 53.7204C44.6072 52.8181 43.9952 52.1976 43.0649 51.9277L42.9868 51.9065C42.5862 51.7885 42.1728 51.6679 41.7433 51.6119C40.6262 51.4693 39.6951 51.9184 39.179 52.8436C38.7801 53.5625 38.4575 54.346 38.2215 55.1727C38.0781 55.6778 38.0034 56.1981 37.9321 56.7023C37.8888 57.0028 37.8447 57.3152 37.7861 57.6123C37.0612 61.325 37.6019 65.0216 38.2971 68.4628C38.522 69.5764 39.2614 70.3896 40.325 70.6952C40.8427 70.8446 41.4564 70.9965 42.0761 70.9965C42.7016 70.9965 43.2559 70.8437 43.7678 70.5322C43.8416 70.4872 43.9375 70.4516 44.092 70.3947C44.098 70.4838 44.1031 70.5687 44.109 70.6527C44.1353 71.0873 44.1582 71.4294 44.1472 71.7715C44.1277 72.4734 44.0869 73.189 44.0479 73.88C44.0284 74.211 44.0088 74.5395 43.9927 74.8688C43.9715 75.2839 43.9401 75.699 43.9104 76.1149C43.8425 77.0537 43.7728 78.0256 43.8076 78.9873C43.8891 81.1391 43.7024 83.2713 43.4707 85.6353C43.4215 86.131 43.1982 86.6479 42.9809 87.1487C42.9266 87.2769 42.8706 87.4043 42.8188 87.5307C42.7492 87.6996 42.5888 87.8821 42.4623 87.9373C41.8656 88.1979 41.4038 88.3193 41.01 88.3193C40.465 88.3193 40.0228 88.0816 39.6136 87.5723C39.5033 87.4323 39.3972 87.2897 39.2919 87.1471C39.1705 86.9824 39.0491 86.8169 38.9201 86.6607C38.8268 86.5435 38.7215 86.4476 38.5874 86.3254C38.5212 86.2651 38.4448 86.1955 38.3565 86.1098C38.2682 86.0258 38.1426 85.9952 38.0263 86.0283C37.9075 86.0623 37.8183 86.1548 37.7886 86.2736C37.7581 86.3967 37.7233 86.4994 37.6927 86.5894C37.6223 86.7948 37.5578 86.99 37.6147 87.1963C37.9805 88.5094 38.9074 89.4474 40.3707 89.9804C40.6738 90.0925 40.9929 90.1485 41.3189 90.1485C41.7586 90.1485 42.1906 90.0432 42.5692 89.8446C44.1226 89.0238 44.9867 87.8278 45.1361 86.2889L45.1463 86.2006C45.2778 84.8391 45.4145 83.4309 45.496 82.0397C45.5775 80.6298 45.6174 79.1953 45.6547 77.81L45.7116 75.8144C45.7676 73.8273 45.8287 71.774 45.8448 69.7521C45.8525 68.905 45.8278 68.046 45.8041 67.2158C45.7659 65.957 45.7285 64.6541 45.8032 63.3859ZM43.8679 65.0148C43.8807 65.5912 43.8943 66.1862 43.8858 66.7677C43.8696 67.8745 43.323 68.6249 42.2127 69.0612C42.0251 69.1342 41.8223 69.1715 41.6075 69.1715C40.8826 69.1715 40.2452 68.7607 40.0881 68.1911C39.7384 66.9179 39.4693 65.5912 39.2096 64.3086L39.0305 63.4292C38.9948 63.2561 39.0059 63.0575 39.0169 62.8469C39.0194 62.779 39.0237 62.7111 39.0254 62.6432C39.0398 62.6084 39.0475 62.5711 39.05 62.5312L39.1077 61.0865C39.1519 59.9873 39.196 58.8889 39.2537 57.7922C39.308 56.7448 39.6001 55.6897 40.1764 54.4725C40.4803 53.8274 41.0048 53.4573 41.6118 53.4573C42.1957 53.4573 42.7585 53.7875 43.1176 54.3409C43.2975 54.6176 43.4342 55.0013 43.5038 55.4223C43.8832 57.7201 44.1565 59.6384 43.9367 61.6722C43.8179 62.7841 43.8433 63.919 43.8679 65.0148Z" fill="white"/>
<path d="M33.3544 88.8038C33.1117 88.7529 32.8672 88.7283 32.6313 88.7045C32.1865 88.657 31.7646 88.6137 31.4183 88.4091C31.4123 88.393 31.4055 88.3794 31.4005 88.3641C31.3869 88.3285 31.3724 88.2988 31.3673 88.2844C31.3886 87.6435 31.4166 87.0018 31.4421 86.3618C31.4913 85.1666 31.5431 83.9324 31.5601 82.7152C31.5838 80.9293 31.5601 79.1171 31.5363 77.3626L31.5278 76.6453C31.5219 76.1759 31.5006 75.7074 31.4786 75.2397C31.4523 74.6302 31.4242 74.0004 31.4302 73.3867C31.4497 71.7663 31.4939 70.117 31.538 68.5221C31.555 67.8523 31.5736 67.1835 31.5898 66.5129L31.6399 64.5207C31.6798 62.9461 31.7188 61.3724 31.7527 59.7953C31.7892 58.0892 31.8342 55.8389 31.8537 53.5692C31.858 53.2118 31.7612 52.857 31.6687 52.5209C31.5686 52.1551 31.1696 51.959 30.8453 51.959C30.7121 51.959 30.5873 51.9904 30.4838 52.0515C30.2334 52.2 29.9711 52.3622 29.7572 52.5897C28.8498 53.5539 27.9415 54.5504 27.0918 55.4858C26.9433 55.6488 26.8058 55.8406 26.6691 56.0741C26.5478 56.2837 26.4221 56.5613 26.5181 56.8592C26.6242 57.1877 26.9552 57.3914 27.4186 57.5986C27.5511 57.658 27.7081 57.6266 27.8065 57.5205L30.1858 54.9918C30.1901 55.0555 30.1909 55.1056 30.1866 55.1506C29.8811 58.3752 29.8862 61.5795 29.8904 64.6777C29.8921 65.3059 29.8981 65.9348 29.9049 66.5638C29.9286 68.9966 29.9541 71.5125 29.6638 73.9715C29.5899 74.6115 29.5925 75.26 29.5976 75.8873C29.5993 76.1343 29.601 76.3796 29.5976 76.6266C29.5789 78.1545 29.5644 79.6832 29.5526 81.212C29.5492 81.7017 29.5483 82.1924 29.5475 82.683C29.5458 83.3383 29.5458 83.9936 29.5373 84.648L29.5322 85.2269C29.5254 86.2727 29.5186 87.3515 29.3463 88.4278C29.3039 88.4295 29.2606 88.4329 29.2199 88.4355C28.9338 88.4533 28.6655 88.4719 28.3965 88.5135C28.1265 88.556 27.7811 88.6281 27.4967 88.8072C27.237 88.9719 27.0375 89.3412 27.0537 89.6281C27.0706 89.9447 27.3253 90.2604 27.5561 90.3971C27.793 90.5354 28.0816 90.5533 28.3056 90.5533H28.3701C29.949 90.5312 31.6084 90.4989 33.4453 90.4548C33.6048 90.4514 33.7262 90.3776 33.8162 90.3232C33.8366 90.3105 33.8578 90.2978 33.8782 90.2884C33.9503 90.2536 34.0072 90.1959 34.0412 90.1238C34.2203 89.7384 34.1575 89.4583 34.0743 89.2919C33.9868 89.1179 33.7916 88.8938 33.3544 88.8038Z" fill="white"/>
</svg>
