<svg width="109" height="137" viewBox="0 0 109 137" fill="none" xmlns="http://www.w3.org/2000/svg">
<path d="M40.5161 110.334C40.5161 110.334 34.9522 113.944 32.2828 112.056C29.6156 110.169 31.2833 105.425 31.2833 105.425C31.2833 105.425 18.3743 107.546 12.8496 97.3714C10.1477 92.3888 12.1791 82.9916 16.8822 77.9935C16.8822 77.9935 3.5387 76.6923 4.61119 66.0891C5.68074 55.4844 17.1772 51.1156 17.1772 51.1156C17.1772 51.1156 0.253367 51.5353 1.02565 42.0827C1.8031 32.6295 20.8734 30.9285 20.8734 30.9285C20.8734 30.9285 12.4771 21.8455 18.8118 15.9904C25.1501 10.1367 43.1073 12.7552 43.1073 12.7552C43.1073 12.7552 43.0439 2.0605 53.4383 1.01752C60.1602 0.342599 72.1708 13.6447 72.1708 13.6447C72.1708 13.6447 84.1659 10.5512 88.0472 17.4789C91.9271 24.4073 87.5714 28.5173 87.5714 28.5173C87.5714 28.5173 101.177 37.9801 103.477 47.3973C105.774 56.8159 97.3006 59.5163 97.3006 59.5163C97.3006 59.5163 106.156 63.028 107.734 69.8561C109.524 77.607 101.238 81.9906 101.238 81.9906C101.238 81.9906 104.659 82.327 104.112 85.5806C103.567 88.8335 97.6524 92.1896 97.6524 92.1896L40.5161 110.334Z" fill="#3A3A3D"/>
<path d="M81.9982 90.7254C68.7086 84.0013 68.2985 91.9845 68.2985 91.9845C68.2985 91.9845 56.6287 87.7034 51.4809 90.7092C46.3301 93.7172 49.9901 98.6658 49.9901 98.6658C45.8455 100.294 39.8915 105.333 41.1661 110.657C42.4399 115.981 50.0484 114.006 50.0484 114.006C50.0484 114.006 42.5911 118.45 42.9356 122.258C43.2815 126.067 50.0388 127.478 53.2194 126.978C53.2194 126.978 48.9081 134.655 55.6012 135.779C62.2943 136.902 70.6898 128.103 70.6898 128.103C70.6898 128.103 69.9596 133.043 74.4384 132.825C78.9135 132.606 87.1408 124.317 87.1408 124.317C87.1408 124.317 87.6203 131.62 91.5614 130.141C98.1896 127.654 99.8418 115.807 99.8418 115.807C99.8418 115.807 104.992 116.691 104.988 111.864C104.983 107.036 102.31 101.18 99.4944 99.208C99.4944 99.208 104.835 94.5072 96.0158 91.0005C94.0995 90.2401 90.2108 90.3264 86.5603 91.0278L83.9388 91.702L81.9982 90.7254Z" fill="#3A3A3D"/>
<path d="M43.7314 102.739C43.7314 102.739 40.0898 102.183 38.158 100.076C36.2254 97.9687 35.3233 96.7022 35.0556 93.3121C34.7878 89.922 38.8514 85.9765 40.5051 85.0833C40.5051 85.0833 38.7724 74.8142 38.7378 73.0247C38.7046 71.2346 38.1019 59.2041 39.2644 54.6043C40.4254 50.0045 43.1354 44.1604 45.0798 42.5355C47.0249 40.9105 52.7052 35.9545 57.8781 34.3693C63.0503 32.7842 70.4626 31.798 73.0199 32.1712C75.5772 32.5445 80.3377 35.0715 81.276 36.4553C82.2142 37.8391 84.7339 39.7672 86.2579 42.6431L87.9352 45.6002C87.9352 45.6002 90.7934 52.8244 91.5318 54.3985C92.2724 55.9718 92.3786 57.9966 92.3786 57.9966L95.7723 78.3002L96.1338 87.4481L96.2466 90.7555L92.9119 90.3638C92.9119 90.3638 87.8865 90.7474 87.5332 90.8551L86.3316 90.7098C86.3316 90.7098 85.6073 91.7026 84.0981 91.3936C82.589 91.0845 80.981 90.0349 80.981 90.0349C80.981 90.0349 76.4358 88.213 74.574 88.0123C72.713 87.8117 70.8675 88.5058 69.6829 89.2552C68.4983 90.0046 68.6053 92.0287 68.6053 92.0287C68.6053 92.0287 60.9606 89.742 58.747 89.6491C56.5327 89.5576 52.7377 88.9196 49.9768 92.0803C47.2159 95.241 49.8603 98.4164 49.8603 98.4164C49.8603 98.4164 46.9858 99.9403 44.7147 102.18L43.7314 102.739Z" fill="#F8C2A0"/>
<path d="M50.0919 54.1195C53.3249 49.6061 58.5044 46.9816 61.2351 46.7589C66.3534 46.3362 65.615 48.673 64.2202 50.0582C62.8276 51.4427 57.103 55.3602 53.5927 57.5517C52.3682 58.318 49.0984 55.5062 50.0919 54.1195Z" fill="#3A3A3D"/>
<path d="M80.6999 48.4514C82.9216 50.0963 85.8425 50.7602 87.6371 51.1791C92.8395 52.3969 95.2995 51.3244 94.5486 50.114C93.6885 48.731 88.5016 45.1853 84.0339 44.7198C82.2784 44.5369 79.7963 47.7824 80.6999 48.4514Z" fill="#3A3A3D"/>
<path d="M52.909 71.7603C51.751 66.0895 55.5313 59.6664 62.3269 58.3815C69.1255 57.098 74.0328 60.6681 75.3598 67.6673C76.5525 73.9525 73.4169 79.939 67.1693 81.3117C61.2183 82.621 54.2508 78.3332 52.909 71.7603Z" fill="white"/>
<path d="M73.1072 101.887C70.3293 100.291 67.0403 95.1893 62.4553 95.1406C56.7159 95.0808 51.6419 101.033 54.1269 106.947C56.6112 112.857 64.6239 118.137 74.0993 117.205C84.6789 116.163 91.8596 111.458 94.6507 105.749C97.444 100.038 95.9474 96.2507 91.6331 95.9048C87.3203 95.5588 84.5203 98.8397 83.1085 100.49C81.0063 102.955 76.3756 103.767 73.1072 101.887Z" fill="#CB4850"/>
<path d="M79.1831 70.1097C79.1831 70.1097 79.2229 64.8904 80.1944 63.3384C81.1643 61.7872 83.7032 59.37 86.4361 58.5321C89.1682 57.6942 92.036 57.2981 93.8793 58.2754C95.7219 59.2535 98.9468 60.9655 100.047 64.8712C101.148 68.7776 100.153 73.7107 98.7483 75.1056C97.3432 76.5019 95.5795 78.295 92.6431 79.099C89.7074 79.903 85.7693 78.6985 85.7693 78.6985L84.6451 78.1755C84.6451 78.1763 80.8966 71.61 79.1831 70.1097Z" fill="white"/>
<path d="M67.8145 97.6916C67.8145 97.6916 65.1207 99.8815 65.6319 101.546C66.1416 103.21 70.5953 100.176 70.5953 100.176C70.5953 100.176 68.6923 104.4 69.6733 104.857C70.6543 105.315 73.7678 102.845 73.7678 102.845C73.7678 102.845 72.5928 106.693 74.3004 106.776C76.0094 106.86 78.0393 103.052 78.0393 103.052C78.0393 103.052 79.5094 107.303 81.0333 106.23C82.5535 105.158 83.1672 100.571 83.1672 100.571C83.1672 100.571 86.0771 103.471 87.1644 102.077C88.2516 100.68 86.3072 97.6362 86.3072 97.6362L84.1018 99.3674C84.1018 99.3674 82.5336 101.487 80.2691 102.277C78.0039 103.069 76.3089 103.203 74.8049 102.698C73.3009 102.195 71.3573 100.573 71.3573 100.573L67.8145 97.6916Z" fill="white"/>
<path d="M76.2295 110.394C75.8525 109.552 72.323 108.763 70.2939 109.062C68.2647 109.363 65.3164 109.816 62.7754 111.174C60.2343 112.531 59.2075 113.168 59.2075 113.168C59.2075 113.168 62.8071 115.471 65.3135 116.31L67.5898 113.877C67.5898 113.877 70.6464 112.94 72.3636 112.671C74.0808 112.402 76.6359 111.297 76.2295 110.394Z" fill="#FF0000"/>
<path d="M40.7554 110.068C40.7554 110.068 35.1915 113.677 32.5221 111.79C29.8549 109.902 31.5219 105.159 31.5219 105.159C31.5219 105.159 18.6136 107.279 13.0897 97.1045C10.3863 92.1219 12.4192 82.7255 17.1207 77.7274C17.1207 77.7274 3.77874 76.427 4.8505 65.8223C5.92078 55.2176 17.4172 50.8487 17.4172 50.8487C17.4172 50.8487 0.491933 51.2684 1.26495 41.8159C2.04314 32.3633 21.1127 30.6624 21.1127 30.6624C21.1127 30.6624 12.7164 21.5802 19.0511 15.725C25.3886 9.87127 43.3466 12.4891 43.3466 12.4891C43.3466 12.4891 43.2832 1.79439 53.6791 0.751403C60.4003 0.0764859 72.4108 13.3786 72.4108 13.3786C72.4108 13.3786 84.4059 10.2851 88.288 17.2135C92.1686 24.1412 87.8115 28.2511 87.8115 28.2511C87.8115 28.2511 101.418 37.7147 103.717 47.1319C106.014 56.5505 97.5414 59.2509 97.5414 59.2509C97.5414 59.2509 106.397 62.7627 107.975 69.5907C109.764 77.3423 101.479 81.7245 101.479 81.7245C101.479 81.7245 104.899 82.0616 104.352 85.3145C103.806 88.5674 97.8925 91.9243 97.8925 91.9243" stroke="black" stroke-miterlimit="10" stroke-linecap="round" stroke-linejoin="round"/>
<path d="M79.3156 69.8428C79.3156 69.8428 87.7089 80.4069 87.7687 87.8944C87.7989 91.5404 84.6183 91.758 83.1969 91.1753C80.9708 90.2607 79.2212 87.3737 79.2212 87.3737" stroke="black" stroke-miterlimit="10" stroke-linecap="round" stroke-linejoin="round"/>
<path d="M50.3268 54.0481C53.5597 49.5339 58.7393 46.9102 61.4692 46.6874C66.5875 46.2655 65.8499 48.6023 64.4543 49.9875C63.0617 51.3713 57.337 55.2895 53.8267 57.4809C52.603 58.2466 49.3317 55.4348 50.3268 54.0481Z" stroke="black" stroke-miterlimit="10" stroke-linecap="round" stroke-linejoin="round"/>
<path d="M80.9339 48.3791C83.1564 50.024 86.0773 50.6886 87.8719 51.1076C93.0751 52.3246 95.5335 51.2521 94.7841 50.0424C93.9241 48.6587 88.7372 45.1129 84.2687 44.6475C82.5139 44.4653 80.0311 47.7116 80.9339 48.3791Z" stroke="black" stroke-miterlimit="10" stroke-linecap="round" stroke-linejoin="round"/>
<path d="M89.9854 67.1196L90.7591 69.6489" stroke="black" stroke-miterlimit="10" stroke-linecap="round" stroke-linejoin="round"/>
<path d="M91.7308 67.9736L89.4575 68.8278" stroke="black" stroke-miterlimit="10" stroke-linecap="round" stroke-linejoin="round"/>
<path d="M90.8609 67.2676L89.8467 69.6287" stroke="black" stroke-miterlimit="10" stroke-linecap="round" stroke-linejoin="round"/>
<path d="M91.7222 69.0968L89.1929 67.8945" stroke="black" stroke-miterlimit="10" stroke-linecap="round" stroke-linejoin="round"/>
<path d="M63.7432 69.4541L65.3674 71.1314" stroke="black" stroke-miterlimit="10" stroke-linecap="round" stroke-linejoin="round"/>
<path d="M65.3328 69.2354L63.8022 71.7764" stroke="black" stroke-miterlimit="10" stroke-linecap="round" stroke-linejoin="round"/>
<path d="M66.0173 69.9419L63.1104 70.8713" stroke="black" stroke-miterlimit="10" stroke-linecap="round" stroke-linejoin="round"/>
<path d="M64.5317 68.8809L64.6955 71.7671" stroke="black" stroke-miterlimit="10" stroke-linecap="round" stroke-linejoin="round"/>
<path d="M87.5253 90.8137C91.175 90.113 94.2162 90.2037 96.1325 90.9649C104.952 94.4701 99.6118 99.1709 99.6118 99.1709C102.427 101.143 105.1 106.999 105.105 111.827C105.109 116.655 99.9585 115.77 99.9585 115.77C99.9585 115.77 98.307 127.617 91.678 130.104C87.7377 131.585 87.2575 124.28 87.2575 124.28C87.2575 124.28 79.0316 132.569 74.5551 132.788C70.0763 133.006 70.8065 128.067 70.8065 128.067C70.8065 128.067 62.411 136.866 55.7179 135.742C49.0247 134.618 53.3361 126.942 53.3361 126.942C50.1548 127.441 43.3982 126.03 43.0515 122.221C42.7078 118.414 50.1651 113.969 50.1651 113.969C50.1651 113.969 42.5559 115.944 41.2827 110.621C40.0081 105.297 45.9629 100.257 50.1068 98.6287C50.1068 98.6287 46.4482 93.6808 51.5975 90.6736C56.7453 87.667 68.4159 91.9474 68.4159 91.9474C68.4159 91.9474 68.8253 83.9642 82.1163 90.6883" stroke="black" stroke-miterlimit="10" stroke-linecap="round" stroke-linejoin="round"/>
<path d="M53.1432 71.6881C51.9859 66.0173 55.7661 59.5941 62.5618 58.3092C69.3596 57.0258 74.2662 60.5958 75.5947 67.5943C76.7874 73.8795 73.6511 79.866 67.4035 81.2387C61.4531 82.5487 54.4856 78.2609 53.1432 71.6881Z" stroke="black" stroke-miterlimit="10" stroke-linecap="round" stroke-linejoin="round"/>
<path d="M85.8751 78.4111C87.6365 79.221 89.5853 79.5529 91.4935 79.3132C97.8599 78.5151 101.362 72.8723 100.565 67.1366C99.729 61.1133 95.4117 57.6457 89.2932 57.732C87.9338 57.7505 83.9204 59.2596 82.1147 60.9237C79.8975 62.9676 79.0197 66.1431 79.4306 69.8842" stroke="black" stroke-miterlimit="10" stroke-linecap="round" stroke-linejoin="round"/>
<path d="M50.0737 78.5815C50.0737 78.5815 51.4818 82.2593 55.4406 84.2494C60.8967 86.9911 66.2223 85.313 66.2223 85.313" stroke="black" stroke-miterlimit="10" stroke-linecap="round" stroke-linejoin="round"/>
<path d="M90.5146 83.5992C90.5146 83.5992 94.5929 84.0927 96.1338 81.7124" stroke="black" stroke-miterlimit="10" stroke-linecap="round" stroke-linejoin="round"/>
<path d="M73.1371 101.879C70.3592 100.283 67.0695 95.181 62.4852 95.1323C56.7458 95.0725 51.671 101.026 54.1553 106.939C56.6403 112.85 64.6538 118.129 74.1277 117.197C84.7088 116.156 91.888 111.451 94.6806 105.741C97.4739 100.031 95.9773 96.2431 91.6623 95.8972C87.3509 95.5512 84.5494 98.8314 83.1391 100.483C81.0362 102.946 76.4047 103.759 73.1371 101.879Z" stroke="black" stroke-miterlimit="10" stroke-linecap="round" stroke-linejoin="round"/>
<path d="M86.2792 97.5474C86.2792 97.5474 88.2235 100.591 87.137 101.988C86.049 103.381 83.1399 100.482 83.1399 100.482C83.1399 100.482 82.5262 105.07 81.0067 106.141C79.4835 107.215 78.012 102.963 78.012 102.963C78.012 102.963 75.9828 106.77 74.2738 106.687C72.5654 106.604 73.7419 102.755 73.7419 102.755C73.7419 102.755 70.6285 105.226 69.6467 104.768C68.6649 104.311 70.568 100.087 70.568 100.087C70.568 100.087 66.1143 103.121 65.6046 101.457C65.0956 99.7927 67.7872 97.6027 67.7872 97.6027" stroke="black" stroke-miterlimit="10" stroke-linecap="round" stroke-linejoin="round"/>
<path d="M59.1353 113.299C59.1353 113.299 63.0181 110.591 66.7519 109.6C70.4849 108.605 76.8173 109.211 76.2774 110.742C75.7382 112.272 65.301 114.363 65.301 114.363" stroke="black" stroke-miterlimit="10" stroke-linecap="round" stroke-linejoin="round"/>
<path d="M68.9515 113.475C68.9515 113.475 67.2579 113.993 65.6846 115.993" stroke="black" stroke-miterlimit="10" stroke-linecap="round" stroke-linejoin="round"/>
<path d="M40.5079 84.788C40.5079 84.788 36.6251 66.0349 39.6427 53.3089C43.4561 37.2244 60.99 32.5553 69.7093 32.264C78.4301 31.9726 85.4588 39.5826 87.9807 45.4761" stroke="black" stroke-miterlimit="10" stroke-linecap="round" stroke-linejoin="round"/>
<path d="M92.4353 57.6811C92.4353 57.6811 91.8836 54.2689 90.3862 51.8989" stroke="black" stroke-miterlimit="10" stroke-linecap="round" stroke-linejoin="round"/>
<path d="M95.8276 78.0703C95.8276 78.0703 96.3366 87.2256 96.1323 90.9653" stroke="black" stroke-miterlimit="10" stroke-linecap="round" stroke-linejoin="round"/>
<path d="M41.3863 84.7363C41.3863 84.7363 34.9919 87.1734 35.1844 94.0185C35.3792 100.864 42.9582 103.065 44.6975 102.531" stroke="black" stroke-miterlimit="10" stroke-linecap="round" stroke-linejoin="round"/>
</svg>
