<svg width="75" height="147" viewBox="0 0 75 147" fill="none" xmlns="http://www.w3.org/2000/svg">
<path d="M38.7124 31.6761C40.1752 31.3396 42.9544 29.2187 43.481 27.8437C44.0076 26.4687 45.5947 24.5379 43.3201 23.2141C41.0455 21.8903 36.9645 21.1663 33.8123 21.4807C30.66 21.7952 25.6867 22.4681 23.7705 23.0751C21.8543 23.6822 15.9375 26.732 14.1969 28.1947C12.4562 29.6575 10.0134 31.7346 10.2548 33.6508C10.4961 35.567 12.1636 36.8322 16.4349 36.8103C20.7061 36.7884 38.7124 31.6761 38.7124 31.6761Z" fill="#324265"/>
<path d="M45.9751 54.4364C45.9751 54.4364 45.6094 44.5628 44.3954 40.7305C43.1813 36.8981 41.1408 31.5298 39.327 29.8111C37.5131 28.0923 35.6701 26.0079 32.218 25.4887C28.7659 24.9694 24.9701 26.7905 23.0978 28.1289C20.9683 29.7277 19.0318 31.5684 17.3273 33.6142C16.5447 34.7625 16.1278 37.9659 15.9377 38.8289C15.7475 39.6919 15.2063 49.1339 15.2063 51.0867C15.2063 53.0394 15.3526 65.3631 15.3526 65.3631L15.455 67.0672L15.8938 74.1249C15.8938 74.4906 17.4297 91.1293 17.4297 91.1293C17.4297 91.1293 16.3619 93.6379 15.6305 95.6346C15.2641 96.8488 15.1692 98.1288 15.3525 99.3839C15.5358 100.639 15.9927 101.838 16.691 102.897C18.1537 104.886 18.8851 104.96 18.8851 104.96L19.4556 112.273C19.4556 112.273 19.931 119.938 21.3864 123.756C22.8418 127.574 25.6942 131.523 30.6675 133.052C30.6675 133.052 37.2499 133.373 40.9945 132.167C44.7391 130.96 48.7105 126.535 49.5588 124.436C50.4072 122.337 50.5535 116.8 50.5389 114.606C50.5243 112.412 50.2902 102.656 50.2902 102.656C50.2902 102.656 54.9783 101.39 55.7536 98.1651C56.5429 95.2096 56.2632 92.0703 54.9637 89.3009C53.7204 86.9385 48.6227 83.4499 48.6227 83.4499L45.9751 54.4364Z" fill="#FBF86E"/>
<path d="M53.6398 55.9134C52.1039 55.0577 47.6718 54.202 46.0043 54.9187C44.3368 55.6354 41.3674 58.9924 40.8847 61.3401C40.402 63.6879 42.2158 71.0308 42.2158 71.0308L44.3514 77.9862C46.3854 78.1246 48.4285 78.0387 50.4437 77.7302C52.7329 77.2255 56.5872 76.3772 58.1451 71.8792C59.7029 67.3813 57.9842 63.3368 57.794 62.2544C57.6038 61.1719 55.4097 56.908 53.6398 55.9134Z" fill="#FBF86E"/>
<path d="M18.3511 22.4315L13.9628 18.7746C13.9628 18.7746 11.6517 14.9057 10.9203 14.5839C10.189 14.2621 8.59457 12.5287 8.52874 11.4316C8.46292 10.3346 8.86518 7.04341 10.2548 5.705C11.6444 4.36659 17.7733 1.09736 19.2287 1.00228C20.6841 0.907201 23.0684 3.81806 23.0684 3.81806C23.0684 3.81806 26.6009 7.62851 27.5152 8.55004C28.4294 9.47157 29.8994 11.5779 30.1042 12.9383C30.6541 14.9985 31.3083 17.0294 32.0643 19.0233L32.4666 21.5611L18.3072 25.6056L18.3511 22.4315Z" fill="#324265"/>
<path d="M22.4395 19.3673C23.8437 18.6359 28.4002 19.0016 28.4002 19.0016H32.057L32.4593 21.5394C32.4593 21.5394 25.877 22.3074 24.246 23.0022L18.3073 25.6059L18.3584 22.4244C19.6458 21.3114 21.0095 20.2899 22.4395 19.3673Z" fill="#AED1E9"/>
<path d="M45.8068 85.4321C47.2208 85.7916 48.5229 86.498 49.5953 87.4873C50.9702 88.95 52.7475 91.0491 52.7402 93.9819C52.7328 96.9147 52.294 98.5895 50.5899 99.1527C48.8858 99.7158 46.348 98.6846 45.1412 98.4213C43.9344 98.158 40.1094 97.0829 37.14 97.9093C34.1706 98.7358 30.66 99.7743 29.5118 100.484C28.3635 101.193 24.8822 102.678 22.6369 101.947C20.3916 101.215 18.5924 100.272 18.5119 97.4413C18.4717 96.1216 18.7545 94.8121 19.3358 93.6267C19.917 92.4412 20.7791 91.4158 21.847 90.6395C23.946 89.0451 27.6468 86.617 29.8043 86.0245C31.9619 85.4321 36.906 83.8304 38.8368 83.9986C38.8368 83.9986 39.7729 87.6555 40.0362 88.599C41.2211 92.9214 42.0256 92.5996 42.9617 93.0896C43.8979 93.5796 45.1558 92.8629 45.8872 91.2612C46.6186 89.6595 45.8068 85.4321 45.8068 85.4321Z" fill="#DA4F4D"/>
<path d="M42.5887 108.902C41.0382 108.902 40.4824 113.334 42.3254 113.59C44.1685 113.846 44.4172 108.88 42.5887 108.902Z" fill="#6AFE7C"/>
<path d="M41.7989 97.6821C41.7989 97.6821 41.4917 100.081 41.2796 101.105C41.0675 102.129 41.0017 104.03 39.8169 104.126C38.632 104.221 38.771 101.99 38.771 101.99C38.771 101.99 38.0396 106.429 38.0396 107.717C38.0396 109.004 37.3083 110.328 35.8455 109.406C34.3828 108.484 34.1195 106.671 33.9805 105.859C33.8416 105.047 33.5929 98.7426 33.5929 98.7426C34.7367 98.3497 35.9143 98.0632 37.1108 97.8869C38.3322 97.7991 41.7989 97.6821 41.7989 97.6821Z" fill="#6AFE7C"/>
<path d="M27.0909 101.668C26.4473 100.557 26.1767 96.1537 28.4147 95.0859C30.6527 94.0181 33.622 92.2701 33.366 91.3193C32.9638 89.7908 27.7784 91.0853 26.1547 92.7236C24.5311 94.3618 23.7339 97.1118 24.4287 102.049L27.0909 101.668Z" fill="#FF0000"/>
<path d="M35.9405 84.3057C35.9405 84.3057 36.3939 87.2311 34.9312 87.297C33.4685 87.3628 31.4352 85.5782 31.4352 85.5782C31.4352 85.5782 32.6054 88.2551 30.9745 88.5037C29.3435 88.7524 28.2026 86.5656 28.2026 86.5656C28.2026 86.5656 28.678 89.8348 27.4054 90.0031C26.1328 90.1713 25.0138 88.4087 25.0138 88.4087C26.442 87.2872 28.0665 86.4415 29.8043 85.9147C32.6054 85.1467 35.9405 84.3057 35.9405 84.3057Z" fill="white"/>
<path d="M29.5849 100.081C29.5849 100.081 29.3289 97.4411 30.1261 97.0242C31.289 96.4172 32.9785 98.7722 32.9785 98.7722C32.9785 98.7722 33.5197 95.6273 34.8654 95.2689C36.2112 94.9105 37.5642 97.463 37.5642 97.463C37.5642 97.463 38.025 94.5375 39.6705 94.4937C41.3161 94.4498 40.9285 97.346 40.9285 97.346C40.9285 97.346 41.8135 94.9983 43.7443 95.1519C45.6751 95.3055 45.8726 98.5016 45.8726 98.5016C45.8726 98.5016 41.2137 97.229 37.9299 97.4338C35.8894 97.5581 33.5416 98.5235 31.6328 99.2915C30.5723 99.7449 29.5849 100.081 29.5849 100.081Z" fill="white"/>
<path d="M32.1301 80.2321C34.5802 79.5007 38.8807 74.4396 38.3468 68.8958C37.6154 61.5016 33.9074 59.1832 30.7844 58.4152C26.7692 57.4279 19.8138 57.9398 17.0127 62.5328C14.2115 67.1259 15.1915 76.6703 19.9381 79.252" stroke="black" stroke-linecap="round" stroke-linejoin="round"/>
<path d="M44.644 77.921C44.644 77.921 50.6339 78.5135 54.1518 76.3705C57.6697 74.2276 59.191 69.62 58.7156 66.2922C58.0354 61.531 55.6804 52.9886 46.2823 55.1461C41.7404 56.192 40.6068 62.7963 40.6068 62.7963" stroke="black" stroke-linecap="round" stroke-linejoin="round"/>
<path d="M46.0847 54.5902C46.0847 54.5902 45.8434 43.3124 43.2543 36.7081C40.9725 30.8571 36.7451 24.6259 29.1169 25.4816C23.9973 26.0593 16.8664 32.3857 16.1643 36.6569C15.4622 40.9281 15.155 54.5755 15.3086 56.6819C15.4622 58.7882 15.3086 66.6651 15.3086 66.6651" stroke="black" stroke-linecap="round" stroke-linejoin="round"/>
<path d="M15.8864 72.5889C15.8864 72.5889 16.7713 87.0408 17.393 91.0341" stroke="black" stroke-linecap="round" stroke-linejoin="round"/>
<path d="M18.6071 104.791C18.6071 104.791 19.9382 119.045 20.611 121.283C22.8051 128.451 26.0451 131.523 29.7605 132.627C33.4758 133.731 39.005 133.015 42.9252 131.047C44.6439 130.184 49.0175 126.893 49.7635 123.514C51.2628 116.698 50.1804 102.75 50.1804 102.75" stroke="black" stroke-linecap="round" stroke-linejoin="round"/>
<path d="M43.9784 101.398C43.9784 101.398 48.5056 103.234 51.8845 101.873C55.2635 100.513 56.2142 98.1432 56.2069 94.1133C56.2069 87.7723 49.6246 83.9546 49.0249 83.6035" stroke="black" stroke-linecap="round" stroke-linejoin="round"/>
<path d="M47.9204 78.104L48.6225 83.2455" stroke="black" stroke-linecap="round" stroke-linejoin="round"/>
<path d="M21.1595 87.041C18.8372 88.9512 17.0693 91.4489 16.0399 94.2743C14.5772 98.2456 15.4914 100.966 16.3105 102.173C17.6197 104.104 19.6383 105.962 23.6243 105.142" stroke="black" stroke-linecap="round" stroke-linejoin="round"/>
<path d="M46.0262 85.3221C47.5343 85.8735 48.8942 86.7666 49.9994 87.9314C51.1046 89.0963 51.925 90.5012 52.3965 92.0361C53.2668 94.574 52.9304 97.5726 51.0873 98.8379C49.2443 100.103 43.7078 97.5653 40.8481 97.5506C36.2652 97.6377 31.781 98.8966 27.8224 101.208C25.3577 102.59 21.1596 102.195 19.7115 100.557C18.2634 98.9183 17.2175 94.3692 21.7886 90.6319C24.8457 88.1306 28.1808 85.2417 38.2737 83.8521" stroke="black" stroke-linecap="round" stroke-linejoin="round"/>
<path d="M37.6448 79.7273C37.6448 79.7273 39.9413 88.5477 40.4313 90.281C41.1627 92.8043 42.9253 93.6088 44.8195 92.7311C48.3667 91.0636 44.0882 74.7174 42.3621 71.5579C40.6361 68.3984 40.5264 60.5288 40.5264 60.5288" stroke="black" stroke-linecap="round" stroke-linejoin="round"/>
<path d="M37.7837 72.5816C37.7837 72.5816 27.6103 66.482 16.04 65.8311" stroke="black" stroke-linecap="round" stroke-linejoin="round"/>
<path d="M58.05 64.8C58.05 64.8 52.2356 64.0028 47.4305 66.9941C42.6254 69.9854 42.3109 71.5359 42.3109 71.5359" stroke="black" stroke-linecap="round" stroke-linejoin="round"/>
<path d="M40.402 30.9299C41.4948 30.3802 42.4261 29.556 43.1043 28.5379C43.7826 27.5199 44.1846 26.343 44.2709 25.1228C44.5635 20.8735 33.0517 20.815 26.2792 22.5776C19.5067 24.3402 11.0739 28.8894 10.3572 32.7803C9.45762 37.6951 16.1643 36.6492 16.1643 36.6492" stroke="black" stroke-linecap="round" stroke-linejoin="round"/>
<path d="M32.5031 21.2173C32.5031 21.2173 30.4406 12.7042 28.7439 10.1151C27.0471 7.52606 20.5013 1.03148 19.353 1.10462C18.2048 1.17775 14.0872 2.93305 11.1324 4.8785C8.17768 6.82395 8.25813 11.2049 8.72621 12.1337C9.19429 13.0626 13.2534 17.0412 14.1018 18.3357C14.9502 19.6303 18.3803 22.6801 18.3803 22.6801L18.1829 25.7665" stroke="black" stroke-linecap="round" stroke-linejoin="round"/>
<path d="M31.801 19.1622C28.9194 19.1622 24.4873 18.6502 22.4102 19.5498C20.8888 20.3411 19.5235 21.4017 18.3804 22.6801" stroke="black" stroke-linecap="round" stroke-linejoin="round"/>
<path d="M24.4215 102.027C23.734 97.0754 24.5239 94.34 26.1475 92.7018C27.7711 91.0635 32.9566 89.7763 33.3588 91.2975C33.6075 92.241 30.6454 93.9597 28.4074 95.0641C26.1694 96.1685 26.4401 100.564 27.0837 101.646" stroke="black" stroke-linecap="round" stroke-linejoin="round"/>
<path d="M29.4167 126.886C29.4167 126.886 29.1169 131.326 30.5503 132.737" stroke="black" stroke-linecap="round" stroke-linejoin="round"/>
<path d="M37.0084 128.531C37.0249 129.889 36.9147 131.246 36.6793 132.583" stroke="black" stroke-linecap="round" stroke-linejoin="round"/>
<path d="M42.5157 108.792C40.5922 108.668 40.4898 113.334 42.4279 113.597C44.3661 113.86 44.0589 108.887 42.5157 108.792Z" stroke="black" stroke-linecap="round" stroke-linejoin="round"/>
<path d="M33.6367 98.7428C33.6367 98.7428 33.5781 102.4 33.8853 105.837C34.1413 108.763 35.4943 110.152 36.9937 109.494C38.493 108.836 38.1565 103.467 38.6392 101.902C38.6392 101.902 38.7782 104.199 40.102 104.096C41.4258 103.994 41.0528 97.6969 41.9962 97.4482" stroke="black" stroke-linecap="round" stroke-linejoin="round"/>
<path d="M25.0211 88.4599C25.0211 88.4599 26.1401 90.2225 27.4127 90.0543C28.6853 89.8861 28.2099 86.6169 28.2099 86.6169C28.2099 86.6169 29.3508 88.811 30.9818 88.555C32.6128 88.299 31.4426 85.6295 31.4426 85.6295C31.4426 85.6295 33.4758 87.4287 34.9385 87.3336C36.4013 87.2385 35.9478 84.3423 35.9478 84.3423" stroke="black" stroke-linecap="round" stroke-linejoin="round"/>
<path d="M29.5045 100.271C29.5045 100.271 29.2486 97.631 30.0531 97.2142C31.2159 96.6071 32.9054 98.9621 32.9054 98.9621C32.9054 98.9621 33.4466 95.8172 34.7924 95.4589C36.1381 95.1005 37.4911 97.653 37.4911 97.653C37.4911 97.653 37.9519 94.7275 39.5975 94.6836C41.2431 94.6397 40.8554 97.536 40.8554 97.536C40.8554 97.536 41.7331 95.1883 43.6712 95.3418C45.6093 95.4954 45.7703 98.143 45.7703 98.143" stroke="black" stroke-linecap="round" stroke-linejoin="round"/>
<path d="M44.9146 129.951C45.5265 128.685 45.8226 127.29 45.7776 125.884" stroke="black" stroke-linecap="round" stroke-linejoin="round"/>
<path d="M69.1962 139.831C66.1244 137.579 67.8578 141.864 67.8578 141.864" stroke="black" stroke-linecap="round" stroke-linejoin="round"/>
<path d="M7.43903 81.1167L5.6106 83.1792" stroke="black" stroke-linecap="round" stroke-linejoin="round"/>
<path d="M28.7584 142.947C28.1677 144.277 27.3 145.467 26.2133 146.435" stroke="black" stroke-linecap="round" stroke-linejoin="round"/>
<path d="M48.4543 36.8687L49.5953 38.7556" stroke="black" stroke-linecap="round" stroke-linejoin="round"/>
<path d="M6.69302 34.4995L5.69104 36.8033" stroke="black" stroke-linecap="round" stroke-linejoin="round"/>
<path d="M74.0669 113.092L72.3921 111.308" stroke="black" stroke-linecap="round" stroke-linejoin="round"/>
<path d="M20.6329 46.6401C20.6329 46.6401 17.1443 53.398 20.2599 54.0636C23.3756 54.7291 22.9587 50.904 20.6329 46.6401Z" fill="#AED1E9"/>
<path d="M3.52619 70.417C3.52619 70.417 0.29352 73.8179 1.14191 75.3391C1.9903 76.8604 3.24095 75.2514 3.52619 70.417Z" fill="#AED1E9"/>
<path d="M68.75 72.918C68.75 72.918 67.748 79.2224 70.381 79.0469C73.0139 78.8713 72.5678 74.2929 68.75 72.918Z" fill="#AED1E9"/>
<path d="M20.6768 46.3037C20.6768 46.3037 17.1881 53.0982 20.3111 53.7271C23.4341 54.3561 23.0025 50.5676 20.6768 46.3037Z" stroke="black" stroke-linecap="round" stroke-linejoin="round"/>
<path d="M3.60663 70.0801C3.60663 70.0801 0.373965 73.481 1.22236 74.9803C2.07075 76.4796 3.28483 74.9144 3.60663 70.0801Z" stroke="black" stroke-linecap="round" stroke-linejoin="round"/>
<path d="M68.7938 72.5815C68.7938 72.5815 67.7919 78.886 70.4248 78.7104C73.0577 78.5349 72.6116 73.9492 68.7938 72.5815Z" stroke="black" stroke-linecap="round" stroke-linejoin="round"/>
</svg>
