<svg width="94" height="108" viewBox="0 0 94 108" fill="none" xmlns="http://www.w3.org/2000/svg">
<path d="M1.60958 79.6882C2.04667 76.3723 4.14168 71.3985 4.84253 69.4166C5.97171 66.8227 7.37915 64.3591 9.04009 62.069C9.74094 61.3154 13.1472 56.2285 14.0214 54.9097C14.8956 53.5909 18.1285 46.5297 18.4827 44.4573C18.8369 42.3849 20.5777 33.4396 20.8415 31.1788C21.1053 28.918 22.7632 21.6608 23.0269 20.0632C23.2907 18.4656 26.6066 11.5776 27.9856 9.6032C29.3647 7.62876 33.3211 5.08159 35.3257 3.95119C37.3303 2.82079 41.0079 1.69038 42.7562 1.69038H46.5242C46.5242 1.69038 49.0865 0.838813 50.2923 1.02721C51.146 1.18935 51.9713 1.47628 52.7415 1.87878C54.3982 1.74066 56.0621 1.71045 57.7228 1.78835C58.8607 1.97675 62.5307 3.20512 62.5307 3.20512C62.5307 3.20512 66.6379 3.67989 68.1225 4.33553C69.3875 4.98833 70.5841 5.76589 71.6945 6.65662L73.0058 8.26179C75.3426 8.34529 77.6727 8.5642 79.9842 8.91742C82.245 9.39219 85.1388 12.0298 86.1034 12.8738C87.068 13.7179 89.3364 19.091 89.6905 20.4099C90.0447 21.7287 91.3485 29.4531 91.5293 31.0582C91.7102 32.6634 91.876 40.7646 91.876 40.7646L91.2882 51.4281L89.781 60.8481L89.2535 68.3841C89.2535 68.3841 90.2181 77.0506 90.8285 79.0325C91.4389 81.0145 92.9235 88.7389 92.9235 88.7389C92.9235 88.7389 93.7977 94.3909 92.8331 96.7497C91.8685 99.1085 90.9114 102.779 87.1509 104.663C83.3904 106.547 78.4996 106.17 75.8469 105.702C73.1942 105.235 68.5068 102.409 67.2784 100.616C66.0501 98.8221 64.7463 94.6848 64.7463 93.1776C64.7463 91.6704 66.148 84.7976 66.148 84.7976L48.0616 63.3199L41.2792 64.8271C41.2792 64.8271 40.2467 73.1846 40.4201 74.4808C40.5934 75.777 40.0734 84.6544 39.8925 85.7848C39.7117 86.9152 39.1917 94.3608 38.3853 96.2448C36.9196 99.5581 34.5211 102.373 31.4824 104.346C27.7143 106.607 21.7835 107.082 19.5076 106.328C17.2317 105.574 12.778 104.542 10.1554 102.748C7.53289 100.955 4.81993 97.2848 3.77242 95.4987C2.72491 93.7127 0.388747 89.0102 1.60958 79.6882Z" fill="#3A3A3D"/>
<path d="M41.6708 62.7324C42.236 59.9064 43.4267 57.2688 43.9316 55.3848C44.4365 53.5008 46.1924 47.6604 46.3808 46.2511C46.5692 44.8419 47.2324 37.6751 47.579 35.2938C48.1565 32.6411 48.9118 30.0302 49.8398 27.4789C50.405 25.7833 51.8218 22.8593 52.9522 21.7289C54.0826 20.5985 57.3834 16.5517 59.5462 15.4213C61.709 14.2909 64.8214 12.6933 66.8034 12.5049C68.7854 12.3165 69.441 12.4144 70.383 12.7912C71.325 13.168 74.6258 14.11 76.133 15.052C77.6402 15.994 80.2778 18.0664 81.3178 19.86C82.3577 21.6536 84.0533 26.8308 84.4301 30.6968C84.8069 34.5628 84.9049 42.3776 84.9049 43.8848C84.9049 45.392 84.4377 59.409 84.4377 59.409L83.1189 71.5646C83.1189 71.5646 82.3653 76.9378 81.8001 78.2566C81.2349 79.5754 78.13 83.6298 75.4849 84.3834C73.3308 84.9517 71.1179 85.2678 68.8909 85.3254C68.0468 85.3254 61.076 84.4814 57.8732 83.4414C54.6704 82.4014 51.5656 81.2785 49.3048 79.3945C47.044 77.5105 44.4064 75.5286 43.5623 73.9309C42.6707 71.7827 41.9156 69.5803 41.3015 67.3369L41.6708 62.7324Z" fill="#F8C2A0"/>
<path d="M59.2442 33.7871C67.0817 33.6665 69.463 39.1904 69.7117 44.4656C69.9152 48.7762 66.7802 52.8532 61.4749 54.2172C56.9533 55.3853 50.834 52.2503 49.8845 46.9676C49.0329 42.1898 51.1279 33.9077 59.2442 33.7871Z" fill="white"/>
<path d="M78.4765 53.5609C79.8556 54.6913 85.485 54.3145 87.6478 52.7018C92.0262 49.4086 91.9433 44.058 90.7753 39.8906C89.6072 35.7232 84.7465 31.1187 77.753 34.6757C74.3166 36.4315 73.6459 40.2749 73.5103 43.9374L76.6528 49.3407L78.4765 53.5609Z" fill="white"/>
<path d="M84.7238 33.846C84.4751 28.4427 83.5708 23.8457 81.7094 20.5449C77.1878 12.6849 67.1046 12.1875 67.1046 12.1875" stroke="black" stroke-linecap="round" stroke-linejoin="round"/>
<path d="M41.2036 67.6986C41.49 72.9738 46.0719 77.5632 51.3471 80.6907C55.9742 83.4413 68.0846 86.9833 76.4496 83.999C81.6645 82.1376 82.7949 74.1645 82.7949 74.1645C82.7949 74.1645 84.4076 60.3058 84.5809 56.372C84.6186 55.4149 84.694 55.1511 84.7316 54.1865" stroke="black" stroke-linecap="round" stroke-linejoin="round"/>
<path d="M66.1628 85.1515C66.1628 85.1515 62.651 96.335 69.2601 102.545C73.209 106.23 87.6555 109.832 92.1018 98.7766C96.548 87.7213 86.9472 78.7535 89.9917 60.8479C93.0363 42.9423 93.2623 16.8677 83.4806 10.6052C79.0268 7.75663 73.2241 8.34444 73.2241 8.34444C73.2241 8.34444 70.0363 3.55907 62.9676 3.32545C60.9027 3.25763 57.8431 0.815959 52.711 2.06694C52.711 2.06694 51.0757 0.0548216 46.6822 1.56203C46.6822 1.56203 37.3978 0.386407 28.965 8.84935C22.1826 15.6318 21.3838 29.6262 19.4094 40.7493C17.2842 52.5583 11.2253 59.092 8.39172 62.86C6.07062 66.0402 -2.46768 81.2629 3.06375 94.0064C3.06375 94.0064 5.85961 102.047 15.6489 105.31C23.8556 108.046 33.3058 106.893 37.9404 97.2996C40.563 91.8661 39.9601 70.3734 41.6331 63.2293C43.3061 56.0851 46.2376 52.2267 47.0666 40.0183C48.2799 22.158 59.3503 12.2933 70.8879 12.1351" stroke="black" stroke-linecap="round" stroke-linejoin="round"/>
<path d="M77.3388 65.8447C76.9002 66.5143 76.3172 67.0772 75.6325 67.4919C74.9478 67.9066 74.179 68.1626 73.3824 68.2412C71.6566 68.4823 68.3106 68.098 66.9089 66.4853" stroke="black" stroke-linecap="round" stroke-linejoin="round"/>
<path d="M73.0656 43.085C73.0656 43.085 74.1207 45.5643 75.4696 47.9532C76.8186 50.3421 79.7049 54.6452 77.5646 56.1976C75.4244 57.75 71.9729 57.3733 71.9729 57.3733" stroke="black" stroke-linecap="round" stroke-linejoin="round"/>
<path d="M58.8306 42.4077L59.3506 44.774" stroke="black" stroke-linecap="round" stroke-linejoin="round"/>
<path d="M57.8202 43.8694L60.0207 43.5303" stroke="black" stroke-linecap="round" stroke-linejoin="round"/>
<path d="M58.197 42.9199L60.0744 44.345" stroke="black" stroke-linecap="round" stroke-linejoin="round"/>
<path d="M58.3329 44.7664L59.81 42.6714" stroke="black" stroke-linecap="round" stroke-linejoin="round"/>
<path d="M79.0492 42.6567L79.5767 45.023" stroke="black" stroke-linecap="round" stroke-linejoin="round"/>
<path d="M78.0396 44.126L80.2401 43.7793" stroke="black" stroke-linecap="round" stroke-linejoin="round"/>
<path d="M78.4161 43.1689L80.2936 44.594" stroke="black" stroke-linecap="round" stroke-linejoin="round"/>
<path d="M78.5596 45.0149L80.0291 42.9199" stroke="black" stroke-linecap="round" stroke-linejoin="round"/>
<path d="M59.1843 33.8472C67.0218 33.7266 69.4333 39.2429 69.6519 44.5182C69.8553 48.8589 66.7204 52.9057 61.415 54.2698C56.8934 55.4378 50.7742 52.3029 49.8246 47.0201C48.9655 42.2498 51.0605 33.9677 59.1843 33.8472Z" stroke="black" stroke-linecap="round" stroke-linejoin="round"/>
<path d="M73.5481 43.5152C73.6762 39.8527 74.2188 36.5142 77.6628 34.7583C84.6486 31.1938 89.5169 35.8134 90.685 39.9733C91.8531 44.1331 91.936 49.4762 87.5576 52.7845C86.2303 53.6525 84.7231 54.2073 83.1499 54.4071C81.5767 54.6068 79.9787 54.4463 78.4767 53.9375" stroke="black" stroke-linecap="round" stroke-linejoin="round"/>
<path d="M66.8862 32.7156C64.7092 30.8554 61.9635 29.7922 59.1014 29.7012C57.4134 29.7012 51.8141 29.9499 50.0582 31.962" stroke="black" stroke-linecap="round" stroke-linejoin="round"/>
<path d="M51.3167 43.5162L36.3275 43.373" stroke="black" stroke-linecap="round" stroke-linejoin="round"/>
<path d="M93.0138 42.5126L89.9994 42.2563" stroke="black" stroke-linecap="round" stroke-linejoin="round"/>
<path d="M68.5215 43.387C70.4218 42.6633 72.5219 42.6633 74.4222 43.387" stroke="black" stroke-linecap="round" stroke-linejoin="round"/>
<path d="M76.6833 33.2136C77.5821 32.0845 78.7303 31.1791 80.0379 30.5685C81.3454 29.9578 82.7767 29.6586 84.2194 29.6943" stroke="black" stroke-linecap="round" stroke-linejoin="round"/>
</svg>
