<svg width="80" height="103" viewBox="0 0 80 103" fill="none" xmlns="http://www.w3.org/2000/svg">
<path d="M61.1834 18.35C61.1834 18.35 57.227 11.1004 54.401 9.21639L50.4446 6.57878C50.4446 6.57878 38.387 0.640401 32.7575 1.0172C27.1281 1.394 20.3231 3.18757 16.5551 5.53881C12.7871 7.89005 7.48928 11.9444 5.62788 19.0132C3.76649 26.082 3.08824 25.4188 2.89984 33.618C2.71144 41.8172 4.1885 45.7661 4.47487 46.9869C4.76124 48.2077 6.82611 57.2585 6.82611 57.2585C6.82611 57.2585 10.7825 68.7509 11.5361 70.3561C12.2897 71.9613 15.4247 79.8665 16.1783 81.3738C18.0204 84.5887 20.0328 87.703 22.2071 90.7033C24.4354 93.0454 26.8637 95.1887 29.4643 97.109C31.5367 98.6162 36.5256 100.41 38.0328 100.787C41.4014 101.345 44.7974 101.722 48.2064 101.917C50.4672 102.015 56.594 100.696 58.38 99.4677C60.166 98.2394 63.5648 97.2069 66.4812 94.6598C69.3977 92.1126 71.8544 89.2941 72.608 87.7869C73.6731 85.8638 74.5561 83.8455 75.2456 81.7581C75.6165 79.4184 75.8355 77.0573 75.9013 74.6893L75.7129 68.9393L75.434 66.9649C75.434 66.9649 77.0316 62.8201 77.318 62.3528C78.0179 60.3334 78.5226 58.2514 78.8252 56.1356C78.8252 55.1032 79.2925 50.9584 78.8252 48.5996C78.358 46.2408 76.6548 43.0456 75.434 42.1036C74.2132 41.1616 73.6404 40.0312 69.4956 39.7523L66.956 32.5931L66.858 31.2743L65.6372 30.3323L61.1834 18.35Z" fill="#F8C2A0"/>
<path d="M2.11523 68.8412C1.26178 66.7976 1.2267 64.5042 2.01726 62.4355C3.1552 59.5191 6.82524 57.2583 6.82524 57.2583L9.65125 65.6459L12.5677 72.5263C12.5677 72.5263 9.55328 72.8126 8.04607 72.8126C6.53887 72.8126 3.05723 71.3883 2.11523 68.8412Z" fill="#F8C2A0"/>
<path d="M55.847 57.9065C57.7461 56.55 59.7205 52.2319 62.0416 49.1346C64.3627 46.0373 66.6687 44.1156 69.5248 44.4472C73.5265 44.9672 75.8476 49.4813 75.3351 54.8997C74.8905 59.5494 73.3984 65.8646 68.7562 70.2505C64.114 74.6365 53.7896 79.1506 45.5302 79.2937C39.0793 79.3917 34.4296 78.2613 31.0761 72.8429C27.9336 67.7712 28.6269 60.3256 31.0761 56.5877C33.1108 53.4904 35.8916 51.4029 39.5918 51.9832C43.8496 52.6313 46.4345 54.9524 49.0118 56.8892C51.7851 58.954 54.0383 59.1952 55.847 57.9065Z" fill="#DA4F4D"/>
<path d="M44.6334 80.0554C44.9499 80.6575 45.3958 81.1819 45.9392 81.591C46.4826 82.0002 47.1098 82.2839 47.7759 82.4217C50.097 82.9417 50.097 86.2952 50.8732 88.0963C51.6494 89.8974 53.9705 89.1288 54.2267 87.3427C54.4829 85.5567 55.2591 81.9243 57.0678 80.8919C58.8764 79.8595 61.9737 78.0508 61.4538 75.2173C61.4538 75.2173 58.1379 76.4984 57.0678 77.0033C55.0435 77.7645 52.962 78.3643 50.843 78.7969C48.0773 79.1737 44.9423 79.3018 44.9423 79.3018L44.249 79.3621L44.6334 80.0554Z" fill="#61EA67"/>
<path d="M62.2979 86.0321C60.7907 86.9213 60.753 89.8001 62.8103 89.8001C64.8676 89.8001 63.5865 85.2559 62.2979 86.0321Z" fill="#61EA67"/>
<path d="M46.3213 88.0956C46.3213 88.0956 44.0002 91.321 46.065 91.5773C48.1299 91.8335 47.9792 86.1589 46.3213 88.0956Z" fill="#61EA67"/>
<path d="M48.62 33.6486C46.4948 31.9078 44.1662 27.2354 45.907 23.3469C47.6478 19.4583 50.5191 17.936 54.1966 17.5818C58.4545 17.1824 63.2399 18.0566 65.8096 22.1034C67.9348 25.5248 66.5632 29.338 65.6137 29.9409L65.5685 30.2725C63.8614 30.0294 62.1285 30.0294 60.4214 30.2725C58.2887 30.7096 54.5207 31.4029 52.8854 32.2168C51.2501 33.0306 49.2455 34.161 49.2455 34.161L48.62 33.6486Z" fill="white"/>
<path d="M23.5928 42.8127C19.448 41.3055 15.5067 36.5201 16.9159 29.4966C17.6695 25.8341 21.4375 21.5536 26.5696 20.9206C29.0291 20.535 31.5473 20.9548 33.7488 22.1173C35.9503 23.2798 37.717 25.1228 38.7854 27.3714C39.9689 30.2107 40.0362 33.3922 38.9738 36.279C37.752 36.2263 36.5284 36.3327 35.3339 36.5955C33.0687 37.1096 30.86 37.8467 28.7399 38.796C27.0575 39.7562 25.4964 40.915 24.0902 42.2475L23.5928 42.8127Z" fill="white"/>
<path d="M26.728 12.8791C28.3784 10.7539 25.7634 7.07637 21.6939 9.39747C17.6245 11.7186 13.5776 15.9764 12.4095 18.4859C11.2415 20.9954 12.6055 26.4213 14.1504 25.8411C15.6952 25.2608 25.3866 14.6199 26.728 12.8791Z" fill="#7B633B"/>
<path d="M50.1574 8.0401C51.1973 7.59547 50.911 3.39791 47.256 2.6217C43.601 1.84549 36.2233 1.4913 35.0627 3.7521C33.9022 6.01291 33.9022 8.00995 37.1954 8.59023C40.4886 9.1705 47.4519 9.20065 50.1574 8.0401Z" fill="#7B633B"/>
<path d="M58.7335 54.2441L59.3967 56.9797C59.6424 58.0946 59.7837 59.2299 59.8187 60.3709C59.7283 61.2677 59.3515 62.8201 58.2663 63.0085C57.1811 63.1969 55.5835 61.9761 55.5835 61.9761L54.3099 60.1373L53.6467 58.6301C54.4017 58.4464 55.1382 58.1942 55.8472 57.8765C56.5735 57.2299 57.2394 56.5186 57.8368 55.7513L58.7335 54.2441Z" fill="white"/>
<path d="M62.0795 48.9244L64.5739 46.2416C65.3984 45.6239 66.3003 45.1172 67.2567 44.7344L68.4851 47.794C68.4851 47.794 69.2387 50.9516 68.9071 51.984C68.5755 53.0165 68.0631 54.2448 66.6011 54.0112C65.1391 53.7776 64.2498 52.3608 63.7751 51.8936C63.133 50.9498 62.5661 49.957 62.0795 48.9244Z" fill="white"/>
<path d="M47.5726 55.6094C47.8624 56.7021 48.0218 57.8252 48.0474 58.9554C48.363 59.9402 48.8419 60.865 49.4642 61.6909C50.2178 62.4445 51.6345 63.2961 52.3881 63.1981C52.7782 63.13 53.1406 62.952 53.433 62.6851C53.7253 62.4181 53.9354 62.0732 54.0385 61.6909C54.1817 60.9826 54.3249 60.1385 54.3249 60.1385L53.6617 58.6313C52.9662 58.5257 52.2769 58.3823 51.5969 58.2018C50.7754 57.9682 47.5726 55.6094 47.5726 55.6094Z" fill="white"/>
<path d="M41.4907 56.1286C41.7659 54.9694 41.9225 53.7852 41.958 52.5942C42.8563 52.868 43.7249 53.2315 44.5503 53.6794C45.2135 54.1542 47.5648 55.6086 47.5648 55.6086C47.7909 56.7133 47.9495 57.8307 48.0395 58.9546C48.0395 59.8966 47.6175 61.5018 46.8187 61.6902C46.0199 61.8786 44.3243 60.7934 43.7591 60.0926C43.1939 59.3917 41.4907 56.1286 41.4907 56.1286Z" fill="white"/>
<path d="M34.2638 53.0683C35.1148 52.4203 36.125 52.0141 37.1878 51.8927C38.9286 51.7043 41.9882 52.6011 41.9882 52.6011C41.9476 53.5201 41.8368 54.4346 41.6566 55.3367C41.423 56.1882 41.001 58.3963 39.6294 58.4491C38.2579 58.5018 37.2782 57.5372 36.3136 56.4068C35.5376 55.3536 34.8519 54.2369 34.2638 53.0683Z" fill="white"/>
<path d="M37.4895 78.2168C37.4895 78.2168 37.6779 75.6697 38.4315 75.0593C39.1851 74.4488 39.8935 73.8836 40.7375 74.6372C41.4641 75.4315 42.0824 76.3184 42.5763 77.2748C42.5763 77.2748 43.5635 75.2024 43.9403 74.6824C44.3171 74.1625 44.9728 73.2205 45.8243 73.4616C46.6759 73.7028 47.7988 76.5212 48.0399 77.2296C48.4553 75.7859 48.9587 74.369 49.5471 72.9868C49.6756 72.7961 49.8474 72.6384 50.0483 72.5265C50.2492 72.4146 50.4737 72.3517 50.7036 72.3429C50.9334 72.3341 51.162 72.3796 51.371 72.4758C51.5799 72.572 51.7632 72.7161 51.9059 72.8964C52.8995 74.3963 53.8029 75.954 54.6113 77.5612C53.1627 78.1032 51.6629 78.4971 50.1349 78.7368C48.1238 79.0579 46.0957 79.2617 44.0609 79.3472C41.851 79.0941 39.657 78.7167 37.4895 78.2168Z" fill="white"/>
<path d="M55.1994 77.4171C55.1994 77.4171 55.0562 74.6815 55.1541 73.7395C55.2521 72.7975 55.4405 70.3935 56.7593 70.2579C58.0781 70.1222 59.7285 71.4335 59.7285 71.4335L62.3661 74.6815L58.5529 76.3319L55.1994 77.4171Z" fill="white"/>
<path d="M67.8671 71.0115C67.8671 71.0115 65.9152 68.9843 64.9506 68.5623C63.986 68.1403 62.0794 67.8539 61.2278 68.8939C60.3763 69.9338 61.1826 72.0514 61.1826 72.0514L62.3582 74.6891C62.3582 74.6891 67.2567 72.0439 67.8671 71.0115Z" fill="white"/>
<path d="M72.2003 65.6917C72.2003 65.6917 69.5627 63.9509 67.4903 63.8529C65.4179 63.7549 65.2747 66.2569 65.5611 66.9653C65.8475 67.6737 67.1663 70.1229 67.1663 70.1229L67.8747 71.0197C67.8747 71.0197 71.4467 68.0429 72.2003 65.6917Z" fill="white"/>
<path d="M31.9353 73.7403C31.9353 73.7403 34.0077 70.8239 34.6709 69.8819C35.334 68.9399 38.2053 66.0686 40.0441 65.7823C41.8828 65.4959 43.4353 64.8403 45.3193 65.315C47.2033 65.7898 48.8084 66.679 49.1852 67.2442C49.562 67.8095 49.7052 69.5051 48.62 69.8366C47.5349 70.1682 45.0404 71.0123 42.968 70.7334L40.9408 74.6898C40.4764 74.4062 39.9226 74.3067 39.3884 74.411C38.68 74.6446 38.356 75.353 38.0244 76.3402C37.8194 76.959 37.6458 77.5878 37.5044 78.2242C36.4237 77.8561 35.3953 77.3495 34.4448 76.717C33.5457 75.7793 32.7075 74.785 31.9353 73.7403Z" fill="#FF0000"/>
<path d="M59.0648 24.1465L59.2381 26.8293" stroke="black" stroke-linecap="round" stroke-linejoin="round"/>
<path d="M57.7158 25.5859H60.1801" stroke="black" stroke-linecap="round" stroke-linejoin="round"/>
<path d="M58.2885 24.5977L60.098 26.4826" stroke="black" stroke-linecap="round" stroke-linejoin="round"/>
<path d="M58.1228 26.6475L60.0972 24.5977" stroke="black" stroke-linecap="round" stroke-linejoin="round"/>
<path d="M27.6096 29.8042L28.5893 32.3137" stroke="black" stroke-linecap="round" stroke-linejoin="round"/>
<path d="M26.7656 31.592L29.1093 30.8384" stroke="black" stroke-linecap="round" stroke-linejoin="round"/>
<path d="M27.007 30.4766L29.3054 31.7275" stroke="black" stroke-linecap="round" stroke-linejoin="round"/>
<path d="M27.474 32.48L28.725 29.9253" stroke="black" stroke-linecap="round" stroke-linejoin="round"/>
<path d="M55.9074 57.8394C57.8065 56.4829 59.7809 52.1648 62.102 49.0675C64.4231 45.9701 66.7593 44.056 69.5853 44.4253C73.5869 44.9453 75.908 49.4593 75.3956 54.8777C74.9585 59.5199 73.4513 65.8426 68.8166 70.2286C64.182 74.6146 53.8576 79.1136 45.568 79.2567C39.1172 79.3547 34.4675 78.2243 31.1139 72.8059C27.9714 67.7342 28.6647 60.2886 31.1139 56.5507C33.1562 53.4383 35.9294 51.3433 39.6296 51.9085C43.8875 52.5566 46.4723 54.8777 49.0496 56.8145C51.853 58.8944 54.1063 59.128 55.9074 57.8394Z" stroke="black" stroke-linecap="round" stroke-linejoin="round"/>
<path d="M26.1552 58.2305C26.1552 58.2305 22.9826 64.2593 24.5651 71.0417C25.7408 76.0984 30.7824 82.1498 39.7804 83.4837" stroke="black" stroke-linecap="round" stroke-linejoin="round"/>
<path d="M65.4554 41.584C65.4554 41.584 68.1684 38.4867 73.1949 40.5516C77.596 42.3602 79.4875 49.2783 79.1333 53.9732C78.4992 60.6325 76.0082 66.9801 71.944 72.2933" stroke="black" stroke-linecap="round" stroke-linejoin="round"/>
<path d="M44.2943 79.5196C44.6195 80.2042 45.0867 80.8116 45.6649 81.3015C46.2432 81.7914 46.9191 82.1525 47.6478 82.3607C49.9689 82.8807 49.9689 86.2342 50.7451 88.0353C51.5214 89.8364 53.8424 89.0677 54.0987 87.2817C54.3549 85.4957 55.1311 81.8633 56.9397 80.8309C58.7484 79.7984 61.8457 77.9898 61.3257 75.1562" stroke="black" stroke-linecap="round" stroke-linejoin="round"/>
<path d="M62.3657 85.971C60.8585 86.8603 60.8208 89.7391 62.8782 89.7391C64.9355 89.7391 63.6544 85.1948 62.3657 85.971Z" stroke="black" stroke-linecap="round" stroke-linejoin="round"/>
<path d="M46.3591 88.0355C46.3591 88.0355 44.038 91.261 46.1029 91.5172C48.1678 91.7734 48.0396 86.0988 46.3591 88.0355Z" stroke="black" stroke-linecap="round" stroke-linejoin="round"/>
<path d="M48.3637 37.5825C48.3637 37.5825 53.2696 40.1598 55.8469 43.0009C58.4242 45.842 58.4242 48.6755 55.8469 49.4517C53.2696 50.228 47.3312 47.6431 45.2965 46.0982" stroke="black" stroke-linecap="round" stroke-linejoin="round"/>
<path d="M75.5323 67.3726C75.5323 67.3726 77.0395 78.9253 74.025 85.459C70.046 94.0727 60.7089 98.956 55.396 100.682C48.9075 102.792 38.6887 101.955 32.8256 99.0238C25.7945 95.5045 19.7657 90.2293 14.4905 77.4181C10.4286 67.5459 6.70579 59.0829 4.18876 45.5181C2.97546 38.9467 0.925666 25.9245 8.20546 13.3619C13.7369 3.82887 31.0697 -1.20519 39.593 2.16341" stroke="black" stroke-linecap="round" stroke-linejoin="round"/>
<path d="M50.4286 6.61719C50.4286 6.61719 56.9171 9.25479 61.5593 18.5467" stroke="black" stroke-linecap="round" stroke-linejoin="round"/>
<path d="M66.8799 32.2925C67.9843 34.6512 68.8478 37.1154 69.4572 39.6476" stroke="black" stroke-linecap="round" stroke-linejoin="round"/>
<path d="M65.7192 30.1288C66.6839 29.5259 68.0403 25.7052 65.9152 22.2913C63.368 18.2068 58.56 17.3327 54.3022 17.7697C50.5945 18.1164 47.7458 19.5859 46.0126 23.5348C44.2793 27.4837 46.5928 32.0882 48.7255 33.8365" stroke="black" stroke-linecap="round" stroke-linejoin="round"/>
<path d="M48.296 34.9374C50.8382 32.9395 53.8279 31.5895 57.0077 31.0036C60.4893 30.25 63.1344 30.0993 64.815 30.3631C66.3222 30.5967 67.3019 30.7926 66.7517 32.8123C66.2692 34.0061 65.569 35.0998 64.6869 36.0377" stroke="black" stroke-linecap="round" stroke-linejoin="round"/>
<path d="M39.102 36.0895C40.142 33.3035 40.0555 30.2218 38.8608 27.4985C37.792 25.2485 36.024 23.4045 33.821 22.2419C31.618 21.0793 29.0981 20.6603 26.6374 21.0477C21.4526 21.6807 17.6846 25.9536 16.9837 29.6236C15.5745 36.6472 19.2898 41.0784 23.4346 42.6007" stroke="black" stroke-linecap="round" stroke-linejoin="round"/>
<path d="M40.7073 36.4587C37.7928 36.0774 34.8293 36.3978 32.0635 37.3931C27.4816 39.0511 22.8847 42.3594 22.96 44.3866" stroke="black" stroke-linecap="round" stroke-linejoin="round"/>
<path d="M28.7926 46.7085C28.7926 46.7085 32.7264 46.4071 34.7159 44.5005" stroke="black" stroke-linecap="round" stroke-linejoin="round"/>
<path d="M67.2642 44.7412C67.2642 44.7412 70.5575 51.5236 68.0178 53.6412C65.4782 55.7589 62.2151 49.3156 62.2151 49.3156" stroke="black" stroke-linecap="round" stroke-linejoin="round"/>
<path d="M34.5577 53.6497C34.5577 53.6497 37.331 59.0078 39.7802 58.4878C41.2874 58.1637 41.8451 55.2624 42.1013 52.459" stroke="black" stroke-linecap="round" stroke-linejoin="round"/>
<path d="M47.4521 55.5479C47.4521 55.5479 48.9593 60.7628 47.0075 61.5767C45.1989 62.3303 42.2297 58.7356 41.7323 56.3015" stroke="black" stroke-linecap="round" stroke-linejoin="round"/>
<path d="M53.8575 58.8716C53.8575 58.8716 55.018 61.3886 53.3375 62.8732C52.1392 63.9282 49.4037 62.4889 48.0623 58.9997" stroke="black" stroke-linecap="round" stroke-linejoin="round"/>
<path d="M58.7485 54.4858C58.7485 54.4858 60.836 61.1778 59.0047 62.6172C57.1735 64.0566 54.875 61.5848 53.7295 58.8492" stroke="black" stroke-linecap="round" stroke-linejoin="round"/>
<path d="M32.0033 73.777C33.4399 71.3041 35.2701 69.082 37.4217 67.198C39.7428 65.3291 44.6412 64.5454 47.2939 65.8416C50.4515 67.394 49.728 69.0971 48.6504 69.7151C46.8417 70.7475 42.8401 70.7475 42.8401 70.7475L40.941 74.5909" stroke="black" stroke-linecap="round" stroke-linejoin="round"/>
<path d="M71.944 65.6465C71.944 65.6465 68.0705 62.7451 66.3296 64.29C63.8428 66.5056 67.6861 70.6805 67.6861 70.6805C67.6861 70.6805 63.6544 66.7467 61.6498 68.5629C59.6452 70.3791 62.0341 73.597 62.0341 73.597" stroke="black" stroke-linecap="round" stroke-linejoin="round"/>
<path d="M37.6554 77.6444C37.6554 77.6444 38.0397 74.5471 39.5922 74.3512C41.1446 74.1552 42.8854 77.2525 43.0738 78.8049" stroke="black" stroke-linecap="round" stroke-linejoin="round"/>
<path d="M48.2959 78.6166C48.2959 78.6166 47.5423 73.2886 45.3945 73.3941C44.0381 73.4619 42.7494 77.456 42.7494 77.456" stroke="black" stroke-linecap="round" stroke-linejoin="round"/>
<path d="M54.7469 77.6066C54.7469 77.6066 52.5539 72.06 50.6171 72.4444C48.6804 72.8287 48.296 76.966 48.296 78.4732" stroke="black" stroke-linecap="round" stroke-linejoin="round"/>
<path d="M55.2666 76.936C55.2666 76.936 54.513 70.4851 57.0074 70.2892C59.5018 70.0933 62.1017 74.0949 62.1017 74.0949" stroke="black" stroke-linecap="round" stroke-linejoin="round"/>
<path d="M6.73481 57.1602C6.73481 57.1602 1.2712 60.6267 1.4596 65.6683C1.648 70.7099 5.1221 72.1794 7.42812 72.6391C9.09533 72.9085 10.795 72.9085 12.4622 72.6391" stroke="black" stroke-linecap="round" stroke-linejoin="round"/>
<path d="M26.4265 13.0002C28.0769 10.875 25.4619 7.19747 21.3925 9.51856C17.323 11.8397 13.2686 16.0975 12.1081 18.6145C10.9475 21.1316 12.304 26.55 13.8489 25.9697C15.3938 25.3894 25.07 14.741 26.4265 13.0002Z" stroke="black" stroke-linecap="round" stroke-linejoin="round"/>
<path d="M49.8483 8.16153C50.8883 7.7169 50.6019 3.51934 46.9469 2.74313C43.2919 1.96692 35.9142 1.58258 34.7461 3.90368C33.578 6.22477 33.5856 8.16153 36.8713 8.7418C40.157 9.32207 47.1353 9.32207 49.8483 8.16153Z" stroke="black" stroke-linecap="round" stroke-linejoin="round"/>
</svg>
