<svg width="102" height="129" viewBox="0 0 102 129" fill="none" xmlns="http://www.w3.org/2000/svg">
<path d="M15.9906 96.0049C15.9906 96.0049 6.95086 94.8347 5.67827 86.6872C4.55927 79.5051 11.1928 72.835 11.1928 72.835C11.1928 72.835 2.58457 73.3689 1.15839 63.4149C-0.267783 53.4609 8.40629 39.2796 8.40629 39.2796C8.40629 39.2796 2.97951 36.9393 3.89372 28.8064C4.80794 20.6735 16.722 19.2327 16.722 19.2327C16.722 19.2327 16.7732 5.57802 22.2804 1.95772C27.7877 -1.66257 37.2735 7.57466 37.2735 7.57466C37.2735 7.57466 52.3837 -1.56749 60.2313 1.70906C68.0789 4.98561 63.8882 16.8997 63.8882 16.8997C63.8882 16.8997 81.0754 10.9609 85.2662 19.8251C89.4569 28.6894 79.7809 35.0889 79.7809 35.0889C79.7809 35.0889 91.6949 35.0889 96.6025 44.9039C101.51 54.7189 90.0201 60.9429 90.0201 60.9429C96.0905 64.0146 101.386 72.3011 100.83 78.1521C99.6523 90.0222 87.3067 92.7795 87.3067 92.7795C87.3067 92.7795 90.5613 96.7435 88.8645 99.552C87.1678 102.36 81.9238 100.898 81.9238 100.898C81.9238 100.898 84.5421 105.915 82.231 107.48C79.9199 109.045 76.3069 108.628 76.3069 108.628L37.8513 98.9742L21.7173 96.1365L15.9906 96.0049Z" fill="#61EA67"/>
<path d="M27.1369 88.947C23.5239 89.5101 20.7374 90.6364 19.2307 92.0187C12.2681 98.3963 18.8138 101.102 18.8138 101.102C16.883 103.962 16.4149 110.508 18.0825 115.152C19.75 119.796 24.1894 117.2 24.1894 117.2C24.1894 117.2 29.7625 128.039 36.7471 128.17C40.9013 128.251 38.8461 121.061 38.8461 121.061C38.8461 121.061 49.2828 126.24 53.4736 124.93C57.6643 123.621 55.3239 119.079 55.3239 119.079C55.3239 119.079 66.0971 124.689 71.9042 121.332C77.7112 117.975 71.0996 112.051 71.0996 112.051C74.2153 111.451 78.4134 106.975 76.4167 102.331C74.8808 98.74 66.1775 98.3451 66.1775 98.3451C66.1775 98.3451 67.6841 94.5785 66.2141 92.1284C64.744 89.6783 57.657 91.5506 57.657 91.5506C57.657 91.5506 58.2567 88.1863 55.4629 86.5188C50.4164 83.5202 42.2178 87.3452 42.2178 87.3452C42.2178 87.3452 38.5609 83.33 32.0809 86.9503C31.4429 87.6522 30.7346 88.2869 29.9673 88.8446C29.526 89.049 29.0484 89.1633 28.5624 89.1809C28.0764 89.1985 27.5918 89.1189 27.1369 88.947Z" fill="#368C46"/>
<path d="M19.9327 91.4122C19.3413 90.4129 18.8136 89.3771 18.353 88.3112C18.0092 87.3311 16.8902 83.2867 16.7293 82.3724C16.5684 81.4582 16.093 77.2528 16.093 77.2528L16.4734 56.043C16.4734 56.043 15.5079 51.7572 15.603 50.5212C15.8402 47.3085 16.3789 44.1252 17.212 41.0133C18.2506 37.7441 20.9859 33.546 23.692 31.703C23.8497 32.1649 24.1766 32.5499 24.6067 32.7806C25.0369 33.0113 25.5384 33.0705 26.0105 32.9463C27.6235 32.4856 29.1885 31.8709 30.6839 31.1106L35.1745 27.7463C35.1745 27.7463 33.8215 30.7888 34.4871 32.2515C35.1526 33.7143 37.12 34.6065 39.8553 34.2116C42.1175 33.8188 44.2978 33.05 46.306 31.937C47.0374 31.4836 51.6889 28.5727 52.8079 27.1758C52.8079 27.1758 58.9368 28.6385 60.992 30.5547C63.9082 33.1123 66.2787 36.2316 67.962 39.7261C69.5822 43.1148 70.8091 46.6779 71.6188 50.3457C71.9333 52.3496 72.7963 57.1694 72.8256 58.1786C72.8548 59.1879 73.1766 64.9877 73.1766 64.9877C73.1766 64.9877 78.033 66.6187 79.8248 69.4345C82.6845 73.947 82.1871 77.4796 79.0934 81.1364C77.9525 82.4748 73.9738 84.4934 73.9738 84.4934L73.1108 94.1768L72.2332 99.5597C72.2332 99.5597 67.6255 98.3602 66.2286 98.4261C66.6538 96.9795 66.8196 95.4691 66.7186 93.9647C66.4919 91.8145 65.2559 91.3903 63.6249 91.105C61.994 90.8198 57.7154 91.6316 57.7154 91.6316C57.6485 90.2834 57.3102 88.9625 56.7208 87.748C55.7919 86.0439 52.2448 85.5978 51.0892 85.5539C48.0424 85.5594 45.0305 86.2021 42.2469 87.4408C41.1972 86.4942 39.8973 85.8696 38.5023 85.6417C36.416 85.5604 34.3403 85.9766 32.4465 86.8558L30.3694 88.9036C30.3694 88.9036 28.424 89.7447 27.1514 89.0133C27.1368 88.9475 22.6315 89.7593 19.9327 91.4122Z" fill="#F8C2A0"/>
<path d="M55.9749 65.3972C55.6677 59.5096 51.7841 53.1832 43.2637 54.6167C36.3229 55.7796 32.315 59.868 32.8123 67.1012C33.2439 73.6031 37.8661 78.7081 44.3827 78.4668C50.5627 78.2327 56.3333 72.2209 55.9749 65.3972Z" fill="white"/>
<path d="M17.6876 55.6992C11.5148 56.5769 8.2602 61.6965 8.97694 67.8546C9.65712 73.7056 14.55 78.3791 21.0373 77.5453C22.9858 77.2801 24.822 76.4773 26.3397 75.2269L26.8444 74.927L28.702 70.4071L30.8084 65.4411C30.8084 65.4411 29.726 61.2796 28.7313 60.1386C27.7366 58.9977 25.6595 57.0157 25.6595 57.0157L22.4927 56.5842L17.6876 55.6992Z" fill="white"/>
<path d="M52.6323 43.0027C47.147 42.7028 40.06 46.0598 38.2023 48.0345C34.7137 51.6914 36.9736 52.6056 38.9337 52.3789C40.8938 52.1522 50.7381 49.9654 54.7533 47.6981C56.0112 46.996 54.3218 43.0905 52.6323 43.0027Z" fill="#3A3A3D"/>
<path d="M28.1899 56.4009C25.1693 57.0884 21.9513 56.5252 19.9693 56.1888C14.2207 55.2161 12.3338 53.139 13.6868 52.2613C15.2373 51.2594 22.1415 49.9502 26.7857 51.3544C28.6141 51.903 29.4186 56.123 28.1899 56.4009Z" fill="#3A3A3D"/>
<path d="M55.5287 93.5112C58.7467 96.6049 57.7228 103.889 53.0786 106.837C48.4343 109.784 37.3833 112.373 31.3495 110.567C24.4746 108.519 21.8051 101.988 25.4473 98.6747C29.0896 95.3616 35.9937 96.3782 40.989 95.2226C45.9843 94.067 52.786 90.8856 55.5287 93.5112Z" fill="#CB4850"/>
<path d="M27.839 97.4898C27.839 97.4898 31.4959 102.149 33.6022 101.439C35.7086 100.73 33.8436 96.2684 33.8436 96.2684C33.8436 96.2684 36.1693 100.657 38.3488 99.779C40.5283 98.9014 39.3947 95.7053 39.3947 95.7053C39.3947 95.7053 42.6346 99.4572 44.1266 98.8794C45.6186 98.3016 44.5289 94.4254 44.5289 94.4254C44.5289 94.4254 46.467 97.5922 48.354 96.7657C50.2409 95.9393 48.9464 93.1089 48.9464 93.1089L41.8813 95.1494L35.1015 96.0271L31.057 96.5098L27.839 97.4898Z" fill="white"/>
<path d="M51.4769 107.085C51.4769 107.085 49.9483 104.957 48.9609 105.147C47.9736 105.337 47.8054 108.804 47.8054 108.804C47.8054 108.804 46.7449 105.879 44.6897 106.179C42.6346 106.478 43.7097 109.784 43.7097 109.784C43.7097 109.784 40.9817 106.895 39.6871 107.276C38.3926 107.656 39.636 110.852 39.636 110.852C39.636 110.852 36.5861 107.115 34.7796 107.883C33.5729 108.395 34.7796 110.947 34.7796 110.947C37.184 111.05 39.5928 110.935 41.9763 110.603C44.9018 110.069 49.4875 108.95 51.7987 107.722L51.4769 107.085Z" fill="white"/>
<path d="M54.4171 105.769C53.0229 104.62 51.4743 103.672 49.8167 102.953C47.6044 102.128 45.2192 101.876 42.8833 102.222C40.7477 102.514 39.263 103.312 39.2265 104.416C39.1899 105.52 40.6453 106.296 41.4206 106.522C42.1958 106.749 43.5196 107.005 43.5196 107.005C43.6632 106.783 43.8497 106.591 44.0682 106.441C44.2867 106.292 44.5329 106.188 44.7922 106.135C45.1386 106.105 45.4869 106.164 45.8042 106.306C46.1215 106.448 46.3975 106.668 46.606 106.946C47.0668 107.451 47.9152 108.665 47.9152 108.665C47.9152 108.665 48.2297 105.089 49.2097 105.191C50.1897 105.294 51.4038 106.851 51.4038 106.851L51.9524 107.458C52.8718 107.088 53.7376 106.596 54.5268 105.996" fill="#FF0000"/>
<path d="M15.9906 96.0049C15.9906 96.0049 6.95086 94.8347 5.67827 86.6872C4.55927 79.5051 10.7321 72.9959 10.7321 72.9959C10.7321 72.9959 2.58457 73.3689 1.15839 63.4149C-0.267783 53.4609 8.40629 39.2796 8.40629 39.2796C8.40629 39.2796 2.97951 36.9393 3.89372 28.8064C4.80794 20.6735 16.722 19.2327 16.722 19.2327C16.722 19.2327 16.7732 5.57802 22.2804 1.95772C27.7877 -1.66257 37.2735 7.57466 37.2735 7.57466C37.2735 7.57466 52.3837 -1.56749 60.2313 1.70906C68.0789 4.98561 63.8882 16.8997 63.8882 16.8997C63.8882 16.8997 81.0754 10.9609 85.2662 19.8251C89.4569 28.6894 79.7809 35.0889 79.7809 35.0889C79.7809 35.0889 91.6949 35.0889 96.6025 44.9039C101.51 54.7189 90.0201 60.9429 90.0201 60.9429C96.0905 64.0146 101.386 72.3011 100.83 78.1521C99.6523 90.0222 87.3067 92.7795 87.3067 92.7795C87.3067 92.7795 90.554 96.7435 88.8645 99.552C87.1751 102.36 81.9238 100.898 81.9238 100.898C81.9238 100.898 84.5421 105.915 82.231 107.48C79.9199 109.045 76.3069 108.628 76.3069 108.628" stroke="black" stroke-linecap="round" stroke-linejoin="round"/>
<path d="M52.8446 27.2264C52.8446 27.2264 46.8546 33.4723 38.9924 34.2695C31.8103 35.0009 35.2697 27.6872 35.2697 27.6872C35.2697 27.6872 29.3163 33.3626 24.9427 32.9092C23.597 32.7702 22.8437 29.7789 24.8696 26.7803" stroke="black" stroke-linecap="round" stroke-linejoin="round"/>
<path d="M27.1587 89.006C23.5457 89.5692 20.7592 90.6955 19.2526 92.0778C12.2899 98.4554 18.8357 101.161 18.8357 101.161C16.9049 104.021 16.4368 110.567 18.1043 115.211C19.7718 119.855 24.2113 117.259 24.2113 117.259C24.2113 117.259 29.7843 128.098 36.7689 128.23C40.9231 128.31 38.868 121.121 38.868 121.121C38.868 121.121 49.3046 126.299 53.4954 124.99C57.6862 123.68 55.3458 119.139 55.3458 119.139C55.3458 119.139 66.1189 124.748 71.9187 121.391C77.7185 118.034 71.1142 112.11 71.1142 112.11C74.2225 111.51 78.4279 107.034 76.4312 102.39C74.8954 98.7991 66.192 98.4042 66.192 98.4042C66.192 98.4042 67.6987 94.6376 66.2286 92.1875C64.7585 89.7374 57.6715 91.6097 57.6715 91.6097C57.6715 91.6097 58.2713 88.2454 55.4774 86.5779C50.431 83.5793 42.225 87.4043 42.225 87.4043C42.225 87.4043 38.5681 83.3891 32.0881 87.0094" stroke="black" stroke-linecap="round" stroke-linejoin="round"/>
<path d="M31.0862 64.7827C31.0862 64.7827 24.204 79.3224 25.0597 85.5464C25.6229 89.6347 28.7678 89.6932 30.1208 88.9546C32.2345 87.799 33.6021 84.4493 33.6021 84.4493" stroke="black" stroke-linecap="round" stroke-linejoin="round"/>
<path d="M55.9749 65.3972C55.6677 59.5096 51.7841 53.1832 43.2637 54.6167C36.3229 55.7796 32.315 59.868 32.8123 67.1012C33.2439 73.6031 37.8661 78.7081 44.3827 78.4668C50.5627 78.2327 56.3333 72.2209 55.9749 65.3972Z" stroke="black" stroke-linecap="round" stroke-linejoin="round"/>
<path d="M17.6876 55.6992C11.5148 56.5769 8.2602 61.6965 8.97694 67.8546C9.65712 73.7056 14.55 78.3791 21.0373 77.5453C22.9858 77.2801 24.822 76.4773 26.3397 75.2269" stroke="black" stroke-linecap="round" stroke-linejoin="round"/>
<path d="M30.5157 65.1558C29.9672 61.36 28.2119 58.5734 25.5789 57.0083" stroke="black" stroke-linecap="round" stroke-linejoin="round"/>
<path d="M58.6589 74.269C58.6589 74.269 57.1157 77.9259 53.8977 79.6739C47.3153 83.3307 42.5248 81.9265 42.5248 81.9265" stroke="black" stroke-linecap="round" stroke-linejoin="round"/>
<path d="M22.9095 80.661C22.9095 80.661 19.0112 82.1896 16.8829 80.2368" stroke="black" stroke-linecap="round" stroke-linejoin="round"/>
<path d="M52.4861 42.9149C47.0008 42.6224 39.9138 45.9721 38.0561 47.9468C34.5602 51.6036 36.8274 52.5179 38.7875 52.2911C40.7476 52.0644 50.6211 49.8776 54.6509 47.6103C55.865 46.9082 54.1682 43.0027 52.4861 42.9149Z" stroke="black" stroke-linecap="round" stroke-linejoin="round"/>
<path d="M28.0363 56.3208C25.0158 57.0083 21.7977 56.4452 19.8157 56.1087C14.0671 55.136 12.1802 53.0589 13.5405 52.1813C15.091 51.1793 21.9952 49.8701 26.6394 51.2744C28.4605 51.8229 29.265 56.0429 28.0363 56.3208Z" stroke="black" stroke-linecap="round" stroke-linejoin="round"/>
<path d="M23.2678 66.8892L23.4799 68.9516" stroke="black" stroke-linecap="round" stroke-linejoin="round"/>
<path d="M22.266 68.0375L24.1749 67.9644" stroke="black" stroke-linecap="round" stroke-linejoin="round"/>
<path d="M22.6826 67.2622L24.1307 68.6664" stroke="black" stroke-linecap="round" stroke-linejoin="round"/>
<path d="M22.6097 68.8492L24.0798 67.2109" stroke="black" stroke-linecap="round" stroke-linejoin="round"/>
<path d="M49.9776 67.9644L49.0853 69.5807" stroke="black" stroke-linecap="round" stroke-linejoin="round"/>
<path d="M48.449 68.52L50.7382 69.266" stroke="black" stroke-linecap="round" stroke-linejoin="round"/>
<path d="M48.0688 69.2001L51.0528 68.4761" stroke="black" stroke-linecap="round" stroke-linejoin="round"/>
<path d="M49.056 67.979L49.919 69.6465" stroke="black" stroke-linecap="round" stroke-linejoin="round"/>
<path d="M55.5506 93.6136C58.7686 96.7073 57.7447 103.992 53.1005 106.939C48.4563 109.887 37.4053 112.461 31.3495 110.655C24.4746 108.607 21.8051 102.076 25.4473 98.7624C29.0896 95.4493 35.9937 96.4659 40.989 95.3104C45.9843 94.1548 52.808 90.9733 55.5506 93.6136Z" stroke="black" stroke-linecap="round" stroke-linejoin="round"/>
<path d="M27.839 97.4898C27.839 97.4898 31.4959 102.149 33.6022 101.439C35.7086 100.73 33.8436 96.2684 33.8436 96.2684C33.8436 96.2684 36.1693 100.657 38.3488 99.779C40.5283 98.9014 39.3947 95.7053 39.3947 95.7053C39.3947 95.7053 42.6346 99.4572 44.1266 98.8794C45.6186 98.3016 44.5289 94.4254 44.5289 94.4254C44.5289 94.4254 46.467 97.5922 48.354 96.7657C50.2409 95.9393 48.9464 93.1089 48.9464 93.1089" stroke="black" stroke-linecap="round" stroke-linejoin="round"/>
<path d="M54.022 105.366C52.3336 104.035 50.4041 103.041 48.3393 102.441C44.4996 101.198 39.5628 102.368 39.2264 103.955C38.9119 105.418 41.7496 106.88 43.5195 106.88" stroke="black" stroke-linecap="round" stroke-linejoin="round"/>
<path d="M35.0063 111.005C35.0063 111.005 33.7703 108.453 35.0063 107.941C36.8128 107.173 39.8627 110.91 39.8627 110.91C39.8627 110.91 38.6193 107.707 39.9138 107.334C41.2084 106.961 43.9364 109.842 43.9364 109.842C43.9364 109.842 42.854 106.515 44.9164 106.237C46.9789 105.959 48.0101 108.87 48.0101 108.87C48.0101 108.87 48.1784 105.396 49.1657 105.213C50.1531 105.03 51.6816 107.144 51.6816 107.144" stroke="black" stroke-linecap="round" stroke-linejoin="round"/>
<path d="M19.801 91.4119C16.4806 85.9705 16.2977 77.3184 16.2977 77.3184" stroke="black" stroke-linecap="round" stroke-linejoin="round"/>
<path d="M73.8642 84.793C73.8642 84.793 73.4765 93.9059 72.4014 98.9816" stroke="black" stroke-linecap="round" stroke-linejoin="round"/>
<path d="M73.3229 65.1558C74.8055 65.4751 76.2039 66.1041 77.4264 67.0015C78.649 67.8988 79.6682 69.0444 80.4172 70.3631C81.2472 71.9233 81.626 73.6838 81.511 75.4473C81.396 77.2107 80.7918 78.9072 79.7663 80.3464C77.5722 83.3816 73.7032 84.4347 73.7032 84.4347" stroke="black" stroke-linecap="round" stroke-linejoin="round"/>
<path d="M23.4432 31.8564C16.4878 37.2979 15.5224 47.0763 15.6687 51.4865" stroke="black" stroke-linecap="round" stroke-linejoin="round"/>
<path d="M73.1546 67.0497C73.1546 67.0497 73.3009 58.8291 72.1453 52.8464C70.9897 46.8638 68.152 33.999 58.2492 28.9671C56.5998 28.1479 54.8522 27.5433 53.0492 27.168" stroke="black" stroke-linecap="round" stroke-linejoin="round"/>
</svg>
