<svg width="96" height="137" viewBox="0 0 96 137" fill="none" xmlns="http://www.w3.org/2000/svg">
<path d="M35.0111 39.8856C25.9678 39.4938 22.6897 37.6248 19.1854 34.2336L15.7942 29.3352C12.403 27.828 3.73658 27.4512 1.47578 25.944C-0.785029 24.4368 4.86698 17.6544 6.37419 20.6688C7.88139 23.6832 17.3014 27.4512 18.4318 25.944C19.5622 24.4368 22.9534 22.176 26.3446 22.5528C28.4396 22.7864 37.9802 21.7992 47.3174 22.3041C52.0651 19.7871 58.0939 19.7871 63.3691 15.7704C69.3075 11.2488 77.9362 5.21996 81.7042 3.33596C84.3196 2.22947 87.2042 1.92265 89.9938 2.45424C90.7474 2.64264 90.6118 1.12037 90.7474 1.07515C93.0082 0.321549 94.8922 5.59676 94.8922 5.59676L93.2569 6.22225C91.6184 12.9638 88.3933 19.2164 83.8501 24.4597C79.3068 29.7029 73.5768 33.7851 67.1371 36.3663L66.3835 36.4944C64.008 35.6427 61.5721 34.9702 59.0962 34.4823C55.5768 33.8568 48.0408 34.3542 43.2705 36.2382C38.5002 38.1222 35.0111 39.8856 35.0111 39.8856Z" fill="#FBF86E"/>
<path d="M21.6347 85.1294L22.2903 92.575L23.7071 100.676C23.7071 100.676 20.1275 100.774 18.0551 99.5458C15.9827 98.3174 14.4755 95.5894 14.9427 93.1402C15.41 90.691 15.7943 88.9049 17.0151 87.5861C18.236 86.2673 21.6347 85.1294 21.6347 85.1294Z" fill="#F8C2A0"/>
<path d="M82.963 96.7132L83.6262 89.652L84.003 85.4167L85.0354 83.5327C85.9941 84.336 86.8496 85.2549 87.5826 86.2683C88.4266 87.5871 89.0898 91.0763 88.1478 92.3951C87.2058 93.7139 85.5931 96.6228 82.963 96.7132Z" fill="#F8C2A0"/>
<path d="M21.4466 82.3944L21.2582 79.0032L22.2906 76.7423C22.2906 76.7423 23.519 71.8439 24.0842 70.4272C24.6494 69.0104 26.345 64.9636 26.7218 63.9311C27.0986 62.8987 30.211 56.3047 31.4318 55.3627C32.168 56.3432 32.9875 57.2585 33.881 58.0982C34.823 58.8518 36.609 58.475 37.9278 56.689C39.1322 54.8204 40.2025 52.8687 41.1307 50.8486L41.417 50.0046C41.8307 50.9451 42.3708 51.8249 43.0222 52.6196C43.6854 53.1848 44.7178 54.2247 46.6018 52.9059C47.8819 51.9244 48.968 50.713 49.8046 49.3339L52.4422 45.5658C52.4422 45.5658 53.1958 48.6782 53.3842 50.0875C53.5726 51.4967 54.8914 54.1418 56.1198 54.3302C57.3482 54.5186 58.9458 53.4862 59.8878 51.881C60.8298 50.2759 62.9022 46.8922 62.9022 46.8922L64.3114 43.501C64.3114 43.501 65.7282 46.7038 66.3838 47.7438C67.0395 48.7837 68.931 50.0046 70.0614 49.7257C71.1319 49.3275 72.1453 48.7904 73.0758 48.1281L74.4851 46.1537C74.4851 46.1537 75.3366 50.6753 75.9018 51.8057C76.6482 53.0228 77.7249 54.0028 79.0067 54.6317C79.3878 54.7838 79.799 54.846 80.2081 54.8133C80.6172 54.7806 81.0133 54.654 81.3654 54.4433C82.3864 56.6715 83.1451 59.0108 83.6262 61.4141C84.0935 64.5265 84.5683 71.4973 84.5683 71.4973L84.003 85.4389L82.9631 96.2456L82.2095 100.767C83.2239 101.682 84.111 102.729 84.8471 103.88C85.6987 105.387 86.9195 110.474 86.2639 112.734C85.6082 114.995 83.2494 120.18 81.5538 122.064C79.8582 123.948 74.2967 127.814 74.2967 127.814C74.2967 127.814 67.891 133.089 63.5578 134.318C59.2246 135.546 52.6306 136.488 48.3954 135.636C45.252 134.986 42.1875 134.001 39.2542 132.697C38.0334 132.132 35.7725 129.969 35.7725 129.216C35.7725 129.216 31.5298 127.143 29.6458 124.98C28.2783 123.485 27.3068 121.672 26.8198 119.705C26.3585 117.825 26.1058 115.899 26.0662 113.963L23.9033 101.34C23.9033 101.34 21.537 88.9884 21.4466 82.3944Z" fill="#F8C2A0"/>
<path d="M62.1711 109.953C56.4438 110.164 52.4949 107.271 48.0034 104.384C43.5119 101.498 37.6263 103.631 34.4386 107.271C30.5651 111.732 32.0723 118.944 36.3678 122.93C40.6633 126.917 50.3697 128.808 58.3353 128.326C66.3009 127.844 76.0073 123.624 79.0744 120.474C83.4453 115.997 84.1009 109.863 80.9434 105.281C77.7858 100.699 72.1111 103.668 70.1518 105.025C68.1924 106.381 66.3084 109.803 62.1711 109.953Z" fill="#DA4F4D"/>
<path d="M31.4019 81.4064C28.9452 72.966 34.0923 65.43 40.9199 63.7344C47.7475 62.0388 53.0981 63.3426 57.0696 71.602C61.0411 79.8615 56.0975 88.0758 49.5863 89.9899C41.0405 92.5069 33.2935 87.925 31.4019 81.4064Z" fill="white"/>
<path d="M62.1408 80.0726C61.1385 74.1267 62.8944 67.4121 71.4628 65.3322C80.5663 63.1241 85.103 71.0671 85.932 75.5209C87.1001 81.8361 83.6712 87.7971 77.5519 89.5002C70.3776 91.4897 63.2335 86.531 62.1408 80.0726Z" fill="white"/>
<path d="M42.7733 103.586C42.7733 103.586 41.869 109.931 45.2376 110.715C48.6062 111.499 49.4201 106.329 49.4201 106.329C49.4201 106.329 48.5082 112.516 51.1006 113.33C53.693 114.144 55.0796 109.622 55.0796 109.622C55.0796 109.622 54.115 114.415 56.3457 115.335C58.5764 116.254 60.4679 110.61 60.4679 110.61C60.4679 110.61 61.0331 115.938 63.8516 115.516C66.67 115.094 66.1124 108.982 66.1124 108.982C66.1124 108.982 67.499 111.717 69.594 111.506C71.689 111.295 71.478 104.483 71.478 104.483C71.478 104.483 72.9852 108.952 75.3214 108.251C77.6576 107.55 76.4141 103.224 76.4141 103.224C76.4141 103.224 74.1985 102.915 72.8119 103.797C71.4253 104.679 70.423 104.679 68.6671 106.186C68.6671 106.186 65.5246 109.577 63.8968 109.954C62.269 110.331 59.3752 110.082 57.2425 109.705C55.1098 109.329 51.3116 106.955 51.3116 106.955L46.6619 104.189C46.6619 104.189 44.1298 103.368 42.7733 103.586Z" fill="white"/>
<path d="M37.875 124.401C37.875 124.401 41.3039 122.035 43.3009 122.826C45.298 123.617 43.8586 126.782 43.8586 126.782C43.8586 126.782 46.2551 123.534 47.6266 124.311C48.9982 125.087 49.5558 128.26 49.5558 128.26C49.5558 128.26 51.2966 123.436 54.0171 124.024C56.7376 124.612 56.1574 128.697 56.1574 128.697C56.1574 128.697 57.5139 124.574 59.3526 124.831C61.1914 125.087 62.5705 127.981 62.5705 127.981C62.5705 127.981 63.083 124.748 64.8916 124.213C66.7003 123.678 68.0944 126.338 68.0944 126.338C68.0944 126.338 68.848 123.06 70.6793 122.532C72.5105 122.005 74.1534 123.685 74.1534 123.685C71.8529 125.005 69.427 126.093 66.9113 126.933C63.2714 128.064 57.6194 129.066 53.5951 128.689C49.5709 128.312 42.0424 126.677 42.0424 126.677L37.875 124.401Z" fill="white"/>
<path d="M34.7323 121.771C34.7323 121.771 36.9027 119.985 38.2215 119.043C40.4447 117.772 42.8643 116.88 45.3807 116.405C47.3551 116.126 49.3371 116.217 50.2791 117.159C51.2211 118.101 52.0651 119.141 51.1231 120.362C50.1811 121.582 49.0507 121.401 47.8299 122.246C47.058 122.819 46.469 123.605 46.1343 124.506L44.0619 126.202C44.0619 126.202 44.6271 124.416 44.1523 123.564C43.6776 122.713 42.8335 122.434 41.1379 122.811C39.9618 123.13 38.8571 123.669 37.8824 124.401C37.8824 124.401 34.8227 122.246 34.7323 121.771Z" fill="#FF0000"/>
<path d="M21.2582 78.1585V67.7965C21.576 64.4428 22.0792 61.1093 22.7654 57.8113C23.1422 56.7788 25.9682 50.1848 27.287 48.2028C28.6058 46.2209 33.3158 41.134 35.4862 39.8077C37.6566 38.4814 45.0042 34.7209 50.7466 34.3441C56.4891 33.9673 62.239 34.4421 65.6302 36.2281C69.0215 38.0141 72.3222 40.0941 73.641 41.6917C74.9598 43.2894 79.1951 49.1373 80.2351 51.3001C80.7649 52.2754 81.1459 53.3245 81.3655 54.4125C81.3655 54.4125 80.7023 55.0757 79.0067 54.6009C77.8054 54.2456 76.791 53.4341 76.1807 52.3401C75.6155 51.5865 74.4851 46.1229 74.4851 46.1229C74.4851 46.1229 72.5106 49.5141 70.0614 49.7025C67.6122 49.8909 65.163 46.4997 64.3114 43.4853C64.3114 43.4853 62.4274 48.4817 61.395 49.8909C60.3626 51.3001 58.3806 54.4125 56.587 54.4125C54.7935 54.4125 53.5726 51.3981 53.3842 50.0793C53.1958 48.7605 52.4422 45.5577 52.4422 45.5577C52.4422 45.5577 49.4278 50.7425 48.109 51.5865C46.7902 52.4305 45.7578 54.2241 43.399 52.9053C41.0402 51.5865 41.4246 49.9889 41.4246 49.9889C41.4246 49.9889 39.729 53.8548 39.3522 54.7968C38.9754 55.7389 36.903 58.286 35.2978 58.3765C33.6926 58.4669 31.4393 55.3621 31.4393 55.3621C31.4393 55.3621 27.6713 61.7677 26.8198 63.4633C25.9682 65.1589 23.1497 72.5065 23.1497 72.5065L22.0193 77.5933L21.2582 78.1585Z" fill="#004E56"/>
<path d="M61.915 110.21C56.1877 110.421 52.2388 107.527 47.7473 104.641C43.2558 101.755 37.3702 103.887 34.1825 107.527C30.309 111.988 31.8162 119.2 36.1117 123.187C40.4072 127.174 50.1136 129.065 58.0792 128.583C66.0448 128.1 75.7512 123.88 78.8183 120.73C83.1892 116.254 83.8448 110.12 80.6872 105.538C77.5297 100.956 71.8475 103.917 69.8881 105.274C67.9288 106.63 66.0598 110.052 61.915 110.21Z" stroke="black" stroke-linecap="round" stroke-linejoin="round"/>
<path d="M35.0716 101.521C33.4312 102.097 31.9262 103.004 30.6496 104.185C29.373 105.366 28.3517 106.795 27.6486 108.386C26.647 110.602 26.1422 113.01 26.1695 115.442C26.1968 117.874 26.7557 120.27 27.8069 122.463C29.1031 125.289 33.2102 128.439 38.3573 129.871" stroke="black" stroke-linecap="round" stroke-linejoin="round"/>
<path d="M63.1055 131.326C67.8768 130.607 72.4499 128.916 76.5422 126.36C82.4127 122.645 86.339 115.139 86.3842 110.685C86.4294 106.231 84.3721 99.2377 76.4291 98.9287" stroke="black" stroke-linecap="round" stroke-linejoin="round"/>
<path d="M63.5577 84.791C63.5577 84.791 65.0121 91.9352 65.2231 95.0325C65.4944 99.0492 63.1658 100.933 61.4551 99.9309C58.0941 97.9188 56.2628 90.2998 56.2628 90.2998" stroke="black" stroke-linecap="round" stroke-linejoin="round"/>
<path d="M46.353 94.3247C46.353 94.3247 40.8743 96.4121 36.104 94.1589C30.9644 91.7323 30.5273 88.4541 30.5273 88.4541" stroke="black" stroke-linecap="round" stroke-linejoin="round"/>
<path d="M68.9236 93.7887C68.9236 93.7887 72.3148 96.0495 77.8613 94.8588C79.0767 94.6311 80.225 94.132 81.2206 93.3987C82.2162 92.6654 83.0334 91.7167 83.6113 90.6235" stroke="black" stroke-linecap="round" stroke-linejoin="round"/>
<path d="M83.9577 85.4839C83.9577 85.4839 83.0157 97.2853 82.4053 100.601" stroke="black" stroke-linecap="round" stroke-linejoin="round"/>
<path d="M74.9147 127.308C74.9147 127.308 68.1323 134.219 58.0566 135.65C49.0888 136.932 38.7795 134.204 35.7274 129.313" stroke="black" stroke-linecap="round" stroke-linejoin="round"/>
<path d="M26.1789 116.004C26.1789 116.004 24.2271 103.947 22.7877 95.4086C20.7756 83.479 20.7756 69.4093 22.1019 61.3458C23.3604 53.659 29.231 41.7521 40.4596 37.1853C51.6883 32.6185 61.3721 33.779 67.0316 36.7934C74.5677 40.7724 78.4336 46.8013 81.5988 54.5408C84.1836 60.8559 84.7488 70.0348 84.6132 72.175" stroke="black" stroke-linecap="round" stroke-linejoin="round"/>
<path d="M20.9868 85.2129C19.2112 85.7979 17.6747 86.9457 16.6099 88.4823C15.5452 90.0189 15.0102 91.8607 15.0861 93.7286C15.2142 100.511 21.3259 100.812 23.1571 100.805" stroke="black" stroke-linecap="round" stroke-linejoin="round"/>
<path d="M31.4019 81.6634C28.9451 73.208 34.0997 65.7097 40.9198 63.9914C47.7399 62.2732 53.098 63.5996 57.0695 71.859C57.9123 73.5392 58.3864 75.38 58.4601 77.2582C58.5339 79.1364 58.2055 81.0087 57.4969 82.7496C56.7884 84.4906 55.7161 86.0602 54.3518 87.3532C52.9875 88.6462 51.3627 89.6328 49.5863 90.2469C43.143 92.3796 33.2934 88.1745 31.4019 81.6634Z" stroke="black" stroke-linecap="round" stroke-linejoin="round"/>
<path d="M62.1406 80.3224C61.1082 74.3765 62.8867 67.6921 71.4627 65.5895C80.5662 63.3815 85.1029 71.3244 85.9319 75.7782C87.0999 82.0934 83.671 88.0544 77.5518 89.7575C70.3775 91.7395 63.2334 86.8109 62.1406 80.3224Z" stroke="black" stroke-linecap="round" stroke-linejoin="round"/>
<path d="M46.1497 124.423C46.9529 122.885 48.2942 121.697 49.9177 121.085C52.5779 120.113 51.6887 117.038 48.7345 116.33C45.7804 115.621 39.0357 117.377 34.808 121.748" stroke="black" stroke-linecap="round" stroke-linejoin="round"/>
<path d="M42.9011 103.654C42.9011 103.654 41.9968 109.999 45.3654 110.783C48.734 111.567 49.5479 106.397 49.5479 106.397C49.5479 106.397 48.636 112.584 51.2284 113.398C53.8208 114.212 55.2527 109.683 55.2527 109.683C55.2527 109.683 54.2881 114.476 56.5187 115.395C58.7494 116.315 60.6334 110.648 60.6334 110.648C60.6334 110.648 61.1986 115.975 64.0171 115.553C66.8355 115.131 66.2779 109.02 66.2779 109.02C66.2779 109.02 67.6645 111.755 69.7595 111.544C71.8545 111.333 71.6435 104.521 71.6435 104.521C71.6435 104.521 73.1507 108.99 75.4869 108.289C77.823 107.588 76.5796 103.262 76.5796 103.262" stroke="black" stroke-linecap="round" stroke-linejoin="round"/>
<path d="M74.1834 123.647C74.1834 123.647 72.518 121.974 70.7093 122.494C68.9007 123.014 68.1245 126.299 68.1245 126.299C68.1245 126.299 66.7303 123.647 64.9217 124.174C63.113 124.702 62.6006 127.942 62.6006 127.942C62.6006 127.942 61.2516 125.056 59.4128 124.8C57.574 124.544 56.2176 128.666 56.2176 128.666C56.2176 128.666 56.7978 124.574 54.0773 123.993C51.3568 123.413 49.616 128.229 49.616 128.229C49.616 128.229 49.0885 125.048 47.6868 124.28C46.2851 123.511 43.9188 126.752 43.9188 126.752C43.9188 126.752 45.3582 123.586 43.3611 122.795C41.3641 122.004 37.9352 124.37 37.9352 124.37" stroke="black" stroke-linecap="round" stroke-linejoin="round"/>
<path d="M81.5691 76.5015L81.4033 79.1165" stroke="black" stroke-linecap="round" stroke-linejoin="round"/>
<path d="M82.8799 77.9033H80.4834" stroke="black" stroke-linecap="round" stroke-linejoin="round"/>
<path d="M82.3237 76.9458L80.5669 78.778" stroke="black" stroke-linecap="round" stroke-linejoin="round"/>
<path d="M82.481 78.9353L80.5669 76.9458" stroke="black" stroke-linecap="round" stroke-linejoin="round"/>
<path d="M38.7944 71.1812L39.8344 73.6454" stroke="black" stroke-linecap="round" stroke-linejoin="round"/>
<path d="M40.4823 71.9565L38.0181 73.2527" stroke="black" stroke-linecap="round" stroke-linejoin="round"/>
<path d="M40.9196 72.9978L37.6489 72.0332" stroke="black" stroke-linecap="round" stroke-linejoin="round"/>
<path d="M39.7967 71.1582L38.9225 73.7883" stroke="black" stroke-linecap="round" stroke-linejoin="round"/>
<path d="M35.2617 39.8842C26.2184 39.4923 22.9403 37.6234 19.436 34.2322L16.0448 29.3338C12.6536 27.8265 3.98719 27.4497 1.72639 25.9425C-0.534419 24.4353 5.11759 17.6529 6.6248 20.6673C8.132 23.6817 17.552 27.4497 18.6824 25.9425C19.8128 24.4353 23.204 22.1745 26.5952 22.5513C28.6903 22.785 38.2309 21.7977 47.568 22.3027C52.3383 19.7932 58.3671 19.7932 63.6423 15.7689C69.5807 11.2473 78.2094 5.2185 81.9774 3.33449C84.5928 2.228 87.4774 1.92119 90.2671 2.45278C91.0207 2.64118 90.885 1.1189 91.0207 1.07369C93.2815 0.320084 95.1655 5.5953 95.1655 5.5953L93.5151 6.22079C91.8758 12.9631 88.6496 19.2162 84.105 24.4596C79.5603 29.7029 73.8288 33.7846 67.3877 36.3649" stroke="black" stroke-linecap="round" stroke-linejoin="round"/>
<path d="M83.2419 96.9021C84.54 96.4663 85.7055 95.7069 86.6285 94.6956C87.5515 93.6842 88.2015 92.4543 88.5172 91.122C89.3687 87.2861 85.2541 83.5859 85.2541 83.5859" stroke="black" stroke-linecap="round" stroke-linejoin="round"/>
<path d="M47.0687 22.4233C43.8056 22.4233 39.5327 27.4499 37.6487 32.092C34.9809 38.6635 30.1127 46.0412 26.7215 74.2937C25.2143 87.1356 25.0451 100.099 26.2166 112.976" stroke="black" stroke-linecap="round" stroke-linejoin="round"/>
<path d="M89.7454 5.97217C89.7454 5.97217 84.4702 6.47708 76.9342 14.7667C67.9663 24.6313 56.5869 26.8243 51.063 28.8364C42.6302 31.9036 28.455 30.5923 24.9357 29.59" stroke="black" stroke-linecap="round" stroke-linejoin="round"/>
<path d="M69.6769 53.1924C70.5446 54.3125 71.6461 55.2299 72.9047 55.8807C74.1633 56.5315 75.5486 56.8999 76.9642 56.9604" stroke="black" stroke-linecap="round" stroke-linejoin="round"/>
<path d="M46.3152 55.4526C46.1313 56.4322 45.7159 57.3536 45.1038 58.1401C44.4916 58.9266 43.7003 59.5555 42.7959 59.9742" stroke="black" stroke-linecap="round" stroke-linejoin="round"/>
<path d="M70.9053 34.8574C73.4148 39.1303 75.2988 42.3934 76.5573 44.9029" stroke="black" stroke-linecap="round" stroke-linejoin="round"/>
<path d="M21.9213 77.8132C24.1821 66.2605 31.4694 55.2051 31.4694 55.2051C31.4694 55.2051 33.278 58.9732 35.4861 58.4682C39.0054 57.7146 40.5126 51.4371 41.5149 49.6737C41.5149 49.6737 42.2685 53.6904 45.0342 53.4417C47.7999 53.193 52.5702 45.4008 52.5702 45.4008C52.5702 45.4008 53.3238 54.6927 56.8432 54.444C60.3625 54.1953 64.3792 43.3887 64.3792 43.3887C64.3792 43.3887 66.1351 49.6662 69.6544 49.6662C73.1737 49.6662 74.4247 45.8982 74.4247 45.8982C74.4247 45.8982 74.7111 50.9548 76.9342 53.1855C79.4437 55.695 81.5688 54.5269 81.5688 54.5269" stroke="black" stroke-linecap="round" stroke-linejoin="round"/>
<path d="M4.11368 22.2944L2.10156 25.0602" stroke="black" stroke-linecap="round" stroke-linejoin="round"/>
<path d="M47.4911 22.0611C49.247 21.1869 53.5727 16.4317 51.4249 15.2787C49.978 14.51 46.7149 17.8862 47.4911 22.0611Z" stroke="black" stroke-linecap="round" stroke-linejoin="round"/>
<path d="M47.5439 22.4225C47.5439 22.4225 43.0223 22.1738 42.3968 20.1617C41.7713 18.1496 44.1527 17.1473 45.4112 17.9009C46.6697 18.6545 47.5439 22.4225 47.5439 22.4225Z" stroke="black" stroke-linecap="round" stroke-linejoin="round"/>
<path d="M54.3261 15.0146C54.3261 15.0146 48.2973 17.7804 47.5437 22.4226" stroke="black" stroke-linecap="round" stroke-linejoin="round"/>
<path d="M48.576 13.7554C47.5837 15.915 47.1932 18.3026 47.4456 20.6659" stroke="black" stroke-linecap="round" stroke-linejoin="round"/>
</svg>
