<svg width="80" height="103" viewBox="0 0 80 103" fill="none" xmlns="http://www.w3.org/2000/svg">
<path d="M31.8045 2.00213C23.72 3.26366 16.9074 7.71866 14.9167 9.5713C12.4015 11.9141 8.68623 15.6411 7.01183 20.2042C5.02096 25.8652 4.22561 31.8797 4.67628 37.8656C5.25384 44.2698 6.43039 50.6053 8.19038 56.7885C6.51597 56.7885 2.92282 60.0324 1.95986 62.0725C0.996896 64.1126 -0.0738618 67.962 3.28214 70.4851C5.27866 71.9921 7.73505 72.7565 10.2313 72.6477C12.0279 80.4548 14.8593 87.3031 19.0561 91.8734C23.2529 96.4437 31.3949 100.163 34.9881 100.524C42.9832 102.178 51.2804 101.554 58.94 98.7217C63.6614 96.9267 67.6857 91.513 70.0787 85.8685C71.7029 82.0335 71.8322 75.9637 71.8753 71.9341C72.0986 71.9861 72.3325 71.9659 72.5436 71.8764C73.3283 71.9311 74.1159 71.8237 74.8575 71.5608C75.5992 71.2979 76.2792 70.8852 76.8554 70.3481C78.652 68.5459 79.5503 66.477 79.0113 63.2331C78.4723 59.9892 74.8001 58.0644 72.5436 58.1005C72.3281 54.7412 71.825 50.798 71.825 50.798L70.9842 32.8988C70.7471 26.5335 67.1539 17.4 64.6387 13.0747C62.1235 8.74951 60.0539 7.40868 60.0539 7.40868C60.0539 7.40868 56.6619 4.40264 53.5431 3.32133C50.51 2.19006 47.3189 1.54303 44.0859 1.40381C41.2114 1.40381 33.8886 1.6417 31.8045 2.00213Z" fill="#F8C2A0"/>
<path d="M18.5888 42.4864C18.6966 35.5948 24.7188 29.0853 32.9614 29.3304C41.2041 29.5755 45.9183 34.9893 45.674 43.4523C45.4512 51.0864 39.6375 55.7649 32.0632 55.7649C24.8337 55.7649 18.4595 50.4809 18.5888 42.4864Z" fill="white"/>
<path d="M53.6221 53.8328C55.5296 55.2962 57.8073 56.1952 60.1975 56.4279C68.1025 57.1488 73.8515 51.2088 74.4336 43.9712C75.0229 36.3732 70.8404 30.2242 63.2733 29.4168C61.5947 29.379 59.9153 29.4343 58.2429 29.5826C56.5917 29.8268 55.0115 30.4216 53.6077 31.3271C50.6038 33.2879 48.4048 37.2815 47.9233 41.7365L53.6221 53.8328Z" fill="white"/>
<path d="M47.4348 40.6914C47.4348 40.6914 55.7062 56.5506 54.9804 63.8819C54.4989 68.6901 50.8411 68.928 49.2314 68.0846C47.7062 67.2846 46.5179 65.9622 45.8826 64.3577" stroke="black" stroke-linecap="round" stroke-linejoin="round"/>
<path d="M8.26955 56.9255C6.29332 47.4172 -2.34461 21.1846 17.0728 7.76913C25.1573 2.18236 36.0446 1.76425 36.0446 1.76425C36.0446 1.76425 44.6681 0.920831 50.1944 2.12469C53.8077 3.03861 57.1668 4.76407 60.0181 7.1708C61.829 8.33862 63.9418 11.9502 64.8113 13.4208C66.0856 15.6147 67.1445 17.9275 67.9733 20.3267L69.6118 25.9351C70.1968 28.4183 70.6525 30.9303 70.9772 33.4611" stroke="black" stroke-linecap="round" stroke-linejoin="round"/>
<path d="M9.45508 69.6416C10.6552 75.8915 13.2351 84.2609 16.2246 88.5645C17.6043 90.5469 25.2074 100.279 40.2987 101.36C60.6287 102.802 67.082 93.6538 69.5828 86.7623C72.4573 78.8327 71.3794 71.5663 71.7387 68.4377C72.3549 62.7727 72.4343 57.0619 71.9758 51.3818" stroke="black" stroke-linecap="round" stroke-linejoin="round"/>
<path d="M18.4668 42.4864C18.5746 35.5948 24.5967 29.0853 32.8394 29.3304C41.0821 29.5755 45.7963 34.9893 45.552 43.4523C45.3292 51.072 39.5442 55.7432 31.9483 55.7432C24.7117 55.7649 18.3447 50.4809 18.4668 42.4864Z" stroke="black" stroke-linecap="round" stroke-linejoin="round"/>
<path d="M48.1174 41.095C48.5917 36.64 50.5177 33.3167 53.5215 31.356C53.5215 31.356 58.8178 28.5518 63.1583 29.4384C70.6033 30.9595 74.9151 36.3949 74.3258 43.9929C73.7653 51.2016 68.0163 57.1921 60.0826 56.4496C57.6901 56.2109 55.4121 55.3043 53.5072 53.8328" stroke="black" stroke-linecap="round" stroke-linejoin="round"/>
<path d="M18.9482 54.4673C18.9482 54.4673 20.2777 58.2302 23.4828 59.2539C26.901 60.3255 30.5638 60.3255 33.982 59.2539" stroke="black" stroke-linecap="round" stroke-linejoin="round"/>
<path d="M58.322 58.9586C58.322 58.9586 60.018 60.8761 65.2424 60.2778C66.5912 60.0829 67.888 59.6212 69.0574 58.9196C70.2269 58.2179 71.2458 57.2903 72.055 56.1904" stroke="black" stroke-linecap="round" stroke-linejoin="round"/>
<path d="M7.91002 56.9111C7.91002 56.9111 1.2627 58.8935 1.2627 65.7418C1.2627 72.5901 10.1737 72.7703 10.1737 72.7703" stroke="black" stroke-linecap="round" stroke-linejoin="round"/>
<path d="M72.2276 57.9927C72.2276 57.9927 77.9191 58.281 78.8749 63.219C79.651 67.2415 78.3431 69.7573 76.7765 70.608C75.2219 71.4848 73.5144 72.0549 71.7461 72.2876" stroke="black" stroke-linecap="round" stroke-linejoin="round"/>
<path d="M65.4508 43.2793L65.2927 45.7807" stroke="black" stroke-linecap="round" stroke-linejoin="round"/>
<path d="M66.7083 44.6201H64.4231" stroke="black" stroke-linecap="round" stroke-linejoin="round"/>
<path d="M66.1766 43.7046L64.5022 45.4563" stroke="black" stroke-linecap="round" stroke-linejoin="round"/>
<path d="M66.3275 45.6077L64.5022 43.7046" stroke="black" stroke-linecap="round" stroke-linejoin="round"/>
<path d="M26.3933 38.3916L27.3778 40.7489" stroke="black" stroke-linecap="round" stroke-linejoin="round"/>
<path d="M27.9959 39.1343L25.646 40.3742" stroke="black" stroke-linecap="round" stroke-linejoin="round"/>
<path d="M28.4126 40.1294L25.2937 39.2139" stroke="black" stroke-linecap="round" stroke-linejoin="round"/>
<path d="M27.349 38.3701L26.5154 40.8932" stroke="black" stroke-linecap="round" stroke-linejoin="round"/>
<path d="M55.9432 76.1294C55.9432 76.1294 58.5806 84.7799 55.9432 86.7046C53.3058 88.6293 51.8542 83.5832 51.8542 83.5832C51.8542 83.5832 53.0687 91.0298 50.1942 91.7507C47.3197 92.4716 47.0825 83.5832 47.0825 83.5832" stroke="black" stroke-linecap="round" stroke-linejoin="round"/>
<path d="M19.2932 5.0083L20.7305 5.96706" stroke="black" stroke-linecap="round" stroke-linejoin="round"/>
<path d="M32.4656 0.920898V2.84563" stroke="black" stroke-linecap="round" stroke-linejoin="round"/>
<path d="M7.31372 16.5425L8.98812 17.5012" stroke="black" stroke-linecap="round" stroke-linejoin="round"/>
<path d="M3.95752 31.6807H5.63911" stroke="black" stroke-linecap="round" stroke-linejoin="round"/>
<path d="M60.7294 5.48389L60.0107 7.17073" stroke="black" stroke-linecap="round" stroke-linejoin="round"/>
<path d="M48.9941 3.0835L47.7939 4.28735" stroke="black" stroke-linecap="round" stroke-linejoin="round"/>
<path d="M69.3529 22.0642L67.4414 21.5884" stroke="black" stroke-linecap="round" stroke-linejoin="round"/>
<path d="M26.2351 9.57129L26.9537 11.013" stroke="black" stroke-linecap="round" stroke-linejoin="round"/>
<path d="M5.87646 48.7363L7.07658 48.9814" stroke="black" stroke-linecap="round" stroke-linejoin="round"/>
<path d="M12.1069 23.2681L13.0627 23.7511" stroke="black" stroke-linecap="round" stroke-linejoin="round"/>
<path d="M53.0688 25.6685C56.0541 24.2138 59.48 23.9559 62.6482 24.9476" stroke="black" stroke-linecap="round" stroke-linejoin="round"/>
<path d="M38.2003 25.9135C38.2003 25.9135 31.2511 22.5471 26.2207 26.3965" stroke="black" stroke-linecap="round" stroke-linejoin="round"/>
</svg>
