<svg width="147" height="153" viewBox="0 0 147 153" fill="none" xmlns="http://www.w3.org/2000/svg">
<path d="M4.71019 78.9793C4.76089 84.1501 7.45146 88.9777 8.74182 91.5584C10.0313 94.1383 13.2577 99.14 14.87 101.076C16.4823 103.009 19.2253 108.333 20.1928 109.945C21.1604 111.557 22.9341 116.397 24.063 118.655C25.192 120.913 28.4175 126.396 29.3859 128.977C30.3534 131.558 33.4175 134.623 34.8684 137.364C36.321 140.107 38.579 141.396 40.5141 143.333C41.6439 144.461 44.5457 146.559 46.8036 147.364C49.0615 148.171 52.7712 149.461 55.3519 150.105C57.9318 150.751 63.2538 151.88 66.4784 151.88C69.7048 151.88 73.0916 150.268 74.867 149.139C76.6416 148.01 81.1557 145.107 82.6067 143.011C84.0601 140.913 84.704 138.01 85.1891 134.463C85.6716 130.915 86.4786 123.656 86.9628 121.076C87.447 118.495 88.0934 114.465 88.4154 113.012C88.7374 111.561 88.8988 108.335 89.383 107.044C89.868 105.755 93.8988 99.14 94.8672 96.8838C95.8348 94.6259 96.4795 89.6267 97.1251 86.2398C97.7707 82.8521 98.0927 76.0784 98.0927 73.9818C98.0927 71.8853 97.6093 61.4019 97.6093 58.1764C97.6093 54.9509 96.3198 46.0807 95.6733 44.1455C95.0294 42.2096 93.5785 35.1147 93.5785 35.1147C93.5785 35.1147 92.3684 30.3952 90.0725 26.3239C87.856 22.3953 84.5671 19.1276 83.4593 18.0984C81.2014 16.0027 56.2037 8.58334 48.6238 11.1641C41.0431 13.7448 26.6894 16.808 23.1411 21.0019C19.5903 25.1932 13.6219 34.3863 12.978 39.0635C12.3324 43.7416 10.0744 57.2883 10.0744 57.2883C10.0744 57.2883 4.66963 74.8666 4.71019 78.9793Z" fill="#F5D233"/>
<path d="M40.8775 102.85C40.8775 102.85 38.2967 103.818 37.0064 103.494C35.716 103.172 32.6528 102.689 32.6528 102.689C32.6528 102.689 33.7818 103.335 35.3941 105.43C37.0064 107.528 37.0064 107.528 37.9756 109.624C38.9432 111.72 42.0073 113.494 42.6512 114.785C43.2968 116.075 44.5872 117.85 44.7486 119.301C44.9083 120.751 45.0705 124.3 45.2319 125.269C45.3925 126.237 46.3609 131.88 47.4898 134.301C48.6188 136.72 49.5863 140.269 52.0057 142.041C54.425 143.816 57.8119 144.46 59.5856 145.913C61.3601 147.364 61.3601 148.331 65.554 148.493C69.7462 148.653 72.6489 148.171 75.7138 146.881C78.7787 145.59 80.391 142.849 81.3586 140.267C82.3261 137.688 82.9709 134.463 83.9385 131.881C84.9069 129.301 86.1964 127.365 86.1964 127.365C86.1964 127.365 85.3911 133.128 85.2094 134.157C85.0277 135.185 84.5444 139.056 83.8185 140.931C83.0951 142.806 82.4276 143.532 80.6133 145.346C80.6133 145.346 75.4138 149.157 73.8387 149.883C72.2661 150.609 69.3626 151.999 67.8508 151.999C66.339 151.999 63.193 152.06 59.6261 151.152C56.0576 150.246 54.6667 150.305 51.5823 149.157C48.4979 148.009 45.4736 147.645 42.5109 145.044C42.5109 145.044 40.6358 143.654 39.8499 142.868C39.0632 142.082 36.8864 140.208 36.8864 140.208C36.8864 140.208 36.2611 137.143 35.8166 136.197C35.3746 135.25 34.1646 133.677 33.862 133.254C33.5595 132.83 31.6244 130.229 31.2002 129.504C30.7777 128.779 29.8093 126.54 29.5676 126.057C29.3251 125.574 28.2975 121.399 28.2975 121.399C28.2975 121.399 26.4832 118.254 25.7565 116.923C25.0306 115.593 23.398 112.146 23.0964 111.237C22.7947 110.33 20.4362 107.85 20.0728 107.185C19.7095 106.52 17.8952 103.435 17.8952 103.435C17.8952 103.435 16.1612 100.491 15.6364 99.9062C15.1134 99.3223 13.0566 96.2971 13.0566 96.2971C13.0566 96.2971 10.2739 94.422 9.85053 93.6961C9.42717 92.9711 7.12954 88.555 6.76702 87.4666C6.40366 86.379 5.31526 83.2321 5.19442 82.4479L4.71107 79.6053C4.71107 79.6053 2.53427 77.1859 2.17091 76.0975C1.80755 75.0083 0.840832 73.134 1.02251 70.7147C1.20335 68.2962 1.92839 65.8761 1.92839 65.8761L2.81651 63.8201L3.62182 62.4486C3.62182 62.4486 5.39638 59.6262 6.12226 59.2232C6.84814 58.8201 7.6543 57.6911 9.10606 56.8047L10.0736 59.3043C10.0736 59.3043 11.1215 61.4008 11.4451 61.9653C11.7671 62.5298 13.6219 63.9012 13.6219 63.9012C13.6219 63.9012 14.9917 64.546 15.3956 64.546C15.7995 64.546 16.2829 64.5468 16.4443 64.224C16.6057 63.9012 16.6986 63.0951 16.686 62.8526C16.5254 59.7885 17.8149 57.9336 17.8149 57.9336C17.8149 57.9336 18.54 65.8364 19.75 68.1746C20.5782 69.7767 21.8474 72.2882 23.1369 73.336C24.4273 74.3838 25.7988 75.6742 26.5246 76.0781C27.2497 76.4812 32.5725 78.8185 33.5401 79.0611C34.5085 79.3036 37.5717 80.8356 37.5717 80.8356C37.5717 80.8356 37.7331 83.1747 37.4906 84.6247C37.2498 86.0773 36.6853 87.9305 36.3616 88.8186C36.0397 89.7051 36.1208 91.641 36.1208 91.641C36.1208 91.641 34.9099 92.9314 34.5888 93.577C34.266 94.2226 33.8637 96.2371 34.1848 97.1253C34.5068 98.0117 35.6366 99.7846 36.6844 100.27C37.7323 100.75 40.8775 102.85 40.8775 102.85Z" fill="#EC9B4B"/>
<path d="M84.4237 116.436C84.5048 115.901 84.5445 111.961 84.6645 110.509C84.7871 109.058 84.9071 104.582 85.1479 103.856C85.3904 103.131 86.2371 100.105 86.2371 100.105C86.2371 100.105 87.8908 99.7835 88.7773 99.0584C89.6637 98.3325 90.6321 96.6408 90.7927 95.6715C90.9541 94.7031 90.633 92.9303 89.7448 91.5588C88.8584 90.1873 86.8413 89.3009 86.8413 89.3009L84.9865 88.253C84.9865 88.253 83.6167 84.3017 86.358 82.2043C87.0399 81.6846 91.3419 79.6042 93.3573 76.306C94.2886 74.7833 95.2705 69.8424 95.4302 68.7134C95.5916 67.5845 95.5113 61.7783 95.9152 60.6493C96.3183 59.5203 96.9631 65.4068 97.2031 66.7783C97.4456 68.1489 96.8591 77.2119 96.6546 79.0557C96.1054 84.0034 95.6153 87.9826 95.371 88.9502C94.455 92.6159 93.452 96.7194 93.1326 97.3658C92.8089 98.0114 91.68 100.188 90.5502 101.719C89.4212 103.251 88.2246 105.439 87.7278 109.461C87.5097 111.214 84.9848 116.878 84.9054 117.364C84.8259 117.847 84.3426 116.961 84.4237 116.436Z" fill="#EC9B4B"/>
<path d="M31.1199 37.1258C31.1199 37.1258 34.7485 35.9166 35.5546 35.6741C36.3608 35.4324 38.7801 34.7065 41.6025 34.4648C44.4249 34.2231 47.7315 34.2231 49.021 34.2231C50.3114 34.2231 53.1338 34.5451 53.8605 34.6262C54.5855 34.7065 57.8118 35.271 59.0211 35.5938C60.2312 35.9166 62.9716 36.3999 64.1005 36.5622C65.2295 36.7244 67.326 36.885 68.0519 36.885C68.7778 36.885 70.6343 36.5622 72.1647 36.4016C73.6967 36.2402 75.6327 35.6749 76.3585 35.5946C77.0819 35.5143 79.3423 34.9499 80.1476 34.9499C80.9538 34.9499 83.1306 34.8696 85.0649 34.9499C87.0008 35.0301 89.6627 35.1915 90.0658 35.1915C90.4697 35.1915 89.0973 35.9174 87.8078 36.4016C86.5175 36.885 79.8248 37.3692 77.3244 37.9337C74.824 38.4981 67.5669 39.2232 62.6496 38.9012C57.7299 38.5793 52.811 36.563 49.9074 36.563C47.0048 36.563 40.231 36.6442 38.3762 36.9661C36.523 37.2872 30.4751 38.0934 31.1199 37.1258Z" fill="#EC9B4B"/>
<path d="M30.3942 26.9662C30.2641 26.3138 32.8135 24.4666 34.5881 23.7398C36.3618 23.0148 39.9101 20.1924 45.7974 20.2727C51.683 20.353 56.6028 21.4819 59.1032 21.7244C61.602 21.9661 69.585 21.8047 72.8916 21.4016C76.1973 20.9986 82.3255 22.6117 82.8088 23.1754C83.2922 23.7398 79.8267 22.8534 77.7302 22.9337C75.6328 23.0148 67.8096 24.7885 66.6012 25.0302C65.3911 25.2727 57.4089 25.2727 54.1818 24.7074C50.9563 24.1438 46.3821 23.3486 44.1023 23.4179C38.7811 23.5793 30.4753 27.3684 30.3942 26.9662Z" fill="#EC9B4B"/>
<path d="M41.2814 17.3695C41.4225 16.9927 45.635 16.4831 49.5872 16.08C53.5377 15.6761 63.6983 16.3217 65.8751 16.5634C68.0519 16.8051 74.1006 17.6121 74.5037 18.0151C74.9076 18.4182 67.8094 18.6599 66.0365 18.5788C64.2619 18.4985 58.6974 18.7402 52.0048 17.8529C46.6203 17.1397 41.038 18.0143 41.2814 17.3695Z" fill="#EC9B4B"/>
<path d="M24.2651 43.0934C24.991 42.5297 25.3941 40.9977 25.6366 39.9482C25.8783 38.8995 25.5555 34.5451 25.5555 33.1744C25.5555 31.8029 25.798 28.9003 26.2814 27.6099C26.7647 26.3204 26.6844 24.0625 26.4419 23.2555C26.2002 22.4493 24.1029 24.5458 22.8945 26.1581C21.6844 27.7713 21.3616 29.7875 21.9261 31.3999C22.4914 33.0122 24.1037 39.0609 24.1037 39.867C24.1037 40.6732 23.8156 43.4441 24.2651 43.0934Z" fill="#EC9B4B"/>
<path d="M3.21853 62.9305C3.21853 62.9305 3.37993 60.834 3.37993 59.3822C3.37993 56.9629 2.24928 53.2549 2.89572 50.8356C2.89572 50.8356 3.37993 41.8039 3.05712 40.0294C2.73432 38.2556 2.41068 33.417 2.89572 27.7722C3.25909 23.5386 4.41255 21.2748 6.28345 17.9344C8.54052 13.9028 12.0888 10.9992 12.0888 10.9992C12.0888 10.9992 11.6046 13.7405 11.9274 14.3861C15.7233 11.9144 20.4377 9.6193 23.217 9.06411C26.4425 8.41851 34.2303 4.23224 37.8943 3.90352C40.9381 3.62973 44.265 2.58865 47.4093 2.61316C48.7056 2.62246 59.8279 1 59.8279 1C59.8279 1 57.8928 2.77456 56.7604 3.93986C64.6276 4.468 70.2538 4.70968 72.7298 4.70968C77.0834 4.70968 82.8896 6.32199 82.8896 6.32199L79.343 7.45095C82.2465 7.45095 84.9861 9.86943 86.1167 10.8378C87.2178 11.7826 89.987 13.58 89.987 13.58L86.1167 14.3861L90.6326 18.4177C90.6326 18.4177 85.1492 18.5791 82.7299 18.5791C80.3105 18.5791 63.8587 16.966 61.2788 16.6432C58.6981 16.3204 48.3769 16.4818 44.6672 16.9651C40.9567 17.4493 35.7961 18.2563 30.4741 20.3529C28.4714 21.1413 23.8617 24.7073 22.41 27.4486C20.9582 30.1898 24.1786 37.3692 24.3451 39.8671C24.6687 44.7066 21.9258 49.383 19.8293 51.4795C16.1196 55.1892 16.6046 60.9945 16.6046 63.4147C16.6046 65.8332 12.4108 63.8989 11.1204 61.4796C10.7824 60.8424 9.02472 56.8015 9.02472 56.8015C9.02472 56.8015 6.25556 59.1067 4.99309 60.5923C3.62076 62.2055 3.21853 62.9305 3.21853 62.9305Z" fill="#682527"/>
<path d="M68.6173 59.8267C67.7705 58.1333 67.528 56.5607 66.8038 54.1414C66.0779 51.722 66.1971 50.0286 66.5613 48.9402C66.9247 47.8518 68.3756 45.6742 69.7073 44.1016C71.0374 42.5298 73.6993 40.473 75.6352 39.7471C77.5712 39.0212 80.5947 38.2954 82.529 38.5379C84.4649 38.7804 87.8518 40.1105 89.1819 41.3197C90.5111 42.5298 92.1462 45.6759 92.6896 47.4893C93.7772 51.1178 93.413 53.658 93.1721 55.3514C92.9304 57.0449 92.5662 60.5526 91.1153 62.1252C89.6627 63.6969 88.2118 65.3912 85.6725 65.8754C83.1323 66.3588 80.5922 66.4796 78.4154 66.4796C76.2369 66.4796 74.4226 66.1171 73.0925 65.0287C71.7625 63.9386 69.584 61.7618 68.6173 59.8267Z" fill="#FAFCB5"/>
<path d="M50.352 66.9637C48.2605 68.1045 45.8775 67.5679 44.4249 67.5679C42.974 67.5679 40.313 66.9637 38.3779 66.6003C36.4419 66.237 34.2651 64.6644 33.0551 63.2135C31.845 61.7625 30.7557 58.9799 30.2724 55.9555C29.789 52.932 30.1515 47.61 30.9983 45.7949C31.845 43.9806 34.5051 41.1988 35.9577 40.1095C37.4087 39.0203 40.5539 37.811 42.4898 37.811C44.4241 37.811 46.6009 38.7794 49.2636 39.6253C51.9237 40.472 53.9805 42.2863 55.3106 43.6164C56.6415 44.9473 58.4566 48.0917 58.5766 49.7859C58.6975 51.4785 58.6975 55.8338 57.7299 58.2531C56.7624 60.6725 54.9481 63.4543 53.7388 64.5435C52.5296 65.6319 51.682 66.237 50.352 66.9637Z" fill="#FAFCB5"/>
<path d="M29.1434 37.6922C28.1496 37.9212 25.7565 38.8212 25.9187 36.5633C26.0793 34.3054 26.0793 33.9826 29.789 32.2088C33.4995 30.4343 35.4346 29.4667 38.6601 29.3053C41.8847 29.1439 49.4655 30.4343 52.8524 31.2404C56.2392 32.0474 63.0121 32.2088 65.9148 32.2088C68.8175 32.2088 74.9465 30.9185 78.1728 30.2729C81.3991 29.6273 87.6878 29.3045 90.5905 30.1115C94.3255 31.1492 95.6201 32.5207 95.7503 33.1755C96.0739 34.7887 94.2985 35.2729 90.9116 35.2729C87.5247 35.2729 83.1695 34.7887 79.944 35.1115C76.7177 35.4343 70.9123 37.0466 67.0404 36.8861C63.1702 36.7247 57.849 35.4343 54.6227 34.7896C51.3972 34.144 41.5594 34.3054 39.1401 34.7896C36.7241 35.2738 31.2407 37.2089 29.1434 37.6922Z" fill="#F5D233"/>
<path d="M12.3307 80.5915C11.342 80.867 4.42796 79.3823 3.1376 73.7383C1.87259 68.2025 2.89592 65.2703 4.34768 63.0124C5.79944 60.7553 8.37931 58.5768 8.78324 58.8996C9.18547 59.2224 12.089 66.0764 13.0574 69.7861C14.0241 73.4949 15.2333 79.7853 12.3307 80.5915Z" fill="#F5D233"/>
<path d="M46.9253 41.5613C47.3546 41.5005 49.9091 41.5613 51.4411 42.8517C52.9732 44.1412 55.2302 45.996 55.957 48.1737C56.6837 50.3513 56.6829 54.3018 56.3609 55.5119C56.0389 56.722 54.4258 58.8988 53.6999 59.1405C52.9749 59.3821 52.4095 59.2216 52.5709 58.0918C52.7315 56.9628 53.6188 53.8176 53.5385 52.6887C53.4582 51.5597 53.4574 49.3821 53.0551 47.9303C52.6521 46.4794 51.2012 44.786 50.4753 44.0601C49.7494 43.3342 47.8937 42.0447 47.2489 42.0447C46.6025 42.0455 46.3608 41.6424 46.9253 41.5613Z" fill="#E6D1F3"/>
<path d="M88.6958 59.8675C88.3739 60.1091 88.6958 58.4968 88.6139 56.7223C88.5801 55.9575 88.1314 54.706 88.1314 52.6906C88.1314 51.3175 87.5669 48.7384 86.9204 47.2064C86.2765 45.6744 85.227 43.8998 83.9375 43.0936C82.6488 42.2875 80.9554 41.3199 80.7129 41.0782C80.472 40.8357 80.6317 40.6743 81.3585 40.6743C82.0852 40.6743 83.3739 40.8357 84.3423 41.1585C85.3098 41.4805 87.4055 42.6103 88.1314 43.4164C88.8564 44.2226 90.4704 46.5616 90.9538 47.9314C91.4371 49.3029 91.5994 52.2056 91.5994 53.5771C91.5994 54.9477 91.0349 56.56 90.7924 57.2859C90.5515 58.0126 89.371 59.3621 88.6958 59.8675Z" fill="#E6D1F3"/>
<path d="M41.325 50.4341L41.8683 53.0165" stroke="#324265" stroke-miterlimit="10" stroke-linecap="round" stroke-linejoin="round"/>
<path d="M40.0464 52.0952L42.8688 51.3896" stroke="#324265" stroke-miterlimit="10" stroke-linecap="round" stroke-linejoin="round"/>
<path d="M40.6309 50.9839L42.6572 52.5582" stroke="#324265" stroke-miterlimit="10" stroke-linecap="round" stroke-linejoin="round"/>
<path d="M40.752 53.0032L42.3896 50.731" stroke="#324265" stroke-miterlimit="10" stroke-linecap="round" stroke-linejoin="round"/>
<path d="M85.6721 51.0415L88.3052 50.8599" stroke="#324265" stroke-miterlimit="10" stroke-linecap="round" stroke-linejoin="round"/>
<path d="M86.9565 52.1955L87.0748 49.9385" stroke="#324265" stroke-miterlimit="10" stroke-linecap="round" stroke-linejoin="round"/>
<path d="M86.1216 51.8066L87.9595 50.0151" stroke="#324265" stroke-miterlimit="10" stroke-linecap="round" stroke-linejoin="round"/>
<path d="M87.963 51.8929L86.1116 50.0288" stroke="#324265" stroke-miterlimit="10" stroke-linecap="round" stroke-linejoin="round"/>
<path d="M68.5361 59.7467C67.6894 58.0533 67.4486 56.4807 66.7227 54.0613C65.9977 51.642 66.1185 49.9477 66.4802 48.8602C66.8444 47.7709 68.2953 45.5941 69.6271 44.0215C70.9563 42.4489 73.619 40.393 75.5549 39.6671C77.4909 38.9412 80.5136 38.2154 82.4495 38.457C84.3838 38.6996 87.7707 40.0296 89.1008 41.2389C90.4325 42.4489 92.0651 45.5941 92.6085 47.4084C93.696 51.037 93.3344 53.5771 93.0918 55.2706C92.8493 56.9632 92.4859 60.4717 91.035 62.0443C89.5841 63.6161 88.1315 65.3095 85.5922 65.7946C83.052 66.2779 80.5119 66.3988 78.3351 66.3988C76.1583 66.3988 74.3423 66.0362 73.0122 64.947C71.6822 63.8586 69.5045 61.6818 68.5361 59.7467Z" stroke="black" stroke-miterlimit="10" stroke-linecap="round" stroke-linejoin="round"/>
<path d="M50.2717 66.8826C48.1794 68.0234 45.7964 67.4868 44.3446 67.4868C42.8929 67.4868 40.2319 66.8826 38.2968 66.5193C36.3608 66.1559 34.184 64.5833 32.9739 63.1324C31.7638 61.6815 30.6754 58.8988 30.1921 55.8745C29.7087 52.8501 30.0712 47.5289 30.9171 45.7138C31.7638 43.8995 34.4248 41.1177 35.8766 40.0285C37.3284 38.9392 40.4727 37.73 42.4087 37.73C44.3438 37.73 46.5206 38.6984 49.1824 39.5443C51.8426 40.391 53.8994 42.2053 55.2295 43.5353C56.5604 44.8663 58.3755 48.0106 58.4955 49.704C58.6172 51.3975 58.6172 55.7519 57.6488 58.1721C56.6812 60.5914 54.8669 63.3732 53.6577 64.4616C52.4485 65.5517 51.6026 66.1568 50.2717 66.8826Z" stroke="black" stroke-miterlimit="10" stroke-linecap="round" stroke-linejoin="round"/>
<path d="M63.3062 57.6152C63.3062 57.6152 64.2036 60.2847 64.5459 61.1973C65.2718 63.1324 65.5143 64.4625 65.7568 65.1892C65.9976 65.9143 66.6508 67.7429 66.8444 68.5761C67.3286 70.6329 67.9336 72.4472 67.9336 72.9305C67.9336 73.4139 68.7803 76.1966 69.0228 77.285C69.2628 78.3734 69.1437 79.8251 68.0544 80.0677C66.9669 80.3085 64.1842 81.2761 62.4908 81.2761C60.7965 81.2761 59.1039 81.0352 57.6513 81.2761C56.1995 81.5186 54.3853 81.1552 54.3853 81.1552" stroke="black" stroke-miterlimit="10" stroke-linecap="round" stroke-linejoin="round"/>
<path d="M40.3535 97.1218C40.3535 97.1218 43.6187 95.6708 44.9496 95.3083C46.2797 94.9441 52.4484 93.5752 65.2709 92.649C72.8745 92.0981 79.0584 92.5257 81.4794 93.0107C83.8987 93.4957 86.6814 94.9467 86.6814 94.9467" stroke="black" stroke-miterlimit="10" stroke-linecap="round" stroke-linejoin="round"/>
<path d="M89.835 69.6254C89.835 69.6254 86.7008 71.236 84.9879 71.4938C82.1723 71.918 79.6304 71.8749 75.9977 69.9431C73.9907 68.8767 72.4426 66.8047 72.4426 66.8047" stroke="black" stroke-miterlimit="10" stroke-linecap="round" stroke-linejoin="round"/>
<path d="M55.6097 65.7188C55.6097 65.7188 53.029 69.676 49.2061 71.3416C45.3832 73.0088 39.4393 73.2184 36.5991 71.8469" stroke="black" stroke-miterlimit="10" stroke-linecap="round" stroke-linejoin="round"/>
<path d="M40.5952 88.8984C40.5952 88.8984 38.1751 89.937 36.6033 91.1961C34.184 93.132 33.6998 95.673 34.304 97.4856C34.8862 99.2323 36.3608 100.268 38.5384 101.115C40.7161 101.962 43.3771 101.719 43.3771 101.719" stroke="black" stroke-miterlimit="10" stroke-linecap="round" stroke-linejoin="round"/>
<path d="M85.9548 88.8984C85.9548 88.8984 88.8583 90.3494 89.825 91.6794C90.7917 93.0087 91.5185 95.3088 89.9459 97.849C88.375 100.39 84.1414 100.39 84.1414 100.39" stroke="black" stroke-miterlimit="10" stroke-linecap="round" stroke-linejoin="round"/>
<path d="M91.8008 30.0308C90.2028 26.1116 87.9305 22.2895 84.0603 18.7412" stroke="black" stroke-miterlimit="10" stroke-linecap="round" stroke-linejoin="round"/>
<path d="M4.71021 79.0594C5.03301 84.2209 7.45148 89.0595 8.74184 91.6402C10.0314 94.2218 13.2577 99.221 14.87 101.155C16.4823 103.091 19.2253 108.414 20.1928 110.026C21.1604 111.639 22.9349 116.478 24.0631 118.737C25.192 120.995 28.4175 126.477 29.3859 129.059C30.3535 131.639 33.4175 134.704 34.8685 137.445C36.3211 140.186 38.579 141.477 40.5141 143.413C41.6439 144.542 44.5457 146.64 46.8045 147.445C49.0616 148.252 52.7712 149.54 55.352 150.186C57.9318 150.832 63.2538 151.961 66.4785 151.961C69.7048 151.961 73.0917 150.349 74.8671 149.22C76.6416 148.091 81.1558 145.188 82.6067 143.092C84.0601 140.994 84.7041 138.091 85.1891 134.544C85.6716 130.996 86.4786 123.739 86.9645 121.157C87.447 118.577 88.0935 114.546 88.4154 113.093C88.7374 111.64 88.8988 108.416 89.383 107.125C89.868 105.836 93.8988 99.221 94.8672 96.9648C95.8348 94.7069 96.4795 89.706 97.1251 86.3191C97.7707 82.9322 98.0927 76.1593 98.0927 74.0628C98.0927 71.9663 97.6093 61.4828 97.6093 58.2565C97.6093 55.031 96.3198 46.1608 95.6734 44.2257C95.0295 42.2905 93.5785 35.1948 93.5785 35.1948" stroke="black" stroke-miterlimit="10" stroke-linecap="round" stroke-linejoin="round"/>
<path d="M12.2902 83.4132C12.2902 83.4132 3.25849 81.964 1.32338 73.5762C0.0761137 68.1756 2.93569 60.6735 9.22609 56.8032" stroke="black" stroke-miterlimit="10" stroke-linecap="round" stroke-linejoin="round"/>
<path d="M3.25865 62.9315C3.25865 62.9315 3.41921 60.835 3.41921 59.3832C3.41921 56.9647 2.29025 53.2559 2.93585 50.8366C2.93585 50.8366 3.41921 41.8049 3.09725 40.0312C2.77361 38.2566 2.45165 33.4188 2.93585 27.774C3.29921 23.5404 4.45268 21.2766 6.32273 17.9362C8.58065 13.9046 12.1289 11.0011 12.1289 11.0011C12.1289 11.0011 11.6456 13.7423 11.9675 14.3879C15.7634 11.9162 20.4787 9.62112 23.2571 9.06593C26.4826 8.42033 34.2704 4.23406 37.9336 3.9045C40.9782 3.63071 44.3059 2.58963 47.4495 2.61498C48.7466 2.62428 59.8688 1.00098 59.8688 1.00098C59.8688 1.00098 57.9329 2.77469 56.8005 3.94083C64.6678 4.46813 70.294 4.70981 72.7699 4.70981C77.1252 4.70981 82.9314 6.32297 82.9314 6.32297L79.3831 7.45108C82.2866 7.45108 85.0279 9.8704 86.1569 10.838C87.2605 11.7827 90.0271 13.5792 90.0271 13.5792L86.1569 14.3854L90.6727 18.417C90.6727 18.417 85.191 18.5784 82.77 18.5784C80.3507 18.5784 63.9005 16.9653 61.3189 16.6425C58.7399 16.3205 48.4179 16.4819 44.7073 16.9653C40.9985 17.4495 35.8379 18.2565 30.5151 20.353C28.5132 21.1414 23.9019 24.7074 22.451 27.4487C20.9992 30.1908 24.2204 37.3693 24.3861 39.8681C24.7089 44.7076 21.9676 49.3831 19.8694 51.4805C16.1606 55.1902 16.6448 60.9955 16.6448 63.4148C16.6448 65.8342 12.4517 63.899 11.1614 61.4797C10.8225 60.8434 9.06485 56.8016 9.06485 56.8016" stroke="black" stroke-miterlimit="10" stroke-linecap="round" stroke-linejoin="round"/>
<path d="M29.0638 37.611C28.0701 37.8408 25.6769 38.7399 25.8383 36.4828C25.9997 34.2249 25.9997 33.9021 29.7094 32.1284C33.4191 30.3538 35.3542 29.3863 38.5797 29.2257C41.8043 29.0643 49.3851 30.3538 52.772 31.1609C56.1588 31.967 62.9334 32.1284 65.8344 32.1284C68.7396 32.1284 74.8669 30.838 78.0924 30.1924C81.3187 29.5468 87.6074 29.2249 90.5101 30.0319C94.2468 31.0696 95.5406 32.4411 95.6724 33.096C95.9944 34.7091 94.2198 35.1925 90.8321 35.1925C87.4452 35.1925 83.0925 34.7083 79.8644 35.0311C76.6398 35.3539 70.8328 36.967 66.9617 36.8056C63.0898 36.6451 57.7686 35.3547 54.5423 34.7091C51.3177 34.0644 41.479 34.2249 39.0597 34.7091C36.642 35.1933 31.1603 37.1276 29.0638 37.611Z" stroke="black" stroke-miterlimit="10" stroke-linecap="round" stroke-linejoin="round"/>
<path d="M32.9349 78.4148C32.9349 78.4148 27.7734 77.2867 26.1603 75.8341C24.5479 74.3824 22.6128 73.2543 20.8383 70.1893C19.8377 68.4629 18.4189 65.3507 18.4189 62.2866" stroke="black" stroke-miterlimit="10" stroke-linecap="round" stroke-linejoin="round"/>
<path d="M29.064 27.4512C29.064 27.4512 33.6694 24.8696 35.3535 24.2257C40.8369 22.1292 43.5782 21.9678 46.6431 21.9678C49.7072 21.9678 54.223 23.2581 57.2871 23.9037C60.3512 24.5493 64.867 24.3879 68.4153 23.5809C71.9636 22.7748 76.8014 21.9686 80.0277 22.4528C83.2515 22.9362 85.9944 24.5493 86.6383 25.0335" stroke="black" stroke-miterlimit="10" stroke-linecap="round" stroke-linejoin="round"/>
<path d="M124.447 131.938C123.699 131.94 116.081 126.968 109.887 122.464C106.68 120.132 103.051 117.441 99.3189 114.646C95.7309 111.957 86.7009 106.946 83.2076 104.29C73.052 96.5719 70.8456 96.0294 70.8456 96.0294C70.8456 96.0294 69.1852 95.399 70.0581 93.3008C70.9293 91.2026 74.5257 90.5342 74.5257 90.5342C74.5257 90.5342 76.2327 90.0424 78.5278 91.5989C80.8237 93.1538 91.139 97.1989 93.5803 97.973C96.0216 98.747 101.344 100.539 101.344 100.539L109.007 102.763L115.942 106.306L122.339 109.265L127.759 111.395L132.496 113.726L138.407 117.563C138.407 117.563 142.377 124.919 143.166 127.65C143.953 130.379 145.082 133.011 143.77 134.868C142.458 136.723 142.852 138.09 138.023 138.004C133.192 137.918 128.599 134.809 128.599 134.809L124.447 131.938Z" fill="#F9FFFF"/>
<path d="M138.03 117.693C136.558 117.634 134.455 118.031 133.14 118.758C131.826 119.483 130.877 120.521 130.877 120.521C130.877 120.521 126.85 123.622 126.341 124.254C125.83 124.886 125.155 125.431 125.377 126.68C125.6 127.932 125.604 129.387 125.973 130.666C126.343 131.948 126.941 133.299 127.472 134.185C128.004 135.071 129.771 135.67 130.267 135.943C130.76 136.215 133.408 137.461 134.075 137.615C134.744 137.769 136.911 138.322 138.073 138.264C139.235 138.207 140.927 138.065 141.655 137.715C142.386 137.367 142.878 136.184 142.878 136.184C142.878 136.184 143.774 135.442 144.071 134.316C144.37 133.19 144.294 131.964 144.135 131.178C143.978 130.393 143.084 128.016 143.084 128.016L140.978 122.874L139.148 119.173L138.03 117.693Z" fill="#3A3A3D"/>
<path d="M138.904 133.934C138.674 134.386 137.408 134.99 137.297 134.608C137.186 134.223 137.392 132.777 137.804 132.521C138.215 132.261 139.614 132.552 138.904 133.934Z" fill="#DA4F4D"/>
<path d="M131.552 134.392C131.015 134.411 131.055 133.149 131.623 133.194C132.19 133.238 132.375 134.362 131.552 134.392Z" fill="#DA4F4D"/>
<path d="M129.099 126.368C129.142 125.743 131.339 125.722 130.674 127.023C130.01 128.323 129.046 127.147 129.099 126.368Z" fill="#DA4F4D"/>
<path d="M133.434 122.9C133.894 121.918 134.798 123.546 134.59 124.022C134.381 124.497 133.134 123.541 133.434 122.9Z" fill="#DA4F4D"/>
<path d="M139.649 128.107C139.555 128.617 137.992 127.891 138.293 127.25C138.593 126.61 139.865 126.936 139.649 128.107Z" fill="#DA4F4D"/>
<path d="M124.325 132.157C123.579 132.16 115.96 127.187 109.766 122.683C106.559 120.351 102.93 117.662 99.198 114.865C95.6117 112.178 86.5792 107.167 83.0867 104.508C72.9312 96.7905 70.7248 96.248 70.7248 96.248C70.7248 96.248 69.0643 95.6185 69.9372 93.5194C70.8093 91.4212 74.404 90.7545 74.404 90.7545C74.404 90.7545 76.1118 90.261 78.4061 91.8175C80.702 93.3724 91.0173 97.4192 93.4586 98.1933C95.8999 98.9656 101.222 100.758 101.222 100.758L108.885 102.981L115.821 106.524L122.217 109.484L127.638 111.615L132.375 113.945L138.287 117.784C138.287 117.784 142.256 125.137 143.043 127.868C143.831 130.598 144.96 133.229 143.647 135.086C142.335 136.942 142.73 138.308 137.9 138.221C133.071 138.137 128.478 135.026 128.478 135.026L124.325 132.157Z" stroke="black" stroke-miterlimit="10" stroke-linecap="round" stroke-linejoin="round"/>
<path d="M135.839 133.639L137.447 132.808" stroke="black" stroke-miterlimit="10" stroke-linecap="round" stroke-linejoin="round"/>
<path d="M133.628 127.256L135.972 127.688" stroke="black" stroke-miterlimit="10" stroke-linecap="round" stroke-linejoin="round"/>
<path d="M128.957 131.56C128.957 131.56 130.807 130.287 132.126 131.015" stroke="black" stroke-miterlimit="10" stroke-linecap="round" stroke-linejoin="round"/>
<path d="M138.838 123.535L142.159 124.795" stroke="black" stroke-miterlimit="10" stroke-linecap="round" stroke-linejoin="round"/>
<path d="M141.877 128.942L144.462 128.936" stroke="black" stroke-miterlimit="10" stroke-linecap="round" stroke-linejoin="round"/>
<path d="M138.288 117.782C134.579 117.743 132.289 118.773 131.221 120.191C130.151 121.608 126.351 123.812 125.624 125.132C124.896 126.452 125.939 133.911 128.479 135.026" stroke="black" stroke-miterlimit="10" stroke-linecap="round" stroke-linejoin="round"/>
<path d="M75.4138 92.4934C75.4138 92.4934 74.0584 91.3137 72.5339 91.4751" stroke="black" stroke-miterlimit="10" stroke-linecap="round" stroke-linejoin="round"/>
<path d="M72.5915 94.8789C72.5915 94.8789 70.8947 94.442 70.5364 92.8838" stroke="black" stroke-miterlimit="10" stroke-linecap="round" stroke-linejoin="round"/>
<path d="M126.677 119.654C126.677 119.654 128.307 120.984 128.987 121.897" stroke="black" stroke-miterlimit="10" stroke-linecap="round" stroke-linejoin="round"/>
<path d="M124.339 128.367L125.402 129.168" stroke="black" stroke-miterlimit="10" stroke-linecap="round" stroke-linejoin="round"/>
<path d="M115.082 120.781C115.082 120.781 112.814 120.603 111.787 118.959" stroke="black" stroke-miterlimit="10" stroke-linecap="round" stroke-linejoin="round"/>
<path d="M107.937 116.189C107.937 116.189 109.809 118.837 112.26 118.683" stroke="black" stroke-miterlimit="10" stroke-linecap="round" stroke-linejoin="round"/>
<path d="M142.585 110.878C142.585 110.878 138.679 105.907 142.94 105.197C147.202 104.487 147.202 97.7406 145.07 95.9644C142.939 94.1873 136.193 93.8324 136.193 95.6095C136.193 97.3857 137.969 101.647 137.969 101.647C137.969 101.647 135.129 102.712 135.129 104.842C135.129 106.973 138.324 113.366 142.585 110.878Z" fill="#FAFCB5"/>
<path d="M131.577 95.2538C126.464 92.466 128.382 89.216 132.287 88.8628C136.193 88.5079 139.745 93.4775 137.971 95.2538C136.194 97.03 135.484 97.3849 131.577 95.2538Z" fill="#FAFCB5"/>
<path d="M136.548 86.3755C135.141 84.7353 137.796 82.9573 139.744 82.4706C142.584 81.7591 145.425 85.3107 143.293 87.4419C141.166 89.5722 138.679 88.8616 136.548 86.3755Z" fill="#FAFCB5"/>
<path d="M129.446 83.5345C129.875 80.5321 130.511 77.1436 132.641 77.1436C134.771 77.1436 139.032 79.2739 139.032 79.2739C139.032 79.2739 139.032 82.8255 137.612 84.246C136.193 85.6657 129.091 86.0223 129.446 83.5345Z" fill="#FAFCB5"/>
<path d="M131.931 80.6955C131.931 80.6955 132.996 77.8545 129.801 77.8545C126.606 77.8545 124.474 79.9848 124.474 79.9848C124.474 79.9848 126.96 84.2463 129.446 83.5348C131.931 82.8258 131.931 80.6955 131.931 80.6955Z" fill="#FAFCB5"/>
<path d="M121.988 74.6576C122.643 73.3487 127.671 72.8822 126.249 76.0781C125.927 76.804 120.213 78.2084 121.988 74.6576Z" fill="#FAFCB5"/>
</svg>
