<svg width="94" height="104" viewBox="0 0 94 104" fill="none" xmlns="http://www.w3.org/2000/svg">
<path d="M13.1584 81.5391C11.6921 81.5266 10.2622 81.0813 9.04806 80.2592C7.03679 78.8916 6.03481 74.4082 8.86522 71.2122C8.86522 71.2122 16.2667 24.9529 29.073 21.5739C41.8794 18.195 76.6122 25.5014 76.6122 25.5014C76.6122 25.5014 85.3009 35.3749 86.5808 39.0318C86.5808 39.0318 91.3347 43.1421 92.344 48.1739C92.9001 51.4991 92.6823 54.9078 91.7077 58.1352C92.0118 61.7595 91.9211 65.4061 91.4371 69.0107C90.8028 72.3733 89.8854 75.6763 88.6945 78.8842C89.4425 80.674 89.7339 82.6216 89.5424 84.552C89.3509 86.4823 88.6825 88.3347 87.5974 89.9426C83.8528 95.6107 76.4001 99.8673 68.9474 101.462C64.5882 102.356 60.1132 102.542 55.695 102.01C55.695 102.01 49.3905 103.656 40.7969 101.74C32.2033 99.8234 26.2646 96.0715 24.7067 94.7916C23.1489 93.5117 15.6231 86.8416 13.1584 81.5391Z" fill="#F8C2A0"/>
<path d="M66.8116 82.1973C61.6115 82.5703 57.9693 79.6082 53.23 77.0265C48.4907 74.4447 39.429 77.458 39.8605 86.5343C40.292 95.6107 54.7366 99.9038 65.9486 98.6093C77.1605 97.3148 84.3426 89.2623 85.1398 84.8083C85.8711 80.559 84.4888 76.3975 78.6744 76.1854C72.86 75.9733 72.8454 81.7658 66.8116 82.1973Z" fill="#CB4850"/>
<path d="M8.84314 71.2127C6.698 68.3152 5.00396 65.1096 3.81862 61.7049C2.18766 56.5853 1.36121 53.2941 1.0906 48.9058C0.671376 43.5175 1.7123 38.1158 4.10385 33.2691C6.94158 27.7838 8.11177 25.4069 10.5034 22.9421C12.8949 20.4774 14.8916 17.4569 18.8191 15.4456C22.921 13.4897 27.2121 11.9581 31.6254 10.8745C34.1852 10.326 44.9729 8.49754 46.4357 8.13185C47.8984 7.76617 56.3823 7.12256 57.2234 6.93972C58.0645 6.75688 63.6229 6.0255 64.6249 4.92844C65.6269 3.83139 71.668 1.00098 71.668 1.00098C71.72 3.08333 71.5656 5.1657 71.2072 7.21764C70.7013 8.91239 69.9312 10.5167 68.9254 11.9716C68.9254 11.9716 73.1308 9.86521 74.6666 7.85393C76.2025 5.84266 79.3328 1.54951 79.3328 1.54951C79.3328 1.54951 79.7936 6.0255 79.1499 8.76815C78.5063 11.5108 75.4931 17.3618 75.4931 17.3618C75.4931 17.3618 80.0642 14.802 81.8048 12.2422C81.8048 12.2422 83.1798 17.6324 81.622 20.8358C80.0642 24.0392 77.2338 26.4088 70.6514 27.1402C64.0691 27.8716 56.3823 25.8676 54.6636 25.5897C52.9449 25.3118 45.4118 23.125 40.4896 23.9441C35.5675 24.7633 29.8847 26.4162 25.2259 32.9034C20.567 39.3907 20.2014 48.4451 20.472 51.1877C20.7426 53.9304 23.5803 68.0971 23.5803 68.0971L25.4087 74.4966L23.0318 73.6774L24.1288 79.9818L20.7499 76.6029L20.0185 80.2598C18.4396 78.7903 17.0844 77.0975 15.996 75.2352C14.2626 72.222 12.617 69.1137 12.617 69.1137L8.84314 71.2127Z" fill="#FF7E35"/>
<path d="M28.912 54.1489L58.0426 53.7832C58.0426 53.7832 58.0426 59.7585 54.8757 63.7811C51.7089 67.8036 43.0494 71.0948 35.7357 66.5822C33.6231 65.2737 31.8846 63.4413 30.689 61.2628C29.4934 59.0843 28.8813 56.6337 28.912 54.1489Z" fill="white"/>
<path d="M65.2393 53.6588L92.5414 52.686C92.5414 52.686 92.4536 59.1952 89.8573 62.1939C86.6904 65.8507 82.0535 69.8733 73.1601 65.9751C66.5704 63.0788 65.2393 53.6588 65.2393 53.6588Z" fill="white"/>
<path d="M50.0632 76.2729C51.2207 76.3389 52.3471 76.6718 53.3544 77.2457C54.8172 78.1599 58.5983 80.5369 59.6954 80.961C60.7925 81.3852 64.5737 82.4823 66.1534 82.4823C67.9528 82.3709 69.6752 81.7125 71.0902 80.5954C72.3701 79.5568 74.257 77.487 75.2956 77.0628C76.3341 76.6386 78.6453 75.9658 80.2323 76.4558C80.0567 77.5912 79.7926 78.7112 79.4424 79.8055C79.1047 80.3496 78.5872 80.7585 77.9797 80.961C77.9797 80.961 76.3926 80.471 75.6027 78.0941L75.3614 78.7669C75.3614 78.7669 75.0542 83.3965 74.2643 83.6452C73.4745 83.8938 71.2145 81.2682 71.2145 81.2682C71.2145 81.2682 70.666 84.7422 70.176 85.5979C69.6859 86.4536 69.0789 87.1192 68.2232 86.695C67.3675 86.2708 66.3363 83.0967 66.3363 83.0967C65.7387 84.3158 65.0025 85.4618 64.1421 86.5122C63.9831 86.6889 63.7792 86.8193 63.5521 86.8895C63.3249 86.9597 63.083 86.967 62.852 86.9108C62.621 86.8545 62.4095 86.7368 62.2401 86.57C62.0706 86.4032 61.9495 86.1937 61.8895 85.9636C61.6482 85.2323 60.9168 82.0654 60.9168 82.0654C60.4946 82.9358 60.0056 83.772 59.454 84.5667C58.964 85.1152 57.867 86.3951 56.9528 85.4809C56.0385 84.5667 55.7314 79.8128 55.7314 79.8128C55.7314 79.8128 54.4515 81.6997 53.4787 82.1312C52.506 82.5628 51.526 82.9869 50.6118 81.5242C49.6975 80.0615 50.0632 76.2729 50.0632 76.2729Z" fill="white"/>
<path d="M43.1737 92.9119C44.5429 91.9012 45.9663 90.966 47.4376 90.1107C49.8699 89.0194 52.4306 88.2404 55.0585 87.7922C56.8869 87.6094 58.4082 87.7922 58.7739 88.5821C58.8897 88.7923 58.9612 89.0239 58.984 89.2628C59.0067 89.5017 58.9803 89.7426 58.9063 89.9709C58.8322 90.1991 58.7122 90.4098 58.5536 90.5898C58.395 90.7698 58.2011 90.9154 57.984 91.0176C56.8284 91.749 53.7201 93.7017 52.9887 94.6745C52.2331 95.5795 51.4195 96.4345 50.5533 97.2343C50.5533 97.2343 44.5121 95.106 43.1737 92.9119Z" fill="#FF0000"/>
<path d="M45.675 94.9815C45.675 94.9815 47.0793 93.1531 48.1105 92.9703C49.1417 92.7874 50.3046 92.7874 50.546 93.826C50.6862 94.6722 50.7059 95.534 50.6045 96.3858L51.0945 96.5101C51.0945 96.5101 52.0672 94.9888 52.9814 94.6817C53.8956 94.3745 55.0512 94.6817 55.2999 95.5959C55.4804 96.42 55.6026 97.2559 55.6656 98.0972C55.6656 98.0972 57.0698 95.5959 57.8597 95.1132C58.6496 94.6305 60.0538 93.6504 61.2094 95.0547C61.9247 96.0658 62.2683 97.2932 62.1821 98.5287C62.6558 97.6236 63.1859 96.7491 63.7692 95.9104C64.3177 95.2375 65.5976 94.3891 66.5118 95.5447C67.0812 96.3306 67.4182 97.2606 67.4845 98.2288C67.4845 98.2288 68.2159 94.9962 69.3715 94.572C69.8341 94.3676 70.3574 94.3485 70.8337 94.5186C71.31 94.6887 71.7028 95.035 71.9313 95.4862C72.2673 95.9292 72.477 96.4549 72.5383 97.0074C72.5383 97.0074 73.2112 95.0547 73.394 94.2063C73.5769 93.3579 74.3667 92.3193 74.9811 92.3779C75.5955 92.4364 77.3581 94.5135 77.3581 94.5135C74.9634 95.9676 72.4054 97.1337 69.7372 97.9875C65.8972 99.0877 61.8743 99.3987 57.9109 98.9017C54.3271 98.3312 50.8531 97.9655 45.675 94.9815Z" fill="white"/>
<path d="M8.30933 96.5684C9.48225 95.3368 10.4679 93.9396 11.2348 92.4215C11.9662 90.5931 13.5533 82.3066 13.5533 82.3066C13.5533 82.3066 18.5485 90.3517 22.5711 93.2772C21.5246 94.7999 20.0939 96.0186 18.4242 96.8098C16.367 97.6921 14.1909 98.2663 11.9662 98.5138L14.1603 95.5884C12.3136 96.3688 10.3095 96.7045 8.30933 96.5684Z" fill="#FF7E35"/>
<path d="M91.9052 58.7568C92.2495 65.5018 91.204 72.2456 88.8334 78.5697" stroke="black" stroke-linecap="round" stroke-linejoin="round"/>
<path d="M66.8557 82.3653C61.6557 82.7383 58.0134 79.7762 53.2741 77.1945C48.5348 74.6127 39.4731 77.626 39.9046 86.7023C40.3362 95.7786 54.7808 100.072 65.9927 98.7773C77.2046 97.4827 84.3867 89.4303 85.1839 84.9763C85.9153 80.727 84.533 76.5655 78.7186 76.3534C72.9042 76.1413 72.8895 81.9338 66.8557 82.3653Z" stroke="black" stroke-linecap="round" stroke-linejoin="round"/>
<path d="M43.3711 92.7871C46.9932 89.8251 51.4328 88.0391 56.097 87.6675C59.1029 87.3895 59.7538 89.6056 58.4666 90.688C57.1794 91.7704 53.9394 93.2771 52.2134 95.2152" stroke="black" stroke-linecap="round" stroke-linejoin="round"/>
<path d="M50.0413 76.6531C50.0413 76.6531 49.7195 82.0433 51.7674 82.5772C53.8152 83.1111 55.863 79.2348 55.863 79.2348C55.863 79.2348 55.7533 85.3783 57.4794 85.8172C59.2054 86.256 61.0338 81.4289 61.0338 81.4289C61.0338 81.4289 61.4654 86.8191 62.972 87.0312C64.4786 87.2433 66.4241 82.8258 66.4241 82.8258C66.4241 82.8258 67.3968 87.5724 69.1228 86.8118C70.8489 86.0512 71.061 81.0852 71.061 81.0852C71.061 81.0852 73.1088 84.4275 74.2936 83.5645C75.4784 82.7015 75.2663 77.2016 75.2663 77.2016C75.2663 77.2016 76.5609 81.2973 78.1918 80.8584C79.8228 80.4196 80.3494 76.4702 80.3494 76.4702" stroke="black" stroke-linecap="round" stroke-linejoin="round"/>
<path d="M77.4165 94.5428C77.4165 94.5428 75.6905 91.844 74.6154 92.3852C73.5403 92.9264 72.5675 97.1318 72.5675 97.1318C72.5675 97.1318 72.3481 94.3307 70.1979 94.3307C68.0477 94.3307 67.5065 98.4264 67.5065 98.4264C67.5065 98.4264 67.287 94.9816 65.3489 94.9816C63.4108 94.9816 62.1162 98.9676 62.1162 98.9676C62.1162 98.9676 62.438 94.7622 60.0684 94.3307C57.6988 93.8992 55.6802 98.5361 55.6802 98.5361C55.6802 98.5361 56.002 95.084 54.3856 94.5501C52.7693 94.0162 50.6118 97.1391 50.6118 97.1391C50.6118 97.1391 51.3431 93.6871 49.8804 92.9337C48.4176 92.1804 46.1065 94.6598 46.1065 94.6598" stroke="black" stroke-linecap="round" stroke-linejoin="round"/>
<path d="M37.9372 78.1597C37.9372 78.1597 34.0975 81.0852 35.3774 87.6675C35.7309 89.4641 36.4697 91.1627 37.543 92.6463C38.6162 94.1299 39.9983 95.3631 41.594 96.2611" stroke="black" stroke-linecap="round" stroke-linejoin="round"/>
<path d="M88.0361 77.7939C88.9328 79.4062 89.4336 81.2085 89.4972 83.0523C89.5608 84.8961 89.1853 86.7286 88.4018 88.3988C85.4763 95.164 77.0874 100.225 67.192 101.746C57.6841 103.209 50.9189 100.832 50.9189 100.832" stroke="black" stroke-linecap="round" stroke-linejoin="round"/>
<path d="M12.3685 69.2739C12.3685 69.2739 6.31274 71.0073 7.38054 77.063C8.44834 83.1188 16.2521 81.1734 16.2521 81.1734" stroke="black" stroke-linecap="round" stroke-linejoin="round"/>
<path d="M45.485 38.5415C56.0899 40.0554 57.2674 49.7315 57.8452 53.4761C58.7082 59.3271 53.947 69.2738 43.13 68.8349C37.9372 68.6302 29.9287 64.9367 29.0584 55.4143C28.6738 51.6367 29.5646 47.839 31.5889 44.6265" stroke="black" stroke-linecap="round" stroke-linejoin="round"/>
<path d="M65.6123 55.2018C63.879 47.6248 68.6402 38.5339 77.3143 37.6489C87.2829 36.6542 90.9178 43.6535 92.0295 47.6029C93.9749 54.529 91.598 64.9144 82.7264 67.0793C74.9081 69.0101 67.5797 63.8101 65.6123 55.2018Z" stroke="black" stroke-linecap="round" stroke-linejoin="round"/>
<path d="M66.6946 66.0264C66.6946 66.0264 73.6207 68.8421 72.9698 72.3015C72.4798 74.9345 67.7771 75.3294 64.3104 72.9525" stroke="black" stroke-linecap="round" stroke-linejoin="round"/>
<path d="M41.6965 56.4893L41.6087 58.8004" stroke="black" stroke-linecap="round" stroke-linejoin="round"/>
<path d="M43.1152 57.7327L40.5481 57.5571" stroke="black" stroke-linecap="round" stroke-linejoin="round"/>
<path d="M42.7642 56.7598L40.7237 58.4419" stroke="black" stroke-linecap="round" stroke-linejoin="round"/>
<path d="M42.3621 58.3321L41.1041 56.6719" stroke="black" stroke-linecap="round" stroke-linejoin="round"/>
<path d="M77.2266 57.6743L76.9194 55.3047" stroke="black" stroke-linecap="round" stroke-linejoin="round"/>
<path d="M78.3454 56.4014L75.7929 56.5769" stroke="black" stroke-linecap="round" stroke-linejoin="round"/>
<path d="M77.6433 55.6992L76.5023 57.279" stroke="black" stroke-linecap="round" stroke-linejoin="round"/>
<path d="M76.3709 55.897L77.7751 57.0818" stroke="black" stroke-linecap="round" stroke-linejoin="round"/>
<path d="M55.6511 102.339C46.5642 103.685 37.2864 102.028 29.2266 97.6212C18.512 91.7702 13.1364 81.7139 13.1364 81.7139" stroke="black" stroke-linecap="round" stroke-linejoin="round"/>
<path d="M76.8607 26.4155C76.8607 26.4155 81.8925 30.6941 86.6903 39.2511" stroke="black" stroke-linecap="round" stroke-linejoin="round"/>
<path d="M28.7951 54.0244C28.7951 54.0244 56.163 53.6587 57.8671 53.6587" stroke="black" stroke-linecap="round" stroke-linejoin="round"/>
<path d="M65.5465 53.417C65.5465 53.417 88.9943 52.8173 92.0222 52.7515" stroke="black" stroke-linecap="round" stroke-linejoin="round"/>
<path d="M48.3371 34.0947C48.3371 34.0947 46.516 38.8486 39.2242 41.957C36.0908 43.2563 32.8344 44.2365 29.5043 44.8825" stroke="black" stroke-linecap="round" stroke-linejoin="round"/>
<path d="M71.2145 30.2547C71.2145 30.2547 78.5282 28.6091 82.3679 32.8145" stroke="black" stroke-linecap="round" stroke-linejoin="round"/>
<path d="M12.7049 69.0176C12.7049 69.0176 16.5446 77.2455 20.0186 80.5367C20.5672 79.6225 20.75 76.5142 20.75 76.5142L24.224 80.171C24.224 80.171 23.3098 75.0514 22.9441 73.5887L25.5039 74.6857C25.5039 74.6857 19.8138 56.95 20.3843 47.4421C21.1596 33.9337 31.4134 19.9864 50.5315 24.7696C61.5021 27.5122 72.3044 28.4265 77.7751 25.3181C84.1746 21.6613 81.9805 11.9706 81.9805 11.9706C81.9805 11.9706 78.8721 16.176 75.3981 17.273C78.66 12.7198 80.0954 7.10876 79.4207 1.54853C79.4207 1.54853 75.7638 8.86225 68.6329 12.3363C72.3117 7.94803 71.7413 1 71.7413 1C60.7707 8.49656 58.05 5.93676 44.5196 8.49656C30.9892 11.0564 19.5505 12.2704 11.9735 21.1127C4.29413 30.072 0.871305 38.4828 1.18579 47.2593C1.73432 62.8009 8.49952 70.846 8.49952 70.846" stroke="black" stroke-linecap="round" stroke-linejoin="round"/>
<path d="M13.4362 82.731C13.4362 82.731 12.1563 94.7986 7.58527 96.9927C7.58527 96.9927 12.7049 96.627 13.9848 95.53C15.2647 94.4329 11.7687 98.6383 11.7687 98.6383C11.7687 98.6383 18.5339 98.4555 22.7393 93.3359" stroke="black" stroke-linecap="round" stroke-linejoin="round"/>
</svg>
