<svg width="51" height="133" viewBox="0 0 51 133" fill="none" xmlns="http://www.w3.org/2000/svg">
<path d="M11.7364 90.1876C11.7364 87.9935 11.8681 74.6459 11.8681 74.6459C11.8681 74.6459 11.0782 58.2486 11.1367 55.6303C11.1952 53.012 11.795 45.8445 11.9266 44.3232C12.1552 41.9203 12.6132 39.5447 13.2943 37.2289C14.0256 35.0348 16.4026 32.6652 17.3973 31.8753L25.9909 31.378L36.1716 30.7197C37.2835 32.7181 38.1925 34.8227 38.885 37.0022C39.4774 39.445 40.4062 43.4163 40.5379 44.8718C40.6695 46.3272 40.867 53.5312 40.4062 55.8424L41.1376 77.001C41.1376 77.001 41.006 90.6264 41.2034 92.2135C41.4009 93.8006 41.0718 102.263 41.0718 103.718C41.0132 107.122 40.769 110.521 40.3404 113.899C39.8796 116.678 38.8777 122.624 37.8903 125.008C36.903 127.393 33.9263 130.428 31.0812 131.357C28.2362 132.285 24.8646 132.878 21.7562 131.225C18.6479 129.572 14.8813 125.469 14.0183 121.966C13.1553 118.462 11.8242 116.678 11.7072 110.856C11.5902 105.034 11.7364 90.1876 11.7364 90.1876Z" fill="#49B6BB"/>
<path d="M11.7365 79.0342C5.5857 79.0342 1 73.388 1 67.9466C1 62.5052 5.38823 56.976 11.583 56.8371C18.6334 56.6615 22.8534 63.0025 23.0436 67.7711C23.2191 72.152 19.5183 79.0342 11.7365 79.0342Z" fill="white"/>
<path d="M26.9199 67.5663C26.4665 62.4467 29.0189 56.5957 38.0294 55.9302C42.6152 55.5791 48.9635 59.1043 50.0166 65.6282C50.9455 71.3694 45.782 76.2111 39.7774 77.2643C33.7729 78.3175 27.4465 73.5636 26.9199 67.5663Z" fill="white"/>
<path d="M19.8475 28.5551C19.8475 28.5551 19.3867 18.1696 19.1161 16.3193C18.8455 14.4689 17.9898 2.4232 17.9898 2.4232C19.0877 1.85431 20.2751 1.47828 21.5004 1.31152C23.9269 1.02235 26.3731 0.934281 28.8141 1.04822C31.0594 1.17987 32.6465 1.31152 32.8513 1.77959C33.0561 2.24767 33.0487 8.45702 33.1146 10.0441C33.1804 11.6312 32.9464 18.2135 32.9464 20.0273C32.9464 21.8411 32.8732 26.99 32.8732 26.99L19.8475 28.5551Z" fill="#324265"/>
<path d="M20.1108 28.5985C16.7611 28.5985 9.87155 29.3299 8.82569 29.1251C7.77983 28.9203 8.2991 32.6503 8.82569 32.4748C9.35228 32.2993 24.5209 31.4143 27.344 31.2388C30.1671 31.0633 40.0407 30.3538 41.1011 30.3538C42.1616 30.3538 42.5127 26.2947 41.4522 26.1192C40.3917 25.9436 20.1108 28.5985 20.1108 28.5985Z" fill="#324265"/>
<path d="M19.7085 25.9147L24.5356 24.9859L30.9497 24.1887L33.0049 23.9912L32.8732 26.9679L24.872 28.0284L19.8475 28.555L19.7085 25.9147Z" fill="#AED1E9"/>
<path d="M24.0529 75.8604C23.7672 79.8122 23.9464 83.7839 24.5868 87.694C25.6473 94.0423 28.8215 90.6926 28.8215 87.8695C28.8215 85.0464 28.6459 76.2334 28.6459 76.2334" stroke="black" stroke-linecap="round" stroke-linejoin="round"/>
<path d="M34.1094 93.6691C34.1094 93.6691 25.1135 93.3181 18.5896 94.5541" stroke="black" stroke-linecap="round" stroke-linejoin="round"/>
<path d="M11.8902 79.0342C5.71738 79.0342 1.13167 73.388 1.13167 67.9466C1.13167 62.5052 5.50528 56.976 11.7366 56.8151C18.787 56.6396 23.007 62.9806 23.1972 67.7491C23.3508 72.152 19.65 79.0342 11.8902 79.0342Z" stroke="black" stroke-linecap="round" stroke-linejoin="round"/>
<path d="M27.0516 67.5663C26.5981 62.4467 29.1506 56.5957 38.1611 55.9302C42.7468 55.5791 49.0951 59.1043 50.1483 65.6282C51.0771 71.3694 45.9137 76.2111 39.9091 77.2643C33.9045 78.3175 27.5855 73.5636 27.0516 67.5663Z" stroke="black" stroke-linecap="round" stroke-linejoin="round"/>
<path d="M17.5289 31.9487C17.5289 31.9487 13.1407 34.7718 12.2411 41.2957C11.3415 47.8195 11.0051 56.8154 11.0051 56.8154" stroke="black" stroke-linecap="round" stroke-linejoin="round"/>
<path d="M11.8901 79.0341C11.8901 79.0341 11.3635 96.6674 11.539 106.716C11.7146 116.766 13.6527 125.586 20.001 130.172C26.3493 134.757 34.8113 131.583 37.6344 125.586C39.5872 121.439 41.1596 111.69 41.1596 101.451V76.9131" stroke="black" stroke-linecap="round" stroke-linejoin="round"/>
<path d="M40.4575 55.9306C40.9397 51.1093 40.7625 46.2448 39.9309 41.4714C38.5194 34.2381 36.4057 31.064 36.4057 31.064" stroke="black" stroke-linecap="round" stroke-linejoin="round"/>
<path d="M20.1767 28.5985C16.827 28.5985 9.93751 29.3299 8.89164 29.1251C7.84578 28.9203 8.36506 32.6503 8.89164 32.4748C9.41823 32.2993 24.5869 31.4143 27.41 31.2388C30.2331 31.0633 40.1066 30.3538 41.1671 30.3538C42.2276 30.3538 42.5786 26.2947 41.5182 26.1192C40.4577 25.9436 20.1767 28.5985 20.1767 28.5985Z" stroke="black" stroke-linecap="round" stroke-linejoin="round"/>
<path d="M19.8255 28.599C19.8255 26.6608 18.2384 3.91515 18.0629 2.5036C17.8873 1.09205 32.171 0.389933 32.8732 1.77223C33.5753 3.15452 32.8732 26.9899 32.8732 26.9899" stroke="black" stroke-linecap="round" stroke-linejoin="round"/>
<path d="M11.89 68.9852C12.4757 68.9852 12.9505 68.5104 12.9505 67.9248C12.9505 67.3391 12.4757 66.8643 11.89 66.8643C11.3043 66.8643 10.8295 67.3391 10.8295 67.9248C10.8295 68.5104 11.3043 68.9852 11.89 68.9852Z" fill="black"/>
<path d="M40.6331 68.4515C41.2188 68.4515 41.6936 67.9767 41.6936 67.3911C41.6936 66.8054 41.2188 66.3306 40.6331 66.3306C40.0474 66.3306 39.5726 66.8054 39.5726 67.3911C39.5726 67.9767 40.0474 68.4515 40.6331 68.4515Z" fill="black"/>
<path d="M32.8732 24.0132C32.8732 24.0132 28.6385 24.5398 24.0528 25.0737C22.5711 25.2649 21.1047 25.5606 19.6646 25.9586" stroke="black" stroke-linecap="round" stroke-linejoin="round"/>
</svg>
