<svg width="81" height="104" viewBox="0 0 81 104" fill="none" xmlns="http://www.w3.org/2000/svg">
<path d="M32.3488 2.0963C24.1208 3.3762 17.1874 7.89608 15.1615 9.7757C12.6017 12.1527 8.82054 15.9339 7.11644 20.5634C5.09028 26.3069 4.28082 32.409 4.73949 38.4821C5.32729 44.9795 6.5247 51.4073 8.3159 57.6806C6.60448 57.6806 2.94762 60.9718 1.9749 63.0415C1.00217 65.1113 -0.0948851 69.0168 3.31331 71.5767C5.34523 73.1056 7.84518 73.8812 10.3857 73.7708C12.2141 81.6915 15.0957 88.6396 19.3669 93.2765C23.6381 97.9134 31.9246 101.687 35.5814 102.053C43.7183 103.732 52.1627 103.098 59.9581 100.224C64.7632 98.4034 68.8589 92.9108 71.2943 87.1841C72.9473 83.2932 73.0789 77.1351 73.1228 73.0467C73.35 73.0995 73.5881 73.079 73.803 72.9882C74.6016 73.0437 75.4031 72.9347 76.1579 72.668C76.9127 72.4013 77.6047 71.9826 78.1912 71.4377C80.0196 69.6093 80.9338 67.5102 80.3853 64.219C79.8368 60.9279 76.0995 58.9751 73.803 59.0117C73.5835 55.6035 73.0716 51.6029 73.0716 51.6029L72.1866 33.421C71.9453 26.963 68.2884 17.6965 65.7286 13.3082C63.1688 8.92 61.0917 7.58159 61.0917 7.58159C61.0917 7.58159 57.6396 4.53177 54.4655 3.43471C51.3786 2.28696 48.1309 1.6305 44.8406 1.48926C41.9151 1.48926 34.4625 1.73061 32.3488 2.0963Z" fill="#F8C2A0"/>
<path d="M18.8915 43.1708C19.0012 36.1788 25.1301 29.5745 33.519 29.8232C41.9078 30.0719 46.7056 35.5645 46.4569 44.1508C46.2448 51.896 40.35 56.6426 32.6121 56.6426C25.2472 56.6426 18.7672 51.2817 18.8915 43.1708Z" fill="white"/>
<path d="M54.5534 54.6827C56.4948 56.1674 58.8128 57.0795 61.2455 57.3156C69.2906 58.047 75.1415 52.0205 75.734 44.6775C76.3337 36.9688 72.0771 30.7302 64.3757 29.9111C62.6674 29.8727 60.9583 29.9289 59.2561 30.0793C57.5757 30.3271 55.9675 30.9305 54.5388 31.8492C51.4816 33.8386 49.2437 37.8904 48.7536 42.4102L54.5534 54.6827Z" fill="white"/>
<path d="M48.2562 41.3496C48.2562 41.3496 56.6743 57.4398 55.9356 64.8778C55.4456 69.7561 51.7229 69.9975 50.0847 69.1417C48.5297 68.3315 47.3176 66.9896 46.6692 65.3606" stroke="black" stroke-linecap="round" stroke-linejoin="round"/>
<path d="M8.39627 57.8199C6.385 48.1731 -2.4061 21.5585 17.3556 7.94768C25.5835 2.27955 36.6784 1.85535 36.6784 1.85535C36.6784 1.85535 45.4549 0.999645 51.0645 2.22104C54.7419 3.14827 58.1606 4.89886 61.0624 7.34064C62.9054 8.52546 65.0557 12.1896 65.9406 13.6816C67.2375 15.9075 68.3152 18.254 69.1587 20.6882L70.8262 26.3783C71.4216 28.8976 71.8854 31.4462 72.2158 34.0138" stroke="black" stroke-linecap="round" stroke-linejoin="round"/>
<path d="M9.6179 70.7215C10.8393 77.0625 13.4649 85.5537 16.5074 89.92C17.9117 91.9313 25.6496 101.805 41.0084 102.902C61.6989 104.365 68.2666 95.0835 70.8118 88.0915C73.7373 80.0465 72.6402 72.6742 73.0059 69.5001C73.633 63.7526 73.7138 57.9586 73.2473 52.1958" stroke="black" stroke-linecap="round" stroke-linejoin="round"/>
<path d="M18.7673 43.1708C18.877 36.1788 25.0059 29.5745 33.3947 29.8232C41.7836 30.0719 46.5887 35.5645 46.34 44.1508C46.1133 51.8814 40.2258 56.6207 32.4951 56.6207C25.1302 56.6426 18.643 51.2817 18.7673 43.1708Z" stroke="black" stroke-linecap="round" stroke-linejoin="round"/>
<path d="M48.9438 41.7594C49.4265 37.2396 51.3866 33.8679 54.4437 31.8786C54.4437 31.8786 59.834 29.0336 64.2515 29.9332C71.8431 31.4837 76.2313 36.9982 75.617 44.7069C75.0465 52.0206 69.1955 58.0983 61.1212 57.345C58.6855 57.1007 56.367 56.1784 54.4291 54.6828" stroke="black" stroke-linecap="round" stroke-linejoin="round"/>
<path d="M19.2572 55.3257C19.2572 55.3257 20.6468 59.1434 23.8722 60.182C27.351 61.2692 31.0787 61.2692 34.5575 60.182" stroke="black" stroke-linecap="round" stroke-linejoin="round"/>
<path d="M59.329 59.8827C59.329 59.8827 61.0551 61.8281 66.3722 61.2211C67.7448 61.0234 69.0646 60.555 70.2548 59.8431C71.445 59.1312 72.482 58.1901 73.3056 57.0742" stroke="black" stroke-linecap="round" stroke-linejoin="round"/>
<path d="M8.03079 57.8052C8.03079 57.8052 1.26559 59.8164 1.26559 66.7645C1.26559 73.7125 10.3492 73.8954 10.3492 73.8954" stroke="black" stroke-linecap="round" stroke-linejoin="round"/>
<path d="M73.4885 58.9023C73.4885 58.9023 79.2809 59.1949 80.2537 64.2048C81.0435 68.2858 79.7124 70.8383 78.118 71.7014C76.5359 72.591 74.7981 73.1694 72.9984 73.4055" stroke="black" stroke-linecap="round" stroke-linejoin="round"/>
<path d="M66.5917 43.9751L66.4308 46.513" stroke="black" stroke-linecap="round" stroke-linejoin="round"/>
<path d="M67.8642 45.3359H65.5458" stroke="black" stroke-linecap="round" stroke-linejoin="round"/>
<path d="M67.323 44.4067L65.6189 46.184" stroke="black" stroke-linecap="round" stroke-linejoin="round"/>
<path d="M67.4766 46.3376L65.6189 44.4067" stroke="black" stroke-linecap="round" stroke-linejoin="round"/>
<path d="M26.8343 39.0166L27.8436 41.4082" stroke="black" stroke-linecap="round" stroke-linejoin="round"/>
<path d="M28.4726 39.7695L26.081 41.0275" stroke="black" stroke-linecap="round" stroke-linejoin="round"/>
<path d="M28.8968 40.7794L25.7227 39.8506" stroke="black" stroke-linecap="round" stroke-linejoin="round"/>
<path d="M27.807 38.9951L26.9586 41.5549" stroke="black" stroke-linecap="round" stroke-linejoin="round"/>
<path d="M56.9085 77.3042C56.9085 77.3042 59.5926 86.0807 56.9085 88.0334C54.2244 89.9862 52.7616 84.8666 52.7616 84.8666C52.7616 84.8666 53.983 92.4217 51.0575 93.153C48.132 93.8844 47.8907 84.8666 47.8907 84.8666" stroke="black" stroke-linecap="round" stroke-linejoin="round"/>
<path d="M19.6083 5.14697L21.0711 6.1197" stroke="black" stroke-linecap="round" stroke-linejoin="round"/>
<path d="M33.0144 1V2.95276" stroke="black" stroke-linecap="round" stroke-linejoin="round"/>
<path d="M7.41638 16.8486L9.12779 17.8214" stroke="black" stroke-linecap="round" stroke-linejoin="round"/>
<path d="M4.00821 32.2075H5.71231" stroke="black" stroke-linecap="round" stroke-linejoin="round"/>
<path d="M61.7866 5.62939L61.0552 7.34081" stroke="black" stroke-linecap="round" stroke-linejoin="round"/>
<path d="M49.836 3.19385L48.622 4.41524" stroke="black" stroke-linecap="round" stroke-linejoin="round"/>
<path d="M70.563 22.451L68.6103 21.9683" stroke="black" stroke-linecap="round" stroke-linejoin="round"/>
<path d="M26.6808 9.77637L27.4122 11.2391" stroke="black" stroke-linecap="round" stroke-linejoin="round"/>
<path d="M5.95358 49.5122L7.17497 49.7609" stroke="black" stroke-linecap="round" stroke-linejoin="round"/>
<path d="M12.2946 23.6724L13.2673 24.1624" stroke="black" stroke-linecap="round" stroke-linejoin="round"/>
<path d="M53.9827 26.1076C57.0208 24.6316 60.5075 24.3701 63.7319 25.3762" stroke="black" stroke-linecap="round" stroke-linejoin="round"/>
<path d="M38.8728 26.3567C38.8728 26.3567 31.8005 22.9412 26.6808 26.8467" stroke="black" stroke-linecap="round" stroke-linejoin="round"/>
</svg>
