<svg width="139" height="147" viewBox="0 0 139 147" fill="none" xmlns="http://www.w3.org/2000/svg">
<path d="M91.8462 48.6277C91.8462 48.6277 92.4852 46.4524 91.5263 45.3648C90.5674 44.2771 86.7278 41.59 84.6797 40.8214C82.6316 40.0529 76.2984 38.5174 71.1792 38.0055C66.0601 37.4937 59.8533 38.5182 58.7008 38.8381C57.55 39.1572 50.7034 41.4604 48.0163 43.1247C45.3291 44.789 39.5054 48.499 36.7551 55.4727C34.0032 62.4481 33.0427 67.2465 32.4045 70.5743C31.7647 73.9012 31.5728 81.9634 31.5728 81.9634L34.5158 99.8793C34.5158 99.8793 38.2914 98.0239 39.2503 97.8311C40.21 97.64 40.9138 97.1266 40.9138 97.1266L91.8462 48.6277Z" fill="#682527"/>
<path d="M102.148 98.9828C102.148 98.9828 102.34 91.1765 101.956 88.6813C101.956 88.6813 103.555 87.145 103.555 84.9697C103.555 82.7944 103.555 82.4745 103.555 82.4745L98.6926 69.8698L98.5647 67.2466L101.189 64.5595C101.189 64.5595 100.869 62.1922 100.165 60.9758C99.4604 59.761 97.5418 58.5446 97.5418 58.5446C97.5418 58.5446 96.9028 54.0653 96.3901 52.7217C95.8775 51.3781 94.5347 47.9232 93.2544 46.8996C91.9748 45.8759 92.1035 44.6603 87.7513 45.2369C83.4015 45.8119 82.6977 47.2826 81.5453 47.4114C80.3937 47.5393 78.2168 48.4998 75.596 48.052C72.9721 47.6041 68.5567 46.0678 66.4454 45.3648C64.334 44.6611 59.4068 44.0213 56.1439 44.2132C52.8801 44.4052 49.4252 45.9415 47.186 48.2447C44.9467 50.548 43.2192 54.258 42.5786 56.626C41.9388 58.9941 41.3622 64.8794 41.3622 64.8794L40.7864 74.7338L40.6584 89.066L40.9144 97.1274L75.596 105.063L97.3498 100.775L102.148 98.9828Z" fill="#F8C2A0"/>
<path d="M80.9216 70.744C80.9216 70.744 94.3749 68.6191 96.4998 68.6191C98.6247 68.6191 104.289 68.8558 104.524 66.4957C104.761 64.1349 98.388 64.3708 94.8483 64.8435C91.3071 65.3153 81.3934 66.9668 81.3934 66.9668L80.8408 67.1187L80.9216 70.744Z" fill="#682527"/>
<path d="M70.0275 70.447C75.2203 70.6829 74.3342 67.0241 72.1245 66.1955C68.3481 64.7792 66.7686 64.061 63.1553 63.1277C55.8385 61.2387 47.5771 61.7114 47.1053 63.5996C46.9165 64.3569 49.4661 65.487 53.0058 66.1955L54.0311 66.4163C54.0311 66.4163 57.7067 65.7653 59.5333 66.0324C62.1573 66.4163 63.3161 66.4811 65.1635 67.1848C67.8514 68.2085 69.0678 69.6152 69.0678 69.6152L70.0275 70.447Z" fill="#682527"/>
<path d="M99.3972 68.7188C104.826 71.078 105.469 75.9365 105.233 79.4769C104.997 83.0182 100.165 87.1457 91.7796 86.0868C85.6192 85.3063 81.3941 81.6034 81.1582 77.3544C80.9223 73.1054 83.5191 70.507 83.5191 70.507L89.2244 69.4865L95.4304 68.5908L99.3972 68.7188Z" fill="#FFFFFE"/>
<path d="M71.7164 77.5893C72.3482 73.7977 70.7215 67.7764 61.802 66.2593C50.7087 64.3711 47.6401 70.941 47.6401 73.8121C47.6401 80.6579 51.6532 83.4906 58.0256 84.9061C63 86.0106 70.7719 83.2539 71.7164 77.5893Z" fill="#FFFFFE"/>
<path d="M85.5121 95.5286C85.5121 95.5286 95.8551 95.5286 104.117 100.011C110.165 103.294 114.974 111.815 113.559 122.434C112.142 133.057 100.813 141.789 87.1227 144.857C73.4319 147.925 43.4568 144.857 32.3635 135.181C21.2687 125.502 22.2148 106.148 35.6681 99.3034C49.1213 92.46 69.4204 94.5833 69.4204 94.5833C69.4204 94.5833 69.0278 97.3552 69.9643 98.4069C71.4998 100.135 74.6348 99.4314 74.6348 99.4314C74.6348 99.4314 76.0423 103.079 77.5138 103.079C78.9862 103.079 80.073 102.887 80.4577 101.352C80.6752 100.481 80.7128 98.6636 80.7128 98.6636C80.7128 98.6636 83.4647 99.1123 84.2964 98.7916C85.2513 98.4245 85.6416 97.6399 85.5121 95.5286Z" fill="#324265"/>
<path d="M72.5084 110.161C79.1015 110.611 93.5665 112.635 98.708 115.118C105.553 118.422 106.969 124.086 105.081 127.627C103.193 131.169 97.2917 132.347 87.3789 131.169C77.4652 129.988 52.6836 129.32 47.0166 129.516C40.1716 129.752 34.3007 126.917 33.7993 122.906C33.0907 117.243 36.632 112.522 43.2402 111.105C49.8493 109.689 62.123 109.453 72.5084 110.161Z" fill="#F8C2A0"/>
<path d="M100.339 124.431C101.048 121.125 96.327 117.821 90.6617 115.933C84.9979 114.045 70.5985 112.865 65.4074 112.865C60.2138 112.865 45.8153 113.573 42.0397 115.461C38.2641 117.348 37.0829 123.013 41.096 124.667C45.1083 126.317 56.2023 125.61 63.5184 125.61C70.8352 125.61 86.1775 126.791 89.482 127.262C92.7866 127.734 99.3493 129.052 100.339 124.431Z" fill="#DA4F4D"/>
<path d="M97.5065 119.474C97.5065 119.474 97.2706 123.015 94.6746 122.779C92.0787 122.543 93.0224 117.114 93.0224 117.114C93.0224 117.114 92.3146 122.543 89.7186 122.07C87.1227 121.598 87.3586 115.461 87.3586 115.461C87.3586 115.461 85.9422 122.307 83.5814 121.834C81.2214 121.362 82.4002 114.518 82.4002 114.518C82.4002 114.518 81.6924 121.834 78.8605 121.363C76.0278 120.891 76.9723 114.047 76.9723 114.047C76.9723 114.047 76.2646 121.599 73.667 121.599C71.071 121.599 71.071 114.047 71.071 114.047C71.071 114.047 71.071 121.834 68.7102 121.834C66.3501 121.834 65.4072 113.575 65.4072 113.575C65.4072 113.575 66.3509 121.834 63.2823 121.834C60.2137 121.834 60.4496 113.338 60.4496 113.338C60.4496 113.338 59.5051 121.834 57.1443 121.834C54.7835 121.834 55.4928 113.811 55.4928 113.811C55.4928 113.811 54.0773 121.599 51.4805 121.363C48.8838 121.127 49.1197 114.047 49.1197 114.047C49.1197 114.047 48.1752 121.363 45.3433 120.892C42.5106 120.42 43.2192 115.228 43.2192 115.228C43.2192 115.228 51.9172 113.253 56.7812 113.253C61.6445 113.253 68.1704 112.613 74.825 113.381C81.4789 114.149 89.4131 115.813 90.1809 115.94C90.9486 116.067 97.5065 119.474 97.5065 119.474Z" fill="white"/>
<path d="M99.3973 126.561C99.3973 126.561 97.9801 121.913 96.4063 122.071C94.8324 122.229 94.8332 127.422 94.8332 127.422C94.8332 127.422 94.9891 121.599 93.1017 121.757C91.2143 121.913 90.1123 126.318 90.1123 126.318C90.1123 126.318 89.3261 120.182 86.4934 120.655C83.6607 121.126 84.4477 126.318 84.4477 126.318C84.4477 126.318 83.1889 120.339 80.8281 120.655C78.4688 120.97 78.9407 125.847 78.9407 125.847C78.9407 125.847 78.3113 120.024 76.2663 120.182C74.2198 120.339 73.7479 125.533 73.7479 125.533C73.7479 125.533 72.174 119.238 70.6001 119.552C69.0278 119.868 67.9266 125.374 67.9266 125.374C67.9266 125.374 67.1388 119.08 64.778 119.552C62.4172 120.024 62.2604 125.06 62.2604 125.06C62.2604 125.06 59.7428 118.924 58.3273 119.238C56.9101 119.553 54.5509 125.06 54.5509 125.06C54.5509 125.06 53.1346 119.552 51.7182 119.71C50.3019 119.868 47.7835 125.375 47.7835 125.375C47.7835 125.375 47.1405 122.802 46.0328 121.078C45.7505 120.639 45.4386 120.257 45.0987 119.984C44.5845 119.571 44.0079 119.413 43.3777 119.71C40.7025 120.969 41.096 124.666 41.096 124.666C41.096 124.666 42.7059 125.408 44.1126 125.663C45.521 125.92 51.1512 125.92 51.1512 125.92L58.061 125.663L66.2511 125.92L77.3844 126.561C77.3844 126.561 84.8068 126.945 86.2143 127.072L91.4614 127.712C91.4614 127.712 95.0443 128.096 95.9416 128.096C96.8365 128.097 99.3973 126.561 99.3973 126.561Z" fill="white"/>
<path d="M138.105 30.6771C138.596 27.5653 134.487 25.7994 134.172 24.068C133.856 22.3373 137.633 17.774 135.273 14.6278C132.913 11.4816 127.721 12.4253 125.359 11.3233C122.999 10.222 121.11 5.0293 117.02 5.0293C112.927 5.0293 112.771 9.27833 110.726 9.90613C108.68 10.5371 106.006 5.97379 101.913 7.38934C97.8225 8.80568 98.9237 12.5837 97.0355 14.7854C95.1481 16.9879 90.8991 16.0434 89.4819 18.7185C88.0656 21.3944 90.7407 23.9112 90.8991 26.2713C91.055 28.6321 88.0656 30.0485 88.6958 33.5106C89.3244 36.9718 92.3138 37.1286 93.4159 38.5449C94.5171 39.9605 95.3033 45.3116 96.5629 47.1998C97.8217 49.0872 103.644 48.6153 105.689 49.8749C107.736 51.1337 110.253 54.5958 112.613 54.9101C114.973 55.2252 117.019 51.6055 118.906 51.1337C120.795 50.661 122.212 52.5484 124.256 51.7631C126.302 50.9753 124.571 47.6724 125.515 47.1998C126.459 46.7271 130.707 47.6732 132.911 45.9418C135.115 44.2087 132.438 37.9147 133.383 36.6559C134.328 35.3987 137.633 33.6681 138.105 30.6771Z" fill="#682527"/>
<path d="M52.8778 28.4163C53.7056 25.526 49.4157 24.1681 49.4157 22.7525C49.4157 21.3362 52.0917 19.7623 52.0917 17.4015C52.0917 15.0414 47.6843 13.31 46.112 12.052C44.5381 10.7924 44.6949 6.07309 42.3348 4.8143C39.974 3.5547 36.827 4.97105 34.1526 4.4992C31.4767 4.02655 29.7461 0.564461 27.2285 0.72201C24.7117 0.880359 23.4521 4.02655 20.9353 5.1286C18.4169 6.23064 14.7981 4.1857 11.807 6.23064C8.81757 8.27558 9.76207 11.8952 8.81757 13.7834C7.87388 15.6716 4.09749 15.0406 2.99544 17.7174C1.895 20.3925 4.56854 23.066 4.09749 24.9542C3.62644 26.844 0.320301 30.3053 0.47865 32.6654C0.6362 35.0262 3.46729 36.4433 4.88444 38.1732C6.29998 39.9038 7.55878 44.468 9.60452 45.8835C11.6495 47.2999 14.3238 44.3112 16.843 44.9398C19.3606 45.5692 20.7769 51.233 23.7664 51.3905C26.7558 51.5481 29.2742 46.9848 30.6898 46.1978C32.1061 45.4117 35.4106 47.4566 38.2433 46.6697C41.0752 45.8835 40.1315 41.0043 41.5471 39.4312C42.9642 37.8589 45.7961 40.3749 47.6843 39.1161C49.5733 37.8581 48.1561 33.9249 48.7855 32.6646C49.4149 31.4066 52.2476 30.6196 52.8778 28.4163Z" fill="#682527"/>
<path d="M37.7786 98.2799V89.961L37.9705 86.6349C37.9705 86.6349 36.6909 84.458 34.0678 83.1792C31.4446 81.898 28.6287 81.1958 26.966 82.1563C25.3018 83.116 27.0292 87.4666 27.2212 87.8505C27.4131 88.2336 29.2685 92.0107 29.2685 92.0107C29.2685 92.0107 26.1975 95.464 25.6217 96.2958C25.0466 97.1275 24.3421 99.4955 24.9179 100.903C25.4937 102.311 27.605 102.375 27.605 102.375L30.8048 102.631C30.8048 102.631 32.4043 101.415 34.3237 100.199C36.2431 98.9829 37.7786 98.2799 37.7786 98.2799Z" fill="#F8C2A0"/>
<path d="M96.4063 52.0198L102.387 48.2434C103.802 45.254 98.1377 40.5331 96.092 41.7911C95.4226 42.2037 92.5515 46.1961 92.5515 46.1961C92.5515 46.1961 94.1502 47.3469 94.2142 47.6676C94.2782 47.9875 95.6857 50.2268 95.6857 50.2268L96.4063 52.0198Z" fill="#FBF86E"/>
<path d="M46.56 45.4097C46.56 44.3533 43.7273 37.6994 42.6253 37.8578C41.5248 38.0153 36.804 41.6341 36.804 42.8929C36.804 44.1517 41.2097 49.0294 42.6253 48.8726C44.0416 48.7135 46.56 46.8253 46.56 45.4097Z" fill="#FBF86E"/>
<path d="M71.0719 92.6942C71.0719 92.6942 68.9478 94.3472 69.4204 97.1791C69.8923 100.011 74.8491 99.3025 74.8491 99.3025C74.8491 99.3025 75.3209 101.19 76.2654 102.371C77.2091 103.552 80.2777 103.317 80.5145 100.955C80.7504 98.5955 80.7504 59.1777 80.7504 59.1777" stroke="black" stroke-miterlimit="10" stroke-linecap="round" stroke-linejoin="round"/>
<path d="M84.5254 92.9307C84.5254 92.9307 86.4136 96.7078 84.9988 98.1226C83.5825 99.5389 80.5146 98.3593 80.5146 98.3593" stroke="black" stroke-miterlimit="10" stroke-linecap="round" stroke-linejoin="round"/>
<path d="M81.4574 66.967C81.4574 66.967 91.3703 65.3156 94.9107 64.8429C98.452 64.3711 104.824 64.1352 104.588 66.4952C104.352 68.8552 98.6879 68.6193 96.5638 68.6193C94.4397 68.6193 80.9856 70.7434 80.9856 70.7434" stroke="black" stroke-miterlimit="10" stroke-linecap="round" stroke-linejoin="round"/>
<path d="M69.8915 70.5073C75.0842 70.7432 74.4628 67.0884 72.2515 66.2591C68.4743 64.8427 66.8964 64.1222 63.2832 63.1913C55.9663 61.3023 47.7042 61.7749 47.2331 63.6623C47.0428 64.4205 49.594 65.5505 53.1336 66.2591" stroke="black" stroke-miterlimit="10" stroke-linecap="round" stroke-linejoin="round"/>
<path d="M83.5817 70.5074C83.5817 70.5074 80.9858 73.1042 81.2217 77.3532C81.4576 81.6023 85.7059 85.1419 91.8431 86.0864C97.9795 87.0309 104.452 84.4589 105.296 79.4773C105.89 75.9793 104.824 71.2152 99.3951 68.856" stroke="black" stroke-miterlimit="10" stroke-linecap="round" stroke-linejoin="round"/>
<path d="M71.7798 77.5885C72.4124 73.7977 70.7857 67.7764 61.8662 66.2593C50.773 64.3711 47.7043 70.941 47.7043 73.8121C47.7043 80.6563 51.7183 83.4898 58.0906 84.9069C63.0642 86.0106 70.8361 83.2539 71.7798 77.5885Z" stroke="black" stroke-miterlimit="10" stroke-linecap="round" stroke-linejoin="round"/>
<path d="M75.3201 62.0112C75.3201 62.0112 75.3201 66.0235 73.4319 66.7313" stroke="black" stroke-miterlimit="10" stroke-linecap="round" stroke-linejoin="round"/>
<path d="M41.051 48.646C35.8719 54.4641 31.8836 65.3566 31.6541 80.8932" stroke="black" stroke-miterlimit="10" stroke-linecap="round" stroke-linejoin="round"/>
<path d="M101.284 64.1352C101.284 64.1352 100.575 59.8861 97.5067 58.4706C97.5067 58.4706 96.7989 49.7366 92.5515 46.1961C88.3024 42.6565 83.5816 38.6434 70.5993 37.9356C60.7361 37.3974 52.2348 40.2668 46.3391 44.16" stroke="black" stroke-miterlimit="10" stroke-linecap="round" stroke-linejoin="round"/>
<path d="M37.5555 86.0859C36.8477 84.4344 30.9464 80.6564 27.4068 82.0728C23.8663 83.4891 30.0019 93.4019 30.0019 93.4019" stroke="black" stroke-miterlimit="10" stroke-linecap="round" stroke-linejoin="round"/>
<path d="M37.7914 86.3213C37.7914 86.3213 37.5555 94.11 37.7914 97.6505" stroke="black" stroke-miterlimit="10" stroke-linecap="round" stroke-linejoin="round"/>
<path d="M29.0592 92.2227C29.0592 92.2227 24.5742 96.6028 24.5742 99.0677C24.5742 101.19 26.2257 102.608 30.0021 102.608" stroke="black" stroke-miterlimit="10" stroke-linecap="round" stroke-linejoin="round"/>
<path d="M103.644 82.7822C103.644 82.7822 104.129 86.0972 102.699 87.7382C100.483 90.2822 96.7988 90.5701 96.7988 90.5701" stroke="black" stroke-miterlimit="10" stroke-linecap="round" stroke-linejoin="round"/>
<path d="M45.1082 81.8374C45.1082 81.8374 46.4165 84.7805 49.3572 86.3216C52.4082 87.9219 55.4936 87.7379 55.4936 87.7379" stroke="black" stroke-miterlimit="10" stroke-linecap="round" stroke-linejoin="round"/>
<path d="M101.992 88.6816C101.992 88.6816 102.464 95.5266 102.228 98.8304" stroke="black" stroke-miterlimit="10" stroke-linecap="round" stroke-linejoin="round"/>
<path d="M85.7055 95.5265C85.7055 95.5265 95.8542 95.5265 104.116 100.011C110.164 103.294 114.974 111.813 113.558 122.434C112.142 133.055 100.812 141.788 87.1226 144.856C73.4318 147.925 43.4558 144.856 32.3626 135.18C21.2686 125.502 22.2147 106.147 35.6679 99.3021C49.1212 92.4579 69.4203 94.5828 69.4203 94.5828" stroke="black" stroke-miterlimit="10" stroke-linecap="round" stroke-linejoin="round"/>
<path d="M72.2515 110.161C78.8462 110.611 93.3095 112.635 98.4519 115.118C105.297 118.422 106.712 124.086 104.824 127.627C102.937 131.169 97.0355 132.347 87.1227 131.169C77.2091 129.988 52.4258 129.32 46.7613 129.516C39.9163 129.752 34.0445 126.917 33.5439 122.906C32.8353 117.243 36.3758 112.522 42.9849 111.105C49.5932 109.689 61.866 109.453 72.2515 110.161Z" stroke="black" stroke-miterlimit="10" stroke-linecap="round" stroke-linejoin="round"/>
<path d="M100.339 124.559C101.048 121.255 96.327 117.949 90.6617 116.063C84.9979 114.174 70.5985 112.993 65.4074 112.993C60.2138 112.993 45.8153 113.703 42.0397 115.59C38.2641 117.477 37.0829 123.143 41.096 124.796C45.1083 126.446 56.2023 125.739 63.5184 125.739C70.8352 125.739 86.1775 126.92 89.482 127.392C92.7866 127.864 99.3493 129.182 100.339 124.559Z" stroke="black" stroke-miterlimit="10" stroke-linecap="round" stroke-linejoin="round"/>
<path d="M43.22 115.354C43.22 115.354 42.5122 120.546 45.3441 121.018C48.176 121.49 49.1205 114.173 49.1205 114.173C49.1205 114.173 48.8845 121.254 51.4813 121.489C54.0789 121.725 55.4936 113.937 55.4936 113.937C55.4936 113.937 54.7851 121.961 57.1451 121.961C59.5051 121.961 60.4504 113.464 60.4504 113.464C60.4504 113.464 60.2145 121.961 63.2831 121.961C66.3509 121.961 65.408 113.701 65.408 113.701C65.408 113.701 66.3517 121.961 68.711 121.961C71.0718 121.961 71.0718 114.173 71.0718 114.173C71.0718 114.173 71.0718 121.725 73.6678 121.725C76.2654 121.725 76.9731 114.173 76.9731 114.173C76.9731 114.173 76.0286 121.018 78.8613 121.489C81.6932 121.961 82.401 114.644 82.401 114.644C82.401 114.644 81.2214 121.489 83.5822 121.96C85.9422 122.433 87.3594 115.588 87.3594 115.588C87.3594 115.588 87.1235 121.724 89.7194 122.196C92.3154 122.67 93.0232 117.241 93.0232 117.241C93.0232 117.241 92.0795 122.67 94.6754 122.905C97.2714 123.142 97.5073 119.601 97.5073 119.601" stroke="black" stroke-miterlimit="10" stroke-linecap="round" stroke-linejoin="round"/>
<path d="M96.4055 122.199C97.9794 122.042 99.2374 125.818 99.2374 125.818" stroke="black" stroke-miterlimit="10" stroke-linecap="round" stroke-linejoin="round"/>
<path d="M94.3262 123.09C94.9076 124.755 94.8332 127.55 94.8332 127.55C94.8332 127.55 94.8324 124.745 95.4562 123.196" stroke="black" stroke-miterlimit="10" stroke-linecap="round" stroke-linejoin="round"/>
<path d="M70.5991 119.681C72.173 119.367 73.7469 125.663 73.7469 125.663C73.7469 125.663 74.2196 120.469 76.2653 120.312C78.3102 120.155 78.9396 125.977 78.9396 125.977C78.9396 125.977 78.4678 121.098 80.827 120.784C83.1879 120.469 84.4467 126.449 84.4467 126.449C84.4467 126.449 83.6597 121.255 86.4924 120.784C89.3251 120.312 90.1113 126.449 90.1113 126.449C90.1113 126.449 91.2133 122.044 93.1007 121.886" stroke="black" stroke-miterlimit="10" stroke-linecap="round" stroke-linejoin="round"/>
<path d="M65.4402 119.73C67.2884 120.405 67.9258 125.503 67.9258 125.503C67.9258 125.503 68.2945 123.661 68.9087 122.046" stroke="black" stroke-miterlimit="10" stroke-linecap="round" stroke-linejoin="round"/>
<path d="M59.4565 120.045C60.7841 121.591 62.2596 125.189 62.2596 125.189C62.2596 125.189 62.3132 123.511 62.8107 122" stroke="black" stroke-miterlimit="10" stroke-linecap="round" stroke-linejoin="round"/>
<path d="M53.0127 121.029C53.8852 122.608 54.549 125.188 54.549 125.188C54.549 125.188 55.2992 123.438 56.2085 121.853" stroke="black" stroke-miterlimit="10" stroke-linecap="round" stroke-linejoin="round"/>
<path d="M46.1104 121.331C47.1708 123.05 47.7826 125.503 47.7826 125.503C47.7826 125.503 49.1974 122.411 50.5017 120.794" stroke="black" stroke-miterlimit="10" stroke-linecap="round" stroke-linejoin="round"/>
<path d="M41.0959 124.795C41.0959 124.795 40.7016 121.098 43.3775 119.839" stroke="black" stroke-miterlimit="10" stroke-linecap="round" stroke-linejoin="round"/>
<path d="M91.2138 45.4108C85.7059 44.6247 82.7165 48.0852 76.8944 48.0852C71.0722 48.0852 65.4084 43.5218 56.5961 44.152C49.292 44.6743 44.2712 49.4031 42.4334 57.2126C39.9166 67.9124 40.8603 96.5512 40.8603 96.5512" stroke="black" stroke-miterlimit="10" stroke-linecap="round" stroke-linejoin="round"/>
<path d="M92.5515 46.196C92.5515 46.196 95.4218 42.2037 96.092 41.791C98.1369 40.5331 103.802 45.2547 102.385 48.2434L96.4055 52.0198" stroke="black" stroke-miterlimit="10" stroke-linecap="round" stroke-linejoin="round"/>
<path d="M46.3663 45.4107C46.3663 44.3543 43.5344 37.7004 42.4331 37.8587C41.3319 38.0163 36.6118 41.6351 36.6118 42.8931C36.6118 44.1511 41.0168 49.0295 42.4331 48.8728C43.8495 48.7145 46.3663 46.8263 46.3663 45.4107Z" stroke="black" stroke-miterlimit="10" stroke-linecap="round" stroke-linejoin="round"/>
<path d="M101.195 49.0821C102.951 49.3324 104.734 49.5428 105.69 50.1306C107.735 51.3902 110.254 54.8523 112.614 55.1666C114.974 55.4817 117.02 51.8628 118.907 51.3902C120.795 50.9183 122.212 52.8065 124.257 52.0188C126.303 51.2326 124.572 47.9289 125.515 47.4562C126.46 46.9844 130.708 47.9297 132.912 46.1974C135.115 44.4652 132.439 38.1712 133.384 36.9132C134.328 35.6544 137.633 33.9246 138.104 30.9335C138.595 27.8217 134.487 26.0551 134.171 24.3245C133.854 22.593 137.632 18.0297 135.272 14.8827C132.912 11.7373 127.719 12.681 125.359 11.579C122.999 10.4777 121.11 5.28418 117.019 5.28418C112.927 5.28418 112.77 9.53322 110.724 10.1618C108.679 10.792 106.006 6.22868 101.913 7.64422C97.8218 9.06057 98.9231 12.8386 97.0341 15.041C95.1459 17.2443 90.8977 16.2998 89.4813 18.9742C88.065 21.6493 90.7401 24.1669 90.8977 26.527C91.0544 28.8878 88.065 30.3033 88.6944 33.7654C89.3238 37.2275 92.3132 37.3843 93.4145 38.8006C93.9615 39.5036 94.4301 41.1767 94.9196 42.9153" stroke="black" stroke-miterlimit="10" stroke-linecap="round" stroke-linejoin="round"/>
<path d="M43.6025 39.0303C45.0564 39.1087 46.5871 40.0188 47.9403 39.1159C49.8293 37.8579 48.4129 33.9248 49.0423 32.6644C49.6717 31.4056 52.5044 30.6194 53.1338 28.4153C53.9608 25.5251 49.6717 24.1671 49.6717 22.7516C49.6717 21.3352 52.3477 19.7613 52.3477 17.4005C52.3477 15.0404 47.9411 13.309 46.3672 12.051C44.7941 10.7914 44.9509 6.07212 42.5908 4.81332C40.2308 3.55372 37.0838 4.97007 34.4094 4.49822C31.7335 4.02557 30.0021 0.563484 27.4853 0.721034C24.9685 0.879383 23.7089 4.02557 21.1913 5.12762C18.6737 6.22966 15.0557 4.18472 12.0646 6.22966C9.07437 8.27461 10.0189 11.8942 9.07437 13.7824C8.13067 15.6706 4.35349 15.0396 3.25224 17.7164C2.15259 20.3915 4.82614 23.0651 4.35349 24.9533C3.88164 26.843 0.577899 30.3043 0.734649 32.6644C0.892198 35.0252 3.72409 36.4424 5.14043 38.1722C6.55678 39.9029 7.81557 44.467 9.86132 45.8825C11.9071 47.2989 14.5814 44.3102 17.099 44.9388C19.6166 45.5682 21.0321 51.232 24.0224 51.3896C27.0118 51.5471 29.5302 46.9838 30.9465 46.1968C32.3629 45.4107 35.6674 47.4556 38.5001 46.6687C38.7257 46.6055 38.9288 46.5175 39.1103 46.4048" stroke="black" stroke-miterlimit="10" stroke-linecap="round" stroke-linejoin="round"/>
<path d="M59.6252 73.5283L59.818 76.5985" stroke="black" stroke-miterlimit="10" stroke-linecap="round" stroke-linejoin="round"/>
<path d="M58.0811 75.1729H60.893" stroke="black" stroke-miterlimit="10" stroke-linecap="round" stroke-linejoin="round"/>
<path d="M58.7368 74.0474L60.7986 76.2035" stroke="black" stroke-miterlimit="10" stroke-linecap="round" stroke-linejoin="round"/>
<path d="M58.5491 76.3898L60.7988 74.0474" stroke="black" stroke-miterlimit="10" stroke-linecap="round" stroke-linejoin="round"/>
<path d="M89.71 73.5283L89.9027 76.5985" stroke="black" stroke-miterlimit="10" stroke-linecap="round" stroke-linejoin="round"/>
<path d="M88.1665 75.1729H90.9776" stroke="black" stroke-miterlimit="10" stroke-linecap="round" stroke-linejoin="round"/>
<path d="M88.8208 74.0474L90.8825 76.2035" stroke="black" stroke-miterlimit="10" stroke-linecap="round" stroke-linejoin="round"/>
<path d="M88.6345 76.3898L90.8826 74.0474" stroke="black" stroke-miterlimit="10" stroke-linecap="round" stroke-linejoin="round"/>
</svg>
