<svg width="101" height="127" viewBox="0 0 101 127" fill="none" xmlns="http://www.w3.org/2000/svg">
<path d="M14.9713 87.2455C14.9713 87.2455 11.9537 88.8201 9.19823 86.4583C6.44279 84.0965 4.47461 78.4541 4.08098 73.4683L3.55587 69.269C3.55587 69.269 0.9319 63.1023 1.06337 61.3963C1.19406 59.6903 1.58848 55.8854 4.21245 55.0982C6.83642 54.3109 8.1488 56.6727 8.1488 56.6727C8.1488 56.6727 14.3155 64.5454 16.0215 77.011C16.8599 83.1328 14.9713 87.2455 14.9713 87.2455Z" fill="#F8C2A0"/>
<path d="M7.09863 54.0156C7.09863 54.0156 7.49227 46.7333 7.59068 44.3715C7.68909 42.0097 7.8859 31.0863 13.2 21.2455C18.514 11.4046 26.5836 8.45234 30.9135 5.7953C35.2435 3.13827 48.2335 0.382822 54.6301 0.678049C61.0266 0.973275 68.6041 2.351 74.9022 5.99212C81.2004 9.63324 81.2004 13.3728 81.2004 13.3728C81.2004 13.3728 83.8574 13.4712 86.8097 16.8171C89.762 20.163 94.7808 30.0039 95.076 35.9084C95.3713 41.8129 96.4538 46.6349 94.9776 56.771L90.3524 73.0085C90.3524 73.0085 90.3524 81.6684 90.3524 83.735C90.3524 85.8016 88.8763 93.1823 88.8763 93.1823L87.1049 100.465C87.1049 100.465 87.2033 106.271 85.3336 109.42C83.4638 112.569 80.0195 116.013 77.4609 117.489L72.8357 120.343C72.8357 120.343 68.7025 122.902 66.4391 122.902C64.1757 122.902 49.2176 125.263 43.1162 123.295C37.0149 121.327 29.831 120.245 27.3708 117.391C27.3708 117.391 22.352 111.585 21.1711 108.928C19.9902 106.271 18.1204 103.417 17.6284 101.941C17.1363 100.464 17.1363 97.5122 16.4475 94.4616C15.7586 91.4109 14.9713 87.2455 14.9713 87.2455C14.9713 87.2455 7.29545 57.8535 7.09863 54.0156Z" fill="#F8C2A0"/>
<path d="M68.8009 118.375C68.8009 118.375 71.95 119.654 70.9659 120.638C69.9818 121.623 66.3407 124.772 63.5853 124.968C60.8298 125.165 55.1221 126.838 50.0049 125.46C44.8876 124.083 41.0497 122.311 41.4433 120.54C41.8369 118.769 64.963 118.178 68.8009 118.375Z" fill="#F8C2A0"/>
<path d="M93.3048 80.1923C93.3048 80.1923 96.6507 72.6149 97.2412 70.9419C97.8316 69.269 99.8982 63.1676 100.193 61.1994C100.489 59.2313 100.587 56.7711 98.8157 55.3933C97.0443 54.0156 95.1746 54.9997 95.1746 54.9997L94.0921 60.3138L92.0255 67.9896L90.0573 71.5324C90.0573 71.5324 89.0732 83.5382 89.0732 84.2271C89.0732 84.9159 89.8605 88.4587 89.8605 88.4587C89.8605 88.4587 91.2382 87.8682 92.4191 85.1128C93.6 82.3573 93.3048 80.1923 93.3048 80.1923Z" fill="#F8C2A0"/>
<path d="M36.6213 77.6667C32.7944 76.5031 30.1515 69.8043 30.9954 65.8451C33.7092 53.1157 50.008 56.1577 51.5164 64.8019C52.9067 72.7762 49.1995 81.4921 36.6213 77.6667Z" fill="white"/>
<path d="M62.7641 73.7065C61.0234 70.9416 60.8699 60.7094 68.2332 58.8483C79.1731 56.0835 83.274 65.415 81.224 72.3256C79.1739 79.2363 67.5499 81.3099 62.7641 73.7065Z" fill="white"/>
<path d="M14.3154 65.5957L12.0851 61.0028L10.2476 57.46L7.22998 55.754C7.22998 55.754 7.22998 49.3244 7.22998 48.275C7.22998 47.2255 7.36067 37.5153 8.27941 34.7599C9.19816 32.0044 11.1663 26.4936 11.1663 26.4936C11.1663 26.4936 12.8723 20.9827 16.2836 16.5212C17.9896 14.2909 21.7945 10.7482 25.7308 8.51704C29.6672 6.28592 36.4904 3.79342 40.0332 2.48104C43.5759 1.16866 50.1362 0.775027 52.8916 0.644341C55.6471 0.513654 64.1764 1.82525 66.2752 2.48104C68.3749 3.13684 74.8045 5.7616 76.9034 7.46682C79.003 9.17284 81.1019 12.4526 81.1019 12.4526L81.2003 13.3713C81.2003 13.3713 78.3464 11.0095 76.2476 10.3537C74.1479 9.69794 69.1621 8.38557 69.1621 8.38557L67.4561 8.51704C67.4561 8.51704 63.1261 9.17284 61.158 8.64851C59.1898 8.12419 57.3531 7.86124 57.3531 7.86124C57.3531 7.86124 53.6789 8.38635 50.1362 8.38635C46.5935 8.38635 42.395 7.07397 42.395 7.07397L35.1781 8.25488C35.1781 8.25488 28.6177 9.82942 25.8623 11.5354C23.1069 13.2414 21.1379 15.6033 20.4821 19.8018L21.1387 21.3763C21.1387 21.3763 21.5323 22.5572 21.1387 23.7381C20.745 24.919 20.3514 28.1996 20.3514 28.1996L18.6454 31.3487C18.6454 31.3487 19.039 33.1854 18.2518 35.4165C17.4645 37.6476 15.4963 41.321 15.4963 41.321L13.7903 43.5513C13.7903 43.5513 14.5784 51.0304 15.1027 52.8671C15.6278 54.7038 15.6278 59.0338 15.6278 59.4274C15.6278 59.8211 14.3154 65.5957 14.3154 65.5957Z" fill="#BA9A87"/>
<path d="M90.4184 72.8122L89.4997 70.7133C89.4997 70.7133 89.7618 68.6137 90.1555 66.3834C90.5491 64.1522 90.1555 61.5283 90.1555 61.5283C90.1555 61.5283 92.2551 54.3114 92.3866 52.3432C92.5173 50.375 92.6488 46.1765 92.6488 46.1765C92.6488 46.1765 91.6851 44.4217 90.5491 39.8784C90.0248 37.7787 89.7618 33.1866 89.7618 33.1866C89.7618 33.1866 87.9251 31.8742 87.4 29.6438C86.8749 27.4135 88.1873 24.133 88.1873 24.133C88.1873 24.133 86.4821 19.2779 84.1203 17.0475C81.7585 14.8172 80.9712 13.8984 80.9712 13.8984C80.9712 13.8984 81.7585 13.767 83.7266 14.4236C85.6948 15.0801 87.7945 18.3599 88.3188 18.7535C88.8439 19.1472 92.1237 25.5768 92.9109 27.4135C93.6982 29.2502 95.5357 38.5668 95.7978 42.7653C96.06 46.9638 95.1743 55.0002 95.1743 55.0002L93.0424 64.5459L90.4184 72.8122Z" fill="#BA9A87"/>
<path d="M41.6077 104.565C41.6077 104.565 41.8045 104.106 42.3949 104.04C42.9854 103.975 46.3966 103.318 47.3807 103.385C48.3648 103.449 51.0549 103.449 51.0549 103.449L53.8103 103.122C53.8103 103.122 55.0566 104.106 55.5156 104.433C55.9753 104.762 57.5499 104.63 58.0742 104.433C58.5993 104.236 59.7802 103.318 59.7802 103.318L65.1596 104.106H70.4737L70.0801 105.22C70.0801 105.22 66.9963 109.354 65.6847 110.076C64.3724 110.797 56.5658 111.651 55.1881 111.651C53.8103 111.651 50.4645 110.797 49.2174 110.273C47.9712 109.747 44.6253 107.518 44.6253 107.518L41.6077 104.565Z" fill="#DF7C6C"/>
<path d="M49.1145 85.7261C49.1145 85.7261 46.2898 87.0306 46.2898 89.6388C46.2898 92.247 47.4487 93.1146 48.898 93.694L51.2882 93.9838" stroke="black" stroke-miterlimit="10" stroke-linecap="round" stroke-linejoin="round"/>
<path d="M64.7615 92.8973C64.7615 92.8973 63.3672 95.0521 61.5014 96.1574C59.6363 97.2612 57.3005 97.3171 55.5614 96.8825C52.0849 96.0133 51.7944 92.8257 50.6355 92.8257" stroke="black" stroke-miterlimit="10" stroke-linecap="round" stroke-linejoin="round"/>
<path d="M70.2898 104.311C68.8003 104.781 67.3131 105.247 67.3131 105.247L59.1578 105.499C59.1578 105.499 58.0092 107.227 56.2977 106.806L53.7957 105.31C53.7957 105.31 46.5953 105.417 43.4116 104.303" stroke="black" stroke-miterlimit="10" stroke-linecap="round" stroke-linejoin="round"/>
<path d="M70.1943 105.067C70.1943 105.067 67.5711 109.874 64.3276 110.499C61.0824 111.125 54.3064 112.662 49.5497 110.499C44.7686 108.326 41.9431 104.849 41.9431 104.849" stroke="black" stroke-miterlimit="10" stroke-linecap="round" stroke-linejoin="round"/>
<path d="M70.6619 104.194C64.9951 104.2 59.8267 103.371 59.8267 103.371C59.8267 103.371 58.2104 104.556 56.8941 104.673C55.5778 104.792 53.7418 103.126 53.7418 103.126C53.7418 103.126 49.5591 103.681 47.8263 103.549C46.0919 103.417 42.1265 103.988 42.1265 103.988" stroke="black" stroke-miterlimit="10" stroke-linecap="round" stroke-linejoin="round"/>
<path d="M18.9076 83.9873C18.9076 83.9873 17.6038 93.7668 25.3545 96.7371C27.8486 97.6929 29.1208 97.0261 29.1208 97.0261" stroke="black" stroke-miterlimit="10" stroke-linecap="round" stroke-linejoin="round"/>
<path d="M26.8755 98.0415C26.8755 98.0415 30.0639 104.705 30.3536 106.444C30.6426 108.182 29.9183 111.949 31.9463 113.759" stroke="black" stroke-miterlimit="10" stroke-linecap="round" stroke-linejoin="round"/>
<path d="M72.9482 117.455C72.9482 117.455 70.8674 125.362 57.3012 125.858C46.3715 126.258 41.0748 121.801 39.6262 119.483" stroke="black" stroke-miterlimit="10" stroke-linecap="round" stroke-linejoin="round"/>
<path d="M8.62195 56.8944C8.62195 56.8944 5.56104 54.0712 3.696 55.4466C-1.80938 59.5018 3.11657 66.5282 3.696 70.2953C4.27543 74.0616 4.70921 84.4913 10.4327 87.2452C12.7315 88.3513 14.9965 87.2452 14.9965 87.2452C14.9965 87.2452 17.315 96.5909 17.6047 100.937C17.8936 105.284 24.5594 114.267 26.8764 116.874C28.691 118.914 38.313 122.401 44.7899 123.786" stroke="black" stroke-miterlimit="10" stroke-linecap="round" stroke-linejoin="round"/>
<path d="M7.19691 55.4918C7.19691 55.4918 6.70487 38.6639 9.34537 31.6856C10.9679 27.4013 11.9536 21.255 18.0392 14.5908C24.124 7.92577 39.1183 0.75453 52.7365 0.681313C65.632 0.612821 78.8881 5.97019 81.2774 13.1414" stroke="black" stroke-miterlimit="10" stroke-linecap="round" stroke-linejoin="round"/>
<path d="M81.0603 13.576C81.0603 13.576 84.7739 13.3469 88.3764 18.9365C91.9262 24.4419 93.5196 28.0649 94.9682 35.5251C96.6805 44.341 95.2579 53.7087 94.9682 56.3161C94.6793 58.9243 91.4349 69.7611 90.3524 72.7134" stroke="black" stroke-miterlimit="10" stroke-linecap="round" stroke-linejoin="round"/>
<path d="M10.0706 56.8945C12.0994 60.6608 14.3446 66.1662 14.3446 66.1662C14.3446 66.1662 15.287 62.3999 15.5759 59.5019C15.8649 56.6048 13.5479 44.2171 14.1274 43.3472C14.706 42.478 18.9801 36.6097 18.9801 31.8286" stroke="black" stroke-miterlimit="10" stroke-linecap="round" stroke-linejoin="round"/>
<path d="M79.9737 12.4894C74.3243 8.57746 68.3835 8.44678 68.3835 8.44678" stroke="black" stroke-miterlimit="10" stroke-linecap="round" stroke-linejoin="round"/>
<path d="M21.66 20.7471C21.66 20.7471 19.632 24.2237 16.7349 27.1216" stroke="black" stroke-miterlimit="10" stroke-linecap="round" stroke-linejoin="round"/>
<path d="M21.3702 23.645C21.3702 23.645 17.8928 28.5702 15.2854 32.3373" stroke="black" stroke-miterlimit="10" stroke-linecap="round" stroke-linejoin="round"/>
<path d="M20.5012 27.7012C20.5012 27.7012 19.0534 32.6279 14.1274 36.1045" stroke="black" stroke-miterlimit="10" stroke-linecap="round" stroke-linejoin="round"/>
<path d="M67.8052 9.49089C67.8052 9.49089 65.4867 6.36149 60.271 5.31836" stroke="black" stroke-miterlimit="10" stroke-linecap="round" stroke-linejoin="round"/>
<path d="M61.1408 9.49089C61.1408 9.49089 58.8223 6.01352 51.5786 5.31836" stroke="black" stroke-miterlimit="10" stroke-linecap="round" stroke-linejoin="round"/>
<path d="M59.4016 9.14292C53.9844 5.89385 52.0595 6.06863 45.4937 5.31836" stroke="black" stroke-miterlimit="10" stroke-linecap="round" stroke-linejoin="round"/>
<path d="M50.9982 8.44712C45.2031 7.75196 44.334 7.23079 41.7266 6.88281" stroke="black" stroke-miterlimit="10" stroke-linecap="round" stroke-linejoin="round"/>
<path d="M84.2478 17.125C88.1597 19.9497 88.3762 25.6716 89.5359 27.7012" stroke="black" stroke-miterlimit="10" stroke-linecap="round" stroke-linejoin="round"/>
<path d="M90.4774 33.7137C90.4774 33.7137 87.8692 31.6849 87.2898 28.498" stroke="black" stroke-miterlimit="10" stroke-linecap="round" stroke-linejoin="round"/>
<path d="M89.9705 33.7866C90.6224 40.0887 90.4051 42.2624 92.3607 45.9562C93.0125 53.7801 90.3327 63.0069 90.3327 61.2419C90.3327 60.0822 90.8404 65.442 89.5359 70.2963C93.0125 85.2906 87.145 96.8824 87.145 101.517C87.145 106.153 84.2478 111.948 81.9293 113.976C80.1918 115.498 74.8038 120.048 69.7849 122.016" stroke="black" stroke-miterlimit="10" stroke-linecap="round" stroke-linejoin="round"/>
<path d="M94.9681 55.1565C94.9681 55.1565 98.9745 53.6568 100.184 57.1846C101.923 62.2546 93.2298 80.2925 93.2298 80.2925C93.2298 80.2925 93.447 86.5946 89.5359 88.9855" stroke="black" stroke-miterlimit="10" stroke-linecap="round" stroke-linejoin="round"/>
<path d="M36.5976 77.6784C32.7699 76.5149 30.127 69.816 30.9718 65.8568C33.6855 53.1274 49.9843 56.1694 51.492 64.8137C52.8823 72.7879 49.1742 81.503 36.5976 77.6784Z" stroke="black" stroke-miterlimit="10" stroke-linecap="round" stroke-linejoin="round"/>
<path d="M62.7397 73.7182C60.999 70.9533 60.8455 60.7212 68.2088 58.8601C79.1487 56.0952 83.2496 65.4267 81.1996 72.3373C79.1495 79.248 67.5263 81.3217 62.7397 73.7182Z" stroke="black" stroke-miterlimit="10" stroke-linecap="round" stroke-linejoin="round"/>
<path d="M43.5625 52.3555C45.563 52.0973 47.6406 52.0957 49.3316 52.2587C51.5982 52.476 55.1999 55.3015 54.9826 66.3847C54.8504 73.1339 52.8098 77.2506 51.2888 80.5099" stroke="black" stroke-miterlimit="10" stroke-linecap="round" stroke-linejoin="round"/>
<path d="M38.249 53.9979C38.9371 53.5681 39.7566 53.2248 40.6518 52.9556" stroke="black" stroke-miterlimit="10" stroke-linecap="round" stroke-linejoin="round"/>
<path d="M63.3853 56.6061C63.3853 56.6061 64.8315 54.5356 67.1523 53.3452C69.9771 51.8959 73.1639 52.1147 77.8002 57.0391" stroke="black" stroke-miterlimit="10" stroke-linecap="round" stroke-linejoin="round"/>
<path d="M26.5142 67.4707C26.5142 67.4707 23.6879 67.4707 22.6023 68.5571" stroke="black" stroke-miterlimit="10" stroke-linecap="round" stroke-linejoin="round"/>
<path d="M27.1653 67.6885C27.1653 67.6885 24.3398 68.9922 23.906 69.6441" stroke="black" stroke-miterlimit="10" stroke-linecap="round" stroke-linejoin="round"/>
<path d="M83.6685 68.3408C83.6685 68.3408 84.5376 66.819 86.2767 67.689" stroke="black" stroke-miterlimit="10" stroke-linecap="round" stroke-linejoin="round"/>
<path d="M87.3621 70.0791C87.3621 70.0791 83.8848 68.1235 83.0156 69.2099" stroke="black" stroke-miterlimit="10" stroke-linecap="round" stroke-linejoin="round"/>
<path d="M80.6257 95.2874C80.6257 95.2874 86.7105 95.5047 89.318 90.5063" stroke="black" stroke-miterlimit="10" stroke-linecap="round" stroke-linejoin="round"/>
<path d="M83.6684 95.2876C83.4519 98.5477 79.5399 106.371 79.7564 107.892C79.9729 109.414 78.2354 112.673 76.4963 113.107" stroke="black" stroke-miterlimit="10" stroke-linecap="round" stroke-linejoin="round"/>
<path d="M66.7176 86.5942C66.7176 86.5942 68.6732 89.4197 68.0213 91.5934C67.3695 93.7663 64.7612 93.549 64.7612 93.549" stroke="black" stroke-miterlimit="10" stroke-linecap="round" stroke-linejoin="round"/>
<path d="M64.545 79.2062C62.3713 76.598 61.2849 68.7749 61.2849 68.7749" stroke="black" stroke-miterlimit="10" stroke-linecap="round" stroke-linejoin="round"/>
<path d="M54.1931 102.943C53.9924 101.766 54.6206 97.3096 54.6206 97.3096" stroke="black" stroke-miterlimit="10" stroke-linecap="round" stroke-linejoin="round"/>
<path d="M58.3223 97.3711L59.4276 102.903" stroke="black" stroke-miterlimit="10" stroke-linecap="round" stroke-linejoin="round"/>
<path d="M40.4896 67.4897L40.3511 69.1674" stroke="black" stroke-miterlimit="10" stroke-linecap="round" stroke-linejoin="round"/>
<path d="M41.3171 68.4062L39.7795 68.3755" stroke="black" stroke-miterlimit="10" stroke-linecap="round" stroke-linejoin="round"/>
<path d="M40.9714 67.7832L39.8196 68.9413" stroke="black" stroke-miterlimit="10" stroke-linecap="round" stroke-linejoin="round"/>
<path d="M41.0478 69.0678L39.8425 67.7617" stroke="black" stroke-miterlimit="10" stroke-linecap="round" stroke-linejoin="round"/>
<path d="M70.6676 67.2275L70.5298 68.9044" stroke="black" stroke-miterlimit="10" stroke-linecap="round" stroke-linejoin="round"/>
<path d="M71.4966 68.1442L69.9583 68.1143" stroke="black" stroke-miterlimit="10" stroke-linecap="round" stroke-linejoin="round"/>
<path d="M71.1495 67.5205L69.9993 68.6786" stroke="black" stroke-miterlimit="10" stroke-linecap="round" stroke-linejoin="round"/>
<path d="M71.2273 68.8048L70.022 67.4995" stroke="black" stroke-miterlimit="10" stroke-linecap="round" stroke-linejoin="round"/>
<path d="M20.4287 19.8781C20.4287 19.8781 21.2986 15.3151 24.5587 12.2723C27.818 9.23029 36.9448 7.92578 36.9448 7.92578" stroke="black" stroke-miterlimit="10" stroke-linecap="round" stroke-linejoin="round"/>
<path d="M40.2048 104.85C40.2048 104.85 42.3785 104.415 42.3785 102.894" stroke="black" stroke-miterlimit="10" stroke-linecap="round" stroke-linejoin="round"/>
<path d="M70.629 103.111C70.629 103.111 70.1937 104.85 71.9327 105.284" stroke="black" stroke-miterlimit="10" stroke-linecap="round" stroke-linejoin="round"/>
<path d="M41.7266 41.3927C41.7266 41.3927 53.4616 40.7409 59.7629 43.131C59.7629 43.131 68.8913 41.61 73.0205 42.9145" stroke="black" stroke-miterlimit="10" stroke-linecap="round" stroke-linejoin="round"/>
<path d="M48.4626 36.1768C48.4626 36.1768 57.5902 36.8287 59.7631 38.785C59.7631 38.785 69.5426 35.0912 74.1064 36.3949" stroke="black" stroke-miterlimit="10" stroke-linecap="round" stroke-linejoin="round"/>
</svg>
