<svg width="106" height="117" viewBox="0 0 106 117" fill="none" xmlns="http://www.w3.org/2000/svg">
<path d="M81.7759 109.169C83.1558 109.604 84.6129 109.738 86.0488 109.561C87.9515 109.434 89.8624 109.52 91.746 109.818" stroke="black" stroke-linecap="round" stroke-linejoin="round"/>
<path d="M82.0321 109.314C82.0321 109.314 81.7759 105.432 81.7759 104.136V99.999" stroke="black" stroke-linecap="round" stroke-linejoin="round"/>
<path d="M91.6101 97.4058C91.4885 98.6956 91.4457 99.9917 91.482 101.287C91.5489 102.278 91.5489 103.272 91.482 104.264C91.482 104.264 92.0019 108.401 91.6101 109.539" stroke="black" stroke-linecap="round" stroke-linejoin="round"/>
<path d="M81.9038 104.007C81.9038 104.007 85.5286 103.932 86.9529 104.007C89.4097 104.135 91.4745 104.263 91.4745 104.263" stroke="black" stroke-linecap="round" stroke-linejoin="round"/>
<path d="M90.186 109.569L89.666 104.007" stroke="black" stroke-linecap="round" stroke-linejoin="round"/>
<path d="M88.1137 109.313C88.1137 109.313 87.4656 104.791 87.7218 104.136" stroke="black" stroke-linecap="round" stroke-linejoin="round"/>
<path d="M86.0413 109.57L85.657 103.88" stroke="black" stroke-linecap="round" stroke-linejoin="round"/>
<path d="M83.9764 109.569C83.9764 109.569 83.4564 105.048 83.7202 104.136" stroke="black" stroke-linecap="round" stroke-linejoin="round"/>
<path d="M88.2418 103.744C88.498 102.448 88.9954 99.3432 88.6261 97.9189C88.2569 96.4946 86.8175 97.3989 86.4256 97.9189C86.0338 98.4389 85.5213 102.576 86.2975 103.352" stroke="black" stroke-linecap="round" stroke-linejoin="round"/>
<path d="M84.2324 103.488C84.2324 103.488 84.4886 97.926 84.4886 97.0142" stroke="black" stroke-linecap="round" stroke-linejoin="round"/>
<path d="M90.3142 97.2788C90.3142 97.2788 89.9224 102.976 89.9224 104.008" stroke="black" stroke-linecap="round" stroke-linejoin="round"/>
<path d="M31.654 87.4285C31.654 87.4285 27.6373 91.0684 26.5672 91.7617C25.4971 92.455 22.4224 94.339 20.5987 93.706C18.775 93.073 19.1518 91.5055 19.0312 90.5032C18.9106 89.5009 19.9732 85.2883 19.9732 85.2883L21.1639 81.7087C21.1639 81.7087 14.1328 84.3011 12.2488 84.2257C10.3648 84.1503 7.35037 84.7909 6.53648 82.402C5.72259 80.0131 6.66459 76.6219 6.91328 75.4312C7.16197 74.2405 10.2442 63.3735 10.2442 63.3735L13.3189 52.386C13.3189 52.386 15.0145 45.2268 15.3913 44.2848C15.7681 43.3428 18.0892 35.9349 19.1593 34.7367C20.2294 33.5384 23.5528 27.5775 24.8716 26.1305C26.1904 24.6836 30.6517 19.9133 32.1589 18.3458C33.6661 16.7783 40.8254 12.317 41.2022 12.0005C41.579 11.684 47.4797 8.6093 50.6825 8.0441C55.174 7.39518 59.7096 7.10036 64.2473 7.16238C66.8246 7.35078 72.5369 7.16238 78.5054 10.1768C84.474 13.1912 87.5487 16.6427 88.6791 18.1499C89.4985 19.4896 90.0727 20.9646 90.3747 22.5057C92.6982 24.4719 94.7869 26.6997 96.5994 29.1449C99.2695 32.7583 101.367 36.7617 102.817 41.0142C104.003 44.2055 104.744 47.5453 105.017 50.9391C105.017 51.8811 104.452 53.4486 101.754 52.9512C99.786 52.5381 97.8533 51.9712 95.9739 51.2556C95.9739 51.2556 52.6418 56.9679 49.0019 59.8618C45.362 62.7556 33.8018 85.2958 33.8018 85.2958L31.654 87.4285Z" fill="#3A3A3D"/>
<path d="M30.6514 82.6502C30.6514 82.6502 27.2602 82.5221 25.3159 80.7059C23.5735 79.0555 22.295 76.9766 21.6081 74.6771C21.1032 72.8534 20.538 70.4042 21.2313 68.2112C21.8801 66.603 22.8641 65.1515 24.1176 63.9533L25.8132 62.8229C25.8132 62.8229 29.5813 66.2141 30.7117 66.9677C31.1402 67.2821 31.6737 67.4185 32.2005 67.3482C32.7273 67.278 33.2065 67.0066 33.5377 66.5909C34.5656 64.9458 35.4674 63.2252 36.2356 61.4438C36.7405 60.125 39.0013 51.3983 39.0013 51.3983C40.4459 50.416 41.9567 49.5347 43.5229 48.7607C45.1582 48.0674 45.9118 47.8187 46.9744 48.0674C48.037 48.3161 48.4213 49.1978 49.8004 48.821C50.9668 48.5352 52.1026 48.1364 53.1916 47.6303C53.8849 47.2535 56.0176 46.1231 56.9596 46.3115C57.9016 46.4999 58.4668 47.0651 59.4691 47.3138C59.8198 47.4491 60.2022 47.4798 60.57 47.4022C60.9379 47.3246 61.2753 47.1421 61.5415 46.8767C62.3554 46.3115 64.3675 44.4878 64.8724 44.4878C65.7117 44.524 66.5228 44.8014 67.2086 45.2866C68.339 45.9799 68.9645 46.6054 69.6578 46.7938C70.6091 47.0033 71.5734 47.1493 72.5441 47.2309C73.6261 47.3887 74.7252 47.3887 75.8072 47.2309C76.1728 47.1428 76.5071 46.9555 76.773 46.6895C77.039 46.4236 77.2263 46.0894 77.3144 45.7237C77.9186 42.4824 78.3587 39.2126 78.6332 35.9269C78.8204 33.8136 79.1553 31.7159 79.6355 29.6494C79.8842 28.8958 80.5172 28.3909 81.0824 29.2123C81.6476 30.0337 82.4615 33.3571 82.8383 34.9924C83.2151 36.6277 83.9084 42.7168 84.0968 43.7191C84.2852 44.7214 84.4133 47.8639 84.4133 47.8639C84.4133 47.8639 89.2514 49.0546 90.5702 49.4993L96.7875 51.5717L98.9202 52.1972C98.9202 52.1972 99.6135 70.8488 99.8019 71.2859C99.9903 71.723 99.1764 84.7904 99.1764 84.7904C99.1764 84.7904 97.7973 91.6331 96.5388 94.7757C95.2803 97.9182 90.947 106.585 86.7419 109.094C82.5368 111.604 80.9618 114.309 73.3052 115.56C65.6486 116.811 53.6438 113.925 50.3731 112.108C47.1025 110.292 40.9531 107.082 36.9364 100.428C32.9197 93.7734 30.6514 82.6502 30.6514 82.6502Z" fill="#F8C2A0"/>
<path d="M16.2057 41.8952C16.2057 41.8952 13.131 42.2117 12.0609 42.272C11.2919 42.2697 10.535 42.0798 9.85604 41.7186C9.17708 41.3575 8.59652 40.836 8.16478 40.1996C7.40524 38.6137 6.81663 36.9514 6.40889 35.2409C6.03209 33.9221 4.58517 33.1082 4.20837 32.7917C3.83157 32.4752 1.2015 30.3425 0.892524 27.3884C0.583548 24.4343 0.319787 21.2993 1.2015 18.737C2.19272 16.0311 3.54375 13.471 5.2182 11.1257C7.07247 9.21117 9.16442 7.54217 11.4429 6.15943C14.8844 4.39624 18.5047 3.00672 22.2421 2.01463C26.4472 1.01234 30.4639 0.823935 32.476 1.14045C34.4881 1.45696 38.3164 2.58736 39.6955 3.46154C41.0746 4.33572 43.0264 5.85046 43.5916 6.91304C44.1568 7.97562 44.1568 10.4926 44.1568 10.4926L37.7512 14.0723C36.1837 14.954 30.4036 19.9127 29.5897 20.7266C28.7758 21.5404 23.7493 27.2603 22.9354 28.5791C22.1215 29.8979 18.979 34.6682 18.4138 36.3638C17.8486 38.0594 16.2057 41.8952 16.2057 41.8952Z" fill="#3A3A3D"/>
<path d="M74.1571 62.3177C74.5113 55.2112 79.6207 50.2148 86.4936 50.5765C93.3664 50.9383 97.3002 57.6227 97.5941 62.8603C97.9483 69.1754 95.1977 74.2396 86.1394 74.2396C80.623 74.2396 73.7954 69.6125 74.1571 62.3177Z" fill="white"/>
<path d="M67.8945 63.1993C68.3617 68.8513 62.6193 75.3172 56.0856 75.1439C49.5518 74.9705 43.3949 70.14 43.0482 62.6944C42.7016 55.2488 49.5669 50.5765 56.4397 50.7498C63.3126 50.9231 67.2087 55.3844 67.8945 63.1993Z" fill="white"/>
<path d="M86.9684 60.9238L86.3127 63.3956" stroke="black" stroke-linecap="round" stroke-linejoin="round"/>
<path d="M85.7773 61.7378L87.602 62.9592" stroke="black" stroke-linecap="round" stroke-linejoin="round"/>
<path d="M85.5066 62.778L87.8277 61.7456" stroke="black" stroke-linecap="round" stroke-linejoin="round"/>
<path d="M86.2371 60.9316L86.9681 63.5165" stroke="black" stroke-linecap="round" stroke-linejoin="round"/>
<path d="M57.3971 60.3438L56.7415 62.8156" stroke="black" stroke-linecap="round" stroke-linejoin="round"/>
<path d="M56.2136 61.1577L58.0383 62.3792" stroke="black" stroke-linecap="round" stroke-linejoin="round"/>
<path d="M55.9348 62.198L58.2634 61.1655" stroke="black" stroke-linecap="round" stroke-linejoin="round"/>
<path d="M56.6736 60.3525L57.4046 62.9374" stroke="black" stroke-linecap="round" stroke-linejoin="round"/>
<path d="M74.1571 62.3177C74.5113 55.2112 79.6207 50.2148 86.4936 50.5765C93.3664 50.9383 97.3002 57.6227 97.5941 62.8603C97.9483 69.1754 95.1977 74.2396 86.1394 74.2396C80.623 74.2396 73.7954 69.6125 74.1571 62.3177Z" stroke="black" stroke-width="1.02" stroke-linecap="round" stroke-linejoin="round"/>
<path d="M67.8945 63.1993C68.3617 68.8513 62.6193 75.3172 56.0856 75.1439C49.5518 74.9705 43.3949 70.14 43.0482 62.6944C42.7016 55.2488 49.5669 50.5765 56.4397 50.7498C63.3126 50.9231 67.2087 55.3844 67.8945 63.1993Z" stroke="black" stroke-linecap="round" stroke-linejoin="round"/>
<path d="M75.0537 66.9678C75.0537 66.9678 80.5927 80.7436 80.5927 84.0067C80.5927 87.2698 69.884 84.7603 69.884 84.7603" stroke="black" stroke-linecap="round" stroke-linejoin="round"/>
<path d="M76.2973 47.0279C74.0365 47.7815 72.4841 47.0279 70.7357 47.0279C68.7688 47.0279 66.9225 44.4053 65.1968 44.4882C63.471 44.5711 61.8734 47.3896 60.3737 47.5026C58.874 47.6157 58.0677 46.116 56.7037 46.2893C54.5936 46.5531 51.9937 48.5501 50.3659 48.8591C48.4291 49.2434 47.0274 47.7136 45.6257 48.1055C41.1041 49.3791 38.7453 52.4236 36.3187 52.0921C31.9705 51.5043 35.9645 38.3313 42.34 30.7124C48.9868 22.7393 65.8901 7.8707 87.006 20.1619C100.277 27.909 105.364 45.8975 104.987 51.3385C104.678 55.7621 95.6498 50.2307 84.3759 47.9171C84.3759 47.9171 82.7783 25.8064 79.99 29.2278C78.5129 31.0741 78.5129 46.3044 76.2973 47.0279Z" stroke="black" stroke-linecap="round" stroke-linejoin="round"/>
<path d="M44.1785 10.1707C44.1785 10.1707 45.0753 5.05376 37.0193 2.2579C28.9633 -0.53796 18.1793 1.7982 9.88965 7.15631C-1.71581 14.6547 -1.61785 30.2994 5.36804 33.5324C7.88507 34.6929 5.36804 44.4596 15.5417 41.822" stroke="black" stroke-width="1.1" stroke-linecap="round" stroke-linejoin="round"/>
<path d="M25.3237 63.3354C25.3237 63.3354 19.5662 65.9806 21.2392 73.4865C23.4548 83.2833 30.8401 82.5297 30.8401 82.5297" stroke="black" stroke-linecap="round" stroke-linejoin="round"/>
<path d="M58.9944 95.2881C61.7941 97.0377 65.0134 98.0008 68.314 98.0764C71.6146 98.152 74.8746 97.3372 77.7515 95.7176" stroke="black" stroke-linecap="round" stroke-linejoin="round"/>
<path d="M30.4932 78.5647C30.4932 78.5647 30.6137 92.4159 38.7376 103.004C44.6006 110.676 54.4878 116.275 71.4665 115.551C86.2371 114.918 96.7272 100.042 98.7845 86.9146C101 72.777 98.7845 52.1133 98.7845 52.1133" stroke="black" stroke-linecap="round" stroke-linejoin="round"/>
<path d="M38.9862 51.564C38.9862 51.564 35.7834 66.0859 32.8368 67.3142C30.7192 68.196 25.7002 62.6118 25.7002 62.6118" stroke="black" stroke-linecap="round" stroke-linejoin="round"/>
<path d="M31.2318 87.6238C31.2318 87.6238 26.062 93.7882 21.239 93.7882C16.4159 93.7882 21.239 81.8286 21.239 81.8286C21.239 81.8286 8.31472 86.8626 6.4684 82.5144C4.62207 78.1661 12.0375 59.3486 14.6224 47.3739C17.561 34.7492 24.8866 23.578 35.2937 15.8507C41.4657 11.2086 47.5623 8.84979 50.7953 8.23937C60.4263 6.42319 69.9217 6.96578 75.8299 9.03819C80.9996 10.8544 89.0179 15.8206 90.2915 22.0152" stroke="black" stroke-linecap="round" stroke-linejoin="round"/>
<path d="M34.5475 107.293C34.5475 107.293 29.6943 109.208 27.1999 107.731C24.7055 106.254 25.2857 103.616 25.5796 101.408C25.8133 99.6595 23.3716 99.1998 23.3716 99.1998C25.7228 98.0242 27.637 97.8735 29.6943 99.1998C31.7516 100.526 34.2159 104.053 34.2159 104.053L34.5475 107.293Z" fill="#79B5BD"/>
<path d="M28.9634 80.3901L29.1819 83.9245" stroke="black" stroke-linecap="round" stroke-linejoin="round"/>
<path d="M29.7023 89.2137C29.7023 89.2137 27.0572 88.5505 25.5123 92.3034C24.052 96.2455 23.4507 100.454 23.7489 104.647C23.9674 108.619 24.1935 110.156 24.1935 110.156L34.7439 109.719C34.7439 109.719 34.0807 101.784 34.0807 98.4754C34.0807 94.2101 33.8622 92.2507 32.5735 90.54C32.2566 90.0831 31.8233 89.7192 31.3184 89.4861C30.8136 89.2529 30.2557 89.1588 29.7023 89.2137Z" stroke="black" stroke-linecap="round" stroke-linejoin="round"/>
<path d="M30.2821 88.9958C31.0357 87.9332 30.3801 85.4539 28.2474 86.5993C26.7402 87.3982 28.059 88.9958 28.059 88.9958" stroke="black" stroke-linecap="round" stroke-linejoin="round"/>
<path d="M28.2321 86.5616C27.6443 84.9413 28.526 82.884 29.5584 83.4718C29.7867 83.5708 29.9906 83.7183 30.1559 83.9042C30.3213 84.09 30.4441 84.3097 30.5158 84.5479C30.5876 84.7861 30.6065 85.0371 30.5713 85.2833C30.5361 85.5296 30.4476 85.7652 30.312 85.9738" stroke="black" stroke-linecap="round" stroke-linejoin="round"/>
<path d="M34.2535 104.061C34.2535 104.061 31.7516 100.534 29.7319 99.2076C27.7122 97.8813 25.7604 98.032 23.4092 99.2076C23.4092 99.2076 25.8509 99.6673 25.6172 101.416C25.3233 103.624 24.7355 106.269 27.2375 107.738C29.7394 109.208 34.5851 107.301 34.5851 107.301" stroke="black" stroke-linecap="round" stroke-linejoin="round"/>
<path d="M28.3755 104.211C28.6618 102.885 30.4328 102.003 33.2287 103.33L35.286 105.244C35.286 105.244 27.6445 107.588 28.3755 104.211Z" stroke="black" stroke-linecap="round" stroke-linejoin="round"/>
</svg>
