<svg width="98" height="127" viewBox="0 0 98 127" fill="none" xmlns="http://www.w3.org/2000/svg">
<path d="M67.3846 105.247C67.3846 105.247 67.7857 110.031 68.6651 114.21C69.9455 120.292 78.2685 121.892 82.1741 120.299C82.1741 120.299 96.8643 114.511 96.6412 97.5959C96.5218 88.4678 93.0802 79.5671 92.8579 65.7678C92.7428 58.6165 96.7527 39.6247 93.3033 29.0439C89.9646 18.8049 86.6259 16.5786 86.6259 16.5786C86.6259 16.5786 73.9411 16.4163 70.5796 16.7373C67.2188 17.0576 67.3846 105.247 67.3846 105.247Z" fill="#E9C372"/>
<path d="M70.5797 102.846C72.5408 100.641 79.5434 94.2038 81.7839 86.0409C84.0252 77.8779 85.7853 64.4332 85.465 61.8724C85.1448 59.3115 85.9455 44.4269 83.7042 37.2241C81.4636 30.0221 76.0217 20.8983 73.6203 18.4983C71.2196 16.0976 40.4896 10.4955 33.1274 29.5416C25.7644 48.5885 33.1274 78.9982 35.0483 85.2401C36.9693 91.4821 42.091 99.645 42.091 99.645C42.091 99.645 45.612 104.446 52.0141 105.886C58.4161 107.328 60.6574 107.487 62.2574 107.007C63.8581 106.528 69.2993 104.287 70.5797 102.846Z" fill="#EBCBC1"/>
<path d="M66.4817 55.6189C64.3634 50.8146 71.4132 47.6647 74.4695 47.1428C77.5251 46.6216 83.1636 46.8954 83.7792 50.4986C84.3954 54.1047 80.8087 57.8608 76.8623 59.1019C72.5499 60.4574 67.622 58.2069 66.4817 55.6189Z" fill="white"/>
<path d="M38.7766 51.9573C40.0163 47.479 44.1335 46.3695 49.1343 47.0801C54.1338 47.7915 57.772 52.166 57.3144 55.07C56.8569 57.9747 52.27 61.194 46.462 60.4841C41.3954 59.8643 37.9109 55.085 38.7766 51.9573Z" fill="white"/>
<path d="M51.459 85.7997C51.459 85.7997 54.2779 88.2054 59.2494 88.9154C65.4814 89.8054 69.9324 88.2469 70.1548 86.2444C70.3521 84.4614 65.6365 83.5628 62.1427 84.6866C55.9108 86.6898 51.459 85.7997 51.459 85.7997Z" fill="#CB6F7F"/>
<path d="M39.6633 102.715C45.0051 100.045 47.6761 92.0319 46.3406 86.0216C45.0051 80.0127 36.5477 67.1034 35.2122 56.4204C33.8774 45.7367 33.5857 36.0924 43.0019 27.2632C50.1239 20.5844 66.8173 21.0313 73.7169 21.4759C80.6166 21.9206 86.6269 19.4728 86.6269 15.4664C86.6269 10.5699 75.7208 1 55.9119 1C36.1023 1 15.6256 12.7961 11.3969 30.1565C7.16741 47.5175 10.7284 63.7655 10.2837 69.7751C9.83834 75.7839 1.38087 90.9187 0.934759 103.383C0.489366 115.848 10.5054 123.192 18.0728 125.195C25.6409 127.199 38.5501 125.64 42.5558 118.518C45.5885 113.128 41.4427 102.048 41.4427 102.048L39.6633 102.715Z" fill="#E9C372"/>
<path d="M62.0971 92.6573C60.8167 92.871 56.4421 92.337 54.6283 91.1631C52.8146 89.9892 51.5342 87.9624 51.5342 86.1479L55.695 87.2146L68.0724 87.4284L67.2188 88.9225C67.2188 88.9225 64.6579 92.2297 62.0971 92.6573Z" fill="#CB6F7F"/>
<path d="M66.4822 55.6189C64.3639 50.8146 71.4137 47.6647 74.47 47.1428C77.5255 46.6216 83.1641 46.8954 83.7796 50.4986C84.3959 54.1047 80.8092 57.8608 76.8628 59.1019C72.5504 60.4574 67.6225 58.2069 66.4822 55.6189Z" stroke="black" stroke-miterlimit="10" stroke-linecap="round" stroke-linejoin="round"/>
<path d="M38.7776 51.9573C40.0173 47.479 44.1345 46.3695 49.1353 47.0801C54.1347 47.7915 57.773 52.166 57.3154 55.07C56.8579 57.9747 52.2709 61.194 46.463 60.4841C41.3963 59.8643 37.9118 55.085 38.7776 51.9573Z" stroke="black" stroke-miterlimit="10" stroke-linecap="round" stroke-linejoin="round"/>
<path d="M68.8784 41.1378C68.8784 41.1378 71.011 36.0947 80.4923 36.7231" stroke="black" stroke-miterlimit="10" stroke-linecap="round" stroke-linejoin="round"/>
<path d="M53.4663 40.7867C53.4663 40.7867 48.4597 35.6886 41.7095 38.0979" stroke="black" stroke-miterlimit="10" stroke-linecap="round" stroke-linejoin="round"/>
<path d="M65.0363 61.9839C65.0363 61.9839 70.0443 70.6644 69.3765 72.6669C68.7081 74.6708 62.0308 73.3353 62.0308 73.3353" stroke="black" stroke-miterlimit="10" stroke-linecap="round" stroke-linejoin="round"/>
<path d="M51.4595 85.7997C51.4595 85.7997 54.2784 88.2054 59.2499 88.9154C65.4819 89.8054 69.9329 88.2469 70.1553 86.2444C70.3526 84.4614 65.637 83.5628 62.1432 84.6866C55.9113 86.6898 51.4595 85.7997 51.4595 85.7997Z" stroke="black" stroke-miterlimit="10" stroke-linecap="round" stroke-linejoin="round"/>
<path d="M67.262 88.9159C67.262 88.9159 64.5911 92.6993 61.2531 92.6993C56.1329 92.6993 51.6818 90.2507 51.4595 85.8003" stroke="black" stroke-miterlimit="10" stroke-linecap="round" stroke-linejoin="round"/>
<path d="M39.6633 102.715C45.0051 100.045 47.6761 92.0319 46.3406 86.0216C45.0051 80.0127 36.5477 67.1034 35.2122 56.4204C33.8774 45.7367 33.5857 36.0924 43.0019 27.2632C50.1239 20.5844 66.8173 21.0313 73.7169 21.4759C80.6166 21.9206 86.6269 19.4728 86.6269 15.4664C86.6269 10.5699 75.7208 1 55.9119 1C36.1023 1 15.6256 12.7961 11.3969 30.1565C7.16741 47.5175 10.7284 63.7655 10.2837 69.7751C9.83834 75.7839 1.38087 90.9187 0.934759 103.383C0.489366 115.848 10.5054 123.192 18.0728 125.195C25.6409 127.199 38.5501 125.64 42.5558 118.518C45.5885 113.128 41.4427 102.048 41.4427 102.048" stroke="black" stroke-miterlimit="10" stroke-linecap="round" stroke-linejoin="round"/>
<path d="M57.2468 49.0752L55.689 50.633" stroke="black" stroke-miterlimit="10" stroke-linecap="round" stroke-linejoin="round"/>
<path d="M53.0179 45.2925L51.9048 48.1857" stroke="black" stroke-miterlimit="10" stroke-linecap="round" stroke-linejoin="round"/>
<path d="M45.6729 44.4014V46.6269" stroke="black" stroke-miterlimit="10" stroke-linecap="round" stroke-linejoin="round"/>
<path d="M39.8853 46.4038L40.9984 48.1847" stroke="black" stroke-miterlimit="10" stroke-linecap="round" stroke-linejoin="round"/>
<path d="M36.5474 50.856L38.7772 51.9569" stroke="black" stroke-miterlimit="10" stroke-linecap="round" stroke-linejoin="round"/>
<path d="M67.4834 47.5176L68.1526 49.5208" stroke="black" stroke-miterlimit="10" stroke-linecap="round" stroke-linejoin="round"/>
<path d="M72.1592 45.0688V47.2951" stroke="black" stroke-miterlimit="10" stroke-linecap="round" stroke-linejoin="round"/>
<path d="M75.9424 43.9565L76.1654 46.6268" stroke="black" stroke-miterlimit="10" stroke-linecap="round" stroke-linejoin="round"/>
<path d="M81.5066 44.6235L80.8389 47.2952" stroke="black" stroke-miterlimit="10" stroke-linecap="round" stroke-linejoin="round"/>
<path d="M85.7363 48.8525L83.7788 50.499" stroke="black" stroke-miterlimit="10" stroke-linecap="round" stroke-linejoin="round"/>
<path d="M86.6261 16.5796C86.6261 16.5796 89.9647 18.8051 93.3034 29.0449C96.7529 39.6257 92.7429 58.6174 92.858 65.7688C93.0803 79.5681 96.5219 88.4688 96.6413 97.5969C96.8644 114.512 82.1743 120.3 82.1743 120.3C78.2687 121.893 69.9463 120.293 68.6652 114.211C67.7858 110.032 67.3848 105.248 67.3848 105.248" stroke="black" stroke-miterlimit="10" stroke-linecap="round" stroke-linejoin="round"/>
<path d="M75.9429 21.4746C75.9429 21.4746 82.1748 29.9335 84.178 39.5048C86.2484 49.3943 86.1819 70.8868 82.1748 84.4653C78.4694 97.0214 69.2656 106.723 60.3627 107.167C51.4598 107.612 43.8917 102.049 42.7793 100.489" stroke="black" stroke-miterlimit="10" stroke-linecap="round" stroke-linejoin="round"/>
<path d="M46.897 50.9883L47.8149 53.1716" stroke="black" stroke-miterlimit="10" stroke-linecap="round" stroke-linejoin="round"/>
<path d="M48.3894 51.6782L46.2061 52.8271" stroke="black" stroke-miterlimit="10" stroke-linecap="round" stroke-linejoin="round"/>
<path d="M48.7755 52.5969L45.8765 51.7476" stroke="black" stroke-miterlimit="10" stroke-linecap="round" stroke-linejoin="round"/>
<path d="M47.7854 50.9697L47.0083 53.3032" stroke="black" stroke-miterlimit="10" stroke-linecap="round" stroke-linejoin="round"/>
<path d="M72.1602 50.9883L73.0781 53.1716" stroke="black" stroke-miterlimit="10" stroke-linecap="round" stroke-linejoin="round"/>
<path d="M73.6536 51.6782L71.4702 52.8271" stroke="black" stroke-miterlimit="10" stroke-linecap="round" stroke-linejoin="round"/>
<path d="M74.0379 52.5969L71.1396 51.7476" stroke="black" stroke-miterlimit="10" stroke-linecap="round" stroke-linejoin="round"/>
<path d="M73.0493 50.9697L72.2715 53.3032" stroke="black" stroke-miterlimit="10" stroke-linecap="round" stroke-linejoin="round"/>
</svg>
