<svg width="104" height="145" viewBox="0 0 104 145" fill="none" xmlns="http://www.w3.org/2000/svg">
<path d="M38.6713 11.0733C36.5722 10.2615 25.7479 11.5414 23.8902 13.0553C22.0325 14.5693 15.9768 31.442 15.9768 35.7425C15.9768 40.043 18.4196 52.9663 19.3557 54.3632C20.2919 55.7601 22.7273 63.5566 26.6694 59.9509C30.6115 56.3452 28.9952 29.5697 28.9952 29.2333C28.9952 28.8968 38.6713 11.0733 38.6713 11.0733Z" fill="#6AFE7C"/>
<path d="M34.4805 72.5303C34.4805 72.5303 32.6155 71.2504 30.0923 66.4746C28.6561 64.4776 27.5179 62.2825 26.7134 59.958C25.4131 55.2358 24.5393 50.4065 24.1024 45.5281C23.9853 42.3832 24.1024 37.2636 24.8337 34.0016C25.5651 30.7397 27.1449 23.309 29.0099 20.0324C30.8749 16.7559 34.8608 11.5339 37.5084 9.55918C40.156 7.58448 44.7271 4.20554 47.7476 3.50342C50.7682 2.8013 57.2993 1.06064 61.4023 1.29468C65.5053 1.52872 68.621 0.482854 73.5065 1.52872C77.3934 2.35025 81.2086 3.48014 84.916 4.90766C87.249 5.8365 93.8826 11.0731 95.1552 16.2C95.9508 19.4239 96.5734 22.6881 97.0202 25.9785L96.6691 28.1726L42.5476 71.4771L34.4805 72.5303Z" fill="#682527"/>
<path d="M51.1266 101.982C51.1266 101.982 47.5209 96.2777 46.4678 93.835C45.4146 91.3922 43.3229 86.6163 43.3229 86.6163L42.16 83.0107C42.16 83.0107 40.7631 83.0107 38.0862 81.4967C35.4094 79.9828 34.8243 76.9549 34.7073 76.0261C34.5903 75.0972 33.8955 71.9523 35.0584 69.2755C36.2212 66.5987 38.781 65.0847 40.295 64.3899L39.3588 57.2883C39.3588 57.2883 38.8908 49.0238 39.3588 45.4181C39.8269 41.8125 40.9898 34.0087 42.9718 29.7009C44.9538 25.3932 50.8853 20.8513 51.4704 20.2736C52.0554 19.6958 57.5261 16.4338 59.0327 16.0828C60.5394 15.7317 65.3225 13.8887 69.272 13.8887C74.0974 14.0735 78.8582 15.0622 83.3582 16.8142C86.7106 18.5005 89.8061 20.6553 92.5515 23.2137C93.5974 24.3765 95.8134 26.7096 96.6253 28.2163C97.4371 29.7229 99.3021 33.921 99.6532 34.9668C100.004 36.0127 101.05 41.1396 101.05 41.1396C101.05 41.1396 101.862 61.5083 101.862 63.4903C101.862 65.4724 101.979 81.4163 100.465 86.6529C98.951 91.8895 95.4624 101.551 95.4624 101.551C95.4624 101.551 91.2716 108.77 87.3149 110.167C83.3582 111.563 76.9587 114.006 73.6968 113.194C70.4348 112.383 64.9642 112.383 61.0074 110.049C57.0507 107.716 54.0375 106.758 51.1266 101.982Z" fill="#F8C2A0"/>
<path d="M31.0503 140.921C31.0503 140.921 26.7937 142.837 23.8902 142.954C23.8902 142.954 20.5112 144.117 14.6968 142.72C8.88243 141.323 5.96425 137.717 3.98223 134.923C1.77723 131.943 0.736852 128.26 1.05674 124.567C1.4078 120.376 1.78812 118.051 2.80472 116.186C3.82133 114.321 4.99884 113.743 6.41039 114.555C7.82194 115.366 11.764 117.48 11.764 117.48C11.764 117.48 15.7208 119.923 16.5326 120.274C17.3444 120.625 19.7945 120.274 20.2553 118.292C20.716 116.31 22.4494 107.819 22.0032 105.859C21.5571 103.899 21.4474 92.0577 21.1768 90.3389C20.9062 88.6202 19.5458 77.5326 18.851 76.1357C18.1562 74.7388 15.3551 63.7974 15.3551 63.7974L12.1297 52.1613C12.1297 52.1613 9.10184 40.986 9.20423 37.724C9.30662 34.4621 9.55529 28.9914 10.3671 27.0167C11.1789 25.042 12.4588 19.447 14.4409 16.5435C16.4229 13.6399 21.6741 8.16197 31.2185 6.88207C34.0981 6.63079 36.9987 6.78838 39.8341 7.35015L38.3202 8.74707L36.2284 10.6121C36.2284 10.6121 34.4804 10.8461 32.6154 11.3434C30.7505 11.8408 28.2272 13.9032 27.6129 15.8853C27.6129 15.8853 25.5211 14.8394 24.585 14.8394C23.6488 14.8394 23.071 16.4704 23.071 17.0335C23.071 17.5967 22.3397 22.2701 22.3397 22.2701L22.4567 23.7841L21.4108 24.2522L20.482 26.4463C20.482 26.4463 20.2479 27.9602 20.599 28.538C20.9501 29.1158 21.9959 29.2694 21.9959 29.2694C20.9679 30.5993 20.0343 31.9997 19.2021 33.4601C18.617 34.74 17.3371 36.137 17.5711 36.9488C17.8052 37.7606 20.4966 37.9946 20.4966 37.9946C20.4966 37.9946 20.2626 41.2566 20.2626 42.1854C19.9629 46.1315 20.6412 50.0905 22.2373 53.7118C24.8337 59.38 26.0989 59.1459 26.0989 59.1459L30.4872 67.6445L34.4439 72.53C34.4439 72.53 34.4439 76.3697 35.4897 78.381C36.5356 80.3923 38.4152 82.2207 42.1233 83.0398C42.1233 83.0398 44.8001 90.2585 46.4311 93.8642C47.8016 96.6803 49.358 99.4021 51.0899 102.012C51.0899 102.012 51.2069 108.492 50.9729 112.024C50.5194 118.892 46.9796 129.497 43.0814 133.395C39.5545 136.604 35.4793 139.153 31.0503 140.921Z" fill="#682527"/>
<path d="M79.8766 46.9245C80.2277 40.0569 85.2888 35.2226 92.0978 35.5736C98.9069 35.9247 102.805 42.3827 103.09 47.4438C103.441 53.5507 100.713 58.4144 91.7395 58.4144C86.2688 58.4144 79.5182 53.9749 79.8766 46.9245Z" fill="white"/>
<path d="M71.8462 48.3213C72.3143 54.026 66.6096 60.5425 60.1442 60.367C56.7962 60.3071 53.5967 58.9736 51.1972 56.6379C48.7976 54.3022 47.3783 51.1399 47.2282 47.7947C46.8771 40.2908 53.6862 35.5734 60.4953 35.7417C67.3044 35.9099 71.2026 40.4224 71.8462 48.3213Z" fill="white"/>
<path d="M90.1231 93.2503C90.1231 93.2503 86.6272 96.0441 79.8839 96.2782C73.1407 96.5122 64.7518 93.9524 64.9859 89.7616C65.2199 85.5709 68.4818 83.7059 71.5024 84.174C74.523 84.642 88.7335 83.4426 90.8253 85.3368C92.917 87.2311 92.2149 91.8534 90.1231 93.2503Z" fill="#DA4F4D"/>
<path d="M67.4215 84.744C67.4215 84.744 67.8896 87.0697 69.7473 87.3038C71.605 87.5378 73.0092 84.744 73.0092 84.744C73.0092 84.744 74.1721 87.7718 76.9659 87.5378C79.7598 87.3038 79.7598 84.2759 79.7598 84.2759C79.7598 84.2759 80.9226 87.3038 82.3196 87.5378C83.7165 87.7718 85.8155 84.978 85.8155 84.978C85.8155 84.978 86.0496 87.7718 87.9072 87.7718C89.7649 87.7718 90.9351 85.212 90.9351 85.212C89.3973 84.5744 87.7629 84.201 86.1007 84.1077C83.5702 84.0199 75.9712 84.1954 75.9712 84.1954L70.0325 83.9321C70.0325 83.9321 67.8603 84.6928 67.4215 84.744Z" fill="white"/>
<path d="M68.9061 93.952C68.9061 93.952 72.6288 89.7612 74.9619 91.6262C77.295 93.4912 79.8475 96.0145 79.8475 96.0145C76.0881 96.2085 72.3368 95.5014 68.9061 93.952Z" fill="#FF0000"/>
<path d="M101.628 54.0264C101.628 54.0264 102.791 76.6111 100.465 86.1555C98.139 95.7 95.1111 108.272 83.9358 111.534C72.7604 114.796 63.4573 112.266 56.2314 107.343C49.0054 102.421 42.9643 86.1336 42.2622 83.369" stroke="black" stroke-linecap="round" stroke-linejoin="round"/>
<path d="M45.539 83.5882C45.539 83.5882 39.688 83.5882 36.6894 80.0995C33.6907 76.6109 32.5571 66.7154 40.7046 64.3823" stroke="black" stroke-linecap="round" stroke-linejoin="round"/>
<path d="M77.6679 56.5864C77.6679 56.5864 83.9577 69.1587 83.9577 71.2504C83.9577 73.3422 83.4897 74.0443 81.3979 74.5124C79.3062 74.9804 73.9453 74.0443 73.9453 74.0443" stroke="black" stroke-linecap="round" stroke-linejoin="round"/>
<path d="M49.7004 31.2081C49.7004 31.2081 53.8912 25.1523 62.9675 25.1523" stroke="black" stroke-linecap="round" stroke-linejoin="round"/>
<path d="M90.2402 26.3223C90.2402 26.3223 95.8279 26.5563 99.0898 32.6121" stroke="black" stroke-linecap="round" stroke-linejoin="round"/>
<path d="M101.182 41.2204C100.392 36.5028 98.7458 31.9693 96.3252 27.8436C95.691 26.8159 94.9795 25.8379 94.1969 24.9181C88.6092 18.4089 76.505 12.1191 64.8616 14.4522C53.2181 16.7853 44.0029 25.1083 41.582 33.775C36.6964 51.2329 40.4191 60.1044 40.4191 64.0392" stroke="black" stroke-linecap="round" stroke-linejoin="round"/>
<path d="M96.7568 27.6971C96.7568 27.6971 98.1537 15.5929 89.7722 8.37424C81.3907 1.15559 68.3869 0.577811 61.139 1.17754C49.9636 2.09906 40.1925 3.73734 30.4067 17.7065C25.7479 24.362 22.8809 40.7228 24.3509 48.6728C25.5138 54.9553 25.7479 59.3801 29.7046 66.1307C31.2112 68.7051 34.3415 72.8813 34.3415 72.8813" stroke="black" stroke-linecap="round" stroke-linejoin="round"/>
<path d="M39.951 7.46769C38.7881 7.46769 26.6839 4.20577 17.1395 13.3187C11.8883 18.3139 7.20748 32.7805 10.1549 44.2777C14.8138 62.4376 19.6628 76.4068 20.8622 86.8801C22.0617 97.3533 22.7272 112.478 20.1308 118.541C17.5345 124.604 8.4947 113.422 4.99874 114.35C1.50278 115.279 -0.120865 124.67 1.97086 130.879C5.46682 141.119 17.3297 147.174 30.37 141.119C30.37 141.119 39.3001 137.776 43.2056 133.264C45.3997 130.755 49.9123 122.783 50.7607 113.517C51.0636 109.687 51.1735 105.845 51.0898 102.005" stroke="black" stroke-linecap="round" stroke-linejoin="round"/>
<path d="M79.6425 46.9245C79.9936 40.0569 85.0547 35.2226 91.8637 35.5736C98.6728 35.9247 102.571 42.3827 102.834 47.4438C103.185 53.5507 100.457 58.4144 91.4834 58.4144C86.0493 58.4144 79.2841 53.9749 79.6425 46.9245Z" stroke="black" stroke-linecap="round" stroke-linejoin="round"/>
<path d="M71.6416 48.3213C72.0804 54.026 66.3757 60.5425 59.9396 60.367C56.5865 60.3144 53.3797 58.9842 50.974 56.6478C48.5682 54.3114 47.1448 51.1449 46.9943 47.7947C46.6433 40.2908 53.4524 35.5734 60.2614 35.7417C67.0705 35.9099 70.9687 40.4224 71.6416 48.3213Z" stroke="black" stroke-linecap="round" stroke-linejoin="round"/>
<path d="M91.7763 46.2739L91.769 49.9527" stroke="black" stroke-linecap="round" stroke-linejoin="round"/>
<path d="M93.7434 48.1245L90.3791 48.3293" stroke="black" stroke-linecap="round" stroke-linejoin="round"/>
<path d="M92.8731 46.8296L90.5693 49.5503" stroke="black" stroke-linecap="round" stroke-linejoin="round"/>
<path d="M93.2754 49.609L90.4011 46.9834" stroke="black" stroke-linecap="round" stroke-linejoin="round"/>
<path d="M59.7566 47.5098L60.9634 49.8867" stroke="black" stroke-linecap="round" stroke-linejoin="round"/>
<path d="M61.5632 47.8027L59.0399 50.07" stroke="black" stroke-linecap="round" stroke-linejoin="round"/>
<path d="M62.075 48.8047L58.5864 48.8486" stroke="black" stroke-linecap="round" stroke-linejoin="round"/>
<path d="M60.8025 47.1519L60.02 50.3553" stroke="black" stroke-linecap="round" stroke-linejoin="round"/>
<path d="M90.2403 93.1331C90.2403 93.1331 86.7516 95.9269 80.0011 96.161C73.2505 96.395 64.8617 93.8352 65.0591 89.6444C65.2566 85.4537 68.5551 83.5887 71.583 84.0568C74.6109 84.5248 88.8068 83.3254 90.9058 85.2197C93.0049 87.1139 92.332 91.7362 90.2403 93.1331Z" stroke="black" stroke-linecap="round" stroke-linejoin="round"/>
<path d="M90.9351 85.2194C90.9351 85.2194 89.7722 87.7792 87.9072 87.7792C86.0422 87.7792 85.8155 84.9853 85.8155 84.9853C85.8155 84.9853 83.7238 87.7792 82.3196 87.5451C80.9153 87.3111 79.7598 84.2832 79.7598 84.2832C79.7598 84.2832 79.7598 87.3111 76.9659 87.5451C74.1721 87.7792 73.0092 84.744 73.0092 84.744C73.0092 84.744 71.6123 87.5378 69.7473 87.3038C69.1941 87.2064 68.6806 86.9519 68.2682 86.5706C67.8558 86.1893 67.5619 85.6974 67.4215 85.1535" stroke="black" stroke-linecap="round" stroke-linejoin="round"/>
<path d="M69.0524 94.0692C69.0524 94.0692 72.7751 89.8784 75.1082 91.7434C77.4413 93.6084 80.0011 96.1317 80.0011 96.1317C78.1333 96.1224 76.2676 96.0052 74.4134 95.7806C72.5572 95.4553 70.7538 94.8795 69.0524 94.0692Z" stroke="black" stroke-linecap="round" stroke-linejoin="round"/>
<path d="M22.4934 23.0601C22.4934 23.0601 22.2594 14.9126 24.5851 14.9126C26.9109 14.9126 30.4361 17.7064 30.4361 17.7064" stroke="black" stroke-linecap="round" stroke-linejoin="round"/>
<path d="M27.1448 24.2234C27.1448 24.2234 22.2593 23.0605 21.2938 24.4575C20.3284 25.8544 19.8969 28.4142 21.0598 28.8457C22.5012 29.3099 23.9659 29.6981 25.448 30.0086" stroke="black" stroke-linecap="round" stroke-linejoin="round"/>
<path d="M24.3511 37.4972C24.3511 37.4972 18.0613 38.6601 17.8345 36.7658C17.6078 34.8716 22.2228 29.0864 22.2228 29.0864" stroke="black" stroke-linecap="round" stroke-linejoin="round"/>
<path d="M26.4501 59.3805C26.4501 59.3805 23.1882 57.7496 20.8624 49.368C19.6191 44.8847 20.3944 38.3975 20.3944 38.3975" stroke="black" stroke-linecap="round" stroke-linejoin="round"/>
<path d="M27.613 15.3812C27.613 15.3812 28.7759 11.4244 36.2286 10.4956" stroke="black" stroke-linecap="round" stroke-linejoin="round"/>
</svg>
