<svg width="104" height="132" viewBox="0 0 104 132" fill="none" xmlns="http://www.w3.org/2000/svg">
<path d="M36.6708 13.2234C35.7618 13.7133 34.7708 14.0326 33.7468 14.1654C32.2915 14.509 30.7623 14.3441 29.4136 13.6982C28.4716 13.2309 27.5296 11.249 29.2252 8.98816C30.9208 6.72735 32.7295 6.81779 34.6964 5.40855C36.6633 3.99932 40.9136 2.86891 41.9536 2.58254C44.1972 1.8844 46.4965 1.38014 48.8264 1.07534C51.4698 0.901836 54.1243 1.02824 56.7392 1.45214C58.5328 1.82894 59.7536 3.05731 59.942 3.71295C60.0103 4.32934 59.896 4.95221 59.6133 5.50419C59.3306 6.05618 58.892 6.51295 58.3519 6.81779C57.2521 7.23288 56.1171 7.54816 54.9607 7.75979L36.6708 13.2234Z" fill="#E1F1F6"/>
<path d="M35.0732 54.9501C33.8667 55.2743 32.5922 55.2429 31.4031 54.8596C30.5516 54.4828 25.4647 51.378 24.8091 49.5844C24.1535 47.7908 21.9756 45.9068 21.4254 41.958C20.8753 38.0091 22.6463 33.2915 23.2115 31.5055C23.7767 29.7195 26.7911 25.9515 28.4867 24.2559C30.1823 22.5603 33.5735 18.7923 33.9503 17.6619C34.3271 16.5315 34.3271 14.6474 33.7619 14.1802C33.7619 14.1802 31.6895 13.8034 31.4107 12.575C31.1318 11.3467 32.2547 10.3142 32.8199 10.0354C33.3851 9.75657 37.3415 8.05343 38.1931 7.67663C39.0446 7.29983 43.6567 5.79262 44.8775 5.50626C46.0984 5.21989 49.3991 4.28542 51.2831 4.28542C53.1671 4.28542 54.5839 3.70515 56.0911 3.99152C57.5983 4.27789 57.8772 5.40829 57.5004 5.59669C56.8681 6.269 56.4714 7.12856 56.37 8.04589C56.37 8.7995 57.0331 11.0603 58.7287 11.5351C60.4243 12.0098 62.6851 12.2887 64.6671 12.6655C66.6491 13.0423 69.6635 13.9843 71.3591 14.3611C72.6532 14.7237 73.8908 15.2639 75.0367 15.9662C75.0367 15.9662 79.4678 18.9807 80.975 21.2415C82.3759 23.1768 83.3401 25.3932 83.8011 27.7375C84.1538 29.8864 84.25 32.0695 84.0874 34.2411C83.997 35.1831 82.957 42.2519 82.6782 42.9075C82.3994 43.5631 80.9826 47.1503 80.4174 47.0523L79.9502 46.0199C79.9502 46.0199 77.6894 44.799 71.6605 44.8895C65.6317 44.9799 56.2117 47.2483 53.5741 48.0019C50.9365 48.7555 44.1541 51.3026 42.9332 51.6794C41.7124 52.0562 38.4116 53.473 38.4116 53.473C37.4044 54.176 36.2708 54.6776 35.0732 54.9501Z" fill="white"/>
<path d="M33.2795 97.1519C33.2795 97.1519 24.2363 90.7463 22.8195 90.3695C21.958 90.1414 21.0728 90.015 20.1819 89.9927C20.1819 89.9927 19.3379 96.1195 19.3379 97.8151C19.3379 99.5107 19.3379 104.221 20.0915 105.163C20.8451 106.105 21.6891 106.67 22.8195 105.916C23.8392 105.085 24.7574 104.136 25.5551 103.09L26.7759 101.304C26.7759 101.304 25.5551 107.521 25.3667 109.029C25.1783 110.536 24.6131 115.344 24.7035 116.376C24.794 117.409 25.0803 120.996 26.0223 121.275C26.9643 121.554 28.7579 120.242 29.4135 119.3C30.0692 118.358 33.8447 114.123 33.8447 114.123C33.8447 114.123 33.1816 117.326 33.5584 118.177C33.9352 119.029 34.9751 120.348 37.3264 119.594C39.6776 118.841 42.2248 115.449 42.2248 115.449C42.2248 115.449 39.1199 111.214 37.8011 109.044C36.4823 106.873 33.483 99.797 33.2795 97.1519Z" fill="#7B633B"/>
<path d="M81.1333 47.3228C81.1333 47.3228 86.8833 51.0908 88.9557 52.3191C91.0281 53.5475 97.5392 58.6268 98.2928 59.29C99.0464 59.9531 102.061 63.1559 102.347 65.0399C102.634 66.9239 102.634 67.7755 102.068 68.7175C101.503 69.6595 99.5061 70.0212 99.5061 70.0212C99.5061 70.0212 100.546 73.6008 100.448 74.9196C100.433 75.6535 100.225 76.3704 99.8453 76.9986C99.4657 77.6268 98.9277 78.1443 98.2853 78.4993C97.1702 79.1084 95.9598 79.5238 94.7057 79.7276C95.1071 80.7675 95.4222 81.8388 95.6477 82.9304C95.7456 83.8724 96.5897 86.4196 94.6152 87.7384C93.5264 88.5042 92.2661 88.9907 90.9452 89.1552L88.2172 78.5143L81.5327 53.2687L81.1333 47.3228Z" fill="#7B633B"/>
<path d="M33.2795 97.1506C31.2878 97.306 29.284 97.1484 27.3411 96.6833C24.9366 95.7908 22.8425 94.2201 21.3123 92.1617C20.3703 90.6545 19.9935 88.1149 20.0915 86.2309C20.1894 84.3469 21.5007 81.5209 22.6311 80.5789C23.7615 79.6369 26.9643 77.9413 28.9463 77.7529L38.1779 79.358C38.1779 79.358 40.5292 74.4596 41.4712 71.7316C42.4132 69.0035 44.5835 60.4276 44.5835 60.4276L47.3116 50.1635C47.3116 50.1635 56.091 47.6088 58.1484 46.7572C60.2057 45.9057 67.478 44.9712 69.0756 44.9712C70.6732 44.9712 79.626 45.5364 79.626 45.5364L80.3796 47.0436C81.1487 48.0616 81.8462 49.1318 82.4671 50.2464C82.9419 51.2864 85.1047 57.1268 85.1047 57.1268C85.1047 57.1268 88.4959 59.3876 89.0611 60.2392C89.6263 61.0907 90.8547 63.442 90.4779 64.8587C90.1011 66.2755 89.6339 67.6847 89.6339 67.6847L87.471 75.0324L89.2646 81.8148C89.2646 81.8148 90.7718 88.8836 91.1486 91.3328C91.5254 93.782 92.0002 100.097 91.6234 102.448C91.2466 104.8 89.7394 111.115 88.7974 112.908C88.1287 114.111 87.3053 115.221 86.3482 116.209C86.3482 116.209 68.1637 126.006 66.0913 126.292C66.0913 126.292 57.6133 125.162 55.5409 124.597C53.4685 124.032 47.3417 120.173 46.5881 119.51C45.8345 118.847 40.9361 114.235 39.9037 112.351C38.8712 110.467 34.3195 103.752 33.2795 97.1506Z" fill="#F8C2A0"/>
<path d="M67.7566 130.219C66.4378 130.31 65.6842 127.77 65.8726 126.926C66.061 126.082 66.6262 123.444 66.6262 123.444C66.6262 123.444 69.7386 122.502 70.869 122.223C73.149 121.475 75.3834 120.594 77.561 119.586C78.4126 119.119 84.253 115.727 84.8182 115.162C85.7751 115.558 86.6649 116.099 87.4558 116.767C88.119 117.521 90.0934 119.126 89.5282 120.535C88.963 121.945 85.4814 120.535 84.5394 119.97C84.5394 119.97 85.8582 123.082 86.0466 123.836C86.235 124.59 87.6517 126.948 86.0466 127.981C84.4414 129.013 81.3365 126.285 81.3365 126.285L79.2641 124.213C79.368 125.594 79.3377 126.982 79.1737 128.358C78.8949 129.586 77.7645 131.184 76.9129 131.184C76.0613 131.184 73.5217 130.34 72.3913 124.122C71.7574 125.282 71.1913 126.477 70.6957 127.702C70.4093 128.621 69.1734 130.129 67.7566 130.219Z" fill="#7B633B"/>
<path d="M28.9611 77.7542C28.9611 77.7542 25.6604 78.229 24.6279 79.171C23.5955 80.113 21.3271 81.997 21.3271 81.997C21.3271 81.997 22.7439 75.7797 22.9323 74.6493C23.1207 73.5189 26.1351 65.2293 26.5119 64.3853C26.8887 63.5413 31.0335 54.6864 31.0335 54.6864L33.6711 55.2516C35.2819 54.9306 36.8588 54.4588 38.3812 53.8424C39.8884 53.0888 46.4824 50.1724 47.3264 50.1724L45.352 57.7084C45.352 57.7084 42.6164 67.5052 41.9608 69.5776C41.3051 71.65 38.758 78.7113 38.1928 79.7512C37.6276 80.7912 34.5152 87.0084 33.4827 88.4177C32.4503 89.8269 29.9031 92.2836 29.0516 92.3741C28.2 92.4645 26.9792 92.7509 26.7908 91.7184C26.7537 90.6379 26.8808 89.558 27.1676 88.5156L28.9611 77.7542Z" fill="#7B633B"/>
<path d="M52.1197 94.1361C56.4378 93.8799 58.2691 99.7128 61.8411 101.017C67.9152 103.277 70.5452 100.007 74.8031 101.627C77.3427 102.592 78.8499 109.525 72.173 112.931C66.9882 115.599 58.8343 115.041 54.1544 111.921C48.0804 107.874 46.8671 102.403 46.8671 99.9765C46.8671 97.5499 48.6832 94.3471 52.1197 94.1361Z" fill="#DA4F4D" stroke="black" stroke-linecap="round" stroke-linejoin="round"/>
<path d="M68.5706 74.0461C67.3949 69.5697 67.8772 60.6395 77.4857 60.0743C84.366 59.6673 89.1137 64.1814 90.4476 70.6247C91.6609 76.4953 86.5364 81.5293 82.3464 82.7728C76.8752 84.3403 70.1908 80.3236 68.5706 74.0461Z" fill="white"/>
<path d="M43.6719 80.7313C42.5867 77.9279 41.6447 68.1763 50.1528 64.9056C59.701 61.2658 63.1148 68.5531 64.931 73.8132C66.7471 79.0734 63.5142 85.3509 58.2465 86.7752C54.2901 87.8679 46.0984 87.0088 43.6719 80.7313Z" fill="white"/>
<path d="M24.1456 28.8442C24.1456 28.8442 13.03 30.148 8.1542 38.3698C4.31083 44.8507 5.32066 53.9618 6.12701 57.4057C6.93336 60.8497 7.54378 63.4647 4.91371 65.8988C2.28364 68.333 0.256452 70.1492 1.8993 70.3526C3.54216 70.5561 6.96351 70.963 6.96351 70.963C6.96351 70.963 4.7027 72.9902 6.35309 73.3896C8.00348 73.789 12.4271 71.3624 13.0375 68.9358C13.648 66.5093 13.648 60.8346 15.6676 57.3907C18.7272 52.1833 24.0401 51.9949 26.738 52.2586L26.8058 51.7462C26.8058 51.7462 24.1682 49.1086 23.5126 47.5034C22.857 45.8982 21.3422 42.7934 21.3422 40.2538C21.4371 37.9712 21.8818 35.7168 22.661 33.5693C23.0378 32.6273 24.7334 28.8593 24.7334 28.8593L24.1456 28.8442Z" fill="#E1F1F6"/>
<path d="M41.8781 29.1004C41.8781 29.1004 46.882 23.4107 49.1202 26.1689C51.3584 28.9271 45.8421 31.5195 45.8421 31.5195C45.8421 31.5195 51.0193 31.3462 51.5318 34.1043C52.0442 36.8625 45.5406 34.6017 45.5406 34.6017C45.5406 34.6017 48.4721 41.158 45.3673 42.0172C42.2625 42.8763 41.23 38.9123 41.23 38.9123C41.23 38.9123 42.0891 44.2629 38.4718 43.7429C36.211 43.4264 36.5728 39.2213 37.4394 37.7141C37.4394 37.7141 33.9879 41.8514 32.0888 39.0932C30.1898 36.335 36.0603 34.4359 36.0603 34.4359C36.0603 34.4359 29.8506 34.4359 30.7098 31.6777C31.5689 28.9196 36.2337 29.952 36.2337 29.952C36.2337 29.952 35.7137 25.4304 38.6527 25.1214C41.5918 24.8124 41.8781 29.1004 41.8781 29.1004Z" fill="#FA428C"/>
<path d="M54.9375 94.937C54.9375 94.937 52.9103 95.879 53.1816 97.1978C53.4529 98.5166 56.829 97.1978 56.829 97.1978C56.829 97.1978 55.4801 98.4111 56.4221 99.6244C57.3641 100.838 59.5269 99.6244 59.5269 99.6244C59.5269 99.6244 58.0197 101.132 59.5269 102.187C61.0341 103.242 62.8729 101.275 62.8729 101.275C62.8729 101.275 61.6596 103.302 63.8149 103.536C64.401 103.627 65.0006 103.516 65.5155 103.222C66.0304 102.927 66.4299 102.467 66.6485 101.915C66.6485 101.915 66.2415 103.536 68.2687 103.536C70.2959 103.536 70.831 101.373 70.831 101.373C70.831 101.373 71.2379 103.4 72.8581 103.4C73.3108 103.41 73.7564 103.287 74.1405 103.048C74.5247 102.808 74.8306 102.462 75.021 102.051C74.4669 101.623 73.8183 101.333 73.1294 101.207C71.5339 101.201 69.9399 101.307 68.3591 101.523C67.0649 101.841 65.7213 101.905 64.4027 101.712C63.0077 101.519 61.6807 100.988 60.5368 100.167C59.5629 99.4104 58.678 98.5458 57.8992 97.5897C57.8992 97.5897 56.0001 95.344 54.9375 94.937Z" fill="white"/>
<path d="M55.3374 112.75C55.7041 112.304 56.1946 111.977 56.7472 111.809C57.2997 111.641 57.8895 111.641 58.4422 111.808C60.4694 112.351 59.6555 113.7 59.6555 113.7C59.6555 113.7 62.4891 112.193 63.1673 112.487C63.8456 112.78 63.4386 114.378 63.4386 114.378C63.4386 114.378 65.4658 112.487 66.8148 112.487C68.1637 112.487 67.8924 114.107 67.8924 114.107C67.8924 114.107 70.1532 111.68 71.2685 111.68C71.5797 111.69 71.8793 111.8 72.1225 111.994C72.3657 112.189 72.5394 112.456 72.6175 112.758C71.9153 113.209 71.1546 113.561 70.3567 113.805C68.8089 114.222 67.2355 114.536 65.6467 114.747C64.8328 114.747 62.0068 114.747 61.2532 114.619C60.4996 114.491 58.2991 113.805 57.7339 113.617C57.1687 113.429 55.3374 112.75 55.3374 112.75Z" fill="white"/>
<path d="M52.5567 110.718C51.6188 109.941 50.7559 109.078 49.9794 108.14C49.6026 107.447 48.1556 105.503 48.1556 105.503C48.1556 105.503 50.6048 104.433 51.8634 104.056C53.1219 103.679 54.3126 103.619 55.3149 104.433C56.3171 105.246 58.6458 106.882 59.5878 107.07C61.0889 107.237 62.5996 107.3 64.1094 107.259C65.4885 107.259 68.3823 107.507 68.9475 108.14C69.092 108.289 69.1961 108.473 69.2498 108.674C69.3036 108.874 69.3052 109.085 69.2547 109.287C69.2041 109.488 69.103 109.673 68.9609 109.825C68.8188 109.976 68.6404 110.089 68.4426 110.152C66.6014 110.644 64.6854 110.792 62.7906 110.589C61.0689 110.242 59.3721 109.782 57.7113 109.21C56.899 109.323 56.0992 109.513 55.3224 109.776C54.6291 110.092 52.5567 110.718 52.5567 110.718Z" fill="#FF0000"/>
<path d="M39.8133 36.8633C37.0551 36.8633 36.2563 31.4675 38.4342 30.307C41.0191 28.9279 44.252 32.0252 44.1239 33.7585C43.9506 36.17 41.7727 36.8633 39.8133 36.8633Z" fill="#E48F4C"/>
<path d="M90.7568 42.3352C92.9272 41.868 97.8256 39.3208 99.0464 36.9696C100.535 34.1273 101.249 30.9437 101.119 27.738C100.84 24.5352 98.2928 18.6948 94.6153 16.6224C91.3564 14.8398 87.7646 13.7495 84.0648 13.4195C80.7716 13.0427 77.0036 15.1151 76.2425 15.5899C75.4813 16.0647 73.5069 16.9916 73.424 18.122C73.3411 19.2524 72.7683 20.948 74.6524 21.5132C75.8419 21.8372 77.107 21.7387 78.232 21.2344C80.0102 20.6735 81.8408 20.2948 83.6956 20.104C85.6864 20.0065 87.6683 20.4299 89.4456 21.3324C91.1336 22.085 92.5248 23.3756 93.402 25.0024C94.1556 26.6076 95.0976 27.0748 94.7208 29.4336C94.344 31.7924 93.1231 34.8972 92.1811 35.7488C90.6276 36.7837 88.8456 37.4251 86.9888 37.6177C85.7894 37.5603 84.5943 37.4345 83.4092 37.2409C83.4092 37.2409 79.9276 36.4873 79.5508 36.2989C79.174 36.1105 78.232 36.6757 78.232 37.7157C78.1911 38.4974 78.3845 39.2735 78.7872 39.9448C79.1899 40.616 79.7838 41.1518 80.4928 41.4837C82.3852 42.3486 84.4409 42.7983 86.5216 42.8025C87.8253 42.712 90.7568 42.3352 90.7568 42.3352Z" fill="#E1F1F6"/>
<path d="M53.8679 68.8838L54.094 71.0542" stroke="black" stroke-linecap="round" stroke-linejoin="round"/>
<path d="M52.813 70.0905L54.8176 70.0151" stroke="black" stroke-linecap="round" stroke-linejoin="round"/>
<path d="M53.2498 69.2759L54.7803 70.7461" stroke="black" stroke-linecap="round" stroke-linejoin="round"/>
<path d="M53.182 70.9432L54.7201 69.2241" stroke="black" stroke-linecap="round" stroke-linejoin="round"/>
<path d="M78.7368 65.1167L78.9554 67.2871" stroke="black" stroke-linecap="round" stroke-linejoin="round"/>
<path d="M77.6819 66.3224L79.6865 66.2471" stroke="black" stroke-linecap="round" stroke-linejoin="round"/>
<path d="M78.1189 65.5068L79.6495 66.9846" stroke="black" stroke-linecap="round" stroke-linejoin="round"/>
<path d="M78.0507 67.1746L79.5888 65.4556" stroke="black" stroke-linecap="round" stroke-linejoin="round"/>
<path d="M33.0838 97.1523C24.8469 98.0943 19.5867 92.7136 20.1218 86.3532C20.8 78.3876 29.0294 77.8525 29.0294 77.8525" stroke="black" stroke-linecap="round" stroke-linejoin="round"/>
<path d="M79.7843 46.1616C79.7843 46.1616 83.0248 49.4021 85.0595 57.2999" stroke="black" stroke-linecap="round" stroke-linejoin="round"/>
<path d="M88.428 79.2998C88.428 79.2998 93.2887 94.9596 91.3972 104.169C89.5057 113.378 86.6721 115.993 86.6721 115.993" stroke="black" stroke-linecap="round" stroke-linejoin="round"/>
<path d="M66.0158 126.143C66.0158 126.143 57.4851 125.811 52.7901 123.309C42.5261 117.838 35.0353 108.523 32.8121 94.9585" stroke="black" stroke-linecap="round" stroke-linejoin="round"/>
<path d="M52.2477 94.1361C56.5659 93.8799 58.3971 99.7128 61.9692 101.017C68.0432 103.277 70.6733 100.007 74.9311 101.627C77.4708 102.592 78.978 109.525 72.3011 112.931C67.1163 115.599 58.9623 115.041 54.2824 111.921C48.2084 107.874 46.9951 102.403 46.9951 99.9765C46.9951 97.5499 48.8038 94.3471 52.2477 94.1361Z" stroke="black" stroke-linecap="round" stroke-linejoin="round"/>
<path d="M69.4596 76.7358C69.4596 76.7358 77.3574 92.3279 75.7371 94.355C74.1169 96.3822 66.4226 91.5215 66.4226 91.5215" stroke="black" stroke-linecap="round" stroke-linejoin="round"/>
<path d="M68.6461 74.1061C67.4931 69.6297 67.9528 60.6995 77.5537 60.1343C84.434 59.7274 89.1817 64.2415 90.5156 70.6848C91.7289 76.5553 86.6044 81.5894 82.4144 82.8328C76.9508 84.4305 70.2663 80.3761 68.6461 74.1061Z" stroke="black" stroke-linecap="round" stroke-linejoin="round"/>
<path d="M43.747 80.784C42.6619 77.9806 41.7199 68.229 50.228 64.9584C59.7762 61.3185 63.19 68.6058 65.0062 73.866C66.8223 79.1261 63.5894 85.4036 58.3217 86.8279C54.3653 87.9282 46.1736 87.0615 43.747 80.784Z" stroke="black" stroke-linecap="round" stroke-linejoin="round"/>
<path d="M80.3945 45.9603C78.5708 44.9504 69.6858 44.453 62.1724 45.9603C49.007 48.5903 40.2652 52.6899 37.7105 54.0163C36.4306 54.7821 34.9739 55.2027 33.4828 55.2371C32.6238 55.2275 31.7679 55.1316 30.9281 54.9507" stroke="black" stroke-linecap="round" stroke-linejoin="round"/>
<path d="M31.4635 55.0031C31.4635 55.0031 23.9275 51.4235 21.8777 43.5258C19.8279 35.628 24.8921 27.3309 28.5621 24.0904C32.2322 20.8499 34.6362 17.21 34.2367 15.3863C34.1027 14.8387 33.821 14.3384 33.4224 13.9398C33.0238 13.5412 32.5235 13.2596 31.9759 13.1255" stroke="black" stroke-linecap="round" stroke-linejoin="round"/>
<path d="M82.7457 42.4482C82.4031 43.5053 82.0005 44.5419 81.5399 45.5531" stroke="black" stroke-linecap="round" stroke-linejoin="round"/>
<path d="M80.6809 21.189C82.4433 23.4267 83.5355 26.118 83.831 28.9511C84.094 31.5008 84.0637 34.0723 83.7405 36.6152" stroke="black" stroke-linecap="round" stroke-linejoin="round"/>
<path d="M57.1083 6.07178C57.1083 6.07178 55.7443 8.1894 57.1083 10.1186C59.5349 13.5626 66.5585 11.671 74.6597 15.8535" stroke="black" stroke-linecap="round" stroke-linejoin="round"/>
<path d="M94.3664 26.9229C94.3664 26.9229 93.1531 21.2558 85.8658 20.2384C82.8924 19.9968 79.9049 20.483 77.1617 21.6552C76.1519 22.2656 71.8865 21.6552 73.5143 17.6084C73.5143 17.6084 77.968 12.7476 86.4762 13.765C93.4169 14.594 98.1043 17.8797 100.245 24.3154C103.259 33.4265 98.8277 40.5179 91.1335 42.1306C83.4392 43.7433 79.9952 41.4523 79.3923 40.9173C77.5686 39.297 78.0811 35.6421 79.7993 36.26C83.0398 37.4733 87.2976 38.0988 89.9202 37.0664C94.5774 35.2427 94.9844 28.1588 94.5774 25.3253" stroke="black" stroke-linecap="round" stroke-linejoin="round"/>
<path d="M31.2217 11.942C31.0861 10.4348 35.8112 8.03079 42.4278 6.13925C48.2833 4.45872 56.9045 3.23788 57.5149 4.85813" stroke="black" stroke-linecap="round" stroke-linejoin="round"/>
<path d="M33.4149 14.3755C33.4149 14.3755 30.0312 14.4358 29.0289 13.4335C28.2226 12.6196 27.4087 9.78607 30.9883 7.6986C34.1007 5.86734 40.4535 1.69993 49.5495 1.14226C58.3516 0.607204 60.5521 3.0338 59.9417 4.85752C59.3313 6.68123 57.6809 7.11832 56.9273 7.48759" stroke="black" stroke-linecap="round" stroke-linejoin="round"/>
<path d="M24.304 28.748C24.304 28.748 13.1883 30.0819 8.31252 38.266C4.46916 44.747 5.47898 53.8581 6.28533 57.302C7.09169 60.746 7.70211 63.376 5.07204 65.8026C2.44197 68.2292 0.414777 70.053 2.05763 70.2564C3.70048 70.4599 7.10676 70.8668 7.10676 70.8668C7.10676 70.8668 4.84596 72.894 6.49634 73.2934C8.14673 73.6929 12.5704 71.2663 13.1808 68.8397C13.7912 66.4131 13.7912 60.7384 15.8109 57.2945C18.8629 52.0946 24.1683 51.9364 26.8737 52.17" stroke="black" stroke-linecap="round" stroke-linejoin="round"/>
<path d="M47.1833 50.8213C47.1833 50.8213 42.0136 70.5204 40.4989 74.1076C36.6555 83.2186 33.2116 91.1239 28.9613 92.3297C26.1277 93.1436 26.3312 90.7094 26.9341 89.0892C27.537 87.4689 29.3607 76.3307 29.3607 76.3307" stroke="black" stroke-linecap="round" stroke-linejoin="round"/>
<path d="M31.1167 55.0479C28.7382 59.3583 26.6657 63.8306 24.9146 68.4318C23.3364 72.9459 22.0946 77.5705 21.1993 82.2679" stroke="black" stroke-linecap="round" stroke-linejoin="round"/>
<path d="M20.2573 89.4946C20.2573 89.4946 18.1623 101.914 20.3929 105.32C22.6236 108.727 26.8739 100.866 26.8739 100.866C26.8739 100.866 23.2943 116.594 25.7285 120.844C27.2884 123.58 34.0181 113.693 34.0181 113.693C34.0181 113.693 32.2094 119.473 35.7438 119.759C38.713 120.031 42.3604 115.305 42.3604 115.305" stroke="black" stroke-linecap="round" stroke-linejoin="round"/>
<path d="M80.7942 47.1724C80.7942 47.1724 94.5097 54.7084 100.23 61.5511C103.681 65.6959 103.47 69.0419 99.6192 70.2552C99.6192 70.2552 102.046 76.1257 99.2122 77.9495C96.3787 79.7732 94.555 79.5697 94.555 79.5697C94.555 79.5697 96.9137 84.6339 95.1654 87.264C94.359 88.4773 91.1185 89.2912 91.1185 89.2912" stroke="black" stroke-linecap="round" stroke-linejoin="round"/>
<path d="M50.0245 91.311C50.0245 91.311 44.7493 92.7278 44.3574 98.1914" stroke="black" stroke-linecap="round" stroke-linejoin="round"/>
<path d="M78.9779 100.226C78.9779 100.226 81.2387 101.884 80.5981 106.911C79.9877 111.568 77.5837 113.595 74.931 115.2" stroke="black" stroke-linecap="round" stroke-linejoin="round"/>
<path d="M86.6722 84.228C86.6722 84.228 84.8485 86.2552 81.0051 86.2552" stroke="black" stroke-linecap="round" stroke-linejoin="round"/>
<path d="M63.5893 63.1719C63.5893 63.1719 62.5795 64.9956 57.7188 64.3852" stroke="black" stroke-linecap="round" stroke-linejoin="round"/>
<path d="M89.7094 67.6259C90.3168 66.5163 90.5828 65.2521 90.4743 63.9918C90.3657 62.7315 89.8872 61.5314 89.099 60.5421C86.2353 56.8946 82.0151 55.8773 77.9457 56.4576" stroke="black" stroke-linecap="round" stroke-linejoin="round"/>
<path d="M51.4412 60.9785C51.4412 60.9785 46.377 60.9785 43.34 64.6259" stroke="black" stroke-linecap="round" stroke-linejoin="round"/>
<path d="M55.0811 94.9585C55.0811 94.9585 53.0539 95.9005 53.3252 97.2193C53.5965 98.5381 56.9726 97.2193 56.9726 97.2193C56.9726 97.2193 55.6236 98.4326 56.5656 99.6459C57.5076 100.859 59.6705 99.6459 59.6705 99.6459C59.6705 99.6459 58.1633 101.153 59.6705 102.208C61.1777 103.263 63.0466 101.266 63.0466 101.266C63.0466 101.266 61.8333 103.293 63.9886 103.527C64.5747 103.618 65.1743 103.508 65.6892 103.213C66.2041 102.919 66.6036 102.458 66.8222 101.907C66.8222 101.907 66.4152 103.527 68.4424 103.527C70.4696 103.527 71.0047 101.364 71.0047 101.364C71.0047 101.364 71.4116 103.391 73.0318 103.391C73.4845 103.401 73.9301 103.279 74.3142 103.039C74.6984 102.799 75.0043 102.453 75.1947 102.042" stroke="black" stroke-linecap="round" stroke-linejoin="round"/>
<path d="M48.8716 105.35C48.8716 105.35 52.7828 102.788 54.9456 104.137C57.1085 105.486 58.593 107.106 61.0196 107.242C63.4462 107.377 69.2565 107.106 69.3922 108.862C69.5278 110.618 64.9384 110.889 61.6979 110.369C59.6507 109.998 57.6858 109.266 55.8951 108.206" stroke="black" stroke-linecap="round" stroke-linejoin="round"/>
<path d="M53.0768 110.717C53.0768 110.717 55.9103 109.209 57.6662 109.368" stroke="black" stroke-linecap="round" stroke-linejoin="round"/>
<path d="M55.4883 112.774C55.855 112.328 56.3455 112 56.8981 111.833C57.4506 111.665 58.0404 111.665 58.5931 111.832C60.6203 112.374 59.8064 113.723 59.8064 113.723C59.8064 113.723 62.64 112.216 63.3182 112.51C63.9964 112.804 63.5895 114.402 63.5895 114.402C63.5895 114.402 65.6167 112.51 66.9656 112.51C68.3146 112.51 68.0433 114.13 68.0433 114.13C68.0433 114.13 70.3041 111.704 71.4194 111.704C71.7306 111.713 72.0302 111.823 72.2734 112.018C72.5166 112.212 72.6903 112.48 72.7684 112.781" stroke="black" stroke-linecap="round" stroke-linejoin="round"/>
<path d="M66.2873 124.521C66.2873 124.521 65.074 129.797 67.6362 130.188C70.1985 130.58 72.3613 123.979 72.3613 123.979C72.3613 123.979 73.7103 131.266 76.9508 131.13C80.1912 130.995 79.2116 123.979 79.2116 123.979C79.2116 123.979 83.5297 129.375 85.994 128.161C88.4583 126.948 84.1024 119.653 84.1024 119.653C84.1024 119.653 89.4982 122.487 89.7695 120.331C90.0408 118.176 85.0444 115.056 85.0444 115.056C82.5216 116.777 79.8996 118.347 77.1919 119.759C73.7973 121.269 70.2639 122.445 66.6415 123.27L66.2873 124.521Z" stroke="black" stroke-linecap="round" stroke-linejoin="round"/>
<path d="M39.8734 36.8633C37.1152 36.8633 36.3164 31.4675 38.4943 30.307C41.0791 28.9279 44.3121 32.0252 44.184 33.7585C44.0332 36.17 41.7724 36.8633 39.8734 36.8633Z" stroke="black" stroke-linecap="round" stroke-linejoin="round"/>
<path d="M41.946 29.1004C41.946 29.1004 46.9499 23.4107 49.1881 26.1689C51.4263 28.9271 45.9099 31.5195 45.9099 31.5195C45.9099 31.5195 51.0871 31.3462 51.5996 34.1043C52.112 36.8625 45.5406 34.6017 45.5406 34.6017C45.5406 34.6017 48.4721 41.158 45.3673 42.0172C42.2625 42.8763 41.23 38.9123 41.23 38.9123C41.23 38.9123 42.0891 44.2629 38.4718 43.7429C36.211 43.4264 36.5728 39.2213 37.4394 37.7141C37.4394 37.7141 33.9879 41.8514 32.0888 39.0932C30.1898 36.335 36.0603 34.4359 36.0603 34.4359C36.0603 34.4359 29.8506 34.4359 30.7098 31.6777C31.5689 28.9196 36.2337 29.952 36.2337 29.952C36.2337 29.952 35.7137 25.4304 38.6452 25.1214C41.5767 24.8124 41.946 29.1004 41.946 29.1004Z" stroke="black" stroke-linecap="round" stroke-linejoin="round"/>
</svg>
