<svg width="77" height="122" viewBox="0 0 77 122" fill="none" xmlns="http://www.w3.org/2000/svg">
<path d="M9.97349 99.512C8.82802 96.882 8.46629 93.86 8.33818 89.9639C8.21006 86.0678 8.21006 68.6144 8.08949 65.7205C7.96891 62.8267 8.62454 51.2815 9.09178 48.6439C9.55901 46.0063 10.3503 39.2239 10.7271 37.3399C11.1039 35.4559 12.2343 31.6879 12.2343 31.6879C12.2343 31.6879 15.7536 32.1928 18.0144 31.4392C20.2752 30.6856 25.3018 29.3065 25.3018 29.3065C27.0083 28.9685 28.6882 28.5076 30.3283 27.9274C32.0095 27.1589 33.7824 26.6093 35.6035 26.2921C37.3518 26.0359 44.7974 25.2823 44.7974 25.2823L52.4616 24.7773C52.4616 24.7773 57.36 26.7895 58.2417 27.5431C59.1234 28.2967 62.0097 30.6856 62.6352 32.8183C63.2607 34.951 64.5192 39.8494 64.896 41.1079C65.5009 44.5166 65.9211 47.9555 66.1545 51.4096C66.1545 52.6681 66.6594 60.4529 66.6594 60.4529L67.0362 73.8896L66.7875 83.8145C66.7875 83.8145 66.4107 92.609 66.4107 93.9881C66.4107 95.3672 65.7852 100.266 64.3986 102.278C63.012 104.29 60.0051 108.435 58.9953 109.188C57.9855 109.942 50.3289 115.217 50.3289 115.217C50.3289 115.217 48.1962 118.36 45.6791 118.985C43.1621 119.611 39.6503 120.997 34.88 120.244C30.1097 119.49 28.0976 118.736 24.0809 115.473C24.0809 115.473 16.4168 109.949 14.4122 106.935C12.4076 103.921 11.232 102.398 9.97349 99.512Z" fill="#F8C2A0"/>
<path d="M4.32166 79.7903C4.32166 79.7903 1.30725 76.904 1.30725 75.8942C1.30725 74.8844 0.304961 72.7517 1.55594 69.4886C2.80692 66.2255 4.44223 65.3438 5.82886 64.8389L6.36392 69.8654L7.24563 75.3893L7.87112 76.1429L7.99923 81.5462C6.71815 81.0844 5.48622 80.4962 4.32166 79.7903Z" fill="#F8C2A0"/>
<path d="M66.9985 75.7737L68.5057 69.873L69.6663 61.3271C70.8116 61.3363 71.9353 61.6399 72.9294 62.2089C74.1879 63.0906 74.8134 67.7328 73.8111 70.3704C72.8088 73.008 72.8088 75.3969 69.6663 77.4015L67.0287 79.4136L66.9985 75.7737Z" fill="#F8C2A0"/>
<path d="M17.0042 69.2409C15.9627 67.5865 15.409 65.6719 15.4066 63.717C15.2785 60.1977 16.4089 57.9369 18.1723 56.6859L22.189 56.181L26.7106 55.9323C27.5359 55.7844 28.3388 55.5311 29.0995 55.1787C29.0995 55.1787 31.4885 57.0627 31.9858 58.065C32.8487 60.0833 33.1932 62.2853 32.9881 64.4706C32.6502 66.0432 32.0104 67.5353 31.1041 68.8641L23.6962 68.9922L17.0042 69.2409Z" fill="white"/>
<path d="M45.8977 70.1232C45.8977 70.1232 43.6369 68.616 43.132 67.1088C42.627 65.6016 42.1297 62.459 42.7552 60.3264C43.3806 58.1937 45.3928 56.3097 46.1464 56.1815C47.0671 56.1159 47.9913 56.1159 48.9121 56.1815L56.1994 56.807C56.1994 56.807 58.9651 59.1959 59.3419 61.2005C59.7187 63.2051 59.47 66.4757 58.4602 68.1111C57.7642 69.1869 56.9193 70.1586 55.9507 70.9974C55.9507 70.9974 52.3334 70.1232 50.8262 70.2437C49.1824 70.2914 47.5372 70.2512 45.8977 70.1232Z" fill="white"/>
<path d="M26.4246 86.4453L28.9341 86.5734C28.9341 86.5734 39.1077 87.0783 40.6149 86.9502C42.1221 86.8221 49.1532 86.8221 49.1532 86.8221C48.8264 87.284 48.4471 87.7063 48.0228 88.0806C47.5179 88.4574 42.4989 91.2232 41.1123 91.2232C39.7256 91.2232 36.4625 92.1049 33.0713 90.8463C29.6801 89.5878 26.4246 86.4453 26.4246 86.4453Z" fill="#DA4F4D"/>
<path d="M46.3572 86.8825C46.3572 86.8825 45.5283 88.8419 43.7498 89.0152C42.2426 89.1584 42.1823 88.1109 42.1823 88.1109C41.918 88.6759 41.4881 89.1472 40.9497 89.4621C40.4114 89.7771 39.7899 89.9208 39.1679 89.8743C36.8393 89.8743 36.8543 88.0129 36.8543 88.0129C36.7592 88.5323 36.4761 88.9985 36.0591 89.3224C35.6421 89.6463 35.1203 89.8052 34.5935 89.7688C32.5965 89.7688 32.182 87.4025 32.182 87.4025C32.182 87.4025 31.5188 89.5201 30.5165 89.1659C29.5142 88.8117 28.8511 86.7017 28.8511 86.7017C28.8511 86.7017 35.9349 87.2066 37.8189 87.2066C39.7029 87.2066 46.3572 86.8825 46.3572 86.8825Z" fill="white"/>
<path d="M7.96244 75.8948C6.95234 74.0412 6.39217 71.976 6.32712 69.866C6.19901 67.8539 5.70163 60.6947 5.70163 60.6947V55.4195C5.70163 55.4195 1.93363 51.4028 1.55682 47.1298C1.18002 42.8569 0.803223 39.217 0.803223 39.217L1.08959 33.4444C0.887972 32.1155 0.804749 30.7714 0.840903 29.4277C0.969015 27.9205 1.97131 22.6453 2.34811 20.8894C3.02317 18.4894 4.12884 16.2321 5.6112 14.2276C6.7416 12.9691 12.3936 9.45729 13.3959 8.70369C16.3048 6.95671 19.3258 5.40343 22.4391 4.05397C23.4414 3.80528 31.1056 1.16767 32.6128 1.03956C34.12 0.911449 40.7441 1.28825 41.8745 1.92128C43.0049 2.5543 49.9154 4.18208 51.2945 4.80757C52.6736 5.43306 58.8306 8.19878 60.0891 9.32918C61.3476 10.4596 63.4803 14.0995 63.9852 15.1093C64.6079 16.6326 64.9991 18.2405 65.1457 19.8796C65.1457 19.8796 66.9016 19.8796 67.6552 20.6332C68.4088 21.3868 71.0464 24.0244 71.4232 25.0267C71.8 26.029 73.9327 30.5506 74.4376 31.681C75.1273 33.6922 75.6738 35.7496 76.073 37.8379C76.2011 38.7197 76.073 41.9827 74.8144 43.3618C73.5559 44.7409 71.8 49.5188 71.8 49.5188L70.5415 52.7819L69.6673 61.3277L68.5369 69.866L67.0297 75.7667L66.7811 65.465C66.7811 65.465 66.1556 54.5378 66.0275 52.6537C65.8993 50.7697 65.5225 44.6128 64.897 42.1033C64.2716 39.5938 63.013 33.565 62.3876 32.3065C61.1466 30.3309 59.5219 28.6242 57.6097 27.2875C55.9863 26.2736 54.2612 25.4326 52.4626 24.778L40.7818 25.7803L33.3739 26.7826L25.9584 29.1715C25.9584 29.1715 19.0479 31.4323 18.0456 31.4323C17.0433 31.4323 12.2655 31.681 12.2655 31.681C11.4592 33.8885 10.8293 36.1564 10.3815 38.4634C10.0047 41.101 8.74618 52.4051 8.74618 52.4051L8.1207 64.7114L7.96244 75.8948Z" fill="#E48F4C"/>
<path d="M23.4028 61.9907L23.5838 63.8832" stroke="black" stroke-linecap="round" stroke-linejoin="round"/>
<path d="M22.5359 63.0454L24.1796 62.9775" stroke="black" stroke-linecap="round" stroke-linejoin="round"/>
<path d="M22.8901 62.3306L24.1493 63.6199" stroke="black" stroke-linecap="round" stroke-linejoin="round"/>
<path d="M22.8376 63.7841L24.1043 62.2837" stroke="black" stroke-linecap="round" stroke-linejoin="round"/>
<path d="M50.1631 61.8174L50.3365 63.7099" stroke="black" stroke-linecap="round" stroke-linejoin="round"/>
<path d="M49.2891 62.865L50.9403 62.8047" stroke="black" stroke-linecap="round" stroke-linejoin="round"/>
<path d="M49.6504 62.1567L50.902 63.4385" stroke="black" stroke-linecap="round" stroke-linejoin="round"/>
<path d="M49.5903 63.6118L50.857 62.1113" stroke="black" stroke-linecap="round" stroke-linejoin="round"/>
<path d="M52.3336 24.8896C56.6593 26.2913 60.0882 28.424 61.7461 31.3329C68.3929 42.961 67.0666 87.3557 66.0643 97.2203C65.062 107.085 50.7737 115.013 50.7737 115.013" stroke="black" stroke-linecap="round" stroke-linejoin="round"/>
<path d="M24.0281 115.541C24.0281 115.541 10.4632 106.981 8.90329 94.7571C6.57466 76.4371 8.80532 36.7298 12.5583 31.334" stroke="black" stroke-linecap="round" stroke-linejoin="round"/>
<path d="M65.0767 21.4698C66.4031 17.2421 60.7586 9.8417 60.7586 9.8417C57.1036 5.96065 38.3239 -0.203813 31.9861 1.20542C25.6483 2.61466 18.376 4.39316 6.91375 13.1877C2.42982 16.6241 -0.0646057 28.5084 0.930149 32.0353C1.9249 35.5621 -1.73007 47.1902 5.91899 55.6381C5.91899 55.6381 5.09003 68.3212 7.58445 76.0757" stroke="black" stroke-linecap="round" stroke-linejoin="round"/>
<path d="M69.4027 61.2816C69.4027 61.2816 74.2257 60.2266 74.2257 67.2728C74.2774 69.782 73.6185 72.2547 72.3251 74.4056C71.0317 76.5564 69.1564 78.2976 66.9158 79.4283" stroke="black" stroke-linecap="round" stroke-linejoin="round"/>
<path d="M68.2345 76.0773C69.2293 75.5498 70.3974 77.3132 70.3974 78.3381C70.3974 80.2749 68.7394 82.0383 67.074 80.5989" stroke="black" stroke-linecap="round" stroke-linejoin="round"/>
<path d="M22.7017 112.724C22.7017 112.724 23.8622 116.952 29.4841 119.069C35.1059 121.187 48.4296 121.715 51.0898 113.259" stroke="black" stroke-linecap="round" stroke-linejoin="round"/>
<path d="M36.6662 113.514C36.5202 112.928 36.5495 112.312 36.7504 111.743C36.9514 111.173 37.3152 110.675 37.7966 110.311" stroke="black" stroke-linecap="round" stroke-linejoin="round"/>
<path d="M64.7449 19.7061C64.7449 19.7061 67.1413 19.2464 70.0653 23.2329C72.3939 26.4056 78.3549 37.3253 75.0541 42.9622C70.7963 50.1817 70.4195 53.5277 70.4195 53.5277L69.7563 58.1096C69.7563 58.1096 68.7616 69.5568 68.5958 70.0919C68.43 70.627 66.9303 76.4372 66.9303 76.4372" stroke="black" stroke-linecap="round" stroke-linejoin="round"/>
<path d="M49.3189 86.8212C49.3189 86.8212 31.6997 87.5296 26.0552 86.1128" stroke="black" stroke-linecap="round" stroke-linejoin="round"/>
<path d="M49.7937 86.0679C50.1369 86.2966 50.411 86.6147 50.5863 86.988C50.7616 87.3613 50.8315 87.7754 50.7885 88.1855" stroke="black" stroke-linecap="round" stroke-linejoin="round"/>
<path d="M25.362 84.5303C23.5308 84.8845 23.365 86.9946 23.365 86.9946" stroke="black" stroke-linecap="round" stroke-linejoin="round"/>
<path d="M49.7862 86.822C49.7862 86.822 44.4657 91.5772 37.1558 91.5772C31.3154 91.5772 26.5225 86.4678 26.5225 86.4678" stroke="black" stroke-linecap="round" stroke-linejoin="round"/>
<path d="M39.8162 76.4296C34.1641 79.248 31.1723 74.3119 32.1671 71.4935C32.5892 70.0568 33.3283 68.7331 34.3299 67.62L35.4905 58.2828C34.5664 57.5908 33.8263 56.6825 33.3352 55.6377" stroke="black" stroke-linecap="round" stroke-linejoin="round"/>
<path d="M42.1448 71.8472C42.1448 71.8472 45.4682 73.9648 42.808 76.0749C42.3655 76.4829 41.8034 76.7376 41.2049 76.8014C40.6063 76.8652 40.0032 76.7346 39.4846 76.4291" stroke="black" stroke-linecap="round" stroke-linejoin="round"/>
<path d="M30.9915 72.3828C30.9915 72.3828 28.5724 74.4778 29.537 75.985C30.8106 77.9293 33.9531 76.5954 33.9531 76.5954" stroke="black" stroke-linecap="round" stroke-linejoin="round"/>
<path d="M55.6042 56.7397C57.6465 57.7044 58.5207 59.1663 59.2743 61.1332C60.578 64.5245 58.4453 69.551 56.0715 70.802" stroke="black" stroke-linecap="round" stroke-linejoin="round"/>
<path d="M46.6739 70.4015C44.1418 69.7383 43.1395 67.1007 42.808 64.9831C42.4462 62.662 42.3407 58.2685 45.7244 56.377" stroke="black" stroke-linecap="round" stroke-linejoin="round"/>
<path d="M16.9139 68.6836C14.4195 65.4883 14.7511 58.5326 18.4211 56.626" stroke="black" stroke-linecap="round" stroke-linejoin="round"/>
<path d="M29.3484 55.4639C32.1443 57.2348 35.2491 61.8695 31.255 68.9157" stroke="black" stroke-linecap="round" stroke-linejoin="round"/>
<path d="M16.3867 69.3845C21.2747 68.9479 26.1833 68.7844 31.0895 68.8946" stroke="black" stroke-linecap="round" stroke-linejoin="round"/>
<path d="M53.4487 24.6348C53.4487 24.6348 36.4248 25.5843 31.436 27.3402C26.4472 29.0961 15.5576 33.0902 11.2319 31.3343" stroke="black" stroke-linecap="round" stroke-linejoin="round"/>
<path d="M5.61017 64.8022C5.61017 64.8022 0.598724 66.739 0.930308 73.4385C1.22421 79.4673 7.90866 81.5397 7.90866 81.5397" stroke="black" stroke-linecap="round" stroke-linejoin="round"/>
<path d="M48.1281 93.694C46.8708 95.5343 45.1849 97.0412 43.2156 98.0849C41.2464 99.1286 39.0528 99.6778 36.8241 99.6852C33.8097 99.6852 30.3431 98.1026 27.1855 93.3398" stroke="black" stroke-linecap="round" stroke-linejoin="round"/>
<path d="M46.4857 87.0026C46.4857 87.0026 45.6567 88.962 43.8782 89.1353C42.371 89.2785 42.3107 88.231 42.3107 88.231C42.0456 88.7954 41.6155 89.266 41.0774 89.5808C40.5392 89.8957 39.9182 90.0399 39.2963 89.9944C36.9677 89.9944 36.9827 88.133 36.9827 88.133C36.8877 88.6525 36.6046 89.1186 36.1875 89.4425C35.7705 89.7664 35.2487 89.9254 34.7219 89.8889C32.7249 89.8889 32.3104 87.5226 32.3104 87.5226C32.3104 87.5226 31.6472 89.6403 30.645 89.2861C29.6427 88.9319 28.9795 86.8218 28.9795 86.8218" stroke="black" stroke-linecap="round" stroke-linejoin="round"/>
<path d="M45.8 70.2651C45.8 70.2651 55.107 70.2651 57.7672 71.3202" stroke="black" stroke-linecap="round" stroke-linejoin="round"/>
<path d="M38.1581 83.1221C37.9553 83.538 37.6014 83.8609 37.1686 84.0248C36.7359 84.1887 36.2569 84.1811 35.8294 84.0038L35.0005 83.5215" stroke="black" stroke-linecap="round" stroke-linejoin="round"/>
<path d="M30.6069 52.8428C30.6069 52.8428 30.6069 54.8549 28.12 55.6085C25.6331 56.3621 17.0948 56.1059 15.4067 57.1458" stroke="black" stroke-linecap="round" stroke-linejoin="round"/>
<path d="M41.979 52.4663C41.979 52.4663 42.0996 54.2222 44.3529 55.3526C45.5511 55.9555 46.9603 56.1062 49.4472 56.2343C51.9341 56.3624 58.2191 56.8598 58.2191 56.8598" stroke="black" stroke-linecap="round" stroke-linejoin="round"/>
<path d="M52.8005 107.923V108.867" stroke="black" stroke-linecap="round" stroke-linejoin="round"/>
<path d="M46.0183 113.198V114.142" stroke="black" stroke-linecap="round" stroke-linejoin="round"/>
<path d="M28.8752 112.067L28.3088 112.823" stroke="black" stroke-linecap="round" stroke-linejoin="round"/>
<path d="M16.8167 106.604L16.6279 107.547" stroke="black" stroke-linecap="round" stroke-linejoin="round"/>
<path d="M15.6863 96.0532L15.1208 97.1842" stroke="black" stroke-linecap="round" stroke-linejoin="round"/>
<path d="M10.0357 96.2417L9.0918 96.6193" stroke="black" stroke-linecap="round" stroke-linejoin="round"/>
<path d="M18.5126 106.792L18.135 107.548" stroke="black" stroke-linecap="round" stroke-linejoin="round"/>
<path d="M43.5691 110.561L43.3806 111.692" stroke="black" stroke-linecap="round" stroke-linejoin="round"/>
<path d="M47.3372 105.285L47.9026 106.416" stroke="black" stroke-linecap="round" stroke-linejoin="round"/>
<path d="M41.8738 117.344V118.475" stroke="black" stroke-linecap="round" stroke-linejoin="round"/>
<path d="M38.8594 118.662L39.4249 117.531" stroke="black" stroke-linecap="round" stroke-linejoin="round"/>
<path d="M34.5256 119.229L34.7144 118.285" stroke="black" stroke-linecap="round" stroke-linejoin="round"/>
<path d="M30.0044 119.794L30.5708 118.85" stroke="black" stroke-linecap="round" stroke-linejoin="round"/>
<path d="M26.0479 118.097L26.2366 117.153" stroke="black" stroke-linecap="round" stroke-linejoin="round"/>
<path d="M46.2083 119.605L45.6414 118.978" stroke="black" stroke-linecap="round" stroke-linejoin="round"/>
<path d="M39.9901 121.113L39.6125 120.358" stroke="black" stroke-linecap="round" stroke-linejoin="round"/>
<path d="M49.7867 117.343L48.6558 116.589" stroke="black" stroke-linecap="round" stroke-linejoin="round"/>
<path d="M58.9584 109.182L57.6992 108.677" stroke="black" stroke-linecap="round" stroke-linejoin="round"/>
<path d="M42.8154 83.9973V83.2422" stroke="black" stroke-linecap="round" stroke-linejoin="round"/>
<path d="M42.8154 100.952V101.896" stroke="black" stroke-linecap="round" stroke-linejoin="round"/>
<path d="M38.8594 101.517V102.461" stroke="black" stroke-linecap="round" stroke-linejoin="round"/>
<path d="M30.382 101.329L30.0044 102.084" stroke="black" stroke-linecap="round" stroke-linejoin="round"/>
<path d="M33.9607 99.4448L33.7722 100.576" stroke="black" stroke-linecap="round" stroke-linejoin="round"/>
<path d="M35.2804 102.836L34.9028 103.78" stroke="black" stroke-linecap="round" stroke-linejoin="round"/>
<path d="M29.2505 82.3015L29.8168 81.5464" stroke="black" stroke-linecap="round" stroke-linejoin="round"/>
<path d="M26.6815 80.2959L25.3621 80.6729" stroke="black" stroke-linecap="round" stroke-linejoin="round"/>
<path d="M45.6414 82.6777L46.2077 83.4329" stroke="black" stroke-linecap="round" stroke-linejoin="round"/>
<path d="M50.54 83.1221L51.2952 84.066" stroke="black" stroke-linecap="round" stroke-linejoin="round"/>
<path d="M47.4653 81.4263L48.0308 82.5572" stroke="black" stroke-linecap="round" stroke-linejoin="round"/>
<path d="M39.801 80.6055L40.1786 81.5494" stroke="black" stroke-linecap="round" stroke-linejoin="round"/>
<path d="M32.6422 82.3013L32.4534 83.0564" stroke="black" stroke-linecap="round" stroke-linejoin="round"/>
<path d="M59.5833 96.4297L59.772 97.3736" stroke="black" stroke-linecap="round" stroke-linejoin="round"/>
<path d="M62.4097 99.0694L62.2209 98.1255" stroke="black" stroke-linecap="round" stroke-linejoin="round"/>
<path d="M19.2668 100.387L18.7004 101.331" stroke="black" stroke-linecap="round" stroke-linejoin="round"/>
<path d="M63.9165 88.895L64.482 90.2145" stroke="black" stroke-linecap="round" stroke-linejoin="round"/>
<path d="M41.3081 103.213V104.532" stroke="black" stroke-linecap="round" stroke-linejoin="round"/>
<path d="M32.0769 104.346L32.2657 103.402" stroke="black" stroke-linecap="round" stroke-linejoin="round"/>
<path d="M23.0343 82.8657L21.9033 83.2427" stroke="black" stroke-linecap="round" stroke-linejoin="round"/>
<path d="M64.3608 102.271L65.424 102.836" stroke="black" stroke-linecap="round" stroke-linejoin="round"/>
<path d="M11.7301 101.894L10.4106 102.459" stroke="black" stroke-linecap="round" stroke-linejoin="round"/>
<path d="M54.4961 86.8219C54.4961 86.8219 54.6846 85.8794 54.1191 85.5024" stroke="black" stroke-linecap="round" stroke-linejoin="round"/>
<path d="M20.5842 87.3873C20.5842 87.3873 20.2072 86.4449 20.9612 86.0679" stroke="black" stroke-linecap="round" stroke-linejoin="round"/>
<path d="M32.454 114.14C32.454 114.14 32.2655 115.46 31.5115 115.648" stroke="black" stroke-linecap="round" stroke-linejoin="round"/>
</svg>
