<svg width="76" height="121" viewBox="0 0 76 121" fill="none" xmlns="http://www.w3.org/2000/svg">
<path d="M9.69893 70.4808L11.5226 51.2715C11.5226 51.2715 14.0924 33.494 18.4633 32.0471C22.8342 30.6002 68.1407 33.0494 68.1407 33.0494C68.8561 34.8262 69.4429 36.6521 69.8966 38.513C70.2131 40.3368 69.143 49.1916 69.143 49.1916C69.143 49.1916 68.7662 51.6408 68.7662 52.0779V55.5972C68.6866 57.169 68.6967 58.7441 68.7964 60.3147C68.9848 61.5732 69.9871 65.2734 70.0549 65.9667C70.1227 66.6601 70.3714 72.1237 70.3714 73.7515C70.3714 75.3792 70.2433 83.5483 70.2433 84.5506C70.2433 85.5529 70.3714 93.7219 70.6201 95.0407C70.8688 96.3595 71.0572 101.386 71.125 102.14C71.1928 102.893 71.7505 105.908 71.5018 106.661C71.2531 107.415 71.125 109.804 66.8521 113.444C66.8521 113.444 60.0697 117.151 57.6205 117.837C55.1713 118.523 49.2706 119.97 45.5025 119.781C41.7345 119.593 34.0101 118.463 31.3122 117.521C28.6143 116.579 23.7385 114.823 22.0052 113.82C20.272 112.818 15.9161 110.557 14.5295 108.485C13.1429 106.413 12.0803 105.154 11.3267 101.574C10.6496 97.8177 10.2091 94.0221 10.0079 90.2101C10.0079 89.0797 9.6311 78.3409 9.6311 78.3409L9.69893 70.4808Z" fill="#F8C2A0"/>
<path d="M42.2997 53.6379C41.6458 55.006 40.6293 56.1685 39.3606 56.999C37.5218 57.9937 20.5206 56.2454 20.4226 53.879C20.3247 51.5127 38.8633 52.2211 42.2997 53.6379Z" fill="#3A3A3D"/>
<path d="M50.1147 53.7812C49.9715 51.5204 67.5078 52.1308 68.7739 53.9922C70.0399 55.8536 56.558 59.0187 53.9505 58.152C51.3431 57.2854 50.2654 56.1399 50.1147 53.7812Z" fill="#3A3A3D"/>
<path d="M49.0142 78.9585C51.9005 82.101 61.1623 81.2645 62.3982 86.6829C63.3854 91.0312 60.1826 91.6114 58.9467 90.6242C57.7108 89.637 57.7183 85.6957 54.0181 85.4545C47.1001 84.9948 47.1001 83.3595 47.1001 83.3595C43.3321 86.6226 34.4773 82.7415 32.0657 85.9519C29.1116 89.8932 25.5621 90.3906 25.0422 88.5367C24.1831 85.4545 28.1169 80.8575 32.0657 81.0007C42.699 81.4529 43.9576 78.4385 43.9576 78.4385L45.8416 78.6269L49.0142 78.9585Z" fill="#3A3A3D"/>
<path d="M24.5826 55.9131C24.5826 55.9131 18.9608 60.8115 21.5079 66.4635C24.7108 73.6077 36.0374 71.3921 39.4889 66.4635C41.9607 62.9367 39.2402 57.1038 39.2402 57.1038C37.6818 57.4045 36.0912 57.5033 34.5076 57.3977C32.0282 57.2319 24.5826 55.9131 24.5826 55.9131Z" fill="white"/>
<path d="M66.3471 56.1392C66.3471 56.1392 70.8688 61.7912 68.0578 66.6368C65.2469 71.4825 54.6814 72.5601 51.5464 66.3429C49.4514 62.1906 51.8328 58.0006 51.8328 58.0006L52.2096 57.458C53.0467 57.9401 53.9586 58.2789 54.9075 58.4603C55.7892 58.4603 59.1804 58.0835 59.1804 58.0835L66.3471 56.1392Z" fill="white"/>
<path d="M11.2588 31.8281C11.2588 31.8281 7.49083 30.0722 2.41155 26.9448C-0.889222 24.895 4.48396 11.7371 11.9145 8.1349C23.0527 2.73157 37.0848 3.49271 37.8007 5.87409C38.3885 7.82592 38.3885 12.7093 37.9966 15.4373L36.2709 16.7787C31.8649 17.3411 27.5792 18.6136 23.5802 20.5467C20.0255 22.2167 16.8012 24.5143 14.0622 27.3291L11.2588 31.8281Z" fill="#F9FFFF"/>
<path d="M29.5714 3.79448C27.5929 2.3632 25.3012 1.42531 22.8869 1.0589C19.3073 0.682102 12.6153 2.18931 11.4849 3.41014C10.3545 4.63098 8.47053 4.91734 6.77493 8.21812C5.63426 10.6212 4.78179 13.1508 4.23529 15.7541L6.20973 13.2145C6.20973 13.2145 9.3221 9.44649 11.1081 8.60246C13.7371 7.37955 16.4463 6.33716 19.2169 5.48254C20.6261 5.20371 29.5714 3.79448 29.5714 3.79448Z" fill="#F9FFFF"/>
<path d="M3.6701 27.1559C3.6701 27.1559 5.75005 18.6101 8.11636 15.8519C10.4827 13.0937 13.5121 9.77788 16.2553 8.73037C18.9984 7.68286 26.6625 5.87422 30.4456 6.05508C34.2287 6.23595 37.7706 6.32638 37.7706 6.32638L38.1172 7.83358C38.1172 7.83358 33.4826 7.64518 31.8699 7.64518C30.2572 7.64518 23.5803 8.21792 22.0278 8.78312C20.4754 9.34832 16.2553 10.6822 14.7405 11.5338C13.2258 12.3853 9.53313 17.3591 8.86996 18.1127C8.20679 18.8663 5.10195 27.9924 5.10195 27.9924L3.6701 27.1559Z" fill="#1797FF"/>
<path d="M10.0155 69.7954C9.13374 70.0441 8.82477 67.9717 8.82477 66.9694C8.82477 65.9671 8.50825 54.6631 8.44797 53.2161C8.38768 51.7692 8.88506 44.6778 9.07346 43.2912C9.26186 41.9046 10.2641 36.6972 10.7691 35.0016C11.3637 32.9276 12.1405 30.9101 13.0902 28.9728C13.7835 27.8424 16.0443 25.8303 17.4837 24.3909C18.923 22.9515 22.6308 21.1278 23.196 20.8716C23.7612 20.6153 27.7779 18.7992 28.9761 18.4224C30.1743 18.0455 36.2709 16.772 36.2709 16.772C36.2709 16.772 40.039 14.5112 41.7873 14.2173C43.5357 13.9233 47.8764 14.4659 47.8764 14.4659C47.8764 14.4659 50.1975 12.2654 51.5841 12.4538C52.9708 12.6422 54.9151 14.4659 54.9151 14.4659C54.9151 14.4659 58.1782 13.1471 59.497 13.4637C59.8915 13.5701 60.2558 13.7672 60.5606 14.0393C60.8655 14.3115 61.1025 14.6511 61.2528 15.0311L61.4186 16.2897C62.7554 16.3274 64.0747 16.603 65.3148 17.1035C65.8453 17.3951 66.3057 17.799 66.6637 18.2872C67.0217 18.7754 67.2686 19.3359 67.3872 19.9296C67.4475 20.3666 67.3269 22.2506 67.3269 22.2506C67.3269 22.2506 69.2109 22.2506 69.9042 22.8158C70.558 23.5043 70.9751 24.3835 71.0949 25.3253C71.0914 26.0801 70.9431 26.8271 70.6578 27.5259C70.6578 27.5259 71.7279 29.1612 71.5998 30.0354C71.3694 31.0577 71.0749 32.0644 70.7181 33.0498C70.7181 33.0498 71.1552 37.1343 71.1552 38.2647C71.1552 39.3951 70.2132 45.552 70.2132 45.552L69.2712 49.8249L69.0828 43.0425L67.1988 34.881C67.1988 34.881 59.9114 36.0039 58.555 36.0039C57.1985 36.0039 49.1952 36.3204 46.6857 35.9436C44.1762 35.5668 37.7706 34.8132 35.6304 34.3761C33.4902 33.939 27.5066 33.1854 26.4063 33.1854C25.306 33.1854 21.6963 33.0573 20.4378 33.1854C19.1793 33.3135 18.3654 34.4439 17.9886 35.5743C17.6581 37.2281 17.5315 38.9162 17.6118 40.6008C17.6721 41.3545 18.3654 45.2506 18.3654 45.2506C18.3654 45.2506 16.1648 48.7699 15.7278 49.5838C14.7732 51.8129 13.9553 54.098 13.2786 56.4265C13.1504 57.2404 11.7714 62.704 11.7714 62.704L10.0155 69.7954Z" fill="#3A3A3D"/>
<path d="M9.57085 78.649C8.03131 78.1012 6.53922 77.4282 5.10953 76.6369C3.91884 75.823 1.78614 73.434 1.59774 71.9268C1.40934 70.4196 1.40934 68.1588 3.54204 66.5235C5.00648 65.5064 6.72735 64.9215 8.50827 64.8354L8.82478 67.4128C8.82478 67.4128 9.26187 69.8017 9.63867 69.9223L9.57085 78.649Z" fill="#F8C2A0"/>
<path d="M70.3035 76.2003C70.3035 76.2003 70.3638 70.6764 70.3035 69.7344C70.2432 68.7924 69.5499 64.7757 69.5499 64.7757C69.5499 64.7757 72.2478 64.5873 72.813 65.0244C73.3782 65.4615 75.3225 66.72 75.3903 68.9205C75.4582 71.1211 75.1417 73.9471 73.6947 75.0775C72.7001 75.7787 71.5201 76.1694 70.3035 76.2003Z" fill="#F8C2A0"/>
<path d="M50.8156 64.5132C50.8156 64.5132 54.3877 76.827 51.4336 78.3041C48.4794 79.7812 42.5787 77.8143 42.5787 77.8143" stroke="black" stroke-linecap="round" stroke-linejoin="round"/>
<path d="M42.2997 53.7658C41.6458 55.1339 40.6293 56.2964 39.3606 57.1269C37.5218 58.1216 20.5206 56.3733 20.4226 54.007C20.3247 51.6407 38.8633 52.3491 42.2997 53.7658Z" stroke="black" stroke-linecap="round" stroke-linejoin="round"/>
<path d="M50.1147 53.9086C49.9715 51.6478 67.5078 52.2582 68.7739 54.1196C70.0399 55.981 56.558 59.1461 53.9505 58.2795C51.3431 57.4128 50.2654 56.2674 50.1147 53.9086Z" stroke="black" stroke-linecap="round" stroke-linejoin="round"/>
<path d="M47.3715 108.854C47.3715 108.854 48.8787 109.961 47.0022 112.546" stroke="black" stroke-linecap="round" stroke-linejoin="round"/>
<path d="M38.999 90.5049C38.999 90.5049 47.4997 92.5999 53.9053 90.3843" stroke="black" stroke-linecap="round" stroke-linejoin="round"/>
<path d="M8.32738 64.7617C8.32738 64.7617 2.29857 64.8823 1.54496 70.4288C0.791362 75.9753 9.30706 78.5602 9.30706 78.5602" stroke="black" stroke-linecap="round" stroke-linejoin="round"/>
<path d="M67.3194 35.2031C67.3194 35.2031 68.3066 38.7601 68.9547 41.8499C69.7083 45.5425 68.4648 52.9354 68.706 57.6152L69.1732 62.5739C71.8786 70.9465 68.8416 82.8081 71.5471 105.009C72.6247 113.811 56.6107 119.23 48.1854 119.712C37.4466 120.33 19.7897 115.658 13.7081 107.541C9.85722 102.409 9.65375 87.7668 9.65375 70.0195" stroke="black" stroke-linecap="round" stroke-linejoin="round"/>
<path d="M66.6939 35.0012C65.1189 35.363 63.2575 35.4609 61.2906 35.6945C53.3615 36.6025 45.3391 36.2643 37.5145 34.6922C31.5309 33.5618 20.6036 32.2054 19.0663 33.6146C17.3179 35.2047 17.1974 40.397 18.4257 45.303C12.5175 52.319 11.161 67.8507 10.1738 69.5689C8.2069 73.0129 8.57616 54.414 8.57616 50.2315C8.57616 46.049 9.68396 32.0019 14.8612 26.8322C20.7242 20.9315 28.6823 17.9924 36.2861 16.8545" stroke="black" stroke-linecap="round" stroke-linejoin="round"/>
<path d="M36.4067 16.7269C36.4067 16.7269 40.1295 14.6168 42.0738 14.2626C44.0428 14.0036 46.0418 14.0878 47.9821 14.5113C47.9821 14.5113 49.7078 12.5444 51.4336 12.5444C53.1593 12.5444 55.1262 14.76 55.1262 14.76C56.3203 13.8414 57.8151 13.4032 59.3162 13.5317C61.7805 13.7803 61.2831 16.4858 61.2831 16.4858C61.2831 16.4858 64.9758 15.9959 66.4528 17.993C66.8878 18.6349 67.1801 19.3625 67.3101 20.1269C67.4401 20.8912 67.4047 21.6746 67.2064 22.4242C67.2064 22.4242 69.422 21.8062 70.5298 23.6525C70.8463 24.2577 71.0215 24.9267 71.0424 25.6094C71.0633 26.292 70.9292 26.9705 70.6504 27.5939C71.7883 30.0205 71.728 31.701 70.8463 32.8691" stroke="black" stroke-linecap="round" stroke-linejoin="round"/>
<path d="M44.0857 78.4619C44.0857 78.4619 42.8272 81.4763 32.1939 81.0242C28.245 80.8584 24.3112 85.4553 25.1703 88.5602C25.6903 90.414 29.2322 89.9167 32.1939 85.9753C34.5979 82.765 43.4602 86.6536 47.2283 83.3829C47.2283 83.3829 47.2283 85.0182 54.1237 85.4779C57.8164 85.7266 57.8164 89.668 59.0523 90.6477C60.2882 91.6273 63.491 91.0546 62.5038 86.7063C61.2754 81.2879 52.0061 82.1244 49.1198 78.9819" stroke="black" stroke-linecap="round" stroke-linejoin="round"/>
<path d="M40.3177 103.187C40.3177 103.187 48.4491 99.9842 52.1418 102.697" stroke="black" stroke-linecap="round" stroke-linejoin="round"/>
<path d="M24.3414 56.1392C24.3414 56.1392 19.0662 60.8115 21.6359 66.4861C24.8387 73.6303 36.1654 71.4147 39.6169 66.4861C42.0887 62.9593 39.3682 57.1264 39.3682 57.1264" stroke="black" stroke-linecap="round" stroke-linejoin="round"/>
<path d="M51.9609 58.0539C51.9609 58.0539 49.5796 62.2214 51.6746 66.3436C54.802 72.5382 65.3374 71.4605 68.186 66.6149C71.0346 61.7692 66.4753 56.1172 66.4753 56.1172" stroke="black" stroke-linecap="round" stroke-linejoin="round"/>
<path d="M31.0938 61.1812L31.3048 63.2686" stroke="black" stroke-linecap="round" stroke-linejoin="round"/>
<path d="M30.0764 62.3423L32.0066 62.2744" stroke="black" stroke-linecap="round" stroke-linejoin="round"/>
<path d="M30.4982 61.5576L31.9685 62.9751" stroke="black" stroke-linecap="round" stroke-linejoin="round"/>
<path d="M30.4305 63.1636L31.9083 61.5049" stroke="black" stroke-linecap="round" stroke-linejoin="round"/>
<path d="M60.3711 60.7822L59.8209 62.9225" stroke="black" stroke-linecap="round" stroke-linejoin="round"/>
<path d="M59.3688 61.4907L60.922 62.5463" stroke="black" stroke-linecap="round" stroke-linejoin="round"/>
<path d="M59.1353 62.3875L61.1097 61.4907" stroke="black" stroke-linecap="round" stroke-linejoin="round"/>
<path d="M59.7608 60.79L60.3788 63.0282" stroke="black" stroke-linecap="round" stroke-linejoin="round"/>
<path d="M70.6503 33.1099C71.0325 35.679 71.1159 38.2837 70.899 40.872C70.5825 44.4365 69.1732 51.0983 69.1732 51.0983" stroke="black" stroke-linecap="round" stroke-linejoin="round"/>
<path d="M69.9117 64.7599C70.7988 64.5889 71.7166 64.6845 72.5495 65.0346C73.3823 65.3846 74.0929 65.9734 74.5916 66.7268C76.1967 69.191 75.3452 73.5092 74.1017 74.73C73.0731 75.7109 71.7022 76.2517 70.281 76.2372" stroke="black" stroke-linecap="round" stroke-linejoin="round"/>
<path d="M11.4398 31.6771C11.4398 31.6771 7.73958 29.9136 2.68291 26.8013C-0.580184 24.7967 4.73271 11.6463 12.0879 8.05918C23.1131 2.67846 37.0019 3.43206 37.7103 5.79837C38.2906 7.74266 38.2906 12.5808 37.9063 15.3314" stroke="black" stroke-linecap="round" stroke-linejoin="round"/>
<path d="M4.04688 16.2975C4.04688 16.2975 5.79523 6.76444 11.0478 3.84046C18.2975 -0.183769 25.5773 0.780841 29.7673 3.65206" stroke="black" stroke-linecap="round" stroke-linejoin="round"/>
<path d="M24.477 9.87549L25.6451 15.7084" stroke="black" stroke-linecap="round" stroke-linejoin="round"/>
<path d="M21.2968 13.5084C21.2968 13.5084 24.4092 16.1007 25.4492 16.1007C26.4891 16.1007 28.0415 12.7246 28.0415 12.7246" stroke="black" stroke-linecap="round" stroke-linejoin="round"/>
<path d="M24.0851 7.73523C26.2254 7.34336 25.6451 9.67952 24.477 9.67952C23.3089 9.67952 22.2689 8.06681 24.0851 7.73523Z" stroke="black" stroke-linecap="round" stroke-linejoin="round"/>
<path d="M22.9172 11.0435H25.8412" stroke="black" stroke-linecap="round" stroke-linejoin="round"/>
</svg>
