<svg width="149" height="145" viewBox="0 0 149 145" fill="none" xmlns="http://www.w3.org/2000/svg">
<path d="M49.0959 80.3756C40.9118 81.7999 8.99679 80.6017 3.17898 71.1214C-6.42944 55.454 25.9302 27.6913 45.5239 14.8801C57.6493 6.94468 76.1352 -3.95994 99.9867 3.48565C118.518 9.29592 146.122 20.8185 147.682 38.0157C149.106 53.6755 120.982 62.5756 113.152 64.3917C113.152 64.3917 88.8107 71.3701 82.2544 73.3822C75.6981 75.3943 49.0959 80.3756 49.0959 80.3756Z" fill="#FF0000"/>
<path d="M3.79645 68.1967C2.41736 62.9818 6.18537 55.6341 11.3325 50.6001C16.4796 45.566 31.0542 36.9071 36.2013 34.5258C41.3484 32.1444 59.6911 25.3695 63.964 24.3597C68.2369 23.3498 83.6858 20.4636 93.1058 19.8381C102.526 19.2126 115.337 19.5894 120.74 20.5917C126.144 21.594 132.941 22.8675 135.556 24.224C139.196 26.108 143.718 30.2528 143.597 35.0231C143.477 39.7934 144.976 46.3272 135.812 53.1096C130.047 57.3825 112.594 62.6577 112.594 62.6577C112.594 62.6577 61.349 78.3552 55.9457 78.8602C50.5424 79.3651 32.9608 80.3674 25.048 78.732C17.1352 77.0967 5.58249 74.851 3.79645 68.1967Z" fill="#FFFFFE"/>
<path d="M51.7182 99.6605C51.7182 99.6605 48.5154 99.4721 46.8198 98.0629C45.1242 96.6536 43.3306 95.3348 42.9538 92.9761C42.5981 90.8898 42.7929 88.7468 43.519 86.7589C44.3154 85.0032 45.5477 83.4804 47.0986 82.3352C47.949 81.8595 48.7672 81.3283 49.5478 80.7451C49.5478 80.7451 49.8342 85.0783 50.113 86.7739C50.3918 88.4695 51.4318 97.136 51.4318 97.136L51.7182 99.6605Z" fill="#F8C2A0"/>
<path d="M111.531 89.1999C111.531 89.1999 111.629 82.1386 111.629 81.0987C111.629 80.0587 111.252 75.4466 111.252 75.4466C111.252 75.4466 112.194 73.2838 112.473 72.3418C113.691 72.6929 114.817 73.305 115.774 74.1354C117.197 75.868 118.022 78.0146 118.125 80.2546C118.125 82.6134 116.806 85.6278 115.676 86.5698C114.348 87.529 112.964 88.4073 111.531 89.1999Z" fill="#F8C2A0"/>
<path d="M52.6598 105.313C52.1775 102.638 50.9642 94.574 50.7758 92.2228C50.5874 89.8715 49.1706 76.3067 49.0801 74.9879C48.9897 73.6691 48.417 61.3326 48.417 61.3326L48.8917 54.5502V51.9955C48.8917 51.9955 47.9497 50.0211 48.5149 49.4559C49.0801 48.8907 49.9242 46.8183 52.3734 45.6879C54.8226 44.5575 60.663 41.2642 62.547 40.601C64.431 39.9379 73.7606 37.3078 76.1118 37.0214C78.4631 36.7351 86.9486 35.7026 88.7347 35.7026C90.5207 35.7026 99.5715 36.4562 101.832 37.2098C104.093 37.9634 104.749 38.717 105.223 39.8474C105.698 40.9778 108.049 49.7422 108.238 51.1515C108.426 52.5607 109.27 57.6551 109.27 57.6551L109.745 59.4486L111.441 77.4371C111.441 77.4371 111.441 86.8571 111.531 89.2159C111.622 91.5747 111.064 98.7339 111.064 98.7339L110.778 101.658C110.778 101.658 113.415 104.959 113.701 107.031C113.988 109.103 113.701 111.839 111.441 113.346C110.617 113.967 109.733 114.505 108.803 114.951C108.803 114.951 107.386 121.267 106.165 123.429C104.945 125.592 102.676 128.893 97.2127 132.194C91.7491 135.495 84.2131 136.512 84.2131 136.512C84.2131 136.512 77.9054 136.324 75.6446 135.382C73.3838 134.44 69.9926 133.596 68.0106 132.367L65.471 130.204C65.471 130.204 62.4566 131.523 60.9494 131.621C59.4422 131.719 57.6486 131.719 56.3298 130.023C55.011 128.328 54.8226 124.56 54.9206 123.527C55.2975 121.459 55.8963 119.438 56.7066 117.499C54.8066 113.641 53.4449 109.541 52.6598 105.313Z" fill="#F8C2A0"/>
<path d="M60.294 126.355C57.5811 125.209 59.2315 118.344 62.6076 115.322C65.9837 112.3 70.9726 110.876 74.3562 109.625C78.4297 107.941 82.4095 106.04 86.2782 103.928C89.2926 102.323 96.4217 100.725 100.695 101.079C104.968 101.433 108.705 103.573 109.738 106.776C110.77 109.979 109.384 111.049 106.723 111.049C104.063 111.049 95.1557 111.049 91.4178 112.474C87.6799 113.898 77.5591 118.879 74.3562 120.688C71.1534 122.496 65.2829 128.488 60.294 126.355Z" fill="#DA4F4D"/>
<path d="M62.2083 116.226C62.2083 116.226 60.5428 119.195 63.3914 119.55C66.24 119.904 67.3101 112.903 67.3101 112.903C67.3101 112.903 68.2597 117.176 69.684 116.821C71.1083 116.467 74.0699 110.137 74.0699 110.137C74.0699 110.137 75.0195 114.41 76.9186 113.34C78.8176 112.27 80.2419 107.643 80.2419 107.643C80.2419 107.643 81.4251 110.845 84.3943 110.016C87.3635 109.187 87.7177 103.988 87.7177 103.988C87.7177 103.988 90.5663 106.957 92.4654 106.482C94.3644 106.007 93.8897 101.96 93.8897 101.96C92.6446 102.075 91.4133 102.307 90.2121 102.654C89.0817 103.091 83.6784 105.668 83.6784 105.668L76.8357 108.999L69.8649 111.576C69.8649 111.576 65.8482 113.332 64.9062 113.965C63.9665 114.669 63.0658 115.424 62.2083 116.226Z" fill="white"/>
<path d="M81.1914 117.107C81.1914 117.107 82.6157 111.531 84.3942 111.531C86.1727 111.531 87.2428 114.259 87.2428 114.259C87.2428 114.259 88.3129 109.157 91.1616 109.036C94.0102 108.916 94.0102 111.885 94.0102 111.885C94.0102 111.885 95.3139 108.117 97.5672 108.117C99.8204 108.117 99.3457 111.199 99.3457 111.199C99.3457 111.199 100.529 107.642 102.669 107.876C104.809 108.109 104.093 111.433 104.093 111.433C104.093 111.433 100.642 111.486 98.3132 111.674C95.9846 111.862 93.6635 111.99 92.5331 112.428C91.4027 112.865 86.3159 115.314 86.3159 115.314L82.2314 117.07L81.2291 117.635L81.1914 117.107Z" fill="white"/>
<path d="M80.189 57.0065C80.189 57.0065 76.9033 52.6205 73.3087 51.6634C71.091 51.0984 68.7775 51.0187 66.5262 51.4298C66.5262 51.4298 67.4607 48.7244 71.2287 48.4757L70.7238 45.0845L74.3637 47.2172L74.9892 45.0845C74.9892 45.0845 80.4151 48.227 80.189 57.0065Z" fill="black"/>
<path d="M99.6319 49.3584C97.3033 49.6673 95.2384 48.7329 92.7666 50.112C90.5058 51.3931 87.8983 55.0933 87.8983 55.0933C87.8983 55.0933 89.0815 45.824 95.1103 42.8096L95.6152 45.0704C95.6152 45.0704 99.6319 43.0658 101.139 43.0658L99.6319 46.3289L103.4 47.708C102.276 48.5198 100.991 49.0824 99.6319 49.3584Z" fill="black"/>
<path d="M82.0728 69.6968C81.9221 64.5949 77.3251 56.4108 67.8373 55.3407C58.3494 54.2706 52.4035 61.9875 51.8157 68.9885C51.2279 75.9894 56.797 85.7184 66.7672 85.5677C76.7373 85.417 82.3064 77.6473 82.0728 69.6968Z" fill="white"/>
<path d="M85.0347 70.2928C84.4017 63.3747 89.0665 55.1077 99.1572 54.9871C109.248 54.8665 112.406 63.2767 112.684 68.0395C112.812 71.6022 111.606 75.0843 109.302 77.8048C106.998 80.5254 103.762 82.2887 100.227 82.7498C91.8021 83.933 85.7507 78.1227 85.0347 70.2928Z" fill="white"/>
<path d="M91.5682 12.6348C91.5682 11.4215 95.3362 8.36187 98.4486 10.5021C101.561 12.6423 99.8729 14.0591 98.2075 15.0237C96.542 15.9883 91.5682 14.3002 91.5682 12.6348Z" fill="white"/>
<path d="M51.5899 21.8974C48.696 21.8974 50.6403 15.4918 53.9637 15.9666C57.2871 16.4413 57.9955 18.1068 57.5207 19.2899C57.0459 20.4731 54.2049 21.8974 51.5899 21.8974Z" fill="white"/>
<path d="M71.1459 9.07799C71.1459 7.36732 77.0767 2.43123 79.9253 4.3303C82.7739 6.22938 82.5328 9.07799 79.4506 10.2611C76.3683 11.4443 71.1459 11.9266 71.1459 9.07799Z" fill="white"/>
<path d="M15.9221 39.4326C14.5637 39.5065 13.2269 39.8044 11.9657 40.3143C9.64456 41.196 8.32576 42.6354 7.82085 44.5194C7.54279 46.0138 7.54279 47.5467 7.82085 49.041L10.2701 45.8382L15.9221 39.4326Z" fill="white"/>
<path d="M28.4166 27.7527C28.4166 27.7527 28.1 25.5522 29.3586 24.5499C29.9377 24.0691 30.611 23.7148 31.3352 23.5098C32.0594 23.3047 32.8185 23.2534 33.5637 23.3592C33.3696 23.715 33.1145 24.0338 32.8101 24.3012C32.3127 24.7383 28.4166 27.7527 28.4166 27.7527Z" fill="white"/>
<path d="M48.5381 13.1246C48.5381 13.1246 48.7039 10.4191 50.0453 9.15308C51.577 7.81305 53.4851 6.97873 55.5089 6.76416C56.7543 6.81254 57.9941 6.95869 59.2166 7.20125C59.2166 7.20125 54.5066 9.71074 53.5646 10.2759C52.6226 10.8411 48.5381 13.1246 48.5381 13.1246Z" fill="white"/>
<path d="M108.238 6.4636C108.238 6.4636 109.308 4.57959 112.511 4.82828C115.714 5.07697 116.528 6.90069 116.905 7.4056C117.281 7.91051 117.975 9.53829 117.658 10.3597L108.238 6.4636Z" fill="white"/>
<path d="M131.034 17.2012C131.5 16.8165 132.05 16.5477 132.639 16.4167C133.229 16.2857 133.841 16.2963 134.426 16.4476C135.114 16.592 135.752 16.9184 136.271 17.3929C136.791 17.8675 137.174 18.4727 137.38 19.1455C137.496 19.9624 137.453 20.7943 137.252 21.5947L131.034 17.2012Z" fill="white"/>
<path d="M89.2323 113.692C89.2323 113.692 89.1871 116.186 89.0439 117.415C88.9007 118.643 88.5692 120.339 87.6799 120.904C86.7907 121.469 86.1727 121.19 85.2307 120.715C84.2887 120.241 83.6783 119.819 83.0151 120.339C82.3519 120.859 82.2163 121.944 82.3067 123.074C82.3972 124.205 82.5931 126.985 82.5403 128.116C82.4876 129.246 82.5856 131.884 82.1635 132.735L81.1311 134.808L81.0859 136.315L78.0263 135.848C78.2448 134.932 78.4034 134.003 78.501 133.067C78.501 132.359 78.4558 131.748 78.501 130.716C78.7633 129.332 79.157 127.977 79.6766 126.669C79.865 126.104 80.1514 123.798 79.8198 122.999C79.4883 122.2 78.923 121.635 78.5915 121.778C78.1093 122.146 77.788 122.686 77.6947 123.285C77.6008 123.664 77.3993 124.008 77.1146 124.276C76.8298 124.543 76.4738 124.723 76.0895 124.792C75.2907 124.838 75.1023 124.084 75.1023 123.617C75.1485 123.122 75.2419 122.632 75.3811 122.155C75.0448 122.31 74.6714 122.366 74.3044 122.316C73.9375 122.267 73.5921 122.114 73.3087 121.876C73.3087 121.876 78.4407 118.907 79.4807 118.394C80.5207 117.882 85.5095 115.478 85.5095 115.478L89.2323 113.692Z" fill="#61EA67"/>
<path d="M56.7067 81.4996C56.7067 81.4996 58.2591 79.9019 59.3895 80.2787C60.1864 80.5072 60.9158 80.9262 61.5146 81.4996C62.1105 82.0997 62.8909 82.4819 63.7302 82.5847C64.5291 82.5847 65.8026 81.7407 67.2194 82.0195C68.6362 82.2984 70.2338 83.3836 71.5074 83.3836C72.781 83.3836 74.2882 82.5847 74.8986 82.5395C75.3555 82.5513 75.7987 82.6982 76.1722 82.9615C76.1722 82.9615 72.9242 85.0792 71.1834 85.3203C69.4425 85.5615 66.1945 86.1719 63.7905 85.5087C61.3865 84.8455 57.7466 83.3609 56.7067 81.4996Z" fill="#61EA67"/>
<path d="M90.3849 80.3987C91.4993 79.7907 92.7409 79.4525 94.0097 79.4115C95.9389 79.4115 96.7453 79.5999 97.8757 79.1326C99.0061 78.6654 100.28 78.1454 101.078 78.2358C101.542 78.2847 101.991 78.4284 102.397 78.6579C103.182 78.0414 104.056 77.5483 104.99 77.1959C106.218 76.8191 107.537 76.6307 108.238 76.917C108.939 77.2034 109.979 77.5275 109.979 77.5275C109.979 77.5275 107.861 80.2103 105.789 81.2503C103.212 82.3802 100.452 83.0338 97.6421 83.1795C95.7505 83.1267 91.9373 81.9059 90.3849 80.3987Z" fill="#F8C2A0"/>
<path d="M64.0846 97.0825C64.0846 97.0825 61.1983 100.338 63.0823 101.092C64.9663 101.845 64.5895 99.3433 64.0846 97.0825Z" fill="#61EA67"/>
<path d="M115.895 114.936C115.895 114.936 113.747 117.784 114.915 118.922C116.083 120.06 118.548 117.777 115.895 114.936Z" fill="#61EA67"/>
<path d="M96.6926 139.202C96.6926 139.202 95.4416 143.581 97.3106 143.807C99.1795 144.033 98.8554 140.589 96.6926 139.202Z" fill="#61EA67"/>
<path d="M68.041 125.284C68.041 125.284 68.5459 123.212 68.7946 122.141C69.0433 121.071 70.0531 118.999 70.9273 119.187C71.8015 119.376 72.4948 122.33 72.4948 122.33L68.041 125.284Z" fill="white"/>
<path d="M66.8954 69.8867L66.7372 72.3585" stroke="black" stroke-linecap="round" stroke-linejoin="round"/>
<path d="M68.1392 71.2051H65.8708" stroke="black" stroke-linecap="round" stroke-linejoin="round"/>
<path d="M67.6121 70.3008L65.9534 72.0349" stroke="black" stroke-linecap="round" stroke-linejoin="round"/>
<path d="M67.7629 72.1857L65.9534 70.3008" stroke="black" stroke-linecap="round" stroke-linejoin="round"/>
<path d="M86.1801 80.6851C86.1801 80.6851 87.8983 86.322 88.6143 89.7283C89.5261 94.1142 89.9255 96.6765 87.4311 97.7391C84.2283 99.1031 82.9849 95.0713 82.9849 95.0713C82.9527 95.399 82.8493 95.7158 82.682 95.9994C82.5147 96.283 82.2874 96.5267 82.0161 96.7133C81.7448 96.8999 81.436 97.025 81.1113 97.0798C80.7866 97.1346 80.4538 97.1179 80.1362 97.0307C78.1769 96.6162 78.5311 94.0163 78.5311 94.0163" stroke="black" stroke-linecap="round" stroke-linejoin="round"/>
<path d="M91.2218 92.0488C91.6057 92.415 91.8728 92.8866 91.9895 93.4041C92.1062 93.9217 92.0672 94.4622 91.8774 94.9577C90.8676 97.1507 89.0891 96.2012 89.0891 96.2012" stroke="black" stroke-linecap="round" stroke-linejoin="round"/>
<path d="M60.5501 126.602C57.8673 125.449 59.48 118.591 62.8637 115.569C66.2474 112.547 71.2287 111.123 74.6123 109.872C78.6858 108.188 82.6656 106.287 86.5343 104.175C89.5487 102.57 96.6778 100.972 100.951 101.326C105.224 101.68 108.962 103.821 109.994 107.023C111.026 110.226 109.64 111.296 106.98 111.296C104.319 111.296 95.4117 111.296 91.6739 112.721C87.936 114.145 77.7925 119.126 74.5897 120.905C71.3869 122.683 65.5314 128.742 60.5501 126.602Z" stroke="black" stroke-linecap="round" stroke-linejoin="round"/>
<path d="M106.528 99.5854C106.528 99.5854 110.672 100.663 112.7 104.213C114.124 106.707 114.478 110.241 111.871 112.992C109.067 115.924 104.99 115.72 102.496 115.366" stroke="black" stroke-linecap="round" stroke-linejoin="round"/>
<path d="M59.2991 113.255C59.2991 113.255 55.3352 119.284 55.0262 123.58C54.785 126.903 55.5009 130.701 58.7038 131.41C61.9066 132.118 65.4862 130.701 70.0078 126.888" stroke="black" stroke-linecap="round" stroke-linejoin="round"/>
<path d="M109.022 114.802C109.022 114.802 107.356 122.511 104.395 126.309C101.433 130.107 92.1712 136.392 83.2938 136.392C74.4164 136.392 67.3777 132.24 65.7123 130.484" stroke="black" stroke-linecap="round" stroke-linejoin="round"/>
<path d="M89.2324 114.205C89.2324 114.205 89.3529 119.307 87.9286 120.731C86.5043 122.156 85.6678 120.611 84.1606 120.136C82.6534 119.661 82.141 121.643 82.2616 123.459C82.3821 125.275 82.8569 129.277 82.3821 131.643C81.9074 134.01 81.199 134.138 81.199 135.087V136.037" stroke="black" stroke-linecap="round" stroke-linejoin="round"/>
<path d="M78.0489 135.682C78.2779 134.229 78.3963 132.76 78.4031 131.289C78.2825 130.098 78.9984 127.965 79.4732 126.895C79.9479 125.825 80.3021 122.034 78.8778 121.793C77.4535 121.552 77.9283 124.876 76.1498 124.762C74.3713 124.649 75.5544 122.034 75.5544 122.034C75.5544 122.034 74.0472 122.63 73.4218 122.034" stroke="black" stroke-linecap="round" stroke-linejoin="round"/>
<path d="M62.2685 116.226C62.2685 116.226 60.5955 119.18 63.4517 119.55C66.3078 119.919 67.3704 112.903 67.3704 112.903C67.3704 112.903 68.32 117.176 69.7443 116.821C71.1686 116.467 74.1604 110.137 74.1604 110.137C74.1604 110.137 75.1099 114.41 77.009 113.34C78.9081 112.27 80.3324 107.643 80.3324 107.643C80.3324 107.643 81.5155 110.845 84.4847 110.016C87.4539 109.187 87.8081 103.988 87.8081 103.988C87.8081 103.988 90.6567 106.957 92.5558 106.482C94.4549 106.007 93.9801 101.96 93.9801 101.96" stroke="black" stroke-linecap="round" stroke-linejoin="round"/>
<path d="M104.154 111.476C104.154 111.476 104.862 108.153 102.729 107.919C100.597 107.686 99.4058 111.243 99.4058 111.243C99.4058 111.243 99.8806 108.16 97.6273 108.16C95.3741 108.16 94.0703 111.928 94.0703 111.928C94.0703 111.928 94.0703 108.959 91.2217 109.08C88.3731 109.2 87.303 114.302 87.303 114.302C87.303 114.302 86.2329 111.574 84.4544 111.574C82.6759 111.574 81.2516 117.151 81.2516 117.151" stroke="black" stroke-linecap="round" stroke-linejoin="round"/>
<path d="M75.5543 86.7744C75.5543 86.7744 71.9973 89.8566 68.1992 90.452C64.401 91.0473 59.6609 89.1709 58.2366 87.528" stroke="black" stroke-linecap="round" stroke-linejoin="round"/>
<path d="M90.5057 84.7769C90.5057 84.7769 92.5254 88.6956 96.316 89.404C100.107 90.1124 104.5 87.3843 105.216 86.5554" stroke="black" stroke-linecap="round" stroke-linejoin="round"/>
<path d="M104.628 38.6274C106.407 41.9508 109.022 53.6995 109.73 59.9845" stroke="black" stroke-linecap="round" stroke-linejoin="round"/>
<path d="M80.189 57.1349C80.189 57.1349 76.9033 52.7489 73.3087 51.7918C71.091 51.2268 68.7775 51.1471 66.5262 51.5582C66.5262 51.5582 67.4607 48.8528 71.2287 48.6041L70.7238 45.2129L74.3637 47.3456L74.9892 45.2129C74.9892 45.2129 80.4151 48.3403 80.189 57.1349Z" stroke="black" stroke-linecap="round" stroke-linejoin="round"/>
<path d="M99.6319 49.4868C97.3033 49.7958 95.2384 48.8613 92.7666 50.2404C90.5058 51.5215 87.8983 55.2217 87.8983 55.2217C87.8983 55.2217 89.0815 45.9524 95.1103 42.938L95.6152 45.1988C95.6152 45.1988 99.6319 43.1867 101.139 43.1867L99.6319 46.4498L103.4 47.8289C102.276 48.6433 100.992 49.2086 99.6319 49.4868V49.4868Z" stroke="black" stroke-linecap="round" stroke-linejoin="round"/>
<path d="M82.3219 69.9463C82.1711 64.8445 77.5742 56.6603 68.0863 55.5902C58.5985 54.5201 52.6601 62.237 52.0648 69.238C51.4694 76.2389 57.0461 85.9679 67.0162 85.8172C76.9864 85.6665 82.5555 77.8968 82.3219 69.9463Z" stroke="black" stroke-linecap="round" stroke-linejoin="round"/>
<path d="M85.2909 70.5408C84.6654 63.6228 89.3226 55.3557 99.4134 55.2352C109.504 55.1146 112.662 63.5248 112.941 68.2876C113.07 71.8526 111.863 75.3376 109.558 78.0599C107.252 80.7822 104.014 82.5458 100.476 83.0054C92.0507 84.1885 85.9993 78.3707 85.2909 70.5408Z" stroke="black" stroke-linecap="round" stroke-linejoin="round"/>
<path d="M49.5102 80.624C49.5102 80.624 44.1747 83.8268 43.1046 88.2203C42.0345 92.6138 43.3232 95.7564 46.7822 98.0699C48.3317 99.0756 50.1042 99.6863 51.9444 99.8484" stroke="black" stroke-linecap="round" stroke-linejoin="round"/>
<path d="M111.388 75.5239C111.388 75.5239 111.743 84.8987 111.622 89.0511C111.501 93.2034 110.793 101.388 110.793 101.388" stroke="black" stroke-linecap="round" stroke-linejoin="round"/>
<path d="M111.75 89.3442C111.75 89.3442 117.146 87.0231 117.975 82.283C118.6 78.726 117.741 74.3325 112.873 72.4409" stroke="black" stroke-linecap="round" stroke-linejoin="round"/>
<path d="M105.457 39.6904C104.274 36.1334 90.2196 34.6639 78.4031 36.6081C61.0703 39.4568 52.7806 45.3876 50.1656 47.5278C47.5506 49.6681 48.9749 52.0494 48.9749 52.0494L48.8544 55.8174C47.6335 70.4901 51.3036 97.8986 52.4114 103.875C53.2471 108.637 54.6855 113.274 56.6918 117.673" stroke="black" stroke-linecap="round" stroke-linejoin="round"/>
<path d="M113.174 64.612C121.004 62.8335 149.128 53.9334 147.704 38.2359C146.144 21.0387 118.539 9.51615 100.008 3.70588C76.1494 -3.73217 57.6635 7.19505 45.523 15.1305C25.9294 27.9417 -6.47552 55.7119 3.16305 71.3718C8.98086 80.8521 40.8959 82.0503 49.08 80.626" stroke="black" stroke-linecap="round" stroke-linejoin="round"/>
<path d="M9.58411 52.508C17.0598 43.9621 40.3763 29.5005 72.2386 22.605C99.5265 16.6742 128.246 20.2312 136.295 24.5041C141.69 27.3603 142.7 30.9097 142.7 30.9097" stroke="black" stroke-linecap="round" stroke-linejoin="round"/>
<path d="M28.2883 27.9927C28.2883 27.9927 28.0923 22.8305 33.0812 23.3053" stroke="black" stroke-linecap="round" stroke-linejoin="round"/>
<path d="M48.5381 12.8758C48.5381 12.8758 48.7717 8.84406 52.5699 7.41975C54.7708 6.5654 57.1964 6.48304 59.4502 7.18614" stroke="black" stroke-linecap="round" stroke-linejoin="round"/>
<path d="M108.306 6.22935C108.306 6.22935 110.439 3.8555 114.237 5.27981C118.035 6.70412 117.794 10.0275 117.794 10.0275" stroke="black" stroke-linecap="round" stroke-linejoin="round"/>
<path d="M15.5228 39.2144C15.5228 39.2144 11.4156 40.0509 9.5844 41.5581C6.43434 44.2107 7.68532 48.9434 7.68532 48.9434" stroke="black" stroke-linecap="round" stroke-linejoin="round"/>
<path d="M131.329 16.908C132.057 16.4394 132.923 16.2312 133.785 16.3174C134.647 16.4036 135.455 16.7791 136.076 17.3828C138.45 19.5155 137.026 21.4146 137.026 21.4146" stroke="black" stroke-linecap="round" stroke-linejoin="round"/>
<path d="M91.6965 12.6348C91.6965 11.4215 95.4645 8.36187 98.5769 10.5021C101.689 12.6423 100.001 14.0591 98.3358 15.0237C96.6703 15.9883 91.6965 14.3002 91.6965 12.6348Z" stroke="black" stroke-linecap="round" stroke-linejoin="round"/>
<path d="M51.5899 21.8974C48.696 21.8974 50.6403 15.4918 53.9637 15.9666C57.2871 16.4413 57.9955 18.1068 57.5207 19.2899C57.0459 20.4731 54.1973 21.8974 51.5899 21.8974Z" stroke="black" stroke-linecap="round" stroke-linejoin="round"/>
<path d="M71.2889 9.07799C71.2889 7.36732 77.2198 2.43123 80.0684 4.3303C82.917 6.22938 82.6759 9.07799 79.5936 10.2611C76.5114 11.4443 71.2889 11.9266 71.2889 9.07799Z" stroke="black" stroke-linecap="round" stroke-linejoin="round"/>
<path d="M106.407 42.0635C106.407 42.0635 128.005 46.0952 143.898 43.4878" stroke="black" stroke-linecap="round" stroke-linejoin="round"/>
<path d="M97.6276 35.6569C97.6276 35.6569 108.072 27.3672 109.022 19.7559" stroke="black" stroke-linecap="round" stroke-linejoin="round"/>
<path d="M104.749 19.9976C104.749 19.9976 99.2929 31.1509 95.4948 35.4238" stroke="black" stroke-linecap="round" stroke-linejoin="round"/>
<path d="M46.8799 29.8916C46.8799 29.8916 55.6217 38.7389 64.8759 39.2137" stroke="black" stroke-linecap="round" stroke-linejoin="round"/>
<path d="M48.5377 59.644C41.9105 64.2919 34.3966 67.5242 26.4648 69.1394C20.1958 70.3578 13.8297 71.0085 7.44385 71.0837" stroke="black" stroke-linecap="round" stroke-linejoin="round"/>
<path d="M107.597 46.335C107.597 46.335 122.669 51.8136 138.819 48.7314" stroke="black" stroke-linecap="round" stroke-linejoin="round"/>
<path d="M107.831 48.2354C107.831 48.2354 122.541 54.641 133.22 55.1157" stroke="black" stroke-linecap="round" stroke-linejoin="round"/>
<path d="M125.631 22.1299C125.631 22.1299 115.428 33.758 104.749 37.5561" stroke="black" stroke-linecap="round" stroke-linejoin="round"/>
<path d="M19.3129 44.4365C19.3129 44.4365 28.5746 51.0833 48.5375 49.659" stroke="black" stroke-linecap="round" stroke-linejoin="round"/>
<path d="M4.60278 60.5702C10.1715 61.8986 15.9855 61.8001 21.5061 60.2838C23.3147 59.8015 25.7941 58.5882 28.1604 58.1511C30.5267 57.714 33.2924 58.7842 35.8245 58.3998C41.6272 57.5181 44.3477 55.3854 45.3726 55.1367" stroke="black" stroke-linecap="round" stroke-linejoin="round"/>
<path d="M30.233 78.614C30.233 78.614 44.4686 73.6252 48.538 66.27" stroke="black" stroke-linecap="round" stroke-linejoin="round"/>
<path d="M88.9532 21.7222C88.9532 21.7222 88.8477 30.4338 87.657 35.4151" stroke="black" stroke-linecap="round" stroke-linejoin="round"/>
<path d="M74.16 22.605C74.16 22.605 75.8255 31.6482 78.433 36.6069" stroke="black" stroke-linecap="round" stroke-linejoin="round"/>
<path d="M32.1919 37.729C32.1919 37.729 42.991 44.9108 53.7298 44.8505" stroke="black" stroke-linecap="round" stroke-linejoin="round"/>
<path d="M142.896 38.6271C140.402 39.1622 138.804 37.022 136.664 37.022C134.524 37.022 132.188 39.215 130.439 39.2979C127.772 39.4787 124.742 38.0544 121.893 38.5895C119.045 39.1245 117.266 40.368 113.883 40.368C111.025 40.392 108.169 40.2132 105.337 39.8329" stroke="black" stroke-linecap="round" stroke-linejoin="round"/>
<path d="M4.60278 66.2086C6.38128 66.9169 8.87571 65.1384 10.8351 65.1384C12.7944 65.1384 14.7538 67.0978 16.7056 66.9169C18.6575 66.7361 20.7977 64.4225 22.5762 64.2492C24.3547 64.0759 29.1627 64.9576 31.6194 64.2492C34.0761 63.5408 36.6007 61.2348 37.8517 60.8655C39.1027 60.4963 42.1322 60.0064 43.3681 59.6221C45.2389 58.9761 47.0039 58.0568 48.6056 56.894" stroke="black" stroke-linecap="round" stroke-linejoin="round"/>
<path d="M38.0625 34.5269C38.4318 35.4161 41.1749 34.5269 42.2751 35.597C43.3754 36.6671 42.456 38.2647 43.7371 39.154C45.0182 40.0432 47.7614 39.3348 48.6808 39.689C49.6001 40.0432 50.3311 41.8217 51.4239 42.1835C53.3008 42.8463 55.3134 43.0302 57.2793 42.7185" stroke="black" stroke-linecap="round" stroke-linejoin="round"/>
<path d="M108.721 52.8618C109.661 53.8934 110.739 54.791 111.923 55.5296C113.529 56.4188 114.772 55.7104 115.842 56.0646C116.912 56.4188 117.447 58.3782 118.857 58.7324C120.266 59.0866 121.705 58.3782 122.949 58.7324" stroke="black" stroke-linecap="round" stroke-linejoin="round"/>
<path d="M90.6716 80.3152C91.4662 79.7229 92.4394 79.4198 93.4298 79.4561C94.6356 79.4561 95.6906 79.6294 96.4442 79.539C97.9062 79.3657 98.2529 78.6799 99.9786 78.3332C100.79 78.1691 101.632 78.2586 102.39 78.5894C103.645 77.8346 104.996 77.2516 106.407 76.8562C107.519 76.7583 108.639 76.9316 109.67 77.3611" stroke="black" stroke-linecap="round" stroke-linejoin="round"/>
<path d="M57.6261 81.0012C57.6261 81.0012 59.0052 79.916 60.2637 80.4586C61.5222 81.0012 62.2155 82.6289 63.7077 82.6289C65.1998 82.6289 66.2322 81.815 67.3777 82.0863C68.5232 82.3576 69.6385 83.0359 71.0477 83.3072C72.8715 83.6689 74.0621 82.3576 75.5241 82.6289" stroke="black" stroke-linecap="round" stroke-linejoin="round"/>
<path d="M49.3896 78.997C43.7054 79.4217 38.0028 79.5474 32.3055 79.3738C26.1259 79.0573 19.2455 78.1153 13.8422 76.2313C8.4389 74.3473 6.33635 72.7195 4.30162 69.0796C2.96775 66.6681 3.54802 63.2995 5.68071 58.7779C6.66037 56.9896 7.75279 55.2654 8.95135 53.6157" stroke="black" stroke-linecap="round" stroke-linejoin="round"/>
<path d="M111.84 63.0503C111.84 63.0503 118.374 61.0382 122.519 59.4104C125.413 58.2725 134.185 54.4743 138.593 50.8721C139.985 49.7694 141.145 48.403 142.008 46.8512C142.87 45.2995 143.418 43.5927 143.62 41.8289C144.245 37.0586 143.748 34.2928 143.371 32.7856" stroke="black" stroke-linecap="round" stroke-linejoin="round"/>
<path d="M64.0846 97.0825C64.0846 97.0825 61.1983 100.338 63.0823 101.092C64.9663 101.845 64.5895 99.3433 64.0846 97.0825Z" stroke="black" stroke-linecap="round" stroke-linejoin="round"/>
<path d="M115.895 114.936C115.895 114.936 113.747 117.784 114.915 118.922C116.083 120.06 118.548 117.777 115.895 114.936Z" stroke="black" stroke-linecap="round" stroke-linejoin="round"/>
<path d="M96.6926 139.202C96.6926 139.202 95.4416 143.581 97.3106 143.807C99.1795 144.033 98.8554 140.589 96.6926 139.202Z" stroke="black" stroke-linecap="round" stroke-linejoin="round"/>
<path d="M72.4421 122.268C72.4421 122.268 72.0653 118.5 70.5581 119.352C69.0509 120.203 68.1315 124.906 68.1315 124.906" stroke="black" stroke-linecap="round" stroke-linejoin="round"/>
<path d="M94.5077 69.5167C94.8845 68.3863 96.7685 69.3283 97.8989 68.5747C99.0293 67.8211 98.2757 66.3139 99.7829 65.7487C101.29 65.1835 101.667 66.6907 102.609 66.5023" stroke="black" stroke-linecap="round" stroke-linejoin="round"/>
</svg>
