<svg width="116" height="110" viewBox="0 0 116 110" fill="none" xmlns="http://www.w3.org/2000/svg">
<path d="M12.6606 59.2502C12.6606 59.2502 16.2402 56.801 17.2802 55.859C18.3202 54.917 22.7438 49.0766 22.7438 49.0766L26.7906 42.2113C26.7906 42.2113 29.5262 36.7477 30.1819 34.8637L32.6311 27.8929C32.6311 27.8929 34.8014 22.1504 35.4571 21.1105L37.439 22.7156L39.9787 18.6688L43.9351 14.328L40.7323 13.0092C41.4816 12.003 42.4088 11.1422 43.4679 10.4696C44.8771 9.716 47.6127 7.54563 50.7175 7.2668C53.8223 6.98796 56.1811 6.13639 59.7607 6.79956C61.6955 6.06896 63.7265 5.62467 65.7895 5.48076C69.0392 5.25886 72.3035 5.41057 75.5185 5.93292C77.5909 6.30972 81.4494 8.28416 83.4314 9.51253C85.7319 11.1664 87.7913 13.132 89.5506 15.3529C90.8168 17.1721 91.9213 19.0986 92.8514 21.1105C93.4166 22.6177 94.3586 28.0813 94.7354 29.7769C95.1122 31.4725 97.373 41.3673 97.9382 42.8745C98.5034 44.3817 99.8222 50.4105 100.576 51.6389C101.329 52.8672 103.492 57.3888 105.286 59.5517C107.079 61.7145 111.503 68.4065 112.068 69.2581C113.186 71.3074 114.192 73.4156 115.083 75.5732C115.459 76.6057 115.55 77.5477 113.854 78.8665C112.698 79.7117 111.387 80.3212 109.996 80.6601C109.996 80.6601 111.691 83.3956 111.691 84.4281C111.691 85.4605 113.01 87.352 111.691 89.7033C110.373 92.0545 106.793 94.3229 105.663 94.6997C104.532 95.0765 100.199 96.4932 97.8402 96.2069C95.4814 95.9205 91.721 95.928 89.5506 94.986C87.3802 94.044 84.5618 92.6348 82.7682 89.2436L46.1281 86.2819C46.1281 86.2819 46.0301 90.8035 46.0301 91.6551C45.8604 94.0907 45.5459 96.5141 45.0881 98.9123C44.7113 100.42 43.3925 104.097 41.7949 105.506C40.1972 106.916 37.9289 108.995 33.9725 108.807C30.0161 108.619 27.4764 106.267 26.346 105.416C25.2156 104.564 22.48 101.459 22.2012 100.141C21.9224 98.8219 20.3172 94.2023 20.3172 94.2023C20.3172 94.2023 14.8536 93.4487 12.4948 92.2279C10.136 91.007 7.40801 90.4418 5.24517 86.9526C3.08234 83.4635 3.8284 82.7174 4.67997 80.4566C5.53154 78.1958 7.88278 73.2974 9.29202 71.8881C9.29202 71.8881 5.71241 72.7397 3.4516 71.8881C1.1908 71.0366 0.813994 69.4389 1.47716 68.1201C2.14033 66.8013 4.582 64.5405 5.90081 63.5985C7.21961 62.6565 12.6606 59.2502 12.6606 59.2502Z" fill="#3A3A3D"/>
<path d="M49.6852 89.6885L46.1282 86.2822L46.5954 75.2646C46.5954 75.2646 46.505 64.7141 46.6934 60.8557C46.8818 56.9973 46.9722 51.6241 47.1606 48.7981C47.349 45.9721 48.7658 37.8708 49.331 36.4616C49.8962 35.0524 52.2474 27.7952 53.1894 26.0996C54.6459 23.7485 56.3186 21.5384 58.1858 19.498C59.1278 18.654 62.421 17.1468 64.4935 16.5816C67.8065 15.8159 71.1806 15.3443 74.5766 15.1724C76.9279 15.1724 82.3915 17.1543 83.8083 18.0963C85.225 19.0383 88.7067 22.9043 90.0255 27.1396C91.2022 31.1701 92.1756 35.2573 92.9419 39.3856C93.3187 41.458 93.6955 51.6316 93.6955 53.802C93.6955 55.9724 93.4167 65.9576 92.4747 70.2908C91.4278 74.6635 89.8697 78.8978 87.8325 82.9061C86.6117 84.9785 82.5573 90.0653 80.206 91.1053C77.8548 92.1452 74.1772 94.0292 69.2788 94.2176C65.3115 94.3007 61.3452 94.0106 57.4322 93.351C54.8624 92.9742 49.6852 89.6885 49.6852 89.6885Z" fill="#F8C2A0"/>
<path d="M54.0334 69.7705C58.2762 66.417 65.0209 70.9612 69.6103 71.5565C74.1998 72.1519 79.1811 68.399 81.9995 71.225C84.818 74.051 81.6604 79.8537 74.2374 82.0844C66.8145 84.315 57.3342 82.4913 53.6114 77.7285C51.8178 75.4301 51.3506 71.8957 54.0334 69.7705Z" fill="#DA4F4D"/>
<path d="M65.3223 83.0801C65.3223 83.0801 65.978 81.0077 67.3947 80.1636L69.4671 80.2616C70.6632 80.368 71.8684 80.3045 73.0467 80.0732C73.531 79.8939 73.9597 79.5908 74.2903 79.1941C74.6209 78.7974 74.8417 78.321 74.9307 77.8124C74.9307 77.0588 72.6699 76.3052 71.2532 76.3052C69.8364 76.3052 64.5687 76.7799 64.5687 76.7799C63.0843 76.8592 61.6051 77.0177 60.1375 77.2547C58.9167 77.5411 57.0327 79.3271 56.8443 80.3671C57.9938 81.1036 59.2255 81.703 60.5143 82.1531C62.0857 82.6068 63.6949 82.9171 65.3223 83.0801Z" fill="#FF0000"/>
<path d="M43.9351 14.3281C43.9351 14.3281 39.5114 12.5421 37.5294 11.8789C35.5475 11.2157 32.3522 8.29931 32.3522 8.29931C32.3522 8.29931 30.9354 6.51327 30.3702 6.41531C29.805 6.31734 29.4282 7.63614 29.4282 8.77408C29.6305 10.9767 30.1799 13.1336 31.056 15.1646C31.9634 16.8595 33.0689 18.4405 34.3492 19.8746L37.4616 22.7006L40.3781 18.277L43.9351 14.3281Z" fill="#FF0000"/>
<path d="M83.876 9.70079C83.876 9.70079 87.0788 8.09562 88.1188 7.53041C89.282 6.69393 90.3621 5.74757 91.3442 4.70441C92.0542 3.54454 92.7056 2.34984 93.2961 1.1248C93.2961 0.845967 94.2381 1.03437 94.5244 1.69C95.3879 3.53943 95.6818 5.60394 95.3685 7.62085C94.9012 10.7332 92.0752 15.6316 90.4701 16.6641C89.6256 15.3142 88.6486 14.052 87.5536 12.8961C86.2348 11.6752 83.876 9.70079 83.876 9.70079Z" fill="#FF0000"/>
<path d="M56.5881 38.3379C63.5739 34.7734 68.4422 39.393 69.6103 43.5528C70.7784 47.7127 70.8613 53.0558 66.4829 56.3641C62.7148 59.175 55.9324 58.6249 53.0009 54.1033C50.3784 50.0112 50.8305 41.277 56.5881 38.3379Z" fill="white"/>
<path d="M76.7242 39.6653C79.0604 36.455 83.7177 34.3223 88.7442 38.339C91.2688 40.3586 92.8815 47.1561 90.8241 50.9995C89.3169 53.7727 83.793 56.5761 79.5879 53.4487C77.7793 52.1299 72.6171 45.3173 76.7242 39.6653Z" fill="white"/>
<path d="M77.1538 70.614C77.1538 70.614 76.5283 72.9501 75.2397 73.553C73.951 74.1559 73.416 71.5108 73.416 71.5108C73.416 71.5108 71.7505 74.8643 69.8891 74.1785C69.637 74.0937 69.4047 73.9586 69.2063 73.7814C69.0079 73.6043 68.8475 73.3887 68.7348 73.1478C68.6221 72.9069 68.5594 72.6456 68.5506 72.3798C68.5417 72.1139 68.5869 71.8491 68.6833 71.6012C68.6833 71.6012 67.3344 73.5681 65.2469 73.1084C63.1594 72.6487 64.742 70.629 64.742 70.629C64.742 70.629 62.3757 73.6435 60.9363 72.9426C59.4969 72.2418 60.7404 69.3479 60.7404 69.3479C60.7404 69.3479 58.5248 71.6087 57.3868 71.5484C56.2489 71.4882 56.8367 68.9937 56.8367 68.9937C57.4713 68.7561 58.1516 68.6659 58.8262 68.73C60.1553 68.8377 61.4621 69.1346 62.7073 69.6117C64.1868 70.1681 65.6964 70.6411 67.2289 71.0285C68.6071 71.4446 70.033 71.6827 71.4717 71.7368C73.0467 71.7293 77.1538 70.614 77.1538 70.614Z" fill="white"/>
<path d="M84.3734 44.7959L84.9009 47.1622" stroke="black" stroke-linecap="round" stroke-linejoin="round"/>
<path d="M83.371 46.2651L85.564 45.9185" stroke="black" stroke-linecap="round" stroke-linejoin="round"/>
<path d="M83.7404 45.3081L85.6178 46.7331" stroke="black" stroke-linecap="round" stroke-linejoin="round"/>
<path d="M83.8835 47.1556L85.3531 45.0605" stroke="black" stroke-linecap="round" stroke-linejoin="round"/>
<path d="M60.7328 46.6807L61.2528 49.0394" stroke="black" stroke-linecap="round" stroke-linejoin="round"/>
<path d="M59.7231 48.1423L61.9236 47.8032" stroke="black" stroke-linecap="round" stroke-linejoin="round"/>
<path d="M60.0999 47.1938L61.9697 48.6189" stroke="black" stroke-linecap="round" stroke-linejoin="round"/>
<path d="M60.2355 49.0396L61.7051 46.937" stroke="black" stroke-linecap="round" stroke-linejoin="round"/>
<path d="M46.1282 85.8371C46.1282 85.8371 50.7477 93.7349 64.0714 94.2775C76.7621 94.7899 83.2431 90.7657 88.0134 82.6494C92.7837 74.5331 94.3285 62.694 93.7181 49.815C93.1077 36.9359 90.4852 24.1925 85.3305 19.4674C78.7516 13.4386 70.2585 15.6994 70.2585 15.6994" stroke="black" stroke-linecap="round" stroke-linejoin="round"/>
<path d="M35.6153 21.1104C32.2316 27.4707 30.5586 35.4288 27.3257 41.3747C23.6029 48.1571 18.4935 55.972 13.6855 58.6473C8.87749 61.3225 -0.128049 66.8691 1.47712 70.2904C3.08229 73.7118 9.48037 71.7976 9.48037 71.7976" stroke="black" stroke-linecap="round" stroke-linejoin="round"/>
<path d="M70.4092 15.6018C71.4491 12.919 62.9334 6.11396 56.9574 6.5209C51.9459 6.85249 46.2562 7.16146 40.8529 12.821" stroke="black" stroke-linecap="round" stroke-linejoin="round"/>
<path d="M11.583 69.1074C11.583 69.1074 4.36346 76.8771 3.92638 83.2676C3.48929 89.6582 15.7428 94.2099 20.2343 93.9989C20.2343 93.9989 21.3873 103.796 29.9708 107.616C38.5544 111.437 44.0933 104.745 45.1785 98.5733C46.2637 92.4013 46.6857 70.3735 46.633 62.2421C46.5802 54.1108 46.7083 32.0981 57.3718 20.3042C61.072 16.2121 70.4016 15.5791 70.4016 15.5791" stroke="black" stroke-linecap="round" stroke-linejoin="round"/>
<path d="M59.9643 6.46733C59.9643 6.46733 67.8168 4.04074 75.8879 6.09807C83.959 8.1554 92.0753 15.6462 93.688 24.1845C95.3007 32.7228 97.5841 44.5318 101.345 53.4167C102.905 57.1169 113.478 69.4684 115.105 75.6028C116.077 79.2653 110.84 80.3203 110.84 80.3203" stroke="black" stroke-linecap="round" stroke-linejoin="round"/>
<path d="M106.665 74.3447C106.665 74.3447 112.37 83.1619 112.264 87.3971C112.159 91.6323 105.256 96.3273 98.0737 96.1464C90.6734 95.9656 85.7976 94.2775 83.1449 89.6127" stroke="black" stroke-linecap="round" stroke-linejoin="round"/>
<path d="M54.1613 69.898C58.4041 66.5444 65.1488 71.0886 69.7383 71.684C74.3277 72.2793 79.309 68.5264 82.1275 71.3524C84.9459 74.1784 81.7883 79.9811 74.3654 82.2118C66.9424 84.4425 57.4621 82.6188 53.7393 77.856C51.9457 75.5575 51.4785 72.0231 54.1613 69.898Z" stroke="black" stroke-linecap="round" stroke-linejoin="round"/>
<path d="M76.0913 48.7905C76.0913 48.7905 81.1103 58.7908 81.5926 61.0516C82.0749 63.3124 74.8102 62.9808 74.8102 62.9808" stroke="black" stroke-linecap="round" stroke-linejoin="round"/>
<path d="M56.5881 38.4429C63.5739 34.8784 68.4422 39.4979 69.6103 43.6578C70.7784 47.8177 70.8613 53.1607 66.4829 56.4691C62.7148 59.28 55.9324 58.7299 53.0009 54.2083C50.3784 50.1388 50.8305 41.397 56.5881 38.4429Z" stroke="black" stroke-linecap="round" stroke-linejoin="round"/>
<path d="M76.7242 39.7854C79.0604 36.5751 83.7177 34.4424 88.7442 38.4591C91.2688 40.4787 92.8815 47.2762 90.8241 51.1196C89.3169 53.8928 83.793 56.6962 79.5879 53.5688C77.7793 52.2575 72.6171 45.445 76.7242 39.7854Z" stroke="black" stroke-linecap="round" stroke-linejoin="round"/>
<path d="M77.2895 70.5694C77.2895 70.5694 76.664 72.9055 75.3753 73.5084C74.0867 74.1113 73.5516 71.4662 73.5516 71.4662C73.5516 71.4662 71.9088 74.8197 70.0248 74.1415C69.7736 74.0565 69.5422 73.9217 69.3444 73.7451C69.1467 73.5685 68.9867 73.3537 68.874 73.1136C68.7614 72.8736 68.6985 72.6133 68.689 72.3483C68.6796 72.0833 68.7238 71.8191 68.819 71.5717C68.819 71.5717 67.4701 73.5386 65.3826 73.0789C63.2951 72.6192 64.8777 70.5995 64.8777 70.5995C64.8777 70.5995 62.5114 73.6139 61.072 72.9131C59.6326 72.2122 60.8761 69.341 60.8761 69.341C60.8761 69.341 58.6605 71.6018 57.5225 71.5415C56.3846 71.4812 56.9724 68.9868 56.9724 68.9868" stroke="black" stroke-linecap="round" stroke-linejoin="round"/>
<path d="M56.8596 80.3138C56.8596 80.3138 58.1784 77.1109 61.547 76.9376C64.9156 76.7643 70.2134 75.6942 73.0168 76.493C75.8202 77.2918 75.4434 79.8239 72.3235 80.1932C69.2036 80.5624 64.5388 79.2964 64.5388 79.2964" stroke="black" stroke-linecap="round" stroke-linejoin="round"/>
<path d="M65.4127 82.9053C65.4127 82.9053 66.6712 80.1546 67.5605 80.0566" stroke="black" stroke-linecap="round" stroke-linejoin="round"/>
<path d="M37.4616 22.6702C30.7847 17.1312 29.9935 12.7227 29.7146 10.6126C29.4584 8.68336 29.2625 4.72695 31.7192 7.42484C36.7457 12.9487 43.9954 14.2073 43.9954 14.2073" stroke="black" stroke-linecap="round" stroke-linejoin="round"/>
<path d="M83.8082 9.68616C86.3025 8.81455 88.5743 7.40461 90.4625 5.55642C92.7233 3.16751 93.183 1.03481 93.6503 1.14785C95.3609 1.50205 96.1145 5.93323 94.7204 10.1911C93.6578 13.4316 90.6283 16.4008 90.6283 16.4008" stroke="black" stroke-linecap="round" stroke-linejoin="round"/>
<path d="M67.9825 31.1342C66.2568 26.6729 60.0998 28.1198 57.4773 31.4658" stroke="black" stroke-linecap="round" stroke-linejoin="round"/>
<path d="M76.4152 30.4477C76.4152 30.4477 77.1688 27.3504 81.3438 26.853C84.0191 26.5365 86.1894 29.5962 86.1894 29.5962" stroke="black" stroke-linecap="round" stroke-linejoin="round"/>
<path d="M44.8243 13.5215C43.2919 14.9463 41.8592 16.4747 40.5363 18.0958C39.0999 19.8742 37.911 21.8388 37.0019 23.9363" stroke="black" stroke-linecap="round" stroke-linejoin="round"/>
</svg>
