<svg width="79" height="108" viewBox="0 0 79 108" fill="none" xmlns="http://www.w3.org/2000/svg">
<path d="M54.3389 6.75747C52.9859 4.65844 48.9048 1.08934 44.0412 1.00158C39.1776 0.913811 33.5972 4.50485 31.1471 8.46888C28.697 12.4329 26.0933 24.0837 25.4131 29.2033C24.733 34.3229 23.848 44.0721 23.3068 47.2755C22.7656 50.4789 24.5501 76.1281 25.3619 80.3262C26.1738 84.5243 31.7907 101.097 39.8651 104.688C47.9394 108.279 51.7279 106.151 54.8582 104.827C57.9884 103.503 60.9139 94.9171 60.5629 92.2695C60.2118 89.6219 59.8754 77.43 59.5243 75.7186C59.1733 74.0071 55.9772 58.897 56.3867 57.0978C56.7963 55.2986 56.7085 41.7902 56.8109 40.8979C56.9133 40.0057 57.6959 29.8542 57.5423 28.1574C57.3887 26.4606 57.4838 18.357 57.1254 14.6417C56.735 11.8533 55.7873 9.17197 54.3389 6.75747Z" fill="#368C46"/>
<path d="M46.5717 28.033C48.6488 28.7643 51.1793 26.2191 52.898 26.6653C54.6168 27.1114 56.0356 29.503 53.2345 32.0994C50.4333 34.6958 48.2099 35.0541 45.811 35.0541C43.4121 35.0541 39.1556 33.745 37.3637 32.3407C35.1696 30.5854 34.9867 27.2577 36.7493 26.1753C38.5119 25.0928 40.0259 25.4439 41.6788 25.9705C43.3317 26.4971 44.8091 27.4186 46.5717 28.033Z" fill="#682527"/>
<path d="M35.25 91.2674C36.6031 92.0646 37.393 88.7076 35.762 88.5979C34.131 88.4882 33.3631 90.1557 35.25 91.2674Z" fill="#48AB53"/>
<path d="M31.0958 64.836C31.8272 64.7921 31.542 61.9105 30.1085 62.5541C28.675 63.1977 29.7794 64.9092 31.0958 64.836Z" fill="#48AB53"/>
<path d="M53.6075 80.6552C54.9971 80.7503 53.5197 77.2031 52.6201 78.3733C52.4567 78.5718 52.3513 78.8114 52.3153 79.066C52.2794 79.3205 52.3144 79.58 52.4165 79.816C52.5186 80.0519 52.6838 80.2551 52.8939 80.4031C53.1041 80.5512 53.351 80.6384 53.6075 80.6552Z" fill="#48AB53"/>
<path d="M36.5519 47.6703C37.3637 48.6796 38.746 46.4269 37.6636 45.7833C36.5812 45.1397 35.5646 46.4562 36.5519 47.6703Z" fill="#48AB53"/>
<path d="M53.2931 20.5508C53.5389 20.0449 53.6707 19.4913 53.6794 18.9289C53.688 18.3665 53.5732 17.8091 53.3431 17.2959C53.113 16.7827 52.7732 16.3261 52.3475 15.9585C51.9219 15.5908 51.4208 15.321 50.8796 15.1679C49.8866 14.887 48.8272 14.9561 47.879 15.3635C46.9309 15.771 46.1517 16.4921 45.6722 17.4059C45.1164 18.3494 45.6722 20.7264 47.135 21.7942C47.6155 22.1332 48.1602 22.3705 48.7357 22.4917C49.3112 22.6129 49.9054 22.6154 50.4818 22.499C51.0583 22.3826 51.605 22.1498 52.0884 21.8148C52.5717 21.4798 52.9817 21.0497 53.2931 20.5508Z" fill="#FFFFFE"/>
<path d="M43.6902 15.161C41.6496 13.8446 39.6164 13.4935 38.161 15.3073C36.8445 16.9383 35.6377 20.1856 38.2634 21.7361C40.889 23.2866 42.3225 23.25 44.1144 21.2388C44.9627 20.3245 46.2938 16.8725 43.6902 15.161Z" fill="#FFFFFE"/>
<path d="M43.9607 31.0245C44.3264 30.6807 43.0392 29.3496 41.9494 28.9181C40.8597 28.4866 38.1097 29.5544 37.7733 29.9932C37.3419 30.4007 36.8481 30.7365 36.3105 30.9879C36.3105 30.9879 37.1516 32.6847 37.8537 32.8163L40.7134 30.8855C40.7134 30.8855 43.3171 31.6388 43.9607 31.0245Z" fill="#FF0000"/>
<path d="M39.2507 33.555C39.2507 33.555 39.7846 32.5969 40.5013 32.8236C41.2181 33.0503 41.3058 34.2205 41.3058 34.2205C41.3058 34.2205 41.7958 33.0284 42.3736 33.0138C42.9514 32.9991 43.595 34.6594 43.595 34.6594C43.595 34.6594 43.5219 33.3429 44.4434 33.4599C45.3649 33.5769 45.6941 35.186 45.6941 35.186C45.6941 35.186 45.6941 33.2259 46.7326 33.182C47.7712 33.1381 48.0564 35.0251 48.0564 35.0251C48.0564 35.0251 48.0564 32.7578 48.4879 32.7359C48.9194 32.7139 50.053 34.1547 50.053 34.1547C50.053 34.1547 49.6362 32.692 50.3822 32.5091C51.1282 32.3263 51.6767 33.1966 51.6767 33.1966C50.8985 33.7126 50.0901 34.1815 49.2558 34.6009C47.6986 34.9326 46.1085 35.0847 44.5166 35.0543C43.1196 35.0909 39.7626 33.6647 39.2507 33.555Z" fill="white"/>
<path d="M52.3422 26.7678C52.3959 26.9599 52.392 27.1635 52.3309 27.3534C52.2698 27.5433 52.1542 27.711 51.9984 27.8356C51.4499 28.2891 50.5357 27.2432 50.5357 27.2432C50.5357 27.2432 51.2159 28.4938 50.3894 28.9253C49.563 29.3569 48.678 27.9892 48.678 27.9892C48.678 27.9892 48.678 29.3276 47.9466 29.4519C47.2153 29.5763 46.6594 28.2671 46.6594 28.2671C46.6594 28.2671 46.323 29.5543 45.46 29.4666C44.5969 29.3788 44.7286 27.6089 44.7286 27.6089C44.7286 27.6089 44.2898 28.8376 43.2658 28.3841C42.2419 27.9307 42.8563 26.7971 42.8563 26.7971C42.8563 26.7971 41.5764 27.5284 41.0717 27.3017C40.5671 27.075 40.6183 25.9048 40.6183 25.9048L41.8543 26.0876C41.8543 26.0876 45.065 27.6601 45.9427 27.9673C47.1414 28.2551 48.4028 28.1181 49.5118 27.5796C50.1627 27.0969 52.3422 26.7678 52.3422 26.7678Z" fill="white"/>
<path d="M51.6182 11.5554C52.803 11.826 52.9054 10.334 51.1794 9.17847C49.0339 7.9747 46.6029 7.37327 44.1436 7.4378C42.2848 7.69696 40.5403 8.48671 39.119 9.71237C38.1463 10.7655 38.9143 11.5042 40.004 11.0873C40.516 10.8899 43.5365 9.77819 45.5844 9.77819C47.6322 9.77819 49.9507 11.1678 51.6182 11.5554Z" fill="#9AD8D7"/>
<path d="M53.2418 20.4266C54.529 17.9326 52.803 15.8775 51.0477 15.307C50.0759 14.9661 49.0151 14.9778 48.0511 15.3401C47.0871 15.7025 46.2812 16.3924 45.7745 17.289C45.2187 18.2325 45.599 20.4851 47.0617 21.5822C49.0291 23.0815 52.2325 22.3867 53.2418 20.4266Z" stroke="black" stroke-linecap="round" stroke-linejoin="round"/>
<path d="M43.6682 15.0732C41.6276 13.7347 39.514 13.6104 38.1756 15.512C36.8372 17.4136 35.7035 19.9514 38.2414 21.6336C40.121 22.8842 42.3005 23.1475 44.0924 21.1362C44.9408 20.244 46.2718 16.7699 43.6682 15.0732Z" stroke="black" stroke-linecap="round" stroke-linejoin="round"/>
<path d="M41.9787 18.1816L41.4814 19.0227L40.9987 18.167L42.0884 18.9569" stroke="black" stroke-linecap="round" stroke-linejoin="round"/>
<path d="M50.7844 18.8472L50.4114 19.4761L50.96 19.5127L50.1189 19.0154" stroke="black" stroke-linecap="round" stroke-linejoin="round"/>
<path d="M51.567 11.5261C52.7518 11.7967 52.8542 10.3047 51.1282 9.14917C48.9827 7.9454 46.5517 7.34397 44.0924 7.40851C42.2362 7.66902 40.4944 8.45869 39.0752 9.68307C38.1024 10.7362 38.8704 11.4749 39.9601 11.0581C40.4721 10.8606 43.4927 9.7489 45.5405 9.7489C47.5883 9.7489 49.8995 11.1385 51.567 11.5261Z" stroke="black" stroke-linecap="round" stroke-linejoin="round"/>
<path d="M46.2206 20.8291C46.2206 20.8291 48.7073 25.9487 47.0398 26.4022C45.3722 26.8556 44.4288 23.8716 44.4288 23.8716" stroke="black" stroke-linecap="round" stroke-linejoin="round"/>
<path d="M36.8517 22.7964C36.8517 22.7964 38.2194 24.3103 41.0864 24.0178" stroke="black" stroke-linecap="round" stroke-linejoin="round"/>
<path d="M49.7385 24.4565C49.7385 24.4565 53.5782 24.6686 55.1141 26.1387C56.65 27.6088 57.023 30.5854 55.0556 32.9624C53.6522 34.5669 51.8283 35.7474 49.7897 36.3706" stroke="black" stroke-linecap="round" stroke-linejoin="round"/>
<path d="M36.1496 24.5811C35.5334 24.8985 34.993 25.345 34.5651 25.8903C34.1373 26.4355 33.832 27.0666 33.6702 27.7406C33.246 29.8981 34.3504 32.1288 37.0419 34.2571" stroke="black" stroke-linecap="round" stroke-linejoin="round"/>
<path d="M46.4839 28.055C48.561 28.7863 51.0915 26.2412 52.8103 26.6873C54.529 27.1334 55.9479 29.525 53.1467 32.1214C50.3455 34.7178 48.1295 35.1054 45.7233 35.1054C43.3171 35.1054 39.0678 33.7962 37.2759 32.392C35.0818 30.6367 34.899 27.309 36.6616 26.2265C38.4242 25.1441 39.9381 25.4952 41.591 26.0218C43.2439 26.5483 44.7286 27.4406 46.4839 28.055Z" stroke="black" stroke-linecap="round" stroke-linejoin="round"/>
<path d="M36.3471 31.2077C36.3471 31.2077 39.0532 28.7722 40.7792 28.7283C42.5053 28.6845 44.5165 30.4544 43.9534 31.0249C43.6023 31.3832 41.4228 31.2296 40.355 30.5275" stroke="black" stroke-linecap="round" stroke-linejoin="round"/>
<path d="M38.139 32.6187L40.7354 30.9658" stroke="black" stroke-linecap="round" stroke-linejoin="round"/>
<path d="M51.706 33.1166C51.706 33.1166 51.1648 32.2317 50.4115 32.4291C49.6581 32.6266 50.0823 34.0747 50.0823 34.0747C50.0823 34.0747 48.9487 32.612 48.5172 32.6559C48.0857 32.6997 48.0857 34.945 48.0857 34.945C48.0857 34.945 47.7785 33.0654 46.7619 33.102C45.7453 33.1386 45.7234 35.1059 45.7234 35.1059C45.7234 35.1059 45.3942 33.5042 44.4727 33.3799C43.5512 33.2556 43.6243 34.5794 43.6243 34.5794C43.6243 34.5794 42.9734 32.9191 42.3956 32.9338C41.8178 32.9484 41.3278 34.1405 41.3278 34.1405C41.3278 34.1405 41.2474 32.963 40.5233 32.7436C40.3168 32.6904 40.098 32.7155 39.9089 32.8141C39.7198 32.9127 39.574 33.0778 39.4994 33.2775" stroke="black" stroke-linecap="round" stroke-linejoin="round"/>
<path d="M52.3715 26.7165C52.4245 26.9093 52.4194 27.1134 52.357 27.3034C52.2945 27.4933 52.1775 27.6606 52.0205 27.7843C51.4719 28.2378 50.5577 27.1919 50.5577 27.1919C50.5577 27.1919 51.2379 28.4426 50.4114 28.8741C49.585 29.3056 48.7 27.9379 48.7 27.9379C48.7 27.9379 48.7 29.2763 47.9687 29.4007C47.2373 29.525 46.6814 28.2159 46.6814 28.2159C46.6814 28.2159 46.345 29.5031 45.482 29.4153C44.619 29.3275 44.7506 27.5576 44.7506 27.5576C44.7506 27.5576 44.3118 28.7863 43.2879 28.3329C42.264 27.8794 42.8783 26.7458 42.8783 26.7458C42.8783 26.7458 41.5984 27.4772 41.0938 27.2504C40.5891 27.0237 40.6403 25.8535 40.6403 25.8535" stroke="black" stroke-linecap="round" stroke-linejoin="round"/>
<path d="M54.1707 6.80142C52.8176 4.70239 48.7073 1.13329 43.8729 1.04552C39.0386 0.95776 33.429 4.54148 30.9789 8.51283C28.5288 12.4842 25.9251 24.0837 25.2449 29.2034C24.5647 34.323 23.6798 44.0941 23.1751 47.2975C22.6705 50.5009 24.4184 76.1501 25.2303 80.3482C26.0421 84.5463 31.659 101.119 39.7334 104.71C47.8077 108.301 51.5962 106.173 54.7265 104.849C57.8568 103.525 60.7823 94.9391 60.4312 92.2915C60.0802 89.644 59.7291 77.4739 59.3561 75.7625C58.9831 74.0511 55.8089 58.9409 56.2185 57.1418C56.6281 55.3426 56.5403 41.8342 56.6427 40.9419C56.7451 40.0496 57.5277 29.8982 57.3741 28.2087C57.2205 26.5192 57.3156 18.4083 56.9572 14.6929C56.5681 11.9019 55.6204 9.21796 54.1707 6.80142V6.80142Z" stroke="black" stroke-linecap="round" stroke-linejoin="round"/>
<path d="M29.6259 62.4077C29.6259 62.4077 28.9457 63.5633 29.6771 63.9948C29.9589 64.1077 30.262 64.1578 30.5652 64.1413C30.8684 64.1249 31.1644 64.0425 31.4324 63.8997" stroke="black" stroke-linecap="round" stroke-linejoin="round"/>
<path d="M52.6202 78.3735C52.6202 78.3735 51.45 78.6734 52.0643 79.317C52.6699 79.7693 53.3888 80.0452 54.1414 80.1142" stroke="black" stroke-linecap="round" stroke-linejoin="round"/>
<path d="M34.6649 89.1758C34.6649 89.1758 34.0433 90.229 34.8843 90.719C35.7254 91.209 36.5811 91.4503 36.5957 90.4557" stroke="black" stroke-linecap="round" stroke-linejoin="round"/>
<path d="M36.4714 45.5054C36.4714 45.5054 35.8059 46.3903 36.3178 46.9681C36.8298 47.5459 37.7806 46.4123 37.7806 46.4123" stroke="black" stroke-linecap="round" stroke-linejoin="round"/>
<path d="M29.6405 22.7964C29.6405 22.7964 29.209 23.5278 29.8379 23.9008" stroke="black" stroke-linecap="round" stroke-linejoin="round"/>
<path d="M57.9006 63.6587L57.3594 64.3316" stroke="black" stroke-linecap="round" stroke-linejoin="round"/>
<path d="M24.4696 74.512L23.6359 74.0146" stroke="black" stroke-linecap="round" stroke-linejoin="round"/>
<path d="M37.9269 2.49348L37.6343 2.03271" stroke="black" stroke-linecap="round" stroke-linejoin="round"/>
<path d="M39.7334 104.732L39.3238 105.485" stroke="black" stroke-linecap="round" stroke-linejoin="round"/>
<path d="M23.9431 41.0885L23.2556 40.8179" stroke="black" stroke-linecap="round" stroke-linejoin="round"/>
<path d="M57.9738 100.49L58.7124 100.922" stroke="black" stroke-linecap="round" stroke-linejoin="round"/>
<path d="M52.291 101.243C53.805 99.8757 51.918 98.7567 51.3622 99.7001" stroke="black" stroke-linecap="round" stroke-linejoin="round"/>
<path d="M51.15 55.4304C51.4426 55.1744 51.7863 54.1066 51.2012 53.9019" stroke="black" stroke-linecap="round" stroke-linejoin="round"/>
<path d="M0.999939 44.9644C1.94341 45.5202 3.27451 47.5827 4.59098 47.5095" stroke="black" stroke-linecap="round" stroke-linejoin="round"/>
<path d="M16.8268 88.6787L18.9039 89.4832" stroke="black" stroke-linecap="round" stroke-linejoin="round"/>
<path d="M77.8379 21.9185L76.2216 23.937" stroke="black" stroke-linecap="round" stroke-linejoin="round"/>
</svg>
