<svg width="98" height="164" viewBox="0 0 98 164" fill="none" xmlns="http://www.w3.org/2000/svg">
<path d="M33.523 146.213L32.3323 112.301L36.5374 97.2288L77.9252 93.5889L81.8816 113.431L80.186 139.559L71.3236 152.679L69.1909 152.739C67.9631 153.73 66.6374 154.594 65.2345 155.316C62.5286 156.503 59.5765 157.02 56.6284 156.824C52.9014 156.342 49.2376 155.457 45.7012 154.186C41.1802 152.311 37.0498 149.607 33.523 146.213Z" fill="#F8C2A0"/>
<path d="M67.5851 68.2754L63.8171 58.4785L61.6543 51.0405L63.6287 42.7509C63.6287 42.7509 66.4547 31.8237 66.4547 30.5049C66.4547 29.186 65.1736 25.5085 64.5707 24.2876C63.9678 23.0668 61.6543 18.1684 60.0491 16.3748C58.589 14.5139 56.877 12.8653 54.9623 11.4764C52.2342 9.50197 45.1655 6.29163 45.1655 6.29163L39.423 3.65402C39.423 3.65402 36.8758 1.11438 36.1222 1.01641C35.3686 0.918444 34.3362 1.20481 34.615 3.37519C35.0134 5.31679 35.6145 7.21119 36.4086 9.0272L39.1367 14.7696L41.8119 20.3312L43.2287 23.632C43.2287 23.632 44.4495 25.8928 44.4495 26.556C44.4495 27.2191 45.2031 31.364 45.2031 31.364L37.4411 39.7365C37.4411 39.7365 32.5426 45.3885 30.945 47.3705C29.3474 49.3524 27.5538 53.1204 26.6118 54.0624C25.8332 55.0895 25.4338 56.3542 25.4814 57.6421C25.5718 58.1168 25.3834 65.3665 25.3834 65.3665L25.7602 74.3193L34.4266 73.0005L62.1592 69.029L67.5851 68.2754Z" fill="#3A3A3D"/>
<path d="M24.479 84.0995C24.479 84.0995 19.867 85.1394 16.943 85.7046C13.914 86.3778 10.9271 87.2284 7.99775 88.2518C6.39258 88.817 3.18977 90.6106 2.72254 91.3642C2.2553 92.1178 2.43617 93.625 3.75497 94.665C5.07377 95.7049 8.93975 97.2121 10.6354 97.2121C12.331 97.2121 19.3922 98.4405 21.8414 98.4405C24.2906 98.4405 37.3882 98.7269 41.1562 98.3501C44.9242 97.9733 51.9855 97.8828 55.7535 97.5965C59.5215 97.3101 66.3039 96.6545 68.8511 96.0893C71.3983 95.5241 81.3759 93.6401 82.4159 93.1728C83.4559 92.7056 89.6656 90.7236 91.2707 89.8796C92.8759 89.0356 96.1691 87.242 96.7343 86.2095C97.2995 85.1771 97.5784 84.1371 95.3176 82.7279C93.0568 81.3187 87.7816 80.6555 85.4303 80.2787C83.0791 79.9019 77.3291 79.4347 76.0103 79.4347C74.6915 79.4347 71.3907 79.3442 71.3907 79.3442L72.0539 81.4166C71.1062 82.0535 70.0521 82.5154 68.9415 82.7807C67.4343 83.067 65.0831 83.3459 65.0831 83.3459C65.0831 83.3459 65.4599 85.6067 63.6663 86.2698C61.8727 86.933 54.9095 87.875 54.9095 87.875L46.9966 88.915C46.9966 88.915 45.2031 89.1034 44.9242 88.2593C44.5714 87.5771 44.0532 86.9941 43.417 86.5637C43.417 86.5637 37.4786 87.3173 34.5622 87.1289C31.6458 86.9405 27.2146 86.7521 27.2146 86.7521L24.479 86.1719V84.0995Z" fill="#3A3A3D"/>
<path d="M24.8182 74.3033L29.7166 73.5497L37.0642 72.4193L39.9882 72.0425L41.209 76.8505L42.5278 83.5349L43.3794 86.5493L37.7274 87.1145L29.3398 87.0241L24.4414 86.1725L24.6298 81.2741L24.8182 74.3033Z" fill="#7B633B"/>
<path d="M60.991 69.0283L64.3822 68.5611C64.3822 68.5611 67.0198 68.2822 67.585 68.2822C68.1502 68.2822 68.9415 70.3471 68.9415 70.3471L70.4487 75.6223L72.0538 81.3648L68.9415 82.7815L65.083 83.3467L64.7967 81.2743L62.2193 72.7059L60.991 69.0283Z" fill="#7B633B"/>
<path d="M48.0899 84.9523C46.7022 80.8437 45.5598 76.6564 44.6686 72.4123C44.4802 70.6715 54.2619 69.5939 56.1083 69.6692C57.9546 69.7446 58.9569 70.777 59.3864 73.0378C59.816 75.2986 62.4913 80.5739 62.6872 82.0811C62.8831 83.5883 61.8055 84.274 59.6728 84.681C57.5401 85.0879 51.7072 86.3314 50.9159 86.2937C50.1247 86.256 48.5948 86.2108 48.0899 84.9523Z" fill="#7B633B"/>
<path d="M42.3849 102.558C49.2125 98.9411 55.3619 103.176 56.4697 107.284C57.5775 111.391 57.6076 116.666 53.2518 119.869C49.5366 122.604 42.7918 122.024 39.9734 117.502C37.4337 113.463 36.974 105.445 42.3849 102.558Z" fill="white"/>
<path d="M63.5232 103.521C65.8593 100.379 71.9786 99.286 75.9501 102.082C79.9216 104.878 79.379 111.08 77.3141 114.848C75.8069 117.568 70.3282 120.274 66.206 117.146C64.4652 115.828 59.4161 109.053 63.5232 103.521Z" fill="white"/>
<path d="M64.7742 81.7941C64.7742 81.0405 62.227 73.5044 61.7598 71.7485C61.2925 69.9927 59.8984 66.2171 58.0596 66.1342C56.2208 66.0513 44.5626 67.7921 41.9024 68.395C39.2421 68.9979 39.8827 72.5248 40.6212 73.7983C40.6212 73.7983 42.3244 83.2937 43.0403 85.0571C43.7562 86.8206 44.4721 88.5915 46.0547 88.9005C47.6373 89.2095 61.9331 86.602 63.7945 86.2177C65.6559 85.8334 64.7365 82.5401 64.7742 81.7941ZM59.6421 84.8085C57.517 85.2154 51.6766 86.4589 50.8853 86.4212C50.094 86.3835 48.519 86.3232 48.0442 85.0647C46.6585 80.951 45.5185 76.7586 44.6304 72.5097C44.442 70.7689 54.2237 69.6912 56.0701 69.7666C57.9164 69.8419 58.9187 70.8744 59.3482 73.1276C59.7778 75.3809 62.4531 80.6637 62.649 82.1709C62.8449 83.6781 61.7673 84.394 59.6421 84.8009V84.8085Z" fill="#FBF86E"/>
<path d="M37.1022 98.6596C33.0101 109.73 33.3342 124.372 33.2739 130.16C33.2739 138.178 33.7863 147.327 32.6559 153.379C31.5255 159.43 25.9865 165.964 17.5839 162.12C17.5839 162.12 13.2055 163.628 9.18876 162.874C5.17206 162.12 2.46663 158.315 2.84343 156.303C2.84343 156.303 -1.84397 152.61 5.27757 147.259C9.60324 143.989 11.6229 127.394 13.326 119.971C15.2779 111.388 17.614 100.92 19.2041 98.2451L24.0121 98.4637L32.8669 98.6521L37.1022 98.6596Z" fill="black"/>
<path d="M80.8035 93.4604C87.7743 114.637 86.8776 134.773 88.9198 139.86C90.9621 144.947 93.8107 151.729 91.5499 154.351C89.2549 156.683 86.271 158.215 83.0387 158.721C79.8064 159.228 76.497 158.681 73.5991 157.162C71.7204 156.213 70.1576 154.739 69.1001 152.92C69.1001 152.92 73.584 147.871 74.2095 146.612C74.835 145.353 78.505 137.29 79.1682 132.354C79.9821 126.325 80.5473 119.859 80.3589 118.096C80.1705 116.332 80.1102 107.545 79.854 105.036C79.3802 101.381 78.5395 97.7832 77.3445 94.2969L80.8035 93.4604Z" fill="black"/>
<path d="M67.1636 108.744L67.6534 111.08" stroke="black" stroke-linecap="round" stroke-linejoin="round"/>
<path d="M66.1537 110.176L68.3316 109.859" stroke="black" stroke-linecap="round" stroke-linejoin="round"/>
<path d="M66.5378 109.241L68.37 110.666" stroke="black" stroke-linecap="round" stroke-linejoin="round"/>
<path d="M66.6509 111.066L68.1279 109.009" stroke="black" stroke-linecap="round" stroke-linejoin="round"/>
<path d="M53.5759 110.883L54.0658 113.219" stroke="black" stroke-linecap="round" stroke-linejoin="round"/>
<path d="M52.566 112.323L54.7364 112.006" stroke="black" stroke-linecap="round" stroke-linejoin="round"/>
<path d="M52.9429 111.38L54.7751 112.805" stroke="black" stroke-linecap="round" stroke-linejoin="round"/>
<path d="M53.0635 113.205L54.533 111.155" stroke="black" stroke-linecap="round" stroke-linejoin="round"/>
<path d="M33.4174 146.056C38.4679 151.132 44.8853 154.63 51.8881 156.124C64.1945 158.618 69.6279 154.067 74.4208 146.109C79.2137 138.151 80.8566 126.515 80.3818 113.787C80.0728 105.354 79.7563 101.096 77.5257 95.0371" stroke="black" stroke-linecap="round" stroke-linejoin="round"/>
<path d="M37.2904 98.6596C33.1984 109.73 33.5224 124.372 33.4621 130.16C33.4621 138.178 33.9746 147.327 32.8442 153.379C31.7138 159.43 26.1748 165.964 17.7721 162.12C17.7721 162.12 13.3937 163.628 9.37702 162.874C5.36032 162.12 2.62475 158.315 3.00908 156.303C3.00908 156.303 -1.67832 152.61 5.44322 147.259C9.76889 143.989 11.7885 127.394 13.4917 119.971C15.436 111.388 17.8023 100.92 19.3999 98.2451" stroke="black" stroke-linecap="round" stroke-linejoin="round"/>
<path d="M63.0412 112.588C63.0412 112.588 68.1959 122.491 68.3164 124.714C68.5953 128.813 61.6094 126.545 61.6094 126.545" stroke="black" stroke-linecap="round" stroke-linejoin="round"/>
<path d="M42.6259 102.752C49.4535 99.135 55.6029 103.37 56.7107 107.477C57.8185 111.585 57.8486 116.86 53.4928 120.063C49.7775 122.798 43.0328 122.188 40.2143 117.696C37.6747 113.657 37.215 105.624 42.6259 102.752Z" stroke="black" stroke-linecap="round" stroke-linejoin="round"/>
<path d="M63.7644 103.717C66.1006 100.575 72.2198 99.4818 76.1913 102.278C80.1628 105.074 79.6202 111.276 77.5553 115.044C76.0481 117.764 70.5694 120.47 66.4472 117.342C64.7064 115.993 59.6573 109.256 63.7644 103.717Z" stroke="black" stroke-linecap="round" stroke-linejoin="round"/>
<path d="M72.0769 79.3755C72.0769 79.3755 94.8282 79.8804 96.9985 84.4397C99.1689 88.999 78.784 94.7113 67.1484 96.2788C45.7612 99.1651 28.0741 98.841 20.9903 98.2984C13.9064 97.7558 2.74557 97.0399 2.41399 92.3224C2.15776 88.6448 19.2118 85.0953 24.2684 84.0327" stroke="black" stroke-linecap="round" stroke-linejoin="round"/>
<path d="M25.7155 73.6926C25.8286 70.9721 25.0298 63.6621 25.6703 56.0809C25.8361 54.0914 32.4527 44.7166 36.0399 41.1445C39.627 37.5724 45.9648 30.6544 47.0877 28.9663" stroke="black" stroke-linecap="round" stroke-linejoin="round"/>
<path d="M22.1132 90.3701C22.1132 90.3701 24.3061 88.2298 24.374 86.2479C24.4267 85.0723 24.6377 80.0533 24.8261 75.607C24.8261 75.19 24.8437 74.7781 24.8789 74.3711C24.8789 74.3711 37.3434 72.1706 40.2448 72.0425" stroke="black" stroke-linecap="round" stroke-linejoin="round"/>
<path d="M45.1582 31.1218C45.1582 31.1218 45.0602 27.1504 43.8545 24.6183C42.6487 22.0862 35.3237 8.38568 34.7284 3.64553C34.133 -1.09463 37.9688 1.7992 39.4685 3.60031C39.4685 3.60031 52.3702 9.84767 56.7185 12.7641C61.0667 15.6805 67.1332 28.0773 66.4851 31.0314C65.837 33.9855 62.0238 49.4419 61.6922 50.9114C61.3606 52.3809 67.5402 68.2443 67.5402 68.2443" stroke="black" stroke-linecap="round" stroke-linejoin="round"/>
<path d="M60.931 68.9843C60.931 68.9843 66.2062 68.2307 67.7963 68.5321C69.3864 68.8336 71.2704 79.8361 71.9939 81.3433C72.7174 82.8505 75.0611 83.4534 75.0611 83.4534" stroke="black" stroke-linecap="round" stroke-linejoin="round"/>
<path d="M24.3966 86.2866C27.6814 86.9041 31.0169 87.2119 34.3592 87.206C37.4492 87.2206 40.5365 87.0191 43.5984 86.6031" stroke="black" stroke-linecap="round" stroke-linejoin="round"/>
<path d="M65.6636 83.3252C67.8808 83.1223 70.0277 82.441 71.9561 81.3281" stroke="black" stroke-linecap="round" stroke-linejoin="round"/>
<path d="M40.7193 73.8294C39.9657 72.5558 39.3402 69.0591 42.0004 68.4261C44.6606 67.793 56.3189 66.0598 58.1577 66.1653C59.9964 66.2708 61.4057 70.0237 61.8654 71.7494C62.3251 73.4752 64.8798 81.0489 64.8798 81.795C64.8798 82.541 65.7615 85.7966 63.9001 86.2186C62.0387 86.6406 47.7127 89.233 46.1452 88.9391C44.5777 88.6452 43.8844 86.8592 43.1308 85.0957C42.3772 83.3323 40.7193 73.8294 40.7193 73.8294Z" stroke="black" stroke-linecap="round" stroke-linejoin="round"/>
<path d="M48.1425 85.058C46.7545 80.947 45.6121 76.7571 44.7212 72.5105C44.5328 70.7772 54.3221 69.692 56.1307 69.7749C57.9394 69.8578 58.9793 70.8827 59.4089 73.136C59.8384 75.3893 62.5137 80.672 62.7097 82.1792C62.9056 83.6864 61.828 84.3722 59.6953 84.7792C57.5626 85.1861 51.7297 86.4295 50.9384 86.3919C50.1471 86.3542 48.5947 86.3165 48.1425 85.058Z" stroke="black" stroke-linecap="round" stroke-linejoin="round"/>
<path d="M80.9318 93.8291C87.9026 115.005 86.8475 134.674 88.8823 139.799C90.917 144.923 93.8108 151.668 91.4822 154.291C89.1833 156.615 86.1987 158.138 82.9681 158.638C79.7376 159.137 76.4321 158.585 73.5389 157.064C71.6773 156.123 70.1259 154.665 69.0701 152.866" stroke="black" stroke-linecap="round" stroke-linejoin="round"/>
<path d="M60.9689 54.5681L61.6923 50.9131" stroke="black" stroke-linecap="round" stroke-linejoin="round"/>
<path d="M64.7292 132.648C64.7292 132.648 70.758 131.141 71.0067 134.909C71.2554 139.182 66.2364 137.675 66.2364 137.675C66.2364 137.675 67.9923 142.701 65.2341 142.95C60.9838 143.334 61.4661 137.426 61.4661 137.426" stroke="black" stroke-linecap="round" stroke-linejoin="round"/>
</svg>
