<svg width="112" height="111" viewBox="0 0 112 111" fill="none" xmlns="http://www.w3.org/2000/svg">
<path d="M17.8791 81.8938C17.8791 81.8938 17.2536 73.3555 17.3139 71.4715C17.3742 69.5875 17.9394 63.8074 18.6327 62.0515C19.326 60.2956 19.635 55.8946 21.7074 52.4054C23.7798 48.9162 24.2847 47.507 25.7241 45.4346C27.1635 43.3622 31.7605 38.087 32.5743 37.2429C33.3882 36.3989 40.0501 32.3219 40.0501 32.3219C40.0501 32.3219 44.1497 29.8878 45.0238 29.4507C48.1361 28.3665 51.3584 27.6286 54.6323 27.2502C56.8733 27.2187 59.1093 27.4719 61.2866 28.0038C62.994 28.5291 64.6371 29.2445 66.185 30.1365L68.1293 31.6437L70.2544 31.3045L71.5732 28.6067C71.5732 28.6067 74.2108 29.1719 75.718 29.4205C77.2252 29.6692 82.4402 32.1863 83.6309 33.6256C84.8215 35.065 88.1525 37.0771 89.2829 38.0191C90.4133 38.9611 94.6862 42.6689 95.6282 43.6109C96.5702 44.5529 98.1377 48.9464 98.4542 49.7C98.7707 50.4536 99.5846 54.5984 99.8333 55.7288C100.082 56.8592 100.527 61.3205 100.715 62.2625C100.903 63.2045 101.22 64.772 102.094 65.5934C102.968 66.4149 104.106 67.3192 104.106 67.3192L99.3962 76.3624V79.1884C99.3962 79.1884 98.0171 84.7801 97.7609 85.8427C97.5047 86.9053 94.9952 93.6274 94.0532 94.7578C93.1112 95.8882 90.9107 98.7142 90.4133 99.4075C89.58 100.351 88.6997 101.251 87.7757 102.105C88.1593 102.907 88.2704 103.812 88.0922 104.683C87.7154 105.813 84.3845 108.39 81.6263 108.699C78.8681 109.008 68.3101 110.267 67.873 110.207C67.436 110.146 54.8131 110.018 51.9871 109.453C49.1611 108.888 40.1706 106.574 37.7214 105.158C35.2722 103.741 30.5622 101.955 28.9947 99.6336C27.4272 97.3125 25.2267 95.6772 23.7195 91.8489C22.2123 88.0206 18.5046 86.6641 17.8791 81.8938Z" fill="#368C46"/>
<path d="M18.2562 83.7772L13.1694 82.7071C12.9571 81.4754 12.5978 80.2736 12.0992 79.1275C11.4738 77.9971 7.57764 74.734 7.57764 74.734C7.57764 74.734 9.96655 73.8523 10.3434 73.0384C10.7202 72.2245 11.7903 69.082 11.6019 67.0699C11.4135 65.0578 9.65758 60.3478 9.65758 60.3478C9.65758 60.3478 14.2395 57.582 14.9328 56.2632C15.6261 54.9444 17.2539 50.5509 17.1333 48.7875C17.0127 47.0241 16.131 42.3216 14.9328 40.5582L15.7467 40.4301C15.7467 40.4301 17.7588 40.6185 18.7008 40.0533C20.414 38.9672 21.8367 37.4798 22.8456 35.7201C23.8899 33.6251 24.5678 31.3668 24.8502 29.0431C24.8502 28.1011 25.3551 20.5651 25.3551 20.5651C25.3551 20.5651 28.995 20.7535 30.1254 20.3767C31.2558 19.9999 34.8354 18.0556 34.8354 18.0556C36.063 16.69 37.196 15.2422 38.2266 13.7224C38.9926 12.1461 39.6229 10.5074 40.1106 8.824L41.1807 4.70934C42.2528 5.49131 43.387 6.18442 44.5719 6.78174C45.3858 7.03043 48.4681 8.22866 50.661 8.28895C53.9533 8.5306 57.2299 7.64568 59.953 5.77945C64.0978 3.14185 65.4769 0.75293 65.4769 0.75293C66.8128 2.26825 68.593 3.32318 70.5637 3.76734C72.5368 4.25391 74.5603 4.50684 76.5925 4.52094L82.4329 3.89545L80.1721 6.59334C80.1721 6.59334 83.812 6.46523 85.6357 6.27683C87.4594 6.08843 89.2228 5.68149 89.2228 5.68149C89.2228 5.68149 84.1963 10.9567 83.3824 12.1474C82.5685 13.3381 76.9165 20.1883 76.9165 20.1883L72.8998 26.1568L71.581 28.606L70.2547 31.3039C69.6719 31.5176 69.0497 31.6025 68.431 31.5526C67.9261 31.3642 63.5326 28.1011 59.7043 27.6565C54.7373 26.8941 49.6565 27.5012 45.009 29.4124L40.2387 31.6129C40.2387 31.6129 40.5552 32.1178 39.7338 32.4946C38.9124 32.8714 33.9311 35.6372 32.6575 36.956C31.3839 38.2748 26.8623 43.7987 25.9806 45.0572C25.0989 46.3157 21.5193 51.7793 20.7054 54.854C19.8915 57.9287 18.1959 61.2295 17.7513 65.8114C17.4374 69.3717 17.3342 72.9475 17.4423 76.5201C17.5026 77.1832 18.2562 83.7772 18.2562 83.7772Z" fill="#61EA67"/>
<path d="M51.9043 41.5612C57.1795 43.4753 59.6061 51.1847 56.0792 56.4297C53.8938 59.6702 44.9636 59.6401 41.3162 57.3039C36.5384 54.2443 36.9679 47.0248 40.3516 43.8974C41.8724 42.477 43.7576 41.5066 45.7973 41.0942C47.837 40.6817 49.9511 40.8434 51.9043 41.5612Z" fill="white"/>
<path d="M83.1787 59.3001C77.2177 57.8456 74.2108 51.5832 76.0873 46.7677C76.5159 45.6437 77.1806 44.6248 78.0365 43.7797C78.8924 42.9345 79.9197 42.2828 81.049 41.8686C82.1783 41.4543 83.3833 41.287 84.5827 41.3782C85.7821 41.4693 86.948 41.8167 88.0017 42.3968C91.0161 44.002 92.9454 47.0013 92.8248 51.7264C92.7193 55.7958 88.4916 60.5963 83.1787 59.3001Z" fill="white"/>
<path d="M53.0798 38.4478C53.0798 38.4478 50.6005 29.7965 40.0501 28.2441C34.4282 27.4302 40.0501 32.3286 40.0501 32.3286C40.0501 32.3286 31.2555 33.2028 32.6723 36.9934C34.0891 40.784 41.1805 36.4131 41.1805 36.4131C41.1805 36.4131 38.6258 38.4554 41.1805 38.7418C43.7352 39.0281 48.2568 37.6415 53.0798 38.4478Z" fill="black"/>
<path d="M75.7787 38.1548C77.716 36.6134 79.7526 35.2011 81.8753 33.9271C85.1083 32.028 88.6577 30.5736 90.5267 31.4478C94.2118 33.1961 89.3887 34.9445 89.3887 34.9445C89.3887 34.9445 95.4854 31.0785 98.432 34.3642C100.248 36.3688 95.0257 38.298 92.471 38.0795C92.471 38.0795 96.9926 41.6515 94.7318 42.8196C92.471 43.9877 88.0925 39.8052 83.0962 38.298C80.7279 37.5098 78.176 37.4598 75.7787 38.1548Z" fill="black"/>
<path d="M24.7897 76.5188C25.5837 74.9635 26.4643 73.4539 27.4273 71.9972C29.339 69.6638 31.7562 67.7956 34.4961 66.5336C37.6913 65.1244 43.4413 64.5592 46.0789 64.7476C49.3718 65.0967 52.6425 65.6301 55.8757 66.3452C57.3829 66.722 64.6401 68.4176 66.2378 68.8924C67.8354 69.3671 74.0602 70.6859 76.0346 70.6859C78.009 70.6859 84.1358 71.0627 88.1827 70.4071C92.2295 69.7515 98.9215 68.8999 98.9215 68.8999L106.367 66.82C106.241 67.9985 106.022 69.1653 105.711 70.3091C105.335 71.3491 102.983 73.5119 102.983 73.5119C102.983 73.5119 106.849 75.8707 107.415 78.0336C107.415 78.0336 102.991 78.8851 101.295 78.9756C99.5997 79.066 90.2777 79.9176 88.2957 79.8271L73.3216 79.0735C73.3216 79.0735 62.1156 77.7547 60.6988 77.7547C59.282 77.7547 48.076 76.3455 47.0435 76.3455C46.0111 76.3455 39.5075 75.7803 37.2467 75.8783C34.9859 75.9762 24.7897 76.5188 24.7897 76.5188Z" fill="#F05A5C"/>
<path d="M29.2134 73.6941C31.1294 72.4006 33.1845 71.3263 35.3402 70.4913C37.9778 69.6472 42.0321 68.7957 43.9162 69.4588C45.8002 70.122 52.8689 71.7196 52.8689 71.7196C52.8689 71.7196 47.2094 73.4152 45.6042 73.5057C43.999 73.5961 37.3146 74.0709 36.0938 74.0709C34.8729 74.0709 30.3438 73.792 29.2134 73.6941Z" fill="#7B633B"/>
<path d="M38.4451 72.1858C38.1939 72.1895 37.9455 72.1329 37.7209 72.0205C37.4962 71.9082 37.3018 71.7436 37.1541 71.5404C37.0063 71.3373 36.9096 71.1016 36.8719 70.8533C36.8343 70.6049 36.8569 70.3512 36.9379 70.1134C36.9379 70.1134 40.427 69.1714 41.8363 69.2694C43.6903 69.413 45.5227 69.7618 47.2999 70.3093C48.9955 70.8745 50.1259 71.1609 50.1259 71.1609C50.1259 71.1609 49.1839 72.5777 48.2419 72.5777C47.2999 72.5777 46.3579 72.2988 46.3579 71.0705C45.4577 71.4949 44.5085 71.8062 43.5319 71.9974C42.7783 71.9974 41.7458 70.3998 41.7458 70.3998C41.7458 70.3998 39.3871 72.1858 38.4451 72.1858Z" fill="white"/>
<path d="M28.1133 88.2991C28.1133 88.2991 14.6238 107.652 6.83912 102C2.01607 98.5028 10.5242 92.0897 10.5242 92.0897C10.5242 92.0897 -1.96295 91.7958 2.01607 85.3826C5.99509 78.9695 22.7175 85.0887 22.7175 85.0887L28.1133 88.2991Z" fill="#368C46"/>
<path d="M94.5055 94.3196C96.4875 95.8268 108.394 100.431 110.376 96.8668C112.358 93.3023 105.666 90.7551 105.666 90.7551C108.394 90.7551 111.371 87.6955 108.394 85.917C104.581 83.6562 97.2335 86.6706 97.2335 86.6706L94.5055 94.3196Z" fill="#368C46"/>
<path d="M50.4574 47.8828L50.691 50.2265" stroke="black" stroke-linecap="round" stroke-linejoin="round"/>
<path d="M49.3494 49.1799L51.4595 49.1045" stroke="black" stroke-linecap="round" stroke-linejoin="round"/>
<path d="M49.8094 48.3062L51.4154 49.8971" stroke="black" stroke-linecap="round" stroke-linejoin="round"/>
<path d="M49.7338 50.1075L51.3548 48.2451" stroke="black" stroke-linecap="round" stroke-linejoin="round"/>
<path d="M80.6467 48.5532L80.8653 50.7462" stroke="black" stroke-linecap="round" stroke-linejoin="round"/>
<path d="M79.6067 49.7668L81.5811 49.6914" stroke="black" stroke-linecap="round" stroke-linejoin="round"/>
<path d="M80.0363 48.9453L81.5442 50.4382" stroke="black" stroke-linecap="round" stroke-linejoin="round"/>
<path d="M79.9686 50.6348L81.4841 48.8931" stroke="black" stroke-linecap="round" stroke-linejoin="round"/>
<path d="M51.9043 41.6515C57.1795 43.5657 59.6061 51.275 56.0792 56.5201C53.8938 59.7606 44.9636 59.7304 41.3162 57.3943C36.5384 54.3346 36.9679 47.1302 40.3516 43.9877C41.8724 42.5674 43.7576 41.597 45.7973 41.1845C47.837 40.772 49.9511 40.9337 51.9043 41.6515Z" stroke="black" stroke-linecap="round" stroke-linejoin="round"/>
<path d="M83.1865 59.3904C77.2255 57.936 74.2186 51.6735 76.0951 46.858C76.5237 45.7341 77.1884 44.7152 78.0443 43.87C78.9003 43.0249 79.9275 42.3732 81.0568 41.9589C82.1861 41.5446 83.3911 41.3774 84.5905 41.4685C85.7899 41.5596 86.9558 41.907 88.0096 42.4871C91.024 44.0923 92.9532 47.0916 92.8326 51.8167C92.7271 55.8862 88.4994 60.6941 83.1865 59.3904Z" stroke="black" stroke-linecap="round" stroke-linejoin="round"/>
<path d="M12.9207 82.55C12.6344 77.011 7.38928 74.6824 7.38928 74.6824C7.38928 74.6824 10.7956 74.4638 11.4286 69.8744C11.7962 66.6134 11.1877 63.3166 9.68023 60.4016C9.68023 60.4016 14.7897 57.7791 16.2064 53.9885C18.7837 47.1081 14.7897 40.288 14.7897 40.288C14.7897 40.288 19.4469 42.3679 23.1622 35.3293C25.9279 30.0541 25.2873 20.4607 25.2873 20.4607C29.8089 21.041 33.9311 19.986 37.2018 15.502C39.7565 12.0053 41.1733 4.71798 41.1733 4.71798C41.1733 4.71798 46.5163 8.79497 52.5225 8.43324C59.7571 7.99615 65.4995 0.78418 65.4995 0.78418C70.6089 6.90343 82.5912 3.8438 82.5912 3.8438C76.6302 9.11902 68.2728 31.6065 68.2728 31.6065C68.2728 31.6065 64.0149 27.4541 55.9288 27.2356C50.9927 27.1 44.2253 29.6396 44.2253 29.6396" stroke="black" stroke-linecap="round" stroke-linejoin="round"/>
<path d="M53.0874 38.5382C53.0874 38.5382 50.6005 29.8642 40.0501 28.3344C34.4282 27.5205 40.0501 32.4189 40.0501 32.4189C40.0501 32.4189 31.2555 33.2931 32.6723 37.0837C34.0891 40.8743 41.1805 36.5035 41.1805 36.5035C41.1805 36.5035 38.6258 38.5457 41.1805 38.8321C43.7352 39.1185 48.2643 37.7318 53.0874 38.5382Z" stroke="black" stroke-linecap="round" stroke-linejoin="round"/>
<path d="M75.7859 38.2447C77.7232 36.7032 79.7598 35.291 81.8825 34.017C85.1155 32.1179 88.6649 30.6634 90.5339 31.5376C94.219 33.286 89.3959 35.0343 89.3959 35.0343C89.3959 35.0343 95.4926 31.1683 98.4392 34.4541C100.255 36.4586 95.0329 38.3879 92.4782 38.1693C92.4782 38.1693 96.9998 41.7414 94.739 42.9095C92.4782 44.0775 88.0997 39.8951 83.1034 38.3879C80.7351 37.5996 78.1832 37.5497 75.7859 38.2447V38.2447Z" stroke="black" stroke-linecap="round" stroke-linejoin="round"/>
<path d="M22.7174 85.18C22.7174 85.18 5.97987 79.0608 2.00839 85.4739C-1.96309 91.8871 10.5166 92.181 10.5166 92.181C10.5166 92.181 2.00839 98.5941 6.83144 102.091C14.6237 107.743 28.1056 88.3904 28.1056 88.3904" stroke="black" stroke-linecap="round" stroke-linejoin="round"/>
<path d="M97.2335 86.7697C97.2335 86.7697 104.581 83.7553 108.394 86.0161C111.371 87.8021 108.394 90.8542 105.666 90.8542C105.666 90.8542 112.366 93.4014 110.376 96.9659C108.387 100.53 96.4875 95.9486 94.5055 94.4187" stroke="black" stroke-linecap="round" stroke-linejoin="round"/>
<path d="M99.336 79.0605C99.336 79.0605 97.6329 89.5582 93.375 95.6398C91.7962 97.9561 89.9299 100.063 87.821 101.91C90.2551 106.431 82.9527 108.971 76.3587 109.446C69.7647 109.921 55.8306 111.616 42.846 107.245C27.0204 101.91 24.4355 93.0549 24.4355 93.0549" stroke="black" stroke-linecap="round" stroke-linejoin="round"/>
<path d="M27.4124 72.0592C29.0175 69.7984 34.0817 64.1916 45.7098 64.7718C57.3379 65.3521 65.4994 69.8737 76.0649 70.6047C86.3333 71.3855 96.6541 70.1044 106.42 66.8367C106.42 66.8367 106.42 71.7954 102.727 73.5438C102.727 73.5438 107.55 76.1663 107.55 78.2086C99.0109 79.5211 90.3648 80.0082 81.732 79.663C67.5492 79.0827 46.8327 75.895 38.6109 75.895C33.8692 75.8751 29.1314 76.1672 24.4281 76.7692C24.4281 76.7692 25.8524 74.2597 27.4124 72.0592Z" stroke="black" stroke-linecap="round" stroke-linejoin="round"/>
<path d="M102.735 73.5048C93.8855 75.104 84.9142 75.9335 75.9217 75.9842C69.7263 75.8847 63.5723 74.9545 57.6242 73.2185C55.3634 72.5101 51.3166 71.3721 49.6813 70.8898C45.9133 69.7745 42.8612 69.2018 40.8867 69.4354C35.2875 70.091 31.2406 72.0579 29.1155 73.8063C31.0975 74.1002 41.7383 74.6805 48.1213 72.9321C49.2894 72.608 53.5096 72.0579 53.5096 72.0579" stroke="black" stroke-linecap="round" stroke-linejoin="round"/>
<path d="M68.2651 31.6121C69.9683 31.6121 70.3903 31.2504 70.3903 31.2504C74.0754 21.3405 89.3961 5.62793 89.3961 5.62793C86.4284 6.31905 83.3988 6.71038 80.3529 6.79601" stroke="black" stroke-linecap="round" stroke-linejoin="round"/>
<path d="M92.1992 61.5909C91.3477 61.8849 84.8215 61.591 80.2848 58.0942" stroke="black" stroke-linecap="round" stroke-linejoin="round"/>
<path d="M56.3958 56.0205C56.0642 57.7839 52.4469 62.1624 43.6298 61.5595" stroke="black" stroke-linecap="round" stroke-linejoin="round"/>
<path d="M32.6648 37.0771C32.6648 37.0771 24.7143 45.5326 21.8808 51.9457C19.0472 58.3589 15.9348 67.6884 18.1957 83.4312" stroke="black" stroke-linecap="round" stroke-linejoin="round"/>
<path d="M37.2016 70.1684C37.0765 70.3615 37.0081 70.5858 37.0043 70.8158C37.0005 71.0458 37.0613 71.2723 37.1799 71.4694C37.2985 71.6666 37.4701 71.8264 37.6751 71.9308C37.8801 72.0352 38.1103 72.08 38.3395 72.0599C40.329 72.2031 42.311 69.5806 42.311 69.5806C42.1409 69.7377 42.0166 69.938 41.9513 70.1602C41.886 70.3824 41.8821 70.6181 41.9401 70.8423C41.998 71.0665 42.1157 71.2708 42.2805 71.4334C42.4454 71.5961 42.6512 71.711 42.8762 71.766C44.7225 72.5196 46.5613 70.3116 46.5613 70.3116C46.5613 70.3116 45.7097 72.2106 47.4129 72.497C47.9262 72.5652 48.4484 72.4925 48.9236 72.2867C49.3989 72.081 49.8092 71.7499 50.1108 71.3289" stroke="black" stroke-linecap="round" stroke-linejoin="round"/>
<path d="M61.9574 61.3433C61.9574 61.3433 64.0836 61.9238 62.9527 63.0925" stroke="black" stroke-linecap="round" stroke-linejoin="round"/>
<path d="M81.4608 63.166C81.698 63.3875 81.8442 63.6895 81.8706 64.0129C81.8971 64.3364 81.8021 64.6581 81.6041 64.9153" stroke="black" stroke-linecap="round" stroke-linejoin="round"/>
<path d="M104.227 67.2505C103.403 66.8308 102.676 66.2452 102.089 65.5306C101.503 64.816 101.071 63.9878 100.821 63.0982C100.18 60.2571 99.8258 47.8679 94.7917 42.9092" stroke="black" stroke-linecap="round" stroke-linejoin="round"/>
<path d="M83.1641 33.3624C79.924 30.6602 75.9114 29.0536 71.7018 28.7729" stroke="black" stroke-linecap="round" stroke-linejoin="round"/>
<path d="M16.5605 95.0132L12.3026 103.107" stroke="black" stroke-linecap="round" stroke-linejoin="round"/>
<path d="M10.8182 96.3325L5.9198 100.485" stroke="black" stroke-linecap="round" stroke-linejoin="round"/>
<path d="M11.6695 86.053L2.09119 84.7417" stroke="black" stroke-linecap="round" stroke-linejoin="round"/>
<path d="M102.817 92.4966L110.376 96.9579" stroke="black" stroke-linecap="round" stroke-linejoin="round"/>
<path d="M105.237 88.2985L109.14 87.1455" stroke="black" stroke-linecap="round" stroke-linejoin="round"/>
<path d="M104.121 85.2393L101.325 86.7691" stroke="black" stroke-linecap="round" stroke-linejoin="round"/>
<path d="M98.9142 93.6479L103.006 97.6571" stroke="black" stroke-linecap="round" stroke-linejoin="round"/>
<path d="M65.0773 4.71582L64.4368 28.9893" stroke="black" stroke-linecap="round" stroke-linejoin="round"/>
<path d="M45.2875 10.2026C45.2875 10.2026 47.1263 20.8435 50.5024 27.3772" stroke="black" stroke-linecap="round" stroke-linejoin="round"/>
<path d="M54.2253 7.99463L55.7099 17.8367" stroke="black" stroke-linecap="round" stroke-linejoin="round"/>
<path d="M24.6469 30.0825C24.6469 30.0825 28.4978 31.9364 29.3267 34.672" stroke="black" stroke-linecap="round" stroke-linejoin="round"/>
<path d="M17.2009 47.1294C17.8476 48.028 18.7173 48.7425 19.7243 49.2024C20.7313 49.6622 21.8408 49.8517 22.9434 49.7519" stroke="black" stroke-linecap="round" stroke-linejoin="round"/>
<path d="M18.4746 60.6485C15.5356 60.0682 11.8806 58.9453 11.8806 58.9453" stroke="black" stroke-linecap="round" stroke-linejoin="round"/>
<path d="M14.2167 67.6891L11.6696 66.8149" stroke="black" stroke-linecap="round" stroke-linejoin="round"/>
<path d="M41.4591 22.2068L37.2013 15.5073" stroke="black" stroke-linecap="round" stroke-linejoin="round"/>
<path d="M76.1401 4.28027C76.1401 4.28027 72.1008 12.5699 70.8197 18.4932" stroke="black" stroke-linecap="round" stroke-linejoin="round"/>
</svg>
