<svg width="104" height="96" viewBox="0 0 104 96" fill="none" xmlns="http://www.w3.org/2000/svg">
<path d="M10.5994 61.8752C10.5994 61.8752 4.94743 60.6167 3.94514 59.7425C2.94285 58.8684 1.17942 56.4794 1.05131 54.716C0.923198 52.9526 0.923198 50.3225 2.4304 49.064C3.93761 47.8055 7.20824 46.6826 7.20824 46.6826H8.84355L12.4232 48.6947L15.4376 60.7524L10.5994 61.8752Z" fill="#F8C2A0"/>
<path d="M9.96657 40.2752L15.9954 33.8696L24.7673 25.9567C24.7673 25.9567 34.436 19.7998 35.9432 19.0462C37.4504 18.2926 44.361 16.1599 46.2676 16.2805C48.1742 16.4011 55.9363 15.5269 55.9363 15.5269L66.8635 15.022C66.8635 15.022 75.5299 15.3988 77.0371 15.9037C79.0147 16.4909 80.8528 17.4727 82.4404 18.79C84.5731 20.5459 87.3389 24.5701 87.3389 24.5701L90.602 29.3404C91.3121 30.4677 91.9417 31.6437 92.486 32.8597C92.6141 33.4852 94.7468 38.5117 95.1236 39.8908C95.5004 41.2699 97.6331 50.1926 97.6331 51.4436C97.6331 52.6945 97.8818 60.3587 96.6308 63.878C95.3798 67.3973 92.3578 73.5467 89.4715 76.8173C86.5853 80.088 81.2874 84.9864 78.273 86.8704C75.2586 88.7544 69.4785 92.5224 68.0994 92.7711C64.0358 93.7759 59.8431 94.157 55.665 93.9015C49.6362 93.3966 39.7112 91.392 39.7112 91.392C39.7112 91.392 29.6657 88.2495 26.7719 86.9985C23.3481 85.518 20.3952 83.128 18.2336 80.088C15.7241 76.5686 12.7097 68.5352 12.7097 68.5352L10.4489 60.1175L6.38696 51.5114L8.83617 46.6732L9.96657 40.2752Z" fill="#F8C2A0"/>
<path d="M101.153 49.4414C101.818 48.7561 102.296 47.91 102.537 46.9855C102.779 46.0611 102.777 45.0897 102.532 44.1662C101.65 41.0237 99.6453 39.7727 98.01 39.5165C96.7796 39.2983 95.564 39.0038 94.3701 38.6348L96.126 44.0381L97.7613 51.446C99.0916 51.1955 100.292 50.4861 101.153 49.4414Z" fill="#F8C2A0"/>
<path d="M11.8505 66.5237C11.8505 66.5237 10.1323 66.6819 9.46155 65.8982C7.32886 63.3811 7.32886 61.6855 7.32886 61.6855L10.592 61.8739L11.8505 66.5237Z" fill="#FBA800"/>
<path d="M5.927 47.179C5.927 47.179 6.6806 40.6528 6.83132 39.0175C6.98204 37.3821 8.33853 31.4814 8.46664 30.7278C8.59475 29.9742 9.97384 26.8317 11.7297 25.4526C11.7297 25.4526 13.2369 20.5542 15.6259 17.9166C18.0148 15.279 22.7851 9.25019 27.5554 6.98938C32.3257 4.72858 38.8594 1.20926 45.7624 1.08868C52.6654 0.968107 58.3249 2.21909 60.3295 2.97269C62.3341 3.72629 67.7223 6.23578 67.7223 6.23578L70.3599 8.11979C70.3599 8.11979 76.5169 10.6293 79.9081 13.1463C83.2993 15.6633 86.8186 18.9264 87.316 19.9287C87.8134 20.931 89.4487 25.8294 89.4487 25.8294L89.6974 27.8415L84.3016 20.5542C84.3016 20.5542 80.4055 16.7862 79.4032 16.5375C76.8896 15.8974 74.3253 15.4763 71.739 15.279C67.4661 14.9022 58.7997 14.7741 56.667 15.4071C54.5343 16.0401 48.5055 15.6558 46.2447 16.2888C43.9839 16.9219 38.8368 17.9241 35.943 19.0545C33.0491 20.185 26.8997 24.5784 26.8997 24.5784L19.4918 30.6073L13.7117 36.3874L9.9437 40.2835L8.8133 46.6891L5.927 47.179Z" fill="#FBA800"/>
<path d="M28.535 39.5229C29.7709 30.7058 45.6192 30.1029 51.3164 34.6245C57.5562 39.5832 52.266 47.8125 45.1444 49.6965C38.0229 51.5806 27.5554 46.3053 28.535 39.5229Z" fill="white"/>
<path d="M61.6936 36.8862C63.5249 30.7594 76.0799 28.2197 80.1267 33.495C84.1735 38.7702 82.8246 45.5526 74.7309 47.4366C70.6313 48.3937 59.4328 44.4222 61.6936 36.8862Z" fill="white"/>
<path d="M36.1542 66.2759C38.3547 63.5856 43.6902 65.5223 47.4582 67.0295C53.1102 69.2903 64.7911 68.9135 71.5735 65.1455C74.2262 63.6383 78.8005 63.5479 79.8631 65.1455C82.1239 68.5367 75.7183 73.0583 68.5591 74.5655C58.1744 76.751 48.9654 76.0727 44.067 74.5655C39.1686 73.0583 32.763 70.4207 36.1542 66.2759Z" fill="#DA4F4D"/>
<path d="M43.381 65.5222C43.381 65.5222 41.8738 67.5946 43.1926 68.5366C45.589 70.2472 48.2794 67.783 48.2794 67.783C48.2794 67.783 46.6818 69.4484 48.4678 70.0438C50.7286 70.7974 52.2358 68.5366 52.2358 68.5366C52.2358 68.5366 51.8364 70.511 53.1778 70.7974C55.8154 71.3626 56.7574 68.5366 56.7574 68.5366C56.7574 68.5366 56.3806 70.7974 59.2066 71.1742C62.0326 71.551 63.7282 67.9714 63.7282 67.9714C63.7282 67.9714 64.1276 70.7371 66.1774 70.4206C68.6266 70.0438 68.6267 66.6526 68.6267 66.6526C68.6267 66.6526 69.3803 69.4786 70.8875 68.3482C72.3947 67.2178 72.7715 64.7686 72.7715 64.7686L67.6244 66.6526C65.4736 67.2325 63.2923 67.6929 61.0906 68.0317C58.7169 68.3338 56.3204 68.417 53.9314 68.2803C51.6452 67.9559 49.3804 67.4953 47.149 66.9012C45.3856 66.2758 43.381 65.5222 43.381 65.5222Z" fill="white"/>
<path d="M43.3132 74.1215C44.1012 73.4256 44.9906 72.8538 45.9508 72.4259C47.0812 72.0491 48.0232 72.1471 49.6209 72.8027C51.2185 73.4583 53.2005 74.3099 53.2005 74.3099L55.9361 75.7267C55.9361 75.7267 53.0121 75.7267 50.3745 75.6362C47.7369 75.5458 43.3132 74.1215 43.3132 74.1215Z" fill="#FF0000"/>
<path d="M72.6887 37.3901L72.8922 39.4173" stroke="black" stroke-linecap="round" stroke-linejoin="round"/>
<path d="M71.7014 38.5141L73.5713 38.4463" stroke="black" stroke-linecap="round" stroke-linejoin="round"/>
<path d="M72.1084 37.7588L73.5334 39.131" stroke="black" stroke-linecap="round" stroke-linejoin="round"/>
<path d="M72.0408 39.312L73.4809 37.7061" stroke="black" stroke-linecap="round" stroke-linejoin="round"/>
<path d="M40.4722 39.4619L40.6756 41.4891" stroke="black" stroke-linecap="round" stroke-linejoin="round"/>
<path d="M39.4849 40.5845L41.3547 40.5166" stroke="black" stroke-linecap="round" stroke-linejoin="round"/>
<path d="M39.8918 39.8315L41.3169 41.2038" stroke="black" stroke-linecap="round" stroke-linejoin="round"/>
<path d="M39.824 41.3853L41.2641 39.7793" stroke="black" stroke-linecap="round" stroke-linejoin="round"/>
<path d="M9.02405 49.8168C8.71282 46.4807 9.12144 43.1167 10.2223 39.9521" stroke="black" stroke-linecap="round" stroke-linejoin="round"/>
<path d="M92.9984 34.5562C95.2656 39.705 96.7881 45.1504 97.52 50.7284C100.534 74.3388 78.4313 87.9036 68.8831 92.4252C59.335 96.9468 29.937 90.918 21.6549 83.8869C16.1235 79.1844 12.8679 70.0583 11.1045 62.7861" stroke="black" stroke-linecap="round" stroke-linejoin="round"/>
<path d="M11.6018 25.325C15.8295 13.697 30.0877 2.00107 45.8078 1.09675C54.1214 0.496194 62.3959 2.70415 69.3051 7.36672" stroke="black" stroke-linecap="round" stroke-linejoin="round"/>
<path d="M86.457 73.812L86.9619 78.831" stroke="black" stroke-linecap="round" stroke-linejoin="round"/>
<path d="M30.6902 84.3618L30.1929 86.6226" stroke="black" stroke-linecap="round" stroke-linejoin="round"/>
<path d="M21.3984 73.0581L22.9056 76.0725" stroke="black" stroke-linecap="round" stroke-linejoin="round"/>
<path d="M49.7869 82.8555L49.282 86.3673" stroke="black" stroke-linecap="round" stroke-linejoin="round"/>
<path d="M73.3968 81.8457L72.3945 84.8601" stroke="black" stroke-linecap="round" stroke-linejoin="round"/>
<path d="M92.4858 57.7295L95.0029 60.2465" stroke="black" stroke-linecap="round" stroke-linejoin="round"/>
<path d="M8.58716 46.6826C8.58716 46.6826 0.546228 46.6826 1.05114 54.2186C1.55605 61.7546 12.6039 62.6288 12.6039 62.6288" stroke="black" stroke-linecap="round" stroke-linejoin="round"/>
<path d="M61.3395 40.02C61.3395 40.02 67.3683 51.324 66.6147 55.4689C65.8611 59.6137 58.3251 55.8457 58.3251 55.8457C58.3251 55.8457 55.8156 56.9761 54.8058 56.2225C53.796 55.4689 55.5594 52.4544 55.5594 52.4544" stroke="black" stroke-linecap="round" stroke-linejoin="round"/>
<path d="M10.0945 40.3971C10.0945 40.3971 27.8041 18.9195 44.0066 16.6587C54.1425 15.2419 72.2666 14.021 78.6722 16.2818C85.0779 18.5427 92.2371 32.1075 92.2371 32.1075" stroke="black" stroke-linecap="round" stroke-linejoin="round"/>
<path d="M16.5002 43.4123L22.1523 42.6587" stroke="black" stroke-linecap="round" stroke-linejoin="round"/>
<path d="M22.5064 44.5415C22.5064 44.5415 17.608 45.2951 16.1008 48.3095" stroke="black" stroke-linecap="round" stroke-linejoin="round"/>
<path d="M84.7012 35.8754C84.7012 35.8754 87.7156 33.6146 89.9764 35.8754" stroke="black" stroke-linecap="round" stroke-linejoin="round"/>
<path d="M91.4834 40.3967C91.4834 40.3967 89.2226 35.8751 85.4546 37.3823" stroke="black" stroke-linecap="round" stroke-linejoin="round"/>
<path d="M28.5354 39.643C29.7713 30.8259 45.6195 30.223 51.3168 34.7446C57.5566 39.7033 52.2663 47.9327 45.1448 49.8167C38.0232 51.7007 27.6235 46.4255 28.5354 39.643Z" stroke="black" stroke-linecap="round" stroke-linejoin="round"/>
<path d="M61.7612 37.0063C63.5925 30.8795 76.1475 28.3399 80.1943 33.6151C84.2411 38.8903 82.8922 45.6727 74.7985 47.5567C70.6914 48.5138 59.5155 44.5423 61.7612 37.0063Z" stroke="black" stroke-linecap="round" stroke-linejoin="round"/>
<path d="M95.6055 38.8887C95.6055 38.8887 101.257 39.2655 102.388 43.7871C103.895 49.7405 97.8663 51.6999 97.8663 51.6999" stroke="black" stroke-linecap="round" stroke-linejoin="round"/>
<path d="M6.07788 46.6818C6.07788 46.6818 7.08017 31.7303 9.69517 27.9623C12.3102 24.1943 24.0136 15.5279 27.7816 14.0207C31.5496 12.5135 57.9257 5.73105 67.7225 7.61506C77.5193 9.49906 84.6785 16.6583 86.5625 18.9191C88.4466 21.1799 89.577 25.7015 89.9538 27.5855" stroke="black" stroke-linecap="round" stroke-linejoin="round"/>
<path d="M75.6577 59.6152L76.6605 60.7462" stroke="black" stroke-linecap="round" stroke-linejoin="round"/>
<path d="M35.3402 60.7446L33.833 63.0054" stroke="black" stroke-linecap="round" stroke-linejoin="round"/>
<path d="M47.7747 58.4844L46.6443 60.7452" stroke="black" stroke-linecap="round" stroke-linejoin="round"/>
<path d="M61.3394 60.7446V62.6296" stroke="black" stroke-linecap="round" stroke-linejoin="round"/>
<path d="M80.9331 63.3823L82.0635 65.4547" stroke="black" stroke-linecap="round" stroke-linejoin="round"/>
<path d="M27.4275 68.2803V70.9179" stroke="black" stroke-linecap="round" stroke-linejoin="round"/>
<path d="M12.7331 67.9038L11.2251 69.7888" stroke="black" stroke-linecap="round" stroke-linejoin="round"/>
<path d="M19.1375 81.0908L18.7607 83.3516" stroke="black" stroke-linecap="round" stroke-linejoin="round"/>
<path d="M36.8475 89.3813L36.4705 91.2663" stroke="black" stroke-linecap="round" stroke-linejoin="round"/>
<path d="M57.5718 93.9019L57.1948 95.4098" stroke="black" stroke-linecap="round" stroke-linejoin="round"/>
<path d="M74.5273 89.3813L76.4123 90.1353" stroke="black" stroke-linecap="round" stroke-linejoin="round"/>
<path d="M92.991 71.2944L94.1219 73.1794" stroke="black" stroke-linecap="round" stroke-linejoin="round"/>
<path d="M36.0712 66.1475C38.2717 63.4571 43.6072 65.3939 47.3752 66.9011C53.0272 69.1619 64.708 68.7851 71.4905 65.0171C74.1431 63.5099 78.7175 63.4195 79.7801 65.0171C82.0409 68.4083 75.6353 72.9299 68.4761 74.4371C58.0914 76.6226 48.8824 75.9443 43.984 74.4371C39.0856 72.9299 32.7026 70.2923 36.0712 66.1475Z" stroke="black" stroke-linecap="round" stroke-linejoin="round"/>
<path d="M72.8318 64.6416C72.8318 64.6416 72.455 67.0908 70.9478 68.2212C69.4406 69.3516 68.687 66.5256 68.687 66.5256C68.687 66.5256 68.687 69.9168 66.2378 70.2936C64.188 70.6101 63.7885 67.8444 63.7885 67.8444C63.7885 67.8444 62.0929 71.424 59.2669 71.0472C56.4409 70.6704 56.8177 68.4096 56.8177 68.4096C56.8177 68.4096 55.8757 71.2356 53.2381 70.6704C51.8967 70.384 52.2961 68.4096 52.2961 68.4096C52.2961 68.4096 50.7889 70.6704 48.5281 69.9168C46.7421 69.3215 48.3397 67.656 48.3397 67.656C48.3397 67.656 45.6494 70.1203 43.2529 68.4096C41.9341 67.4676 43.4413 65.3952 43.4413 65.3952" stroke="black" stroke-linecap="round" stroke-linejoin="round"/>
<path d="M43.2532 74.0599C43.2532 74.0599 46.456 71.0455 49.8472 72.7411C53.2384 74.4367 56.2528 75.5671 56.2528 75.5671" stroke="black" stroke-linecap="round" stroke-linejoin="round"/>
<path d="M79.7801 26.6439C79.7801 26.6439 71.8673 22.8759 63.0125 28.9047" stroke="black" stroke-linecap="round" stroke-linejoin="round"/>
<path d="M50.7891 30.2229C48.3788 28.199 45.4026 26.9681 42.2668 26.6984C39.131 26.4286 35.9884 27.1331 33.2678 28.7157" stroke="black" stroke-linecap="round" stroke-linejoin="round"/>
<path d="M85.2664 62.251C86.3973 62.251 86.7743 63.7589 86.7743 63.7589" stroke="black" stroke-linecap="round" stroke-linejoin="round"/>
<path d="M30.6299 76.384C31.7609 75.8185 32.1379 75.4415 31.9494 74.499" stroke="black" stroke-linecap="round" stroke-linejoin="round"/>
<path d="M19.892 64.3232C19.892 64.3232 18.007 65.0772 18.761 66.0197" stroke="black" stroke-linecap="round" stroke-linejoin="round"/>
<path d="M52.8617 63.9487C52.8617 63.9487 51.7307 64.5142 52.1077 65.0797" stroke="black" stroke-linecap="round" stroke-linejoin="round"/>
<path d="M62.658 87.6855C62.658 87.6855 62.0928 89.0043 62.4696 89.758" stroke="black" stroke-linecap="round" stroke-linejoin="round"/>
<path d="M53.6155 3.4707C53.6155 3.4707 58.6797 5.54311 60.1869 7.05031" stroke="black" stroke-linecap="round" stroke-linejoin="round"/>
<path d="M44.3835 4.22363L45.7023 8.93364" stroke="black" stroke-linecap="round" stroke-linejoin="round"/>
<path d="M36.0712 6.29688C36.0712 6.29688 34.7524 10.2533 34.7524 11.5721" stroke="black" stroke-linecap="round" stroke-linejoin="round"/>
<path d="M26.734 8.93457C24.3373 11.3327 22.6186 14.3229 21.7527 17.601" stroke="black" stroke-linecap="round" stroke-linejoin="round"/>
<path d="M59.6438 15.5273L60.3978 17.0353" stroke="black" stroke-linecap="round" stroke-linejoin="round"/>
<path d="M49.659 15.9048L49.282 17.2243" stroke="black" stroke-linecap="round" stroke-linejoin="round"/>
<path d="M67.1794 15.3403L68.8759 16.2828" stroke="black" stroke-linecap="round" stroke-linejoin="round"/>
<path d="M69.3805 52.2056C69.3805 52.2056 70.1341 56.4785 66.6147 55.4687" stroke="black" stroke-linecap="round" stroke-linejoin="round"/>
<path d="M7.32886 61.8745C7.32886 61.8745 8.33115 67.0216 11.8505 66.5242" stroke="black" stroke-linecap="round" stroke-linejoin="round"/>
</svg>
