<svg width="61" height="116" viewBox="0 0 61 116" fill="none" xmlns="http://www.w3.org/2000/svg">
<path d="M14.4499 44.7076C14.5654 43.2151 15.1145 41.789 16.0297 40.6046C16.6367 39.7123 20.2643 35.4411 20.6959 34.6804C21.1274 33.9198 22.6559 31.6014 22.7583 30.4824C22.8607 29.3634 22.4365 24.7411 22.3853 23.7025C22.3649 21.0613 22.5532 18.4226 22.9485 15.811C23.4166 13.3756 24.7623 8.17551 24.7623 8.17551C24.7623 8.17551 23.1094 6.55187 23.1167 5.33779C23.124 4.12371 24.3893 3.18755 25.5449 2.79261C26.7004 2.39767 30.7595 0.759398 32.5953 1.03001C34.431 1.30061 35.4111 1.42495 35.9084 2.67559C36.2593 3.73316 36.2873 4.87128 35.9888 5.94483C35.8343 6.36066 35.6252 6.75416 35.3672 7.11502L36.6983 17.4713C36.6983 17.4713 36.8007 22.3056 36.6983 24.5217C36.5959 26.7377 36.5081 29.2683 37.4296 31.8793C38.3512 34.4903 40.2454 35.8653 41.0865 36.9989C41.9276 38.1325 43.5732 40.8093 43.756 42.2136C43.9389 43.6178 44.0925 44.9489 44.0925 44.9489L44.3923 52.5405L45.1237 58.2233C45.1237 58.2233 46.7912 59.5983 47.881 60.4174C48.2598 60.6425 48.5517 60.9887 48.7096 61.4C48.8675 61.8114 48.8822 62.2639 48.7513 62.6847C48.5831 63.2039 47.5738 64.5424 46.6888 64.5131C45.8958 64.4297 45.1138 64.263 44.3557 64.0158V66.7145V70.0496C45.8291 70.4858 47.0717 71.4841 47.8151 72.8288C48.8346 74.6319 49.3901 76.66 49.4315 78.731C49.4754 79.5794 48.7001 83.4995 46.9082 85.1524C45.1164 86.8053 44.151 86.7614 44.151 86.7614L44.4143 98.4634C44.6641 100.461 44.6148 102.485 44.268 104.468C43.7048 108.001 43.9535 110.195 42.8052 111.555C40.9962 113.458 38.5647 114.649 35.9523 114.912C32.7562 115.285 28.5142 115.329 26.1811 114.832C23.8481 114.334 19.2843 113.369 17.3681 111.789C17.3681 111.789 15.174 110.326 15.0935 109.324C15.0131 108.322 14.6474 96.4375 14.6474 96.4375L14.2305 84.2309L13.9672 65.186L13.8868 54.3617C13.8868 54.3617 14.2378 46.9017 14.4499 44.7076Z" fill="#5D6F5B"/>
<path d="M28.7264 104.863C30.3501 104.402 30.1892 108.03 28.529 108.447C26.8688 108.864 27.4612 105.221 28.7264 104.863Z" fill="#6AFE7C"/>
<path d="M41.7741 37.6279L50.1703 41.1751L58.0252 44.4151L50.5725 44.8905L43.2881 40.8752L41.7741 37.6279Z" fill="#26D8FF"/>
<path d="M58.4054 52.4892L58.8881 48.6129C58.8881 48.6129 59.7877 48.2034 59.9047 47.8816C60.0217 47.5598 60.2631 44.7952 59.9047 44.488C59.5463 44.1808 57.7106 44.4149 57.7106 44.4149L45.1676 45.1462L32.1272 45.8776L25.1133 46.1702L22.9192 46.1117L16.7903 43.5811L8.88419 40.7068C7.92687 40.4506 6.94725 40.2865 5.9587 40.2168C5.50621 40.2569 5.07158 40.4125 4.69639 40.6686C4.32119 40.9247 4.01799 41.2728 3.81578 41.6795C3.44278 42.4694 1.25598 45.2852 1.08776 46.002C0.919549 46.7187 2.32378 48.3204 2.76261 47.9547C3.41511 47.267 4.03268 46.5469 4.61298 45.7972C4.61298 45.7972 6.88023 42.9448 7.99923 43.0472C9.11823 43.1496 14.9692 46.2579 14.9692 46.2579L22.1293 49.6588L23.9505 50.3902C23.9505 50.3902 24.0602 54.047 24.1845 54.8223C24.3088 55.5976 24.7769 58.7278 25.5375 59.1666C26.2982 59.6055 32.5807 59.7737 32.5807 59.7737C32.5807 59.7737 39.6165 58.9619 40.1211 58.172C40.6257 57.3821 40.4063 53.7179 40.4063 53.7179L40.6257 50.2658C40.7122 49.9527 40.8792 49.6677 41.1102 49.4392C41.3412 49.2108 41.6281 49.0469 41.9422 48.964C42.9588 48.7812 43.7853 48.5983 43.9535 49.6954C44.1217 50.7924 44.502 54.7418 44.502 54.7418C44.6574 55.8797 44.9649 56.9916 45.4162 58.0476C45.9648 58.9326 48.5246 58.9253 49.4315 58.896C50.3384 58.8668 56.9792 58.3256 57.5131 57.4699C58.047 56.6142 58.4054 52.4892 58.4054 52.4892ZM37.788 56.7092C36.925 57.5869 27.7536 57.4406 27.0734 56.5776C26.5249 55.8901 25.5229 49.6734 26.8613 48.5325C28.3241 47.2307 36.6617 47.5378 38.2707 48.7007C39.8797 49.8636 38.6584 55.8316 37.788 56.7092ZM55.9334 55.2465C54.8217 56.2997 52.6861 56.1827 51.8742 56.307C51.0624 56.4313 48.0565 56.5849 47.486 56.0949C46.3231 55.1441 45.8624 49.4248 46.0818 48.3423C46.3012 47.2599 50.0604 47.1283 51.2526 47.0039C52.4447 46.8796 56.2771 46.7041 57.0597 47.2745C57.8423 47.845 57.0377 54.2153 55.9261 55.2684L55.9334 55.2465Z" fill="#26D8FF"/>
<path d="M24.9889 79.667C24.9889 79.667 19.3573 83.8066 20.0667 85.1888C20.7762 86.5711 23.6139 84.9256 23.6139 84.9256C23.6139 84.9256 18.9185 91.9248 19.1671 93.5411C19.4158 95.1574 24.4696 91.9906 24.4696 91.9906C24.4696 91.9906 22.2096 97.7904 23.7382 98.4706C25.2668 99.1507 28.4702 90.9667 28.8578 88.597C28.8578 88.597 28.7262 93.1681 29.5892 93.446C30.4522 93.724 33.4289 85.6642 33.1729 83.4701C33.1729 83.4701 30.8106 82.7388 28.931 82.0074C27.5195 81.4045 26.194 80.6175 24.9889 79.667Z" fill="#6AFE7C"/>
<path d="M19.6792 73.4502C18.4505 69.8519 20.3155 63.1525 27.2855 66.195C30.211 67.4749 33.7216 72.3824 36.3691 73.6843C39.0167 74.9861 42.0958 73.2893 44.129 73.5234C46.1622 73.7574 48.0784 79.1769 44.7507 82.2413C41.4229 85.3058 34.826 84.0405 31.8273 82.9727C28.8287 81.9049 21.6978 79.367 19.6792 73.4502Z" fill="#CB4850"/>
<path d="M27.3732 66.2172C27.3732 66.2172 24.4477 67.0364 24.9377 68.7258C25.4277 70.4153 29.8818 68.4113 29.8818 68.4113C29.8818 68.4113 28.302 70.2032 29.1504 71.6221C29.9988 73.0409 32.7268 70.8907 32.7268 70.8907C32.7268 70.8907 31.0008 73.1945 32.1052 74.4013C32.7634 75.1326 35.1404 72.9385 35.1404 72.9385C35.1404 72.9385 33.8531 75.7251 35.667 76.0542C37.4808 76.3833 38.7753 74.3647 38.7753 74.3647C38.7753 74.3647 38.3365 76.5588 39.6017 76.5588C40.867 76.5588 41.8251 73.9624 41.8251 73.9624C41.8251 73.9624 42.125 77.005 43.3902 76.259C44.6555 75.513 43.712 73.6699 43.712 73.6699L39.9309 74.1745C38.7262 74.4579 37.4596 74.2915 36.3691 73.7065C34.5406 72.7191 32.405 70.1081 31.5054 69.3182C30.6059 68.5284 27.6292 66.1807 27.3732 66.2172Z" fill="#F9FFFF"/>
<path d="M26.7076 48.7738C27.5487 47.5744 37.6782 47.4427 38.6217 48.7738C39.5651 50.1049 38.9288 55.3562 38.0219 56.5849C37.115 57.8136 28.1192 57.4845 27.3439 56.7238C26.5686 55.9632 25.7568 50.1269 26.7076 48.7738Z" fill="#ECFB8F"/>
<path d="M46.133 48.5179C46.2793 47.2527 55.9188 46.1702 57.1036 47.3185C58.2884 48.4667 56.8842 54.7419 55.9992 55.4806C55.1143 56.2193 48.7221 56.7824 47.5226 56.1388C46.3232 55.4952 46.0599 49.1323 46.133 48.5179Z" fill="#ECFB8F"/>
<path d="M23.7091 77.363C23.7091 77.363 26.3494 74.8544 27.9145 75.3591C29.4796 75.8637 34.0653 78.0213 34.0653 78.0213C34.0653 78.0213 36.6471 79.2426 37.7807 79.3158C38.9143 79.3889 40.5234 78.5844 41.2767 79.1988C42.03 79.8131 42.0519 81.5611 40.9841 81.8902C39.9163 82.2193 37.0567 82.4461 35.8645 81.7659C34.8547 81.2497 33.8056 80.8144 32.7269 80.464C32.1364 80.1704 31.4728 80.056 30.818 80.1349C29.8965 80.3178 28.3753 81.7513 28.3753 81.7513C27.3235 81.3232 26.3383 80.7469 25.4498 80.0398C24.7301 79.4006 23.9486 78.8346 23.1167 78.3504L23.7091 77.363Z" fill="#FF0000"/>
<path d="M24.6161 8.06565C24.6161 8.06565 23.1972 6.90277 23.1533 5.61555C23.1095 4.32834 24.6161 3.26785 25.5376 2.79977C26.4591 2.33169 30.9132 0.876262 32.5954 1.02985C34.2775 1.18344 35.6379 1.31509 35.8646 3.01918C35.998 3.98826 36.0396 4.96777 35.9889 5.94467L35.3673 7.11487C34.9631 7.08554 34.5573 7.08554 34.1532 7.11487C33.9742 7.1182 33.7983 7.16205 33.6387 7.24312C33.4791 7.32419 33.3399 7.44037 33.2317 7.58294C33.1059 7.29987 32.9216 7.04663 32.6909 6.83989C32.4602 6.63316 32.1884 6.47762 31.8932 6.38349C30.9498 6.14214 29.5382 7.92669 29.5382 7.92669C29.0414 7.35517 28.4034 6.92394 27.6879 6.67604C26.6859 6.41275 26.2617 6.72724 26.0935 7.24651C25.9915 7.5902 25.9616 7.95123 26.0057 8.307C26.0057 8.307 25.7717 7.67071 24.6161 8.06565Z" fill="#9AD8D7"/>
<path d="M44.5093 64.645C44.5093 66.393 44.5093 68.1702 44.5093 69.9475" stroke="black" stroke-linecap="round" stroke-linejoin="round"/>
<path d="M14.9618 42.9667C15.993 38.9881 23.1532 33.9635 22.7728 29.1438C21.8806 17.749 23.7236 10.8595 24.8134 8.25582C22.3048 5.45466 23.219 4.55507 24.316 3.44339C25.4131 2.3317 33.4801 -0.125708 35.3305 2.07572C37.1809 4.27715 35.3305 7.19533 35.3305 7.19533C36.4231 12.4488 36.8968 17.8121 36.7421 23.1758C36.6177 26.0208 35.155 30.8625 40.9182 36.8232C41.6496 37.6131 44.3556 41.6503 44.1143 45.1609" stroke="black" stroke-linecap="round" stroke-linejoin="round"/>
<path d="M44.2387 87.3027C44.3484 95.8524 45.2261 101.594 43.7268 109.617C42.9954 113.515 37.9636 115.161 31.2349 115.219C23.9212 115.285 15.5836 112.396 15.1813 108.761C14.8449 105.726 13.2212 58.5817 14.2232 45.7681" stroke="black" stroke-linecap="round" stroke-linejoin="round"/>
<path d="M35.3527 7.2177C34.9875 6.99243 34.5511 6.91251 34.1299 6.99379C33.7086 7.07506 33.3332 7.31159 33.0781 7.65652C33.0781 7.65652 32.7782 6.19378 31.5642 6.39856C30.3501 6.60335 29.4944 8.03684 29.4944 8.03684C29.4944 8.03684 29.136 6.77156 27.3003 6.57409C25.4645 6.37662 26.1593 8.32207 26.1593 8.32207C26.1593 8.32207 25.0915 7.40786 24.8136 8.25625" stroke="black" stroke-linecap="round" stroke-linejoin="round"/>
<path d="M22.0489 49.7026C22.4438 48.8688 22.4292 46.9453 23.1752 46.2212C25.0841 46.2651 57.3669 44.4659 57.3669 44.4659C57.3669 44.4659 59.9047 44.1368 60.0656 44.8243C60.14 45.8388 60.1106 46.8583 59.9779 47.8668C59.9779 48.4592 58.8296 48.1082 58.793 48.7664C58.62 51.6324 58.214 54.4795 57.579 57.2796C57.1548 58.8667 46.4987 59.4737 45.4455 57.9671C44.3923 56.4604 44.5898 52.5037 43.9242 49.6002C43.5951 48.1374 40.9987 48.6421 40.5819 50.4413C40.165 52.2404 40.7501 57.1699 40.2454 58.0183C39.1264 59.8979 26.3494 60.0149 25.4937 59.0788C23.9139 57.4185 24.0821 50.3608 24.0821 50.3608L22.0489 49.7026Z" stroke="black" stroke-linecap="round" stroke-linejoin="round"/>
<path d="M21.7637 49.4177C21.7637 49.4177 10.0617 43.8374 8.36492 43.106C6.66813 42.3746 3.88892 46.8506 3.03321 47.7209C2.17751 48.5913 1 46.2582 1 46.2582C1 46.2582 4.23998 39.8075 6.26588 40.0781C8.29178 40.3487 23.1167 46.1704 23.1167 46.1704" stroke="black" stroke-linecap="round" stroke-linejoin="round"/>
<path d="M58.0836 44.4369L41.5985 37.5693" stroke="black" stroke-linecap="round" stroke-linejoin="round"/>
<path d="M50.5286 44.6198L43.171 40.6411" stroke="black" stroke-linecap="round" stroke-linejoin="round"/>
<path d="M19.7963 73.5821C18.5676 69.9837 20.4326 63.2843 27.4026 66.3268C30.3281 67.5994 33.8386 72.4996 36.4643 73.8161C39.0899 75.1326 42.1909 73.4212 44.2241 73.6552C46.2573 73.8892 48.1735 79.3087 44.8458 82.3731C41.5181 85.4376 34.9211 84.1723 31.9225 83.1045C28.9238 82.0367 21.8368 79.4989 19.7963 73.5821Z" stroke="black" stroke-linecap="round" stroke-linejoin="round"/>
<path d="M42.3737 69.2744C42.3737 69.2744 45.2114 69.6108 47.7858 72.7484C49.7167 75.1034 50.5139 80.3547 47.4348 84.5455C45.972 86.5202 42.1396 87.2515 42.1396 87.2515" stroke="black" stroke-linecap="round" stroke-linejoin="round"/>
<path d="M21.5003 63.1016C19.6426 63.7845 18.1082 65.1388 17.1999 66.8974C16.527 68.1992 15.7371 71.4246 17.8581 75.5641" stroke="black" stroke-linecap="round" stroke-linejoin="round"/>
<path d="M24.945 79.8135C24.945 79.8135 19.3135 83.953 20.0229 85.3353C20.7323 86.7176 23.57 85.072 23.57 85.072C23.57 85.072 18.8746 92.0713 19.116 93.6876C19.3573 95.3039 24.4184 92.1371 24.4184 92.1371C24.4184 92.1371 22.1585 97.9369 23.6871 98.6171C25.2156 99.2972 28.419 91.1132 28.8067 88.7435C28.8067 88.7435 28.675 93.3146 29.538 93.5925C30.4011 93.8704 33.3997 85.8107 33.1437 83.6166" stroke="black" stroke-linecap="round" stroke-linejoin="round"/>
<path d="M43.778 73.7501C43.778 73.7501 44.7215 75.5931 43.4562 76.3391C42.191 77.0851 41.8911 74.0426 41.8911 74.0426C41.8911 74.0426 40.9111 76.6756 39.6385 76.6463C38.3659 76.617 38.812 74.4522 38.812 74.4522C38.812 74.4522 37.5175 76.4708 35.7037 76.1417C33.8899 75.8125 35.1771 73.026 35.1771 73.026C35.1771 73.026 32.8075 75.2201 32.1419 74.4888C31.0375 73.282 32.7636 70.9782 32.7636 70.9782C32.7636 70.9782 30.0063 73.1723 29.1872 71.7095C28.368 70.2468 29.9697 68.5061 29.9697 68.5061C29.9697 68.5061 25.4791 70.5101 25.0037 68.8206C24.5283 67.1311 27.4392 66.312 27.4392 66.312" stroke="black" stroke-linecap="round" stroke-linejoin="round"/>
<path d="M23.2994 77.9047C23.2994 77.9047 26.2249 74.4892 29.0261 75.6521C31.8272 76.815 36.4203 79.3089 37.9634 79.3089C39.5066 79.3089 41.1303 78.3509 41.7446 79.894C42.476 81.664 40.0771 82.6879 36.7494 81.8688C34.4707 81.1016 32.2365 80.2079 30.0573 79.1919" stroke="black" stroke-linecap="round" stroke-linejoin="round"/>
<path d="M28.5873 81.4077C28.5873 81.4077 30.2694 79.7768 31.6956 80.1059" stroke="black" stroke-linecap="round" stroke-linejoin="round"/>
<path d="M43.6244 56.6729C44.7231 58.2182 46.1426 59.508 47.7859 60.454C50.1117 61.5877 48.5538 64.4181 46.6303 64.4327C44.7068 64.4473 42.6078 62.6189 42.6078 62.6189" stroke="black" stroke-linecap="round" stroke-linejoin="round"/>
<path d="M26.5907 48.7372C27.4318 47.5377 37.5613 47.4061 38.5047 48.7372C39.4482 50.0683 38.8119 55.3195 37.905 56.5482C36.9981 57.777 28.0096 57.4478 27.227 56.6872C26.4444 55.9266 25.6399 50.0902 26.5907 48.7372Z" stroke="black" stroke-linecap="round" stroke-linejoin="round"/>
<path d="M46.016 48.4813C46.1622 47.216 55.8017 46.1336 56.9865 47.2819C58.1714 48.4301 56.7671 54.7053 55.8895 55.444C55.0118 56.1827 48.6123 56.7458 47.4129 56.1022C46.2134 55.4586 45.9721 49.0957 46.016 48.4813Z" stroke="black" stroke-linecap="round" stroke-linejoin="round"/>
<path d="M31.4397 51.9702L35.9157 51.9995" stroke="black" stroke-linecap="round" stroke-linejoin="round"/>
<path d="M49.4753 51.2606L53.9806 51.1802" stroke="black" stroke-linecap="round" stroke-linejoin="round"/>
<path d="M4.56165 88.758C4.56165 88.758 5.00778 87.3684 5.53437 87.5366" stroke="black" stroke-linecap="round" stroke-linejoin="round"/>
<path d="M55.2239 70.5396C55.4752 70.6969 55.6857 70.9114 55.8382 71.1656C55.9908 71.4198 56.081 71.7065 56.1016 72.0023" stroke="black" stroke-linecap="round" stroke-linejoin="round"/>
<path d="M4.50342 56.841C4.50342 56.841 5.17628 54.7566 5.96616 55.2101" stroke="black" stroke-linecap="round" stroke-linejoin="round"/>
<path d="M50.0897 34.6806L51.0113 33.6348" stroke="black" stroke-linecap="round" stroke-linejoin="round"/>
<path d="M52.3277 95.5454L52.569 96.584" stroke="black" stroke-linecap="round" stroke-linejoin="round"/>
<path d="M15.1301 17.9978L15.5251 16.7837" stroke="black" stroke-linecap="round" stroke-linejoin="round"/>
<path d="M33.707 50.7925L33.8898 52.7526" stroke="black" stroke-linecap="round" stroke-linejoin="round"/>
<path d="M32.7488 51.8749L34.5553 51.8164" stroke="black" stroke-linecap="round" stroke-linejoin="round"/>
<path d="M33.151 51.1436L34.5114 52.4747" stroke="black" stroke-linecap="round" stroke-linejoin="round"/>
<path d="M33.0707 52.6433L34.4749 51.1001" stroke="black" stroke-linecap="round" stroke-linejoin="round"/>
<path d="M51.4354 50.3394L51.6182 52.2994" stroke="black" stroke-linecap="round" stroke-linejoin="round"/>
<path d="M50.4773 51.4218L52.2838 51.3706" stroke="black" stroke-linecap="round" stroke-linejoin="round"/>
<path d="M50.8722 50.6904L52.2399 52.0288" stroke="black" stroke-linecap="round" stroke-linejoin="round"/>
<path d="M50.7991 52.1892L52.2033 50.646" stroke="black" stroke-linecap="round" stroke-linejoin="round"/>
<path d="M28.6969 104.848C30.3205 104.388 30.1596 108.015 28.4994 108.432C26.8392 108.849 27.4316 105.207 28.6969 104.848Z" stroke="black" stroke-linecap="round" stroke-linejoin="round"/>
<path d="M33.7289 2.87285L31.7249 2.73389" stroke="black" stroke-linecap="round" stroke-linejoin="round"/>
</svg>
