<svg width="82" height="106" viewBox="0 0 82 106" fill="none" xmlns="http://www.w3.org/2000/svg">
<path d="M52.7286 6.20924C52.4141 4.96591 47.9747 3.19599 41.9701 1.68205C35.9655 0.16811 34.6564 1.28711 29.8074 3.92736C24.9584 6.56762 24.0881 10.5097 22.3474 13.874C20.6067 17.2383 17.4984 21.1877 16.3209 28.7648C15.1434 36.3418 17.3594 43.458 19.1001 49.5869C20.8408 55.7158 24.8779 58.0123 26.9916 61.4717C29.1053 64.9311 33.574 74.2854 36.8359 77.2401C40.0978 80.1949 50.5857 81.7454 53.7818 81.27C56.9779 80.7946 62.7045 76.6696 62.9385 74.6218C63.1726 72.574 64.4013 58.5316 64.2696 56.8933C64.138 55.2551 66.2736 51.8908 66.2736 51.8908C67.3926 48.3509 69.2795 41.9148 69.0016 38.7261C68.7237 35.5373 66.259 20.7343 64.7304 17.0116C64.4847 15.9525 63.9651 14.9765 63.2238 14.1812C63.2238 14.1812 62.9897 11.6799 61.5782 11.1753C60.141 10.7871 58.6727 10.5252 57.19 10.3927C56.6146 9.52836 55.8678 8.7915 54.9958 8.22783C54.3202 7.81797 53.5774 7.53076 52.8017 7.37944L52.7286 6.20924Z" fill="#DA4F4D"/>
<path d="M66.0906 16.2434C67.195 15.5706 62.7336 12.4769 56.773 13.7933C50.8123 15.1098 49.3861 15.0294 46.3363 14.8831C43.2865 14.7368 38.1742 13.9469 35.5412 14.1737C32.9083 14.4004 27.6497 16.6676 27.5693 18.0865C27.4888 19.5054 27.8764 19.2786 31.4382 18.3644C35 17.4502 37.7865 16.8139 40.2147 17.0114C42.6428 17.2089 46.5996 18.2913 49.6128 18.0353C52.6261 17.7793 58.1918 16.4994 59.1938 16.4117C60.1958 16.3239 65.3154 16.7115 66.0906 16.2434Z" fill="#7B633B"/>
<path d="M42.3357 34.6596C39.0372 36.3783 33.0692 35.2447 31.3651 31.5439C29.661 27.8432 31.0506 20.6392 36.2068 19.3885C41.363 18.1379 44.5883 20.3027 45.6488 23.2429C46.7093 26.183 46.9945 32.2387 42.3357 34.6596Z" fill="white"/>
<path d="M50.2711 27.9091C49.408 24.7934 54.1108 18.2476 57.9651 18.35C59.5005 18.3052 61.0047 18.7893 62.2256 19.7214C63.4466 20.6534 64.3102 21.9767 64.6718 23.4696C65.5129 26.2342 66.1345 30.8419 61.8194 32.8239C57.5043 34.8059 52.019 34.2427 50.2711 27.9091Z" fill="white"/>
<path d="M43.1111 51.7299C43.1111 51.7299 44.0838 55.6866 45.3052 56.3229C46.5266 56.9592 48.2746 54.4725 48.2746 54.4725C48.2746 54.4725 46.4461 60.1919 48.6988 60.4771C50.9514 60.7623 52.1289 56.8861 52.1289 56.8861C52.1289 56.8861 49.7519 65.8746 52.1289 65.5821C54.5059 65.2895 56.7585 57.0104 56.7585 57.0104C56.7585 57.0104 57.8336 58.2245 58.8941 57.7418C59.9546 57.2591 59.0623 50.6548 59.0623 50.6548C57.1619 51.3655 55.1826 51.8444 53.1675 52.081C50.2785 52.3443 44.3837 52.1175 43.1111 51.7299Z" fill="#9AD8D7"/>
<path d="M40.6536 69.8243C38.401 69.2246 40.7268 64.8802 42.27 66.065C43.8132 67.2499 42.1017 70.1754 40.6536 69.8243Z" fill="#9AD8D7"/>
<path d="M2.00066 71.6817C0.252683 71.7914 0.969428 67.3739 2.80517 68.6392C4.64092 69.9044 3.41952 71.5939 2.00066 71.6817Z" fill="#9AD8D7"/>
<path d="M27.935 96.5046C30.0413 96.8191 29.0759 103.526 24.8413 101.983C22.084 101.01 25.5361 96.1828 27.935 96.5046Z" fill="#9AD8D7"/>
<path d="M63.2018 28.3477L63.4212 30.1468" stroke="black" stroke-linecap="round" stroke-linejoin="round"/>
<path d="M62.1707 29.4156L64.1746 29.1011" stroke="black" stroke-linecap="round" stroke-linejoin="round"/>
<path d="M62.3827 28.6255L64.0941 29.8103" stroke="black" stroke-linecap="round" stroke-linejoin="round"/>
<path d="M62.7996 29.833L63.6772 28.4507" stroke="black" stroke-linecap="round" stroke-linejoin="round"/>
<path d="M35.9583 30.0593L36.0387 28.1797" stroke="black" stroke-linecap="round" stroke-linejoin="round"/>
<path d="M34.9928 29.1376L37.0041 29.1011" stroke="black" stroke-linecap="round" stroke-linejoin="round"/>
<path d="M35.4974 28.5376L36.4994 29.7005" stroke="black" stroke-linecap="round" stroke-linejoin="round"/>
<path d="M36.5068 28.6113L35.4902 29.6279" stroke="black" stroke-linecap="round" stroke-linejoin="round"/>
<path d="M64.9717 17.0262C66.5003 20.7415 68.965 35.5226 69.2429 38.7406C69.5209 41.9587 67.6339 48.3947 66.5149 51.9053C66.5149 51.9053 64.372 55.3281 64.511 56.9372C64.6499 58.5462 63.4066 72.6251 63.1799 74.6656C62.9531 76.7061 57.2265 80.8384 54.0231 81.3138C50.8197 81.7892 40.3684 80.2679 37.0699 77.3059C33.7714 74.3438 29.3466 65.0042 27.2037 61.5375C25.0608 58.0708 21.0455 55.7816 19.3122 49.6527C17.5788 43.5238 15.3554 36.4222 16.5403 28.8305C17.7251 21.2389 20.8334 17.326 22.5668 13.9398C24.3001 10.5535 25.1851 6.62606 30.0268 3.99313C34.8685 1.36019 36.2142 0.226558 42.2114 1.7405C48.2087 3.25444 52.8017 5.08287 53.1966 7.08683" stroke="black" stroke-linecap="round" stroke-linejoin="round"/>
<path d="M57.0876 9.99734C57.0876 9.99734 54.8569 7.55455 51.8071 7.40828C48.7573 7.262 45.9927 8.13965 42.504 7.59112C39.0154 7.04259 33.1717 7.37171 29.7416 9.88763" stroke="black" stroke-linecap="round" stroke-linejoin="round"/>
<path d="M63.4579 13.5082C63.4579 13.5082 61.5782 10.2024 58.9307 10.2462C56.2831 10.2901 53.6867 10.4876 49.4667 10.846C45.2467 11.2043 39.8492 9.6392 37.6331 9.82205C35.417 10.0049 29.588 12.9304 29.588 12.9304" stroke="black" stroke-linecap="round" stroke-linejoin="round"/>
<path d="M66.3321 16.3021C67.4291 15.6293 62.9751 12.5429 57.0071 13.8594C51.0391 15.1758 49.6202 15.0954 46.5704 14.9491C43.5206 14.8028 38.3937 14.0203 35.7753 14.2177C33.157 14.4152 27.8838 16.7117 27.8034 18.1306C27.7229 19.5494 28.1032 19.3227 31.6723 18.4085C35.2414 17.4943 38.0207 16.858 40.4488 17.0555C42.877 17.2529 46.8629 18.3573 49.8762 18.1013C52.8894 17.8453 58.4552 16.5654 59.4572 16.4777C60.4591 16.3899 65.5568 16.7848 66.3321 16.3021Z" stroke="black" stroke-linecap="round" stroke-linejoin="round"/>
<path d="M48.567 28.9473C48.567 28.9473 51.9093 37.3727 52.0629 39.1865C52.2165 41.0003 53.0356 41.1246 50.293 42.1705C48.5551 42.7942 46.6844 42.953 44.8662 42.6312" stroke="black" stroke-linecap="round" stroke-linejoin="round"/>
<path d="M37.6915 51.1592C37.6915 51.1592 45.3636 52.834 51.3974 52.322C55.2118 51.9469 58.9435 50.9745 62.4558 49.4404" stroke="black" stroke-linecap="round" stroke-linejoin="round"/>
<path d="M62.7702 45.9668C62.7702 45.9668 65.4836 46.9541 64.9059 49.6237C64.3281 52.2932 62.0754 52.0884 62.0754 52.0884" stroke="black" stroke-linecap="round" stroke-linejoin="round"/>
<path d="M37.399 47.7148C37.399 47.7148 33.0107 48.8924 34.0493 51.2401C35.0878 53.5878 38.9787 54.4654 38.9787 54.4654" stroke="black" stroke-linecap="round" stroke-linejoin="round"/>
<path d="M42.5625 34.7179C39.264 36.4366 33.296 35.303 31.5919 31.6022C29.8878 27.9015 31.2774 20.6975 36.4336 19.4468C41.5898 18.1962 44.8151 20.3537 45.8756 23.3012C46.9361 26.2486 47.2286 32.3044 42.5625 34.7179Z" stroke="black" stroke-linecap="round" stroke-linejoin="round"/>
<path d="M50.5125 27.9747C49.6495 24.8298 54.3522 18.3352 58.2065 18.4083C59.7432 18.3618 61.2491 18.8452 62.4716 19.7774C63.694 20.7095 64.5587 22.0338 64.9205 23.528C65.7616 26.2925 66.3833 30.9002 62.0682 32.8822C57.7531 34.8642 52.2605 34.3376 50.5125 27.9747Z" stroke="black" stroke-linecap="round" stroke-linejoin="round"/>
<path d="M43.6814 52.3224C43.6814 52.3224 44.325 55.7526 45.5537 56.3889C46.7824 57.0252 48.5231 54.5385 48.5231 54.5385C48.5231 54.5385 46.6947 60.2578 48.9473 60.5431C51.1999 60.8283 52.3774 56.952 52.3774 56.952C52.3774 56.952 49.9931 65.9406 52.3774 65.648C54.7617 65.3555 56.9704 57.091 56.9704 57.091C56.9704 57.091 58.0455 58.3051 59.106 57.8223C60.1665 57.3396 59.2742 50.7354 59.2742 50.7354" stroke="black" stroke-linecap="round" stroke-linejoin="round"/>
<path d="M40.895 69.8897C38.6423 69.29 40.9681 64.9456 42.5113 66.1305C44.0545 67.3153 42.3431 70.27 40.895 69.8897Z" stroke="black" stroke-linecap="round" stroke-linejoin="round"/>
<path d="M2.24196 71.7476C0.493982 71.8573 1.21073 67.4398 3.06841 68.7124C4.9261 69.985 3.66082 71.6379 2.24196 71.7476Z" stroke="black" stroke-linecap="round" stroke-linejoin="round"/>
<path d="M28.1472 96.5998C30.2535 96.9143 29.2881 103.621 25.0535 102.078C22.3035 101.076 25.741 96.2487 28.1472 96.5998Z" stroke="black" stroke-linecap="round" stroke-linejoin="round"/>
<path d="M80.762 39.8086L79.014 40.167" stroke="black" stroke-linecap="round" stroke-linejoin="round"/>
<path d="M6.46196 47.0127L4.79443 48.6363" stroke="black" stroke-linecap="round" stroke-linejoin="round"/>
<path d="M8.79513 102.231C8.22579 103.221 7.56203 104.155 6.81311 105.017" stroke="black" stroke-linecap="round" stroke-linejoin="round"/>
<path d="M22.5742 42.0903C21.6965 41.5125 23.0496 39.6475 23.6493 39.9766" stroke="black" stroke-linecap="round" stroke-linejoin="round"/>
<path d="M23.8759 26.8413C23.8759 26.8413 23.1445 28.2017 22.3766 27.9823" stroke="black" stroke-linecap="round" stroke-linejoin="round"/>
<path d="M54.2645 75.8433C54.2645 75.8433 55.091 77.2621 54.1621 77.5254" stroke="black" stroke-linecap="round" stroke-linejoin="round"/>
<path d="M64.5037 38.9819C64.5037 38.9819 64.8401 37.702 65.3228 37.8264" stroke="black" stroke-linecap="round" stroke-linejoin="round"/>
<path d="M32.1185 66.8984C31.7299 67.3228 31.5202 67.881 31.5334 68.4563" stroke="black" stroke-linecap="round" stroke-linejoin="round"/>
<path d="M40.9973 3.62002C40.9973 3.62002 41.4069 1.05291 42.2187 1.74771" stroke="black" stroke-linecap="round" stroke-linejoin="round"/>
<path d="M48.1063 46.625C48.1565 46.7327 48.1796 46.851 48.1738 46.9697C48.168 47.0884 48.1333 47.2039 48.0728 47.3062C48.0123 47.4084 47.9278 47.4944 47.8266 47.5567C47.7254 47.619 47.6105 47.6556 47.4919 47.6635" stroke="black" stroke-linecap="round" stroke-linejoin="round"/>
<path d="M62.5728 63.8267L63.8527 64.1631" stroke="black" stroke-linecap="round" stroke-linejoin="round"/>
</svg>
