<svg width="97" height="122" viewBox="0 0 97 122" fill="none" xmlns="http://www.w3.org/2000/svg">
<path d="M59.5483 117.843C59.5483 117.843 69.3876 110.463 70.6818 108.521C71.976 106.579 74.9544 102.177 74.9544 102.177C74.9544 102.177 78.1906 95.5743 78.4501 94.538C78.7096 93.5025 81.5574 83.4044 81.5574 83.4044L83.1111 78.355L85.5721 59.969C85.5721 59.969 84.2763 36.7938 81.6879 29.6726C79.098 22.5522 58.6409 18.1499 57.8641 18.1499C57.0873 18.1499 29.6395 19.3151 25.8843 22.5522C22.1299 25.7892 13.9731 63.8532 13.9731 63.8532L16.821 84.1813C16.821 84.1813 19.5399 96.3511 20.5762 99.199C21.6117 102.048 26.7909 107.096 26.7909 107.096C26.7909 107.096 36.3715 114.995 41.5506 118.36C41.5506 118.36 46.7266 120.95 49.1892 120.95C53.9799 120.95 59.5483 117.843 59.5483 117.843Z" fill="#F8C2A0"/>
<path d="M17.5984 68.514L13.5853 62.2994C13.5853 62.2994 10.3482 56.3442 8.79456 55.6963C7.2409 55.0492 3.35674 56.2152 2.1915 58.6747C1.02625 61.1341 0.896514 65.0183 1.54439 67.7372C2.19149 70.4561 4.78067 77.0591 5.81696 78.7425C6.85248 80.4259 9.18297 84.1811 11.6432 84.6985C14.1026 85.2159 17.3397 85.0869 18.6347 83.4035L17.5984 68.514Z" fill="#F8C2A0"/>
<path d="M80.5225 76.153L81.2993 84.0503C81.2993 84.0503 81.6877 86.6402 82.5935 87.6765C83.4993 88.7113 86.0892 88.1939 87.5139 87.4171C88.9371 86.6402 91.2676 83.5329 92.0444 81.9793C92.8212 80.4256 94.246 75.5052 94.7633 73.5631C95.2822 71.621 95.9286 63.0766 95.5402 61.6527C95.1517 60.228 93.2096 58.9338 91.9154 58.5454C90.6212 58.1569 88.5495 58.6743 87.5139 59.1917C86.4776 59.7106 82.9819 64.3716 82.9819 64.3716L80.5225 76.153Z" fill="#F8C2A0"/>
<path d="M84.273 65.9998C84.3716 60.5922 81.9759 53.8377 80.7602 44.1071C80.1721 39.398 78.5982 27.8908 72.5172 25.0538C70.0212 23.8886 64.5687 21.2116 57.1119 20.9995C46.4001 20.6927 32.9843 23.2857 30.3547 24.242C25.8957 25.864 23.0137 30.386 21.4367 38.4316C20.0858 45.3237 16.5714 60.3243 16.0315 62.2158C15.4908 64.109 15.2205 65.5943 15.2205 65.5943L13.5992 61.54C13.5992 61.54 13.5992 45.8643 13.5992 42.8914C13.5992 39.9184 11.4366 28.8362 11.7061 25.3242C11.9772 21.8106 18.7333 9.91802 23.5986 6.40519C28.4639 2.89237 44.1396 1 46.0311 1C47.9235 1 48.7337 2.35092 48.7337 2.35092L49.8143 1.26957L51.977 2.8916L53.5983 1.26957L56.8423 3.16194C56.8423 3.16194 57.383 -0.0813378 63.0585 2.35092C68.7348 4.78395 77.9232 9.65003 79.8147 11.8112C81.7063 13.9723 81.1657 15.8647 81.1657 15.8647H83.058L82.5181 18.0266L83.5995 18.5672L85.7614 20.73L84.68 22.8911C84.68 22.8911 87.1123 23.4318 87.9233 25.864C88.7335 28.2963 87.653 51.2687 87.653 53.7018C87.653 56.1348 87.653 58.8366 87.653 58.8366L84.273 65.9998Z" fill="#3A3A3D"/>
<path d="M26.6857 59.7501C28.7777 57.6379 33.7548 55.6531 37.9901 57.0421C41.4361 58.1716 44.3764 60.6707 42.3777 63.8604C38.398 70.2117 21.4257 65.0621 26.6857 59.7501Z" fill="white"/>
<path d="M56.0313 63.2805C55.5699 61.1644 59.6622 57.605 63.5712 57.605C67.4802 57.605 72.9266 58.9551 72.7876 62.7391C72.5918 68.0091 57.1484 68.4162 56.0313 63.2805Z" fill="white"/>
<path d="M37.4727 94.0521C37.4727 94.0521 40.1916 93.0811 41.9394 92.6926C43.6873 92.3042 45.6294 92.6926 45.6294 92.6926L47.9599 94.0521C47.9599 94.0521 50.4846 92.4984 51.844 92.8869C53.2035 93.2753 58.1558 94.8289 58.1558 94.8289L57.1847 95.6058C57.1847 95.6058 55.9224 97.8392 54.9513 98.5189C53.9803 99.1986 49.8048 101.723 48.2512 101.82C46.6975 101.918 43.5902 100.267 42.5221 99.3928C41.4539 98.5189 38.0553 95.3145 38.0553 95.3145L37.4727 94.0521Z" fill="#DF7C6C"/>
<path d="M81.4746 83.6639C80.1641 87.7873 79.3663 91.6746 78.8629 93.6897C77.6464 98.555 72.6801 106.015 70.6192 108.42C65.7539 114.095 57.2406 120.582 50.3486 120.988C43.4573 121.392 32.1055 111.662 28.8615 108.825C25.619 105.988 21.1592 102.339 19.5379 96.6634C18.6959 93.7145 17.5252 87.7018 16.5938 81.8096" stroke="black" stroke-miterlimit="10" stroke-linecap="round" stroke-linejoin="round"/>
<path d="M78.3216 82.339C81.0242 78.5559 84.2675 73.6898 84.4026 66.2579C84.5005 60.8503 82.1048 54.0958 80.8898 44.366C80.301 39.6568 78.7271 28.1496 72.6461 25.3119C70.1501 24.1474 64.6975 21.4704 57.2407 21.2576C46.529 20.9523 33.1131 23.5438 30.4843 24.5016C26.0253 26.1229 23.1425 30.6448 21.5656 38.6912C20.2154 45.5825 16.7003 60.5831 16.1604 62.4755C15.6205 64.3678 15.3501 65.8531 15.3501 65.8531L13.7281 61.7988C13.7281 61.7988 13.7281 46.1232 13.7281 43.1502C13.7281 40.1765 11.5662 29.0958 11.8358 25.5822C12.1069 22.0694 18.863 10.1769 23.7283 6.66328C28.5928 3.15045 44.2685 1.25732 46.1608 1.25732C48.0524 1.25732 48.8634 2.609 48.8634 2.609L49.9448 1.52844L52.1067 3.14966L53.7287 1.52844L56.972 3.42002C56.972 3.42002 57.5126 0.176745 63.1889 2.609C68.8645 5.04126 78.0536 9.90731 79.9444 12.0692C81.8375 14.2304 81.2961 16.1235 81.2961 16.1235H83.1877L82.6485 18.2847L83.7291 18.8253L85.8918 20.9873L84.8097 23.1492C84.8097 23.1492 87.2419 23.6899 88.053 26.1221C88.864 28.5552 87.7826 51.5276 87.7826 53.9599C87.7826 56.3921 87.7826 59.0955 87.7826 59.0955" stroke="black" stroke-miterlimit="10" stroke-linecap="round" stroke-linejoin="round"/>
<path d="M17.2403 84.2589C17.2403 84.2589 15.149 85.8234 11.4894 84.5199C7.82817 83.2148 3.92304 75.9111 2.33831 70.4414C-1.0611 58.7097 3.90674 55.8424 7.30459 55.5814C10.5308 55.3336 13.5806 62.6203 13.5806 62.6203" stroke="black" stroke-width="0.966" stroke-miterlimit="10" stroke-linecap="round" stroke-linejoin="round"/>
<path d="M86.1599 60.7182C86.1599 60.7182 88.3211 57.2038 92.3761 58.5555C96.4304 59.9064 95.6194 65.0413 95.6194 67.7447C95.6194 70.4473 93.9981 78.0151 92.1058 82.0686C90.803 84.8614 87.7819 88.2841 84.5387 88.2849C81.457 88.2864 81.2954 83.6907 81.2954 83.6907" stroke="black" stroke-miterlimit="10" stroke-linecap="round" stroke-linejoin="round"/>
<path d="M26.8148 59.6215C28.9068 57.5085 33.8848 55.5237 38.1193 56.9127C41.5653 58.0422 44.5048 60.5413 42.5068 63.7317C38.5271 70.0823 21.5557 64.9335 26.8148 59.6215Z" stroke="black" stroke-miterlimit="10" stroke-linecap="round" stroke-linejoin="round"/>
<path d="M56.161 63.1506C55.6995 61.0353 59.7911 57.4751 63.7009 57.4751C67.6099 57.4751 73.0563 58.826 72.9164 62.6099C72.7207 67.8792 57.278 68.2863 56.161 63.1506Z" stroke="black" stroke-width="1.0165" stroke-miterlimit="10" stroke-linecap="round" stroke-linejoin="round"/>
<path d="M25.0784 55.582C25.0784 55.582 29.1326 49.6361 34.8074 48.5556C37.5411 48.0351 39.943 50.9871 42.3753 53.149" stroke="black" stroke-miterlimit="10" stroke-linecap="round" stroke-linejoin="round"/>
<path d="M54.2673 56.1225C54.2673 56.1225 57.5114 51.5283 62.9166 51.7986C65.8856 51.9477 71.0251 53.9621 71.8354 55.0434" stroke="black" stroke-miterlimit="10" stroke-linecap="round" stroke-linejoin="round"/>
<path d="M48.8619 49.0962C48.8619 49.0962 49.133 53.6912 48.322 53.6912" stroke="black" stroke-miterlimit="10" stroke-linecap="round" stroke-linejoin="round"/>
<path d="M58.2546 94.84C56.6318 94.5696 53.3893 92.8808 51.2274 92.8808C49.0655 92.8808 48.2545 94.2317 48.2545 94.2317C48.2545 94.2317 46.6324 92.8808 45.0104 92.6097C43.3892 92.3386 38.795 93.3516 37.3074 93.893" stroke="black" stroke-miterlimit="10" stroke-linecap="round" stroke-linejoin="round"/>
<path d="M56.6318 97.0017C56.6318 97.0017 51.7673 101.732 47.7138 101.732C43.9298 101.732 38.5246 95.7852 37.7136 94.7046" stroke="black" stroke-miterlimit="10" stroke-linecap="round" stroke-linejoin="round"/>
<path d="M36.2275 93.8936C36.2275 93.8936 44.8084 96.5962 48.0517 96.8665C48.8604 96.9333 57.3092 95.3789 57.3092 95.3789C57.3092 95.3789 58.5249 95.1093 59.3359 94.7038" stroke="black" stroke-miterlimit="10" stroke-linecap="round" stroke-linejoin="round"/>
<path d="M42.1057 79.9082C39.5383 81.6638 38.1866 84.0969 36.0247 87.0698" stroke="black" stroke-miterlimit="10" stroke-linecap="round" stroke-linejoin="round"/>
<path d="M57.376 80.8535C57.376 80.8535 61.1599 83.8256 61.6998 85.9875" stroke="black" stroke-miterlimit="10" stroke-linecap="round" stroke-linejoin="round"/>
<path d="M43.457 83.1507C43.457 83.1507 44.7909 87.2609 49.4029 86.258C52.511 85.5829 53.4572 82.0693 53.4572 82.0693" stroke="black" stroke-miterlimit="10" stroke-linecap="round" stroke-linejoin="round"/>
<path d="M54.5382 56.3921C54.5382 56.3921 51.5653 60.176 52.3755 63.4201C53.1865 66.6633 54.9437 76.7979 54.9437 76.7979" stroke="black" stroke-miterlimit="10" stroke-linecap="round" stroke-linejoin="round"/>
<path d="M55.301 79.0967C55.301 79.0967 59.6256 82.3407 57.4629 83.6924C55.301 85.0433 52.5984 84.5026 52.5984 84.5026" stroke="black" stroke-miterlimit="10" stroke-linecap="round" stroke-linejoin="round"/>
<path d="M42.5991 79.6377C42.5991 79.6377 38.4563 82.4747 40.3494 84.3662C41.6312 85.6472 44.6733 85.1773 44.6733 85.1773" stroke="black" stroke-miterlimit="10" stroke-linecap="round" stroke-linejoin="round"/>
<path d="M15.619 66.1226C15.619 66.1226 15.2671 71.4283 16.6996 74.771C17.5106 76.6649 22.1055 85.0415 22.1055 85.0415" stroke="black" stroke-miterlimit="10" stroke-linecap="round" stroke-linejoin="round"/>
<path d="M61.1016 92.4741C61.1016 92.4741 62.4051 92.7444 62.3087 94.8396" stroke="black" stroke-miterlimit="10" stroke-linecap="round" stroke-linejoin="round"/>
<path d="M35.5509 91.8662C35.5509 91.8662 33.389 92.5428 33.5242 94.3" stroke="black" stroke-miterlimit="10" stroke-linecap="round" stroke-linejoin="round"/>
<path d="M36.2944 10.0405L37.1054 11.9345" stroke="black" stroke-miterlimit="10" stroke-linecap="round" stroke-linejoin="round"/>
<path d="M24.6731 13.5552L27.3757 14.3662" stroke="black" stroke-miterlimit="10" stroke-linecap="round" stroke-linejoin="round"/>
<path d="M14.4031 17.8784L15.754 18.9605" stroke="black" stroke-miterlimit="10" stroke-linecap="round" stroke-linejoin="round"/>
<path d="M32.781 2.20361L34.1319 3.2834" stroke="black" stroke-miterlimit="10" stroke-linecap="round" stroke-linejoin="round"/>
<path d="M12.5107 37.6089L14.4031 38.1488" stroke="black" stroke-miterlimit="10" stroke-linecap="round" stroke-linejoin="round"/>
<path d="M72.5109 5.7168L71.1592 8.41937" stroke="black" stroke-miterlimit="10" stroke-linecap="round" stroke-linejoin="round"/>
<path d="M87.3756 29.771L86.0239 30.8523" stroke="black" stroke-miterlimit="10" stroke-linecap="round" stroke-linejoin="round"/>
<path d="M63.8625 17.8784L63.0515 20.3115" stroke="black" stroke-miterlimit="10" stroke-linecap="round" stroke-linejoin="round"/>
<path d="M84.1332 44.3657L82.7808 44.9056" stroke="black" stroke-miterlimit="10" stroke-linecap="round" stroke-linejoin="round"/>
<path d="M88.1867 51.3921L84.6731 53.2845" stroke="black" stroke-miterlimit="10" stroke-linecap="round" stroke-linejoin="round"/>
<path d="M63.1875 2.60889L61.1592 4.63564" stroke="black" stroke-miterlimit="10" stroke-linecap="round" stroke-linejoin="round"/>
<path d="M47.376 19.2305L48.7269 21.3924" stroke="black" stroke-miterlimit="10" stroke-linecap="round" stroke-linejoin="round"/>
<path d="M34.0259 60.4175L34.8617 62.4054" stroke="black" stroke-miterlimit="10" stroke-linecap="round" stroke-linejoin="round"/>
<path d="M35.3862 61.0459L33.3975 62.0923" stroke="black" stroke-miterlimit="10" stroke-linecap="round" stroke-linejoin="round"/>
<path d="M35.7366 61.8819L33.0969 61.1089" stroke="black" stroke-miterlimit="10" stroke-linecap="round" stroke-linejoin="round"/>
<path d="M34.8362 60.4009L34.127 62.5255" stroke="black" stroke-miterlimit="10" stroke-linecap="round" stroke-linejoin="round"/>
<path d="M63.7183 60.9673L64.5541 62.956" stroke="black" stroke-miterlimit="10" stroke-linecap="round" stroke-linejoin="round"/>
<path d="M65.0782 61.5967L63.0903 62.6423" stroke="black" stroke-miterlimit="10" stroke-linecap="round" stroke-linejoin="round"/>
<path d="M65.4287 62.4321L62.7898 61.6592" stroke="black" stroke-miterlimit="10" stroke-linecap="round" stroke-linejoin="round"/>
<path d="M64.5283 60.9507L63.8191 63.0761" stroke="black" stroke-miterlimit="10" stroke-linecap="round" stroke-linejoin="round"/>
<path d="M6.83545 62.7446C6.83545 62.7446 11.9703 68.4202 12.2414 70.5829" stroke="black" stroke-miterlimit="10" stroke-linecap="round" stroke-linejoin="round"/>
<path d="M91.1594 63.5557C91.1594 63.5557 87.9154 66.5286 87.3755 68.6905" stroke="black" stroke-miterlimit="10" stroke-linecap="round" stroke-linejoin="round"/>
</svg>
