<svg width="94" height="122" viewBox="0 0 94 122" fill="none" xmlns="http://www.w3.org/2000/svg">
<path d="M91.9225 104.084C87.9292 108.875 75.0204 111.734 63.2892 110.908C41.5894 109.379 29.1561 100.632 21.8424 92.024C15.9914 85.1418 7.88048 70.1267 8.50946 50.6503C9.13844 31.1738 13.7973 24.7378 18.5658 19.1501C21.3377 15.8955 24.7313 15.4128 24.8922 12.224C25.0531 9.03521 21.5937 3.44753 23.5099 2.02135C25.4261 0.595177 28.7538 0.821903 30.1946 1.7288C31.6354 2.63571 30.6188 4.96878 29.1561 9.52523C27.4959 14.8716 30.4579 16.7 32.0816 19.5231C34.3854 23.5237 36.4698 28.2484 37.8009 38.5388C39.132 48.8292 42.5109 60.5531 47.0455 69.0589C52.6112 79.4956 61.6729 85.9682 70.4494 88.4257C79.2258 90.8831 85.5376 93.2161 88.3022 94.6935C89.4797 95.3225 92.2516 97.619 92.5514 99.3889C93.097 100.02 93.3774 100.838 93.334 101.671C93.473 103.375 92.7855 104.128 91.9225 104.084Z" fill="#F5D233"/>
<path d="M27.3276 50.0948C27.5589 49.5396 27.665 48.9403 27.6385 48.3394C27.612 47.7385 27.4535 47.1509 27.1743 46.6182C26.895 46.0855 26.5018 45.6208 26.0227 45.2572C25.5436 44.8936 24.9903 44.64 24.4021 44.5144C20.8037 43.6002 18.9826 45.6261 18.456 46.9645C17.4029 49.634 18.829 52.0841 21.2718 53.0861C23.7146 54.0881 26.3695 52.5449 27.3276 50.0948Z" fill="white"/>
<path d="M27.6932 50.146C27.6932 50.146 29.156 52.5376 31.4086 52.7862C32.0196 52.8797 32.6431 52.8482 33.2416 52.6938C33.8401 52.5394 34.401 52.2652 34.8905 51.8878C35.38 51.5104 35.7879 51.0377 36.0895 50.4982C36.3911 49.9587 36.5801 49.3637 36.6452 48.7491C36.85 46.2258 34.8899 43.7611 32.5276 43.666C30.1653 43.5709 27.898 45.4798 27.6932 46.6939V50.146Z" fill="white"/>
<path d="M28.9586 65.0366C31.3794 64.8684 34.6779 62.6085 36.009 60.3266C37.3401 58.0447 36.5648 55.4264 33.654 55.9384C30.7431 56.4503 30.67 57.5474 28.4247 57.6937C26.1794 57.8399 24.8629 56.2309 22.3762 56.1578C19.8896 56.0846 17.9953 57.0647 17.4541 58.5274C16.9129 59.9902 17.3956 62.0892 20.7526 63.7641C24.1096 65.4389 25.2359 65.2926 28.9586 65.0366Z" fill="#DA4F4D"/>
<path d="M33.2883 56.0918C33.2883 56.0918 33.8807 57.3205 33.2883 57.6716C32.6959 58.0226 31.8256 56.6403 31.8256 56.6403C31.8256 56.6403 32.3887 58.4322 31.5769 58.5273C30.7651 58.6223 30.5237 57.6789 30.5237 57.6789C30.6254 58.0338 30.6008 58.413 30.4541 58.7518C30.3074 59.0906 30.0477 59.3679 29.7192 59.5366C28.5636 60.0339 28.7026 57.7301 28.7026 57.7301C28.7026 57.7301 28.7026 59.9973 27.6275 59.8291C26.5524 59.6609 27.2106 57.8325 27.2106 57.8325C27.2106 57.8325 26.4792 59.639 25.5284 59.1489C24.5777 58.6589 25.6235 57.123 25.6235 57.123C25.6235 57.123 24.6362 58.6662 23.817 58.4761C22.9979 58.2859 23.4806 56.6623 23.4806 56.6623C23.4806 56.6623 22.3324 58.2493 21.6156 57.7959C20.8989 57.3424 21.5205 56.2527 21.5205 56.2527C22.4069 56.1662 23.3012 56.2889 24.1315 56.6111C25.2948 57.1544 26.5242 57.5429 27.7884 57.7666C28.8352 57.6713 29.8574 57.3941 30.809 56.9475C31.5865 56.5365 32.4228 56.2479 33.2883 56.0918Z" fill="white"/>
<path d="M33.4126 62.747C33.4126 62.747 33.4492 61.4452 32.2863 62.0157C32.136 62.0712 32.0012 62.1619 31.8932 62.2802C31.7851 62.3986 31.7071 62.5411 31.6655 62.6958C31.624 62.8506 31.6201 63.013 31.6543 63.1695C31.6885 63.3261 31.7598 63.4721 31.8621 63.5954C31.8621 63.5954 31.4452 62.279 30.3994 62.6739C29.3535 63.0688 30.3262 64.5316 30.3262 64.5316C30.3262 64.5316 29.4193 62.7397 28.5855 63.003C27.7518 63.2663 28.1175 64.8534 28.1175 64.8534C28.1175 64.8534 27.6494 62.7982 26.9473 62.9665C26.2452 63.1347 26.0184 64.8607 26.0184 64.8607C26.0184 64.8607 26.0184 63.0469 25.1847 62.9738C24.3509 62.9006 24.0364 64.8168 24.0364 64.8168C24.0364 64.8168 24.1754 62.9079 23.3416 62.7763C22.5078 62.6447 22.1495 64.378 22.1495 64.378C22.1495 64.378 22.1495 62.5642 21.5205 62.63C20.8915 62.6958 20.2333 63.6101 20.2333 63.6101C21.7353 64.4337 23.4015 64.9133 25.1115 65.0143C27.9785 65.1679 31.1746 65.3946 33.4126 62.747Z" fill="white"/>
<path d="M26.8448 65.1534C26.8448 65.1534 26.501 67.311 25.6015 67.6182C24.7019 67.9253 23.8827 67.0038 23.0855 67.0477C22.2883 67.0916 21.4546 69.7903 20.6793 69.666C19.9041 69.5417 19.8602 68.5104 19.9992 67.1793C20.2317 66.054 20.5596 64.9506 20.9792 63.8809C21.838 64.3203 22.7221 64.7086 23.6268 65.0437C24.6883 65.2378 25.7725 65.2747 26.8448 65.1534Z" fill="#49B6BB"/>
<path d="M27.0131 75.2461C27.408 74.2222 26.662 72.1304 25.6308 72.7302C24.5996 73.3299 24.9652 76.387 25.7771 76.5772C26.5889 76.7673 26.5816 76.3651 27.0131 75.2461Z" fill="#49B6BB"/>
<path d="M20.9794 42.1003C22.9321 42.4148 23.4075 39.1748 25.4042 38.8969C27.4008 38.619 30.8748 39.2626 31.6135 39.9793C32.3522 40.6961 32.7252 41.5225 33.7638 41.4421C34.8023 41.3616 34.188 39.2992 33.1202 38.5166C32.0524 37.734 28.1249 36.2713 25.7479 36.7394C23.371 37.2074 20.6283 39.0651 20.2773 40.1183C19.9262 41.1715 19.736 41.9029 20.9794 42.1003Z" fill="#49B6BB"/>
<path d="M18.6243 62.3084C19.1883 61.293 20.0586 60.4816 21.1109 59.99C22.0811 59.5325 23.1808 59.429 24.2193 59.6974C24.7166 59.7779 25.8356 60.1874 25.5357 60.6994C24.9872 61.6356 22.5444 61.2991 22.5444 61.2991L20.4966 63.4932C19.8249 63.179 19.1958 62.7809 18.6243 62.3084Z" fill="#FF0000"/>
<path d="M17.6003 103.763C17.4762 102.93 17.6116 102.08 17.9879 101.327" stroke="black" stroke-linecap="round" stroke-linejoin="round"/>
<path d="M84.1698 121.425C85.2303 120.46 84.4916 119.436 83.7529 119.772" stroke="black" stroke-linecap="round" stroke-linejoin="round"/>
<path d="M83.5775 86.8821C83.5775 86.8821 84.6746 85.6973 85.9691 86.1508" stroke="black" stroke-linecap="round" stroke-linejoin="round"/>
<path d="M56.641 65.3365C56.641 65.3365 55.639 64.4954 54.8711 65.0513" stroke="black" stroke-linecap="round" stroke-linejoin="round"/>
<path d="M39.0588 97.2168C39.0588 97.2168 39.1027 98.3577 39.9877 98.4967" stroke="black" stroke-linecap="round" stroke-linejoin="round"/>
<path d="M2.1611 38.6924C2.1611 38.6924 0.764181 38.9191 1.03479 40.0966" stroke="black" stroke-linecap="round" stroke-linejoin="round"/>
<path d="M25.2725 15.4856C26.1843 13.9898 26.6652 12.2713 26.6621 10.5195C26.7645 7.22105 26.8376 3.57151 25.5943 3.37404C24.3509 3.17657 23.4002 1.83084 22.8004 2.75968C22.2007 3.68853 22.8004 4.71976 22.9248 5.68517C23.0491 6.65058 24.4606 10.1904 24.4753 10.8633C24.5904 12.1201 24.3603 13.3845 23.8097 14.5201C23.4432 15.1304 22.9239 15.6345 22.3031 15.9829C22.3031 15.9829 24.9287 16.0268 25.2725 15.4856Z" fill="#EAC116"/>
<path d="M91.3665 104.121C90.701 104.011 89.56 101.196 89.7941 99.784C90.0281 98.3724 91.7907 98.6284 92.1271 99.3671C92.4636 100.106 92.9828 101.093 92.9828 101.093C93.0483 101.844 93.004 102.6 92.8512 103.338C92.6025 104.209 91.3665 104.121 91.3665 104.121Z" fill="#7B633B"/>
<path d="M29.7266 1.82373C28.7182 1.18954 27.5236 0.91862 26.3403 1.05579C24.724 1.25326 23.2686 1.78716 22.976 2.21867C22.6835 2.65018 25.0604 3.34499 26.3184 3.32305C27.5763 3.3011 30.9699 2.59167 29.7266 1.82373Z" fill="#7B633B"/>
<path d="M28.7831 65.0655C31.2039 64.8972 34.5024 62.6373 35.8335 60.3554C37.1646 58.0735 36.3893 55.4552 33.4785 55.9672C30.5676 56.4791 30.4945 57.5908 28.2638 57.7371C26.0331 57.8834 24.702 56.2744 22.2153 56.2012C19.7287 56.1281 17.8198 57.0642 17.3005 58.527C16.7812 59.9897 17.242 62.0888 20.599 63.7636C23.956 65.4385 25.0604 65.3214 28.7831 65.0655Z" stroke="black" stroke-linecap="round" stroke-linejoin="round"/>
<path d="M28.7684 52.4204C29.2089 53.2417 29.4589 54.1516 29.4998 55.0826C29.4267 56.2601 29.3023 57.0354 28.1175 56.6185C27.4593 56.3844 26.311 54.4244 26.311 54.4244" stroke="black" stroke-linecap="round" stroke-linejoin="round"/>
<path d="M27.3203 50.1456C27.5502 49.5903 27.6553 48.9912 27.6282 48.3908C27.6011 47.7903 27.4424 47.2032 27.1633 46.6709C26.8842 46.1385 26.4916 45.674 26.0132 45.3102C25.5348 44.9463 24.9823 44.692 24.3948 44.5652C20.7964 43.651 18.9753 45.6769 18.4487 47.0153C17.3955 49.6848 18.8217 52.1349 21.2645 53.1369C23.7073 54.1389 26.3622 52.603 27.3203 50.1456Z" stroke="black" stroke-linecap="round" stroke-linejoin="round"/>
<path d="M27.452 46.8252C27.6494 45.6112 29.8801 43.7023 32.2498 43.7974C34.6194 43.8924 36.5795 46.3572 36.3674 48.8804C36.3023 49.495 36.1133 50.0901 35.8117 50.6296C35.5101 51.1691 35.1022 51.6418 34.6127 52.0192C34.1232 52.3965 33.5623 52.6707 32.9638 52.8251C32.3653 52.9796 31.7417 53.011 31.1308 52.9176C28.9367 52.6762 27.4154 50.2773 27.4154 50.2773" stroke="black" stroke-linecap="round" stroke-linejoin="round"/>
<path d="M21.4182 56.1792C21.4182 56.1792 20.7892 57.2689 21.5132 57.7224C22.2373 58.1758 23.3051 56.5961 23.3051 56.5961C23.3051 56.5961 22.8151 58.2197 23.6415 58.4099C24.468 58.6 25.4992 57.0642 25.4992 57.0642C25.4992 57.0642 24.4607 58.6 25.4041 59.0901C26.3476 59.5801 27.0863 57.7736 27.0863 57.7736C27.0863 57.7736 26.4573 59.602 27.5032 59.7702C28.549 59.9384 28.5783 57.6712 28.5783 57.6712C28.5783 57.6712 28.4247 59.9896 29.5657 59.4631C29.8941 59.2944 30.1538 59.0171 30.3006 58.6783C30.4473 58.3395 30.4719 57.9603 30.3702 57.6054C30.3702 57.6054 30.6188 58.5269 31.4307 58.4611C32.2425 58.3953 31.6793 56.5741 31.6793 56.5741C31.6793 56.5741 32.535 57.9564 33.1421 57.6054C33.7491 57.2543 33.2006 56.1938 33.2006 56.1938" stroke="black" stroke-linecap="round" stroke-linejoin="round"/>
<path d="M33.3834 62.9155C33.3834 62.9155 33.4199 61.6137 32.257 62.1841C32.1067 62.2396 31.9719 62.3303 31.8639 62.4487C31.7559 62.567 31.6778 62.7095 31.6363 62.8643C31.5947 63.019 31.5909 63.1815 31.6251 63.338C31.6593 63.4945 31.7305 63.6406 31.8328 63.7639C31.8328 63.7639 31.416 62.4474 30.3701 62.8424C29.3242 63.2373 30.297 64.7 30.297 64.7C30.297 64.7 29.3608 62.9155 28.527 63.1569C27.6933 63.3982 28.059 65.0072 28.059 65.0072C28.059 65.0072 27.5982 62.9448 26.8888 63.1203C26.1793 63.2958 25.9599 65.0145 25.9599 65.0145C25.9599 65.0145 25.9599 63.2007 25.1262 63.1276C24.2924 63.0545 24.0364 64.9853 24.0364 64.9853C24.0364 64.9853 24.1681 63.0764 23.3051 62.9448C22.442 62.8131 22.091 64.5099 22.091 64.5099C22.091 64.5099 22.091 62.6961 21.462 62.7619C21.2561 62.8025 21.0622 62.8895 20.8949 63.0162C20.7277 63.143 20.5914 63.3061 20.4966 63.4933" stroke="black" stroke-linecap="round" stroke-linejoin="round"/>
<path d="M18.6536 62.1402C18.9149 61.5901 19.2899 61.1016 19.7538 60.707C20.2177 60.3124 20.7601 60.0206 21.345 59.851C22.7419 59.3464 25.3383 59.6974 25.47 60.6263C25.6016 61.5551 22.0618 61.3576 22.0618 61.3576" stroke="black" stroke-linecap="round" stroke-linejoin="round"/>
<path d="M20.3796 63.3835C20.8678 62.551 21.608 61.8953 22.4933 61.5112" stroke="black" stroke-linecap="round" stroke-linejoin="round"/>
<path d="M18.478 53.3198C19.2814 54.036 20.2608 54.5257 21.3158 54.7387C22.2945 54.8889 23.2944 54.8164 24.2412 54.5266" stroke="black" stroke-linecap="round" stroke-linejoin="round"/>
<path d="M35.6214 53.1807C34.9904 53.6924 34.2534 54.0571 33.4638 54.2485C32.5237 54.4459 31.5512 54.4284 30.6188 54.1973" stroke="black" stroke-linecap="round" stroke-linejoin="round"/>
<path d="M34.5681 54.8267C34.5681 54.8267 36.4697 54.8705 37.2888 55.8798C38.108 56.8891 38.4151 59.4636 37.5302 61.0799C36.3482 62.994 34.6035 64.4961 32.5349 65.3804" stroke="black" stroke-linecap="round" stroke-linejoin="round"/>
<path d="M20.3796 65.3071C20.3796 65.3071 17.0373 64.2027 15.9914 61.994C15.26 60.4581 15.7135 57.0133 18.0685 55.748" stroke="black" stroke-linecap="round" stroke-linejoin="round"/>
<path d="M20.9574 64.0415C20.5198 65.0077 20.1863 66.0179 19.9628 67.0548C19.8238 68.3932 19.8677 69.4244 20.643 69.5487C21.4182 69.6731 22.2447 66.967 23.0492 66.9304C23.8537 66.8939 24.6655 67.8154 25.5651 67.5009C26.4647 67.1864 26.7207 65.2483 26.7207 65.2483" stroke="black" stroke-linecap="round" stroke-linejoin="round"/>
<path d="M27.0058 75.2979C27.4007 74.2739 26.6547 72.1822 25.6235 72.7819C24.5922 73.3817 24.9579 76.4388 25.7697 76.6363C26.5816 76.8337 26.5669 76.4242 27.0058 75.2979Z" stroke="black" stroke-linecap="round" stroke-linejoin="round"/>
<path d="M91.564 104.194C87.5707 108.985 74.662 111.844 62.9308 111.018C41.2529 109.497 28.8123 100.742 21.5058 92.1705C15.6549 85.2883 7.53663 70.2732 8.17293 50.7967C8.80922 31.3203 13.4534 24.8842 18.1854 19.26C20.9573 15.9981 24.3509 15.5227 24.5118 12.3339C24.6727 9.1451 21.2133 3.55742 23.1295 2.13124C25.0457 0.705066 28.4246 0.931791 29.8362 1.84601C31.2477 2.76022 30.2238 5.08599 28.8196 9.62049C27.1594 14.9668 30.1287 16.7953 31.7451 19.6183C34.0562 23.619 36.1333 28.3436 37.4644 38.634C38.7955 48.9244 42.189 60.6776 46.7089 69.1908C52.2674 79.6274 61.3364 86.1001 70.1128 88.5575C78.8893 91.0149 85.201 93.3407 87.9656 94.8253C89.1431 95.4543 91.915 97.7508 92.2149 99.5208C92.7598 100.152 93.0401 100.97 92.9975 101.803C93.1145 103.485 92.4051 104.238 91.564 104.194Z" stroke="black" stroke-linecap="round" stroke-linejoin="round"/>
<path d="M20.7306 42.2322C22.6834 42.5467 23.1588 39.3067 25.1188 39.0288C27.0789 38.7508 30.5895 39.3944 31.3282 40.1112C32.0669 40.8279 32.4399 41.6471 33.4784 41.5739C34.517 41.5008 33.9099 39.431 32.8421 38.6484C31.7743 37.8659 27.8761 36.4031 25.4991 36.8712C23.1222 37.3393 20.3795 39.197 20.0285 40.2428C19.6774 41.2887 19.4873 42.0347 20.7306 42.2322Z" stroke="black" stroke-linecap="round" stroke-linejoin="round"/>
<path d="M24.7385 47.8784L24.1095 48.9243" stroke="black" stroke-linecap="round" stroke-linejoin="round"/>
<path d="M25.0823 48.8149L23.9341 48.0762" stroke="black" stroke-linecap="round" stroke-linejoin="round"/>
<path d="M25.17 48.2734L23.7877 48.5367" stroke="black" stroke-linecap="round" stroke-linejoin="round"/>
<path d="M24.5777 48.9027L24.4167 47.8057" stroke="black" stroke-linecap="round" stroke-linejoin="round"/>
<path d="M32.4545 48.5291L32.9152 47.3516" stroke="black" stroke-linecap="round" stroke-linejoin="round"/>
<path d="M33.3029 48.2223L32.0742 47.6592" stroke="black" stroke-linecap="round" stroke-linejoin="round"/>
<path d="M33.1567 47.7178L32.2206 48.1639" stroke="black" stroke-linecap="round" stroke-linejoin="round"/>
<path d="M32.5131 47.4834L32.8641 48.3976" stroke="black" stroke-linecap="round" stroke-linejoin="round"/>
<path d="M29.0025 2.84033C29.0025 2.84033 25.9526 3.48394 24.8483 3.30841" stroke="black" stroke-linecap="round" stroke-linejoin="round"/>
<path d="M90.1451 99.7324C90.1451 99.7324 89.56 100.544 90.6717 102.087" stroke="black" stroke-linecap="round" stroke-linejoin="round"/>
</svg>
