<svg width="113" height="92" viewBox="0 0 113 92" fill="none" xmlns="http://www.w3.org/2000/svg">
<path d="M8.88461 75.489C8.88461 75.489 4.00127 72.3766 3.05927 69.2567C2.11726 66.1368 1.29584 66.1368 1.29584 59.799C1.29584 53.4612 4.31024 51.5094 5.35021 49.4068C6.39019 47.3043 11.899 44.3276 13.9714 43.687C15.8523 43.1972 17.7595 42.8148 19.6837 42.5415C19.6837 42.5415 21.3492 36.8292 23.2181 34.8472C25.087 32.8653 26.7525 30.4839 29.2469 28.615C31.7413 26.746 40.3701 23.5281 44.4245 23.2267C48.4788 22.9253 66.8743 26.5501 70.7176 28.0045C74.561 29.459 78.2009 33.9203 79.1354 35.5858C80.0698 37.2512 81.8408 43.4835 81.8408 43.4835C81.8408 43.4835 85.4807 42.549 93.2729 45.149C101.065 47.7489 104.08 56.0611 104.494 57.3121C104.909 58.5631 107.403 63.9664 103.454 74.7731C103.454 74.7731 98.6763 82.1508 94.2074 84.1253C94.2074 84.1253 88.8041 86.6197 84.7497 86.5142C82.078 86.3949 79.4321 85.9392 76.8746 85.1577C76.8746 85.1577 73.1065 88.9257 69.1803 89.521C65.254 90.1164 61.697 91.4955 56.1882 91.4955C50.6794 91.4955 43.377 89.83 40.5962 89.0011C40.5962 89.0011 33.5274 91.1865 30.204 90.9755C26.8806 90.7645 20.4072 89.6265 18.0409 87.8556C13.7399 84.8237 10.5294 80.4875 8.88461 75.489Z" fill="#FA428C"/>
<path d="M41.3424 53.6351C41.3424 53.6351 41.0635 50.5152 41.6212 49.2718C42.1789 48.0283 43.0078 45.5038 45.9167 43.9363C48.8256 42.3688 52.36 43.1827 53.8823 43.5896C55.4046 43.9966 57.7633 47.124 58.1778 48.8648C58.5923 50.6057 58.8711 54.6826 57.7633 56.8304C56.6555 58.9782 53.9501 60.5005 52.8423 60.8471C51.7345 61.1938 48.9914 60.9074 48.9914 60.9074C48.9914 60.9074 47.6048 57.9985 46.497 57.0263C45.3892 56.0542 43.0756 54.0496 41.3424 53.6351Z" fill="white"/>
<path d="M70.582 57.1395C69.6762 57.3825 68.7254 57.4057 67.8088 57.2073C67.8088 57.2073 67.9444 55.7529 66.7688 55.5419C65.5932 55.3309 64.2744 55.263 63.3022 54.6451C62.3301 54.0271 61.4333 51.8643 61.049 49.6864C60.7883 48.6747 60.765 47.6164 60.9806 46.5942C61.1963 45.572 61.6453 44.6134 62.2924 43.7932C63.0775 42.8638 64.0529 42.1137 65.1528 41.5937C66.2527 41.0736 67.4514 40.7958 68.6679 40.7788C70.8156 40.7788 73.7924 42.5799 74.4179 43.2732C75.4066 44.7042 76.0678 46.3355 76.3546 48.0511C76.4158 49.4952 76.2763 50.9408 75.9401 52.3466C74.9103 52.8479 73.9289 53.4433 73.0086 54.1251C72.0124 54.9635 71.1884 55.9872 70.582 57.1395Z" fill="white"/>
<path d="M53.8822 37.5454C59.4966 36.9199 63.2344 35.7819 64.8999 34.222C66.5776 32.6935 67.5849 30.5651 67.7033 28.2987C67.5417 26.389 67.1572 24.5047 66.5578 22.6843L64.8999 21.3429C65.7574 19.2251 66.4183 17.033 66.8743 14.7941C67.3943 11.7797 65.2089 7.09985 64.3799 5.7509C63.5509 4.40196 61.5765 2.12608 59.2856 1.49305C56.9946 0.860029 56.4822 1.38755 56.4822 1.80203C56.4822 2.21651 57.9366 3.56546 57.9366 3.56546C57.9366 3.56546 59.8055 6.88884 59.8055 8.34329C59.8055 9.79774 59.18 13.3321 57.8311 14.8921C57.8311 14.8921 53.2567 12.6313 51.3878 12.2922C49.5189 11.953 44.839 11.2522 41.3046 13.9576C37.7702 16.6631 36.6247 19.3609 36.3158 21.8554L36.6247 25.1788C36.6247 25.1788 34.4468 32.9861 39.9481 34.644C45.4494 36.3019 48.2377 38.1784 53.8822 37.5454Z" fill="url(#paint0_linear)"/>
<path d="M51.0788 54.2913L52.4278 60.9079C54.0097 60.0313 55.5373 59.0599 57.0021 57.999C58.2456 56.9591 59.0821 53.1157 58.5621 50.2068C58.341 48.8826 57.8245 47.6252 57.0509 46.528C56.2772 45.4308 55.2663 44.5219 54.0932 43.869C52.0133 42.829 48.5844 43.04 48.5844 43.04L50.2499 50.6288L51.0788 54.2913Z" fill="#231F20"/>
<path d="M69.7832 51.4876L70.7176 56.6875C70.7176 56.6875 73.2121 53.8841 73.732 53.4696C74.252 53.0551 75.9928 52.0152 75.9928 52.0152L76.2039 47.5463C76.0968 46.5981 75.792 45.6829 75.3091 44.8599C74.8262 44.0369 74.176 43.3244 73.4005 42.7685C71.8027 41.7051 69.9158 41.1603 67.9971 41.2085L69.1426 48.2773L69.7832 51.4876Z" fill="#231F20"/>
<path d="M70.2354 71.5766C69.4341 70.8127 68.5522 70.138 67.6053 69.5645C66.632 69.0961 65.6243 68.703 64.5909 68.3889C63.8441 68.8504 62.9726 69.069 62.0965 69.0144C60.5892 68.9466 59.7377 68.3889 59.3232 67.0776C58.2702 67.6931 57.1565 68.1982 55.9998 68.5848C57.0282 68.9647 58.0053 69.471 58.9087 70.092C59.5342 70.7175 60.5064 70.921 60.8455 72.5186C60.8455 72.5186 64.5155 72.7975 65.7665 72.7975C67.0175 72.7975 69.8209 72.2097 70.2354 71.5766Z" fill="#1B0242"/>
<path d="M51.0412 65.895L52.8423 66.0307C52.8423 66.0307 53.3246 67.975 54.0858 68.4573L51.5235 68.2463L51.0412 65.895Z" fill="#1B0242"/>
<path d="M58.11 69.6415C59.6172 70.1916 60.6722 71.2316 60.8832 72.2038C61.0942 73.1759 58.1778 72.4826 58.1778 72.4826C58.1778 72.4826 52.6388 71.3748 51.8023 71.0281L51.5235 68.2549C53.7755 68.389 55.9951 68.8563 58.11 69.6415Z" fill="#FF0000"/>
<path d="M52.9177 65.9629C52.9177 65.9629 57.281 66.3096 59.4966 66.3096C61.6268 66.3236 63.7559 66.2079 65.8721 65.9629C67.1909 65.7519 70.8609 65.0586 70.8609 65.0586C70.8992 65.7539 70.7564 66.4472 70.4464 67.0707C69.9641 67.8243 68.0877 67.8243 67.432 67.6284C66.7764 67.4324 66.1811 66.4528 66.1811 66.4528C66.1811 66.4528 65.0054 68.3895 63.9202 68.8115C62.8351 69.2335 61.0113 69.1582 60.4537 68.7437C59.9531 68.2329 59.5337 67.6483 59.2102 67.0104C58.4324 67.5048 57.6216 67.9454 56.7836 68.3292C56.3214 68.5236 55.8233 68.618 55.3219 68.6064C54.8206 68.5947 54.3274 68.4771 53.8747 68.2614C53.0533 67.6887 52.9177 65.9629 52.9177 65.9629Z" fill="white"/>
<path d="M50.9733 47.9523C51.1165 46.6485 53.4677 46.7088 53.6034 48.0879C53.739 49.467 50.6945 50.4467 50.9733 47.9523Z" fill="white"/>
<path d="M54.7188 52.6623C52.5032 52.0293 54.1611 47.8091 55.9623 48.5025C57.7634 49.1958 56.6556 53.2125 54.7188 52.6623Z" fill="white"/>
<path d="M70.3787 46.7015C69.5648 46.3775 70.6575 44.4859 71.6221 44.7648C72.5867 45.0436 72.4511 47.538 70.3787 46.7015Z" fill="white"/>
<path d="M73.0088 49.8885C71.4413 49.2631 71.9688 45.2916 74.3954 46.7008C76.0533 47.673 75.0887 50.725 73.0088 49.8885Z" fill="white"/>
<path d="M97.3802 43.9435C96.3779 40.1228 100.696 40.2207 101.314 42.5494C101.932 44.878 98.4126 47.8999 97.3802 43.9435Z" fill="#61EA67"/>
<path d="M89.6858 39.0147C85.2095 36.0606 88.9322 31.0039 92.5345 33.1893C95.3077 34.8322 94.7124 42.3079 89.6858 39.0147Z" fill="#61EA67"/>
<path d="M96.423 27.1604C95.594 23.2869 100.568 19.436 104.524 22.262C107.373 24.2967 106.597 29.798 103.959 30.9284C101.985 31.7725 97.5534 32.4356 96.423 27.1604Z" fill="#61EA67"/>
<path d="M88.6987 54.0566C87.9451 52.0972 90.6354 51.0422 91.7885 53.1296C92.9415 55.2171 89.6859 56.4606 88.6987 54.0566Z" fill="#61EA67"/>
<path d="M80.8234 63.6504C80.7101 63.5633 80.6151 63.4547 80.5437 63.3309C80.4723 63.2071 80.4261 63.0704 80.4075 62.9287C80.389 62.787 80.3985 62.643 80.4356 62.505C80.4727 62.367 80.5366 62.2376 80.6237 62.1243C80.7108 62.011 80.8194 61.916 80.9432 61.8446C81.067 61.7732 81.2037 61.727 81.3454 61.7084C81.4871 61.6899 81.6311 61.6994 81.7691 61.7365C81.9071 61.7736 82.0364 61.8375 82.1498 61.9246C82.2631 62.0117 82.3581 62.1203 82.4295 62.2441C82.5008 62.3679 82.5471 62.5046 82.5657 62.6463C82.5842 62.788 82.5747 62.932 82.5376 63.07C82.5005 63.208 82.4366 63.3373 82.3495 63.4507C82.2624 63.564 82.1538 63.659 82.03 63.7304C81.9062 63.8018 81.7695 63.848 81.6278 63.8666C81.4861 63.8851 81.3421 63.8756 81.2041 63.8385C81.0661 63.8014 80.9367 63.7375 80.8234 63.6504Z" fill="#61EA67"/>
<path d="M38.117 52.8359C40.215 53.0824 42.2274 53.8115 43.9964 54.966C45.7654 56.1205 47.2429 57.669 48.3132 59.4902C50.4099 63.0642 51.6242 67.0867 51.8552 71.2238" stroke="black" stroke-linecap="round" stroke-linejoin="round"/>
<path d="M22.7584 51.9312C22.7584 51.9312 13.5042 53.5137 10.015 60.8161C6.52585 68.1185 7.32467 78.1942 15.5314 85.7754C24.7932 94.3589 43.8819 91.337 48.7502 82.0074" stroke="black" stroke-linecap="round" stroke-linejoin="round"/>
<path d="M72.2175 81.849C72.2175 81.849 75.0962 86.4988 85.5035 86.2727C95.9107 86.0466 102.331 78.2996 104.539 72.105C106.748 65.9104 106.755 55.0886 98.1188 48.2007C91.3816 42.82 82.1499 43.3325 82.1499 43.3325" stroke="black" stroke-linecap="round" stroke-linejoin="round"/>
<path d="M68.1478 27.1001C68.1478 27.1001 74.463 28.2305 78.9846 35.6836C82.8205 42.0063 82.1799 49.5348 82.1799 49.5348C82.1799 49.5348 84.3955 48.8717 85.5033 49.0902" stroke="black" stroke-linecap="round" stroke-linejoin="round"/>
<path d="M36.5343 25.2905C36.5343 25.2905 30.7164 26.4661 25.2905 32.2689C21.5468 36.1333 19.4107 41.2755 19.3145 46.6551" stroke="black" stroke-linecap="round" stroke-linejoin="round"/>
<path d="M9.35191 75.8731C9.35191 75.8731 1.60489 71.457 1.16026 62.8132C0.806068 55.9554 4.25756 48.2009 11.1229 44.885C13.8207 43.5659 16.7595 42.812 19.7592 42.6694" stroke="black" stroke-linecap="round" stroke-linejoin="round"/>
<path d="M51.6365 65.9112C55.6007 66.4185 59.6085 66.4918 63.5886 66.1297C69.8058 65.3761 73.7698 64.8034 73.3327 62.3617C72.8956 59.92 64.2894 59.8296 64.2894 59.8296" stroke="black" stroke-linecap="round" stroke-linejoin="round"/>
<path d="M60.9208 49.2266C61.111 50.473 61.4711 51.6876 61.991 52.8363C62.6541 53.9441 63.4077 55.3232 66.2413 55.5116C68.2383 55.6397 68.2685 57.3805 66.6859 58.6089C65.1978 59.643 63.4089 60.1545 61.5991 60.0634" stroke="black" stroke-linecap="round" stroke-linejoin="round"/>
<path d="M60.9208 49.4518C60.9208 49.4518 60.0165 44.2595 64.6888 41.7877C68.2835 39.8886 73.3703 41.4335 75.3146 44.6664C77.2589 47.8994 75.9778 52.2024 75.9778 52.2024" stroke="black" stroke-linecap="round" stroke-linejoin="round"/>
<path d="M41.2293 53.2949C41.1403 52.0824 41.2318 50.8633 41.5006 49.6776C41.9452 47.9067 44.1081 43.1138 49.8656 43.1138C55.6231 43.1138 57.168 45.9925 58.0572 48.389C58.9465 50.7854 59.165 55.6914 56.9494 58.1255C54.7338 60.5596 51.1919 61.7051 48.9914 60.8234" stroke="black" stroke-linecap="round" stroke-linejoin="round"/>
<path d="M77.9749 51.7427C75.4658 52.2251 73.1989 53.5554 71.5542 55.5107C70.4686 56.9269 69.7816 58.6078 69.5647 60.379" stroke="black" stroke-linecap="round" stroke-linejoin="round"/>
<path d="M9.90204 35.3447C10.3988 36.3654 11.1851 37.2172 12.1628 37.7939" stroke="black" stroke-linecap="round" stroke-linejoin="round"/>
<path d="M84.8704 18.6205C82.9864 16.6687 81.9238 21.6349 81.9238 21.6349" stroke="black" stroke-linecap="round" stroke-linejoin="round"/>
<path d="M59.1123 36.5802C59.1123 36.5802 64.5307 35.4498 66.4599 32.262C67.4742 30.6308 67.9355 28.716 67.7753 26.8018C67.6151 24.8877 66.842 23.0762 65.5707 21.6362" stroke="black" stroke-linecap="round" stroke-linejoin="round"/>
<path d="M38.3505 28.0576C35.63 25.4878 34.8312 19.5494 40.1441 14.9374C45.457 10.3253 52.1113 11.7798 57.3036 14.7113" stroke="black" stroke-linecap="round" stroke-linejoin="round"/>
<path d="M48.9912 16.9867C48.9912 16.9867 56.1278 18.1171 58.2907 14.3341C60.9434 9.68435 59.617 5.03462 57.409 3.03004C55.5174 1.37212 56.9493 0.166356 60.0466 1.71878C63.1439 3.27119 67.349 8.58409 66.9119 14.3341C66.4899 19.858 64.1914 24.8242 60.0466 26.7308C54.2664 29.391 48.9912 29.6096 42.7816 27.1754" stroke="black" stroke-linecap="round" stroke-linejoin="round"/>
<path d="M40.7847 88.933C40.7847 88.933 48.0795 92.5503 60.9209 91.1939C73.0313 89.9429 76.8671 85.165 76.8671 85.165" stroke="black" stroke-linecap="round" stroke-linejoin="round"/>
<path d="M70.8458 64.8032C70.8458 64.8032 71.5467 67.486 68.8111 67.7423C66.3242 67.9684 66.3242 66.3858 66.3242 66.3858C66.3242 66.3858 64.7416 69.3173 61.8026 69.0988C58.8635 68.8802 59.5418 66.6119 59.5418 66.6119C59.5418 66.6119 57.281 68.6466 55.2538 68.6466C54.6914 68.6494 54.1481 68.4425 53.7301 68.0663C53.312 67.69 53.0492 67.1715 52.993 66.6119" stroke="black" stroke-linecap="round" stroke-linejoin="round"/>
<path d="M69.5044 70.0025C71.7652 69.7387 76.2868 72.4894 72.888 74.7426C71.5504 75.7043 69.9983 76.3251 68.3664 76.5513C68.3664 76.5513 67.0099 80.3871 61.8176 81.0729" stroke="black" stroke-linecap="round" stroke-linejoin="round"/>
<path d="M51.8928 70.899C51.8928 70.899 55.5025 72.7076 65.8947 72.7076C69.9566 72.7076 70.4163 71.5772 70.4163 71.5772C68.9997 70.1244 67.1987 69.105 65.224 68.6382" stroke="black" stroke-linecap="round" stroke-linejoin="round"/>
<path d="M60.9209 72.2558C60.9209 72.2558 60.6948 69.0906 51.8777 68.1938" stroke="black" stroke-linecap="round" stroke-linejoin="round"/>
<path d="M31.3346 12.2163C31.2166 12.7625 31.2552 13.3309 31.4458 13.8561C31.6364 14.3813 31.9714 14.8421 32.4122 15.1855" stroke="black" stroke-linecap="round" stroke-linejoin="round"/>
<path d="M67.8841 57.312C68.7213 57.5972 69.6329 57.5731 70.4539 57.2441" stroke="black" stroke-linecap="round" stroke-linejoin="round"/>
<path d="M52.4278 60.9443L48.5844 43.0688" stroke="black" stroke-linecap="round" stroke-linejoin="round"/>
<path d="M70.7178 56.6784L68.0199 41.1919" stroke="black" stroke-linecap="round" stroke-linejoin="round"/>
<path d="M52.4956 38.9383C52.4956 38.9383 48.4789 38.245 45.2912 39.2172C42.1034 40.1893 40.438 43.9272 40.438 43.9272" stroke="black" stroke-linecap="round" stroke-linejoin="round"/>
<path d="M63.5811 37.6955C63.5811 37.6955 65.4801 35.8793 70.2354 36.452C71.2779 36.6062 72.2706 36.9993 73.1361 37.6006C74.0015 38.202 74.7162 38.9953 75.2242 39.9186" stroke="black" stroke-linecap="round" stroke-linejoin="round"/>
<path d="M97.2218 43.9435C96.2195 40.1228 100.538 40.2207 101.156 42.5494C101.774 44.878 98.2241 47.8999 97.2218 43.9435Z" stroke="black" stroke-linecap="round" stroke-linejoin="round"/>
<path d="M89.5276 39.0147C85.0513 36.0606 88.774 31.0039 92.3763 33.1893C95.1194 34.8322 94.524 42.3079 89.5276 39.0147Z" stroke="black" stroke-linecap="round" stroke-linejoin="round"/>
<path d="M96.2348 27.1604C95.4058 23.2869 100.38 19.436 104.336 22.262C107.185 24.2967 106.408 29.798 103.771 30.9284C101.796 31.7725 97.3652 32.4356 96.2348 27.1604Z" stroke="black" stroke-linecap="round" stroke-linejoin="round"/>
<path d="M88.5101 54.0566C87.7565 52.0972 90.4468 51.0422 91.5999 53.1296C92.7529 55.2171 89.4672 56.4606 88.5101 54.0566Z" stroke="black" stroke-linecap="round" stroke-linejoin="round"/>
<path d="M80.6426 63.6504C80.5293 63.5633 80.4343 63.4547 80.3629 63.3309C80.2915 63.2071 80.2453 63.0704 80.2267 62.9287C80.2082 62.787 80.2177 62.643 80.2548 62.505C80.2919 62.367 80.3558 62.2376 80.4429 62.1243C80.53 62.011 80.6386 61.916 80.7624 61.8446C80.8862 61.7732 81.0229 61.727 81.1646 61.7084C81.3063 61.6899 81.4503 61.6994 81.5883 61.7365C81.7263 61.7736 81.8557 61.8375 81.969 61.9246C82.0823 62.0117 82.1773 62.1203 82.2487 62.2441C82.3201 62.3679 82.3663 62.5046 82.3849 62.6463C82.4034 62.788 82.3939 62.932 82.3568 63.07C82.3197 63.208 82.2558 63.3373 82.1687 63.4507C82.0816 63.564 81.973 63.659 81.8492 63.7304C81.7254 63.8018 81.5887 63.848 81.447 63.8666C81.3053 63.8851 81.1613 63.8756 81.0233 63.8385C80.8853 63.8014 80.7559 63.7375 80.6426 63.6504V63.6504Z" stroke="black" stroke-linecap="round" stroke-linejoin="round"/>
<path d="M4.73234 47.7568C4.73234 47.7568 3.97873 49.5127 7.24183 49.0154" stroke="black" stroke-linecap="round" stroke-linejoin="round"/>
<path d="M112.001 49.7676C112.001 49.7676 112.001 51.0267 110.244 51.5244" stroke="black" stroke-linecap="round" stroke-linejoin="round"/>
<path d="M103.96 20.6274L102.957 22.3918" stroke="black" stroke-linecap="round" stroke-linejoin="round"/>
<defs>
<linearGradient id="paint0_linear" x1="49.6771" y1="32.9635" x2="54.9976" y2="15.4724" gradientUnits="userSpaceOnUse">
<stop offset="0.12" stop-color="#FA428C"/>
<stop offset="1" stop-color="#61EA67"/>
</linearGradient>
</defs>
</svg>
