<svg width="107" height="149" viewBox="0 0 107 149" fill="none" xmlns="http://www.w3.org/2000/svg">
<path d="M39.7109 11.3788C37.5481 10.5423 26.3948 11.8611 24.4806 13.4211C22.5665 14.981 16.3267 32.3666 16.3267 36.7978C16.3267 41.229 18.8437 54.5451 19.8083 55.9845C20.7729 57.4239 23.2824 65.4573 27.3443 61.742C31.4062 58.0268 29.7408 30.4374 29.7408 30.0907C29.7408 29.7441 39.7109 11.3788 39.7109 11.3788Z" fill="#6AFE7C"/>
<path d="M35.3927 74.7042C35.3927 74.7042 33.4711 73.3854 30.8711 68.4644C29.3913 66.4068 28.2185 64.1449 27.3895 61.7498C26.0497 56.8841 25.1493 51.908 24.6991 46.8813C24.5786 43.6408 24.6991 38.3656 25.4527 35.0045C26.2063 31.6434 27.8341 23.9868 29.7558 20.6107C31.6775 17.2346 35.7846 11.8539 38.5127 9.81914C41.2407 7.78441 45.9507 4.30277 49.0631 3.57931C52.1755 2.85586 58.9051 1.06228 63.1328 1.30344C67.3605 1.54459 70.5709 0.466938 75.6049 1.54459C79.6099 2.39103 83.5411 3.55526 87.3611 5.02623C89.7651 5.9833 96.6003 11.3791 97.9115 16.6618C98.7314 19.9837 99.3729 23.3471 99.8332 26.7375L99.4715 28.9983L43.705 73.6191L35.3927 74.7042Z" fill="#682527"/>
<path d="M52.545 105.052C52.545 105.052 48.8298 99.174 47.7446 96.657C46.6594 94.1399 44.5041 89.2189 44.5041 89.2189L43.3059 85.5037C43.3059 85.5037 41.8665 85.5037 39.1083 83.9437C36.3501 82.3837 35.7472 79.2638 35.6266 78.3068C35.5061 77.3497 34.7902 74.1092 35.9884 71.351C37.1866 68.5928 39.8242 67.0329 41.3842 66.317L40.4196 58.9995C40.4196 58.9995 39.9373 50.4838 40.4196 46.7685C40.9019 43.0533 42.1001 35.0123 44.1423 30.5736C46.1846 26.1349 52.2963 21.455 52.8992 20.8597C53.5021 20.2644 59.139 16.9033 60.6914 16.5416C62.2439 16.1798 67.1724 14.2808 71.2419 14.2808C76.214 14.4712 81.1195 15.49 85.7562 17.2952C89.2106 19.0327 92.4002 21.253 95.229 23.8892C96.3067 25.0874 98.5901 27.4914 99.4266 29.0438C100.263 30.5962 102.185 34.9219 102.546 35.9996C102.908 37.0772 103.986 42.36 103.986 42.36C103.986 42.36 104.822 63.3478 104.822 65.39C104.822 67.4323 104.943 83.8608 103.383 89.2566C101.823 94.6524 98.2284 104.607 98.2284 104.607C98.2284 104.607 93.9102 112.046 89.8332 113.485C85.7562 114.924 79.1622 117.441 75.8012 116.605C72.4401 115.768 66.8032 115.768 62.7262 113.364C58.6492 110.96 55.5443 109.973 52.545 105.052Z" fill="#F8C2A0"/>
<path d="M31.8582 145.173C31.8582 145.173 27.4722 147.147 24.4804 147.268C24.4804 147.268 20.9988 148.466 15.0077 147.027C9.01654 145.587 6.00967 141.872 3.96741 138.993C1.69538 135.923 0.623385 132.128 0.952999 128.322C1.31473 124.004 1.7066 121.608 2.75411 119.686C3.80161 117.764 5.01491 117.169 6.46936 118.006C7.92382 118.842 11.9857 121.02 11.9857 121.02C11.9857 121.02 16.0627 123.537 16.8992 123.899C17.7357 124.261 20.2603 123.899 20.735 121.857C21.2098 119.814 22.9958 111.065 22.5362 109.045C22.0765 107.026 21.9634 94.8249 21.6846 93.0539C21.4058 91.2829 20.0041 79.8583 19.2881 78.4189C18.5722 76.9796 15.6859 65.7057 15.6859 65.7057L12.3625 53.7159C12.3625 53.7159 9.24262 42.2008 9.34812 38.8398C9.45363 35.4787 9.70985 29.8418 10.5463 27.8071C11.3828 25.7723 12.7017 20.0073 14.7439 17.0155C16.7862 14.0237 22.197 8.3792 32.0315 7.0604C34.9986 6.80149 37.9874 6.96386 40.909 7.5427L39.349 8.98208L37.1937 10.9038C37.1937 10.9038 35.3926 11.1449 33.4709 11.6574C31.5492 12.1698 28.9493 14.295 28.3163 16.3372C28.3163 16.3372 26.161 15.2596 25.1964 15.2596C24.2318 15.2596 23.6364 16.9401 23.6364 17.5204C23.6364 18.1007 22.8828 22.9162 22.8828 22.9162L23.0034 24.4761L21.9257 24.9584L20.9687 27.2192C20.9687 27.2192 20.7275 28.7792 21.0892 29.3745C21.451 29.9699 22.5286 30.1281 22.5286 30.1281C21.4694 31.4985 20.5074 32.9414 19.6499 34.4463C19.047 35.7651 17.7282 37.2045 17.9693 38.041C18.2105 38.8775 20.9837 39.1186 20.9837 39.1186C20.9837 39.1186 20.7426 42.4797 20.7426 43.4368C20.4338 47.5028 21.1327 51.5822 22.7773 55.3135C25.4526 61.1539 26.7563 60.9128 26.7563 60.9128L31.2779 69.6696L35.3549 74.7037C35.3549 74.7037 35.3549 78.6601 36.4326 80.7325C37.5102 82.8049 39.447 84.6889 43.2677 85.5329C43.2677 85.5329 46.0259 92.971 47.7065 96.6863C49.1186 99.588 50.7223 102.393 52.5069 105.081C52.5069 105.081 52.6275 111.758 52.3863 115.398C51.9191 122.475 48.2717 133.402 44.255 137.418C40.6209 140.725 36.4218 143.352 31.8582 145.173Z" fill="#682527"/>
<path d="M82.1691 48.3204C82.5309 41.244 87.7458 36.2627 94.7618 36.6245C101.778 36.9862 105.795 43.6405 106.088 48.8554C106.45 55.148 103.639 60.1594 94.3926 60.1594C88.7556 60.1594 81.7999 55.5851 82.1691 48.3204Z" fill="white"/>
<path d="M73.8943 49.7599C74.3691 55.638 68.4985 62.3526 61.8367 62.1717C58.3868 62.11 55.0902 60.736 52.6177 58.3293C50.1452 55.9226 48.6828 52.6642 48.5281 49.2173C48.1663 41.4853 55.1824 36.6246 62.1984 36.7979C69.2144 36.9713 73.2311 41.621 73.8943 49.7599Z" fill="white"/>
<path d="M92.7268 96.0537C92.7268 96.0537 89.1246 98.9324 82.1764 99.1736C75.2281 99.4148 66.5843 96.7771 66.8255 92.459C67.0666 88.1409 70.4277 86.2192 73.5401 86.7015C76.6525 87.1838 91.2949 85.9479 93.4502 87.8997C95.6055 89.8515 94.8821 94.6143 92.7268 96.0537Z" fill="#DA4F4D"/>
<path d="M69.335 87.2891C69.335 87.2891 69.8173 89.6856 71.7314 89.9267C73.6456 90.1679 75.0925 87.2891 75.0925 87.2891C75.0925 87.2891 76.2907 90.409 79.1695 90.1679C82.0482 89.9267 82.0482 86.8068 82.0482 86.8068C82.0482 86.8068 83.2464 89.9267 84.6858 90.1679C86.1252 90.409 88.288 87.5303 88.288 87.5303C88.288 87.5303 88.5292 90.409 90.4433 90.409C92.3575 90.409 93.5633 87.7714 93.5633 87.7714C91.9787 87.1145 90.2946 86.7297 88.5819 86.6335C85.9745 86.5431 78.1446 86.7239 78.1446 86.7239L72.0253 86.4526C72.0253 86.4526 69.7871 87.2364 69.335 87.2891Z" fill="white"/>
<path d="M70.8645 96.777C70.8645 96.777 74.7003 92.4588 77.1043 94.3805C79.5083 96.3022 82.1384 98.9021 82.1384 98.9021C78.2648 99.1021 74.3995 98.3735 70.8645 96.777Z" fill="#FF0000"/>
<path d="M104.581 55.6387C104.581 55.6387 105.779 78.9099 103.383 88.7444C100.986 98.5789 97.8661 111.533 86.3511 114.894C74.8361 118.255 65.2503 115.648 57.8047 110.576C50.3591 105.504 44.1343 88.7218 43.4109 85.8732" stroke="black" stroke-linecap="round" stroke-linejoin="round"/>
<path d="M46.7874 86.1006C46.7874 86.1006 40.7586 86.1006 37.6688 82.5059C34.579 78.9113 33.411 68.715 41.8061 66.311" stroke="black" stroke-linecap="round" stroke-linejoin="round"/>
<path d="M79.893 58.2764C79.893 58.2764 86.3739 71.2308 86.3739 73.3861C86.3739 75.5414 85.8916 76.2648 83.7363 76.7471C81.581 77.2295 76.0571 76.2648 76.0571 76.2648" stroke="black" stroke-linecap="round" stroke-linejoin="round"/>
<path d="M51.0754 32.1251C51.0754 32.1251 55.3936 25.8853 64.7458 25.8853" stroke="black" stroke-linecap="round" stroke-linejoin="round"/>
<path d="M92.8477 27.0933C92.8477 27.0933 98.6052 27.3344 101.966 33.5742" stroke="black" stroke-linecap="round" stroke-linejoin="round"/>
<path d="M104.121 42.4432C103.307 37.5821 101.611 32.9108 99.1173 28.6598C98.4637 27.6008 97.7306 26.5931 96.9243 25.6454C91.1668 18.9383 78.6871 12.4573 66.6973 14.8613C54.7075 17.2653 45.2046 25.8413 42.7102 34.7715C37.6761 52.76 41.512 61.9012 41.512 65.9555" stroke="black" stroke-linecap="round" stroke-linejoin="round"/>
<path d="M99.5621 28.5085C99.5621 28.5085 101.001 16.0364 92.3652 8.59837C83.7289 1.16032 70.3299 0.564979 62.8617 1.18293C51.3467 2.13247 41.2786 3.82054 31.1954 18.2143C26.3949 25.0721 23.4408 41.9302 24.9555 50.1218C26.1538 56.5953 26.3949 61.1546 30.4719 68.1103C32.0243 70.763 35.2497 75.0661 35.2497 75.0661" stroke="black" stroke-linecap="round" stroke-linejoin="round"/>
<path d="M41.0299 7.66366C39.8317 7.66366 27.3595 4.3026 17.525 13.6925C12.1142 18.8396 7.29114 33.7458 10.3282 45.5924C15.1286 64.3044 20.125 78.6982 21.3609 89.4897C22.5968 100.281 23.2826 115.866 20.6073 122.113C17.932 128.361 8.61747 116.838 5.01526 117.795C1.41304 118.752 -0.259954 128.428 1.89535 134.826C5.49756 145.377 17.721 151.617 31.1577 145.377C31.1577 145.377 40.3592 141.933 44.3834 137.283C46.6442 134.698 51.2939 126.484 52.1681 116.936C52.4803 112.99 52.5935 109.031 52.5072 105.074" stroke="black" stroke-linecap="round" stroke-linejoin="round"/>
<path d="M81.9276 48.3204C82.2894 41.244 87.5043 36.2627 94.5203 36.6245C101.536 36.9862 105.553 43.6405 105.824 48.8554C106.186 55.148 103.375 60.1594 94.1285 60.1594C88.5292 60.1594 81.5584 55.5851 81.9276 48.3204Z" stroke="black" stroke-linecap="round" stroke-linejoin="round"/>
<path d="M73.6835 49.7599C74.1356 55.638 68.2575 62.3526 61.6258 62.1717C58.1708 62.1176 54.8666 60.7469 52.3877 58.3395C49.9088 55.9321 48.4422 52.6693 48.2871 49.2173C47.9254 41.4853 54.9414 36.6246 61.9574 36.7979C68.9735 36.9713 72.9902 41.621 73.6835 49.7599Z" stroke="black" stroke-linecap="round" stroke-linejoin="round"/>
<path d="M94.6863 47.8091V50.4392" stroke="black" stroke-linecap="round" stroke-linejoin="round"/>
<path d="M96.0954 49.1274L93.6914 49.2782" stroke="black" stroke-linecap="round" stroke-linejoin="round"/>
<path d="M95.4781 48.2075L93.8269 50.1528" stroke="black" stroke-linecap="round" stroke-linejoin="round"/>
<path d="M95.7636 50.1978L93.7063 48.3213" stroke="black" stroke-linecap="round" stroke-linejoin="round"/>
<path d="M61.1509 47.8091V50.4392" stroke="black" stroke-linecap="round" stroke-linejoin="round"/>
<path d="M62.5605 49.1274L60.1565 49.2782" stroke="black" stroke-linecap="round" stroke-linejoin="round"/>
<path d="M61.943 48.2075L60.2917 50.1528" stroke="black" stroke-linecap="round" stroke-linejoin="round"/>
<path d="M62.2285 50.1978L60.1711 48.3213" stroke="black" stroke-linecap="round" stroke-linejoin="round"/>
<path d="M92.8472 95.9336C92.8472 95.9336 89.2526 98.8123 82.2968 99.0535C75.3411 99.2946 66.6973 96.657 66.9007 92.3389C67.1042 88.0207 70.503 86.0991 73.6229 86.5814C76.7428 87.0637 91.3702 85.8278 93.533 87.7796C95.6959 89.7314 95.0025 94.4942 92.8472 95.9336Z" stroke="black" stroke-linecap="round" stroke-linejoin="round"/>
<path d="M93.5633 87.7791C93.5633 87.7791 92.365 90.4167 90.4433 90.4167C88.5217 90.4167 88.288 87.5379 88.288 87.5379C88.288 87.5379 86.1327 90.4167 84.6858 90.1755C83.2389 89.9344 82.0482 86.8145 82.0482 86.8145C82.0482 86.8145 82.0482 89.9344 79.1695 90.1755C76.2907 90.4167 75.0925 87.2892 75.0925 87.2892C75.0925 87.2892 73.6531 90.168 71.7314 89.9268C71.1614 89.8265 70.6324 89.5643 70.2074 89.1714C69.7824 88.7785 69.4796 88.2716 69.335 87.7112" stroke="black" stroke-linecap="round" stroke-linejoin="round"/>
<path d="M71.0156 96.8971C71.0156 96.8971 74.8515 92.579 77.2554 94.5006C79.6594 96.4223 82.297 99.0223 82.297 99.0223C80.3725 99.0127 78.4501 98.892 76.5395 98.6605C74.6269 98.3253 72.7687 97.7321 71.0156 96.8971Z" stroke="black" stroke-linecap="round" stroke-linejoin="round"/>
<path d="M23.0412 23.7306C23.0412 23.7306 22.8 15.3354 25.1965 15.3354C27.5929 15.3354 31.2253 18.2142 31.2253 18.2142" stroke="black" stroke-linecap="round" stroke-linejoin="round"/>
<path d="M27.8339 24.9291C27.8339 24.9291 22.7998 23.7309 21.8051 25.1703C20.8103 26.6096 20.3657 29.2473 21.5639 29.6919C23.0491 30.1702 24.5584 30.5702 26.0855 30.8901" stroke="black" stroke-linecap="round" stroke-linejoin="round"/>
<path d="M24.9553 38.6068C24.9553 38.6068 18.4744 39.8051 18.2408 37.8532C18.0071 35.9014 22.7624 29.9404 22.7624 29.9404" stroke="black" stroke-linecap="round" stroke-linejoin="round"/>
<path d="M27.1184 61.1545C27.1184 61.1545 23.7574 59.474 21.3609 50.8377C20.0798 46.2181 20.8786 39.5337 20.8786 39.5337" stroke="black" stroke-linecap="round" stroke-linejoin="round"/>
<path d="M28.3164 15.8178C28.3164 15.8178 29.5146 11.7408 37.1938 10.7837" stroke="black" stroke-linecap="round" stroke-linejoin="round"/>
</svg>
