<svg width="105" height="133" viewBox="0 0 105 133" fill="none" xmlns="http://www.w3.org/2000/svg">
<path d="M16.216 98.8925C16.216 98.8925 6.90151 97.6867 5.59024 89.2916C4.43723 81.8912 11.2724 75.0184 11.2724 75.0184C11.2724 75.0184 2.40251 75.5685 0.932982 65.312C-0.536541 55.0555 8.40118 40.4431 8.40118 40.4431C8.40118 40.4431 2.80945 38.0316 3.75145 29.6516C4.69345 21.2715 16.9696 19.7869 16.9696 19.7869C16.9696 19.7869 17.0224 5.71716 22.697 1.98683C28.3716 -1.74349 38.1458 7.7745 38.1458 7.7745C38.1458 7.7745 53.7152 -1.64553 61.8014 1.73061C69.8875 5.10675 65.5694 17.3829 65.5694 17.3829C65.5694 17.3829 83.279 11.2637 87.5972 20.3973C91.9153 29.531 81.9452 36.125 81.9452 36.125C81.9452 36.125 94.2213 36.125 99.278 46.2383C104.335 56.3517 92.4956 62.7648 92.4956 62.7648C98.7505 65.9299 104.207 74.4683 103.634 80.4971C102.421 92.728 89.6997 95.5691 89.6997 95.5691C89.6997 95.5691 93.0533 99.6536 91.3049 102.547C89.5565 105.441 84.1532 103.934 84.1532 103.934C84.1532 103.934 86.8511 109.104 84.4697 110.716C82.0883 112.329 78.3656 111.9 78.3656 111.9L38.7412 101.952L22.1167 99.0281L16.216 98.8925Z" fill="#61EA67"/>
<path d="M27.7009 91.6191C23.9781 92.1994 21.1069 93.3599 19.5545 94.7842C12.3802 101.356 19.1249 104.144 19.1249 104.144C17.1354 107.091 16.6531 113.835 18.3713 118.621C20.0895 123.406 24.6639 120.731 24.6639 120.731C24.6639 120.731 30.4064 131.899 37.6033 132.035C41.8837 132.118 39.7661 124.71 39.7661 124.71C39.7661 124.71 50.52 130.045 54.8381 128.696C59.1563 127.347 56.7447 122.668 56.7447 122.668C56.7447 122.668 67.8453 128.448 73.8289 124.989C79.8125 121.53 72.9999 115.425 72.9999 115.425C76.2103 114.807 80.5359 110.195 78.4786 105.41C76.896 101.71 67.9282 101.303 67.9282 101.303C67.9282 101.303 69.4806 97.4218 67.9659 94.8973C66.4511 92.3727 59.1487 94.3019 59.1487 94.3019C59.1487 94.3019 59.7667 90.8354 56.8879 89.1172C51.6881 86.0274 43.2402 89.9687 43.2402 89.9687C43.2402 89.9687 39.4722 85.8315 32.7953 89.5618C32.1378 90.285 31.408 90.939 30.6174 91.5136C30.1627 91.7242 29.6705 91.8421 29.1698 91.8602C28.669 91.8783 28.1696 91.7963 27.7009 91.6191Z" fill="#368C46"/>
<path d="M20.2779 94.1595C19.6685 93.1299 19.1248 92.0626 18.6501 90.9643C18.296 89.9544 17.1429 85.787 16.9772 84.845C16.8114 83.903 16.3215 79.5698 16.3215 79.5698L16.7134 57.7154C16.7134 57.7154 15.7186 53.2993 15.8166 52.0257C16.061 48.7153 16.6161 45.4353 17.4745 42.2288C18.5446 38.8602 21.3631 34.5346 24.1514 32.6355C24.314 33.1115 24.6507 33.5082 25.0939 33.7459C25.5372 33.9836 26.054 34.0446 26.5404 33.9166C28.2024 33.4419 29.815 32.8085 31.3559 32.0251L35.983 28.5585C35.983 28.5585 34.5888 31.6935 35.2746 33.2007C35.9604 34.7079 37.9876 35.6273 40.806 35.2204C43.1369 34.8156 45.3836 34.0234 47.4528 32.8767C48.2064 32.4094 52.9993 29.4101 54.1523 27.9707C54.1523 27.9707 60.4675 29.4779 62.5851 31.4523C65.59 34.0876 68.0326 37.3017 69.767 40.9025C71.4366 44.3941 72.7008 48.0655 73.535 51.8448C73.859 53.9097 74.7483 58.8759 74.7784 59.9159C74.8086 60.9559 75.1401 66.9319 75.1401 66.9319C75.1401 66.9319 80.1441 68.6124 81.9904 71.5138C84.937 76.1635 84.4245 79.8034 81.2368 83.5714C80.0612 84.9505 75.9616 87.0305 75.9616 87.0305L75.0723 97.0082L74.168 102.555C74.168 102.555 69.4203 101.319 67.9809 101.387C68.419 99.896 68.5899 98.3397 68.4858 96.7896C68.2522 94.574 66.9786 94.1369 65.2981 93.843C63.6176 93.5491 59.209 94.3856 59.209 94.3856C59.14 92.9964 58.7914 91.6354 58.1841 90.384C57.227 88.6281 53.5721 88.1684 52.3814 88.1232C49.242 88.1289 46.1385 88.7911 43.2703 90.0675C42.1887 89.0921 40.8493 88.4485 39.4119 88.2136C37.2622 88.1299 35.1234 88.5587 33.1721 89.4646L31.0318 91.5747C31.0318 91.5747 29.0272 92.4413 27.716 91.6877C27.7009 91.6199 23.0587 92.4564 20.2779 94.1595Z" fill="#F8C2A0"/>
<path d="M57.4154 67.3531C57.0989 61.2866 53.0972 54.768 44.3178 56.245C37.1661 57.4433 33.0364 61.6559 33.5488 69.109C33.9934 75.8085 38.7562 81.0687 45.4708 80.82C51.8387 80.5788 57.7846 74.3842 57.4154 67.3531Z" fill="white"/>
<path d="M17.9644 57.3604C11.604 58.2647 8.25043 63.5399 8.98896 69.8852C9.68981 75.914 14.7314 80.7295 21.4159 79.8704C23.4236 79.5972 25.3156 78.77 26.8795 77.4815L27.3995 77.1725L29.3136 72.5153L31.484 67.3983C31.484 67.3983 30.3686 63.1103 29.3437 61.9347C28.3188 60.7591 26.1786 58.7168 26.1786 58.7168L22.9155 58.2722L17.9644 57.3604Z" fill="white"/>
<path d="M53.9716 44.2772C48.3196 43.9682 41.0172 47.4272 39.1031 49.462C35.5084 53.23 37.837 54.172 39.8567 53.9384C41.8763 53.7047 52.0198 51.4515 56.1571 49.1153C57.4533 48.3919 55.7125 44.3676 53.9716 44.2772Z" fill="#3A3A3D"/>
<path d="M28.786 58.0852C25.6737 58.7935 22.3578 58.2133 20.3156 57.8666C14.3923 56.8643 12.448 54.7241 13.8421 53.8198C15.4398 52.7873 22.5538 51.4384 27.3391 52.8853C29.2231 53.4505 30.0521 57.7988 28.786 58.0852Z" fill="#3A3A3D"/>
<path d="M56.9557 96.3217C60.2716 99.5095 59.2165 107.015 54.4312 110.052C49.6458 113.089 38.2589 115.757 32.0417 113.896C24.9578 111.786 22.2072 105.056 25.9601 101.642C29.713 98.2283 36.827 99.2758 41.9741 98.0852C47.1212 96.8945 54.1297 93.6163 56.9557 96.3217Z" fill="#CB4850"/>
<path d="M28.4243 100.423C28.4243 100.423 32.1923 105.223 34.3627 104.492C36.5331 103.761 34.6114 99.1643 34.6114 99.1643C34.6114 99.1643 37.0078 103.686 39.2536 102.782C41.4993 101.877 40.3312 98.584 40.3312 98.584C40.3312 98.584 43.6697 102.45 45.207 101.855C46.7444 101.259 45.6215 97.2652 45.6215 97.2652C45.6215 97.2652 47.6186 100.528 49.5628 99.6767C51.5071 98.8251 50.1733 95.9087 50.1733 95.9087L42.8935 98.0112L35.9076 98.9156L31.7402 99.4129L28.4243 100.423Z" fill="white"/>
<path d="M52.7808 110.309C52.7808 110.309 51.2058 108.116 50.1884 108.312C49.1711 108.508 48.9977 112.08 48.9977 112.08C48.9977 112.08 47.905 109.065 45.7874 109.374C43.6698 109.683 44.7776 113.09 44.7776 113.09C44.7776 113.09 41.9666 110.113 40.6327 110.505C39.2989 110.897 40.58 114.19 40.58 114.19C40.58 114.19 37.4375 110.339 35.5761 111.13C34.3326 111.658 35.5761 114.288 35.5761 114.288C38.0535 114.394 40.5355 114.276 42.9915 113.934C46.0059 113.383 50.731 112.23 53.1124 110.964L52.7808 110.309Z" fill="white"/>
<path d="M55.8102 108.953C54.3737 107.768 52.7781 106.792 51.0701 106.051C48.7905 105.201 46.3327 104.942 43.9259 105.298C41.7254 105.599 40.1956 106.421 40.1579 107.558C40.1202 108.696 41.6199 109.495 42.4187 109.729C43.2175 109.962 44.5816 110.226 44.5816 110.226C44.7295 109.997 44.9216 109.8 45.1468 109.646C45.372 109.492 45.6256 109.384 45.8928 109.329C46.2497 109.299 46.6086 109.359 46.9356 109.506C47.2625 109.652 47.5469 109.879 47.7618 110.166C48.2365 110.686 49.1107 111.937 49.1107 111.937C49.1107 111.937 49.4348 108.252 50.4446 108.357C51.4544 108.463 52.7054 110.068 52.7054 110.068L53.2706 110.693C54.218 110.311 55.1101 109.804 55.9233 109.186" fill="#FF0000"/>
<path d="M16.216 98.8925C16.216 98.8925 6.90151 97.6867 5.59024 89.2916C4.43723 81.8912 10.7976 75.1842 10.7976 75.1842C10.7976 75.1842 2.40251 75.5685 0.932982 65.312C-0.536541 55.0555 8.40118 40.4431 8.40118 40.4431C8.40118 40.4431 2.80945 38.0316 3.75145 29.6516C4.69345 21.2715 16.9696 19.7869 16.9696 19.7869C16.9696 19.7869 17.0224 5.71716 22.697 1.98683C28.3716 -1.74349 38.1458 7.7745 38.1458 7.7745C38.1458 7.7745 53.7152 -1.64553 61.8014 1.73061C69.8875 5.10675 65.5694 17.3829 65.5694 17.3829C65.5694 17.3829 83.279 11.2637 87.5972 20.3973C91.9153 29.531 81.9452 36.125 81.9452 36.125C81.9452 36.125 94.2213 36.125 99.278 46.2383C104.335 56.3517 92.4956 62.7648 92.4956 62.7648C98.7505 65.9299 104.207 74.4683 103.634 80.4971C102.421 92.728 89.6997 95.5691 89.6997 95.5691C89.6997 95.5691 93.0457 99.6536 91.3049 102.547C89.5641 105.441 84.1532 103.934 84.1532 103.934C84.1532 103.934 86.8511 109.104 84.4697 110.717C82.0884 112.329 78.3656 111.9 78.3656 111.9" stroke="black" stroke-linecap="round" stroke-linejoin="round"/>
<path d="M54.19 28.0222C54.19 28.0222 48.018 34.458 39.9168 35.2794C32.5164 36.033 36.081 28.497 36.081 28.497C36.081 28.497 29.9467 34.3449 25.4401 33.8777C24.0535 33.7345 23.2773 30.6523 25.3648 27.5625" stroke="black" stroke-linecap="round" stroke-linejoin="round"/>
<path d="M27.7236 91.6801C24.0008 92.2604 21.1296 93.421 19.5772 94.8453C12.4029 101.417 19.1476 104.205 19.1476 104.205C17.1581 107.152 16.6758 113.896 18.394 118.682C20.1123 123.467 24.6866 120.792 24.6866 120.792C24.6866 120.792 30.4291 131.96 37.626 132.096C41.9064 132.179 39.7888 124.771 39.7888 124.771C39.7888 124.771 50.5427 130.106 54.8608 128.757C59.179 127.408 56.7674 122.729 56.7674 122.729C56.7674 122.729 67.868 128.509 73.8441 125.05C79.8201 121.591 73.0151 115.486 73.0151 115.486C76.2179 114.868 80.5511 110.256 78.4938 105.471C76.9112 101.771 67.9434 101.364 67.9434 101.364C67.9434 101.364 69.4958 97.4829 67.981 94.9583C66.4663 92.4338 59.1639 94.363 59.1639 94.363C59.1639 94.363 59.7818 90.8964 56.9031 89.1782C51.7032 86.0884 43.2478 90.0298 43.2478 90.0298C43.2478 90.0298 39.4798 85.8925 32.8029 89.6228" stroke="black" stroke-linecap="round" stroke-linejoin="round"/>
<path d="M31.7703 66.7212C31.7703 66.7212 24.6789 81.7028 25.5606 88.1159C26.1409 92.3286 29.3814 92.3889 30.7756 91.6277C32.9535 90.437 34.3627 86.9855 34.3627 86.9855" stroke="black" stroke-linecap="round" stroke-linejoin="round"/>
<path d="M57.4154 67.3531C57.0989 61.2866 53.0972 54.768 44.3178 56.245C37.1661 57.4433 33.0364 61.6559 33.5488 69.109C33.9934 75.8085 38.7562 81.0687 45.4708 80.82C51.8387 80.5788 57.7846 74.3842 57.4154 67.3531Z" stroke="black" stroke-linecap="round" stroke-linejoin="round"/>
<path d="M17.9644 57.3604C11.604 58.2647 8.25043 63.5399 8.98896 69.8852C9.68981 75.914 14.7314 80.7295 21.4159 79.8704C23.4236 79.5972 25.3156 78.77 26.8795 77.4815" stroke="black" stroke-linecap="round" stroke-linejoin="round"/>
<path d="M31.1826 67.1041C30.6174 63.1929 28.8088 60.3217 26.0958 58.709" stroke="black" stroke-linecap="round" stroke-linejoin="round"/>
<path d="M60.1812 76.4961C60.1812 76.4961 58.5911 80.2641 55.2753 82.0652C48.4929 85.8332 43.5568 84.3863 43.5568 84.3863" stroke="black" stroke-linecap="round" stroke-linejoin="round"/>
<path d="M23.3451 83.0806C23.3451 83.0806 19.3284 84.6557 17.1354 82.6436" stroke="black" stroke-linecap="round" stroke-linejoin="round"/>
<path d="M53.8206 44.1884C48.1686 43.887 40.8662 47.3385 38.9521 49.3732C35.3499 53.1412 37.686 54.0832 39.7057 53.8496C41.7253 53.616 51.899 51.3627 56.0513 49.0266C57.3023 48.3031 55.5539 44.2789 53.8206 44.1884Z" stroke="black" stroke-linecap="round" stroke-linejoin="round"/>
<path d="M28.6278 58.0017C25.5155 58.71 22.1996 58.1298 20.1574 57.7831C14.2341 56.7808 12.2898 54.6406 13.6915 53.7363C15.2891 52.7038 22.4031 51.3549 27.1885 52.8018C29.0649 53.367 29.8939 57.7153 28.6278 58.0017Z" stroke="black" stroke-linecap="round" stroke-linejoin="round"/>
<path d="M23.7145 68.8921L23.933 71.0172" stroke="black" stroke-linecap="round" stroke-linejoin="round"/>
<path d="M22.682 70.0734L24.6499 69.998" stroke="black" stroke-linecap="round" stroke-linejoin="round"/>
<path d="M23.1115 69.2754L24.6043 70.723" stroke="black" stroke-linecap="round" stroke-linejoin="round"/>
<path d="M23.0361 70.9121L24.5516 69.2231" stroke="black" stroke-linecap="round" stroke-linejoin="round"/>
<path d="M51.2363 69.998L50.3164 71.6644" stroke="black" stroke-linecap="round" stroke-linejoin="round"/>
<path d="M49.6609 70.5723L52.0197 71.3409" stroke="black" stroke-linecap="round" stroke-linejoin="round"/>
<path d="M49.2689 71.2729L52.3436 70.5269" stroke="black" stroke-linecap="round" stroke-linejoin="round"/>
<path d="M50.2864 70.0137L51.1761 71.7328" stroke="black" stroke-linecap="round" stroke-linejoin="round"/>
<path d="M56.9783 96.4273C60.2942 99.6151 59.2391 107.121 54.4538 110.158C49.6684 113.195 38.2815 115.848 32.0417 113.986C24.9578 111.876 22.2072 105.147 25.9601 101.733C29.713 98.3189 36.827 99.3664 41.9741 98.1757C47.1212 96.985 54.1523 93.7068 56.9783 96.4273Z" stroke="black" stroke-linecap="round" stroke-linejoin="round"/>
<path d="M28.4243 100.423C28.4243 100.423 32.1923 105.223 34.3627 104.492C36.5331 103.761 34.6114 99.1643 34.6114 99.1643C34.6114 99.1643 37.0078 103.686 39.2536 102.782C41.4993 101.877 40.3312 98.584 40.3312 98.584C40.3312 98.584 43.6697 102.45 45.207 101.855C46.7444 101.259 45.6215 97.2652 45.6215 97.2652C45.6215 97.2652 47.6186 100.528 49.5628 99.6767C51.5071 98.8251 50.1733 95.9087 50.1733 95.9087" stroke="black" stroke-linecap="round" stroke-linejoin="round"/>
<path d="M55.4034 108.537C53.6636 107.165 51.6755 106.141 49.5479 105.523C45.5915 104.242 40.5047 105.447 40.158 107.083C39.8339 108.59 42.7579 110.097 44.5816 110.097" stroke="black" stroke-linecap="round" stroke-linejoin="round"/>
<path d="M35.8098 114.348C35.8098 114.348 34.5362 111.718 35.8098 111.191C37.6712 110.399 40.8137 114.25 40.8137 114.25C40.8137 114.25 39.5326 110.949 40.8665 110.565C42.2004 110.181 45.0113 113.15 45.0113 113.15C45.0113 113.15 43.896 109.721 46.0211 109.435C48.1463 109.148 49.2089 112.148 49.2089 112.148C49.2089 112.148 49.3822 108.568 50.3995 108.38C51.4169 108.191 52.9919 110.369 52.9919 110.369" stroke="black" stroke-linecap="round" stroke-linejoin="round"/>
<path d="M20.1425 94.1591C16.7211 88.5523 16.5327 79.6372 16.5327 79.6372" stroke="black" stroke-linecap="round" stroke-linejoin="round"/>
<path d="M75.8485 87.3398C75.8485 87.3398 75.4491 96.7297 74.3413 101.96" stroke="black" stroke-linecap="round" stroke-linejoin="round"/>
<path d="M75.2908 67.105C76.8185 67.434 78.2594 68.0821 79.5191 69.0068C80.7788 69.9314 81.829 71.1118 82.6008 72.4706C83.456 74.0782 83.8463 75.8923 83.7278 77.7093C83.6093 79.5263 82.9868 81.2744 81.9301 82.7573C79.6693 85.8847 75.6827 86.9699 75.6827 86.9699" stroke="black" stroke-linecap="round" stroke-linejoin="round"/>
<path d="M23.8953 32.7939C16.7286 38.4007 15.7338 48.4764 15.8845 53.0206" stroke="black" stroke-linecap="round" stroke-linejoin="round"/>
<path d="M75.1176 69.0568C75.1176 69.0568 75.2684 60.5863 74.0777 54.4218C72.887 48.2574 69.963 35.0015 59.7592 29.8168C58.0596 28.9726 56.259 28.3496 54.4011 27.9629" stroke="black" stroke-linecap="round" stroke-linejoin="round"/>
</svg>
