<svg width="108" height="136" viewBox="0 0 108 136" fill="none" xmlns="http://www.w3.org/2000/svg">
<path d="M40.1834 109.684C40.1834 109.684 34.6688 113.261 32.0212 111.388C29.3737 109.516 31.0266 104.806 31.0266 104.806C31.0266 104.806 18.2276 106.912 12.7423 96.8194C10.0655 91.8753 12.0767 82.5649 16.7429 77.6062C16.7429 77.6062 3.51237 76.319 4.57285 65.8019C5.63334 55.2848 17.0062 50.9551 17.0062 50.9551C17.0062 50.9551 0.257759 51.3792 1.0257 42.0104C1.79364 32.6415 20.7069 30.952 20.7069 30.952C20.7069 30.952 12.3839 21.9488 18.6591 16.1417C24.9343 10.3346 42.7505 12.931 42.7505 12.931C42.7505 12.931 42.6847 2.32612 52.9897 1.29488C59.6598 0.636647 71.5665 13.8013 71.5665 13.8013C71.5665 13.8013 83.4586 10.7369 87.3057 17.6045C91.1527 24.4721 86.8376 28.5751 86.8376 28.5751C86.8376 28.5751 100.339 37.9366 102.613 47.2762C104.888 56.6159 96.4917 59.2927 96.4917 59.2927C96.4917 59.2927 105.268 62.774 106.833 69.5319C108.611 77.2186 100.39 81.563 100.39 81.563C100.39 81.563 103.783 81.8994 103.242 85.1248C102.701 88.3501 96.8355 91.7071 96.8355 91.7071L40.1834 109.684Z" fill="#3A3A3D"/>
<path d="M81.323 90.2371C68.1583 83.567 67.7414 91.4878 67.7414 91.4878C67.7414 91.4878 56.1711 87.2458 51.0661 90.2225C45.9612 93.1992 49.6034 98.114 49.6034 98.114C45.4931 99.7303 39.5909 104.696 40.8269 110.006C42.063 115.316 49.6034 113.327 49.6034 113.327C49.6034 113.327 42.2092 117.715 42.553 121.511C42.8967 125.306 49.5961 126.689 52.7483 126.191C52.7483 126.191 48.4698 133.805 55.1106 134.917C61.7515 136.028 70.0745 127.303 70.0745 127.303C70.0745 127.303 69.3431 132.203 73.7899 131.984C78.2366 131.764 86.4426 123.544 86.4426 123.544C86.4426 123.544 86.918 130.784 90.8308 129.322C97.4132 126.857 99.0442 115.111 99.0442 115.111C99.0442 115.111 104.164 115.989 104.164 111.198C104.164 106.408 101.509 100.608 98.715 98.6479C98.715 98.6479 104.01 93.9891 95.263 90.5077C93.3614 89.7764 89.5071 89.8422 85.8868 90.5077L83.2904 91.1733L81.323 90.2371Z" fill="#3A3A3D"/>
<path d="M43.3721 102.151C43.3721 102.151 39.7591 101.603 37.8429 99.5109C35.9267 97.4191 35.0344 96.1685 34.7638 92.8042C34.4932 89.4399 38.5304 85.5343 40.1686 84.6421C40.1686 84.6421 38.4499 74.4614 38.4134 72.6841C38.3768 70.9069 37.7844 58.9782 38.9326 54.3998C40.0809 49.8214 42.7723 44.0436 44.6958 42.4346C46.6193 40.8256 52.2582 35.9107 57.3851 34.3383C62.5121 32.7658 69.8624 31.7858 72.4002 32.1442C74.9381 32.5026 79.6554 35.0185 80.5843 36.3934C81.5131 37.7684 84.0144 39.6773 85.521 42.5297L87.1812 45.4552C87.1812 45.4552 90.0117 52.6153 90.7503 54.1804C91.2262 55.3154 91.5104 56.5215 91.5914 57.7495L94.9557 77.8842L95.3141 86.9532L95.4238 90.2298L92.118 89.8421C92.118 89.8421 87.1374 90.2224 86.7863 90.3321L85.5942 90.1859C85.327 90.4909 84.9805 90.716 84.5932 90.836C84.2059 90.9561 83.7929 90.9665 83.4 90.8661C82.3041 90.584 81.2599 90.1298 80.3063 89.5203C80.3063 89.5203 75.8011 87.7138 73.9507 87.5164C72.2441 87.3909 70.5427 87.822 69.1017 88.7451C67.9242 89.4764 68.0339 91.495 68.0339 91.495C68.0339 91.495 60.4569 89.2278 58.2555 89.1327C56.054 89.0376 52.2948 88.4013 49.5595 91.5462C46.8241 94.6911 49.4424 97.8287 49.4424 97.8287C47.5843 98.8494 45.8639 100.103 44.3228 101.559L43.3721 102.151Z" fill="#F8C2A0"/>
<path d="M49.6766 53.9393C52.88 49.4633 58.0142 46.8596 60.7276 46.6256C65.8033 46.2087 65.072 48.5272 63.6531 49.8948C62.2342 51.2625 56.5954 55.1534 53.114 57.3256C51.9365 58.1081 48.6892 55.3143 49.6766 53.9393Z" fill="#3A3A3D"/>
<path d="M80.0284 48.3226C82.2225 49.9536 85.148 50.6118 86.9106 51.0287C92.0668 52.2355 94.5096 51.175 93.7636 49.9755C92.9079 48.6078 87.7663 45.0899 83.3415 44.6292C81.5936 44.439 79.1288 47.6571 80.0284 48.3226Z" fill="#3A3A3D"/>
<path d="M52.4704 71.4335C51.3368 65.8092 55.0668 59.439 61.8101 58.1664C68.5533 56.8938 73.4169 60.4336 74.7407 67.3744C75.9255 73.6057 72.8172 79.5444 66.6225 80.9048C60.713 82.1993 53.8015 77.95 52.4704 71.4335Z" fill="white"/>
<path d="M72.4955 101.303C69.7382 99.7231 66.4836 94.662 61.9344 94.6108C56.2444 94.5523 51.2125 100.462 53.6772 106.313C56.142 112.164 64.0847 117.408 73.4828 116.486C83.9707 115.455 91.0942 110.789 93.8588 105.128C96.6234 99.4671 95.1461 95.7151 90.831 95.3714C86.5159 95.0277 83.7805 98.2969 82.3763 99.9205C80.3285 102.363 75.7354 103.168 72.4955 101.303Z" fill="#CB4850"/>
<path d="M78.522 69.7955C78.522 69.7955 78.5586 64.6174 79.524 63.0815C81.0359 60.8846 83.2005 59.219 85.7114 58.3202C88.4175 57.4865 91.2625 57.0988 93.091 58.0643C94.9194 59.0297 98.1155 60.7338 99.2052 64.6027C100.295 68.4717 99.3076 73.3792 97.918 74.7469C96.5284 76.1145 94.7731 77.9064 91.8623 78.7036C88.9514 79.5008 85.0459 78.3086 85.0459 78.3086L83.9342 77.7894C83.9342 77.7894 80.2188 71.2875 78.522 69.7955Z" fill="white"/>
<path d="M67.2514 97.1777C67.2514 97.1777 64.5819 99.3718 65.0573 101.003C65.5327 102.634 69.9795 99.6424 69.9795 99.6424C69.9795 99.6424 68.0925 103.833 69.0652 104.287C70.038 104.74 73.1244 102.29 73.1244 102.29C73.1244 102.29 71.9615 106.108 73.6509 106.188C75.3404 106.269 77.359 102.531 77.359 102.531C77.359 102.531 78.8217 106.744 80.3284 105.684C81.835 104.623 82.442 100.074 82.442 100.074C82.442 100.074 85.3236 102.948 86.4061 101.537C87.4885 100.125 85.5577 97.1484 85.5577 97.1484L83.3636 98.8672C82.3718 100.148 81.06 101.144 79.5604 101.756C77.3151 102.539 75.633 102.67 74.141 102.173C72.9065 101.64 71.7561 100.93 70.7255 100.067L67.2514 97.1777Z" fill="white"/>
<path d="M75.5964 109.743C75.2234 108.909 71.7202 108.127 69.7455 108.427C67.1607 108.697 64.6407 109.404 62.2928 110.518C59.7695 111.864 58.7529 112.493 58.7529 112.493C60.6678 113.722 62.6956 114.765 64.8087 115.609L67.0686 113.195C68.6242 112.716 70.2037 112.318 71.8006 112.003C73.4608 111.732 75.9987 110.635 75.5964 109.743Z" fill="#FF0000"/>
<path d="M40.4174 109.421C40.4174 109.421 34.9029 112.997 32.2553 111.125C29.6077 109.253 31.2606 104.543 31.2606 104.543C31.2606 104.543 18.4616 106.642 12.9763 96.5562C10.2995 91.6194 12.3108 82.3018 16.9769 77.3431C16.9769 77.3431 3.74641 76.0558 4.8069 65.5387C5.86739 55.0216 17.2402 50.6919 17.2402 50.6919C17.2402 50.6919 0.499117 51.1014 1.25974 41.7472C2.02037 32.3929 20.941 30.6815 20.941 30.6815C20.941 30.6815 12.618 21.6783 18.8931 15.8712C25.1683 10.0641 42.9845 12.6605 42.9845 12.6605C42.9845 12.6605 42.926 2.06292 53.231 1.02437C59.9012 0.358823 71.8152 13.5455 71.8152 13.5455C71.8152 13.5455 83.7073 10.481 87.5543 17.3486C91.4014 24.2162 87.079 28.3192 87.079 28.3192C87.079 28.3192 100.573 37.7027 102.847 47.0423C105.122 56.3819 96.7257 59.0588 96.7257 59.0588C96.7257 59.0588 105.502 62.5401 107.067 69.298C108.845 76.9847 100.624 81.329 100.624 81.329C100.624 81.329 104.018 81.6655 103.476 84.8908C102.935 88.1162 97.0695 91.4732 97.0695 91.4732" stroke="black" stroke-linecap="round" stroke-linejoin="round"/>
<path d="M78.6536 69.5322C78.6536 69.5322 86.9766 80.0055 87.0351 87.4289C87.0351 91.0419 83.9121 91.2613 82.5006 90.6835C80.3065 89.7766 78.5585 86.9169 78.5585 86.9169" stroke="black" stroke-linecap="round" stroke-linejoin="round"/>
<path d="M49.874 53.8734C53.0774 49.3974 58.219 46.7937 60.9251 46.5597C66.0008 46.1428 65.2694 48.4612 63.8506 49.8289C62.4317 51.1966 56.7928 55.0875 53.3115 57.2596C52.1705 58.0349 48.9232 55.2484 49.874 53.8734Z" stroke="black" stroke-linecap="round" stroke-linejoin="round"/>
<path d="M80.2552 48.2488C82.4494 49.8797 85.3748 50.538 87.1375 50.9549C92.2936 52.1616 94.7364 51.1011 93.9904 49.9017C93.1347 48.5267 87.9932 45.0161 83.561 44.5553C81.8277 44.3725 79.363 47.5905 80.2552 48.2488Z" stroke="black" stroke-linecap="round" stroke-linejoin="round"/>
<path d="M88.1174 67.228L89.2438 70.9068" stroke="black" stroke-linecap="round" stroke-linejoin="round"/>
<path d="M90.6553 68.4722L87.3495 69.7155" stroke="black" stroke-linecap="round" stroke-linejoin="round"/>
<path d="M89.39 67.4404L87.9126 70.8779" stroke="black" stroke-linecap="round" stroke-linejoin="round"/>
<path d="M90.6479 70.1025L86.9691 68.3545" stroke="black" stroke-linecap="round" stroke-linejoin="round"/>
<path d="M62.6218 69.5322L64.5673 71.5435" stroke="black" stroke-linecap="round" stroke-linejoin="round"/>
<path d="M64.5234 69.2686L62.695 72.3111" stroke="black" stroke-linecap="round" stroke-linejoin="round"/>
<path d="M65.3425 70.1172L61.8685 71.2289" stroke="black" stroke-linecap="round" stroke-linejoin="round"/>
<path d="M63.5651 68.8521L63.7626 72.2968" stroke="black" stroke-linecap="round" stroke-linejoin="round"/>
<path d="M86.7938 90.325C90.414 89.5936 93.4273 89.718 95.3289 90.4713C104.105 93.9453 98.7809 98.6041 98.7809 98.6041C101.575 100.557 104.222 106.364 104.23 111.154C104.237 115.945 99.1101 115.067 99.1101 115.067C99.1101 115.067 97.4718 126.813 90.8967 129.278C86.9912 130.741 86.5085 123.5 86.5085 123.5C86.5085 123.5 78.3976 131.728 73.9362 131.947C69.4749 132.167 70.2209 127.267 70.2209 127.267C70.2209 127.267 61.8978 135.992 55.257 134.873C48.6161 133.754 52.8946 126.148 52.8946 126.148C49.7424 126.645 43.0431 125.241 42.6993 121.467C42.3556 117.693 49.7498 113.268 49.7498 113.268C49.7498 113.268 42.202 115.228 40.9733 109.948C39.7446 104.667 45.6175 99.7085 49.7498 98.0556C49.7498 98.0556 46.0929 93.1481 51.2125 90.1641C56.3321 87.1801 67.8878 91.4294 67.8878 91.4294C67.8878 91.4294 68.2973 83.5159 81.4694 90.1787" stroke="black" stroke-linecap="round" stroke-linejoin="round"/>
<path d="M52.7045 71.3603C51.5563 65.7287 55.3009 59.3731 62.0441 58.1005C68.7874 56.8279 73.651 60.3677 74.9675 67.3085C76.1523 73.5397 73.0367 79.4785 66.8419 80.8388C60.9398 82.1334 54.0356 77.8768 52.7045 71.3603Z" stroke="black" stroke-linecap="round" stroke-linejoin="round"/>
<path d="M85.1556 78.0308C86.8941 78.8411 88.8242 79.1501 90.7287 78.9231C97.0404 78.1332 100.514 72.5382 99.7246 66.8481C98.8981 60.8801 94.605 57.4354 88.5492 57.5231C87.2035 57.5231 83.2248 59.0371 81.4329 60.69C79.2388 62.7159 78.3612 65.8681 78.7707 69.5761" stroke="black" stroke-linecap="round" stroke-linejoin="round"/>
<path d="M49.6621 78.1626C50.737 80.6037 52.6198 82.6002 54.9938 83.8161C58.3183 85.4316 62.1108 85.8051 65.6865 84.8693" stroke="black" stroke-linecap="round" stroke-linejoin="round"/>
<path d="M89.7558 83.1726C89.7558 83.1726 93.8003 83.6626 95.3289 81.3003" stroke="black" stroke-linecap="round" stroke-linejoin="round"/>
<path d="M72.5465 101.296C69.7893 99.7162 66.5273 94.6551 61.9855 94.6039C56.2955 94.5454 51.2636 100.455 53.7283 106.306C56.1931 112.157 64.1358 117.401 73.5339 116.479C84.0218 115.448 91.1453 110.782 93.9099 105.121C96.6745 99.4603 95.1971 95.701 90.9186 95.3573C86.6401 95.0135 83.8682 98.2827 82.464 99.9064C80.3576 102.356 75.7646 103.161 72.5465 101.296Z" stroke="black" stroke-linecap="round" stroke-linejoin="round"/>
<path d="M85.5575 97.0024C85.5575 97.0024 87.4883 100.023 86.4059 101.391C85.3235 102.758 82.4419 99.9279 82.4419 99.9279C82.4419 99.9279 81.8348 104.477 80.3282 105.538C78.8216 106.598 77.3588 102.385 77.3588 102.385C77.3588 102.385 75.3476 106.159 73.6508 106.042C71.954 105.925 73.1242 102.144 73.1242 102.144C73.1242 102.144 70.0378 104.594 69.0651 104.141C68.0924 103.687 69.9793 99.4964 69.9793 99.4964C69.9793 99.4964 65.5911 102.502 65.0572 100.857C64.5233 99.2112 67.2513 97.039 67.2513 97.039" stroke="black" stroke-linecap="round" stroke-linejoin="round"/>
<path d="M58.6505 112.624C60.9752 111.04 63.521 109.808 66.2056 108.967C69.9063 107.98 76.1888 108.58 75.6476 110.101C75.1064 111.622 64.7648 113.692 64.7648 113.692" stroke="black" stroke-linecap="round" stroke-linejoin="round"/>
<path d="M68.3778 112.793C67.0846 113.303 65.9616 114.167 65.1378 115.287" stroke="black" stroke-linecap="round" stroke-linejoin="round"/>
<path d="M40.176 84.3495C40.176 84.3495 36.3217 65.7288 39.3203 53.1419C43.0942 37.2053 60.4862 32.5611 69.131 32.2685C77.7758 31.976 84.7458 39.5237 87.2471 45.3674" stroke="black" stroke-linecap="round" stroke-linejoin="round"/>
<path d="M91.6648 57.4722C91.3179 55.4592 90.6303 53.5201 89.6316 51.7383" stroke="black" stroke-linecap="round" stroke-linejoin="round"/>
<path d="M95.029 77.687C95.029 77.687 95.5336 86.7633 95.3289 90.4714" stroke="black" stroke-linecap="round" stroke-linejoin="round"/>
<path d="M41.0464 84.2988C41.0464 84.2988 34.7054 86.7124 34.8956 93.4995C35.0857 100.287 42.6042 102.466 44.3303 101.94" stroke="black" stroke-linecap="round" stroke-linejoin="round"/>
</svg>
