<svg width="91" height="103" viewBox="0 0 91 103" fill="none" xmlns="http://www.w3.org/2000/svg">
<path d="M44.2797 11.8065C44.2797 11.8065 60.8746 10.5558 75.3265 20.7365C90.188 31.1732 90.7731 51.8418 90.188 59.1116C89.1421 72.1008 80.5704 82.1279 76.9721 86.7063C73.1324 91.5772 67.1205 95.8704 63.2881 97.9548C59.4557 100.039 46.0131 104.793 30.1277 98.0718C24.2767 95.5925 14.2496 87.1012 9.37136 80.102C2.42332 70.1261 -0.736204 58.8922 1.95525 45.6617C4.03739 34.8073 10.2785 25.1963 19.3473 18.8788C24.7667 15.222 33.9747 12.2965 33.9747 12.2965" fill="#26D8FF"/>
<path d="M18.6233 63.9827C19.7789 61.0938 22.3314 61.8983 25.1179 62.3591C27.9044 62.8199 39.9575 64.4435 48.3024 61.8983C56.6474 59.3532 66.1625 54.0361 69.4098 52.1565C72.6571 50.2768 74.1125 52.3539 74.7415 53.5461C75.9044 55.7402 75.0341 57.8904 73.3519 59.5726C69.8706 63.0539 59.4558 69.5412 50.1674 71.8596C40.879 74.1781 27.2096 72.591 23.2675 71.1283C19.3255 69.6655 17.2337 67.4641 18.6233 63.9827Z" fill="#CB4850"/>
<path d="M45.2745 11.8727L45.0989 9.83222C45.8661 8.80904 46.5369 7.71708 47.1029 6.5703C47.454 5.56832 47.4979 4.26647 46.7153 3.91542C45.9327 3.56436 44.1043 4.87351 43.3217 6.17536C43.3217 6.17536 41.859 3.13285 40.2792 2.17475C38.6994 1.21665 37.1928 0.704693 36.1031 1.18008C35.0133 1.65548 35.496 3.3742 36.2347 4.57365C36.5384 5.10287 36.9043 5.59393 37.3245 6.0364C35.9884 5.98358 34.6502 6.04229 33.3239 6.21193C32.2341 6.47522 29.7182 6.9433 30.1058 8.29634C30.4934 9.64937 32.9728 9.59818 32.9728 9.59818L37.3171 9.72983C37.3171 9.72983 35.123 11.1926 34.6623 11.9239C34.2015 12.6553 33.9309 13.6646 34.7939 13.7524C35.6569 13.8401 38.2314 12.4505 38.2314 12.4505L39.7526 11.4047C39.7526 11.4047 38.8384 13.4891 39.5771 14.0595C40.3158 14.63 41.6176 13.5842 41.9248 13.277C42.232 12.9698 43.1901 11.6168 43.1901 11.6168L45.2745 11.8727Z" fill="#E48F4C"/>
<path d="M22.1047 62.4759C22.2024 63.0965 22.4884 63.6721 22.924 64.1247C23.3596 64.5774 23.9238 64.8852 24.5402 65.0065C26.7343 65.4673 29.2941 62.9221 29.2941 62.9221C29.2941 62.9221 30.223 66.4034 32.8852 66.4034C35.5474 66.4034 37.405 63.2731 37.405 63.2731C37.405 63.2731 37.8804 66.8569 41.5812 66.5204C44.1337 66.2864 46.3351 62.4613 46.3351 62.4613C46.3351 62.4613 48.9973 65.9573 52.7127 64.4433C55.309 63.3902 55.6381 59.3237 55.6381 59.3237C55.6381 59.3237 58.4174 62.688 61.5476 60.8304C64.6779 58.9727 63.7418 55.3816 63.7418 55.3816C63.7418 55.3816 66.1772 57.8171 68.8614 56.3105C71.5455 54.8039 70.3314 51.8418 70.3314 51.8418H69.8414L60.1068 56.9614C58.6441 57.744 51.089 60.7645 49.3703 61.3935C45.4575 62.8563 39.0287 63.4194 33.4995 63.0903C29.6801 62.8677 25.876 62.4331 22.1047 61.7885V62.4759Z" fill="white"/>
<path d="M29.5939 72.013C29.848 71.4319 30.2715 70.9409 30.8091 70.6042C31.3467 70.2676 31.9733 70.1009 32.6071 70.1261C34.9256 70.1261 35.2766 72.5616 35.2766 72.5616C35.6326 71.9303 36.1343 71.3932 36.7398 70.995C37.3454 70.5968 38.0373 70.349 38.758 70.2724C41.0764 70.1553 41.3105 72.7078 41.3105 72.7078C41.3105 72.7078 42.0418 69.7823 44.3237 69.6946C46.6056 69.6068 47.337 72.013 47.337 72.013C47.337 72.013 47.571 68.9998 50.2625 68.422C52.9539 67.8442 54.0875 70.3894 54.0875 70.3894C54.0875 70.3894 54.0875 67.0251 56.8667 66.3303C59.646 65.6355 60.8088 67.1421 60.8088 67.1421C60.8088 67.1421 60.3481 64.1288 62.4325 63.8948C64.5169 63.6608 64.985 64.9407 64.985 64.9407C64.985 64.9407 65.1312 65.6135 63.7416 66.1401C62.352 66.6667 58.6952 68.7511 57.3933 69.1826C56.0915 69.6141 51.6959 71.4864 49.6554 71.8814C47.6149 72.2763 40.8789 73.1832 38.875 72.9711C36.871 72.759 29.6524 72.7151 29.5939 72.013Z" fill="white"/>
<path d="M18.5064 63.8657C19.662 60.9402 22.2145 61.7813 25.001 62.2421C27.7875 62.7028 39.8406 64.3265 48.1928 61.7813C56.5451 59.2361 66.0456 53.8971 69.2929 52.0394C72.5402 50.1817 73.9956 52.2369 74.6246 53.429C75.7875 55.6232 74.9172 57.7734 73.235 59.4555C69.761 62.9369 59.3389 69.4241 50.0432 71.7426C40.7475 74.061 27.0854 72.474 23.1433 71.0112C19.2012 69.5485 17.1168 67.3471 18.5064 63.8657Z" stroke="black" stroke-linecap="round" stroke-linejoin="round"/>
<path d="M22.1047 62.3592C22.1982 62.9837 22.4824 63.5642 22.9183 64.0211C23.3543 64.478 23.9207 64.789 24.5402 64.9117C26.7343 65.3725 29.2941 62.8273 29.2941 62.8273C29.2941 62.8273 30.223 66.3086 32.8852 66.3086C35.5474 66.3086 37.405 63.1783 37.405 63.1783C37.405 63.1783 37.8804 66.7621 41.5812 66.4256C44.1337 66.1916 46.3351 62.3665 46.3351 62.3665C46.3351 62.3665 49.0046 65.8478 52.7127 64.3412C55.309 63.288 55.6382 59.2216 55.6382 59.2216C55.6382 59.2216 58.4174 62.5859 61.5476 60.7282C64.6779 58.8706 63.7418 55.2795 63.7418 55.2795C63.7418 55.2795 66.1772 57.715 68.8614 56.2084C71.5455 54.7017 70.368 51.6885 70.368 51.6885" stroke="black" stroke-linecap="round" stroke-linejoin="round"/>
<path d="M29.6378 71.9837C29.8963 71.408 30.3218 70.9232 30.859 70.592C31.3962 70.2608 32.0205 70.0985 32.651 70.126C34.9695 70.126 35.3205 72.5615 35.3205 72.5615C35.6735 71.9252 36.1738 71.3826 36.7794 70.9792C37.3851 70.5759 38.0786 70.3234 38.8019 70.2431C41.1203 70.126 41.3543 72.6785 41.3543 72.6785C41.3543 72.6785 42.0857 69.753 44.3676 69.6653C46.6495 69.5775 47.3808 71.9837 47.3808 71.9837C47.3808 71.9837 47.6149 68.9705 50.3063 68.3927C52.9978 67.8149 54.1168 70.3601 54.1168 70.3601C54.1168 70.3601 54.1168 66.9958 56.896 66.301C59.6752 65.6062 60.8381 67.1128 60.8381 67.1128C60.8381 67.1128 60.3773 64.0995 62.4617 63.8655C64.5462 63.6315 65.0142 64.9114 65.0142 64.9114" stroke="black" stroke-linecap="round" stroke-linejoin="round"/>
<path d="M52.1348 75.2461C52.1348 75.2461 47.4979 77.5645 42.744 76.9868" stroke="black" stroke-linecap="round" stroke-linejoin="round"/>
<path d="M19.7863 57.2617C19.7863 57.2617 15.8442 57.4958 13.7598 60.0409C11.6753 62.5861 11.0902 67.457 12.3701 69.1977" stroke="black" stroke-linecap="round" stroke-linejoin="round"/>
<path d="M71.1431 47.2855C71.1431 47.2855 75.2022 45.7789 77.6377 47.5195C80.0732 49.2602 80.3072 55.4988 78.4495 57.8392" stroke="black" stroke-linecap="round" stroke-linejoin="round"/>
<path d="M45.289 11.4633L44.9379 9.83967C44.9379 9.83967 48.3681 6.18281 47.132 4.33244C45.896 2.48207 42.5975 6.68014 42.8535 7.52122" stroke="black" stroke-linecap="round" stroke-linejoin="round"/>
<path d="M43.2047 6.24132C43.2047 6.24132 41.4641 1.3777 37.522 1.02664C33.5799 0.67558 36.1324 6.24132 39.4967 7.60899" stroke="black" stroke-linecap="round" stroke-linejoin="round"/>
<path d="M37.0321 6.07324C37.0321 6.07324 30.5375 5.92696 30.0767 7.90167C29.616 9.87637 35.5547 10.1543 39.4895 9.48874" stroke="black" stroke-linecap="round" stroke-linejoin="round"/>
<path d="M37.756 9.72266C37.756 9.72266 33.4628 12.0411 34.1576 13.5477C34.8524 15.0544 39.7234 11.4633 39.7234 11.4633C39.7234 11.4633 38.4508 14.2425 40.3011 14.1328C42.1515 14.0231 43.2266 11.5803 43.2266 11.5803" stroke="black" stroke-linecap="round" stroke-linejoin="round"/>
<path d="M44.3603 11.8065C44.3603 11.8065 60.9552 10.5558 75.4363 20.7365C90.2759 31.1732 90.861 51.8418 90.2759 59.1116C89.23 72.1008 80.6583 82.1279 77.06 86.7063C73.2349 91.5772 67.2011 95.8631 63.376 97.9548C59.5509 100.047 46.101 104.793 30.2156 98.0718C24.3646 95.5925 14.3375 87.1012 9.45926 80.102C2.51122 70.1261 -0.64099 58.8922 2.04315 45.6617C4.12529 34.8073 10.3664 25.1963 19.4352 18.8788C24.8546 15.222 34.0626 12.2965 34.0626 12.2965" stroke="black" stroke-linecap="round" stroke-linejoin="round"/>
<path d="M54.797 95.6367C54.797 95.6367 52.2445 98.65 48.9972 98.884C45.7499 99.1181 41.5738 98.65 39.9575 96.1048" stroke="black" stroke-linecap="round" stroke-linejoin="round"/>
<path d="M37.8145 53.3049C37.3013 53.2161 36.8129 53.0187 36.3821 52.7259C35.9512 52.4332 35.588 52.0517 35.3165 51.6071C35.0451 51.1626 34.8717 50.6652 34.8081 50.1482C34.7445 49.6312 34.792 49.1066 34.9476 48.6094C35.5546 46.3495 37.2953 44.9526 39.2919 45.4792C41.2886 46.0058 42.5099 48.6972 42.3344 50.1746C42.2579 50.6839 42.078 51.1722 41.8057 51.6094C41.5334 52.0466 41.1745 52.4234 40.751 52.7166C40.3276 53.0099 39.8486 53.2133 39.3436 53.3145C38.8386 53.4157 38.3182 53.4124 37.8145 53.3049Z" fill="black"/>
<path d="M46.6861 49.8087C46.3277 48.0095 47.4174 45.2011 49.9919 45.1133C52.0763 45.0401 53.4732 47.0295 53.3854 48.9384C53.2977 50.8472 52.0836 52.7634 50.1674 52.7634C48.2512 52.7634 47.1176 51.9809 46.6861 49.8087Z" fill="black"/>
<path d="M37.5514 49.4649C37.3115 49.3867 37.1003 49.239 36.9445 49.0404C36.7888 48.8419 36.6956 48.6015 36.6768 48.3499C36.658 48.0983 36.7144 47.8468 36.8389 47.6273C36.9634 47.4078 37.1503 47.2303 37.3759 47.1172C38.5899 46.3859 39.2043 47.8998 39.0288 48.5068C38.9967 48.6678 38.9327 48.8207 38.8406 48.9566C38.7484 49.0924 38.63 49.2084 38.4923 49.2977C38.3546 49.387 38.2004 49.4478 38.0388 49.4765C37.8772 49.5053 37.7115 49.5013 37.5514 49.4649Z" fill="white"/>
<path d="M48.5949 49.4651C48.3601 49.4144 48.1461 49.2941 47.9809 49.1197C47.8157 48.9454 47.707 48.7252 47.669 48.488C47.6311 48.2509 47.6657 48.0078 47.7682 47.7906C47.8708 47.5734 48.0366 47.3923 48.2438 47.2709C48.4118 47.1369 48.6147 47.0536 48.8284 47.0311C49.0422 47.0086 49.2579 47.0477 49.4502 47.1438C49.6424 47.2399 49.8031 47.3891 49.9134 47.5736C50.0236 47.7581 50.0787 47.9703 50.0723 48.1852C50.2478 49.114 49.6408 49.5455 48.5949 49.4651Z" fill="white"/>
</svg>
