<svg width="122" height="103" viewBox="0 0 122 103" fill="none" xmlns="http://www.w3.org/2000/svg">
<path d="M96.4441 90.5203C96.4441 90.5203 100.642 85.898 102.046 82.541C104.038 77.3322 105.269 71.864 105.703 66.3045C105.804 61.1135 105.191 55.9333 103.882 50.9091C103.151 48.8101 98.704 36.3475 98.704 36.3475L94.7473 30.6209C94.7473 30.6209 89.5692 21.5226 87.887 19.9794C86.2049 18.4362 79.7688 14.2381 76.5507 12.5633C73.3327 10.8885 68.2935 9.74751 64.2637 9.46959C60.2338 9.19167 58.4127 8.62851 55.7213 9.60855C55.7213 9.60855 54.8802 7.9264 53.7612 7.64848C52.6422 7.37055 51.099 5.97363 48.6928 5.97363C46.2866 5.97363 45.7673 6.705 45.6137 7.50951C45.5674 8.53796 45.6139 9.56849 45.7527 10.5886C45.7527 10.5886 43.7926 11.0055 43.2294 12.2707C42.6663 13.536 41.4083 17.8731 41.4083 17.8731C41.4083 17.8731 38.7461 20.7985 37.3492 22.7733C35.9523 24.748 33.5461 34.8043 33.4363 36.6254C33.3266 38.4466 31.3519 51.8819 32.8732 58.3252C34.3944 64.7686 36.2302 72.4627 42.381 82.1241C48.5319 91.7855 52.4593 95.4204 55.8163 97.2416C59.1733 99.0627 66.1726 101.023 69.5369 101.301C72.902 101.474 76.2759 101.334 79.6152 100.884C81.5753 100.606 82.5407 100.152 85.4662 101.023C88.3917 101.893 90.0884 103.546 94.0086 100.884C94.0086 100.884 96.1076 100.043 96.1076 96.6857C96.1076 93.3287 96.4441 90.5203 96.4441 90.5203Z" fill="#FBF86E"/>
<path d="M75.1832 42.3224C76.3607 39.1848 76.1632 33.8823 73.6107 30.7447C71.0582 27.6072 65.1707 26.6271 61.6382 28.5506C58.1056 30.4741 55.1655 36.7932 56.343 40.9108C57.5205 45.0284 63.4081 48.9559 69.6833 46.7618C75.9584 44.5677 75.1832 42.3224 75.1832 42.3224Z" fill="white"/>
<path d="M89.9714 21.3246C92.8969 23.0141 94.9959 26.8026 94.9959 28.9821C94.9959 31.7321 94.0159 35.6522 91.2659 37.2247C88.5159 38.7971 84.5958 38.0072 84.5958 38.0072C84.6791 37.4838 84.5909 36.9475 84.3445 36.4782C84.098 36.009 83.7064 35.632 83.2281 35.4036C81.546 34.6722 80.3026 36.4421 80.3026 36.4421C77.3772 34.0871 76.3752 27.8046 77.9476 24.8645C78.9442 23.101 80.5017 21.7211 82.3724 20.9443C82.3724 20.9443 86.7387 21.9536 89.9714 21.3246Z" fill="white"/>
<path d="M72.5356 53.0223C69.0616 53.8634 68.3594 56.6134 69.0616 59.4584C69.7637 62.3035 72.7623 65.719 78.4012 65.1924C84.0401 64.6658 92.9335 60.6944 94.857 56.7962C97.3949 51.6766 95.3617 46.5058 91.2002 46.557C86.1391 46.6009 84.6178 50.2724 80.3832 52.0642C77.6844 53.1979 75.2343 52.3714 72.5356 53.0223Z" fill="#682527"/>
<path d="M89.7448 46.7109C89.9321 47.1 89.9606 47.5467 89.824 47.9563C89.6875 48.3659 89.3967 48.7062 89.0134 48.9051C87.6384 49.7022 86.5706 47.8665 86.5706 47.8665C86.5706 47.8665 87.6238 49.8485 86.4024 50.5141C85.181 51.1796 83.7841 49.907 83.7841 49.907C83.7841 49.907 84.9909 51.7501 83.7841 52.5619C82.5774 53.3737 81.473 51.8305 81.473 51.8305C81.473 51.8305 81.9703 53.3372 81.0488 53.8711C80.1273 54.405 79.1838 53.0154 79.1838 53.0154C79.1082 53.4348 78.9369 53.8312 78.6832 54.1737C78.4295 54.5162 78.1003 54.7955 77.721 54.9901C76.507 55.502 76.2583 52.9788 76.2583 52.9788C76.2583 52.9788 80.1199 52.6351 82.5335 50.8505C84.947 49.066 87.1192 46.9523 89.7448 46.7109Z" fill="white"/>
<path d="M92.0559 59.8171C92.0559 59.8171 90.6883 58.0618 89.2621 58.9541C87.8359 59.8464 88.6843 61.8796 88.6843 61.8796C88.6843 61.8796 87.3532 59.6343 85.9343 60.3291C84.5155 61.0239 86.0514 63.0863 86.0514 63.0863C86.0514 63.0863 83.7329 60.8922 83.0235 61.2213C82.314 61.5505 82.5408 64.2346 82.5408 64.2346C82.5408 64.2346 81.3048 61.9966 80.098 62.4062C78.8912 62.8157 79.4324 65.1196 79.4324 65.1196C79.4324 65.1196 78.4743 63.1887 77.2822 63.4081C76.0901 63.6276 76.2802 65.2146 76.2802 65.2146C79.0184 65.2689 81.7396 64.7715 84.2814 63.7519C86.9617 62.6236 89.5596 61.3088 92.0559 59.8171Z" fill="white"/>
<path d="M74.0787 64.7317C74.4411 63.652 75.0183 62.6569 75.7754 61.8062C78.5254 59.0855 79.6517 58.6686 81.2973 58.1932C82.2993 57.9007 84.9542 58.6467 84.8371 57.0962C84.7201 55.5456 81.3778 55.0849 77.4649 56.5623C74.6963 57.596 72.2176 59.2819 70.239 61.4771C70.239 61.4771 71.7456 64.7024 74.0787 64.7317Z" fill="#FF0000"/>
<path d="M89.8543 31.9219L90.7905 33.9843" stroke="black" stroke-linecap="round" stroke-linejoin="round"/>
<path d="M91.4268 32.4561L89.5984 33.4288" stroke="black" stroke-linecap="round" stroke-linejoin="round"/>
<path d="M90.615 31.9512L90.0153 34.0648" stroke="black" stroke-linecap="round" stroke-linejoin="round"/>
<path d="M91.5439 33.4071L89.2693 32.6685" stroke="black" stroke-linecap="round" stroke-linejoin="round"/>
<path d="M66.5381 42.1396L67.467 44.2021" stroke="black" stroke-linecap="round" stroke-linejoin="round"/>
<path d="M68.1108 42.6738L66.2751 43.6466" stroke="black" stroke-linecap="round" stroke-linejoin="round"/>
<path d="M67.2916 42.1689L66.6919 44.2826" stroke="black" stroke-linecap="round" stroke-linejoin="round"/>
<path d="M68.2204 43.6244L65.9532 42.8857" stroke="black" stroke-linecap="round" stroke-linejoin="round"/>
<path d="M82.5991 41.1889C83.6342 40.3508 84.3306 39.1659 84.5592 37.8538C84.7566 35.8937 82.7966 34.197 81.0266 35.9888C79.2567 37.7807 79.264 38.0513 79.264 38.0513" stroke="black" stroke-linecap="round" stroke-linejoin="round"/>
<path d="M75.1391 42.169C76.3166 39.0315 76.1191 33.729 73.5666 30.5914C71.0141 27.4538 65.1266 26.4738 61.594 28.3973C58.0615 30.3208 55.1214 36.6399 56.2989 40.7575C57.4764 44.8751 63.364 48.8026 69.6391 46.6085C75.9143 44.4144 75.1391 42.169 75.1391 42.169Z" stroke="black" stroke-linecap="round" stroke-linejoin="round"/>
<path d="M82.3212 20.7832C80.448 21.5591 78.888 22.939 77.8891 24.7034C76.3166 27.6288 77.304 33.926 80.2441 36.281" stroke="black" stroke-linecap="round" stroke-linejoin="round"/>
<path d="M84.5593 37.854C84.5593 37.854 88.4867 38.6366 91.2294 37.0714C93.972 35.5063 94.9813 31.5715 94.9813 28.8289C94.9813 26.6347 92.8823 22.9779 89.9568 21.1714" stroke="black" stroke-linecap="round" stroke-linejoin="round"/>
<path d="M58.4639 49.2339C60.178 50.4504 62.2138 51.1324 64.3148 51.194C67.6499 51.194 68.4325 50.0165 68.4325 50.0165" stroke="black" stroke-linecap="round" stroke-linejoin="round"/>
<path d="M93.9794 37.4591C95.1652 36.4879 96.2199 35.3668 97.117 34.124" stroke="black" stroke-linecap="round" stroke-linejoin="round"/>
<path d="M88.6842 20.7838C88.6842 20.7838 77.7136 12.1463 72.3965 10.7787C67.0794 9.41101 57.6813 8.61381 55.9114 9.41101C54.815 9.90368 53.7649 10.4936 52.7738 11.1736" stroke="black" stroke-linecap="round" stroke-linejoin="round"/>
<path d="M80.639 19.9937C80.639 19.9937 86.49 22.3487 90.6442 21.1712" stroke="black" stroke-linecap="round" stroke-linejoin="round"/>
<path d="M58.069 29.4136C58.069 29.4136 58.2665 33.9261 54.9315 36.6761" stroke="black" stroke-linecap="round" stroke-linejoin="round"/>
<path d="M55.9114 9.41055C55.9114 9.41055 53.1615 6.85075 51.0039 6.48506C48.8464 6.11937 46.2939 5.2783 45.7088 7.21643C45.1237 9.15457 45.7088 9.96639 45.7088 9.96639" stroke="black" stroke-linecap="round" stroke-linejoin="round"/>
<path d="M47.4421 9.98828C47.4421 9.98828 44.3046 10.3832 43.3245 12.1824C42.3884 13.8997 41.727 15.753 41.3644 17.675" stroke="black" stroke-linecap="round" stroke-linejoin="round"/>
<path d="M44.3336 15.6782C44.3336 15.6782 37.861 19.8032 35.6961 27.2558C33.5313 34.7085 30.5765 48.2535 33.3411 60.8112C36.1057 73.3689 43.7485 85.144 48.7511 91.324C52.898 96.4437 59.6413 99.5666 67.0354 101.037C72.038 102.039 79.6955 101.037 81.6629 100.452C83.6303 99.8665 87.5139 102.412 89.5105 102.412C91.5071 102.412 94.6301 101.629 95.793 98.6816C96.9559 95.7342 96.5829 90.8267 97.1753 89.2543" stroke="black" stroke-linecap="round" stroke-linejoin="round"/>
<path d="M97.1315 90.2423C99.3328 87.4083 101.175 84.3131 102.617 81.027C105.169 75.3369 106.347 64.5418 105.169 57.8717C103.992 51.2016 100.854 38.856 95.5518 31.7764" stroke="black" stroke-linecap="round" stroke-linejoin="round"/>
<path d="M72.5356 52.9564C69.0616 53.7975 68.3594 56.5475 69.0616 59.3925C69.7637 62.2375 72.7623 65.653 78.4012 65.1265C84.0401 64.5999 92.9335 60.6066 94.857 56.723C97.3949 51.6034 95.3617 46.4326 91.2002 46.4838C86.1391 46.5277 84.6178 50.1991 80.3832 51.991C77.6844 53.1319 75.2343 52.3055 72.5356 52.9564Z" stroke="black" stroke-linecap="round" stroke-linejoin="round"/>
<path d="M76.2216 52.8909C76.2216 52.8909 76.5069 55.4142 77.6844 54.9022C78.0636 54.7077 78.3928 54.4283 78.6465 54.0858C78.9002 53.7433 79.0715 53.347 79.1471 52.9275C79.1471 52.9275 80.0906 54.3171 81.0121 53.7832C81.9336 53.2493 81.4363 51.7427 81.4363 51.7427C81.4363 51.7427 82.5187 53.2859 83.7474 52.4741C84.9761 51.6622 83.7474 49.8192 83.7474 49.8192C83.7474 49.8192 85.1444 51.0845 86.3658 50.4262C87.5871 49.768 86.534 47.7786 86.534 47.7786C86.534 47.7786 87.6676 49.6363 89.0133 48.8391C89.3966 48.6403 89.6874 48.3 89.8239 47.8904C89.9605 47.4808 89.932 47.034 89.7447 46.645" stroke="black" stroke-linecap="round" stroke-linejoin="round"/>
<path d="M76.2874 65.1341C76.2874 65.1341 76.09 63.547 77.2894 63.3276C78.4889 63.1082 79.4397 65.039 79.4397 65.039C79.4397 65.039 78.8984 62.7425 80.1052 62.3256C81.312 61.9087 82.548 64.154 82.548 64.154C82.548 64.154 82.3213 61.4845 83.0307 61.1408C83.7401 60.797 86.0586 63.0058 86.0586 63.0058C86.0586 63.0058 84.5154 60.9433 85.9416 60.2485C87.3677 59.5537 88.6915 61.799 88.6915 61.799C88.6915 61.799 87.8358 59.7804 89.2693 58.8735C90.7028 57.9666 92.0558 59.7439 92.0558 59.7439" stroke="black" stroke-linecap="round" stroke-linejoin="round"/>
<path d="M70.239 61.5944C72.2178 59.3994 74.6964 57.7136 77.4649 56.6796C81.3778 55.2168 84.7421 55.663 84.8371 57.2135C84.9322 58.764 82.2993 58.018 81.2973 58.3106C79.6444 58.7859 78.5254 59.2028 75.7754 61.9235C75.0183 62.7742 74.4411 63.7694 74.0787 64.849" stroke="black" stroke-linecap="round" stroke-linejoin="round"/>
<path d="M98.1992 48.7949C98.8013 50.6463 98.9517 52.6148 98.6381 54.5362C98.053 57.33 95.5444 59.9849 94.5204 60.7163" stroke="black" stroke-linecap="round" stroke-linejoin="round"/>
<path d="M66.2604 61.894C66.2604 61.894 67.5915 65.7264 70.3854 66.8966C74.2105 68.513 76.858 68.2204 79.9517 67.628" stroke="black" stroke-linecap="round" stroke-linejoin="round"/>
<path d="M1 70.9927L4.92015 72.1117" stroke="black" stroke-linecap="round" stroke-linejoin="round"/>
<path d="M19.4744 1L21.1566 3.80116" stroke="black" stroke-linecap="round" stroke-linejoin="round"/>
<path d="M93.3868 3.80127L92.2678 7.72142" stroke="black" stroke-linecap="round" stroke-linejoin="round"/>
<path d="M120.828 93.3869L116.908 92.8311" stroke="black" stroke-linecap="round" stroke-linejoin="round"/>
<path d="M53.2929 80.7197C53.2929 80.7197 52.4518 81.6998 53.154 81.8387" stroke="black" stroke-linecap="round" stroke-linejoin="round"/>
<path d="M78.3718 83.3818C78.3718 83.3818 78.935 83.6598 78.3718 84.1132" stroke="black" stroke-linecap="round" stroke-linejoin="round"/>
<path d="M96.9854 77.3628C96.9854 77.3628 97.8264 78.2039 97.2633 78.3428" stroke="black" stroke-linecap="round" stroke-linejoin="round"/>
<path d="M88.728 93.3208C88.728 93.3208 89.4594 94.4398 88.867 94.864" stroke="black" stroke-linecap="round" stroke-linejoin="round"/>
<path d="M66.6113 96.8169C66.6113 96.8169 67.5914 97.658 66.7503 97.9359" stroke="black" stroke-linecap="round" stroke-linejoin="round"/>
<path d="M58.0762 67.979C58.0762 67.979 58.6394 69.098 58.0762 69.237" stroke="black" stroke-linecap="round" stroke-linejoin="round"/>
<path d="M42.3958 56.6426C42.3958 56.6426 42.1179 56.9205 42.3958 57.4837" stroke="black" stroke-linecap="round" stroke-linejoin="round"/>
<path d="M48.2758 45.4453C48.3485 45.4888 48.4087 45.5504 48.4505 45.6241C48.4923 45.6978 48.5142 45.7811 48.5142 45.8659C48.5142 45.9506 48.4923 46.0339 48.4505 46.1076C48.4087 46.1813 48.3485 46.2429 48.2758 46.2864" stroke="black" stroke-linecap="round" stroke-linejoin="round"/>
<path d="M50.3677 25.8447C50.3677 25.8447 48.9707 26.9637 49.5266 27.5269" stroke="black" stroke-linecap="round" stroke-linejoin="round"/>
<path d="M63.9491 13.2505C63.9491 13.2505 64.366 14.0916 63.8102 14.2305" stroke="black" stroke-linecap="round" stroke-linejoin="round"/>
<path d="M37.6345 32.9902C37.6345 32.9902 36.7935 34.1092 37.4956 34.3872" stroke="black" stroke-linecap="round" stroke-linejoin="round"/>
<path d="M38.4756 72.3232L38.0587 73.3033" stroke="black" stroke-linecap="round" stroke-linejoin="round"/>
<path d="M78.5108 13.9526L78.0866 14.7864" stroke="black" stroke-linecap="round" stroke-linejoin="round"/>
</svg>
