<svg width="88" height="237" viewBox="0 0 88 237" fill="none" xmlns="http://www.w3.org/2000/svg">
<path d="M17.6092 176.135C17.8453 185.703 18.9832 204.574 18.5037 208.882C18.0242 213.19 11.5621 222.479 11.5621 227.545C11.5621 232.089 20.8652 236.44 26.8765 235.918C32.3796 235.439 35.464 233.055 37.4033 230.909C39.3426 228.762 36.2082 217.992 34.7698 215.115C33.3314 212.238 30.9484 207.665 30.7408 204.795C30.426 200.981 31.3706 176.385 31.3706 176.385C31.3706 176.385 26.4328 176.836 24.014 176.743C21.5952 176.65 17.6092 176.135 17.6092 176.135Z" fill="#F8C2A0"/>
<path d="M46.7351 176.386C46.7351 176.386 47.9159 200.073 47.9159 204.138C47.9159 208.202 45.2824 222.558 45.5257 226.15C45.769 229.743 50.7927 230.065 53.3976 230.215C61.5342 230.694 75.8896 230.931 85.4575 228.784C89.4292 227.889 86.6526 225.435 84.7419 223.774C82.8312 222.114 62.0137 209.183 60.3391 207.508C58.6646 205.834 61.0547 179.756 61.0547 176.651C58.3789 176.864 55.692 176.902 53.0111 176.765C49.7264 176.472 46.7351 176.386 46.7351 176.386Z" fill="#F8C2A0"/>
<path d="M78.616 219.63C75.9044 220.655 73.1262 221.494 70.3005 222.142C67.2376 222.65 58.7574 222.65 56.904 222.65C55.0505 222.65 48.3165 222.056 45.9549 220.195C45.9549 220.195 45.776 222.65 45.5971 223.902C45.4182 225.154 44.7026 227.072 46.735 228.568C48.7673 230.064 51.8803 229.942 54.0343 230.121C56.1884 230.3 65.8779 230.479 69.0624 230.421C72.247 230.364 83.5395 229.463 85.0924 228.926C86.6453 228.389 88.4415 228.21 87.0103 226.113C85.579 224.017 78.616 219.63 78.616 219.63Z" fill="#324265"/>
<path d="M14.7394 217.955C15.5503 219.353 16.6778 220.542 18.0313 221.426C20.0636 222.621 25.0873 223.279 27.5419 222.743C29.9965 222.206 35.0202 220.231 36.0364 218.449C36.0364 218.449 37.2959 221.741 37.2959 223.115C37.2959 224.489 38.6126 228.439 37.897 230.114C37.1814 231.788 32.9878 234.6 30.662 235.08C28.3362 235.559 24.3788 236.755 19.4124 234.6C14.446 232.446 12.2991 230.307 11.698 228.439C11.0969 226.571 12.8931 222.456 13.072 221.619C13.5397 220.36 14.097 219.135 14.7394 217.955Z" fill="#324265"/>
<path d="M2.44512 63.3093L4.34868 78.8097L8.27746 109.095L9.5942 121.54L12.4567 149.048L14.9113 175.126C15.5053 176.442 22.2107 176.621 23.9711 176.743C25.7315 176.865 30.9413 176.442 31.9574 176.385C32.8286 176.286 33.6887 176.107 34.5265 175.848L35.1277 168.613L36.4659 146L38.0188 124.467L39.6361 104.193L40.8956 86.0733L42.3912 69.385L42.9065 67.5888L43.5649 83.3325L44.0443 104.264L44.1016 129.025L44.5238 153.006L45.2394 175.734C46.1984 177.229 53.3117 176.807 56.9041 176.872C59.3047 176.852 61.6868 176.448 63.9601 175.677L65.0336 169.036L67.9533 151.56L70.7013 134.156L73.5638 105.689L75.36 84.9927L77.0346 63.3451L77.3351 47.7946L76.5408 21.8389L75.1096 4.49222C75.1096 4.49222 73.5495 2.34535 69.3846 1.76569C65.2196 1.18604 53.3761 0.871165 48.3595 1.05007C41.6828 1.28623 31.7428 1.40788 25.1018 1.28623C18.4608 1.16457 11.5049 1.28623 8.88574 2.23801C6.26655 3.18979 3.93362 10.711 3.03909 16.7938C2.14456 22.8766 1.19278 34.3838 1.01388 38.4987C0.83497 42.6135 2.44512 63.3093 2.44512 63.3093Z" fill="#FBA800"/>
<path d="M42.9066 65.6781C42.9066 65.6781 44.3378 107.306 44.1016 111.85C43.8655 116.394 44.8173 174.052 45.2967 175.727C45.7762 177.401 62.7651 177.158 63.7169 175.727C64.6687 174.295 69.9357 139.838 70.6513 133.863C71.3669 127.887 76.5409 76.9563 77.0919 60.1535C77.605 42.0733 76.962 23.9789 75.1669 5.98075C75.1669 5.98075 75.5247 3.11826 69.9786 1.86592C64.4325 0.613577 15.8846 1.34351 11.8628 1.70848C7.84099 2.07345 7.21124 2.78192 6.49561 4.38491C2.27343 13.9027 0.6275 32.8023 1.12844 45.8911C1.66515 59.8457 8.93589 114.476 9.65151 120.695C10.3671 126.914 14.6609 173.566 14.9185 175.24C15.1761 176.915 34.0543 177.158 34.5338 175.72C35.0132 174.281 36.4659 148.225 36.4659 145.363C36.4659 142.5 40.2945 97.9956 40.5307 91.5336C40.7668 85.0715 45.0534 43.4293 45.0534 43.4293" stroke="black" stroke-linecap="round" stroke-linejoin="round"/>
<path d="M31.1845 176.922C31.1845 176.922 30.3902 200.859 30.7051 204.673C30.9484 207.536 33.3385 212.087 34.777 214.964C36.2154 217.841 39.3212 228.604 37.4104 230.751C35.4997 232.898 32.4011 235.295 26.8836 235.76C20.8795 236.283 11.5693 231.932 11.5693 227.387C11.5693 222.342 18.0099 213.032 18.5108 208.724C19.0118 204.416 18.0314 185.996 17.7952 176.428" stroke="black" stroke-linecap="round" stroke-linejoin="round"/>
<path d="M46.7351 176.449C46.7351 176.449 47.9159 200.129 47.9159 204.194C47.9159 208.259 45.3038 222.65 45.54 226.228C45.7762 229.806 50.807 230.142 53.4119 230.293C61.5485 230.772 75.9039 231.008 85.4718 228.861C89.4435 227.967 86.6669 225.512 84.7562 223.852C82.8455 222.192 62.028 209.261 60.3534 207.586C58.6789 205.911 61.069 179.834 61.069 176.728" stroke="black" stroke-linecap="round" stroke-linejoin="round"/>
<path d="M46.735 220.704C46.735 220.704 49.5975 222.357 55.1078 222.614C65.3985 223.094 72.8124 222.371 78.5517 219.752" stroke="black" stroke-linecap="round" stroke-linejoin="round"/>
<path d="M14.6823 217.598C14.9256 219.745 18.2604 222.607 23.2697 222.857C31.664 223.366 35.7502 218.793 35.7502 218.793" stroke="black" stroke-linecap="round" stroke-linejoin="round"/>
</svg>
