<svg width="81" height="91" viewBox="0 0 81 91" fill="none" xmlns="http://www.w3.org/2000/svg">
<path d="M37.6436 37.6273C37.6436 37.6273 36.4408 38.477 34.8849 38.123C34.8849 38.123 34.8144 36.0001 34.4605 34.6564C34.1065 33.3127 33.8247 31.262 31.2069 29.4226C28.5892 27.5832 24.2746 24.4001 23.2136 23.8339C22.1525 23.2678 18.1919 21.0761 16.7769 20.5804C15.3619 20.0847 13.8061 19.802 12.4615 19.802C11.1178 19.802 6.30756 19.5185 5.67094 21.5701C5.67094 21.5701 5.10562 22.6312 5.10562 23.4095C5.10562 24.1879 4.96387 26.5926 4.96387 26.5926C4.96387 26.5926 4.11589 26.6631 3.83239 25.7438C3.54888 24.8245 2.77136 21.9954 2.6296 21.4292C2.48785 20.8631 2.70006 14.7795 2.70006 14.7795C2.70006 14.7795 3.40798 9.89882 3.83239 8.83779C4.2568 7.77676 5.52918 4.87718 6.2371 4.02836C6.94502 3.17953 7.22768 1.69324 13.3816 1.19838C19.5356 0.703516 27.8821 0.773968 27.8821 0.773968L44.5046 0.845269L59.5712 1.12792C59.5712 1.12792 65.9374 0.915722 67.2106 1.05747C68.4838 1.19923 72.0209 1.97674 73.1524 2.82557C74.2847 3.67439 75.6284 5.08854 76.1233 7.14014C76.619 9.19175 76.619 13.0114 76.619 14.2142C76.619 15.417 76.1233 19.2367 76.1233 19.2367L75.5579 22.278L74.9918 20.0855C74.9918 20.0855 74.143 19.2367 72.9402 19.2367C71.7382 19.2367 69.6866 20.51 69.6866 20.51L64.7354 24.4001C64.7354 24.4001 59.9965 28.6434 59.2181 29.7757C58.4397 30.908 54.5487 34.7973 53.9834 35.3635C53.4181 35.9297 51.0125 37.2734 49.6688 37.91C48.3251 38.5466 45.8483 38.4048 44.6463 37.6978C44.6463 37.6978 43.0896 38.2648 41.8877 38.1935C40.6857 38.1222 37.6436 37.6273 37.6436 37.6273Z" fill="#E1F1F6"/>
<path d="M7.22766 57.222C7.22766 57.222 6.59104 56.0896 6.51974 54.7459C6.44929 53.4022 6.16663 51.7742 6.51974 49.7234C6.51974 49.7234 5.38911 47.0361 5.1056 45.3384C4.8221 43.6408 4.46899 38.9001 4.53944 37.0616C4.60989 35.223 4.8934 27.5123 4.8934 27.5123C4.8934 27.5123 4.9647 25.1067 5.1056 24.117C5.24651 23.1273 5.24736 21.287 7.01545 20.2973C8.78355 19.3076 13.5938 19.8024 13.5938 19.8024C13.5938 19.8024 16.4934 20.5095 17.9789 21.0757C19.4643 21.6418 22.6474 23.4804 22.6474 23.4804L30.1459 28.7151C30.1459 28.7151 33.2585 31.4729 33.6829 32.393C34.1073 33.3131 34.8144 34.9395 34.7431 37.6982C34.6727 40.4568 34.1065 45.0549 34.1065 45.0549C34.1065 45.0549 33.6829 49.4399 33.1168 50.5723C32.5506 51.7046 30.0746 55.9479 30.0746 55.9479C30.0746 55.9479 31.2774 60.6885 31.3478 61.8905C31.4191 63.0924 30.3581 69.529 30.3581 69.529L27.4577 76.6736L26.2549 78.513C26.2549 78.513 26.4671 79.7862 26.6793 80.2811C26.8915 80.7759 28.1647 82.2614 28.1647 83.0398C28.1647 83.8181 28.3065 85.3036 27.4577 85.5862C26.6088 85.8689 23.2848 86.5768 23.2848 86.5768C23.2848 86.5768 21.6577 87.0708 21.2332 87.5665C20.8088 88.0622 19.8183 88.9806 18.9694 89.0519C18.1206 89.1233 16.8474 89.3355 16.8474 89.3355C16.8474 89.3355 15.715 89.9008 14.9375 90.113C14.16 90.3252 12.1084 90.5374 10.8352 90.113C9.56192 89.6886 9.34972 88.7693 9.34972 88.7693C9.34972 88.7693 8.07733 88.9806 7.15721 88.8397C6.23708 88.6988 5.95443 88.1327 5.95443 88.1327C5.95443 88.1327 4.75164 88.3457 4.04457 88.0622C3.3375 87.7787 2.70089 86.7177 2.70089 86.7177C2.70089 86.7177 1.56941 86.5063 1.42765 85.728C1.2859 84.9496 2.06427 83.3937 2.06427 83.3937C2.06427 83.3937 2.34608 82.1918 3.2662 81.9083C4.18633 81.6248 6.52059 80.8472 6.52059 80.8472C6.52059 80.8472 8.64265 79.0087 9.34972 78.513C10.0568 78.0173 11.4718 77.1684 11.4718 77.1684C11.4718 77.1684 9.84458 71.7224 9.63238 70.4492C9.42017 69.1759 8.28784 65.7806 8.35914 64.5074C8.43044 63.2342 8.7131 58.5656 8.7131 58.5656C8.7131 58.5656 7.29811 58.0708 7.22766 57.222Z" fill="#F8C2A0"/>
<path d="M48.0419 56.5856C48.0419 56.5856 45.9199 53.4729 45.2832 51.8466C44.6466 50.2203 44.2222 46.6824 44.0805 45.2682C43.9396 43.8541 43.4438 37.9828 43.4438 37.9828L44.6466 37.6993C44.6466 37.6993 46.7687 38.3368 48.1124 38.1245C49.4569 37.9123 52.1451 37.4871 55.116 34.0213C58.0869 30.5556 62.1188 26.5941 62.1188 26.5941L67.9893 21.6429C67.9893 21.6429 71.1019 19.4504 72.6578 19.3087C74.2137 19.1669 74.992 19.8035 74.992 19.8035C74.992 19.8035 76.1957 28.5753 76.1244 32.8194C76.0531 37.0635 74.7094 44.6316 74.0015 46.8954C73.2944 49.1592 71.4559 53.2616 69.546 55.0297C69.546 55.0297 70.9601 56.5856 70.5357 58.8494C70.1113 61.1132 68.4137 62.0325 68.4137 62.0325C68.4137 62.0325 68.0606 67.1254 68.0606 68.1864C68.0606 69.2475 66.9987 73.2098 66.2916 74.8361C65.5845 76.4625 64.3818 77.8775 64.3818 77.8775C64.3818 77.8775 67.1404 78.0905 68.4841 78.6558C69.8287 79.2211 72.4456 80.7779 72.4456 80.7779C72.4456 80.7779 73.5771 81.485 74.3554 81.485C75.1338 81.485 77.3968 82.0511 77.3968 82.0511C77.3968 82.0511 79.3075 81.7676 79.8023 82.3338C80.2972 82.9 80.5094 84.1019 80.085 84.4558C79.6606 84.8098 79.8728 85.8708 79.6606 86.2952C79.4484 86.7197 78.1047 87.3554 77.5385 87.285C76.9724 87.2145 76.9724 88.2756 76.0531 88.7C75.1338 89.1244 73.224 88.9826 73.224 88.9826C73.224 88.9826 71.9507 90.1854 70.8897 90.1854C69.8287 90.1854 67.3526 88.9122 67.3526 88.9122C67.3526 88.9122 65.8672 89.6905 64.8062 89.761C63.7451 89.8314 62.0475 89.6192 61.1987 88.9826C60.3498 88.346 59.1471 87.285 59.1471 87.285C59.1471 87.285 57.0963 86.2952 55.7518 86.5074C54.4081 86.7197 52.5695 87.0015 51.579 86.6484C50.5884 86.2952 49.5978 85.8708 49.5978 85.022C49.5978 84.1732 50.164 80.8483 50.164 80.8483L50.4466 79.0802C50.4466 79.0802 48.0419 73.2089 47.8297 72.2184C47.6175 71.2278 46.5565 68.1865 46.5565 65.3573C46.5565 62.5282 47.4053 57.7179 47.4053 57.7179L48.0419 56.5856Z" fill="#F8C2A0"/>
<path d="M75.4867 22.1251C76.8228 18.3096 77.2039 7.55587 75.2957 4.69449C73.8731 2.55885 70.1468 0.68804 63.6609 1.07001C57.1751 1.45113 15.7822 -0.265193 9.48819 1.83225C3.06175 3.97298 2.62036 15.6392 2.62036 18.4997C2.62036 21.3611 3.00149 24.7955 4.33753 26.7028" stroke="black" stroke-miterlimit="10" stroke-linecap="round" stroke-linejoin="round"/>
<path d="M34.6667 38.1479C34.6667 38.1479 36.3831 38.815 39.4363 36.8118C41.5813 35.4045 42.4878 32.998 42.4878 32.998" stroke="black" stroke-miterlimit="10" stroke-linecap="round" stroke-linejoin="round"/>
<path d="M44.4902 37.7646C44.4902 37.7646 48.0188 39.0998 51.0712 37.3843C54.1235 35.6672 57.9381 31.0895 60.2274 28.6092C62.515 26.1306 66.8652 22.4018 68.4287 21.3611C70.7172 19.8341 72.0532 18.4989 74.5326 19.6448" stroke="black" stroke-miterlimit="10" stroke-linecap="round" stroke-linejoin="round"/>
<path d="M48.782 34.0469C48.782 34.0469 47.4476 36.0492 45.5394 37.1935C43.6313 38.3385 40.1995 38.3385 37.7192 37.7664" stroke="black" stroke-miterlimit="10" stroke-linecap="round" stroke-linejoin="round"/>
<path d="M15.7576 20.1426C16.7108 20.7155 19.9049 21.5635 24.2713 24.5081C28.3719 27.2752 32.0906 29.9448 33.5217 32.0439C34.3612 33.2747 35.0488 36.4306 34.6668 38.1478" stroke="black" stroke-miterlimit="10" stroke-linecap="round" stroke-linejoin="round"/>
<path d="M4.91035 24.9847C4.91035 24.9847 4.71937 21.9324 6.62582 20.5972C8.53398 19.262 13.6846 19.6439 15.7821 20.5021" stroke="black" stroke-miterlimit="10" stroke-linecap="round" stroke-linejoin="round"/>
<path d="M43.6311 38.5215C43.6311 38.5215 43.7279 47.283 45.1581 51.5127C45.9357 53.8096 48.2105 57.0199 48.2105 57.0199" stroke="black" stroke-miterlimit="10" stroke-linecap="round" stroke-linejoin="round"/>
<path d="M74.9148 19.8359C74.9148 19.8359 76.632 29.0796 76.0598 34.5876C75.3265 41.6515 74.0566 47.4804 72.7206 50.4301C71.3871 53.3806 69.1929 55.2497 69.1929 55.2497" stroke="black" stroke-miterlimit="10" stroke-linecap="round" stroke-linejoin="round"/>
<path d="M66.7124 62.526C66.7124 62.526 69.3828 62.1321 70.3377 59.5754C70.836 58.2402 70.5287 55.4459 68.4296 54.6582" stroke="black" stroke-miterlimit="10" stroke-linecap="round" stroke-linejoin="round"/>
<path d="M61.5627 58.9863C61.5627 58.9863 62.1349 60.757 62.707 61.3469" stroke="black" stroke-miterlimit="10" stroke-linecap="round" stroke-linejoin="round"/>
<path d="M68.4297 61.9365C68.4297 61.9365 68.2166 67.5948 67.9102 69.4333C67.0614 74.5263 65.5683 76.2698 63.9487 78.6303" stroke="black" stroke-miterlimit="10" stroke-linecap="round" stroke-linejoin="round"/>
<path d="M47.8286 56.5273C47.8286 56.5273 46.3711 61.1084 46.4934 64.8883C46.6886 70.9191 49.3556 76.7616 50.3088 78.3361C51.262 79.9099 50.6899 82.4657 51.453 82.4657" stroke="black" stroke-miterlimit="10" stroke-linecap="round" stroke-linejoin="round"/>
<path d="M64.3291 78.04C64.3291 78.04 66.8094 78.1377 68.4298 78.7276C70.4406 79.4601 72.6264 80.8912 73.5796 81.2842C74.5337 81.6789 76.8229 81.4812 77.586 82.0711C77.586 82.0711 79.5884 81.9743 79.9712 82.7612C80.6384 84.138 80.0663 84.5301 80.0663 84.5301" stroke="black" stroke-miterlimit="10" stroke-linecap="round" stroke-linejoin="round"/>
<path d="M50.4991 79.9092C50.4991 79.9092 49.5458 83.0566 49.7377 85.2211C49.927 87.3848 53.7433 86.5971 55.6497 86.5971C57.5579 86.5971 59.6553 87.58 59.6553 87.58" stroke="black" stroke-miterlimit="10" stroke-linecap="round" stroke-linejoin="round"/>
<path d="M5.00543 24.9854C5.00543 24.9854 4.05135 37.6736 4.91036 44.5405C5.36957 48.2159 8.0578 52.2665 8.0578 52.2665" stroke="black" stroke-miterlimit="10" stroke-linecap="round" stroke-linejoin="round"/>
<path d="M6.62595 49.5967C6.62595 49.5967 5.5785 52.649 7.00792 56.5596C7.71414 58.4889 9.8693 59.23 9.8693 59.23" stroke="black" stroke-miterlimit="10" stroke-linecap="round" stroke-linejoin="round"/>
<path d="M28.8496 57.6064C28.8496 57.6064 31.7373 53.5626 32.5691 51.5985C34.6674 46.6379 34.6674 37.957 34.6674 37.957" stroke="black" stroke-miterlimit="10" stroke-linecap="round" stroke-linejoin="round"/>
<path d="M16.164 55.4141C16.164 55.4141 15.9722 57.5132 15.21 58.2754" stroke="black" stroke-miterlimit="10" stroke-linecap="round" stroke-linejoin="round"/>
<path d="M30.0883 56.1777C30.0883 56.1777 31.8326 61.8216 31.0432 66.2872C29.9253 72.616 27.0376 78.074 26.0827 79.0272C25.1295 79.9804 26.0844 81.5075 24.5574 81.8886" stroke="black" stroke-miterlimit="10" stroke-linecap="round" stroke-linejoin="round"/>
<path d="M8.70376 58.6113C8.70376 58.6113 8.06714 63.2799 8.72413 66.8602C9.92352 73.3859 11.7765 77.8839 11.7765 77.8839" stroke="black" stroke-miterlimit="10" stroke-linecap="round" stroke-linejoin="round"/>
<path d="M26.2745 79.2158C26.4646 81.3141 28.3719 82.0772 28.1809 84.5575C28.0468 86.3111 24.5565 86.2729 22.6492 86.845C20.7418 87.418 20.4558 89.7073 16.4502 89.1352" stroke="black" stroke-miterlimit="10" stroke-linecap="round" stroke-linejoin="round"/>
<path d="M58.606 86.6934C59.7502 87.3826 60.6083 89.0539 62.3255 89.5471C65.057 90.3297 67.2852 88.9563 67.2852 88.9563" stroke="black" stroke-miterlimit="10" stroke-linecap="round" stroke-linejoin="round"/>
<path d="M66.8074 88.4643C66.8074 88.4643 68.6196 89.7426 70.1466 89.9387C71.672 90.1365 73.8653 89.7435 73.6744 87.1868C73.4842 84.6293 70.3368 84.2363 70.3368 84.2363" stroke="black" stroke-miterlimit="10" stroke-linecap="round" stroke-linejoin="round"/>
<path d="M77.4898 83.251C77.4898 83.251 79.8742 84.0387 79.8742 85.2194C79.8742 86.3984 78.921 86.9883 78.921 86.9883L77.3948 87.1853" stroke="black" stroke-miterlimit="10" stroke-linecap="round" stroke-linejoin="round"/>
<path d="M75.4866 84.2363C75.4866 84.2363 77.8718 85.7099 77.3947 87.1868C77.1537 87.9329 76.2505 89.3505 73.7703 88.9566" stroke="black" stroke-miterlimit="10" stroke-linecap="round" stroke-linejoin="round"/>
<path d="M12.1587 84.6533C12.1587 84.6533 10.1563 85.4156 9.77432 85.9877C9.39235 86.5598 8.53419 89.5171 11.1095 90.1843C12.9285 90.6562 15.5922 90.2793 16.5454 89.422" stroke="black" stroke-miterlimit="10" stroke-linecap="round" stroke-linejoin="round"/>
<path d="M8.53389 84.2715C8.53389 84.2715 5.67251 85.7034 5.67251 86.4657C5.67251 87.2288 5.3873 89.4213 9.01178 88.8492" stroke="black" stroke-miterlimit="10" stroke-linecap="round" stroke-linejoin="round"/>
<path d="M5.48165 83.7002C5.48165 83.7002 3.57519 85.0464 3.19322 85.5133C2.33506 86.5607 2.52604 88.4689 5.95953 88.2779" stroke="black" stroke-miterlimit="10" stroke-linecap="round" stroke-linejoin="round"/>
<path d="M11.4906 77.2158C11.4906 77.2158 8.91524 78.5493 6.8178 80.5543C6.32039 81.0287 3.76543 81.7935 3.76543 81.7935C3.76543 81.7935 2.14418 82.2697 1.76221 83.7" stroke="black" stroke-miterlimit="10" stroke-linecap="round" stroke-linejoin="round"/>
<path d="M26.8457 25.7486C26.8457 25.7486 33.02 14.6341 32.8112 1.26855" stroke="black" stroke-miterlimit="10" stroke-linecap="round" stroke-linejoin="round"/>
<path d="M57.8718 1.26855C57.8718 1.26855 61.8409 18.0854 61.1805 27.2739" stroke="black" stroke-miterlimit="10" stroke-linecap="round" stroke-linejoin="round"/>
<path d="M29.7073 21.3622C29.7073 21.3622 33.1416 23.4613 34.094 24.0326C35.0481 24.6038 36.7644 20.5982 36.1923 20.0261C35.6202 19.454 31.2335 16.9746 31.2335 16.9746" stroke="black" stroke-miterlimit="10" stroke-linecap="round" stroke-linejoin="round"/>
<path d="M60.4184 17.5479C60.4184 17.5479 57.557 18.6921 57.1759 19.4552C56.7939 20.2182 56.7939 22.8886 58.1291 23.2698C59.4643 23.6517 60.7995 22.1256 60.7995 22.1256" stroke="black" stroke-miterlimit="10" stroke-linecap="round" stroke-linejoin="round"/>
<path d="M2.43104 86.5606C2.43104 86.5606 0.904856 86.5606 1.47696 84.5591C1.79188 83.4581 3.19329 82.8428 3.19329 82.8428" stroke="black" stroke-miterlimit="10" stroke-linecap="round" stroke-linejoin="round"/>
</svg>
