<svg width="94" height="238" viewBox="0 0 94 238" fill="none" xmlns="http://www.w3.org/2000/svg">
<path d="M4.06119 26.7787L5.75883 34.7016L5.47617 38.804L6.09072 94.3603C6.09072 94.3603 7.00236 115.768 7.18316 118.243C7.36566 120.718 7.09233 133.092 7.09233 133.092L5.36329 174.685L4.17917 205.103C5.18078 206.3 11.3721 206.62 13.3745 206.779C15.3768 206.939 21.1123 206.7 21.1123 206.7C21.1123 206.7 24.7546 206.141 25.3013 205.423C25.8479 204.704 27.577 192.568 27.577 190.893C27.577 189.215 29.671 173.09 30.2177 169.497C30.7635 165.905 33.0392 142.832 33.1308 140.517C33.2225 138.201 34.2224 121.675 34.2224 119.279C34.2224 116.884 34.6774 108.251 35.0424 105.697C35.4074 103.141 35.4982 85.6573 35.7707 82.8639C36.0431 80.0704 37.0643 59.775 37.3384 57.3797C37.6109 54.9851 39.1592 48.5188 40.7057 48.838C42.2548 49.1563 43.2887 55.6124 44.3811 58.3278C45.4736 61.0415 46.2392 84.3026 46.3317 86.1378C46.4217 87.9746 48.3341 115.678 48.3341 117.274C48.3341 118.872 49.4265 130.378 49.609 132.214C49.7907 134.051 48.4241 162.074 48.4241 162.074L46.6034 202.311C48.9707 204.466 60.35 204.146 63.1732 204.227C65.9956 204.307 68.6354 203.668 68.9995 203.029C69.3637 202.391 71.1844 185.306 71.4577 181.473C71.7311 177.642 73.7343 159.359 73.7343 156.964C73.7343 154.569 76.0091 132.774 75.9192 130.699C75.8283 128.623 76.9208 121.985 76.465 119.031C76.0108 116.077 76.6924 97.0774 76.6924 95.44C76.6924 93.8026 76.8291 81.7884 76.9658 79.3132C77.1016 76.8389 77.0566 62.5889 77.0566 62.5889L77.3749 49.9346L77.3426 37.816L77.6431 29.8184C77.6431 29.8184 78.0081 23.7001 78.0497 22.3963C78.1915 18.0104 77.3426 11.078 77.3426 11.078C77.3426 11.078 76.4947 5.2789 75.5041 4.57098C74.5135 3.86306 69.2788 2.58981 66.0253 2.58981C62.7717 2.58981 46.0779 1.60009 46.0779 1.60009L27.4038 0.893864C27.4038 0.893864 16.5109 0.468604 14.2471 0.751262C11.9833 1.03392 6.32415 0.609502 5.19267 4.85362C4.06119 9.09773 3.91943 16.0301 3.91943 16.7371C3.91943 17.4442 3.91943 25.5055 4.06119 26.7787Z" fill="#1FBA9A"/>
<path d="M4.24795 214.983C3.83543 214.284 5.40744 205.942 5.40744 205.942C5.40744 205.942 10.1193 206.661 11.895 206.661C13.6707 206.661 21.1124 206.701 21.1124 206.701C21.1124 206.701 20.5657 212.169 21.3178 213.906C21.3178 213.906 18.8596 216.301 15.9235 216.66C12.9874 217.019 5.27163 216.72 4.24795 214.983Z" fill="white"/>
<path d="M50.8145 210.492L51.2236 203.846C51.2236 203.846 57.5728 204.444 59.4164 204.444C61.2601 204.444 66.3131 203.965 66.3131 203.965C66.3131 203.965 66.3131 208.336 66.4489 209.474C66.4489 209.474 64.607 210.971 62.6946 211.21C60.7822 211.449 53.7505 212.766 50.8145 210.492Z" fill="white"/>
<path d="M68.5675 210.732C69.7958 211.689 77.9903 217.917 78.9469 219.114C79.9019 220.312 86.7977 225.58 87.8231 226.898C88.8459 228.216 91.6462 230.79 92.2607 231.808C92.8761 232.826 93.4211 234.621 92.6028 235.101C91.7828 235.579 84.5458 236.298 81.1989 235.939C77.8537 235.579 65.0848 234.442 61.6021 233.963C58.1194 233.484 51.2235 232.226 48.9028 230.969C46.5813 229.712 47.3308 229.234 47.195 228.216C47.0583 227.198 48.2874 217.498 48.4929 216.18C48.6966 214.863 49.9257 210.432 50.2678 210.372C50.6081 210.312 52.5197 211.271 54.365 211.57C56.207 211.869 60.0997 211.869 61.6012 211.449C63.1037 211.031 65.971 210.132 66.9276 209.533C67.8842 208.935 68.5675 210.732 68.5675 210.732Z" fill="#3A3A3D"/>
<path d="M21.727 213.484C21.727 213.484 25.0723 215.64 26.9838 217.257C28.8954 218.873 33.8126 222.585 34.8371 223.843C35.8599 225.1 41.9375 230.549 42.9612 231.867C43.9857 233.184 46.1018 236.117 45.4881 236.596C44.8728 237.075 37.4311 237.374 34.1538 237.315C30.8765 237.256 20.7017 236.537 17.9022 235.998C15.1028 235.459 8.27404 234.68 5.33796 233.542C2.40188 232.405 1.17363 231.207 1.10573 230.429C1.03612 229.65 2.33398 222.106 2.47064 220.728C2.6073 219.351 4.24638 214.981 4.24638 214.981C4.24638 214.981 5.95336 216.298 8.34279 216.658C10.7322 217.017 15.8931 216.587 17.4914 216.118C20.3613 215.28 21.727 213.484 21.727 213.484Z" fill="#3A3A3D"/>
<path d="M5.88192 35.5303C2.75146 26.7568 3.45937 12.4677 5.58143 3.97949" stroke="black" stroke-miterlimit="10" stroke-linecap="round" stroke-linejoin="round"/>
<path d="M5.58055 3.97984C6.25112 2.61238 7.43098 1.81534 10.4273 1.31539C15.5203 0.466563 20.6132 0.678769 27.4038 0.890974C34.1944 1.10318 62.6299 1.73978 71.5426 3.22522C75.9828 3.9654 75.8206 5.46528 75.8206 5.46528C76.6355 6.76313 77.7458 13.3288 78.0505 18.2222C78.2805 21.9129 78.0505 24.9398 77.6439 29.8155L77.447 35.8116C77.447 35.8116 76.1542 113.797 76.1542 123.436C76.1542 133.074 69.6888 201.114 69.0411 203.099C68.3943 205.085 46.734 204.517 46.734 202.249C46.734 199.982 49.6446 138.179 49.6446 131.658C49.6446 125.137 46.734 91.6616 46.4123 86.8411C46.0889 82.0223 44.7147 49.4419 40.8347 48.8749C36.9556 48.3079 35.7426 82.0223 35.7426 88.2586C35.7426 94.4949 33.4797 134.776 33.1554 139.595C32.8329 144.414 26.6908 203.098 25.3972 205.366C24.1036 207.634 4.0603 207.067 4.0603 205.082C4.0603 203.098 7.29347 133.357 7.29347 122.869C7.29347 122.869 5.92941 102.181 5.92941 88.0337C5.92941 73.8863 5.61959 35.4066 5.61959 35.4066" stroke="black" stroke-miterlimit="10" stroke-linecap="round" stroke-linejoin="round"/>
<path d="M5.27511 205.82C5.27511 205.82 4.86513 210.371 4.04517 215.041" stroke="black" stroke-miterlimit="10" stroke-linecap="round" stroke-linejoin="round"/>
<path d="M21.1159 206.66C21.1159 206.66 20.5684 210.97 21.1159 213.725" stroke="black" stroke-miterlimit="10" stroke-linecap="round" stroke-linejoin="round"/>
<path d="M12.6481 216.839C9.34953 216.919 5.5468 216.36 4.04439 215.043C2.81614 218.156 1.31372 227.737 1.31372 230.611C1.31372 233.485 11.0421 234.977 18.6569 236.119C29.0354 237.676 43.8746 237.436 45.5136 236.479C47.1527 235.52 32.1769 219.833 21.7975 213.366C21.5242 214.803 17.5644 216.72 12.6481 216.839Z" stroke="black" stroke-miterlimit="10" stroke-linecap="round" stroke-linejoin="round"/>
<path d="M51.2942 203.665C51.2942 203.665 50.8859 207.138 50.7476 210.371" stroke="black" stroke-miterlimit="10" stroke-linecap="round" stroke-linejoin="round"/>
<path d="M66.4532 203.785C66.4532 203.785 66.3166 207.737 66.589 209.653" stroke="black" stroke-miterlimit="10" stroke-linecap="round" stroke-linejoin="round"/>
<path d="M57.0304 211.808C53.7438 211.701 51.4308 210.97 50.3383 210.491C48.0176 214.801 46.7877 228.813 47.3343 230.01C48.7969 233.217 84.0247 237.979 92.2625 235.159C97.8614 233.243 72.1887 213.604 66.999 209.412C65.7699 210.851 60.7169 211.928 57.0304 211.808Z" stroke="black" stroke-miterlimit="10" stroke-linecap="round" stroke-linejoin="round"/>
</svg>
