<svg width="100" height="286" viewBox="0 0 116 326" fill="none" xmlns="http://www.w3.org/2000/svg">
<path d="M34.9043 305.529C34.9043 305.529 33.2066 311.708 34.4799 315.273C35.2056 317.307 44.1369 321.863 47.7784 323.431C53.2957 325.808 65.8863 326.479 65.4619 320.82C65.2709 318.277 61.9648 316.533 60.6516 315.303C59.6704 314.383 58.4218 313.287 57.23 312.221L34.9043 305.529Z" fill="#2D3035"/>
<path d="M35.1168 305.105C35.1168 305.105 36.8145 302.729 37.2389 297.501C37.6633 292.274 36.39 274.69 34.6924 265.184C32.9947 255.68 30.1478 230.525 30.0239 217.185C29.8821 201.979 33.8436 187.087 33.5609 177.9C33.3852 172.181 23.6577 120.235 23.2333 114.534C22.8089 108.83 18.9892 86.0183 19.838 81.2666C21.4193 72.4125 57.1862 69.1479 59.7327 79.6037C62.2791 90.0587 57.4409 126.301 56.3374 135.445C54.9224 147.168 52.5177 170.297 51.9515 181.069C51.578 188.185 53.7468 204.674 53.9327 214.651C54.2153 229.859 49.9712 268.036 49.1224 276.591C48.2736 285.146 47.8492 292.75 49.5468 301.779C50.4177 306.412 60.2004 312.771 57.6106 315.161C56.4078 316.271 51.213 316.346 47.4247 315.161C42.898 313.747 39.5731 311.759 36.39 308.671C34.6848 307.015 35.1168 305.105 35.1168 305.105Z" fill="#F8C2A0"/>
<path d="M23.2332 114.534C24.5064 123.823 33.3851 172.181 33.5608 177.9C33.8434 187.087 29.882 201.979 30.0237 217.185C30.1477 230.526 32.9946 255.68 34.6923 265.185C36.3899 274.69 37.6631 292.274 37.2387 297.501C36.8143 302.729 35.1167 305.105 35.1167 305.105C35.1167 305.105 34.6846 307.016 36.3899 308.669C39.573 311.759 42.8978 313.746 47.4246 315.16C51.2129 316.344 56.4077 316.269 57.6105 315.16C60.2002 312.771 50.4176 306.41 49.5467 301.777C47.849 292.749 48.2734 285.144 49.1223 276.59C49.9711 268.035 54.2152 229.858 53.9325 214.65C53.7466 204.672 51.5779 188.183 51.9514 181.067C52.5175 170.296 54.9223 147.166 56.3373 135.444C56.8219 131.429 58.0264 122.189 59.0093 112.202C59.0093 112.202 59.1664 115.333 56.0537 116.465C52.9411 117.596 49.6876 119.578 42.7552 119.153C35.8229 118.729 26.4875 117.693 23.2332 114.534Z" fill="#DDEAE1"/>
<path d="M23.3035 114.132L25.2133 127.996C25.2133 127.996 26.3448 130.118 29.4574 130.967C32.5701 131.815 40.493 132.311 42.6855 132.169C44.878 132.028 50.5371 131.816 52.0225 131.108C53.508 130.4 56.4076 129.339 57.1859 128.208L58.954 114.273C58.954 114.273 56.0545 117.244 52.8714 117.88C49.6883 118.517 42.6846 119.579 38.1579 119.013C33.6311 118.446 30.0244 117.385 27.8311 116.749C25.6377 116.112 23.3035 114.132 23.3035 114.132Z" fill="#C9DDD4"/>
<path d="M35.1166 305.318C35.1166 305.318 36.8142 302.942 37.2386 297.714C37.663 292.487 36.3898 274.902 34.6922 265.397C32.9945 255.893 30.1476 230.738 30.0236 217.398C29.8819 202.191 33.8433 187.3 33.5607 178.113C33.385 172.394 23.6575 120.448 23.233 114.747C22.8086 109.043 18.9889 86.2312 19.8377 81.4795C21.4191 72.6254 57.186 69.3608 59.7324 79.8166C62.2789 90.2716 57.4406 126.514 56.3371 135.658C54.9222 147.38 52.5174 170.51 51.9513 181.282C51.5778 188.398 53.7465 204.887 53.9324 214.864C54.2151 230.072 49.971 268.249 49.1221 276.804C48.2733 285.359 47.8489 292.963 49.5466 301.992C50.4174 306.625 60.2001 312.984 57.6104 315.374C56.4076 316.484 51.2128 316.558 47.4245 315.374C42.8977 313.96 39.5729 311.972 36.3898 308.883C34.6845 307.228 35.1166 305.318 35.1166 305.318Z" stroke="black" stroke-miterlimit="10" stroke-linecap="round" stroke-linejoin="round"/>
<path d="M58.7419 114.11C58.3209 116.39 51.7111 119.28 41.7273 119.126C33.6677 119.002 24.851 116.54 23.4453 114.109" stroke="black" stroke-miterlimit="10" stroke-linecap="round" stroke-linejoin="round"/>
<path d="M57.0603 127.73C56.5705 129.452 53.3 132.205 42.0183 132.205C30.7366 132.205 26.4857 130.482 25.0146 127.901" stroke="black" stroke-miterlimit="10" stroke-linecap="round" stroke-linejoin="round"/>
<path d="M40.2095 177.479C40.2095 177.479 40.2095 181.28 41.4827 184.132" stroke="black" stroke-miterlimit="10" stroke-linecap="round" stroke-linejoin="round"/>
<path d="M49.5463 177.16C49.5463 177.16 48.8393 181.436 48.6975 183.338" stroke="black" stroke-miterlimit="10" stroke-linecap="round" stroke-linejoin="round"/>
<path d="M35.1167 305.316C35.1167 305.316 33.419 311.495 34.6923 315.06C35.418 317.094 44.3493 321.65 47.9908 323.218C53.5081 325.595 66.0987 326.266 65.6743 320.607C65.4833 318.064 62.1772 316.321 60.864 315.09C59.8828 314.17 58.6342 313.074 57.4424 312.008" stroke="black" stroke-miterlimit="10" stroke-linecap="round" stroke-linejoin="round"/>
<path d="M38.5118 301.358C38.5118 301.358 37.6629 304.368 38.0873 305.319C38.5118 306.269 39.6432 306.585 39.6432 306.585" stroke="black" stroke-miterlimit="10" stroke-linecap="round" stroke-linejoin="round"/>
<path d="M96.0198 306.78C98.7081 309.184 103.659 311.591 103.659 311.591C110.874 315.269 105.422 319.743 100.688 320.105C94.464 320.58 91.2104 318.204 83.3758 316.447C79.085 315.485 75.7627 313.799 75.0828 313.133C73.3851 311.47 73.9504 309.014 73.9504 306.876C73.9504 304.737 75.6481 299.034 75.6481 299.034L96.0198 306.78Z" fill="#2D3035"/>
<path d="M75.8601 298.927C75.8601 298.927 77.2038 292.749 77.1333 287.522C76.8507 266.354 70.3164 225.574 70.7672 209.582C71.1916 194.533 74.0216 179.64 73.3136 169.817C72.9045 164.133 69.965 139.266 67.7963 125.463C65.1089 108.356 63.9766 88.8698 64.401 79.3646C64.8899 68.4063 101.537 68.2366 102.386 78.6924C103.235 89.1473 100.9 105.979 99.6272 113.582C98.3539 121.186 92.4122 161.738 92.4122 170.293C92.4122 178.847 95.2829 195.325 95.383 204.83C95.5248 218.296 91.5633 246.176 90.7145 253.304C89.8657 260.432 87.461 283.085 87.3192 288.948C87.1783 294.809 88.3072 298.16 91.1389 302.254C93.1201 305.118 101.046 309.138 97.2224 310.068C91.9878 311.341 82.537 308.642 78.1239 305.824C75.1955 303.955 74.8704 302.571 75.8601 298.927Z" fill="#F8C2A0"/>
<path d="M99.6272 113.583C98.354 121.187 92.4122 161.739 92.4122 170.294C92.4122 178.848 95.2829 195.326 95.3831 204.831C95.5248 218.297 91.5634 246.177 90.7145 253.305C89.8657 260.433 87.461 283.086 87.3193 288.949C87.1783 294.81 88.3073 298.161 91.139 302.255C93.1201 305.119 101.046 309.139 97.2225 310.069C91.9878 311.342 82.537 308.643 78.124 305.825C75.1964 303.956 74.8704 302.572 75.8601 298.928C75.8601 298.928 77.2038 292.749 77.1334 287.522C76.8507 266.354 70.3165 225.575 70.7672 209.583C71.1916 194.534 74.0216 179.641 73.3137 169.818C72.9045 164.134 69.9651 139.267 67.7963 125.464C67.1818 121.552 66.6479 117.515 66.1963 113.501C66.1963 113.501 67.3719 115.617 71.1916 116.325C75.0113 117.033 81.3775 117.457 84.9145 117.457C88.4516 117.457 93.4062 116.624 95.3831 116.184C99.2028 115.335 99.6272 113.583 99.6272 113.583Z" fill="#DDEAE1"/>
<path d="M66.1963 113.501L68.0085 128.067C68.0085 128.067 69.7766 130.118 73.5259 131.108C77.2751 132.099 84.1353 132.664 87.3897 132.169C90.6441 131.674 95.737 129.977 97.4347 127.925L99.6272 113.583C99.6272 113.583 99.2028 115.336 95.3831 116.184C91.5634 117.032 85.7625 117.668 81.8723 117.597C77.9822 117.527 72.5353 116.465 71.1916 116.112C69.8479 115.759 67.001 114.78 66.1963 113.501Z" fill="#C9DDD4"/>
<path d="M75.8601 299.14C75.8601 299.14 77.2038 292.961 77.1333 287.734C76.8507 266.566 70.3164 225.787 70.7672 209.795C71.1916 194.746 74.0216 179.853 73.3136 170.03C72.9045 164.346 69.965 139.479 67.7963 125.676C65.1089 108.569 63.9766 89.0827 64.401 79.5775C64.8899 68.6192 101.537 68.4495 102.386 78.9053C103.235 89.3602 100.9 106.192 99.6272 113.795C98.3539 121.399 92.4122 161.951 92.4122 170.506C92.4122 179.06 95.2829 195.538 95.383 205.043C95.5248 218.509 91.5633 246.389 90.7145 253.517C89.8657 260.645 87.461 283.298 87.3192 289.16C87.1783 295.022 88.3072 298.373 91.1389 302.467C93.1201 305.331 101.046 309.351 97.2224 310.281C91.9878 311.554 82.537 308.855 78.1239 306.037C75.1955 304.168 74.8704 302.784 75.8601 299.14Z" stroke="black" stroke-miterlimit="10" stroke-linecap="round" stroke-linejoin="round"/>
<path d="M66.0469 113.283C66.7336 115.32 73.0497 117.513 82.5242 117.513C91.9996 117.513 98.5907 115.946 99.4141 114.223" stroke="black" stroke-miterlimit="10" stroke-linecap="round" stroke-linejoin="round"/>
<path d="M68.2922 128.138C70.4287 131.557 79.4339 132.411 84.9292 132.411C90.4245 132.411 96.3772 129.676 97.2931 127.968" stroke="black" stroke-miterlimit="10" stroke-linecap="round" stroke-linejoin="round"/>
<path d="M80.5288 175.732C80.5288 175.732 81.2359 179.059 82.6509 181.278" stroke="black" stroke-miterlimit="10" stroke-linecap="round" stroke-linejoin="round"/>
<path d="M89.866 174.941C89.866 174.941 89.5834 179.535 88.5928 181.119" stroke="black" stroke-miterlimit="10" stroke-linecap="round" stroke-linejoin="round"/>
<path d="M75.8603 299.14C75.8603 299.14 74.1626 304.843 74.1626 306.981C74.1626 309.119 73.5973 311.576 75.2949 313.239C75.9748 313.905 79.2971 315.591 83.5879 316.552C91.4226 318.309 94.6761 320.684 100.901 320.21C105.634 319.848 111.086 315.374 103.871 311.696C103.871 311.696 98.9202 309.29 96.232 306.885" stroke="black" stroke-miterlimit="10" stroke-linecap="round" stroke-linejoin="round"/>
<path d="M78.69 296.448C78.69 296.448 76.9915 298.508 77.5577 299.933C78.1238 301.358 79.1144 301.992 79.1144 301.992" stroke="black" stroke-miterlimit="10" stroke-linecap="round" stroke-linejoin="round"/>
<path d="M7.3019 54.2174C4.15532 64.6605 -0.501326 89.9605 1.37372 91.9901C7.0549 98.144 46.5685 100.479 62.8854 99.8417C73.7546 99.4173 113.282 97.9318 114.763 91.9901C116.245 86.0483 114.763 62.7057 107.847 42.1217C104.639 32.5767 93.5636 15.1716 89.513 10.503C85.4624 5.83452 77.7466 1.12441 59.5215 1.44951C35.7197 1.87392 30.7778 7.90651 25.7409 15.0494C24.0619 17.4303 14.2504 31.1583 7.3019 54.2174Z" fill="#8B3B3E"/>
<path d="M57.5646 99.8072C57.0528 88.0043 56.1369 8.95174 56.1284 1.36411L59.5229 1.32422C59.5322 8.91185 60.4481 87.9491 60.9591 99.7367L57.5646 99.8072Z" fill="#B05E60"/>
<path d="M19.9083 97.0141C19.8939 96.8206 18.5638 77.9419 22.7043 54.3803C25.845 36.5066 37.5528 9.99788 39.6061 3.78535L43.5336 2.93652C41.8572 8.29939 29.1172 37.5082 26.0478 54.9685C21.9837 78.0947 23.2892 97.3919 23.3036 97.5803L19.9083 97.0141Z" fill="#B05E60"/>
<path d="M99.2689 96.7836C99.2511 96.4815 97.3803 66.3618 93.0751 46.1989C89.319 28.6113 78.0144 5.40529 77.6282 3.36133L81.6643 4.57514C82.3782 7.26506 92.5454 27.4637 96.3957 45.4893C100.754 65.9043 102.932 96.0027 102.951 96.3075L99.2689 96.7836Z" fill="#B05E60"/>
<path d="M58.2105 44.3599C34.1803 44.3599 18.601 38.6278 14.1082 34.9091L15.5231 32.0791C19.0067 34.9626 34.2125 40.9646 58.2105 40.9646C82.7754 40.9646 100.534 35.5924 103.517 32.6453L105.215 35.8988C97.4346 41.4162 82.5046 44.3599 58.2105 44.3599Z" fill="#B05E60"/>
<path d="M61.0177 80.2661C59.6298 80.2661 58.2522 80.2568 56.8805 80.2389C34.0998 79.9359 8.36686 76.8504 4.20508 66.3157L4.913 61.9307C9.29802 70.4189 30.5194 76.4922 56.9255 76.8436C89.5517 77.2799 110.918 71.2151 113.562 66.4574L114.128 70.2771C109.734 78.1814 84.9214 80.2661 61.0177 80.2661Z" fill="#B05E60"/>
<path d="M20.1306 23.6667C21.6415 21.0787 24.9052 16.0341 25.5987 15.0503C30.6365 7.90749 35.5783 1.8749 59.3793 1.45049C77.6044 1.12539 85.3211 5.8355 89.3708 10.504C91.4496 12.8994 95.3779 18.651 99.1441 24.9714C99.1441 24.9714 95.4178 28.3089 88.0611 29.78C81.6949 31.0532 69.4931 32.7508 57.8218 32.1142C46.1504 31.4776 39.7851 30.3096 36.3898 29.8852C32.9945 29.4608 23.1821 26.8914 20.1306 23.6667Z" fill="#683F3D"/>
<path d="M7.23013 54.2184C4.08354 64.6615 -0.573104 89.9615 1.30195 91.991C6.98312 98.145 46.4967 100.48 62.8136 99.8427C73.6828 99.4182 113.21 97.9328 114.691 91.991C116.173 86.0493 114.691 62.7066 107.775 42.1227C104.567 32.5777 93.4918 15.1725 89.4412 10.504C85.3906 5.8355 77.6748 1.12539 59.4497 1.45049C35.6479 1.8749 30.706 7.90749 25.6691 15.0503C23.9901 17.4313 14.1786 31.1593 7.23013 54.2184Z" stroke="black" stroke-miterlimit="10" stroke-linecap="round" stroke-linejoin="round"/>
<path d="M21.0408 24.5098C21.0408 24.5098 24.1891 27.8762 38.5011 30.241C56.9035 33.2815 76.0207 32.2129 86.7532 30.1689C95.6659 28.4712 99.0612 25.2177 99.0612 25.2177" stroke="black" stroke-miterlimit="10" stroke-linecap="round" stroke-linejoin="round"/>
</svg>
