<svg width="98" height="292" viewBox="0 0 98 292" fill="none" xmlns="http://www.w3.org/2000/svg">
<path d="M1.2441 34.7014C1.2441 34.7014 0.607486 27.1681 0.713589 25.2583C0.819692 23.3484 1.138 14.1175 1.98682 10.9344C2.83565 7.75128 3.04785 4.35599 4.21498 3.50717C5.38212 2.65834 9.20182 1.49121 11.8544 1.49121C14.507 1.49121 37.3191 1.91562 37.3191 1.91562L60.2373 3.18886L70.6354 4.14378C70.6354 4.14378 73.3941 4.99261 73.8185 5.94753C74.2429 6.90246 75.5161 14.4358 75.6222 15.709C75.7283 16.9822 76.3649 25.1522 76.1527 26.4254C75.9405 27.6986 75.8344 30.0329 75.8344 30.0329L76.1527 47.0093L77.1077 94.5434L77.426 146.64L76.3649 183.139L74.6673 230.461L73.7124 254.759C73.7124 254.759 69.1499 256.032 65.2241 256.032C61.2983 256.032 51.2186 255.714 50.5819 254.334C49.9453 252.955 49.0965 223.777 49.0965 223.777L46.8683 174.333L44.5341 119.159L41.5632 73.2168L41.1388 64.8346L40.3961 66.0018L37.5313 111.414L35.9397 148.125L33.9238 187.596L31.3773 228.976L29.7858 250.621C29.7858 250.621 29.4675 256.563 29.1492 257.093C28.8309 257.624 24.3745 258.685 22.6769 258.472C20.9792 258.26 11.2178 258.578 8.03469 257.624C4.8516 256.669 3.04785 256.563 3.04785 255.714C3.04785 254.865 2.94175 220.806 2.94175 220.806V173.378L2.72954 135.181L2.30513 93.3763L1.45631 54.0121L1.138 36.3991L1.2441 34.7014Z" fill="#475369"/>
<path d="M25.6974 261.057C26.4248 259.845 39.4721 273.131 43.723 279.272C46.2695 282.95 48.8278 288.326 47.401 290.307C46.5742 291.455 29.5757 290.589 19.3898 288.043C12.6111 286.348 7.22361 284.365 6.37479 282.384C5.52597 280.404 6.37478 266.54 7.78977 264.842C7.78977 264.842 10.001 265.95 13.8376 266.256C19.1428 266.681 24.1058 263.71 25.6974 261.057Z" fill="#3A3A3D"/>
<path d="M55.0407 261.164C56.0321 259.381 57.8749 263.094 61.5486 263.428C67.773 263.994 70.8848 260.881 72.866 260.315C74.8454 259.75 84.466 268.804 88.9936 273.896C93.5195 278.989 98.048 286.064 96.3504 287.478C94.6527 288.893 82.4865 288.327 76.8274 287.761C71.1683 287.195 57.5871 284.366 54.4754 282.668C51.3627 280.971 53.6249 263.711 55.0407 261.164Z" fill="#3A3A3D"/>
<path d="M8.58008 265.338L9.00449 257.486C9.00449 257.486 13.2486 258.335 17.0683 258.335C20.888 258.335 24.3894 258.123 24.3894 258.123V261.943C24.3894 261.943 22.1256 265.975 15.9716 266.469C12.1646 266.775 8.58008 265.338 8.58008 265.338Z" fill="white"/>
<path d="M56.4328 255.787C56.4328 255.787 59.4385 256.069 62.7276 256.069C66.0168 256.069 71.0741 255.787 71.0741 255.787L70.9332 261.305C70.9332 261.305 66.1934 263.781 63.0103 263.569C59.8272 263.357 57.6704 262.331 56.291 260.527L56.4328 255.787Z" fill="white"/>
<path d="M9.00727 257.557L8.68896 264.666" stroke="black" stroke-miterlimit="10" stroke-linecap="round" stroke-linejoin="round"/>
<path d="M24.2862 257.98L23.8618 262.755" stroke="black" stroke-miterlimit="10" stroke-linecap="round" stroke-linejoin="round"/>
<path d="M56.5408 256.069L56.3286 260.633" stroke="black" stroke-miterlimit="10" stroke-linecap="round" stroke-linejoin="round"/>
<path d="M70.9702 255.646V260.74" stroke="black" stroke-miterlimit="10" stroke-linecap="round" stroke-linejoin="round"/>
<path d="M25.5589 261.164C26.2863 259.952 39.4151 273.132 43.6669 279.273C46.2133 282.951 49.168 288.939 47.3448 290.308C46.2133 291.157 29.5195 290.59 19.3336 288.044C12.5549 286.349 7.16746 284.366 6.31864 282.385C5.46982 280.404 6.31863 266.541 7.73362 264.843C7.73362 264.843 9.9448 265.951 13.7815 266.257C19.0866 266.682 23.9674 263.817 25.5589 261.164Z" stroke="black" stroke-miterlimit="10" stroke-linecap="round" stroke-linejoin="round"/>
<path d="M54.9843 261.164C55.9757 259.381 57.8186 263.094 61.4923 263.428C67.7167 263.994 70.8284 260.881 72.8096 260.315C74.7899 259.75 84.4096 268.804 88.9372 273.896C93.464 278.989 97.9916 286.064 96.294 287.478C94.5964 288.893 82.4302 288.327 76.7711 287.761C71.112 287.195 57.5308 284.366 54.419 282.668C51.3064 280.971 53.5693 263.711 54.9843 261.164Z" stroke="black" stroke-miterlimit="10" stroke-linecap="round" stroke-linejoin="round"/>
<path d="M40.7368 59.1416C40.7368 59.1416 44.9809 123.652 45.4053 138.507C45.8298 153.361 50.4983 250.549 50.4983 254.369C50.4983 256.067 73.9411 256.917 73.9411 254.371C73.9411 251.824 77.6606 152.512 77.6606 134.687C77.6606 121.523 75.8246 29.5762 75.8246 29.5762" stroke="black" stroke-miterlimit="10" stroke-linecap="round" stroke-linejoin="round"/>
<path d="M1.12793 33.5381C1.53282 56.8714 2.63037 104.676 2.96395 149.117C3.36375 202.421 2.96395 254.656 2.96395 255.645C2.96395 258.191 28.8531 259.889 29.2775 256.918C29.7019 253.947 36.0681 158.879 36.0681 145.298C36.0681 131.716 40.8775 54.757 41.161 53.6246" stroke="black" stroke-miterlimit="10" stroke-linecap="round" stroke-linejoin="round"/>
<path d="M2.25976 38.63C-0.870697 29.8565 1.29043 13.2128 3.41249 4.72461" stroke="black" stroke-miterlimit="10" stroke-linecap="round" stroke-linejoin="round"/>
<path d="M75.7752 40.1634C75.7047 37.661 75.6147 34.2979 75.4755 30.5606C76.7309 27.7382 76.113 22.6572 75.8821 18.9674C75.5774 14.0731 74.4671 7.50828 73.6522 6.21043C73.6522 6.21043 73.8144 4.71053 69.3742 3.97036C60.4615 2.48491 32.026 1.8483 25.2354 1.63609C18.4448 1.42389 13.3518 1.21168 8.25891 2.0605C5.26256 2.56046 4.08268 3.35669 3.41211 4.72499" stroke="black" stroke-miterlimit="10" stroke-linecap="round" stroke-linejoin="round"/>
<path d="M23.48 141.353C23.48 141.353 23.48 146.87 24.3288 148.568" stroke="black" stroke-miterlimit="10" stroke-linecap="round" stroke-linejoin="round"/>
<path d="M65.4971 140.504C65.4971 140.504 65.4971 145.172 66.7703 146.87" stroke="black" stroke-miterlimit="10" stroke-linecap="round" stroke-linejoin="round"/>
<path d="M19.0917 14.1543C19.0917 14.1543 17.3941 27.7355 8.48145 30.7063" stroke="black" stroke-miterlimit="10" stroke-linecap="round" stroke-linejoin="round"/>
<path d="M69.5967 15.0029C69.5967 15.0029 69.5967 22.2179 72.992 25.1888" stroke="black" stroke-miterlimit="10" stroke-linecap="round" stroke-linejoin="round"/>
<path d="M47.9517 48.9561C47.9517 48.9561 43.2832 54.049 39.0391 53.6246" stroke="black" stroke-miterlimit="10" stroke-linecap="round" stroke-linejoin="round"/>
</svg>
