<svg width="78" height="247" viewBox="0 0 78 247" fill="none" xmlns="http://www.w3.org/2000/svg">
<path d="M8.42558 0.660714C5.28517 0.300278 0.614075 5.25989 0.614075 7.86945C0.614075 10.479 0.97339 27.1528 1.24647 29.0487C1.51955 30.9446 1.60578 55.721 1.78544 58.6045C1.9651 61.488 2.32441 86.6321 2.41784 88.4342C2.51126 90.2364 2.77715 104.748 2.77715 106.55C2.77715 108.352 3.5892 125.653 3.5892 125.653C3.5892 125.653 4.12817 144.85 4.12817 145.931C4.12817 147.012 4.30783 162.425 4.66714 165.128C5.02646 167.831 6.01817 186.754 6.01817 187.835C6.01817 188.917 6.7368 206.398 6.91646 208.741C7.09611 211.084 7.09611 219.648 7.36919 221.63C7.64227 223.612 6.29125 228.478 6.20501 229.473C6.11878 230.468 4.04912 234.793 4.14255 236.415C4.2307 237.315 4.57209 238.171 5.12688 238.883C5.68166 239.595 6.42696 240.134 7.27577 240.438C9.252 241.252 11.142 241.158 12.1265 241.699C13.111 242.24 17.0707 244.222 18.4145 244.763C19.7584 245.303 24.7025 245.844 25.8739 245.758C26.4877 246.318 27.2273 246.721 28.0298 246.933C28.3438 246.987 28.6655 246.975 28.9747 246.898C29.2839 246.821 29.5739 246.681 29.8264 246.486C29.8264 246.486 30.6384 246.579 31.5367 246.579C32.1719 246.497 32.7498 246.168 33.1464 245.664C33.6867 245.912 34.2651 246.065 34.8568 246.118C35.5754 246.118 36.3875 244.95 36.3875 244.95C36.3875 244.95 37.4654 245.13 38.3637 245.224C39.262 245.318 39.9806 243.963 39.9806 243.963C39.9806 243.963 41.9568 243.335 42.1365 242.254C42.3161 241.173 42.4958 239.911 41.152 239.19C39.8081 238.47 37.8103 238.989 35.8557 238.65C32.7967 238.008 29.9116 236.713 27.3974 234.851C25.8739 233.589 23.2293 232.234 22.4604 231.246C21.1166 229.538 19.9452 227.736 19.6793 226.114C19.4134 224.492 20.3117 204.848 20.3117 204.848L21.9286 168.898L23.2796 138.715L24.6307 116.909L26.6069 91.498L28.2238 66.0872L30.1138 39.5951C30.1138 39.5951 31.6445 16.2604 31.6445 14.8187C31.6445 13.3769 29.5533 5.97355 22.0795 3.54421C17.6463 2.08764 13.0679 1.12075 8.42558 0.660714Z" fill="#F8C2A0"/>
<path d="M43.5522 235.125C42.9414 233.409 43.8253 231.074 44.3643 229.718C45.2964 227.022 45.989 224.247 46.4339 221.428C46.6136 219.446 45.9884 211.069 45.8087 209.354C45.629 207.638 45.0901 194.576 44.8242 193.228C44.5583 191.88 43.3869 170.34 43.2073 167.817C43.0276 165.294 42.5605 146.364 42.2946 143.934C42.0287 141.505 41.6694 119.518 41.576 118.163C41.4826 116.808 40.5843 92.2983 40.5843 92.2983L39.5063 64.7249L38.9673 43.4591C38.9673 43.4591 38.608 24.9903 38.608 23.3684C38.608 21.7464 38.7015 12.0146 39.2404 10.3927C39.7794 8.7707 60.8927 -1.94869 61.3383 2.10262C61.7838 6.15393 61.6114 12.7355 61.6976 14.6314C61.7838 16.5273 61.791 30.1302 61.791 32.7469C61.791 35.3637 61.8844 51.0427 61.8844 51.0427C61.8844 51.0427 61.6186 66.455 61.7048 69.3385C61.791 72.2219 61.7048 85.0174 61.7048 85.0174V99.0745C61.7048 99.0745 61.9779 106.824 61.9779 108.266C61.9779 109.707 61.712 122.416 61.712 122.416L60.9933 144.857L60.5478 154.683L59.0171 195.657L58.2985 220.888C58.2985 220.888 57.8529 225.393 60.0951 228.551C62.3372 231.708 66.2034 233.15 67.1951 233.69C69.2363 234.809 71.3717 235.745 73.5766 236.487C74.6768 236.766 75.7352 237.19 76.7242 237.749C76.9805 237.989 77.1785 238.284 77.3031 238.613C77.4277 238.942 77.4755 239.295 77.4428 239.645C77.5497 239.902 77.6048 240.177 77.6048 240.456C77.6048 240.734 77.5497 241.01 77.4428 241.267C77.0835 242.168 75.2007 241.901 75.2007 241.901C75.1273 242.488 74.8554 243.033 74.4304 243.443C74.0054 243.854 73.4529 244.106 72.8651 244.157C70.7092 244.431 69.0923 243.891 68.1078 242.809C66.8102 243.109 65.4656 243.14 64.1553 242.903C62.5384 242.456 59.4842 241.461 59.4842 241.461C59.4842 241.461 53.3759 238.758 49.7827 238.852C45.859 238.917 44.4505 237.648 43.5522 235.125Z" fill="#F8C2A0"/>
</svg>
