<svg width="166" height="255" viewBox="0 0 106 310" fill="none" xmlns="http://www.w3.org/2000/svg">
<path d="M31.8238 218.643C31.8238 218.643 29.8078 217.369 27.2614 217.581C24.7149 217.794 14.8473 218.855 14.8473 218.855C14.8473 218.855 12.3009 220.234 12.3009 220.871C12.3009 221.507 12.7253 234.027 12.7253 234.027L13.1497 258.431L13.8924 283.365V287.609C13.8924 287.609 11.6643 290.58 10.6032 291.96C9.5422 293.339 9.32999 295.673 9.43609 296.416C9.5422 297.159 11.6643 298.432 13.3619 298.962C15.0595 299.493 28.6407 303.631 28.6407 303.631C28.6407 303.631 41.0548 307.451 43.7073 308.087C46.3599 308.724 53.1505 308.936 54.4237 308.724C55.697 308.512 57.7129 307.132 57.7129 306.071C57.7129 305.01 57.0763 303.1 55.2726 302.145C53.4688 301.191 42.7524 295.037 42.7524 295.037L31.5055 289.095L28.1102 286.973L29.8078 256.84L31.3994 230.95L31.8238 218.643Z" fill="#F9FFFF"/>
<path d="M3.70654 234.24C3.70654 233.195 5.51029 233.498 7.31404 233.498C9.11779 233.498 12.9375 234.134 13.6802 234.453C14.4229 234.771 14.529 244.002 13.1497 243.683C11.7704 243.365 9.33 242.198 7.52625 240.713C5.7225 239.227 3.70654 235.195 3.70654 234.24Z" fill="#F9FFFF"/>
<path d="M4.34321 260.978C4.49176 259.943 6.78358 259.705 7.95071 260.129C9.11784 260.554 13.5742 261.827 14.2108 262.145C14.8474 262.464 14.8474 271.907 13.5742 272.119C12.3009 272.331 9.54225 270.527 8.37512 269.254C7.20799 267.981 4.13101 262.464 4.34321 260.978Z" fill="#F9FFFF"/>
<path d="M60.3655 216.415C60.2229 214.844 62.5937 213.975 64.1852 213.975C65.7768 213.975 78.2969 215.036 79.0396 215.142C79.7823 215.248 80.6312 215.248 80.3129 217.158C79.9946 219.068 79.464 246.867 79.464 246.867L78.7213 275.408L78.5091 283.684C78.5091 283.684 95.4856 292.915 96.971 293.658C98.4565 294.401 103.974 297.902 104.61 298.751C105.247 299.6 105.671 301.828 103.019 302.889C100.366 303.95 95.1673 303.844 92.4086 303.207C89.6499 302.571 79.2518 300.448 79.2518 300.448C79.2518 300.448 67.2622 297.265 65.4585 296.841C63.6547 296.417 61.7449 294.507 61.7449 293.021C61.7449 291.536 61.4265 290.05 63.1242 287.928C64.8218 285.806 65.1402 284.851 65.1402 284.851L62.6998 250.368C62.6998 250.368 60.4716 217.582 60.3655 216.415Z" fill="#F9FFFF"/>
<path d="M62.2755 234.134C62.2755 234.134 59.0924 234.452 57.2887 234.77C55.4849 235.089 53.3629 234.558 53.2568 235.938C53.1507 237.317 55.2727 239.757 56.4398 240.712C57.607 241.667 61.1084 244.107 62.5938 244.426C64.0793 244.744 64.2915 235.089 62.2755 234.134Z" fill="#F9FFFF"/>
<path d="M64.1852 260.659C64.1852 260.659 60.0472 259.704 58.4557 259.704C56.8641 259.704 54.8482 259.386 55.0604 260.872C55.2726 262.357 57.2885 265.54 58.2435 266.495C59.1984 267.45 62.2754 271.057 64.3974 270.951C66.5195 270.845 67.1561 262.251 64.1852 260.659Z" fill="#F9FFFF"/>
<path d="M28.8532 218.36C28.8532 218.36 27.1564 220.2 25.6005 220.624C24.0437 221.048 16.8287 221.331 15.1311 219.633C15.1311 219.633 12.7255 205.91 12.7255 203.081C12.7255 200.252 11.5941 188.934 11.8767 183.276C12.1602 177.617 13.9988 166.017 14.7067 164.036C15.4146 162.055 16.9705 153.708 17.1123 152.718C17.2532 151.728 18.102 147.909 17.2532 144.372C16.4043 140.835 14.2823 123.434 13.2926 119.614C12.3011 115.794 9.89641 90.7548 9.75466 86.6516C9.61375 82.5484 8.90668 67.4114 9.47285 65.8555C9.47285 65.8555 25.4587 69.1082 28.9958 68.9673C32.532 68.8263 50.2164 68.8263 50.2164 68.8263C50.2164 68.8263 49.5084 83.8217 49.084 87.7831C48.6596 91.7446 45.9722 115.653 43.5667 124.99C41.1611 134.327 38.0493 146.776 38.0493 146.776C38.0493 146.776 38.8981 151.728 38.6146 153.991C38.3328 156.255 35.6438 160.357 35.6438 160.357L32.1076 189.784L29.5611 212.277L28.8532 218.36Z" fill="#C32F25"/>
<path d="M86.0075 59.7725C86.0075 59.7725 84.3099 62.0354 77.2358 64.2992C70.1634 66.563 48.094 66.4213 48.094 66.4213C48.094 66.4213 47.9514 85.238 48.8002 89.1986C49.649 93.1592 52.9034 117.069 54.3176 121.596L59.2696 143.382L60.4019 151.163L60.6837 157.529C60.6837 157.529 59.9775 158.944 59.9775 159.793C59.9775 160.642 58.2799 172.241 58.2799 175.919C58.2799 179.598 57.9964 187.096 58.5617 192.189C59.1287 197.282 60.1184 206.194 60.6837 207.75C61.2508 209.307 62.3814 215.955 62.8058 216.663C63.2302 217.371 67.6169 218.644 69.739 218.502C71.861 218.361 76.8122 217.087 77.3784 215.814L78.3681 194.311L80.7737 157.529C80.7737 157.529 83.1775 155.408 83.1775 153.851C83.1775 152.294 83.4611 148.758 82.7531 146.919C82.0469 145.079 81.9043 143.665 81.9043 143.665C81.9043 143.665 83.6019 130.932 83.8855 129.8C84.169 128.669 85.1587 112.116 85.5831 109.287C86.0075 106.458 86.0075 80.7104 86.0075 80.7104V59.7725Z" fill="#C32F25"/>
<path d="M23.7601 68.4022C20.8376 67.8708 12.0191 66.7046 9.47267 65.8557C6.9262 65.0069 1.408 64.299 0.841833 62.7431C0.276517 61.1872 1.12534 57.7919 1.69066 55.9525C2.25767 54.1131 5.36945 44.069 5.36945 44.069L8.62384 36.1469C8.62384 36.1469 6.78359 32.0446 6.50178 25.6784C6.41351 23.6939 6.78359 14.6437 6.78359 12.8043C6.78359 11.9521 7.63242 4.88224 9.18916 3.74991C12.9129 1.04131 20.3766 1.12789 24.3271 1.20344C28.7477 1.28832 55.5918 2.47667 57.8556 2.47667C60.1186 2.47667 76.9541 2.61843 78.5092 5.58931C80.0659 8.56019 80.6312 16.3413 80.9147 19.5949C81.1982 22.8484 82.7533 27.0925 83.0368 28.7902C83.3203 30.4878 84.4509 41.239 84.31 43.2202C84.31 43.2202 87.14 48.3131 87.5644 50.4352C87.9888 52.5572 87.4226 57.3675 86.2912 59.0652C85.1588 60.7628 79.7824 63.451 75.9627 64.7243C72.143 65.9975 54.3355 68.5703 51.065 68.8266C36.635 69.9581 28.4286 69.251 23.7601 68.4022Z" fill="#C32F25"/>
<path d="M9.04838 14.3599C7.49164 13.2284 6.92548 13.9363 7.20814 11.6725C7.49164 9.4087 7.6334 5.44724 8.62397 4.17401C9.6137 2.90077 14.4231 1.20312 16.9696 1.20312C19.5161 1.20312 39.8878 1.34573 43.991 1.91104C48.0942 2.47636 70.8699 3.60699 74.2652 3.8905C77.6605 4.17401 78.7928 6.29606 79.3581 8.98429C79.9251 11.6725 81.3393 14.5025 78.9337 15.4922C76.5298 16.4819 66.7684 18.0387 55.7337 18.4631C48.2071 18.7525 28.5713 18.4631 25.6004 17.7552C25.6004 17.7552 10.6043 15.4914 9.04838 14.3599Z" fill="#F6A73E"/>
<path d="M8.60433 36.1953C5.47387 27.4218 6.18178 13.1328 8.30384 4.64453" stroke="black" stroke-miterlimit="10" stroke-linecap="round" stroke-linejoin="round"/>
<path d="M8.30383 4.64488C8.97355 3.27743 10.1543 2.48038 13.1498 1.98043C18.2427 1.1316 23.3356 1.34381 30.1262 1.55601C36.9168 1.76822 65.3524 2.40484 74.265 3.89028C78.7061 4.63045 78.5439 6.13032 78.5439 6.13032C79.358 7.42817 80.4691 13.9938 80.7738 18.8873C81.0038 22.578 83.8856 27.2329 84.4509 43.6432C84.4509 43.6432 89.5439 50.4338 86.9974 58.0732C84.4509 65.7126 53.8924 69.5714 41.1609 69.3914C21.0727 69.1079 5.79386 65.43 1.54974 63.7323C-2.69437 62.0347 8.60431 36.1956 8.60431 36.1956" stroke="black" stroke-miterlimit="10" stroke-linecap="round" stroke-linejoin="round"/>
<path d="M29.564 217.856C30.9611 218.05 31.8439 218.379 31.8235 218.852C31.7344 221.053 28.2356 285.969 28.1235 288.722" stroke="black" stroke-miterlimit="10" stroke-linecap="round" stroke-linejoin="round"/>
<path d="M13.9987 289.306C13.9987 289.306 12.3061 224.721 12.4632 220.869C12.4912 220.192 13.1176 219.609 14.1294 219.118" stroke="black" stroke-miterlimit="10" stroke-linecap="round" stroke-linejoin="round"/>
<path d="M28.0337 287.077C28.0337 287.077 53.0638 300.233 56.4548 303.128C59.845 306.025 57.5965 311.999 39.2577 306.837C32.2031 304.852 14.001 299.188 14.001 299.188C6.65186 297.498 10.4274 292.174 10.4274 292.174L13.9738 287.604" stroke="black" stroke-miterlimit="10" stroke-linecap="round" stroke-linejoin="round"/>
<path d="M35.5663 160.786L28.8224 218.729C28.8224 218.729 27.1002 220.422 24.5605 220.762C17.1672 221.747 15.0121 219.87 15.0121 219.87C15.0121 219.87 12.3018 205.405 11.9173 187.393C11.6304 173.962 15.7132 160.017 15.7132 160.017" stroke="black" stroke-miterlimit="10" stroke-linecap="round" stroke-linejoin="round"/>
<path d="M15.7428 160.151C15.7428 160.151 17.3938 153.342 17.6773 147.684C15.4168 130.832 8.21289 96.8015 9.4717 65.9951" stroke="black" stroke-miterlimit="10" stroke-linecap="round" stroke-linejoin="round"/>
<path d="M50.4977 69.3906C50.4977 69.3906 49.8832 80.3914 48.2348 95.4215C44.8327 126.438 38.3315 146.269 38.3315 146.269" stroke="black" stroke-miterlimit="10" stroke-linecap="round" stroke-linejoin="round"/>
<path d="M37.2434 144.853C37.2434 144.853 38.807 148.372 38.6143 153.061C38.4224 157.75 35.1621 160.945 35.1621 160.945" stroke="black" stroke-miterlimit="10" stroke-linecap="round" stroke-linejoin="round"/>
<path d="M30.9752 148.25C29.8446 152.211 30.6807 154.497 30.6807 154.497" stroke="black" stroke-miterlimit="10" stroke-linecap="round" stroke-linejoin="round"/>
<path d="M77.9951 215.027C79.3999 215.163 80.2946 215.457 80.2946 215.93C80.2946 218.133 78.5095 281.955 78.5095 284.71" stroke="black" stroke-miterlimit="10" stroke-linecap="round" stroke-linejoin="round"/>
<path d="M65.3527 286.761C65.3527 286.761 60.2512 220.397 60.2512 216.54C60.2512 215.863 60.8522 215.255 61.8436 214.723" stroke="black" stroke-miterlimit="10" stroke-linecap="round" stroke-linejoin="round"/>
<path d="M78.793 283.86C78.793 283.86 100.239 295.089 103.747 297.845C107.253 300.599 105.249 306.66 86.715 302.252C79.5866 300.557 65.7669 296.927 65.7669 296.927C61.9099 296.321 61.0475 292.281 61.9099 290.064C62.7723 287.846 65.2653 285.354 65.2653 285.354" stroke="black" stroke-miterlimit="10" stroke-linecap="round" stroke-linejoin="round"/>
<path d="M80.7954 157.778L77.2889 215.93C77.2889 215.93 75.6371 217.693 73.1144 218.136C65.7678 219.422 62.8589 216.541 62.8589 216.541C62.8589 216.541 59.1869 204.977 58.2532 185.329C57.6777 173.212 60.2734 158.053 60.2734 158.053" stroke="black" stroke-miterlimit="10" stroke-linecap="round" stroke-linejoin="round"/>
<path d="M60.488 157.952C60.488 157.952 61.2511 152.777 59.8353 145.987C57.0274 134.818 51.538 110.107 48.8022 88.6318" stroke="black" stroke-miterlimit="10" stroke-linecap="round" stroke-linejoin="round"/>
<path d="M86.1489 60.3369C86.1489 60.3369 86.0954 71.1628 86.0045 94.0929C85.918 115.999 82.1882 143.158 82.1882 143.158" stroke="black" stroke-miterlimit="10" stroke-linecap="round" stroke-linejoin="round"/>
<path d="M81.3469 141.787C81.3469 141.787 83.3196 147.235 83.3196 151.928C83.3196 156.621 79.9243 157.951 79.9243 157.951" stroke="black" stroke-miterlimit="10" stroke-linecap="round" stroke-linejoin="round"/>
<path d="M75.1836 145.437C75.1836 145.437 74.7091 149.086 75.6581 150.651" stroke="black" stroke-miterlimit="10" stroke-linecap="round" stroke-linejoin="round"/>
<path d="M22.6988 17.2594C17.7187 16.6288 7.63218 14.713 7.20776 13.2275" stroke="black" stroke-miterlimit="10" stroke-linecap="round" stroke-linejoin="round"/>
<path d="M80.2069 14.501C79.7825 16.1986 69.1722 18.1085 56.6521 18.5329C47.1758 18.8546 36.6852 18.9369 30.5508 17.8963" stroke="black" stroke-miterlimit="10" stroke-linecap="round" stroke-linejoin="round"/>
<path d="M24.821 22.99C24.821 22.99 19.5159 9.83328 20.7891 8.77225C22.0624 7.71122 32.4604 9.19666 33.5215 10.2577C34.5825 11.3187 27.1553 23.2022 24.821 22.99Z" fill="#F6A73E"/>
<path d="M15.6962 289.237C15.6962 289.237 15.4144 291.784 17.3939 292.915" stroke="black" stroke-miterlimit="10" stroke-linecap="round" stroke-linejoin="round"/>
<path d="M66.9093 286.973C66.9093 286.973 65.777 289.802 68.3235 290.368" stroke="black" stroke-miterlimit="10" stroke-linecap="round" stroke-linejoin="round"/>
<path d="M61.2498 234.348C61.2498 234.348 53.0442 234.63 53.0442 235.763C53.0442 237.661 56.4395 242.27 62.0986 244.251" stroke="black" stroke-miterlimit="10" stroke-linecap="round" stroke-linejoin="round"/>
<path d="M63.5139 260.662C63.5139 260.662 55.0256 258.681 55.0256 260.379C55.0256 262.077 59.5516 269.433 63.5139 270.848" stroke="black" stroke-miterlimit="10" stroke-linecap="round" stroke-linejoin="round"/>
<path d="M12.3011 234.064C12.3011 234.064 3.53018 232.649 3.81284 234.064C5.0343 240.167 10.8869 243.118 13.1499 243.967" stroke="black" stroke-miterlimit="10" stroke-linecap="round" stroke-linejoin="round"/>
<path d="M13.4335 262.075C13.4335 262.075 6.07756 258.963 4.66173 260.377C3.24759 261.791 8.34053 271.412 13.4335 272.261" stroke="black" stroke-miterlimit="10" stroke-linecap="round" stroke-linejoin="round"/>
<path d="M24.821 22.99C24.821 22.99 19.5159 9.83328 20.7891 8.77225C22.0624 7.71122 32.4604 9.19666 33.5215 10.2577C34.5825 11.3187 27.1553 23.2022 24.821 22.99Z" stroke="black" stroke-miterlimit="10" stroke-linecap="round" stroke-linejoin="round"/>
</svg>
