<svg width="81" height="171" viewBox="0 0 81 171" fill="none" xmlns="http://www.w3.org/2000/svg">
<path d="M36.939 25.5713L40.6387 83.5368L44.0594 136.307C46.8003 137.502 55.0299 137.144 56.5828 137.144C58.1357 137.144 61.1127 136.429 61.1127 135.835C61.1127 135.241 61.2344 118.18 61.2344 115.675C61.2344 113.171 61.4705 91.3443 61.4705 87.2867V49.1225C61.4705 42.8035 61.7067 29.0278 61.4705 26.4014L36.939 25.5713Z" fill="#3A3A3D"/>
<path d="M28.3661 22.3438C28.13 30.094 26.0833 73.2747 25.9688 79.5936C25.8543 85.9126 23.7002 108.813 23.7002 112.155C23.7002 115.496 22.2261 136.901 22.2261 137.974C22.2261 139.048 15.1915 139.999 14.2325 139.763C13.2736 139.527 5.4089 139.284 4.09216 137.853L3.50534 89.6768L2.0741 27.8326L28.3661 22.3438Z" fill="#3A3A3D"/>
<path d="M20.3509 144.687C20.9663 143.663 31.9655 154.863 35.5507 160.044C37.6976 163.143 39.8445 167.68 38.6494 169.347C37.9338 170.313 23.6213 169.583 15.0338 167.436C9.30882 166.005 4.77893 164.338 4.0633 162.663C3.34768 160.989 4.0633 149.303 5.25839 147.871C6.87384 148.565 8.59839 148.969 10.3536 149.066C14.8263 149.431 19.0127 146.927 20.3509 144.687Z" fill="#FF0000"/>
<path d="M45.09 144.78C45.9273 143.277 47.4802 146.405 50.5788 146.691C55.8243 147.17 58.4507 144.544 60.1181 144.065C61.7855 143.585 69.9006 151.221 73.7149 155.514C77.5292 159.808 81.3506 165.769 79.9194 166.964C78.4881 168.16 68.2332 167.68 63.46 167.201C58.6868 166.721 47.2368 164.338 44.6177 162.907C41.9985 161.476 43.902 146.927 45.09 144.78Z" fill="#FF0000"/>
<path d="M5.92407 148.294L6.28188 138.812C8.52387 139.241 10.7981 139.48 13.0803 139.527C16.3006 139.527 19.2561 139.348 19.2561 139.348V145.431C19.2561 145.431 17.3454 148.83 12.1572 149.245C10.0363 149.356 7.91517 149.032 5.92407 148.294Z" fill="white"/>
<path d="M46.2637 137.022C46.2637 137.022 48.7971 137.259 51.5737 137.259C54.3503 137.259 58.6083 137.022 58.6083 137.022L58.4866 144.894C58.4866 144.894 54.4934 146.984 51.8098 146.805C49.1262 146.626 47.3086 145.76 46.1421 144.243L46.2637 137.022Z" fill="white"/>
<path d="M2.31028 32.3696L2.07413 27.8325C2.07413 27.8325 0.764538 7.68057 1.12235 6.01317C1.48016 4.34576 6.72568 2.54955 9.46652 2.07008C12.2074 1.59061 28.7884 0.760489 34.9928 1.1183C41.1973 1.47611 55.0303 2.31339 57.535 3.8663C60.0397 5.4192 61.2347 4.93973 61.3492 9.35513C61.4351 12.5754 61.4709 18.0643 61.4709 18.0643L61.3492 29.0348L59.4385 32.2551L39.8018 31.8973L37.2971 31.06L37.061 29.3926C37.061 29.3926 35.1145 28.3192 31.5364 28.5553C27.9582 28.7915 27.6147 28.6698 25.704 29.8578L25.4679 34.8671L2.31028 32.3696Z" fill="#3A3A3D"/>
<path d="M6.28182 138.875L6.00989 147.727" stroke="black" stroke-linecap="round" stroke-linejoin="round"/>
<path d="M19.1632 139.233L18.8054 146.118" stroke="black" stroke-linecap="round" stroke-linejoin="round"/>
<path d="M46.3568 137.266L46.1779 144.329" stroke="black" stroke-linecap="round" stroke-linejoin="round"/>
<path d="M58.5225 136.908V144.422" stroke="black" stroke-linecap="round" stroke-linejoin="round"/>
<path d="M20.2364 144.78C20.8519 143.757 31.9154 154.87 35.5007 160.044C37.6476 163.143 40.1379 168.195 38.5993 169.347C37.6476 170.063 23.5712 169.584 14.9838 167.437C9.25877 166.005 4.72888 164.338 4.01325 162.663C3.29763 160.989 4.01325 149.303 5.20834 147.872C6.82379 148.565 8.54835 148.969 10.3036 149.067C14.7762 149.432 18.8911 147.013 20.2364 144.78Z" stroke="black" stroke-linecap="round" stroke-linejoin="round"/>
<path d="M45.0112 144.78C45.8485 143.277 47.4014 146.405 50.5001 146.691C55.7456 147.17 58.3719 144.544 60.0393 144.065C61.7067 143.585 69.8219 151.221 73.6362 155.514C77.4505 159.808 81.2719 165.769 79.8407 166.964C78.4094 168.16 68.1545 167.68 63.3813 167.201C58.6081 166.721 47.1581 164.338 44.5389 162.907C41.9197 161.476 43.8519 146.927 45.0112 144.78Z" stroke="black" stroke-linecap="round" stroke-linejoin="round"/>
<path d="M37.2111 29.0848C37.5689 41.6083 43.8521 132.972 43.8521 136.192C43.8521 137.623 61.0271 137.981 61.0271 135.834C61.0271 133.688 61.7427 36.7206 61.3849 29.9221C61.3849 29.9221 61.8572 17.0982 61.113 7.08658C60.6335 0.638807 32.3664 1.00377 26.4052 1.00377C20.4441 1.00377 0.878909 1.59774 1.00056 6.72876C1.06497 9.34795 2.43181 32.1334 2.43181 32.1334C3.14744 75.4 4.135 136.099 4.135 137.623C4.135 139.77 21.6678 140.486 22.0256 137.981C22.3834 135.477 26.5626 70.7699 26.5626 59.32L28.2444 29.2638" stroke="black" stroke-linecap="round" stroke-linejoin="round"/>
<path d="M38.4919 29.1491C38.4919 29.1491 38.3345 28.3118 33.2035 28.5551C31.5335 28.6035 29.8713 28.8023 28.2371 29.1491" stroke="black" stroke-linecap="round" stroke-linejoin="round"/>
</svg>
