<svg width="88" height="270" viewBox="0 0 88 306" fill="none" xmlns="http://www.w3.org/2000/svg">
<path d="M36.0818 288.868C36.0818 288.868 40.0076 292.582 41.5991 293.749C43.1907 294.916 45.7371 298.842 46.4799 299.797C47.2226 300.752 47.7531 302.45 47.0104 303.192C46.2677 303.935 43.9334 304.678 39.7954 304.466C35.6574 304.253 27.1691 302.874 27.1691 302.874L19.848 300.752C19.848 300.752 17.5138 300.54 17.3016 298.312C17.0894 296.083 17.1955 293.643 17.1955 293.643L18.3983 288.728L36.0818 288.868Z" fill="#3A3A3D"/>
<path d="M55.7106 288.656C55.7106 288.656 61.7585 288.55 65.5782 288.975C69.3979 289.399 74.8091 290.142 74.8091 290.142C74.8091 290.142 79.2654 293.961 80.3265 295.341C81.3875 296.72 84.1462 299.267 84.7828 301.07C85.4194 302.874 84.5706 303.935 82.0241 304.36C79.4776 304.784 73.4298 304.147 70.6711 303.935C67.9124 303.723 57.9388 301.07 57.9388 301.07C57.9388 301.07 55.4984 300.222 54.9679 298.736C54.4374 297.251 54.4374 292.688 55.7106 288.656Z" fill="#3A3A3D"/>
<path d="M46.48 82.6041C47.541 77.5112 76.6132 76.4501 80.6451 78.36C84.677 80.2698 86.693 81.1187 86.9052 82.9224C87.1174 84.7262 86.9052 100.535 86.3747 103.294C85.8442 106.053 84.3587 119.952 83.2977 124.303C82.2367 128.653 79.0536 140.855 79.0536 140.855L78.8414 141.81C78.8414 141.81 80.3268 148.812 79.7963 152.314C79.2658 155.815 77.3559 161.12 77.3559 161.12L75.6583 165.258C75.6583 165.258 77.462 174.277 77.0376 184.887C76.6132 195.498 75.1278 208.336 75.1278 208.336L72.7935 222.129L71.0959 230.83L70.3532 234.543L69.186 253.642L68.4433 268.284L67.9128 274.863C67.9128 274.863 67.3823 277.621 68.4433 280.698C69.5043 283.775 71.3081 286.64 71.3081 286.64C71.3081 286.64 74.279 289.399 74.8095 290.141C75.34 290.884 76.5071 293.006 75.2339 293.643C73.9607 294.279 69.7165 294.598 67.3823 294.173C65.048 293.749 61.7588 292.476 59.6368 291.627C57.5147 290.778 55.711 288.656 55.711 288.656L56.9842 284.836C56.9842 284.836 56.5598 282.82 56.8781 281.441C57.1964 280.062 57.7269 278.894 57.7269 278.894L56.1354 261.281L53.9072 246.639C53.9072 246.639 52.4218 236.665 52.9523 233.164C52.9523 233.164 47.8593 218.31 47.541 215.339C47.2227 212.368 44.5702 199.636 44.5702 196.24C44.5702 192.845 43.7833 183.742 44.3579 178.733C45.1007 172.261 46.5861 163.985 46.6922 163.561C46.7983 163.136 49.557 152.738 49.557 152.738C49.557 152.738 46.0556 146.266 45.7373 145.099C45.419 143.932 42.5542 137.141 42.5542 137.141L46.48 82.6041Z" fill="#EFBC92"/>
<path d="M1.42212 83.3121C1.56387 78.3609 6.09065 71.5703 20.5206 71.5703C34.9506 71.5703 50.653 78.0782 51.22 80.9074C51.7853 83.7365 51.0783 85.8586 51.0783 85.8586L47.5412 113.445L45.4192 125.187L43.1562 134.808L42.0239 139.193L41.175 141.174C41.175 141.174 42.59 147.681 42.1656 151.218C41.7412 154.755 40.0436 160.555 40.0436 160.555L37.9215 165.224C37.9215 165.224 39.62 175.551 39.4774 183.473C39.3365 191.395 37.7798 206.533 37.7798 206.533L35.375 222.095L33.253 231.714L32.5459 235.251L31.5553 255.199L30.7065 270.478C30.7065 270.478 29.8577 276.562 30.2821 277.976C30.7065 279.39 31.2727 283.351 32.6868 285.332C34.1018 287.313 37.3553 290.142 37.3553 290.142C37.3553 290.142 38.7695 291.839 38.0633 292.971C37.3553 294.104 34.3845 294.81 32.6868 294.669C30.9892 294.528 25.7553 293.255 23.6333 292.406C21.5112 291.557 18.3986 288.727 18.3986 288.727L19.3892 284.483C19.3892 284.483 18.823 283.068 19.2474 281.937C19.6718 280.805 20.238 278.966 20.238 278.966L18.1159 259.16C18.1159 259.16 15.8521 243.598 15.8521 242.891C15.8521 242.184 15.2859 233.129 15.2859 233.129C15.2859 233.129 11.6071 222.095 10.9009 219.124C10.193 216.153 7.64654 202.714 7.22213 196.489C6.79772 190.264 7.01756 176.555 7.64654 171.307C8.49536 164.234 12.3151 152.067 12.3151 152.067C12.3151 152.067 7.50563 140.467 5.80799 133.11C4.11034 125.753 2.4127 113.02 2.27094 109.059C2.12919 105.099 1.42212 83.3121 1.42212 83.3121Z" fill="#EFBC92"/>
<path d="M51.2196 84.3028L51.0779 85.8587C51.0779 85.8587 44.5699 87.2737 40.4676 87.5564C36.3652 87.839 28.584 88.5461 25.4714 88.2634C22.3596 87.9808 14.7202 87.2737 14.7202 87.2737C14.7202 87.2737 16.0384 66.7755 16.4179 60.9602C18.8226 24.0364 24.6226 2.95673 24.9061 0.976421C27.0231 0.411105 29.7104 1.25993 35.2278 1.25993C40.7451 1.25993 53.0522 0.977271 57.0145 1.68434C60.9751 2.39141 68.9592 2.75725 71.8689 2.95757C75.9713 3.24023 78.0933 3.9473 78.0933 3.9473L79.6552 5.64495C79.6552 5.64495 81.0693 8.89849 81.4937 11.8694C81.9181 14.8402 82.9087 23.4711 83.0505 26.1585C83.1914 28.8458 82.767 35.6364 82.767 35.6364L81.6355 42.1443C81.6355 42.1443 83.8993 52.4728 84.3237 54.7358C84.7481 56.9987 86.4449 68.0334 86.304 71.0043C86.1623 73.9752 86.7284 84.3028 86.7284 84.3028C86.7284 84.3028 80.504 85.8587 77.674 85.8587C74.8449 85.8587 66.6393 86.284 64.659 86.1422C62.6787 86.0005 51.2196 84.3028 51.2196 84.3028Z" fill="#DA4F4D"/>
<path d="M16.1348 87.2735C16.1348 87.2735 10.6174 86.5665 9.20328 86.4247C7.78829 86.2829 1.42212 83.3121 1.42212 83.3121C1.42212 83.3121 1.70478 68.0341 1.98828 65.2041C2.27094 62.3741 5.10007 41.2953 5.10007 41.2953C5.10007 41.2953 3.68593 31.6765 3.96859 28.4221C4.25125 25.1677 6.09065 14.6992 6.93947 12.1527C7.78829 9.60621 8.75765 3.34275 10.7592 2.24946C15.4226 -0.297007 26.5991 0.69357 26.5991 0.69357L26.0329 4.23062L25.1892 8.61563L22.5009 26.7244C22.5009 26.7244 21.5112 35.4962 21.5112 37.7591C21.5112 40.0221 21.5112 43.1347 21.5112 43.1347L19.1056 57.7065L17.2671 70.5797L16.1348 87.2735Z" fill="#49B6BB"/>
<path d="M6.65649 45.8233C0.14856 27.7145 7.24982 12.4824 9.37188 3.99414" stroke="black" stroke-miterlimit="10" stroke-linecap="round" stroke-linejoin="round"/>
<path d="M81.0694 45.8228C84.4647 32.8078 82.4317 19.8047 82.2017 16.114C81.897 11.2197 80.4277 6.77778 79.6119 5.47993C79.6119 5.47993 79.7741 3.98006 75.3347 3.23989C66.4221 1.75445 37.9865 1.11783 31.1959 0.905623C24.4053 0.693417 19.3124 0.481211 14.2195 1.33003C11.2223 1.82999 10.0432 2.62619 9.37183 3.99449" stroke="black" stroke-miterlimit="10" stroke-linecap="round" stroke-linejoin="round"/>
<path d="M5.24158 41.5771C5.24158 41.5771 1.56364 59.1198 1.37095 82.0779C1.19355 103.074 2.97777 123.135 6.37306 135.231C9.09354 144.922 12.8717 153.38 12.8717 153.38" stroke="black" stroke-miterlimit="10" stroke-linecap="round" stroke-linejoin="round"/>
<path d="M12.0592 153.106C12.0592 153.106 5.34418 169.698 6.99854 194.369C8.65374 219.041 16.6938 236.59 17.5053 238.018" stroke="black" stroke-miterlimit="10" stroke-linecap="round" stroke-linejoin="round"/>
<path d="M15.2034 233.664C15.5972 243.31 19.3966 265.353 20.3141 278.955C18.7421 282.767 18.9382 284.562 21.1001 286.433" stroke="black" stroke-miterlimit="10" stroke-linecap="round" stroke-linejoin="round"/>
<path d="M52.4932 56.0078C52.3523 74.9578 50.703 90.5795 46.8527 118.248C45.5379 127.697 41.2522 141.607 41.2522 141.607" stroke="black" stroke-miterlimit="10" stroke-linecap="round" stroke-linejoin="round"/>
<path d="M40.8107 140.324C40.8107 140.324 42.471 144.424 42.2758 151.373C42.0788 158.319 36.3 168.586 36.3 168.586" stroke="black" stroke-miterlimit="10" stroke-linecap="round" stroke-linejoin="round"/>
<path d="M22.9856 175.229C25.4243 185.679 23.6553 198.241 22.9678 203.208" stroke="black" stroke-miterlimit="10" stroke-linecap="round" stroke-linejoin="round"/>
<path d="M15.9836 94.7129C15.9836 94.7129 14.2859 111.458 19.9357 127.34" stroke="black" stroke-miterlimit="10" stroke-linecap="round" stroke-linejoin="round"/>
<path d="M20.3142 301.004C17.6939 300.503 16.7415 298.378 17.0386 294.921C17.3552 291.227 19.1352 285.159 19.1352 285.159" stroke="black" stroke-miterlimit="10" stroke-linecap="round" stroke-linejoin="round"/>
<path d="M18.3482 288.272C18.3482 288.272 17.911 289.353 22.8037 292.092C26.3416 294.072 35.9731 295.633 38.0027 293.223C39.3133 291.667 34.0718 287.03 34.0718 287.03C34.0718 287.03 29.7547 282.442 30.4032 274.549C31.3199 263.373 32.0575 240.97 32.6958 234.537C43.5056 187.203 38.0324 165.122 38.0324 165.122" stroke="black" stroke-miterlimit="10" stroke-linecap="round" stroke-linejoin="round"/>
<path d="M21.4924 301.387C21.4924 301.387 32.6307 305.248 44.4242 304.378C51.7538 303.837 43.7698 296.432 42.1961 294.637C40.6241 292.843 34.4659 287.254 34.4659 287.254" stroke="black" stroke-miterlimit="10" stroke-linecap="round" stroke-linejoin="round"/>
<path d="M28.568 150.479C28.568 150.479 27.782 156.42 28.9619 158.118" stroke="black" stroke-miterlimit="10" stroke-linecap="round" stroke-linejoin="round"/>
<path d="M42.7034 137.136C47.6571 151.072 50.448 153.38 50.448 153.38" stroke="black" stroke-miterlimit="10" stroke-linecap="round" stroke-linejoin="round"/>
<path d="M49.6351 153.106C49.6351 153.106 42.9209 169.698 44.5752 194.369C46.2313 219.041 54.2705 236.59 55.082 238.018" stroke="black" stroke-miterlimit="10" stroke-linecap="round" stroke-linejoin="round"/>
<path d="M52.7798 233.664C53.1736 243.31 56.973 265.353 57.8906 278.955C56.3168 282.767 56.5146 284.562 58.6766 286.433" stroke="black" stroke-miterlimit="10" stroke-linecap="round" stroke-linejoin="round"/>
<path d="M78.8295 141.608C78.8295 141.608 83.1152 127.697 84.43 118.248C88.2786 90.5789 86.8958 87.2397 86.446 73.5507C85.9961 59.8617 81.9183 42.4277 81.9183 42.4277" stroke="black" stroke-miterlimit="10" stroke-linecap="round" stroke-linejoin="round"/>
<path d="M78.3878 140.324C78.3878 140.324 80.0481 144.424 79.8529 151.373C79.6551 158.319 73.8763 168.586 73.8763 168.586" stroke="black" stroke-miterlimit="10" stroke-linecap="round" stroke-linejoin="round"/>
<path d="M60.562 175.229C63.0007 185.679 61.2317 198.241 60.5442 203.208" stroke="black" stroke-miterlimit="10" stroke-linecap="round" stroke-linejoin="round"/>
<path d="M53.5608 94.7129C53.5608 94.7129 51.8631 111.458 57.5121 127.34" stroke="black" stroke-miterlimit="10" stroke-linecap="round" stroke-linejoin="round"/>
<path d="M57.8909 301.004C55.2698 300.503 54.3182 298.378 54.6153 294.921C54.9319 291.227 56.7119 285.159 56.7119 285.159" stroke="black" stroke-miterlimit="10" stroke-linecap="round" stroke-linejoin="round"/>
<path d="M55.9249 288.272C55.9249 288.272 55.4869 289.353 60.3795 292.092C63.9191 294.072 73.5507 295.633 75.5802 293.223C76.89 291.667 71.6485 287.03 71.6485 287.03C71.6485 287.03 67.3322 282.442 67.9807 274.549C68.8975 263.373 69.6351 240.97 70.2734 234.537C81.0823 187.203 75.6091 165.122 75.6091 165.122" stroke="black" stroke-miterlimit="10" stroke-linecap="round" stroke-linejoin="round"/>
<path d="M59.0698 301.387C59.0698 301.387 70.2081 305.248 82.0008 304.378C89.3312 303.837 81.3463 296.432 79.7735 294.637C78.2006 292.842 72.0432 287.254 72.0432 287.254" stroke="black" stroke-miterlimit="10" stroke-linecap="round" stroke-linejoin="round"/>
<path d="M66.1456 150.479C66.1456 150.479 65.3596 156.42 66.5386 158.118" stroke="black" stroke-miterlimit="10" stroke-linecap="round" stroke-linejoin="round"/>
<path d="M65.1539 45.0439C65.1539 45.0439 64.5173 52.0467 60.6976 55.1594C57.1275 58.0691 52.7756 55.7247 52.7756 55.7247C51.6432 50.0656 47.6826 46.105 47.6826 46.105" stroke="black" stroke-miterlimit="10" stroke-linecap="round" stroke-linejoin="round"/>
<path d="M1.49219 83.4531C1.49219 83.4531 6.08772 86.598 17.9738 87.6972C38.6282 89.6071 51.0779 85.7169 51.0779 85.7169" stroke="black" stroke-miterlimit="10" stroke-linecap="round" stroke-linejoin="round"/>
<path d="M86.7285 84.3018C84.6888 85.1506 79.3718 86.2116 65.4443 85.9994C59.6137 85.9111 50.8657 84.3018 50.8657 84.3018" stroke="black" stroke-miterlimit="10" stroke-linecap="round" stroke-linejoin="round"/>
<path d="M26.5989 0.976562C26.5989 0.976562 21.6519 24.4601 21.4397 43.1342C21.4397 43.1342 17.1251 65.0619 15.9937 87.1313" stroke="black" stroke-miterlimit="10" stroke-linecap="round" stroke-linejoin="round"/>
</svg>
