<svg width="81" height="268" viewBox="0 0 81 268" fill="none" xmlns="http://www.w3.org/2000/svg">
<path d="M56.6982 30.3604C60.2763 28.6929 63.6183 26.7822 63.375 24.1559C62.917 19.0964 63.7399 12.4197 62.4804 6.38695C63.375 1.7354 41.7274 1.7354 23.8368 1.19868C13.589 0.890963 4.17858 0.483057 2.92624 3.88227C1.73115 5.43517 0.714965 13.8438 1.07278 19.5974C1.43059 25.351 2.23924 29.7592 5.1733 32.0349C8.27195 34.4179 14.9559 34.6684 26.8782 34.1818C38.5858 33.7023 51.9322 32.5931 56.6982 30.3604Z" fill="#F8C2A0"/>
<path d="M10.8267 22.6816C7.69223 22.3238 3.02637 27.2401 3.02637 29.8378C3.02637 32.4356 3.38418 48.9808 3.65612 50.8629C3.92805 52.745 4.01393 77.3409 4.19283 80.2034C4.37174 83.0659 4.72955 108.027 4.82258 109.816C4.91561 111.605 5.18039 126.011 5.18039 127.8C5.18039 129.589 5.98905 146.764 5.98905 146.764C5.98905 146.764 6.52577 165.821 6.52577 166.894C6.52577 167.968 6.70467 183.268 7.06249 185.951C7.4203 188.635 8.40786 207.42 8.40786 208.493C8.40786 209.567 9.12348 226.921 9.30239 229.246C9.48129 231.572 9.48129 240.074 9.75323 242.042C10.0252 244.01 8.67979 248.84 8.59392 249.828C8.50804 250.815 6.44705 255.109 6.53292 256.719C6.61536 257.62 6.95447 258.479 7.51003 259.193C8.06559 259.907 8.81429 260.447 9.66736 260.748C11.6353 261.557 13.5103 261.464 14.4978 262C15.4854 262.537 19.4213 264.505 20.7595 265.042C22.0977 265.579 27.0212 266.115 28.1877 266.029C28.799 266.585 29.5355 266.986 30.3346 267.196C30.6472 267.25 30.9676 267.238 31.2756 267.161C31.5835 267.085 31.8722 266.946 32.1236 266.752C32.1236 266.752 32.9323 266.845 33.8268 266.845C34.4598 266.769 35.0377 266.448 35.437 265.951C35.9749 266.197 36.5509 266.349 37.1401 266.402C37.8558 266.402 38.6644 265.242 38.6644 265.242C38.6644 265.242 39.7379 265.421 40.6324 265.514C41.5269 265.607 42.2425 264.262 42.2425 264.262C42.2425 264.262 44.2105 263.639 44.3894 262.566C44.5683 261.492 44.7472 260.24 43.409 259.524C42.0708 258.809 40.0814 259.324 38.1349 258.988C35.0948 258.353 32.227 257.072 29.7263 255.231C28.2092 253.978 25.5757 252.633 24.81 251.653C23.4646 249.957 22.3053 248.167 22.0333 246.557C21.7614 244.947 22.6631 225.446 22.6631 225.446L24.2732 189.758L25.6186 159.795L26.9282 138.083L28.8962 112.857L30.5063 87.6316L32.3669 61.3253C32.3669 61.3253 33.8912 38.1605 33.8912 36.7293C33.8912 35.298 31.8445 27.9557 24.4235 25.5441C20.0089 24.0981 15.4496 23.1383 10.8267 22.6816Z" fill="#F8C2A0"/>
<path d="M45.7993 255.445C45.191 253.742 46.0712 251.423 46.608 250.078C47.5338 247.401 48.2211 244.647 48.6618 241.848C48.8407 239.88 48.2181 231.565 48.0392 229.862C47.8603 228.158 47.3236 215.191 47.0588 213.853C46.794 212.515 45.6275 191.132 45.4486 188.627C45.2697 186.123 44.8189 167.323 44.5326 164.912C44.2464 162.5 43.9101 140.673 43.817 139.328C43.724 137.983 42.8366 113.659 42.8366 113.659L41.7632 86.286L41.2265 65.1751C41.2265 65.1751 40.8687 46.8408 40.8687 45.2306C40.8687 43.6205 40.9617 33.9596 41.4984 32.3494C42.0351 30.7393 63.0673 20.0836 63.511 24.1126C63.9547 28.1415 63.7829 34.668 63.8688 36.5501C63.9547 38.4322 63.9618 51.936 63.9618 54.5337C63.9618 57.1315 64.0549 72.6963 64.0549 72.6963C64.0549 72.6963 63.7829 87.9892 63.8545 90.8516C63.926 93.7141 63.8545 106.416 63.8545 106.416V120.371C63.8545 120.371 64.1407 128.064 64.1407 129.495C64.1407 130.927 63.8545 143.529 63.8545 143.529L63.1389 165.806L62.6952 175.56L61.1781 216.265L60.4624 241.312C60.4624 241.312 60.0187 245.784 62.2515 248.919C64.4842 252.053 68.3343 253.484 69.3219 254.021C71.3522 255.131 73.4762 256.06 75.6694 256.798C76.765 257.075 77.819 257.496 78.8039 258.05C79.0591 258.288 79.2563 258.582 79.3804 258.908C79.5045 259.234 79.552 259.585 79.5195 259.932C79.626 260.187 79.6808 260.461 79.6808 260.737C79.6808 261.014 79.626 261.287 79.5195 261.542C79.1617 262.437 77.2796 262.172 77.2796 262.172C77.2065 262.755 76.9358 263.295 76.5126 263.703C76.0893 264.111 75.5392 264.361 74.9538 264.412C72.8069 264.684 71.1968 264.147 70.2164 263.074C68.9242 263.371 67.5852 263.402 66.2805 263.167C64.6703 262.723 61.6289 261.735 61.6289 261.735C61.6289 261.735 55.5461 259.052 51.968 259.145C48.1108 259.202 46.6795 257.943 45.7993 255.445Z" fill="#F8C2A0"/>
<path d="M36.8254 25.2081C36.8254 25.2081 27.1573 21.5226 25.5758 24.4925C23.8225 27.7414 30.0771 29.7451 30.0771 29.7451C30.0771 29.7451 21.1604 30.6683 21.4896 34.3037C21.8188 37.939 28.789 37.4596 28.789 37.4596C28.789 37.4596 23.7796 42.9842 24.7886 46.2546C25.7977 49.525 33.5407 44.9593 33.5407 44.9593C33.5407 44.9593 35.4586 54.978 37.4552 54.978C39.4518 54.978 40.79 43.7213 40.79 43.7213C40.79 43.7213 47.1233 49.8971 49.4562 48.0794C51.7891 46.2617 48.2396 41.5672 46.5722 37.1805C46.5722 37.1805 51.9895 39.1985 53.3206 35.9281C54.6516 32.6577 49.1556 29.4875 47.1519 28.7719C47.1519 28.7719 51.8177 24.4137 48.8193 22.5961C45.8208 20.7784 39.1512 25.1365 39.1512 25.1365C39.1512 25.1365 39.8167 16.4202 35.1509 10.6094C35.1509 10.6094 32.1524 9.52161 31.8161 11.325C31.4797 13.1284 37.491 14.2805 36.8254 25.2081Z" fill="#368C46"/>
<path d="M3.02637 28.793L4.32165 84.1966C4.45761 85.8425 4.80827 107.039 5.2448 132.988C5.31636 137.06 6.0463 148.288 6.11786 152.539C6.20374 157.849 6.66889 180.92 7.06964 186.295C8.75136 208.357 9.68882 241.276 9.68882 241.276C9.81048 250.1 6.94799 252.01 6.70467 256.662C6.61164 258.48 7.29864 260.598 13.5031 261.55" stroke="black" stroke-linecap="round" stroke-linejoin="round"/>
<path d="M33.3686 45.4883C33.0108 54.4336 28.6598 120.572 26.6275 141.561C26.5058 142.806 21.7397 238.292 21.9759 244.611L22.0976 246.994C23.5288 250.336 24.4806 252.597 32.9536 257.012C34.6281 257.885 37.1257 259.159 42.3783 259.159C44.8544 259.159 45.5986 262.974 42.5 264.169" stroke="black" stroke-linecap="round" stroke-linejoin="round"/>
<path d="M3.02614 30.4034C0.385493 23.011 0.986617 10.9599 2.77568 3.80371" stroke="black" stroke-linecap="round" stroke-linejoin="round"/>
<path d="M79.5265 259.819C80.2421 258.209 77.4655 257.407 77.4655 257.407L76.4851 257.142L72.9069 255.89C67.003 253.564 61.1564 248.791 60.7413 245.513C60.4876 243.058 60.4086 240.588 60.5052 238.121C60.5052 235.974 64.4411 132.151 64.0833 125.353C63.7255 118.555 63.9616 96.8497 63.9616 96.8497C63.9616 96.8497 63.9616 40.3154 63.7827 33.6959C63.6038 27.0764 63.246 13.3006 61.9937 5.07094C61.9937 5.07094 62.1297 3.80429 58.4156 3.18169C50.9015 1.92935 26.9281 1.39264 21.2031 1.21373C15.4781 1.03482 11.1844 0.855917 6.89065 1.57154C4.3645 1.99376 3.36979 2.66645 2.80444 3.8186" stroke="black" stroke-linecap="round" stroke-linejoin="round"/>
<path d="M41.4193 44.0576C40.4676 59.0857 43.33 117.23 44.2818 153.491C44.7327 170.623 44.9974 187.182 46.7865 210.44C47.5021 219.886 48.8403 238.185 48.6972 239.065" stroke="black" stroke-linecap="round" stroke-linejoin="round"/>
<path d="M36.947 25.2081C36.947 25.2081 27.2789 21.5226 25.6974 24.4925C23.9441 27.7128 30.2202 29.7094 30.2202 29.7094C30.2202 29.7094 21.3035 30.6325 21.6327 34.2679C21.9619 37.9033 28.9678 37.4596 28.9678 37.4596C28.9678 37.4596 23.9585 42.9842 24.9675 46.2546C25.9765 49.525 33.7196 44.9593 33.7196 44.9593C33.7196 44.9593 35.6374 54.978 37.634 54.978C39.6306 54.978 40.9545 43.7141 40.9545 43.7141C40.9545 43.7141 47.2878 49.8899 49.6207 48.0723C51.9537 46.2546 48.3684 41.5672 46.6795 37.1805C46.6795 37.1805 52.0968 39.1985 53.4278 35.9281C54.7589 32.6577 49.2629 29.4875 47.2592 28.7719C47.2592 28.7719 51.925 24.4137 48.9266 22.5961C45.9281 20.7784 39.2585 25.1365 39.2585 25.1365C39.2585 25.1365 39.924 16.4202 35.2582 10.6094C35.2582 10.6094 32.2597 9.52161 31.9233 11.325C31.587 13.1284 37.6126 14.2805 36.947 25.2081Z" stroke="black" stroke-linecap="round" stroke-linejoin="round"/>
<path d="M38.4354 261.428C38.4354 261.428 42.8508 262.981 42.0135 264.648C41.4196 265.815 39.0222 265.364 39.0222 265.364" stroke="black" stroke-linecap="round" stroke-linejoin="round"/>
<path d="M35.7233 262.501C35.7233 262.501 39.4303 264.29 38.7146 265.363C37.999 266.437 36.718 266.437 35.5802 265.957" stroke="black" stroke-linecap="round" stroke-linejoin="round"/>
<path d="M30.0845 264.176C30.0845 264.176 32.2314 264.892 32.2314 266.323C32.2314 267.755 29.3689 267.397 28.2955 265.965C26.2933 265.972 24.2957 265.773 22.3343 265.371C19.3001 264.799 16.8455 262.509 12.795 261.436" stroke="black" stroke-linecap="round" stroke-linejoin="round"/>
<path d="M19.5935 151.222C22.0123 153.104 23.6225 151.938 24.2737 149.791" stroke="black" stroke-linecap="round" stroke-linejoin="round"/>
<path d="M32.5887 263.104C32.5887 263.104 35.7232 264.177 35.4512 265.73C35.3367 266.367 33.884 267.039 32.5887 266.803" stroke="black" stroke-linecap="round" stroke-linejoin="round"/>
<path d="M13.9825 253.299C13.6247 254.014 10.526 255.209 10.526 253.062" stroke="black" stroke-linecap="round" stroke-linejoin="round"/>
<path d="M48.6906 238.95C48.8123 247.774 45.9498 249.685 45.7065 254.336C45.6135 256.154 46.3005 258.272 52.5049 259.224" stroke="black" stroke-linecap="round" stroke-linejoin="round"/>
<path d="M70.045 263.217C70.045 263.217 67.6334 264.112 64.1411 262.594C60.2251 260.818 56.0634 259.643 51.7966 259.109" stroke="black" stroke-linecap="round" stroke-linejoin="round"/>
<path d="M61.8149 145.497C61.8149 145.497 61.4571 148.717 60.0258 148.717C58.5946 148.717 56.8055 146.928 56.8055 146.928" stroke="black" stroke-linecap="round" stroke-linejoin="round"/>
<path d="M70.0444 262.86C70.0444 262.86 71.8335 264.384 73.6226 264.47C76.3061 264.606 77.5585 263.038 77.2007 261.607C76.7498 259.804 74.3382 260.269 72.1913 259.103" stroke="black" stroke-linecap="round" stroke-linejoin="round"/>
<path d="M75.9489 258.565C77.2012 258.923 79.7059 258.923 79.7059 260.712C79.7059 262.501 78.0957 261.965 77.3801 262.322" stroke="black" stroke-linecap="round" stroke-linejoin="round"/>
<path d="M51.5242 251.503C51.5242 251.503 51.2594 252.312 49.914 252.219C49.1984 252.176 48.6617 251.596 48.4828 250.608" stroke="black" stroke-linecap="round" stroke-linejoin="round"/>
<path d="M27.823 42.6262C27.823 42.6262 35.337 34.2176 37.4839 30.8184" stroke="black" stroke-linecap="round" stroke-linejoin="round"/>
<path d="M26.9285 34.3959C26.9285 34.3959 35.6949 31.1756 37.4839 30.46" stroke="black" stroke-linecap="round" stroke-linejoin="round"/>
<path d="M46.0711 25.0938C46.0711 25.0938 39.2727 27.9562 37.4836 30.282" stroke="black" stroke-linecap="round" stroke-linejoin="round"/>
<path d="M49.4703 34.0389C49.4703 34.0389 42.3857 30.9116 37.4836 30.6396" stroke="black" stroke-linecap="round" stroke-linejoin="round"/>
<path d="M46.4289 43.699C46.4289 43.699 40.525 31.3545 37.4836 30.46" stroke="black" stroke-linecap="round" stroke-linejoin="round"/>
<path d="M31.4012 27.2393C31.4012 27.2393 36.7684 29.2072 37.663 29.7439" stroke="black" stroke-linecap="round" stroke-linejoin="round"/>
<path d="M38.0206 30.46C38.0206 30.46 38.0206 43.1623 37.8417 48.1716" stroke="black" stroke-linecap="round" stroke-linejoin="round"/>
</svg>
