<svg width="106" height="270" viewBox="0 0 106 307" fill="none" xmlns="http://www.w3.org/2000/svg">
<path d="M30.9694 248.66L26.5835 221.498L23.4709 197.872C23.4709 197.872 22.1976 187.545 22.1976 181.179C22.1976 174.812 23.33 166.182 24.1788 162.929C25.0276 159.675 27.4323 152.743 27.4323 152.743L21.4906 128.834L16.115 105.351L12.8606 87.6663L41.2962 83.2812L59.8294 86.5348L58.5561 97.7112L55.8671 116.668L52.8962 135.483C52.8962 135.483 53.4632 137.323 54.1703 140.577C54.8773 143.83 54.4529 149.489 53.8876 151.894C53.3214 154.299 51.6238 157.836 51.6238 157.836C51.6238 157.836 51.6238 171.134 51.6238 174.246C51.6238 177.359 51.623 187.119 50.2088 197.164L48.0868 220.649L46.5309 237.625C46.5309 237.625 46.1064 245.69 46.2482 247.529C46.3891 249.367 46.3891 260.261 46.3891 260.261L47.6623 274.974L49.0765 283.037C49.0765 283.037 49.9253 287.989 50.7741 289.404C51.623 290.818 54.0285 293.506 54.0285 293.506C54.0285 293.506 55.5852 294.355 56.4341 294.496C57.2829 294.638 60.2538 296.477 61.1026 297.043C61.9514 297.609 63.3656 299.023 63.2247 300.296C63.082 301.57 59.4041 301.286 58.4135 301.57C57.4238 301.853 51.3403 302.135 49.0765 301.57C46.8135 301.004 42.2867 300.863 40.7308 300.156C39.1741 299.448 35.3544 296.477 34.5056 295.204C33.6568 293.93 28.5638 286.857 28.5638 286.857C28.5638 286.857 25.1685 284.17 24.0362 281.906C22.9056 279.642 21.6323 276.955 22.1976 273.418C22.763 269.881 24.7441 267.051 25.5929 265.495C26.4418 263.939 27.2906 264.787 28.4229 261.251C29.5535 257.714 31.1103 250.64 30.9694 248.66Z" fill="#B490AA"/>
<path d="M63.6492 304.4C63.437 305.457 54.0287 306.098 52.8963 306.098C51.7657 306.098 40.3057 304.966 36.7687 304.117C33.2325 303.268 24.6025 299.59 24.0364 298.458C23.471 297.327 21.7734 289.405 21.6325 287.707C21.4899 286.009 20.9246 280.775 20.9246 279.077C20.9246 277.379 21.349 274.55 24.7443 273.701C28.1396 272.852 55.5854 296.195 55.5854 296.195L63.0822 299.307L63.6492 301.429C63.6492 301.429 63.7901 303.692 63.6492 304.4Z" fill="#B490AA"/>
<path d="M58.9806 267.052C59.3524 265.191 62.0924 261.394 63.3657 258.988C64.6389 256.583 66.3365 251.49 66.3365 248.519C66.3365 245.548 65.4877 237.908 64.6389 233.947C63.7901 229.986 60.9609 207.634 60.9609 207.634C60.9609 207.634 58.4136 191.789 57.8483 187.545C57.283 183.301 56.716 174.814 56.9995 171.984C57.283 169.154 59.8295 158.967 60.8192 157.129C61.8089 155.29 63.3657 150.904 63.3657 150.904L60.5357 133.079L58.5562 117.658L57.1404 107.756L58.6971 96.4377L59.8295 86.5353C59.8295 86.5353 64.6389 81.4424 71.146 81.4424C77.6548 81.4424 99.5816 85.1203 99.5816 85.1203L95.0556 111.717L91.0933 131.239L89.3957 139.303C89.3957 139.303 89.8201 144.537 89.6792 146.518C89.5383 148.499 88.265 154.582 86.5674 158.119L86.2839 170.851L85.4351 190.092L83.313 206.926C83.313 206.926 82.3224 218.668 82.0398 223.761C81.7571 228.854 81.1909 235.22 81.4744 237.484C81.7571 239.748 82.1807 251.207 82.4642 254.036C82.7477 256.865 83.5965 262.241 84.4453 267.051C85.2941 271.861 87.4162 281.481 87.4162 281.481C87.4162 281.481 88.8304 287.139 89.6792 288.272C89.6792 288.272 90.528 288.98 92.0847 289.828C93.6406 290.677 99.7233 294.78 99.8651 296.053C100.007 297.326 97.0351 298.883 91.8012 298.317C86.5674 297.751 82.0398 297.609 78.3618 296.336C74.6839 295.062 71.713 290.535 70.4397 288.696C69.1665 286.858 65.3468 282.472 65.3468 282.472L60.6783 277.521C60.6783 277.521 58.2727 274.832 58.1318 272.71C57.9901 270.588 58.6971 268.467 58.9806 267.052Z" fill="#B490AA"/>
<path d="M60.9611 295.346C59.4052 292.235 59.2626 289.264 58.6972 287.283C58.1319 285.302 57.424 278.087 57.424 278.087C57.424 278.087 55.5854 272.853 59.4052 272.004C63.2249 271.155 72.5619 275.399 72.5619 275.399L89.2549 294.922C89.2549 294.922 99.7234 294.922 99.8652 296.054C100.007 297.185 100.714 300.864 100.29 301.146C99.8652 301.429 96.0454 303.128 89.5384 302.986C83.0304 302.844 78.5028 300.722 77.3714 300.298C76.2399 299.873 71.1461 298.034 69.3075 297.751C67.469 297.469 61.2437 295.913 60.9611 295.346Z" fill="#B490AA"/>
<path d="M10.0306 18.4875C10.0306 18.4875 14.6991 12.6866 16.2558 11.2725C17.8126 9.85836 21.0653 7.4528 21.0653 7.4528L24.1787 4.62367C24.1787 4.62367 24.4606 2.35986 28.7047 1.51104C32.9488 0.662215 40.8717 0.80312 47.2379 0.662215C53.604 0.521311 72.2782 1.93545 72.2782 1.93545C72.2782 1.93545 86.9908 2.92602 88.1223 2.92602C89.2546 2.92602 93.2152 3.63393 94.0641 4.341C94.9129 5.04807 96.0452 9.43394 96.0452 9.43394L100.855 23.5804C100.855 23.5804 103.685 35.8884 104.674 40.9813C105.666 46.0742 103.685 57.816 103.685 57.816L99.5814 85.1201C99.5814 85.1201 95.4799 87.2422 93.4987 87.2422C91.5176 87.2422 79.9176 88.9398 76.8058 88.9398C73.6923 88.9398 65.3467 87.6666 65.3467 87.6666L59.8293 86.5351L59.6867 87.9501C59.6867 87.9501 53.7458 89.9312 50.4923 90.4965C47.2379 91.0619 38.8906 92.0516 31.6756 91.0619C24.4606 90.0721 18.3779 89.5068 17.2456 89.2233C16.1149 88.9398 12.8605 87.6666 12.8605 87.6666L8.19202 61.3531C8.19202 61.3531 3.09909 56.6854 1.96676 51.3089C0.836129 45.9325 0.552622 39.001 2.81558 32.9175C5.08024 26.834 10.0306 18.4875 10.0306 18.4875Z" fill="#FDDBD1"/>
<path d="M51.3412 17.0733C51.3412 17.0733 57.2822 21.8844 61.8089 23.2986C66.3366 24.7127 71.5704 26.2686 75.8145 25.5615C80.0586 24.8545 84.8689 21.0356 86.0004 19.4789C87.1327 17.9221 91.3768 11.2733 91.3768 11.2733L94.0642 4.3418L95.0556 6.18036L96.0454 9.43474C96.0454 9.43474 92.6501 18.771 91.6603 21.0348C90.6689 23.2986 86.9918 29.9474 85.4351 32.0695C83.8783 34.1915 79.2098 40.5585 77.3713 42.1144C75.5327 43.6703 72.8436 46.2168 68.5995 48.3388C64.3554 50.4609 63.2248 50.7436 63.2248 50.7436C63.2248 50.7436 63.3657 46.7821 60.8192 42.2553C58.2727 37.7286 53.4625 30.2301 50.7742 27.4009C48.0869 24.5718 40.1639 16.5088 36.6277 14.5277C33.0915 12.5465 26.7254 9.15124 26.7254 9.15124L21.0654 7.4536L24.1789 4.62446C24.1789 4.62446 30.5451 5.75594 33.0915 6.74652C35.638 7.7371 41.1545 10.2836 42.5695 11.1324C43.9845 11.9812 51.3412 17.0733 51.3412 17.0733Z" fill="#E823B0"/>
<path d="M58.8914 92.0864C58.8914 92.0864 51.5882 95.4062 40.3013 95.4062C29.6732 95.4062 16.0675 93.414 13.7434 91.4226L13.0312 87.333C15.3918 89.3566 29.2124 91.3802 40.0077 91.3802C51.4736 91.3802 59.5467 87.8101 59.5467 87.8101L58.8914 92.0864Z" fill="#190521"/>
<path d="M16.6505 108.33C16.6505 108.33 19.6877 110.171 25.6277 110.449C29.2853 110.621 36.1489 110.167 35.323 106.917C34.9631 105.504 32.4336 104.713 28.5002 105.504C25.5021 106.106 18.8057 105.504 16.2915 104.091L16.6505 108.33Z" fill="#190521"/>
<path d="M18.7643 117.121C18.7643 117.121 20.7769 118.112 26.3596 118.374C29.7973 118.536 36.2459 118.109 35.4701 115.055C35.1339 113.727 32.7547 112.984 29.0589 113.727C26.2417 114.293 19.9484 113.727 17.5845 112.399L18.7643 117.121Z" fill="#190521"/>
<path d="M20.2877 124.095C20.2877 124.095 22.6229 125.628 27.6606 125.864C30.7622 126.01 36.5835 125.625 35.8832 122.869C35.5793 121.67 33.4335 121 30.0968 121.67C27.5554 122.181 21.875 121.67 19.7437 120.472L20.2877 124.095Z" fill="#190521"/>
<path d="M98.592 89.9313C94.5847 91.6324 82.9363 92.8971 75.9157 92.8971C65.566 92.8971 59.5554 90.8557 59.5554 90.8557L59.9798 86.3952C59.9798 86.3952 66.1593 88.8151 76.8044 88.8151C84.0253 88.8151 95.3486 87.2015 99.4688 85.1855L98.592 89.9313Z" fill="#190521"/>
<path d="M89.4237 139.509C89.4237 139.509 96.2134 106.502 98.8694 90.2349C101.525 73.968 104.844 55.0452 104.844 43.7584C104.844 32.4716 96.356 9.85049 96.356 9.85049L94.7195 5.51214C94.7195 5.51214 94.8824 4.01229 90.4414 3.27211C81.5287 1.78667 53.0932 1.15006 46.3026 0.937849C39.512 0.725644 34.4191 0.513438 29.3261 1.36226C26.3298 1.86222 25.1499 2.65839 24.4794 4.0267L19.9619 8.2233" stroke="black" stroke-miterlimit="10" stroke-linecap="round" stroke-linejoin="round"/>
<path d="M27.827 152.978C26.4995 148.994 18.8635 118.784 17.2032 110.485C15.5437 102.186 8.23964 61.3522 8.23964 61.3522C8.23964 61.3522 -0.15612 54.4147 1.07552 41.0432C2.2104 28.7047 11.6858 16.6396 11.6858 16.6396C11.6858 16.6396 19.3252 7.0903 22.0839 7.51472C22.0839 7.51472 30.4831 9.56381 39.7777 16.8679C49.0732 24.1712 62.684 40.438 63.3486 49.4007C64.0132 58.3635 55.3807 122.435 53.0574 135.714" stroke="black" stroke-miterlimit="10" stroke-linecap="round" stroke-linejoin="round"/>
<path d="M36.5141 153.655C35.8503 143.032 39.4561 132.151 48.0869 132.151C54.0627 132.151 54.8775 141.488 54.3122 148.562C53.6883 156.363 50.7327 160.613 46.7492 161.277C42.7665 161.941 40.192 160.446 40.192 160.446C40.192 160.446 36.7967 158.183 36.5141 153.655Z" stroke="black" stroke-miterlimit="10" stroke-linecap="round" stroke-linejoin="round"/>
<path d="M27.884 152.807C28.3084 154.504 34.1416 155.403 36.7967 155.07" stroke="black" stroke-miterlimit="10" stroke-linecap="round" stroke-linejoin="round"/>
<path d="M59.0321 92.2272C59.0321 92.2272 51.7288 95.547 40.442 95.547C29.8139 95.547 16.2081 93.5548 13.884 91.5635" stroke="black" stroke-miterlimit="10" stroke-linecap="round" stroke-linejoin="round"/>
<path d="M59.0326 88.1475C59.0326 88.1475 51.6147 91.5198 40.1488 91.5198C29.3526 91.5198 15.5329 89.4963 13.1724 87.4727" stroke="black" stroke-miterlimit="10" stroke-linecap="round" stroke-linejoin="round"/>
<path d="M16.8922 108.366C16.8922 108.366 19.8801 110.207 25.7234 110.486C29.3215 110.657 36.0731 110.203 35.2607 106.953C34.9076 105.54 32.4172 104.749 28.5491 105.54C25.5994 106.142 19.0117 105.54 16.5391 104.127" stroke="black" stroke-miterlimit="10" stroke-linecap="round" stroke-linejoin="round"/>
<path d="M18.9714 117.157C18.9714 117.157 20.9517 118.147 26.4445 118.409C29.8253 118.571 36.1711 118.144 35.408 115.09C35.0761 113.762 32.7376 113.019 29.1004 113.762C26.3281 114.328 20.1368 113.762 17.8127 112.435" stroke="black" stroke-miterlimit="10" stroke-linecap="round" stroke-linejoin="round"/>
<path d="M20.2351 124.102C20.2351 124.102 22.7679 125.663 27.7242 125.899C30.7757 126.045 36.5019 125.66 35.8127 122.904C35.5131 121.705 33.402 121.036 30.1204 121.705C27.6198 122.216 22.032 121.705 19.9346 120.507" stroke="black" stroke-miterlimit="10" stroke-linecap="round" stroke-linejoin="round"/>
<path d="M49.7377 141.691C49.7377 141.691 50.0688 149.327 48.7412 152.646" stroke="black" stroke-miterlimit="10" stroke-linecap="round" stroke-linejoin="round"/>
<path d="M51.729 157.959C51.729 157.959 52.0609 178.209 51.3963 184.517C50.7317 190.825 46.4171 236.636 46.0843 245.933C45.7516 255.227 48.0765 283.778 50.7324 289.089C53.3884 294.401 56.6029 294.562 56.6029 294.562" stroke="black" stroke-miterlimit="10" stroke-linecap="round" stroke-linejoin="round"/>
<path d="M56.677 294.645C56.677 294.645 63.3165 297.301 63.3165 299.957C63.3165 302.613 46.0845 302.034 40.7735 300.043C35.4615 298.051 28.3076 286.638 28.3076 286.638" stroke="black" stroke-miterlimit="10" stroke-linecap="round" stroke-linejoin="round"/>
<path d="M27.8271 152.646C27.8271 152.646 20.192 167.254 22.5144 190.824C24.2766 208.693 30.4831 243.608 30.8141 248.919C31.1469 254.231 28.4273 262.393 27.4316 263.72C26.4359 265.048 21.7241 268.681 22.0568 275.321C22.3887 281.96 28.423 286.78 28.423 286.78" stroke="black" stroke-miterlimit="10" stroke-linecap="round" stroke-linejoin="round"/>
<path d="M63.3172 299.958C63.3172 299.958 64.3137 303.609 63.6499 304.606C62.9862 305.601 53.7739 306.162 48.6809 306.02C45.0166 305.918 39.0689 304.782 35.9206 303.898C30.1172 302.266 26.3018 299.937 24.5082 298.717C22.4184 297.294 20.9253 279.848 20.9253 279.848C20.9253 279.848 20.9253 275.887 22.0576 275.321" stroke="black" stroke-miterlimit="10" stroke-linecap="round" stroke-linejoin="round"/>
<path d="M52.6415 292.438C52.6415 292.438 47.2829 292.818 44.295 292.154C41.3063 291.491 37.7855 283.776 37.4536 277.136C37.1208 270.498 38.1725 263.873 36.2024 256.079C34.4852 249.282 30.8132 248.918 30.8132 248.918" stroke="black" stroke-miterlimit="10" stroke-linecap="round" stroke-linejoin="round"/>
<path d="M90.555 288.902C90.555 288.902 99.8428 293.906 99.8428 296.561C99.8428 299.217 84.4723 298.805 77.6817 296.117C74.9748 295.046 70.8249 288.818 68.3446 285.649C66.1284 282.816 63.9588 281.405 60.2808 277.019C57.4398 273.633 58.3005 272.35 58.3005 272.35" stroke="black" stroke-miterlimit="10" stroke-linecap="round" stroke-linejoin="round"/>
<path d="M99.8437 296.561C99.8437 296.561 100.84 300.213 100.176 301.209C99.5127 302.205 93.8104 303.543 85.2075 302.623C81.5618 302.234 75.1005 299.335 71.9531 298.45C66.1488 296.819 62.8283 296.541 61.0347 295.32C58.9449 293.897 57.4527 276.452 57.4527 276.452C57.4527 276.452 56.8865 273.198 58.018 272.632" stroke="black" stroke-miterlimit="10" stroke-linecap="round" stroke-linejoin="round"/>
<path d="M90.1307 288.901C90.1307 288.901 85.8594 290.174 81.9259 288.619C79.079 287.493 75.4672 281.111 75.1353 274.471C74.8026 267.833 74.8408 262.317 72.8715 254.524C71.1544 247.727 66.5054 247.025 66.5054 247.025" stroke="black" stroke-miterlimit="10" stroke-linecap="round" stroke-linejoin="round"/>
<path d="M57.1685 107.96C57.1685 107.96 59.2846 123.907 60.2811 130.878C61.2768 137.85 63.3479 148.995 63.3479 150.654C63.3479 152.314 71.3158 153.939 74.4284 152.807" stroke="black" stroke-miterlimit="10" stroke-linecap="round" stroke-linejoin="round"/>
<path d="M74.2866 151.816C74.2866 151.816 75.7017 162.568 84.3028 159.88C87.0114 159.034 89.4237 152.24 89.5731 144.015C89.6529 139.686 88.5783 134.388 84.5948 133.391C80.6112 132.396 76.2958 138.371 75.2993 142.355C74.3036 146.339 74.3036 150.654 74.3036 150.654" stroke="black" stroke-miterlimit="10" stroke-linecap="round" stroke-linejoin="round"/>
<path d="M85.11 140.547C85.11 140.547 85.11 146.523 83.7825 153.162" stroke="black" stroke-miterlimit="10" stroke-linecap="round" stroke-linejoin="round"/>
<path d="M63.2517 151.25C63.2517 151.25 57.3719 163.601 57.0409 173.56C56.7081 183.519 60.3599 201.778 61.3564 210.078C62.3521 218.377 66.2159 242.947 66.3347 245.267C66.6471 251.27 64.7134 257.282 63.5344 259.051C60.9879 262.87 57.4823 268.455 58.1588 272.49" stroke="black" stroke-miterlimit="10" stroke-linecap="round" stroke-linejoin="round"/>
<path d="M86.3118 158.323C86.3118 158.323 86.3118 173.178 85.2576 188.167C84.649 196.834 81.2749 226.013 81.2749 232.984C81.2749 239.955 82.6025 258.214 83.9309 264.853C85.2576 271.493 87.9144 286.432 90.2385 288.755" stroke="black" stroke-miterlimit="10" stroke-linecap="round" stroke-linejoin="round"/>
<path d="M59.6963 90.9958C59.6963 90.9958 65.7068 93.0373 76.0565 93.0373C83.0772 93.0373 94.0863 91.6758 98.0936 89.9756" stroke="black" stroke-miterlimit="10" stroke-linecap="round" stroke-linejoin="round"/>
<path d="M60.1206 86.5357C60.1206 86.5357 66.3001 88.9557 76.9452 88.9557C84.1661 88.9557 95.4893 87.3421 99.6095 85.3262" stroke="black" stroke-miterlimit="10" stroke-linecap="round" stroke-linejoin="round"/>
<path d="M63.8181 50.5236C63.8181 50.5236 69.6555 49.0704 75.6312 43.7584C80.1045 39.7826 84.6737 33.6617 88.9102 26.1632C93.8096 17.4891 95.8816 9.56445 95.8816 9.56445" stroke="black" stroke-miterlimit="10" stroke-linecap="round" stroke-linejoin="round"/>
<path d="M93.5583 4.58564C93.5583 4.58564 92.7494 10.2745 86.9189 18.5284C83.8911 22.815 79.1096 25.7655 72.802 25.7655C66.4944 25.7655 57.373 22.5119 50.0688 16.2043C44.8902 11.7302 30.8957 4.54492 23.9243 4.54492" stroke="black" stroke-miterlimit="10" stroke-linecap="round" stroke-linejoin="round"/>
</svg>
