<svg width="804" height="286" viewBox="0 0 804 286" fill="none" xmlns="http://www.w3.org/2000/svg">
<path d="M801.333 158.944V34.1944C801.333 34.1944 801.333 32.1944 798.333 31.1944C795.333 30.1944 733.833 1.69444 733.833 1.69444C733.833 1.69444 730.833 0.694444 728.333 1.69444C725.833 2.69444 693.833 18.1944 693.833 18.1944C693.833 18.1944 691.333 20.1944 691.833 23.6944C692.333 27.1944 692.583 136.944 692.583 139.944C692.583 142.944 692.833 145.694 695.583 147.444C698.625 149.38 759.445 179.687 760.833 180.444C763.583 181.944 765.333 181.944 767.833 180.694C769.247 179.987 797.333 165.194 799.333 163.694C801.333 162.194 801.583 160.944 801.333 158.944Z" fill="#3A3A3D"/>
<path d="M704.083 22.4445C707.833 20.1945 712.333 17.9445 715.333 16.6945C718.333 15.4445 722.833 15.4445 725.583 16.9445C728.333 18.4445 761.083 34.6945 763.583 35.9445C766.083 37.1945 770.321 39.9555 767.333 42.4445C764.333 44.9445 760.753 46.4545 758.583 47.6945C755.083 49.6945 754.083 54.4445 754.333 57.1945C754.583 59.9445 754.583 152.194 754.583 154.944C754.583 158.694 752.083 161.444 749.333 159.944C747.618 159.009 707.333 140.444 705.583 139.444C703.833 138.444 701.083 137.194 701.083 130.194C701.083 121.928 700.333 37.1945 700.333 33.1945C700.333 27.1945 701.687 23.8825 704.083 22.4445Z" fill="#62925C"/>
<path d="M693.583 145.194C693.583 145.194 688.833 147.694 687.833 150.694C686.833 153.694 673.427 191.976 672.333 194.944C670.583 199.694 670.583 204.944 670.583 208.694C670.583 212.444 670.583 240.444 670.583 244.444C670.583 247.694 673.833 250.694 675.583 251.444C677.333 252.194 743.333 282.944 747.083 284.444C750.197 285.69 755.333 285.944 757.583 284.694C759.833 283.444 794.833 266.194 799.333 263.444C801.241 262.278 802.833 259.694 802.833 255.944C802.833 252.194 802.833 173.444 802.833 170.444C802.833 166.694 801.333 164.444 799.833 163.694L779.833 161.694L754.833 169.944L697.833 144.694L693.583 145.194Z" fill="#3A3A3D"/>
<path d="M729.333 256.444L688.083 236.694L688.333 241.444L729.333 261.444V256.444Z" fill="#62925C"/>
<path d="M739.583 134.444L713.583 121.944L713.833 126.694L739.583 139.444V134.444Z" fill="#3A3A3D"/>
<path d="M725.826 208.734C734.731 203.724 738.164 192.932 733.493 184.628C728.822 176.324 717.816 173.654 708.91 178.664C700.005 183.673 696.572 194.466 701.244 202.769C705.915 211.073 716.92 213.743 725.826 208.734Z" fill="#5D6F5B"/>
<path d="M745.06 225.758C748.4 223.698 749.55 219.504 747.629 216.39C745.708 213.276 741.443 212.421 738.104 214.481C734.764 216.541 733.614 220.736 735.535 223.85C737.456 226.964 741.72 227.819 745.06 225.758Z" fill="#62925C"/>
<path d="M687.875 203.481C691.354 201.667 692.804 197.566 691.112 194.322C689.421 191.078 685.229 189.918 681.749 191.732C678.27 193.546 676.821 197.647 678.512 200.891C680.204 204.136 684.396 205.295 687.875 203.481Z" fill="#62925C"/>
<path d="M801.583 158.694V33.9444C801.583 33.9444 801.583 31.9444 798.583 30.9444C795.583 29.9444 734.083 1.44444 734.083 1.44444C734.083 1.44444 731.083 0.444444 728.583 1.44444C726.083 2.44444 694.083 17.9444 694.083 17.9444C694.083 17.9444 691.583 19.9444 692.083 23.4444C692.583 26.9444 692.833 136.694 692.833 139.694C692.833 142.694 693.083 145.444 695.833 147.194C698.875 149.13 759.695 179.437 761.083 180.194C763.833 181.694 765.583 181.694 768.083 180.444C769.497 179.737 797.583 164.944 799.583 163.444C801.583 161.944 801.833 160.694 801.583 158.694Z" stroke="black" stroke-miterlimit="10" stroke-linecap="round" stroke-linejoin="round"/>
<path d="M693.333 144.944C693.333 144.944 688.583 147.444 687.583 150.444C686.583 153.444 673.177 191.726 672.083 194.694C670.333 199.444 670.333 204.694 670.333 208.444C670.333 212.194 670.333 240.194 670.333 244.194C670.333 247.444 673.583 250.444 675.333 251.194C677.083 251.944 743.083 282.694 746.833 284.194C749.947 285.44 755.083 285.694 757.333 284.444C759.583 283.194 794.583 265.944 799.083 263.194C800.991 262.028 802.583 259.444 802.583 255.694C802.583 251.944 802.583 173.194 802.583 170.194C802.583 166.444 801.083 164.194 799.583 163.444" stroke="black" stroke-miterlimit="10" stroke-linecap="round" stroke-linejoin="round"/>
<path d="M729.333 256.444L688.083 236.694L688.333 241.444L729.333 261.444V256.444Z" stroke="black" stroke-miterlimit="10" stroke-linecap="round" stroke-linejoin="round"/>
<path d="M739.833 134.694L713.833 122.194L714.083 126.944L739.833 139.694V134.694Z" stroke="black" stroke-miterlimit="10" stroke-linecap="round" stroke-linejoin="round"/>
<path d="M752.083 279.194C752.083 279.194 752.083 252.944 752.083 248.944C752.083 244.944 752.583 238.944 754.083 234.694C755.215 231.488 765.333 187.694 765.333 187.694" stroke="black" stroke-miterlimit="10" stroke-linecap="round" stroke-linejoin="round"/>
<path d="M745.833 239.694L674.833 206.944" stroke="black" stroke-miterlimit="10" stroke-linecap="round" stroke-linejoin="round"/>
<path d="M704.083 22.4445C707.833 20.1945 712.333 17.9445 715.333 16.6945C718.333 15.4445 722.833 15.4445 725.583 16.9445C728.333 18.4445 761.083 34.6945 763.583 35.9445C766.083 37.1945 770.321 39.9555 767.333 42.4445C764.333 44.9445 760.753 46.4545 758.583 47.6945C755.083 49.6945 754.083 54.4445 754.333 57.1945C754.583 59.9445 754.583 152.194 754.583 154.944C754.583 158.694 752.083 161.444 749.333 159.944C747.618 159.009 707.333 140.444 705.583 139.444C703.833 138.444 701.083 137.194 701.083 130.194C701.083 121.928 700.333 37.1945 700.333 33.1945C700.333 27.1945 701.687 23.8825 704.083 22.4445Z" stroke="black" stroke-miterlimit="10" stroke-linecap="round" stroke-linejoin="round"/>
<path d="M725.826 208.734C734.731 203.724 738.164 192.932 733.493 184.628C728.822 176.324 717.816 173.654 708.91 178.664C700.005 183.673 696.572 194.466 701.244 202.769C705.915 211.073 716.92 213.743 725.826 208.734Z" stroke="black" stroke-miterlimit="10" stroke-linecap="round" stroke-linejoin="round"/>
<path d="M745.06 225.758C748.4 223.698 749.55 219.504 747.629 216.39C745.708 213.276 741.443 212.421 738.104 214.481C734.764 216.541 733.614 220.736 735.535 223.85C737.456 226.964 741.72 227.819 745.06 225.758Z" stroke="black" stroke-miterlimit="10" stroke-linecap="round" stroke-linejoin="round"/>
<path d="M687.875 203.481C691.354 201.667 692.804 197.566 691.112 194.322C689.421 191.078 685.229 189.918 681.749 191.732C678.27 193.546 676.821 197.647 678.512 200.891C680.204 204.136 684.396 205.295 687.875 203.481Z" stroke="black" stroke-miterlimit="10" stroke-linecap="round" stroke-linejoin="round"/>
<path d="M714.002 53.9404L736.038 61.6264L739.282 92.4234L728.511 88.8774L728.419 106.526L711.429 79.3114L722.379 83.3354L714.002 53.9404Z" fill="#E8A22E"/>
<path d="M714.252 54.1904L736.288 61.8764L739.532 92.6734L728.761 89.1274L728.669 106.776L711.679 79.5614L722.629 83.5854L714.252 54.1904Z" stroke="black" stroke-miterlimit="10" stroke-linecap="round" stroke-linejoin="round"/>
<path d="M728.083 179.194C728.083 179.194 706.833 192.194 700.583 201.944" stroke="black" stroke-miterlimit="10" stroke-linecap="round" stroke-linejoin="round"/>
<path d="M733.833 185.444C733.833 185.444 714.583 198.444 706.583 207.944" stroke="black" stroke-miterlimit="10" stroke-linecap="round" stroke-linejoin="round"/>
<path d="M714.333 176.694C714.333 176.694 728.833 194.444 732.583 202.444" stroke="black" stroke-miterlimit="10" stroke-linecap="round" stroke-linejoin="round"/>
<path d="M723.583 209.694C723.583 209.694 711.583 189.944 704.583 182.194" stroke="black" stroke-miterlimit="10" stroke-linecap="round" stroke-linejoin="round"/>
<path d="M667.746 158.944V34.1944C667.746 34.1944 667.746 32.1944 664.746 31.1944C661.746 30.1944 600.246 1.69441 600.246 1.69441C600.246 1.69441 597.246 0.694414 594.746 1.69441C592.246 2.69441 560.246 18.1944 560.246 18.1944C560.246 18.1944 557.746 20.1944 558.246 23.6944C558.746 27.1944 558.996 136.944 558.996 139.944C558.996 142.944 559.246 145.694 561.996 147.444C565.038 149.38 625.858 179.687 627.246 180.444C629.996 181.944 631.746 181.944 634.246 180.694C635.66 179.987 663.746 165.194 665.746 163.694C667.746 162.194 667.996 160.944 667.746 158.944Z" fill="#3A3A3D"/>
<path d="M570.496 22.4444C574.246 20.1944 578.746 17.9444 581.746 16.6944C584.746 15.4444 589.246 15.4444 591.996 16.9444C594.746 18.4444 627.496 34.6944 629.996 35.9444C632.496 37.1944 636.734 39.9554 633.746 42.4444C630.746 44.9444 627.166 46.4544 624.996 47.6944C621.496 49.6944 620.496 54.4444 620.746 57.1944C620.996 59.9444 620.996 152.194 620.996 154.944C620.996 158.694 618.496 161.444 615.746 159.944C614.032 159.009 573.746 140.444 571.996 139.444C570.246 138.444 567.496 137.194 567.496 130.194C567.496 121.928 566.746 37.1944 566.746 33.1944C566.746 27.1944 568.099 23.8834 570.496 22.4444Z" fill="#5D6F5B"/>
<path d="M559.996 145.194C559.996 145.194 555.246 147.694 554.246 150.694C553.246 153.694 539.839 191.976 538.746 194.944C536.996 199.694 536.996 204.944 536.996 208.694C536.996 212.444 536.996 240.444 536.996 244.444C536.996 247.694 540.246 250.694 541.996 251.444C543.746 252.194 609.746 282.944 613.496 284.444C616.61 285.69 621.746 285.944 623.996 284.694C626.246 283.444 661.246 266.194 665.746 263.444C667.654 262.278 669.246 259.694 669.246 255.944C669.246 252.194 669.246 173.444 669.246 170.444C669.246 166.694 667.746 164.444 666.246 163.694L646.246 161.694L621.246 169.944L564.246 144.694L559.996 145.194Z" fill="#3A3A3D"/>
<path d="M595.746 256.444L554.496 236.694L554.746 241.444L595.746 261.444V256.444Z" fill="#5D6F5B"/>
<path d="M605.996 134.444L579.996 121.944L580.246 126.694L605.996 139.444V134.444Z" fill="#3A3A3D"/>
<path d="M592.209 208.736C601.114 203.726 604.547 192.934 599.876 184.63C595.205 176.327 584.199 173.656 575.293 178.666C566.388 183.675 562.955 194.468 567.626 202.771C572.297 211.075 583.303 213.745 592.209 208.736Z" fill="#5D6F5B"/>
<path d="M611.466 225.717C614.805 223.657 615.956 219.463 614.035 216.349C612.114 213.235 607.849 212.38 604.509 214.44C601.17 216.5 600.02 220.695 601.941 223.809C603.861 226.923 608.126 227.778 611.466 225.717Z" fill="#5D6F5B"/>
<path d="M554.317 203.445C557.796 201.631 559.245 197.53 557.553 194.285C555.861 191.041 551.669 189.882 548.19 191.696C544.711 193.511 543.261 197.612 544.953 200.856C546.645 204.1 550.837 205.26 554.317 203.445Z" fill="#5D6F5B"/>
<path d="M580.415 53.9404L602.451 61.6264L605.695 92.4244L594.924 88.8774L594.832 106.526L577.842 79.3124L588.792 83.3354L580.415 53.9404Z" fill="#7B633B"/>
<path d="M667.996 158.694V33.9444C667.996 33.9444 667.996 31.9444 664.996 30.9444C661.996 29.9444 600.496 1.44441 600.496 1.44441C600.496 1.44441 597.496 0.444414 594.996 1.44441C592.496 2.44441 560.496 17.9444 560.496 17.9444C560.496 17.9444 557.996 19.9444 558.496 23.4444C558.996 26.9444 559.246 136.694 559.246 139.694C559.246 142.694 559.496 145.444 562.246 147.194C565.288 149.13 626.108 179.437 627.496 180.194C630.246 181.694 631.996 181.694 634.496 180.444C635.91 179.737 663.996 164.944 665.996 163.444C667.996 161.944 668.246 160.694 667.996 158.694Z" stroke="black" stroke-miterlimit="10" stroke-linecap="round" stroke-linejoin="round"/>
<path d="M559.746 144.944C559.746 144.944 554.996 147.444 553.996 150.444C552.996 153.444 539.589 191.726 538.496 194.694C536.746 199.444 536.746 204.694 536.746 208.444C536.746 212.194 536.746 240.194 536.746 244.194C536.746 247.444 539.996 250.444 541.746 251.194C543.496 251.944 609.496 282.694 613.246 284.194C616.36 285.44 621.496 285.694 623.746 284.444C625.996 283.194 660.996 265.944 665.496 263.194C667.404 262.028 668.996 259.444 668.996 255.694C668.996 251.944 668.996 173.194 668.996 170.194C668.996 166.444 667.496 164.194 665.996 163.444" stroke="black" stroke-miterlimit="10" stroke-linecap="round" stroke-linejoin="round"/>
<path d="M595.746 256.444L554.496 236.694L554.746 241.444L595.746 261.444V256.444Z" stroke="black" stroke-miterlimit="10" stroke-linecap="round" stroke-linejoin="round"/>
<path d="M606.246 134.694L580.246 122.194L580.496 126.944L606.246 139.694V134.694Z" stroke="black" stroke-miterlimit="10" stroke-linecap="round" stroke-linejoin="round"/>
<path d="M618.496 279.194C618.496 279.194 618.496 252.944 618.496 248.944C618.496 244.944 618.996 238.944 620.496 234.694C621.628 231.488 631.746 187.694 631.746 187.694" stroke="black" stroke-miterlimit="10" stroke-linecap="round" stroke-linejoin="round"/>
<path d="M612.246 239.694L541.246 206.944" stroke="black" stroke-miterlimit="10" stroke-linecap="round" stroke-linejoin="round"/>
<path d="M570.496 22.4444C574.246 20.1944 578.746 17.9444 581.746 16.6944C584.746 15.4444 589.246 15.4444 591.996 16.9444C594.746 18.4444 627.496 34.6944 629.996 35.9444C632.496 37.1944 636.734 39.9554 633.746 42.4444C630.746 44.9444 627.166 46.4544 624.996 47.6944C621.496 49.6944 620.496 54.4444 620.746 57.1944C620.996 59.9444 620.996 152.194 620.996 154.944C620.996 158.694 618.496 161.444 615.746 159.944C614.032 159.009 573.746 140.444 571.996 139.444C570.246 138.444 567.496 137.194 567.496 130.194C567.496 121.928 566.746 37.1944 566.746 33.1944C566.746 27.1944 568.099 23.8834 570.496 22.4444Z" stroke="black" stroke-miterlimit="10" stroke-linecap="round" stroke-linejoin="round"/>
<path d="M592.209 208.736C601.114 203.726 604.547 192.934 599.876 184.63C595.205 176.327 584.199 173.656 575.293 178.666C566.388 183.675 562.955 194.468 567.626 202.771C572.297 211.075 583.303 213.745 592.209 208.736Z" stroke="black" stroke-miterlimit="10" stroke-linecap="round" stroke-linejoin="round"/>
<path d="M611.466 225.717C614.805 223.657 615.956 219.463 614.035 216.349C612.114 213.235 607.849 212.38 604.509 214.44C601.17 216.5 600.02 220.695 601.941 223.809C603.861 226.923 608.126 227.778 611.466 225.717Z" stroke="black" stroke-miterlimit="10" stroke-linecap="round" stroke-linejoin="round"/>
<path d="M554.317 203.445C557.796 201.631 559.245 197.53 557.553 194.285C555.861 191.041 551.669 189.882 548.19 191.696C544.711 193.511 543.261 197.612 544.953 200.856C546.645 204.1 550.837 205.26 554.317 203.445Z" stroke="black" stroke-miterlimit="10" stroke-linecap="round" stroke-linejoin="round"/>
<path d="M580.665 54.1904L602.701 61.8764L605.945 92.6744L595.174 89.1274L595.082 106.776L578.092 79.5624L589.042 83.5854L580.665 54.1904Z" stroke="black" stroke-miterlimit="10" stroke-linecap="round" stroke-linejoin="round"/>
<path d="M594.496 179.194C594.496 179.194 573.246 192.194 566.996 201.944" stroke="black" stroke-miterlimit="10" stroke-linecap="round" stroke-linejoin="round"/>
<path d="M600.246 185.444C600.246 185.444 580.996 198.444 572.996 207.944" stroke="black" stroke-miterlimit="10" stroke-linecap="round" stroke-linejoin="round"/>
<path d="M580.746 176.694C580.746 176.694 595.246 194.444 598.996 202.444" stroke="black" stroke-miterlimit="10" stroke-linecap="round" stroke-linejoin="round"/>
<path d="M589.996 209.694C589.996 209.694 577.996 189.944 570.996 182.194" stroke="black" stroke-miterlimit="10" stroke-linecap="round" stroke-linejoin="round"/>
<path d="M533.809 158.944V34.1944C533.809 34.1944 533.809 32.1944 530.809 31.1944C527.809 30.1944 466.309 1.69441 466.309 1.69441C466.309 1.69441 463.309 0.694414 460.809 1.69441C458.309 2.69441 426.309 18.1944 426.309 18.1944C426.309 18.1944 423.809 20.1944 424.309 23.6944C424.809 27.1944 425.059 136.944 425.059 139.944C425.059 142.944 425.309 145.694 428.059 147.444C431.101 149.38 491.921 179.687 493.309 180.444C496.059 181.944 497.809 181.944 500.309 180.694C501.723 179.987 529.809 165.194 531.809 163.694C533.809 162.194 534.059 160.944 533.809 158.944Z" fill="#3A3A3D"/>
<path d="M436.559 22.4444C440.309 20.1944 444.809 17.9444 447.809 16.6944C450.809 15.4444 455.309 15.4444 458.059 16.9444C460.809 18.4444 493.559 34.6944 496.059 35.9444C498.559 37.1944 502.797 39.9554 499.809 42.4444C496.809 44.9444 493.229 46.4544 491.059 47.6944C487.559 49.6944 486.559 54.4444 486.809 57.1944C487.059 59.9444 487.059 152.194 487.059 154.944C487.059 158.694 484.559 161.444 481.809 159.944C480.095 159.009 439.809 140.444 438.059 139.444C436.309 138.444 433.559 137.194 433.559 130.194C433.559 121.928 432.809 37.1944 432.809 33.1944C432.809 27.1944 434.162 23.8834 436.559 22.4444Z" fill="#5D6F5B"/>
<path d="M426.059 145.194C426.059 145.194 421.309 147.694 420.309 150.694C419.309 153.694 405.902 191.976 404.809 194.944C403.059 199.694 403.059 204.944 403.059 208.694C403.059 212.444 403.059 240.444 403.059 244.444C403.059 247.694 406.309 250.694 408.059 251.444C409.809 252.194 475.809 282.944 479.559 284.444C482.673 285.69 487.809 285.944 490.059 284.694C492.309 283.444 527.309 266.194 531.809 263.444C533.717 262.278 535.309 259.694 535.309 255.944C535.309 252.194 535.309 173.444 535.309 170.444C535.309 166.694 533.809 164.444 532.309 163.694L512.309 161.694L487.309 169.944L430.309 144.694L426.059 145.194Z" fill="#3A3A3D"/>
<path d="M461.809 256.444L420.559 236.694L420.809 241.444L461.809 261.444V256.444Z" fill="#5D6F5B"/>
<path d="M472.059 134.444L446.059 121.944L446.309 126.694L472.059 139.444V134.444Z" fill="#3A3A3D"/>
<path d="M477.528 225.717C480.868 223.657 482.018 219.463 480.097 216.349C478.176 213.235 473.912 212.38 470.572 214.44C467.232 216.5 466.082 220.695 468.003 223.809C469.924 226.923 474.188 227.778 477.528 225.717Z" fill="#5D6F5B"/>
<path d="M420.379 203.445C423.859 201.631 425.308 197.53 423.616 194.285C421.924 191.041 417.732 189.882 414.252 191.696C410.773 193.511 409.324 197.612 411.016 200.856C412.708 204.1 416.9 205.26 420.379 203.445Z" fill="#5D6F5B"/>
<path d="M534.059 158.694V33.9444C534.059 33.9444 534.059 31.9444 531.059 30.9444C528.059 29.9444 466.559 1.44441 466.559 1.44441C466.559 1.44441 463.559 0.444414 461.059 1.44441C458.559 2.44441 426.559 17.9444 426.559 17.9444C426.559 17.9444 424.059 19.9444 424.559 23.4444C425.059 26.9444 425.309 136.694 425.309 139.694C425.309 142.694 425.559 145.444 428.309 147.194C431.351 149.13 492.171 179.437 493.559 180.194C496.309 181.694 498.059 181.694 500.559 180.444C501.973 179.737 530.059 164.944 532.059 163.444C534.059 161.944 534.309 160.694 534.059 158.694Z" stroke="black" stroke-miterlimit="10" stroke-linecap="round" stroke-linejoin="round"/>
<path d="M425.809 144.944C425.809 144.944 421.059 147.444 420.059 150.444C419.059 153.444 405.652 191.726 404.559 194.694C402.809 199.444 402.809 204.694 402.809 208.444C402.809 212.194 402.809 240.194 402.809 244.194C402.809 247.444 406.059 250.444 407.809 251.194C409.559 251.944 475.559 282.694 479.309 284.194C482.423 285.44 487.559 285.694 489.809 284.444C492.059 283.194 527.059 265.944 531.559 263.194C533.467 262.028 535.059 259.444 535.059 255.694C535.059 251.944 535.059 173.194 535.059 170.194C535.059 166.444 533.559 164.194 532.059 163.444" stroke="black" stroke-miterlimit="10" stroke-linecap="round" stroke-linejoin="round"/>
<path d="M461.809 256.444L420.559 236.694L420.809 241.444L461.809 261.444V256.444Z" stroke="black" stroke-miterlimit="10" stroke-linecap="round" stroke-linejoin="round"/>
<path d="M472.309 134.694L446.309 122.194L446.559 126.944L472.309 139.694V134.694Z" stroke="black" stroke-miterlimit="10" stroke-linecap="round" stroke-linejoin="round"/>
<path d="M484.559 279.194C484.559 279.194 484.559 252.944 484.559 248.944C484.559 244.944 485.059 238.944 486.559 234.694C487.691 231.488 497.809 187.694 497.809 187.694" stroke="black" stroke-miterlimit="10" stroke-linecap="round" stroke-linejoin="round"/>
<path d="M478.309 239.694L407.309 206.944" stroke="black" stroke-miterlimit="10" stroke-linecap="round" stroke-linejoin="round"/>
<path d="M436.559 22.4444C440.309 20.1944 444.809 17.9444 447.809 16.6944C450.809 15.4444 455.309 15.4444 458.059 16.9444C460.809 18.4444 493.559 34.6944 496.059 35.9444C498.559 37.1944 502.797 39.9554 499.809 42.4444C496.809 44.9444 493.229 46.4544 491.059 47.6944C487.559 49.6944 486.559 54.4444 486.809 57.1944C487.059 59.9444 487.059 152.194 487.059 154.944C487.059 158.694 484.559 161.444 481.809 159.944C480.095 159.009 439.809 140.444 438.059 139.444C436.309 138.444 433.559 137.194 433.559 130.194C433.559 121.928 432.809 37.1944 432.809 33.1944C432.809 27.1944 434.162 23.8834 436.559 22.4444Z" stroke="black" stroke-miterlimit="10" stroke-linecap="round" stroke-linejoin="round"/>
<path d="M477.528 225.717C480.868 223.657 482.018 219.463 480.097 216.349C478.176 213.235 473.912 212.38 470.572 214.44C467.232 216.5 466.082 220.695 468.003 223.809C469.924 226.923 474.188 227.778 477.528 225.717Z" stroke="black" stroke-miterlimit="10" stroke-linecap="round" stroke-linejoin="round"/>
<path d="M420.379 203.445C423.859 201.631 425.308 197.53 423.616 194.285C421.924 191.041 417.732 189.882 414.252 191.696C410.773 193.511 409.324 197.612 411.016 200.856C412.708 204.1 416.9 205.26 420.379 203.445Z" stroke="black" stroke-miterlimit="10" stroke-linecap="round" stroke-linejoin="round"/>
<path d="M447.739 56.8437L467.354 63.685L470.241 91.0984L460.654 87.9412L460.572 103.651L445.449 79.4274L455.196 83.0083L447.739 56.8437Z" fill="#7B633B"/>
<path d="M447.962 57.0662L467.576 63.9075L470.464 91.3209L460.876 88.1637L460.794 103.873L445.672 79.6499L455.418 83.2308L447.962 57.0662Z" stroke="black" stroke-miterlimit="10" stroke-linecap="round" stroke-linejoin="round"/>
<path d="M456.018 204.017C463.289 199.927 466.092 191.115 462.278 184.335C458.464 177.555 449.478 175.375 442.207 179.465C434.935 183.555 432.133 192.367 435.947 199.147C439.761 205.927 448.747 208.107 456.018 204.017Z" fill="#5D6F5B"/>
<path d="M456.018 204.017C463.289 199.927 466.092 191.115 462.278 184.335C458.464 177.555 449.478 175.375 442.207 179.465C434.935 183.555 432.133 192.367 435.947 199.147C439.761 205.927 448.747 208.107 456.018 204.017Z" stroke="black" stroke-miterlimit="10" stroke-linecap="round" stroke-linejoin="round"/>
<path d="M457.886 179.897C457.886 179.897 440.535 190.511 435.432 198.472" stroke="black" stroke-miterlimit="10" stroke-linecap="round" stroke-linejoin="round"/>
<path d="M462.581 185C462.581 185 446.863 195.614 440.331 203.371" stroke="black" stroke-miterlimit="10" stroke-linecap="round" stroke-linejoin="round"/>
<path d="M446.659 177.855C446.659 177.855 458.498 192.348 461.56 198.88" stroke="black" stroke-miterlimit="10" stroke-linecap="round" stroke-linejoin="round"/>
<path d="M454.212 204.8C454.212 204.8 444.414 188.674 438.698 182.346" stroke="black" stroke-miterlimit="10" stroke-linecap="round" stroke-linejoin="round"/>
<path d="M399.871 158.944V34.1944C399.871 34.1944 399.871 32.1944 396.871 31.1944C393.871 30.1944 332.371 1.69441 332.371 1.69441C332.371 1.69441 329.371 0.694414 326.871 1.69441C324.371 2.69441 292.371 18.1944 292.371 18.1944C292.371 18.1944 289.871 20.1944 290.371 23.6944C290.871 27.1944 291.121 136.944 291.121 139.944C291.121 142.944 291.371 145.694 294.121 147.444C297.163 149.38 357.983 179.687 359.371 180.444C362.121 181.944 363.871 181.944 366.371 180.694C367.785 179.987 395.871 165.194 397.871 163.694C399.871 162.194 400.121 160.944 399.871 158.944Z" fill="#3A3A3D"/>
<path d="M302.621 22.4444C306.371 20.1944 310.871 17.9444 313.871 16.6944C316.871 15.4444 321.371 15.4444 324.121 16.9444C326.871 18.4444 359.621 34.6944 362.121 35.9444C364.621 37.1944 368.859 39.9554 365.871 42.4444C362.871 44.9444 359.291 46.4544 357.121 47.6944C353.621 49.6944 352.621 54.4444 352.871 57.1944C353.121 59.9444 353.121 152.194 353.121 154.944C353.121 158.694 350.621 161.444 347.871 159.944C346.157 159.009 305.871 140.444 304.121 139.444C302.371 138.444 299.621 137.194 299.621 130.194C299.621 121.928 298.871 37.1944 298.871 33.1944C298.871 27.1944 300.224 23.8834 302.621 22.4444Z" fill="#5D6F5B"/>
<path d="M292.121 145.194C292.121 145.194 287.371 147.694 286.371 150.694C285.371 153.694 271.964 191.976 270.871 194.944C269.121 199.694 269.121 204.944 269.121 208.694C269.121 212.444 269.121 240.444 269.121 244.444C269.121 247.694 272.371 250.694 274.121 251.444C275.871 252.194 341.871 282.944 345.621 284.444C348.735 285.69 353.871 285.944 356.121 284.694C358.371 283.444 393.371 266.194 397.871 263.444C399.779 262.278 401.371 259.694 401.371 255.944C401.371 252.194 401.371 173.444 401.371 170.444C401.371 166.694 399.871 164.444 398.371 163.694L378.371 161.694L353.371 169.944L296.371 144.694L292.121 145.194Z" fill="#3A3A3D"/>
<path d="M327.871 256.444L286.621 236.694L286.871 241.444L327.871 261.444V256.444Z" fill="#5D6F5B"/>
<path d="M338.121 134.444L312.121 121.944L312.371 126.694L338.121 139.444V134.444Z" fill="#3A3A3D"/>
<path d="M343.591 225.717C346.93 223.657 348.081 219.463 346.16 216.349C344.239 213.235 339.974 212.38 336.634 214.44C333.295 216.5 332.145 220.695 334.066 223.809C335.986 226.923 340.251 227.778 343.591 225.717Z" fill="#5D6F5B"/>
<path d="M286.442 203.445C289.921 201.631 291.37 197.53 289.678 194.285C287.986 191.041 283.794 189.882 280.315 191.696C276.836 193.511 275.386 197.612 277.078 200.856C278.77 204.1 282.962 205.26 286.442 203.445Z" fill="#5D6F5B"/>
<path d="M400.121 158.694V33.9444C400.121 33.9444 400.121 31.9444 397.121 30.9444C394.121 29.9444 332.621 1.44441 332.621 1.44441C332.621 1.44441 329.621 0.444414 327.121 1.44441C324.621 2.44441 292.621 17.9444 292.621 17.9444C292.621 17.9444 290.121 19.9444 290.621 23.4444C291.121 26.9444 291.371 136.694 291.371 139.694C291.371 142.694 291.621 145.444 294.371 147.194C297.413 149.13 358.233 179.437 359.621 180.194C362.371 181.694 364.121 181.694 366.621 180.444C368.035 179.737 396.121 164.944 398.121 163.444C400.121 161.944 400.371 160.694 400.121 158.694Z" stroke="black" stroke-miterlimit="10" stroke-linecap="round" stroke-linejoin="round"/>
<path d="M291.871 144.944C291.871 144.944 287.121 147.444 286.121 150.444C285.121 153.444 271.714 191.726 270.621 194.694C268.871 199.444 268.871 204.694 268.871 208.444C268.871 212.194 268.871 240.194 268.871 244.194C268.871 247.444 272.121 250.444 273.871 251.194C275.621 251.944 341.621 282.694 345.371 284.194C348.485 285.44 353.621 285.694 355.871 284.444C358.121 283.194 393.121 265.944 397.621 263.194C399.529 262.028 401.121 259.444 401.121 255.694C401.121 251.944 401.121 173.194 401.121 170.194C401.121 166.444 399.621 164.194 398.121 163.444" stroke="black" stroke-miterlimit="10" stroke-linecap="round" stroke-linejoin="round"/>
<path d="M327.871 256.444L286.621 236.694L286.871 241.444L327.871 261.444V256.444Z" stroke="black" stroke-miterlimit="10" stroke-linecap="round" stroke-linejoin="round"/>
<path d="M338.371 134.694L312.371 122.194L312.621 126.944L338.371 139.694V134.694Z" stroke="black" stroke-miterlimit="10" stroke-linecap="round" stroke-linejoin="round"/>
<path d="M350.621 279.194C350.621 279.194 350.621 252.944 350.621 248.944C350.621 244.944 351.121 238.944 352.621 234.694C353.753 231.488 363.871 187.694 363.871 187.694" stroke="black" stroke-miterlimit="10" stroke-linecap="round" stroke-linejoin="round"/>
<path d="M344.371 239.694L273.371 206.944" stroke="black" stroke-miterlimit="10" stroke-linecap="round" stroke-linejoin="round"/>
<path d="M302.621 22.4444C306.371 20.1944 310.871 17.9444 313.871 16.6944C316.871 15.4444 321.371 15.4444 324.121 16.9444C326.871 18.4444 359.621 34.6944 362.121 35.9444C364.621 37.1944 368.859 39.9554 365.871 42.4444C362.871 44.9444 359.291 46.4544 357.121 47.6944C353.621 49.6944 352.621 54.4444 352.871 57.1944C353.121 59.9444 353.121 152.194 353.121 154.944C353.121 158.694 350.621 161.444 347.871 159.944C346.157 159.009 305.871 140.444 304.121 139.444C302.371 138.444 299.621 137.194 299.621 130.194C299.621 121.928 298.871 37.1944 298.871 33.1944C298.871 27.1944 300.224 23.8834 302.621 22.4444Z" stroke="black" stroke-miterlimit="10" stroke-linecap="round" stroke-linejoin="round"/>
<path d="M343.591 225.717C346.93 223.657 348.081 219.463 346.16 216.349C344.239 213.235 339.974 212.38 336.634 214.44C333.295 216.5 332.145 220.695 334.066 223.809C335.986 226.923 340.251 227.778 343.591 225.717Z" stroke="black" stroke-miterlimit="10" stroke-linecap="round" stroke-linejoin="round"/>
<path d="M286.442 203.445C289.921 201.631 291.37 197.53 289.678 194.285C287.986 191.041 283.794 189.882 280.315 191.696C276.836 193.511 275.386 197.612 277.078 200.856C278.77 204.1 282.962 205.26 286.442 203.445Z" stroke="black" stroke-miterlimit="10" stroke-linecap="round" stroke-linejoin="round"/>
<path d="M310.829 50.0007L336.151 58.8329L339.879 94.2238L327.501 90.1479L327.396 110.429L307.872 79.1564L320.455 83.7794L310.829 50.0007Z" fill="#7B633B"/>
<path d="M311.116 50.2879L336.438 59.1202L340.166 94.5111L327.789 90.4351L327.683 110.716L308.159 79.4437L320.742 84.0666L311.116 50.2879Z" stroke="black" stroke-miterlimit="10" stroke-linecap="round" stroke-linejoin="round"/>
<path d="M325.22 209.598C335.797 203.648 339.874 190.83 334.326 180.968C328.778 171.106 315.707 167.934 305.13 173.884C294.553 179.834 290.476 192.652 296.024 202.514C301.572 212.376 314.643 215.548 325.22 209.598Z" fill="#5D6F5B"/>
<path d="M325.22 209.598C335.797 203.648 339.874 190.83 334.326 180.968C328.778 171.106 315.707 167.934 305.13 173.884C294.553 179.834 290.476 192.652 296.024 202.514C301.572 212.376 314.643 215.548 325.22 209.598Z" stroke="black" stroke-miterlimit="10" stroke-linecap="round" stroke-linejoin="round"/>
<path d="M327.937 174.512C327.937 174.512 302.699 189.952 295.275 201.532" stroke="black" stroke-miterlimit="10" stroke-linecap="round" stroke-linejoin="round"/>
<path d="M334.766 181.935C334.766 181.935 311.903 197.375 302.401 208.658" stroke="black" stroke-miterlimit="10" stroke-linecap="round" stroke-linejoin="round"/>
<path d="M311.606 171.542C311.606 171.542 328.828 192.624 333.282 202.126" stroke="black" stroke-miterlimit="10" stroke-linecap="round" stroke-linejoin="round"/>
<path d="M322.592 210.737C322.592 210.737 308.34 187.28 300.026 178.075" stroke="black" stroke-miterlimit="10" stroke-linecap="round" stroke-linejoin="round"/>
<path d="M265.934 158.944V34.1944C265.934 34.1944 265.934 32.1944 262.934 31.1944C259.934 30.1944 198.434 1.69441 198.434 1.69441C198.434 1.69441 195.434 0.694414 192.934 1.69441C190.434 2.69441 158.434 18.1944 158.434 18.1944C158.434 18.1944 155.934 20.1944 156.434 23.6944C156.934 27.1944 157.184 136.944 157.184 139.944C157.184 142.944 157.434 145.694 160.184 147.444C163.226 149.38 224.046 179.687 225.434 180.444C228.184 181.944 229.934 181.944 232.434 180.694C233.848 179.987 261.934 165.194 263.934 163.694C265.934 162.194 266.184 160.944 265.934 158.944Z" fill="#3A3A3D"/>
<path d="M168.684 22.4444C172.434 20.1944 176.934 17.9444 179.934 16.6944C182.934 15.4444 187.434 15.4444 190.184 16.9444C192.934 18.4444 225.684 34.6944 228.184 35.9444C230.684 37.1944 234.922 39.9554 231.934 42.4444C228.934 44.9444 225.354 46.4544 223.184 47.6944C219.684 49.6944 218.684 54.4444 218.934 57.1944C219.184 59.9444 219.184 152.194 219.184 154.944C219.184 158.694 216.684 161.444 213.934 159.944C212.22 159.009 171.934 140.444 170.184 139.444C168.434 138.444 165.684 137.194 165.684 130.194C165.684 121.928 164.934 37.1944 164.934 33.1944C164.934 27.1944 166.287 23.8834 168.684 22.4444Z" fill="#5D6F5B"/>
<path d="M158.184 145.194C158.184 145.194 153.434 147.694 152.434 150.694C151.434 153.694 138.027 191.976 136.934 194.944C135.184 199.694 135.184 204.944 135.184 208.694C135.184 212.444 135.184 240.444 135.184 244.444C135.184 247.694 138.434 250.694 140.184 251.444C141.934 252.194 207.934 282.944 211.684 284.444C214.798 285.69 219.934 285.944 222.184 284.694C224.434 283.444 259.434 266.194 263.934 263.444C265.842 262.278 267.434 259.694 267.434 255.944C267.434 252.194 267.434 173.444 267.434 170.444C267.434 166.694 265.934 164.444 264.434 163.694L244.434 161.694L219.434 169.944L162.434 144.694L158.184 145.194Z" fill="#3A3A3D"/>
<path d="M193.934 256.444L152.684 236.694L152.934 241.444L193.934 261.444V256.444Z" fill="#5D6F5B"/>
<path d="M204.184 134.444L178.184 121.944L178.434 126.694L204.184 139.444V134.444Z" fill="#3A3A3D"/>
<path d="M209.653 225.717C212.993 223.657 214.143 219.463 212.222 216.349C210.301 213.235 206.037 212.38 202.697 214.44C199.357 216.5 198.207 220.695 200.128 223.809C202.049 226.923 206.314 227.778 209.653 225.717Z" fill="#5D6F5B"/>
<path d="M152.504 203.445C155.984 201.631 157.433 197.53 155.741 194.285C154.049 191.041 149.857 189.882 146.377 191.696C142.898 193.511 141.449 197.612 143.141 200.856C144.833 204.1 149.025 205.26 152.504 203.445Z" fill="#5D6F5B"/>
<path d="M266.184 158.694V33.9444C266.184 33.9444 266.184 31.9444 263.184 30.9444C260.184 29.9444 198.684 1.44441 198.684 1.44441C198.684 1.44441 195.684 0.444414 193.184 1.44441C190.684 2.44441 158.684 17.9444 158.684 17.9444C158.684 17.9444 156.184 19.9444 156.684 23.4444C157.184 26.9444 157.434 136.694 157.434 139.694C157.434 142.694 157.684 145.444 160.434 147.194C163.476 149.13 224.296 179.437 225.684 180.194C228.434 181.694 230.184 181.694 232.684 180.444C234.098 179.737 262.184 164.944 264.184 163.444C266.184 161.944 266.434 160.694 266.184 158.694Z" stroke="black" stroke-miterlimit="10" stroke-linecap="round" stroke-linejoin="round"/>
<path d="M157.934 144.944C157.934 144.944 153.184 147.444 152.184 150.444C151.184 153.444 137.777 191.726 136.684 194.694C134.934 199.444 134.934 204.694 134.934 208.444C134.934 212.194 134.934 240.194 134.934 244.194C134.934 247.444 138.184 250.444 139.934 251.194C141.684 251.944 207.684 282.694 211.434 284.194C214.548 285.44 219.684 285.694 221.934 284.444C224.184 283.194 259.184 265.944 263.684 263.194C265.592 262.028 267.184 259.444 267.184 255.694C267.184 251.944 267.184 173.194 267.184 170.194C267.184 166.444 265.684 164.194 264.184 163.444" stroke="black" stroke-miterlimit="10" stroke-linecap="round" stroke-linejoin="round"/>
<path d="M193.934 256.444L152.684 236.694L152.934 241.444L193.934 261.444V256.444Z" stroke="black" stroke-miterlimit="10" stroke-linecap="round" stroke-linejoin="round"/>
<path d="M204.434 134.694L178.434 122.194L178.684 126.944L204.434 139.694V134.694Z" stroke="black" stroke-miterlimit="10" stroke-linecap="round" stroke-linejoin="round"/>
<path d="M216.684 279.194C216.684 279.194 216.684 252.944 216.684 248.944C216.684 244.944 217.184 238.944 218.684 234.694C219.816 231.488 229.934 187.694 229.934 187.694" stroke="black" stroke-miterlimit="10" stroke-linecap="round" stroke-linejoin="round"/>
<path d="M210.434 239.694L139.434 206.944" stroke="black" stroke-miterlimit="10" stroke-linecap="round" stroke-linejoin="round"/>
<path d="M168.684 22.4444C172.434 20.1944 176.934 17.9444 179.934 16.6944C182.934 15.4444 187.434 15.4444 190.184 16.9444C192.934 18.4444 225.684 34.6944 228.184 35.9444C230.684 37.1944 234.922 39.9554 231.934 42.4444C228.934 44.9444 225.354 46.4544 223.184 47.6944C219.684 49.6944 218.684 54.4444 218.934 57.1944C219.184 59.9444 219.184 152.194 219.184 154.944C219.184 158.694 216.684 161.444 213.934 159.944C212.22 159.009 171.934 140.444 170.184 139.444C168.434 138.444 165.684 137.194 165.684 130.194C165.684 121.928 164.934 37.1944 164.934 33.1944C164.934 27.1944 166.287 23.8834 168.684 22.4444Z" stroke="black" stroke-miterlimit="10" stroke-linecap="round" stroke-linejoin="round"/>
<path d="M209.653 225.717C212.993 223.657 214.143 219.463 212.222 216.349C210.301 213.235 206.037 212.38 202.697 214.44C199.357 216.5 198.207 220.695 200.128 223.809C202.049 226.923 206.314 227.778 209.653 225.717Z" stroke="black" stroke-miterlimit="10" stroke-linecap="round" stroke-linejoin="round"/>
<path d="M152.504 203.445C155.984 201.631 157.433 197.53 155.741 194.285C154.049 191.041 149.857 189.882 146.377 191.696C142.898 193.511 141.449 197.612 143.141 200.856C144.833 204.1 149.025 205.26 152.504 203.445Z" stroke="black" stroke-miterlimit="10" stroke-linecap="round" stroke-linejoin="round"/>
<path d="M182.322 62.5004L197.218 67.696L199.411 88.5148L192.13 86.1171L192.068 98.0474L180.583 79.6513L187.985 82.3708L182.322 62.5004Z" fill="#7B633B"/>
<path d="M182.491 62.6694L197.387 67.865L199.58 88.6838L192.299 86.2861L192.237 98.2164L180.752 79.8203L188.154 82.5398L182.491 62.6694Z" stroke="black" stroke-miterlimit="10" stroke-linecap="round" stroke-linejoin="round"/>
<path d="M187.49 202.856C194.074 199.153 196.611 191.174 193.158 185.035C189.705 178.896 181.568 176.922 174.985 180.626C168.401 184.329 165.863 192.308 169.317 198.447C172.77 204.586 180.906 206.56 187.49 202.856Z" fill="#5D6F5B"/>
<path d="M187.49 202.856C194.074 199.153 196.611 191.174 193.158 185.035C189.705 178.896 181.568 176.922 174.985 180.626C168.401 184.329 165.863 192.308 169.317 198.447C172.77 204.586 180.906 206.56 187.49 202.856Z" stroke="black" stroke-miterlimit="10" stroke-linecap="round" stroke-linejoin="round"/>
<path d="M189.181 181.017C189.181 181.017 173.471 190.627 168.851 197.835" stroke="black" stroke-miterlimit="10" stroke-linecap="round" stroke-linejoin="round"/>
<path d="M193.432 185.637C193.432 185.637 179.201 195.248 173.286 202.271" stroke="black" stroke-miterlimit="10" stroke-linecap="round" stroke-linejoin="round"/>
<path d="M179.016 179.168C179.016 179.168 189.736 192.291 192.508 198.205" stroke="black" stroke-miterlimit="10" stroke-linecap="round" stroke-linejoin="round"/>
<path d="M185.855 203.565C185.855 203.565 176.983 188.964 171.808 183.234" stroke="black" stroke-miterlimit="10" stroke-linecap="round" stroke-linejoin="round"/>
<path d="M131.996 158.944V34.1944C131.996 34.1944 131.996 32.1944 128.996 31.1944C125.996 30.1944 64.4962 1.69441 64.4962 1.69441C64.4962 1.69441 61.4962 0.694414 58.9962 1.69441C56.4962 2.69441 24.4962 18.1944 24.4962 18.1944C24.4962 18.1944 21.9962 20.1944 22.4962 23.6944C22.9962 27.1944 23.2462 136.944 23.2462 139.944C23.2462 142.944 23.4962 145.694 26.2462 147.444C29.2882 149.38 90.1082 179.687 91.4962 180.444C94.2462 181.944 95.9962 181.944 98.4962 180.694C99.9102 179.987 127.996 165.194 129.996 163.694C131.996 162.194 132.246 160.944 131.996 158.944Z" fill="#3A3A3D"/>
<path d="M34.7462 22.4444C38.4962 20.1944 42.9962 17.9444 45.9962 16.6944C48.9962 15.4444 53.4962 15.4444 56.2462 16.9444C58.9962 18.4444 91.7462 34.6944 94.2462 35.9444C96.7462 37.1944 100.984 39.9554 97.9962 42.4444C94.9962 44.9444 91.4162 46.4544 89.2462 47.6944C85.7462 49.6944 84.7462 54.4444 84.9962 57.1944C85.2462 59.9444 85.2462 152.194 85.2462 154.944C85.2462 158.694 82.7462 161.444 79.9962 159.944C78.2822 159.009 37.9962 140.444 36.2462 139.444C34.4962 138.444 31.7462 137.194 31.7462 130.194C31.7462 121.928 30.9962 37.1944 30.9962 33.1944C30.9962 27.1944 32.3492 23.8834 34.7462 22.4444Z" fill="#5D6F5B"/>
<path d="M24.2462 145.194C24.2462 145.194 19.4962 147.694 18.4962 150.694C17.4962 153.694 4.08922 191.976 2.99622 194.944C1.24622 199.694 1.24622 204.944 1.24622 208.694C1.24622 212.444 1.24622 240.444 1.24622 244.444C1.24622 247.694 4.49622 250.694 6.24622 251.444C7.99622 252.194 73.9962 282.944 77.7462 284.444C80.8602 285.69 85.9962 285.944 88.2462 284.694C90.4962 283.444 125.496 266.194 129.996 263.444C131.904 262.278 133.496 259.694 133.496 255.944C133.496 252.194 133.496 173.444 133.496 170.444C133.496 166.694 131.996 164.444 130.496 163.694L110.496 161.694L85.4962 169.944L28.4962 144.694L24.2462 145.194Z" fill="#3A3A3D"/>
<path d="M59.9962 256.444L18.7462 236.694L18.9962 241.444L59.9962 261.444V256.444Z" fill="#5D6F5B"/>
<path d="M70.2462 134.444L44.2462 121.944L44.4962 126.694L70.2462 139.444V134.444Z" fill="#3A3A3D"/>
<path d="M75.7156 225.717C79.0553 223.657 80.2055 219.463 78.2845 216.349C76.3636 213.235 72.0991 212.38 68.7593 214.44C65.4196 216.5 64.2695 220.695 66.1904 223.809C68.1113 226.923 72.3759 227.778 75.7156 225.717Z" fill="#5D6F5B"/>
<path d="M18.5666 203.445C22.046 201.631 23.495 197.53 21.8032 194.285C20.1113 191.041 15.9192 189.882 12.4398 191.696C8.96038 193.511 7.5113 197.612 9.20317 200.856C10.895 204.1 15.0872 205.26 18.5666 203.445Z" fill="#5D6F5B"/>
<path d="M132.246 158.694V33.9444C132.246 33.9444 132.246 31.9444 129.246 30.9444C126.246 29.9444 64.7462 1.44441 64.7462 1.44441C64.7462 1.44441 61.7462 0.444414 59.2462 1.44441C56.7462 2.44441 24.7462 17.9444 24.7462 17.9444C24.7462 17.9444 22.2462 19.9444 22.7462 23.4444C23.2462 26.9444 23.4962 136.694 23.4962 139.694C23.4962 142.694 23.7462 145.444 26.4962 147.194C29.5382 149.13 90.3582 179.437 91.7462 180.194C94.4962 181.694 96.2462 181.694 98.7462 180.444C100.16 179.737 128.246 164.944 130.246 163.444C132.246 161.944 132.496 160.694 132.246 158.694Z" stroke="black" stroke-miterlimit="10" stroke-linecap="round" stroke-linejoin="round"/>
<path d="M23.9962 144.944C23.9962 144.944 19.2462 147.444 18.2462 150.444C17.2462 153.444 3.83922 191.726 2.74622 194.694C0.996216 199.444 0.996216 204.694 0.996216 208.444C0.996216 212.194 0.996216 240.194 0.996216 244.194C0.996216 247.444 4.24622 250.444 5.99622 251.194C7.74622 251.944 73.7462 282.694 77.4962 284.194C80.6102 285.44 85.7462 285.694 87.9962 284.444C90.2462 283.194 125.246 265.944 129.746 263.194C131.654 262.028 133.246 259.444 133.246 255.694C133.246 251.944 133.246 173.194 133.246 170.194C133.246 166.444 131.746 164.194 130.246 163.444" stroke="black" stroke-miterlimit="10" stroke-linecap="round" stroke-linejoin="round"/>
<path d="M59.9962 256.444L18.7462 236.694L18.9962 241.444L59.9962 261.444V256.444Z" stroke="black" stroke-miterlimit="10" stroke-linecap="round" stroke-linejoin="round"/>
<path d="M70.4962 134.694L44.4962 122.194L44.7462 126.944L70.4962 139.694V134.694Z" stroke="black" stroke-miterlimit="10" stroke-linecap="round" stroke-linejoin="round"/>
<path d="M82.7462 279.194C82.7462 279.194 82.7462 252.944 82.7462 248.944C82.7462 244.944 83.2462 238.944 84.7462 234.694C85.8782 231.488 95.9962 187.694 95.9962 187.694" stroke="black" stroke-miterlimit="10" stroke-linecap="round" stroke-linejoin="round"/>
<path d="M76.4962 239.694L5.49622 206.944" stroke="black" stroke-miterlimit="10" stroke-linecap="round" stroke-linejoin="round"/>
<path d="M34.7462 22.4444C38.4962 20.1944 42.9962 17.9444 45.9962 16.6944C48.9962 15.4444 53.4962 15.4444 56.2462 16.9444C58.9962 18.4444 91.7462 34.6944 94.2462 35.9444C96.7462 37.1944 100.984 39.9554 97.9962 42.4444C94.9962 44.9444 91.4162 46.4544 89.2462 47.6944C85.7462 49.6944 84.7462 54.4444 84.9962 57.1944C85.2462 59.9444 85.2462 152.194 85.2462 154.944C85.2462 158.694 82.7462 161.444 79.9962 159.944C78.2822 159.009 37.9962 140.444 36.2462 139.444C34.4962 138.444 31.7462 137.194 31.7462 130.194C31.7462 121.928 30.9962 37.1944 30.9962 33.1944C30.9962 27.1944 32.3492 23.8834 34.7462 22.4444Z" stroke="black" stroke-miterlimit="10" stroke-linecap="round" stroke-linejoin="round"/>
<path d="M75.7156 225.717C79.0553 223.657 80.2055 219.463 78.2845 216.349C76.3636 213.235 72.0991 212.38 68.7593 214.44C65.4196 216.5 64.2695 220.695 66.1904 223.809C68.1113 226.923 72.3759 227.778 75.7156 225.717Z" stroke="black" stroke-miterlimit="10" stroke-linecap="round" stroke-linejoin="round"/>
<path d="M18.5666 203.445C22.046 201.631 23.495 197.53 21.8032 194.285C20.1113 191.041 15.9192 189.882 12.4398 191.696C8.96038 193.511 7.5113 197.612 9.20317 200.856C10.895 204.1 15.0872 205.26 18.5666 203.445Z" stroke="black" stroke-miterlimit="10" stroke-linecap="round" stroke-linejoin="round"/>
<path d="M44.4195 53.3746L66.9274 61.2252L70.2409 92.6829L59.2392 89.0599L59.1453 107.087L41.7914 79.29L52.9759 83.3992L44.4195 53.3746Z" fill="#7B633B"/>
<path d="M44.6747 53.6299L67.1827 61.4806L70.4962 92.9382L59.4945 89.3152L59.4005 107.342L42.0466 79.5453L53.2312 83.6545L44.6747 53.6299Z" stroke="black" stroke-miterlimit="10" stroke-linecap="round" stroke-linejoin="round"/>
<path d="M55.1946 205.776C63.5074 201.099 66.7116 191.025 62.3514 183.274C57.9912 175.523 47.7177 173.03 39.405 177.706C31.0922 182.383 27.888 192.457 32.2482 200.208C36.6084 207.959 46.8819 210.452 55.1946 205.776Z" fill="#5D6F5B"/>
<path d="M55.1946 205.776C63.5074 201.099 66.7116 191.025 62.3514 183.274C57.9912 175.523 47.7177 173.03 39.405 177.706C31.0922 182.383 27.888 192.457 32.2482 200.208C36.6084 207.959 46.8819 210.452 55.1946 205.776Z" stroke="black" stroke-miterlimit="10" stroke-linecap="round" stroke-linejoin="round"/>
<path d="M57.33 178.2C57.33 178.2 37.4941 190.335 31.66 199.436" stroke="black" stroke-miterlimit="10" stroke-linecap="round" stroke-linejoin="round"/>
<path d="M62.6973 184.034C62.6973 184.034 44.7284 196.169 37.2607 205.037" stroke="black" stroke-miterlimit="10" stroke-linecap="round" stroke-linejoin="round"/>
<path d="M44.4951 175.866C44.4951 175.866 58.0302 192.435 61.5306 199.903" stroke="black" stroke-miterlimit="10" stroke-linecap="round" stroke-linejoin="round"/>
<path d="M53.1295 206.67C53.1295 206.67 41.9281 188.235 35.3939 181" stroke="black" stroke-miterlimit="10" stroke-linecap="round" stroke-linejoin="round"/>
</svg>
