<svg width="670" height="286" viewBox="0 0 670 286" fill="none" xmlns="http://www.w3.org/2000/svg">
<path d="M668 158.797V34.0473C668 34.0473 668 32.0473 665 31.0473C662 30.0473 600.5 1.54729 600.5 1.54729C600.5 1.54729 597.5 0.547289 595 1.54729C592.5 2.54729 560.5 18.0473 560.5 18.0473C560.5 18.0473 558 20.0473 558.5 23.5473C559 27.0473 559.25 136.797 559.25 139.797C559.25 142.797 559.5 145.547 562.25 147.297C565.292 149.233 626.112 179.54 627.5 180.297C630.25 181.797 632 181.797 634.5 180.547C635.914 179.84 664 165.047 666 163.547C668 162.047 668.25 160.797 668 158.797Z" fill="#3A3A3D"/>
<path d="M570.75 22.2973C574.5 20.0473 579 17.7973 582 16.5473C585 15.2973 589.5 15.2973 592.25 16.7973C595 18.2973 627.75 34.5473 630.25 35.7973C632.75 37.0473 636.988 39.8083 634 42.2973C631 44.7973 627.42 46.3073 625.25 47.5473C621.75 49.5473 620.75 54.2973 621 57.0473C621.25 59.7973 621.25 152.047 621.25 154.797C621.25 158.547 618.75 161.297 616 159.797C614.286 158.862 574 140.297 572.25 139.297C570.5 138.297 567.75 137.047 567.75 130.047C567.75 121.781 567 37.0473 567 33.0473C567 27.0473 568.353 23.7363 570.75 22.2973Z" fill="#5D6F5B"/>
<path d="M560.25 145.047C560.25 145.047 555.5 147.547 554.5 150.547C553.5 153.547 540.093 191.829 539 194.797C537.25 199.547 537.25 204.797 537.25 208.547C537.25 212.297 537.25 240.297 537.25 244.297C537.25 247.547 540.5 250.547 542.25 251.297C544 252.047 610 282.797 613.75 284.297C616.864 285.543 622 285.797 624.25 284.547C626.5 283.297 661.5 266.047 666 263.297C667.908 262.131 669.5 259.547 669.5 255.797C669.5 252.047 669.5 173.297 669.5 170.297C669.5 166.547 668 164.297 666.5 163.547L646.5 161.547L621.5 169.797L564.5 144.547L560.25 145.047Z" fill="#3A3A3D"/>
<path d="M596 256.297L554.75 236.547L555 241.297L596 261.297V256.297Z" fill="#5D6F5B"/>
<path d="M606.25 134.297L580.25 121.797L580.5 126.547L606.25 139.297V134.297Z" fill="#3A3A3D"/>
<path d="M592.462 208.589C601.368 203.579 604.8 192.787 600.129 184.483C595.458 176.18 584.453 173.509 575.547 178.519C566.642 183.528 563.209 194.321 567.88 202.624C572.551 210.928 583.557 213.598 592.462 208.589Z" fill="#5D6F5B"/>
<path d="M611.72 225.57C615.059 223.51 616.209 219.316 614.288 216.202C612.368 213.088 608.103 212.233 604.763 214.293C601.424 216.353 600.273 220.548 602.194 223.662C604.115 226.776 608.38 227.63 611.72 225.57Z" fill="#5D6F5B"/>
<path d="M554.571 203.298C558.05 201.484 559.499 197.383 557.807 194.138C556.115 190.894 551.923 189.735 548.444 191.549C544.964 193.364 543.515 197.465 545.207 200.709C546.899 203.953 551.091 205.112 554.571 203.298Z" fill="#5D6F5B"/>
<path d="M580.669 53.7933L602.705 61.4793L605.949 92.2773L595.178 88.7303L595.086 106.379L578.096 79.1653L589.046 83.1883L580.669 53.7933Z" fill="#7B633B"/>
<path d="M668.25 158.547V33.7973C668.25 33.7973 668.25 31.7973 665.25 30.7973C662.25 29.7973 600.75 1.29729 600.75 1.29729C600.75 1.29729 597.75 0.297289 595.25 1.29729C592.75 2.29729 560.75 17.7973 560.75 17.7973C560.75 17.7973 558.25 19.7973 558.75 23.2973C559.25 26.7973 559.5 136.547 559.5 139.547C559.5 142.547 559.75 145.297 562.5 147.047C565.542 148.983 626.362 179.29 627.75 180.047C630.5 181.547 632.25 181.547 634.75 180.297C636.164 179.59 664.25 164.797 666.25 163.297C668.25 161.797 668.5 160.547 668.25 158.547Z" stroke="black" stroke-miterlimit="10" stroke-linecap="round" stroke-linejoin="round"/>
<path d="M560 144.797C560 144.797 555.25 147.297 554.25 150.297C553.25 153.297 539.843 191.579 538.75 194.547C537 199.297 537 204.547 537 208.297C537 212.047 537 240.047 537 244.047C537 247.297 540.25 250.297 542 251.047C543.75 251.797 609.75 282.547 613.5 284.047C616.614 285.293 621.75 285.547 624 284.297C626.25 283.047 661.25 265.797 665.75 263.047C667.658 261.881 669.25 259.297 669.25 255.547C669.25 251.797 669.25 173.047 669.25 170.047C669.25 166.297 667.75 164.047 666.25 163.297" stroke="black" stroke-miterlimit="10" stroke-linecap="round" stroke-linejoin="round"/>
<path d="M596 256.297L554.75 236.547L555 241.297L596 261.297V256.297Z" stroke="black" stroke-miterlimit="10" stroke-linecap="round" stroke-linejoin="round"/>
<path d="M606.5 134.547L580.5 122.047L580.75 126.797L606.5 139.547V134.547Z" stroke="black" stroke-miterlimit="10" stroke-linecap="round" stroke-linejoin="round"/>
<path d="M618.75 279.047C618.75 279.047 618.75 252.797 618.75 248.797C618.75 244.797 619.25 238.797 620.75 234.547C621.882 231.341 632 187.547 632 187.547" stroke="black" stroke-miterlimit="10" stroke-linecap="round" stroke-linejoin="round"/>
<path d="M612.5 239.547L541.5 206.797" stroke="black" stroke-miterlimit="10" stroke-linecap="round" stroke-linejoin="round"/>
<path d="M570.75 22.2973C574.5 20.0473 579 17.7973 582 16.5473C585 15.2973 589.5 15.2973 592.25 16.7973C595 18.2973 627.75 34.5473 630.25 35.7973C632.75 37.0473 636.988 39.8083 634 42.2973C631 44.7973 627.42 46.3073 625.25 47.5473C621.75 49.5473 620.75 54.2973 621 57.0473C621.25 59.7973 621.25 152.047 621.25 154.797C621.25 158.547 618.75 161.297 616 159.797C614.286 158.862 574 140.297 572.25 139.297C570.5 138.297 567.75 137.047 567.75 130.047C567.75 121.781 567 37.0473 567 33.0473C567 27.0473 568.353 23.7363 570.75 22.2973Z" stroke="black" stroke-miterlimit="10" stroke-linecap="round" stroke-linejoin="round"/>
<path d="M592.462 208.589C601.368 203.579 604.8 192.787 600.129 184.483C595.458 176.18 584.453 173.509 575.547 178.519C566.642 183.528 563.209 194.321 567.88 202.624C572.551 210.928 583.557 213.598 592.462 208.589Z" stroke="black" stroke-miterlimit="10" stroke-linecap="round" stroke-linejoin="round"/>
<path d="M611.72 225.57C615.059 223.51 616.209 219.316 614.288 216.202C612.368 213.088 608.103 212.233 604.763 214.293C601.424 216.353 600.273 220.548 602.194 223.662C604.115 226.776 608.38 227.63 611.72 225.57Z" stroke="black" stroke-miterlimit="10" stroke-linecap="round" stroke-linejoin="round"/>
<path d="M554.571 203.298C558.05 201.484 559.499 197.383 557.807 194.138C556.115 190.894 551.923 189.735 548.444 191.549C544.964 193.364 543.515 197.465 545.207 200.709C546.899 203.953 551.091 205.112 554.571 203.298Z" stroke="black" stroke-miterlimit="10" stroke-linecap="round" stroke-linejoin="round"/>
<path d="M580.919 54.0433L602.955 61.7293L606.199 92.5273L595.428 88.9803L595.336 106.629L578.346 79.4153L589.296 83.4383L580.919 54.0433Z" stroke="black" stroke-miterlimit="10" stroke-linecap="round" stroke-linejoin="round"/>
<path d="M594.75 179.047C594.75 179.047 573.5 192.047 567.25 201.797" stroke="black" stroke-miterlimit="10" stroke-linecap="round" stroke-linejoin="round"/>
<path d="M600.5 185.297C600.5 185.297 581.25 198.297 573.25 207.797" stroke="black" stroke-miterlimit="10" stroke-linecap="round" stroke-linejoin="round"/>
<path d="M581 176.547C581 176.547 595.5 194.297 599.25 202.297" stroke="black" stroke-miterlimit="10" stroke-linecap="round" stroke-linejoin="round"/>
<path d="M590.25 209.547C590.25 209.547 578.25 189.797 571.25 182.047" stroke="black" stroke-miterlimit="10" stroke-linecap="round" stroke-linejoin="round"/>
<path d="M534.063 158.797V34.0473C534.063 34.0473 534.063 32.0473 531.063 31.0473C528.063 30.0473 466.563 1.54729 466.563 1.54729C466.563 1.54729 463.563 0.547289 461.063 1.54729C458.563 2.54729 426.563 18.0473 426.563 18.0473C426.563 18.0473 424.063 20.0473 424.563 23.5473C425.063 27.0473 425.313 136.797 425.313 139.797C425.313 142.797 425.563 145.547 428.313 147.297C431.355 149.233 492.175 179.54 493.563 180.297C496.313 181.797 498.063 181.797 500.563 180.547C501.977 179.84 530.063 165.047 532.063 163.547C534.063 162.047 534.313 160.797 534.063 158.797Z" fill="#3A3A3D"/>
<path d="M436.813 22.2973C440.563 20.0473 445.063 17.7973 448.063 16.5473C451.063 15.2973 455.563 15.2973 458.313 16.7973C461.063 18.2973 493.813 34.5473 496.313 35.7973C498.813 37.0473 503.051 39.8083 500.063 42.2973C497.063 44.7973 493.483 46.3073 491.313 47.5473C487.813 49.5473 486.813 54.2973 487.063 57.0473C487.313 59.7973 487.313 152.047 487.313 154.797C487.313 158.547 484.813 161.297 482.063 159.797C480.349 158.862 440.063 140.297 438.313 139.297C436.563 138.297 433.813 137.047 433.813 130.047C433.813 121.781 433.063 37.0473 433.063 33.0473C433.063 27.0473 434.416 23.7363 436.813 22.2973Z" fill="#5D6F5B"/>
<path d="M426.313 145.047C426.313 145.047 421.563 147.547 420.563 150.547C419.563 153.547 406.156 191.829 405.063 194.797C403.313 199.547 403.313 204.797 403.313 208.547C403.313 212.297 403.313 240.297 403.313 244.297C403.313 247.547 406.563 250.547 408.313 251.297C410.063 252.047 476.063 282.797 479.813 284.297C482.927 285.543 488.063 285.797 490.313 284.547C492.563 283.297 527.563 266.047 532.063 263.297C533.971 262.131 535.563 259.547 535.563 255.797C535.563 252.047 535.563 173.297 535.563 170.297C535.563 166.547 534.063 164.297 532.563 163.547L512.563 161.547L487.563 169.797L430.563 144.547L426.313 145.047Z" fill="#3A3A3D"/>
<path d="M462.063 256.297L420.813 236.547L421.063 241.297L462.063 261.297V256.297Z" fill="#5D6F5B"/>
<path d="M472.313 134.297L446.313 121.797L446.563 126.547L472.313 139.297V134.297Z" fill="#3A3A3D"/>
<path d="M477.782 225.57C481.122 223.51 482.272 219.316 480.351 216.202C478.43 213.088 474.165 212.233 470.826 214.293C467.486 216.353 466.336 220.548 468.257 223.662C470.178 226.776 474.442 227.63 477.782 225.57Z" fill="#5D6F5B"/>
<path d="M420.633 203.298C424.112 201.484 425.561 197.383 423.87 194.138C422.178 190.894 417.986 189.735 414.506 191.549C411.027 193.364 409.578 197.465 411.27 200.709C412.961 203.953 417.154 205.112 420.633 203.298Z" fill="#5D6F5B"/>
<path d="M534.313 158.547V33.7973C534.313 33.7973 534.313 31.7973 531.313 30.7973C528.313 29.7973 466.813 1.29729 466.813 1.29729C466.813 1.29729 463.813 0.297289 461.313 1.29729C458.813 2.29729 426.813 17.7973 426.813 17.7973C426.813 17.7973 424.313 19.7973 424.813 23.2973C425.313 26.7973 425.563 136.547 425.563 139.547C425.563 142.547 425.813 145.297 428.563 147.047C431.605 148.983 492.425 179.29 493.813 180.047C496.563 181.547 498.313 181.547 500.813 180.297C502.227 179.59 530.313 164.797 532.313 163.297C534.313 161.797 534.563 160.547 534.313 158.547Z" stroke="black" stroke-miterlimit="10" stroke-linecap="round" stroke-linejoin="round"/>
<path d="M426.063 144.797C426.063 144.797 421.313 147.297 420.313 150.297C419.313 153.297 405.906 191.579 404.813 194.547C403.063 199.297 403.063 204.547 403.063 208.297C403.063 212.047 403.063 240.047 403.063 244.047C403.063 247.297 406.313 250.297 408.063 251.047C409.813 251.797 475.813 282.547 479.563 284.047C482.677 285.293 487.813 285.547 490.063 284.297C492.313 283.047 527.313 265.797 531.813 263.047C533.721 261.881 535.313 259.297 535.313 255.547C535.313 251.797 535.313 173.047 535.313 170.047C535.313 166.297 533.813 164.047 532.313 163.297" stroke="black" stroke-miterlimit="10" stroke-linecap="round" stroke-linejoin="round"/>
<path d="M462.063 256.297L420.813 236.547L421.063 241.297L462.063 261.297V256.297Z" stroke="black" stroke-miterlimit="10" stroke-linecap="round" stroke-linejoin="round"/>
<path d="M472.563 134.547L446.563 122.047L446.813 126.797L472.563 139.547V134.547Z" stroke="black" stroke-miterlimit="10" stroke-linecap="round" stroke-linejoin="round"/>
<path d="M484.813 279.047C484.813 279.047 484.813 252.797 484.813 248.797C484.813 244.797 485.313 238.797 486.813 234.547C487.945 231.341 498.063 187.547 498.063 187.547" stroke="black" stroke-miterlimit="10" stroke-linecap="round" stroke-linejoin="round"/>
<path d="M478.563 239.547L407.563 206.797" stroke="black" stroke-miterlimit="10" stroke-linecap="round" stroke-linejoin="round"/>
<path d="M436.813 22.2973C440.563 20.0473 445.063 17.7973 448.063 16.5473C451.063 15.2973 455.563 15.2973 458.313 16.7973C461.063 18.2973 493.813 34.5473 496.313 35.7973C498.813 37.0473 503.051 39.8083 500.063 42.2973C497.063 44.7973 493.483 46.3073 491.313 47.5473C487.813 49.5473 486.813 54.2973 487.063 57.0473C487.313 59.7973 487.313 152.047 487.313 154.797C487.313 158.547 484.813 161.297 482.063 159.797C480.349 158.862 440.063 140.297 438.313 139.297C436.563 138.297 433.813 137.047 433.813 130.047C433.813 121.781 433.063 37.0473 433.063 33.0473C433.063 27.0473 434.416 23.7363 436.813 22.2973Z" stroke="black" stroke-miterlimit="10" stroke-linecap="round" stroke-linejoin="round"/>
<path d="M477.782 225.57C481.122 223.51 482.272 219.316 480.351 216.202C478.43 213.088 474.165 212.233 470.826 214.293C467.486 216.353 466.336 220.548 468.257 223.662C470.178 226.776 474.442 227.63 477.782 225.57Z" stroke="black" stroke-miterlimit="10" stroke-linecap="round" stroke-linejoin="round"/>
<path d="M420.633 203.298C424.112 201.484 425.561 197.383 423.87 194.138C422.178 190.894 417.986 189.735 414.506 191.549C411.027 193.364 409.578 197.465 411.27 200.709C412.961 203.953 417.154 205.112 420.633 203.298Z" stroke="black" stroke-miterlimit="10" stroke-linecap="round" stroke-linejoin="round"/>
<path d="M447.993 56.6965L467.607 63.5379L470.495 90.9513L460.908 87.7941L460.826 103.504L445.703 79.2803L455.449 82.8612L447.993 56.6965Z" fill="#7B633B"/>
<path d="M448.216 56.919L467.83 63.7604L470.717 91.1738L461.13 88.0166L461.048 103.726L445.925 79.5028L455.672 83.0837L448.216 56.919Z" stroke="black" stroke-miterlimit="10" stroke-linecap="round" stroke-linejoin="round"/>
<path d="M456.272 203.87C463.543 199.78 466.346 190.968 462.532 184.188C458.718 177.408 449.732 175.228 442.46 179.318C435.189 183.408 432.387 192.22 436.2 199C440.014 205.78 449.001 207.96 456.272 203.87Z" fill="#5D6F5B"/>
<path d="M456.272 203.87C463.543 199.78 466.346 190.968 462.532 184.188C458.718 177.408 449.732 175.228 442.46 179.318C435.189 183.408 432.387 192.22 436.2 199C440.014 205.78 449.001 207.96 456.272 203.87Z" stroke="black" stroke-miterlimit="10" stroke-linecap="round" stroke-linejoin="round"/>
<path d="M458.14 179.749C458.14 179.749 440.789 190.364 435.686 198.325" stroke="black" stroke-miterlimit="10" stroke-linecap="round" stroke-linejoin="round"/>
<path d="M462.835 184.853C462.835 184.853 447.117 195.467 440.585 203.224" stroke="black" stroke-miterlimit="10" stroke-linecap="round" stroke-linejoin="round"/>
<path d="M446.913 177.708C446.913 177.708 458.752 192.201 461.814 198.733" stroke="black" stroke-miterlimit="10" stroke-linecap="round" stroke-linejoin="round"/>
<path d="M454.465 204.653C454.465 204.653 444.667 188.527 438.952 182.199" stroke="black" stroke-miterlimit="10" stroke-linecap="round" stroke-linejoin="round"/>
<path d="M400.125 158.797V34.0473C400.125 34.0473 400.125 32.0473 397.125 31.0473C394.125 30.0473 332.625 1.54729 332.625 1.54729C332.625 1.54729 329.625 0.547289 327.125 1.54729C324.625 2.54729 292.625 18.0473 292.625 18.0473C292.625 18.0473 290.125 20.0473 290.625 23.5473C291.125 27.0473 291.375 136.797 291.375 139.797C291.375 142.797 291.625 145.547 294.375 147.297C297.417 149.233 358.237 179.54 359.625 180.297C362.375 181.797 364.125 181.797 366.625 180.547C368.039 179.84 396.125 165.047 398.125 163.547C400.125 162.047 400.375 160.797 400.125 158.797Z" fill="#3A3A3D"/>
<path d="M302.875 22.2973C306.625 20.0473 311.125 17.7973 314.125 16.5473C317.125 15.2973 321.625 15.2973 324.375 16.7973C327.125 18.2973 359.875 34.5473 362.375 35.7973C364.875 37.0473 369.113 39.8083 366.125 42.2973C363.125 44.7973 359.545 46.3073 357.375 47.5473C353.875 49.5473 352.875 54.2973 353.125 57.0473C353.375 59.7973 353.375 152.047 353.375 154.797C353.375 158.547 350.875 161.297 348.125 159.797C346.411 158.862 306.125 140.297 304.375 139.297C302.625 138.297 299.875 137.047 299.875 130.047C299.875 121.781 299.125 37.0473 299.125 33.0473C299.125 27.0473 300.478 23.7363 302.875 22.2973Z" fill="#5D6F5B"/>
<path d="M292.375 145.047C292.375 145.047 287.625 147.547 286.625 150.547C285.625 153.547 272.218 191.829 271.125 194.797C269.375 199.547 269.375 204.797 269.375 208.547C269.375 212.297 269.375 240.297 269.375 244.297C269.375 247.547 272.625 250.547 274.375 251.297C276.125 252.047 342.125 282.797 345.875 284.297C348.989 285.543 354.125 285.797 356.375 284.547C358.625 283.297 393.625 266.047 398.125 263.297C400.033 262.131 401.625 259.547 401.625 255.797C401.625 252.047 401.625 173.297 401.625 170.297C401.625 166.547 400.125 164.297 398.625 163.547L378.625 161.547L353.625 169.797L296.625 144.547L292.375 145.047Z" fill="#3A3A3D"/>
<path d="M328.125 256.297L286.875 236.547L287.125 241.297L328.125 261.297V256.297Z" fill="#5D6F5B"/>
<path d="M338.375 134.297L312.375 121.797L312.625 126.547L338.375 139.297V134.297Z" fill="#3A3A3D"/>
<path d="M343.845 225.57C347.184 223.51 348.334 219.316 346.413 216.202C344.493 213.088 340.228 212.233 336.888 214.293C333.549 216.353 332.398 220.548 334.319 223.662C336.24 226.776 340.505 227.63 343.845 225.57Z" fill="#5D6F5B"/>
<path d="M286.695 203.298C290.175 201.484 291.624 197.383 289.932 194.138C288.24 190.894 284.048 189.735 280.569 191.549C277.089 193.364 275.64 197.465 277.332 200.709C279.024 203.953 283.216 205.112 286.695 203.298Z" fill="#5D6F5B"/>
<path d="M400.375 158.547V33.7973C400.375 33.7973 400.375 31.7973 397.375 30.7973C394.375 29.7973 332.875 1.29729 332.875 1.29729C332.875 1.29729 329.875 0.297289 327.375 1.29729C324.875 2.29729 292.875 17.7973 292.875 17.7973C292.875 17.7973 290.375 19.7973 290.875 23.2973C291.375 26.7973 291.625 136.547 291.625 139.547C291.625 142.547 291.875 145.297 294.625 147.047C297.667 148.983 358.487 179.29 359.875 180.047C362.625 181.547 364.375 181.547 366.875 180.297C368.289 179.59 396.375 164.797 398.375 163.297C400.375 161.797 400.625 160.547 400.375 158.547Z" stroke="black" stroke-miterlimit="10" stroke-linecap="round" stroke-linejoin="round"/>
<path d="M292.125 144.797C292.125 144.797 287.375 147.297 286.375 150.297C285.375 153.297 271.968 191.579 270.875 194.547C269.125 199.297 269.125 204.547 269.125 208.297C269.125 212.047 269.125 240.047 269.125 244.047C269.125 247.297 272.375 250.297 274.125 251.047C275.875 251.797 341.875 282.547 345.625 284.047C348.739 285.293 353.875 285.547 356.125 284.297C358.375 283.047 393.375 265.797 397.875 263.047C399.783 261.881 401.375 259.297 401.375 255.547C401.375 251.797 401.375 173.047 401.375 170.047C401.375 166.297 399.875 164.047 398.375 163.297" stroke="black" stroke-miterlimit="10" stroke-linecap="round" stroke-linejoin="round"/>
<path d="M328.125 256.297L286.875 236.547L287.125 241.297L328.125 261.297V256.297Z" stroke="black" stroke-miterlimit="10" stroke-linecap="round" stroke-linejoin="round"/>
<path d="M338.625 134.547L312.625 122.047L312.875 126.797L338.625 139.547V134.547Z" stroke="black" stroke-miterlimit="10" stroke-linecap="round" stroke-linejoin="round"/>
<path d="M350.875 279.047C350.875 279.047 350.875 252.797 350.875 248.797C350.875 244.797 351.375 238.797 352.875 234.547C354.007 231.341 364.125 187.547 364.125 187.547" stroke="black" stroke-miterlimit="10" stroke-linecap="round" stroke-linejoin="round"/>
<path d="M344.625 239.547L273.625 206.797" stroke="black" stroke-miterlimit="10" stroke-linecap="round" stroke-linejoin="round"/>
<path d="M302.875 22.2973C306.625 20.0473 311.125 17.7973 314.125 16.5473C317.125 15.2973 321.625 15.2973 324.375 16.7973C327.125 18.2973 359.875 34.5473 362.375 35.7973C364.875 37.0473 369.113 39.8083 366.125 42.2973C363.125 44.7973 359.545 46.3073 357.375 47.5473C353.875 49.5473 352.875 54.2973 353.125 57.0473C353.375 59.7973 353.375 152.047 353.375 154.797C353.375 158.547 350.875 161.297 348.125 159.797C346.411 158.862 306.125 140.297 304.375 139.297C302.625 138.297 299.875 137.047 299.875 130.047C299.875 121.781 299.125 37.0473 299.125 33.0473C299.125 27.0473 300.478 23.7363 302.875 22.2973Z" stroke="black" stroke-miterlimit="10" stroke-linecap="round" stroke-linejoin="round"/>
<path d="M343.845 225.57C347.184 223.51 348.334 219.316 346.413 216.202C344.493 213.088 340.228 212.233 336.888 214.293C333.549 216.353 332.398 220.548 334.319 223.662C336.24 226.776 340.505 227.63 343.845 225.57Z" stroke="black" stroke-miterlimit="10" stroke-linecap="round" stroke-linejoin="round"/>
<path d="M286.695 203.298C290.175 201.484 291.624 197.383 289.932 194.138C288.24 190.894 284.048 189.735 280.569 191.549C277.089 193.364 275.64 197.465 277.332 200.709C279.024 203.953 283.216 205.112 286.695 203.298Z" stroke="black" stroke-miterlimit="10" stroke-linecap="round" stroke-linejoin="round"/>
<path d="M311.082 49.8536L336.405 58.6858L340.132 94.0768L327.755 90.0008L327.649 110.282L308.126 79.0093L320.709 83.6323L311.082 49.8536Z" fill="#7B633B"/>
<path d="M311.37 50.1408L336.692 58.9731L340.42 94.364L328.042 90.288L327.937 110.569L308.413 79.2966L320.996 83.9196L311.37 50.1408Z" stroke="black" stroke-miterlimit="10" stroke-linecap="round" stroke-linejoin="round"/>
<path d="M325.474 209.451C336.051 203.501 340.128 190.683 334.58 180.821C329.032 170.959 315.96 167.787 305.384 173.737C294.807 179.687 290.73 192.505 296.277 202.367C301.825 212.229 314.897 215.401 325.474 209.451Z" fill="#5D6F5B"/>
<path d="M325.474 209.451C336.051 203.501 340.128 190.683 334.58 180.821C329.032 170.959 315.96 167.787 305.384 173.737C294.807 179.687 290.73 192.505 296.277 202.367C301.825 212.229 314.897 215.401 325.474 209.451Z" stroke="black" stroke-miterlimit="10" stroke-linecap="round" stroke-linejoin="round"/>
<path d="M328.191 174.365C328.191 174.365 302.952 189.805 295.529 201.385" stroke="black" stroke-miterlimit="10" stroke-linecap="round" stroke-linejoin="round"/>
<path d="M335.02 181.788C335.02 181.788 312.157 197.228 302.655 208.511" stroke="black" stroke-miterlimit="10" stroke-linecap="round" stroke-linejoin="round"/>
<path d="M311.86 171.395C311.86 171.395 329.082 192.477 333.536 201.979" stroke="black" stroke-miterlimit="10" stroke-linecap="round" stroke-linejoin="round"/>
<path d="M322.846 210.59C322.846 210.59 308.594 187.132 300.28 177.928" stroke="black" stroke-miterlimit="10" stroke-linecap="round" stroke-linejoin="round"/>
<path d="M266.188 158.797V34.0473C266.188 34.0473 266.188 32.0473 263.188 31.0473C260.188 30.0473 198.688 1.54729 198.688 1.54729C198.688 1.54729 195.688 0.547289 193.188 1.54729C190.688 2.54729 158.688 18.0473 158.688 18.0473C158.688 18.0473 156.188 20.0473 156.688 23.5473C157.188 27.0473 157.438 136.797 157.438 139.797C157.438 142.797 157.688 145.547 160.438 147.297C163.48 149.233 224.3 179.54 225.688 180.297C228.438 181.797 230.188 181.797 232.688 180.547C234.102 179.84 262.188 165.047 264.188 163.547C266.188 162.047 266.438 160.797 266.188 158.797Z" fill="#3A3A3D"/>
<path d="M168.938 22.2973C172.688 20.0473 177.188 17.7973 180.188 16.5473C183.188 15.2973 187.688 15.2973 190.438 16.7973C193.188 18.2973 225.938 34.5473 228.438 35.7973C230.938 37.0473 235.176 39.8083 232.188 42.2973C229.188 44.7973 225.608 46.3073 223.438 47.5473C219.938 49.5473 218.938 54.2973 219.188 57.0473C219.438 59.7973 219.438 152.047 219.438 154.797C219.438 158.547 216.938 161.297 214.188 159.797C212.474 158.862 172.188 140.297 170.438 139.297C168.688 138.297 165.938 137.047 165.938 130.047C165.938 121.781 165.188 37.0473 165.188 33.0473C165.188 27.0473 166.541 23.7363 168.938 22.2973Z" fill="#5D6F5B"/>
<path d="M158.438 145.047C158.438 145.047 153.688 147.547 152.688 150.547C151.688 153.547 138.281 191.829 137.188 194.797C135.438 199.547 135.438 204.797 135.438 208.547C135.438 212.297 135.438 240.297 135.438 244.297C135.438 247.547 138.688 250.547 140.438 251.297C142.188 252.047 208.188 282.797 211.938 284.297C215.052 285.543 220.188 285.797 222.438 284.547C224.688 283.297 259.688 266.047 264.188 263.297C266.096 262.131 267.688 259.547 267.688 255.797C267.688 252.047 267.688 173.297 267.688 170.297C267.688 166.547 266.188 164.297 264.688 163.547L244.688 161.547L219.688 169.797L162.688 144.547L158.438 145.047Z" fill="#3A3A3D"/>
<path d="M194.188 256.297L152.938 236.547L153.188 241.297L194.188 261.297V256.297Z" fill="#5D6F5B"/>
<path d="M204.438 134.297L178.438 121.797L178.688 126.547L204.438 139.297V134.297Z" fill="#3A3A3D"/>
<path d="M209.907 225.57C213.247 223.51 214.397 219.316 212.476 216.202C210.555 213.088 206.29 212.233 202.951 214.293C199.611 216.353 198.461 220.548 200.382 223.662C202.303 226.776 206.567 227.63 209.907 225.57Z" fill="#5D6F5B"/>
<path d="M152.758 203.298C156.237 201.484 157.686 197.383 155.995 194.138C154.303 190.894 150.111 189.735 146.631 191.549C143.152 193.364 141.703 197.465 143.395 200.709C145.086 203.953 149.279 205.112 152.758 203.298Z" fill="#5D6F5B"/>
<path d="M266.438 158.547V33.7973C266.438 33.7973 266.438 31.7973 263.438 30.7973C260.438 29.7973 198.938 1.29729 198.938 1.29729C198.938 1.29729 195.938 0.297289 193.438 1.29729C190.938 2.29729 158.938 17.7973 158.938 17.7973C158.938 17.7973 156.438 19.7973 156.938 23.2973C157.438 26.7973 157.688 136.547 157.688 139.547C157.688 142.547 157.938 145.297 160.688 147.047C163.73 148.983 224.55 179.29 225.938 180.047C228.688 181.547 230.438 181.547 232.938 180.297C234.352 179.59 262.438 164.797 264.438 163.297C266.438 161.797 266.688 160.547 266.438 158.547Z" stroke="black" stroke-miterlimit="10" stroke-linecap="round" stroke-linejoin="round"/>
<path d="M158.188 144.797C158.188 144.797 153.438 147.297 152.438 150.297C151.438 153.297 138.031 191.579 136.938 194.547C135.188 199.297 135.188 204.547 135.188 208.297C135.188 212.047 135.188 240.047 135.188 244.047C135.188 247.297 138.438 250.297 140.188 251.047C141.938 251.797 207.938 282.547 211.688 284.047C214.802 285.293 219.938 285.547 222.188 284.297C224.438 283.047 259.438 265.797 263.938 263.047C265.846 261.881 267.438 259.297 267.438 255.547C267.438 251.797 267.438 173.047 267.438 170.047C267.438 166.297 265.938 164.047 264.438 163.297" stroke="black" stroke-miterlimit="10" stroke-linecap="round" stroke-linejoin="round"/>
<path d="M194.188 256.297L152.938 236.547L153.188 241.297L194.188 261.297V256.297Z" stroke="black" stroke-miterlimit="10" stroke-linecap="round" stroke-linejoin="round"/>
<path d="M204.688 134.547L178.688 122.047L178.938 126.797L204.688 139.547V134.547Z" stroke="black" stroke-miterlimit="10" stroke-linecap="round" stroke-linejoin="round"/>
<path d="M216.938 279.047C216.938 279.047 216.938 252.797 216.938 248.797C216.938 244.797 217.438 238.797 218.938 234.547C220.07 231.341 230.188 187.547 230.188 187.547" stroke="black" stroke-miterlimit="10" stroke-linecap="round" stroke-linejoin="round"/>
<path d="M210.688 239.547L139.688 206.797" stroke="black" stroke-miterlimit="10" stroke-linecap="round" stroke-linejoin="round"/>
<path d="M168.938 22.2973C172.688 20.0473 177.188 17.7973 180.188 16.5473C183.188 15.2973 187.688 15.2973 190.438 16.7973C193.188 18.2973 225.938 34.5473 228.438 35.7973C230.938 37.0473 235.176 39.8083 232.188 42.2973C229.188 44.7973 225.608 46.3073 223.438 47.5473C219.938 49.5473 218.938 54.2973 219.188 57.0473C219.438 59.7973 219.438 152.047 219.438 154.797C219.438 158.547 216.938 161.297 214.188 159.797C212.474 158.862 172.188 140.297 170.438 139.297C168.688 138.297 165.938 137.047 165.938 130.047C165.938 121.781 165.188 37.0473 165.188 33.0473C165.188 27.0473 166.541 23.7363 168.938 22.2973Z" stroke="black" stroke-miterlimit="10" stroke-linecap="round" stroke-linejoin="round"/>
<path d="M209.907 225.57C213.247 223.51 214.397 219.316 212.476 216.202C210.555 213.088 206.29 212.233 202.951 214.293C199.611 216.353 198.461 220.548 200.382 223.662C202.303 226.776 206.567 227.63 209.907 225.57Z" stroke="black" stroke-miterlimit="10" stroke-linecap="round" stroke-linejoin="round"/>
<path d="M152.758 203.298C156.237 201.484 157.686 197.383 155.995 194.138C154.303 190.894 150.111 189.735 146.631 191.549C143.152 193.364 141.703 197.465 143.395 200.709C145.086 203.953 149.279 205.112 152.758 203.298Z" stroke="black" stroke-miterlimit="10" stroke-linecap="round" stroke-linejoin="round"/>
<path d="M182.576 62.3533L197.472 67.5489L199.665 88.3677L192.384 85.97L192.322 97.9003L180.837 79.5042L188.239 82.2237L182.576 62.3533Z" fill="#7B633B"/>
<path d="M182.745 62.5223L197.641 67.7178L199.834 88.5366L192.553 86.1389L192.49 98.0693L181.006 79.6732L188.408 82.3927L182.745 62.5223Z" stroke="black" stroke-miterlimit="10" stroke-linecap="round" stroke-linejoin="round"/>
<path d="M187.744 202.709C194.328 199.006 196.865 191.027 193.412 184.888C189.959 178.749 181.822 176.775 175.239 180.479C168.655 184.182 166.117 192.161 169.57 198.3C173.024 204.439 181.16 206.413 187.744 202.709Z" fill="#5D6F5B"/>
<path d="M187.744 202.709C194.328 199.006 196.865 191.027 193.412 184.888C189.959 178.749 181.822 176.775 175.239 180.479C168.655 184.182 166.117 192.161 169.57 198.3C173.024 204.439 181.16 206.413 187.744 202.709Z" stroke="black" stroke-miterlimit="10" stroke-linecap="round" stroke-linejoin="round"/>
<path d="M189.435 180.869C189.435 180.869 173.725 190.48 169.105 197.688" stroke="black" stroke-miterlimit="10" stroke-linecap="round" stroke-linejoin="round"/>
<path d="M193.686 185.49C193.686 185.49 179.455 195.101 173.54 202.124" stroke="black" stroke-miterlimit="10" stroke-linecap="round" stroke-linejoin="round"/>
<path d="M179.27 179.021C179.27 179.021 189.99 192.144 192.762 198.058" stroke="black" stroke-miterlimit="10" stroke-linecap="round" stroke-linejoin="round"/>
<path d="M186.108 203.418C186.108 203.418 177.237 188.817 172.062 183.087" stroke="black" stroke-miterlimit="10" stroke-linecap="round" stroke-linejoin="round"/>
<path d="M132.25 158.797V34.0473C132.25 34.0473 132.25 32.0473 129.25 31.0473C126.25 30.0473 64.75 1.54729 64.75 1.54729C64.75 1.54729 61.75 0.547289 59.25 1.54729C56.75 2.54729 24.75 18.0473 24.75 18.0473C24.75 18.0473 22.25 20.0473 22.75 23.5473C23.25 27.0473 23.5 136.797 23.5 139.797C23.5 142.797 23.75 145.547 26.5 147.297C29.542 149.233 90.362 179.54 91.75 180.297C94.5 181.797 96.25 181.797 98.75 180.547C100.164 179.84 128.25 165.047 130.25 163.547C132.25 162.047 132.5 160.797 132.25 158.797Z" fill="#3A3A3D"/>
<path d="M35 22.2973C38.75 20.0473 43.25 17.7973 46.25 16.5473C49.25 15.2973 53.75 15.2973 56.5 16.7973C59.25 18.2973 92 34.5473 94.5 35.7973C97 37.0473 101.238 39.8083 98.25 42.2973C95.25 44.7973 91.67 46.3073 89.5 47.5473C86 49.5473 85 54.2973 85.25 57.0473C85.5 59.7973 85.5 152.047 85.5 154.797C85.5 158.547 83 161.297 80.25 159.797C78.536 158.862 38.25 140.297 36.5 139.297C34.75 138.297 32 137.047 32 130.047C32 121.781 31.25 37.0473 31.25 33.0473C31.25 27.0473 32.603 23.7363 35 22.2973Z" fill="#5D6F5B"/>
<path d="M24.5 145.047C24.5 145.047 19.75 147.547 18.75 150.547C17.75 153.547 4.343 191.829 3.25 194.797C1.5 199.547 1.5 204.797 1.5 208.547C1.5 212.297 1.5 240.297 1.5 244.297C1.5 247.547 4.75 250.547 6.5 251.297C8.25 252.047 74.25 282.797 78 284.297C81.114 285.543 86.25 285.797 88.5 284.547C90.75 283.297 125.75 266.047 130.25 263.297C132.158 262.131 133.75 259.547 133.75 255.797C133.75 252.047 133.75 173.297 133.75 170.297C133.75 166.547 132.25 164.297 130.75 163.547L110.75 161.547L85.75 169.797L28.75 144.547L24.5 145.047Z" fill="#3A3A3D"/>
<path d="M60.25 256.297L19 236.547L19.25 241.297L60.25 261.297V256.297Z" fill="#5D6F5B"/>
<path d="M70.5 134.297L44.5 121.797L44.75 126.547L70.5 139.297V134.297Z" fill="#3A3A3D"/>
<path d="M75.9694 225.57C79.3091 223.51 80.4592 219.316 78.5383 216.202C76.6174 213.088 72.3528 212.233 69.0131 214.293C65.6734 216.353 64.5233 220.548 66.4442 223.662C68.3651 226.776 72.6297 227.63 75.9694 225.57Z" fill="#5D6F5B"/>
<path d="M18.8204 203.298C22.2998 201.484 23.7488 197.383 22.057 194.138C20.3651 190.894 16.173 189.735 12.6936 191.549C9.21416 193.364 7.76509 197.465 9.45695 200.709C11.1488 203.953 15.341 205.112 18.8204 203.298Z" fill="#5D6F5B"/>
<path d="M132.5 158.547V33.7973C132.5 33.7973 132.5 31.7973 129.5 30.7973C126.5 29.7973 65 1.29729 65 1.29729C65 1.29729 62 0.297289 59.5 1.29729C57 2.29729 25 17.7973 25 17.7973C25 17.7973 22.5 19.7973 23 23.2973C23.5 26.7973 23.75 136.547 23.75 139.547C23.75 142.547 24 145.297 26.75 147.047C29.792 148.983 90.612 179.29 92 180.047C94.75 181.547 96.5 181.547 99 180.297C100.414 179.59 128.5 164.797 130.5 163.297C132.5 161.797 132.75 160.547 132.5 158.547Z" stroke="black" stroke-miterlimit="10" stroke-linecap="round" stroke-linejoin="round"/>
<path d="M24.25 144.797C24.25 144.797 19.5 147.297 18.5 150.297C17.5 153.297 4.093 191.579 3 194.547C1.25 199.297 1.25 204.547 1.25 208.297C1.25 212.047 1.25 240.047 1.25 244.047C1.25 247.297 4.5 250.297 6.25 251.047C8 251.797 74 282.547 77.75 284.047C80.864 285.293 86 285.547 88.25 284.297C90.5 283.047 125.5 265.797 130 263.047C131.908 261.881 133.5 259.297 133.5 255.547C133.5 251.797 133.5 173.047 133.5 170.047C133.5 166.297 132 164.047 130.5 163.297" stroke="black" stroke-miterlimit="10" stroke-linecap="round" stroke-linejoin="round"/>
<path d="M60.25 256.297L19 236.547L19.25 241.297L60.25 261.297V256.297Z" stroke="black" stroke-miterlimit="10" stroke-linecap="round" stroke-linejoin="round"/>
<path d="M70.75 134.547L44.75 122.047L45 126.797L70.75 139.547V134.547Z" stroke="black" stroke-miterlimit="10" stroke-linecap="round" stroke-linejoin="round"/>
<path d="M83 279.047C83 279.047 83 252.797 83 248.797C83 244.797 83.5 238.797 85 234.547C86.132 231.341 96.25 187.547 96.25 187.547" stroke="black" stroke-miterlimit="10" stroke-linecap="round" stroke-linejoin="round"/>
<path d="M76.75 239.547L5.75 206.797" stroke="black" stroke-miterlimit="10" stroke-linecap="round" stroke-linejoin="round"/>
<path d="M35 22.2973C38.75 20.0473 43.25 17.7973 46.25 16.5473C49.25 15.2973 53.75 15.2973 56.5 16.7973C59.25 18.2973 92 34.5473 94.5 35.7973C97 37.0473 101.238 39.8083 98.25 42.2973C95.25 44.7973 91.67 46.3073 89.5 47.5473C86 49.5473 85 54.2973 85.25 57.0473C85.5 59.7973 85.5 152.047 85.5 154.797C85.5 158.547 83 161.297 80.25 159.797C78.536 158.862 38.25 140.297 36.5 139.297C34.75 138.297 32 137.047 32 130.047C32 121.781 31.25 37.0473 31.25 33.0473C31.25 27.0473 32.603 23.7363 35 22.2973Z" stroke="black" stroke-miterlimit="10" stroke-linecap="round" stroke-linejoin="round"/>
<path d="M75.9694 225.57C79.3091 223.51 80.4592 219.316 78.5383 216.202C76.6174 213.088 72.3528 212.233 69.0131 214.293C65.6734 216.353 64.5233 220.548 66.4442 223.662C68.3651 226.776 72.6297 227.63 75.9694 225.57Z" stroke="black" stroke-miterlimit="10" stroke-linecap="round" stroke-linejoin="round"/>
<path d="M18.8204 203.298C22.2998 201.484 23.7488 197.383 22.057 194.138C20.3651 190.894 16.173 189.735 12.6936 191.549C9.21416 193.364 7.76509 197.465 9.45695 200.709C11.1488 203.953 15.341 205.112 18.8204 203.298Z" stroke="black" stroke-miterlimit="10" stroke-linecap="round" stroke-linejoin="round"/>
<path d="M44.6733 53.2275L67.1812 61.0781L70.4947 92.5357L59.493 88.9128L59.399 106.94L42.0452 79.1429L53.2297 83.2521L44.6733 53.2275Z" fill="#7B633B"/>
<path d="M44.9285 53.4828L67.4365 61.3334L70.7499 92.791L59.7483 89.1681L59.6543 107.195L42.3004 79.3982L53.4849 83.5074L44.9285 53.4828Z" stroke="black" stroke-miterlimit="10" stroke-linecap="round" stroke-linejoin="round"/>
<path d="M55.4484 205.628C63.7612 200.952 66.9653 190.878 62.6051 183.127C58.2449 175.376 47.9715 172.883 39.6587 177.559C31.346 182.236 28.1418 192.31 32.502 200.061C36.8622 207.812 47.1357 210.305 55.4484 205.628Z" fill="#5D6F5B"/>
<path d="M55.4484 205.628C63.7612 200.952 66.9653 190.878 62.6051 183.127C58.2449 175.376 47.9715 172.883 39.6587 177.559C31.346 182.236 28.1418 192.31 32.502 200.061C36.8622 207.812 47.1357 210.305 55.4484 205.628Z" stroke="black" stroke-miterlimit="10" stroke-linecap="round" stroke-linejoin="round"/>
<path d="M57.5838 178.053C57.5838 178.053 37.7479 190.188 31.9138 199.289" stroke="black" stroke-miterlimit="10" stroke-linecap="round" stroke-linejoin="round"/>
<path d="M62.9511 183.887C62.9511 183.887 44.9822 196.022 37.5145 204.89" stroke="black" stroke-miterlimit="10" stroke-linecap="round" stroke-linejoin="round"/>
<path d="M44.7489 175.719C44.7489 175.719 58.284 192.288 61.7844 199.756" stroke="black" stroke-miterlimit="10" stroke-linecap="round" stroke-linejoin="round"/>
<path d="M53.3833 206.523C53.3833 206.523 42.1819 188.087 35.6477 180.853" stroke="black" stroke-miterlimit="10" stroke-linecap="round" stroke-linejoin="round"/>
</svg>
