<svg width="134" height="286" viewBox="0 0 134 286" fill="none" xmlns="http://www.w3.org/2000/svg">
<path d="M131.5 158.444V33.694C131.5 33.694 131.5 31.694 128.5 30.694C125.5 29.694 64 1.19399 64 1.19399C64 1.19399 61 0.193987 58.5 1.19399C56 2.19399 24 17.694 24 17.694C24 17.694 21.5 19.694 22 23.194C22.5 26.694 22.75 136.444 22.75 139.444C22.75 142.444 23 145.194 25.75 146.944C28.792 148.88 89.612 179.187 91 179.944C93.75 181.444 95.5 181.444 98 180.194C99.414 179.487 127.5 164.694 129.5 163.194C131.5 161.694 131.75 160.444 131.5 158.444Z" fill="#3A3A3D"/>
<path d="M34.25 21.944C38 19.694 42.5 17.444 45.5 16.194C48.5 14.944 53 14.944 55.75 16.444C58.5 17.944 91.25 34.194 93.75 35.444C96.25 36.694 100.488 39.455 97.5 41.944C94.5 44.444 90.92 45.954 88.75 47.194C85.25 49.194 84.25 53.944 84.5 56.694C84.75 59.444 84.75 151.694 84.75 154.444C84.75 158.194 82.25 160.944 79.5 159.444C77.786 158.509 37.5 139.944 35.75 138.944C34 137.944 31.25 136.694 31.25 129.694C31.25 121.428 30.5 36.694 30.5 32.694C30.5 26.694 31.853 23.383 34.25 21.944Z" fill="#5D6F5B"/>
<path d="M23.75 144.694C23.75 144.694 19 147.194 18 150.194C17 153.194 3.593 191.476 2.5 194.444C0.75 199.194 0.75 204.444 0.75 208.194C0.75 211.944 0.75 239.944 0.75 243.944C0.75 247.194 4 250.194 5.75 250.944C7.5 251.694 73.5 282.444 77.25 283.944C80.364 285.19 85.5 285.444 87.75 284.194C90 282.944 125 265.694 129.5 262.944C131.408 261.778 133 259.194 133 255.444C133 251.694 133 172.944 133 169.944C133 166.194 131.5 163.944 130 163.194L110 161.194L85 169.444L28 144.194L23.75 144.694Z" fill="#3A3A3D"/>
<path d="M59.5 255.944L18.25 236.194L18.5 240.944L59.5 260.944V255.944Z" fill="#5D6F5B"/>
<path d="M69.75 133.944L43.75 121.444L44 126.194L69.75 138.944V133.944Z" fill="#3A3A3D"/>
<path d="M55.9624 208.236C64.8677 203.226 68.3003 192.434 63.6293 184.13C58.9583 175.826 47.9524 173.156 39.047 178.165C30.1417 183.175 26.7091 193.967 31.3801 202.271C36.0511 210.575 47.057 213.245 55.9624 208.236Z" fill="#5D6F5B"/>
<path d="M75.2194 225.217C78.5591 223.157 79.7092 218.962 77.7883 215.848C75.8674 212.734 71.6028 211.88 68.2631 213.94C64.9234 216 63.7733 220.195 65.6942 223.309C67.6151 226.423 71.8797 227.277 75.2194 225.217Z" fill="#5D6F5B"/>
<path d="M18.0704 202.945C21.5498 201.13 22.9989 197.029 21.307 193.785C19.6152 190.541 15.423 189.381 11.9436 191.196C8.46422 193.01 7.01515 197.111 8.70702 200.356C10.3989 203.6 14.591 204.759 18.0704 202.945Z" fill="#5D6F5B"/>
<path d="M44.169 53.44L66.205 61.126L69.449 91.924L58.678 88.377L58.586 106.026L41.596 78.812L52.546 82.835L44.169 53.44Z" fill="#7B633B"/>
<path d="M131.75 158.194V33.444C131.75 33.444 131.75 31.444 128.75 30.444C125.75 29.444 64.25 0.943987 64.25 0.943987C64.25 0.943987 61.25 -0.0560133 58.75 0.943987C56.25 1.94399 24.25 17.444 24.25 17.444C24.25 17.444 21.75 19.444 22.25 22.944C22.75 26.444 23 136.194 23 139.194C23 142.194 23.25 144.944 26 146.694C29.042 148.63 89.862 178.937 91.25 179.694C94 181.194 95.75 181.194 98.25 179.944C99.664 179.237 127.75 164.444 129.75 162.944C131.75 161.444 132 160.194 131.75 158.194Z" stroke="black" stroke-miterlimit="10" stroke-linecap="round" stroke-linejoin="round"/>
<path d="M23.5 144.444C23.5 144.444 18.75 146.944 17.75 149.944C16.75 152.944 3.343 191.226 2.25 194.194C0.5 198.944 0.5 204.194 0.5 207.944C0.5 211.694 0.5 239.694 0.5 243.694C0.5 246.944 3.75 249.944 5.5 250.694C7.25 251.444 73.25 282.194 77 283.694C80.114 284.94 85.25 285.194 87.5 283.944C89.75 282.694 124.75 265.444 129.25 262.694C131.158 261.528 132.75 258.944 132.75 255.194C132.75 251.444 132.75 172.694 132.75 169.694C132.75 165.944 131.25 163.694 129.75 162.944" stroke="black" stroke-miterlimit="10" stroke-linecap="round" stroke-linejoin="round"/>
<path d="M59.5 255.944L18.25 236.194L18.5 240.944L59.5 260.944V255.944Z" stroke="black" stroke-miterlimit="10" stroke-linecap="round" stroke-linejoin="round"/>
<path d="M70 134.194L44 121.694L44.25 126.444L70 139.194V134.194Z" stroke="black" stroke-miterlimit="10" stroke-linecap="round" stroke-linejoin="round"/>
<path d="M82.25 278.694C82.25 278.694 82.25 252.444 82.25 248.444C82.25 244.444 82.75 238.444 84.25 234.194C85.382 230.988 95.5 187.194 95.5 187.194" stroke="black" stroke-miterlimit="10" stroke-linecap="round" stroke-linejoin="round"/>
<path d="M76 239.194L5 206.444" stroke="black" stroke-miterlimit="10" stroke-linecap="round" stroke-linejoin="round"/>
<path d="M34.25 21.944C38 19.694 42.5 17.444 45.5 16.194C48.5 14.944 53 14.944 55.75 16.444C58.5 17.944 91.25 34.194 93.75 35.444C96.25 36.694 100.488 39.455 97.5 41.944C94.5 44.444 90.92 45.954 88.75 47.194C85.25 49.194 84.25 53.944 84.5 56.694C84.75 59.444 84.75 151.694 84.75 154.444C84.75 158.194 82.25 160.944 79.5 159.444C77.786 158.509 37.5 139.944 35.75 138.944C34 137.944 31.25 136.694 31.25 129.694C31.25 121.428 30.5 36.694 30.5 32.694C30.5 26.694 31.853 23.383 34.25 21.944Z" stroke="black" stroke-miterlimit="10" stroke-linecap="round" stroke-linejoin="round"/>
<path d="M55.9624 208.236C64.8677 203.226 68.3003 192.434 63.6293 184.13C58.9583 175.826 47.9524 173.156 39.047 178.165C30.1417 183.175 26.7091 193.967 31.3801 202.271C36.0511 210.575 47.057 213.245 55.9624 208.236Z" stroke="black" stroke-miterlimit="10" stroke-linecap="round" stroke-linejoin="round"/>
<path d="M75.2194 225.217C78.5591 223.157 79.7092 218.962 77.7883 215.848C75.8674 212.734 71.6028 211.88 68.2631 213.94C64.9234 216 63.7733 220.195 65.6942 223.309C67.6151 226.423 71.8797 227.277 75.2194 225.217Z" stroke="black" stroke-miterlimit="10" stroke-linecap="round" stroke-linejoin="round"/>
<path d="M18.0704 202.945C21.5498 201.13 22.9989 197.029 21.307 193.785C19.6152 190.541 15.423 189.381 11.9436 191.196C8.46422 193.01 7.01515 197.111 8.70702 200.356C10.3989 203.6 14.591 204.759 18.0704 202.945Z" stroke="black" stroke-miterlimit="10" stroke-linecap="round" stroke-linejoin="round"/>
<path d="M44.419 53.69L66.455 61.376L69.699 92.174L58.928 88.627L58.836 106.276L41.846 79.062L52.796 83.085L44.419 53.69Z" stroke="black" stroke-miterlimit="10" stroke-linecap="round" stroke-linejoin="round"/>
<path d="M58.25 178.694C58.25 178.694 37 191.694 30.75 201.444" stroke="black" stroke-miterlimit="10" stroke-linecap="round" stroke-linejoin="round"/>
<path d="M64 184.944C64 184.944 44.75 197.944 36.75 207.444" stroke="black" stroke-miterlimit="10" stroke-linecap="round" stroke-linejoin="round"/>
<path d="M44.5 176.194C44.5 176.194 59 193.944 62.75 201.944" stroke="black" stroke-miterlimit="10" stroke-linecap="round" stroke-linejoin="round"/>
<path d="M53.75 209.194C53.75 209.194 41.75 189.444 34.75 181.694" stroke="black" stroke-miterlimit="10" stroke-linecap="round" stroke-linejoin="round"/>
</svg>
