<?xml version="1.0" encoding="utf-8"?>
<!-- Generator: Adobe Illustrator 16.0.0, SVG Export Plug-In . SVG Version: 6.00 Build 0)  -->
<!DOCTYPE svg PUBLIC "-//W3C//DTD SVG 1.1//EN" "http://www.w3.org/Graphics/SVG/1.1/DTD/svg11.dtd">
<svg version="1.1" id="Layer_1" xmlns="http://www.w3.org/2000/svg" xmlns:xlink="http://www.w3.org/1999/xlink" x="0px" y="0px"
	 width="529.26px" height="481.182px" viewBox="0 0 529.26 481.182" enable-background="new 0 0 529.26 481.182"
	 xml:space="preserve">
<g>
	<g>
		<path fill="#3A3A3D" d="M131.5,158.444V33.694c0,0,0-2-3-3S64,1.194,64,1.194s-3-1-5.5,0S24,17.694,24,17.694s-2.5,2-2,5.5
			s0.75,113.25,0.75,116.25s0.25,5.75,3,7.5c3.042,1.936,63.862,32.243,65.25,33c2.75,1.5,4.5,1.5,7,0.25
			c1.414-0.707,29.5-15.5,31.5-17S131.75,160.444,131.5,158.444z"/>
		<path fill="#5D6F5B" d="M34.25,21.944c3.75-2.25,8.25-4.5,11.25-5.75s7.5-1.25,10.25,0.25s35.5,17.75,38,19s6.738,4.011,3.75,6.5
			c-3,2.5-6.58,4.01-8.75,5.25c-3.5,2-4.5,6.75-4.25,9.5s0.25,95,0.25,97.75c0,3.75-2.5,6.5-5.25,5c-1.714-0.935-42-19.5-43.75-20.5
			s-4.5-2.25-4.5-9.25c0-8.266-0.75-93-0.75-97C30.5,26.694,31.853,23.383,34.25,21.944z"/>
		<path fill="#3A3A3D" d="M23.75,144.694c0,0-4.75,2.5-5.75,5.5s-14.407,41.282-15.5,44.25c-1.75,4.75-1.75,10-1.75,13.75
			s0,31.75,0,35.75c0,3.25,3.25,6.25,5,7s67.75,31.5,71.5,33c3.114,1.246,8.25,1.5,10.5,0.25s37.25-18.5,41.75-21.25
			c1.908-1.166,3.5-3.75,3.5-7.5s0-82.5,0-85.5c0-3.75-1.5-6-3-6.75l-20-2l-25,8.25l-57-25.25L23.75,144.694z"/>
		<polygon fill="#5D6F5B" points="59.5,255.944 18.25,236.194 18.5,240.944 59.5,260.944 		"/>
		<polygon fill="#3A3A3D" points="69.75,133.944 43.75,121.444 44,126.194 69.75,138.944 		"/>
		
			<ellipse transform="matrix(0.8716 -0.4903 0.4903 0.8716 -88.6193 48.1018)" fill="#5D6F5B" cx="47.5" cy="193.194" rx="18.5" ry="17.25"/>
		
			<ellipse transform="matrix(0.8511 -0.525 0.525 0.8511 -104.5989 70.3721)" fill="#5D6F5B" cx="71.75" cy="219.569" rx="7.105" ry="6.625"/>
		
			<ellipse transform="matrix(0.8867 -0.4624 0.4624 0.8867 -89.4182 29.2652)" fill="#5D6F5B" cx="15" cy="197.069" rx="7.105" ry="6.625"/>
		<polygon fill="#7B633B" points="44.169,53.44 66.205,61.126 69.449,91.924 58.678,88.377 58.586,106.026 41.596,78.812 
			52.546,82.835 		"/>
		<path fill="none" stroke="#000000" stroke-linecap="round" stroke-linejoin="round" stroke-miterlimit="10" d="M131.75,158.194
			V33.444c0,0,0-2-3-3s-64.5-29.5-64.5-29.5s-3-1-5.5,0s-34.5,16.5-34.5,16.5s-2.5,2-2,5.5S23,136.194,23,139.194s0.25,5.75,3,7.5
			c3.042,1.936,63.862,32.243,65.25,33c2.75,1.5,4.5,1.5,7,0.25c1.414-0.707,29.5-15.5,31.5-17S132,160.194,131.75,158.194z"/>
		<path fill="none" stroke="#000000" stroke-linecap="round" stroke-linejoin="round" stroke-miterlimit="10" d="M23.5,144.444
			c0,0-4.75,2.5-5.75,5.5s-14.407,41.282-15.5,44.25c-1.75,4.75-1.75,10-1.75,13.75s0,31.75,0,35.75c0,3.25,3.25,6.25,5,7
			s67.75,31.5,71.5,33c3.114,1.246,8.25,1.5,10.5,0.25s37.25-18.5,41.75-21.25c1.908-1.166,3.5-3.75,3.5-7.5s0-82.5,0-85.5
			c0-3.75-1.5-6-3-6.75"/>
		<polygon fill="none" stroke="#000000" stroke-linecap="round" stroke-linejoin="round" stroke-miterlimit="10" points="
			59.5,255.944 18.25,236.194 18.5,240.944 59.5,260.944 		"/>
		<polygon fill="none" stroke="#000000" stroke-linecap="round" stroke-linejoin="round" stroke-miterlimit="10" points="
			70,134.194 44,121.694 44.25,126.444 70,139.194 		"/>
		<path fill="none" stroke="#000000" stroke-linecap="round" stroke-linejoin="round" stroke-miterlimit="10" d="M82.25,278.694
			c0,0,0-26.25,0-30.25s0.5-10,2-14.25c1.132-3.206,11.25-47,11.25-47"/>
		
			<line fill="none" stroke="#000000" stroke-linecap="round" stroke-linejoin="round" stroke-miterlimit="10" x1="76" y1="239.194" x2="5" y2="206.444"/>
		<path fill="none" stroke="#000000" stroke-linecap="round" stroke-linejoin="round" stroke-miterlimit="10" d="M34.25,21.944
			c3.75-2.25,8.25-4.5,11.25-5.75s7.5-1.25,10.25,0.25s35.5,17.75,38,19s6.738,4.011,3.75,6.5c-3,2.5-6.58,4.01-8.75,5.25
			c-3.5,2-4.5,6.75-4.25,9.5s0.25,95,0.25,97.75c0,3.75-2.5,6.5-5.25,5c-1.714-0.935-42-19.5-43.75-20.5s-4.5-2.25-4.5-9.25
			c0-8.266-0.75-93-0.75-97C30.5,26.694,31.853,23.383,34.25,21.944z"/>
		
			<ellipse transform="matrix(0.8716 -0.4903 0.4903 0.8716 -88.6193 48.1018)" fill="none" stroke="#000000" stroke-linecap="round" stroke-linejoin="round" stroke-miterlimit="10" cx="47.5" cy="193.194" rx="18.5" ry="17.25"/>
		
			<ellipse transform="matrix(0.8511 -0.525 0.525 0.8511 -104.5989 70.3721)" fill="none" stroke="#000000" stroke-linecap="round" stroke-linejoin="round" stroke-miterlimit="10" cx="71.75" cy="219.569" rx="7.105" ry="6.625"/>
		
			<ellipse transform="matrix(0.8867 -0.4624 0.4624 0.8867 -89.4182 29.2652)" fill="none" stroke="#000000" stroke-linecap="round" stroke-linejoin="round" stroke-miterlimit="10" cx="15" cy="197.069" rx="7.105" ry="6.625"/>
		<polygon fill="none" stroke="#000000" stroke-linecap="round" stroke-linejoin="round" stroke-miterlimit="10" points="
			44.419,53.69 66.455,61.376 69.699,92.174 58.928,88.627 58.836,106.276 41.846,79.062 52.796,83.085 		"/>
		<path fill="none" stroke="#000000" stroke-linecap="round" stroke-linejoin="round" stroke-miterlimit="10" d="M58.25,178.694
			c0,0-21.25,13-27.5,22.75"/>
		<path fill="none" stroke="#000000" stroke-linecap="round" stroke-linejoin="round" stroke-miterlimit="10" d="M64,184.944
			c0,0-19.25,13-27.25,22.5"/>
		<path fill="none" stroke="#000000" stroke-linecap="round" stroke-linejoin="round" stroke-miterlimit="10" d="M44.5,176.194
			c0,0,14.5,17.75,18.25,25.75"/>
		<path fill="none" stroke="#000000" stroke-linecap="round" stroke-linejoin="round" stroke-miterlimit="10" d="M53.75,209.194
			c0,0-12-19.75-19-27.5"/>
	</g>
	<g>
		<path fill="#3A3A3D" d="M419.25,340.695c0,0-4.75,2.5-5.75,5.5s-14.406,41.282-15.5,44.25c-1.75,4.75-1.75,10-1.75,13.75
			s0,31.75,0,35.75c0,3.25,3.25,6.25,5,7s67.75,31.5,71.5,33c3.114,1.246,8.25,1.5,10.5,0.25s37.5-20.835,42-23.585
			c1.908-1.166,3.25-1.415,3.25-5.165s0-82.5,0-85.5c0-3.75-1.5-6-3-6.75l-20-2l-25,8.25l-57-25.25L419.25,340.695z"/>
		
			<ellipse transform="matrix(0.8511 -0.525 0.525 0.8511 -145.1459 274.0904)" fill="#5D6F5B" cx="410.584" cy="392.903" rx="7.105" ry="6.625"/>
		<path fill="#3A3A3D" d="M527.584,353.944l-0.334-121c0,0-0.25-5.249-3.25-6.249s-64.5-29.5-64.5-29.5s-3-1-5.5,0
			s-34.5,16.5-34.5,16.5s-2.5,2-2,5.5s0.75,113.25,0.75,116.25s0.25,5.75,3,7.5c3.042,1.936,63.862,32.243,65.25,33
			c2.75,1.5,4.5,1.5,7,0.25c1.414-0.707,29.5-15.5,31.5-17S527.834,355.944,527.584,353.944z"/>
		<path fill="#5D6F5B" d="M429.75,217.945c3.75-2.25,8.25-4.5,11.25-5.75s7.5-1.25,10.25,0.25s35.5,17.75,38,19
			s6.738,4.011,3.75,6.5c-3,2.5-6.58,4.01-8.75,5.25c-3.5,2-4.5,6.75-4.25,9.5s0.25,95,0.25,97.75c0,3.75-2.5,6.5-5.25,5
			c-1.715-0.935-42-19.5-43.75-20.5s-4.5-2.25-4.5-9.25c0-8.266-0.75-93-0.75-97C426,222.695,427.354,219.384,429.75,217.945z"/>
		<polygon fill="#3A3A3D" points="465.25,329.945 439.25,317.445 439.5,322.195 465.25,334.945 		"/>
		
			<ellipse transform="matrix(0.8716 -0.4903 0.4903 0.8716 -133.9185 267.1829)" fill="#5D6F5B" cx="443" cy="389.195" rx="18.5" ry="17.25"/>
		
			<ellipse transform="matrix(0.8511 -0.525 0.525 0.8511 -148.608 307.2185)" fill="#5D6F5B" cx="467.25" cy="415.57" rx="7.105" ry="6.625"/>
		<polygon fill="#7B633B" points="439.669,249.441 461.705,257.127 464.949,287.925 454.178,284.378 454.086,302.027 
			437.096,274.813 448.046,278.836 		"/>
		<polygon fill="#5D6F5B" points="455,451.944 413.75,432.194 414,436.944 455,456.944 		"/>
		<g>
			<path fill="none" stroke="#000000" stroke-linecap="round" stroke-linejoin="round" stroke-miterlimit="10" d="M517.75,363.444
				c-8.965,4.889-22.894,11.905-23.917,12.417c-2.5,1.25-4.25,1.25-7-0.25c-1.388-0.757-62.208-31.064-65.25-33
				c-2.75-1.75-3-4.5-3-7.5s-0.25-112.75-0.75-116.25s2-5.5,2-5.5s32-15.5,34.5-16.5s5.5,0,5.5,0s26.422,12.244,45.474,20.963
				c0,0,14.777,6.788,16.777,8.121s5.332,2.332,5.332,9c0,9.333,0.168,114.332,0.168,116.665s0.999,5.502-2.084,7.585
				S517.75,363.444,517.75,363.444z"/>
			<path fill="none" stroke="#000000" stroke-linecap="round" stroke-linejoin="round" stroke-miterlimit="10" d="M419.083,340.361
				c0,0-4.75,2.5-5.75,5.5s-14.407,41.282-15.5,44.25c-1.75,4.75-1.75,10-1.75,13.75s0,31.75,0,35.75c0,3.25,3.25,6.25,5,7
				s67.75,31.5,71.5,33c3.114,1.246,8.25,1.5,10.5,0.25c1.808-1.005,22.884-12.578,34.167-18.417c0,0,8.166-4.833,9.5-6.166
				s1.667-2.333,1.667-7s0.409-77.334,0.333-80.333c-0.166-6.501-2.5-8.833-3.25-8.75"/>
			<polygon fill="none" stroke="#000000" stroke-linecap="round" stroke-linejoin="round" stroke-miterlimit="10" points="
				455.083,451.861 413.833,432.111 414.083,436.861 455.083,456.861 			"/>
			<polygon fill="none" stroke="#000000" stroke-linecap="round" stroke-linejoin="round" stroke-miterlimit="10" points="
				465.583,330.111 439.583,317.611 439.833,322.361 465.583,335.111 			"/>
			<path fill="none" stroke="#000000" stroke-linecap="round" stroke-linejoin="round" stroke-miterlimit="10" d="M477.833,474.611
				c0,0,0-26.25,0-30.25s0.5-10,2-14.25c1.132-3.206,11.25-47,11.25-47"/>
			
				<line fill="none" stroke="#000000" stroke-linecap="round" stroke-linejoin="round" stroke-miterlimit="10" x1="471.583" y1="435.111" x2="400.583" y2="402.361"/>
			<path fill="none" stroke="#000000" stroke-linecap="round" stroke-linejoin="round" stroke-miterlimit="10" d="M429.833,217.861
				c3.75-2.25,8.25-4.5,11.25-5.75s7.5-1.25,10.25,0.25s35.5,17.75,38,19s6.737,4.011,3.75,6.5c-3,2.5-6.579,4.01-8.75,5.25
				c-3.5,2-4.5,6.75-4.25,9.5s0.25,95,0.25,97.75c0,3.75-2.5,6.5-5.25,5c-1.714-0.935-42-19.5-43.75-20.5s-4.5-2.25-4.5-9.25
				c0-8.266-0.75-93-0.75-97C426.083,222.611,427.436,219.3,429.833,217.861z"/>
			
				<ellipse transform="matrix(0.8716 -0.4903 0.4903 0.8716 -133.8667 267.2128)" fill="none" stroke="#000000" stroke-linecap="round" stroke-linejoin="round" stroke-miterlimit="10" cx="443.083" cy="389.111" rx="18.5" ry="17.25"/>
			
				<ellipse transform="matrix(0.8511 -0.525 0.525 0.8511 -148.5516 307.2496)" fill="none" stroke="#000000" stroke-linecap="round" stroke-linejoin="round" stroke-miterlimit="10" cx="467.333" cy="415.486" rx="7.105" ry="6.625"/>
			
				<ellipse transform="matrix(0.8867 -0.4624 0.4624 0.8867 -135.1822 234.3767)" fill="none" stroke="#000000" stroke-linecap="round" stroke-linejoin="round" stroke-miterlimit="10" cx="410.583" cy="392.986" rx="7.105" ry="6.625"/>
			<polygon fill="none" stroke="#000000" stroke-linecap="round" stroke-linejoin="round" stroke-miterlimit="10" points="
				440.002,249.607 462.037,257.293 465.281,288.091 454.512,284.544 454.42,302.193 437.429,274.979 448.379,279.002 			"/>
			<path fill="none" stroke="#000000" stroke-linecap="round" stroke-linejoin="round" stroke-miterlimit="10" d="M453.833,374.611
				c0,0-21.25,13-27.5,22.75"/>
			<path fill="none" stroke="#000000" stroke-linecap="round" stroke-linejoin="round" stroke-miterlimit="10" d="M459.583,380.861
				c0,0-19.25,13-27.25,22.5"/>
			<path fill="none" stroke="#000000" stroke-linecap="round" stroke-linejoin="round" stroke-miterlimit="10" d="M440.083,372.111
				c0,0,14.5,17.75,18.25,25.75"/>
			<path fill="none" stroke="#000000" stroke-linecap="round" stroke-linejoin="round" stroke-miterlimit="10" d="M449.333,405.111
				c0,0-12-19.75-19-27.5"/>
		</g>
	</g>
</g>
</svg>
