<svg width="1920" height="203" viewBox="0 0 1920 203" fill="none" xmlns="http://www.w3.org/2000/svg">
<path d="M1 81.6101L240.66 75.4966H271.393H316.246L376.051 76.3269C376.051 76.3269 432.533 77.9874 435.025 77.9874C437.516 77.9874 504.797 77.9874 516.425 76.3269C528.054 74.6663 572.077 75.4966 581.213 76.3269C590.35 77.1572 642.679 77.9874 647.663 77.9874C652.647 77.9874 735.709 77.1572 739.031 76.3269C742.353 75.4966 832.06 76.3269 835.383 76.3269C838.705 76.3269 905.985 79.648 911.8 79.648C917.614 79.648 980.741 82.9691 984.894 82.9691C989.047 82.9691 1021.44 82.1388 1032.24 79.648C1043.04 77.1572 1072.11 79.648 1080.42 78.8177C1088.72 77.9874 1116.96 78.8177 1119.45 78.8177C1121.95 78.8177 1186.73 77.9874 1200.86 77.1572C1214.98 76.3269 1317.14 79.648 1327.11 79.648C1337.08 79.648 1345.38 79.648 1362.83 79.648C1380.27 79.648 1407.68 79.648 1407.68 79.648C1407.68 79.648 1469.98 80.4783 1484.93 80.4783C1499.88 80.4783 1538.92 80.4783 1555.53 80.4783C1572.14 80.4783 1604.54 80.4783 1619.49 81.3085C1634.44 82.1388 1648.56 81.3085 1653.54 81.3085C1658.53 81.3085 1686.77 79.648 1698.4 78.8177C1710.02 77.9874 1725.81 77.9874 1736.6 77.1572C1747.4 76.3269 1765.68 75.4966 1773.98 75.4966C1782.29 75.4966 1785.61 75.4966 1785.61 75.4966L1919 81.5842V201.974H884.665H369.681L1 202V81.6101Z" fill="#DA4F4D"/>
<path d="M1918.51 81.5839L1785.61 75.772C1785.61 75.772 1782.29 75.772 1773.98 75.772C1765.68 75.772 1747.4 76.6023 1736.6 77.4325C1725.81 78.2628 1710.02 78.2628 1698.4 79.0931C1686.77 79.9234 1658.53 81.5839 1653.54 81.5839C1648.56 81.5839 1634.44 82.4142 1619.49 81.5839C1604.54 80.7536 1572.14 80.7536 1555.53 80.7536C1538.92 80.7536 1499.88 80.7536 1484.93 80.7536C1469.98 80.7536 1407.68 79.9234 1407.68 79.9234C1407.68 79.9234 1380.27 79.9234 1362.83 79.9234C1345.38 79.9234 1337.08 79.9234 1327.11 79.9234C1317.14 79.9234 1214.98 76.6023 1200.86 77.4325C1186.73 78.2628 1121.95 79.0931 1119.45 79.0931C1116.96 79.0931 1088.72 78.2628 1080.42 79.0931C1072.11 79.9234 1043.04 77.4325 1032.24 79.9234C1021.44 82.4142 989.047 83.2444 984.894 83.2444C980.741 83.2444 917.614 79.9234 911.8 79.9234C905.985 79.9234 838.705 76.6023 835.383 76.6023C832.06 76.6023 742.353 75.772 739.031 76.6023C735.709 77.4325 652.647 78.2628 647.663 78.2628C642.679 78.2628 590.35 77.4325 581.213 76.6023C572.077 75.772 528.054 74.9417 516.425 76.6023C504.796 78.2628 437.516 78.2628 435.024 78.2628C432.533 78.2628 376.051 76.6023 376.051 76.6023L316.246 75.772H271.393H240.66L1.44144 81.5839" stroke="black" stroke-miterlimit="10" stroke-linecap="round" stroke-linejoin="round"/>
<path d="M1826.14 172.284C1820.9 169.139 1822.82 163.982 1837.77 162.875C1843.29 162.466 1855.49 159 1861.58 159C1867.67 159 1885.95 162.322 1881.52 166.75C1877.09 171.178 1864.9 169.517 1864.9 169.517C1864.9 169.517 1865.46 175.053 1854.38 175.606C1849.92 175.829 1831.68 175.606 1826.14 172.284Z" fill="#9AD8D7"/>
<path d="M1870.25 177.18C1872.87 173.874 1883.22 174.224 1882.19 177.791C1881.16 181.359 1866.6 181.794 1870.25 177.18Z" fill="#9AD8D7"/>
<path d="M1835 180.035C1836.43 179.017 1845.52 178.928 1842.2 181.695C1838.88 184.462 1831.13 182.803 1835 180.035Z" fill="#9AD8D7"/>
<path d="M1826.38 172.284C1821.14 169.139 1823.06 163.982 1838.01 162.875C1843.54 162.466 1855.73 159 1861.82 159C1867.92 159 1886.19 162.322 1881.76 166.75C1877.33 171.178 1865.15 169.517 1865.15 169.517C1865.15 169.517 1865.7 175.053 1854.63 175.606C1850.17 175.829 1831.92 175.606 1826.38 172.284Z" stroke="black" stroke-miterlimit="10" stroke-linecap="round" stroke-linejoin="round"/>
<path d="M1870.49 177.18C1873.11 173.874 1883.46 174.224 1882.43 177.791C1881.4 181.359 1866.84 181.794 1870.49 177.18Z" stroke="black" stroke-miterlimit="10" stroke-linecap="round" stroke-linejoin="round"/>
<path d="M1835.24 180.035C1836.67 179.017 1845.76 178.928 1842.44 181.695C1839.12 184.462 1831.37 182.803 1835.24 180.035Z" stroke="black" stroke-miterlimit="10" stroke-linecap="round" stroke-linejoin="round"/>
<path d="M492.357 152.591C492.357 152.591 492.969 151.405 493.968 151.038C494.967 150.671 496.274 150.191 496.274 150.191C496.274 150.191 497.614 150.744 498.31 151.448C499.005 152.152 503.711 154.259 503.711 154.259C503.711 154.259 506.959 154.547 508.086 154.046C509.21 153.544 511.537 152.512 512.12 151.252C512.702 149.989 512.836 148.456 512.335 147.331C511.833 146.207 509.846 144.844 508.957 144.56C508.067 144.277 506.016 144.16 505.007 144.268C504 144.379 500.783 145.125 500.39 145.008C499.997 144.891 498.54 144.73 497.979 144.151C497.415 143.572 497.365 141.061 497.365 141.061L499.627 141.275C499.627 141.275 503.103 142.178 503.717 141.95C504.333 141.724 507.161 141.817 508.699 141.251C510.236 140.686 511.818 139.055 511.803 138.537C511.786 138.02 512.215 136.813 511.519 134.451C510.823 132.089 508.687 131.74 507.826 131.536C506.964 131.329 504.787 131.346 503.487 132.084C502.189 132.825 500.388 134.098 499.493 134.515C498.599 134.932 497.243 135.517 495.863 135.328C494.483 135.138 492.157 134.511 492.157 134.511C492.157 134.511 493.581 133.638 494.86 133.079C496.139 132.521 498.635 131.952 499.173 131.753C499.711 131.555 501.925 130.216 502.536 129.031C503.148 127.846 503.516 125.53 503.463 124.675C503.411 123.822 503.464 121.358 501.91 119.748C500.356 118.139 498.669 118.061 498.017 117.952C497.365 117.842 495.505 118.004 495.505 118.004C495.505 118.004 496.69 116.955 496.302 114.48C495.914 112.005 495.359 110.028 493.87 108.83C492.382 107.633 490.613 106.626 488.496 107.754C486.381 108.883 485.582 110.747 485.441 112.02C485.3 113.295 485.813 118.954 485.813 118.954L485.367 124.616C485.367 124.616 485.043 127.528 484.538 128.762C484.032 129.996 482.748 131.254 481.333 130.727C481.333 130.727 480.796 127.61 480.953 126.853C481.11 126.096 481.034 124.465 481.034 124.465L482.171 120.207C482.171 120.207 483.624 114.435 483.381 113.303C483.139 112.171 483.249 109.861 481.355 107.329C479.462 104.797 477.192 104.325 474.469 105.936C471.745 107.55 471.385 110.126 471.187 111.247C470.988 112.367 471.141 115.626 471.857 117.807C472.573 119.988 474.395 125.164 474.395 125.164C474.395 125.164 476.332 129.949 476.356 130.726L474.899 130.565C474.899 130.565 472.795 129.593 471.938 128.686C471.081 127.781 470.606 126.732 470.538 125.361C470.469 123.99 469.875 120.717 469.58 118.732C469.285 116.746 467.901 113.94 466.756 112.964C465.611 111.99 464.301 111.512 462.281 112.43C460.261 113.347 460.014 116.231 460.014 116.231L459.905 116.882C459.905 116.882 458.103 116.498 457.229 116.732C456.355 116.967 455.11 116.901 454.126 119.446C453.142 121.99 453.539 124.724 453.765 125.34C453.991 125.955 454.959 127.869 456.237 128.968C457.516 130.068 458.794 131.17 460.631 131.89C462.469 132.609 465.021 133.851 465.021 133.851L466.081 134.595L467.178 135.677L468.105 136.294C468.105 136.294 468.059 137.358 466.913 138.042C465.769 138.725 464.858 138.622 464.15 138.361C463.442 138.098 461.783 136.44 461.269 135.755C460.755 135.072 459.662 133.293 458.421 132.526C457.179 131.763 455.244 131.252 454.37 131.487C453.496 131.722 452.266 132.174 451.368 133.292L450.931 134.238C450.931 134.238 449.049 134.581 448.102 135.802C447.155 137.025 447.827 140.269 447.827 140.269C447.827 140.269 448.206 142.485 449.47 143.068C450.733 143.65 452.192 144.771 453.363 144.864C454.531 144.956 457.575 144.448 457.575 144.448L460.828 144.035L462.83 144.258C462.83 144.258 462.564 145.666 462.069 146.458C461.576 147.251 460.268 147.732 459.063 147.305C457.858 146.874 455.135 146.83 453.84 146.871C452.545 146.911 450.756 147.744 450.157 148.488C449.558 149.232 449.266 151.522 449.516 152.912C449.768 154.304 451.657 155.877 453.093 156.222C454.53 156.566 455.573 156.792 457.258 155.91C458.941 155.028 460.916 153.516 461.754 152.946C462.592 152.377 464.466 151.775 465.145 151.96C465.825 152.146 467.366 152.539 467.62 153.229C467.875 153.922 468.769 155.163 468.769 155.163L468.636 156.697C468.636 156.697 470.343 156.592 470.812 156.682C471.282 156.769 473.337 157.846 473.337 157.846C473.337 157.846 474.888 156.839 475.348 156.668C475.81 156.498 479.08 156.604 479.08 156.604L480.803 157.017C480.803 157.017 481.568 155.776 482.442 155.541C483.317 155.307 486.558 155.336 486.558 155.336L489.604 155.785L491.171 155.295C491.171 155.295 490.879 154.267 491.017 153.693C491.156 153.12 492.357 152.591 492.357 152.591Z" fill="#E48F4C"/>
<path d="M497.34 155.882C497.34 155.882 494.953 154.648 493.149 154.807C491.346 154.964 489.688 155.931 489.688 155.931C489.688 155.931 486.334 154.872 483.269 155.423C480.206 155.977 480.642 158.395 480.642 158.395" stroke="black" stroke-miterlimit="10" stroke-linecap="round" stroke-linejoin="round"/>
<path d="M497.358 153.216C497.358 153.216 493.168 152.141 491.804 152.886C490.438 153.631 491.213 155.155 491.213 155.155" stroke="black" stroke-miterlimit="10" stroke-linecap="round" stroke-linejoin="round"/>
<path d="M472.17 159.422C472.17 159.422 473.272 157.227 475.5 156.657C477.73 156.088 480.542 156.913 480.542 156.913" stroke="black" stroke-miterlimit="10" stroke-linecap="round" stroke-linejoin="round"/>
<path d="M464.447 158.152C464.447 158.152 466.72 156.91 469.169 156.634C471.616 156.36 473.169 157.577 473.169 157.577" stroke="black" stroke-miterlimit="10" stroke-linecap="round" stroke-linejoin="round"/>
<path d="M464.7 154.943C464.7 154.943 467.763 154.391 468.452 155.432" stroke="black" stroke-miterlimit="10" stroke-linecap="round" stroke-linejoin="round"/>
<path d="M492.362 152.286C492.362 152.286 493.914 150.508 496.135 150.357" stroke="black" stroke-miterlimit="10" stroke-linecap="round" stroke-linejoin="round"/>
<path d="M492.233 150.186C492.233 150.186 495.169 149.159 497.453 150.744C499.737 152.329 502.581 154.937 506.957 154.273C511.332 153.609 513.151 150.534 512.593 148.139C512.035 145.743 508.498 144.134 506.498 144.119C504.496 144.105 500.858 145.386 498.989 144.724C497.121 144.063 496.398 142.819 496.398 142.819" stroke="black" stroke-miterlimit="10" stroke-linecap="round" stroke-linejoin="round"/>
<path d="M497.467 141.129C497.467 141.129 497.233 143.292 498.342 144.59" stroke="black" stroke-miterlimit="10" stroke-linecap="round" stroke-linejoin="round"/>
<path d="M496.378 141.324C496.378 141.324 497.642 140.722 500.522 141.451C503.402 142.18 507.742 142.022 510.086 140.476C512.43 138.93 512.631 135.896 511.086 133.554C509.539 131.211 506.164 131.195 503.932 131.973C501.699 132.751 498.848 135.636 496.321 135.469C493.792 135.299 492.046 134.616 492.046 134.616" stroke="black" stroke-miterlimit="10" stroke-linecap="round" stroke-linejoin="round"/>
<path d="M490.505 135.769C490.505 135.769 492.057 133.991 495.356 132.897C498.655 131.802 502.305 131.269 503.18 127.116C504.054 122.964 502.73 119.083 499.587 118.277C496.444 117.47 493.321 118.158 492.339 120.333C491.358 122.507 491.144 126.166 489.414 129.724C487.684 133.28 486.089 133.444 484.715 133.443" stroke="black" stroke-miterlimit="10" stroke-linecap="round" stroke-linejoin="round"/>
<path d="M482.112 130.791C482.112 130.791 484.027 130.321 484.689 128.454C485.351 126.586 485.996 120.478 485.692 117.413C485.389 114.346 484.504 110.136 487.992 108.01C491.48 105.882 494.268 108.875 495.41 111.041C496.549 113.206 496.754 116.416 495.62 117.744" stroke="black" stroke-miterlimit="10" stroke-linecap="round" stroke-linejoin="round"/>
<path d="M486.678 144.323C486.678 144.323 487.829 145.863 489.875 146.118C491.918 146.374 495.153 144.917 495.125 141.301C495.097 137.686 492.132 135.1 489.108 135.645C486.085 136.19 485.906 139.344 485.906 139.344" stroke="black" stroke-miterlimit="10" stroke-linecap="round" stroke-linejoin="round"/>
<path d="M482.405 142.098C482.405 142.098 481.097 142.458 478.977 141.093C476.858 139.727 475.981 137.638 473.639 137.812C471.298 137.985 469.832 140.245 469.685 142.893C469.539 145.54 470.725 146.575 472.857 147.314C474.987 148.053 476.44 146.419 477.991 146.014C479.542 145.611 481.925 147.053 481.925 147.053" stroke="black" stroke-miterlimit="10" stroke-linecap="round" stroke-linejoin="round"/>
<path d="M482.885 137.142C482.885 137.142 481.635 134.371 480.644 135.798C479.654 137.225 479.948 138.171 481.06 138.095" stroke="black" stroke-miterlimit="10" stroke-linecap="round" stroke-linejoin="round"/>
<path d="M488.693 149.95C488.693 149.95 491.066 150.646 491.509 148.944C491.951 147.242 489.785 147.007 489.246 147.48" stroke="black" stroke-miterlimit="10" stroke-linecap="round" stroke-linejoin="round"/>
<path d="M485.374 149.551C485.374 149.551 487.045 149.125 486.97 148.015C486.895 146.906 485.191 146.463 484.52 147.582" stroke="black" stroke-miterlimit="10" stroke-linecap="round" stroke-linejoin="round"/>
<path d="M481.02 150.337C481.02 150.337 479.329 149.27 478.614 150.147C477.898 151.023 478.016 152.376 479.05 152.564C480.083 152.753 481.204 152.051 481.204 152.051" stroke="black" stroke-miterlimit="10" stroke-linecap="round" stroke-linejoin="round"/>
<path d="M474.226 150.064C474.226 150.064 473.779 148.272 472.579 149.238C471.38 150.202 471.663 151.774 472.476 152.126C473.289 152.48 474.313 151.92 474.313 151.92" stroke="black" stroke-miterlimit="10" stroke-linecap="round" stroke-linejoin="round"/>
<path d="M475.523 135.1C475.523 135.1 477.515 132.993 475.971 129.276C474.426 125.558 471.271 117.765 471.121 114.172C470.972 110.579 471.484 106.492 476.036 105.422C480.589 104.35 482.704 108.464 483.282 112.354C483.859 116.244 480.804 123.537 481.011 125.372C481.217 127.207 480.433 130.47 481.926 131.824" stroke="black" stroke-miterlimit="10" stroke-linecap="round" stroke-linejoin="round"/>
<path d="M475.1 130.682C475.1 130.682 471.749 129.415 471.016 127.424C470.281 125.434 470.301 119.312 468.657 115.74C467.013 112.167 464.661 111.593 462.308 112.392C459.954 113.19 459.926 117.19 459.926 117.19" stroke="black" stroke-miterlimit="10" stroke-linecap="round" stroke-linejoin="round"/>
<path d="M472.665 134.491C472.665 134.491 469.699 133.278 468.546 131.739C467.394 130.199 465.579 122.912 464.505 121.107C463.431 119.304 459.951 115.937 457.09 116.702C454.232 117.467 452.929 121.322 453.64 124.565C454.349 127.807 456.777 129.493 458.511 130.803C460.247 132.111 465.5 133.537 466.487 134.857C467.474 136.177 470.012 137.093 470.867 139.06" stroke="black" stroke-miterlimit="10" stroke-linecap="round" stroke-linejoin="round"/>
<path d="M468.534 141.353C468.534 141.353 466.335 141.625 464.731 141.041C463.127 140.456 458.844 137.485 457.373 136.251C455.902 135.017 452.078 133.21 449.274 134.965C446.468 136.718 447.606 140.259 448.538 141.964C449.469 143.667 452.677 144.836 454.052 144.838C455.427 144.841 459.901 144.033 461.396 144.015C462.892 143.995 465.187 144.953 466.594 145.823" stroke="black" stroke-miterlimit="10" stroke-linecap="round" stroke-linejoin="round"/>
<path d="M462.582 145.048C462.582 145.048 462.205 147.112 460.633 147.396C459.06 147.681 455.368 146.598 452.829 147.055C450.289 147.515 449.242 149.325 449.446 152.535C449.651 155.743 454.354 156.893 455.904 156.488C457.455 156.085 462.077 152.63 463.485 152.126C464.892 151.623 467.024 152.361 467.703 153.361C468.384 154.363 469.074 156.111 468.536 156.584" stroke="black" stroke-miterlimit="10" stroke-linecap="round" stroke-linejoin="round"/>
<path d="M468.068 136.693C468.068 136.693 467.526 138.539 465.548 138.646C463.568 138.754 461.33 136.035 460.442 134.573C459.554 133.111 457.062 131.064 454.28 131.564C451.497 132.066 450.878 134.176 450.878 134.176" stroke="black" stroke-miterlimit="10" stroke-linecap="round" stroke-linejoin="round"/>
<path d="M553.553 160.794C553.553 160.794 549.053 156.911 550.591 155.517C552.127 154.123 555.407 158.672 555.407 158.672" stroke="black" stroke-miterlimit="10" stroke-linecap="round" stroke-linejoin="round"/>
<path d="M561.072 160.329C561.072 160.329 561.95 150.342 559.315 150.592C556.677 150.846 558.203 156.825 558.203 156.825" stroke="black" stroke-miterlimit="10" stroke-linecap="round" stroke-linejoin="round"/>
<path d="M558.67 159.422C558.67 159.422 558.154 154.005 555.594 151.041C551.92 146.787 549.559 146.096 548.713 147.588C547.865 149.082 554.699 157.232 554.699 157.232" stroke="black" stroke-miterlimit="10" stroke-linecap="round" stroke-linejoin="round"/>
<path d="M544.227 161.135C544.227 161.135 546.234 159.878 548.3 160.175C550.365 160.473 552.273 162.366 552.273 162.366" stroke="black" stroke-miterlimit="10" stroke-linecap="round" stroke-linejoin="round"/>
<path d="M572.307 159.421C572.307 159.421 569.651 158.336 566.581 158.667C563.512 158.999 563.136 160.629 563.136 160.629" stroke="black" stroke-miterlimit="10" stroke-linecap="round" stroke-linejoin="round"/>
<path d="M584.147 163.098C584.147 163.098 579.643 161.674 576.769 163.088C575.002 163.956 570.71 161.722 570.71 161.722" stroke="black" stroke-miterlimit="10" stroke-linecap="round" stroke-linejoin="round"/>
<path d="M549.614 163.737C549.614 163.737 548.16 163.107 546.504 163.852" stroke="black" stroke-miterlimit="10" stroke-linecap="round" stroke-linejoin="round"/>
<path d="M564.236 161.771C564.236 161.771 561.72 160.213 559.121 160.683C556.524 161.151 556.049 163.47 556.049 163.47" stroke="black" stroke-miterlimit="10" stroke-linecap="round" stroke-linejoin="round"/>
<path d="M550.718 162.421C550.718 162.421 554.458 160.855 556.326 162.529" stroke="black" stroke-miterlimit="10" stroke-linecap="round" stroke-linejoin="round"/>
<path d="M523.49 106.103C523.49 106.103 521.4 106.978 520.311 107.174C519.223 107.37 517.389 106.203 516.785 106.312C516.179 106.421 515.135 106.859 515.135 106.859" stroke="black" stroke-miterlimit="10" stroke-linecap="round" stroke-linejoin="round"/>
<path d="M511.199 107.194C511.199 107.194 512.991 106.748 513.981 106.693C514.971 106.64 515.958 107.959 515.958 107.959" stroke="black" stroke-miterlimit="10" stroke-linecap="round" stroke-linejoin="round"/>
<path d="M521.174 111.263C521.174 111.263 522.693 109.99 523.541 109.837C524.387 109.685 526.035 110.511 526.035 110.511C526.035 110.511 528.354 110.217 529.124 110.329C529.894 110.441 530.245 111.001 531.114 110.969" stroke="black" stroke-miterlimit="10" stroke-linecap="round" stroke-linejoin="round"/>
<path d="M506.551 113.275C506.551 113.275 504.596 112.13 503.145 112.393C501.693 112.654 499.626 113.651 499.626 113.651C499.626 113.651 497.394 113.054 496.548 113.207" stroke="black" stroke-miterlimit="10" stroke-linecap="round" stroke-linejoin="round"/>
<path d="M1309.53 165.75C1309.53 165.75 1306.19 164.418 1305.02 160.899C1303.85 157.379 1302.92 150.524 1299.2 150.925C1295.49 151.326 1295.76 155.619 1296.28 157.669C1296.8 159.717 1298.24 164.26 1297.86 167.083C1297.49 169.906 1295.52 172.862 1295.52 172.862" stroke="black" stroke-miterlimit="10" stroke-linecap="round" stroke-linejoin="round"/>
<path d="M1285.76 170.982C1285.76 170.982 1285.54 163.676 1284.69 160.347C1283.84 157.017 1278.3 137.428 1277.32 133.587C1276.35 129.745 1277.23 126.794 1280.05 126.075C1282.87 125.359 1286.48 129.893 1287.13 133.543C1287.79 137.194 1290.97 145.384 1291.75 148.457C1292.54 151.531 1295.09 162.607 1297.47 164.456" stroke="black" stroke-miterlimit="10" stroke-linecap="round" stroke-linejoin="round"/>
<path d="M1279.16 171.844C1279.16 171.844 1281.2 169.143 1280.61 166.839C1280.03 164.534 1278.53 159.732 1280.77 158.89C1282.25 158.331 1283.72 158.685 1284.76 161.693" stroke="black" stroke-miterlimit="10" stroke-linecap="round" stroke-linejoin="round"/>
<path d="M1275.96 173.204C1275.96 173.204 1282.1 170.549 1286.6 172.131" stroke="black" stroke-miterlimit="10" stroke-linecap="round" stroke-linejoin="round"/>
<path d="M1315.8 163.607C1315.8 163.607 1309.52 164.661 1308.45 167.934" stroke="black" stroke-miterlimit="10" stroke-linecap="round" stroke-linejoin="round"/>
<path d="M1292.13 174.543C1292.13 174.543 1293.27 171.525 1298.6 173.169" stroke="black" stroke-miterlimit="10" stroke-linecap="round" stroke-linejoin="round"/>
<path d="M1305 171.538C1305 171.538 1298.85 172.013 1297.52 175.352" stroke="black" stroke-miterlimit="10" stroke-linecap="round" stroke-linejoin="round"/>
<path d="M1283.6 174.261C1283.6 174.261 1287.75 171.294 1289.61 171.094C1291.47 170.894 1293.46 172.294 1293.46 172.294" stroke="black" stroke-miterlimit="10" stroke-linecap="round" stroke-linejoin="round"/>
<path d="M1270.5 171.049C1270.5 171.049 1273.76 168.855 1276.79 172.175" stroke="black" stroke-miterlimit="10" stroke-linecap="round" stroke-linejoin="round"/>
<path d="M1315.36 166.172C1315.36 166.172 1316.05 162.452 1319.26 162.181C1322.46 161.91 1324.59 163.824 1324.59 163.824" stroke="black" stroke-miterlimit="10" stroke-linecap="round" stroke-linejoin="round"/>
<path d="M1280.39 130.626C1283.26 128.668 1284.84 135.4 1283.43 136.124C1280.61 137.567 1277.83 132.368 1280.39 130.626Z" stroke="black" stroke-miterlimit="10" stroke-linecap="round" stroke-linejoin="round"/>
<path d="M1299.86 154.576C1302.12 153.795 1302.57 158.794 1301.1 159.44C1299.63 160.088 1296.85 155.614 1299.86 154.576Z" stroke="black" stroke-miterlimit="10" stroke-linecap="round" stroke-linejoin="round"/>
<path d="M766.859 149.905L753.8 131L746.415 140.542L738.849 150.085C738.849 150.085 740.741 150.265 741.641 151.074C742.542 151.885 743.532 152.694 743.532 152.694C743.532 152.694 744.433 154.405 744.523 155.756C744.523 155.756 746.775 155.486 748.756 155.936C750.737 156.386 751.728 156.925 752.358 158.187C752.358 158.187 754.34 158.006 755.241 158.547C755.241 158.547 757.402 156.656 758.482 156.206C759.563 155.757 761.634 154.856 761.634 154.856C761.634 154.856 762.174 153.686 764.246 153.056C764.247 153.056 765.598 150.625 766.859 149.905Z" fill="#ECFB8F"/>
<path d="M724.133 169.26L722.401 170.414" stroke="black" stroke-miterlimit="10" stroke-linecap="round" stroke-linejoin="round"/>
<path d="M719.807 168.395L717.5 169.259" stroke="black" stroke-miterlimit="10" stroke-linecap="round" stroke-linejoin="round"/>
<path d="M766.37 149.231L753.829 131.074L738.693 150.528" stroke="black" stroke-miterlimit="10" stroke-linecap="round" stroke-linejoin="round"/>
<path d="M754.262 156.579L753.397 133.668" stroke="black" stroke-miterlimit="10" stroke-linecap="round" stroke-linejoin="round"/>
<path d="M771.994 151.681C771.994 151.681 770.552 148.223 767.38 149.664C766.069 150.26 764.208 152.833 764.208 152.833" stroke="black" stroke-miterlimit="10" stroke-linecap="round" stroke-linejoin="round"/>
<path d="M767.092 152.545C767.092 152.545 762.765 152.834 761.613 154.851C761.613 154.851 756.713 156.579 755.27 158.597C755.27 158.597 753.251 157.444 750.08 158.885" stroke="black" stroke-miterlimit="10" stroke-linecap="round" stroke-linejoin="round"/>
<path d="M744.602 156.003C744.602 156.003 750.946 155.139 752.099 157.733" stroke="black" stroke-miterlimit="10" stroke-linecap="round" stroke-linejoin="round"/>
<path d="M740.566 147.933C740.566 147.933 740.566 138.711 738.26 137.558C735.953 136.405 737.683 147.358 737.683 147.358C737.683 147.358 734.799 136.982 731.628 136.982C728.457 136.982 734.224 150.816 734.224 150.816C734.224 150.816 729.899 145.916 728.745 145.916C727.591 145.916 731.051 153.121 731.051 153.121" stroke="black" stroke-miterlimit="10" stroke-linecap="round" stroke-linejoin="round"/>
<path d="M737.107 150.816C737.107 150.816 739.125 149.087 742.873 151.97" stroke="black" stroke-miterlimit="10" stroke-linecap="round" stroke-linejoin="round"/>
<path d="M995.938 129.023C995.938 129.023 1000.59 127.016 1003.56 126.821C1007.31 126.573 1011.77 127.887 1011.77 127.887" stroke="black" stroke-miterlimit="10" stroke-linecap="round" stroke-linejoin="round"/>
<path d="M1011.49 127.514C1011.49 127.514 1014.61 126.114 1017.07 125.676C1019.52 125.239 1022.91 126.53 1022.91 126.53" stroke="black" stroke-miterlimit="10" stroke-linecap="round" stroke-linejoin="round"/>
<path d="M1060.33 123.14C1060.33 123.14 1057.03 120.991 1053.07 121.784C1049.12 122.577 1049.15 124.593 1049.15 124.593" stroke="black" stroke-miterlimit="10" stroke-linecap="round" stroke-linejoin="round"/>
<path d="M1049.61 123.665C1049.61 123.665 1045.36 122.315 1041.37 122.395C1037.38 122.475 1034.71 125.269 1034.71 125.269" stroke="black" stroke-miterlimit="10" stroke-linecap="round" stroke-linejoin="round"/>
<path d="M1021.91 127.975C1021.91 127.975 1026.13 124.481 1029.61 123.859C1031.45 123.532 1035.35 124.102 1035.35 124.102" stroke="black" stroke-miterlimit="10" stroke-linecap="round" stroke-linejoin="round"/>
<path d="M1018.23 115.137C1018.23 115.137 1022.29 112.726 1026.5 114.224" stroke="black" stroke-miterlimit="10" stroke-linecap="round" stroke-linejoin="round"/>
<path d="M1005.51 110.095C1005.51 110.095 1009.93 106.494 1013.15 108.734" stroke="black" stroke-miterlimit="10" stroke-linecap="round" stroke-linejoin="round"/>
<path d="M1055.93 140.46C1055.93 140.46 1059.36 137.601 1062.57 139.839" stroke="black" stroke-miterlimit="10" stroke-linecap="round" stroke-linejoin="round"/>
<path d="M976.5 152.379C976.5 152.379 982.711 146.211 985.476 149.091" stroke="black" stroke-miterlimit="10" stroke-linecap="round" stroke-linejoin="round"/>
<path d="M997.02 147.596C997.02 147.596 987.655 148.703 983.878 152.75" stroke="black" stroke-miterlimit="10" stroke-linecap="round" stroke-linejoin="round"/>
<path d="M1196.47 92.9753L1196.37 71.8033L1188.37 58L1180.17 66.199L1176.12 69.8314L1163.66 97.4381L1164.08 98.1646C1164.08 98.1646 1166.26 95.9851 1168.02 96.2964C1169.79 96.6078 1172.28 98.5797 1172.28 98.5797L1175.19 99.3062L1176.95 100.552C1176.95 100.552 1178.3 98.8911 1179.34 98.8911C1180.38 98.8911 1181.42 99.41 1181.42 99.41C1181.42 99.41 1184.01 98.8911 1185.15 98.9948C1186.3 99.0986 1188.27 99.41 1188.27 99.41C1188.27 99.41 1188.79 97.5419 1189.41 97.3343C1190.03 97.1267 1192.42 96.8154 1192.42 96.8154C1192.42 96.8154 1192.53 95.051 1193.25 94.4283C1193.98 93.8056 1196.47 92.9753 1196.47 92.9753Z" fill="#61EA67"/>
<path d="M1152.45 92.9507C1152.45 92.9507 1155.5 91.5675 1158.82 92.9507" stroke="black" stroke-miterlimit="10" stroke-linecap="round" stroke-linejoin="round"/>
<path d="M1156.61 96.2716C1156.61 96.2716 1161.04 94.8884 1164.36 97.9321C1164.36 97.9321 1166.85 94.3346 1172.66 98.7624C1172.66 98.7624 1175.71 98.7625 1177.09 100.699C1177.09 100.699 1179.03 97.3792 1181.52 99.5927C1181.52 99.5927 1185.4 98.2095 1188.45 99.5927C1188.45 99.5927 1187.89 97.1011 1192.32 96.8246C1196.75 96.5481 1196.75 97.9321 1196.75 97.9321C1196.75 97.9321 1198.69 95.4413 1202.01 96.5481" stroke="black" stroke-miterlimit="10" stroke-linecap="round" stroke-linejoin="round"/>
<path d="M1208.38 92.6729C1208.38 92.6729 1205.89 91.2897 1203.4 93.2266" stroke="black" stroke-miterlimit="10" stroke-linecap="round" stroke-linejoin="round"/>
<path d="M1192.32 96.8244C1192.32 96.8244 1192.32 93.2268 1196.48 93.2268C1200.63 93.2268 1202.84 92.9495 1204.23 94.3336" stroke="black" stroke-miterlimit="10" stroke-linecap="round" stroke-linejoin="round"/>
<path d="M1211.15 98.2087C1211.15 98.2087 1208.38 96.5482 1206.72 98.2087" stroke="black" stroke-miterlimit="10" stroke-linecap="round" stroke-linejoin="round"/>
<path d="M1196.48 93.227V71.9163C1196.48 71.9163 1188.45 57.2486 1188.45 58.0789C1188.45 58.9092 1176.26 69.9792 1176.26 69.9792L1164.08 96.8246" stroke="black" stroke-miterlimit="10" stroke-linecap="round" stroke-linejoin="round"/>
<path d="M1177.92 72.4697L1182.36 79.3884" stroke="black" stroke-miterlimit="10" stroke-linecap="round" stroke-linejoin="round"/>
<path d="M1195.09 73.3008L1185.4 81.0498" stroke="black" stroke-miterlimit="10" stroke-linecap="round" stroke-linejoin="round"/>
<path d="M1184.29 83.2637L1181.52 99.5927" stroke="black" stroke-miterlimit="10" stroke-linecap="round" stroke-linejoin="round"/>
<path d="M1170.24 101.944C1170.24 101.944 1172.11 103.812 1173.56 104.02C1175.02 104.228 1177.3 104.02 1179.59 106.718" stroke="black" stroke-miterlimit="10" stroke-linecap="round" stroke-linejoin="round"/>
<path d="M1189.97 107.341C1189.97 107.341 1193.71 110.454 1196.2 110.454C1198.69 110.454 1200.35 110.039 1201.81 110.662C1203.26 111.285 1205.34 113.775 1205.34 113.775" stroke="black" stroke-miterlimit="10" stroke-linecap="round" stroke-linejoin="round"/>
<path d="M1140.13 112.53L1139.09 113.153" stroke="black" stroke-miterlimit="10" stroke-linecap="round" stroke-linejoin="round"/>
<path d="M1133.16 92.502L1131.5 93.3322" stroke="black" stroke-miterlimit="10" stroke-linecap="round" stroke-linejoin="round"/>
<path d="M64.662 146.745C64.662 146.745 68.3275 138.972 75.5872 145.823C84.0802 153.838 90.1604 150.878 90.1604 150.878C90.1604 150.878 97.6999 147.099 102.579 149.044" stroke="black" stroke-miterlimit="10" stroke-linecap="round" stroke-linejoin="round"/>
<path d="M69.2454 153.33C69.2454 153.33 67.0451 148.213 62.7508 146.219C58.4565 144.225 56.6092 150.272 56.6092 150.272" stroke="black" stroke-miterlimit="10" stroke-linecap="round" stroke-linejoin="round"/>
<path d="M53.1704 154.617C53.1704 154.617 50.9726 150.01 46.5429 153.331" stroke="black" stroke-miterlimit="10" stroke-linecap="round" stroke-linejoin="round"/>
<path d="M101.364 151.67C101.364 151.67 101.917 148.349 109.116 147.242C116.315 146.135 119.083 153.884 119.083 153.884" stroke="black" stroke-miterlimit="10" stroke-linecap="round" stroke-linejoin="round"/>
<path d="M130.712 148.902C130.712 148.902 132.927 144.475 138.464 147.796" stroke="black" stroke-miterlimit="10" stroke-linecap="round" stroke-linejoin="round"/>
<path d="M25.5 154.439C25.5 154.439 28.2684 149.457 32.699 149.457C37.1295 149.457 37.1287 153.885 37.1287 153.885" stroke="black" stroke-miterlimit="10" stroke-linecap="round" stroke-linejoin="round"/>
<path d="M179.442 169.937C179.442 169.937 186.087 166.062 193.839 166.616C201.591 167.169 200.484 173.812 200.484 173.812" stroke="black" stroke-miterlimit="10" stroke-linecap="round" stroke-linejoin="round"/>
<path d="M220.419 171.044C220.419 171.044 218.758 165.509 213.22 165.509C207.682 165.509 200.484 169.937 200.484 169.937" stroke="black" stroke-miterlimit="10" stroke-linecap="round" stroke-linejoin="round"/>
<path d="M237.031 166.615C237.031 166.615 236.477 163.295 233.155 162.741C229.832 162.187 226.51 165.508 226.51 165.508" stroke="black" stroke-miterlimit="10" stroke-linecap="round" stroke-linejoin="round"/>
<path d="M1535.79 202.095C1535.79 202.095 1535.32 190.274 1535.16 188.718C1535.01 187.162 1534.22 171.297 1534.22 171.297L1533.13 155.197C1533.13 155.197 1532.66 145.71 1532.73 144C1532.81 142.288 1533.2 139.176 1534.54 137.543C1535.87 135.911 1537.59 135.133 1539.08 134.899C1540.57 134.667 1543.78 135.523 1544.96 136.222C1546.14 136.923 1547.7 138.867 1548.33 140.034C1548.96 141.2 1552.64 151.621 1552.64 151.621L1555.54 161.187L1560.01 181.407L1563.69 197.117L1564.94 202.172L1535.79 202.095Z" fill="#368C46"/>
<path d="M1575.45 202.25L1571.21 187.395L1567.69 175.574C1567.69 175.574 1565.34 166.631 1564.71 165.153C1564.08 163.675 1562.36 159.554 1561.57 158.931C1560.79 158.309 1559.22 158.231 1558.2 158.542C1557.19 158.854 1555.78 159.787 1555.54 161.186L1555.62 161.964L1564.94 202.173L1575.45 202.25Z" fill="#368C46"/>
<path d="M1479.5 202.361C1479.5 202.361 1480.57 175.527 1481.11 169.031C1481.65 162.536 1480.89 136.319 1481.14 130.227C1481.38 124.135 1480.75 108.397 1483.87 103.438C1487 98.4778 1493.58 95.9806 1498.38 97.8686C1503.17 99.7545 1506.21 109.404 1507.36 114.201C1508.51 118.995 1512.46 134.191 1513.79 138.958C1515.12 143.725 1519.56 161.866 1521.62 166.693C1523.67 171.52 1529.07 199.384 1530.46 202.361H1479.5Z" fill="#368C46"/>
<path d="M1560.01 162.643C1561.4 161.352 1562.84 164.554 1563.01 165.595C1563.18 166.635 1565.3 172.934 1565.42 174.339C1565.53 175.746 1564.71 177.302 1563.68 177.588C1562.66 177.874 1561.79 176.949 1561.17 175.388C1560.55 173.827 1559.32 168.57 1559.19 167.05C1559.06 165.529 1559.08 163.508 1560.01 162.643Z" fill="#FBF86E"/>
<path d="M1549.47 156.715C1550.36 154 1548.97 149.321 1548.2 146.835C1547.43 144.352 1545.34 139.708 1542.98 138.434C1541.39 137.579 1538.46 139.289 1538.99 143.949C1539.39 147.438 1540.63 154.598 1542.2 157.545C1543.11 159.259 1548.13 160.849 1549.47 156.715Z" fill="#FBF86E"/>
<path d="M1486.88 105.82C1488.62 104.247 1492.16 103.059 1494.06 103.699C1495.96 104.339 1499.31 107.232 1499.53 110.756C1499.76 114.279 1498.6 120.994 1499.03 125.076C1499.47 129.156 1499.98 134.414 1496.62 136.505C1493.26 138.596 1488.3 138.219 1486.73 134.559C1485.17 130.898 1484.38 120.347 1484.52 117.597C1484.67 114.843 1485.11 107.415 1486.88 105.82Z" fill="#ECFB8F"/>
<path d="M1479.5 202.361C1479.5 202.361 1480.57 175.527 1481.11 169.031C1481.65 162.536 1480.89 136.319 1481.14 130.227C1481.39 124.135 1480.75 108.397 1483.87 103.438C1487 98.4778 1493.58 95.9806 1498.38 97.8686C1503.17 99.7545 1506.21 109.404 1507.36 114.201C1508.51 118.995 1512.47 134.191 1513.79 138.958C1515.12 143.725 1519.56 161.866 1521.62 166.693C1523.67 171.52 1529.07 199.384 1530.46 202.361" stroke="black" stroke-miterlimit="10" stroke-linecap="round" stroke-linejoin="round"/>
<path d="M1535.75 202.361C1535.75 202.361 1534.88 180.723 1534.55 175.44C1534.21 170.155 1532.11 146.649 1532.9 141.713C1533.7 136.777 1537.14 134.792 1539.84 134.886C1542.55 134.977 1546.5 136.111 1548.67 140.563C1550.85 145.014 1555.87 162.349 1556.3 164.949C1556.73 167.547 1564.18 198.751 1564.95 202.362" stroke="black" stroke-miterlimit="10" stroke-linecap="round" stroke-linejoin="round"/>
<path d="M1575.48 202.361C1575.48 202.361 1567.68 176.263 1566.41 170.774C1565.15 165.285 1562.57 159.476 1561 158.664C1559.43 157.852 1555.79 158.624 1555.41 161.711" stroke="black" stroke-miterlimit="10" stroke-linecap="round" stroke-linejoin="round"/>
<path d="M1560.01 162.799C1561.4 161.508 1562.84 164.711 1563.01 165.75C1563.18 166.789 1565.3 173.089 1565.42 174.495C1565.53 175.9 1564.71 177.458 1563.68 177.743C1562.66 178.029 1561.79 177.104 1561.17 175.544C1560.55 173.983 1559.32 168.724 1559.19 167.205C1559.06 165.685 1559.08 163.664 1560.01 162.799Z" stroke="black" stroke-miterlimit="10" stroke-linecap="round" stroke-linejoin="round"/>
<path d="M1549.32 156.715C1550.2 154 1548.81 149.321 1548.04 146.835C1547.27 144.352 1545.18 139.708 1542.82 138.434C1541.24 137.579 1538.3 139.289 1538.83 143.949C1539.23 147.438 1540.48 154.598 1542.04 157.545C1542.95 159.259 1547.97 160.849 1549.32 156.715Z" stroke="black" stroke-miterlimit="10" stroke-linecap="round" stroke-linejoin="round"/>
<path d="M1486.72 105.82C1488.47 104.246 1492 103.059 1493.9 103.699C1495.8 104.339 1499.15 107.233 1499.37 110.755C1499.6 114.279 1498.44 120.994 1498.88 125.076C1499.32 129.157 1499.83 134.414 1496.47 136.505C1493.11 138.595 1488.14 138.219 1486.58 134.559C1485.02 130.896 1484.22 120.347 1484.37 117.595C1484.51 114.843 1484.95 107.415 1486.72 105.82Z" stroke="black" stroke-miterlimit="10" stroke-linecap="round" stroke-linejoin="round"/>
<path d="M1511.33 166.008C1511.33 166.008 1508.27 162.496 1504.96 163.198C1501.66 163.901 1497.41 167.413 1497.41 167.413" stroke="black" stroke-miterlimit="10" stroke-linecap="round" stroke-linejoin="round"/>
<path d="M1551.7 186.051C1551.7 186.051 1547.69 184.411 1544.86 185.581C1542.02 186.753 1542.26 189.561 1542.26 189.561" stroke="black" stroke-miterlimit="10" stroke-linecap="round" stroke-linejoin="round"/>
<path d="M1650.99 100.17C1656.07 99.2903 1654.97 90.8074 1652.35 86.4202C1647.72 78.6688 1644.48 78.0544 1641.98 78.9303C1639.49 79.8054 1639.21 86.4501 1640.83 91.4658C1643.61 100.063 1649.25 100.47 1650.99 100.17Z" fill="#49B6BB"/>
<path d="M1706.42 61.2798C1702.8 56.8503 1701.68 46.6263 1703.82 38.8441C1705.95 31.0619 1710.54 22.4993 1717.99 21.992C1725.44 21.4855 1732.44 26.0114 1734.01 30.6177C1735.58 35.2249 1734.84 48.7917 1733.47 53.3648C1732.09 57.938 1726.65 62.8623 1720.82 64.131C1714.99 65.4005 1709.06 64.5013 1706.42 61.2798Z" fill="#49B6BB"/>
<path d="M1783.96 64.4193C1783.74 59.7689 1778.74 48.9097 1775.08 46.7095C1771.41 44.5093 1768.52 48.2488 1768.61 50.8866C1768.7 53.5244 1770.68 63.6496 1774.42 67.9596C1778.15 72.2696 1784.15 68.2693 1783.96 64.4193Z" fill="#49B6BB"/>
<path d="M1673.37 116.495C1673.37 116.495 1669.96 107.41 1668.69 104.371C1666.29 98.6361 1660.84 84.1353 1656.63 79.1155C1652.42 74.0982 1647.26 69.9576 1641.31 71.9486C1635.35 73.9379 1635.48 83.32 1635.56 86.265C1635.65 89.21 1642.47 120.403 1643.23 123.956L1645.54 124.067L1648.76 125.387L1654.65 128.16L1656.23 125.749L1660.95 126.286L1669.55 120.043C1669.55 120.043 1669.71 118.535 1671.32 117.376C1672.93 116.217 1673.37 116.495 1673.37 116.495Z" fill="#49B6BB"/>
<path d="M1756.2 110.344C1755.63 101.249 1754.75 78.5006 1750.79 61.3056C1746.83 44.1106 1740.82 29.6829 1737.2 23.4982C1733.57 17.316 1724.96 11.6933 1717.95 12.013C1710.95 12.3327 1702.71 18.5556 1699.91 26.8699C1697.12 35.1843 1694.9 63.52 1693.86 73.7581C1692.83 83.997 1690.15 113.189 1690.15 113.189C1690.15 113.189 1692.9 114.151 1693.48 115.268C1693.48 115.268 1695.7 115.715 1696.45 116.09C1699.23 117.481 1698.88 118.93 1698.88 118.93C1698.88 118.93 1703.45 118.28 1706.18 119.859C1706.18 119.859 1706.71 117.842 1708.01 117.003C1709.31 116.164 1712 119.186 1712 119.186L1715.47 116.738C1715.47 116.738 1716.67 113.893 1718.12 114.243C1719.56 114.592 1722.07 117.867 1722.07 117.867C1722.07 117.867 1723.87 116.455 1725.24 116.365C1726.62 116.278 1728.94 116.171 1729.17 118.424C1729.17 118.424 1730.7 116.513 1733.84 116.455C1736.97 116.397 1739.41 118.922 1739.41 118.922C1739.41 118.922 1740.62 116.704 1742 116.615C1743.38 116.528 1745.4 117.68 1745.4 117.68C1745.4 117.68 1746.04 114.659 1747.53 113.879C1749.02 113.099 1750.65 113.194 1750.65 113.194C1750.65 113.194 1751.4 110.699 1756.2 110.344Z" fill="#DA4F4D"/>
<path d="M1811.44 108.932C1809.46 105.194 1801.83 85.4365 1799.96 81.8563C1798.1 78.2754 1784.43 48.632 1782.53 45.4214C1780.62 42.2115 1776.63 38.1739 1771.31 40.1475C1765.98 42.1202 1764.4 48.4045 1764.97 52.8208C1765.54 57.237 1771.65 80.4274 1773.33 86.3913C1775.01 92.356 1778.02 108.149 1778.02 108.149C1778.02 108.149 1779.22 107.891 1780 109.382C1780 109.382 1781.93 108.844 1782.58 110.087L1787.55 110.494C1787.55 110.494 1789.6 109.891 1790.5 111.002C1790.5 111.002 1791.29 109.484 1792.66 109.082C1794.03 108.68 1796.36 108.888 1797.51 110.181L1803.79 110.69L1806.37 110.768L1807.7 111.496C1807.7 111.495 1810.47 109.778 1811.44 108.932Z" fill="#49B6BB"/>
<path d="M1650.98 99.709C1656.07 98.8281 1654.97 90.3452 1652.35 85.958C1647.72 78.2065 1644.47 77.593 1641.98 78.4681C1639.48 79.3432 1639.21 85.9887 1640.83 91.0044C1643.6 99.6011 1649.25 100.009 1650.98 99.709Z" fill="#61EA67"/>
<path d="M1706.42 60.8171C1702.79 56.3884 1701.67 46.1644 1703.81 38.3822C1705.95 30.5992 1710.54 22.0366 1717.99 21.5301C1725.44 21.0236 1732.44 25.5478 1734.01 30.1558C1735.58 34.763 1734.84 48.3289 1733.46 52.902C1732.08 57.476 1726.65 62.4004 1720.81 63.6691C1714.99 64.9385 1709.06 64.0385 1706.42 60.8171Z" fill="#61EA67"/>
<path d="M1783.96 63.9582C1783.74 59.3078 1778.74 48.4478 1775.07 46.2492C1771.4 44.0473 1768.52 47.7886 1768.61 50.4255C1768.7 53.0625 1770.67 63.1877 1774.41 67.4985C1778.15 71.8092 1784.14 67.8073 1783.96 63.9582Z" fill="#61EA67"/>
<path d="M1861.93 102.637C1861.93 102.637 1859 98.2725 1857.95 97.0918C1856.9 95.9104 1853.53 92.2928 1851.97 93.2701C1850.42 94.2473 1849.4 97.5252 1849.4 97.5252L1848.92 102.51L1860 102.651L1861.93 102.637Z" fill="#368C46"/>
<path d="M1843.12 102.554C1843.12 102.554 1838.92 97.9761 1837.79 97.0171C1836.67 96.059 1832.78 92.5195 1830.56 93.7251C1828.33 94.9306 1824.87 99.4922 1824.87 99.4922L1823.04 103.297L1834.42 102.84L1843.12 102.554Z" fill="#49B6BB"/>
<path d="M1643.02 123.489C1642.27 119.935 1635.61 89.394 1635.52 86.4482C1635.44 83.504 1635.31 74.1219 1641.26 72.1325C1647.22 70.1407 1652.37 74.2813 1656.58 79.2995C1660.79 84.3177 1666.25 98.8201 1668.65 104.554C1669.92 107.591 1673.33 116.678 1673.33 116.678" stroke="black" stroke-miterlimit="10" stroke-linecap="round" stroke-linejoin="round"/>
<path d="M1650.86 99.9311C1655.95 99.0502 1654.84 90.5673 1652.23 86.181C1647.6 78.4295 1644.35 77.8151 1641.86 78.691C1639.36 79.5653 1639.09 86.2108 1640.7 91.2274C1643.48 99.824 1649.13 100.231 1650.86 99.9311Z" stroke="black" stroke-miterlimit="10" stroke-linecap="round" stroke-linejoin="round"/>
<path d="M1690.04 113.246C1690.04 113.246 1692.72 84.0539 1693.75 73.8158C1694.79 63.5776 1697.01 35.242 1699.8 26.9268C1702.6 18.6124 1710.84 12.3903 1717.85 12.0707C1724.85 11.7502 1733.47 17.3728 1737.09 23.5559C1740.71 29.7398 1746.72 44.1683 1750.68 61.3633C1754.64 78.5583 1756.06 107.64 1756.18 110.141" stroke="black" stroke-miterlimit="10" stroke-linecap="round" stroke-linejoin="round"/>
<path d="M1706.3 61.0378C1702.67 56.6099 1701.55 46.3867 1703.69 38.6037C1705.83 30.8207 1710.42 22.2573 1717.87 21.7508C1725.32 21.2443 1732.32 25.7701 1733.89 30.3765C1735.45 34.9837 1734.72 48.5504 1733.34 53.1227C1731.96 57.6976 1726.53 62.6227 1720.69 63.8914C1714.86 65.1601 1708.94 64.2601 1706.3 61.0378Z" stroke="black" stroke-miterlimit="10" stroke-linecap="round" stroke-linejoin="round"/>
<path d="M1777.92 108.206C1777.92 108.206 1774.9 92.4129 1773.22 86.4498C1771.55 80.4851 1765.43 57.2955 1764.86 52.8793C1764.29 48.4631 1765.88 42.1779 1771.2 40.2051C1776.52 38.2316 1780.51 42.2684 1782.42 45.479C1784.32 48.6905 1797.99 78.3322 1799.86 81.914C1801.72 85.495 1809.58 105.721 1811.33 108.989" stroke="black" stroke-miterlimit="10" stroke-linecap="round" stroke-linejoin="round"/>
<path d="M1783.84 64.1794C1783.62 59.529 1778.62 48.6707 1774.95 46.4696C1771.28 44.2686 1768.4 48.0089 1768.48 50.6459C1768.57 53.2845 1770.55 63.4089 1774.29 67.7196C1778.02 72.0304 1784.02 68.0293 1783.84 64.1794Z" stroke="black" stroke-miterlimit="10" stroke-linecap="round" stroke-linejoin="round"/>
<path d="M1654.15 128.108C1651.12 127.16 1644.49 121.768 1639.03 124.63" stroke="black" stroke-miterlimit="10" stroke-linecap="round" stroke-linejoin="round"/>
<path d="M1681.03 116.567C1681.03 116.567 1690.21 111.128 1693.54 115.08" stroke="black" stroke-miterlimit="10" stroke-linecap="round" stroke-linejoin="round"/>
<path d="M1729.72 117.661C1736.43 114.15 1739.22 119.176 1739.22 119.176" stroke="black" stroke-miterlimit="10" stroke-linecap="round" stroke-linejoin="round"/>
<path d="M1750.71 113.003C1750.71 113.003 1754.14 108.676 1759.44 110.332" stroke="black" stroke-miterlimit="10" stroke-linecap="round" stroke-linejoin="round"/>
<path d="M1790.56 110.501C1792.42 107.864 1796.54 108.633 1797.32 110.123" stroke="black" stroke-miterlimit="10" stroke-linecap="round" stroke-linejoin="round"/>
<path d="M1807.38 111.187C1807.38 111.187 1810.6 108.871 1815.61 108.775" stroke="black" stroke-miterlimit="10" stroke-linecap="round" stroke-linejoin="round"/>
<path d="M1697.64 119.266C1697.64 119.266 1702.63 117.919 1706.18 119.859" stroke="black" stroke-miterlimit="10" stroke-linecap="round" stroke-linejoin="round"/>
<path d="M1823.16 102.676C1823.16 102.676 1826.29 96.3091 1830.24 93.9013C1834.18 91.4943 1842.59 102.137 1842.59 102.137" stroke="black" stroke-miterlimit="10" stroke-linecap="round" stroke-linejoin="round"/>
<path d="M1848.94 102.089C1848.94 102.089 1848.89 94.9535 1852.05 93.3444C1855.21 91.7353 1861.23 101.602 1861.23 101.602" stroke="black" stroke-miterlimit="10" stroke-linecap="round" stroke-linejoin="round"/>
<path d="M1886.25 106.287C1886.25 106.287 1891.17 102.738 1893.45 101.305C1895.72 99.8723 1899.54 104.626 1899.54 104.626" stroke="black" stroke-miterlimit="10" stroke-linecap="round" stroke-linejoin="round"/>
<path d="M1775.47 108.902C1775.47 108.902 1778.96 107.395 1780.06 109.193" stroke="black" stroke-miterlimit="10" stroke-linecap="round" stroke-linejoin="round"/>
<path d="M1778.51 110.161C1778.51 110.161 1780.86 108.613 1782.01 109.594" stroke="black" stroke-miterlimit="10" stroke-linecap="round" stroke-linejoin="round"/>
<path d="M1787.92 110.299C1787.92 110.299 1790.74 110.246 1791.08 111.806" stroke="black" stroke-miterlimit="10" stroke-linecap="round" stroke-linejoin="round"/>
<path d="M1805.11 110.792C1805.11 110.792 1807.43 110.371 1808.16 112.678" stroke="black" stroke-miterlimit="10" stroke-linecap="round" stroke-linejoin="round"/>
<path d="M1752.49 114.286C1752.49 114.286 1750.13 112.199 1748.03 113.619" stroke="black" stroke-miterlimit="10" stroke-linecap="round" stroke-linejoin="round"/>
<path d="M1745.47 117.804C1745.47 117.804 1743.68 115.894 1741.75 116.745C1739.82 117.597 1738.74 120.376 1738.74 120.376" stroke="black" stroke-miterlimit="10" stroke-linecap="round" stroke-linejoin="round"/>
<path d="M1729.69 119.417C1729.69 119.417 1729.45 116.536 1726.94 116.27C1724.42 116.004 1722.51 117.483 1722.51 117.483" stroke="black" stroke-miterlimit="10" stroke-linecap="round" stroke-linejoin="round"/>
<path d="M1715.22 116.866C1715.22 116.866 1716.17 114.152 1718.5 114.359C1720.82 114.567 1722.6 119.174 1722.6 119.174" stroke="black" stroke-miterlimit="10" stroke-linecap="round" stroke-linejoin="round"/>
<path d="M1691.95 117.177C1691.95 117.177 1692.08 114.103 1695.94 115.724" stroke="black" stroke-miterlimit="10" stroke-linecap="round" stroke-linejoin="round"/>
<path d="M1711.81 119.125C1711.81 119.125 1710.12 116.211 1708.38 116.807C1706.63 117.405 1705.89 121.431 1705.89 121.431" stroke="black" stroke-miterlimit="10" stroke-linecap="round" stroke-linejoin="round"/>
<path d="M1676.6 118.093C1676.6 118.093 1673.49 116.083 1671.87 116.928C1670.26 117.774 1669.55 120.044 1669.55 120.044" stroke="black" stroke-miterlimit="10" stroke-linecap="round" stroke-linejoin="round"/>
<path d="M1661.01 126.097C1661.01 126.097 1657.35 125.162 1655.99 126.191C1654.63 127.219 1654.24 129.797 1654.24 129.797" stroke="black" stroke-miterlimit="10" stroke-linecap="round" stroke-linejoin="round"/>
<path d="M299.616 50.2798C303.244 45.8503 304.361 35.6263 302.225 27.8441C300.087 20.0619 295.497 11.4993 288.047 10.992C280.597 10.4855 273.597 15.0114 272.027 19.6177C270.458 24.2249 271.198 37.7917 272.575 42.3648C273.951 46.938 279.388 51.8623 285.218 53.131C291.049 54.4005 296.978 53.5013 299.616 50.2798Z" fill="#49B6BB"/>
<path d="M222.076 53.4193C222.296 48.7689 227.299 37.9097 230.964 35.7095C234.63 33.5093 237.516 37.2488 237.428 39.8866C237.339 42.5244 235.361 52.6496 231.624 56.9596C227.887 61.2696 221.895 57.2693 222.076 53.4193Z" fill="#49B6BB"/>
<path d="M249.837 99.3441C250.408 90.2493 251.29 67.5006 255.251 50.3056C259.212 33.1106 265.217 18.6829 268.842 12.4982C272.466 6.31595 281.08 0.693347 288.086 1.013C295.091 1.33266 303.331 7.55556 306.128 15.8699C308.924 24.1843 311.141 52.52 312.178 62.7581C313.214 72.997 315.894 102.189 315.894 102.189C315.894 102.189 313.141 103.151 312.556 104.268C312.556 104.268 310.345 104.715 309.592 105.09C306.806 106.481 307.155 107.93 307.155 107.93C307.155 107.93 302.588 107.28 299.861 108.859C299.861 108.859 299.335 106.842 298.033 106.003C296.732 105.164 294.04 108.186 294.04 108.186L290.574 105.738C290.574 105.738 289.373 102.893 287.924 103.243C286.475 103.592 283.967 106.867 283.967 106.867C283.967 106.867 282.174 105.455 280.796 105.365C279.417 105.278 277.099 105.171 276.868 107.424C276.868 107.424 275.336 105.513 272.201 105.455C269.066 105.397 266.634 107.922 266.634 107.922C266.634 107.922 265.421 105.704 264.043 105.615C262.665 105.528 260.636 106.68 260.636 106.68C260.636 106.68 260.003 103.659 258.512 102.879C257.021 102.099 255.388 102.194 255.388 102.194C255.388 102.194 254.636 99.6995 249.837 99.3441Z" fill="#DA4F4D"/>
<path d="M194.602 97.9316C196.577 94.1937 204.212 74.4365 206.075 70.8563C207.938 67.2754 221.611 37.632 223.514 34.4214C225.419 31.2115 229.411 27.1739 234.733 29.1475C240.055 31.1202 241.64 37.4045 241.069 41.8208C240.498 46.237 234.386 69.4274 232.708 75.3913C231.029 81.356 228.015 97.1487 228.015 97.1487C228.015 97.1487 226.823 96.8913 226.042 98.3816C226.042 98.3816 224.108 97.8444 223.457 99.0865L218.494 99.4942C218.494 99.4942 216.436 98.8914 215.537 100.002C215.537 100.002 214.75 98.4837 213.377 98.0819C212.005 97.68 209.68 97.8876 208.527 99.1812L202.245 99.6901L199.671 99.7682L198.341 100.496C198.341 100.495 195.566 98.7777 194.602 97.9316Z" fill="#49B6BB"/>
<path d="M299.621 49.8171C303.25 45.3884 304.367 35.1644 302.23 27.3822C300.093 19.5992 295.503 11.0366 288.053 10.5301C280.603 10.0236 273.603 14.5478 272.032 19.1558C270.464 23.763 271.204 37.3289 272.581 41.902C273.958 46.476 279.394 51.4004 285.225 52.6691C291.054 53.9385 296.983 53.0385 299.621 49.8171Z" fill="#61EA67"/>
<path d="M222.082 52.9582C222.302 48.3078 227.304 37.4478 230.97 35.2492C234.635 33.0473 237.522 36.7886 237.434 39.4255C237.345 42.0625 235.367 52.1877 231.63 56.4985C227.894 60.8092 221.9 56.8073 222.082 52.9582Z" fill="#61EA67"/>
<path d="M144.108 91.6373C144.108 91.6373 147.041 87.2725 148.091 86.0918C149.141 84.9104 152.514 81.2928 154.069 82.2701C155.623 83.2473 156.64 86.5252 156.64 86.5252L157.125 91.5102L146.042 91.6514L144.108 91.6373Z" fill="#368C46"/>
<path d="M162.925 91.5542C162.925 91.5542 167.124 86.9761 168.246 86.0171C169.369 85.059 173.262 81.5195 175.485 82.7251C177.706 83.9306 181.168 88.4922 181.168 88.4922L183 92.2965L171.624 91.8398L162.925 91.5542Z" fill="#49B6BB"/>
<path d="M316.002 102.246C316.002 102.246 313.322 73.0539 312.286 62.8158C311.248 52.5776 309.031 24.242 306.236 15.9268C303.439 7.61243 295.198 1.39034 288.194 1.07069C281.188 0.7502 272.575 6.37283 268.95 12.5559C265.325 18.7398 259.319 33.1683 255.359 50.3633C251.399 67.5583 249.979 96.6395 249.865 99.1411" stroke="black" stroke-miterlimit="10" stroke-linecap="round" stroke-linejoin="round"/>
<path d="M299.743 50.0378C303.37 45.6099 304.487 35.3867 302.351 27.6037C300.214 19.8207 295.624 11.2573 288.174 10.7508C280.724 10.2443 273.724 14.7701 272.154 19.3765C270.585 23.9837 271.325 37.5504 272.702 42.1227C274.078 46.6976 279.515 51.6227 285.346 52.8914C291.176 54.1601 297.105 53.2601 299.743 50.0378Z" stroke="black" stroke-miterlimit="10" stroke-linecap="round" stroke-linejoin="round"/>
<path d="M228.123 97.2064C228.123 97.2064 231.137 81.4129 232.816 75.4498C234.495 69.4851 240.608 46.2955 241.177 41.8793C241.749 37.4631 240.163 31.1779 234.841 29.2051C229.519 27.2316 225.527 31.2684 223.623 34.479C221.719 37.6905 208.047 67.3322 206.184 70.914C204.321 74.495 196.458 94.7213 194.711 97.9893" stroke="black" stroke-miterlimit="10" stroke-linecap="round" stroke-linejoin="round"/>
<path d="M222.203 53.1794C222.423 48.529 227.425 37.6707 231.091 35.4696C234.757 33.2686 237.642 37.0089 237.555 39.6459C237.466 42.2845 235.488 52.4089 231.752 56.7196C228.015 61.0304 222.022 57.0293 222.203 53.1794Z" stroke="black" stroke-miterlimit="10" stroke-linecap="round" stroke-linejoin="round"/>
<path d="M351.895 117.108C354.924 116.16 361.548 110.768 367.014 113.63" stroke="black" stroke-miterlimit="10" stroke-linecap="round" stroke-linejoin="round"/>
<path d="M325.014 105.567C325.014 105.567 315.833 100.128 312.497 104.08" stroke="black" stroke-miterlimit="10" stroke-linecap="round" stroke-linejoin="round"/>
<path d="M276.318 106.661C269.609 103.15 266.818 108.176 266.818 108.176" stroke="black" stroke-miterlimit="10" stroke-linecap="round" stroke-linejoin="round"/>
<path d="M255.33 102.003C255.33 102.003 251.899 97.676 246.599 99.3316" stroke="black" stroke-miterlimit="10" stroke-linecap="round" stroke-linejoin="round"/>
<path d="M215.483 99.5005C213.619 96.8635 209.497 97.6332 208.716 99.1228" stroke="black" stroke-miterlimit="10" stroke-linecap="round" stroke-linejoin="round"/>
<path d="M198.661 100.187C198.661 100.187 195.442 97.8709 190.426 97.7754" stroke="black" stroke-miterlimit="10" stroke-linecap="round" stroke-linejoin="round"/>
<path d="M308.404 108.266C308.404 108.266 303.411 106.919 299.862 108.859" stroke="black" stroke-miterlimit="10" stroke-linecap="round" stroke-linejoin="round"/>
<path d="M182.88 91.6756C182.88 91.6756 179.754 85.3091 175.804 82.9013C171.856 80.4943 163.448 91.1368 163.448 91.1368" stroke="black" stroke-miterlimit="10" stroke-linecap="round" stroke-linejoin="round"/>
<path d="M157.102 91.0888C157.102 91.0888 157.154 83.9535 153.994 82.3444C150.832 80.7353 144.81 90.6023 144.81 90.6023" stroke="black" stroke-miterlimit="10" stroke-linecap="round" stroke-linejoin="round"/>
<path d="M119.79 95.287C119.79 95.287 114.866 91.7376 112.591 90.3054C110.316 88.8723 106.5 93.6265 106.5 93.6265" stroke="black" stroke-miterlimit="10" stroke-linecap="round" stroke-linejoin="round"/>
<path d="M230.567 97.9017C230.567 97.9017 227.083 96.3946 225.982 98.1931" stroke="black" stroke-miterlimit="10" stroke-linecap="round" stroke-linejoin="round"/>
<path d="M227.533 99.1611C227.533 99.1611 225.178 97.6135 224.03 98.594" stroke="black" stroke-miterlimit="10" stroke-linecap="round" stroke-linejoin="round"/>
<path d="M218.122 99.299C218.122 99.299 215.3 99.2459 214.957 100.806" stroke="black" stroke-miterlimit="10" stroke-linecap="round" stroke-linejoin="round"/>
<path d="M200.926 99.7918C200.926 99.7918 198.613 99.3709 197.88 101.678" stroke="black" stroke-miterlimit="10" stroke-linecap="round" stroke-linejoin="round"/>
<path d="M253.549 103.286C253.549 103.286 255.909 101.199 258.015 102.619" stroke="black" stroke-miterlimit="10" stroke-linecap="round" stroke-linejoin="round"/>
<path d="M260.571 106.804C260.571 106.804 262.364 104.894 264.292 105.745C266.221 106.597 267.297 109.376 267.297 109.376" stroke="black" stroke-miterlimit="10" stroke-linecap="round" stroke-linejoin="round"/>
<path d="M276.348 108.417C276.348 108.417 276.591 105.536 279.104 105.27C281.618 105.004 283.535 106.483 283.535 106.483" stroke="black" stroke-miterlimit="10" stroke-linecap="round" stroke-linejoin="round"/>
<path d="M290.823 105.866C290.823 105.866 289.871 103.152 287.545 103.359C285.22 103.567 283.441 108.174 283.441 108.174" stroke="black" stroke-miterlimit="10" stroke-linecap="round" stroke-linejoin="round"/>
<path d="M314.088 106.177C314.088 106.177 313.958 103.103 310.1 104.724" stroke="black" stroke-miterlimit="10" stroke-linecap="round" stroke-linejoin="round"/>
<path d="M294.231 108.125C294.231 108.125 295.916 105.211 297.66 105.807C299.405 106.405 300.145 110.431 300.145 110.431" stroke="black" stroke-miterlimit="10" stroke-linecap="round" stroke-linejoin="round"/>
<path d="M329.44 107.093C329.44 107.093 332.55 105.083 334.165 105.928C335.78 106.774 336.49 109.044 336.49 109.044" stroke="black" stroke-miterlimit="10" stroke-linecap="round" stroke-linejoin="round"/>
<path d="M345.033 115.097C345.033 115.097 348.688 114.162 350.049 115.191C351.41 116.219 351.801 118.797 351.801 118.797" stroke="black" stroke-miterlimit="10" stroke-linecap="round" stroke-linejoin="round"/>
</svg>
