<svg width="110" height="229" viewBox="0 0 110 229" fill="none" xmlns="http://www.w3.org/2000/svg">
<g filter="url(#filter0_d)">
<path d="M80.5028 156.128C80.5028 156.128 87.3928 164.128 89.3828 166.468C91.3728 168.808 96.8328 176.098 98.1428 178.028C99.4528 179.958 102.583 185.768 101.833 186.678C101.083 187.588 97.0428 185.388 97.0428 185.388L92.1728 181.878C92.1728 181.878 95.9428 188.788 96.9728 191.078C98.0028 193.368 98.7628 196.808 97.5828 197.598C96.4028 198.388 90.5828 193.738 90.5828 193.738L93.8528 207.808C93.8528 207.808 95.9728 219.228 94.0328 219.748C92.0928 220.268 88.2028 211.818 86.6228 209.048C85.0428 206.278 77.3728 188.158 77.3728 188.158C77.3728 188.158 71.6528 195.478 69.4828 194.498C67.3128 193.518 70.4828 178.878 70.4828 178.878C70.4828 178.878 64.8428 184.068 62.7828 183.048C60.7228 182.028 64.2228 172.048 64.2228 172.048L68.0728 159.158C69.9262 159.306 71.7914 159.168 73.6028 158.748C75.6428 158.038 80.5028 156.128 80.5028 156.128Z" fill="white"/>
<path d="M76.1928 157.708C77.8765 159.181 79.4632 160.761 80.9428 162.438C81.9428 163.818 85.5828 167.608 84.8728 168.638C84.1628 169.668 80.6028 168.098 80.6028 168.098C80.6028 168.098 80.7328 171.618 80.8928 173.278C81.0528 174.938 80.4628 176.278 79.8928 176.128C79.3228 175.978 74.7028 168.508 74.7028 168.508C74.7028 168.508 71.7028 171.508 70.8328 171.508C69.9628 171.508 69.9128 167.988 69.9928 166.248C70.0728 164.508 71.1628 159.128 71.1628 159.128C71.1628 159.128 75.2028 157.918 76.1928 157.708Z" fill="#FF0000"/>
<path d="M80.6829 156.428C80.6829 156.428 89.6129 166.268 95.1029 173.708C100.043 180.418 102.503 185.288 101.873 186.558C101.083 188.148 92.3229 182.198 92.3229 182.198" stroke="black" stroke-linecap="round" stroke-linejoin="round"/>
<path d="M89.6829 178.018C89.6829 178.018 100.623 194.388 97.7829 197.448C96.1829 199.178 90.7129 193.138 90.7129 193.138" stroke="black" stroke-linecap="round" stroke-linejoin="round"/>
<path d="M68.1428 159.407C68.1428 159.407 60.7028 181.247 62.6528 182.867C64.6028 184.487 70.6028 178.267 70.6028 178.267" stroke="black" stroke-linecap="round" stroke-linejoin="round"/>
<path d="M70.7128 177.527C70.7128 177.527 67.8427 193.087 69.4227 194.707C70.6227 195.907 77.0528 188.627 77.0528 188.627" stroke="black" stroke-linecap="round" stroke-linejoin="round"/>
<path d="M76.8928 186.527C76.8928 186.527 90.8928 221.527 94.1928 219.747C97.1928 218.067 89.8128 189.927 89.8128 189.927" stroke="black" stroke-linecap="round" stroke-linejoin="round"/>
<path d="M76.1528 158.128C76.1528 158.128 85.3928 165.748 84.8728 168.388C84.5328 170.128 80.3428 167.978 80.3428 167.978C80.3428 167.978 81.4628 173.978 80.5728 175.978C79.6828 177.978 74.6528 168.298 74.6528 168.298C74.6528 168.298 72.4428 171.678 70.6028 171.418C68.7628 171.158 71.1528 159.418 71.1528 159.418" stroke="black" stroke-linecap="round" stroke-linejoin="round"/>
<path d="M21.8328 65.8274C21.356 63.8379 21.4707 61.7525 22.1628 59.8274C22.5828 58.4074 25.4928 51.3274 25.7428 50.1574C25.9928 48.9874 26.9928 45.3274 26.6628 43.8274C26.3328 42.3274 23.8328 36.4974 23.3328 35.1574C22.1979 31.7307 21.3352 28.2198 20.7528 24.6574C20.3328 21.3274 19.9228 13.9874 19.9228 13.9874C19.9228 13.9874 17.0928 12.5674 16.5928 10.9874C16.0928 9.40735 17.3428 7.65735 18.6728 6.65735C20.0028 5.65735 24.5828 1.82735 27.0828 1.40735C29.5828 0.987354 30.9128 0.737354 32.0828 2.15735C32.9977 3.39154 33.5203 4.87232 33.5828 6.40735C33.5495 7.00257 33.4386 7.59089 33.2528 8.15735L39.3328 21.0774C39.3328 21.0774 41.5028 27.3274 42.3328 30.2474C43.1628 33.1674 44.0828 36.4974 46.4128 39.4974C48.7428 42.4974 51.7428 43.4974 53.3328 44.5774C54.9228 45.6574 58.1628 48.4974 59.0028 50.2474C59.8428 51.9974 60.5828 53.6674 60.5828 53.6674L64.1628 63.4174L67.5028 70.4874C67.5028 70.4874 70.2528 71.5674 72.0028 72.1573C72.5837 72.2906 73.1036 72.6137 73.4803 73.0755C73.857 73.5373 74.069 74.1115 74.0828 74.7074C74.0828 75.4574 73.3328 77.6273 72.1628 77.9574C71.0941 78.1815 70.0048 78.2921 68.9128 78.2874L70.0828 81.7874L71.5028 86.1573C73.6045 86.1076 75.6414 86.8871 77.1728 88.3274C79.2561 90.245 80.83 92.6505 81.7528 95.3274C82.1728 96.4074 82.8328 101.827 81.1728 104.747C79.5128 107.667 78.2528 107.997 78.2528 107.997L83.5028 123.077C83.5028 123.077 87.4228 133.077 88.1728 137.907C88.9228 142.737 90.1728 145.487 89.2528 147.737C87.7007 150.973 85.0397 153.546 81.7528 154.987C77.7528 156.817 72.2528 158.657 69.0028 158.987C65.7528 159.317 59.4228 159.987 56.2528 158.737C56.2528 158.737 52.7528 157.737 52.2528 156.487C51.7528 155.237 46.2528 139.907 46.2528 139.907L38.2528 117.237L29.8328 92.7074L25.1728 78.6573C25.1728 78.6573 22.5028 68.8274 21.8328 65.8274Z" fill="#5D6F5B"/>
<path d="M78.2128 163.987C77.7928 159.747 84.2128 157.487 86.7128 159.237C89.2128 160.987 88.2128 168.237 86.7128 168.987C85.2128 169.737 78.5028 166.487 78.2128 163.987Z" fill="#61EA67"/>
<path d="M72.5028 183.758C71.7828 177.008 75.7528 175.938 77.5028 177.498C79.2528 179.058 79.5028 183.368 78.7528 185.318C78.0028 187.268 72.9628 188.448 72.5028 183.758Z" fill="#6AFE7C"/>
<path d="M87.1328 193.328C88.5228 192.178 93.3828 196.328 91.3828 198.328C89.3828 200.328 82.8828 196.828 87.1328 193.328Z" fill="#6AFE7C"/>
<path d="M68.0428 145.078C69.9628 143.798 71.2928 148.578 69.2928 149.828C67.2928 151.078 66.5028 146.078 68.0428 145.078Z" fill="#6AFE7C"/>
<path d="M54.4229 45.1572L66.8329 46.2372L78.4229 47.1572L68.9229 50.9072L57.7529 48.7372L54.4229 45.1572Z" fill="#26D8FF"/>
<path d="M82.3328 57.4877L81.3328 52.2377C81.3328 52.2377 82.3328 51.3177 82.3328 50.8177C82.3328 50.3177 81.5028 46.6577 80.9228 46.4077C80.3428 46.1577 78.0028 47.2377 78.0028 47.2377L62.0028 53.4877L45.3328 59.9077L36.3328 63.2377L33.5028 64.0777L24.4228 63.4077L12.9228 62.9877C11.5741 63.0534 10.2347 63.2476 8.9228 63.5677C8.34627 63.8128 7.84322 64.2034 7.46286 64.7012C7.0825 65.199 6.83783 65.787 6.7528 66.4077C6.5828 67.5777 4.9228 72.1577 5.0028 73.1577C5.0828 74.1577 7.5828 75.6577 8.0028 74.9877C8.56231 73.8202 9.06293 72.6253 9.5028 71.4077C9.5028 71.4077 11.2528 66.7377 12.7528 66.4077C14.2528 66.0777 23.1728 67.6577 23.1728 67.6577L33.9228 69.0777L36.5928 69.2477C36.5928 69.2477 38.2628 73.9177 38.7628 74.9177C39.2628 75.9177 41.1828 79.7477 42.3428 79.9977C43.5028 80.2477 51.7628 77.8277 51.7628 77.8277C51.7628 77.8277 60.5928 73.8277 60.9328 72.5777C61.2728 71.3277 59.4328 66.6577 59.4328 66.6577L58.2628 62.0777C58.2436 61.633 58.3416 61.1911 58.5469 60.7962C58.7522 60.4013 59.0577 60.0673 59.4328 59.8277C60.6828 59.1577 61.6828 58.5777 62.3528 59.9077C63.0228 61.2377 65.1828 66.2377 65.1828 66.2377C65.8636 67.6538 66.7314 68.9722 67.7628 70.1577C68.8428 71.0777 72.1828 69.9877 73.3428 69.5777C74.5028 69.1677 82.9228 65.6577 83.2628 64.3277C83.6028 62.9977 82.3328 57.4877 82.3328 57.4877ZM57.2528 71.6577C56.5028 73.1577 44.5028 76.8277 43.2528 75.9877C42.2528 75.3177 38.3328 67.6577 39.5828 65.5677C40.9728 63.2477 51.9128 60.1477 54.5028 60.9877C57.0928 61.8277 58.0028 70.1577 57.2528 71.6577ZM80.2528 62.1577C79.2528 63.9877 76.4228 64.7377 75.4228 65.2377C74.4228 65.7377 70.5728 67.2377 69.5928 66.8177C67.6728 66.0677 64.6728 58.8177 64.5128 57.3177C64.3528 55.8177 69.1828 54.0677 70.6828 53.3977C72.1828 52.7277 77.1028 50.8977 78.3528 51.3177C79.6028 51.7377 81.2528 60.3277 80.2528 62.1577Z" fill="#26D8FF"/>
<path d="M50.2528 106.907C50.2528 106.907 44.6728 114.657 46.1728 116.157C47.6728 117.657 50.6728 114.327 50.6728 114.327C50.6728 114.327 47.5028 125.407 48.5028 127.407C49.5028 129.407 54.7528 123.157 54.7528 123.157C54.7528 123.157 54.2528 131.657 56.5028 131.907C58.7528 132.157 59.5028 120.157 59.0028 116.907C59.0028 116.907 60.7528 122.907 62.0028 122.907C63.2528 122.907 63.7528 111.157 62.5028 108.407C62.5028 108.407 59.1228 108.407 56.3728 108.327C54.279 108.127 52.2211 107.649 50.2528 106.907Z" fill="#6AFE7C"/>
<path d="M40.7328 101.048C37.6228 96.8776 37.2228 87.3776 47.5728 88.4076C51.9128 88.8376 58.5728 93.7576 62.5728 94.3276C66.5728 94.8976 69.8528 91.3976 72.5728 90.8576C75.2928 90.3176 80.0828 96.5476 77.0528 101.938C74.0228 107.328 64.8828 108.458 60.5028 108.298C56.1228 108.138 45.8528 107.908 40.7328 101.048Z" fill="#CB4850"/>
<path d="M47.7027 88.4074C47.7027 88.4074 44.2527 90.7074 45.5827 92.7074C46.9127 94.7074 51.9127 90.2074 51.9127 90.2074C51.9127 90.2074 50.5827 93.2074 52.2427 94.7074C53.9027 96.2074 56.5727 92.2074 56.5727 92.2074C56.5727 92.2074 55.3027 95.9274 57.2427 97.0374C58.4127 97.7074 60.5727 93.8674 60.5727 93.8674C60.5727 93.8674 60.0727 98.0374 62.5727 97.6974C65.0727 97.3574 65.9027 94.1974 65.9027 94.1974C65.9027 94.1974 66.2327 97.1974 67.9027 96.6974C69.5727 96.1974 69.7327 92.3674 69.7327 92.3674C69.7327 92.3674 71.4027 96.1974 72.7327 94.6974C74.0627 93.1974 72.0627 91.1974 72.0627 91.1974L67.3527 93.4474C65.9003 94.3201 64.1806 94.6363 62.5127 94.3374C59.7227 93.8274 55.8527 91.3374 54.3527 90.6974C52.8527 90.0574 48.0227 88.2474 47.7027 88.4074Z" fill="#F9FFFF"/>
<path d="M39.5029 65.988C40.0929 64.068 53.1729 59.658 55.0029 60.988C56.8329 62.318 58.1729 69.408 57.5029 71.408C56.8329 73.408 45.0029 76.708 43.6729 76.078C42.3429 75.448 38.8329 68.158 39.5029 65.988Z" fill="#ECFB8F"/>
<path d="M64.6728 57.4876C64.3328 55.7776 76.4228 50.3176 78.4228 51.3176C80.4228 52.3176 81.2528 61.0676 80.4228 62.3976C79.5928 63.7276 71.5028 67.1576 69.6728 66.8276C67.8428 66.4976 64.8328 58.3276 64.6728 57.4876Z" fill="#ECFB8F"/>
<path d="M47.6228 104.447C47.6228 104.447 50.0028 100.077 52.2528 100.077C54.5028 100.077 61.3828 100.947 61.3828 100.947C61.3828 100.947 65.2628 101.447 66.7628 101.077C68.2628 100.707 70.0128 98.9573 71.2628 99.4573C72.5128 99.9573 73.2628 102.207 72.0128 103.077C70.7628 103.947 67.1428 105.457 65.2628 105.077C63.735 104.832 62.1902 104.708 60.6428 104.707C59.7511 104.576 58.8404 104.708 58.0228 105.087C56.9028 105.717 55.5228 108.217 55.5228 108.217C53.983 108.099 52.4678 107.762 51.0228 107.217C49.8176 106.677 48.5613 106.258 47.2728 105.967L47.6228 104.447Z" fill="#FF0000"/>
<path d="M62.3728 159.578C64.2099 159.648 66.0496 159.565 67.8728 159.328C69.8728 158.958 72.7528 158.328 72.7528 158.328C72.7528 158.328 71.7528 162.828 71.2528 164.578C70.7528 166.328 68.8828 169.578 66.2528 167.708C63.6228 165.838 62.3728 159.578 62.3728 159.578Z" fill="#368C46"/>
<path d="M19.6728 13.9076C19.6728 13.9076 17.3428 12.9876 16.7528 11.3276C16.1628 9.66764 17.6728 7.65764 18.6728 6.65764C19.6728 5.65764 24.8328 1.90764 27.0828 1.40764C29.3328 0.907642 31.1628 0.487642 32.1628 2.57764C32.7578 3.80585 33.2333 5.08841 33.5828 6.40764L33.2528 8.15764C32.7147 8.28569 32.1866 8.4528 31.6728 8.65764C31.4414 8.73788 31.2312 8.86955 31.0579 9.04276C30.8847 9.21597 30.7531 9.4262 30.6728 9.65764C30.3899 9.34128 30.043 9.08856 29.6551 8.91618C29.2673 8.74379 28.8473 8.65567 28.4228 8.65764C27.0928 8.73764 26.0028 11.6576 26.0028 11.6576C25.118 11.1323 24.1117 10.8463 23.0828 10.8276C21.6628 10.9076 21.2528 11.4976 21.2528 12.2476C21.2637 12.7387 21.3761 13.2221 21.5828 13.6676C21.5828 13.6676 21.0028 12.9076 19.6728 13.9076Z" fill="#9AD8D7"/>
<path d="M69.3029 79.168C70.0629 81.438 70.8129 83.748 71.5529 86.058" stroke="black" stroke-linecap="round" stroke-linejoin="round"/>
<path d="M21.7728 63.3773C21.4428 57.7673 28.6428 48.2273 26.1228 42.1073C20.1228 27.6573 19.6628 17.8873 20.0028 14.1073C15.5528 11.5173 16.3728 9.95733 17.3328 8.05733C18.2928 6.15733 27.7528 -0.472666 31.0828 1.60733C34.4128 3.68733 33.2728 8.29733 33.2728 8.29733C36.9048 14.6735 39.7777 21.453 41.8328 28.4973C42.8328 32.2473 43.0028 39.1673 53.0028 44.4973C54.3328 45.2073 59.5028 49.3273 60.6728 53.9973" stroke="black" stroke-linecap="round" stroke-linejoin="round"/>
<path d="M78.5027 108.708C82.2427 119.788 88.1327 133.848 89.5027 144.908C90.1927 150.288 84.3327 154.548 75.6127 157.448C66.1127 160.608 54.0627 160.358 52.0127 155.798C50.3027 151.998 26.0127 84.3781 21.9427 67.2881" stroke="black" stroke-linecap="round" stroke-linejoin="round"/>
<path d="M33.2828 8.29767C32.712 8.15678 32.109 8.23596 31.5939 8.51946C31.0787 8.80297 30.6892 9.27001 30.5028 9.82767C30.5028 9.82767 29.5028 8.07767 28.0028 8.82767C26.5028 9.57767 26.0028 11.8277 26.0028 11.8277C26.0028 11.8277 25.0028 10.3277 22.5028 10.8277C20.0028 11.3277 21.7528 13.5777 21.7528 13.5777C21.7528 13.5777 20.0028 12.8277 20.0028 14.0777" stroke="black" stroke-linecap="round" stroke-linejoin="round"/>
<path d="M33.8328 69.1577C34.0028 67.9077 33.1628 65.4077 33.8328 64.1577C36.3328 63.4077 77.5828 47.4877 77.5828 47.4877C77.5828 47.4877 80.7528 45.9877 81.2528 46.8177C81.7777 48.1078 82.1697 49.4481 82.4228 50.8177C82.6428 51.5977 81.0328 51.6177 81.2528 52.4877C82.2321 56.2871 82.901 60.1599 83.2528 64.0677C83.3728 66.3177 69.7528 71.5677 67.7528 70.0677C65.7528 68.5677 64.3328 63.3177 62.2528 59.8177C61.2528 58.0877 58.0028 59.8177 58.2528 62.3177C58.5028 64.8177 61.2528 71.0077 61.0028 72.3177C60.3328 75.2377 43.8028 80.7077 42.2528 79.9077C39.5028 78.4077 36.7528 69.1577 36.7528 69.1577H33.8328Z" stroke="black" stroke-linecap="round" stroke-linejoin="round"/>
<path d="M33.3328 68.9073C33.3328 68.9073 15.7528 66.5773 13.2528 66.3273C10.7528 66.0773 9.00281 73.0773 8.25281 74.5773C7.50281 76.0773 5.00281 73.5773 5.00281 73.5773C5.00281 73.5773 6.50281 63.8273 9.25281 63.3273C12.0028 62.8273 33.7528 64.1573 33.7528 64.1573" stroke="black" stroke-linecap="round" stroke-linejoin="round"/>
<path d="M78.5029 47.1572L54.1729 45.1572" stroke="black" stroke-linecap="round" stroke-linejoin="round"/>
<path d="M68.7528 50.5773L57.5028 48.4873" stroke="black" stroke-linecap="round" stroke-linejoin="round"/>
<path d="M40.9428 101.177C37.8328 97.0075 37.4328 87.5075 47.7828 88.5375C52.1228 88.9675 58.7828 93.8875 62.7828 94.4675C66.7828 95.0475 70.0628 91.5375 72.7828 90.9975C75.5028 90.4575 80.2928 96.6875 77.2628 102.077C74.2328 107.467 65.1028 108.587 60.7428 108.427C56.3828 108.267 46.0628 108.027 40.9428 101.177Z" stroke="black" stroke-linecap="round" stroke-linejoin="round"/>
<path d="M78.1727 163.987C77.7527 159.747 84.1727 157.487 86.6727 159.237C89.1727 160.987 88.1727 168.237 86.6727 168.987C85.1727 169.737 78.4227 166.487 78.1727 163.987Z" stroke="black" stroke-linecap="round" stroke-linejoin="round"/>
<path d="M72.4228 183.758C71.7028 177.008 75.6728 175.938 77.4228 177.498C79.1728 179.058 79.4228 183.368 78.6728 185.318C77.9228 187.268 72.9228 188.448 72.4228 183.758Z" stroke="black" stroke-linecap="round" stroke-linejoin="round"/>
<path d="M87.0828 193.328C88.4728 192.178 93.3328 196.328 91.3328 198.328C89.3328 200.328 82.8328 196.828 87.0828 193.328Z" stroke="black" stroke-linecap="round" stroke-linejoin="round"/>
<path d="M68.5028 86.0775C68.5028 86.0775 72.3328 85.3275 77.0028 88.3275C80.5028 90.5775 83.7528 97.0775 81.5028 103.827C80.4428 107.007 75.7528 109.577 75.7528 109.577" stroke="black" stroke-linecap="round" stroke-linejoin="round"/>
<path d="M38.7528 86.8281C36.6219 88.4984 35.1946 90.9069 34.7528 93.5781C34.4228 95.5781 34.7528 100.078 39.2528 104.578" stroke="black" stroke-linecap="round" stroke-linejoin="round"/>
<path d="M50.2528 107.078C50.2528 107.078 44.6728 114.828 46.1728 116.328C47.6728 117.828 50.6728 114.498 50.6728 114.498C50.6728 114.498 47.5028 125.578 48.5028 127.578C49.5028 129.578 54.7528 123.328 54.7528 123.328C54.7528 123.328 54.2528 131.828 56.5028 132.078C58.7528 132.328 59.5028 120.328 59.0028 117.078C59.0028 117.078 60.7528 123.078 62.0028 123.078C63.2528 123.078 63.7528 111.328 62.5028 108.578" stroke="black" stroke-linecap="round" stroke-linejoin="round"/>
<path d="M72.1728 91.3281C72.1728 91.3281 74.1728 93.3281 72.8428 94.8281C71.5128 96.3281 69.8428 92.4981 69.8428 92.4981C69.8428 92.4981 69.6728 96.3281 68.0128 96.8281C66.3528 97.3281 66.0128 94.3281 66.0128 94.3281C66.0128 94.3281 65.1828 97.4981 62.6828 97.8281C60.1828 98.1581 60.6828 93.9981 60.6828 93.9981C60.6828 93.9981 58.5028 97.8281 57.3328 97.1581C55.3928 96.0481 56.6628 92.3281 56.6628 92.3281C56.6628 92.3281 53.9928 96.3281 52.3328 94.8281C50.6728 93.3281 52.0028 90.3281 52.0028 90.3281C52.0028 90.3281 47.0028 94.8281 45.6728 92.8281C44.3428 90.8281 47.7928 88.5381 47.7928 88.5381" stroke="black" stroke-linecap="round" stroke-linejoin="round"/>
<path d="M47.3328 105.327C47.3328 105.327 49.6628 99.6574 53.8328 99.9974C58.0028 100.337 65.0028 101.667 67.0028 100.997C69.0028 100.327 70.7228 98.4174 72.1728 100.167C73.8428 102.167 71.1728 104.497 66.5028 104.837C63.2162 104.797 59.9344 104.573 56.6728 104.167" stroke="black" stroke-linecap="round" stroke-linejoin="round"/>
<path d="M55.6729 107.708C55.6729 107.708 57.1729 104.878 59.1729 104.708" stroke="black" stroke-linecap="round" stroke-linejoin="round"/>
<path d="M64.8328 69.1572C66.9107 70.7054 69.2985 71.7867 71.8328 72.3272C75.3328 72.8272 74.5028 77.1572 72.0028 77.9972C69.5028 78.8372 66.0028 77.3272 66.0028 77.3272" stroke="black" stroke-linecap="round" stroke-linejoin="round"/>
<path d="M39.3328 65.988C39.9228 64.068 53.0028 59.658 54.8328 60.988C56.6628 62.318 58.0028 69.408 57.3328 71.408C56.6628 73.408 44.8328 76.708 43.5028 76.078C42.1728 75.448 38.6728 68.158 39.3328 65.988Z" stroke="black" stroke-linecap="round" stroke-linejoin="round"/>
<path d="M64.5028 57.4876C64.1628 55.7776 76.2528 50.3176 78.2528 51.3176C80.2528 52.3176 81.0828 61.0676 80.2528 62.3976C79.4228 63.7276 71.3328 67.1576 69.5028 66.8276C67.6728 66.4976 64.6728 58.3276 64.5028 57.4876Z" stroke="black" stroke-linecap="round" stroke-linejoin="round"/>
<path d="M47.0028 68.1581L52.8328 66.3281" stroke="black" stroke-linecap="round" stroke-linejoin="round"/>
<path d="M70.1729 59.6572L76.0029 57.6572" stroke="black" stroke-linecap="round" stroke-linejoin="round"/>
<path d="M104.003 170.657C104.253 169.407 104.753 167.407 104.753 167.407" stroke="black" stroke-linecap="round" stroke-linejoin="round"/>
<path d="M27.5028 127.328C27.5028 127.328 27.5028 125.328 28.2528 125.328" stroke="black" stroke-linecap="round" stroke-linejoin="round"/>
<path d="M85.7528 82.3281C86.1411 82.4247 86.5016 82.6105 86.8054 82.8709C87.1092 83.1314 87.348 83.4591 87.5028 83.8281" stroke="black" stroke-linecap="round" stroke-linejoin="round"/>
<path d="M14.0028 85.8273C14.0028 85.8273 14.0028 82.8273 15.2528 83.0773" stroke="black" stroke-linecap="round" stroke-linejoin="round"/>
<path d="M64.0028 37.8281L64.7528 36.0781" stroke="black" stroke-linecap="round" stroke-linejoin="round"/>
<path d="M92.5028 116.078L93.2528 117.328" stroke="black" stroke-linecap="round" stroke-linejoin="round"/>
<path d="M11.5028 30.8281V29.0781" stroke="black" stroke-linecap="round" stroke-linejoin="round"/>
<path d="M73.6729 206.487C73.6729 206.487 73.9229 208.737 74.6729 208.987" stroke="black" stroke-linecap="round" stroke-linejoin="round"/>
<path d="M49.4628 65.6777L50.5228 68.1477" stroke="black" stroke-linecap="round" stroke-linejoin="round"/>
<path d="M48.6628 67.4872L50.9928 66.6572" stroke="black" stroke-linecap="round" stroke-linejoin="round"/>
<path d="M48.8828 66.3672L51.2128 67.5272" stroke="black" stroke-linecap="round" stroke-linejoin="round"/>
<path d="M49.4128 68.3478L50.5828 65.7578" stroke="black" stroke-linecap="round" stroke-linejoin="round"/>
<path d="M72.3328 57.6377L73.3928 60.1077" stroke="black" stroke-linecap="round" stroke-linejoin="round"/>
<path d="M71.5428 59.4472L73.8628 58.6172" stroke="black" stroke-linecap="round" stroke-linejoin="round"/>
<path d="M71.7528 58.3281L74.0928 59.4881" stroke="black" stroke-linecap="round" stroke-linejoin="round"/>
<path d="M72.2828 60.3078L73.4628 57.7178" stroke="black" stroke-linecap="round" stroke-linejoin="round"/>
<path d="M68.0028 145.078C69.9228 143.798 71.2528 148.578 69.2528 149.828C67.2528 151.078 66.5028 146.078 68.0028 145.078Z" stroke="black" stroke-linecap="round" stroke-linejoin="round"/>
<path d="M72.6728 158.328C72.6728 158.328 71.6728 168.328 68.0028 168.328C64.3328 168.328 62.3328 159.658 62.3328 159.658" stroke="black" stroke-linecap="round" stroke-linejoin="round"/>
<path d="M29.3329 3.32812L26.6729 3.98813" stroke="black" stroke-linecap="round" stroke-linejoin="round"/>
</g>
<defs>
<filter id="filter0_d" x="0.502808" y="0.708008" width="108.75" height="227.606" filterUnits="userSpaceOnUse" color-interpolation-filters="sRGB">
<feFlood flood-opacity="0" result="BackgroundImageFix"/>
<feColorMatrix in="SourceAlpha" type="matrix" values="0 0 0 0 0 0 0 0 0 0 0 0 0 0 0 0 0 0 127 0"/>
<feOffset dy="4"/>
<feGaussianBlur stdDeviation="2"/>
<feColorMatrix type="matrix" values="0 0 0 0 0 0 0 0 0 0 0 0 0 0 0 0 0 0 0.25 0"/>
<feBlend mode="normal" in2="BackgroundImageFix" result="effect1_dropShadow"/>
<feBlend mode="normal" in="SourceGraphic" in2="effect1_dropShadow" result="shape"/>
</filter>
</defs>
</svg>
