<svg width="765" height="47" viewBox="0 0 765 47" fill="none" xmlns="http://www.w3.org/2000/svg">
<rect x="0.5" y="7.5" width="254" height="39" rx="5.5" fill="#9D0000" stroke="#9D0000"/>
<rect x="0.5" y="3.5" width="254" height="41" rx="5.5" fill="#E53935" stroke="#9D0000"/>
<path d="M25.497 28.202C25.735 28.818 26.015 29.238 26.505 29.238C29.627 29.182 33.337 27.824 33.337 24.646C33.337 23.386 32.455 22.966 31.237 22.742C32.161 22.112 32.777 21.342 32.777 20.236C32.777 19.088 31.209 18.626 29.445 18.626C27.303 18.626 25.861 19.116 24.643 20.124C24.643 20.642 24.825 21.09 25.189 21.426C25.189 22.056 25.189 22.392 25.217 23.372C25.007 23.554 24.923 23.862 24.923 24.17C24.923 24.492 25.021 24.814 25.287 24.94C25.343 26.256 25.399 27.194 25.497 28.202ZM27.359 22.686C27.345 22.224 27.289 21.132 27.331 20.838C27.835 20.642 28.745 20.46 29.501 20.46C30.047 20.46 30.579 20.558 30.579 20.74C30.579 21.678 29.347 22.308 27.359 22.686ZM27.569 27.152C27.499 26.606 27.429 25.738 27.429 24.828C27.947 24.52 29.277 24.226 30.075 24.226C30.887 24.226 31.223 24.52 31.223 24.884C31.223 26.214 29.011 26.97 27.569 27.152ZM35.2404 28.37C35.6604 28.958 35.8704 29.14 36.4444 29.364C38.4744 29.294 40.9804 29.168 42.8004 28.314C42.9264 28.006 42.9684 27.754 42.9684 27.586C42.9684 27.012 42.6744 26.522 42.0864 26.48C40.5464 26.914 38.6984 27.166 37.4104 27.236C37.4104 26.228 37.4384 25.444 37.4804 24.842C37.8444 24.814 38.1384 24.814 38.6984 24.772C39.6784 24.716 40.8684 24.632 41.7644 24.52C42.1704 24.338 42.3944 23.848 42.3944 23.4C42.3944 23.078 42.2544 22.7 41.8764 22.462C40.4764 22.63 38.5164 22.784 37.5784 22.826C37.5504 22.28 37.5644 21.622 37.5784 21.076C38.8944 20.908 40.8964 20.908 42.1984 20.656C42.5904 20.516 42.8144 20.068 42.8144 19.634C42.8144 19.382 42.7304 19.074 42.5344 18.794C41.8624 18.64 37.7044 18.948 36.1504 19.032C35.6044 19.298 35.3384 19.438 34.9044 19.802C34.9044 20.348 35.0724 20.81 35.4364 21.118C35.4364 21.482 35.4224 22 35.3664 23.26C35.1844 23.456 35.0584 23.792 35.0584 24.1C35.0584 24.394 35.1424 24.674 35.3524 24.87L35.2404 28.37ZM45.0891 29.042C45.3271 29.322 45.6071 29.406 45.9011 29.406C46.2091 29.406 46.6571 29.294 47.1051 28.986C47.0911 27.796 47.0211 26.746 47.0071 25.598C48.9951 25.388 53.1951 23.932 53.1951 21.16C53.1951 19.522 51.0391 18.668 49.3871 18.668C47.9171 18.668 45.9571 18.766 44.7251 20.306C44.5011 20.908 44.6271 21.3 44.9911 21.594C44.9771 22.168 44.9631 23.12 44.9631 24.394C44.9631 25.906 44.9911 27.754 45.0891 29.042ZM47.0071 23.666C47.0351 22.84 47.0631 21.65 47.1191 20.964C47.5391 20.768 48.4631 20.53 49.0651 20.53C49.9331 20.53 50.9971 20.712 50.9971 21.314C50.9971 22.812 48.0991 23.526 47.0071 23.666ZM54.9332 28.776C55.0872 29.126 55.5072 29.28 55.9272 29.28C56.4732 29.28 57.0332 29 57.0332 28.454C57.0332 27.698 56.9352 25.472 56.9912 25.136C57.4252 25.024 59.7072 24.786 60.9112 24.66C60.9112 25.822 60.8972 27.348 60.8832 28.468C61.0932 28.93 61.5692 29.126 61.9892 29.126C62.5212 29.126 62.9972 28.846 63.0812 28.37C63.0532 27.432 63.0532 26.214 63.0532 24.996C63.0532 22.854 63.0392 20.558 62.8712 19.074C62.6612 18.752 62.2692 18.57 61.9052 18.57C61.4292 18.57 60.9672 18.808 60.7992 19.298C60.7992 21.006 60.8132 21.86 60.8412 22.742C59.1192 22.924 57.8872 23.022 57.0752 23.064C57.0332 21.062 57.0052 19.27 56.7112 18.738C55.8712 18.486 54.9192 18.892 54.7372 19.508C54.6952 20.446 54.8492 22.84 54.8492 23.512C54.4712 23.932 54.4432 24.814 54.8492 25.206L54.9332 28.776ZM66.3526 28.468C66.7306 29.336 67.3606 29.574 68.3266 29.35C69.9506 26.858 72.4846 21.692 73.4926 19.186C73.1146 18.486 72.2746 18.304 71.7566 18.416C70.8746 19.858 69.9646 22.154 69.1106 23.666C68.2146 22.238 67.1786 20.054 66.3526 18.626C65.7646 18.136 64.6306 18.57 64.4486 19.102C64.6306 20.404 66.9826 23.848 68.0466 25.64L66.3526 28.468ZM77.4375 28.958C78.0815 29.378 78.8235 29.168 79.4255 28.608L79.3415 20.516C80.6015 20.376 81.3995 20.306 82.0015 20.082C82.3515 19.536 82.3655 18.78 81.9595 18.374C80.5315 18.374 75.3655 18.878 74.2035 19.368C74.0075 19.872 74.1615 20.53 74.5115 21.09C75.5195 21.062 76.3035 20.908 77.2555 20.768C77.1995 22.84 77.2415 27.922 77.4375 28.958ZM84.206 28.146C84.36 28.776 84.864 29.098 85.382 29.252C88.042 29.21 92.27 28.636 92.27 24.94C92.27 23.008 90.59 22.168 88.882 22.168C88.112 22.168 87.216 22.322 86.152 22.602L86.138 18.738C85.872 18.472 85.396 18.388 84.962 18.388C84.682 18.388 84.36 18.5 84.024 18.864C84.164 20.726 84.01 26.606 84.206 28.146ZM86.236 27.236L86.18 24.534C86.418 24.38 87.538 24.128 88.532 24.128C89.47 24.128 90.142 24.366 90.142 25.024C90.142 26.732 87.888 27.362 86.236 27.236ZM93.2661 24.422C93.2661 26.76 95.0581 29.21 97.7601 29.21C99.4541 29.21 101.386 28.272 102.464 26.648C102.534 25.85 101.848 25.206 101.148 25.15C99.8181 26.774 99.0761 27.208 97.8441 27.208C96.7101 27.208 95.4221 26.2 95.4221 24.548C95.4221 21.636 97.0601 20.67 98.5161 20.67C99.6921 20.67 100.28 21.188 100.77 21.776C101.484 21.664 102.156 21.16 102.184 20.544C101.89 19.536 100.28 18.752 98.6561 18.752C95.5761 18.752 93.2661 20.852 93.2661 24.422ZM104.541 27.81C104.289 28.734 105.171 29.294 105.563 29.336C107.061 29.21 108.713 26.676 109.343 25.052C109.777 25.024 110.239 24.954 110.645 24.87L110.561 28.874C111.009 29.168 111.443 29.28 111.737 29.28C112.031 29.28 112.311 29.182 112.521 28.972C112.633 27.558 112.661 25.43 112.661 23.568C112.661 22 112.633 20.586 112.605 19.998C112.563 19.368 112.143 18.99 111.667 18.766C110.981 18.668 110.141 18.584 109.329 18.584C106.963 18.584 104.415 19.228 104.415 21.916C104.415 23.512 105.927 24.646 107.201 24.94C106.781 25.808 105.773 27.236 104.541 27.81ZM106.431 21.916C106.431 20.782 107.775 20.362 109.063 20.362C109.581 20.362 110.099 20.432 110.575 20.544L110.659 23.092C110.365 23.162 109.497 23.288 108.685 23.288C107.551 23.288 106.431 22.924 106.431 21.916ZM119.041 28.776C119.195 29.126 119.615 29.28 120.035 29.28C120.581 29.28 121.141 29 121.141 28.454C121.141 27.698 121.043 25.472 121.099 25.136C121.533 25.024 123.815 24.786 125.019 24.66C125.019 25.822 125.005 27.348 124.991 28.468C125.201 28.93 125.677 29.126 126.097 29.126C126.629 29.126 127.105 28.846 127.189 28.37C127.161 27.432 127.161 26.214 127.161 24.996C127.161 22.854 127.147 20.558 126.979 19.074C126.769 18.752 126.377 18.57 126.013 18.57C125.537 18.57 125.075 18.808 124.907 19.298C124.907 21.006 124.921 21.86 124.949 22.742C123.227 22.924 121.995 23.022 121.183 23.064C121.141 21.062 121.113 19.27 120.819 18.738C119.979 18.486 119.027 18.892 118.845 19.508C118.803 20.446 118.957 22.84 118.957 23.512C118.579 23.932 118.551 24.814 118.957 25.206L119.041 28.776ZM128.752 28.902C129.046 29.182 129.494 29.322 129.844 29.322C130.222 29.322 130.544 29.182 130.67 28.916C131.118 27.81 131.146 27.726 131.202 27.642C132.448 27.488 133.932 27.334 135.136 27.18V27.236C135.36 27.74 135.626 28.426 135.976 29.112C136.55 29.21 137.516 28.65 137.74 28.132C137.32 26.942 134.576 19.256 132.896 18.78C132.154 18.836 131.776 19.27 131.454 19.998C131.608 20.362 131.692 20.516 131.79 20.698C131.79 20.712 131.818 20.726 131.818 20.74C130.53 23.344 128.556 28.216 128.654 28.706L128.752 28.902ZM131.902 25.626C132.966 23.134 133.092 22.77 133.204 22.518C133.568 23.246 134.114 24.422 134.408 25.248L131.902 25.626ZM143.267 28.202C143.505 28.818 143.785 29.238 144.275 29.238C147.397 29.182 151.107 27.824 151.107 24.646C151.107 23.386 150.225 22.966 149.007 22.742C149.931 22.112 150.547 21.342 150.547 20.236C150.547 19.088 148.979 18.626 147.215 18.626C145.073 18.626 143.631 19.116 142.413 20.124C142.413 20.642 142.595 21.09 142.959 21.426C142.959 22.056 142.959 22.392 142.987 23.372C142.777 23.554 142.693 23.862 142.693 24.17C142.693 24.492 142.791 24.814 143.057 24.94C143.113 26.256 143.169 27.194 143.267 28.202ZM145.129 22.686C145.115 22.224 145.059 21.132 145.101 20.838C145.605 20.642 146.515 20.46 147.271 20.46C147.817 20.46 148.349 20.558 148.349 20.74C148.349 21.678 147.117 22.308 145.129 22.686ZM145.339 27.152C145.269 26.606 145.199 25.738 145.199 24.828C145.717 24.52 147.047 24.226 147.845 24.226C148.657 24.226 148.993 24.52 148.993 24.884C148.993 26.214 146.781 26.97 145.339 27.152ZM153.01 28.37C153.43 28.958 153.64 29.14 154.214 29.364C156.244 29.294 158.75 29.168 160.57 28.314C160.696 28.006 160.738 27.754 160.738 27.586C160.738 27.012 160.444 26.522 159.856 26.48C158.316 26.914 156.468 27.166 155.18 27.236C155.18 26.228 155.208 25.444 155.25 24.842C155.614 24.814 155.908 24.814 156.468 24.772C157.448 24.716 158.638 24.632 159.534 24.52C159.94 24.338 160.164 23.848 160.164 23.4C160.164 23.078 160.024 22.7 159.646 22.462C158.246 22.63 156.286 22.784 155.348 22.826C155.32 22.28 155.334 21.622 155.348 21.076C156.664 20.908 158.666 20.908 159.968 20.656C160.36 20.516 160.584 20.068 160.584 19.634C160.584 19.382 160.5 19.074 160.304 18.794C159.632 18.64 155.474 18.948 153.92 19.032C153.374 19.298 153.108 19.438 152.674 19.802C152.674 20.348 152.842 20.81 153.206 21.118C153.206 21.482 153.192 22 153.136 23.26C152.954 23.456 152.828 23.792 152.828 24.1C152.828 24.394 152.912 24.674 153.122 24.87L153.01 28.37ZM165.561 26.396C166.471 26.396 167.367 26.116 168.081 25.78V28.958C168.361 29.154 168.697 29.28 168.991 29.28C169.397 29.28 169.845 29.098 170.083 28.748C170.167 25.472 170.167 22.28 169.971 18.752C169.803 18.416 169.481 18.276 169.159 18.276C168.641 18.276 167.885 18.668 167.773 19.102C167.927 20.6 168.011 22.196 168.011 23.554C167.479 24.03 166.611 24.31 165.785 24.31C164.931 24.31 163.839 23.848 163.839 22.518C163.839 21.468 164.063 20.404 164.819 19.284C164.567 18.794 163.867 18.402 163.363 18.402C163.125 18.402 162.873 18.458 162.649 18.654C161.949 19.956 161.683 21.118 161.683 22.252C161.683 25.15 163.699 26.396 165.561 26.396ZM172.055 28.37C172.475 28.958 172.685 29.14 173.259 29.364C175.289 29.294 177.795 29.168 179.615 28.314C179.741 28.006 179.783 27.754 179.783 27.586C179.783 27.012 179.489 26.522 178.901 26.48C177.361 26.914 175.513 27.166 174.225 27.236C174.225 26.228 174.253 25.444 174.295 24.842C174.659 24.814 174.953 24.814 175.513 24.772C176.493 24.716 177.683 24.632 178.579 24.52C178.985 24.338 179.209 23.848 179.209 23.4C179.209 23.078 179.069 22.7 178.691 22.462C177.291 22.63 175.331 22.784 174.393 22.826C174.365 22.28 174.379 21.622 174.393 21.076C175.709 20.908 177.711 20.908 179.013 20.656C179.405 20.516 179.629 20.068 179.629 19.634C179.629 19.382 179.545 19.074 179.349 18.794C178.677 18.64 174.519 18.948 172.965 19.032C172.419 19.298 172.153 19.438 171.719 19.802C171.719 20.348 171.887 20.81 172.251 21.118C172.251 21.482 172.237 22 172.181 23.26C171.999 23.456 171.873 23.792 171.873 24.1C171.873 24.394 171.957 24.674 172.167 24.87L172.055 28.37ZM181.904 29.042C182.142 29.322 182.422 29.406 182.716 29.406C183.024 29.406 183.472 29.294 183.92 28.986C183.906 27.796 183.836 26.746 183.822 25.598C185.81 25.388 190.01 23.932 190.01 21.16C190.01 19.522 187.854 18.668 186.202 18.668C184.732 18.668 182.772 18.766 181.54 20.306C181.316 20.908 181.442 21.3 181.806 21.594C181.792 22.168 181.778 23.12 181.778 24.394C181.778 25.906 181.806 27.754 181.904 29.042ZM183.822 23.666C183.85 22.84 183.878 21.65 183.934 20.964C184.354 20.768 185.278 20.53 185.88 20.53C186.748 20.53 187.812 20.712 187.812 21.314C187.812 22.812 184.914 23.526 183.822 23.666ZM191.566 28.552C192.168 29.112 192.434 29.056 193.176 29.21C193.904 28.888 196.606 24.52 197.922 22.35C197.838 24.058 197.754 25.192 197.754 26.144C197.754 27.474 197.908 28.608 198.384 28.93C198.874 29.182 199.938 28.888 200.12 28.244C200.064 27.768 200.05 27.138 200.05 26.382C200.036 25.262 200.232 19.648 200.05 18.962C199.756 18.598 199.042 18.388 198.678 18.29C197.586 18.486 194.884 23.456 193.652 25.388C193.638 24.016 193.736 19.718 193.568 18.22C192.882 18.122 191.944 18.206 191.482 18.752C191.482 21.356 191.412 26.956 191.566 28.552ZM202.48 28.776C202.634 29.126 203.054 29.28 203.474 29.28C204.02 29.28 204.58 29 204.58 28.454C204.58 27.698 204.482 25.472 204.538 25.136C204.972 25.024 207.254 24.786 208.458 24.66C208.458 25.822 208.444 27.348 208.43 28.468C208.64 28.93 209.116 29.126 209.536 29.126C210.068 29.126 210.544 28.846 210.628 28.37C210.6 27.432 210.6 26.214 210.6 24.996C210.6 22.854 210.586 20.558 210.418 19.074C210.208 18.752 209.816 18.57 209.452 18.57C208.976 18.57 208.514 18.808 208.346 19.298C208.346 21.006 208.36 21.86 208.388 22.742C206.666 22.924 205.434 23.022 204.622 23.064C204.58 21.062 204.552 19.27 204.258 18.738C203.418 18.486 202.466 18.892 202.284 19.508C202.242 20.446 202.396 22.84 202.396 23.512C202.018 23.932 201.99 24.814 202.396 25.206L202.48 28.776ZM213.073 28.986C213.871 29.448 214.683 29.028 215.201 28.566C215.201 27.712 215.019 25.808 215.019 24.982C215.229 24.786 215.439 24.604 215.635 24.464L219.499 29.322C219.947 29.182 221.011 28.874 221.011 27.992C220.045 26.41 218.043 24.058 217.147 23.12C217.917 22.42 219.821 21.006 220.521 19.704C220.171 19.032 219.429 18.696 218.897 18.85L214.991 22.364C214.977 21.594 215.229 19.69 214.865 18.85C214.515 18.724 214.207 18.668 213.969 18.668C213.493 18.668 213.073 18.822 212.919 19.284C212.849 20.082 212.821 21.216 212.821 22.462C212.821 24.772 212.933 27.586 213.073 28.986ZM223.374 28.468C223.752 29.336 224.382 29.574 225.348 29.35C226.972 26.858 229.506 21.692 230.514 19.186C230.136 18.486 229.296 18.304 228.778 18.416C227.896 19.858 226.986 22.154 226.132 23.666C225.236 22.238 224.2 20.054 223.374 18.626C222.786 18.136 221.652 18.57 221.47 19.102C221.652 20.404 224.004 23.848 225.068 25.64L223.374 28.468Z" fill="white"/>
<circle cx="6" cy="9" r="1" fill="#9D0000"/>
<circle cx="249" cy="9" r="1" fill="#9D0000"/>
<circle cx="6" cy="37" r="1" fill="#9D0000"/>
<circle cx="249" cy="37" r="1" fill="#9D0000"/>
<rect x="510.5" y="7.5" width="254" height="39" rx="5.5" fill="#9D0000" stroke="#9D0000"/>
<rect x="510.5" y="4.5" width="254" height="41" rx="5.5" fill="#BF2E2B" stroke="#9D0000"/>
<path d="M535.497 30.202C535.735 30.818 536.015 31.238 536.505 31.238C539.627 31.182 543.337 29.824 543.337 26.646C543.337 25.386 542.455 24.966 541.237 24.742C542.161 24.112 542.777 23.342 542.777 22.236C542.777 21.088 541.209 20.626 539.445 20.626C537.303 20.626 535.861 21.116 534.643 22.124C534.643 22.642 534.825 23.09 535.189 23.426C535.189 24.056 535.189 24.392 535.217 25.372C535.007 25.554 534.923 25.862 534.923 26.17C534.923 26.492 535.021 26.814 535.287 26.94C535.343 28.256 535.399 29.194 535.497 30.202ZM537.359 24.686C537.345 24.224 537.289 23.132 537.331 22.838C537.835 22.642 538.745 22.46 539.501 22.46C540.047 22.46 540.579 22.558 540.579 22.74C540.579 23.678 539.347 24.308 537.359 24.686ZM537.569 29.152C537.499 28.606 537.429 27.738 537.429 26.828C537.947 26.52 539.277 26.226 540.075 26.226C540.887 26.226 541.223 26.52 541.223 26.884C541.223 28.214 539.011 28.97 537.569 29.152ZM545.24 30.37C545.66 30.958 545.87 31.14 546.444 31.364C548.474 31.294 550.98 31.168 552.8 30.314C552.926 30.006 552.968 29.754 552.968 29.586C552.968 29.012 552.674 28.522 552.086 28.48C550.546 28.914 548.698 29.166 547.41 29.236C547.41 28.228 547.438 27.444 547.48 26.842C547.844 26.814 548.138 26.814 548.698 26.772C549.678 26.716 550.868 26.632 551.764 26.52C552.17 26.338 552.394 25.848 552.394 25.4C552.394 25.078 552.254 24.7 551.876 24.462C550.476 24.63 548.516 24.784 547.578 24.826C547.55 24.28 547.564 23.622 547.578 23.076C548.894 22.908 550.896 22.908 552.198 22.656C552.59 22.516 552.814 22.068 552.814 21.634C552.814 21.382 552.73 21.074 552.534 20.794C551.862 20.64 547.704 20.948 546.15 21.032C545.604 21.298 545.338 21.438 544.904 21.802C544.904 22.348 545.072 22.81 545.436 23.118C545.436 23.482 545.422 24 545.366 25.26C545.184 25.456 545.058 25.792 545.058 26.1C545.058 26.394 545.142 26.674 545.352 26.87L545.24 30.37ZM555.089 31.042C555.327 31.322 555.607 31.406 555.901 31.406C556.209 31.406 556.657 31.294 557.105 30.986C557.091 29.796 557.021 28.746 557.007 27.598C558.995 27.388 563.195 25.932 563.195 23.16C563.195 21.522 561.039 20.668 559.387 20.668C557.917 20.668 555.957 20.766 554.725 22.306C554.501 22.908 554.627 23.3 554.991 23.594C554.977 24.168 554.963 25.12 554.963 26.394C554.963 27.906 554.991 29.754 555.089 31.042ZM557.007 25.666C557.035 24.84 557.063 23.65 557.119 22.964C557.539 22.768 558.463 22.53 559.065 22.53C559.933 22.53 560.997 22.712 560.997 23.314C560.997 24.812 558.099 25.526 557.007 25.666ZM564.933 30.776C565.087 31.126 565.507 31.28 565.927 31.28C566.473 31.28 567.033 31 567.033 30.454C567.033 29.698 566.935 27.472 566.991 27.136C567.425 27.024 569.707 26.786 570.911 26.66C570.911 27.822 570.897 29.348 570.883 30.468C571.093 30.93 571.569 31.126 571.989 31.126C572.521 31.126 572.997 30.846 573.081 30.37C573.053 29.432 573.053 28.214 573.053 26.996C573.053 24.854 573.039 22.558 572.871 21.074C572.661 20.752 572.269 20.57 571.905 20.57C571.429 20.57 570.967 20.808 570.799 21.298C570.799 23.006 570.813 23.86 570.841 24.742C569.119 24.924 567.887 25.022 567.075 25.064C567.033 23.062 567.005 21.27 566.711 20.738C565.871 20.486 564.919 20.892 564.737 21.508C564.695 22.446 564.849 24.84 564.849 25.512C564.471 25.932 564.443 26.814 564.849 27.206L564.933 30.776ZM576.353 30.468C576.731 31.336 577.361 31.574 578.327 31.35C579.951 28.858 582.485 23.692 583.493 21.186C583.115 20.486 582.275 20.304 581.757 20.416C580.875 21.858 579.965 24.154 579.111 25.666C578.215 24.238 577.179 22.054 576.353 20.626C575.765 20.136 574.631 20.57 574.449 21.102C574.631 22.404 576.983 25.848 578.047 27.64L576.353 30.468ZM587.438 30.958C588.082 31.378 588.824 31.168 589.426 30.608L589.342 22.516C590.602 22.376 591.4 22.306 592.002 22.082C592.352 21.536 592.366 20.78 591.96 20.374C590.532 20.374 585.366 20.878 584.204 21.368C584.008 21.872 584.162 22.53 584.512 23.09C585.52 23.062 586.304 22.908 587.256 22.768C587.2 24.84 587.242 29.922 587.438 30.958ZM594.206 30.146C594.36 30.776 594.864 31.098 595.382 31.252C598.042 31.21 602.27 30.636 602.27 26.94C602.27 25.008 600.59 24.168 598.882 24.168C598.112 24.168 597.216 24.322 596.152 24.602L596.138 20.738C595.872 20.472 595.396 20.388 594.962 20.388C594.682 20.388 594.36 20.5 594.024 20.864C594.164 22.726 594.01 28.606 594.206 30.146ZM596.236 29.236L596.18 26.534C596.418 26.38 597.538 26.128 598.532 26.128C599.47 26.128 600.142 26.366 600.142 27.024C600.142 28.732 597.888 29.362 596.236 29.236ZM603.266 26.422C603.266 28.76 605.058 31.21 607.76 31.21C609.454 31.21 611.386 30.272 612.464 28.648C612.534 27.85 611.848 27.206 611.148 27.15C609.818 28.774 609.076 29.208 607.844 29.208C606.71 29.208 605.422 28.2 605.422 26.548C605.422 23.636 607.06 22.67 608.516 22.67C609.692 22.67 610.28 23.188 610.77 23.776C611.484 23.664 612.156 23.16 612.184 22.544C611.89 21.536 610.28 20.752 608.656 20.752C605.576 20.752 603.266 22.852 603.266 26.422ZM614.541 29.81C614.289 30.734 615.171 31.294 615.563 31.336C617.061 31.21 618.713 28.676 619.343 27.052C619.777 27.024 620.239 26.954 620.645 26.87L620.561 30.874C621.009 31.168 621.443 31.28 621.737 31.28C622.031 31.28 622.311 31.182 622.521 30.972C622.633 29.558 622.661 27.43 622.661 25.568C622.661 24 622.633 22.586 622.605 21.998C622.563 21.368 622.143 20.99 621.667 20.766C620.981 20.668 620.141 20.584 619.329 20.584C616.963 20.584 614.415 21.228 614.415 23.916C614.415 25.512 615.927 26.646 617.201 26.94C616.781 27.808 615.773 29.236 614.541 29.81ZM616.431 23.916C616.431 22.782 617.775 22.362 619.063 22.362C619.581 22.362 620.099 22.432 620.575 22.544L620.659 25.092C620.365 25.162 619.497 25.288 618.685 25.288C617.551 25.288 616.431 24.924 616.431 23.916ZM629.041 30.776C629.195 31.126 629.615 31.28 630.035 31.28C630.581 31.28 631.141 31 631.141 30.454C631.141 29.698 631.043 27.472 631.099 27.136C631.533 27.024 633.815 26.786 635.019 26.66C635.019 27.822 635.005 29.348 634.991 30.468C635.201 30.93 635.677 31.126 636.097 31.126C636.629 31.126 637.105 30.846 637.189 30.37C637.161 29.432 637.161 28.214 637.161 26.996C637.161 24.854 637.147 22.558 636.979 21.074C636.769 20.752 636.377 20.57 636.013 20.57C635.537 20.57 635.075 20.808 634.907 21.298C634.907 23.006 634.921 23.86 634.949 24.742C633.227 24.924 631.995 25.022 631.183 25.064C631.141 23.062 631.113 21.27 630.819 20.738C629.979 20.486 629.027 20.892 628.845 21.508C628.803 22.446 628.957 24.84 628.957 25.512C628.579 25.932 628.551 26.814 628.957 27.206L629.041 30.776ZM638.752 30.902C639.046 31.182 639.494 31.322 639.844 31.322C640.222 31.322 640.544 31.182 640.67 30.916C641.118 29.81 641.146 29.726 641.202 29.642C642.448 29.488 643.932 29.334 645.136 29.18V29.236C645.36 29.74 645.626 30.426 645.976 31.112C646.55 31.21 647.516 30.65 647.74 30.132C647.32 28.942 644.576 21.256 642.896 20.78C642.154 20.836 641.776 21.27 641.454 21.998C641.608 22.362 641.692 22.516 641.79 22.698C641.79 22.712 641.818 22.726 641.818 22.74C640.53 25.344 638.556 30.216 638.654 30.706L638.752 30.902ZM641.902 27.626C642.966 25.134 643.092 24.77 643.204 24.518C643.568 25.246 644.114 26.422 644.408 27.248L641.902 27.626ZM653.267 30.202C653.505 30.818 653.785 31.238 654.275 31.238C657.397 31.182 661.107 29.824 661.107 26.646C661.107 25.386 660.225 24.966 659.007 24.742C659.931 24.112 660.547 23.342 660.547 22.236C660.547 21.088 658.979 20.626 657.215 20.626C655.073 20.626 653.631 21.116 652.413 22.124C652.413 22.642 652.595 23.09 652.959 23.426C652.959 24.056 652.959 24.392 652.987 25.372C652.777 25.554 652.693 25.862 652.693 26.17C652.693 26.492 652.791 26.814 653.057 26.94C653.113 28.256 653.169 29.194 653.267 30.202ZM655.129 24.686C655.115 24.224 655.059 23.132 655.101 22.838C655.605 22.642 656.515 22.46 657.271 22.46C657.817 22.46 658.349 22.558 658.349 22.74C658.349 23.678 657.117 24.308 655.129 24.686ZM655.339 29.152C655.269 28.606 655.199 27.738 655.199 26.828C655.717 26.52 657.047 26.226 657.845 26.226C658.657 26.226 658.993 26.52 658.993 26.884C658.993 28.214 656.781 28.97 655.339 29.152ZM663.01 30.37C663.43 30.958 663.64 31.14 664.214 31.364C666.244 31.294 668.75 31.168 670.57 30.314C670.696 30.006 670.738 29.754 670.738 29.586C670.738 29.012 670.444 28.522 669.856 28.48C668.316 28.914 666.468 29.166 665.18 29.236C665.18 28.228 665.208 27.444 665.25 26.842C665.614 26.814 665.908 26.814 666.468 26.772C667.448 26.716 668.638 26.632 669.534 26.52C669.94 26.338 670.164 25.848 670.164 25.4C670.164 25.078 670.024 24.7 669.646 24.462C668.246 24.63 666.286 24.784 665.348 24.826C665.32 24.28 665.334 23.622 665.348 23.076C666.664 22.908 668.666 22.908 669.968 22.656C670.36 22.516 670.584 22.068 670.584 21.634C670.584 21.382 670.5 21.074 670.304 20.794C669.632 20.64 665.474 20.948 663.92 21.032C663.374 21.298 663.108 21.438 662.674 21.802C662.674 22.348 662.842 22.81 663.206 23.118C663.206 23.482 663.192 24 663.136 25.26C662.954 25.456 662.828 25.792 662.828 26.1C662.828 26.394 662.912 26.674 663.122 26.87L663.01 30.37ZM675.561 28.396C676.471 28.396 677.367 28.116 678.081 27.78V30.958C678.361 31.154 678.697 31.28 678.991 31.28C679.397 31.28 679.845 31.098 680.083 30.748C680.167 27.472 680.167 24.28 679.971 20.752C679.803 20.416 679.481 20.276 679.159 20.276C678.641 20.276 677.885 20.668 677.773 21.102C677.927 22.6 678.011 24.196 678.011 25.554C677.479 26.03 676.611 26.31 675.785 26.31C674.931 26.31 673.839 25.848 673.839 24.518C673.839 23.468 674.063 22.404 674.819 21.284C674.567 20.794 673.867 20.402 673.363 20.402C673.125 20.402 672.873 20.458 672.649 20.654C671.949 21.956 671.683 23.118 671.683 24.252C671.683 27.15 673.699 28.396 675.561 28.396ZM682.055 30.37C682.475 30.958 682.685 31.14 683.259 31.364C685.289 31.294 687.795 31.168 689.615 30.314C689.741 30.006 689.783 29.754 689.783 29.586C689.783 29.012 689.489 28.522 688.901 28.48C687.361 28.914 685.513 29.166 684.225 29.236C684.225 28.228 684.253 27.444 684.295 26.842C684.659 26.814 684.953 26.814 685.513 26.772C686.493 26.716 687.683 26.632 688.579 26.52C688.985 26.338 689.209 25.848 689.209 25.4C689.209 25.078 689.069 24.7 688.691 24.462C687.291 24.63 685.331 24.784 684.393 24.826C684.365 24.28 684.379 23.622 684.393 23.076C685.709 22.908 687.711 22.908 689.013 22.656C689.405 22.516 689.629 22.068 689.629 21.634C689.629 21.382 689.545 21.074 689.349 20.794C688.677 20.64 684.519 20.948 682.965 21.032C682.419 21.298 682.153 21.438 681.719 21.802C681.719 22.348 681.887 22.81 682.251 23.118C682.251 23.482 682.237 24 682.181 25.26C681.999 25.456 681.873 25.792 681.873 26.1C681.873 26.394 681.957 26.674 682.167 26.87L682.055 30.37ZM691.904 31.042C692.142 31.322 692.422 31.406 692.716 31.406C693.024 31.406 693.472 31.294 693.92 30.986C693.906 29.796 693.836 28.746 693.822 27.598C695.81 27.388 700.01 25.932 700.01 23.16C700.01 21.522 697.854 20.668 696.202 20.668C694.732 20.668 692.772 20.766 691.54 22.306C691.316 22.908 691.442 23.3 691.806 23.594C691.792 24.168 691.778 25.12 691.778 26.394C691.778 27.906 691.806 29.754 691.904 31.042ZM693.822 25.666C693.85 24.84 693.878 23.65 693.934 22.964C694.354 22.768 695.278 22.53 695.88 22.53C696.748 22.53 697.812 22.712 697.812 23.314C697.812 24.812 694.914 25.526 693.822 25.666ZM701.566 30.552C702.168 31.112 702.434 31.056 703.176 31.21C703.904 30.888 706.606 26.52 707.922 24.35C707.838 26.058 707.754 27.192 707.754 28.144C707.754 29.474 707.908 30.608 708.384 30.93C708.874 31.182 709.938 30.888 710.12 30.244C710.064 29.768 710.05 29.138 710.05 28.382C710.036 27.262 710.232 21.648 710.05 20.962C709.756 20.598 709.042 20.388 708.678 20.29C707.586 20.486 704.884 25.456 703.652 27.388C703.638 26.016 703.736 21.718 703.568 20.22C702.882 20.122 701.944 20.206 701.482 20.752C701.482 23.356 701.412 28.956 701.566 30.552ZM712.48 30.776C712.634 31.126 713.054 31.28 713.474 31.28C714.02 31.28 714.58 31 714.58 30.454C714.58 29.698 714.482 27.472 714.538 27.136C714.972 27.024 717.254 26.786 718.458 26.66C718.458 27.822 718.444 29.348 718.43 30.468C718.64 30.93 719.116 31.126 719.536 31.126C720.068 31.126 720.544 30.846 720.628 30.37C720.6 29.432 720.6 28.214 720.6 26.996C720.6 24.854 720.586 22.558 720.418 21.074C720.208 20.752 719.816 20.57 719.452 20.57C718.976 20.57 718.514 20.808 718.346 21.298C718.346 23.006 718.36 23.86 718.388 24.742C716.666 24.924 715.434 25.022 714.622 25.064C714.58 23.062 714.552 21.27 714.258 20.738C713.418 20.486 712.466 20.892 712.284 21.508C712.242 22.446 712.396 24.84 712.396 25.512C712.018 25.932 711.99 26.814 712.396 27.206L712.48 30.776ZM723.073 30.986C723.871 31.448 724.683 31.028 725.201 30.566C725.201 29.712 725.019 27.808 725.019 26.982C725.229 26.786 725.439 26.604 725.635 26.464L729.499 31.322C729.947 31.182 731.011 30.874 731.011 29.992C730.045 28.41 728.043 26.058 727.147 25.12C727.917 24.42 729.821 23.006 730.521 21.704C730.171 21.032 729.429 20.696 728.897 20.85L724.991 24.364C724.977 23.594 725.229 21.69 724.865 20.85C724.515 20.724 724.207 20.668 723.969 20.668C723.493 20.668 723.073 20.822 722.919 21.284C722.849 22.082 722.821 23.216 722.821 24.462C722.821 26.772 722.933 29.586 723.073 30.986ZM733.374 30.468C733.752 31.336 734.382 31.574 735.348 31.35C736.972 28.858 739.506 23.692 740.514 21.186C740.136 20.486 739.296 20.304 738.778 20.416C737.896 21.858 736.986 24.154 736.132 25.666C735.236 24.238 734.2 22.054 733.374 20.626C732.786 20.136 731.652 20.57 731.47 21.102C731.652 22.404 734.004 25.848 735.068 27.64L733.374 30.468Z" fill="white"/>
<circle cx="516" cy="11" r="1" fill="#9D0000"/>
<circle cx="759" cy="11" r="1" fill="#9D0000"/>
<circle cx="516" cy="38" r="1" fill="#9D0000"/>
<circle cx="759" cy="38" r="1" fill="#9D0000"/>
<rect x="255.5" y="7.5" width="254" height="39" rx="5.5" fill="#9D0000" stroke="#9D0000"/>
<rect x="255.5" y="0.5" width="254" height="41" rx="5.5" fill="#FE514C" stroke="#9D0000"/>
<path d="M280.497 25.202C280.735 25.818 281.015 26.238 281.505 26.238C284.627 26.182 288.337 24.824 288.337 21.646C288.337 20.386 287.455 19.966 286.237 19.742C287.161 19.112 287.777 18.342 287.777 17.236C287.777 16.088 286.209 15.626 284.445 15.626C282.303 15.626 280.861 16.116 279.643 17.124C279.643 17.642 279.825 18.09 280.189 18.426C280.189 19.056 280.189 19.392 280.217 20.372C280.007 20.554 279.923 20.862 279.923 21.17C279.923 21.492 280.021 21.814 280.287 21.94C280.343 23.256 280.399 24.194 280.497 25.202ZM282.359 19.686C282.345 19.224 282.289 18.132 282.331 17.838C282.835 17.642 283.745 17.46 284.501 17.46C285.047 17.46 285.579 17.558 285.579 17.74C285.579 18.678 284.347 19.308 282.359 19.686ZM282.569 24.152C282.499 23.606 282.429 22.738 282.429 21.828C282.947 21.52 284.277 21.226 285.075 21.226C285.887 21.226 286.223 21.52 286.223 21.884C286.223 23.214 284.011 23.97 282.569 24.152ZM290.24 25.37C290.66 25.958 290.87 26.14 291.444 26.364C293.474 26.294 295.98 26.168 297.8 25.314C297.926 25.006 297.968 24.754 297.968 24.586C297.968 24.012 297.674 23.522 297.086 23.48C295.546 23.914 293.698 24.166 292.41 24.236C292.41 23.228 292.438 22.444 292.48 21.842C292.844 21.814 293.138 21.814 293.698 21.772C294.678 21.716 295.868 21.632 296.764 21.52C297.17 21.338 297.394 20.848 297.394 20.4C297.394 20.078 297.254 19.7 296.876 19.462C295.476 19.63 293.516 19.784 292.578 19.826C292.55 19.28 292.564 18.622 292.578 18.076C293.894 17.908 295.896 17.908 297.198 17.656C297.59 17.516 297.814 17.068 297.814 16.634C297.814 16.382 297.73 16.074 297.534 15.794C296.862 15.64 292.704 15.948 291.15 16.032C290.604 16.298 290.338 16.438 289.904 16.802C289.904 17.348 290.072 17.81 290.436 18.118C290.436 18.482 290.422 19 290.366 20.26C290.184 20.456 290.058 20.792 290.058 21.1C290.058 21.394 290.142 21.674 290.352 21.87L290.24 25.37ZM300.089 26.042C300.327 26.322 300.607 26.406 300.901 26.406C301.209 26.406 301.657 26.294 302.105 25.986C302.091 24.796 302.021 23.746 302.007 22.598C303.995 22.388 308.195 20.932 308.195 18.16C308.195 16.522 306.039 15.668 304.387 15.668C302.917 15.668 300.957 15.766 299.725 17.306C299.501 17.908 299.627 18.3 299.991 18.594C299.977 19.168 299.963 20.12 299.963 21.394C299.963 22.906 299.991 24.754 300.089 26.042ZM302.007 20.666C302.035 19.84 302.063 18.65 302.119 17.964C302.539 17.768 303.463 17.53 304.065 17.53C304.933 17.53 305.997 17.712 305.997 18.314C305.997 19.812 303.099 20.526 302.007 20.666ZM309.933 25.776C310.087 26.126 310.507 26.28 310.927 26.28C311.473 26.28 312.033 26 312.033 25.454C312.033 24.698 311.935 22.472 311.991 22.136C312.425 22.024 314.707 21.786 315.911 21.66C315.911 22.822 315.897 24.348 315.883 25.468C316.093 25.93 316.569 26.126 316.989 26.126C317.521 26.126 317.997 25.846 318.081 25.37C318.053 24.432 318.053 23.214 318.053 21.996C318.053 19.854 318.039 17.558 317.871 16.074C317.661 15.752 317.269 15.57 316.905 15.57C316.429 15.57 315.967 15.808 315.799 16.298C315.799 18.006 315.813 18.86 315.841 19.742C314.119 19.924 312.887 20.022 312.075 20.064C312.033 18.062 312.005 16.27 311.711 15.738C310.871 15.486 309.919 15.892 309.737 16.508C309.695 17.446 309.849 19.84 309.849 20.512C309.471 20.932 309.443 21.814 309.849 22.206L309.933 25.776ZM321.353 25.468C321.731 26.336 322.361 26.574 323.327 26.35C324.951 23.858 327.485 18.692 328.493 16.186C328.115 15.486 327.275 15.304 326.757 15.416C325.875 16.858 324.965 19.154 324.111 20.666C323.215 19.238 322.179 17.054 321.353 15.626C320.765 15.136 319.631 15.57 319.449 16.102C319.631 17.404 321.983 20.848 323.047 22.64L321.353 25.468ZM332.438 25.958C333.082 26.378 333.824 26.168 334.426 25.608L334.342 17.516C335.602 17.376 336.4 17.306 337.002 17.082C337.352 16.536 337.366 15.78 336.96 15.374C335.532 15.374 330.366 15.878 329.204 16.368C329.008 16.872 329.162 17.53 329.512 18.09C330.52 18.062 331.304 17.908 332.256 17.768C332.2 19.84 332.242 24.922 332.438 25.958ZM339.206 25.146C339.36 25.776 339.864 26.098 340.382 26.252C343.042 26.21 347.27 25.636 347.27 21.94C347.27 20.008 345.59 19.168 343.882 19.168C343.112 19.168 342.216 19.322 341.152 19.602L341.138 15.738C340.872 15.472 340.396 15.388 339.962 15.388C339.682 15.388 339.36 15.5 339.024 15.864C339.164 17.726 339.01 23.606 339.206 25.146ZM341.236 24.236L341.18 21.534C341.418 21.38 342.538 21.128 343.532 21.128C344.47 21.128 345.142 21.366 345.142 22.024C345.142 23.732 342.888 24.362 341.236 24.236ZM348.266 21.422C348.266 23.76 350.058 26.21 352.76 26.21C354.454 26.21 356.386 25.272 357.464 23.648C357.534 22.85 356.848 22.206 356.148 22.15C354.818 23.774 354.076 24.208 352.844 24.208C351.71 24.208 350.422 23.2 350.422 21.548C350.422 18.636 352.06 17.67 353.516 17.67C354.692 17.67 355.28 18.188 355.77 18.776C356.484 18.664 357.156 18.16 357.184 17.544C356.89 16.536 355.28 15.752 353.656 15.752C350.576 15.752 348.266 17.852 348.266 21.422ZM359.541 24.81C359.289 25.734 360.171 26.294 360.563 26.336C362.061 26.21 363.713 23.676 364.343 22.052C364.777 22.024 365.239 21.954 365.645 21.87L365.561 25.874C366.009 26.168 366.443 26.28 366.737 26.28C367.031 26.28 367.311 26.182 367.521 25.972C367.633 24.558 367.661 22.43 367.661 20.568C367.661 19 367.633 17.586 367.605 16.998C367.563 16.368 367.143 15.99 366.667 15.766C365.981 15.668 365.141 15.584 364.329 15.584C361.963 15.584 359.415 16.228 359.415 18.916C359.415 20.512 360.927 21.646 362.201 21.94C361.781 22.808 360.773 24.236 359.541 24.81ZM361.431 18.916C361.431 17.782 362.775 17.362 364.063 17.362C364.581 17.362 365.099 17.432 365.575 17.544L365.659 20.092C365.365 20.162 364.497 20.288 363.685 20.288C362.551 20.288 361.431 19.924 361.431 18.916ZM374.041 25.776C374.195 26.126 374.615 26.28 375.035 26.28C375.581 26.28 376.141 26 376.141 25.454C376.141 24.698 376.043 22.472 376.099 22.136C376.533 22.024 378.815 21.786 380.019 21.66C380.019 22.822 380.005 24.348 379.991 25.468C380.201 25.93 380.677 26.126 381.097 26.126C381.629 26.126 382.105 25.846 382.189 25.37C382.161 24.432 382.161 23.214 382.161 21.996C382.161 19.854 382.147 17.558 381.979 16.074C381.769 15.752 381.377 15.57 381.013 15.57C380.537 15.57 380.075 15.808 379.907 16.298C379.907 18.006 379.921 18.86 379.949 19.742C378.227 19.924 376.995 20.022 376.183 20.064C376.141 18.062 376.113 16.27 375.819 15.738C374.979 15.486 374.027 15.892 373.845 16.508C373.803 17.446 373.957 19.84 373.957 20.512C373.579 20.932 373.551 21.814 373.957 22.206L374.041 25.776ZM383.752 25.902C384.046 26.182 384.494 26.322 384.844 26.322C385.222 26.322 385.544 26.182 385.67 25.916C386.118 24.81 386.146 24.726 386.202 24.642C387.448 24.488 388.932 24.334 390.136 24.18V24.236C390.36 24.74 390.626 25.426 390.976 26.112C391.55 26.21 392.516 25.65 392.74 25.132C392.32 23.942 389.576 16.256 387.896 15.78C387.154 15.836 386.776 16.27 386.454 16.998C386.608 17.362 386.692 17.516 386.79 17.698C386.79 17.712 386.818 17.726 386.818 17.74C385.53 20.344 383.556 25.216 383.654 25.706L383.752 25.902ZM386.902 22.626C387.966 20.134 388.092 19.77 388.204 19.518C388.568 20.246 389.114 21.422 389.408 22.248L386.902 22.626ZM398.267 25.202C398.505 25.818 398.785 26.238 399.275 26.238C402.397 26.182 406.107 24.824 406.107 21.646C406.107 20.386 405.225 19.966 404.007 19.742C404.931 19.112 405.547 18.342 405.547 17.236C405.547 16.088 403.979 15.626 402.215 15.626C400.073 15.626 398.631 16.116 397.413 17.124C397.413 17.642 397.595 18.09 397.959 18.426C397.959 19.056 397.959 19.392 397.987 20.372C397.777 20.554 397.693 20.862 397.693 21.17C397.693 21.492 397.791 21.814 398.057 21.94C398.113 23.256 398.169 24.194 398.267 25.202ZM400.129 19.686C400.115 19.224 400.059 18.132 400.101 17.838C400.605 17.642 401.515 17.46 402.271 17.46C402.817 17.46 403.349 17.558 403.349 17.74C403.349 18.678 402.117 19.308 400.129 19.686ZM400.339 24.152C400.269 23.606 400.199 22.738 400.199 21.828C400.717 21.52 402.047 21.226 402.845 21.226C403.657 21.226 403.993 21.52 403.993 21.884C403.993 23.214 401.781 23.97 400.339 24.152ZM408.01 25.37C408.43 25.958 408.64 26.14 409.214 26.364C411.244 26.294 413.75 26.168 415.57 25.314C415.696 25.006 415.738 24.754 415.738 24.586C415.738 24.012 415.444 23.522 414.856 23.48C413.316 23.914 411.468 24.166 410.18 24.236C410.18 23.228 410.208 22.444 410.25 21.842C410.614 21.814 410.908 21.814 411.468 21.772C412.448 21.716 413.638 21.632 414.534 21.52C414.94 21.338 415.164 20.848 415.164 20.4C415.164 20.078 415.024 19.7 414.646 19.462C413.246 19.63 411.286 19.784 410.348 19.826C410.32 19.28 410.334 18.622 410.348 18.076C411.664 17.908 413.666 17.908 414.968 17.656C415.36 17.516 415.584 17.068 415.584 16.634C415.584 16.382 415.5 16.074 415.304 15.794C414.632 15.64 410.474 15.948 408.92 16.032C408.374 16.298 408.108 16.438 407.674 16.802C407.674 17.348 407.842 17.81 408.206 18.118C408.206 18.482 408.192 19 408.136 20.26C407.954 20.456 407.828 20.792 407.828 21.1C407.828 21.394 407.912 21.674 408.122 21.87L408.01 25.37ZM420.561 23.396C421.471 23.396 422.367 23.116 423.081 22.78V25.958C423.361 26.154 423.697 26.28 423.991 26.28C424.397 26.28 424.845 26.098 425.083 25.748C425.167 22.472 425.167 19.28 424.971 15.752C424.803 15.416 424.481 15.276 424.159 15.276C423.641 15.276 422.885 15.668 422.773 16.102C422.927 17.6 423.011 19.196 423.011 20.554C422.479 21.03 421.611 21.31 420.785 21.31C419.931 21.31 418.839 20.848 418.839 19.518C418.839 18.468 419.063 17.404 419.819 16.284C419.567 15.794 418.867 15.402 418.363 15.402C418.125 15.402 417.873 15.458 417.649 15.654C416.949 16.956 416.683 18.118 416.683 19.252C416.683 22.15 418.699 23.396 420.561 23.396ZM427.055 25.37C427.475 25.958 427.685 26.14 428.259 26.364C430.289 26.294 432.795 26.168 434.615 25.314C434.741 25.006 434.783 24.754 434.783 24.586C434.783 24.012 434.489 23.522 433.901 23.48C432.361 23.914 430.513 24.166 429.225 24.236C429.225 23.228 429.253 22.444 429.295 21.842C429.659 21.814 429.953 21.814 430.513 21.772C431.493 21.716 432.683 21.632 433.579 21.52C433.985 21.338 434.209 20.848 434.209 20.4C434.209 20.078 434.069 19.7 433.691 19.462C432.291 19.63 430.331 19.784 429.393 19.826C429.365 19.28 429.379 18.622 429.393 18.076C430.709 17.908 432.711 17.908 434.013 17.656C434.405 17.516 434.629 17.068 434.629 16.634C434.629 16.382 434.545 16.074 434.349 15.794C433.677 15.64 429.519 15.948 427.965 16.032C427.419 16.298 427.153 16.438 426.719 16.802C426.719 17.348 426.887 17.81 427.251 18.118C427.251 18.482 427.237 19 427.181 20.26C426.999 20.456 426.873 20.792 426.873 21.1C426.873 21.394 426.957 21.674 427.167 21.87L427.055 25.37ZM436.904 26.042C437.142 26.322 437.422 26.406 437.716 26.406C438.024 26.406 438.472 26.294 438.92 25.986C438.906 24.796 438.836 23.746 438.822 22.598C440.81 22.388 445.01 20.932 445.01 18.16C445.01 16.522 442.854 15.668 441.202 15.668C439.732 15.668 437.772 15.766 436.54 17.306C436.316 17.908 436.442 18.3 436.806 18.594C436.792 19.168 436.778 20.12 436.778 21.394C436.778 22.906 436.806 24.754 436.904 26.042ZM438.822 20.666C438.85 19.84 438.878 18.65 438.934 17.964C439.354 17.768 440.278 17.53 440.88 17.53C441.748 17.53 442.812 17.712 442.812 18.314C442.812 19.812 439.914 20.526 438.822 20.666ZM446.566 25.552C447.168 26.112 447.434 26.056 448.176 26.21C448.904 25.888 451.606 21.52 452.922 19.35C452.838 21.058 452.754 22.192 452.754 23.144C452.754 24.474 452.908 25.608 453.384 25.93C453.874 26.182 454.938 25.888 455.12 25.244C455.064 24.768 455.05 24.138 455.05 23.382C455.036 22.262 455.232 16.648 455.05 15.962C454.756 15.598 454.042 15.388 453.678 15.29C452.586 15.486 449.884 20.456 448.652 22.388C448.638 21.016 448.736 16.718 448.568 15.22C447.882 15.122 446.944 15.206 446.482 15.752C446.482 18.356 446.412 23.956 446.566 25.552ZM457.48 25.776C457.634 26.126 458.054 26.28 458.474 26.28C459.02 26.28 459.58 26 459.58 25.454C459.58 24.698 459.482 22.472 459.538 22.136C459.972 22.024 462.254 21.786 463.458 21.66C463.458 22.822 463.444 24.348 463.43 25.468C463.64 25.93 464.116 26.126 464.536 26.126C465.068 26.126 465.544 25.846 465.628 25.37C465.6 24.432 465.6 23.214 465.6 21.996C465.6 19.854 465.586 17.558 465.418 16.074C465.208 15.752 464.816 15.57 464.452 15.57C463.976 15.57 463.514 15.808 463.346 16.298C463.346 18.006 463.36 18.86 463.388 19.742C461.666 19.924 460.434 20.022 459.622 20.064C459.58 18.062 459.552 16.27 459.258 15.738C458.418 15.486 457.466 15.892 457.284 16.508C457.242 17.446 457.396 19.84 457.396 20.512C457.018 20.932 456.99 21.814 457.396 22.206L457.48 25.776ZM468.073 25.986C468.871 26.448 469.683 26.028 470.201 25.566C470.201 24.712 470.019 22.808 470.019 21.982C470.229 21.786 470.439 21.604 470.635 21.464L474.499 26.322C474.947 26.182 476.011 25.874 476.011 24.992C475.045 23.41 473.043 21.058 472.147 20.12C472.917 19.42 474.821 18.006 475.521 16.704C475.171 16.032 474.429 15.696 473.897 15.85L469.991 19.364C469.977 18.594 470.229 16.69 469.865 15.85C469.515 15.724 469.207 15.668 468.969 15.668C468.493 15.668 468.073 15.822 467.919 16.284C467.849 17.082 467.821 18.216 467.821 19.462C467.821 21.772 467.933 24.586 468.073 25.986ZM478.374 25.468C478.752 26.336 479.382 26.574 480.348 26.35C481.972 23.858 484.506 18.692 485.514 16.186C485.136 15.486 484.296 15.304 483.778 15.416C482.896 16.858 481.986 19.154 481.132 20.666C480.236 19.238 479.2 17.054 478.374 15.626C477.786 15.136 476.652 15.57 476.47 16.102C476.652 17.404 479.004 20.848 480.068 22.64L478.374 25.468Z" fill="white"/>
<circle cx="261" cy="6" r="1" fill="#9D0000"/>
<circle cx="504" cy="6" r="1" fill="#9D0000"/>
<circle cx="261" cy="34" r="1" fill="#9D0000"/>
<circle cx="504" cy="34" r="1" fill="#9D0000"/>
</svg>
