<svg width="275" height="64" viewBox="0 0 275 64" fill="none" xmlns="http://www.w3.org/2000/svg">
<g filter="url(#filter0_d)">
<rect x="10.5" y="10.5" width="254" height="39" rx="5.5" fill="#9D0000" stroke="#9D0000"/>
<rect x="10.5" y="6.5" width="254" height="41" rx="5.5" fill="#E53935" stroke="#9D0000"/>
<path d="M33.8334 27.422C33.8334 29.76 35.6254 32.21 38.3274 32.21C40.0214 32.21 41.9534 31.272 43.0314 29.648C43.1014 28.85 42.4154 28.206 41.7154 28.15C40.3854 29.774 39.6434 30.208 38.4114 30.208C37.2774 30.208 35.9894 29.2 35.9894 27.548C35.9894 24.636 37.6274 23.67 39.0834 23.67C40.2594 23.67 40.8474 24.188 41.3374 24.776C42.0514 24.664 42.7234 24.16 42.7514 23.544C42.4574 22.536 40.8474 21.752 39.2234 21.752C36.1434 21.752 33.8334 23.852 33.8334 27.422ZM49.1539 32.238C51.7719 32.238 54.7259 30.544 54.7259 26.764C54.7259 23.67 52.6679 21.626 49.7419 21.626C47.0399 21.626 44.4919 23.6 44.4919 27.03C44.4919 30.194 46.5219 32.238 49.1539 32.238ZM49.2519 30.152C47.7119 30.152 46.5919 29.116 46.5919 27.058C46.5919 24.706 48.1739 23.656 49.7979 23.656C51.2399 23.656 52.5699 24.692 52.5699 26.764C52.5699 29.522 50.4699 30.152 49.2519 30.152ZM55.8709 30.67C56.9909 31.79 58.3629 32.266 59.7069 32.266C62.2689 32.266 64.2429 30.978 64.2429 28.598C64.2429 27.24 63.4029 26.302 62.3809 25.882C63.0109 25.378 63.4729 24.72 63.4729 23.782C63.4729 22.032 61.9189 21.262 60.3229 21.262C58.8109 21.262 57.0749 21.92 56.0249 23.712C56.0529 24.272 56.9069 25 57.4809 25C58.0689 24.16 59.0209 23.082 60.2949 23.082C60.9389 23.082 61.4149 23.278 61.4149 23.796C61.4149 24.916 59.9729 25.798 58.1529 25.938C57.9009 26.302 57.8309 26.596 57.8309 26.82C57.8309 27.408 58.3629 27.8 58.8809 27.912C59.5809 27.646 60.0429 27.464 60.5889 27.464C61.0929 27.464 62.0729 27.786 62.0729 28.584C62.0729 29.928 60.6589 30.194 59.7209 30.194C58.5869 30.194 57.8029 29.494 56.9769 28.752C56.1229 29.13 55.8009 29.732 55.8709 30.67ZM65.1384 30.194C64.8864 31.468 64.9984 32.686 65.3204 34.086C65.9224 34.086 67.0424 33.806 67.2804 33.302C67.2664 32.938 67.1964 32.378 67.1684 32C70.3044 31.832 71.9144 31.748 73.2304 31.678C73.1744 32.224 73.2024 33.358 73.6224 33.806C74.3784 33.806 74.9384 33.834 75.3724 33.106C75.3304 32.182 75.4424 30.544 75.4424 29.802C74.8684 29.578 74.2944 29.466 73.7764 29.55C73.8044 25.616 73.8044 23.25 73.6644 21.948C73.5244 21.584 73.2584 21.374 72.9084 21.248C71.3684 21.304 68.1764 21.486 66.7904 21.794C66.5524 22.06 66.4544 22.368 66.4544 22.648C66.4544 23.04 66.6364 23.474 67.0704 23.782C67.1404 23.782 67.5184 23.754 67.6444 23.74C67.5464 25.224 67.2524 28.766 66.3004 29.984C65.8524 30.012 65.4184 30.04 65.1384 30.194ZM68.6664 29.9C69.1704 28.682 69.5344 26.54 69.6464 23.488C69.9404 23.432 70.9484 23.39 71.6344 23.362C71.7604 24.902 71.7044 28.22 71.6064 29.704L68.6664 29.9ZM76.4835 31.902C76.7775 32.182 77.2255 32.322 77.5755 32.322C77.9535 32.322 78.2755 32.182 78.4015 31.916C78.8495 30.81 78.8775 30.726 78.9335 30.642C80.1795 30.488 81.6635 30.334 82.8675 30.18V30.236C83.0915 30.74 83.3575 31.426 83.7075 32.112C84.2815 32.21 85.2475 31.65 85.4715 31.132C85.0515 29.942 82.3075 22.256 80.6275 21.78C79.8855 21.836 79.5075 22.27 79.1855 22.998C79.3395 23.362 79.4235 23.516 79.5215 23.698C79.5215 23.712 79.5495 23.726 79.5495 23.74C78.2615 26.344 76.2875 31.216 76.3855 31.706L76.4835 31.902ZM79.6335 28.626C80.6975 26.134 80.8235 25.77 80.9355 25.518C81.2995 26.246 81.8455 27.422 82.1395 28.248L79.6335 28.626ZM88.3467 31.958C88.9907 32.378 89.7327 32.168 90.3347 31.608L90.2507 23.516C91.5107 23.376 92.3087 23.306 92.9107 23.082C93.2607 22.536 93.2747 21.78 92.8687 21.374C91.4407 21.374 86.2747 21.878 85.1127 22.368C84.9167 22.872 85.0707 23.53 85.4207 24.09C86.4287 24.062 87.2127 23.908 88.1647 23.768C88.1087 25.84 88.1507 30.922 88.3467 31.958ZM95.1152 31.146C95.2692 31.776 95.7732 32.098 96.2912 32.252C98.9512 32.21 103.179 31.636 103.179 27.94C103.179 26.008 101.499 25.168 99.7912 25.168C99.0212 25.168 98.1252 25.322 97.0612 25.602L97.0472 21.738C96.7812 21.472 96.3052 21.388 95.8712 21.388C95.5912 21.388 95.2692 21.5 94.9332 21.864C95.0732 23.726 94.9192 29.606 95.1152 31.146ZM97.1452 30.236L97.0892 27.534C97.3272 27.38 98.4472 27.128 99.4412 27.128C100.379 27.128 101.051 27.366 101.051 28.024C101.051 29.732 98.7972 30.362 97.1452 30.236ZM108.562 31.37C108.982 31.958 109.192 32.14 109.766 32.364C111.796 32.294 114.302 32.168 116.122 31.314C116.248 31.006 116.29 30.754 116.29 30.586C116.29 30.012 115.996 29.522 115.408 29.48C113.868 29.914 112.02 30.166 110.732 30.236C110.732 29.228 110.76 28.444 110.802 27.842C111.166 27.814 111.46 27.814 112.02 27.772C113 27.716 114.19 27.632 115.086 27.52C115.492 27.338 115.716 26.848 115.716 26.4C115.716 26.078 115.576 25.7 115.198 25.462C113.798 25.63 111.838 25.784 110.9 25.826C110.872 25.28 110.886 24.622 110.9 24.076C112.216 23.908 114.218 23.908 115.52 23.656C115.912 23.516 116.136 23.068 116.136 22.634C116.136 22.382 116.052 22.074 115.856 21.794C115.184 21.64 111.026 21.948 109.472 22.032C108.926 22.298 108.66 22.438 108.226 22.802C108.226 23.348 108.394 23.81 108.758 24.118C108.758 24.482 108.744 25 108.688 26.26C108.506 26.456 108.38 26.792 108.38 27.1C108.38 27.394 108.464 27.674 108.674 27.87L108.562 31.37ZM118.144 31.16C118.2 31.804 118.424 32.196 119.194 32.518L128.966 31.832C128.966 32.49 128.966 33.484 129.302 34.002C129.876 34.002 130.632 33.918 131.066 33.428L131.178 30.502C131.038 30.124 130.954 30.026 130.688 29.774C130.338 29.732 129.932 29.774 129.526 29.774C129.582 28.724 129.806 22.956 129.288 21.696C129.05 21.612 128.812 21.556 128.644 21.556C128.14 21.556 127.58 21.738 127.412 22.13C127.286 23.712 127.454 28.024 127.384 29.942C126.768 30.04 125.802 30.054 124.976 30.082C125.018 27.52 125.046 23.908 124.864 22.032C124.22 21.906 123.086 22.046 122.862 22.564C122.764 24.104 122.918 28.724 122.848 30.18C121.532 30.264 120.832 30.32 120.3 30.348C120.244 28.122 120.328 23.964 120.524 22.354C120.216 21.808 119.096 21.682 118.41 21.864C117.962 24.636 118.074 28.486 118.144 31.16ZM137.806 21.094C138.31 21.052 139.122 20.814 139.304 20.352C139.304 19.344 138.66 19.134 138.226 19.134C137.428 19.316 137.106 19.624 136.98 20.058C137.022 20.422 137.148 20.884 137.806 21.094ZM134.11 21.094C134.614 21.052 135.412 20.814 135.608 20.352C135.608 19.344 134.964 19.134 134.53 19.134C133.732 19.316 133.41 19.624 133.284 20.058C133.326 20.422 133.452 20.884 134.11 21.094ZM132.57 31.37C132.99 31.958 133.2 32.14 133.774 32.364C135.804 32.294 138.31 32.168 140.13 31.314C140.256 31.006 140.298 30.754 140.298 30.586C140.298 30.012 140.004 29.522 139.416 29.48C137.876 29.914 136.028 30.166 134.74 30.236C134.74 29.228 134.768 28.444 134.81 27.842C135.174 27.814 135.468 27.814 136.028 27.772C137.008 27.716 138.198 27.632 139.094 27.52C139.5 27.338 139.724 26.848 139.724 26.4C139.724 26.078 139.584 25.7 139.206 25.462C137.806 25.63 135.846 25.784 134.908 25.826C134.88 25.28 134.894 24.622 134.908 24.076C136.224 23.908 138.226 23.908 139.528 23.656C139.92 23.516 140.144 23.068 140.144 22.634C140.144 22.382 140.06 22.074 139.864 21.794C139.192 21.64 135.034 21.948 133.48 22.032C132.934 22.298 132.668 22.438 132.234 22.802C132.234 23.348 132.402 23.81 132.766 24.118C132.766 24.482 132.752 25 132.696 26.26C132.514 26.456 132.388 26.792 132.388 27.1C132.388 27.394 132.472 27.674 132.682 27.87L132.57 31.37ZM146.315 31.65C146.553 32.084 146.889 32.224 147.281 32.224C147.701 32.224 148.205 32 148.485 31.552C148.471 30.264 148.359 24.818 148.373 23.67C148.807 23.516 151.257 23.39 152.475 23.362C152.615 24.762 152.475 30.558 152.489 31.44C152.769 31.818 153.189 32 153.595 32C154.071 32 154.561 31.748 154.701 31.258C154.673 29.004 154.785 22.886 154.561 21.962C154.323 21.584 154.043 21.388 153.707 21.304C150.725 21.332 148.681 21.626 147.883 21.752C147.771 21.682 147.687 21.64 147.435 21.584C147.169 21.584 146.175 21.99 145.923 22.606C145.965 22.97 146.007 23.194 146.175 23.46C146.231 24.538 146.175 30.922 146.315 31.65ZM156.837 31.37C157.257 31.958 157.467 32.14 158.041 32.364C160.071 32.294 162.577 32.168 164.397 31.314C164.523 31.006 164.565 30.754 164.565 30.586C164.565 30.012 164.271 29.522 163.683 29.48C162.143 29.914 160.295 30.166 159.007 30.236C159.007 29.228 159.035 28.444 159.077 27.842C159.441 27.814 159.735 27.814 160.295 27.772C161.275 27.716 162.465 27.632 163.361 27.52C163.767 27.338 163.991 26.848 163.991 26.4C163.991 26.078 163.851 25.7 163.473 25.462C162.073 25.63 160.113 25.784 159.175 25.826C159.147 25.28 159.161 24.622 159.175 24.076C160.491 23.908 162.493 23.908 163.795 23.656C164.187 23.516 164.411 23.068 164.411 22.634C164.411 22.382 164.327 22.074 164.131 21.794C163.459 21.64 159.301 21.948 157.747 22.032C157.201 22.298 156.935 22.438 156.501 22.802C156.501 23.348 156.669 23.81 157.033 24.118C157.033 24.482 157.019 25 156.963 26.26C156.781 26.456 156.655 26.792 156.655 27.1C156.655 27.394 156.739 27.674 156.949 27.87L156.837 31.37ZM166.686 32.042C166.924 32.322 167.204 32.406 167.498 32.406C167.806 32.406 168.254 32.294 168.702 31.986C168.688 30.796 168.618 29.746 168.604 28.598C170.592 28.388 174.792 26.932 174.792 24.16C174.792 22.522 172.636 21.668 170.984 21.668C169.514 21.668 167.554 21.766 166.322 23.306C166.098 23.908 166.224 24.3 166.588 24.594C166.574 25.168 166.56 26.12 166.56 27.394C166.56 28.906 166.588 30.754 166.686 32.042ZM168.604 26.666C168.632 25.84 168.66 24.65 168.716 23.964C169.136 23.768 170.06 23.53 170.662 23.53C171.53 23.53 172.594 23.712 172.594 24.314C172.594 25.812 169.696 26.526 168.604 26.666ZM175.816 27.422C175.816 29.76 177.608 32.21 180.31 32.21C182.004 32.21 183.936 31.272 185.014 29.648C185.084 28.85 184.398 28.206 183.698 28.15C182.368 29.774 181.626 30.208 180.394 30.208C179.26 30.208 177.972 29.2 177.972 27.548C177.972 24.636 179.61 23.67 181.066 23.67C182.242 23.67 182.83 24.188 183.32 24.776C184.034 24.664 184.706 24.16 184.734 23.544C184.44 22.536 182.83 21.752 181.206 21.752C178.126 21.752 175.816 23.852 175.816 27.422ZM191.136 32.238C193.754 32.238 196.708 30.544 196.708 26.764C196.708 23.67 194.65 21.626 191.724 21.626C189.022 21.626 186.474 23.6 186.474 27.03C186.474 30.194 188.504 32.238 191.136 32.238ZM191.234 30.152C189.694 30.152 188.574 29.116 188.574 27.058C188.574 24.706 190.156 23.656 191.78 23.656C193.222 23.656 194.552 24.692 194.552 26.764C194.552 29.522 192.452 30.152 191.234 30.152ZM198.637 31.776C198.791 32.126 199.211 32.28 199.631 32.28C200.177 32.28 200.737 32 200.737 31.454C200.737 30.698 200.639 28.472 200.695 28.136C201.129 28.024 203.411 27.786 204.615 27.66C204.615 28.822 204.601 30.348 204.587 31.468C204.797 31.93 205.273 32.126 205.693 32.126C206.225 32.126 206.701 31.846 206.785 31.37C206.757 30.432 206.757 29.214 206.757 27.996C206.757 25.854 206.743 23.558 206.575 22.074C206.365 21.752 205.973 21.57 205.609 21.57C205.133 21.57 204.671 21.808 204.503 22.298C204.503 24.006 204.517 24.86 204.545 25.742C202.823 25.924 201.591 26.022 200.779 26.064C200.737 24.062 200.709 22.27 200.415 21.738C199.575 21.486 198.623 21.892 198.441 22.508C198.399 23.446 198.553 25.84 198.553 26.512C198.175 26.932 198.147 27.814 198.553 28.206L198.637 31.776ZM208.349 31.902C208.643 32.182 209.091 32.322 209.441 32.322C209.819 32.322 210.141 32.182 210.267 31.916C210.715 30.81 210.743 30.726 210.799 30.642C212.045 30.488 213.529 30.334 214.733 30.18V30.236C214.957 30.74 215.223 31.426 215.573 32.112C216.147 32.21 217.113 31.65 217.337 31.132C216.917 29.942 214.173 22.256 212.493 21.78C211.751 21.836 211.373 22.27 211.051 22.998C211.205 23.362 211.289 23.516 211.387 23.698C211.387 23.712 211.415 23.726 211.415 23.74C210.127 26.344 208.153 31.216 208.251 31.706L208.349 31.902ZM211.499 28.626C212.563 26.134 212.689 25.77 212.801 25.518C213.165 26.246 213.711 27.422 214.005 28.248L211.499 28.626ZM218.302 31.076C218.4 31.664 218.988 32.378 219.828 32.378C220.724 31.23 222.306 28.752 223.188 27.52L223.818 28.01C223.832 29.06 223.888 30.46 224.014 31.552C224.224 31.972 224.644 32.126 225.036 32.126C225.484 32.126 225.988 31.902 226.198 31.44C226.184 30.642 226.072 28.976 225.96 27.982C226.1 27.856 226.366 27.604 226.646 27.394C227.514 28.444 228.788 31.02 230.09 32.35C230.664 32.252 231.532 31.93 231.532 31.076C230.846 29.704 229.04 27.016 228.214 25.98C229.306 24.944 230.832 23.67 231.392 22.438C231.224 21.402 230.132 21.346 229.656 21.528C227.766 23.516 226.688 24.664 225.932 25.35C225.932 23.222 225.932 22.256 225.806 21.724C225.498 21.444 225.218 21.346 224.966 21.346C224.476 21.346 224.014 21.724 223.832 22.074L223.706 25.322L220.066 21.5C219.716 21.248 218.456 21.85 218.428 22.662C218.988 23.502 220.836 25.168 221.676 26.12C220.864 27.142 219.184 29.368 218.302 31.076ZM232.439 31.902C232.733 32.182 233.181 32.322 233.531 32.322C233.909 32.322 234.231 32.182 234.357 31.916C234.805 30.81 234.833 30.726 234.889 30.642C236.135 30.488 237.619 30.334 238.823 30.18V30.236C239.047 30.74 239.313 31.426 239.663 32.112C240.237 32.21 241.203 31.65 241.427 31.132C241.007 29.942 238.263 22.256 236.583 21.78C235.841 21.836 235.463 22.27 235.141 22.998C235.295 23.362 235.379 23.516 235.477 23.698C235.477 23.712 235.505 23.726 235.505 23.74C234.217 26.344 232.243 31.216 232.341 31.706L232.439 31.902ZM235.589 28.626C236.653 26.134 236.779 25.77 236.891 25.518C237.255 26.246 237.801 27.422 238.095 28.248L235.589 28.626Z" fill="white"/>
<circle cx="16" cy="12" r="1" fill="#9D0000"/>
<circle cx="259" cy="12" r="1" fill="#9D0000"/>
<circle cx="16" cy="40" r="1" fill="#9D0000"/>
<circle cx="259" cy="40" r="1" fill="#9D0000"/>
</g>
<defs>
<filter id="filter0_d" x="0" y="0" width="275" height="64" filterUnits="userSpaceOnUse" color-interpolation-filters="sRGB">
<feFlood flood-opacity="0" result="BackgroundImageFix"/>
<feColorMatrix in="SourceAlpha" type="matrix" values="0 0 0 0 0 0 0 0 0 0 0 0 0 0 0 0 0 0 127 0"/>
<feOffset dy="4"/>
<feGaussianBlur stdDeviation="5"/>
<feColorMatrix type="matrix" values="0 0 0 0 0 0 0 0 0 0 0 0 0 0 0 0 0 0 0.25 0"/>
<feBlend mode="normal" in2="BackgroundImageFix" result="effect1_dropShadow"/>
<feBlend mode="normal" in="SourceGraphic" in2="effect1_dropShadow" result="shape"/>
</filter>
</defs>
</svg>
