<svg width="275" height="64" viewBox="0 0 275 64" fill="none" xmlns="http://www.w3.org/2000/svg">
<g filter="url(#filter0_d)">
<rect x="10.5" y="10.5" width="254" height="39" rx="5.5" fill="#9D0000" stroke="#9D0000"/>
<rect x="10.5" y="6.5" width="254" height="41" rx="5.5" fill="#E53935" stroke="#9D0000"/>
<path d="M35.497 31.202C35.735 31.818 36.015 32.238 36.505 32.238C39.627 32.182 43.337 30.824 43.337 27.646C43.337 26.386 42.455 25.966 41.237 25.742C42.161 25.112 42.777 24.342 42.777 23.236C42.777 22.088 41.209 21.626 39.445 21.626C37.303 21.626 35.861 22.116 34.643 23.124C34.643 23.642 34.825 24.09 35.189 24.426C35.189 25.056 35.189 25.392 35.217 26.372C35.007 26.554 34.923 26.862 34.923 27.17C34.923 27.492 35.021 27.814 35.287 27.94C35.343 29.256 35.399 30.194 35.497 31.202ZM37.359 25.686C37.345 25.224 37.289 24.132 37.331 23.838C37.835 23.642 38.745 23.46 39.501 23.46C40.047 23.46 40.579 23.558 40.579 23.74C40.579 24.678 39.347 25.308 37.359 25.686ZM37.569 30.152C37.499 29.606 37.429 28.738 37.429 27.828C37.947 27.52 39.277 27.226 40.075 27.226C40.887 27.226 41.223 27.52 41.223 27.884C41.223 29.214 39.011 29.97 37.569 30.152ZM45.2404 31.37C45.6604 31.958 45.8704 32.14 46.4444 32.364C48.4744 32.294 50.9804 32.168 52.8004 31.314C52.9264 31.006 52.9684 30.754 52.9684 30.586C52.9684 30.012 52.6744 29.522 52.0864 29.48C50.5464 29.914 48.6984 30.166 47.4104 30.236C47.4104 29.228 47.4384 28.444 47.4804 27.842C47.8444 27.814 48.1384 27.814 48.6984 27.772C49.6784 27.716 50.8684 27.632 51.7644 27.52C52.1704 27.338 52.3944 26.848 52.3944 26.4C52.3944 26.078 52.2544 25.7 51.8764 25.462C50.4764 25.63 48.5164 25.784 47.5784 25.826C47.5504 25.28 47.5644 24.622 47.5784 24.076C48.8944 23.908 50.8964 23.908 52.1984 23.656C52.5904 23.516 52.8144 23.068 52.8144 22.634C52.8144 22.382 52.7304 22.074 52.5344 21.794C51.8624 21.64 47.7044 21.948 46.1504 22.032C45.6044 22.298 45.3384 22.438 44.9044 22.802C44.9044 23.348 45.0724 23.81 45.4364 24.118C45.4364 24.482 45.4224 25 45.3664 26.26C45.1844 26.456 45.0584 26.792 45.0584 27.1C45.0584 27.394 45.1424 27.674 45.3524 27.87L45.2404 31.37ZM55.0891 32.042C55.3271 32.322 55.6071 32.406 55.9011 32.406C56.2091 32.406 56.6571 32.294 57.1051 31.986C57.0911 30.796 57.0211 29.746 57.0071 28.598C58.9951 28.388 63.1951 26.932 63.1951 24.16C63.1951 22.522 61.0391 21.668 59.3871 21.668C57.9171 21.668 55.9571 21.766 54.7251 23.306C54.5011 23.908 54.6271 24.3 54.9911 24.594C54.9771 25.168 54.9631 26.12 54.9631 27.394C54.9631 28.906 54.9911 30.754 55.0891 32.042ZM57.0071 26.666C57.0351 25.84 57.0631 24.65 57.1191 23.964C57.5391 23.768 58.4631 23.53 59.0651 23.53C59.9331 23.53 60.9971 23.712 60.9971 24.314C60.9971 25.812 58.0991 26.526 57.0071 26.666ZM64.9332 31.776C65.0872 32.126 65.5072 32.28 65.9272 32.28C66.4732 32.28 67.0332 32 67.0332 31.454C67.0332 30.698 66.9352 28.472 66.9912 28.136C67.4252 28.024 69.7072 27.786 70.9112 27.66C70.9112 28.822 70.8972 30.348 70.8832 31.468C71.0932 31.93 71.5692 32.126 71.9892 32.126C72.5212 32.126 72.9972 31.846 73.0812 31.37C73.0532 30.432 73.0532 29.214 73.0532 27.996C73.0532 25.854 73.0392 23.558 72.8712 22.074C72.6612 21.752 72.2692 21.57 71.9052 21.57C71.4292 21.57 70.9672 21.808 70.7992 22.298C70.7992 24.006 70.8132 24.86 70.8412 25.742C69.1192 25.924 67.8872 26.022 67.0752 26.064C67.0332 24.062 67.0052 22.27 66.7112 21.738C65.8712 21.486 64.9192 21.892 64.7372 22.508C64.6952 23.446 64.8492 25.84 64.8492 26.512C64.4712 26.932 64.4432 27.814 64.8492 28.206L64.9332 31.776ZM76.3526 31.468C76.7306 32.336 77.3606 32.574 78.3266 32.35C79.9506 29.858 82.4846 24.692 83.4926 22.186C83.1146 21.486 82.2746 21.304 81.7566 21.416C80.8746 22.858 79.9646 25.154 79.1106 26.666C78.2146 25.238 77.1786 23.054 76.3526 21.626C75.7646 21.136 74.6306 21.57 74.4486 22.102C74.6306 23.404 76.9826 26.848 78.0466 28.64L76.3526 31.468ZM87.4375 31.958C88.0815 32.378 88.8235 32.168 89.4255 31.608L89.3415 23.516C90.6015 23.376 91.3995 23.306 92.0015 23.082C92.3515 22.536 92.3655 21.78 91.9595 21.374C90.5315 21.374 85.3655 21.878 84.2035 22.368C84.0075 22.872 84.1615 23.53 84.5115 24.09C85.5195 24.062 86.3035 23.908 87.2555 23.768C87.1995 25.84 87.2415 30.922 87.4375 31.958ZM94.206 31.146C94.36 31.776 94.864 32.098 95.382 32.252C98.042 32.21 102.27 31.636 102.27 27.94C102.27 26.008 100.59 25.168 98.882 25.168C98.112 25.168 97.216 25.322 96.152 25.602L96.138 21.738C95.872 21.472 95.396 21.388 94.962 21.388C94.682 21.388 94.36 21.5 94.024 21.864C94.164 23.726 94.01 29.606 94.206 31.146ZM96.236 30.236L96.18 27.534C96.418 27.38 97.538 27.128 98.532 27.128C99.47 27.128 100.142 27.366 100.142 28.024C100.142 29.732 97.888 30.362 96.236 30.236ZM103.266 27.422C103.266 29.76 105.058 32.21 107.76 32.21C109.454 32.21 111.386 31.272 112.464 29.648C112.534 28.85 111.848 28.206 111.148 28.15C109.818 29.774 109.076 30.208 107.844 30.208C106.71 30.208 105.422 29.2 105.422 27.548C105.422 24.636 107.06 23.67 108.516 23.67C109.692 23.67 110.28 24.188 110.77 24.776C111.484 24.664 112.156 24.16 112.184 23.544C111.89 22.536 110.28 21.752 108.656 21.752C105.576 21.752 103.266 23.852 103.266 27.422ZM114.541 30.81C114.289 31.734 115.171 32.294 115.563 32.336C117.061 32.21 118.713 29.676 119.343 28.052C119.777 28.024 120.239 27.954 120.645 27.87L120.561 31.874C121.009 32.168 121.443 32.28 121.737 32.28C122.031 32.28 122.311 32.182 122.521 31.972C122.633 30.558 122.661 28.43 122.661 26.568C122.661 25 122.633 23.586 122.605 22.998C122.563 22.368 122.143 21.99 121.667 21.766C120.981 21.668 120.141 21.584 119.329 21.584C116.963 21.584 114.415 22.228 114.415 24.916C114.415 26.512 115.927 27.646 117.201 27.94C116.781 28.808 115.773 30.236 114.541 30.81ZM116.431 24.916C116.431 23.782 117.775 23.362 119.063 23.362C119.581 23.362 120.099 23.432 120.575 23.544L120.659 26.092C120.365 26.162 119.497 26.288 118.685 26.288C117.551 26.288 116.431 25.924 116.431 24.916ZM129.041 31.776C129.195 32.126 129.615 32.28 130.035 32.28C130.581 32.28 131.141 32 131.141 31.454C131.141 30.698 131.043 28.472 131.099 28.136C131.533 28.024 133.815 27.786 135.019 27.66C135.019 28.822 135.005 30.348 134.991 31.468C135.201 31.93 135.677 32.126 136.097 32.126C136.629 32.126 137.105 31.846 137.189 31.37C137.161 30.432 137.161 29.214 137.161 27.996C137.161 25.854 137.147 23.558 136.979 22.074C136.769 21.752 136.377 21.57 136.013 21.57C135.537 21.57 135.075 21.808 134.907 22.298C134.907 24.006 134.921 24.86 134.949 25.742C133.227 25.924 131.995 26.022 131.183 26.064C131.141 24.062 131.113 22.27 130.819 21.738C129.979 21.486 129.027 21.892 128.845 22.508C128.803 23.446 128.957 25.84 128.957 26.512C128.579 26.932 128.551 27.814 128.957 28.206L129.041 31.776ZM138.752 31.902C139.046 32.182 139.494 32.322 139.844 32.322C140.222 32.322 140.544 32.182 140.67 31.916C141.118 30.81 141.146 30.726 141.202 30.642C142.448 30.488 143.932 30.334 145.136 30.18V30.236C145.36 30.74 145.626 31.426 145.976 32.112C146.55 32.21 147.516 31.65 147.74 31.132C147.32 29.942 144.576 22.256 142.896 21.78C142.154 21.836 141.776 22.27 141.454 22.998C141.608 23.362 141.692 23.516 141.79 23.698C141.79 23.712 141.818 23.726 141.818 23.74C140.53 26.344 138.556 31.216 138.654 31.706L138.752 31.902ZM141.902 28.626C142.966 26.134 143.092 25.77 143.204 25.518C143.568 26.246 144.114 27.422 144.408 28.248L141.902 28.626ZM153.267 31.202C153.505 31.818 153.785 32.238 154.275 32.238C157.397 32.182 161.107 30.824 161.107 27.646C161.107 26.386 160.225 25.966 159.007 25.742C159.931 25.112 160.547 24.342 160.547 23.236C160.547 22.088 158.979 21.626 157.215 21.626C155.073 21.626 153.631 22.116 152.413 23.124C152.413 23.642 152.595 24.09 152.959 24.426C152.959 25.056 152.959 25.392 152.987 26.372C152.777 26.554 152.693 26.862 152.693 27.17C152.693 27.492 152.791 27.814 153.057 27.94C153.113 29.256 153.169 30.194 153.267 31.202ZM155.129 25.686C155.115 25.224 155.059 24.132 155.101 23.838C155.605 23.642 156.515 23.46 157.271 23.46C157.817 23.46 158.349 23.558 158.349 23.74C158.349 24.678 157.117 25.308 155.129 25.686ZM155.339 30.152C155.269 29.606 155.199 28.738 155.199 27.828C155.717 27.52 157.047 27.226 157.845 27.226C158.657 27.226 158.993 27.52 158.993 27.884C158.993 29.214 156.781 29.97 155.339 30.152ZM163.01 31.37C163.43 31.958 163.64 32.14 164.214 32.364C166.244 32.294 168.75 32.168 170.57 31.314C170.696 31.006 170.738 30.754 170.738 30.586C170.738 30.012 170.444 29.522 169.856 29.48C168.316 29.914 166.468 30.166 165.18 30.236C165.18 29.228 165.208 28.444 165.25 27.842C165.614 27.814 165.908 27.814 166.468 27.772C167.448 27.716 168.638 27.632 169.534 27.52C169.94 27.338 170.164 26.848 170.164 26.4C170.164 26.078 170.024 25.7 169.646 25.462C168.246 25.63 166.286 25.784 165.348 25.826C165.32 25.28 165.334 24.622 165.348 24.076C166.664 23.908 168.666 23.908 169.968 23.656C170.36 23.516 170.584 23.068 170.584 22.634C170.584 22.382 170.5 22.074 170.304 21.794C169.632 21.64 165.474 21.948 163.92 22.032C163.374 22.298 163.108 22.438 162.674 22.802C162.674 23.348 162.842 23.81 163.206 24.118C163.206 24.482 163.192 25 163.136 26.26C162.954 26.456 162.828 26.792 162.828 27.1C162.828 27.394 162.912 27.674 163.122 27.87L163.01 31.37ZM175.561 29.396C176.471 29.396 177.367 29.116 178.081 28.78V31.958C178.361 32.154 178.697 32.28 178.991 32.28C179.397 32.28 179.845 32.098 180.083 31.748C180.167 28.472 180.167 25.28 179.971 21.752C179.803 21.416 179.481 21.276 179.159 21.276C178.641 21.276 177.885 21.668 177.773 22.102C177.927 23.6 178.011 25.196 178.011 26.554C177.479 27.03 176.611 27.31 175.785 27.31C174.931 27.31 173.839 26.848 173.839 25.518C173.839 24.468 174.063 23.404 174.819 22.284C174.567 21.794 173.867 21.402 173.363 21.402C173.125 21.402 172.873 21.458 172.649 21.654C171.949 22.956 171.683 24.118 171.683 25.252C171.683 28.15 173.699 29.396 175.561 29.396ZM182.055 31.37C182.475 31.958 182.685 32.14 183.259 32.364C185.289 32.294 187.795 32.168 189.615 31.314C189.741 31.006 189.783 30.754 189.783 30.586C189.783 30.012 189.489 29.522 188.901 29.48C187.361 29.914 185.513 30.166 184.225 30.236C184.225 29.228 184.253 28.444 184.295 27.842C184.659 27.814 184.953 27.814 185.513 27.772C186.493 27.716 187.683 27.632 188.579 27.52C188.985 27.338 189.209 26.848 189.209 26.4C189.209 26.078 189.069 25.7 188.691 25.462C187.291 25.63 185.331 25.784 184.393 25.826C184.365 25.28 184.379 24.622 184.393 24.076C185.709 23.908 187.711 23.908 189.013 23.656C189.405 23.516 189.629 23.068 189.629 22.634C189.629 22.382 189.545 22.074 189.349 21.794C188.677 21.64 184.519 21.948 182.965 22.032C182.419 22.298 182.153 22.438 181.719 22.802C181.719 23.348 181.887 23.81 182.251 24.118C182.251 24.482 182.237 25 182.181 26.26C181.999 26.456 181.873 26.792 181.873 27.1C181.873 27.394 181.957 27.674 182.167 27.87L182.055 31.37ZM191.904 32.042C192.142 32.322 192.422 32.406 192.716 32.406C193.024 32.406 193.472 32.294 193.92 31.986C193.906 30.796 193.836 29.746 193.822 28.598C195.81 28.388 200.01 26.932 200.01 24.16C200.01 22.522 197.854 21.668 196.202 21.668C194.732 21.668 192.772 21.766 191.54 23.306C191.316 23.908 191.442 24.3 191.806 24.594C191.792 25.168 191.778 26.12 191.778 27.394C191.778 28.906 191.806 30.754 191.904 32.042ZM193.822 26.666C193.85 25.84 193.878 24.65 193.934 23.964C194.354 23.768 195.278 23.53 195.88 23.53C196.748 23.53 197.812 23.712 197.812 24.314C197.812 25.812 194.914 26.526 193.822 26.666ZM201.566 31.552C202.168 32.112 202.434 32.056 203.176 32.21C203.904 31.888 206.606 27.52 207.922 25.35C207.838 27.058 207.754 28.192 207.754 29.144C207.754 30.474 207.908 31.608 208.384 31.93C208.874 32.182 209.938 31.888 210.12 31.244C210.064 30.768 210.05 30.138 210.05 29.382C210.036 28.262 210.232 22.648 210.05 21.962C209.756 21.598 209.042 21.388 208.678 21.29C207.586 21.486 204.884 26.456 203.652 28.388C203.638 27.016 203.736 22.718 203.568 21.22C202.882 21.122 201.944 21.206 201.482 21.752C201.482 24.356 201.412 29.956 201.566 31.552ZM212.48 31.776C212.634 32.126 213.054 32.28 213.474 32.28C214.02 32.28 214.58 32 214.58 31.454C214.58 30.698 214.482 28.472 214.538 28.136C214.972 28.024 217.254 27.786 218.458 27.66C218.458 28.822 218.444 30.348 218.43 31.468C218.64 31.93 219.116 32.126 219.536 32.126C220.068 32.126 220.544 31.846 220.628 31.37C220.6 30.432 220.6 29.214 220.6 27.996C220.6 25.854 220.586 23.558 220.418 22.074C220.208 21.752 219.816 21.57 219.452 21.57C218.976 21.57 218.514 21.808 218.346 22.298C218.346 24.006 218.36 24.86 218.388 25.742C216.666 25.924 215.434 26.022 214.622 26.064C214.58 24.062 214.552 22.27 214.258 21.738C213.418 21.486 212.466 21.892 212.284 22.508C212.242 23.446 212.396 25.84 212.396 26.512C212.018 26.932 211.99 27.814 212.396 28.206L212.48 31.776ZM223.073 31.986C223.871 32.448 224.683 32.028 225.201 31.566C225.201 30.712 225.019 28.808 225.019 27.982C225.229 27.786 225.439 27.604 225.635 27.464L229.499 32.322C229.947 32.182 231.011 31.874 231.011 30.992C230.045 29.41 228.043 27.058 227.147 26.12C227.917 25.42 229.821 24.006 230.521 22.704C230.171 22.032 229.429 21.696 228.897 21.85L224.991 25.364C224.977 24.594 225.229 22.69 224.865 21.85C224.515 21.724 224.207 21.668 223.969 21.668C223.493 21.668 223.073 21.822 222.919 22.284C222.849 23.082 222.821 24.216 222.821 25.462C222.821 27.772 222.933 30.586 223.073 31.986ZM233.374 31.468C233.752 32.336 234.382 32.574 235.348 32.35C236.972 29.858 239.506 24.692 240.514 22.186C240.136 21.486 239.296 21.304 238.778 21.416C237.896 22.858 236.986 25.154 236.132 26.666C235.236 25.238 234.2 23.054 233.374 21.626C232.786 21.136 231.652 21.57 231.47 22.102C231.652 23.404 234.004 26.848 235.068 28.64L233.374 31.468Z" fill="white"/>
<circle cx="16" cy="12" r="1" fill="#9D0000"/>
<circle cx="259" cy="12" r="1" fill="#9D0000"/>
<circle cx="16" cy="40" r="1" fill="#9D0000"/>
<circle cx="259" cy="40" r="1" fill="#9D0000"/>
</g>
<defs>
<filter id="filter0_d" x="0" y="0" width="275" height="64" filterUnits="userSpaceOnUse" color-interpolation-filters="sRGB">
<feFlood flood-opacity="0" result="BackgroundImageFix"/>
<feColorMatrix in="SourceAlpha" type="matrix" values="0 0 0 0 0 0 0 0 0 0 0 0 0 0 0 0 0 0 127 0"/>
<feOffset dy="4"/>
<feGaussianBlur stdDeviation="5"/>
<feColorMatrix type="matrix" values="0 0 0 0 0 0 0 0 0 0 0 0 0 0 0 0 0 0 0.25 0"/>
<feBlend mode="normal" in2="BackgroundImageFix" result="effect1_dropShadow"/>
<feBlend mode="normal" in="SourceGraphic" in2="effect1_dropShadow" result="shape"/>
</filter>
</defs>
</svg>
