<svg width="765" height="47" viewBox="0 0 765 47" fill="none" xmlns="http://www.w3.org/2000/svg">
<rect x="0.5" y="7.5" width="254" height="39" rx="5.5" fill="#9D0000" stroke="#9D0000"/>
<rect x="0.5" y="3.5" width="254" height="41" rx="5.5" fill="#E53935" stroke="#9D0000"/>
<path d="M23.8334 24.422C23.8334 26.76 25.6254 29.21 28.3274 29.21C30.0214 29.21 31.9534 28.272 33.0314 26.648C33.1014 25.85 32.4154 25.206 31.7154 25.15C30.3854 26.774 29.6434 27.208 28.4114 27.208C27.2774 27.208 25.9894 26.2 25.9894 24.548C25.9894 21.636 27.6274 20.67 29.0834 20.67C30.2594 20.67 30.8474 21.188 31.3374 21.776C32.0514 21.664 32.7234 21.16 32.7514 20.544C32.4574 19.536 30.8474 18.752 29.2234 18.752C26.1434 18.752 23.8334 20.852 23.8334 24.422ZM39.1539 29.238C41.7719 29.238 44.7259 27.544 44.7259 23.764C44.7259 20.67 42.6679 18.626 39.7419 18.626C37.0399 18.626 34.4919 20.6 34.4919 24.03C34.4919 27.194 36.5219 29.238 39.1539 29.238ZM39.2519 27.152C37.7119 27.152 36.5919 26.116 36.5919 24.058C36.5919 21.706 38.1739 20.656 39.7979 20.656C41.2399 20.656 42.5699 21.692 42.5699 23.764C42.5699 26.522 40.4699 27.152 39.2519 27.152ZM45.8709 27.67C46.9909 28.79 48.3629 29.266 49.7069 29.266C52.2689 29.266 54.2429 27.978 54.2429 25.598C54.2429 24.24 53.4029 23.302 52.3809 22.882C53.0109 22.378 53.4729 21.72 53.4729 20.782C53.4729 19.032 51.9189 18.262 50.3229 18.262C48.8109 18.262 47.0749 18.92 46.0249 20.712C46.0529 21.272 46.9069 22 47.4809 22C48.0689 21.16 49.0209 20.082 50.2949 20.082C50.9389 20.082 51.4149 20.278 51.4149 20.796C51.4149 21.916 49.9729 22.798 48.1529 22.938C47.9009 23.302 47.8309 23.596 47.8309 23.82C47.8309 24.408 48.3629 24.8 48.8809 24.912C49.5809 24.646 50.0429 24.464 50.5889 24.464C51.0929 24.464 52.0729 24.786 52.0729 25.584C52.0729 26.928 50.6589 27.194 49.7209 27.194C48.5869 27.194 47.8029 26.494 46.9769 25.752C46.1229 26.13 45.8009 26.732 45.8709 27.67ZM55.1384 27.194C54.8864 28.468 54.9984 29.686 55.3204 31.086C55.9224 31.086 57.0424 30.806 57.2804 30.302C57.2664 29.938 57.1964 29.378 57.1684 29C60.3044 28.832 61.9144 28.748 63.2304 28.678C63.1744 29.224 63.2024 30.358 63.6224 30.806C64.3784 30.806 64.9384 30.834 65.3724 30.106C65.3304 29.182 65.4424 27.544 65.4424 26.802C64.8684 26.578 64.2944 26.466 63.7764 26.55C63.8044 22.616 63.8044 20.25 63.6644 18.948C63.5244 18.584 63.2584 18.374 62.9084 18.248C61.3684 18.304 58.1764 18.486 56.7904 18.794C56.5524 19.06 56.4544 19.368 56.4544 19.648C56.4544 20.04 56.6364 20.474 57.0704 20.782C57.1404 20.782 57.5184 20.754 57.6444 20.74C57.5464 22.224 57.2524 25.766 56.3004 26.984C55.8524 27.012 55.4184 27.04 55.1384 27.194ZM58.6664 26.9C59.1704 25.682 59.5344 23.54 59.6464 20.488C59.9404 20.432 60.9484 20.39 61.6344 20.362C61.7604 21.902 61.7044 25.22 61.6064 26.704L58.6664 26.9ZM66.4835 28.902C66.7775 29.182 67.2255 29.322 67.5755 29.322C67.9535 29.322 68.2755 29.182 68.4015 28.916C68.8495 27.81 68.8775 27.726 68.9335 27.642C70.1795 27.488 71.6635 27.334 72.8675 27.18V27.236C73.0915 27.74 73.3575 28.426 73.7075 29.112C74.2815 29.21 75.2475 28.65 75.4715 28.132C75.0515 26.942 72.3075 19.256 70.6275 18.78C69.8855 18.836 69.5075 19.27 69.1855 19.998C69.3395 20.362 69.4235 20.516 69.5215 20.698C69.5215 20.712 69.5495 20.726 69.5495 20.74C68.2615 23.344 66.2875 28.216 66.3855 28.706L66.4835 28.902ZM69.6335 25.626C70.6975 23.134 70.8235 22.77 70.9355 22.518C71.2995 23.246 71.8455 24.422 72.1395 25.248L69.6335 25.626ZM78.3467 28.958C78.9907 29.378 79.7327 29.168 80.3347 28.608L80.2507 20.516C81.5107 20.376 82.3087 20.306 82.9107 20.082C83.2607 19.536 83.2747 18.78 82.8687 18.374C81.4407 18.374 76.2747 18.878 75.1127 19.368C74.9167 19.872 75.0707 20.53 75.4207 21.09C76.4287 21.062 77.2127 20.908 78.1647 20.768C78.1087 22.84 78.1507 27.922 78.3467 28.958ZM85.1152 28.146C85.2692 28.776 85.7732 29.098 86.2912 29.252C88.9512 29.21 93.1792 28.636 93.1792 24.94C93.1792 23.008 91.4992 22.168 89.7912 22.168C89.0212 22.168 88.1252 22.322 87.0612 22.602L87.0472 18.738C86.7812 18.472 86.3052 18.388 85.8712 18.388C85.5912 18.388 85.2692 18.5 84.9332 18.864C85.0732 20.726 84.9192 26.606 85.1152 28.146ZM87.1452 27.236L87.0892 24.534C87.3272 24.38 88.4472 24.128 89.4412 24.128C90.3792 24.128 91.0512 24.366 91.0512 25.024C91.0512 26.732 88.7972 27.362 87.1452 27.236ZM98.5617 28.37C98.9817 28.958 99.1917 29.14 99.7657 29.364C101.796 29.294 104.302 29.168 106.122 28.314C106.248 28.006 106.29 27.754 106.29 27.586C106.29 27.012 105.996 26.522 105.408 26.48C103.868 26.914 102.02 27.166 100.732 27.236C100.732 26.228 100.76 25.444 100.802 24.842C101.166 24.814 101.46 24.814 102.02 24.772C103 24.716 104.19 24.632 105.086 24.52C105.492 24.338 105.716 23.848 105.716 23.4C105.716 23.078 105.576 22.7 105.198 22.462C103.798 22.63 101.838 22.784 100.9 22.826C100.872 22.28 100.886 21.622 100.9 21.076C102.216 20.908 104.218 20.908 105.52 20.656C105.912 20.516 106.136 20.068 106.136 19.634C106.136 19.382 106.052 19.074 105.856 18.794C105.184 18.64 101.026 18.948 99.4717 19.032C98.9257 19.298 98.6597 19.438 98.2257 19.802C98.2257 20.348 98.3937 20.81 98.7577 21.118C98.7577 21.482 98.7437 22 98.6877 23.26C98.5057 23.456 98.3797 23.792 98.3797 24.1C98.3797 24.394 98.4637 24.674 98.6737 24.87L98.5617 28.37ZM108.144 28.16C108.2 28.804 108.424 29.196 109.194 29.518L118.966 28.832C118.966 29.49 118.966 30.484 119.302 31.002C119.876 31.002 120.632 30.918 121.066 30.428L121.178 27.502C121.038 27.124 120.954 27.026 120.688 26.774C120.338 26.732 119.932 26.774 119.526 26.774C119.582 25.724 119.806 19.956 119.288 18.696C119.05 18.612 118.812 18.556 118.644 18.556C118.14 18.556 117.58 18.738 117.412 19.13C117.286 20.712 117.454 25.024 117.384 26.942C116.768 27.04 115.802 27.054 114.976 27.082C115.018 24.52 115.046 20.908 114.864 19.032C114.22 18.906 113.086 19.046 112.862 19.564C112.764 21.104 112.918 25.724 112.848 27.18C111.532 27.264 110.832 27.32 110.3 27.348C110.244 25.122 110.328 20.964 110.524 19.354C110.216 18.808 109.096 18.682 108.41 18.864C107.962 21.636 108.074 25.486 108.144 28.16ZM127.806 18.094C128.31 18.052 129.122 17.814 129.304 17.352C129.304 16.344 128.66 16.134 128.226 16.134C127.428 16.316 127.106 16.624 126.98 17.058C127.022 17.422 127.148 17.884 127.806 18.094ZM124.11 18.094C124.614 18.052 125.412 17.814 125.608 17.352C125.608 16.344 124.964 16.134 124.53 16.134C123.732 16.316 123.41 16.624 123.284 17.058C123.326 17.422 123.452 17.884 124.11 18.094ZM122.57 28.37C122.99 28.958 123.2 29.14 123.774 29.364C125.804 29.294 128.31 29.168 130.13 28.314C130.256 28.006 130.298 27.754 130.298 27.586C130.298 27.012 130.004 26.522 129.416 26.48C127.876 26.914 126.028 27.166 124.74 27.236C124.74 26.228 124.768 25.444 124.81 24.842C125.174 24.814 125.468 24.814 126.028 24.772C127.008 24.716 128.198 24.632 129.094 24.52C129.5 24.338 129.724 23.848 129.724 23.4C129.724 23.078 129.584 22.7 129.206 22.462C127.806 22.63 125.846 22.784 124.908 22.826C124.88 22.28 124.894 21.622 124.908 21.076C126.224 20.908 128.226 20.908 129.528 20.656C129.92 20.516 130.144 20.068 130.144 19.634C130.144 19.382 130.06 19.074 129.864 18.794C129.192 18.64 125.034 18.948 123.48 19.032C122.934 19.298 122.668 19.438 122.234 19.802C122.234 20.348 122.402 20.81 122.766 21.118C122.766 21.482 122.752 22 122.696 23.26C122.514 23.456 122.388 23.792 122.388 24.1C122.388 24.394 122.472 24.674 122.682 24.87L122.57 28.37ZM136.315 28.65C136.553 29.084 136.889 29.224 137.281 29.224C137.701 29.224 138.205 29 138.485 28.552C138.471 27.264 138.359 21.818 138.373 20.67C138.807 20.516 141.257 20.39 142.475 20.362C142.615 21.762 142.475 27.558 142.489 28.44C142.769 28.818 143.189 29 143.595 29C144.071 29 144.561 28.748 144.701 28.258C144.673 26.004 144.785 19.886 144.561 18.962C144.323 18.584 144.043 18.388 143.707 18.304C140.725 18.332 138.681 18.626 137.883 18.752C137.771 18.682 137.687 18.64 137.435 18.584C137.169 18.584 136.175 18.99 135.923 19.606C135.965 19.97 136.007 20.194 136.175 20.46C136.231 21.538 136.175 27.922 136.315 28.65ZM146.837 28.37C147.257 28.958 147.467 29.14 148.041 29.364C150.071 29.294 152.577 29.168 154.397 28.314C154.523 28.006 154.565 27.754 154.565 27.586C154.565 27.012 154.271 26.522 153.683 26.48C152.143 26.914 150.295 27.166 149.007 27.236C149.007 26.228 149.035 25.444 149.077 24.842C149.441 24.814 149.735 24.814 150.295 24.772C151.275 24.716 152.465 24.632 153.361 24.52C153.767 24.338 153.991 23.848 153.991 23.4C153.991 23.078 153.851 22.7 153.473 22.462C152.073 22.63 150.113 22.784 149.175 22.826C149.147 22.28 149.161 21.622 149.175 21.076C150.491 20.908 152.493 20.908 153.795 20.656C154.187 20.516 154.411 20.068 154.411 19.634C154.411 19.382 154.327 19.074 154.131 18.794C153.459 18.64 149.301 18.948 147.747 19.032C147.201 19.298 146.935 19.438 146.501 19.802C146.501 20.348 146.669 20.81 147.033 21.118C147.033 21.482 147.019 22 146.963 23.26C146.781 23.456 146.655 23.792 146.655 24.1C146.655 24.394 146.739 24.674 146.949 24.87L146.837 28.37ZM156.686 29.042C156.924 29.322 157.204 29.406 157.498 29.406C157.806 29.406 158.254 29.294 158.702 28.986C158.688 27.796 158.618 26.746 158.604 25.598C160.592 25.388 164.792 23.932 164.792 21.16C164.792 19.522 162.636 18.668 160.984 18.668C159.514 18.668 157.554 18.766 156.322 20.306C156.098 20.908 156.224 21.3 156.588 21.594C156.574 22.168 156.56 23.12 156.56 24.394C156.56 25.906 156.588 27.754 156.686 29.042ZM158.604 23.666C158.632 22.84 158.66 21.65 158.716 20.964C159.136 20.768 160.06 20.53 160.662 20.53C161.53 20.53 162.594 20.712 162.594 21.314C162.594 22.812 159.696 23.526 158.604 23.666ZM165.816 24.422C165.816 26.76 167.608 29.21 170.31 29.21C172.004 29.21 173.936 28.272 175.014 26.648C175.084 25.85 174.398 25.206 173.698 25.15C172.368 26.774 171.626 27.208 170.394 27.208C169.26 27.208 167.972 26.2 167.972 24.548C167.972 21.636 169.61 20.67 171.066 20.67C172.242 20.67 172.83 21.188 173.32 21.776C174.034 21.664 174.706 21.16 174.734 20.544C174.44 19.536 172.83 18.752 171.206 18.752C168.126 18.752 165.816 20.852 165.816 24.422ZM181.136 29.238C183.754 29.238 186.708 27.544 186.708 23.764C186.708 20.67 184.65 18.626 181.724 18.626C179.022 18.626 176.474 20.6 176.474 24.03C176.474 27.194 178.504 29.238 181.136 29.238ZM181.234 27.152C179.694 27.152 178.574 26.116 178.574 24.058C178.574 21.706 180.156 20.656 181.78 20.656C183.222 20.656 184.552 21.692 184.552 23.764C184.552 26.522 182.452 27.152 181.234 27.152ZM188.637 28.776C188.791 29.126 189.211 29.28 189.631 29.28C190.177 29.28 190.737 29 190.737 28.454C190.737 27.698 190.639 25.472 190.695 25.136C191.129 25.024 193.411 24.786 194.615 24.66C194.615 25.822 194.601 27.348 194.587 28.468C194.797 28.93 195.273 29.126 195.693 29.126C196.225 29.126 196.701 28.846 196.785 28.37C196.757 27.432 196.757 26.214 196.757 24.996C196.757 22.854 196.743 20.558 196.575 19.074C196.365 18.752 195.973 18.57 195.609 18.57C195.133 18.57 194.671 18.808 194.503 19.298C194.503 21.006 194.517 21.86 194.545 22.742C192.823 22.924 191.591 23.022 190.779 23.064C190.737 21.062 190.709 19.27 190.415 18.738C189.575 18.486 188.623 18.892 188.441 19.508C188.399 20.446 188.553 22.84 188.553 23.512C188.175 23.932 188.147 24.814 188.553 25.206L188.637 28.776ZM198.349 28.902C198.643 29.182 199.091 29.322 199.441 29.322C199.819 29.322 200.141 29.182 200.267 28.916C200.715 27.81 200.743 27.726 200.799 27.642C202.045 27.488 203.529 27.334 204.733 27.18V27.236C204.957 27.74 205.223 28.426 205.573 29.112C206.147 29.21 207.113 28.65 207.337 28.132C206.917 26.942 204.173 19.256 202.493 18.78C201.751 18.836 201.373 19.27 201.051 19.998C201.205 20.362 201.289 20.516 201.387 20.698C201.387 20.712 201.415 20.726 201.415 20.74C200.127 23.344 198.153 28.216 198.251 28.706L198.349 28.902ZM201.499 25.626C202.563 23.134 202.689 22.77 202.801 22.518C203.165 23.246 203.711 24.422 204.005 25.248L201.499 25.626ZM208.302 28.076C208.4 28.664 208.988 29.378 209.828 29.378C210.724 28.23 212.306 25.752 213.188 24.52L213.818 25.01C213.832 26.06 213.888 27.46 214.014 28.552C214.224 28.972 214.644 29.126 215.036 29.126C215.484 29.126 215.988 28.902 216.198 28.44C216.184 27.642 216.072 25.976 215.96 24.982C216.1 24.856 216.366 24.604 216.646 24.394C217.514 25.444 218.788 28.02 220.09 29.35C220.664 29.252 221.532 28.93 221.532 28.076C220.846 26.704 219.04 24.016 218.214 22.98C219.306 21.944 220.832 20.67 221.392 19.438C221.224 18.402 220.132 18.346 219.656 18.528C217.766 20.516 216.688 21.664 215.932 22.35C215.932 20.222 215.932 19.256 215.806 18.724C215.498 18.444 215.218 18.346 214.966 18.346C214.476 18.346 214.014 18.724 213.832 19.074L213.706 22.322L210.066 18.5C209.716 18.248 208.456 18.85 208.428 19.662C208.988 20.502 210.836 22.168 211.676 23.12C210.864 24.142 209.184 26.368 208.302 28.076ZM222.439 28.902C222.733 29.182 223.181 29.322 223.531 29.322C223.909 29.322 224.231 29.182 224.357 28.916C224.805 27.81 224.833 27.726 224.889 27.642C226.135 27.488 227.619 27.334 228.823 27.18V27.236C229.047 27.74 229.313 28.426 229.663 29.112C230.237 29.21 231.203 28.65 231.427 28.132C231.007 26.942 228.263 19.256 226.583 18.78C225.841 18.836 225.463 19.27 225.141 19.998C225.295 20.362 225.379 20.516 225.477 20.698C225.477 20.712 225.505 20.726 225.505 20.74C224.217 23.344 222.243 28.216 222.341 28.706L222.439 28.902ZM225.589 25.626C226.653 23.134 226.779 22.77 226.891 22.518C227.255 23.246 227.801 24.422 228.095 25.248L225.589 25.626Z" fill="white"/>
<circle cx="6" cy="9" r="1" fill="#9D0000"/>
<circle cx="249" cy="9" r="1" fill="#9D0000"/>
<circle cx="6" cy="37" r="1" fill="#9D0000"/>
<circle cx="249" cy="37" r="1" fill="#9D0000"/>
<rect x="510.5" y="7.5" width="254" height="39" rx="5.5" fill="#9D0000" stroke="#9D0000"/>
<rect x="510.5" y="4.5" width="254" height="41" rx="5.5" fill="#BF2E2B" stroke="#9D0000"/>
<path d="M533.833 26.422C533.833 28.76 535.625 31.21 538.327 31.21C540.021 31.21 541.953 30.272 543.031 28.648C543.101 27.85 542.415 27.206 541.715 27.15C540.385 28.774 539.643 29.208 538.411 29.208C537.277 29.208 535.989 28.2 535.989 26.548C535.989 23.636 537.627 22.67 539.083 22.67C540.259 22.67 540.847 23.188 541.337 23.776C542.051 23.664 542.723 23.16 542.751 22.544C542.457 21.536 540.847 20.752 539.223 20.752C536.143 20.752 533.833 22.852 533.833 26.422ZM549.154 31.238C551.772 31.238 554.726 29.544 554.726 25.764C554.726 22.67 552.668 20.626 549.742 20.626C547.04 20.626 544.492 22.6 544.492 26.03C544.492 29.194 546.522 31.238 549.154 31.238ZM549.252 29.152C547.712 29.152 546.592 28.116 546.592 26.058C546.592 23.706 548.174 22.656 549.798 22.656C551.24 22.656 552.57 23.692 552.57 25.764C552.57 28.522 550.47 29.152 549.252 29.152ZM555.871 29.67C556.991 30.79 558.363 31.266 559.707 31.266C562.269 31.266 564.243 29.978 564.243 27.598C564.243 26.24 563.403 25.302 562.381 24.882C563.011 24.378 563.473 23.72 563.473 22.782C563.473 21.032 561.919 20.262 560.323 20.262C558.811 20.262 557.075 20.92 556.025 22.712C556.053 23.272 556.907 24 557.481 24C558.069 23.16 559.021 22.082 560.295 22.082C560.939 22.082 561.415 22.278 561.415 22.796C561.415 23.916 559.973 24.798 558.153 24.938C557.901 25.302 557.831 25.596 557.831 25.82C557.831 26.408 558.363 26.8 558.881 26.912C559.581 26.646 560.043 26.464 560.589 26.464C561.093 26.464 562.073 26.786 562.073 27.584C562.073 28.928 560.659 29.194 559.721 29.194C558.587 29.194 557.803 28.494 556.977 27.752C556.123 28.13 555.801 28.732 555.871 29.67ZM565.138 29.194C564.886 30.468 564.998 31.686 565.32 33.086C565.922 33.086 567.042 32.806 567.28 32.302C567.266 31.938 567.196 31.378 567.168 31C570.304 30.832 571.914 30.748 573.23 30.678C573.174 31.224 573.202 32.358 573.622 32.806C574.378 32.806 574.938 32.834 575.372 32.106C575.33 31.182 575.442 29.544 575.442 28.802C574.868 28.578 574.294 28.466 573.776 28.55C573.804 24.616 573.804 22.25 573.664 20.948C573.524 20.584 573.258 20.374 572.908 20.248C571.368 20.304 568.176 20.486 566.79 20.794C566.552 21.06 566.454 21.368 566.454 21.648C566.454 22.04 566.636 22.474 567.07 22.782C567.14 22.782 567.518 22.754 567.644 22.74C567.546 24.224 567.252 27.766 566.3 28.984C565.852 29.012 565.418 29.04 565.138 29.194ZM568.666 28.9C569.17 27.682 569.534 25.54 569.646 22.488C569.94 22.432 570.948 22.39 571.634 22.362C571.76 23.902 571.704 27.22 571.606 28.704L568.666 28.9ZM576.483 30.902C576.777 31.182 577.225 31.322 577.575 31.322C577.953 31.322 578.275 31.182 578.401 30.916C578.849 29.81 578.877 29.726 578.933 29.642C580.179 29.488 581.663 29.334 582.867 29.18V29.236C583.091 29.74 583.357 30.426 583.707 31.112C584.281 31.21 585.247 30.65 585.471 30.132C585.051 28.942 582.307 21.256 580.627 20.78C579.885 20.836 579.507 21.27 579.185 21.998C579.339 22.362 579.423 22.516 579.521 22.698C579.521 22.712 579.549 22.726 579.549 22.74C578.261 25.344 576.287 30.216 576.385 30.706L576.483 30.902ZM579.633 27.626C580.697 25.134 580.823 24.77 580.935 24.518C581.299 25.246 581.845 26.422 582.139 27.248L579.633 27.626ZM588.347 30.958C588.991 31.378 589.733 31.168 590.335 30.608L590.251 22.516C591.511 22.376 592.309 22.306 592.911 22.082C593.261 21.536 593.275 20.78 592.869 20.374C591.441 20.374 586.275 20.878 585.113 21.368C584.917 21.872 585.071 22.53 585.421 23.09C586.429 23.062 587.213 22.908 588.165 22.768C588.109 24.84 588.151 29.922 588.347 30.958ZM595.115 30.146C595.269 30.776 595.773 31.098 596.291 31.252C598.951 31.21 603.179 30.636 603.179 26.94C603.179 25.008 601.499 24.168 599.791 24.168C599.021 24.168 598.125 24.322 597.061 24.602L597.047 20.738C596.781 20.472 596.305 20.388 595.871 20.388C595.591 20.388 595.269 20.5 594.933 20.864C595.073 22.726 594.919 28.606 595.115 30.146ZM597.145 29.236L597.089 26.534C597.327 26.38 598.447 26.128 599.441 26.128C600.379 26.128 601.051 26.366 601.051 27.024C601.051 28.732 598.797 29.362 597.145 29.236ZM608.562 30.37C608.982 30.958 609.192 31.14 609.766 31.364C611.796 31.294 614.302 31.168 616.122 30.314C616.248 30.006 616.29 29.754 616.29 29.586C616.29 29.012 615.996 28.522 615.408 28.48C613.868 28.914 612.02 29.166 610.732 29.236C610.732 28.228 610.76 27.444 610.802 26.842C611.166 26.814 611.46 26.814 612.02 26.772C613 26.716 614.19 26.632 615.086 26.52C615.492 26.338 615.716 25.848 615.716 25.4C615.716 25.078 615.576 24.7 615.198 24.462C613.798 24.63 611.838 24.784 610.9 24.826C610.872 24.28 610.886 23.622 610.9 23.076C612.216 22.908 614.218 22.908 615.52 22.656C615.912 22.516 616.136 22.068 616.136 21.634C616.136 21.382 616.052 21.074 615.856 20.794C615.184 20.64 611.026 20.948 609.472 21.032C608.926 21.298 608.66 21.438 608.226 21.802C608.226 22.348 608.394 22.81 608.758 23.118C608.758 23.482 608.744 24 608.688 25.26C608.506 25.456 608.38 25.792 608.38 26.1C608.38 26.394 608.464 26.674 608.674 26.87L608.562 30.37ZM618.144 30.16C618.2 30.804 618.424 31.196 619.194 31.518L628.966 30.832C628.966 31.49 628.966 32.484 629.302 33.002C629.876 33.002 630.632 32.918 631.066 32.428L631.178 29.502C631.038 29.124 630.954 29.026 630.688 28.774C630.338 28.732 629.932 28.774 629.526 28.774C629.582 27.724 629.806 21.956 629.288 20.696C629.05 20.612 628.812 20.556 628.644 20.556C628.14 20.556 627.58 20.738 627.412 21.13C627.286 22.712 627.454 27.024 627.384 28.942C626.768 29.04 625.802 29.054 624.976 29.082C625.018 26.52 625.046 22.908 624.864 21.032C624.22 20.906 623.086 21.046 622.862 21.564C622.764 23.104 622.918 27.724 622.848 29.18C621.532 29.264 620.832 29.32 620.3 29.348C620.244 27.122 620.328 22.964 620.524 21.354C620.216 20.808 619.096 20.682 618.41 20.864C617.962 23.636 618.074 27.486 618.144 30.16ZM637.806 20.094C638.31 20.052 639.122 19.814 639.304 19.352C639.304 18.344 638.66 18.134 638.226 18.134C637.428 18.316 637.106 18.624 636.98 19.058C637.022 19.422 637.148 19.884 637.806 20.094ZM634.11 20.094C634.614 20.052 635.412 19.814 635.608 19.352C635.608 18.344 634.964 18.134 634.53 18.134C633.732 18.316 633.41 18.624 633.284 19.058C633.326 19.422 633.452 19.884 634.11 20.094ZM632.57 30.37C632.99 30.958 633.2 31.14 633.774 31.364C635.804 31.294 638.31 31.168 640.13 30.314C640.256 30.006 640.298 29.754 640.298 29.586C640.298 29.012 640.004 28.522 639.416 28.48C637.876 28.914 636.028 29.166 634.74 29.236C634.74 28.228 634.768 27.444 634.81 26.842C635.174 26.814 635.468 26.814 636.028 26.772C637.008 26.716 638.198 26.632 639.094 26.52C639.5 26.338 639.724 25.848 639.724 25.4C639.724 25.078 639.584 24.7 639.206 24.462C637.806 24.63 635.846 24.784 634.908 24.826C634.88 24.28 634.894 23.622 634.908 23.076C636.224 22.908 638.226 22.908 639.528 22.656C639.92 22.516 640.144 22.068 640.144 21.634C640.144 21.382 640.06 21.074 639.864 20.794C639.192 20.64 635.034 20.948 633.48 21.032C632.934 21.298 632.668 21.438 632.234 21.802C632.234 22.348 632.402 22.81 632.766 23.118C632.766 23.482 632.752 24 632.696 25.26C632.514 25.456 632.388 25.792 632.388 26.1C632.388 26.394 632.472 26.674 632.682 26.87L632.57 30.37ZM646.315 30.65C646.553 31.084 646.889 31.224 647.281 31.224C647.701 31.224 648.205 31 648.485 30.552C648.471 29.264 648.359 23.818 648.373 22.67C648.807 22.516 651.257 22.39 652.475 22.362C652.615 23.762 652.475 29.558 652.489 30.44C652.769 30.818 653.189 31 653.595 31C654.071 31 654.561 30.748 654.701 30.258C654.673 28.004 654.785 21.886 654.561 20.962C654.323 20.584 654.043 20.388 653.707 20.304C650.725 20.332 648.681 20.626 647.883 20.752C647.771 20.682 647.687 20.64 647.435 20.584C647.169 20.584 646.175 20.99 645.923 21.606C645.965 21.97 646.007 22.194 646.175 22.46C646.231 23.538 646.175 29.922 646.315 30.65ZM656.837 30.37C657.257 30.958 657.467 31.14 658.041 31.364C660.071 31.294 662.577 31.168 664.397 30.314C664.523 30.006 664.565 29.754 664.565 29.586C664.565 29.012 664.271 28.522 663.683 28.48C662.143 28.914 660.295 29.166 659.007 29.236C659.007 28.228 659.035 27.444 659.077 26.842C659.441 26.814 659.735 26.814 660.295 26.772C661.275 26.716 662.465 26.632 663.361 26.52C663.767 26.338 663.991 25.848 663.991 25.4C663.991 25.078 663.851 24.7 663.473 24.462C662.073 24.63 660.113 24.784 659.175 24.826C659.147 24.28 659.161 23.622 659.175 23.076C660.491 22.908 662.493 22.908 663.795 22.656C664.187 22.516 664.411 22.068 664.411 21.634C664.411 21.382 664.327 21.074 664.131 20.794C663.459 20.64 659.301 20.948 657.747 21.032C657.201 21.298 656.935 21.438 656.501 21.802C656.501 22.348 656.669 22.81 657.033 23.118C657.033 23.482 657.019 24 656.963 25.26C656.781 25.456 656.655 25.792 656.655 26.1C656.655 26.394 656.739 26.674 656.949 26.87L656.837 30.37ZM666.686 31.042C666.924 31.322 667.204 31.406 667.498 31.406C667.806 31.406 668.254 31.294 668.702 30.986C668.688 29.796 668.618 28.746 668.604 27.598C670.592 27.388 674.792 25.932 674.792 23.16C674.792 21.522 672.636 20.668 670.984 20.668C669.514 20.668 667.554 20.766 666.322 22.306C666.098 22.908 666.224 23.3 666.588 23.594C666.574 24.168 666.56 25.12 666.56 26.394C666.56 27.906 666.588 29.754 666.686 31.042ZM668.604 25.666C668.632 24.84 668.66 23.65 668.716 22.964C669.136 22.768 670.06 22.53 670.662 22.53C671.53 22.53 672.594 22.712 672.594 23.314C672.594 24.812 669.696 25.526 668.604 25.666ZM675.816 26.422C675.816 28.76 677.608 31.21 680.31 31.21C682.004 31.21 683.936 30.272 685.014 28.648C685.084 27.85 684.398 27.206 683.698 27.15C682.368 28.774 681.626 29.208 680.394 29.208C679.26 29.208 677.972 28.2 677.972 26.548C677.972 23.636 679.61 22.67 681.066 22.67C682.242 22.67 682.83 23.188 683.32 23.776C684.034 23.664 684.706 23.16 684.734 22.544C684.44 21.536 682.83 20.752 681.206 20.752C678.126 20.752 675.816 22.852 675.816 26.422ZM691.136 31.238C693.754 31.238 696.708 29.544 696.708 25.764C696.708 22.67 694.65 20.626 691.724 20.626C689.022 20.626 686.474 22.6 686.474 26.03C686.474 29.194 688.504 31.238 691.136 31.238ZM691.234 29.152C689.694 29.152 688.574 28.116 688.574 26.058C688.574 23.706 690.156 22.656 691.78 22.656C693.222 22.656 694.552 23.692 694.552 25.764C694.552 28.522 692.452 29.152 691.234 29.152ZM698.637 30.776C698.791 31.126 699.211 31.28 699.631 31.28C700.177 31.28 700.737 31 700.737 30.454C700.737 29.698 700.639 27.472 700.695 27.136C701.129 27.024 703.411 26.786 704.615 26.66C704.615 27.822 704.601 29.348 704.587 30.468C704.797 30.93 705.273 31.126 705.693 31.126C706.225 31.126 706.701 30.846 706.785 30.37C706.757 29.432 706.757 28.214 706.757 26.996C706.757 24.854 706.743 22.558 706.575 21.074C706.365 20.752 705.973 20.57 705.609 20.57C705.133 20.57 704.671 20.808 704.503 21.298C704.503 23.006 704.517 23.86 704.545 24.742C702.823 24.924 701.591 25.022 700.779 25.064C700.737 23.062 700.709 21.27 700.415 20.738C699.575 20.486 698.623 20.892 698.441 21.508C698.399 22.446 698.553 24.84 698.553 25.512C698.175 25.932 698.147 26.814 698.553 27.206L698.637 30.776ZM708.349 30.902C708.643 31.182 709.091 31.322 709.441 31.322C709.819 31.322 710.141 31.182 710.267 30.916C710.715 29.81 710.743 29.726 710.799 29.642C712.045 29.488 713.529 29.334 714.733 29.18V29.236C714.957 29.74 715.223 30.426 715.573 31.112C716.147 31.21 717.113 30.65 717.337 30.132C716.917 28.942 714.173 21.256 712.493 20.78C711.751 20.836 711.373 21.27 711.051 21.998C711.205 22.362 711.289 22.516 711.387 22.698C711.387 22.712 711.415 22.726 711.415 22.74C710.127 25.344 708.153 30.216 708.251 30.706L708.349 30.902ZM711.499 27.626C712.563 25.134 712.689 24.77 712.801 24.518C713.165 25.246 713.711 26.422 714.005 27.248L711.499 27.626ZM718.302 30.076C718.4 30.664 718.988 31.378 719.828 31.378C720.724 30.23 722.306 27.752 723.188 26.52L723.818 27.01C723.832 28.06 723.888 29.46 724.014 30.552C724.224 30.972 724.644 31.126 725.036 31.126C725.484 31.126 725.988 30.902 726.198 30.44C726.184 29.642 726.072 27.976 725.96 26.982C726.1 26.856 726.366 26.604 726.646 26.394C727.514 27.444 728.788 30.02 730.09 31.35C730.664 31.252 731.532 30.93 731.532 30.076C730.846 28.704 729.04 26.016 728.214 24.98C729.306 23.944 730.832 22.67 731.392 21.438C731.224 20.402 730.132 20.346 729.656 20.528C727.766 22.516 726.688 23.664 725.932 24.35C725.932 22.222 725.932 21.256 725.806 20.724C725.498 20.444 725.218 20.346 724.966 20.346C724.476 20.346 724.014 20.724 723.832 21.074L723.706 24.322L720.066 20.5C719.716 20.248 718.456 20.85 718.428 21.662C718.988 22.502 720.836 24.168 721.676 25.12C720.864 26.142 719.184 28.368 718.302 30.076ZM732.439 30.902C732.733 31.182 733.181 31.322 733.531 31.322C733.909 31.322 734.231 31.182 734.357 30.916C734.805 29.81 734.833 29.726 734.889 29.642C736.135 29.488 737.619 29.334 738.823 29.18V29.236C739.047 29.74 739.313 30.426 739.663 31.112C740.237 31.21 741.203 30.65 741.427 30.132C741.007 28.942 738.263 21.256 736.583 20.78C735.841 20.836 735.463 21.27 735.141 21.998C735.295 22.362 735.379 22.516 735.477 22.698C735.477 22.712 735.505 22.726 735.505 22.74C734.217 25.344 732.243 30.216 732.341 30.706L732.439 30.902ZM735.589 27.626C736.653 25.134 736.779 24.77 736.891 24.518C737.255 25.246 737.801 26.422 738.095 27.248L735.589 27.626Z" fill="white"/>
<circle cx="516" cy="11" r="1" fill="#9D0000"/>
<circle cx="759" cy="11" r="1" fill="#9D0000"/>
<circle cx="516" cy="38" r="1" fill="#9D0000"/>
<circle cx="759" cy="38" r="1" fill="#9D0000"/>
<rect x="255.5" y="7.5" width="254" height="39" rx="5.5" fill="#9D0000" stroke="#9D0000"/>
<rect x="255.5" y="0.5" width="254" height="41" rx="5.5" fill="#FE514C" stroke="#9D0000"/>
<path d="M278.833 21.422C278.833 23.76 280.625 26.21 283.327 26.21C285.021 26.21 286.953 25.272 288.031 23.648C288.101 22.85 287.415 22.206 286.715 22.15C285.385 23.774 284.643 24.208 283.411 24.208C282.277 24.208 280.989 23.2 280.989 21.548C280.989 18.636 282.627 17.67 284.083 17.67C285.259 17.67 285.847 18.188 286.337 18.776C287.051 18.664 287.723 18.16 287.751 17.544C287.457 16.536 285.847 15.752 284.223 15.752C281.143 15.752 278.833 17.852 278.833 21.422ZM294.154 26.238C296.772 26.238 299.726 24.544 299.726 20.764C299.726 17.67 297.668 15.626 294.742 15.626C292.04 15.626 289.492 17.6 289.492 21.03C289.492 24.194 291.522 26.238 294.154 26.238ZM294.252 24.152C292.712 24.152 291.592 23.116 291.592 21.058C291.592 18.706 293.174 17.656 294.798 17.656C296.24 17.656 297.57 18.692 297.57 20.764C297.57 23.522 295.47 24.152 294.252 24.152ZM300.871 24.67C301.991 25.79 303.363 26.266 304.707 26.266C307.269 26.266 309.243 24.978 309.243 22.598C309.243 21.24 308.403 20.302 307.381 19.882C308.011 19.378 308.473 18.72 308.473 17.782C308.473 16.032 306.919 15.262 305.323 15.262C303.811 15.262 302.075 15.92 301.025 17.712C301.053 18.272 301.907 19 302.481 19C303.069 18.16 304.021 17.082 305.295 17.082C305.939 17.082 306.415 17.278 306.415 17.796C306.415 18.916 304.973 19.798 303.153 19.938C302.901 20.302 302.831 20.596 302.831 20.82C302.831 21.408 303.363 21.8 303.881 21.912C304.581 21.646 305.043 21.464 305.589 21.464C306.093 21.464 307.073 21.786 307.073 22.584C307.073 23.928 305.659 24.194 304.721 24.194C303.587 24.194 302.803 23.494 301.977 22.752C301.123 23.13 300.801 23.732 300.871 24.67ZM310.138 24.194C309.886 25.468 309.998 26.686 310.32 28.086C310.922 28.086 312.042 27.806 312.28 27.302C312.266 26.938 312.196 26.378 312.168 26C315.304 25.832 316.914 25.748 318.23 25.678C318.174 26.224 318.202 27.358 318.622 27.806C319.378 27.806 319.938 27.834 320.372 27.106C320.33 26.182 320.442 24.544 320.442 23.802C319.868 23.578 319.294 23.466 318.776 23.55C318.804 19.616 318.804 17.25 318.664 15.948C318.524 15.584 318.258 15.374 317.908 15.248C316.368 15.304 313.176 15.486 311.79 15.794C311.552 16.06 311.454 16.368 311.454 16.648C311.454 17.04 311.636 17.474 312.07 17.782C312.14 17.782 312.518 17.754 312.644 17.74C312.546 19.224 312.252 22.766 311.3 23.984C310.852 24.012 310.418 24.04 310.138 24.194ZM313.666 23.9C314.17 22.682 314.534 20.54 314.646 17.488C314.94 17.432 315.948 17.39 316.634 17.362C316.76 18.902 316.704 22.22 316.606 23.704L313.666 23.9ZM321.483 25.902C321.777 26.182 322.225 26.322 322.575 26.322C322.953 26.322 323.275 26.182 323.401 25.916C323.849 24.81 323.877 24.726 323.933 24.642C325.179 24.488 326.663 24.334 327.867 24.18V24.236C328.091 24.74 328.357 25.426 328.707 26.112C329.281 26.21 330.247 25.65 330.471 25.132C330.051 23.942 327.307 16.256 325.627 15.78C324.885 15.836 324.507 16.27 324.185 16.998C324.339 17.362 324.423 17.516 324.521 17.698C324.521 17.712 324.549 17.726 324.549 17.74C323.261 20.344 321.287 25.216 321.385 25.706L321.483 25.902ZM324.633 22.626C325.697 20.134 325.823 19.77 325.935 19.518C326.299 20.246 326.845 21.422 327.139 22.248L324.633 22.626ZM333.347 25.958C333.991 26.378 334.733 26.168 335.335 25.608L335.251 17.516C336.511 17.376 337.309 17.306 337.911 17.082C338.261 16.536 338.275 15.78 337.869 15.374C336.441 15.374 331.275 15.878 330.113 16.368C329.917 16.872 330.071 17.53 330.421 18.09C331.429 18.062 332.213 17.908 333.165 17.768C333.109 19.84 333.151 24.922 333.347 25.958ZM340.115 25.146C340.269 25.776 340.773 26.098 341.291 26.252C343.951 26.21 348.179 25.636 348.179 21.94C348.179 20.008 346.499 19.168 344.791 19.168C344.021 19.168 343.125 19.322 342.061 19.602L342.047 15.738C341.781 15.472 341.305 15.388 340.871 15.388C340.591 15.388 340.269 15.5 339.933 15.864C340.073 17.726 339.919 23.606 340.115 25.146ZM342.145 24.236L342.089 21.534C342.327 21.38 343.447 21.128 344.441 21.128C345.379 21.128 346.051 21.366 346.051 22.024C346.051 23.732 343.797 24.362 342.145 24.236ZM353.562 25.37C353.982 25.958 354.192 26.14 354.766 26.364C356.796 26.294 359.302 26.168 361.122 25.314C361.248 25.006 361.29 24.754 361.29 24.586C361.29 24.012 360.996 23.522 360.408 23.48C358.868 23.914 357.02 24.166 355.732 24.236C355.732 23.228 355.76 22.444 355.802 21.842C356.166 21.814 356.46 21.814 357.02 21.772C358 21.716 359.19 21.632 360.086 21.52C360.492 21.338 360.716 20.848 360.716 20.4C360.716 20.078 360.576 19.7 360.198 19.462C358.798 19.63 356.838 19.784 355.9 19.826C355.872 19.28 355.886 18.622 355.9 18.076C357.216 17.908 359.218 17.908 360.52 17.656C360.912 17.516 361.136 17.068 361.136 16.634C361.136 16.382 361.052 16.074 360.856 15.794C360.184 15.64 356.026 15.948 354.472 16.032C353.926 16.298 353.66 16.438 353.226 16.802C353.226 17.348 353.394 17.81 353.758 18.118C353.758 18.482 353.744 19 353.688 20.26C353.506 20.456 353.38 20.792 353.38 21.1C353.38 21.394 353.464 21.674 353.674 21.87L353.562 25.37ZM363.144 25.16C363.2 25.804 363.424 26.196 364.194 26.518L373.966 25.832C373.966 26.49 373.966 27.484 374.302 28.002C374.876 28.002 375.632 27.918 376.066 27.428L376.178 24.502C376.038 24.124 375.954 24.026 375.688 23.774C375.338 23.732 374.932 23.774 374.526 23.774C374.582 22.724 374.806 16.956 374.288 15.696C374.05 15.612 373.812 15.556 373.644 15.556C373.14 15.556 372.58 15.738 372.412 16.13C372.286 17.712 372.454 22.024 372.384 23.942C371.768 24.04 370.802 24.054 369.976 24.082C370.018 21.52 370.046 17.908 369.864 16.032C369.22 15.906 368.086 16.046 367.862 16.564C367.764 18.104 367.918 22.724 367.848 24.18C366.532 24.264 365.832 24.32 365.3 24.348C365.244 22.122 365.328 17.964 365.524 16.354C365.216 15.808 364.096 15.682 363.41 15.864C362.962 18.636 363.074 22.486 363.144 25.16ZM382.806 15.094C383.31 15.052 384.122 14.814 384.304 14.352C384.304 13.344 383.66 13.134 383.226 13.134C382.428 13.316 382.106 13.624 381.98 14.058C382.022 14.422 382.148 14.884 382.806 15.094ZM379.11 15.094C379.614 15.052 380.412 14.814 380.608 14.352C380.608 13.344 379.964 13.134 379.53 13.134C378.732 13.316 378.41 13.624 378.284 14.058C378.326 14.422 378.452 14.884 379.11 15.094ZM377.57 25.37C377.99 25.958 378.2 26.14 378.774 26.364C380.804 26.294 383.31 26.168 385.13 25.314C385.256 25.006 385.298 24.754 385.298 24.586C385.298 24.012 385.004 23.522 384.416 23.48C382.876 23.914 381.028 24.166 379.74 24.236C379.74 23.228 379.768 22.444 379.81 21.842C380.174 21.814 380.468 21.814 381.028 21.772C382.008 21.716 383.198 21.632 384.094 21.52C384.5 21.338 384.724 20.848 384.724 20.4C384.724 20.078 384.584 19.7 384.206 19.462C382.806 19.63 380.846 19.784 379.908 19.826C379.88 19.28 379.894 18.622 379.908 18.076C381.224 17.908 383.226 17.908 384.528 17.656C384.92 17.516 385.144 17.068 385.144 16.634C385.144 16.382 385.06 16.074 384.864 15.794C384.192 15.64 380.034 15.948 378.48 16.032C377.934 16.298 377.668 16.438 377.234 16.802C377.234 17.348 377.402 17.81 377.766 18.118C377.766 18.482 377.752 19 377.696 20.26C377.514 20.456 377.388 20.792 377.388 21.1C377.388 21.394 377.472 21.674 377.682 21.87L377.57 25.37ZM391.315 25.65C391.553 26.084 391.889 26.224 392.281 26.224C392.701 26.224 393.205 26 393.485 25.552C393.471 24.264 393.359 18.818 393.373 17.67C393.807 17.516 396.257 17.39 397.475 17.362C397.615 18.762 397.475 24.558 397.489 25.44C397.769 25.818 398.189 26 398.595 26C399.071 26 399.561 25.748 399.701 25.258C399.673 23.004 399.785 16.886 399.561 15.962C399.323 15.584 399.043 15.388 398.707 15.304C395.725 15.332 393.681 15.626 392.883 15.752C392.771 15.682 392.687 15.64 392.435 15.584C392.169 15.584 391.175 15.99 390.923 16.606C390.965 16.97 391.007 17.194 391.175 17.46C391.231 18.538 391.175 24.922 391.315 25.65ZM401.837 25.37C402.257 25.958 402.467 26.14 403.041 26.364C405.071 26.294 407.577 26.168 409.397 25.314C409.523 25.006 409.565 24.754 409.565 24.586C409.565 24.012 409.271 23.522 408.683 23.48C407.143 23.914 405.295 24.166 404.007 24.236C404.007 23.228 404.035 22.444 404.077 21.842C404.441 21.814 404.735 21.814 405.295 21.772C406.275 21.716 407.465 21.632 408.361 21.52C408.767 21.338 408.991 20.848 408.991 20.4C408.991 20.078 408.851 19.7 408.473 19.462C407.073 19.63 405.113 19.784 404.175 19.826C404.147 19.28 404.161 18.622 404.175 18.076C405.491 17.908 407.493 17.908 408.795 17.656C409.187 17.516 409.411 17.068 409.411 16.634C409.411 16.382 409.327 16.074 409.131 15.794C408.459 15.64 404.301 15.948 402.747 16.032C402.201 16.298 401.935 16.438 401.501 16.802C401.501 17.348 401.669 17.81 402.033 18.118C402.033 18.482 402.019 19 401.963 20.26C401.781 20.456 401.655 20.792 401.655 21.1C401.655 21.394 401.739 21.674 401.949 21.87L401.837 25.37ZM411.686 26.042C411.924 26.322 412.204 26.406 412.498 26.406C412.806 26.406 413.254 26.294 413.702 25.986C413.688 24.796 413.618 23.746 413.604 22.598C415.592 22.388 419.792 20.932 419.792 18.16C419.792 16.522 417.636 15.668 415.984 15.668C414.514 15.668 412.554 15.766 411.322 17.306C411.098 17.908 411.224 18.3 411.588 18.594C411.574 19.168 411.56 20.12 411.56 21.394C411.56 22.906 411.588 24.754 411.686 26.042ZM413.604 20.666C413.632 19.84 413.66 18.65 413.716 17.964C414.136 17.768 415.06 17.53 415.662 17.53C416.53 17.53 417.594 17.712 417.594 18.314C417.594 19.812 414.696 20.526 413.604 20.666ZM420.816 21.422C420.816 23.76 422.608 26.21 425.31 26.21C427.004 26.21 428.936 25.272 430.014 23.648C430.084 22.85 429.398 22.206 428.698 22.15C427.368 23.774 426.626 24.208 425.394 24.208C424.26 24.208 422.972 23.2 422.972 21.548C422.972 18.636 424.61 17.67 426.066 17.67C427.242 17.67 427.83 18.188 428.32 18.776C429.034 18.664 429.706 18.16 429.734 17.544C429.44 16.536 427.83 15.752 426.206 15.752C423.126 15.752 420.816 17.852 420.816 21.422ZM436.136 26.238C438.754 26.238 441.708 24.544 441.708 20.764C441.708 17.67 439.65 15.626 436.724 15.626C434.022 15.626 431.474 17.6 431.474 21.03C431.474 24.194 433.504 26.238 436.136 26.238ZM436.234 24.152C434.694 24.152 433.574 23.116 433.574 21.058C433.574 18.706 435.156 17.656 436.78 17.656C438.222 17.656 439.552 18.692 439.552 20.764C439.552 23.522 437.452 24.152 436.234 24.152ZM443.637 25.776C443.791 26.126 444.211 26.28 444.631 26.28C445.177 26.28 445.737 26 445.737 25.454C445.737 24.698 445.639 22.472 445.695 22.136C446.129 22.024 448.411 21.786 449.615 21.66C449.615 22.822 449.601 24.348 449.587 25.468C449.797 25.93 450.273 26.126 450.693 26.126C451.225 26.126 451.701 25.846 451.785 25.37C451.757 24.432 451.757 23.214 451.757 21.996C451.757 19.854 451.743 17.558 451.575 16.074C451.365 15.752 450.973 15.57 450.609 15.57C450.133 15.57 449.671 15.808 449.503 16.298C449.503 18.006 449.517 18.86 449.545 19.742C447.823 19.924 446.591 20.022 445.779 20.064C445.737 18.062 445.709 16.27 445.415 15.738C444.575 15.486 443.623 15.892 443.441 16.508C443.399 17.446 443.553 19.84 443.553 20.512C443.175 20.932 443.147 21.814 443.553 22.206L443.637 25.776ZM453.349 25.902C453.643 26.182 454.091 26.322 454.441 26.322C454.819 26.322 455.141 26.182 455.267 25.916C455.715 24.81 455.743 24.726 455.799 24.642C457.045 24.488 458.529 24.334 459.733 24.18V24.236C459.957 24.74 460.223 25.426 460.573 26.112C461.147 26.21 462.113 25.65 462.337 25.132C461.917 23.942 459.173 16.256 457.493 15.78C456.751 15.836 456.373 16.27 456.051 16.998C456.205 17.362 456.289 17.516 456.387 17.698C456.387 17.712 456.415 17.726 456.415 17.74C455.127 20.344 453.153 25.216 453.251 25.706L453.349 25.902ZM456.499 22.626C457.563 20.134 457.689 19.77 457.801 19.518C458.165 20.246 458.711 21.422 459.005 22.248L456.499 22.626ZM463.302 25.076C463.4 25.664 463.988 26.378 464.828 26.378C465.724 25.23 467.306 22.752 468.188 21.52L468.818 22.01C468.832 23.06 468.888 24.46 469.014 25.552C469.224 25.972 469.644 26.126 470.036 26.126C470.484 26.126 470.988 25.902 471.198 25.44C471.184 24.642 471.072 22.976 470.96 21.982C471.1 21.856 471.366 21.604 471.646 21.394C472.514 22.444 473.788 25.02 475.09 26.35C475.664 26.252 476.532 25.93 476.532 25.076C475.846 23.704 474.04 21.016 473.214 19.98C474.306 18.944 475.832 17.67 476.392 16.438C476.224 15.402 475.132 15.346 474.656 15.528C472.766 17.516 471.688 18.664 470.932 19.35C470.932 17.222 470.932 16.256 470.806 15.724C470.498 15.444 470.218 15.346 469.966 15.346C469.476 15.346 469.014 15.724 468.832 16.074L468.706 19.322L465.066 15.5C464.716 15.248 463.456 15.85 463.428 16.662C463.988 17.502 465.836 19.168 466.676 20.12C465.864 21.142 464.184 23.368 463.302 25.076ZM477.439 25.902C477.733 26.182 478.181 26.322 478.531 26.322C478.909 26.322 479.231 26.182 479.357 25.916C479.805 24.81 479.833 24.726 479.889 24.642C481.135 24.488 482.619 24.334 483.823 24.18V24.236C484.047 24.74 484.313 25.426 484.663 26.112C485.237 26.21 486.203 25.65 486.427 25.132C486.007 23.942 483.263 16.256 481.583 15.78C480.841 15.836 480.463 16.27 480.141 16.998C480.295 17.362 480.379 17.516 480.477 17.698C480.477 17.712 480.505 17.726 480.505 17.74C479.217 20.344 477.243 25.216 477.341 25.706L477.439 25.902ZM480.589 22.626C481.653 20.134 481.779 19.77 481.891 19.518C482.255 20.246 482.801 21.422 483.095 22.248L480.589 22.626Z" fill="white"/>
<circle cx="261" cy="6" r="1" fill="#9D0000"/>
<circle cx="504" cy="6" r="1" fill="#9D0000"/>
<circle cx="261" cy="34" r="1" fill="#9D0000"/>
<circle cx="504" cy="34" r="1" fill="#9D0000"/>
</svg>
