<svg width="400" height="15" viewBox="0 0 400 15" fill="none" xmlns="http://www.w3.org/2000/svg">
<path d="M0 4.25618C0 4.25618 49.8597 7.41177 63.9456 6.32656C122.449 1.8193 118.362 2.18577 172.109 4.25618C211.032 5.75554 231.008 5.80896 271.318 4.25618C309.031 2.80345 322.924 -2.04529 360.544 0.968983C373.464 2.00417 400 4.25618 400 4.25618V12.0202C400 12.0202 393.034 9.43217 376.871 9.43217C367.987 9.43217 356.941 9.59677 346.061 9.43217C325.397 9.11952 314.286 11.0721 297.279 12.0202C234.705 15.5084 286.744 15.2552 183.673 14.6082C177.282 14.568 125.848 11.242 98.6395 12.0202C83.7884 12.4449 36.7741 14.6082 28.5714 14.6082C16.2884 14.6082 0 12.0202 0 12.0202V4.25618Z" fill="#E0E0E0"/>
</svg>
