<svg width="57" height="54" viewBox="0 0 57 54" fill="none" xmlns="http://www.w3.org/2000/svg">
<path d="M28.0794 53.191C42.4112 53.191 54.0294 41.5728 54.0294 27.241C54.0294 12.9092 42.4112 1.29102 28.0794 1.29102C13.7476 1.29102 2.12936 12.9092 2.12936 27.241C2.12936 41.5728 13.7476 53.191 28.0794 53.191Z" fill="#324265"/>
<path d="M28.0794 53.191C42.4112 53.191 54.0294 41.5728 54.0294 27.241C54.0294 12.9092 42.4112 1.29102 28.0794 1.29102C13.7476 1.29102 2.12936 12.9092 2.12936 27.241C2.12936 41.5728 13.7476 53.191 28.0794 53.191Z" stroke="black" stroke-linecap="round" stroke-linejoin="round"/>
<path d="M29.0994 27.2411C29.9194 25.7411 41.0994 23.1511 42.8594 23.2411C44.6194 23.3311 55.2594 30.6411 56.0794 32.7311C56.8994 34.8211 52.8394 45.7911 52.2694 48.1711C51.6994 50.5511 42.0394 52.8411 38.8794 52.5511C35.8794 52.2811 25.4094 45.3011 25.5094 43.5511C25.6394 42.0711 28.3894 28.5411 29.0994 27.2411Z" fill="#FF0000"/>
<path d="M25.6394 25.1112C24.8394 26.1112 14.0394 29.5512 11.2994 28.3412C10.4894 27.9812 3.29936 20.2412 1.07936 17.3412C0.269363 16.2412 5.88936 6.53123 7.48936 5.64123C9.08936 4.75124 19.0494 0.921235 20.8694 1.00124C22.6894 1.08124 30.0594 12.8212 30.4094 13.4512C30.7594 14.0812 27.2494 23.0412 25.6394 25.1112Z" fill="#FF0000"/>
<path d="M17.7994 35.1714C17.7994 35.1714 18.2094 45.1114 18.0694 45.8314C17.9294 46.5514 15.4994 42.3714 15.4994 42.3714L9.29937 48.8814L10.2394 43.2114L5.16937 44.5514L9.63937 40.2814L6.20937 39.1114L17.7994 35.1714Z" fill="#FBF86E"/>
<path d="M35.8094 17.481L36.8794 9.681L38.3594 11.571L41.4994 6.021L41.9594 11.931L50.6494 7.511L44.9694 13.941L47.6294 16.551L35.8094 17.481Z" fill="#FBF86E"/>
<path d="M11.6394 24.9914C11.0394 22.4614 15.7794 23.7714 15.6394 25.1114C15.4994 26.4514 12.1494 27.0614 11.6394 24.9914Z" fill="white"/>
<path d="M11.6394 20.6413C11.5194 18.9513 15.7794 18.8113 15.7794 20.6413C15.7794 22.4713 11.7894 22.3113 11.6394 20.6413Z" fill="white"/>
<path d="M12.2694 16.3212C12.0094 14.3812 15.5594 13.9412 15.6794 15.7612C15.7994 17.5812 12.5194 18.1412 12.2694 16.3212Z" fill="white"/>
<path d="M8.78937 10.9714C7.04937 10.5114 10.2694 6.57139 11.8494 7.79139C13.4294 9.01139 10.6394 11.4514 8.78937 10.9714Z" fill="white"/>
<path d="M21.5294 13.9113C20.6394 15.4613 18.7294 12.0013 19.6394 11.0613C21.0094 9.64131 22.6994 11.9913 21.5294 13.9113Z" fill="white"/>
<path d="M23.4793 9.03131C22.4793 9.92131 20.8793 7.17131 22.2793 6.28131C23.6793 5.39131 24.6393 7.94131 23.4793 9.03131Z" fill="white"/>
<path d="M26.4994 12.2514C27.4994 11.3814 28.8994 13.5814 27.7494 14.8614C26.5994 16.1414 25.2894 13.2714 26.4994 12.2514Z" fill="white"/>
<path d="M23.9694 17.381C24.8794 15.791 26.5094 17.851 25.7194 19.221C24.9294 20.591 22.8194 19.391 23.9694 17.381Z" fill="white"/>
<path d="M31.1494 34.131C32.7694 33.321 33.8294 38.031 32.2494 38.521C30.6694 39.011 28.9594 35.221 31.1494 34.131Z" fill="white"/>
<path d="M34.6394 43.2614C35.9794 42.7714 37.8094 45.5714 36.3494 47.0414C34.8894 48.5114 32.6394 44.0114 34.6394 43.2614Z" fill="white"/>
<path d="M34.7994 27.7413C34.2694 26.1013 38.4194 26.4913 38.6894 28.2113C38.9994 30.1813 35.2094 29.0213 34.7994 27.7413Z" fill="white"/>
<path d="M41.4994 26.2812C40.9694 24.6412 45.1194 25.0312 45.3894 26.7412C45.6994 28.7212 41.9094 27.5612 41.4994 26.2812Z" fill="white"/>
<path d="M48.0794 30.4214C47.5494 28.7814 51.6994 29.1714 51.9694 30.8914C52.2794 32.8614 48.4794 31.7014 48.0794 30.4214Z" fill="white"/>
<path d="M41.8594 32.0113C41.3294 30.3713 45.4794 30.7613 45.7494 32.4813C46.0594 34.4513 42.2694 33.2813 41.8594 32.0113Z" fill="white"/>
<path d="M46.2594 44.6412C45.7694 43.0612 48.2094 39.8912 49.6694 41.3512C51.1294 42.8112 46.9194 46.7712 46.2594 44.6412Z" fill="white"/>
<path d="M29.2094 27.3812C30.0294 25.8812 41.2094 23.2912 42.9694 23.3812C44.7294 23.4712 55.3594 30.7812 56.1794 32.8712C56.9994 34.9612 52.9394 45.9312 52.3794 48.3112C51.8194 50.6912 42.1494 52.9712 38.9994 52.6912C35.9994 52.4212 25.5294 45.4412 25.6294 43.6912C25.6994 42.2112 28.4994 28.6412 29.2094 27.3812Z" stroke="black" stroke-linecap="round" stroke-linejoin="round"/>
<path d="M25.6394 25.1114C24.7594 26.1114 14.1494 29.6914 11.4094 28.4814C10.5994 28.1214 3.40937 20.3814 1.18937 17.4814C0.379367 16.3814 5.99937 6.64136 7.63937 5.79136C9.27937 4.94136 19.1594 1.06136 20.9794 1.14136C22.7994 1.22136 30.1694 12.9614 30.5194 13.5914C30.8694 14.2214 27.6394 22.9214 25.6394 25.1114Z" stroke="black" stroke-linecap="round" stroke-linejoin="round"/>
<path d="M32.4893 29.2515C35.4193 30.8415 38.3593 32.6415 40.6393 34.0015" stroke="black" stroke-linecap="round" stroke-linejoin="round"/>
<path d="M39.8594 49.2711L41.9294 38.1211" stroke="black" stroke-linecap="round" stroke-linejoin="round"/>
<path d="M52.3894 34.9111L46.1294 35.8311" stroke="black" stroke-linecap="round" stroke-linejoin="round"/>
<path d="M17.2693 13.9111L23.7193 21.7011" stroke="black" stroke-linecap="round" stroke-linejoin="round"/>
<path d="M19.4594 4.53125L16.4094 9.64125" stroke="black" stroke-linecap="round" stroke-linejoin="round"/>
<path d="M11.9094 13.1714C8.85938 14.2714 5.54938 15.6414 5.54938 15.6414" stroke="black" stroke-linecap="round" stroke-linejoin="round"/>
<path d="M17.7894 35.1812C17.7894 35.1812 18.1994 45.1212 18.0594 45.8412C17.9194 46.5612 15.4894 42.3812 15.4894 42.3812L9.28936 48.8912L10.2294 43.2212L5.15936 44.5712L9.63936 40.3012L6.19936 39.1212L17.7894 35.1812Z" stroke="black" stroke-linecap="round" stroke-linejoin="round"/>
<path d="M35.7994 17.501L36.8694 9.70102L38.3494 11.591L41.4894 6.04102L41.9494 11.951L50.6394 7.53102L44.9594 13.961L47.6194 16.571L35.7994 17.501Z" stroke="black" stroke-linecap="round" stroke-linejoin="round"/>
</svg>
