<svg width="54" height="60" viewBox="0 0 54 60" fill="none" xmlns="http://www.w3.org/2000/svg">
<path d="M26.95 58.9464C41.2818 58.9464 52.9 47.3282 52.9 32.9964C52.9 18.6646 41.2818 7.04639 26.95 7.04639C12.6182 7.04639 1 18.6646 1 32.9964C1 47.3282 12.6182 58.9464 26.95 58.9464Z" fill="#49B6BB"/>
<path d="M47.56 49.3861C47.56 49.3861 45.31 46.6561 45.01 46.0461C44.71 45.4361 42.56 42.2861 42.56 42.2861C42.56 42.2861 27.69 50.7261 28.72 52.2861C29.4634 53.4764 30.1314 54.7122 30.72 55.9861L31.72 58.7161C31.72 58.7161 37.55 57.7161 40.4 55.7161C42.9216 53.7639 45.3134 51.6494 47.56 49.3861Z" fill="#3A3A3D"/>
<path d="M7.10001 21.9563C7.10001 21.9563 3.52001 19.1663 3.10001 18.0763C2.68001 16.9863 2.01001 14.1263 4.33001 13.5863C6.05001 13.1863 8.33001 15.1663 8.33001 15.1663C8.33001 15.1663 12.64 18.4463 13.61 21.1663C13.61 21.1663 16.16 20.0163 17.43 20.4963C18.2123 19.469 19.2453 18.6599 20.43 18.1463C21.6408 17.8168 22.8794 17.5992 24.13 17.4963L19.72 9.49632C18.8636 8.67215 18.1535 7.70843 17.62 6.64632C16.89 5.07632 15.86 1.41632 18.89 1.23632C21.92 1.05632 22.77 2.57632 23.89 3.60632C25.3517 4.72774 26.564 6.14102 27.45 7.75632C28.66 10.0063 30.61 12.9163 31.45 14.4363C32.29 15.9563 33.7 19.2963 33.7 19.2963C33.7 19.2963 37.58 20.2963 38.5 21.2363C39.42 22.1763 41.72 25.1163 41.66 27.6663C41.6 30.2163 41.17 35.7963 41.17 35.7963C41.0145 36.6879 40.9875 37.5971 41.09 38.4963C41.3233 39.5389 41.6897 40.5471 42.18 41.4963C42.4645 42.1351 42.5574 42.8428 42.4473 43.5333C42.3373 44.2239 42.029 44.8676 41.56 45.3863C39.92 47.0863 37.31 50.4863 34.22 51.4563C31.13 52.4263 29.79 53.3363 28.7 52.3063C27.9108 50.8629 26.8983 49.5534 25.7 48.4263C24.3 47.4263 21.94 46.6663 20.48 45.9963C18.4388 44.8645 16.6599 43.3139 15.26 41.4463C13.9411 39.2955 12.8422 37.0174 11.98 34.6463C11.29 32.0863 7.10001 21.9563 7.10001 21.9563Z" fill="#F8C2A0"/>
<path d="M4.56 20.1663C1.68055 25.1181 0.516903 30.8821 1.24982 36.5631C1.98273 42.2441 4.57118 47.524 8.61309 51.5828C12.655 55.6416 17.9241 58.252 23.602 59.0085C29.2799 59.7651 35.0487 58.6255 40.0124 55.7667C44.9761 52.9079 48.8567 48.4899 51.0516 43.199C53.2465 37.9082 53.6327 32.0406 52.1503 26.5077C50.668 20.9747 47.3999 16.0862 42.8538 12.6014C38.3077 9.11659 32.7381 7.23059 27.01 7.23634" stroke="black" stroke-linecap="round" stroke-linejoin="round"/>
<path d="M19.01 8.49609C15.1933 9.7328 11.7155 11.838 8.85001 14.6461" stroke="black" stroke-linecap="round" stroke-linejoin="round"/>
<path d="M47.36 49.0266C47.36 49.0266 40.45 40.7366 40.89 37.4966C41.38 33.9366 42.35 28.5966 41.21 25.3566C39.82 21.3566 36.03 18.5566 31.34 19.6866C26.65 20.8166 20.25 26.6866 21.14 28.4266C21.95 30.0466 31.14 26.9666 31.14 26.9666" stroke="black" stroke-linecap="round" stroke-linejoin="round"/>
<path d="M32.31 25.8765C30.426 27.8471 29.2691 30.4006 29.03 33.1165C28.85 35.3984 29.2239 37.6901 30.12 39.7965" stroke="black" stroke-linecap="round" stroke-linejoin="round"/>
<path d="M33.76 19.0763C31.7146 14.5873 29.2113 10.3214 26.29 6.34633C22.62 1.49634 19.86 0.396335 18.15 1.27633C16.44 2.15633 16.35 6.44634 20.56 10.0563C22.75 13.8163 25.38 19.8863 25.38 19.8863" stroke="black" stroke-linecap="round" stroke-linejoin="round"/>
<path d="M17.34 20.4962C15.68 20.3762 12.9 21.3562 12.12 22.9262C11.12 24.8662 12.12 28.9262 13.54 31.7462C15.97 36.6062 18.21 37.8962 19.69 37.7462C21.17 37.5962 20.34 33.7462 20.34 33.7462" stroke="black" stroke-linecap="round" stroke-linejoin="round"/>
<path d="M24.09 17.5862C24.09 17.5862 18.87 17.4962 17.42 20.6962C16.32 23.1262 16.79 27.0362 18.23 29.9262C20.82 35.1062 23.44 36.7962 24.71 36.2362C26.17 35.5862 25.2 30.2362 24.71 28.7862" stroke="black" stroke-linecap="round" stroke-linejoin="round"/>
<path d="M13.69 21.1865C12.7279 19.4648 11.5296 17.8861 10.13 16.4965C7.87 14.3265 5.04 12.9565 4.06 13.5865C2.28 14.7165 1.87 18.1165 6.95 22.0065C8.17553 24.1453 9.13594 26.4254 9.81 28.7965C10.46 30.7365 12.95 39.6665 17.56 44.0065C20.15 46.4365 23.11 46.7665 24.2 47.4065C25.7205 48.4563 27.0698 49.7347 28.2 51.1965C29.63 52.9265 31.68 57.9265 31.68 57.9265" stroke="black" stroke-linecap="round" stroke-linejoin="round"/>
<path d="M23.41 24.4265L22.92 23.1265" stroke="black" stroke-linecap="round" stroke-linejoin="round"/>
<path d="M28.26 52.0963C28.1 53.7163 33.44 52.7463 38.26 48.8563C40.67 46.9263 42.95 44.1663 42.26 42.2163" stroke="black" stroke-linecap="round" stroke-linejoin="round"/>
</svg>
