<svg width="46" height="318" viewBox="0 0 46 318" fill="none" xmlns="http://www.w3.org/2000/svg">
<path d="M26.5004 310.5C27.667 308.834 31.6004 306.2 38.0004 309C44.4004 311.8 45.0004 313 45.0004 313M32.0004 315C30.5004 311.833 26.0004 307.6 20.0004 316M1.00037 315C2.50037 311.865 8.30037 306.176 17.5004 308.5" stroke="black"/>
<path d="M17.5004 1.5H28.5004V308.562C26.0691 312.492 20.3852 312.671 17.7206 308.859L17.5004 308.544V1.5Z" fill="#FAFAFA" stroke="black"/>
<path d="M28.2744 1.34657C28.3926 1.4164 28.4511 1.46885 28.4793 1.5C28.4511 1.53115 28.3926 1.5836 28.2744 1.65343C28.0302 1.79781 27.6435 1.94516 27.1217 2.07559C26.086 2.33452 24.6287 2.5 23.0004 2.5C21.3721 2.5 19.9147 2.33452 18.879 2.07559C18.3573 1.94516 17.9705 1.79781 17.7263 1.65343C17.6081 1.5836 17.5496 1.53115 17.5214 1.5C17.5496 1.46885 17.6081 1.4164 17.7263 1.34657C17.9705 1.20219 18.3573 1.05484 18.879 0.924411C19.9147 0.665477 21.3721 0.5 23.0004 0.5C24.6287 0.5 26.086 0.665477 27.1217 0.924411C27.6435 1.05484 28.0302 1.20219 28.2744 1.34657Z" fill="#424242" stroke="black"/>
<path d="M18.0004 94L28.0004 88L28.5004 45H18.0004V94Z" fill="#C4C4C4"/>
<path d="M18.0004 188L28.0004 182L28.5004 139H18.0004V188Z" fill="#C4C4C4"/>
</svg>
