<svg width="458" height="543" viewBox="0 0 458 543" fill="none" xmlns="http://www.w3.org/2000/svg">
<path d="M14.3018 280.468C14.4831 299 24.1277 316.3 28.752 325.551C33.3754 334.797 44.9366 352.716 50.7172 359.655C56.4969 366.589 66.3245 385.663 69.7917 391.443C73.2605 397.226 79.6175 414.564 83.6636 422.657C87.708 430.749 99.2692 450.4 102.738 459.652C106.205 468.898 117.187 479.88 122.39 489.707C127.592 499.534 135.686 504.157 142.621 511.094C146.667 515.141 157.071 522.656 165.163 525.546C173.255 528.437 186.549 533.061 195.798 535.37C205.046 537.683 224.121 541.73 235.68 541.73C247.241 541.73 259.38 535.951 265.737 531.903C272.096 527.859 288.28 517.454 293.484 509.939C298.684 502.424 300.997 492.019 302.731 479.306C304.465 466.589 307.355 440.576 309.088 431.329C310.822 422.079 313.135 407.63 314.291 402.428C315.447 397.226 316.025 385.666 317.76 381.042C319.493 376.417 333.943 352.717 337.41 344.626C340.879 336.534 343.191 318.617 345.504 306.478C347.815 294.341 348.972 270.065 348.972 262.55C348.972 255.035 347.238 217.464 347.238 205.905C347.238 194.342 342.613 162.554 340.301 155.617C337.989 148.678 332.787 123.252 332.787 123.252C332.787 123.252 328.45 106.336 320.215 91.7455C312.27 77.6648 300.489 65.956 296.516 62.2661C288.423 54.7546 198.83 28.166 171.664 37.4129C144.498 46.6623 93.0546 57.6454 80.338 72.671C67.6223 87.7011 46.2352 120.648 43.9235 137.408C41.6109 154.174 33.5186 202.727 33.5186 202.727C33.5186 202.727 14.1569 265.728 14.3018 280.468Z" fill="#F5D233"/>
<path d="M143.922 366.02C143.922 366.02 134.673 369.487 130.049 368.332C125.426 367.174 114.443 365.442 114.443 365.442C114.443 365.442 118.49 367.755 124.27 375.265C130.049 382.781 130.049 382.781 133.519 390.295C136.986 397.811 147.969 404.167 150.281 408.792C152.592 413.418 157.217 419.775 157.795 424.978C158.372 430.18 158.95 442.898 159.528 446.363C160.107 449.83 163.575 470.064 167.621 478.732C171.666 487.402 175.136 500.119 183.805 506.476C192.476 512.836 204.613 515.15 210.971 520.348C217.329 525.55 217.329 529.021 232.357 529.598C247.386 530.175 257.79 528.443 268.772 523.818C279.756 519.193 285.535 509.365 289.003 500.119C292.471 490.872 294.784 479.309 298.251 470.063C301.72 460.812 306.343 453.878 306.343 453.878C306.343 453.878 303.453 474.533 302.803 478.22C302.153 481.902 300.42 495.774 297.817 502.496C295.217 509.215 292.832 511.816 286.33 518.319C286.33 518.319 267.688 531.974 262.053 534.576C256.418 537.177 246.013 542.161 240.594 542.161C235.176 542.161 223.904 542.38 211.115 539.128C198.327 535.876 193.341 536.091 182.287 531.974C171.233 527.854 160.396 526.552 149.773 517.233C149.773 517.233 143.055 512.25 140.236 509.429C137.418 506.613 129.616 499.895 129.616 499.895C129.616 499.895 127.375 488.912 125.785 485.515C124.196 482.121 119.862 476.483 118.778 474.967C117.693 473.447 110.757 464.128 109.24 461.526C107.722 458.926 104.255 450.905 103.389 449.17C102.521 447.439 98.8361 432.482 98.8361 432.482C98.8361 432.482 92.3342 421.211 89.7325 416.44C87.1317 411.673 81.2786 399.317 80.1957 396.065C79.1119 392.814 70.658 383.929 69.3576 381.543C68.0572 379.162 61.5535 368.106 61.5535 368.106C61.5535 368.106 55.3397 357.555 53.4621 355.462C51.5844 353.365 44.2135 342.529 44.2135 342.529C44.2135 342.529 34.2444 335.807 32.7257 333.205C31.2087 330.608 22.9732 314.782 21.6711 310.879C20.3707 306.978 16.4686 295.708 16.0354 292.891L14.3019 282.701C14.3019 282.701 6.49865 274.032 5.19738 270.13C3.89699 266.229 0.429886 259.509 1.08052 250.841C1.72939 242.171 4.33106 233.499 4.33106 233.499L7.51086 226.13L10.4007 221.215C10.4007 221.215 16.7595 211.103 19.3611 209.656C21.9619 208.213 24.8518 204.165 30.0533 200.986L33.5222 209.945C33.5222 209.945 37.2793 217.46 38.4365 219.484C39.5928 221.508 46.2388 226.418 46.2388 226.418C46.2388 226.418 51.1513 228.73 52.5967 228.73C54.0421 228.73 55.7765 228.735 56.3528 227.576C56.931 226.417 57.2669 223.528 57.2209 222.662C56.6428 211.679 61.2662 205.031 61.2662 205.031C61.2662 205.031 63.8679 233.355 68.2022 241.736C71.1716 247.477 75.7181 256.478 80.3407 260.233C84.9641 263.989 89.8774 268.614 92.4782 270.061C95.079 271.504 114.155 279.884 117.622 280.755C121.09 281.62 132.073 287.111 132.073 287.111C132.073 287.111 132.65 295.491 131.783 300.694C130.917 305.896 128.894 312.541 127.738 315.72C126.581 318.903 126.872 325.836 126.872 325.836C126.872 325.836 122.536 330.46 121.381 332.774C120.224 335.087 118.78 342.313 119.936 345.491C121.09 348.67 125.136 355.026 128.894 356.762C132.651 358.497 143.922 366.02 143.922 366.02Z" fill="#EC9B4B"/>
<path d="M299.985 414.712C300.281 412.795 300.419 398.67 300.852 393.467C301.286 388.265 301.719 372.227 302.586 369.625C303.453 367.023 306.488 356.189 306.488 356.189C306.488 356.189 312.412 355.03 315.591 352.429C318.771 349.828 322.239 343.76 322.817 340.293C323.395 336.821 322.239 330.465 319.06 325.551C315.881 320.636 308.655 317.459 308.655 317.459L302.007 313.704C302.007 313.704 297.412 291.871 307.239 284.356C309.679 282.49 326.535 276.728 333.759 264.908C337.095 259.447 338.86 247.72 339.437 243.675C340.015 239.628 339.726 218.821 341.172 214.773C342.617 210.726 344.929 231.824 345.795 236.738C346.662 241.652 344.559 274.132 343.825 280.738C341.854 298.47 340.097 312.73 339.229 316.2C335.945 329.333 332.354 344.048 331.197 346.36C330.041 348.673 325.994 356.476 321.949 361.967C317.903 367.458 313.617 375.304 311.834 389.711C311.054 396.002 302.007 416.3 301.719 418.031C301.431 419.768 299.695 416.589 299.985 414.712Z" fill="#EC9B4B"/>
<path d="M108.952 130.47C108.952 130.47 121.957 126.137 124.847 125.267C127.737 124.402 136.407 121.8 146.522 120.935C156.638 120.069 168.488 120.069 173.11 120.069C177.735 120.069 187.851 121.224 190.451 121.512C193.052 121.801 204.612 123.825 208.948 124.979C213.283 126.138 223.109 127.87 227.155 128.451C231.202 129.028 238.716 129.605 241.318 129.605C243.919 129.605 250.566 128.451 256.057 127.873C261.548 127.293 268.484 125.269 271.085 124.98C273.686 124.692 281.778 122.672 284.668 122.672C287.558 122.672 295.361 122.384 302.298 122.672C309.234 122.96 318.772 123.537 320.217 123.537C321.662 123.537 316.748 126.138 312.125 127.873C307.501 129.605 283.512 131.341 274.553 133.365C265.595 135.385 239.584 137.987 221.954 136.832C204.324 135.678 186.694 128.452 176.291 128.452C165.888 128.452 141.61 128.74 134.964 129.894C128.315 131.051 106.64 133.937 108.952 130.47Z" fill="#EC9B4B"/>
<path d="M106.35 94.0559C105.883 91.7203 115.022 85.0981 121.38 82.4973C127.737 79.8966 140.454 69.7799 161.551 70.068C182.647 70.3562 200.279 74.4042 209.237 75.2705C218.194 76.1368 246.808 75.5587 258.658 74.116C270.505 72.6688 292.471 78.4485 294.204 80.4721C295.939 82.4965 283.51 79.3175 275.998 79.6066C268.483 79.8957 240.449 86.2526 236.113 87.1181C231.78 87.9871 203.167 87.9871 191.607 85.9636C180.046 83.9392 163.651 81.0918 155.481 81.3384C136.408 81.9201 106.64 95.4995 106.35 94.0559Z" fill="#EC9B4B"/>
<path d="M145.366 59.6644C145.873 58.3136 160.972 56.4855 175.135 55.0419C189.296 53.5947 225.71 55.9073 233.514 56.7737C241.317 57.6435 262.992 60.5334 264.437 61.9761C265.882 63.4233 240.449 64.2887 234.091 64.0005C227.734 63.7114 207.791 64.5778 183.804 61.3997C164.505 58.8405 144.499 61.9761 145.366 59.6644Z" fill="#EC9B4B"/>
<path d="M84.3859 151.856C86.9858 149.836 88.4312 144.345 89.3002 140.585C90.1665 136.83 89.0103 121.223 89.0103 116.309C89.0103 111.394 89.8766 100.99 91.611 96.3686C93.3455 91.7443 93.0573 83.6512 92.1892 80.7613C91.322 77.8714 83.8078 85.3865 79.4726 91.1671C75.1365 96.9468 73.981 104.173 76.0045 109.952C78.0272 115.732 83.8069 137.407 83.8069 140.297C83.8078 143.187 82.7726 153.115 84.3859 151.856Z" fill="#EC9B4B"/>
<path d="M8.95442 222.95C8.95442 222.95 9.53256 215.439 9.53256 210.233C9.53256 201.562 5.48552 188.272 7.799 179.603C7.799 179.603 9.53255 147.235 8.37714 140.874C7.21996 134.518 6.06456 117.179 7.799 96.9469C9.09939 81.7745 13.2331 73.6583 19.9366 61.6878C28.028 47.2386 40.7455 36.8346 40.7455 36.8346C40.7455 36.8346 39.0101 46.6578 40.1673 48.9712C53.7715 40.1125 70.6695 31.8902 80.628 29.8968C92.1891 27.5851 120.1 12.5815 133.228 11.404C144.14 10.4227 156.065 6.69043 167.332 6.77971C171.976 6.81419 211.838 1 211.838 1C211.838 1 204.902 7.35609 200.843 11.5348C229.04 13.4293 249.207 14.2939 258.08 14.2939C273.685 14.2939 294.493 20.0736 294.493 20.0736L281.776 24.118C292.182 24.118 302.007 32.7875 306.053 36.2573C310.003 39.6431 319.925 46.0814 319.925 46.0814L306.053 48.9712L322.238 63.4205C322.238 63.4205 302.586 63.9969 293.916 63.9969C285.245 63.9969 226.288 58.2181 217.04 57.0626C207.791 55.9046 170.8 56.4827 157.505 58.2181C144.21 59.9534 125.713 62.8424 106.639 70.3574C99.4637 73.1854 82.9396 85.9647 77.7381 95.7888C72.5356 105.616 84.0774 131.344 84.675 140.298C85.8313 157.64 76.0045 174.402 68.4895 181.917C55.1956 195.212 56.9309 216.017 56.9309 224.69C56.9309 233.36 41.9009 226.426 37.2775 217.756C36.0619 215.475 29.7633 200.99 29.7633 200.99C29.7633 200.99 19.8402 209.249 15.3132 214.573C10.3998 220.353 8.95442 222.95 8.95442 222.95Z" fill="#682527"/>
<path d="M243.339 211.825C240.304 205.758 239.437 200.12 236.837 191.451C234.236 182.781 234.67 176.713 235.971 172.811C237.272 168.909 242.473 161.106 247.241 155.469C252.011 149.835 261.547 142.463 268.484 139.862C275.42 137.261 286.256 134.66 293.194 135.529C300.13 136.395 312.267 141.163 317.036 145.499C321.807 149.836 327.659 161.11 329.609 167.61C333.51 180.612 332.21 189.716 331.343 195.788C330.476 201.856 329.175 214.427 323.972 220.065C318.771 225.697 313.568 231.77 304.466 233.502C295.361 235.237 286.257 235.667 278.454 235.667C270.652 235.667 264.149 234.366 259.38 230.469C254.611 226.567 246.808 218.763 243.339 211.825Z" fill="#FAFCB5"/>
<path d="M177.88 237.403C170.383 241.494 161.84 239.569 156.638 239.569C151.437 239.569 141.899 237.403 134.963 236.102C128.025 234.802 120.223 229.169 115.888 223.965C111.553 218.763 107.651 208.789 105.917 197.954C104.183 187.114 105.484 168.04 108.518 161.537C111.553 155.035 121.089 145.064 126.291 141.163C131.493 137.261 142.766 132.928 149.702 132.928C156.638 132.928 164.44 136.395 173.978 139.431C183.514 142.463 190.884 148.966 195.654 153.734C200.422 158.505 206.924 169.776 207.357 175.844C207.791 181.913 207.791 197.52 204.322 206.189C200.855 214.863 194.352 224.832 190.018 228.734C185.683 232.636 182.647 234.802 177.88 237.403Z" fill="#FAFCB5"/>
<path d="M101.871 132.497C98.3092 133.321 89.7325 136.545 90.3097 128.453C90.8879 120.362 90.8879 119.203 104.183 112.847C117.477 106.49 124.413 103.019 135.973 102.441C147.533 101.864 174.7 106.49 186.838 109.379C198.977 112.269 223.254 112.847 233.657 112.847C244.063 112.847 266.026 108.221 277.586 105.908C289.147 103.596 311.688 102.441 322.094 105.331C335.482 109.052 340.122 113.967 340.591 116.314C341.747 122.097 335.389 123.829 323.25 123.829C311.113 123.829 295.505 122.097 283.945 123.251C272.385 124.406 251.577 130.186 237.704 129.608C223.832 129.031 204.756 124.405 193.196 122.097C181.636 119.784 146.377 120.362 137.707 122.097C129.038 123.828 109.385 130.766 101.871 132.497Z" fill="#F5D233"/>
<path d="M41.6119 286.245C38.0678 287.23 13.2897 281.912 8.66541 261.684C4.13129 241.844 7.79907 231.335 13.0006 223.243C18.2031 215.151 27.4508 207.348 28.8953 208.506C30.3397 209.66 40.7446 234.226 44.2117 247.52C47.6815 260.814 52.0176 283.354 41.6119 286.245Z" fill="#F5D233"/>
<path d="M165.596 146.365C167.138 146.146 176.291 146.365 181.782 150.99C187.273 155.615 195.365 162.26 197.965 170.064C200.567 177.867 200.567 192.028 199.413 196.364C198.255 200.701 192.475 208.501 189.874 209.37C187.274 210.236 185.25 209.658 185.828 205.611C186.406 201.567 189.585 190.297 189.297 186.249C189.008 182.204 189.007 174.401 187.563 169.199C186.118 163.996 180.915 157.928 178.314 155.327C175.714 152.727 169.066 148.101 166.753 148.101C164.441 148.101 163.574 146.657 165.596 146.365Z" fill="#E6D1F3"/>
<path d="M315.303 211.971C314.146 212.837 315.303 207.058 315.015 200.701C314.889 197.961 313.279 193.475 313.279 186.248C313.279 181.327 311.258 172.087 308.944 166.597C306.634 161.106 302.875 154.746 298.251 151.856C293.628 148.966 287.558 145.5 286.692 144.633C285.825 143.763 286.403 143.186 289.003 143.186C291.604 143.186 296.229 143.762 299.696 144.921C303.165 146.077 310.679 150.124 313.279 153.014C315.881 155.904 321.662 164.284 323.395 169.198C325.129 174.113 325.707 184.517 325.707 189.431C325.707 194.341 323.683 200.12 322.816 202.721C321.949 205.322 317.717 210.159 315.303 211.971Z" fill="#E6D1F3"/>
<path d="M145.529 178.164L147.475 187.419" stroke="#324265" stroke-miterlimit="10" stroke-linecap="round" stroke-linejoin="round"/>
<path d="M140.943 184.121L151.059 181.589" stroke="#324265" stroke-miterlimit="10" stroke-linecap="round" stroke-linejoin="round"/>
<path d="M143.04 180.138L150.301 185.779" stroke="#324265" stroke-miterlimit="10" stroke-linecap="round" stroke-linejoin="round"/>
<path d="M143.474 187.372L149.344 179.226" stroke="#324265" stroke-miterlimit="10" stroke-linecap="round" stroke-linejoin="round"/>
<path d="M304.464 180.347L313.897 179.695" stroke="#324265" stroke-miterlimit="10" stroke-linecap="round" stroke-linejoin="round"/>
<path d="M309.065 184.479L309.492 176.391" stroke="#324265" stroke-miterlimit="10" stroke-linecap="round" stroke-linejoin="round"/>
<path d="M306.072 183.086L312.664 176.668" stroke="#324265" stroke-miterlimit="10" stroke-linecap="round" stroke-linejoin="round"/>
<path d="M312.678 183.394L306.039 176.713" stroke="#324265" stroke-miterlimit="10" stroke-linecap="round" stroke-linejoin="round"/>
<path d="M243.05 211.538C240.016 205.47 239.148 199.832 236.548 191.163C233.948 182.492 234.381 176.421 235.682 172.523C236.983 168.621 242.184 160.818 246.952 155.181C251.723 149.543 261.259 142.175 268.194 139.574C275.13 136.973 285.968 134.371 292.904 135.242C299.841 136.107 311.979 140.875 316.748 145.211C321.518 149.543 327.371 160.822 329.32 167.322C333.221 180.324 331.922 189.427 331.055 195.5C330.187 201.568 328.887 214.139 323.684 219.776C318.483 225.41 313.279 231.478 304.178 233.213C295.073 234.949 285.969 235.38 278.166 235.38C270.363 235.38 263.861 234.078 259.091 230.176C254.322 226.279 246.519 218.475 243.05 211.538Z" stroke="black" stroke-miterlimit="10" stroke-linecap="round" stroke-linejoin="round"/>
<path d="M177.591 237.114C170.094 241.205 161.55 239.28 156.348 239.28C151.147 239.28 141.609 237.114 134.672 235.813C127.736 234.512 119.934 228.879 115.599 223.676C111.263 218.474 107.362 208.5 105.628 197.665C103.894 186.825 105.195 167.751 108.229 161.248C111.263 154.746 120.799 144.775 126.001 140.873C131.204 136.972 142.476 132.639 149.412 132.639C156.348 132.639 164.151 136.106 173.688 139.142C183.225 142.174 190.594 148.676 195.364 153.445C200.132 158.216 206.635 169.486 207.068 175.555C207.502 181.623 207.502 197.231 204.033 205.9C200.566 214.573 194.063 224.543 189.727 228.445C185.394 232.347 182.359 234.513 177.591 237.114Z" stroke="black" stroke-miterlimit="10" stroke-linecap="round" stroke-linejoin="round"/>
<path d="M224.306 203.902C224.306 203.902 227.518 213.468 228.744 216.739C231.345 223.677 232.212 228.444 233.079 231.046C233.946 233.647 236.279 240.2 236.982 243.183C238.715 250.555 240.884 257.054 240.884 258.789C240.884 260.525 243.918 270.495 244.784 274.397C245.65 278.298 245.217 283.501 241.316 284.367C237.414 285.232 227.444 288.703 221.373 288.703C215.305 288.703 209.236 287.834 204.033 288.703C198.83 289.568 192.329 288.268 192.329 288.268" stroke="black" stroke-miterlimit="10" stroke-linecap="round" stroke-linejoin="round"/>
<path d="M308.079 337.687C308.079 337.687 301.384 327.948 289.302 325.149C280.687 323.152 247.379 320.729 220.055 320.729C195.892 320.729 167.582 320.786 154.343 326.328C141.671 331.632 144.176 341.161 147.566 344.597C152.942 350.049 162.351 351.268 188.524 349.607C207.089 348.428 251.654 338.742 257.184 337.82C267.792 336.052 295.031 334.017 308.079 337.687Z" fill="#DA4F4D"/>
<path d="M319.386 246.947C319.386 246.947 308.149 252.718 302.013 253.646C291.922 255.166 282.809 255.012 269.79 248.09C262.599 244.264 257.05 236.841 257.05 236.841" stroke="black" stroke-miterlimit="10" stroke-linecap="round" stroke-linejoin="round"/>
<path d="M196.72 232.948C196.72 232.948 187.472 247.127 173.768 253.099C160.066 259.071 138.766 259.825 128.587 254.908" stroke="black" stroke-miterlimit="10" stroke-linecap="round" stroke-linejoin="round"/>
<path d="M142.911 316.013C142.911 316.013 134.238 319.745 128.604 324.251C119.934 331.189 118.199 340.289 120.367 346.792C122.454 353.057 127.737 356.765 135.54 359.797C143.343 362.834 152.88 361.967 152.88 361.967" stroke="black" stroke-miterlimit="10" stroke-linecap="round" stroke-linejoin="round"/>
<path d="M305.477 316.013C305.477 316.013 315.882 321.215 319.349 325.986C322.817 330.754 325.418 338.988 319.781 348.093C314.146 357.197 298.974 357.197 298.974 357.197" stroke="black" stroke-miterlimit="10" stroke-linecap="round" stroke-linejoin="round"/>
<path d="M326.43 105.043C320.702 90.9973 312.558 77.2985 298.686 64.5811" stroke="black" stroke-miterlimit="10" stroke-linecap="round" stroke-linejoin="round"/>
<path d="M14.3019 280.758C15.4591 299.255 24.1277 316.594 28.7529 325.841C33.3754 335.091 44.9375 353.007 50.7172 359.944C56.4969 366.879 66.3246 385.957 69.7917 391.736C73.2606 397.515 79.6184 414.853 83.6637 422.947C87.7098 431.039 99.2693 450.694 102.738 459.941C106.205 469.191 117.188 480.173 122.39 489.997C127.592 499.824 135.686 504.446 142.621 511.383C146.667 515.431 157.073 522.946 165.164 525.836C173.255 528.726 186.549 533.351 195.798 535.664C205.046 537.976 224.121 542.02 235.681 542.02C247.241 542.02 259.381 536.24 265.737 532.193C272.096 528.148 288.28 517.743 293.484 510.228C298.686 502.713 300.997 492.308 302.731 479.595C304.465 466.878 307.355 440.87 309.089 431.619C310.824 422.373 313.135 407.919 314.292 402.718C315.447 397.515 316.026 385.957 317.76 381.331C319.493 376.71 333.944 353.007 337.41 344.919C340.879 336.827 343.192 318.907 345.504 306.767C347.815 294.63 348.972 270.354 348.972 262.839C348.972 255.324 347.238 217.754 347.238 206.194C347.238 194.632 342.613 162.845 340.301 155.906C337.989 148.972 332.787 123.542 332.787 123.542" stroke="black" stroke-miterlimit="10" stroke-linecap="round" stroke-linejoin="round"/>
<path d="M41.4678 296.361C41.4678 296.361 9.09947 291.167 2.16346 261.106C-2.30348 241.751 7.94231 214.865 30.4857 200.994" stroke="black" stroke-miterlimit="10" stroke-linecap="round" stroke-linejoin="round"/>
<path d="M9.09951 222.954C9.09951 222.954 9.67765 215.443 9.67765 210.237C9.67765 201.567 5.63066 188.277 7.94237 179.608C7.94237 179.608 9.67765 147.24 8.52223 140.878C7.36506 134.521 6.20881 117.182 7.94237 96.9506C9.24364 81.7782 13.3773 73.6629 20.0808 61.6916C28.1722 47.2432 40.8906 36.8383 40.8906 36.8383C40.8906 36.8383 39.1553 46.6615 40.3107 48.975C53.9157 40.1162 70.8137 31.894 80.7721 29.9005C92.3333 27.5879 120.244 12.5852 133.373 11.4033C144.284 10.422 156.209 6.69415 167.475 6.78166C172.121 6.81614 211.983 1.00195 211.983 1.00195C211.983 1.00195 205.047 7.35804 200.988 11.5377C229.185 13.4312 249.352 14.2923 258.223 14.2923C273.829 14.2923 294.639 20.0764 294.639 20.0764L281.922 24.1199C292.326 24.1199 302.152 32.7895 306.198 36.2601C310.148 39.6459 320.07 46.0833 320.07 46.0833L306.198 48.9741L322.383 63.4225C322.383 63.4225 302.73 63.9997 294.06 63.9997C285.389 63.9997 226.433 58.22 217.185 57.0611C207.935 55.9065 170.944 56.4847 157.649 58.22C144.355 59.9518 125.858 62.8452 106.783 70.3593C99.607 73.1838 83.0839 85.9667 77.8823 95.7908C72.6807 105.618 84.2216 131.346 84.8192 140.3C85.9764 157.643 76.1488 174.405 68.6337 181.919C55.3407 195.21 57.0743 216.019 57.0743 224.689C57.0743 233.363 42.046 226.428 37.4217 217.754C36.2062 215.477 29.9084 200.989 29.9084 200.989" stroke="black" stroke-miterlimit="10" stroke-linecap="round" stroke-linejoin="round"/>
<path d="M101.582 132.209C98.021 133.033 89.4433 136.256 90.0215 128.165C90.5996 120.073 90.5996 118.915 103.894 112.558C117.189 106.201 124.125 102.731 135.685 102.153C147.245 101.576 174.412 106.201 186.549 109.09C198.688 111.981 222.965 112.558 233.369 112.558C243.773 112.558 265.737 107.933 277.298 105.62C288.858 103.307 311.4 102.153 321.806 105.043C335.193 108.764 339.833 113.679 340.302 116.025C341.458 121.804 335.1 123.541 322.962 123.541C310.824 123.541 295.217 121.804 283.656 122.963C272.097 124.118 251.288 129.898 237.415 129.319C223.544 128.743 204.468 124.117 192.907 121.804C181.348 119.496 146.089 120.073 137.419 121.804C128.748 123.54 109.096 130.477 101.582 132.209Z" stroke="black" stroke-miterlimit="10" stroke-linecap="round" stroke-linejoin="round"/>
<path d="M115.454 278.445C115.454 278.445 96.9566 274.4 91.1761 269.198C85.3972 263.995 78.4612 259.951 72.1024 248.965C68.5195 242.778 63.432 231.627 63.432 220.645" stroke="black" stroke-miterlimit="10" stroke-linecap="round" stroke-linejoin="round"/>
<path d="M101.582 95.7959C101.582 95.7959 118.089 86.5411 124.125 84.2329C143.777 76.7179 153.604 76.1406 164.587 76.1406C175.568 76.1406 191.753 80.7658 202.734 83.0793C213.716 85.391 229.902 84.8146 242.618 81.9203C255.333 79.0305 272.673 76.1406 284.234 77.8768C295.794 79.6077 305.621 85.391 307.934 87.1228" stroke="black" stroke-miterlimit="10" stroke-linecap="round" stroke-linejoin="round"/>
<path d="M339.653 237.798C339.653 237.798 338.474 256.657 334.938 263.14C331.402 269.622 320.793 280.232 308.417 282.588" stroke="black" stroke-miterlimit="10" stroke-linecap="round" stroke-linejoin="round"/>
<path d="M153.311 326.771C153.311 326.771 154.138 335.582 158.91 336.496C165.835 337.823 168.339 323.236 168.339 323.236C168.339 323.236 168.192 334.433 175.706 334.433C183.22 334.433 183.81 321.468 183.81 321.468C183.81 321.468 187.345 330.75 193.386 331.487C199.428 332.223 201.49 321.173 201.49 321.173C201.49 321.173 203.7 329.277 211.214 330.161C218.728 331.045 219.465 320.73 219.465 320.73C219.465 320.73 221.528 328.835 229.779 329.277C238.029 329.719 238.471 321.613 238.471 321.613C238.471 321.613 240.092 328.835 246.281 329.129C252.469 329.423 254.825 322.645 254.825 322.645C254.825 322.645 257.183 329.275 261.309 330.161C267.936 331.583 271.033 323.529 271.033 323.529C271.033 323.529 253.964 321.007 232.43 320.729C209.593 320.435 168.56 320.067 153.311 326.771Z" fill="white"/>
<path d="M154.047 348.574C154.047 348.574 161.12 341.208 172.612 341.65C184.104 342.092 198.395 348.28 198.395 348.28C198.395 348.28 184.989 350.491 173.349 350.491C159.94 350.491 154.047 348.574 154.047 348.574Z" fill="#FF0000"/>
<path d="M308.079 337.687C308.079 337.687 302.858 327.948 287.976 325.149C279.285 323.513 247.379 320.729 220.054 320.729C195.892 320.729 167.581 320.786 154.343 326.328C141.671 331.632 144.176 341.161 147.565 344.597C152.942 350.049 162.351 351.268 188.524 349.607C207.089 348.428 251.654 338.742 257.183 337.82C267.791 336.052 295.03 334.017 308.079 337.687Z" stroke="black" stroke-miterlimit="10" stroke-linecap="round" stroke-linejoin="round"/>
<path d="M153.459 326.918C153.459 326.918 154.431 335.581 159.205 336.495C166.128 337.821 168.634 323.235 168.634 323.235C168.634 323.235 168.487 334.432 176.001 334.432C183.515 334.432 184.104 321.467 184.104 321.467C184.104 321.467 187.64 330.749 193.681 331.485C199.721 332.222 201.784 321.171 201.784 321.171C201.784 321.171 203.995 329.275 211.509 330.159C219.023 331.043 219.76 320.729 219.76 320.729C219.76 320.729 221.822 328.833 230.073 329.275C238.324 329.717 238.324 321.613 238.324 321.613C238.324 321.613 240.386 328.833 246.574 329.128C252.762 329.422 254.679 322.35 254.679 322.35C254.679 322.35 257.478 330.011 261.602 330.159C267.789 330.382 271.328 323.381 271.328 323.381" stroke="black" stroke-miterlimit="10" stroke-linecap="round" stroke-linejoin="round"/>
<path d="M153.901 348.576C153.901 348.576 160.973 341.21 172.465 341.652C183.957 342.094 198.248 348.282 198.248 348.282" stroke="black" stroke-miterlimit="10" stroke-linecap="round" stroke-linejoin="round"/>
<path d="M398.589 358.024C398.589 358.024 392.106 349.772 399.178 348.594C406.25 347.415 406.25 336.218 402.714 333.271C399.178 330.325 387.981 329.734 387.981 332.681C387.981 335.629 390.927 342.701 390.927 342.701C390.927 342.701 386.213 344.469 386.213 348.005C386.213 351.541 391.517 362.149 398.589 358.024Z" fill="#FAFCB5"/>
<path d="M380.319 332.092C371.833 327.464 375.016 322.073 381.497 321.484C387.981 320.895 393.874 329.145 390.927 332.092C387.981 335.04 386.801 335.628 380.319 332.092Z" fill="#FAFCB5"/>
<path d="M388.57 317.358C386.237 314.636 390.64 311.683 393.874 310.875C398.589 309.697 403.303 315.59 399.767 319.126C396.232 322.662 392.106 321.483 388.57 317.358Z" fill="#FAFCB5"/>
<path d="M376.782 312.644C377.495 307.659 378.55 302.036 382.086 302.036C385.622 302.036 392.694 305.572 392.694 305.572C392.694 305.572 392.695 311.465 390.338 313.823C387.98 316.18 376.193 316.77 376.782 312.644Z" fill="#FAFCB5"/>
<path d="M380.908 307.929C380.908 307.929 382.676 303.214 377.372 303.214C372.068 303.214 368.531 306.75 368.531 306.75C368.531 306.75 372.657 313.823 376.782 312.644C380.908 311.465 380.908 307.929 380.908 307.929Z" fill="#FAFCB5"/>
<path d="M364.406 297.91C365.492 295.737 373.836 294.963 371.478 300.267C370.942 301.471 361.458 303.803 364.406 297.91Z" fill="#FAFCB5"/>
<path d="M368.485 392.974C367.246 392.977 354.601 384.725 344.321 377.25C338.998 373.38 332.976 368.914 326.783 364.275C320.829 359.814 305.841 351.495 300.043 347.088C283.19 334.279 279.526 333.379 279.526 333.379C279.526 333.379 276.77 332.332 278.218 328.848C279.666 325.365 285.633 324.256 285.633 324.256C285.633 324.256 288.466 323.439 292.277 326.021C296.089 328.601 313.208 335.317 317.259 336.601C321.31 337.886 330.141 340.858 330.141 340.858L342.86 344.55L354.371 350.429L364.989 355.34L373.984 358.879L381.847 362.744L391.659 369.115C391.659 369.115 398.248 381.321 399.555 385.852C400.862 390.381 402.735 394.748 400.557 397.83C398.379 400.912 399.034 403.178 391.019 403.036C383.004 402.895 375.381 397.733 375.381 397.733L368.485 392.974Z" fill="#F9FFFF"/>
<path d="M391.03 369.334C388.585 369.234 385.096 369.895 382.913 371.1C380.731 372.304 379.156 374.024 379.156 374.024C379.156 374.024 372.476 379.172 371.629 380.221C370.781 381.271 369.66 382.17 370.03 384.248C370.399 386.327 370.406 388.74 371.018 390.863C371.63 392.986 372.623 395.23 373.507 396.701C374.391 398.17 377.322 399.165 378.144 399.619C378.965 400.072 383.356 402.14 384.465 402.396C385.573 402.65 389.173 403.567 391.1 403.472C393.028 403.375 395.835 403.14 397.049 402.56C398.262 401.981 399.076 400.021 399.076 400.021C399.076 400.021 400.561 398.787 401.056 396.919C401.553 395.051 401.426 393.017 401.165 391.712C400.903 390.407 399.421 386.464 399.421 386.464L395.923 377.928L392.885 371.789L391.03 369.334Z" fill="#3A3A3D"/>
<path d="M392.479 396.286C392.096 397.035 389.994 398.039 389.811 397.402C389.627 396.765 389.971 394.366 390.652 393.939C391.336 393.512 393.659 393.992 392.479 396.286Z" fill="#DA4F4D"/>
<path d="M380.279 397.048C379.389 397.079 379.453 394.985 380.396 395.059C381.336 395.132 381.645 396.998 380.279 397.048Z" fill="#DA4F4D"/>
<path d="M376.206 383.73C376.277 382.691 379.922 382.659 378.82 384.817C377.717 386.975 376.119 385.021 376.206 383.73Z" fill="#DA4F4D"/>
<path d="M383.401 377.974C384.164 376.345 385.667 379.046 385.32 379.836C384.972 380.626 382.904 379.038 383.401 377.974Z" fill="#DA4F4D"/>
<path d="M393.715 386.615C393.558 387.463 390.968 386.258 391.465 385.195C391.964 384.13 394.074 384.671 393.715 386.615Z" fill="#DA4F4D"/>
<path d="M368.283 393.338C367.044 393.342 354.399 385.091 344.118 377.615C338.796 373.745 332.774 369.279 326.58 364.64C320.626 360.179 305.639 351.86 299.84 347.453C282.987 334.643 279.323 333.743 279.323 333.743C279.323 333.743 276.568 332.697 278.016 329.213C279.465 325.729 285.431 324.621 285.431 324.621C285.431 324.621 288.263 323.803 292.074 326.385C295.886 328.965 313.005 335.681 317.057 336.965C321.107 338.25 329.939 341.223 329.939 341.223L342.658 344.914L354.169 350.793L364.787 355.704L373.782 359.244L381.645 363.109L391.457 369.479C391.457 369.479 398.045 381.686 399.352 386.216C400.659 390.746 402.532 395.113 400.354 398.194C398.177 401.276 398.831 403.542 390.817 403.4C382.801 403.259 375.178 398.098 375.178 398.098L368.283 393.338Z" stroke="black" stroke-miterlimit="10" stroke-linecap="round" stroke-linejoin="round"/>
<path d="M430.037 356.507C430.037 356.507 437.725 355.516 437.246 358.108" stroke="black" stroke-miterlimit="10" stroke-linecap="round" stroke-linejoin="round"/>
<path d="M434.002 387.259L437.639 384.984" stroke="black" stroke-miterlimit="10" stroke-linecap="round" stroke-linejoin="round"/>
<path d="M453.308 371.263C453.308 371.263 456.303 371.013 456.956 373.277" stroke="black" stroke-miterlimit="10" stroke-linecap="round" stroke-linejoin="round"/>
<path d="M417.133 375.565L420.367 374.019" stroke="black" stroke-miterlimit="10" stroke-linecap="round" stroke-linejoin="round"/>
<path d="M387.395 395.799L390.063 394.416" stroke="black" stroke-miterlimit="10" stroke-linecap="round" stroke-linejoin="round"/>
<path d="M383.724 385.203L387.613 385.923" stroke="black" stroke-miterlimit="10" stroke-linecap="round" stroke-linejoin="round"/>
<path d="M375.971 392.348C375.971 392.348 379.042 390.234 381.231 391.443" stroke="black" stroke-miterlimit="10" stroke-linecap="round" stroke-linejoin="round"/>
<path d="M392.37 379.029L397.881 381.12" stroke="black" stroke-miterlimit="10" stroke-linecap="round" stroke-linejoin="round"/>
<path d="M397.413 388.002L401.703 387.99" stroke="black" stroke-miterlimit="10" stroke-linecap="round" stroke-linejoin="round"/>
<path d="M391.455 369.479C385.302 369.414 381.502 371.123 379.727 373.475C377.951 375.827 371.646 379.487 370.437 381.675C369.229 383.864 370.961 396.244 375.175 398.096" stroke="black" stroke-miterlimit="10" stroke-linecap="round" stroke-linejoin="round"/>
<path d="M287.109 327.51C287.109 327.51 284.859 325.552 282.329 325.823" stroke="black" stroke-miterlimit="10" stroke-linecap="round" stroke-linejoin="round"/>
<path d="M282.424 331.468C282.424 331.468 279.608 330.748 279.016 328.159" stroke="black" stroke-miterlimit="10" stroke-linecap="round" stroke-linejoin="round"/>
<path d="M372.186 372.585C372.186 372.585 374.894 374.793 376.021 376.309" stroke="black" stroke-miterlimit="10" stroke-linecap="round" stroke-linejoin="round"/>
<path d="M368.308 387.045L370.071 388.377" stroke="black" stroke-miterlimit="10" stroke-linecap="round" stroke-linejoin="round"/>
<path d="M352.944 374.456C352.944 374.456 349.179 374.161 347.473 371.434" stroke="black" stroke-miterlimit="10" stroke-linecap="round" stroke-linejoin="round"/>
<path d="M341.085 366.836C341.085 366.836 344.194 371.23 348.26 370.977" stroke="black" stroke-miterlimit="10" stroke-linecap="round" stroke-linejoin="round"/>
</svg>
