<svg width="15" height="21" viewBox="0 0 15 21" fill="none" xmlns="http://www.w3.org/2000/svg">
<path fill-rule="evenodd" clip-rule="evenodd" d="M1.42215 0.653922C0.897558 1.29509 0.280986 2.07918 0.922153 2.60377C0.922153 2.60377 3.00119 4.91216 4.87201 6.44284C6.74283 7.97351 10.5032 10.4428 10.5032 10.4428C10.5032 10.4428 7 12.8624 5.5 14.3624C4 15.8624 2 17.3646 2 17.3646C1.35883 17.8892 0.922153 18.3646 1.42215 19.614C1.94674 20.2552 2.1807 21.1284 2.82187 20.6038C2.82187 20.6038 7.85211 16.1197 10 14.3624C12.1479 12.605 13 12.1038 13 12.1038C13.3482 11.8189 15 10.8927 15 10.4428C15 9.99294 14.1701 9.56679 13.8219 9.2819C13.8219 9.2819 10.07 6.41128 7.92215 4.65392C5.77427 2.89656 2.82187 0.281901 2.82187 0.281901C2.1807 -0.24269 1.94674 0.0127552 1.42215 0.653922Z" fill="#9E9E9E"/>
</svg>
