<svg width="457" height="543" viewBox="0 0 457 543" fill="none" xmlns="http://www.w3.org/2000/svg">
<path d="M13.733 280.468C13.9142 299 23.5588 316.3 28.1831 325.551C32.8074 334.797 44.3677 352.716 50.1483 359.655C55.928 366.589 65.7557 385.663 69.2228 391.443C72.6917 397.226 79.0495 414.564 83.0957 422.657C87.1409 430.749 98.7012 450.4 102.171 459.652C105.638 468.898 116.619 479.88 121.822 489.707C127.024 499.534 135.118 504.157 142.053 511.094C146.099 515.141 156.503 522.656 164.595 525.546C172.687 528.437 185.981 533.061 195.23 535.37C204.478 537.683 223.553 541.73 235.112 541.73C246.673 541.73 258.812 535.951 265.169 531.903C271.528 527.859 287.712 517.454 292.916 509.939C298.116 502.424 300.429 492.019 302.163 479.306C303.897 466.589 306.787 440.576 308.52 431.329C310.254 422.079 312.567 407.63 313.723 402.428C314.879 397.226 315.457 385.666 317.192 381.042C318.925 376.417 333.375 352.717 336.842 344.626C340.311 336.534 342.623 318.617 344.936 306.478C347.247 294.341 348.404 270.065 348.404 262.55C348.404 255.035 346.67 217.464 346.67 205.905C346.67 194.342 342.045 162.554 339.733 155.617C337.421 148.678 332.219 123.252 332.219 123.252C332.219 123.252 327.882 106.336 319.647 91.7455C311.702 77.6648 299.921 65.956 295.948 62.2661C287.855 54.7546 198.262 28.166 171.096 37.4129C143.93 46.6623 92.4866 57.6454 79.77 72.671C67.0543 87.7011 45.6663 120.648 43.3555 137.408C41.0429 154.174 32.9506 202.727 32.9506 202.727C32.9506 202.727 13.5889 265.728 13.733 280.468Z" fill="#F5D233"/>
<path d="M143.353 366.02C143.353 366.02 134.104 369.487 129.48 368.332C124.858 367.174 113.875 365.442 113.875 365.442C113.875 365.442 117.922 367.755 123.701 375.265C129.48 382.781 129.48 382.781 132.949 390.295C136.416 397.811 147.399 404.167 149.711 408.792C152.023 413.418 156.647 419.775 157.225 424.978C157.802 430.18 158.38 442.898 158.959 446.363C159.537 449.83 163.005 470.064 167.051 478.732C171.096 487.402 174.566 500.119 183.235 506.476C191.906 512.836 204.043 515.15 210.401 520.348C216.759 525.55 216.759 529.021 231.787 529.598C246.816 530.175 257.221 528.443 268.202 523.818C279.186 519.193 284.966 509.365 288.433 500.119C291.902 490.872 294.214 479.309 297.681 470.063C301.15 460.812 305.774 453.878 305.774 453.878C305.774 453.878 302.883 474.533 302.233 478.22C301.583 481.902 299.85 495.774 297.247 502.496C294.647 509.215 292.262 511.816 285.76 518.319C285.76 518.319 267.118 531.974 261.483 534.576C255.848 537.177 245.443 542.161 240.024 542.161C234.606 542.161 223.334 542.38 210.545 539.128C197.757 535.876 192.771 536.091 181.718 531.974C170.663 527.854 159.826 526.552 149.203 517.233C149.203 517.233 142.485 512.25 139.667 509.429C136.848 506.613 129.046 499.895 129.046 499.895C129.046 499.895 126.804 488.912 125.216 485.515C123.626 482.121 119.292 476.483 118.209 474.967C117.124 473.447 110.187 464.128 108.67 461.526C107.153 458.926 103.685 450.905 102.818 449.17C101.951 447.439 98.2663 432.482 98.2663 432.482C98.2663 432.482 91.7634 421.211 89.1627 416.44C86.5619 411.673 80.7088 399.317 79.625 396.065C78.5421 392.814 70.0882 383.929 68.7878 381.543C67.4874 379.162 60.9837 368.106 60.9837 368.106C60.9837 368.106 54.7699 357.555 52.8914 355.462C51.0138 353.365 43.6428 342.529 43.6428 342.529C43.6428 342.529 33.6729 335.807 32.155 333.205C30.638 330.608 22.4016 314.782 21.1012 310.879C19.8009 306.978 15.8988 295.708 15.4656 292.891L13.7321 282.701C13.7321 282.701 5.92885 274.032 4.62757 270.13C3.32718 266.229 -0.139939 259.509 0.510699 250.841C1.15957 242.171 3.76124 233.499 3.76124 233.499L6.94105 226.13L9.8309 221.215C9.8309 221.215 16.1896 211.103 18.7904 209.656C21.3912 208.213 24.2811 204.165 29.4826 200.986L32.9506 209.945C32.9506 209.945 36.7077 217.46 37.8649 219.484C39.0212 221.508 45.6681 226.418 45.6681 226.418C45.6681 226.418 50.5797 228.73 52.026 228.73C53.4713 228.73 55.2058 228.735 55.783 227.576C56.3612 226.417 56.6971 223.528 56.6503 222.662C56.0721 211.679 60.6964 205.031 60.6964 205.031C60.6964 205.031 63.2972 233.355 67.6324 241.736C70.6009 247.477 75.1474 256.478 79.7709 260.233C84.3943 263.989 89.3076 268.614 91.9084 270.061C94.5101 271.504 113.585 279.884 117.053 280.755C120.521 281.62 131.504 287.111 131.504 287.111C131.504 287.111 132.081 295.491 131.214 300.694C130.346 305.896 128.324 312.541 127.167 315.72C126.011 318.903 126.301 325.836 126.301 325.836C126.301 325.836 121.965 330.46 120.811 332.774C119.654 335.087 118.21 342.313 119.365 345.491C120.52 348.67 124.566 355.026 128.323 356.762C132.08 358.497 143.353 366.02 143.353 366.02Z" fill="#EC9B4B"/>
<path d="M299.417 414.712C299.712 412.795 299.851 398.67 300.283 393.467C300.717 388.265 301.15 372.227 302.017 369.625C302.885 367.023 305.919 356.189 305.919 356.189C305.919 356.189 311.843 355.03 315.022 352.429C318.202 349.828 321.67 343.76 322.248 340.293C322.826 336.821 321.67 330.465 318.491 325.551C315.312 320.636 308.086 317.459 308.086 317.459L301.438 313.704C301.438 313.704 296.843 291.871 306.67 284.356C309.11 282.49 325.966 276.728 333.191 264.908C336.526 259.447 338.291 247.72 338.869 243.675C339.446 239.628 339.158 218.821 340.603 214.773C342.048 210.726 344.36 231.824 345.226 236.738C346.093 241.652 343.991 274.132 343.256 280.738C341.285 298.47 339.528 312.73 338.66 316.2C335.376 329.333 331.785 344.048 330.629 346.36C329.472 348.673 325.425 356.476 321.38 361.967C317.334 367.458 313.048 375.304 311.265 389.711C310.485 396.002 301.438 416.3 301.15 418.031C300.863 419.768 299.128 416.589 299.417 414.712Z" fill="#EC9B4B"/>
<path d="M108.383 130.47C108.383 130.47 121.388 126.137 124.278 125.267C127.168 124.402 135.839 121.8 145.953 120.935C156.069 120.069 167.919 120.069 172.541 120.069C177.166 120.069 187.282 121.224 189.882 121.512C192.483 121.801 204.043 123.825 208.379 124.979C212.714 126.138 222.54 127.87 226.586 128.451C230.633 129.028 238.147 129.605 240.749 129.605C243.35 129.605 249.997 128.451 255.488 127.873C260.979 127.293 267.915 125.269 270.516 124.98C273.117 124.692 281.209 122.672 284.099 122.672C286.989 122.672 294.792 122.384 301.729 122.672C308.665 122.96 318.203 123.537 319.648 123.537C321.094 123.537 316.179 126.138 311.556 127.873C306.932 129.605 282.943 131.341 273.984 133.365C265.026 135.385 239.015 137.987 221.385 136.832C203.755 135.678 186.125 128.452 175.722 128.452C165.319 128.452 141.041 128.74 134.394 129.894C127.746 131.051 106.071 133.937 108.383 130.47Z" fill="#EC9B4B"/>
<path d="M105.781 94.0559C105.313 91.7203 114.452 85.0981 120.81 82.4973C127.168 79.8966 139.885 69.7799 160.982 70.068C182.078 70.3562 199.71 74.4042 208.668 75.2705C217.625 76.1368 246.239 75.5587 258.089 74.116C269.936 72.6688 291.902 78.4485 293.635 80.4721C295.37 82.4965 282.941 79.3175 275.429 79.6066C267.914 79.8957 239.88 86.2526 235.545 87.1181C231.211 87.9871 202.598 87.9871 191.038 85.9636C179.477 83.9392 163.082 81.0918 154.912 81.3384C135.839 81.9201 106.071 95.4995 105.781 94.0559Z" fill="#EC9B4B"/>
<path d="M144.797 59.6644C145.305 58.3136 160.404 56.4855 174.567 55.0419C188.728 53.5947 225.141 55.9073 232.946 56.7737C240.749 57.6435 262.424 60.5334 263.868 61.9761C265.314 63.4233 239.881 64.2887 233.523 64.0005C227.166 63.7114 207.223 64.5778 183.235 61.3997C163.936 58.8405 143.93 61.9761 144.797 59.6644Z" fill="#EC9B4B"/>
<path d="M83.817 151.856C86.4177 149.836 87.8631 144.345 88.7312 140.585C89.5976 136.83 88.4413 121.223 88.4413 116.309C88.4413 111.394 89.3076 100.99 91.042 96.3686C92.7765 91.7443 92.4883 83.6512 91.6202 80.7613C90.753 77.8714 83.2388 85.3865 78.9036 91.1671C74.5675 96.9468 73.4121 104.173 75.4356 109.952C77.4582 115.732 83.2379 137.407 83.2379 140.297C83.2388 143.187 82.2036 153.115 83.817 151.856Z" fill="#EC9B4B"/>
<path d="M8.38556 222.95C8.38556 222.95 8.96371 215.439 8.96371 210.233C8.96371 201.562 4.91667 188.272 7.22926 179.603C7.22926 179.603 8.9637 147.235 7.80829 140.874C6.652 134.518 5.4957 117.179 7.22926 96.9469C8.52965 81.7745 12.6642 73.6583 19.3668 61.6878C27.4591 47.2386 40.1766 36.8346 40.1766 36.8346C40.1766 36.8346 38.4413 46.6578 39.5976 48.9712C53.2017 40.1125 70.0997 31.8902 80.0582 29.8968C91.6194 27.5851 119.53 12.5815 132.658 11.404C143.57 10.4227 155.495 6.69043 166.762 6.77971C171.406 6.81419 211.269 1 211.269 1C211.269 1 204.333 7.35609 200.273 11.5348C228.47 13.4293 248.637 14.2939 257.51 14.2939C273.115 14.2939 293.923 20.0736 293.923 20.0736L281.207 24.118C291.613 24.118 301.438 32.7875 305.484 36.2573C309.433 39.6431 319.356 46.0814 319.356 46.0814L305.484 48.9712L321.668 63.4205C321.668 63.4205 302.017 63.9969 293.346 63.9969C284.676 63.9969 225.719 58.2181 216.47 57.0626C207.222 55.9046 170.23 56.4827 156.935 58.2181C143.64 59.9534 125.144 62.8424 106.07 70.3574C98.8931 73.1854 82.3699 85.9647 77.1683 95.7888C71.9668 105.616 83.5076 131.344 84.1052 140.298C85.2615 157.64 75.4348 174.402 67.9197 181.917C54.6259 195.212 56.3603 216.017 56.3603 224.69C56.3603 233.36 41.3311 226.426 36.7068 217.756C35.4913 215.475 29.1927 200.99 29.1927 200.99C29.1927 200.99 19.2696 209.249 14.7425 214.573C9.83093 220.353 8.38556 222.95 8.38556 222.95Z" fill="#682527"/>
<path d="M242.771 211.825C239.736 205.758 238.869 200.12 236.269 191.451C233.668 182.781 234.102 176.713 235.403 172.811C236.704 168.909 241.905 161.106 246.673 155.469C251.443 149.835 260.98 142.463 267.916 139.862C274.852 137.261 285.688 134.66 292.626 135.529C299.562 136.395 311.699 141.163 316.468 145.499C321.239 149.836 327.091 161.11 329.041 167.61C332.942 180.612 331.642 189.716 330.775 195.788C329.908 201.856 328.607 214.427 323.404 220.065C318.203 225.697 313 231.77 303.898 233.502C294.793 235.237 285.689 235.667 277.886 235.667C270.084 235.667 263.581 234.366 258.812 230.469C254.043 226.567 246.24 218.763 242.771 211.825Z" fill="#FAFCB5"/>
<path d="M177.311 237.403C169.814 241.494 161.271 239.569 156.07 239.569C150.868 239.569 141.33 237.403 134.394 236.102C127.457 234.802 119.655 229.169 115.319 223.965C110.983 218.763 107.082 208.789 105.348 197.954C103.615 187.114 104.915 168.04 107.949 161.537C110.983 155.035 120.521 145.064 125.722 141.163C130.925 137.261 142.197 132.928 149.133 132.928C156.069 132.928 163.871 136.395 173.41 139.431C182.945 142.463 190.315 148.966 195.085 153.734C199.853 158.505 206.355 169.776 206.788 175.844C207.222 181.913 207.222 197.52 203.753 206.189C200.286 214.863 193.784 224.832 189.449 228.734C185.114 232.636 182.078 234.802 177.311 237.403Z" fill="#FAFCB5"/>
<path d="M101.302 132.497C97.7402 133.321 89.1634 136.545 89.7416 128.453C90.3197 120.362 90.3197 119.203 103.614 112.847C116.909 106.49 123.845 103.019 135.405 102.441C146.965 101.864 174.131 106.49 186.27 109.379C198.409 112.269 222.686 112.847 233.089 112.847C243.494 112.847 265.458 108.221 277.018 105.908C288.578 103.596 311.12 102.441 321.526 105.331C334.913 109.052 339.554 113.967 340.023 116.314C341.178 122.097 334.821 123.829 322.682 123.829C310.545 123.829 294.937 122.097 283.377 123.251C271.817 124.406 251.009 130.186 237.136 129.608C223.264 129.031 204.188 124.405 192.628 122.097C181.068 119.784 145.809 120.362 137.139 122.097C128.469 123.828 108.816 130.766 101.302 132.497Z" fill="#F5D233"/>
<path d="M41.0429 286.245C37.4988 287.23 12.7207 281.912 8.09729 261.684C3.56228 241.844 7.23007 231.335 12.4316 223.243C17.6341 215.151 26.8827 207.348 28.3271 208.506C29.7707 209.66 40.1765 234.226 43.6436 247.52C47.1134 260.814 51.4478 283.354 41.0429 286.245Z" fill="#F5D233"/>
<path d="M165.027 146.365C166.569 146.146 175.722 146.365 181.213 150.99C186.704 155.615 194.796 162.26 197.397 170.064C199.998 177.867 199.998 192.028 198.844 196.364C197.686 200.701 191.906 208.501 189.305 209.37C186.705 210.236 184.681 209.658 185.259 205.611C185.837 201.567 189.016 190.297 188.728 186.249C188.439 182.204 188.438 174.401 186.994 169.199C185.549 163.996 180.346 157.928 177.745 155.327C175.145 152.727 168.497 148.101 166.184 148.101C163.873 148.101 163.005 146.657 165.027 146.365Z" fill="#E6D1F3"/>
<path d="M314.734 211.971C313.577 212.837 314.734 207.058 314.446 200.701C314.32 197.961 312.71 193.475 312.71 186.248C312.71 181.327 310.689 172.087 308.375 166.597C306.065 161.106 302.306 154.746 297.682 151.856C293.059 148.966 286.989 145.5 286.123 144.633C285.256 143.763 285.834 143.186 288.434 143.186C291.035 143.186 295.66 143.762 299.127 144.921C302.596 146.077 310.111 150.124 312.71 153.014C315.312 155.904 321.093 164.284 322.826 169.198C324.56 174.113 325.138 184.517 325.138 189.431C325.138 194.341 323.114 200.12 322.247 202.721C321.38 205.322 317.148 210.159 314.734 211.971Z" fill="#E6D1F3"/>
<path d="M144.96 178.164L146.906 187.419" stroke="#324265" stroke-miterlimit="10" stroke-linecap="round" stroke-linejoin="round"/>
<path d="M140.375 184.121L150.49 181.589" stroke="#324265" stroke-miterlimit="10" stroke-linecap="round" stroke-linejoin="round"/>
<path d="M142.472 180.138L149.733 185.779" stroke="#324265" stroke-miterlimit="10" stroke-linecap="round" stroke-linejoin="round"/>
<path d="M142.905 187.372L148.776 179.226" stroke="#324265" stroke-miterlimit="10" stroke-linecap="round" stroke-linejoin="round"/>
<path d="M303.895 180.347L313.328 179.695" stroke="#324265" stroke-miterlimit="10" stroke-linecap="round" stroke-linejoin="round"/>
<path d="M308.496 184.479L308.922 176.391" stroke="#324265" stroke-miterlimit="10" stroke-linecap="round" stroke-linejoin="round"/>
<path d="M305.504 183.086L312.096 176.668" stroke="#324265" stroke-miterlimit="10" stroke-linecap="round" stroke-linejoin="round"/>
<path d="M312.108 183.394L305.47 176.713" stroke="#324265" stroke-miterlimit="10" stroke-linecap="round" stroke-linejoin="round"/>
<path d="M242.482 211.538C239.447 205.47 238.58 199.832 235.98 191.163C233.38 182.492 233.813 176.421 235.114 172.523C236.415 168.621 241.616 160.818 246.384 155.181C251.154 149.543 260.691 142.175 267.626 139.574C274.562 136.973 285.4 134.371 292.336 135.242C299.273 136.107 311.411 140.875 316.18 145.211C320.949 149.543 326.803 160.822 328.752 167.322C332.653 180.324 331.353 189.427 330.487 195.5C329.619 201.568 328.319 214.139 323.116 219.776C317.915 225.41 312.711 231.478 303.609 233.213C294.505 234.949 285.4 235.38 277.598 235.38C269.795 235.38 263.293 234.078 258.523 230.176C253.754 226.279 245.95 218.475 242.482 211.538Z" stroke="black" stroke-miterlimit="10" stroke-linecap="round" stroke-linejoin="round"/>
<path d="M177.023 237.114C169.526 241.205 160.982 239.28 155.78 239.28C150.579 239.28 141.041 237.114 134.104 235.813C127.168 234.512 119.366 228.879 115.03 223.676C110.694 218.474 106.793 208.5 105.059 197.665C103.326 186.825 104.627 167.751 107.661 161.248C110.695 154.746 120.231 144.775 125.434 140.873C130.636 136.972 141.908 132.639 148.844 132.639C155.78 132.639 163.584 136.106 173.121 139.142C182.658 142.174 190.027 148.676 194.797 153.445C199.565 158.216 206.068 169.486 206.501 175.555C206.935 181.623 206.935 197.231 203.466 205.9C199.999 214.573 193.496 224.543 189.16 228.445C184.825 232.347 181.79 234.513 177.023 237.114Z" stroke="black" stroke-miterlimit="10" stroke-linecap="round" stroke-linejoin="round"/>
<path d="M223.737 203.902C223.737 203.902 226.949 213.468 228.175 216.739C230.776 223.677 231.643 228.444 232.511 231.046C233.377 233.647 235.71 240.2 236.413 243.183C238.146 250.555 240.315 257.054 240.315 258.789C240.315 260.525 243.349 270.495 244.215 274.397C245.081 278.298 244.648 283.501 240.747 284.367C236.845 285.232 226.875 288.703 220.804 288.703C214.736 288.703 208.667 287.834 203.464 288.703C198.261 289.568 191.76 288.268 191.76 288.268" stroke="black" stroke-miterlimit="10" stroke-linecap="round" stroke-linejoin="round"/>
<path d="M141.474 345.49C141.474 345.49 153.18 340.288 157.947 338.988C162.717 337.687 184.825 332.782 230.778 329.453C258.031 327.479 280.197 329.018 288.868 330.754C297.538 332.49 307.511 337.688 307.511 337.688" stroke="black" stroke-miterlimit="10" stroke-linecap="round" stroke-linejoin="round"/>
<path d="M318.817 246.947C318.817 246.947 307.58 252.718 301.444 253.646C291.353 255.166 282.24 255.012 269.221 248.09C262.03 244.264 256.481 236.841 256.481 236.841" stroke="black" stroke-miterlimit="10" stroke-linecap="round" stroke-linejoin="round"/>
<path d="M196.151 232.948C196.151 232.948 186.903 247.127 173.199 253.099C159.497 259.071 138.197 259.825 128.018 254.908" stroke="black" stroke-miterlimit="10" stroke-linecap="round" stroke-linejoin="round"/>
<path d="M142.342 316.013C142.342 316.013 133.669 319.745 128.035 324.251C119.365 331.189 117.63 340.289 119.798 346.792C121.885 353.057 127.168 356.765 134.971 359.797C142.774 362.834 152.311 361.967 152.311 361.967" stroke="black" stroke-miterlimit="10" stroke-linecap="round" stroke-linejoin="round"/>
<path d="M304.908 316.013C304.908 316.013 315.313 321.215 318.78 325.986C322.248 330.754 324.849 338.988 319.212 348.093C313.577 357.197 298.405 357.197 298.405 357.197" stroke="black" stroke-miterlimit="10" stroke-linecap="round" stroke-linejoin="round"/>
<path d="M325.861 105.043C320.133 90.9973 311.989 77.2985 298.117 64.5811" stroke="black" stroke-miterlimit="10" stroke-linecap="round" stroke-linejoin="round"/>
<path d="M13.7329 280.758C14.8892 299.255 23.5588 316.594 28.184 325.841C32.8074 335.091 44.3685 353.007 50.1483 359.944C55.928 366.879 65.7556 385.957 69.2227 391.736C72.6916 397.515 79.0503 414.853 83.0956 422.947C87.1418 431.039 98.7012 450.694 102.171 459.941C105.638 469.191 116.621 480.173 121.822 489.997C127.024 499.824 135.118 504.446 142.053 511.383C146.099 515.431 156.504 522.946 164.596 525.836C172.687 528.726 185.981 533.351 195.23 535.664C204.478 537.976 223.553 542.02 235.113 542.02C246.673 542.02 258.813 536.24 265.169 532.193C271.528 528.148 287.712 517.743 292.915 510.228C298.118 502.713 300.429 492.308 302.163 479.595C303.897 466.878 306.787 440.87 308.521 431.619C310.255 422.373 312.567 407.919 313.723 402.718C314.879 397.515 315.458 385.957 317.192 381.331C318.925 376.71 333.376 353.007 336.842 344.919C340.311 336.827 342.624 318.907 344.936 306.767C347.247 294.63 348.403 270.354 348.403 262.839C348.403 255.324 346.67 217.754 346.67 206.194C346.67 194.632 342.045 162.845 339.733 155.906C337.421 148.972 332.219 123.542 332.219 123.542" stroke="black" stroke-miterlimit="10" stroke-linecap="round" stroke-linejoin="round"/>
<path d="M40.8987 296.361C40.8987 296.361 8.5304 291.167 1.59439 261.106C-2.87167 241.751 7.3741 214.865 29.9174 200.994" stroke="black" stroke-miterlimit="10" stroke-linecap="round" stroke-linejoin="round"/>
<path d="M8.53052 222.954C8.53052 222.954 9.10868 215.443 9.10868 210.237C9.10868 201.567 5.06164 188.277 7.37423 179.608C7.37423 179.608 9.10868 147.24 7.95415 140.878C6.79786 134.521 5.64155 117.182 7.37423 96.9506C8.6755 81.7782 12.8101 73.6629 19.5127 61.6916C27.605 47.2432 40.3225 36.8383 40.3225 36.8383C40.3225 36.8383 38.588 46.6615 39.7434 48.975C53.3476 40.1162 70.2456 31.894 80.2049 29.9005C91.7661 27.5879 119.676 12.5852 132.806 11.4033C143.716 10.422 155.642 6.69415 166.908 6.78166C171.554 6.81614 211.415 1.00195 211.415 1.00195C211.415 1.00195 204.479 7.35804 200.421 11.5377C228.617 13.4312 248.784 14.2923 257.656 14.2923C273.262 14.2923 294.072 20.0764 294.072 20.0764L281.354 24.1199C291.759 24.1199 301.585 32.7895 305.63 36.2601C309.581 39.6459 319.503 46.0833 319.503 46.0833L305.63 48.9741L321.816 63.4225C321.816 63.4225 302.163 63.9997 293.493 63.9997C284.821 63.9997 225.865 58.22 216.618 57.0611C207.368 55.9065 170.377 56.4847 157.082 58.22C143.788 59.9518 125.291 62.8452 106.216 70.3593C99.0398 73.1838 82.5166 85.9667 77.3151 95.7908C72.1135 105.618 83.6544 131.346 84.252 140.3C85.4083 157.643 75.5815 174.405 68.0665 181.919C54.7726 195.21 56.5071 216.019 56.5071 224.689C56.5071 233.363 41.4779 226.428 36.8536 217.754C35.638 215.477 29.3394 200.989 29.3394 200.989" stroke="black" stroke-miterlimit="10" stroke-linecap="round" stroke-linejoin="round"/>
<path d="M101.013 132.209C97.4521 133.033 88.8745 136.256 89.4526 128.165C90.0308 120.073 90.0308 118.915 103.326 112.558C116.62 106.201 123.555 102.731 135.116 102.153C146.676 101.576 173.843 106.201 185.98 109.09C198.119 111.981 222.396 112.558 232.8 112.558C243.205 112.558 265.168 107.933 276.729 105.62C288.289 103.307 310.831 102.153 321.237 105.043C334.624 108.764 339.264 113.679 339.733 116.025C340.889 121.804 334.531 123.541 322.393 123.541C310.256 123.541 294.648 121.804 283.087 122.963C271.528 124.118 250.719 129.898 236.846 129.319C222.975 128.743 203.899 124.117 192.338 121.804C180.779 119.496 145.52 120.073 136.85 121.804C128.18 123.54 108.527 130.477 101.013 132.209Z" stroke="black" stroke-miterlimit="10" stroke-linecap="round" stroke-linejoin="round"/>
<path d="M114.885 278.445C114.885 278.445 96.3878 274.4 90.6081 269.198C84.8284 263.995 77.8932 259.951 71.5336 248.965C67.9516 242.778 62.8632 231.627 62.8632 220.645" stroke="black" stroke-miterlimit="10" stroke-linecap="round" stroke-linejoin="round"/>
<path d="M101.013 95.7959C101.013 95.7959 117.519 86.5411 123.555 84.2329C143.208 76.7179 153.034 76.1406 164.017 76.1406C174.998 76.1406 191.183 80.7658 202.164 83.0793C213.146 85.391 229.332 84.8146 242.048 81.9203C254.763 79.0305 272.103 76.1406 283.664 77.8768C295.225 79.6077 305.051 85.391 307.364 87.1228" stroke="black" stroke-miterlimit="10" stroke-linecap="round" stroke-linejoin="round"/>
<path d="M339.084 237.798C339.084 237.798 337.905 256.657 334.369 263.14C330.833 269.622 320.225 280.232 307.848 282.588" stroke="black" stroke-miterlimit="10" stroke-linecap="round" stroke-linejoin="round"/>
<path d="M398.02 358.024C398.02 358.024 391.536 349.772 398.609 348.594C405.681 347.415 405.681 336.218 402.145 333.271C398.609 330.325 387.412 329.734 387.412 332.681C387.412 335.629 390.358 342.701 390.358 342.701C390.358 342.701 385.644 344.469 385.644 348.005C385.644 351.541 390.948 362.149 398.02 358.024Z" fill="#FAFCB5"/>
<path d="M379.75 332.092C371.264 327.464 374.447 322.073 380.928 321.484C387.412 320.895 393.305 329.145 390.358 332.092C387.412 335.04 386.232 335.628 379.75 332.092Z" fill="#FAFCB5"/>
<path d="M388 317.358C385.667 314.636 390.071 311.683 393.305 310.875C398.02 309.697 402.734 315.59 399.198 319.126C395.663 322.662 391.536 321.483 388 317.358Z" fill="#FAFCB5"/>
<path d="M376.213 312.644C376.925 307.659 377.981 302.036 381.517 302.036C385.053 302.036 392.125 305.572 392.125 305.572C392.125 305.572 392.126 311.465 389.768 313.823C387.411 316.18 375.624 316.77 376.213 312.644Z" fill="#FAFCB5"/>
<path d="M380.339 307.929C380.339 307.929 382.107 303.214 376.803 303.214C371.498 303.214 367.962 306.75 367.962 306.75C367.962 306.75 372.088 313.823 376.213 312.644C380.339 311.465 380.339 307.929 380.339 307.929Z" fill="#FAFCB5"/>
<path d="M363.837 297.91C364.923 295.737 373.267 294.963 370.909 300.267C370.373 301.471 360.889 303.803 363.837 297.91Z" fill="#FAFCB5"/>
<path d="M367.916 392.974C366.677 392.977 354.032 384.725 343.752 377.25C338.429 373.38 332.407 368.914 326.214 364.275C320.26 359.814 305.272 351.495 299.474 347.088C282.621 334.279 278.957 333.379 278.957 333.379C278.957 333.379 276.201 332.332 277.649 328.848C279.097 325.365 285.065 324.256 285.065 324.256C285.065 324.256 287.897 323.439 291.708 326.021C295.52 328.601 312.639 335.317 316.69 336.601C320.741 337.886 329.572 340.858 329.572 340.858L342.291 344.55L353.802 350.429L364.42 355.34L373.415 358.879L381.278 362.744L391.09 369.115C391.09 369.115 397.679 381.321 398.986 385.852C400.293 390.381 402.166 394.748 399.989 397.83C397.81 400.912 398.465 403.178 390.45 403.036C382.435 402.895 374.812 397.733 374.812 397.733L367.916 392.974Z" fill="#F9FFFF"/>
<path d="M390.461 369.334C388.016 369.234 384.527 369.895 382.345 371.1C380.162 372.304 378.587 374.024 378.587 374.024C378.587 374.024 371.907 379.172 371.06 380.221C370.212 381.271 369.091 382.17 369.461 384.248C369.83 386.327 369.836 388.74 370.449 390.863C371.061 392.986 372.054 395.23 372.938 396.701C373.822 398.17 376.753 399.165 377.575 399.619C378.396 400.072 382.787 402.14 383.896 402.396C385.004 402.65 388.604 403.567 390.531 403.472C392.459 403.375 395.266 403.14 396.48 402.56C397.693 401.981 398.507 400.021 398.507 400.021C398.507 400.021 399.992 398.787 400.487 396.919C400.984 395.051 400.857 393.017 400.596 391.712C400.334 390.407 398.852 386.464 398.852 386.464L395.354 377.928L392.316 371.789L390.461 369.334Z" fill="#3A3A3D"/>
<path d="M391.911 396.286C391.528 397.035 389.426 398.039 389.243 397.402C389.059 396.765 389.403 394.366 390.084 393.939C390.767 393.512 393.09 393.992 391.911 396.286Z" fill="#DA4F4D"/>
<path d="M379.71 397.048C378.82 397.079 378.884 394.985 379.827 395.059C380.767 395.132 381.076 396.998 379.71 397.048Z" fill="#DA4F4D"/>
<path d="M375.638 383.73C375.709 382.691 379.354 382.659 378.252 384.817C377.149 386.975 375.55 385.021 375.638 383.73Z" fill="#DA4F4D"/>
<path d="M382.833 377.974C383.595 376.345 385.098 379.046 384.751 379.836C384.404 380.626 382.336 379.038 382.833 377.974Z" fill="#DA4F4D"/>
<path d="M393.146 386.615C392.989 387.463 390.399 386.258 390.896 385.195C391.395 384.13 393.505 384.671 393.146 386.615Z" fill="#DA4F4D"/>
<path d="M367.715 393.338C366.476 393.342 353.831 385.091 343.55 377.615C338.228 373.745 332.206 369.279 326.012 364.64C320.058 360.179 305.071 351.86 299.272 347.453C282.419 334.643 278.755 333.743 278.755 333.743C278.755 333.743 276 332.697 277.448 329.213C278.897 325.729 284.863 324.621 284.863 324.621C284.863 324.621 287.695 323.803 291.506 326.385C295.318 328.965 312.437 335.681 316.489 336.965C320.539 338.25 329.371 341.223 329.371 341.223L342.09 344.914L353.601 350.793L364.219 355.704L373.213 359.244L381.077 363.109L390.889 369.479C390.889 369.479 397.477 381.686 398.784 386.216C400.091 390.746 401.964 395.113 399.786 398.194C397.609 401.276 398.263 403.542 390.249 403.4C382.233 403.259 374.61 398.098 374.61 398.098L367.715 393.338Z" stroke="black" stroke-miterlimit="10" stroke-linecap="round" stroke-linejoin="round"/>
<path d="M429.468 356.507C429.468 356.507 437.156 355.516 436.677 358.108" stroke="black" stroke-miterlimit="10" stroke-linecap="round" stroke-linejoin="round"/>
<path d="M433.433 387.259L437.071 384.984" stroke="black" stroke-miterlimit="10" stroke-linecap="round" stroke-linejoin="round"/>
<path d="M452.739 371.263C452.739 371.263 455.734 371.013 456.387 373.277" stroke="black" stroke-miterlimit="10" stroke-linecap="round" stroke-linejoin="round"/>
<path d="M416.564 375.565L419.799 374.019" stroke="black" stroke-miterlimit="10" stroke-linecap="round" stroke-linejoin="round"/>
<path d="M386.826 395.799L389.494 394.416" stroke="black" stroke-miterlimit="10" stroke-linecap="round" stroke-linejoin="round"/>
<path d="M383.155 385.203L387.044 385.923" stroke="black" stroke-miterlimit="10" stroke-linecap="round" stroke-linejoin="round"/>
<path d="M375.402 392.348C375.402 392.348 378.473 390.234 380.662 391.443" stroke="black" stroke-miterlimit="10" stroke-linecap="round" stroke-linejoin="round"/>
<path d="M391.802 379.029L397.312 381.12" stroke="black" stroke-miterlimit="10" stroke-linecap="round" stroke-linejoin="round"/>
<path d="M396.844 388.002L401.134 387.99" stroke="black" stroke-miterlimit="10" stroke-linecap="round" stroke-linejoin="round"/>
<path d="M390.887 369.479C384.734 369.414 380.934 371.123 379.159 373.475C377.383 375.827 371.078 379.487 369.869 381.675C368.661 383.864 370.393 396.244 374.607 398.096" stroke="black" stroke-miterlimit="10" stroke-linecap="round" stroke-linejoin="round"/>
<path d="M286.54 327.51C286.54 327.51 284.29 325.552 281.76 325.823" stroke="black" stroke-miterlimit="10" stroke-linecap="round" stroke-linejoin="round"/>
<path d="M281.856 331.468C281.856 331.468 279.04 330.748 278.448 328.159" stroke="black" stroke-miterlimit="10" stroke-linecap="round" stroke-linejoin="round"/>
<path d="M371.618 372.585C371.618 372.585 374.326 374.793 375.453 376.309" stroke="black" stroke-miterlimit="10" stroke-linecap="round" stroke-linejoin="round"/>
<path d="M367.739 387.045L369.502 388.377" stroke="black" stroke-miterlimit="10" stroke-linecap="round" stroke-linejoin="round"/>
<path d="M352.375 374.456C352.375 374.456 348.61 374.161 346.904 371.434" stroke="black" stroke-miterlimit="10" stroke-linecap="round" stroke-linejoin="round"/>
<path d="M340.516 366.836C340.516 366.836 343.625 371.23 347.691 370.977" stroke="black" stroke-miterlimit="10" stroke-linecap="round" stroke-linejoin="round"/>
</svg>
