<svg width="54" height="58" viewBox="0 0 54 58" fill="none" xmlns="http://www.w3.org/2000/svg">
<path d="M26.95 52.9601C41.2818 52.9601 52.9 41.3419 52.9 27.0101C52.9 12.6783 41.2818 1.06006 26.95 1.06006C12.6182 1.06006 1 12.6783 1 27.0101C1 41.3419 12.6182 52.9601 26.95 52.9601Z" fill="#E48F4C"/>
<path d="M28.56 1.06982L29.32 37.1798C31.02 37.9398 36.14 37.7898 37.11 37.7998C38.08 37.8098 39.94 37.3898 39.94 37.0198C39.94 36.6498 40.15 26.0198 40.17 24.4798C40.19 22.9398 40.46 7.40982 40.5 4.88982C38.5466 3.57719 36.3962 2.58471 34.13 1.94982C32.3125 1.44736 30.4439 1.15215 28.56 1.06982Z" fill="#682527"/>
<path d="M29.86 42.5002C30.39 41.5702 31.33 43.5002 33.26 43.7302C36.52 44.0702 38.18 42.4602 39.26 42.1702C40.34 41.8802 45.26 46.7002 47.63 49.4002C50 52.1002 52.34 55.0602 51.44 55.8002C50.54 56.5402 42.65 56.5102 39.69 56.1802C36.73 55.8502 31.09 54.7002 29.47 53.7802C27.85 52.8602 29.1 43.7802 29.86 42.5002Z" fill="#3A3A3D"/>
<path d="M30.65 37.6401C30.65 37.6401 32.23 37.8101 33.95 37.8301C35.67 37.8501 38.33 37.7401 38.33 37.7401L38.19 42.6401C36.8962 43.3106 35.4749 43.6991 34.02 43.7801C33.3576 43.7754 32.7043 43.6252 32.1064 43.3401C31.5085 43.055 30.9806 42.6419 30.56 42.1301L30.65 37.6401Z" fill="white"/>
<path d="M30.74 37.79L30.57 42.18" stroke="black" stroke-linecap="round" stroke-linejoin="round"/>
<path d="M38.31 37.6602L38.25 42.3402" stroke="black" stroke-linecap="round" stroke-linejoin="round"/>
<path d="M29.86 42.5002C30.39 41.5702 31.33 43.5002 33.26 43.7302C36.52 44.0702 38.18 42.4602 39.26 42.1702C40.34 41.8802 45.26 46.7002 47.63 49.4002C50 52.1002 52.34 55.0602 51.44 55.8002C50.54 56.5402 43.69 56.5502 39.69 56.1802C36.69 55.9002 31.09 54.7002 29.47 53.7802C27.85 52.8602 29.1 43.7802 29.86 42.5002Z" stroke="black" stroke-linecap="round" stroke-linejoin="round"/>
<path d="M28.56 1C28.87 18.29 29.24 36 29.22 37.1C29.22 37.99 39.89 38.35 39.91 37.01C39.91 36.32 40.27 21.13 40.55 4.88" stroke="black" stroke-linecap="round" stroke-linejoin="round"/>
<path d="M24.4 1.18994C24.4 2.59994 24.66 19.4199 24.7 21.4999C24.74 23.5799 25 36.4999 25.01 37.1599C25.02 37.8199 20.65 38.4899 20.01 38.3499C19.37 38.2099 14.51 38.1399 13.68 37.2599L12.56 5.43994C14.4841 4.12584 16.5632 3.0544 18.75 2.24994C20.5892 1.69239 22.4837 1.33696 24.4 1.18994Z" fill="#682527"/>
<path d="M23.29 41.7498C23.66 41.1098 31.22 47.5698 33.5 50.7498C34.87 52.6598 36.09 55.9098 35.5 56.5098C34.91 57.1098 26.15 56.7998 20.79 55.5098C17.22 54.6798 14.38 53.6798 13.92 52.6498C13.46 51.6198 13.79 44.3398 14.52 43.4398C15.5315 43.8541 16.6078 44.0877 17.7 44.1298C20.51 44.3598 22.48 43.1598 23.29 41.7498Z" fill="#3A3A3D"/>
<path d="M14.95 43.7398L15.08 37.8398C16.4801 38.0857 17.8985 38.2129 19.32 38.2198C21.32 38.2198 23.16 38.0498 23.16 38.0498L23.22 41.8398C22.7338 42.5628 22.0836 43.1607 21.3224 43.5848C20.5613 44.0088 19.7107 44.2469 18.84 44.2798C17.5201 44.3672 16.1962 44.1835 14.95 43.7398Z" fill="white"/>
<path d="M15.12 37.8701L15.04 43.3801" stroke="black" stroke-linecap="round" stroke-linejoin="round"/>
<path d="M23.14 37.9702L23.18 41.7602" stroke="black" stroke-linecap="round" stroke-linejoin="round"/>
<path d="M23.29 41.7498C23.66 41.1098 31.22 47.5698 33.5 50.7498C34.87 52.6598 36.09 55.9098 35.5 56.5098C34.91 57.1098 26.15 56.7998 20.79 55.5098C17.22 54.6798 14.38 53.6798 13.92 52.6498C13.46 51.6198 13.79 44.3398 14.52 43.4398C15.5315 43.8541 16.6078 44.0877 17.7 44.1298C20.51 44.3598 22.48 43.1598 23.29 41.7498Z" stroke="black" stroke-linecap="round" stroke-linejoin="round"/>
<path d="M24.4 1.18994C24.7 18.0099 25.03 36.1899 24.91 37.1899C24.71 38.7499 13.79 38.4699 13.77 37.1399C13.77 36.5999 13.25 22.9399 12.71 5.52994" stroke="black" stroke-linecap="round" stroke-linejoin="round"/>
<path d="M44.51 46.1202C48.5437 42.4379 51.3127 37.5768 52.4228 32.2291C53.5328 26.8815 52.9273 21.3199 50.6925 16.3364C48.4576 11.3529 44.7073 7.20161 39.9757 4.47366C35.2441 1.74571 29.7724 0.580196 24.3399 1.1431C18.9073 1.70601 13.7908 3.96863 9.71906 7.60876C5.64731 11.2489 2.82787 16.0809 1.66226 21.4168C0.496653 26.7526 1.0443 32.3202 3.22722 37.3266C5.41014 42.3331 9.11703 46.5231 13.82 49.3002" stroke="black" stroke-linecap="round" stroke-linejoin="round"/>
</svg>
