<svg width="292" height="88" viewBox="0 0 292 88" fill="none" xmlns="http://www.w3.org/2000/svg">
<path fill-rule="evenodd" clip-rule="evenodd" d="M254.305 3.83258C250.551 -0.0334008 244 2.62378 244 8.01206V14.2186H5.99963C2.68593 14.2186 -0.000366211 16.9049 -0.000366211 20.2186V69.2186C-0.000366211 72.5323 2.68593 75.2186 5.99964 75.2186H244V81.4251C244 86.8133 250.551 89.4705 254.305 85.6045L289.942 48.898C292.202 46.5701 292.202 42.867 289.942 40.5391L254.305 3.83258Z" fill="#125100"/>
<mask id="path-2-inside-1" fill="white">
<path fill-rule="evenodd" clip-rule="evenodd" d="M254.305 1.83257C250.551 -2.0334 244 0.623772 244 6.01206V12.2186H5.99963C2.68593 12.2186 -0.000366211 14.9048 -0.000366211 18.2186V67.2186C-0.000366211 70.5323 2.68593 73.2186 5.99964 73.2186H244V79.4251C244 84.8133 250.551 87.4705 254.305 83.6045L289.942 46.898C292.202 44.5701 292.202 40.867 289.942 38.5391L254.305 1.83257Z"/>
</mask>
<path fill-rule="evenodd" clip-rule="evenodd" d="M254.305 1.83257C250.551 -2.0334 244 0.623772 244 6.01206V12.2186H5.99963C2.68593 12.2186 -0.000366211 14.9048 -0.000366211 18.2186V67.2186C-0.000366211 70.5323 2.68593 73.2186 5.99964 73.2186H244V79.4251C244 84.8133 250.551 87.4705 254.305 83.6045L289.942 46.898C292.202 44.5701 292.202 40.867 289.942 38.5391L254.305 1.83257Z" fill="#48AB53"/>
<path d="M254.305 1.83257L253.587 2.52915V2.52915L254.305 1.83257ZM244 12.2186V13.2186H245V12.2186H244ZM244 73.2186H245V72.2186H244V73.2186ZM254.305 83.6045L253.587 82.9079L254.305 83.6045ZM289.942 46.898L290.659 47.5946V47.5946L289.942 46.898ZM289.942 38.5391L289.224 39.2356V39.2356L289.942 38.5391ZM245 6.01206C245 1.52182 250.459 -0.692494 253.587 2.52915L255.022 1.13599C250.643 -3.37432 243 -0.274275 243 6.01206H245ZM245 12.2186V6.01206H243V12.2186H245ZM5.99963 13.2186H244V11.2186H5.99963V13.2186ZM0.999634 18.2186C0.999634 15.4571 3.23821 13.2186 5.99963 13.2186V11.2186C2.13364 11.2186 -1.00037 14.3526 -1.00037 18.2186H0.999634ZM0.999634 67.2186V18.2186H-1.00037V67.2186H0.999634ZM5.99964 72.2186C3.23821 72.2186 0.999634 69.98 0.999634 67.2186H-1.00037C-1.00037 71.0845 2.13365 74.2186 5.99964 74.2186V72.2186ZM244 72.2186H5.99964V74.2186H244V72.2186ZM245 79.4251V73.2186H243V79.4251H245ZM253.587 82.9079C250.459 86.1296 245 83.9153 245 79.4251H243C243 85.7114 250.643 88.8114 255.022 84.3011L253.587 82.9079ZM289.224 46.2015L253.587 82.9079L255.022 84.3011L290.659 47.5946L289.224 46.2015ZM289.224 39.2356C291.108 41.1756 291.108 44.2615 289.224 46.2015L290.659 47.5946C293.296 44.8786 293.296 40.5585 290.659 37.8425L289.224 39.2356ZM253.587 2.52915L289.224 39.2356L290.659 37.8425L255.022 1.13599L253.587 2.52915Z" fill="#125100" mask="url(#path-2-inside-1)"/>
<path d="M66.3107 35.81C66.6187 35.67 66.908 35.4833 67.1787 35.25C67.4587 35.0073 67.7107 34.7553 67.9347 34.494C68.168 34.2233 68.3734 33.9527 68.5507 33.682C68.728 33.402 68.868 33.1547 68.9707 32.94C68.6534 32.8653 68.3267 32.744 67.9907 32.576C67.664 32.3987 67.3654 32.1793 67.0947 31.918C66.8334 31.6567 66.614 31.358 66.4367 31.022C66.2687 30.686 66.1847 30.3173 66.1847 29.916C66.1847 29.244 66.3294 28.6933 66.6187 28.264C66.908 27.8347 67.286 27.494 67.7527 27.242C68.2194 26.99 68.7467 26.8173 69.3347 26.724C69.9227 26.6307 70.5107 26.584 71.0987 26.584C71.5094 26.584 71.9154 26.6027 72.3167 26.64C72.718 26.6773 73.0914 26.7193 73.4367 26.766C73.6794 26.878 73.8894 27.032 74.0667 27.228C74.2534 27.424 74.356 27.6807 74.3747 27.998C74.3934 28.2967 74.4074 28.768 74.4167 29.412C74.426 30.056 74.4307 30.7747 74.4307 31.568C74.4307 32.0347 74.426 32.5153 74.4167 33.01C74.4167 33.4953 74.412 33.9713 74.4027 34.438C74.3934 34.9047 74.3794 35.3573 74.3607 35.796C74.342 36.2253 74.3187 36.6173 74.2907 36.972C74.0854 37.1773 73.824 37.28 73.5067 37.28C73.3574 37.28 73.18 37.2473 72.9747 37.182C72.7694 37.126 72.5547 37.0233 72.3307 36.874L72.4147 32.87C72.2094 32.9167 71.9947 32.954 71.7707 32.982C71.5467 33.01 71.3274 33.0333 71.1127 33.052C70.954 33.4627 70.7394 33.9107 70.4687 34.396C70.198 34.872 69.89 35.3247 69.5447 35.754C69.2087 36.1833 68.8494 36.5473 68.4667 36.846C68.084 37.1447 67.706 37.308 67.3327 37.336C67.23 37.3267 67.1087 37.2847 66.9687 37.21C66.8287 37.1353 66.698 37.0327 66.5767 36.902C66.4554 36.7713 66.362 36.6173 66.2967 36.44C66.2407 36.2533 66.2454 36.0433 66.3107 35.81ZM68.2007 29.916C68.2007 30.168 68.266 30.3827 68.3967 30.56C68.5274 30.728 68.6954 30.868 68.9007 30.98C69.1154 31.092 69.358 31.1713 69.6287 31.218C69.8994 31.2647 70.1747 31.288 70.4547 31.288C70.8654 31.288 71.2574 31.2647 71.6307 31.218C72.0134 31.1713 72.2794 31.1293 72.4287 31.092L72.3447 28.544C72.102 28.488 71.8547 28.446 71.6027 28.418C71.3507 28.3807 71.094 28.362 70.8327 28.362C70.506 28.362 70.184 28.39 69.8667 28.446C69.5587 28.502 69.2787 28.5907 69.0267 28.712C68.784 28.8333 68.5834 28.9967 68.4247 29.202C68.2754 29.398 68.2007 29.636 68.2007 29.916ZM84.5208 37.238C83.8581 37.238 83.2421 37.1167 82.6728 36.874C82.1128 36.622 81.6228 36.272 81.2028 35.824C80.7828 35.3667 80.4514 34.8207 80.2088 34.186C79.9754 33.542 79.8588 32.8233 79.8588 32.03C79.8588 31.1713 80.0034 30.4107 80.2928 29.748C80.5914 29.076 80.9834 28.5113 81.4688 28.054C81.9541 27.5873 82.5141 27.2327 83.1488 26.99C83.7834 26.7473 84.4368 26.626 85.1088 26.626C85.8368 26.626 86.5041 26.752 87.1108 27.004C87.7268 27.2467 88.2541 27.592 88.6928 28.04C89.1408 28.488 89.4861 29.0293 89.7288 29.664C89.9714 30.2893 90.0928 30.9893 90.0928 31.764C90.0928 32.7067 89.9248 33.5233 89.5888 34.214C89.2528 34.9047 88.8188 35.474 88.2868 35.922C87.7548 36.37 87.1574 36.7013 86.4948 36.916C85.8321 37.1307 85.1741 37.238 84.5208 37.238ZM84.6188 35.152C84.9268 35.152 85.2721 35.1053 85.6548 35.012C86.0374 34.9187 86.3968 34.746 86.7328 34.494C87.0688 34.242 87.3534 33.8967 87.5868 33.458C87.8201 33.0193 87.9368 32.4547 87.9368 31.764C87.9368 31.2507 87.8574 30.798 87.6988 30.406C87.5494 30.014 87.3441 29.692 87.0828 29.44C86.8308 29.1787 86.5368 28.9827 86.2008 28.852C85.8741 28.7213 85.5288 28.656 85.1648 28.656C84.7541 28.656 84.3574 28.726 83.9748 28.866C83.5921 28.9967 83.2514 29.202 82.9528 29.482C82.6541 29.7527 82.4114 30.1027 82.2248 30.532C82.0474 30.9613 81.9588 31.47 81.9588 32.058C81.9588 32.5713 82.0241 33.024 82.1548 33.416C82.2854 33.7987 82.4674 34.1207 82.7008 34.382C82.9434 34.634 83.2281 34.8253 83.5548 34.956C83.8814 35.0867 84.2361 35.152 84.6188 35.152ZM92.0077 36.65C91.9797 36.5287 91.961 36.2673 91.9517 35.866C91.9424 35.4647 91.933 34.9933 91.9237 34.452C91.9144 33.9013 91.905 33.3133 91.8957 32.688C91.8957 32.0627 91.8957 31.47 91.8957 30.91C91.8957 30.3407 91.891 29.8367 91.8817 29.398C91.8817 28.95 91.877 28.6373 91.8677 28.46C91.7837 28.3293 91.723 28.2033 91.6857 28.082C91.6577 27.9513 91.6344 27.7927 91.6157 27.606C91.681 27.4567 91.7837 27.3213 91.9237 27.2C92.0637 27.0693 92.2084 26.9573 92.3577 26.864C92.5164 26.7707 92.6657 26.7007 92.8057 26.654C92.955 26.6073 93.0624 26.584 93.1277 26.584C93.2584 26.612 93.3517 26.64 93.4077 26.668C93.4637 26.6867 93.5197 26.7147 93.5757 26.752C93.977 26.6867 94.6724 26.6027 95.6617 26.5C96.651 26.388 97.897 26.3227 99.3997 26.304C99.5677 26.3507 99.7217 26.4253 99.8617 26.528C100.002 26.6307 100.132 26.7753 100.254 26.962C100.291 27.1207 100.319 27.4053 100.338 27.816C100.356 28.2267 100.37 28.7167 100.38 29.286C100.389 29.846 100.394 30.4573 100.394 31.12C100.394 31.7733 100.394 32.4173 100.394 33.052C100.394 33.6867 100.389 34.2887 100.38 34.858C100.38 35.418 100.384 35.8847 100.394 36.258C100.319 36.5007 100.174 36.6873 99.9597 36.818C99.7544 36.9393 99.5304 37 99.2877 37C99.0824 37 98.8817 36.9533 98.6857 36.86C98.4897 36.7667 98.3217 36.6267 98.1817 36.44C98.1817 36.2907 98.1817 36.02 98.1817 35.628C98.191 35.236 98.1957 34.7833 98.1957 34.27C98.205 33.7473 98.2144 33.192 98.2237 32.604C98.233 32.0067 98.233 31.4327 98.2237 30.882C98.2237 30.3313 98.219 29.832 98.2097 29.384C98.2004 28.936 98.1864 28.5953 98.1677 28.362C97.8597 28.3713 97.491 28.3853 97.0617 28.404C96.6417 28.4227 96.2264 28.446 95.8157 28.474C95.4144 28.502 95.0504 28.5347 94.7237 28.572C94.397 28.6 94.1777 28.6327 94.0657 28.67C94.0657 28.8567 94.0657 29.1553 94.0657 29.566C94.075 29.9673 94.0797 30.4247 94.0797 30.938C94.089 31.4513 94.0984 31.9927 94.1077 32.562C94.117 33.1313 94.1264 33.6773 94.1357 34.2C94.145 34.7133 94.1544 35.18 94.1637 35.6C94.173 36.02 94.1777 36.3373 94.1777 36.552C94.0377 36.776 93.8557 36.944 93.6317 37.056C93.4077 37.168 93.1884 37.224 92.9737 37.224C92.7777 37.224 92.5957 37.182 92.4277 37.098C92.269 37.014 92.129 36.8647 92.0077 36.65ZM101.676 36.706C101.657 36.622 101.695 36.4307 101.788 36.132C101.881 35.824 102.007 35.4507 102.166 35.012C102.325 34.564 102.511 34.0693 102.726 33.528C102.95 32.9773 103.183 32.422 103.426 31.862C103.669 31.2927 103.911 30.742 104.154 30.21C104.397 29.6687 104.625 29.1787 104.84 28.74C104.84 28.7307 104.835 28.726 104.826 28.726C104.817 28.7167 104.812 28.7073 104.812 28.698C104.765 28.6047 104.714 28.5113 104.658 28.418C104.611 28.3247 104.551 28.1847 104.476 27.998C104.635 27.634 104.821 27.3493 105.036 27.144C105.251 26.9293 105.545 26.808 105.918 26.78C106.123 26.836 106.347 26.9993 106.59 27.27C106.833 27.5407 107.075 27.8767 107.318 28.278C107.57 28.6793 107.822 29.132 108.074 29.636C108.326 30.14 108.569 30.658 108.802 31.19C109.045 31.722 109.273 32.254 109.488 32.786C109.703 33.3087 109.894 33.794 110.062 34.242C110.239 34.69 110.384 35.082 110.496 35.418C110.617 35.7447 110.706 35.9827 110.762 36.132C110.706 36.2627 110.608 36.3933 110.468 36.524C110.337 36.6453 110.183 36.7573 110.006 36.86C109.838 36.9533 109.661 37.0233 109.474 37.07C109.297 37.126 109.138 37.14 108.998 37.112C108.821 36.7667 108.662 36.4307 108.522 36.104C108.391 35.7773 108.27 35.488 108.158 35.236V35.18C107.551 35.2547 106.898 35.334 106.198 35.418C105.507 35.4927 104.849 35.5673 104.224 35.642C104.205 35.6607 104.187 35.6887 104.168 35.726C104.159 35.754 104.135 35.81 104.098 35.894C104.07 35.978 104.023 36.0993 103.958 36.258C103.893 36.4167 103.804 36.636 103.692 36.916C103.627 37.0467 103.519 37.1447 103.37 37.21C103.221 37.2847 103.053 37.322 102.866 37.322C102.689 37.322 102.497 37.2847 102.292 37.21C102.096 37.1447 101.923 37.042 101.774 36.902L101.676 36.706ZM107.43 33.248C107.355 33.0427 107.267 32.8187 107.164 32.576C107.071 32.3333 106.968 32.0907 106.856 31.848C106.744 31.6053 106.632 31.372 106.52 31.148C106.417 30.9147 106.319 30.7047 106.226 30.518C106.198 30.5833 106.165 30.6673 106.128 30.77C106.091 30.8633 106.025 31.0173 105.932 31.232C105.839 31.4467 105.713 31.7453 105.554 32.128C105.395 32.5013 105.185 33.0007 104.924 33.626L107.43 33.248ZM111.636 35.67C111.599 35.194 111.664 34.802 111.832 34.494C112.009 34.186 112.313 33.9387 112.742 33.752C112.947 33.9387 113.153 34.1207 113.358 34.298C113.563 34.466 113.773 34.62 113.988 34.76C114.212 34.8907 114.445 34.998 114.688 35.082C114.94 35.1567 115.206 35.194 115.486 35.194C115.719 35.194 115.971 35.1753 116.242 35.138C116.522 35.0913 116.779 35.012 117.012 34.9C117.245 34.7787 117.441 34.6153 117.6 34.41C117.759 34.1953 117.838 33.92 117.838 33.584C117.838 33.388 117.782 33.22 117.67 33.08C117.567 32.9307 117.437 32.814 117.278 32.73C117.129 32.6367 116.965 32.5713 116.788 32.534C116.62 32.4873 116.475 32.464 116.354 32.464C116.083 32.464 115.817 32.506 115.556 32.59C115.304 32.674 115.001 32.7813 114.646 32.912C114.385 32.856 114.142 32.7347 113.918 32.548C113.703 32.3613 113.596 32.1187 113.596 31.82C113.596 31.708 113.615 31.582 113.652 31.442C113.699 31.2927 113.787 31.1247 113.918 30.938C114.375 30.9007 114.8 30.8213 115.192 30.7C115.593 30.5787 115.939 30.4247 116.228 30.238C116.527 30.0513 116.76 29.8367 116.928 29.594C117.096 29.342 117.18 29.076 117.18 28.796C117.18 28.5347 117.073 28.3527 116.858 28.25C116.653 28.138 116.387 28.082 116.06 28.082C115.743 28.082 115.444 28.1427 115.164 28.264C114.884 28.3853 114.627 28.5393 114.394 28.726C114.161 28.9127 113.946 29.1227 113.75 29.356C113.563 29.58 113.395 29.7947 113.246 30C113.106 30 112.952 29.9627 112.784 29.888C112.616 29.804 112.457 29.7013 112.308 29.58C112.168 29.4493 112.047 29.3093 111.944 29.16C111.851 29.0013 111.799 28.852 111.79 28.712C112.051 28.264 112.35 27.886 112.686 27.578C113.031 27.2607 113.391 27.0087 113.764 26.822C114.147 26.626 114.534 26.486 114.926 26.402C115.318 26.3087 115.705 26.262 116.088 26.262C116.489 26.262 116.877 26.3133 117.25 26.416C117.633 26.5093 117.969 26.6587 118.258 26.864C118.557 27.0693 118.795 27.3307 118.972 27.648C119.149 27.9653 119.238 28.3433 119.238 28.782C119.238 29.258 119.135 29.664 118.93 30C118.725 30.336 118.463 30.63 118.146 30.882C118.398 30.9847 118.636 31.12 118.86 31.288C119.093 31.456 119.294 31.6567 119.462 31.89C119.63 32.114 119.761 32.3707 119.854 32.66C119.957 32.9493 120.008 33.262 120.008 33.598C120.008 34.1953 119.891 34.7227 119.658 35.18C119.425 35.6373 119.103 36.02 118.692 36.328C118.291 36.636 117.815 36.8693 117.264 37.028C116.713 37.1867 116.116 37.266 115.472 37.266C114.8 37.266 114.133 37.14 113.47 36.888C112.807 36.636 112.196 36.23 111.636 35.67ZM120.904 35.194C121.044 35.1193 121.216 35.0727 121.422 35.054C121.627 35.026 121.842 35.0027 122.066 34.984C122.224 34.7787 122.364 34.5173 122.486 34.2C122.607 33.8827 122.714 33.5373 122.808 33.164C122.91 32.7813 122.994 32.3847 123.06 31.974C123.125 31.554 123.181 31.148 123.228 30.756C123.274 30.3547 123.312 29.9813 123.34 29.636C123.368 29.2907 123.391 28.992 123.41 28.74C123.344 28.7493 123.242 28.7587 123.102 28.768C122.962 28.7773 122.873 28.782 122.836 28.782C122.621 28.6233 122.462 28.446 122.36 28.25C122.266 28.0447 122.22 27.844 122.22 27.648C122.22 27.508 122.243 27.3633 122.29 27.214C122.346 27.0647 122.434 26.9247 122.556 26.794C122.901 26.7193 123.34 26.654 123.872 26.598C124.413 26.5327 124.973 26.4767 125.552 26.43C126.14 26.3833 126.709 26.346 127.26 26.318C127.82 26.29 128.291 26.2667 128.674 26.248C128.851 26.3133 129 26.402 129.122 26.514C129.252 26.6167 129.355 26.7613 129.43 26.948C129.467 27.2747 129.495 27.6713 129.514 28.138C129.532 28.5953 129.542 29.1367 129.542 29.762C129.551 30.3873 129.556 31.0967 129.556 31.89C129.556 32.6833 129.551 33.57 129.542 34.55C129.803 34.5033 130.074 34.508 130.354 34.564C130.634 34.6107 130.918 34.69 131.208 34.802C131.208 34.9887 131.203 35.222 131.194 35.502C131.184 35.782 131.17 36.076 131.152 36.384C131.142 36.692 131.133 36.9953 131.124 37.294C131.124 37.602 131.128 37.8727 131.138 38.106C131.026 38.2927 130.909 38.4327 130.788 38.526C130.666 38.6193 130.531 38.6847 130.382 38.722C130.242 38.7687 130.088 38.792 129.92 38.792C129.752 38.8013 129.574 38.806 129.388 38.806C129.285 38.694 129.201 38.5447 129.136 38.358C129.08 38.1713 129.038 37.9753 129.01 37.77C128.982 37.574 128.968 37.378 128.968 37.182C128.968 36.986 128.977 36.818 128.996 36.678C128.669 36.6967 128.314 36.7153 127.932 36.734C127.558 36.7527 127.129 36.776 126.644 36.804C126.168 36.832 125.626 36.8647 125.02 36.902C124.413 36.93 123.718 36.9627 122.934 37C122.952 37.1867 122.971 37.4013 122.99 37.644C123.018 37.896 123.036 38.1153 123.046 38.302C122.99 38.4327 122.882 38.5447 122.724 38.638C122.565 38.7313 122.388 38.8107 122.192 38.876C122.005 38.9507 121.809 39.002 121.604 39.03C121.408 39.0673 121.235 39.086 121.086 39.086C120.927 38.386 120.824 37.7233 120.778 37.098C120.731 36.4727 120.773 35.838 120.904 35.194ZM127.372 34.704C127.4 34.3307 127.418 33.864 127.428 33.304C127.446 32.744 127.46 32.1607 127.47 31.554C127.479 30.9473 127.474 30.3593 127.456 29.79C127.446 29.2207 127.428 28.7447 127.4 28.362C127.232 28.3713 127.045 28.3807 126.84 28.39C126.644 28.3993 126.448 28.4087 126.252 28.418C126.065 28.4273 125.897 28.4413 125.748 28.46C125.598 28.4693 125.486 28.4787 125.412 28.488C125.356 30.028 125.239 31.33 125.062 32.394C124.894 33.4487 124.684 34.284 124.432 34.9L127.372 34.704ZM132.861 36.146C132.824 35.894 132.796 35.53 132.777 35.054C132.768 34.578 132.758 34.0507 132.749 33.472C132.749 32.884 132.749 32.268 132.749 31.624C132.749 30.98 132.744 30.3593 132.735 29.762C132.735 29.1553 132.73 28.6 132.721 28.096C132.712 27.5827 132.698 27.172 132.679 26.864C132.847 26.6773 133.01 26.5513 133.169 26.486C133.328 26.4207 133.477 26.388 133.617 26.388C133.832 26.388 134.046 26.416 134.261 26.472C134.485 26.5187 134.662 26.6073 134.793 26.738L134.807 30.602C135.339 30.462 135.829 30.3547 136.277 30.28C136.725 30.2053 137.145 30.168 137.537 30.168C137.966 30.168 138.382 30.224 138.783 30.336C139.194 30.4387 139.558 30.602 139.875 30.826C140.192 31.05 140.444 31.3393 140.631 31.694C140.827 32.0393 140.925 32.4547 140.925 32.94C140.925 33.556 140.818 34.0927 140.603 34.55C140.388 34.998 140.099 35.3807 139.735 35.698C139.371 36.006 138.951 36.2627 138.475 36.468C138.008 36.664 137.518 36.8227 137.005 36.944C136.492 37.056 135.978 37.1307 135.465 37.168C134.952 37.2147 134.476 37.2427 134.037 37.252C133.776 37.1773 133.533 37.056 133.309 36.888C133.085 36.7107 132.936 36.4633 132.861 36.146ZM141.933 27.438C142.008 27.1953 142.148 27.0133 142.353 26.892C142.568 26.7613 142.796 26.696 143.039 26.696C143.226 26.696 143.408 26.7427 143.585 26.836C143.762 26.9293 143.902 27.0553 144.005 27.214C144.07 27.7927 144.112 28.474 144.131 29.258C144.159 30.0327 144.173 30.84 144.173 31.68C144.182 32.5107 144.187 33.3367 144.187 34.158C144.187 34.9793 144.196 35.7167 144.215 36.37C144.168 36.6127 144.038 36.7993 143.823 36.93C143.618 37.0607 143.389 37.126 143.137 37.126C142.922 37.126 142.708 37.0793 142.493 36.986C142.278 36.8833 142.115 36.7107 142.003 36.468L141.933 27.438ZM134.891 35.236C135.302 35.264 135.736 35.2453 136.193 35.18C136.65 35.1147 137.07 34.9933 137.453 34.816C137.845 34.6387 138.167 34.4053 138.419 34.116C138.671 33.8173 138.797 33.4533 138.797 33.024C138.797 32.6973 138.648 32.4687 138.349 32.338C138.05 32.198 137.663 32.128 137.187 32.128C136.935 32.128 136.683 32.142 136.431 32.17C136.179 32.198 135.941 32.2353 135.717 32.282C135.502 32.3193 135.316 32.3613 135.157 32.408C134.998 32.4547 134.891 32.4967 134.835 32.534L134.891 35.236ZM146.421 36.202C146.375 35.698 146.333 35.194 146.295 34.69C146.267 34.186 146.239 33.6027 146.211 32.94C146.081 32.8747 145.987 32.772 145.931 32.632C145.875 32.4827 145.847 32.3287 145.847 32.17C145.847 32.0113 145.871 31.862 145.917 31.722C145.964 31.582 146.039 31.4653 146.141 31.372C146.132 31.1293 146.123 30.9193 146.113 30.742C146.113 30.5647 146.113 30.406 146.113 30.266C146.113 30.126 146.113 29.9907 146.113 29.86C146.113 29.7293 146.113 29.5847 146.113 29.426C145.749 29.09 145.567 28.656 145.567 28.124C146.174 27.62 146.855 27.2467 147.611 27.004C148.377 26.752 149.296 26.626 150.369 26.626C150.808 26.626 151.228 26.6587 151.629 26.724C152.031 26.78 152.385 26.8733 152.693 27.004C153.001 27.1347 153.244 27.3027 153.421 27.508C153.608 27.704 153.701 27.9467 153.701 28.236C153.701 28.796 153.561 29.2767 153.281 29.678C153.001 30.07 152.628 30.4247 152.161 30.742C152.469 30.798 152.749 30.8727 153.001 30.966C153.263 31.05 153.487 31.1667 153.673 31.316C153.86 31.456 154.005 31.6333 154.107 31.848C154.21 32.0627 154.261 32.3287 154.261 32.646C154.261 33.4393 154.051 34.1253 153.631 34.704C153.211 35.2733 152.67 35.7447 152.007 36.118C151.354 36.482 150.621 36.7573 149.809 36.944C149.007 37.1307 148.213 37.2287 147.429 37.238C147.187 37.238 146.986 37.1447 146.827 36.958C146.678 36.762 146.543 36.51 146.421 36.202ZM148.283 30.686C149.282 30.4993 150.066 30.2473 150.635 29.93C151.214 29.6127 151.503 29.216 151.503 28.74C151.503 28.6467 151.391 28.5767 151.167 28.53C150.943 28.4833 150.696 28.46 150.425 28.46C150.043 28.46 149.646 28.4973 149.235 28.572C148.834 28.6467 148.507 28.7353 148.255 28.838C148.246 28.9127 148.241 29.0293 148.241 29.188C148.241 29.3467 148.241 29.5193 148.241 29.706C148.251 29.8833 148.26 30.0653 148.269 30.252C148.279 30.4293 148.283 30.574 148.283 30.686ZM148.493 35.152C148.857 35.1053 149.249 35.026 149.669 34.914C150.099 34.7927 150.495 34.6387 150.859 34.452C151.223 34.2653 151.527 34.0413 151.769 33.78C152.021 33.5187 152.147 33.22 152.147 32.884C152.147 32.6973 152.059 32.5433 151.881 32.422C151.704 32.2913 151.41 32.226 150.999 32.226C150.803 32.226 150.579 32.2447 150.327 32.282C150.075 32.31 149.823 32.352 149.571 32.408C149.319 32.464 149.086 32.5293 148.871 32.604C148.657 32.6787 148.484 32.7533 148.353 32.828C148.353 33.2853 148.367 33.7193 148.395 34.13C148.423 34.5407 148.456 34.8813 148.493 35.152ZM154.887 36.706C154.868 36.622 154.906 36.4307 154.999 36.132C155.092 35.824 155.218 35.4507 155.377 35.012C155.536 34.564 155.722 34.0693 155.937 33.528C156.161 32.9773 156.394 32.422 156.637 31.862C156.88 31.2927 157.122 30.742 157.365 30.21C157.608 29.6687 157.836 29.1787 158.051 28.74C158.051 28.7307 158.046 28.726 158.037 28.726C158.028 28.7167 158.023 28.7073 158.023 28.698C157.976 28.6047 157.925 28.5113 157.869 28.418C157.822 28.3247 157.762 28.1847 157.687 27.998C157.846 27.634 158.032 27.3493 158.247 27.144C158.462 26.9293 158.756 26.808 159.129 26.78C159.334 26.836 159.558 26.9993 159.801 27.27C160.044 27.5407 160.286 27.8767 160.529 28.278C160.781 28.6793 161.033 29.132 161.285 29.636C161.537 30.14 161.78 30.658 162.013 31.19C162.256 31.722 162.484 32.254 162.699 32.786C162.914 33.3087 163.105 33.794 163.273 34.242C163.45 34.69 163.595 35.082 163.707 35.418C163.828 35.7447 163.917 35.9827 163.973 36.132C163.917 36.2627 163.819 36.3933 163.679 36.524C163.548 36.6453 163.394 36.7573 163.217 36.86C163.049 36.9533 162.872 37.0233 162.685 37.07C162.508 37.126 162.349 37.14 162.209 37.112C162.032 36.7667 161.873 36.4307 161.733 36.104C161.602 35.7773 161.481 35.488 161.369 35.236V35.18C160.762 35.2547 160.109 35.334 159.409 35.418C158.718 35.4927 158.06 35.5673 157.435 35.642C157.416 35.6607 157.398 35.6887 157.379 35.726C157.37 35.754 157.346 35.81 157.309 35.894C157.281 35.978 157.234 36.0993 157.169 36.258C157.104 36.4167 157.015 36.636 156.903 36.916C156.838 37.0467 156.73 37.1447 156.581 37.21C156.432 37.2847 156.264 37.322 156.077 37.322C155.9 37.322 155.708 37.2847 155.503 37.21C155.307 37.1447 155.134 37.042 154.985 36.902L154.887 36.706ZM160.641 33.248C160.566 33.0427 160.478 32.8187 160.375 32.576C160.282 32.3333 160.179 32.0907 160.067 31.848C159.955 31.6053 159.843 31.372 159.731 31.148C159.628 30.9147 159.53 30.7047 159.437 30.518C159.409 30.5833 159.376 30.6673 159.339 30.77C159.302 30.8633 159.236 31.0173 159.143 31.232C159.05 31.4467 158.924 31.7453 158.765 32.128C158.606 32.5013 158.396 33.0007 158.135 33.626L160.641 33.248ZM165.267 27.48C165.342 27.228 165.482 27.0413 165.687 26.92C165.892 26.7987 166.116 26.738 166.359 26.738C166.546 26.738 166.728 26.7847 166.905 26.878C167.082 26.962 167.227 27.0833 167.339 27.242C167.386 27.7647 167.423 28.3667 167.451 29.048C167.479 29.7293 167.493 30.434 167.493 31.162C167.549 31.162 167.638 31.162 167.759 31.162C167.88 31.162 168.011 31.162 168.151 31.162C168.3 31.162 168.445 31.162 168.585 31.162C168.725 31.1527 168.842 31.1433 168.935 31.134C169.028 30.4153 169.234 29.7807 169.551 29.23C169.878 28.67 170.274 28.2033 170.741 27.83C171.208 27.4473 171.73 27.158 172.309 26.962C172.888 26.766 173.48 26.668 174.087 26.668C174.815 26.668 175.482 26.7893 176.089 27.032C176.705 27.2747 177.232 27.62 177.671 28.068C178.11 28.516 178.45 29.0573 178.693 29.692C178.936 30.3173 179.057 31.0127 179.057 31.778C179.057 32.7207 178.889 33.5373 178.553 34.228C178.226 34.9093 177.797 35.474 177.265 35.922C176.733 36.37 176.136 36.7013 175.473 36.916C174.82 37.1307 174.171 37.238 173.527 37.238C172.948 37.238 172.402 37.1447 171.889 36.958C171.385 36.762 170.932 36.4867 170.531 36.132C170.13 35.7773 169.794 35.348 169.523 34.844C169.252 34.34 169.066 33.7707 168.963 33.136H167.493C167.493 33.724 167.493 34.298 167.493 34.858C167.493 35.418 167.502 35.922 167.521 36.37C167.484 36.6127 167.362 36.7993 167.157 36.93C166.952 37.0607 166.718 37.126 166.457 37.126C166.242 37.126 166.028 37.0747 165.813 36.972C165.608 36.8693 165.444 36.7013 165.323 36.468L165.267 27.48ZM170.965 32.086C170.965 32.5993 171.03 33.0473 171.161 33.43C171.292 33.8127 171.474 34.1347 171.707 34.396C171.94 34.648 172.22 34.8393 172.547 34.97C172.874 35.0913 173.228 35.152 173.611 35.152C173.91 35.152 174.25 35.1053 174.633 35.012C175.016 34.9187 175.375 34.7507 175.711 34.508C176.047 34.256 176.332 33.9107 176.565 33.472C176.798 33.0333 176.915 32.4687 176.915 31.778C176.915 31.2647 176.836 30.8167 176.677 30.434C176.528 30.0513 176.322 29.7293 176.061 29.468C175.809 29.2067 175.515 29.0107 175.179 28.88C174.852 28.7493 174.512 28.684 174.157 28.684C173.746 28.684 173.35 28.754 172.967 28.894C172.584 29.0247 172.244 29.23 171.945 29.51C171.646 29.79 171.408 30.1447 171.231 30.574C171.054 30.994 170.965 31.498 170.965 32.086ZM45.5148 54.206C45.4122 54.1127 45.3375 53.9913 45.2908 53.842C45.2442 53.6927 45.2208 53.5387 45.2208 53.38C45.2208 53.212 45.2442 53.0533 45.2908 52.904C45.3468 52.7453 45.4215 52.6147 45.5148 52.512C45.5148 52.344 45.5055 52.0873 45.4868 51.742C45.4775 51.3873 45.4635 51.0093 45.4448 50.608C45.4262 50.2067 45.4122 49.8147 45.4028 49.432C45.3935 49.0493 45.3935 48.7413 45.4028 48.508C45.4495 48.3587 45.5382 48.2233 45.6688 48.102C45.7995 47.9713 45.9535 47.8687 46.1308 47.794C46.3175 47.7193 46.5182 47.6773 46.7328 47.668C46.9475 47.6493 47.1622 47.6727 47.3768 47.738C47.4515 47.8687 47.5075 48.074 47.5448 48.354C47.5915 48.634 47.6242 48.9653 47.6428 49.348C47.6708 49.7307 47.6895 50.1553 47.6988 50.622C47.7175 51.0793 47.7315 51.56 47.7408 52.064C48.1515 52.0453 48.6648 52.0127 49.2808 51.966C49.8968 51.91 50.6388 51.8353 51.5068 51.742C51.4975 51.518 51.4882 51.294 51.4788 51.07C51.4788 50.846 51.4742 50.5987 51.4648 50.328C51.4648 50.0573 51.4648 49.7587 51.4648 49.432C51.4648 49.1053 51.4648 48.7273 51.4648 48.298C51.5488 48.0553 51.6935 47.8733 51.8988 47.752C52.1042 47.6307 52.3282 47.57 52.5708 47.57C52.7575 47.57 52.9395 47.6167 53.1168 47.71C53.2942 47.794 53.4342 47.9153 53.5368 48.074C53.5742 48.4473 53.6068 48.8673 53.6348 49.334C53.6628 49.7913 53.6815 50.2767 53.6908 50.79C53.7002 51.3033 53.7048 51.8353 53.7048 52.386C53.7142 52.9273 53.7188 53.464 53.7188 53.996C53.7188 54.612 53.7188 55.2093 53.7188 55.788C53.7188 56.3667 53.7282 56.894 53.7468 57.37C53.7002 57.6127 53.5742 57.7993 53.3688 57.93C53.1635 58.0607 52.9255 58.126 52.6548 58.126C52.4402 58.126 52.2255 58.0747 52.0108 57.972C51.8055 57.8693 51.6515 57.7013 51.5488 57.468C51.5488 57.188 51.5488 56.8893 51.5488 56.572C51.5582 56.2453 51.5628 55.914 51.5628 55.578C51.5722 55.242 51.5768 54.9107 51.5768 54.584C51.5768 54.2573 51.5768 53.9493 51.5768 53.66C51.2782 53.688 50.9235 53.7253 50.5128 53.772C50.1115 53.8187 49.7148 53.8653 49.3228 53.912C48.9402 53.9493 48.5948 53.9913 48.2868 54.038C47.9788 54.0753 47.7688 54.108 47.6568 54.136C47.6382 54.22 47.6288 54.4067 47.6288 54.696C47.6382 54.976 47.6475 55.2887 47.6568 55.634C47.6662 55.9793 47.6755 56.3247 47.6848 56.67C47.6942 57.006 47.6988 57.2673 47.6988 57.454C47.6988 57.594 47.6662 57.7153 47.6008 57.818C47.5355 57.9207 47.4515 58.0047 47.3488 58.07C47.2462 58.1447 47.1295 58.196 46.9988 58.224C46.8682 58.2613 46.7328 58.28 46.5928 58.28C46.3782 58.28 46.1775 58.238 45.9908 58.154C45.8042 58.0793 45.6735 57.9533 45.5988 57.776L45.5148 54.206ZM55.2122 57.706C55.1936 57.622 55.2309 57.4307 55.3242 57.132C55.4176 56.824 55.5436 56.4507 55.7022 56.012C55.8609 55.564 56.0476 55.0693 56.2622 54.528C56.4862 53.9773 56.7196 53.422 56.9622 52.862C57.2049 52.2927 57.4476 51.742 57.6902 51.21C57.9329 50.6687 58.1616 50.1787 58.3762 49.74C58.3762 49.7307 58.3716 49.726 58.3622 49.726C58.3529 49.7167 58.3482 49.7073 58.3482 49.698C58.3016 49.6047 58.2502 49.5113 58.1942 49.418C58.1476 49.3247 58.0869 49.1847 58.0122 48.998C58.1709 48.634 58.3576 48.3493 58.5722 48.144C58.7869 47.9293 59.0809 47.808 59.4542 47.78C59.6596 47.836 59.8836 47.9993 60.1262 48.27C60.3689 48.5407 60.6116 48.8767 60.8542 49.278C61.1062 49.6793 61.3582 50.132 61.6102 50.636C61.8622 51.14 62.1049 51.658 62.3382 52.19C62.5809 52.722 62.8096 53.254 63.0242 53.786C63.2389 54.3087 63.4302 54.794 63.5982 55.242C63.7756 55.69 63.9202 56.082 64.0322 56.418C64.1536 56.7447 64.2422 56.9827 64.2982 57.132C64.2422 57.2627 64.1442 57.3933 64.0042 57.524C63.8736 57.6453 63.7196 57.7573 63.5422 57.86C63.3742 57.9533 63.1969 58.0233 63.0102 58.07C62.8329 58.126 62.6742 58.14 62.5342 58.112C62.3569 57.7667 62.1982 57.4307 62.0582 57.104C61.9276 56.7773 61.8062 56.488 61.6942 56.236V56.18C61.0876 56.2547 60.4342 56.334 59.7342 56.418C59.0436 56.4927 58.3856 56.5673 57.7602 56.642C57.7416 56.6607 57.7229 56.6887 57.7042 56.726C57.6949 56.754 57.6716 56.81 57.6342 56.894C57.6062 56.978 57.5596 57.0993 57.4942 57.258C57.4289 57.4167 57.3402 57.636 57.2282 57.916C57.1629 58.0467 57.0556 58.1447 56.9062 58.21C56.7569 58.2847 56.5889 58.322 56.4022 58.322C56.2249 58.322 56.0336 58.2847 55.8282 58.21C55.6322 58.1447 55.4596 58.042 55.3102 57.902L55.2122 57.706ZM60.9662 54.248C60.8916 54.0427 60.8029 53.8187 60.7002 53.576C60.6069 53.3333 60.5042 53.0907 60.3922 52.848C60.2802 52.6053 60.1682 52.372 60.0562 52.148C59.9536 51.9147 59.8556 51.7047 59.7622 51.518C59.7342 51.5833 59.7016 51.6673 59.6642 51.77C59.6269 51.8633 59.5616 52.0173 59.4682 52.232C59.3749 52.4467 59.2489 52.7453 59.0902 53.128C58.9316 53.5013 58.7216 54.0007 58.4602 54.626L60.9662 54.248ZM69.8247 57.202C69.7781 56.698 69.7361 56.194 69.6987 55.69C69.6707 55.186 69.6427 54.6027 69.6147 53.94C69.4841 53.8747 69.3907 53.772 69.3347 53.632C69.2787 53.4827 69.2507 53.3287 69.2507 53.17C69.2507 53.0113 69.2741 52.862 69.3207 52.722C69.3674 52.582 69.4421 52.4653 69.5447 52.372C69.5354 52.1293 69.5261 51.9193 69.5167 51.742C69.5167 51.5647 69.5167 51.406 69.5167 51.266C69.5167 51.126 69.5167 50.9907 69.5167 50.86C69.5167 50.7293 69.5167 50.5847 69.5167 50.426C69.1527 50.09 68.9707 49.656 68.9707 49.124C69.5774 48.62 70.2587 48.2467 71.0147 48.004C71.7801 47.752 72.6994 47.626 73.7727 47.626C74.2114 47.626 74.6314 47.6587 75.0327 47.724C75.4341 47.78 75.7887 47.8733 76.0967 48.004C76.4047 48.1347 76.6474 48.3027 76.8247 48.508C77.0114 48.704 77.1047 48.9467 77.1047 49.236C77.1047 49.796 76.9647 50.2767 76.6847 50.678C76.4047 51.07 76.0314 51.4247 75.5647 51.742C75.8727 51.798 76.1527 51.8727 76.4047 51.966C76.6661 52.05 76.8901 52.1667 77.0767 52.316C77.2634 52.456 77.4081 52.6333 77.5107 52.848C77.6134 53.0627 77.6647 53.3287 77.6647 53.646C77.6647 54.4393 77.4547 55.1253 77.0347 55.704C76.6147 56.2733 76.0734 56.7447 75.4107 57.118C74.7574 57.482 74.0247 57.7573 73.2127 57.944C72.4101 58.1307 71.6167 58.2287 70.8327 58.238C70.5901 58.238 70.3894 58.1447 70.2307 57.958C70.0814 57.762 69.9461 57.51 69.8247 57.202ZM71.6867 51.686C72.6854 51.4993 73.4694 51.2473 74.0387 50.93C74.6174 50.6127 74.9067 50.216 74.9067 49.74C74.9067 49.6467 74.7947 49.5767 74.5707 49.53C74.3467 49.4833 74.0994 49.46 73.8287 49.46C73.4461 49.46 73.0494 49.4973 72.6387 49.572C72.2374 49.6467 71.9107 49.7353 71.6587 49.838C71.6494 49.9127 71.6447 50.0293 71.6447 50.188C71.6447 50.3467 71.6447 50.5193 71.6447 50.706C71.6541 50.8833 71.6634 51.0653 71.6727 51.252C71.6821 51.4293 71.6867 51.574 71.6867 51.686ZM71.8967 56.152C72.2607 56.1053 72.6527 56.026 73.0727 55.914C73.5021 55.7927 73.8987 55.6387 74.2627 55.452C74.6267 55.2653 74.9301 55.0413 75.1727 54.78C75.4247 54.5187 75.5507 54.22 75.5507 53.884C75.5507 53.6973 75.4621 53.5433 75.2847 53.422C75.1074 53.2913 74.8134 53.226 74.4027 53.226C74.2067 53.226 73.9827 53.2447 73.7307 53.282C73.4787 53.31 73.2267 53.352 72.9747 53.408C72.7227 53.464 72.4894 53.5293 72.2747 53.604C72.0601 53.6787 71.8874 53.7533 71.7567 53.828C71.7567 54.2853 71.7707 54.7193 71.7987 55.13C71.8267 55.5407 71.8594 55.8813 71.8967 56.152ZM79.6802 53.87C79.5775 53.7673 79.5029 53.6507 79.4562 53.52C79.4095 53.3893 79.3862 53.2493 79.3862 53.1C79.3862 52.9413 79.4142 52.7873 79.4702 52.638C79.5262 52.4887 79.6009 52.3627 79.6942 52.26C79.7035 51.9427 79.7129 51.672 79.7222 51.448C79.7315 51.2147 79.7409 51.0187 79.7502 50.86C79.7595 50.692 79.7642 50.552 79.7642 50.44C79.7642 50.3187 79.7642 50.2113 79.7642 50.118C79.5775 49.9593 79.4422 49.768 79.3582 49.544C79.2742 49.32 79.2322 49.0727 79.2322 48.802C79.4469 48.6247 79.6382 48.4847 79.8062 48.382C79.9835 48.2793 80.2075 48.1627 80.4782 48.032C80.7395 48.0227 81.0615 48.004 81.4442 47.976C81.8269 47.948 82.2375 47.9247 82.6762 47.906C83.1149 47.878 83.5582 47.8547 84.0062 47.836C84.4542 47.808 84.8695 47.7893 85.2522 47.78C85.6442 47.7613 85.9802 47.752 86.2602 47.752C86.5495 47.752 86.7502 47.766 86.8622 47.794C86.9649 47.934 87.0349 48.0787 87.0722 48.228C87.1189 48.368 87.1422 48.5033 87.1422 48.634C87.1422 48.8487 87.0862 49.054 86.9742 49.25C86.8715 49.446 86.7222 49.5813 86.5262 49.656C86.1995 49.7213 85.8355 49.7727 85.4342 49.81C85.0422 49.838 84.6362 49.866 84.2162 49.894C83.8055 49.922 83.3995 49.95 82.9982 49.978C82.5969 50.006 82.2329 50.0387 81.9062 50.076C81.8969 50.3467 81.8875 50.6407 81.8782 50.958C81.8782 51.266 81.8875 51.5553 81.9062 51.826C82.1395 51.8167 82.4289 51.8027 82.7742 51.784C83.1195 51.756 83.4882 51.728 83.8802 51.7C84.2722 51.6627 84.6689 51.6253 85.0702 51.588C85.4715 51.5507 85.8495 51.5087 86.2042 51.462C86.3909 51.5833 86.5215 51.7327 86.5962 51.91C86.6802 52.078 86.7222 52.2413 86.7222 52.4C86.7222 52.624 86.6662 52.8433 86.5542 53.058C86.4515 53.2727 86.2975 53.4267 86.0922 53.52C85.6442 53.576 85.1449 53.6273 84.5942 53.674C84.0435 53.7113 83.5209 53.744 83.0262 53.772C82.7462 53.7907 82.5175 53.8047 82.3402 53.814C82.1722 53.814 81.9949 53.8233 81.8082 53.842C81.7895 54.1407 81.7709 54.4907 81.7522 54.892C81.7429 55.284 81.7382 55.732 81.7382 56.236C82.0555 56.2173 82.4055 56.1893 82.7882 56.152C83.1802 56.1147 83.5769 56.0633 83.9782 55.998C84.3889 55.9327 84.7995 55.858 85.2102 55.774C85.6302 55.69 86.0315 55.592 86.4142 55.48C86.7129 55.4987 86.9322 55.6153 87.0722 55.83C87.2215 56.0447 87.2962 56.2967 87.2962 56.586C87.2962 56.67 87.2822 56.7727 87.2542 56.894C87.2355 57.0153 87.1935 57.1553 87.1282 57.314C86.6709 57.5287 86.1762 57.7013 85.6442 57.832C85.1215 57.9627 84.5802 58.0607 84.0202 58.126C83.4695 58.2007 82.9142 58.252 82.3542 58.28C81.8035 58.3173 81.2762 58.3453 80.7722 58.364C80.6322 58.308 80.5062 58.252 80.3942 58.196C80.2915 58.14 80.1935 58.0747 80.1002 58C80.0162 57.9253 79.9322 57.8413 79.8482 57.748C79.7642 57.6453 79.6709 57.5193 79.5682 57.37L79.6802 53.87ZM92.1189 55.396C91.6522 55.396 91.1855 55.3167 90.7189 55.158C90.2615 54.9993 89.8462 54.752 89.4729 54.416C89.1089 54.08 88.8102 53.6507 88.5769 53.128C88.3529 52.6053 88.2409 51.98 88.2409 51.252C88.2409 50.6827 88.3109 50.104 88.4509 49.516C88.6002 48.928 88.8522 48.3073 89.2069 47.654C89.3189 47.5513 89.4355 47.486 89.5569 47.458C89.6782 47.4207 89.7995 47.402 89.9209 47.402C90.0422 47.402 90.1729 47.4253 90.3129 47.472C90.4622 47.5187 90.6022 47.584 90.7329 47.668C90.8729 47.7427 90.9989 47.836 91.1109 47.948C91.2229 48.0507 91.3115 48.1627 91.3769 48.284C90.9942 48.844 90.7329 49.39 90.5929 49.922C90.4622 50.454 90.3969 50.986 90.3969 51.518C90.3969 51.854 90.4575 52.1387 90.5789 52.372C90.7002 52.596 90.8542 52.778 91.0409 52.918C91.2369 53.058 91.4469 53.1607 91.6709 53.226C91.9042 53.282 92.1282 53.31 92.3429 53.31C92.7629 53.31 93.1689 53.2447 93.5609 53.114C93.9622 52.9833 94.2982 52.7967 94.5689 52.554C94.5689 51.8727 94.5455 51.1493 94.4989 50.384C94.4615 49.6187 94.4055 48.858 94.3309 48.102C94.3589 47.99 94.4195 47.8873 94.5129 47.794C94.6155 47.6913 94.7322 47.6027 94.8629 47.528C95.0029 47.4533 95.1475 47.3927 95.2969 47.346C95.4462 47.2993 95.5862 47.276 95.7169 47.276C95.8755 47.276 96.0295 47.3133 96.1789 47.388C96.3282 47.4627 96.4449 47.584 96.5289 47.752C96.6222 49.516 96.6735 51.2147 96.6829 52.848C96.6922 54.4813 96.6782 56.1147 96.6409 57.748C96.5195 57.9253 96.3562 58.056 96.1509 58.14C95.9549 58.2333 95.7542 58.28 95.5489 58.28C95.3995 58.28 95.2455 58.252 95.0869 58.196C94.9282 58.14 94.7789 58.0607 94.6389 57.958V54.78C94.2842 54.948 93.8875 55.0927 93.4489 55.214C93.0195 55.3353 92.5762 55.396 92.1189 55.396ZM98.7251 53.87C98.6225 53.7673 98.5478 53.6507 98.5011 53.52C98.4545 53.3893 98.4311 53.2493 98.4311 53.1C98.4311 52.9413 98.4591 52.7873 98.5151 52.638C98.5711 52.4887 98.6458 52.3627 98.7391 52.26C98.7485 51.9427 98.7578 51.672 98.7671 51.448C98.7765 51.2147 98.7858 51.0187 98.7951 50.86C98.8045 50.692 98.8091 50.552 98.8091 50.44C98.8091 50.3187 98.8091 50.2113 98.8091 50.118C98.6225 49.9593 98.4871 49.768 98.4031 49.544C98.3191 49.32 98.2771 49.0727 98.2771 48.802C98.4918 48.6247 98.6831 48.4847 98.8511 48.382C99.0285 48.2793 99.2525 48.1627 99.5231 48.032C99.7845 48.0227 100.106 48.004 100.489 47.976C100.872 47.948 101.282 47.9247 101.721 47.906C102.16 47.878 102.603 47.8547 103.051 47.836C103.499 47.808 103.914 47.7893 104.297 47.78C104.689 47.7613 105.025 47.752 105.305 47.752C105.594 47.752 105.795 47.766 105.907 47.794C106.01 47.934 106.08 48.0787 106.117 48.228C106.164 48.368 106.187 48.5033 106.187 48.634C106.187 48.8487 106.131 49.054 106.019 49.25C105.916 49.446 105.767 49.5813 105.571 49.656C105.244 49.7213 104.88 49.7727 104.479 49.81C104.087 49.838 103.681 49.866 103.261 49.894C102.85 49.922 102.444 49.95 102.043 49.978C101.642 50.006 101.278 50.0387 100.951 50.076C100.942 50.3467 100.932 50.6407 100.923 50.958C100.923 51.266 100.932 51.5553 100.951 51.826C101.184 51.8167 101.474 51.8027 101.819 51.784C102.164 51.756 102.533 51.728 102.925 51.7C103.317 51.6627 103.714 51.6253 104.115 51.588C104.516 51.5507 104.894 51.5087 105.249 51.462C105.436 51.5833 105.566 51.7327 105.641 51.91C105.725 52.078 105.767 52.2413 105.767 52.4C105.767 52.624 105.711 52.8433 105.599 53.058C105.496 53.2727 105.342 53.4267 105.137 53.52C104.689 53.576 104.19 53.6273 103.639 53.674C103.088 53.7113 102.566 53.744 102.071 53.772C101.791 53.7907 101.562 53.8047 101.385 53.814C101.217 53.814 101.04 53.8233 100.853 53.842C100.834 54.1407 100.816 54.4907 100.797 54.892C100.788 55.284 100.783 55.732 100.783 56.236C101.1 56.2173 101.45 56.1893 101.833 56.152C102.225 56.1147 102.622 56.0633 103.023 55.998C103.434 55.9327 103.844 55.858 104.255 55.774C104.675 55.69 105.076 55.592 105.459 55.48C105.758 55.4987 105.977 55.6153 106.117 55.83C106.266 56.0447 106.341 56.2967 106.341 56.586C106.341 56.67 106.327 56.7727 106.299 56.894C106.28 57.0153 106.238 57.1553 106.173 57.314C105.716 57.5287 105.221 57.7013 104.689 57.832C104.166 57.9627 103.625 58.0607 103.065 58.126C102.514 58.2007 101.959 58.252 101.399 58.28C100.848 58.3173 100.321 58.3453 99.8171 58.364C99.6771 58.308 99.5511 58.252 99.4391 58.196C99.3365 58.14 99.2385 58.0747 99.1451 58C99.0611 57.9253 98.9771 57.8413 98.8931 57.748C98.8091 57.6453 98.7158 57.5193 98.6131 57.37L98.7251 53.87ZM108.462 58.042C108.434 57.7247 108.41 57.3747 108.392 56.992C108.382 56.6093 108.373 56.2173 108.364 55.816C108.354 55.4053 108.345 54.9947 108.336 54.584C108.336 54.1733 108.336 53.7767 108.336 53.394C108.336 52.75 108.336 52.1947 108.336 51.728C108.345 51.2613 108.354 50.8833 108.364 50.594C108.177 50.4447 108.056 50.2673 108 50.062C107.953 49.8567 107.986 49.6047 108.098 49.306C108.406 48.9233 108.751 48.6247 109.134 48.41C109.526 48.186 109.927 48.0227 110.338 47.92C110.748 47.808 111.164 47.738 111.584 47.71C112.004 47.682 112.396 47.668 112.76 47.668C113.17 47.668 113.6 47.724 114.048 47.836C114.496 47.9387 114.906 48.0973 115.28 48.312C115.653 48.5173 115.961 48.774 116.204 49.082C116.446 49.39 116.568 49.7493 116.568 50.16C116.568 50.6267 116.46 51.056 116.246 51.448C116.031 51.8307 115.751 52.1807 115.406 52.498C115.06 52.8153 114.664 53.0953 114.216 53.338C113.777 53.5807 113.329 53.7907 112.872 53.968C112.414 54.1453 111.966 54.2853 111.528 54.388C111.089 54.4907 110.706 54.5607 110.38 54.598C110.389 55.1767 110.403 55.7367 110.422 56.278C110.45 56.8193 110.468 57.3887 110.478 57.986C110.254 58.1447 110.034 58.252 109.82 58.308C109.614 58.3733 109.432 58.406 109.274 58.406C109.124 58.406 108.98 58.378 108.84 58.322C108.709 58.2753 108.583 58.182 108.462 58.042ZM110.38 52.666C110.557 52.6473 110.781 52.61 111.052 52.554C111.322 52.498 111.602 52.4233 111.892 52.33C112.19 52.2367 112.484 52.1293 112.774 52.008C113.072 51.8773 113.338 51.728 113.572 51.56C113.814 51.392 114.006 51.2053 114.146 51C114.295 50.7947 114.37 50.566 114.37 50.314C114.37 50.1647 114.309 50.0387 114.188 49.936C114.066 49.8333 113.912 49.754 113.726 49.698C113.539 49.6327 113.329 49.5907 113.096 49.572C112.872 49.544 112.652 49.53 112.438 49.53C112.288 49.53 112.12 49.544 111.934 49.572C111.756 49.6 111.574 49.6373 111.388 49.684C111.21 49.7213 111.042 49.768 110.884 49.824C110.725 49.8707 110.594 49.9173 110.492 49.964C110.473 50.132 110.459 50.3327 110.45 50.566C110.44 50.79 110.431 51.0233 110.422 51.266C110.412 51.5087 110.403 51.7513 110.394 51.994C110.394 52.2367 110.389 52.4607 110.38 52.666ZM118.124 57.552C118.096 57.2813 118.073 56.9127 118.054 56.446C118.045 55.9793 118.035 55.4567 118.026 54.878C118.026 54.2993 118.026 53.6833 118.026 53.03C118.026 52.3767 118.026 51.7327 118.026 51.098C118.026 50.4633 118.026 49.8567 118.026 49.278C118.035 48.6993 118.04 48.1907 118.04 47.752C118.152 47.612 118.292 47.5047 118.46 47.43C118.628 47.346 118.805 47.2853 118.992 47.248C119.188 47.2107 119.384 47.192 119.58 47.192C119.776 47.1827 119.958 47.192 120.126 47.22C120.154 47.472 120.173 47.794 120.182 48.186C120.201 48.5687 120.21 48.9887 120.21 49.446C120.219 49.894 120.224 50.3653 120.224 50.86C120.224 51.3453 120.219 51.812 120.21 52.26C120.21 52.6987 120.21 53.1093 120.21 53.492C120.21 53.8653 120.21 54.164 120.21 54.388C120.415 54.0707 120.653 53.6787 120.924 53.212C121.204 52.7453 121.498 52.2553 121.806 51.742C122.123 51.2193 122.445 50.7013 122.772 50.188C123.099 49.6747 123.411 49.208 123.71 48.788C124.018 48.368 124.303 48.0227 124.564 47.752C124.825 47.4813 125.049 47.3273 125.236 47.29C125.329 47.318 125.437 47.3507 125.558 47.388C125.689 47.4253 125.819 47.472 125.95 47.528C126.081 47.584 126.202 47.6493 126.314 47.724C126.435 47.7893 126.533 47.8687 126.608 47.962C126.636 48.074 126.655 48.312 126.664 48.676C126.683 49.0307 126.687 49.4553 126.678 49.95C126.678 50.4353 126.673 50.958 126.664 51.518C126.664 52.0687 126.655 52.6007 126.636 53.114C126.627 53.6273 126.617 54.0893 126.608 54.5C126.608 54.9013 126.608 55.1953 126.608 55.382C126.608 55.7647 126.613 56.11 126.622 56.418C126.631 56.726 126.65 57.0013 126.678 57.244C126.631 57.4027 126.538 57.5427 126.398 57.664C126.258 57.776 126.099 57.8647 125.922 57.93C125.745 57.986 125.567 58.014 125.39 58.014C125.213 58.0233 125.063 57.9953 124.942 57.93C124.821 57.846 124.718 57.72 124.634 57.552C124.559 57.3747 124.494 57.1647 124.438 56.922C124.391 56.67 124.359 56.3947 124.34 56.096C124.321 55.7973 124.312 55.48 124.312 55.144C124.312 54.668 124.326 54.1313 124.354 53.534C124.391 52.9367 124.433 52.2087 124.48 51.35C124.256 51.714 123.999 52.1293 123.71 52.596C123.43 53.0533 123.136 53.5293 122.828 54.024C122.52 54.5093 122.207 54.9947 121.89 55.48C121.573 55.956 121.274 56.39 120.994 56.782C120.714 57.1647 120.462 57.4867 120.238 57.748C120.023 58 119.855 58.154 119.734 58.21C119.547 58.1727 119.384 58.14 119.244 58.112C119.113 58.0933 118.987 58.0653 118.866 58.028C118.754 57.9907 118.637 57.9393 118.516 57.874C118.404 57.7993 118.273 57.692 118.124 57.552ZM128.954 54.206C128.852 54.1127 128.777 53.9913 128.73 53.842C128.684 53.6927 128.66 53.5387 128.66 53.38C128.66 53.212 128.684 53.0533 128.73 52.904C128.786 52.7453 128.861 52.6147 128.954 52.512C128.954 52.344 128.945 52.0873 128.926 51.742C128.917 51.3873 128.903 51.0093 128.884 50.608C128.866 50.2067 128.852 49.8147 128.842 49.432C128.833 49.0493 128.833 48.7413 128.842 48.508C128.889 48.3587 128.978 48.2233 129.108 48.102C129.239 47.9713 129.393 47.8687 129.57 47.794C129.757 47.7193 129.958 47.6773 130.172 47.668C130.387 47.6493 130.602 47.6727 130.816 47.738C130.891 47.8687 130.947 48.074 130.984 48.354C131.031 48.634 131.064 48.9653 131.082 49.348C131.11 49.7307 131.129 50.1553 131.138 50.622C131.157 51.0793 131.171 51.56 131.18 52.064C131.591 52.0453 132.104 52.0127 132.72 51.966C133.336 51.91 134.078 51.8353 134.946 51.742C134.937 51.518 134.928 51.294 134.918 51.07C134.918 50.846 134.914 50.5987 134.904 50.328C134.904 50.0573 134.904 49.7587 134.904 49.432C134.904 49.1053 134.904 48.7273 134.904 48.298C134.988 48.0553 135.133 47.8733 135.338 47.752C135.544 47.6307 135.768 47.57 136.01 47.57C136.197 47.57 136.379 47.6167 136.556 47.71C136.734 47.794 136.874 47.9153 136.976 48.074C137.014 48.4473 137.046 48.8673 137.074 49.334C137.102 49.7913 137.121 50.2767 137.13 50.79C137.14 51.3033 137.144 51.8353 137.144 52.386C137.154 52.9273 137.158 53.464 137.158 53.996C137.158 54.612 137.158 55.2093 137.158 55.788C137.158 56.3667 137.168 56.894 137.186 57.37C137.14 57.6127 137.014 57.7993 136.808 57.93C136.603 58.0607 136.365 58.126 136.094 58.126C135.88 58.126 135.665 58.0747 135.45 57.972C135.245 57.8693 135.091 57.7013 134.988 57.468C134.988 57.188 134.988 56.8893 134.988 56.572C134.998 56.2453 135.002 55.914 135.002 55.578C135.012 55.242 135.016 54.9107 135.016 54.584C135.016 54.2573 135.016 53.9493 135.016 53.66C134.718 53.688 134.363 53.7253 133.952 53.772C133.551 53.8187 133.154 53.8653 132.762 53.912C132.38 53.9493 132.034 53.9913 131.726 54.038C131.418 54.0753 131.208 54.108 131.096 54.136C131.078 54.22 131.068 54.4067 131.068 54.696C131.078 54.976 131.087 55.2887 131.096 55.634C131.106 55.9793 131.115 56.3247 131.124 56.67C131.134 57.006 131.138 57.2673 131.138 57.454C131.138 57.594 131.106 57.7153 131.04 57.818C130.975 57.9207 130.891 58.0047 130.788 58.07C130.686 58.1447 130.569 58.196 130.438 58.224C130.308 58.2613 130.172 58.28 130.032 58.28C129.818 58.28 129.617 58.238 129.43 58.154C129.244 58.0793 129.113 57.9533 129.038 57.776L128.954 54.206ZM139.632 57.986C139.594 57.6407 139.562 57.216 139.534 56.712C139.506 56.1987 139.478 55.6527 139.45 55.074C139.431 54.486 139.412 53.884 139.394 53.268C139.384 52.6427 139.38 52.0407 139.38 51.462C139.38 50.8367 139.384 50.2533 139.394 49.712C139.412 49.1613 139.44 48.6853 139.478 48.284C139.552 48.0507 139.683 47.892 139.87 47.808C140.066 47.7147 140.285 47.668 140.528 47.668C140.789 47.668 141.088 47.7287 141.424 47.85C141.517 48.0647 141.573 48.3307 141.592 48.648C141.62 48.9653 141.629 49.2967 141.62 49.642C141.61 49.978 141.596 50.3 141.578 50.608C141.559 50.916 141.55 51.168 141.55 51.364L145.456 47.85C145.726 47.7753 146.02 47.8173 146.338 47.976C146.655 48.1253 146.902 48.368 147.08 48.704C146.902 49.0307 146.664 49.362 146.366 49.698C146.067 50.0247 145.75 50.3373 145.414 50.636C145.087 50.9347 144.77 51.2147 144.462 51.476C144.154 51.728 143.902 51.9427 143.706 52.12C143.93 52.3533 144.21 52.666 144.546 53.058C144.891 53.4407 145.246 53.8607 145.61 54.318C145.974 54.766 146.328 55.228 146.674 55.704C147.028 56.1707 147.327 56.6 147.57 56.992C147.57 57.216 147.509 57.4027 147.388 57.552C147.276 57.7013 147.14 57.8273 146.982 57.93C146.823 58.0327 146.655 58.112 146.478 58.168C146.31 58.2333 146.17 58.2847 146.058 58.322L142.194 53.464C142.091 53.5387 141.988 53.618 141.886 53.702C141.783 53.786 141.68 53.8793 141.578 53.982C141.578 54.1873 141.587 54.4533 141.606 54.78C141.624 55.0973 141.643 55.4287 141.662 55.774C141.69 56.11 141.713 56.4413 141.732 56.768C141.75 57.0853 141.76 57.3513 141.76 57.566C141.629 57.678 141.48 57.7853 141.312 57.888C141.153 57.9907 140.98 58.0653 140.794 58.112C140.616 58.168 140.425 58.1867 140.22 58.168C140.024 58.1587 139.828 58.098 139.632 57.986ZM151.626 54.64C151.449 54.3413 151.239 54.0053 150.996 53.632C150.763 53.2493 150.516 52.8527 150.254 52.442C150.002 52.0313 149.75 51.616 149.498 51.196C149.246 50.7667 149.013 50.3607 148.798 49.978C148.593 49.5953 148.42 49.2407 148.28 48.914C148.14 48.5873 148.056 48.3167 148.028 48.102C148.075 47.9713 148.173 47.85 148.322 47.738C148.472 47.626 148.64 47.542 148.826 47.486C149.013 47.43 149.204 47.4113 149.4 47.43C149.606 47.4393 149.783 47.5047 149.932 47.626C150.138 47.9807 150.352 48.3773 150.576 48.816C150.81 49.2547 151.043 49.698 151.276 50.146C151.519 50.594 151.757 51.0373 151.99 51.476C152.233 51.9147 152.466 52.3113 152.69 52.666C152.905 52.2927 153.12 51.8773 153.334 51.42C153.558 50.9533 153.782 50.4867 154.006 50.02C154.23 49.544 154.45 49.082 154.664 48.634C154.888 48.186 155.112 47.78 155.336 47.416C155.467 47.388 155.612 47.3787 155.77 47.388C155.929 47.3973 156.088 47.4347 156.246 47.5C156.414 47.556 156.568 47.64 156.708 47.752C156.858 47.864 156.979 48.0087 157.072 48.186C156.904 48.606 156.694 49.0913 156.442 49.642C156.2 50.1833 155.934 50.762 155.644 51.378C155.355 51.994 155.047 52.6287 154.72 53.282C154.394 53.926 154.067 54.556 153.74 55.172C153.414 55.7787 153.092 56.3573 152.774 56.908C152.466 57.4587 152.177 57.9393 151.906 58.35C151.421 58.462 151.015 58.4527 150.688 58.322C150.371 58.1913 150.119 57.9067 149.932 57.468L151.626 54.64ZM155.886 56.936C155.923 56.628 156.058 56.3573 156.292 56.124C156.525 55.8813 156.894 55.76 157.398 55.76C157.538 55.76 157.682 55.7927 157.832 55.858C157.981 55.9233 158.116 56.012 158.238 56.124C158.359 56.236 158.457 56.3667 158.532 56.516C158.606 56.6653 158.644 56.8193 158.644 56.978C158.644 57.314 158.611 57.622 158.546 57.902C158.48 58.182 158.378 58.4527 158.238 58.714C158.107 58.9847 157.934 59.2553 157.72 59.526C157.514 59.7967 157.272 60.0813 156.992 60.38C156.861 60.4173 156.73 60.4173 156.6 60.38C156.478 60.352 156.362 60.3007 156.25 60.226C156.147 60.1607 156.054 60.0813 155.97 59.988C155.895 59.8947 155.844 59.8013 155.816 59.708C155.89 59.6147 155.974 59.512 156.068 59.4C156.161 59.288 156.25 59.162 156.334 59.022C156.418 58.8913 156.492 58.742 156.558 58.574C156.632 58.4153 156.684 58.2333 156.712 58.028C156.161 57.8133 155.886 57.4493 155.886 56.936ZM163.639 53.422C163.639 52.526 163.774 51.728 164.045 51.028C164.315 50.328 164.693 49.7353 165.179 49.25C165.664 48.7647 166.233 48.396 166.887 48.144C167.54 47.8827 168.254 47.752 169.029 47.752C169.43 47.752 169.827 47.7987 170.219 47.892C170.611 47.9853 170.965 48.1113 171.283 48.27C171.609 48.4287 171.885 48.62 172.109 48.844C172.333 49.0587 172.482 49.292 172.557 49.544C172.547 49.7027 172.501 49.852 172.417 49.992C172.342 50.1227 172.239 50.244 172.109 50.356C171.978 50.4587 171.829 50.5473 171.661 50.622C171.493 50.6967 171.32 50.748 171.143 50.776C171.021 50.6267 170.891 50.4867 170.751 50.356C170.611 50.2253 170.452 50.1087 170.275 50.006C170.097 49.9033 169.892 49.824 169.659 49.768C169.435 49.7027 169.178 49.67 168.889 49.67C168.525 49.67 168.156 49.7353 167.783 49.866C167.419 49.9967 167.087 50.216 166.789 50.524C166.499 50.8227 166.261 51.2193 166.075 51.714C165.888 52.2087 165.795 52.82 165.795 53.548C165.795 53.9587 165.865 54.332 166.005 54.668C166.154 54.9947 166.345 55.2747 166.579 55.508C166.812 55.732 167.073 55.9047 167.363 56.026C167.652 56.1473 167.937 56.208 168.217 56.208C168.525 56.208 168.805 56.18 169.057 56.124C169.318 56.0587 169.575 55.9467 169.827 55.788C170.079 55.6293 170.34 55.4193 170.611 55.158C170.881 54.8967 171.185 54.5607 171.521 54.15C171.698 54.1687 171.866 54.22 172.025 54.304C172.193 54.3787 172.337 54.486 172.459 54.626C172.589 54.7567 172.687 54.9107 172.753 55.088C172.827 55.2653 172.855 55.452 172.837 55.648C172.566 56.0587 172.249 56.4227 171.885 56.74C171.521 57.0573 171.129 57.3233 170.709 57.538C170.298 57.7527 169.869 57.916 169.421 58.028C168.982 58.1493 168.553 58.21 168.133 58.21C167.461 58.21 166.845 58.07 166.285 57.79C165.734 57.51 165.263 57.146 164.871 56.698C164.479 56.2407 164.175 55.7273 163.961 55.158C163.746 54.5887 163.639 54.01 163.639 53.422ZM176.523 53.03C176.411 53.058 176.276 53.0673 176.117 53.058C175.959 53.0487 175.805 53.0113 175.655 52.946C175.506 52.8807 175.38 52.7827 175.277 52.652C175.175 52.5213 175.123 52.344 175.123 52.12C175.151 52.0453 175.189 51.952 175.235 51.84C175.291 51.728 175.352 51.6113 175.417 51.49C175.483 51.3687 175.548 51.252 175.613 51.14C175.688 51.0187 175.763 50.916 175.837 50.832C175.735 50.8133 175.613 50.7947 175.473 50.776C175.343 50.748 175.207 50.72 175.067 50.692C174.937 50.6547 174.811 50.6173 174.689 50.58C174.568 50.5333 174.475 50.4867 174.409 50.44C174.279 50.2067 174.213 49.9967 174.213 49.81C174.213 49.5673 174.288 49.3573 174.437 49.18C174.587 48.9933 174.792 48.8907 175.053 48.872C175.109 48.9 175.184 48.9327 175.277 48.97C175.38 49.0073 175.487 49.0447 175.599 49.082C175.721 49.11 175.837 49.1427 175.949 49.18C176.071 49.208 176.173 49.236 176.257 49.264C176.22 49.0773 176.192 48.844 176.173 48.564C176.164 48.284 176.197 48.0507 176.271 47.864C176.411 47.696 176.551 47.584 176.691 47.528C176.831 47.472 176.967 47.444 177.097 47.444C177.284 47.444 177.466 47.5047 177.643 47.626C177.821 47.738 177.951 47.8593 178.035 47.99C177.998 48.1767 177.97 48.368 177.951 48.564C177.933 48.7507 177.923 48.9327 177.923 49.11C178.147 48.998 178.39 48.9047 178.651 48.83C178.922 48.7553 179.127 48.7087 179.267 48.69C179.585 48.662 179.809 48.732 179.939 48.9C180.07 49.0587 180.135 49.2547 180.135 49.488C180.135 49.5907 180.107 49.7167 180.051 49.866C179.995 50.0153 179.907 50.1647 179.785 50.314L178.483 50.552C178.539 50.608 178.605 50.6827 178.679 50.776C178.763 50.86 178.847 50.9487 178.931 51.042C179.015 51.1353 179.099 51.2287 179.183 51.322C179.277 51.4153 179.361 51.49 179.435 51.546C179.454 51.742 179.435 51.9287 179.379 52.106C179.333 52.274 179.249 52.4233 179.127 52.554C179.015 52.6753 178.871 52.764 178.693 52.82C178.525 52.876 178.329 52.8807 178.105 52.834C178.04 52.778 177.965 52.7033 177.881 52.61C177.797 52.5073 177.713 52.4 177.629 52.288C177.545 52.176 177.466 52.064 177.391 51.952C177.317 51.84 177.251 51.7373 177.195 51.644L176.523 53.03ZM183.004 53.03C182.892 53.058 182.756 53.0673 182.598 53.058C182.439 53.0487 182.285 53.0113 182.136 52.946C181.986 52.8807 181.86 52.7827 181.758 52.652C181.655 52.5213 181.604 52.344 181.604 52.12C181.632 52.0453 181.669 51.952 181.716 51.84C181.772 51.728 181.832 51.6113 181.898 51.49C181.963 51.3687 182.028 51.252 182.094 51.14C182.168 51.0187 182.243 50.916 182.318 50.832C182.215 50.8133 182.094 50.7947 181.954 50.776C181.823 50.748 181.688 50.72 181.548 50.692C181.417 50.6547 181.291 50.6173 181.17 50.58C181.048 50.5333 180.955 50.4867 180.89 50.44C180.759 50.2067 180.694 49.9967 180.694 49.81C180.694 49.5673 180.768 49.3573 180.918 49.18C181.067 48.9933 181.272 48.8907 181.534 48.872C181.59 48.9 181.664 48.9327 181.758 48.97C181.86 49.0073 181.968 49.0447 182.08 49.082C182.201 49.11 182.318 49.1427 182.43 49.18C182.551 49.208 182.654 49.236 182.738 49.264C182.7 49.0773 182.672 48.844 182.654 48.564C182.644 48.284 182.677 48.0507 182.752 47.864C182.892 47.696 183.032 47.584 183.172 47.528C183.312 47.472 183.447 47.444 183.578 47.444C183.764 47.444 183.946 47.5047 184.124 47.626C184.301 47.738 184.432 47.8593 184.516 47.99C184.478 48.1767 184.45 48.368 184.432 48.564C184.413 48.7507 184.404 48.9327 184.404 49.11C184.628 48.998 184.87 48.9047 185.132 48.83C185.402 48.7553 185.608 48.7087 185.748 48.69C186.065 48.662 186.289 48.732 186.42 48.9C186.55 49.0587 186.616 49.2547 186.616 49.488C186.616 49.5907 186.588 49.7167 186.532 49.866C186.476 50.0153 186.387 50.1647 186.266 50.314L184.964 50.552C185.02 50.608 185.085 50.6827 185.16 50.776C185.244 50.86 185.328 50.9487 185.412 51.042C185.496 51.1353 185.58 51.2287 185.664 51.322C185.757 51.4153 185.841 51.49 185.916 51.546C185.934 51.742 185.916 51.9287 185.86 52.106C185.813 52.274 185.729 52.4233 185.608 52.554C185.496 52.6753 185.351 52.764 185.174 52.82C185.006 52.876 184.81 52.8807 184.586 52.834C184.52 52.778 184.446 52.7033 184.362 52.61C184.278 52.5073 184.194 52.4 184.11 52.288C184.026 52.176 183.946 52.064 183.872 51.952C183.797 51.84 183.732 51.7373 183.676 51.644L183.004 53.03ZM187.132 57.706C187.113 57.622 187.151 57.4307 187.244 57.132C187.337 56.824 187.463 56.4507 187.622 56.012C187.781 55.564 187.967 55.0693 188.182 54.528C188.406 53.9773 188.639 53.422 188.882 52.862C189.125 52.2927 189.367 51.742 189.61 51.21C189.853 50.6687 190.081 50.1787 190.296 49.74C190.296 49.7307 190.291 49.726 190.282 49.726C190.273 49.7167 190.268 49.7073 190.268 49.698C190.221 49.6047 190.17 49.5113 190.114 49.418C190.067 49.3247 190.007 49.1847 189.932 48.998C190.091 48.634 190.277 48.3493 190.492 48.144C190.707 47.9293 191.001 47.808 191.374 47.78C191.579 47.836 191.803 47.9993 192.046 48.27C192.289 48.5407 192.531 48.8767 192.774 49.278C193.026 49.6793 193.278 50.132 193.53 50.636C193.782 51.14 194.025 51.658 194.258 52.19C194.501 52.722 194.729 53.254 194.944 53.786C195.159 54.3087 195.35 54.794 195.518 55.242C195.695 55.69 195.84 56.082 195.952 56.418C196.073 56.7447 196.162 56.9827 196.218 57.132C196.162 57.2627 196.064 57.3933 195.924 57.524C195.793 57.6453 195.639 57.7573 195.462 57.86C195.294 57.9533 195.117 58.0233 194.93 58.07C194.753 58.126 194.594 58.14 194.454 58.112C194.277 57.7667 194.118 57.4307 193.978 57.104C193.847 56.7773 193.726 56.488 193.614 56.236V56.18C193.007 56.2547 192.354 56.334 191.654 56.418C190.963 56.4927 190.305 56.5673 189.68 56.642C189.661 56.6607 189.643 56.6887 189.624 56.726C189.615 56.754 189.591 56.81 189.554 56.894C189.526 56.978 189.479 57.0993 189.414 57.258C189.349 57.4167 189.26 57.636 189.148 57.916C189.083 58.0467 188.975 58.1447 188.826 58.21C188.677 58.2847 188.509 58.322 188.322 58.322C188.145 58.322 187.953 58.2847 187.748 58.21C187.552 58.1447 187.379 58.042 187.23 57.902L187.132 57.706ZM192.886 54.248C192.811 54.0427 192.723 53.8187 192.62 53.576C192.527 53.3333 192.424 53.0907 192.312 52.848C192.2 52.6053 192.088 52.372 191.976 52.148C191.873 51.9147 191.775 51.7047 191.682 51.518C191.654 51.5833 191.621 51.6673 191.584 51.77C191.547 51.8633 191.481 52.0173 191.388 52.232C191.295 52.4467 191.169 52.7453 191.01 53.128C190.851 53.5013 190.641 54.0007 190.38 54.626L192.886 54.248ZM197.652 54.542C197.606 54.458 197.587 54.2107 197.596 53.8C197.606 53.3893 197.629 52.8807 197.666 52.274C197.704 51.6673 197.75 50.9953 197.806 50.258C197.862 49.5207 197.918 48.788 197.974 48.06C197.974 48.0133 198.016 47.962 198.1 47.906C198.194 47.85 198.31 47.7987 198.45 47.752C198.59 47.696 198.744 47.654 198.912 47.626C199.08 47.5887 199.248 47.5747 199.416 47.584C199.584 47.584 199.738 47.6073 199.878 47.654C200.028 47.7007 200.144 47.7753 200.228 47.878C200.182 48.242 200.126 48.6853 200.06 49.208C200.004 49.7307 199.939 50.2813 199.864 50.86C199.799 51.4387 199.724 52.0313 199.64 52.638C199.566 53.2353 199.486 53.8 199.402 54.332C199.328 54.416 199.211 54.486 199.052 54.542C198.903 54.598 198.74 54.6353 198.562 54.654C198.394 54.6727 198.222 54.6773 198.044 54.668C197.876 54.6493 197.746 54.6073 197.652 54.542ZM197.05 56.95C197.088 56.7913 197.134 56.642 197.19 56.502C197.256 56.362 197.344 56.2407 197.456 56.138C197.578 56.026 197.727 55.9373 197.904 55.872C198.091 55.8067 198.32 55.774 198.59 55.774C198.712 55.774 198.842 55.7973 198.982 55.844C199.122 55.8907 199.253 55.9653 199.374 56.068C199.496 56.1707 199.598 56.3013 199.682 56.46C199.766 56.6187 199.818 56.8147 199.836 57.048C199.78 57.2907 199.687 57.4913 199.556 57.65C199.426 57.8087 199.281 57.93 199.122 58.014C198.964 58.1073 198.796 58.1727 198.618 58.21C198.45 58.2473 198.296 58.266 198.156 58.266C197.736 58.1633 197.447 58 197.288 57.776C197.13 57.5427 197.05 57.2673 197.05 56.95Z" fill="white"/>
<circle cx="5.99963" cy="17" r="1" fill="#125100"/>
<circle cx="244" cy="17" r="1" fill="#125100"/>
<circle cx="5.99963" cy="68" r="1" fill="#125100"/>
<circle cx="244" cy="68" r="1" fill="#125100"/>
<circle cx="286" cy="43" r="1" fill="#125100"/>
</svg>
