<svg width="25" height="27" viewBox="0 0 25 27" fill="none" xmlns="http://www.w3.org/2000/svg">
<path d="M1.45754e-05 12.3657C1.42781e-05 15.7657 16.67 26.3657 20.67 26.3657C24.67 26.3657 26 1.69572 22.67 1.03572C19.34 0.375722 1.48665e-05 9.03572 1.45754e-05 12.3657Z" fill="#D3BB39"/>
<path d="M1.45754e-05 11.3657C1.42781e-05 14.7657 16.67 25.3657 20.67 25.3657C24.67 25.3657 26 0.695723 22.67 0.0357226C19.34 -0.624278 1.48665e-05 8.03572 1.45754e-05 11.3657Z" fill="#FFE23F"/>
<path d="M20.67 24.8657C20.2583 24.8657 19.6265 24.7244 18.8001 24.4322C17.986 24.1444 17.0257 23.726 15.9738 23.2078C13.8706 22.1719 11.4301 20.7516 9.11009 19.2232C6.78876 17.6939 4.60263 16.0658 3.00283 14.617C2.20181 13.8916 1.56047 13.2225 1.12343 12.6425C0.669513 12.0402 0.500015 11.6164 0.500015 11.3657C0.500015 11.2763 0.53387 11.1349 0.650789 10.9329C0.76621 10.7334 0.946617 10.5025 1.19716 10.2431C1.69855 9.72406 2.43554 9.13726 3.35531 8.51106C5.19129 7.26108 7.6878 5.89947 10.3011 4.65596C12.9125 3.41335 15.6238 2.29662 17.8831 1.53299C19.0134 1.15095 20.0221 0.860212 20.8438 0.68556C21.6878 0.506166 22.2656 0.465296 22.5728 0.526182C22.6265 0.536823 22.7218 0.579964 22.8486 0.739815C22.9761 0.900356 23.1084 1.14605 23.2356 1.48798C23.4898 2.17102 23.6896 3.14329 23.8282 4.33C24.1047 6.69608 24.1267 9.80943 23.9199 12.915C23.713 16.0217 23.2791 19.0898 22.656 21.3689C22.3434 22.5123 21.9911 23.4265 21.6142 24.0438C21.2209 24.688 20.8925 24.8657 20.67 24.8657Z" stroke="#D3BB39" stroke-linecap="round" stroke-linejoin="round"/>
</svg>
