<svg width="77" height="29" viewBox="0 0 77 29" fill="none" xmlns="http://www.w3.org/2000/svg">
<path d="M-6.14197e-07 14C-9.59037e-07 18 16.9702 29 21.0422 29C25.1142 29 26.4682 3.71313 23.0782 3.03663C19.6883 2.36012 -3.19939e-07 10.5867 -6.14197e-07 14Z" fill="#D3BB39"/>
<path d="M-2.57758e-06 13.6499C-2.87802e-06 17.1349 16.9702 28 21.0422 28C25.1142 28 26.4682 2.71313 23.0782 2.03663C19.6883 1.36012 -2.28332e-06 10.2367 -2.57758e-06 13.6499Z" fill="#FFE23F"/>
<path d="M21.0422 27.5C20.6221 27.5 19.9781 27.3548 19.1366 27.0553C18.3076 26.7602 17.3297 26.3311 16.2586 25.7999C14.1173 24.7379 11.6325 23.282 9.27048 21.7152C6.90714 20.1475 4.68122 18.4784 3.0521 16.9929C2.23645 16.2492 1.58298 15.5628 1.13744 14.9675C0.675323 14.3501 0.499997 13.9123 0.499997 13.6499C0.499997 13.5545 0.535777 13.4069 0.655439 13.1987C0.773639 12.9931 0.958005 12.7556 1.21341 12.4893C1.72455 11.9565 2.47543 11.3546 3.41196 10.7127C5.2815 9.43107 7.82339 8.03522 10.4839 6.76053C13.1426 5.48674 15.9029 4.34198 18.2032 3.55916C19.354 3.16751 20.3811 2.86942 21.2179 2.69034C22.0772 2.50644 22.6664 2.4643 22.9804 2.52696C23.037 2.53825 23.1357 2.58381 23.2661 2.74924C23.3969 2.9152 23.5322 3.16846 23.662 3.51979C23.9214 4.22154 24.125 5.21953 24.2662 6.43644C24.5478 8.86293 24.5701 12.0552 24.3595 15.239C24.1489 18.4239 23.7071 21.5699 23.0724 23.9073C22.754 25.08 22.395 26.0185 22.0103 26.6529C21.6088 27.315 21.272 27.5 21.0422 27.5Z" stroke="#D3BB39" stroke-linecap="round" stroke-linejoin="round"/>
<path d="M52 14C52 18 68.9702 29 73.0422 29C77.1142 29 78.4682 3.71313 75.0782 3.03663C71.6883 2.36012 52 10.5867 52 14Z" fill="#D3BB39"/>
<path d="M52 13.6499C52 17.1349 68.9702 28 73.0422 28C77.1142 28 78.4682 2.71313 75.0782 2.03663C71.6883 1.36012 52 10.2367 52 13.6499Z" fill="#E4CA3F"/>
<path d="M73.0422 27.5C72.6221 27.5 71.9781 27.3548 71.1366 27.0553C70.3076 26.7602 69.3297 26.3311 68.2586 25.7999C66.1173 24.7379 63.6325 23.282 61.2705 21.7152C58.9071 20.1475 56.6812 18.4784 55.0521 16.9929C54.2364 16.2492 53.583 15.5628 53.1374 14.9675C52.6753 14.3501 52.5 13.9123 52.5 13.6499C52.5 13.5545 52.5358 13.4069 52.6554 13.1987C52.7736 12.9931 52.958 12.7556 53.2134 12.4893C53.7245 11.9565 54.4754 11.3546 55.412 10.7127C57.2815 9.43107 59.8234 8.03522 62.4839 6.76053C65.1426 5.48674 67.9029 4.34198 70.2032 3.55916C71.354 3.16751 72.3811 2.86942 73.2179 2.69034C74.0772 2.50644 74.6664 2.4643 74.9804 2.52696C75.037 2.53825 75.1357 2.58381 75.2661 2.74924C75.3969 2.9152 75.5322 3.16846 75.662 3.51979C75.9214 4.22154 76.125 5.21953 76.2662 6.43644C76.5478 8.86293 76.5701 12.0552 76.3595 15.239C76.1489 18.4239 75.7071 21.5699 75.0724 23.9073C74.754 25.08 74.395 26.0185 74.0103 26.6529C73.6088 27.315 73.272 27.5 73.0422 27.5Z" stroke="#D3BB39" stroke-linecap="round" stroke-linejoin="round"/>
<path d="M26 12.0093C26 19.5052 42.9702 29 47.0422 29C51.1142 29 52.4682 3.72703 49.0782 3.0509C45.6883 2.37477 26 8.59796 26 12.0093Z" fill="#D3BB39"/>
<path d="M26 11.6499C26 15.1349 42.9702 26 47.0422 26C51.1142 26 52.4682 0.713131 49.0782 0.0366266C45.6883 -0.639876 26 8.23666 26 11.6499Z" fill="#FFEA74"/>
<path d="M47.0422 25.5C46.6221 25.5 45.9781 25.3548 45.1366 25.0553C44.3076 24.7602 43.3297 24.3311 42.2586 23.7999C40.1173 22.7379 37.6325 21.282 35.2705 19.7152C32.9071 18.1475 30.6812 16.4784 29.0521 14.9929C28.2364 14.2492 27.583 13.5628 27.1374 12.9675C26.6753 12.3501 26.5 11.9123 26.5 11.6499C26.5 11.5545 26.5358 11.4069 26.6554 11.1987C26.7736 10.9931 26.958 10.7556 27.2134 10.4893C27.7245 9.95655 28.4754 9.35464 29.412 8.71265C31.2815 7.43107 33.8234 6.03522 36.4839 4.76053C39.1426 3.48674 41.9029 2.34198 44.2032 1.55916C45.354 1.16751 46.3811 0.869424 47.2179 0.690338C48.0772 0.506445 48.6664 0.464302 48.9804 0.526958C49.037 0.538252 49.1357 0.583809 49.2661 0.749245C49.3969 0.915205 49.5322 1.16846 49.662 1.51979C49.9214 2.22154 50.125 3.21953 50.2662 4.43644C50.5478 6.86293 50.5701 10.0552 50.3595 13.239C50.1489 16.4239 49.7071 19.5699 49.0724 21.9073C48.754 23.08 48.395 24.0185 48.0103 24.6529C47.6088 25.315 47.272 25.5 47.0422 25.5Z" stroke="#D3BB39" stroke-linecap="round" stroke-linejoin="round"/>
</svg>
