<svg width="78" height="30" viewBox="0 0 78 30" fill="none" xmlns="http://www.w3.org/2000/svg">
<path d="M77.9966 15.9149C77.9966 11.9149 61.0264 0.914918 56.9544 0.914917C52.8823 0.914917 51.5284 26.2018 54.9184 26.8783C58.3083 27.5548 77.9966 19.3282 77.9966 15.9149Z" fill="#D3BB39"/>
<path d="M77.9966 16.265C77.9966 12.78 61.0264 1.91492 56.9544 1.91492C52.8823 1.91492 51.5284 27.2018 54.9184 27.8783C58.3083 28.5548 77.9966 19.6783 77.9966 16.265Z" fill="#FFE23F"/>
<path d="M56.9544 2.41492C57.3745 2.41492 58.0185 2.56009 58.86 2.85963C59.689 3.15473 60.6669 3.58377 61.738 4.11497C63.8793 5.177 66.3641 6.63294 68.7261 8.19974C71.0894 9.76743 73.3154 11.4365 74.9445 12.922C75.7601 13.6657 76.4136 14.3521 76.8591 14.9474C77.3213 15.5648 77.4966 16.0026 77.4966 16.265C77.4966 16.3604 77.4608 16.508 77.3411 16.7162C77.2229 16.9219 77.0386 17.1594 76.7832 17.4256C76.272 17.9584 75.5211 18.5603 74.5846 19.2023C72.7151 20.4838 70.1732 21.8797 67.5127 23.1544C64.854 24.4282 62.0937 25.5729 59.7934 26.3558C58.6426 26.7474 57.6155 27.0455 56.7787 27.2246C55.9194 27.4085 55.3302 27.4506 55.0162 27.388C54.9596 27.3767 54.8609 27.3311 54.7305 27.1657C54.5997 26.9997 54.4644 26.7465 54.3345 26.3951C54.0752 25.6934 53.8716 24.6954 53.7304 23.4785C53.4488 21.052 53.4264 17.8598 53.637 14.6759C53.8477 11.491 54.2895 8.34497 54.9242 6.00759C55.2426 4.83494 55.6016 3.89637 55.9863 3.26205C56.3878 2.59994 56.7245 2.41492 56.9544 2.41492Z" stroke="#D3BB39" stroke-linecap="round" stroke-linejoin="round"/>
<path d="M25.9969 16.0851C25.9969 12.0851 9.02677 1.08508 4.95474 1.08508C0.882715 1.08508 -0.471237 26.372 2.91873 27.0485C6.30869 27.725 25.9969 19.4984 25.9969 16.0851Z" fill="#D3BB39"/>
<path d="M25.997 16.4352C25.997 12.9501 9.02677 2.08508 4.95474 2.08508C0.882715 2.08508 -0.471236 27.372 2.91873 28.0485C6.30869 28.725 25.997 19.8484 25.997 16.4352Z" fill="#E4CA3F"/>
<path d="M4.95474 2.58508C5.37482 2.58508 6.01885 2.73025 6.86034 3.02979C7.68937 3.3249 8.66727 3.75394 9.73832 4.28514C11.8797 5.34716 14.3645 6.80311 16.7265 8.3699C19.0898 9.9376 21.3157 11.6067 22.9448 13.0922C23.7605 13.8359 24.414 14.5223 24.8595 15.1176C25.3216 15.735 25.497 16.1727 25.497 16.4352C25.497 16.5306 25.4612 16.6781 25.3415 16.8864C25.2233 17.092 25.0389 17.3295 24.7835 17.5957C24.2724 18.1285 23.5215 18.7304 22.585 19.3724C20.7154 20.654 18.1736 22.0499 15.513 23.3246C12.8544 24.5983 10.0941 25.7431 7.79376 26.5259C6.64292 26.9176 5.61585 27.2157 4.77903 27.3947C3.91974 27.5786 3.33055 27.6208 3.01658 27.5581C2.95999 27.5468 2.86128 27.5013 2.73086 27.3358C2.60003 27.1699 2.46474 26.9166 2.3349 26.5653C2.07556 25.8635 1.87198 24.8656 1.73075 23.6486C1.44916 21.2222 1.4268 18.0299 1.6374 14.8461C1.84807 11.6611 2.28985 8.51513 2.92454 6.17775C3.24296 5.00511 3.60196 4.06653 3.98663 3.43221C4.38815 2.77011 4.7249 2.58508 4.95474 2.58508Z" stroke="#D3BB39" stroke-linecap="round" stroke-linejoin="round"/>
<path d="M52 17.9907C52 10.4948 35.0298 1 30.9578 1C26.8858 1 25.5318 26.273 28.9218 26.9491C32.3117 27.6252 52 21.402 52 17.9907Z" fill="#D3BB39"/>
<path d="M52 18.3501C52 14.8651 35.0298 4 30.9578 4C26.8858 4 25.5318 29.2869 28.9218 29.9634C32.3117 30.6399 52 21.7633 52 18.3501Z" fill="#FFEA74"/>
<path d="M30.9578 4.5C31.3779 4.5 32.0219 4.64517 32.8634 4.94471C33.6924 5.23982 34.6703 5.66885 35.7414 6.20005C37.8827 7.26208 40.3675 8.71802 42.7295 10.2848C45.0929 11.8525 47.3188 13.5216 48.9479 15.0071C49.7636 15.7508 50.417 16.4372 50.8626 17.0325C51.3247 17.6499 51.5 18.0877 51.5 18.3501C51.5 18.4455 51.4642 18.5931 51.3446 18.8013C51.2264 19.0069 51.042 19.2444 50.7866 19.5107C50.2755 20.0435 49.5246 20.6454 48.588 21.2873C46.7185 22.5689 44.1766 23.9648 41.5161 25.2395C38.8574 26.5133 36.0971 27.658 33.7968 28.4408C32.646 28.8325 31.6189 29.1306 30.7821 29.3097C29.9228 29.4936 29.3336 29.5357 29.0196 29.473C28.963 29.4617 28.8643 29.4162 28.7339 29.2508C28.6031 29.0848 28.4678 28.8315 28.338 28.4802C28.0786 27.7785 27.875 26.7805 27.7338 25.5636C27.4522 23.1371 27.4299 19.9448 27.6405 16.761C27.8511 13.5761 28.2929 10.4301 28.9276 8.09267C29.246 6.92003 29.605 5.98145 29.9897 5.34713C30.3912 4.68502 30.728 4.5 30.9578 4.5Z" stroke="#D3BB39" stroke-linecap="round" stroke-linejoin="round"/>
</svg>
