<svg width="518" height="614" viewBox="0 0 518 614" fill="none" xmlns="http://www.w3.org/2000/svg">
<path d="M16.0897 317.17C16.2897 338.17 27.1997 357.7 32.4397 368.17C37.6797 378.64 50.6997 398.9 57.2797 406.75C63.8597 414.6 74.9297 436.17 78.8597 442.75C82.7897 449.33 89.9797 468.91 94.5497 478.06C99.1197 487.21 112.2 509.44 116.13 519.91C120.06 530.38 132.47 542.79 138.36 553.91C144.25 565.03 153.36 570.25 161.25 578.1C165.83 582.68 177.6 591.18 186.75 594.45C195.9 597.72 210.94 602.95 221.4 605.56C231.86 608.17 253.4 612.75 266.52 612.75C279.64 612.75 293.33 606.21 300.52 601.63C307.71 597.05 326.02 585.29 331.91 576.78C337.8 568.27 340.41 556.51 342.37 542.13C344.33 527.75 347.6 498.32 349.56 487.86C351.52 477.4 354.14 461.05 355.45 455.17C356.76 449.29 357.45 436.17 359.37 430.98C361.29 425.79 377.68 398.98 381.6 389.79C385.52 380.6 388.14 360.37 390.75 346.64C393.36 332.91 394.7 305.4 394.7 296.9C394.7 288.4 392.7 245.9 392.7 232.82C392.7 219.74 387.47 183.82 384.85 175.93C382.23 168.04 376.35 139.32 376.35 139.32C376.35 139.32 371.44 120.19 362.13 103.68C353.13 87.7501 339.82 74.5101 335.32 70.3301C326.17 61.8301 224.82 31.7601 194.09 42.2201C163.36 52.6801 105.18 65.1101 90.7897 82.1101C76.3997 99.1101 52.2197 136.38 49.5997 155.34C46.9797 174.3 37.8297 229.23 37.8297 229.23C37.8297 229.23 15.9297 300.54 16.0897 317.17Z" fill="#F5D233"/>
<path d="M162.7 413.95C162.7 413.95 152.24 417.87 147.01 416.57C141.78 415.27 129.36 413.3 129.36 413.3C129.36 413.3 133.94 415.92 140.48 424.41C147.02 432.9 147.02 432.91 150.94 441.41C154.86 449.91 167.29 457.1 169.94 462.33C172.59 467.56 177.79 474.75 178.44 480.64C179.09 486.53 179.75 500.91 180.44 504.83C181.13 508.75 185.02 531.64 189.59 541.45C194.16 551.26 198.09 565.64 207.9 572.83C217.71 580.02 231.44 582.64 238.63 588.52C245.82 594.4 245.82 598.33 262.82 598.98C279.82 599.63 291.59 597.67 304.01 592.44C316.43 587.21 323.01 576.09 326.89 565.63C330.77 555.17 333.43 542.09 337.35 531.63C339.765 525.229 342.831 519.094 346.5 513.32C346.5 513.32 343.23 536.69 342.5 540.86C341.77 545.03 339.8 560.72 336.86 568.32C333.92 575.92 331.22 578.86 323.86 586.22C323.86 586.22 302.77 601.67 296.4 604.61C290.03 607.55 278.26 613.19 272.12 613.19C265.98 613.19 253.24 613.44 238.77 609.76C224.3 606.08 218.66 606.33 206.16 601.67C193.66 597.01 181.4 595.54 169.38 585C165.634 582.244 162.032 579.296 158.59 576.17C155.4 572.98 146.59 565.38 146.59 565.38C146.59 565.38 144.05 552.96 142.26 549.11C140.47 545.26 135.56 538.89 134.33 537.18C133.1 535.47 125.26 524.92 123.54 521.97C121.82 519.02 117.9 509.97 116.92 507.97C115.94 505.97 111.7 489.13 111.7 489.13C111.7 489.13 104.34 476.38 101.4 470.98C98.4597 465.58 91.8397 451.61 90.6097 447.98C89.3797 444.35 79.8397 434.21 78.3697 431.54C76.8997 428.87 69.5397 416.34 69.5397 416.34C69.5397 416.34 62.5397 404.4 60.3897 402.04C58.2397 399.68 49.9297 387.41 49.9297 387.41C49.9297 387.41 38.6497 379.81 36.9297 376.86C35.2097 373.91 25.9297 356.02 24.4297 351.61C22.9297 347.2 18.5497 334.45 18.0497 331.26L16.0497 319.73C16.0497 319.73 7.21974 309.92 5.74974 305.51C4.27974 301.1 0.359737 293.51 1.08974 283.69C1.70864 277.037 2.95416 270.458 4.80974 264.04L8.40974 255.7L11.6997 250.15C11.6997 250.15 18.8897 238.71 21.8397 237.07C24.7897 235.43 28.0497 230.86 33.9397 227.26L37.8597 237.39C37.8597 237.39 42.1097 245.89 43.4197 248.18C44.7297 250.47 52.2497 256.02 52.2497 256.02C52.2497 256.02 57.8097 258.64 59.4397 258.64C61.0697 258.64 63.0397 258.64 63.6897 257.33C64.336 255.547 64.6742 253.666 64.6897 251.77C64.0397 239.35 69.2697 231.83 69.2697 231.83C69.2697 231.83 72.2097 263.83 77.1197 273.35C80.4797 279.84 85.6197 290.03 90.8497 294.27C96.0797 298.51 101.64 303.75 104.58 305.39C107.52 307.03 129.04 316.54 132.97 317.54C136.9 318.54 149.32 324.73 149.32 324.73C149.32 324.73 149.97 334.21 148.99 340.1C147.909 345.877 146.378 351.561 144.41 357.1C143.1 360.7 143.41 368.54 143.41 368.54C143.41 368.54 138.5 373.77 137.2 376.39C135.9 379.01 134.26 387.18 135.57 390.78C136.88 394.38 141.47 401.54 145.7 403.48C149.93 405.42 162.7 413.95 162.7 413.95Z" fill="#EC9B4B"/>
<path d="M339.26 469.03C339.59 466.86 339.75 450.88 340.26 445.03C340.77 439.18 341.26 421.03 342.26 418.03C343.26 415.03 346.67 402.83 346.67 402.83C346.67 402.83 353.37 401.52 356.97 398.58C360.57 395.64 364.49 388.77 365.14 384.85C365.79 380.93 364.49 373.73 360.89 368.17C357.29 362.61 349.12 359.02 349.12 359.02L341.6 354.77C341.6 354.77 336.4 330.07 347.52 321.57C350.28 319.46 369.35 312.94 377.52 299.57C381.29 293.39 383.29 280.13 383.94 275.57C384.59 271.01 384.27 247.46 385.94 242.88C387.61 238.3 390.19 262.17 391.17 267.73C392.15 273.29 389.77 310.03 388.94 317.5C386.71 337.56 384.72 353.69 383.74 357.62C380.03 372.48 375.96 389.12 374.66 391.74C371.612 397.873 368.116 403.772 364.2 409.39C359.53 415.54 354.7 424.45 352.7 440.75C351.82 447.87 341.58 470.83 341.26 472.75C340.94 474.67 338.93 471.15 339.26 469.03Z" fill="#EC9B4B"/>
<path d="M123.16 147.54C123.16 147.54 137.87 142.64 141.16 141.66C149.145 139.197 157.361 137.555 165.68 136.76C177.12 135.76 190.53 135.76 195.76 135.76C200.99 135.76 212.43 137.07 215.38 137.39C218.33 137.71 231.38 140.01 236.3 141.31C241.22 142.61 252.3 144.58 256.9 145.24C261.5 145.9 269.98 146.55 272.9 146.55C275.82 146.55 283.36 145.24 289.57 144.55C295.78 143.86 303.63 141.6 306.57 141.28C309.51 140.96 318.67 138.67 321.94 138.67C325.21 138.67 334.04 138.34 341.88 138.67C349.72 139 360.51 139.67 362.15 139.67C363.79 139.67 358.23 142.61 353 144.58C347.77 146.55 320.63 148.5 310.5 150.79C300.37 153.08 270.94 156.02 251 154.71C231.06 153.4 211.11 145.23 199.35 145.23C187.59 145.23 160.12 145.56 152.6 146.86C145.08 148.16 120.54 151.42 123.16 147.54Z" fill="#EC9B4B"/>
<path d="M120.22 106.3C119.69 103.66 130.03 96.1701 137.22 93.2201C144.41 90.2701 158.79 78.8401 182.7 79.1701C206.61 79.5001 226.51 84.0801 236.64 85.0501C246.77 86.0201 279.14 85.3801 292.54 83.7401C305.94 82.1001 330.79 88.6401 332.75 90.9301C334.71 93.2201 320.65 89.6201 312.15 89.9301C303.65 90.2401 271.94 97.4501 267.03 98.4301C262.12 99.4101 229.7 99.4401 216.7 97.1501C203.7 94.8601 185.08 91.6401 175.83 91.9201C154.22 92.5401 120.54 107.94 120.22 106.3Z" fill="#EC9B4B"/>
<path d="M164.35 67.3998C164.92 65.8698 182 63.7998 198.02 62.1698C214.04 60.5398 255.23 63.1698 264.02 64.1698C272.81 65.1698 297.37 68.4198 299.02 70.0498C300.67 71.6798 271.91 72.6298 264.7 72.2998C257.49 71.9698 234.95 72.9498 207.82 69.3598C186 66.4698 163.37 70.0098 164.35 67.3998Z" fill="#EC9B4B"/>
<path d="M95.3697 171.69C98.3097 169.4 99.9497 163.19 100.93 158.94C101.91 154.69 100.6 137.04 100.6 131.48C100.6 125.92 101.6 114.15 103.54 108.92C105.48 103.69 105.18 94.5301 104.19 91.2601C103.2 87.9901 94.6997 96.5401 89.8097 103.03C84.9197 109.52 83.5997 117.74 85.8897 124.28C88.1797 130.82 94.6997 155.34 94.6997 158.61C94.6997 161.88 93.5497 173.11 95.3697 171.69Z" fill="#EC9B4B"/>
<path d="M10.0397 252.11C10.0397 252.11 10.6897 243.61 10.6897 237.72C10.6897 227.91 6.10974 212.88 8.68974 203.07C8.68974 203.07 10.6897 166.45 9.33974 159.26C7.98974 152.07 6.76974 132.46 8.69974 109.54C10.1697 92.38 14.8497 83.2 22.4297 69.66C31.6197 53.34 46.0097 41.54 46.0097 41.54C46.0097 41.54 44.0097 52.65 45.3497 55.27C60.7397 45.27 79.8497 35.95 91.1197 33.69C104.2 31.07 135.77 14.1 150.62 12.77C162.96 11.7 176.45 7.47 189.2 7.54C194.45 7.54 239.55 1 239.55 1C239.55 1 231.7 8.23 227.11 12.95C259.01 15.09 281.82 16.07 291.86 16.07C309.51 16.07 333.05 22.61 333.05 22.61L318.7 27.19C330.47 27.19 341.58 37 346.16 40.92C350.74 44.84 361.85 52.03 361.85 52.03L346.16 55.3L364.47 71.64C364.47 71.64 342.24 72.29 332.47 72.29C322.7 72.29 255.97 65.75 245.47 64.45C234.97 63.15 193.16 63.79 178.12 65.76C163.08 67.73 142.12 70.99 120.58 79.49C112.46 82.69 93.7697 97.15 87.8897 108.26C82.0097 119.37 95.0597 148.48 95.7397 158.61C97.0497 178.23 85.9297 197.19 77.4297 205.69C62.4297 220.69 64.3497 244.26 64.3497 254.07C64.3497 263.88 47.3497 256.07 42.1197 246.23C40.7397 243.65 33.6197 227.23 33.6197 227.23C33.6197 227.23 22.3897 236.57 17.2697 242.6C11.6997 249.17 10.0397 252.11 10.0397 252.11Z" fill="#682527"/>
<path d="M275.18 239.54C271.75 232.68 270.77 226.3 267.82 216.54C264.87 206.78 265.37 199.87 266.82 195.46C268.27 191.05 274.18 182.22 279.57 175.84C284.96 169.46 295.75 161.13 303.57 158.18C311.39 155.23 323.68 152.3 331.57 153.28C339.46 154.26 353.15 159.65 358.57 164.56C363.99 169.47 370.57 182.22 372.79 189.56C377.2 204.27 375.73 214.56 374.79 221.44C373.85 228.32 372.34 242.53 366.45 248.9C360.56 255.27 354.68 262.14 344.38 264.1C334.651 265.831 324.781 266.647 314.9 266.54C306.07 266.54 298.72 265.07 293.32 260.66C287.92 256.25 279.1 247.37 275.18 239.54Z" fill="#FAFCB5"/>
<path d="M201.13 268.46C192.65 273.09 182.99 270.91 177.13 270.91C171.27 270.91 160.46 268.46 152.61 266.99C144.76 265.52 135.94 259.15 131.03 253.26C126.12 247.37 121.7 236.09 119.7 223.83C117.7 211.57 119.21 189.99 122.64 182.63C126.07 175.27 136.86 164 142.75 159.63C148.64 155.26 161.39 150.31 169.23 150.31C177.07 150.31 185.9 154.23 196.69 157.67C207.48 161.11 215.81 168.46 221.21 173.85C226.61 179.24 233.96 192 234.45 198.85C234.94 205.7 234.94 223.37 231.02 233.18C227.1 242.99 219.74 254.27 214.84 258.68C210.718 262.527 206.109 265.815 201.13 268.46Z" fill="#FAFCB5"/>
<path d="M115.15 149.79C111.15 150.72 101.42 154.37 102.07 145.21C102.72 136.05 102.7 134.75 117.76 127.54C132.82 120.33 140.64 116.42 153.76 115.77C166.88 115.12 197.57 120.35 211.3 123.62C225.03 126.89 252.49 127.54 264.3 127.54C276.11 127.54 300.92 122.31 313.99 119.69C327.06 117.07 352.57 115.77 364.34 119.04C379.48 123.25 384.73 128.81 385.26 131.46C386.57 138 379.38 139.96 365.64 139.96C351.9 139.96 334.25 137.96 321.18 139.31C308.11 140.66 284.5 147.17 268.8 146.54C253.1 145.91 231.53 140.66 218.45 138.04C205.37 135.42 165.45 136.04 155.68 138.04C145.91 140.04 123.65 147.83 115.15 149.79Z" fill="#F5D233"/>
<path d="M46.9797 323.71C42.9797 324.82 14.9797 318.81 9.70973 295.93C4.57973 273.49 8.70973 261.6 14.6097 252.45C20.5097 243.3 30.9597 234.45 32.6097 235.78C34.2597 237.11 46.0097 264.87 49.9397 279.91C53.8697 294.95 58.7497 320.44 46.9797 323.71Z" fill="#F5D233"/>
<path d="M187.24 165.47C188.98 165.22 199.34 165.47 205.55 170.7C211.76 175.93 220.91 183.45 223.86 192.28C226.81 201.11 226.8 217.13 225.5 222.03C224.2 226.93 217.65 235.76 214.71 236.74C211.77 237.72 209.48 237.07 210.13 232.49C210.78 227.91 214.38 215.17 214.05 210.59C213.72 206.01 213.72 197.19 212.05 191.3C210.38 185.41 204.53 178.55 201.59 175.61C198.65 172.67 191.13 167.44 188.51 167.44C185.89 167.44 184.95 165.8 187.24 165.47Z" fill="#E6D1F3"/>
<path d="M356.58 239.69C355.27 240.69 356.58 234.13 356.25 226.94C356.11 223.84 354.25 218.77 354.25 210.59C354.25 205.02 351.96 194.59 349.35 188.36C346.74 182.13 342.48 174.95 337.25 171.68C332.02 168.41 325.2 164.54 324.22 163.54C323.24 162.54 323.89 161.9 326.83 161.9C330.937 161.998 335.01 162.672 338.93 163.9C342.85 165.21 351.35 169.78 354.3 173.05C357.25 176.32 363.78 185.8 365.74 191.36C367.7 196.92 368.36 208.69 368.36 214.25C368.36 219.81 366.07 226.34 365.09 229.25C364.11 232.16 359.31 237.64 356.58 239.69Z" fill="#E6D1F3"/>
<path d="M164.54 201.45L166.74 211.91" stroke="#324265" stroke-linecap="round" stroke-linejoin="round"/>
<path d="M159.35 208.18L170.79 205.32" stroke="#324265" stroke-linecap="round" stroke-linejoin="round"/>
<path d="M161.72 203.68L169.93 210.06" stroke="#324265" stroke-linecap="round" stroke-linejoin="round"/>
<path d="M162.21 211.86L168.85 202.65" stroke="#324265" stroke-linecap="round" stroke-linejoin="round"/>
<path d="M344.32 203.91L354.99 203.18" stroke="#324265" stroke-linecap="round" stroke-linejoin="round"/>
<path d="M349.53 208.59L350.01 199.44" stroke="#324265" stroke-linecap="round" stroke-linejoin="round"/>
<path d="M346.14 207.01L353.6 199.75" stroke="#324265" stroke-linecap="round" stroke-linejoin="round"/>
<path d="M353.61 207.36L346.1 199.8" stroke="#324265" stroke-linecap="round" stroke-linejoin="round"/>
<path d="M274.85 239.2C271.42 232.34 270.44 225.96 267.49 216.2C264.54 206.44 265.04 199.52 266.49 195.12C267.94 190.72 273.85 181.88 279.24 175.5C284.63 169.12 295.42 160.79 303.24 157.85C311.06 154.91 323.35 151.96 331.24 152.95C339.13 153.94 352.82 159.32 358.24 164.23C363.66 169.14 370.24 181.89 372.46 189.23C376.87 203.94 375.4 214.23 374.46 221.11C373.52 227.99 372.01 242.2 366.12 248.57C360.23 254.94 354.35 261.81 344.05 263.77C334.341 265.501 324.491 266.321 314.63 266.22C305.8 266.22 298.45 264.75 293.05 260.33C287.65 255.91 278.78 247.04 274.85 239.2Z" stroke="black" stroke-linecap="round" stroke-linejoin="round"/>
<path d="M200.8 268.13C192.32 272.76 182.66 270.58 176.8 270.58C170.94 270.58 160.13 268.13 152.28 266.66C144.43 265.19 135.61 258.82 130.7 252.93C125.79 247.04 121.36 235.76 119.4 223.54C117.44 211.32 118.91 189.7 122.34 182.34C125.77 174.98 136.56 163.71 142.45 159.34C148.34 154.97 161.09 150.03 168.93 150.03C176.77 150.03 185.6 153.95 196.39 157.39C207.18 160.83 215.51 168.18 220.91 173.57C226.31 178.96 233.66 191.72 234.15 198.57C234.64 205.42 234.64 223.09 230.72 232.9C226.8 242.71 219.44 253.99 214.54 258.4C210.406 262.231 205.786 265.502 200.8 268.13V268.13Z" stroke="black" stroke-linecap="round" stroke-linejoin="round"/>
<path d="M253.65 230.54C253.65 230.54 257.28 241.36 258.65 245.06C261.59 252.91 262.57 258.3 263.55 261.24C264.53 264.18 267.17 271.6 267.96 274.97C269.96 283.31 272.37 290.66 272.37 292.62C272.37 294.58 275.8 305.86 276.78 310.28C277.76 314.7 277.27 320.58 272.86 321.56C268.45 322.54 257.17 326.47 250.3 326.47C243.43 326.47 236.57 325.47 230.68 326.47C224.79 327.47 217.44 325.98 217.44 325.98" stroke="black" stroke-linecap="round" stroke-linejoin="round"/>
<path d="M160.59 390.72C160.59 390.72 173.83 384.84 179.22 383.36C184.61 381.88 209.62 376.36 261.61 372.57C292.44 370.34 317.51 372.08 327.32 374.04C337.13 376 348.41 381.88 348.41 381.88" stroke="black" stroke-linecap="round" stroke-linejoin="round"/>
<path d="M361.2 279.25C361.2 279.25 348.49 285.78 341.55 286.83C330.14 288.55 319.83 288.38 305.1 280.54C296.96 276.21 290.69 267.82 290.69 267.82" stroke="black" stroke-linecap="round" stroke-linejoin="round"/>
<path d="M222.44 263.42C222.44 263.42 211.98 279.42 196.44 286.22C180.9 293.02 156.85 293.83 145.33 288.22" stroke="black" stroke-linecap="round" stroke-linejoin="round"/>
<path d="M161.57 357.38C161.57 357.38 151.76 361.6 145.39 366.7C135.58 374.55 133.62 384.84 136.07 392.2C138.43 399.29 144.41 403.48 153.23 406.91C162.05 410.34 172.85 409.37 172.85 409.37" stroke="black" stroke-linecap="round" stroke-linejoin="round"/>
<path d="M345.47 357.38C345.47 357.38 357.24 363.26 361.16 368.66C365.08 374.06 368.03 383.37 361.65 393.66C355.27 403.95 338.11 403.96 338.11 403.96" stroke="black" stroke-linecap="round" stroke-linejoin="round"/>
<path d="M369.17 118.73C362.7 102.84 353.48 87.35 337.79 72.96" stroke="black" stroke-linecap="round" stroke-linejoin="round"/>
<path d="M16.0897 317.54C17.3997 338.46 27.1997 358.08 32.4397 368.54C37.6797 379 50.6997 399.23 57.2797 407.07C63.8597 414.91 74.9297 436.49 78.8597 443.07C82.7897 449.65 89.9797 469.22 94.5497 478.37C99.1197 487.52 112.2 509.76 116.13 520.22C120.06 530.68 132.48 543.11 138.36 554.22C144.24 565.33 153.36 570.56 161.25 578.41C165.83 582.99 177.6 591.49 186.75 594.76C195.9 598.03 210.94 603.26 221.4 605.88C231.86 608.5 253.4 613.07 266.52 613.07C279.64 613.07 293.33 606.53 300.52 601.95C307.71 597.37 326.02 585.61 331.91 577.1C337.8 568.59 340.41 556.83 342.37 542.45C344.33 528.07 347.6 498.64 349.56 488.18C351.52 477.72 354.14 461.37 355.44 455.49C356.74 449.61 357.44 436.49 359.36 431.3C361.28 426.11 377.67 399.3 381.59 390.11C385.51 380.92 388.13 360.69 390.74 346.95C393.35 333.21 394.7 305.73 394.7 297.23C394.7 288.73 392.7 246.23 392.7 233.15C392.7 220.07 387.47 184.15 384.85 176.26C382.23 168.37 376.35 139.65 376.35 139.65" stroke="black" stroke-linecap="round" stroke-linejoin="round"/>
<path d="M46.8197 335.15C46.8197 335.15 10.2097 329.27 2.35973 295.27C-2.69027 273.38 8.89973 242.96 34.3597 227.27" stroke="black" stroke-linecap="round" stroke-linejoin="round"/>
<path d="M10.2097 252.11C10.2097 252.11 10.8597 243.61 10.8597 237.72C10.8597 227.91 6.27974 212.88 8.85974 203.07C8.85974 203.07 10.8597 166.45 9.51974 159.26C8.17974 152.07 6.93974 132.46 8.89974 109.54C10.3697 92.38 15.0497 83.2 22.6297 69.66C31.7797 53.35 46.1697 41.54 46.1697 41.54C46.1697 41.54 44.1697 52.65 45.5097 55.27C60.8997 45.27 80.0097 35.95 91.2797 33.69C104.36 31.07 135.93 14.1 150.78 12.77C163.12 11.66 176.61 7.44004 189.36 7.54004C194.62 7.62004 239.7 1.04004 239.7 1.04004C239.7 1.04004 231.85 8.23004 227.26 12.96C259.16 15.1 281.97 16.08 292 16.08C309.65 16.08 333.19 22.62 333.19 22.62L318.8 27.19C330.57 27.19 341.68 37 346.26 40.92C350.84 44.84 361.98 52.04 361.98 52.04L346.29 55.31L364.6 71.65C364.6 71.65 342.37 72.3 332.6 72.3C322.83 72.3 256.1 65.76 245.6 64.45C235.1 63.14 193.29 63.8 178.25 65.76C163.21 67.72 142.28 71 120.7 79.54C112.58 82.74 93.8897 97.2 88.0097 108.31C82.1297 119.42 95.1797 148.53 95.8597 158.66C97.1697 178.28 86.0497 197.24 77.5497 205.74C62.5497 220.74 64.4697 244.31 64.4697 254.12C64.4697 263.93 47.4697 256.12 42.2397 246.28C40.8697 243.7 33.7397 227.28 33.7397 227.28" stroke="black" stroke-linecap="round" stroke-linejoin="round"/>
<path d="M114.82 149.46C110.82 150.39 101.09 154.04 101.74 144.88C102.39 135.72 102.39 134.42 117.43 127.22C132.47 120.02 140.31 116.1 153.43 115.45C166.55 114.8 197.24 120.03 210.97 123.3C224.7 126.57 252.16 127.22 263.97 127.22C275.78 127.22 300.59 121.99 313.66 119.37C326.73 116.75 352.24 115.45 364.01 118.72C379.15 122.93 384.4 128.49 384.93 131.14C386.24 137.68 379.05 139.64 365.31 139.64C351.57 139.64 333.92 137.64 320.85 138.99C307.78 140.34 284.23 146.83 268.54 146.18C252.85 145.53 231.27 140.3 218.19 137.68C205.11 135.06 165.19 135.68 155.42 137.68C145.65 139.68 123.32 147.54 114.82 149.46Z" stroke="black" stroke-linecap="round" stroke-linejoin="round"/>
<path d="M130.51 314.88C130.51 314.88 109.59 310.3 103.05 304.42C96.5097 298.54 88.6997 293.96 81.4797 281.54C77.4197 274.54 71.6997 261.92 71.6997 249.54" stroke="black" stroke-linecap="round" stroke-linejoin="round"/>
<path d="M114.82 108.27C114.82 108.27 133.49 97.8 140.32 95.19C162.55 86.69 173.67 86.04 186.09 86.04C198.51 86.04 216.82 91.27 229.24 93.89C241.66 96.51 259.97 95.89 274.36 92.58C288.75 89.27 308.36 86.04 321.44 88.01C331.015 89.5648 340.152 93.1297 348.25 98.47" stroke="black" stroke-linecap="round" stroke-linejoin="round"/>
<path d="M384.13 268.9C384.13 268.9 382.8 290.23 378.8 297.57C374.8 304.91 362.8 316.9 348.8 319.57" stroke="black" stroke-linecap="round" stroke-linejoin="round"/>
<path d="M416.7 444.44C415.3 444.44 400.99 435.11 389.37 426.65C383.37 422.27 376.54 417.22 369.53 411.97C362.79 406.97 345.84 397.51 339.28 392.53C320.22 378.04 316.07 377.02 316.07 377.02C316.07 377.02 312.95 375.84 314.59 371.9C316.23 367.96 322.98 366.7 322.98 366.7C322.98 366.7 326.18 365.78 330.49 368.7C334.8 371.62 354.17 379.22 358.75 380.7C363.33 382.18 373.32 385.52 373.32 385.52L387.71 389.7L400.71 396.35L412.71 401.9L422.89 405.9L431.78 410.27L442.88 417.48C442.88 417.48 450.33 431.29 451.81 436.41C453.29 441.53 455.41 446.47 452.94 449.96C450.47 453.45 451.22 455.96 442.15 455.85C433.08 455.74 424.46 449.85 424.46 449.85L416.7 444.44Z" fill="#F9FFFF"/>
<path d="M442.25 417.7C439.074 417.621 435.925 418.307 433.07 419.7C431.501 420.593 430.069 421.708 428.82 423.01C428.82 423.01 421.26 428.83 420.3 430.01C419.34 431.19 418.07 432.21 418.49 434.56C418.91 436.91 418.91 439.64 419.61 442.04C420.282 444.345 421.229 446.561 422.43 448.64C423.43 450.3 426.75 451.43 427.68 451.94C429.993 453.139 432.381 454.188 434.83 455.08C436.08 455.37 440.16 456.41 442.34 456.3C444.52 456.19 447.7 455.93 449.07 455.3C450.44 454.67 451.36 452.43 451.36 452.43C452.417 451.49 453.193 450.275 453.6 448.92C454.064 446.988 454.105 444.979 453.72 443.03C453.42 441.55 451.72 437.09 451.72 437.09L447.72 427.43L444.29 420.48L442.25 417.7Z" fill="#3A3A3D"/>
<path d="M443.89 448.19C443.46 449.04 441.08 450.19 440.89 449.45C440.7 448.71 441.07 446.02 441.89 445.53C442.71 445.04 445.22 445.54 443.89 448.19Z" fill="#DA4F4D"/>
<path d="M430.08 449.05C429.08 449.05 429.15 446.72 430.21 446.8C431.27 446.88 431.63 448.99 430.08 449.05Z" fill="#DA4F4D"/>
<path d="M425.48 433.98C425.56 432.8 429.68 432.77 428.48 435.21C427.28 437.65 425.38 435.44 425.48 433.98Z" fill="#DA4F4D"/>
<path d="M433.62 427.47C434.48 425.63 436.18 428.68 435.79 429.58C435.4 430.48 433.05 428.67 433.62 427.47Z" fill="#DA4F4D"/>
<path d="M445.28 437.25C445.1 438.25 442.17 436.85 442.73 435.64C443.29 434.43 445.7 435.05 445.28 437.25Z" fill="#DA4F4D"/>
<path d="M416.51 444.85C415.11 444.85 400.8 435.52 389.18 427.06C383.18 422.68 376.35 417.63 369.34 412.38C362.6 407.38 345.65 397.92 339.09 392.94C320.03 378.45 315.88 377.43 315.88 377.43C315.88 377.43 312.76 376.25 314.4 372.31C316.04 368.37 322.79 367.12 322.79 367.12C322.79 367.12 325.99 366.2 330.3 369.12C334.61 372.04 353.98 379.64 358.56 381.12C363.14 382.6 373.13 385.94 373.13 385.94L387.52 390.11L400.52 396.76L412.52 402.31L422.7 406.31L431.59 410.68L442.69 417.89C442.69 417.89 450.14 431.7 451.62 436.82C453.1 441.94 455.22 446.88 452.75 450.37C450.28 453.86 451.03 456.37 441.96 456.26C432.89 456.15 424.27 450.26 424.27 450.26L416.51 444.85Z" stroke="black" stroke-linecap="round" stroke-linejoin="round"/>
<path d="M486.37 403.19C486.37 403.19 495.07 402.07 494.53 405" stroke="black" stroke-linecap="round" stroke-linejoin="round"/>
<path d="M490.86 437.97L494.97 435.4" stroke="black" stroke-linecap="round" stroke-linejoin="round"/>
<path d="M512.7 419.88C512.7 419.88 516.09 419.6 516.83 422.16" stroke="black" stroke-linecap="round" stroke-linejoin="round"/>
<path d="M471.77 424.75L475.43 423" stroke="black" stroke-linecap="round" stroke-linejoin="round"/>
<path d="M438.13 447.63L441.15 446.07" stroke="black" stroke-linecap="round" stroke-linejoin="round"/>
<path d="M433.98 435.65L438.38 436.46" stroke="black" stroke-linecap="round" stroke-linejoin="round"/>
<path d="M425.21 443.73C425.21 443.73 428.68 441.34 431.16 442.73" stroke="black" stroke-linecap="round" stroke-linejoin="round"/>
<path d="M443.76 428.66L449.99 431.03" stroke="black" stroke-linecap="round" stroke-linejoin="round"/>
<path d="M449.47 438.81L454.32 438.8" stroke="black" stroke-linecap="round" stroke-linejoin="round"/>
<path d="M442.7 417.86C435.7 417.79 431.44 419.72 429.43 422.38C427.42 425.04 420.29 429.18 418.92 431.66C417.55 434.14 419.51 448.14 424.28 450.24" stroke="black" stroke-linecap="round" stroke-linejoin="round"/>
<path d="M324.7 370.39C324.7 370.39 322.15 368.18 319.29 368.48" stroke="black" stroke-linecap="round" stroke-linejoin="round"/>
<path d="M319.39 374.86C319.39 374.86 316.2 374.04 315.53 371.12" stroke="black" stroke-linecap="round" stroke-linejoin="round"/>
<path d="M420.93 421.37C422.501 422.639 423.954 424.048 425.27 425.58" stroke="black" stroke-linecap="round" stroke-linejoin="round"/>
<path d="M416.54 437.73L418.54 439.24" stroke="black" stroke-linecap="round" stroke-linejoin="round"/>
<path d="M399.16 423.54C399.16 423.54 394.9 423.21 392.97 420.12" stroke="black" stroke-linecap="round" stroke-linejoin="round"/>
<path d="M385.7 414.87C385.7 414.87 389.22 419.87 393.82 419.55" stroke="black" stroke-linecap="round" stroke-linejoin="round"/>
<path d="M450.8 404.9C450.8 404.9 443.47 395.57 451.47 394.23C459.47 392.89 459.47 380.23 455.47 376.9C451.47 373.57 438.8 372.9 438.8 376.23C438.8 379.56 442.13 387.54 442.13 387.54C442.13 387.54 436.8 389.54 436.8 393.54C436.8 397.54 442.8 409.54 450.8 404.9Z" fill="#FAFCB5"/>
<path d="M430.13 375.54C420.53 370.3 424.13 364.21 431.46 363.54C438.79 362.87 445.46 372.21 442.13 375.54C438.8 378.87 437.46 379.54 430.13 375.54Z" fill="#FAFCB5"/>
<path d="M439.46 358.9C436.82 355.82 441.8 352.48 445.46 351.57C450.79 350.24 456.13 356.9 452.13 360.9C448.13 364.9 443.46 363.54 439.46 358.9Z" fill="#FAFCB5"/>
<path d="M426.13 353.54C426.94 347.9 428.13 341.54 432.13 341.54C436.13 341.54 444.13 345.54 444.13 345.54C444.13 345.54 444.13 352.21 441.46 354.87C438.79 357.53 425.46 358.24 426.13 353.54Z" fill="#FAFCB5"/>
<path d="M430.8 348.24C430.8 348.24 432.8 342.91 426.8 342.91C423.092 342.987 419.538 344.409 416.8 346.91C416.8 346.91 421.47 354.91 426.13 353.58C430.79 352.25 430.8 348.24 430.8 348.24Z" fill="#FAFCB5"/>
<path d="M412.13 336.9C413.36 334.44 422.8 333.57 420.13 339.57C419.52 340.93 408.79 343.54 412.13 336.9Z" fill="#FAFCB5"/>
</svg>
