<svg width="113" height="12" viewBox="0 0 113 12" fill="none" xmlns="http://www.w3.org/2000/svg">
<path d="M1.23206 7.206C1.12939 7.11267 1.05473 6.99133 1.00806 6.842C0.961394 6.69267 0.938061 6.53867 0.938061 6.38C0.938061 6.212 0.961394 6.05333 1.00806 5.904C1.06406 5.74533 1.13873 5.61467 1.23206 5.512C1.23206 5.344 1.22273 5.08733 1.20406 4.742C1.19473 4.38733 1.18073 4.00933 1.16206 3.608C1.14339 3.20667 1.12939 2.81467 1.12006 2.432C1.11073 2.04933 1.11073 1.74133 1.12006 1.508C1.16673 1.35867 1.25539 1.22333 1.38606 1.102C1.51673 0.971333 1.67073 0.868666 1.84806 0.794C2.03473 0.719333 2.23539 0.677333 2.45006 0.668C2.66473 0.649333 2.87939 0.672666 3.09406 0.737999C3.16873 0.868666 3.22473 1.074 3.26206 1.354C3.30873 1.634 3.34139 1.96533 3.36006 2.348C3.38806 2.73067 3.40673 3.15533 3.41606 3.622C3.43473 4.07933 3.44873 4.56 3.45806 5.064C3.86873 5.04533 4.38206 5.01267 4.99806 4.966C5.61406 4.91 6.35606 4.83533 7.22406 4.742C7.21473 4.518 7.20539 4.294 7.19606 4.07C7.19606 3.846 7.19139 3.59867 7.18206 3.328C7.18206 3.05733 7.18206 2.75867 7.18206 2.432C7.18206 2.10533 7.18206 1.72733 7.18206 1.298C7.26606 1.05533 7.41073 0.873333 7.61606 0.751999C7.82139 0.630666 8.04539 0.569999 8.28806 0.569999C8.47473 0.569999 8.65673 0.616666 8.83406 0.71C9.01139 0.794 9.15139 0.915333 9.25406 1.074C9.29139 1.44733 9.32406 1.86733 9.35206 2.334C9.38006 2.79133 9.39873 3.27667 9.40806 3.79C9.41739 4.30333 9.42206 4.83533 9.42206 5.386C9.43139 5.92733 9.43606 6.464 9.43606 6.996C9.43606 7.612 9.43606 8.20933 9.43606 8.788C9.43606 9.36667 9.44539 9.894 9.46406 10.37C9.41739 10.6127 9.29139 10.7993 9.08606 10.93C8.88073 11.0607 8.64273 11.126 8.37206 11.126C8.1574 11.126 7.94273 11.0747 7.72806 10.972C7.52273 10.8693 7.36873 10.7013 7.26606 10.468C7.26606 10.188 7.26606 9.88933 7.26606 9.572C7.27539 9.24533 7.28006 8.914 7.28006 8.578C7.28939 8.242 7.29406 7.91067 7.29406 7.584C7.29406 7.25733 7.29406 6.94933 7.29406 6.66C6.99539 6.688 6.64073 6.72533 6.23006 6.772C5.82873 6.81867 5.43206 6.86533 5.04006 6.912C4.65739 6.94933 4.31206 6.99133 4.00406 7.038C3.69606 7.07533 3.48606 7.108 3.37406 7.136C3.35539 7.22 3.34606 7.40667 3.34606 7.696C3.35539 7.976 3.36473 8.28867 3.37406 8.634C3.38339 8.97933 3.39273 9.32467 3.40206 9.67C3.41139 10.006 3.41606 10.2673 3.41606 10.454C3.41606 10.594 3.38339 10.7153 3.31806 10.818C3.25273 10.9207 3.16873 11.0047 3.06606 11.07C2.96339 11.1447 2.84673 11.196 2.71606 11.224C2.58539 11.2613 2.45006 11.28 2.31006 11.28C2.09539 11.28 1.89473 11.238 1.70806 11.154C1.52139 11.0793 1.39073 10.9533 1.31606 10.776L1.23206 7.206ZM10.9295 10.706C10.9108 10.622 10.9481 10.4307 11.0415 10.132C11.1348 9.824 11.2608 9.45067 11.4195 9.012C11.5781 8.564 11.7648 8.06933 11.9795 7.528C12.2035 6.97733 12.4368 6.422 12.6795 5.862C12.9221 5.29267 13.1648 4.742 13.4075 4.21C13.6501 3.66867 13.8788 3.17867 14.0935 2.74C14.0935 2.73067 14.0888 2.726 14.0795 2.726C14.0701 2.71667 14.0655 2.70733 14.0655 2.698C14.0188 2.60467 13.9675 2.51133 13.9115 2.418C13.8648 2.32467 13.8041 2.18467 13.7295 1.998C13.8881 1.634 14.0748 1.34933 14.2895 1.144C14.5041 0.929333 14.7981 0.807999 15.1715 0.78C15.3768 0.836 15.6008 0.999333 15.8435 1.27C16.0861 1.54067 16.3288 1.87667 16.5715 2.278C16.8235 2.67933 17.0755 3.132 17.3275 3.636C17.5795 4.14 17.8221 4.658 18.0555 5.19C18.2981 5.722 18.5268 6.254 18.7415 6.786C18.9561 7.30867 19.1475 7.794 19.3155 8.242C19.4928 8.69 19.6375 9.082 19.7495 9.418C19.8708 9.74467 19.9595 9.98267 20.0155 10.132C19.9595 10.2627 19.8615 10.3933 19.7215 10.524C19.5908 10.6453 19.4368 10.7573 19.2595 10.86C19.0915 10.9533 18.9141 11.0233 18.7275 11.07C18.5501 11.126 18.3915 11.14 18.2515 11.112C18.0741 10.7667 17.9155 10.4307 17.7755 10.104C17.6448 9.77733 17.5235 9.488 17.4115 9.236V9.18C16.8048 9.25467 16.1515 9.334 15.4515 9.418C14.7608 9.49267 14.1028 9.56733 13.4775 9.642C13.4588 9.66067 13.4401 9.68867 13.4215 9.726C13.4121 9.754 13.3888 9.81 13.3515 9.894C13.3235 9.978 13.2768 10.0993 13.2115 10.258C13.1461 10.4167 13.0575 10.636 12.9455 10.916C12.8801 11.0467 12.7728 11.1447 12.6235 11.21C12.4741 11.2847 12.3061 11.322 12.1195 11.322C11.9421 11.322 11.7508 11.2847 11.5455 11.21C11.3495 11.1447 11.1768 11.042 11.0275 10.902L10.9295 10.706ZM16.6835 7.248C16.6088 7.04267 16.5201 6.81867 16.4175 6.576C16.3241 6.33333 16.2215 6.09067 16.1095 5.848C15.9975 5.60533 15.8855 5.372 15.7735 5.148C15.6708 4.91467 15.5728 4.70467 15.4795 4.518C15.4515 4.58333 15.4188 4.66733 15.3815 4.77C15.3441 4.86333 15.2788 5.01733 15.1855 5.232C15.0921 5.44667 14.9661 5.74533 14.8075 6.128C14.6488 6.50133 14.4388 7.00067 14.1775 7.626L16.6835 7.248ZM21.6595 10.65C21.6315 10.5287 21.6128 10.2673 21.6035 9.866C21.5941 9.46467 21.5848 8.99333 21.5755 8.452C21.5661 7.90133 21.5568 7.31333 21.5475 6.688C21.5475 6.06267 21.5475 5.47 21.5475 4.91C21.5475 4.34067 21.5428 3.83667 21.5335 3.398C21.5335 2.95 21.5288 2.63733 21.5195 2.46C21.4355 2.32933 21.3748 2.20333 21.3375 2.082C21.3095 1.95133 21.2861 1.79267 21.2675 1.606C21.3328 1.45667 21.4355 1.32133 21.5755 1.2C21.7155 1.06933 21.8601 0.957333 22.0095 0.863999C22.1681 0.770666 22.3175 0.700666 22.4575 0.654C22.6068 0.607333 22.7141 0.584 22.7795 0.584C22.9101 0.611999 23.0035 0.639999 23.0595 0.668C23.1155 0.686666 23.1715 0.714666 23.2275 0.751999C23.6288 0.686666 24.3241 0.602666 25.3135 0.499999C26.3028 0.387999 27.5488 0.322666 29.0515 0.303999C29.2195 0.350666 29.3735 0.425333 29.5135 0.528C29.6535 0.630666 29.7842 0.775333 29.9055 0.962C29.9428 1.12067 29.9708 1.40533 29.9895 1.816C30.0082 2.22667 30.0222 2.71667 30.0315 3.286C30.0408 3.846 30.0455 4.45733 30.0455 5.12C30.0455 5.77333 30.0455 6.41733 30.0455 7.052C30.0455 7.68667 30.0408 8.28867 30.0315 8.858C30.0315 9.418 30.0362 9.88467 30.0455 10.258C29.9708 10.5007 29.8261 10.6873 29.6115 10.818C29.4062 10.9393 29.1822 11 28.9395 11C28.7341 11 28.5335 10.9533 28.3375 10.86C28.1415 10.7667 27.9735 10.6267 27.8335 10.44C27.8335 10.2907 27.8335 10.02 27.8335 9.628C27.8428 9.236 27.8475 8.78333 27.8475 8.27C27.8568 7.74733 27.8661 7.192 27.8755 6.604C27.8848 6.00667 27.8848 5.43267 27.8755 4.882C27.8755 4.33133 27.8708 3.832 27.8615 3.384C27.8521 2.936 27.8382 2.59533 27.8195 2.362C27.5115 2.37133 27.1428 2.38533 26.7135 2.404C26.2935 2.42267 25.8781 2.446 25.4675 2.474C25.0661 2.502 24.7021 2.53467 24.3755 2.572C24.0488 2.6 23.8295 2.63267 23.7175 2.67C23.7175 2.85667 23.7175 3.15533 23.7175 3.566C23.7268 3.96733 23.7315 4.42467 23.7315 4.938C23.7408 5.45133 23.7501 5.99267 23.7595 6.562C23.7688 7.13133 23.7781 7.67733 23.7875 8.2C23.7968 8.71333 23.8061 9.18 23.8155 9.6C23.8248 10.02 23.8295 10.3373 23.8295 10.552C23.6895 10.776 23.5075 10.944 23.2835 11.056C23.0595 11.168 22.8401 11.224 22.6255 11.224C22.4295 11.224 22.2475 11.182 22.0795 11.098C21.9208 11.014 21.7808 10.8647 21.6595 10.65ZM32.2239 10.552C32.1959 10.2813 32.1726 9.91267 32.1539 9.446C32.1446 8.97933 32.1352 8.45667 32.1259 7.878C32.1259 7.29933 32.1259 6.68333 32.1259 6.03C32.1259 5.37667 32.1259 4.73267 32.1259 4.098C32.1259 3.46333 32.1259 2.85667 32.1259 2.278C32.1352 1.69933 32.1399 1.19067 32.1399 0.751999C32.2519 0.611999 32.3919 0.504666 32.5599 0.429999C32.7279 0.345999 32.9052 0.285333 33.0919 0.248C33.2879 0.210666 33.4839 0.192 33.6799 0.192C33.8759 0.182666 34.0579 0.191999 34.2259 0.219999C34.2539 0.472 34.2726 0.794 34.2819 1.186C34.3006 1.56867 34.3099 1.98867 34.3099 2.446C34.3192 2.894 34.3239 3.36533 34.3239 3.86C34.3239 4.34533 34.3192 4.812 34.3099 5.26C34.3099 5.69867 34.3099 6.10933 34.3099 6.492C34.3099 6.86533 34.3099 7.164 34.3099 7.388C34.5152 7.07067 34.7532 6.67867 35.0239 6.212C35.3039 5.74533 35.5979 5.25533 35.9059 4.742C36.2232 4.21933 36.5452 3.70133 36.8719 3.188C37.1986 2.67467 37.5112 2.208 37.8099 1.788C38.1179 1.368 38.4026 1.02267 38.6639 0.751999C38.9252 0.481333 39.1492 0.327333 39.3359 0.289999C39.4292 0.318 39.5366 0.350666 39.6579 0.388C39.7886 0.425333 39.9192 0.472 40.0499 0.528C40.1806 0.583999 40.3019 0.649333 40.4139 0.724C40.5352 0.789333 40.6332 0.868666 40.7079 0.962C40.7359 1.074 40.7546 1.312 40.7639 1.676C40.7826 2.03067 40.7872 2.45533 40.7779 2.95C40.7779 3.43533 40.7732 3.958 40.7639 4.518C40.7639 5.06867 40.7546 5.60067 40.7359 6.114C40.7266 6.62733 40.7172 7.08933 40.7079 7.5C40.7079 7.90133 40.7079 8.19533 40.7079 8.382C40.7079 8.76467 40.7126 9.11 40.7219 9.418C40.7312 9.726 40.7499 10.0013 40.7779 10.244C40.7312 10.4027 40.6379 10.5427 40.4979 10.664C40.3579 10.776 40.1992 10.8647 40.0219 10.93C39.8446 10.986 39.6672 11.014 39.4899 11.014C39.3126 11.0233 39.1632 10.9953 39.0419 10.93C38.9206 10.846 38.8179 10.72 38.7339 10.552C38.6592 10.3747 38.5939 10.1647 38.5379 9.922C38.4912 9.67 38.4586 9.39467 38.4399 9.096C38.4212 8.79733 38.4119 8.48 38.4119 8.144C38.4119 7.668 38.4259 7.13133 38.4539 6.534C38.4912 5.93667 38.5332 5.20867 38.5799 4.35C38.3559 4.714 38.0992 5.12933 37.8099 5.596C37.5299 6.05333 37.2359 6.52933 36.9279 7.024C36.6199 7.50933 36.3072 7.99467 35.9899 8.48C35.6726 8.956 35.3739 9.39 35.0939 9.782C34.8139 10.1647 34.5619 10.4867 34.3379 10.748C34.1232 11 33.9552 11.154 33.8339 11.21C33.6472 11.1727 33.4839 11.14 33.3439 11.112C33.2132 11.0933 33.0872 11.0653 32.9659 11.028C32.8539 10.9907 32.7372 10.9393 32.6159 10.874C32.5039 10.7993 32.3732 10.692 32.2239 10.552ZM42.8583 10.16C42.8397 9.488 42.821 8.76 42.8023 7.976C42.793 7.18267 42.793 6.37533 42.8023 5.554C42.8117 4.73267 42.8397 3.92067 42.8863 3.118C42.933 2.306 43.0123 1.55467 43.1243 0.863999C43.2923 0.817333 43.4837 0.794 43.6983 0.794C43.913 0.784666 44.1183 0.798666 44.3143 0.836C44.5197 0.873333 44.7063 0.933999 44.8743 1.018C45.0423 1.102 45.1637 1.214 45.2383 1.354C45.201 1.62467 45.1683 1.96067 45.1403 2.362C45.1217 2.754 45.103 3.18333 45.0843 3.65C45.0657 4.11667 45.047 4.60667 45.0283 5.12C45.019 5.63333 45.0097 6.142 45.0003 6.646C45.0003 7.15 45.0003 7.63533 45.0003 8.102C45.0003 8.55933 45.005 8.97467 45.0143 9.348C45.285 9.32933 45.6117 9.31067 45.9943 9.292C46.377 9.264 46.8997 9.22667 47.5623 9.18C47.5717 8.93733 47.5763 8.61533 47.5763 8.214C47.5763 7.81267 47.5717 7.374 47.5623 6.898C47.5623 6.422 47.5577 5.92733 47.5483 5.414C47.5483 4.89133 47.5437 4.38733 47.5343 3.902C47.5343 3.41667 47.5343 2.97333 47.5343 2.572C47.5437 2.16133 47.5577 1.82533 47.5763 1.564C47.6323 1.43333 47.735 1.326 47.8843 1.242C48.043 1.158 48.2203 1.09733 48.4163 1.06C48.6123 1.01333 48.813 0.99 49.0183 0.99C49.233 0.99 49.4197 1.004 49.5783 1.032C49.625 1.49867 49.6577 2.06333 49.6763 2.726C49.695 3.37933 49.709 4.07 49.7183 4.798C49.7277 5.526 49.7277 6.26333 49.7183 7.01C49.709 7.74733 49.6997 8.438 49.6903 9.082C50.1103 9.06333 50.5397 9.04933 50.9783 9.04C51.417 9.02133 51.7903 8.98867 52.0983 8.942C52.1077 8.62467 52.1123 8.24667 52.1123 7.808C52.1123 7.36933 52.1077 6.90733 52.0983 6.422C52.0983 5.92733 52.0937 5.42333 52.0843 4.91C52.0843 4.39667 52.0797 3.90667 52.0703 3.44C52.0703 2.964 52.075 2.52533 52.0843 2.124C52.0937 1.72267 52.1077 1.39133 52.1263 1.13C52.2103 0.934 52.3737 0.789333 52.6163 0.695999C52.859 0.602666 53.1063 0.555999 53.3583 0.555999C53.5263 0.555999 53.741 0.602666 54.0023 0.695999C54.0863 0.910666 54.1517 1.25133 54.1983 1.718C54.245 2.17533 54.2777 2.698 54.2963 3.286C54.315 3.86467 54.3243 4.476 54.3243 5.12C54.3243 5.764 54.315 6.37533 54.2963 6.954C54.287 7.52333 54.273 8.02733 54.2543 8.466C54.2357 8.90467 54.2217 9.21267 54.2123 9.39C54.1937 9.73533 54.0863 10.0387 53.8903 10.3C53.6943 10.5613 53.4657 10.7527 53.2043 10.874L43.9083 11.518C43.5163 11.3593 43.2503 11.1773 43.1103 10.972C42.9703 10.7573 42.8863 10.4867 42.8583 10.16ZM56.5462 10.552C56.5182 10.2813 56.4948 9.91267 56.4762 9.446C56.4668 8.97933 56.4575 8.45667 56.4482 7.878C56.4482 7.29933 56.4482 6.68333 56.4482 6.03C56.4482 5.37667 56.4482 4.73267 56.4482 4.098C56.4482 3.46333 56.4482 2.85667 56.4482 2.278C56.4575 1.69933 56.4622 1.19067 56.4622 0.751999C56.5742 0.611999 56.7142 0.504666 56.8822 0.429999C57.0502 0.345999 57.2275 0.285333 57.4142 0.248C57.6102 0.210666 57.8062 0.192 58.0022 0.192C58.1982 0.182666 58.3802 0.191999 58.5482 0.219999C58.5762 0.472 58.5948 0.794 58.6042 1.186C58.6228 1.56867 58.6322 1.98867 58.6322 2.446C58.6415 2.894 58.6462 3.36533 58.6462 3.86C58.6462 4.34533 58.6415 4.812 58.6322 5.26C58.6322 5.69867 58.6322 6.10933 58.6322 6.492C58.6322 6.86533 58.6322 7.164 58.6322 7.388C58.8375 7.07067 59.0755 6.67867 59.3462 6.212C59.6262 5.74533 59.9202 5.25533 60.2282 4.742C60.5455 4.21933 60.8675 3.70133 61.1942 3.188C61.5208 2.67467 61.8335 2.208 62.1322 1.788C62.4402 1.368 62.7248 1.02267 62.9862 0.751999C63.2475 0.481333 63.4715 0.327333 63.6582 0.289999C63.7515 0.318 63.8588 0.350666 63.9802 0.388C64.1108 0.425333 64.2415 0.472 64.3722 0.528C64.5028 0.583999 64.6242 0.649333 64.7362 0.724C64.8575 0.789333 64.9555 0.868666 65.0302 0.962C65.0582 1.074 65.0768 1.312 65.0862 1.676C65.1048 2.03067 65.1095 2.45533 65.1002 2.95C65.1002 3.43533 65.0955 3.958 65.0862 4.518C65.0862 5.06867 65.0768 5.60067 65.0582 6.114C65.0488 6.62733 65.0395 7.08933 65.0302 7.5C65.0302 7.90133 65.0302 8.19533 65.0302 8.382C65.0302 8.76467 65.0348 9.11 65.0442 9.418C65.0535 9.726 65.0722 10.0013 65.1002 10.244C65.0535 10.4027 64.9602 10.5427 64.8202 10.664C64.6802 10.776 64.5215 10.8647 64.3442 10.93C64.1668 10.986 63.9895 11.014 63.8122 11.014C63.6348 11.0233 63.4855 10.9953 63.3642 10.93C63.2428 10.846 63.1402 10.72 63.0562 10.552C62.9815 10.3747 62.9162 10.1647 62.8602 9.922C62.8135 9.67 62.7808 9.39467 62.7622 9.096C62.7435 8.79733 62.7342 8.48 62.7342 8.144C62.7342 7.668 62.7482 7.13133 62.7762 6.534C62.8135 5.93667 62.8555 5.20867 62.9022 4.35C62.6782 4.714 62.4215 5.12933 62.1322 5.596C61.8522 6.05333 61.5582 6.52933 61.2502 7.024C60.9422 7.50933 60.6295 7.99467 60.3122 8.48C59.9948 8.956 59.6962 9.39 59.4162 9.782C59.1362 10.1647 58.8842 10.4867 58.6602 10.748C58.4455 11 58.2775 11.154 58.1562 11.21C57.9695 11.1727 57.8062 11.14 57.6662 11.112C57.5355 11.0933 57.4095 11.0653 57.2882 11.028C57.1762 10.9907 57.0595 10.9393 56.9382 10.874C56.8262 10.7993 56.6955 10.692 56.5462 10.552ZM73.7091 10.958C73.6717 10.7807 73.6391 10.5053 73.6111 10.132C73.5924 9.75867 73.5737 9.32933 73.5551 8.844C73.5457 8.34933 73.5364 7.822 73.5271 7.262C73.5177 6.69267 73.5084 6.13267 73.4991 5.582C73.4991 5.03133 73.4991 4.51333 73.4991 4.028C73.5084 3.53333 73.5177 3.11333 73.5271 2.768C73.0511 2.84267 72.5984 2.91267 72.1691 2.978C71.7491 3.034 71.2871 3.07133 70.7831 3.09C70.6057 2.81 70.4844 2.516 70.4191 2.208C70.3537 1.9 70.3724 1.62 70.4751 1.368C70.6711 1.284 70.9651 1.20467 71.3571 1.13C71.7491 1.046 72.1924 0.966666 72.6871 0.891999C73.1817 0.817333 73.7044 0.752 74.2551 0.695999C74.8057 0.630666 75.3331 0.574666 75.8371 0.528C76.3504 0.481333 76.8171 0.444 77.2371 0.415999C77.6571 0.387999 77.9884 0.373999 78.2311 0.373999C78.3337 0.476666 78.4084 0.598 78.4551 0.737999C78.5111 0.877999 78.5391 1.02733 78.5391 1.186C78.5391 1.33533 78.5157 1.48933 78.4691 1.648C78.4224 1.79733 78.3571 1.942 78.2731 2.082C77.9744 2.194 77.6151 2.278 77.1951 2.334C76.7751 2.38067 76.2477 2.44133 75.6131 2.516L75.6971 10.608C75.3984 10.888 75.0717 11.07 74.7171 11.154C74.3717 11.238 74.0357 11.1727 73.7091 10.958ZM83.4343 11.238C82.7716 11.238 82.1556 11.1167 81.5863 10.874C81.0263 10.622 80.5363 10.272 80.1163 9.824C79.6963 9.36667 79.3649 8.82067 79.1223 8.186C78.8889 7.542 78.7723 6.82333 78.7723 6.03C78.7723 5.17133 78.9169 4.41067 79.2063 3.748C79.5049 3.076 79.8969 2.51133 80.3823 2.054C80.8676 1.58733 81.4276 1.23267 82.0623 0.99C82.6969 0.747333 83.3503 0.625999 84.0223 0.625999C84.7503 0.625999 85.4176 0.751999 86.0243 1.004C86.6403 1.24667 87.1676 1.592 87.6063 2.04C88.0543 2.488 88.3996 3.02933 88.6423 3.664C88.8849 4.28933 89.0063 4.98933 89.0063 5.764C89.0063 6.70667 88.8383 7.52333 88.5023 8.214C88.1663 8.90467 87.7323 9.474 87.2003 9.922C86.6683 10.37 86.0709 10.7013 85.4083 10.916C84.7456 11.1307 84.0876 11.238 83.4343 11.238ZM83.5323 9.152C83.8403 9.152 84.1856 9.10533 84.5683 9.012C84.9509 8.91867 85.3103 8.746 85.6463 8.494C85.9823 8.242 86.2669 7.89667 86.5003 7.458C86.7336 7.01933 86.8503 6.45467 86.8503 5.764C86.8503 5.25067 86.7709 4.798 86.6123 4.406C86.4629 4.014 86.2576 3.692 85.9963 3.44C85.7443 3.17867 85.4503 2.98267 85.1143 2.852C84.7876 2.72133 84.4423 2.656 84.0783 2.656C83.6676 2.656 83.2709 2.726 82.8883 2.866C82.5056 2.99667 82.1649 3.202 81.8663 3.482C81.5676 3.75267 81.3249 4.10267 81.1383 4.532C80.9609 4.96133 80.8723 5.47 80.8723 6.058C80.8723 6.57133 80.9376 7.024 81.0683 7.416C81.1989 7.79867 81.3809 8.12067 81.6143 8.382C81.8569 8.634 82.1416 8.82533 82.4683 8.956C82.7949 9.08667 83.1496 9.152 83.5323 9.152ZM90.2212 6.422C90.2212 5.526 90.3565 4.728 90.6272 4.028C90.8979 3.328 91.2759 2.73533 91.7612 2.25C92.2465 1.76467 92.8159 1.396 93.4692 1.144C94.1225 0.882666 94.8365 0.751999 95.6112 0.751999C96.0125 0.751999 96.4092 0.798666 96.8012 0.891999C97.1932 0.985333 97.5479 1.11133 97.8652 1.27C98.1919 1.42867 98.4672 1.62 98.6912 1.844C98.9152 2.05867 99.0645 2.292 99.1392 2.544C99.1299 2.70267 99.0832 2.852 98.9992 2.992C98.9245 3.12267 98.8219 3.244 98.6912 3.356C98.5605 3.45867 98.4112 3.54733 98.2432 3.622C98.0752 3.69667 97.9025 3.748 97.7252 3.776C97.6039 3.62667 97.4732 3.48667 97.3332 3.356C97.1932 3.22533 97.0345 3.10867 96.8572 3.006C96.6799 2.90333 96.4745 2.824 96.2412 2.768C96.0172 2.70267 95.7605 2.67 95.4712 2.67C95.1072 2.67 94.7385 2.73533 94.3652 2.866C94.0012 2.99667 93.6699 3.216 93.3712 3.524C93.0819 3.82267 92.8439 4.21933 92.6572 4.714C92.4705 5.20867 92.3772 5.82 92.3772 6.548C92.3772 6.95867 92.4472 7.332 92.5872 7.668C92.7365 7.99467 92.9279 8.27467 93.1612 8.508C93.3945 8.732 93.6559 8.90467 93.9452 9.026C94.2345 9.14733 94.5192 9.208 94.7992 9.208C95.1072 9.208 95.3872 9.18 95.6392 9.124C95.9005 9.05867 96.1572 8.94667 96.4092 8.788C96.6612 8.62933 96.9225 8.41933 97.1932 8.158C97.4639 7.89667 97.7672 7.56067 98.1032 7.15C98.2805 7.16867 98.4485 7.22 98.6072 7.304C98.7752 7.37867 98.9199 7.486 99.0412 7.626C99.1719 7.75667 99.2699 7.91067 99.3352 8.088C99.4099 8.26533 99.4379 8.452 99.4192 8.648C99.1485 9.05867 98.8312 9.42267 98.4672 9.74C98.1032 10.0573 97.7112 10.3233 97.2912 10.538C96.8805 10.7527 96.4512 10.916 96.0032 11.028C95.5645 11.1493 95.1352 11.21 94.7152 11.21C94.0432 11.21 93.4272 11.07 92.8672 10.79C92.3165 10.51 91.8452 10.146 91.4532 9.698C91.0612 9.24067 90.7579 8.72733 90.5432 8.158C90.3285 7.58867 90.2212 7.01 90.2212 6.422ZM104.184 10.958C104.146 10.7807 104.114 10.5053 104.086 10.132C104.067 9.75867 104.048 9.32933 104.03 8.844C104.02 8.34933 104.011 7.822 104.002 7.262C103.992 6.69267 103.983 6.13267 103.974 5.582C103.974 5.03133 103.974 4.51333 103.974 4.028C103.983 3.53333 103.992 3.11333 104.002 2.768C103.526 2.84267 103.073 2.91267 102.644 2.978C102.224 3.034 101.762 3.07133 101.258 3.09C101.08 2.81 100.959 2.516 100.894 2.208C100.828 1.9 100.847 1.62 100.95 1.368C101.146 1.284 101.44 1.20467 101.832 1.13C102.224 1.046 102.667 0.966666 103.162 0.891999C103.656 0.817333 104.179 0.752 104.73 0.695999C105.28 0.630666 105.808 0.574666 106.312 0.528C106.825 0.481333 107.292 0.444 107.712 0.415999C108.132 0.387999 108.463 0.373999 108.706 0.373999C108.808 0.476666 108.883 0.598 108.93 0.737999C108.986 0.877999 109.014 1.02733 109.014 1.186C109.014 1.33533 108.99 1.48933 108.944 1.648C108.897 1.79733 108.832 1.942 108.748 2.082C108.449 2.194 108.09 2.278 107.67 2.334C107.25 2.38067 106.722 2.44133 106.088 2.516L106.172 10.608C105.873 10.888 105.546 11.07 105.192 11.154C104.846 11.238 104.51 11.1727 104.184 10.958ZM111.176 5.386C110.756 5.28333 110.467 5.12 110.308 4.896C110.149 4.66267 110.07 4.38733 110.07 4.07C110.107 3.91133 110.154 3.762 110.21 3.622C110.275 3.482 110.364 3.36067 110.476 3.258C110.597 3.146 110.747 3.05733 110.924 2.992C111.111 2.92667 111.339 2.894 111.61 2.894C111.731 2.894 111.862 2.91733 112.002 2.964C112.142 3.01067 112.273 3.08533 112.394 3.188C112.515 3.29067 112.618 3.42133 112.702 3.58C112.786 3.73867 112.837 3.93467 112.856 4.168C112.8 4.41067 112.707 4.61133 112.576 4.77C112.445 4.92867 112.301 5.05467 112.142 5.148C111.983 5.232 111.815 5.29267 111.638 5.33C111.47 5.36733 111.316 5.386 111.176 5.386ZM110.07 9.95C110.107 9.79133 110.154 9.642 110.21 9.502C110.275 9.362 110.364 9.24067 110.476 9.138C110.597 9.026 110.747 8.93733 110.924 8.872C111.111 8.80667 111.339 8.774 111.61 8.774C111.731 8.774 111.862 8.79733 112.002 8.844C112.142 8.89067 112.273 8.96533 112.394 9.068C112.515 9.17067 112.618 9.30133 112.702 9.46C112.786 9.61867 112.837 9.81467 112.856 10.048C112.8 10.2907 112.707 10.4913 112.576 10.65C112.445 10.8087 112.301 10.93 112.142 11.014C111.983 11.1073 111.815 11.1727 111.638 11.21C111.47 11.2473 111.316 11.266 111.176 11.266C110.756 11.1633 110.467 11 110.308 10.776C110.149 10.5427 110.07 10.2673 110.07 9.95Z" fill="#9E9E9E"/>
</svg>
