<svg width="377" height="44" viewBox="0 0 377 44" fill="none" xmlns="http://www.w3.org/2000/svg">
<rect x="0.500061" y="4.5" width="376" height="39" rx="5.5" fill="#9D0000" stroke="#9D0000"/>
<rect x="0.500061" y="0.5" width="376" height="41" rx="5.5" fill="#E53935" stroke="#9D0000"/>
<path d="M14.4619 25.636C14.3872 24.908 14.3312 24.1193 14.2939 23.27C14.2565 22.4207 14.2239 21.5853 14.1959 20.764C14.1772 19.9333 14.1632 19.1493 14.1539 18.412C14.1445 17.6653 14.1399 17.0307 14.1399 16.508C14.1492 16.368 14.1865 16.2327 14.2519 16.102C14.3265 15.9713 14.4152 15.8593 14.5179 15.766C14.6299 15.6633 14.7559 15.584 14.8959 15.528C15.0359 15.4627 15.1805 15.43 15.3299 15.43C15.6565 15.4953 16.0719 15.5233 16.5759 15.514C17.0892 15.5047 17.6165 15.4813 18.1579 15.444C18.6992 15.4067 19.2172 15.3693 19.7119 15.332C20.2159 15.2853 20.6172 15.2527 20.9159 15.234C20.9719 15.2993 21.0279 15.3973 21.0839 15.528C21.1492 15.6587 21.2005 15.8033 21.2379 15.962C21.2752 16.1207 21.2939 16.284 21.2939 16.452C21.2939 16.62 21.2612 16.7787 21.1959 16.928C20.8692 17.0587 20.5145 17.166 20.1319 17.25C19.7492 17.3247 19.3479 17.3853 18.9279 17.432C18.5079 17.4693 18.0785 17.4973 17.6399 17.516C17.2105 17.5253 16.7859 17.5253 16.3659 17.516L16.6179 25.538C16.4779 25.734 16.2912 25.8833 16.0579 25.986C15.8339 26.0793 15.6145 26.126 15.3999 26.126C15.2505 26.126 15.1012 26.098 14.9519 26.042C14.8025 25.986 14.6392 25.8507 14.4619 25.636ZM25.5974 26.238C24.9347 26.238 24.3187 26.1167 23.7494 25.874C23.1894 25.622 22.6994 25.272 22.2794 24.824C21.8594 24.3667 21.528 23.8207 21.2854 23.186C21.052 22.542 20.9354 21.8233 20.9354 21.03C20.9354 20.1713 21.08 19.4107 21.3694 18.748C21.668 18.076 22.06 17.5113 22.5454 17.054C23.0307 16.5873 23.5907 16.2327 24.2254 15.99C24.86 15.7473 25.5134 15.626 26.1854 15.626C26.9134 15.626 27.5807 15.752 28.1874 16.004C28.8034 16.2467 29.3307 16.592 29.7694 17.04C30.2174 17.488 30.5627 18.0293 30.8054 18.664C31.048 19.2893 31.1694 19.9893 31.1694 20.764C31.1694 21.7067 31.0014 22.5233 30.6654 23.214C30.3294 23.9047 29.8954 24.474 29.3634 24.922C28.8314 25.37 28.234 25.7013 27.5714 25.916C26.9087 26.1307 26.2507 26.238 25.5974 26.238ZM25.6954 24.152C26.0034 24.152 26.3487 24.1053 26.7314 24.012C27.114 23.9187 27.4734 23.746 27.8094 23.494C28.1454 23.242 28.43 22.8967 28.6634 22.458C28.8967 22.0193 29.0134 21.4547 29.0134 20.764C29.0134 20.2507 28.934 19.798 28.7754 19.406C28.626 19.014 28.4207 18.692 28.1594 18.44C27.9074 18.1787 27.6134 17.9827 27.2774 17.852C26.9507 17.7213 26.6054 17.656 26.2414 17.656C25.8307 17.656 25.434 17.726 25.0514 17.866C24.6687 17.9967 24.328 18.202 24.0294 18.482C23.7307 18.7527 23.488 19.1027 23.3014 19.532C23.124 19.9613 23.0354 20.47 23.0354 21.058C23.0354 21.5713 23.1007 22.024 23.2314 22.416C23.362 22.7987 23.544 23.1207 23.7774 23.382C24.02 23.634 24.3047 23.8253 24.6314 23.956C24.958 24.0867 25.3127 24.152 25.6954 24.152ZM35.4503 25.958C35.413 25.7807 35.3803 25.5053 35.3523 25.132C35.3336 24.7587 35.315 24.3293 35.2963 23.844C35.287 23.3493 35.2776 22.822 35.2683 22.262C35.259 21.6927 35.2496 21.1327 35.2403 20.582C35.2403 20.0313 35.2403 19.5133 35.2403 19.028C35.2496 18.5333 35.259 18.1133 35.2683 17.768C34.7923 17.8427 34.3396 17.9127 33.9103 17.978C33.4903 18.034 33.0283 18.0713 32.5243 18.09C32.347 17.81 32.2256 17.516 32.1603 17.208C32.095 16.9 32.1136 16.62 32.2163 16.368C32.4123 16.284 32.7063 16.2047 33.0983 16.13C33.4903 16.046 33.9336 15.9667 34.4283 15.892C34.923 15.8173 35.4456 15.752 35.9963 15.696C36.547 15.6307 37.0743 15.5747 37.5783 15.528C38.0916 15.4813 38.5583 15.444 38.9783 15.416C39.3983 15.388 39.7296 15.374 39.9723 15.374C40.075 15.4767 40.1496 15.598 40.1963 15.738C40.2523 15.878 40.2803 16.0273 40.2803 16.186C40.2803 16.3353 40.257 16.4893 40.2103 16.648C40.1636 16.7973 40.0983 16.942 40.0143 17.082C39.7156 17.194 39.3563 17.278 38.9363 17.334C38.5163 17.3807 37.989 17.4413 37.3543 17.516L37.4383 25.608C37.1396 25.888 36.813 26.07 36.4583 26.154C36.113 26.238 35.777 26.1727 35.4503 25.958ZM45.1755 26.238C44.5128 26.238 43.8968 26.1167 43.3275 25.874C42.7675 25.622 42.2775 25.272 41.8575 24.824C41.4375 24.3667 41.1061 23.8207 40.8635 23.186C40.6301 22.542 40.5135 21.8233 40.5135 21.03C40.5135 20.1713 40.6581 19.4107 40.9475 18.748C41.2461 18.076 41.6381 17.5113 42.1235 17.054C42.6088 16.5873 43.1688 16.2327 43.8035 15.99C44.4381 15.7473 45.0915 15.626 45.7635 15.626C46.4915 15.626 47.1588 15.752 47.7655 16.004C48.3815 16.2467 48.9088 16.592 49.3475 17.04C49.7955 17.488 50.1408 18.0293 50.3835 18.664C50.6261 19.2893 50.7475 19.9893 50.7475 20.764C50.7475 21.7067 50.5795 22.5233 50.2435 23.214C49.9075 23.9047 49.4735 24.474 48.9415 24.922C48.4095 25.37 47.8121 25.7013 47.1495 25.916C46.4868 26.1307 45.8288 26.238 45.1755 26.238ZM45.2735 24.152C45.5815 24.152 45.9268 24.1053 46.3095 24.012C46.6921 23.9187 47.0515 23.746 47.3875 23.494C47.7235 23.242 48.0081 22.8967 48.2415 22.458C48.4748 22.0193 48.5915 21.4547 48.5915 20.764C48.5915 20.2507 48.5121 19.798 48.3535 19.406C48.2041 19.014 47.9988 18.692 47.7375 18.44C47.4855 18.1787 47.1915 17.9827 46.8555 17.852C46.5288 17.7213 46.1835 17.656 45.8195 17.656C45.4088 17.656 45.0121 17.726 44.6295 17.866C44.2468 17.9967 43.9061 18.202 43.6075 18.482C43.3088 18.7527 43.0661 19.1027 42.8795 19.532C42.7021 19.9613 42.6135 20.47 42.6135 21.058C42.6135 21.5713 42.6788 22.024 42.8095 22.416C42.9401 22.7987 43.1221 23.1207 43.3555 23.382C43.5981 23.634 43.8828 23.8253 44.2095 23.956C44.5361 24.0867 44.8908 24.152 45.2735 24.152ZM52.6484 25.202C52.6017 24.698 52.5597 24.194 52.5224 23.69C52.4944 23.186 52.4664 22.6027 52.4384 21.94C52.3077 21.8747 52.2144 21.772 52.1584 21.632C52.1024 21.4827 52.0744 21.3287 52.0744 21.17C52.0744 21.0113 52.0977 20.862 52.1444 20.722C52.1911 20.582 52.2657 20.4653 52.3684 20.372C52.3591 20.1293 52.3497 19.9193 52.3404 19.742C52.3404 19.5647 52.3404 19.406 52.3404 19.266C52.3404 19.126 52.3404 18.9907 52.3404 18.86C52.3404 18.7293 52.3404 18.5847 52.3404 18.426C51.9764 18.09 51.7944 17.656 51.7944 17.124C52.4011 16.62 53.0824 16.2467 53.8384 16.004C54.6037 15.752 55.5231 15.626 56.5964 15.626C57.0351 15.626 57.4551 15.6587 57.8564 15.724C58.2577 15.78 58.6124 15.8733 58.9204 16.004C59.2284 16.1347 59.4711 16.3027 59.6484 16.508C59.8351 16.704 59.9284 16.9467 59.9284 17.236C59.9284 17.796 59.7884 18.2767 59.5084 18.678C59.2284 19.07 58.8551 19.4247 58.3884 19.742C58.6964 19.798 58.9764 19.8727 59.2284 19.966C59.4897 20.05 59.7137 20.1667 59.9004 20.316C60.0871 20.456 60.2317 20.6333 60.3344 20.848C60.4371 21.0627 60.4884 21.3287 60.4884 21.646C60.4884 22.4393 60.2784 23.1253 59.8584 23.704C59.4384 24.2733 58.8971 24.7447 58.2344 25.118C57.5811 25.482 56.8484 25.7573 56.0364 25.944C55.2337 26.1307 54.4404 26.2287 53.6564 26.238C53.4137 26.238 53.2131 26.1447 53.0544 25.958C52.9051 25.762 52.7697 25.51 52.6484 25.202ZM54.5104 19.686C55.5091 19.4993 56.2931 19.2473 56.8624 18.93C57.4411 18.6127 57.7304 18.216 57.7304 17.74C57.7304 17.6467 57.6184 17.5767 57.3944 17.53C57.1704 17.4833 56.9231 17.46 56.6524 17.46C56.2697 17.46 55.8731 17.4973 55.4624 17.572C55.0611 17.6467 54.7344 17.7353 54.4824 17.838C54.4731 17.9127 54.4684 18.0293 54.4684 18.188C54.4684 18.3467 54.4684 18.5193 54.4684 18.706C54.4777 18.8833 54.4871 19.0653 54.4964 19.252C54.5057 19.4293 54.5104 19.574 54.5104 19.686ZM54.7204 24.152C55.0844 24.1053 55.4764 24.026 55.8964 23.914C56.3257 23.7927 56.7224 23.6387 57.0864 23.452C57.4504 23.2653 57.7537 23.0413 57.9964 22.78C58.2484 22.5187 58.3744 22.22 58.3744 21.884C58.3744 21.6973 58.2857 21.5433 58.1084 21.422C57.9311 21.2913 57.6371 21.226 57.2264 21.226C57.0304 21.226 56.8064 21.2447 56.5544 21.282C56.3024 21.31 56.0504 21.352 55.7984 21.408C55.5464 21.464 55.3131 21.5293 55.0984 21.604C54.8837 21.6787 54.7111 21.7533 54.5804 21.828C54.5804 22.2853 54.5944 22.7193 54.6224 23.13C54.6504 23.5407 54.6831 23.8813 54.7204 24.152ZM66.4144 25.986C66.377 25.6407 66.3444 25.216 66.3164 24.712C66.2884 24.1987 66.2604 23.6527 66.2324 23.074C66.2137 22.486 66.195 21.884 66.1764 21.268C66.167 20.6427 66.1624 20.0407 66.1624 19.462C66.1624 18.8367 66.167 18.2533 66.1764 17.712C66.195 17.1613 66.223 16.6853 66.2604 16.284C66.335 16.0507 66.4657 15.892 66.6524 15.808C66.8484 15.7147 67.0677 15.668 67.3104 15.668C67.5717 15.668 67.8704 15.7287 68.2064 15.85C68.2997 16.0647 68.3557 16.3307 68.3744 16.648C68.4024 16.9653 68.4117 17.2967 68.4024 17.642C68.393 17.978 68.379 18.3 68.3604 18.608C68.3417 18.916 68.3324 19.168 68.3324 19.364L72.2384 15.85C72.509 15.7753 72.803 15.8173 73.1204 15.976C73.4377 16.1253 73.685 16.368 73.8624 16.704C73.685 17.0307 73.447 17.362 73.1484 17.698C72.8497 18.0247 72.5324 18.3373 72.1964 18.636C71.8697 18.9347 71.5524 19.2147 71.2444 19.476C70.9364 19.728 70.6844 19.9427 70.4884 20.12C70.7124 20.3533 70.9924 20.666 71.3284 21.058C71.6737 21.4407 72.0284 21.8607 72.3924 22.318C72.7564 22.766 73.111 23.228 73.4564 23.704C73.811 24.1707 74.1097 24.6 74.3524 24.992C74.3524 25.216 74.2917 25.4027 74.1704 25.552C74.0584 25.7013 73.923 25.8273 73.7644 25.93C73.6057 26.0327 73.4377 26.112 73.2604 26.168C73.0924 26.2333 72.9524 26.2847 72.8404 26.322L68.9764 21.464C68.8737 21.5387 68.771 21.618 68.6684 21.702C68.5657 21.786 68.463 21.8793 68.3604 21.982C68.3604 22.1873 68.3697 22.4533 68.3884 22.78C68.407 23.0973 68.4257 23.4287 68.4444 23.774C68.4724 24.11 68.4957 24.4413 68.5144 24.768C68.533 25.0853 68.5424 25.3513 68.5424 25.566C68.4117 25.678 68.2624 25.7853 68.0944 25.888C67.9357 25.9907 67.763 26.0653 67.5764 26.112C67.399 26.168 67.2077 26.1867 67.0024 26.168C66.8064 26.1587 66.6104 26.098 66.4144 25.986ZM82.2354 25.958C82.1981 25.7807 82.1654 25.5053 82.1374 25.132C82.1188 24.7587 82.1001 24.3293 82.0814 23.844C82.0721 23.3493 82.0628 22.822 82.0534 22.262C82.0441 21.6927 82.0348 21.1327 82.0254 20.582C82.0254 20.0313 82.0254 19.5133 82.0254 19.028C82.0348 18.5333 82.0441 18.1133 82.0534 17.768C81.5774 17.8427 81.1248 17.9127 80.6954 17.978C80.2754 18.034 79.8134 18.0713 79.3094 18.09C79.1321 17.81 79.0108 17.516 78.9454 17.208C78.8801 16.9 78.8988 16.62 79.0014 16.368C79.1974 16.284 79.4914 16.2047 79.8834 16.13C80.2754 16.046 80.7188 15.9667 81.2134 15.892C81.7081 15.8173 82.2308 15.752 82.7814 15.696C83.3321 15.6307 83.8594 15.5747 84.3634 15.528C84.8768 15.4813 85.3434 15.444 85.7634 15.416C86.1834 15.388 86.5148 15.374 86.7574 15.374C86.8601 15.4767 86.9348 15.598 86.9814 15.738C87.0374 15.878 87.0654 16.0273 87.0654 16.186C87.0654 16.3353 87.0421 16.4893 86.9954 16.648C86.9488 16.7973 86.8834 16.942 86.7994 17.082C86.5008 17.194 86.1414 17.278 85.7214 17.334C85.3014 17.3807 84.7741 17.4413 84.1394 17.516L84.2234 25.608C83.9248 25.888 83.5981 26.07 83.2434 26.154C82.8981 26.238 82.5621 26.1727 82.2354 25.958ZM91.3699 22.64C91.1926 22.3413 90.9826 22.0053 90.7399 21.632C90.5066 21.2493 90.2592 20.8527 89.9979 20.442C89.7459 20.0313 89.4939 19.616 89.2419 19.196C88.9899 18.7667 88.7566 18.3607 88.5419 17.978C88.3366 17.5953 88.1639 17.2407 88.0239 16.914C87.8839 16.5873 87.7999 16.3167 87.7719 16.102C87.8186 15.9713 87.9166 15.85 88.0659 15.738C88.2152 15.626 88.3832 15.542 88.5699 15.486C88.7566 15.43 88.9479 15.4113 89.1439 15.43C89.3492 15.4393 89.5266 15.5047 89.6759 15.626C89.8812 15.9807 90.0959 16.3773 90.3199 16.816C90.5532 17.2547 90.7866 17.698 91.0199 18.146C91.2626 18.594 91.5006 19.0373 91.7339 19.476C91.9766 19.9147 92.2099 20.3113 92.4339 20.666C92.6486 20.2927 92.8632 19.8773 93.0779 19.42C93.3019 18.9533 93.5259 18.4867 93.7499 18.02C93.9739 17.544 94.1932 17.082 94.4079 16.634C94.6319 16.186 94.8559 15.78 95.0799 15.416C95.2106 15.388 95.3552 15.3787 95.5139 15.388C95.6726 15.3973 95.8312 15.4347 95.9899 15.5C96.1579 15.556 96.3119 15.64 96.4519 15.752C96.6012 15.864 96.7226 16.0087 96.8159 16.186C96.6479 16.606 96.4379 17.0913 96.1859 17.642C95.9432 18.1833 95.6772 18.762 95.3879 19.378C95.0986 19.994 94.7906 20.6287 94.4639 21.282C94.1372 21.926 93.8106 22.556 93.4839 23.172C93.1572 23.7787 92.8352 24.3573 92.5179 24.908C92.2099 25.4587 91.9206 25.9393 91.6499 26.35C91.1646 26.462 90.7586 26.4527 90.4319 26.322C90.1146 26.1913 89.8626 25.9067 89.6759 25.468L91.3699 22.64ZM97.6948 21.422C97.6948 20.526 97.8302 19.728 98.1008 19.028C98.3715 18.328 98.7495 17.7353 99.2348 17.25C99.7202 16.7647 100.29 16.396 100.943 16.144C101.596 15.8827 102.31 15.752 103.085 15.752C103.486 15.752 103.883 15.7987 104.275 15.892C104.667 15.9853 105.022 16.1113 105.339 16.27C105.666 16.4287 105.941 16.62 106.165 16.844C106.389 17.0587 106.538 17.292 106.613 17.544C106.604 17.7027 106.557 17.852 106.473 17.992C106.398 18.1227 106.296 18.244 106.165 18.356C106.034 18.4587 105.885 18.5473 105.717 18.622C105.549 18.6967 105.376 18.748 105.199 18.776C105.078 18.6267 104.947 18.4867 104.807 18.356C104.667 18.2253 104.508 18.1087 104.331 18.006C104.154 17.9033 103.948 17.824 103.715 17.768C103.491 17.7027 103.234 17.67 102.945 17.67C102.581 17.67 102.212 17.7353 101.839 17.866C101.475 17.9967 101.144 18.216 100.845 18.524C100.556 18.8227 100.318 19.2193 100.131 19.714C99.9442 20.2087 99.8508 20.82 99.8508 21.548C99.8508 21.9587 99.9208 22.332 100.061 22.668C100.21 22.9947 100.402 23.2747 100.635 23.508C100.868 23.732 101.13 23.9047 101.419 24.026C101.708 24.1473 101.993 24.208 102.273 24.208C102.581 24.208 102.861 24.18 103.113 24.124C103.374 24.0587 103.631 23.9467 103.883 23.788C104.135 23.6293 104.396 23.4193 104.667 23.158C104.938 22.8967 105.241 22.5607 105.577 22.15C105.754 22.1687 105.922 22.22 106.081 22.304C106.249 22.3787 106.394 22.486 106.515 22.626C106.646 22.7567 106.744 22.9107 106.809 23.088C106.884 23.2653 106.912 23.452 106.893 23.648C106.622 24.0587 106.305 24.4227 105.941 24.74C105.577 25.0573 105.185 25.3233 104.765 25.538C104.354 25.7527 103.925 25.916 103.477 26.028C103.038 26.1493 102.609 26.21 102.189 26.21C101.517 26.21 100.901 26.07 100.341 25.79C99.7902 25.51 99.3188 25.146 98.9268 24.698C98.5348 24.2407 98.2315 23.7273 98.0168 23.158C97.8022 22.5887 97.6948 22.01 97.6948 21.422ZM109.193 21.87C109.091 21.7673 109.016 21.6507 108.969 21.52C108.923 21.3893 108.899 21.2493 108.899 21.1C108.899 20.9413 108.927 20.7873 108.983 20.638C109.039 20.4887 109.114 20.3627 109.207 20.26C109.217 19.9427 109.226 19.672 109.235 19.448C109.245 19.2147 109.254 19.0187 109.263 18.86C109.273 18.692 109.277 18.552 109.277 18.44C109.277 18.3187 109.277 18.2113 109.277 18.118C109.091 17.9593 108.955 17.768 108.871 17.544C108.787 17.32 108.745 17.0727 108.745 16.802C108.96 16.6247 109.151 16.4847 109.319 16.382C109.497 16.2793 109.721 16.1627 109.991 16.032C110.253 16.0227 110.575 16.004 110.957 15.976C111.34 15.948 111.751 15.9247 112.189 15.906C112.628 15.878 113.071 15.8547 113.519 15.836C113.967 15.808 114.383 15.7893 114.765 15.78C115.157 15.7613 115.493 15.752 115.773 15.752C116.063 15.752 116.263 15.766 116.375 15.794C116.478 15.934 116.548 16.0787 116.585 16.228C116.632 16.368 116.655 16.5033 116.655 16.634C116.655 16.8487 116.599 17.054 116.487 17.25C116.385 17.446 116.235 17.5813 116.039 17.656C115.713 17.7213 115.349 17.7727 114.947 17.81C114.555 17.838 114.149 17.866 113.729 17.894C113.319 17.922 112.913 17.95 112.511 17.978C112.11 18.006 111.746 18.0387 111.419 18.076C111.41 18.3467 111.401 18.6407 111.391 18.958C111.391 19.266 111.401 19.5553 111.419 19.826C111.653 19.8167 111.942 19.8027 112.287 19.784C112.633 19.756 113.001 19.728 113.393 19.7C113.785 19.6627 114.182 19.6253 114.583 19.588C114.985 19.5507 115.363 19.5087 115.717 19.462C115.904 19.5833 116.035 19.7327 116.109 19.91C116.193 20.078 116.235 20.2413 116.235 20.4C116.235 20.624 116.179 20.8433 116.067 21.058C115.965 21.2727 115.811 21.4267 115.605 21.52C115.157 21.576 114.658 21.6273 114.107 21.674C113.557 21.7113 113.034 21.744 112.539 21.772C112.259 21.7907 112.031 21.8047 111.853 21.814C111.685 21.814 111.508 21.8233 111.321 21.842C111.303 22.1407 111.284 22.4907 111.265 22.892C111.256 23.284 111.251 23.732 111.251 24.236C111.569 24.2173 111.919 24.1893 112.301 24.152C112.693 24.1147 113.09 24.0633 113.491 23.998C113.902 23.9327 114.313 23.858 114.723 23.774C115.143 23.69 115.545 23.592 115.927 23.48C116.226 23.4987 116.445 23.6153 116.585 23.83C116.735 24.0447 116.809 24.2967 116.809 24.586C116.809 24.67 116.795 24.7727 116.767 24.894C116.749 25.0153 116.707 25.1553 116.641 25.314C116.184 25.5287 115.689 25.7013 115.157 25.832C114.635 25.9627 114.093 26.0607 113.533 26.126C112.983 26.2007 112.427 26.252 111.867 26.28C111.317 26.3173 110.789 26.3453 110.285 26.364C110.145 26.308 110.019 26.252 109.907 26.196C109.805 26.14 109.707 26.0747 109.613 26C109.529 25.9253 109.445 25.8413 109.361 25.748C109.277 25.6453 109.184 25.5193 109.081 25.37L109.193 21.87ZM118.72 22.542C118.673 22.458 118.655 22.2107 118.664 21.8C118.673 21.3893 118.697 20.8807 118.734 20.274C118.771 19.6673 118.818 18.9953 118.874 18.258C118.93 17.5207 118.986 16.788 119.042 16.06C119.042 16.0133 119.084 15.962 119.168 15.906C119.261 15.85 119.378 15.7987 119.518 15.752C119.658 15.696 119.812 15.654 119.98 15.626C120.148 15.5887 120.316 15.5747 120.484 15.584C120.652 15.584 120.806 15.6073 120.946 15.654C121.095 15.7007 121.212 15.7753 121.296 15.878C121.249 16.242 121.193 16.6853 121.128 17.208C121.072 17.7307 121.007 18.2813 120.932 18.86C120.867 19.4387 120.792 20.0313 120.708 20.638C120.633 21.2353 120.554 21.8 120.47 22.332C120.395 22.416 120.279 22.486 120.12 22.542C119.971 22.598 119.807 22.6353 119.63 22.654C119.462 22.6727 119.289 22.6773 119.112 22.668C118.944 22.6493 118.813 22.6073 118.72 22.542ZM118.118 24.95C118.155 24.7913 118.202 24.642 118.258 24.502C118.323 24.362 118.412 24.2407 118.524 24.138C118.645 24.026 118.795 23.9373 118.972 23.872C119.159 23.8067 119.387 23.774 119.658 23.774C119.779 23.774 119.91 23.7973 120.05 23.844C120.19 23.8907 120.321 23.9653 120.442 24.068C120.563 24.1707 120.666 24.3013 120.75 24.46C120.834 24.6187 120.885 24.8147 120.904 25.048C120.848 25.2907 120.755 25.4913 120.624 25.65C120.493 25.8087 120.349 25.93 120.19 26.014C120.031 26.1073 119.863 26.1727 119.686 26.21C119.518 26.2473 119.364 26.266 119.224 26.266C118.804 26.1633 118.515 26 118.356 25.776C118.197 25.5427 118.118 25.2673 118.118 24.95Z" fill="white"/>
<circle cx="6.00006" cy="6" r="1" fill="#9D0000"/>
<circle cx="371" cy="6" r="1" fill="#9D0000"/>
<circle cx="6.00006" cy="34" r="1" fill="#9D0000"/>
<circle cx="371" cy="34" r="1" fill="#9D0000"/>
</svg>
