<svg width="292" height="88" viewBox="0 0 292 88" fill="none" xmlns="http://www.w3.org/2000/svg">
<path fill-rule="evenodd" clip-rule="evenodd" d="M37.3326 3.8326C41.086 -0.0333789 47.6375 2.6238 47.6375 8.01208L47.6375 14.2186L285.637 14.2186C288.951 14.2186 291.637 16.9049 291.637 20.2186L291.637 69.2186C291.637 72.5323 288.951 75.2186 285.637 75.2186L47.6375 75.2186L47.6375 81.4251C47.6375 86.8134 41.0859 89.4705 37.3326 85.6045L1.69519 48.8981C-0.564968 46.5701 -0.564968 42.8671 1.69522 40.5391L37.3326 3.8326Z" fill="#9D0000"/>
<mask id="path-2-inside-1" fill="white">
<path fill-rule="evenodd" clip-rule="evenodd" d="M37.3326 1.8326C41.086 -2.03338 47.6375 0.623797 47.6375 6.01208L47.6375 12.2186L285.637 12.2186C288.951 12.2186 291.637 14.9049 291.637 18.2186L291.637 67.2186C291.637 70.5323 288.951 73.2186 285.637 73.2186L47.6375 73.2186L47.6375 79.4251C47.6375 84.8134 41.0859 87.4705 37.3326 83.6045L1.69519 46.8981C-0.564968 44.5701 -0.564968 40.8671 1.69522 38.5391L37.3326 1.8326Z"/>
</mask>
<path fill-rule="evenodd" clip-rule="evenodd" d="M37.3326 1.8326C41.086 -2.03338 47.6375 0.623797 47.6375 6.01208L47.6375 12.2186L285.637 12.2186C288.951 12.2186 291.637 14.9049 291.637 18.2186L291.637 67.2186C291.637 70.5323 288.951 73.2186 285.637 73.2186L47.6375 73.2186L47.6375 79.4251C47.6375 84.8134 41.0859 87.4705 37.3326 83.6045L1.69519 46.8981C-0.564968 44.5701 -0.564968 40.8671 1.69522 38.5391L37.3326 1.8326Z" fill="#E53935"/>
<path d="M37.3326 1.8326L38.0501 2.52918V2.52918L37.3326 1.8326ZM47.6375 12.2186L47.6375 13.2186L46.6375 13.2186L46.6375 12.2186L47.6375 12.2186ZM47.6375 73.2186L46.6375 73.2186L46.6375 72.2186L47.6375 72.2186L47.6375 73.2186ZM37.3326 83.6045L38.0501 82.908L37.3326 83.6045ZM1.69519 46.8981L0.977726 47.5946L1.69519 46.8981ZM1.69522 38.5391L2.41269 39.2357L2.41269 39.2357L1.69522 38.5391ZM46.6375 6.01208C46.6375 1.52185 41.1779 -0.692468 38.0501 2.52918L36.6151 1.13602C40.994 -3.37429 48.6375 -0.27425 48.6375 6.01208L46.6375 6.01208ZM46.6375 12.2186L46.6375 6.01208L48.6375 6.01208L48.6375 12.2186L46.6375 12.2186ZM285.637 13.2186L47.6375 13.2186L47.6375 11.2186L285.637 11.2186L285.637 13.2186ZM290.637 18.2186C290.637 15.4571 288.399 13.2186 285.637 13.2186L285.637 11.2186C289.503 11.2186 292.637 14.3526 292.637 18.2186L290.637 18.2186ZM290.637 67.2186L290.637 18.2186L292.637 18.2186L292.637 67.2186L290.637 67.2186ZM285.637 72.2186C288.399 72.2186 290.637 69.98 290.637 67.2186L292.637 67.2186C292.637 71.0846 289.503 74.2186 285.637 74.2186L285.637 72.2186ZM47.6375 72.2186L285.637 72.2186L285.637 74.2186L47.6375 74.2186L47.6375 72.2186ZM46.6375 79.4251L46.6375 73.2186L48.6375 73.2186L48.6375 79.4251L46.6375 79.4251ZM38.0501 82.908C41.1779 86.1296 46.6375 83.9153 46.6375 79.4251L48.6375 79.4251C48.6375 85.7114 40.994 88.8114 36.6151 84.3011L38.0501 82.908ZM2.41266 46.2015L38.0501 82.908L36.6151 84.3011L0.977726 47.5946L2.41266 46.2015ZM2.41269 39.2357C0.529209 41.1757 0.529209 44.2615 2.41266 46.2015L0.977726 47.5946C-1.65915 44.8787 -1.65915 40.5585 0.977756 37.8425L2.41269 39.2357ZM38.0501 2.52918L2.41269 39.2357L0.977756 37.8425L36.6151 1.13602L38.0501 2.52918Z" fill="#9D0000" mask="url(#path-2-inside-1)"/>
<path d="M63.1836 36.65C63.1556 36.5287 63.1369 36.2673 63.1276 35.866C63.1183 35.4647 63.1089 34.9933 63.0996 34.452C63.0903 33.9013 63.0809 33.3133 63.0716 32.688C63.0716 32.0627 63.0716 31.47 63.0716 30.91C63.0716 30.3407 63.0669 29.8367 63.0576 29.398C63.0576 28.95 63.0529 28.6373 63.0436 28.46C62.9596 28.3293 62.8989 28.2033 62.8616 28.082C62.8336 27.9513 62.8103 27.7927 62.7916 27.606C62.8569 27.4567 62.9596 27.3213 63.0996 27.2C63.2396 27.0693 63.3843 26.9573 63.5336 26.864C63.6923 26.7707 63.8416 26.7007 63.9816 26.654C64.1309 26.6073 64.2383 26.584 64.3036 26.584C64.4343 26.612 64.5276 26.64 64.5836 26.668C64.6396 26.6867 64.6956 26.7147 64.7516 26.752C65.1529 26.6867 65.8483 26.6027 66.8376 26.5C67.8269 26.388 69.0729 26.3227 70.5756 26.304C70.7436 26.3507 70.8976 26.4253 71.0376 26.528C71.1776 26.6307 71.3083 26.7753 71.4296 26.962C71.4669 27.1207 71.4949 27.4053 71.5136 27.816C71.5323 28.2267 71.5463 28.7167 71.5556 29.286C71.5649 29.846 71.5696 30.4573 71.5696 31.12C71.5696 31.7733 71.5696 32.4173 71.5696 33.052C71.5696 33.6867 71.5649 34.2887 71.5556 34.858C71.5556 35.418 71.5603 35.8847 71.5696 36.258C71.4949 36.5007 71.3503 36.6873 71.1356 36.818C70.9303 36.9393 70.7063 37 70.4636 37C70.2583 37 70.0576 36.9533 69.8616 36.86C69.6656 36.7667 69.4976 36.6267 69.3576 36.44C69.3576 36.2907 69.3576 36.02 69.3576 35.628C69.3669 35.236 69.3716 34.7833 69.3716 34.27C69.3809 33.7473 69.3903 33.192 69.3996 32.604C69.4089 32.0067 69.4089 31.4327 69.3996 30.882C69.3996 30.3313 69.3949 29.832 69.3856 29.384C69.3763 28.936 69.3623 28.5953 69.3436 28.362C69.0356 28.3713 68.6669 28.3853 68.2376 28.404C67.8176 28.4227 67.4023 28.446 66.9916 28.474C66.5903 28.502 66.2263 28.5347 65.8996 28.572C65.5729 28.6 65.3536 28.6327 65.2416 28.67C65.2416 28.8567 65.2416 29.1553 65.2416 29.566C65.2509 29.9673 65.2556 30.4247 65.2556 30.938C65.2649 31.4513 65.2743 31.9927 65.2836 32.562C65.2929 33.1313 65.3023 33.6773 65.3116 34.2C65.3209 34.7133 65.3303 35.18 65.3396 35.6C65.3489 36.02 65.3536 36.3373 65.3536 36.552C65.2136 36.776 65.0316 36.944 64.8076 37.056C64.5836 37.168 64.3643 37.224 64.1496 37.224C63.9536 37.224 63.7716 37.182 63.6036 37.098C63.4449 37.014 63.3049 36.8647 63.1836 36.65ZM77.64 37.238C76.9773 37.238 76.3613 37.1167 75.792 36.874C75.232 36.622 74.742 36.272 74.322 35.824C73.902 35.3667 73.5707 34.8207 73.328 34.186C73.0947 33.542 72.978 32.8233 72.978 32.03C72.978 31.1713 73.1227 30.4107 73.412 29.748C73.7107 29.076 74.1027 28.5113 74.588 28.054C75.0733 27.5873 75.6333 27.2327 76.268 26.99C76.9027 26.7473 77.556 26.626 78.228 26.626C78.956 26.626 79.6233 26.752 80.23 27.004C80.846 27.2467 81.3733 27.592 81.812 28.04C82.26 28.488 82.6053 29.0293 82.848 29.664C83.0907 30.2893 83.212 30.9893 83.212 31.764C83.212 32.7067 83.044 33.5233 82.708 34.214C82.372 34.9047 81.938 35.474 81.406 35.922C80.874 36.37 80.2767 36.7013 79.614 36.916C78.9513 37.1307 78.2933 37.238 77.64 37.238ZM77.738 35.152C78.046 35.152 78.3913 35.1053 78.774 35.012C79.1567 34.9187 79.516 34.746 79.852 34.494C80.188 34.242 80.4727 33.8967 80.706 33.458C80.9393 33.0193 81.056 32.4547 81.056 31.764C81.056 31.2507 80.9767 30.798 80.818 30.406C80.6687 30.014 80.4633 29.692 80.202 29.44C79.95 29.1787 79.656 28.9827 79.32 28.852C78.9933 28.7213 78.648 28.656 78.284 28.656C77.8733 28.656 77.4767 28.726 77.094 28.866C76.7113 28.9967 76.3707 29.202 76.072 29.482C75.7733 29.7527 75.5307 30.1027 75.344 30.532C75.1667 30.9613 75.078 31.47 75.078 32.058C75.078 32.5713 75.1433 33.024 75.274 33.416C75.4047 33.7987 75.5867 34.1207 75.82 34.382C76.0627 34.634 76.3473 34.8253 76.674 34.956C77.0007 35.0867 77.3553 35.152 77.738 35.152ZM84.273 35.194C84.413 35.1193 84.5856 35.0727 84.791 35.054C84.9963 35.026 85.211 35.0027 85.435 34.984C85.5936 34.7787 85.7336 34.5173 85.855 34.2C85.9763 33.8827 86.0836 33.5373 86.177 33.164C86.2796 32.7813 86.3636 32.3847 86.429 31.974C86.4943 31.554 86.5503 31.148 86.597 30.756C86.6436 30.3547 86.681 29.9813 86.709 29.636C86.737 29.2907 86.7603 28.992 86.779 28.74C86.7136 28.7493 86.611 28.7587 86.471 28.768C86.331 28.7773 86.2423 28.782 86.205 28.782C85.9903 28.6233 85.8316 28.446 85.729 28.25C85.6356 28.0447 85.589 27.844 85.589 27.648C85.589 27.508 85.6123 27.3633 85.659 27.214C85.715 27.0647 85.8036 26.9247 85.925 26.794C86.2703 26.7193 86.709 26.654 87.241 26.598C87.7823 26.5327 88.3423 26.4767 88.921 26.43C89.509 26.3833 90.0783 26.346 90.629 26.318C91.189 26.29 91.6603 26.2667 92.043 26.248C92.2203 26.3133 92.3696 26.402 92.491 26.514C92.6216 26.6167 92.7243 26.7613 92.799 26.948C92.8363 27.2747 92.8643 27.6713 92.883 28.138C92.9016 28.5953 92.911 29.1367 92.911 29.762C92.9203 30.3873 92.925 31.0967 92.925 31.89C92.925 32.6833 92.9203 33.57 92.911 34.55C93.1723 34.5033 93.443 34.508 93.723 34.564C94.003 34.6107 94.2876 34.69 94.577 34.802C94.577 34.9887 94.5723 35.222 94.563 35.502C94.5536 35.782 94.5396 36.076 94.521 36.384C94.5116 36.692 94.5023 36.9953 94.493 37.294C94.493 37.602 94.4976 37.8727 94.507 38.106C94.395 38.2927 94.2783 38.4327 94.157 38.526C94.0356 38.6193 93.9003 38.6847 93.751 38.722C93.611 38.7687 93.457 38.792 93.289 38.792C93.121 38.8013 92.9436 38.806 92.757 38.806C92.6543 38.694 92.5703 38.5447 92.505 38.358C92.449 38.1713 92.407 37.9753 92.379 37.77C92.351 37.574 92.337 37.378 92.337 37.182C92.337 36.986 92.3463 36.818 92.365 36.678C92.0383 36.6967 91.6836 36.7153 91.301 36.734C90.9276 36.7527 90.4983 36.776 90.013 36.804C89.537 36.832 88.9956 36.8647 88.389 36.902C87.7823 36.93 87.087 36.9627 86.303 37C86.3216 37.1867 86.3403 37.4013 86.359 37.644C86.387 37.896 86.4056 38.1153 86.415 38.302C86.359 38.4327 86.2516 38.5447 86.093 38.638C85.9343 38.7313 85.757 38.8107 85.561 38.876C85.3743 38.9507 85.1783 39.002 84.973 39.03C84.777 39.0673 84.6043 39.086 84.455 39.086C84.2963 38.386 84.1936 37.7233 84.147 37.098C84.1003 36.4727 84.1423 35.838 84.273 35.194ZM90.741 34.704C90.769 34.3307 90.7876 33.864 90.797 33.304C90.8156 32.744 90.8296 32.1607 90.839 31.554C90.8483 30.9473 90.8436 30.3593 90.825 29.79C90.8156 29.2207 90.797 28.7447 90.769 28.362C90.601 28.3713 90.4143 28.3807 90.209 28.39C90.013 28.3993 89.817 28.4087 89.621 28.418C89.4343 28.4273 89.2663 28.4413 89.117 28.46C88.9676 28.4693 88.8556 28.4787 88.781 28.488C88.725 30.028 88.6083 31.33 88.431 32.394C88.263 33.4487 88.053 34.284 87.801 34.9L90.741 34.704ZM99.8842 37.238C99.2215 37.238 98.6055 37.1167 98.0362 36.874C97.4762 36.622 96.9862 36.272 96.5662 35.824C96.1462 35.3667 95.8148 34.8207 95.5722 34.186C95.3388 33.542 95.2222 32.8233 95.2222 32.03C95.2222 31.1713 95.3668 30.4107 95.6562 29.748C95.9548 29.076 96.3468 28.5113 96.8322 28.054C97.3175 27.5873 97.8775 27.2327 98.5122 26.99C99.1468 26.7473 99.8002 26.626 100.472 26.626C101.2 26.626 101.867 26.752 102.474 27.004C103.09 27.2467 103.617 27.592 104.056 28.04C104.504 28.488 104.849 29.0293 105.092 29.664C105.335 30.2893 105.456 30.9893 105.456 31.764C105.456 32.7067 105.288 33.5233 104.952 34.214C104.616 34.9047 104.182 35.474 103.65 35.922C103.118 36.37 102.521 36.7013 101.858 36.916C101.195 37.1307 100.537 37.238 99.8842 37.238ZM99.9822 35.152C100.29 35.152 100.635 35.1053 101.018 35.012C101.401 34.9187 101.76 34.746 102.096 34.494C102.432 34.242 102.717 33.8967 102.95 33.458C103.183 33.0193 103.3 32.4547 103.3 31.764C103.3 31.2507 103.221 30.798 103.062 30.406C102.913 30.014 102.707 29.692 102.446 29.44C102.194 29.1787 101.9 28.9827 101.564 28.852C101.237 28.7213 100.892 28.656 100.528 28.656C100.117 28.656 99.7208 28.726 99.3382 28.866C98.9555 28.9967 98.6148 29.202 98.3162 29.482C98.0175 29.7527 97.7748 30.1027 97.5882 30.532C97.4108 30.9613 97.3222 31.47 97.3222 32.058C97.3222 32.5713 97.3875 33.024 97.5182 33.416C97.6488 33.7987 97.8308 34.1207 98.0642 34.382C98.3068 34.634 98.5915 34.8253 98.9182 34.956C99.2448 35.0867 99.5995 35.152 99.9822 35.152ZM106.419 36.076C106.643 35.6467 106.904 35.1987 107.203 34.732C107.511 34.256 107.819 33.794 108.127 33.346C108.444 32.898 108.748 32.478 109.037 32.086C109.336 31.694 109.588 31.372 109.793 31.12C109.578 30.8867 109.317 30.616 109.009 30.308C108.701 29.9907 108.384 29.6733 108.057 29.356C107.74 29.0293 107.441 28.7213 107.161 28.432C106.89 28.1333 106.685 27.8767 106.545 27.662C106.554 27.4567 106.624 27.27 106.755 27.102C106.895 26.934 107.054 26.794 107.231 26.682C107.418 26.57 107.6 26.4953 107.777 26.458C107.964 26.4207 108.099 26.4347 108.183 26.5L111.823 30.322L111.949 27.074C112.042 26.8967 112.192 26.7333 112.397 26.584C112.612 26.4253 112.84 26.346 113.083 26.346C113.214 26.346 113.344 26.374 113.475 26.43C113.615 26.486 113.764 26.584 113.923 26.724C113.951 26.8547 113.974 27.018 113.993 27.214C114.012 27.41 114.026 27.6527 114.035 27.942C114.044 28.2313 114.049 28.572 114.049 28.964C114.049 29.356 114.049 29.818 114.049 30.35C114.236 30.182 114.446 29.9813 114.679 29.748C114.912 29.5147 115.178 29.244 115.477 28.936C115.785 28.6187 116.126 28.264 116.499 27.872C116.872 27.4707 117.297 27.0227 117.773 26.528C117.894 26.4813 118.044 26.4533 118.221 26.444C118.398 26.4347 118.576 26.4627 118.753 26.528C118.93 26.584 119.089 26.6867 119.229 26.836C119.369 26.976 119.462 27.1767 119.509 27.438C119.369 27.746 119.173 28.0587 118.921 28.376C118.678 28.684 118.408 28.9873 118.109 29.286C117.82 29.5847 117.516 29.8787 117.199 30.168C116.891 30.448 116.602 30.7187 116.331 30.98C116.536 31.2413 116.793 31.5913 117.101 32.03C117.409 32.4593 117.722 32.9167 118.039 33.402C118.366 33.8873 118.674 34.368 118.963 34.844C119.252 35.32 119.481 35.7307 119.649 36.076C119.649 36.2907 119.598 36.4727 119.495 36.622C119.402 36.7713 119.28 36.8973 119.131 37C118.991 37.0933 118.837 37.168 118.669 37.224C118.501 37.28 118.347 37.322 118.207 37.35C117.88 37.014 117.558 36.6173 117.241 36.16C116.924 35.7027 116.616 35.2407 116.317 34.774C116.028 34.298 115.748 33.85 115.477 33.43C115.216 33.0007 114.978 32.6553 114.763 32.394C114.623 32.4967 114.492 32.604 114.371 32.716C114.25 32.828 114.152 32.9167 114.077 32.982C114.105 33.234 114.133 33.5187 114.161 33.836C114.189 34.144 114.212 34.4613 114.231 34.788C114.25 35.1053 114.268 35.4133 114.287 35.712C114.306 36.0013 114.315 36.244 114.315 36.44C114.212 36.6733 114.049 36.846 113.825 36.958C113.601 37.07 113.377 37.126 113.153 37.126C112.957 37.126 112.761 37.084 112.565 37C112.378 36.916 112.234 36.7667 112.131 36.552C112.066 36.0013 112.019 35.4087 111.991 34.774C111.963 34.13 111.944 33.542 111.935 33.01L111.305 32.52C111.081 32.828 110.82 33.2013 110.521 33.64C110.232 34.0787 109.933 34.5267 109.625 34.984C109.317 35.4413 109.014 35.8847 108.715 36.314C108.426 36.734 108.169 37.0887 107.945 37.378C107.73 37.378 107.534 37.336 107.357 37.252C107.189 37.1773 107.035 37.0793 106.895 36.958C106.764 36.8273 106.657 36.6873 106.573 36.538C106.498 36.3793 106.447 36.2253 106.419 36.076ZM120.818 35.194C120.958 35.1193 121.131 35.0727 121.336 35.054C121.541 35.026 121.756 35.0027 121.98 34.984C122.139 34.7787 122.279 34.5173 122.4 34.2C122.521 33.8827 122.629 33.5373 122.722 33.164C122.825 32.7813 122.909 32.3847 122.974 31.974C123.039 31.554 123.095 31.148 123.142 30.756C123.189 30.3547 123.226 29.9813 123.254 29.636C123.282 29.2907 123.305 28.992 123.324 28.74C123.259 28.7493 123.156 28.7587 123.016 28.768C122.876 28.7773 122.787 28.782 122.75 28.782C122.535 28.6233 122.377 28.446 122.274 28.25C122.181 28.0447 122.134 27.844 122.134 27.648C122.134 27.508 122.157 27.3633 122.204 27.214C122.26 27.0647 122.349 26.9247 122.47 26.794C122.815 26.7193 123.254 26.654 123.786 26.598C124.327 26.5327 124.887 26.4767 125.466 26.43C126.054 26.3833 126.623 26.346 127.174 26.318C127.734 26.29 128.205 26.2667 128.588 26.248C128.765 26.3133 128.915 26.402 129.036 26.514C129.167 26.6167 129.269 26.7613 129.344 26.948C129.381 27.2747 129.409 27.6713 129.428 28.138C129.447 28.5953 129.456 29.1367 129.456 29.762C129.465 30.3873 129.47 31.0967 129.47 31.89C129.47 32.6833 129.465 33.57 129.456 34.55C129.717 34.5033 129.988 34.508 130.268 34.564C130.548 34.6107 130.833 34.69 131.122 34.802C131.122 34.9887 131.117 35.222 131.108 35.502C131.099 35.782 131.085 36.076 131.066 36.384C131.057 36.692 131.047 36.9953 131.038 37.294C131.038 37.602 131.043 37.8727 131.052 38.106C130.94 38.2927 130.823 38.4327 130.702 38.526C130.581 38.6193 130.445 38.6847 130.296 38.722C130.156 38.7687 130.002 38.792 129.834 38.792C129.666 38.8013 129.489 38.806 129.302 38.806C129.199 38.694 129.115 38.5447 129.05 38.358C128.994 38.1713 128.952 37.9753 128.924 37.77C128.896 37.574 128.882 37.378 128.882 37.182C128.882 36.986 128.891 36.818 128.91 36.678C128.583 36.6967 128.229 36.7153 127.846 36.734C127.473 36.7527 127.043 36.776 126.558 36.804C126.082 36.832 125.541 36.8647 124.934 36.902C124.327 36.93 123.632 36.9627 122.848 37C122.867 37.1867 122.885 37.4013 122.904 37.644C122.932 37.896 122.951 38.1153 122.96 38.302C122.904 38.4327 122.797 38.5447 122.638 38.638C122.479 38.7313 122.302 38.8107 122.106 38.876C121.919 38.9507 121.723 39.002 121.518 39.03C121.322 39.0673 121.149 39.086 121 39.086C120.841 38.386 120.739 37.7233 120.692 37.098C120.645 36.4727 120.687 35.838 120.818 35.194ZM127.286 34.704C127.314 34.3307 127.333 33.864 127.342 33.304C127.361 32.744 127.375 32.1607 127.384 31.554C127.393 30.9473 127.389 30.3593 127.37 29.79C127.361 29.2207 127.342 28.7447 127.314 28.362C127.146 28.3713 126.959 28.3807 126.754 28.39C126.558 28.3993 126.362 28.4087 126.166 28.418C125.979 28.4273 125.811 28.4413 125.662 28.46C125.513 28.4693 125.401 28.4787 125.326 28.488C125.27 30.028 125.153 31.33 124.976 32.394C124.808 33.4487 124.598 34.284 124.346 34.9L127.286 34.704ZM132.537 36.552C132.509 36.2813 132.486 35.9127 132.467 35.446C132.458 34.9793 132.448 34.4567 132.439 33.878C132.439 33.2993 132.439 32.6833 132.439 32.03C132.439 31.3767 132.439 30.7327 132.439 30.098C132.439 29.4633 132.439 28.8567 132.439 28.278C132.448 27.6993 132.453 27.1907 132.453 26.752C132.565 26.612 132.705 26.5047 132.873 26.43C133.041 26.346 133.218 26.2853 133.405 26.248C133.601 26.2107 133.797 26.192 133.993 26.192C134.189 26.1827 134.371 26.192 134.539 26.22C134.567 26.472 134.586 26.794 134.595 27.186C134.614 27.5687 134.623 27.9887 134.623 28.446C134.632 28.894 134.637 29.3653 134.637 29.86C134.637 30.3453 134.632 30.812 134.623 31.26C134.623 31.6987 134.623 32.1093 134.623 32.492C134.623 32.8653 134.623 33.164 134.623 33.388C134.828 33.0707 135.066 32.6787 135.337 32.212C135.617 31.7453 135.911 31.2553 136.219 30.742C136.536 30.2193 136.858 29.7013 137.185 29.188C137.512 28.6747 137.824 28.208 138.123 27.788C138.431 27.368 138.716 27.0227 138.977 26.752C139.238 26.4813 139.462 26.3273 139.649 26.29C139.742 26.318 139.85 26.3507 139.971 26.388C140.102 26.4253 140.232 26.472 140.363 26.528C140.494 26.584 140.615 26.6493 140.727 26.724C140.848 26.7893 140.946 26.8687 141.021 26.962C141.049 27.074 141.068 27.312 141.077 27.676C141.096 28.0307 141.1 28.4553 141.091 28.95C141.091 29.4353 141.086 29.958 141.077 30.518C141.077 31.0687 141.068 31.6007 141.049 32.114C141.04 32.6273 141.03 33.0893 141.021 33.5C141.021 33.9013 141.021 34.1953 141.021 34.382C141.021 34.7647 141.026 35.11 141.035 35.418C141.044 35.726 141.063 36.0013 141.091 36.244C141.044 36.4027 140.951 36.5427 140.811 36.664C140.671 36.776 140.512 36.8647 140.335 36.93C140.158 36.986 139.98 37.014 139.803 37.014C139.626 37.0233 139.476 36.9953 139.355 36.93C139.234 36.846 139.131 36.72 139.047 36.552C138.972 36.3747 138.907 36.1647 138.851 35.922C138.804 35.67 138.772 35.3947 138.753 35.096C138.734 34.7973 138.725 34.48 138.725 34.144C138.725 33.668 138.739 33.1313 138.767 32.534C138.804 31.9367 138.846 31.2087 138.893 30.35C138.669 30.714 138.412 31.1293 138.123 31.596C137.843 32.0533 137.549 32.5293 137.241 33.024C136.933 33.5093 136.62 33.9947 136.303 34.48C135.986 34.956 135.687 35.39 135.407 35.782C135.127 36.1647 134.875 36.4867 134.651 36.748C134.436 37 134.268 37.154 134.147 37.21C133.96 37.1727 133.797 37.14 133.657 37.112C133.526 37.0933 133.4 37.0653 133.279 37.028C133.167 36.9907 133.05 36.9393 132.929 36.874C132.817 36.7993 132.686 36.692 132.537 36.552ZM145.803 36.958C145.766 36.7807 145.733 36.5053 145.705 36.132C145.687 35.7587 145.668 35.3293 145.649 34.844C145.64 34.3493 145.631 33.822 145.621 33.262C145.612 32.6927 145.603 32.1327 145.593 31.582C145.593 31.0313 145.593 30.5133 145.593 30.028C145.603 29.5333 145.612 29.1133 145.621 28.768C145.145 28.8427 144.693 28.9127 144.263 28.978C143.843 29.034 143.381 29.0713 142.877 29.09C142.7 28.81 142.579 28.516 142.513 28.208C142.448 27.9 142.467 27.62 142.569 27.368C142.765 27.284 143.059 27.2047 143.451 27.13C143.843 27.046 144.287 26.9667 144.781 26.892C145.276 26.8173 145.799 26.752 146.349 26.696C146.9 26.6307 147.427 26.5747 147.931 26.528C148.445 26.4813 148.911 26.444 149.331 26.416C149.751 26.388 150.083 26.374 150.325 26.374C150.428 26.4767 150.503 26.598 150.549 26.738C150.605 26.878 150.633 27.0273 150.633 27.186C150.633 27.3353 150.61 27.4893 150.563 27.648C150.517 27.7973 150.451 27.942 150.367 28.082C150.069 28.194 149.709 28.278 149.289 28.334C148.869 28.3807 148.342 28.4413 147.707 28.516L147.791 36.608C147.493 36.888 147.166 37.07 146.811 37.154C146.466 37.238 146.13 37.1727 145.803 36.958ZM152.404 32.87C152.301 32.7673 152.227 32.6507 152.18 32.52C152.133 32.3893 152.11 32.2493 152.11 32.1C152.11 31.9413 152.138 31.7873 152.194 31.638C152.25 31.4887 152.325 31.3627 152.418 31.26C152.427 30.9427 152.437 30.672 152.446 30.448C152.455 30.2147 152.465 30.0187 152.474 29.86C152.483 29.692 152.488 29.552 152.488 29.44C152.488 29.3187 152.488 29.2113 152.488 29.118C152.301 28.9593 152.166 28.768 152.082 28.544C151.998 28.32 151.956 28.0727 151.956 27.802C152.171 27.6247 152.362 27.4847 152.53 27.382C152.707 27.2793 152.931 27.1627 153.202 27.032C153.463 27.0227 153.785 27.004 154.168 26.976C154.551 26.948 154.961 26.9247 155.4 26.906C155.839 26.878 156.282 26.8547 156.73 26.836C157.178 26.808 157.593 26.7893 157.976 26.78C158.368 26.7613 158.704 26.752 158.984 26.752C159.273 26.752 159.474 26.766 159.586 26.794C159.689 26.934 159.759 27.0787 159.796 27.228C159.843 27.368 159.866 27.5033 159.866 27.634C159.866 27.8487 159.81 28.054 159.698 28.25C159.595 28.446 159.446 28.5813 159.25 28.656C158.923 28.7213 158.559 28.7727 158.158 28.81C157.766 28.838 157.36 28.866 156.94 28.894C156.529 28.922 156.123 28.95 155.722 28.978C155.321 29.006 154.957 29.0387 154.63 29.076C154.621 29.3467 154.611 29.6407 154.602 29.958C154.602 30.266 154.611 30.5553 154.63 30.826C154.863 30.8167 155.153 30.8027 155.498 30.784C155.843 30.756 156.212 30.728 156.604 30.7C156.996 30.6627 157.393 30.6253 157.794 30.588C158.195 30.5507 158.573 30.5087 158.928 30.462C159.115 30.5833 159.245 30.7327 159.32 30.91C159.404 31.078 159.446 31.2413 159.446 31.4C159.446 31.624 159.39 31.8433 159.278 32.058C159.175 32.2727 159.021 32.4267 158.816 32.52C158.368 32.576 157.869 32.6273 157.318 32.674C156.767 32.7113 156.245 32.744 155.75 32.772C155.47 32.7907 155.241 32.8047 155.064 32.814C154.896 32.814 154.719 32.8233 154.532 32.842C154.513 33.1407 154.495 33.4907 154.476 33.892C154.467 34.284 154.462 34.732 154.462 35.236C154.779 35.2173 155.129 35.1893 155.512 35.152C155.904 35.1147 156.301 35.0633 156.702 34.998C157.113 34.9327 157.523 34.858 157.934 34.774C158.354 34.69 158.755 34.592 159.138 34.48C159.437 34.4987 159.656 34.6153 159.796 34.83C159.945 35.0447 160.02 35.2967 160.02 35.586C160.02 35.67 160.006 35.7727 159.978 35.894C159.959 36.0153 159.917 36.1553 159.852 36.314C159.395 36.5287 158.9 36.7013 158.368 36.832C157.845 36.9627 157.304 37.0607 156.744 37.126C156.193 37.2007 155.638 37.252 155.078 37.28C154.527 37.3173 154 37.3453 153.496 37.364C153.356 37.308 153.23 37.252 153.118 37.196C153.015 37.14 152.917 37.0747 152.824 37C152.74 36.9253 152.656 36.8413 152.572 36.748C152.488 36.6453 152.395 36.5193 152.292 36.37L152.404 32.87ZM161.399 35.936C161.436 35.628 161.571 35.3573 161.805 35.124C162.038 34.8813 162.407 34.76 162.911 34.76C163.051 34.76 163.195 34.7927 163.345 34.858C163.494 34.9233 163.629 35.012 163.751 35.124C163.872 35.236 163.97 35.3667 164.045 35.516C164.119 35.6653 164.157 35.8193 164.157 35.978C164.157 36.314 164.124 36.622 164.059 36.902C163.993 37.182 163.891 37.4527 163.751 37.714C163.62 37.9847 163.447 38.2553 163.233 38.526C163.027 38.7967 162.785 39.0813 162.505 39.38C162.374 39.4173 162.243 39.4173 162.113 39.38C161.991 39.352 161.875 39.3007 161.763 39.226C161.66 39.1607 161.567 39.0813 161.483 38.988C161.408 38.8947 161.357 38.8013 161.329 38.708C161.403 38.6147 161.487 38.512 161.581 38.4C161.674 38.288 161.763 38.162 161.847 38.022C161.931 37.8913 162.005 37.742 162.071 37.574C162.145 37.4153 162.197 37.2333 162.225 37.028C161.674 36.8133 161.399 36.4493 161.399 35.936ZM169.852 36.65C169.824 36.5287 169.805 36.2673 169.796 35.866C169.786 35.4647 169.777 34.9933 169.768 34.452C169.758 33.9013 169.749 33.3133 169.74 32.688C169.74 32.0627 169.74 31.47 169.74 30.91C169.74 30.3407 169.735 29.8367 169.726 29.398C169.726 28.95 169.721 28.6373 169.712 28.46C169.628 28.3293 169.567 28.2033 169.53 28.082C169.502 27.9513 169.478 27.7927 169.46 27.606C169.525 27.4567 169.628 27.3213 169.768 27.2C169.908 27.0693 170.052 26.9573 170.202 26.864C170.36 26.7707 170.51 26.7007 170.65 26.654C170.799 26.6073 170.906 26.584 170.972 26.584C171.102 26.612 171.196 26.64 171.252 26.668C171.308 26.6867 171.364 26.7147 171.42 26.752C171.821 26.6867 172.516 26.6027 173.506 26.5C174.495 26.388 175.741 26.3227 177.244 26.304C177.412 26.3507 177.566 26.4253 177.706 26.528C177.846 26.6307 177.976 26.7753 178.098 26.962C178.135 27.1207 178.163 27.4053 178.182 27.816C178.2 28.2267 178.214 28.7167 178.224 29.286C178.233 29.846 178.238 30.4573 178.238 31.12C178.238 31.7733 178.238 32.4173 178.238 33.052C178.238 33.6867 178.233 34.2887 178.224 34.858C178.224 35.418 178.228 35.8847 178.238 36.258C178.163 36.5007 178.018 36.6873 177.804 36.818C177.598 36.9393 177.374 37 177.132 37C176.926 37 176.726 36.9533 176.53 36.86C176.334 36.7667 176.166 36.6267 176.026 36.44C176.026 36.2907 176.026 36.02 176.026 35.628C176.035 35.236 176.04 34.7833 176.04 34.27C176.049 33.7473 176.058 33.192 176.068 32.604C176.077 32.0067 176.077 31.4327 176.068 30.882C176.068 30.3313 176.063 29.832 176.054 29.384C176.044 28.936 176.03 28.5953 176.012 28.362C175.704 28.3713 175.335 28.3853 174.906 28.404C174.486 28.4227 174.07 28.446 173.66 28.474C173.258 28.502 172.894 28.5347 172.568 28.572C172.241 28.6 172.022 28.6327 171.91 28.67C171.91 28.8567 171.91 29.1553 171.91 29.566C171.919 29.9673 171.924 30.4247 171.924 30.938C171.933 31.4513 171.942 31.9927 171.952 32.562C171.961 33.1313 171.97 33.6773 171.98 34.2C171.989 34.7133 171.998 35.18 172.008 35.6C172.017 36.02 172.022 36.3373 172.022 36.552C171.882 36.776 171.7 36.944 171.476 37.056C171.252 37.168 171.032 37.224 170.818 37.224C170.622 37.224 170.44 37.182 170.272 37.098C170.113 37.014 169.973 36.8647 169.852 36.65ZM184.308 37.238C183.645 37.238 183.029 37.1167 182.46 36.874C181.9 36.622 181.41 36.272 180.99 35.824C180.57 35.3667 180.239 34.8207 179.996 34.186C179.763 33.542 179.646 32.8233 179.646 32.03C179.646 31.1713 179.791 30.4107 180.08 29.748C180.379 29.076 180.771 28.5113 181.256 28.054C181.741 27.5873 182.301 27.2327 182.936 26.99C183.571 26.7473 184.224 26.626 184.896 26.626C185.624 26.626 186.291 26.752 186.898 27.004C187.514 27.2467 188.041 27.592 188.48 28.04C188.928 28.488 189.273 29.0293 189.516 29.664C189.759 30.2893 189.88 30.9893 189.88 31.764C189.88 32.7067 189.712 33.5233 189.376 34.214C189.04 34.9047 188.606 35.474 188.074 35.922C187.542 36.37 186.945 36.7013 186.282 36.916C185.619 37.1307 184.961 37.238 184.308 37.238ZM184.406 35.152C184.714 35.152 185.059 35.1053 185.442 35.012C185.825 34.9187 186.184 34.746 186.52 34.494C186.856 34.242 187.141 33.8967 187.374 33.458C187.607 33.0193 187.724 32.4547 187.724 31.764C187.724 31.2507 187.645 30.798 187.486 30.406C187.337 30.014 187.131 29.692 186.87 29.44C186.618 29.1787 186.324 28.9827 185.988 28.852C185.661 28.7213 185.316 28.656 184.952 28.656C184.541 28.656 184.145 28.726 183.762 28.866C183.379 28.9967 183.039 29.202 182.74 29.482C182.441 29.7527 182.199 30.1027 182.012 30.532C181.835 30.9613 181.746 31.47 181.746 32.058C181.746 32.5713 181.811 33.024 181.942 33.416C182.073 33.7987 182.255 34.1207 182.488 34.382C182.731 34.634 183.015 34.8253 183.342 34.956C183.669 35.0867 184.023 35.152 184.406 35.152ZM190.843 36.076C191.067 35.6467 191.328 35.1987 191.627 34.732C191.935 34.256 192.243 33.794 192.551 33.346C192.868 32.898 193.172 32.478 193.461 32.086C193.76 31.694 194.012 31.372 194.217 31.12C194.002 30.8867 193.741 30.616 193.433 30.308C193.125 29.9907 192.808 29.6733 192.481 29.356C192.164 29.0293 191.865 28.7213 191.585 28.432C191.314 28.1333 191.109 27.8767 190.969 27.662C190.978 27.4567 191.048 27.27 191.179 27.102C191.319 26.934 191.478 26.794 191.655 26.682C191.842 26.57 192.024 26.4953 192.201 26.458C192.388 26.4207 192.523 26.4347 192.607 26.5L196.247 30.322L196.373 27.074C196.466 26.8967 196.616 26.7333 196.821 26.584C197.036 26.4253 197.264 26.346 197.507 26.346C197.638 26.346 197.768 26.374 197.899 26.43C198.039 26.486 198.188 26.584 198.347 26.724C198.375 26.8547 198.398 27.018 198.417 27.214C198.436 27.41 198.45 27.6527 198.459 27.942C198.468 28.2313 198.473 28.572 198.473 28.964C198.473 29.356 198.473 29.818 198.473 30.35C198.66 30.182 198.87 29.9813 199.103 29.748C199.336 29.5147 199.602 29.244 199.901 28.936C200.209 28.6187 200.55 28.264 200.923 27.872C201.296 27.4707 201.721 27.0227 202.197 26.528C202.318 26.4813 202.468 26.4533 202.645 26.444C202.822 26.4347 203 26.4627 203.177 26.528C203.354 26.584 203.513 26.6867 203.653 26.836C203.793 26.976 203.886 27.1767 203.933 27.438C203.793 27.746 203.597 28.0587 203.345 28.376C203.102 28.684 202.832 28.9873 202.533 29.286C202.244 29.5847 201.94 29.8787 201.623 30.168C201.315 30.448 201.026 30.7187 200.755 30.98C200.96 31.2413 201.217 31.5913 201.525 32.03C201.833 32.4593 202.146 32.9167 202.463 33.402C202.79 33.8873 203.098 34.368 203.387 34.844C203.676 35.32 203.905 35.7307 204.073 36.076C204.073 36.2907 204.022 36.4727 203.919 36.622C203.826 36.7713 203.704 36.8973 203.555 37C203.415 37.0933 203.261 37.168 203.093 37.224C202.925 37.28 202.771 37.322 202.631 37.35C202.304 37.014 201.982 36.6173 201.665 36.16C201.348 35.7027 201.04 35.2407 200.741 34.774C200.452 34.298 200.172 33.85 199.901 33.43C199.64 33.0007 199.402 32.6553 199.187 32.394C199.047 32.4967 198.916 32.604 198.795 32.716C198.674 32.828 198.576 32.9167 198.501 32.982C198.529 33.234 198.557 33.5187 198.585 33.836C198.613 34.144 198.636 34.4613 198.655 34.788C198.674 35.1053 198.692 35.4133 198.711 35.712C198.73 36.0013 198.739 36.244 198.739 36.44C198.636 36.6733 198.473 36.846 198.249 36.958C198.025 37.07 197.801 37.126 197.577 37.126C197.381 37.126 197.185 37.084 196.989 37C196.802 36.916 196.658 36.7667 196.555 36.552C196.49 36.0013 196.443 35.4087 196.415 34.774C196.387 34.13 196.368 33.542 196.359 33.01L195.729 32.52C195.505 32.828 195.244 33.2013 194.945 33.64C194.656 34.0787 194.357 34.5267 194.049 34.984C193.741 35.4413 193.438 35.8847 193.139 36.314C192.85 36.734 192.593 37.0887 192.369 37.378C192.154 37.378 191.958 37.336 191.781 37.252C191.613 37.1773 191.459 37.0793 191.319 36.958C191.188 36.8273 191.081 36.6873 190.997 36.538C190.922 36.3793 190.871 36.2253 190.843 36.076ZM204.881 36.706C204.863 36.622 204.9 36.4307 204.993 36.132C205.087 35.824 205.213 35.4507 205.371 35.012C205.53 34.564 205.717 34.0693 205.931 33.528C206.155 32.9773 206.389 32.422 206.631 31.862C206.874 31.2927 207.117 30.742 207.359 30.21C207.602 29.6687 207.831 29.1787 208.045 28.74C208.045 28.7307 208.041 28.726 208.031 28.726C208.022 28.7167 208.017 28.7073 208.017 28.698C207.971 28.6047 207.919 28.5113 207.863 28.418C207.817 28.3247 207.756 28.1847 207.681 27.998C207.84 27.634 208.027 27.3493 208.241 27.144C208.456 26.9293 208.75 26.808 209.123 26.78C209.329 26.836 209.553 26.9993 209.795 27.27C210.038 27.5407 210.281 27.8767 210.523 28.278C210.775 28.6793 211.027 29.132 211.279 29.636C211.531 30.14 211.774 30.658 212.007 31.19C212.25 31.722 212.479 32.254 212.693 32.786C212.908 33.3087 213.099 33.794 213.267 34.242C213.445 34.69 213.589 35.082 213.701 35.418C213.823 35.7447 213.911 35.9827 213.967 36.132C213.911 36.2627 213.813 36.3933 213.673 36.524C213.543 36.6453 213.389 36.7573 213.211 36.86C213.043 36.9533 212.866 37.0233 212.679 37.07C212.502 37.126 212.343 37.14 212.203 37.112C212.026 36.7667 211.867 36.4307 211.727 36.104C211.597 35.7773 211.475 35.488 211.363 35.236L211.363 35.18C210.757 35.2547 210.103 35.334 209.403 35.418C208.713 35.4927 208.055 35.5673 207.429 35.642C207.411 35.6607 207.392 35.6887 207.373 35.726C207.364 35.754 207.341 35.81 207.303 35.894C207.275 35.978 207.229 36.0993 207.163 36.258C207.098 36.4167 207.009 36.636 206.897 36.916C206.832 37.0467 206.725 37.1447 206.575 37.21C206.426 37.2847 206.258 37.322 206.071 37.322C205.894 37.322 205.703 37.2847 205.497 37.21C205.301 37.1447 205.129 37.042 204.979 36.902L204.881 36.706ZM210.635 33.248C210.561 33.0427 210.472 32.8187 210.369 32.576C210.276 32.3333 210.173 32.0907 210.061 31.848C209.949 31.6053 209.837 31.372 209.725 31.148C209.623 30.9147 209.525 30.7047 209.431 30.518C209.403 30.5833 209.371 30.6673 209.333 30.77C209.296 30.8633 209.231 31.0173 209.137 31.232C209.044 31.4467 208.918 31.7453 208.759 32.128C208.601 32.5013 208.391 33.0007 208.129 33.626L210.635 33.248ZM214.589 35.726C214.673 35.6607 214.776 35.5627 214.897 35.432C215.028 35.3013 215.159 35.152 215.289 34.984C215.429 34.816 215.565 34.6387 215.695 34.452C215.826 34.256 215.938 34.0553 216.031 33.85C216.246 33.374 216.414 32.9073 216.535 32.45C216.666 31.9927 216.764 31.5447 216.829 31.106C216.895 30.6673 216.932 30.2427 216.941 29.832C216.951 29.4213 216.946 29.0247 216.927 28.642C216.759 28.6327 216.605 28.5953 216.465 28.53C216.325 28.4647 216.204 28.3853 216.101 28.292C215.999 28.1893 215.919 28.082 215.863 27.97C215.807 27.8487 215.779 27.7273 215.779 27.606C215.779 27.494 215.803 27.3587 215.849 27.2C215.905 27.032 215.966 26.8827 216.031 26.752C216.414 26.7053 216.885 26.6587 217.445 26.612C218.005 26.556 218.575 26.5047 219.153 26.458C219.741 26.4113 220.301 26.374 220.833 26.346C221.375 26.318 221.818 26.2993 222.163 26.29C222.35 26.29 222.541 26.36 222.737 26.5C222.933 26.6307 223.069 26.7847 223.143 26.962C223.209 27.5593 223.251 28.2687 223.269 29.09C223.297 29.9113 223.311 30.7607 223.311 31.638C223.311 32.5153 223.311 33.3787 223.311 34.228C223.311 35.068 223.325 35.8147 223.353 36.468C223.279 36.6827 223.12 36.8553 222.877 36.986C222.644 37.1167 222.411 37.182 222.177 37.182C221.944 37.182 221.72 37.126 221.505 37.014C221.3 36.9113 221.16 36.7433 221.085 36.51C221.085 36.2767 221.085 35.9593 221.085 35.558C221.095 35.1567 221.104 34.7087 221.113 34.214C221.123 33.71 221.132 33.1827 221.141 32.632C221.16 32.072 221.169 31.5307 221.169 31.008C221.179 30.476 221.183 29.9813 221.183 29.524C221.183 29.0573 221.179 28.67 221.169 28.362C220.768 28.3713 220.362 28.3853 219.951 28.404C219.541 28.4133 219.209 28.432 218.957 28.46C218.957 28.768 218.953 29.1553 218.943 29.622C218.934 30.0793 218.901 30.574 218.845 31.106C218.789 31.6287 218.705 32.1747 218.593 32.744C218.481 33.304 218.327 33.8453 218.131 34.368C218.01 34.6853 217.861 35.0073 217.683 35.334C217.506 35.6607 217.319 35.964 217.123 36.244C216.927 36.524 216.722 36.762 216.507 36.958C216.302 37.154 216.111 37.28 215.933 37.336C215.439 37.2707 215.093 37.1167 214.897 36.874C214.701 36.6313 214.599 36.2487 214.589 35.726ZM228.069 33.64C227.891 33.3413 227.681 33.0053 227.439 32.632C227.205 32.2493 226.958 31.8527 226.697 31.442C226.445 31.0313 226.193 30.616 225.941 30.196C225.689 29.7667 225.455 29.3607 225.241 28.978C225.035 28.5953 224.863 28.2407 224.723 27.914C224.583 27.5873 224.499 27.3167 224.471 27.102C224.517 26.9713 224.615 26.85 224.765 26.738C224.914 26.626 225.082 26.542 225.269 26.486C225.455 26.43 225.647 26.4113 225.843 26.43C226.048 26.4393 226.225 26.5047 226.375 26.626C226.58 26.9807 226.795 27.3773 227.019 27.816C227.252 28.2547 227.485 28.698 227.719 29.146C227.961 29.594 228.199 30.0373 228.433 30.476C228.675 30.9147 228.909 31.3113 229.133 31.666C229.347 31.2927 229.562 30.8773 229.777 30.42C230.001 29.9533 230.225 29.4867 230.449 29.02C230.673 28.544 230.892 28.082 231.107 27.634C231.331 27.186 231.555 26.78 231.779 26.416C231.909 26.388 232.054 26.3787 232.213 26.388C232.371 26.3973 232.53 26.4347 232.689 26.5C232.857 26.556 233.011 26.64 233.151 26.752C233.3 26.864 233.421 27.0087 233.515 27.186C233.347 27.606 233.137 28.0913 232.885 28.642C232.642 29.1833 232.376 29.762 232.087 30.378C231.797 30.994 231.489 31.6287 231.163 32.282C230.836 32.926 230.509 33.556 230.183 34.172C229.856 34.7787 229.534 35.3573 229.217 35.908C228.909 36.4587 228.619 36.9393 228.349 37.35C227.863 37.462 227.457 37.4527 227.131 37.322C226.813 37.1913 226.561 36.9067 226.375 36.468L228.069 33.64ZM239.42 26.276C238.916 26.276 238.505 26.1873 238.188 26.01C237.87 25.8327 237.628 25.6273 237.46 25.394C237.301 25.1513 237.203 24.9133 237.166 24.68C237.138 24.4373 237.152 24.26 237.208 24.148C237.273 24.092 237.366 24.036 237.488 23.98C237.609 23.9147 237.74 23.8727 237.88 23.854C238.029 23.826 238.174 23.8307 238.314 23.868C238.463 23.9053 238.594 23.9987 238.706 24.148C238.734 24.2693 238.776 24.3673 238.832 24.442C238.888 24.5167 238.948 24.5727 239.014 24.61C239.088 24.6473 239.158 24.6707 239.224 24.68C239.298 24.6893 239.364 24.694 239.42 24.694C239.634 24.694 239.821 24.6333 239.98 24.512C240.138 24.3907 240.255 24.19 240.33 23.91C240.432 23.7793 240.568 23.7047 240.736 23.686C240.904 23.658 241.067 23.6627 241.226 23.7C241.403 23.7373 241.594 23.8027 241.8 23.896C241.828 24.2413 241.786 24.5587 241.674 24.848C241.562 25.1373 241.398 25.3893 241.184 25.604C240.969 25.8093 240.708 25.9727 240.4 26.094C240.101 26.2153 239.774 26.276 239.42 26.276ZM234.926 36.552C234.898 36.2813 234.874 35.9127 234.856 35.446C234.846 34.9793 234.837 34.4567 234.828 33.878C234.828 33.2993 234.828 32.6833 234.828 32.03C234.828 31.3767 234.828 30.7327 234.828 30.098C234.828 29.4633 234.828 28.8567 234.828 28.278C234.837 27.6993 234.842 27.1907 234.842 26.752C234.954 26.612 235.094 26.5047 235.262 26.43C235.43 26.346 235.607 26.2853 235.794 26.248C235.99 26.2107 236.186 26.192 236.382 26.192C236.578 26.1827 236.76 26.192 236.928 26.22C236.956 26.472 236.974 26.794 236.984 27.186C237.002 27.5687 237.012 27.9887 237.012 28.446C237.021 28.894 237.026 29.3653 237.026 29.86C237.026 30.3453 237.021 30.812 237.012 31.26C237.012 31.6987 237.012 32.1093 237.012 32.492C237.012 32.8653 237.012 33.164 237.012 33.388C237.217 33.0707 237.455 32.6787 237.726 32.212C238.006 31.7453 238.3 31.2553 238.608 30.742C238.925 30.2193 239.247 29.7013 239.574 29.188C239.9 28.6747 240.213 28.208 240.512 27.788C240.82 27.368 241.104 27.0227 241.366 26.752C241.627 26.4813 241.851 26.3273 242.038 26.29C242.131 26.318 242.238 26.3507 242.36 26.388C242.49 26.4253 242.621 26.472 242.752 26.528C242.882 26.584 243.004 26.6493 243.116 26.724C243.237 26.7893 243.335 26.8687 243.41 26.962C243.438 27.074 243.456 27.312 243.466 27.676C243.484 28.0307 243.489 28.4553 243.48 28.95C243.48 29.4353 243.475 29.958 243.466 30.518C243.466 31.0687 243.456 31.6007 243.438 32.114C243.428 32.6273 243.419 33.0893 243.41 33.5C243.41 33.9013 243.41 34.1953 243.41 34.382C243.41 34.7647 243.414 35.11 243.424 35.418C243.433 35.726 243.452 36.0013 243.48 36.244C243.433 36.4027 243.34 36.5427 243.2 36.664C243.06 36.776 242.901 36.8647 242.724 36.93C242.546 36.986 242.369 37.014 242.192 37.014C242.014 37.0233 241.865 36.9953 241.744 36.93C241.622 36.846 241.52 36.72 241.436 36.552C241.361 36.3747 241.296 36.1647 241.24 35.922C241.193 35.67 241.16 35.3947 241.142 35.096C241.123 34.7973 241.114 34.48 241.114 34.144C241.114 33.668 241.128 33.1313 241.156 32.534C241.193 31.9367 241.235 31.2087 241.282 30.35C241.058 30.714 240.801 31.1293 240.512 31.596C240.232 32.0533 239.938 32.5293 239.63 33.024C239.322 33.5093 239.009 33.9947 238.692 34.48C238.374 34.956 238.076 35.39 237.796 35.782C237.516 36.1647 237.264 36.4867 237.04 36.748C236.825 37 236.657 37.154 236.536 37.21C236.349 37.1727 236.186 37.14 236.046 37.112C235.915 37.0933 235.789 37.0653 235.668 37.028C235.556 36.9907 235.439 36.9393 235.318 36.874C235.206 36.7993 235.075 36.692 234.926 36.552ZM245.126 32.422C245.126 31.526 245.262 30.728 245.532 30.028C245.803 29.328 246.181 28.7353 246.666 28.25C247.152 27.7647 247.721 27.396 248.374 27.144C249.028 26.8826 249.742 26.752 250.516 26.752C250.918 26.752 251.314 26.7986 251.706 26.892C252.098 26.9853 252.453 27.1113 252.77 27.27C253.097 27.4286 253.372 27.62 253.596 27.844C253.82 28.0586 253.97 28.292 254.044 28.544C254.035 28.7026 253.988 28.852 253.904 28.992C253.83 29.1226 253.727 29.244 253.596 29.356C253.466 29.4586 253.316 29.5473 253.148 29.622C252.98 29.6966 252.808 29.748 252.63 29.776C252.509 29.6266 252.378 29.4866 252.238 29.356C252.098 29.2253 251.94 29.1086 251.762 29.006C251.585 28.9033 251.38 28.824 251.146 28.768C250.922 28.7026 250.666 28.67 250.376 28.67C250.012 28.67 249.644 28.7353 249.27 28.866C248.906 28.9966 248.575 29.216 248.276 29.524C247.987 29.8226 247.749 30.2193 247.562 30.714C247.376 31.2087 247.282 31.82 247.282 32.548C247.282 32.9587 247.352 33.332 247.492 33.668C247.642 33.9947 247.833 34.2747 248.066 34.508C248.3 34.732 248.561 34.9047 248.85 35.026C249.14 35.1473 249.424 35.208 249.704 35.208C250.012 35.208 250.292 35.18 250.544 35.124C250.806 35.0587 251.062 34.9467 251.314 34.788C251.566 34.6293 251.828 34.4193 252.098 34.158C252.369 33.8966 252.672 33.5606 253.008 33.15C253.186 33.1686 253.354 33.22 253.512 33.304C253.68 33.3786 253.825 33.486 253.946 33.626C254.077 33.7566 254.175 33.9106 254.24 34.088C254.315 34.2653 254.343 34.452 254.324 34.648C254.054 35.0586 253.736 35.4226 253.372 35.74C253.008 36.0573 252.616 36.3233 252.196 36.538C251.786 36.7527 251.356 36.916 250.908 37.028C250.47 37.1493 250.04 37.21 249.62 37.21C248.948 37.21 248.332 37.07 247.772 36.79C247.222 36.51 246.75 36.146 246.358 35.698C245.966 35.2407 245.663 34.7273 245.448 34.158C245.234 33.5887 245.126 33.01 245.126 32.422ZM259.089 36.958C259.051 36.7806 259.019 36.5053 258.991 36.132C258.972 35.7586 258.953 35.3293 258.935 34.844C258.925 34.3493 258.916 33.822 258.907 33.262C258.897 32.6926 258.888 32.1326 258.879 31.582C258.879 31.0313 258.879 30.5133 258.879 30.028C258.888 29.5333 258.897 29.1133 258.907 28.768C258.431 28.8426 257.978 28.9126 257.549 28.978C257.129 29.034 256.667 29.0713 256.163 29.09C255.985 28.81 255.864 28.516 255.799 28.208C255.733 27.9 255.752 27.62 255.855 27.368C256.051 27.284 256.345 27.2046 256.737 27.13C257.129 27.046 257.572 26.9666 258.067 26.892C258.561 26.8173 259.084 26.752 259.635 26.696C260.185 26.6306 260.713 26.5746 261.217 26.528C261.73 26.4813 262.197 26.444 262.617 26.416C263.037 26.388 263.368 26.374 263.611 26.374C263.713 26.4766 263.788 26.598 263.835 26.738C263.891 26.878 263.919 27.0273 263.919 27.186C263.919 27.3353 263.895 27.4893 263.849 27.648C263.802 27.7973 263.737 27.942 263.653 28.082C263.354 28.194 262.995 28.278 262.575 28.334C262.155 28.3806 261.627 28.4413 260.993 28.516L261.077 36.608C260.778 36.888 260.451 37.07 260.097 37.154C259.751 37.238 259.415 37.1726 259.089 36.958ZM263.151 36.706C263.132 36.622 263.17 36.4306 263.263 36.132C263.356 35.824 263.482 35.4506 263.641 35.012C263.8 34.564 263.986 34.0693 264.201 33.528C264.425 32.9773 264.658 32.422 264.901 31.862C265.144 31.2926 265.386 30.742 265.629 30.21C265.872 29.6686 266.1 29.1786 266.315 28.74C266.315 28.7306 266.31 28.726 266.301 28.726C266.292 28.7166 266.287 28.7073 266.287 28.698C266.24 28.6046 266.189 28.5113 266.133 28.418C266.086 28.3246 266.026 28.1846 265.951 27.998C266.11 27.634 266.296 27.3493 266.511 27.144C266.726 26.9293 267.02 26.808 267.393 26.78C267.598 26.836 267.822 26.9993 268.065 27.27C268.308 27.5406 268.55 27.8766 268.793 28.278C269.045 28.6793 269.297 29.132 269.549 29.636C269.801 30.14 270.044 30.658 270.277 31.19C270.52 31.722 270.748 32.254 270.963 32.786C271.178 33.3086 271.369 33.794 271.537 34.242C271.714 34.69 271.859 35.082 271.971 35.418C272.092 35.7446 272.181 35.9826 272.237 36.132C272.181 36.2626 272.083 36.3933 271.943 36.524C271.812 36.6453 271.658 36.7573 271.481 36.86C271.313 36.9533 271.136 37.0233 270.949 37.07C270.772 37.126 270.613 37.14 270.473 37.112C270.296 36.7666 270.137 36.4306 269.997 36.104C269.866 35.7773 269.745 35.488 269.633 35.236L269.633 35.18C269.026 35.2546 268.373 35.334 267.673 35.418C266.982 35.4926 266.324 35.5673 265.699 35.642C265.68 35.6606 265.662 35.6886 265.643 35.726C265.634 35.754 265.61 35.81 265.573 35.894C265.545 35.978 265.498 36.0993 265.433 36.258C265.368 36.4166 265.279 36.636 265.167 36.916C265.102 37.0466 264.994 37.1446 264.845 37.21C264.696 37.2846 264.528 37.322 264.341 37.322C264.164 37.322 263.972 37.2846 263.767 37.21C263.571 37.1446 263.398 37.042 263.249 36.902L263.151 36.706ZM268.905 33.248C268.83 33.0426 268.742 32.8186 268.639 32.576C268.546 32.3333 268.443 32.0906 268.331 31.848C268.219 31.6053 268.107 31.372 267.995 31.148C267.892 30.9146 267.794 30.7046 267.701 30.518C267.673 30.5833 267.64 30.6673 267.603 30.77C267.566 30.8633 267.5 31.0173 267.407 31.232C267.314 31.4466 267.188 31.7453 267.029 32.128C266.87 32.5013 266.66 33.0006 266.399 33.626L268.905 33.248ZM273.139 35.936C273.176 35.628 273.312 35.3573 273.545 35.124C273.778 34.8813 274.147 34.76 274.651 34.76C274.791 34.76 274.936 34.7926 275.085 34.858C275.234 34.9233 275.37 35.012 275.491 35.124C275.612 35.236 275.71 35.3666 275.785 35.516C275.86 35.6653 275.897 35.8193 275.897 35.978C275.897 36.314 275.864 36.622 275.799 36.902C275.734 37.182 275.631 37.4526 275.491 37.714C275.36 37.9846 275.188 38.2553 274.973 38.526C274.768 38.7966 274.525 39.0813 274.245 39.38C274.114 39.4173 273.984 39.4173 273.853 39.38C273.732 39.352 273.615 39.3006 273.503 39.226C273.4 39.1606 273.307 39.0813 273.223 38.988C273.148 38.8946 273.097 38.8013 273.069 38.708C273.144 38.6146 273.228 38.512 273.321 38.4C273.414 38.288 273.503 38.162 273.587 38.022C273.671 37.8913 273.746 37.742 273.811 37.574C273.886 37.4153 273.937 37.2333 273.965 37.028C273.414 36.8133 273.139 36.4493 273.139 35.936ZM108.109 56.81C108.417 56.67 108.706 56.4833 108.977 56.25C109.257 56.0073 109.509 55.7553 109.733 55.494C109.966 55.2233 110.171 54.9527 110.349 54.682C110.526 54.402 110.666 54.1547 110.769 53.94C110.451 53.8653 110.125 53.744 109.789 53.576C109.462 53.3987 109.163 53.1793 108.893 52.918C108.631 52.6567 108.412 52.358 108.235 52.022C108.067 51.686 107.983 51.3173 107.983 50.916C107.983 50.244 108.127 49.6933 108.417 49.264C108.706 48.8347 109.084 48.494 109.551 48.242C110.017 47.99 110.545 47.8173 111.133 47.724C111.721 47.6307 112.309 47.584 112.897 47.584C113.307 47.584 113.713 47.6027 114.115 47.64C114.516 47.6773 114.889 47.7193 115.235 47.766C115.477 47.878 115.687 48.032 115.865 48.228C116.051 48.424 116.154 48.6807 116.173 48.998C116.191 49.2967 116.205 49.768 116.215 50.412C116.224 51.056 116.229 51.7747 116.229 52.568C116.229 53.0347 116.224 53.5153 116.215 54.01C116.215 54.4953 116.21 54.9713 116.201 55.438C116.191 55.9047 116.177 56.3573 116.159 56.796C116.14 57.2253 116.117 57.6173 116.089 57.972C115.883 58.1773 115.622 58.28 115.305 58.28C115.155 58.28 114.978 58.2473 114.773 58.182C114.567 58.126 114.353 58.0233 114.129 57.874L114.213 53.87C114.007 53.9167 113.793 53.954 113.569 53.982C113.345 54.01 113.125 54.0333 112.911 54.052C112.752 54.4627 112.537 54.9107 112.267 55.396C111.996 55.872 111.688 56.3247 111.343 56.754C111.007 57.1833 110.647 57.5473 110.265 57.846C109.882 58.1447 109.504 58.308 109.131 58.336C109.028 58.3267 108.907 58.2847 108.767 58.21C108.627 58.1353 108.496 58.0327 108.375 57.902C108.253 57.7713 108.16 57.6173 108.095 57.44C108.039 57.2533 108.043 57.0433 108.109 56.81ZM109.999 50.916C109.999 51.168 110.064 51.3827 110.195 51.56C110.325 51.728 110.493 51.868 110.699 51.98C110.913 52.092 111.156 52.1713 111.427 52.218C111.697 52.2647 111.973 52.288 112.253 52.288C112.663 52.288 113.055 52.2647 113.429 52.218C113.811 52.1713 114.077 52.1293 114.227 52.092L114.143 49.544C113.9 49.488 113.653 49.446 113.401 49.418C113.149 49.3807 112.892 49.362 112.631 49.362C112.304 49.362 111.982 49.39 111.665 49.446C111.357 49.502 111.077 49.5907 110.825 49.712C110.582 49.8333 110.381 49.9967 110.223 50.202C110.073 50.398 109.999 50.636 109.999 50.916ZM122.497 53.87C122.394 53.7673 122.319 53.6507 122.273 53.52C122.226 53.3893 122.203 53.2493 122.203 53.1C122.203 52.9413 122.231 52.7873 122.287 52.638C122.343 52.4887 122.417 52.3627 122.511 52.26C122.52 51.9427 122.529 51.672 122.539 51.448C122.548 51.2147 122.557 51.0187 122.567 50.86C122.576 50.692 122.581 50.552 122.581 50.44C122.581 50.3187 122.581 50.2113 122.581 50.118C122.394 49.9593 122.259 49.768 122.175 49.544C122.091 49.32 122.049 49.0727 122.049 48.802C122.263 48.6247 122.455 48.4847 122.623 48.382C122.8 48.2793 123.024 48.1627 123.295 48.032C123.556 48.0227 123.878 48.004 124.261 47.976C124.643 47.948 125.054 47.9247 125.493 47.906C125.931 47.878 126.375 47.8547 126.823 47.836C127.271 47.808 127.686 47.7893 128.069 47.78C128.461 47.7613 128.797 47.752 129.077 47.752C129.366 47.752 129.567 47.766 129.679 47.794C129.781 47.934 129.851 48.0787 129.889 48.228C129.935 48.368 129.959 48.5033 129.959 48.634C129.959 48.8487 129.903 49.054 129.791 49.25C129.688 49.446 129.539 49.5813 129.343 49.656C129.016 49.7213 128.652 49.7727 128.251 49.81C127.859 49.838 127.453 49.866 127.033 49.894C126.622 49.922 126.216 49.95 125.815 49.978C125.413 50.006 125.049 50.0387 124.723 50.076C124.713 50.3467 124.704 50.6407 124.695 50.958C124.695 51.266 124.704 51.5553 124.723 51.826C124.956 51.8167 125.245 51.8027 125.591 51.784C125.936 51.756 126.305 51.728 126.697 51.7C127.089 51.6627 127.485 51.6253 127.887 51.588C128.288 51.5507 128.666 51.5087 129.021 51.462C129.207 51.5833 129.338 51.7327 129.413 51.91C129.497 52.078 129.539 52.2413 129.539 52.4C129.539 52.624 129.483 52.8433 129.371 53.058C129.268 53.2727 129.114 53.4267 128.909 53.52C128.461 53.576 127.961 53.6273 127.411 53.674C126.86 53.7113 126.337 53.744 125.843 53.772C125.563 53.7907 125.334 53.8047 125.157 53.814C124.989 53.814 124.811 53.8233 124.625 53.842C124.606 54.1407 124.587 54.4907 124.569 54.892C124.559 55.284 124.555 55.732 124.555 56.236C124.872 56.2173 125.222 56.1893 125.605 56.152C125.997 56.1147 126.393 56.0633 126.795 55.998C127.205 55.9327 127.616 55.858 128.027 55.774C128.447 55.69 128.848 55.592 129.231 55.48C129.529 55.4987 129.749 55.6153 129.889 55.83C130.038 56.0447 130.113 56.2967 130.113 56.586C130.113 56.67 130.099 56.7727 130.071 56.894C130.052 57.0153 130.01 57.1553 129.945 57.314C129.487 57.5287 128.993 57.7013 128.461 57.832C127.938 57.9627 127.397 58.0607 126.837 58.126C126.286 58.2007 125.731 58.252 125.171 58.28C124.62 58.3173 124.093 58.3453 123.589 58.364C123.449 58.308 123.323 58.252 123.211 58.196C123.108 58.14 123.01 58.0747 122.917 58C122.833 57.9253 122.749 57.8413 122.665 57.748C122.581 57.6453 122.487 57.5193 122.385 57.37L122.497 53.87ZM131.967 57.16C131.949 56.488 131.93 55.76 131.911 54.976C131.902 54.1827 131.902 53.3753 131.911 52.554C131.921 51.7327 131.949 50.9207 131.995 50.118C132.042 49.306 132.121 48.5547 132.233 47.864C132.401 47.8173 132.593 47.794 132.807 47.794C133.022 47.7847 133.227 47.7987 133.423 47.836C133.629 47.8733 133.815 47.934 133.983 48.018C134.151 48.102 134.273 48.214 134.347 48.354C134.31 48.6247 134.277 48.9607 134.249 49.362C134.231 49.754 134.212 50.1833 134.193 50.65C134.175 51.1167 134.156 51.6067 134.137 52.12C134.128 52.6333 134.119 53.142 134.109 53.646C134.109 54.15 134.109 54.6353 134.109 55.102C134.109 55.5593 134.114 55.9747 134.123 56.348C134.394 56.3293 134.721 56.3107 135.103 56.292C135.486 56.264 136.009 56.2267 136.671 56.18C136.681 55.9373 136.685 55.6153 136.685 55.214C136.685 54.8127 136.681 54.374 136.671 53.898C136.671 53.422 136.667 52.9273 136.657 52.414C136.657 51.8913 136.653 51.3873 136.643 50.902C136.643 50.4167 136.643 49.9733 136.643 49.572C136.653 49.1613 136.667 48.8253 136.685 48.564C136.741 48.4333 136.844 48.326 136.993 48.242C137.152 48.158 137.329 48.0973 137.525 48.06C137.721 48.0133 137.922 47.99 138.127 47.99C138.342 47.99 138.529 48.004 138.687 48.032C138.734 48.4987 138.767 49.0633 138.785 49.726C138.804 50.3793 138.818 51.07 138.827 51.798C138.837 52.526 138.837 53.2633 138.827 54.01C138.818 54.7473 138.809 55.438 138.799 56.082C139.219 56.0633 139.649 56.0493 140.087 56.04C140.526 56.0213 140.899 55.9887 141.207 55.942C141.217 55.6247 141.221 55.2467 141.221 54.808C141.221 54.3693 141.217 53.9073 141.207 53.422C141.207 52.9273 141.203 52.4233 141.193 51.91C141.193 51.3967 141.189 50.9067 141.179 50.44C141.179 49.964 141.184 49.5253 141.193 49.124C141.203 48.7227 141.217 48.3913 141.235 48.13C141.319 47.934 141.483 47.7893 141.725 47.696C141.968 47.6027 142.215 47.556 142.467 47.556C142.635 47.556 142.85 47.6027 143.111 47.696C143.195 47.9107 143.261 48.2327 143.307 48.662C143.363 49.0913 143.401 49.5767 143.419 50.118C143.438 50.6593 143.447 51.224 143.447 51.812C143.447 52.4 143.438 52.96 143.419 53.492C143.41 54.024 143.396 54.4953 143.377 54.906C143.368 55.3073 143.359 55.5967 143.349 55.774C143.555 55.774 143.755 55.7693 143.951 55.76C144.147 55.7507 144.334 55.7553 144.511 55.774C144.577 55.8393 144.633 55.8953 144.679 55.942C144.726 55.9887 144.768 56.04 144.805 56.096C144.843 56.1427 144.875 56.1987 144.903 56.264C144.931 56.3293 144.964 56.4087 145.001 56.502L144.889 59.428C144.777 59.5493 144.651 59.6473 144.511 59.722C144.371 59.7967 144.222 59.8527 144.063 59.89C143.905 59.9367 143.741 59.9647 143.573 59.974C143.415 59.9927 143.265 60.002 143.125 60.002C143.041 59.8713 142.976 59.7127 142.929 59.526C142.883 59.3487 142.85 59.162 142.831 58.966C142.813 58.77 142.799 58.574 142.789 58.378C142.789 58.182 142.789 58 142.789 57.832L133.017 58.518C132.625 58.3593 132.359 58.1773 132.219 57.972C132.079 57.7573 131.995 57.4867 131.967 57.16ZM151.629 47.094C151.302 46.9913 151.087 46.842 150.985 46.646C150.882 46.4407 150.821 46.2447 150.803 46.058C150.868 45.8433 150.989 45.6613 151.167 45.512C151.353 45.3533 151.647 45.2273 152.049 45.134C152.161 45.134 152.277 45.1527 152.399 45.19C152.529 45.218 152.646 45.2787 152.749 45.372C152.861 45.456 152.949 45.5773 153.015 45.736C153.089 45.8947 153.127 46.1 153.127 46.352C153.08 46.464 153.001 46.5667 152.889 46.66C152.777 46.744 152.646 46.8187 152.497 46.884C152.357 46.94 152.207 46.9867 152.049 47.024C151.89 47.0613 151.75 47.0847 151.629 47.094ZM147.933 47.094C147.606 46.9913 147.391 46.842 147.289 46.646C147.186 46.4407 147.125 46.2447 147.107 46.058C147.172 45.8433 147.293 45.6613 147.471 45.512C147.657 45.3533 147.951 45.2273 148.353 45.134C148.465 45.134 148.581 45.1527 148.703 45.19C148.833 45.218 148.95 45.2787 149.053 45.372C149.165 45.456 149.253 45.5773 149.319 45.736C149.393 45.8947 149.431 46.1 149.431 46.352C149.384 46.464 149.3 46.5667 149.179 46.66C149.067 46.744 148.936 46.8187 148.787 46.884C148.647 46.94 148.497 46.9867 148.339 47.024C148.189 47.0613 148.054 47.0847 147.933 47.094ZM146.505 53.87C146.402 53.7673 146.327 53.6507 146.281 53.52C146.234 53.3893 146.211 53.2493 146.211 53.1C146.211 52.9413 146.239 52.7873 146.295 52.638C146.351 52.4887 146.425 52.3627 146.519 52.26C146.528 51.9427 146.537 51.672 146.547 51.448C146.556 51.2147 146.565 51.0187 146.575 50.86C146.584 50.692 146.589 50.552 146.589 50.44C146.589 50.3187 146.589 50.2113 146.589 50.118C146.402 49.9593 146.267 49.768 146.183 49.544C146.099 49.32 146.057 49.0727 146.057 48.802C146.271 48.6247 146.463 48.4847 146.631 48.382C146.808 48.2793 147.032 48.1627 147.303 48.032C147.564 48.0227 147.886 48.004 148.269 47.976C148.651 47.948 149.062 47.9247 149.501 47.906C149.939 47.878 150.383 47.8547 150.831 47.836C151.279 47.808 151.694 47.7893 152.077 47.78C152.469 47.7613 152.805 47.752 153.085 47.752C153.374 47.752 153.575 47.766 153.687 47.794C153.789 47.934 153.859 48.0787 153.897 48.228C153.943 48.368 153.967 48.5033 153.967 48.634C153.967 48.8487 153.911 49.054 153.799 49.25C153.696 49.446 153.547 49.5813 153.351 49.656C153.024 49.7213 152.66 49.7727 152.259 49.81C151.867 49.838 151.461 49.866 151.041 49.894C150.63 49.922 150.224 49.95 149.823 49.978C149.421 50.006 149.057 50.0387 148.731 50.076C148.721 50.3467 148.712 50.6407 148.703 50.958C148.703 51.266 148.712 51.5553 148.731 51.826C148.964 51.8167 149.253 51.8027 149.599 51.784C149.944 51.756 150.313 51.728 150.705 51.7C151.097 51.6627 151.493 51.6253 151.895 51.588C152.296 51.5507 152.674 51.5087 153.029 51.462C153.215 51.5833 153.346 51.7327 153.421 51.91C153.505 52.078 153.547 52.2413 153.547 52.4C153.547 52.624 153.491 52.8433 153.379 53.058C153.276 53.2727 153.122 53.4267 152.917 53.52C152.469 53.576 151.969 53.6273 151.419 53.674C150.868 53.7113 150.345 53.744 149.851 53.772C149.571 53.7907 149.342 53.8047 149.165 53.814C148.997 53.814 148.819 53.8233 148.633 53.842C148.614 54.1407 148.595 54.4907 148.577 54.892C148.567 55.284 148.563 55.732 148.563 56.236C148.88 56.2173 149.23 56.1893 149.613 56.152C150.005 56.1147 150.401 56.0633 150.803 55.998C151.213 55.9327 151.624 55.858 152.035 55.774C152.455 55.69 152.856 55.592 153.239 55.48C153.537 55.4987 153.757 55.6153 153.897 55.83C154.046 56.0447 154.121 56.2967 154.121 56.586C154.121 56.67 154.107 56.7727 154.079 56.894C154.06 57.0153 154.018 57.1553 153.953 57.314C153.495 57.5287 153.001 57.7013 152.469 57.832C151.946 57.9627 151.405 58.0607 150.845 58.126C150.294 58.2007 149.739 58.252 149.179 58.28C148.628 58.3173 148.101 58.3453 147.597 58.364C147.457 58.308 147.331 58.252 147.219 58.196C147.116 58.14 147.018 58.0747 146.925 58C146.841 57.9253 146.757 57.8413 146.673 57.748C146.589 57.6453 146.495 57.5193 146.393 57.37L146.505 53.87ZM160.068 54.206C159.965 54.1127 159.89 53.9913 159.844 53.842C159.797 53.6927 159.774 53.5387 159.774 53.38C159.774 53.212 159.797 53.0533 159.844 52.904C159.9 52.7453 159.974 52.6147 160.068 52.512C160.068 52.344 160.058 52.0873 160.04 51.742C160.03 51.3873 160.016 51.0093 159.998 50.608C159.979 50.2067 159.965 49.8147 159.956 49.432C159.946 49.0493 159.946 48.7413 159.956 48.508C160.002 48.3587 160.091 48.2233 160.222 48.102C160.352 47.9713 160.506 47.8687 160.684 47.794C160.87 47.7193 161.071 47.6773 161.286 47.668C161.5 47.6493 161.715 47.6727 161.93 47.738C162.004 47.8687 162.06 48.074 162.098 48.354C162.144 48.634 162.177 48.9653 162.196 49.348C162.224 49.7307 162.242 50.1553 162.252 50.622C162.27 51.0793 162.284 51.56 162.294 52.064C162.704 52.0453 163.218 52.0127 163.834 51.966C164.45 51.91 165.192 51.8353 166.06 51.742C166.05 51.518 166.041 51.294 166.032 51.07C166.032 50.846 166.027 50.5987 166.018 50.328C166.018 50.0573 166.018 49.7587 166.018 49.432C166.018 49.1053 166.018 48.7273 166.018 48.298C166.102 48.0553 166.246 47.8733 166.452 47.752C166.657 47.6307 166.881 47.57 167.124 47.57C167.31 47.57 167.492 47.6167 167.67 47.71C167.847 47.794 167.987 47.9153 168.09 48.074C168.127 48.4473 168.16 48.8673 168.188 49.334C168.216 49.7913 168.234 50.2767 168.244 50.79C168.253 51.3033 168.258 51.8353 168.258 52.386C168.267 52.9273 168.272 53.464 168.272 53.996C168.272 54.612 168.272 55.2093 168.272 55.788C168.272 56.3667 168.281 56.894 168.3 57.37C168.253 57.6127 168.127 57.7993 167.922 57.93C167.716 58.0607 167.478 58.126 167.208 58.126C166.993 58.126 166.778 58.0747 166.564 57.972C166.358 57.8693 166.204 57.7013 166.102 57.468C166.102 57.188 166.102 56.8893 166.102 56.572C166.111 56.2453 166.116 55.914 166.116 55.578C166.125 55.242 166.13 54.9107 166.13 54.584C166.13 54.2573 166.13 53.9493 166.13 53.66C165.831 53.688 165.476 53.7253 165.066 53.772C164.664 53.8187 164.268 53.8653 163.876 53.912C163.493 53.9493 163.148 53.9913 162.84 54.038C162.532 54.0753 162.322 54.108 162.21 54.136C162.191 54.22 162.182 54.4067 162.182 54.696C162.191 54.976 162.2 55.2887 162.21 55.634C162.219 55.9793 162.228 56.3247 162.238 56.67C162.247 57.006 162.252 57.2673 162.252 57.454C162.252 57.594 162.219 57.7153 162.154 57.818C162.088 57.9207 162.004 58.0047 161.902 58.07C161.799 58.1447 161.682 58.196 161.552 58.224C161.421 58.2613 161.286 58.28 161.146 58.28C160.931 58.28 160.73 58.238 160.544 58.154C160.357 58.0793 160.226 57.9533 160.152 57.776L160.068 54.206ZM170.731 53.87C170.628 53.7673 170.554 53.6507 170.507 53.52C170.46 53.3893 170.437 53.2493 170.437 53.1C170.437 52.9413 170.465 52.7873 170.521 52.638C170.577 52.4887 170.652 52.3627 170.745 52.26C170.754 51.9427 170.764 51.672 170.773 51.448C170.782 51.2147 170.792 51.0187 170.801 50.86C170.81 50.692 170.815 50.552 170.815 50.44C170.815 50.3187 170.815 50.2113 170.815 50.118C170.628 49.9593 170.493 49.768 170.409 49.544C170.325 49.32 170.283 49.0727 170.283 48.802C170.498 48.6247 170.689 48.4847 170.857 48.382C171.034 48.2793 171.258 48.1627 171.529 48.032C171.79 48.0227 172.112 48.004 172.495 47.976C172.878 47.948 173.288 47.9247 173.727 47.906C174.166 47.878 174.609 47.8547 175.057 47.836C175.505 47.808 175.92 47.7893 176.303 47.78C176.695 47.7613 177.031 47.752 177.311 47.752C177.6 47.752 177.801 47.766 177.913 47.794C178.016 47.934 178.086 48.0787 178.123 48.228C178.17 48.368 178.193 48.5033 178.193 48.634C178.193 48.8487 178.137 49.054 178.025 49.25C177.922 49.446 177.773 49.5813 177.577 49.656C177.25 49.7213 176.886 49.7727 176.485 49.81C176.093 49.838 175.687 49.866 175.267 49.894C174.856 49.922 174.45 49.95 174.049 49.978C173.648 50.006 173.284 50.0387 172.957 50.076C172.948 50.3467 172.938 50.6407 172.929 50.958C172.929 51.266 172.938 51.5553 172.957 51.826C173.19 51.8167 173.48 51.8027 173.825 51.784C174.17 51.756 174.539 51.728 174.931 51.7C175.323 51.6627 175.72 51.6253 176.121 51.588C176.522 51.5507 176.9 51.5087 177.255 51.462C177.442 51.5833 177.572 51.7327 177.647 51.91C177.731 52.078 177.773 52.2413 177.773 52.4C177.773 52.624 177.717 52.8433 177.605 53.058C177.502 53.2727 177.348 53.4267 177.143 53.52C176.695 53.576 176.196 53.6273 175.645 53.674C175.094 53.7113 174.572 53.744 174.077 53.772C173.797 53.7907 173.568 53.8047 173.391 53.814C173.223 53.814 173.046 53.8233 172.859 53.842C172.84 54.1407 172.822 54.4907 172.803 54.892C172.794 55.284 172.789 55.732 172.789 56.236C173.106 56.2173 173.456 56.1893 173.839 56.152C174.231 56.1147 174.628 56.0633 175.029 55.998C175.44 55.9327 175.85 55.858 176.261 55.774C176.681 55.69 177.082 55.592 177.465 55.48C177.764 55.4987 177.983 55.6153 178.123 55.83C178.272 56.0447 178.347 56.2967 178.347 56.586C178.347 56.67 178.333 56.7727 178.305 56.894C178.286 57.0153 178.244 57.1553 178.179 57.314C177.722 57.5287 177.227 57.7013 176.695 57.832C176.172 57.9627 175.631 58.0607 175.071 58.126C174.52 58.2007 173.965 58.252 173.405 58.28C172.854 58.3173 172.327 58.3453 171.823 58.364C171.683 58.308 171.557 58.252 171.445 58.196C171.342 58.14 171.244 58.0747 171.151 58C171.067 57.9253 170.983 57.8413 170.899 57.748C170.815 57.6453 170.722 57.5193 170.619 57.37L170.731 53.87ZM184.308 57.636C184.234 56.908 184.178 56.1193 184.14 55.27C184.103 54.4207 184.07 53.5853 184.042 52.764C184.024 51.9333 184.01 51.1493 184 50.412C183.991 49.6653 183.986 49.0307 183.986 48.508C183.996 48.368 184.033 48.2327 184.098 48.102C184.173 47.9713 184.262 47.8593 184.364 47.766C184.476 47.6633 184.602 47.584 184.742 47.528C184.882 47.4627 185.027 47.43 185.176 47.43C185.503 47.4953 185.918 47.5233 186.422 47.514C186.936 47.5047 187.463 47.4813 188.004 47.444C188.546 47.4067 189.064 47.3693 189.558 47.332C190.062 47.2853 190.464 47.2527 190.762 47.234C190.818 47.2993 190.874 47.3973 190.93 47.528C190.996 47.6587 191.047 47.8033 191.084 47.962C191.122 48.1207 191.14 48.284 191.14 48.452C191.14 48.62 191.108 48.7787 191.042 48.928C190.716 49.0587 190.361 49.166 189.978 49.25C189.596 49.3247 189.194 49.3853 188.774 49.432C188.354 49.4693 187.925 49.4973 187.486 49.516C187.057 49.5253 186.632 49.5253 186.212 49.516L186.464 57.538C186.324 57.734 186.138 57.8833 185.904 57.986C185.68 58.0793 185.461 58.126 185.246 58.126C185.097 58.126 184.948 58.098 184.798 58.042C184.649 57.986 184.486 57.8507 184.308 57.636ZM195.444 58.238C194.781 58.238 194.165 58.1167 193.596 57.874C193.036 57.622 192.546 57.272 192.126 56.824C191.706 56.3667 191.374 55.8207 191.132 55.186C190.898 54.542 190.782 53.8233 190.782 53.03C190.782 52.1713 190.926 51.4107 191.216 50.748C191.514 50.076 191.906 49.5113 192.392 49.054C192.877 48.5873 193.437 48.2327 194.072 47.99C194.706 47.7473 195.36 47.626 196.032 47.626C196.76 47.626 197.427 47.752 198.034 48.004C198.65 48.2467 199.177 48.592 199.616 49.04C200.064 49.488 200.409 50.0293 200.652 50.664C200.894 51.2893 201.016 51.9893 201.016 52.764C201.016 53.7067 200.848 54.5233 200.512 55.214C200.176 55.9047 199.742 56.474 199.21 56.922C198.678 57.37 198.08 57.7013 197.418 57.916C196.755 58.1307 196.097 58.238 195.444 58.238ZM195.542 56.152C195.85 56.152 196.195 56.1053 196.578 56.012C196.96 55.9187 197.32 55.746 197.656 55.494C197.992 55.242 198.276 54.8967 198.51 54.458C198.743 54.0193 198.86 53.4547 198.86 52.764C198.86 52.2507 198.78 51.798 198.622 51.406C198.472 51.014 198.267 50.692 198.006 50.44C197.754 50.1787 197.46 49.9827 197.124 49.852C196.797 49.7213 196.452 49.656 196.088 49.656C195.677 49.656 195.28 49.726 194.898 49.866C194.515 49.9967 194.174 50.202 193.876 50.482C193.577 50.7527 193.334 51.1027 193.148 51.532C192.97 51.9613 192.882 52.47 192.882 53.058C192.882 53.5713 192.947 54.024 193.078 54.416C193.208 54.7987 193.39 55.1207 193.624 55.382C193.866 55.634 194.151 55.8253 194.478 55.956C194.804 56.0867 195.159 56.152 195.542 56.152ZM205.297 57.958C205.259 57.7807 205.227 57.5053 205.199 57.132C205.18 56.7587 205.161 56.3293 205.143 55.844C205.133 55.3493 205.124 54.822 205.115 54.262C205.105 53.6927 205.096 53.1327 205.087 52.582C205.087 52.0313 205.087 51.5133 205.087 51.028C205.096 50.5333 205.105 50.1133 205.115 49.768C204.639 49.8427 204.186 49.9127 203.757 49.978C203.337 50.034 202.875 50.0713 202.371 50.09C202.193 49.81 202.072 49.516 202.007 49.208C201.941 48.9 201.96 48.62 202.063 48.368C202.259 48.284 202.553 48.2047 202.945 48.13C203.337 48.046 203.78 47.9667 204.275 47.892C204.769 47.8173 205.292 47.752 205.843 47.696C206.393 47.6307 206.921 47.5747 207.425 47.528C207.938 47.4813 208.405 47.444 208.825 47.416C209.245 47.388 209.576 47.374 209.819 47.374C209.921 47.4767 209.996 47.598 210.043 47.738C210.099 47.878 210.127 48.0273 210.127 48.186C210.127 48.3353 210.103 48.4893 210.057 48.648C210.01 48.7973 209.945 48.942 209.861 49.082C209.562 49.194 209.203 49.278 208.783 49.334C208.363 49.3807 207.835 49.4413 207.201 49.516L207.285 57.608C206.986 57.888 206.659 58.07 206.305 58.154C205.959 58.238 205.623 58.1727 205.297 57.958ZM215.022 58.238C214.359 58.238 213.743 58.1167 213.174 57.874C212.614 57.622 212.124 57.272 211.704 56.824C211.284 56.3667 210.953 55.8207 210.71 55.186C210.477 54.542 210.36 53.8233 210.36 53.03C210.36 52.1713 210.505 51.4107 210.794 50.748C211.093 50.076 211.485 49.5113 211.97 49.054C212.455 48.5873 213.015 48.2327 213.65 47.99C214.285 47.7473 214.938 47.626 215.61 47.626C216.338 47.626 217.005 47.752 217.612 48.004C218.228 48.2467 218.755 48.592 219.194 49.04C219.642 49.488 219.987 50.0293 220.23 50.664C220.473 51.2893 220.594 51.9893 220.594 52.764C220.594 53.7067 220.426 54.5233 220.09 55.214C219.754 55.9047 219.32 56.474 218.788 56.922C218.256 57.37 217.659 57.7013 216.996 57.916C216.333 58.1307 215.675 58.238 215.022 58.238ZM215.12 56.152C215.428 56.152 215.773 56.1053 216.156 56.012C216.539 55.9187 216.898 55.746 217.234 55.494C217.57 55.242 217.855 54.8967 218.088 54.458C218.321 54.0193 218.438 53.4547 218.438 52.764C218.438 52.2507 218.359 51.798 218.2 51.406C218.051 51.014 217.845 50.692 217.584 50.44C217.332 50.1787 217.038 49.9827 216.702 49.852C216.375 49.7213 216.03 49.656 215.666 49.656C215.255 49.656 214.859 49.726 214.476 49.866C214.093 49.9967 213.753 50.202 213.454 50.482C213.155 50.7527 212.913 51.1027 212.726 51.532C212.549 51.9613 212.46 52.47 212.46 53.058C212.46 53.5713 212.525 54.024 212.656 54.416C212.787 54.7987 212.969 55.1207 213.202 55.382C213.445 55.634 213.729 55.8253 214.056 55.956C214.383 56.0867 214.737 56.152 215.12 56.152ZM222.495 57.202C222.448 56.698 222.406 56.194 222.369 55.69C222.341 55.186 222.313 54.6027 222.285 53.94C222.154 53.8747 222.061 53.772 222.005 53.632C221.949 53.4827 221.921 53.3287 221.921 53.17C221.921 53.0113 221.944 52.862 221.991 52.722C222.037 52.582 222.112 52.4653 222.215 52.372C222.205 52.1293 222.196 51.9193 222.187 51.742C222.187 51.5647 222.187 51.406 222.187 51.266C222.187 51.126 222.187 50.9907 222.187 50.86C222.187 50.7293 222.187 50.5847 222.187 50.426C221.823 50.09 221.641 49.656 221.641 49.124C222.247 48.62 222.929 48.2467 223.685 48.004C224.45 47.752 225.369 47.626 226.443 47.626C226.881 47.626 227.301 47.6587 227.703 47.724C228.104 47.78 228.459 47.8733 228.767 48.004C229.075 48.1347 229.317 48.3027 229.495 48.508C229.681 48.704 229.775 48.9467 229.775 49.236C229.775 49.796 229.635 50.2767 229.355 50.678C229.075 51.07 228.701 51.4247 228.235 51.742C228.543 51.798 228.823 51.8727 229.075 51.966C229.336 52.05 229.56 52.1667 229.747 52.316C229.933 52.456 230.078 52.6333 230.181 52.848C230.283 53.0627 230.335 53.3287 230.335 53.646C230.335 54.4393 230.125 55.1253 229.705 55.704C229.285 56.2733 228.743 56.7447 228.081 57.118C227.427 57.482 226.695 57.7573 225.883 57.944C225.08 58.1307 224.287 58.2287 223.503 58.238C223.26 58.238 223.059 58.1447 222.901 57.958C222.751 57.762 222.616 57.51 222.495 57.202ZM224.357 51.686C225.355 51.4993 226.139 51.2473 226.709 50.93C227.287 50.6127 227.577 50.216 227.577 49.74C227.577 49.6467 227.465 49.5767 227.241 49.53C227.017 49.4833 226.769 49.46 226.499 49.46C226.116 49.46 225.719 49.4973 225.309 49.572C224.907 49.6467 224.581 49.7353 224.329 49.838C224.319 49.9127 224.315 50.0293 224.315 50.188C224.315 50.3467 224.315 50.5193 224.315 50.706C224.324 50.8833 224.333 51.0653 224.343 51.252C224.352 51.4293 224.357 51.574 224.357 51.686ZM224.567 56.152C224.931 56.1053 225.323 56.026 225.743 55.914C226.172 55.7927 226.569 55.6387 226.933 55.452C227.297 55.2653 227.6 55.0413 227.843 54.78C228.095 54.5187 228.221 54.22 228.221 53.884C228.221 53.6973 228.132 53.5433 227.955 53.422C227.777 53.2913 227.483 53.226 227.073 53.226C226.877 53.226 226.653 53.2447 226.401 53.282C226.149 53.31 225.897 53.352 225.645 53.408C225.393 53.464 225.159 53.5293 224.945 53.604C224.73 53.6787 224.557 53.7533 224.427 53.828C224.427 54.2853 224.441 54.7193 224.469 55.13C224.497 55.5407 224.529 55.8813 224.567 56.152Z" fill="white"/>
<circle cx="47.6375" cy="17" r="1" fill="#9D0000"/>
<circle cx="285.637" cy="17" r="1" fill="#9D0000"/>
<circle cx="47.6375" cy="68" r="1" fill="#9D0000"/>
<circle cx="285.637" cy="68" r="1" fill="#9D0000"/>
<circle r="1" transform="matrix(-1 8.74228e-08 8.74228e-08 1 5.63745 43)" fill="#9D0000"/>
</svg>
