<svg width="1131" height="47" viewBox="0 0 1131 47" fill="none" xmlns="http://www.w3.org/2000/svg">
<rect x="0.5" y="7.5" width="376" height="39" rx="5.5" fill="#9D0000" stroke="#9D0000"/>
<rect x="0.5" y="3.5" width="376" height="41" rx="5.5" fill="#E53935" stroke="#9D0000"/>
<path d="M135.462 28.636C135.812 29.056 136.106 29.126 136.4 29.126C136.834 29.126 137.338 28.93 137.618 28.538L137.366 20.516C139.032 20.544 140.908 20.432 142.196 19.928C142.448 19.34 142.14 18.5 141.916 18.234C140.712 18.29 137.632 18.682 136.33 18.43C135.728 18.43 135.196 18.934 135.14 19.508C135.154 21.58 135.182 25.724 135.462 28.636ZM146.597 29.238C149.215 29.238 152.169 27.544 152.169 23.764C152.169 20.67 150.111 18.626 147.185 18.626C144.483 18.626 141.935 20.6 141.935 24.03C141.935 27.194 143.965 29.238 146.597 29.238ZM146.695 27.152C145.155 27.152 144.035 26.116 144.035 24.058C144.035 21.706 145.617 20.656 147.241 20.656C148.683 20.656 150.013 21.692 150.013 23.764C150.013 26.522 147.913 27.152 146.695 27.152ZM156.45 28.958C157.094 29.378 157.836 29.168 158.438 28.608L158.354 20.516C159.614 20.376 160.412 20.306 161.014 20.082C161.364 19.536 161.378 18.78 160.972 18.374C159.544 18.374 154.378 18.878 153.216 19.368C153.02 19.872 153.174 20.53 153.524 21.09C154.532 21.062 155.316 20.908 156.268 20.768C156.212 22.84 156.254 27.922 156.45 28.958ZM166.175 29.238C168.793 29.238 171.747 27.544 171.747 23.764C171.747 20.67 169.689 18.626 166.763 18.626C164.061 18.626 161.513 20.6 161.513 24.03C161.513 27.194 163.543 29.238 166.175 29.238ZM166.273 27.152C164.733 27.152 163.613 26.116 163.613 24.058C163.613 21.706 165.195 20.656 166.819 20.656C168.261 20.656 169.591 21.692 169.591 23.764C169.591 26.522 167.491 27.152 166.273 27.152ZM173.648 28.202C173.886 28.818 174.166 29.238 174.656 29.238C177.778 29.182 181.488 27.824 181.488 24.646C181.488 23.386 180.606 22.966 179.388 22.742C180.312 22.112 180.928 21.342 180.928 20.236C180.928 19.088 179.36 18.626 177.596 18.626C175.454 18.626 174.012 19.116 172.794 20.124C172.794 20.642 172.976 21.09 173.34 21.426C173.34 22.056 173.34 22.392 173.368 23.372C173.158 23.554 173.074 23.862 173.074 24.17C173.074 24.492 173.172 24.814 173.438 24.94C173.494 26.256 173.55 27.194 173.648 28.202ZM175.51 22.686C175.496 22.224 175.44 21.132 175.482 20.838C175.986 20.642 176.896 20.46 177.652 20.46C178.198 20.46 178.73 20.558 178.73 20.74C178.73 21.678 177.498 22.308 175.51 22.686ZM175.72 27.152C175.65 26.606 175.58 25.738 175.58 24.828C176.098 24.52 177.428 24.226 178.226 24.226C179.038 24.226 179.374 24.52 179.374 24.884C179.374 26.214 177.162 26.97 175.72 27.152ZM187.414 28.986C188.212 29.448 189.024 29.028 189.542 28.566C189.542 27.712 189.36 25.808 189.36 24.982C189.57 24.786 189.78 24.604 189.976 24.464L193.84 29.322C194.288 29.182 195.352 28.874 195.352 27.992C194.386 26.41 192.384 24.058 191.488 23.12C192.258 22.42 194.162 21.006 194.862 19.704C194.512 19.032 193.77 18.696 193.238 18.85L189.332 22.364C189.318 21.594 189.57 19.69 189.206 18.85C188.856 18.724 188.548 18.668 188.31 18.668C187.834 18.668 187.414 18.822 187.26 19.284C187.19 20.082 187.162 21.216 187.162 22.462C187.162 24.772 187.274 27.586 187.414 28.986ZM203.235 28.958C203.879 29.378 204.621 29.168 205.223 28.608L205.139 20.516C206.399 20.376 207.197 20.306 207.799 20.082C208.149 19.536 208.163 18.78 207.757 18.374C206.329 18.374 201.163 18.878 200.001 19.368C199.805 19.872 199.959 20.53 200.309 21.09C201.317 21.062 202.101 20.908 203.053 20.768C202.997 22.84 203.039 27.922 203.235 28.958ZM210.676 28.468C211.054 29.336 211.684 29.574 212.65 29.35C214.274 26.858 216.808 21.692 217.816 19.186C217.438 18.486 216.598 18.304 216.08 18.416C215.198 19.858 214.288 22.154 213.434 23.666C212.538 22.238 211.502 20.054 210.676 18.626C210.088 18.136 208.954 18.57 208.772 19.102C208.954 20.404 211.306 23.848 212.37 25.64L210.676 28.468ZM218.695 24.422C218.695 26.76 220.487 29.21 223.189 29.21C224.883 29.21 226.815 28.272 227.893 26.648C227.963 25.85 227.277 25.206 226.577 25.15C225.247 26.774 224.505 27.208 223.273 27.208C222.139 27.208 220.851 26.2 220.851 24.548C220.851 21.636 222.489 20.67 223.945 20.67C225.121 20.67 225.709 21.188 226.199 21.776C226.913 21.664 227.585 21.16 227.613 20.544C227.319 19.536 225.709 18.752 224.085 18.752C221.005 18.752 218.695 20.852 218.695 24.422ZM230.081 28.37C230.501 28.958 230.711 29.14 231.285 29.364C233.315 29.294 235.821 29.168 237.641 28.314C237.767 28.006 237.809 27.754 237.809 27.586C237.809 27.012 237.515 26.522 236.927 26.48C235.387 26.914 233.539 27.166 232.251 27.236C232.251 26.228 232.279 25.444 232.321 24.842C232.685 24.814 232.979 24.814 233.539 24.772C234.519 24.716 235.709 24.632 236.605 24.52C237.011 24.338 237.235 23.848 237.235 23.4C237.235 23.078 237.095 22.7 236.717 22.462C235.317 22.63 233.357 22.784 232.419 22.826C232.391 22.28 232.405 21.622 232.419 21.076C233.735 20.908 235.737 20.908 237.039 20.656C237.431 20.516 237.655 20.068 237.655 19.634C237.655 19.382 237.571 19.074 237.375 18.794C236.703 18.64 232.545 18.948 230.991 19.032C230.445 19.298 230.179 19.438 229.745 19.802C229.745 20.348 229.913 20.81 230.277 21.118C230.277 21.482 230.263 22 230.207 23.26C230.025 23.456 229.899 23.792 229.899 24.1C229.899 24.394 229.983 24.674 230.193 24.87L230.081 28.37ZM239.72 25.542C240.112 25.794 241.19 25.654 241.47 25.332C241.806 23.204 242.114 20.348 242.296 18.878C241.778 18.234 240.056 18.78 240.042 19.06C239.832 21.986 239.538 25.206 239.72 25.542ZM239.118 27.95C239.118 28.58 239.398 29.056 240.224 29.266C240.798 29.252 241.666 29.028 241.904 28.048C241.834 27.124 241.162 26.774 240.658 26.774C239.58 26.774 239.258 27.32 239.118 27.95Z" fill="white"/>
<circle cx="6" cy="9" r="1" fill="#9D0000"/>
<circle cx="371" cy="9" r="1" fill="#9D0000"/>
<circle cx="6" cy="37" r="1" fill="#9D0000"/>
<circle cx="371" cy="37" r="1" fill="#9D0000"/>
<rect x="754.5" y="7.5" width="376" height="39" rx="5.5" fill="#9D0000" stroke="#9D0000"/>
<rect x="754.5" y="4.5" width="376" height="41" rx="5.5" fill="#BF2E2B" stroke="#9D0000"/>
<path d="M889.462 30.636C889.812 31.056 890.106 31.126 890.4 31.126C890.834 31.126 891.338 30.93 891.618 30.538L891.366 22.516C893.032 22.544 894.908 22.432 896.196 21.928C896.448 21.34 896.14 20.5 895.916 20.234C894.712 20.29 891.632 20.682 890.33 20.43C889.728 20.43 889.196 20.934 889.14 21.508C889.154 23.58 889.182 27.724 889.462 30.636ZM900.597 31.238C903.215 31.238 906.169 29.544 906.169 25.764C906.169 22.67 904.111 20.626 901.185 20.626C898.483 20.626 895.935 22.6 895.935 26.03C895.935 29.194 897.965 31.238 900.597 31.238ZM900.695 29.152C899.155 29.152 898.035 28.116 898.035 26.058C898.035 23.706 899.617 22.656 901.241 22.656C902.683 22.656 904.013 23.692 904.013 25.764C904.013 28.522 901.913 29.152 900.695 29.152ZM910.45 30.958C911.094 31.378 911.836 31.168 912.438 30.608L912.354 22.516C913.614 22.376 914.412 22.306 915.014 22.082C915.364 21.536 915.378 20.78 914.972 20.374C913.544 20.374 908.378 20.878 907.216 21.368C907.02 21.872 907.174 22.53 907.524 23.09C908.532 23.062 909.316 22.908 910.268 22.768C910.212 24.84 910.254 29.922 910.45 30.958ZM920.175 31.238C922.793 31.238 925.747 29.544 925.747 25.764C925.747 22.67 923.689 20.626 920.763 20.626C918.061 20.626 915.513 22.6 915.513 26.03C915.513 29.194 917.543 31.238 920.175 31.238ZM920.273 29.152C918.733 29.152 917.613 28.116 917.613 26.058C917.613 23.706 919.195 22.656 920.819 22.656C922.261 22.656 923.591 23.692 923.591 25.764C923.591 28.522 921.491 29.152 920.273 29.152ZM927.648 30.202C927.886 30.818 928.166 31.238 928.656 31.238C931.778 31.182 935.488 29.824 935.488 26.646C935.488 25.386 934.606 24.966 933.388 24.742C934.312 24.112 934.928 23.342 934.928 22.236C934.928 21.088 933.36 20.626 931.596 20.626C929.454 20.626 928.012 21.116 926.794 22.124C926.794 22.642 926.976 23.09 927.34 23.426C927.34 24.056 927.34 24.392 927.368 25.372C927.158 25.554 927.074 25.862 927.074 26.17C927.074 26.492 927.172 26.814 927.438 26.94C927.494 28.256 927.55 29.194 927.648 30.202ZM929.51 24.686C929.496 24.224 929.44 23.132 929.482 22.838C929.986 22.642 930.896 22.46 931.652 22.46C932.198 22.46 932.73 22.558 932.73 22.74C932.73 23.678 931.498 24.308 929.51 24.686ZM929.72 29.152C929.65 28.606 929.58 27.738 929.58 26.828C930.098 26.52 931.428 26.226 932.226 26.226C933.038 26.226 933.374 26.52 933.374 26.884C933.374 28.214 931.162 28.97 929.72 29.152ZM941.414 30.986C942.212 31.448 943.024 31.028 943.542 30.566C943.542 29.712 943.36 27.808 943.36 26.982C943.57 26.786 943.78 26.604 943.976 26.464L947.84 31.322C948.288 31.182 949.352 30.874 949.352 29.992C948.386 28.41 946.384 26.058 945.488 25.12C946.258 24.42 948.162 23.006 948.862 21.704C948.512 21.032 947.77 20.696 947.238 20.85L943.332 24.364C943.318 23.594 943.57 21.69 943.206 20.85C942.856 20.724 942.548 20.668 942.31 20.668C941.834 20.668 941.414 20.822 941.26 21.284C941.19 22.082 941.162 23.216 941.162 24.462C941.162 26.772 941.274 29.586 941.414 30.986ZM957.235 30.958C957.879 31.378 958.621 31.168 959.223 30.608L959.139 22.516C960.399 22.376 961.197 22.306 961.799 22.082C962.149 21.536 962.163 20.78 961.757 20.374C960.329 20.374 955.163 20.878 954.001 21.368C953.805 21.872 953.959 22.53 954.309 23.09C955.317 23.062 956.101 22.908 957.053 22.768C956.997 24.84 957.039 29.922 957.235 30.958ZM964.676 30.468C965.054 31.336 965.684 31.574 966.65 31.35C968.274 28.858 970.808 23.692 971.816 21.186C971.438 20.486 970.598 20.304 970.08 20.416C969.198 21.858 968.288 24.154 967.434 25.666C966.538 24.238 965.502 22.054 964.676 20.626C964.088 20.136 962.954 20.57 962.772 21.102C962.954 22.404 965.306 25.848 966.37 27.64L964.676 30.468ZM972.695 26.422C972.695 28.76 974.487 31.21 977.189 31.21C978.883 31.21 980.815 30.272 981.893 28.648C981.963 27.85 981.277 27.206 980.577 27.15C979.247 28.774 978.505 29.208 977.273 29.208C976.139 29.208 974.851 28.2 974.851 26.548C974.851 23.636 976.489 22.67 977.945 22.67C979.121 22.67 979.709 23.188 980.199 23.776C980.913 23.664 981.585 23.16 981.613 22.544C981.319 21.536 979.709 20.752 978.085 20.752C975.005 20.752 972.695 22.852 972.695 26.422ZM984.081 30.37C984.501 30.958 984.711 31.14 985.285 31.364C987.315 31.294 989.821 31.168 991.641 30.314C991.767 30.006 991.809 29.754 991.809 29.586C991.809 29.012 991.515 28.522 990.927 28.48C989.387 28.914 987.539 29.166 986.251 29.236C986.251 28.228 986.279 27.444 986.321 26.842C986.685 26.814 986.979 26.814 987.539 26.772C988.519 26.716 989.709 26.632 990.605 26.52C991.011 26.338 991.235 25.848 991.235 25.4C991.235 25.078 991.095 24.7 990.717 24.462C989.317 24.63 987.357 24.784 986.419 24.826C986.391 24.28 986.405 23.622 986.419 23.076C987.735 22.908 989.737 22.908 991.039 22.656C991.431 22.516 991.655 22.068 991.655 21.634C991.655 21.382 991.571 21.074 991.375 20.794C990.703 20.64 986.545 20.948 984.991 21.032C984.445 21.298 984.179 21.438 983.745 21.802C983.745 22.348 983.913 22.81 984.277 23.118C984.277 23.482 984.263 24 984.207 25.26C984.025 25.456 983.899 25.792 983.899 26.1C983.899 26.394 983.983 26.674 984.193 26.87L984.081 30.37ZM993.72 27.542C994.112 27.794 995.19 27.654 995.47 27.332C995.806 25.204 996.114 22.348 996.296 20.878C995.778 20.234 994.056 20.78 994.042 21.06C993.832 23.986 993.538 27.206 993.72 27.542ZM993.118 29.95C993.118 30.58 993.398 31.056 994.224 31.266C994.798 31.252 995.666 31.028 995.904 30.048C995.834 29.124 995.162 28.774 994.658 28.774C993.58 28.774 993.258 29.32 993.118 29.95Z" fill="white"/>
<circle cx="760" cy="11" r="1" fill="#9D0000"/>
<circle cx="1125" cy="11" r="1" fill="#9D0000"/>
<circle cx="760" cy="38" r="1" fill="#9D0000"/>
<circle cx="1125" cy="38" r="1" fill="#9D0000"/>
<rect x="377.5" y="7.5" width="376" height="39" rx="5.5" fill="#9D0000" stroke="#9D0000"/>
<rect x="377.5" y="0.5" width="376" height="41" rx="5.5" fill="#FE514C" stroke="#9D0000"/>
<path d="M512.462 25.636C512.812 26.056 513.106 26.126 513.4 26.126C513.834 26.126 514.338 25.93 514.618 25.538L514.366 17.516C516.032 17.544 517.908 17.432 519.196 16.928C519.448 16.34 519.14 15.5 518.916 15.234C517.712 15.29 514.632 15.682 513.33 15.43C512.728 15.43 512.196 15.934 512.14 16.508C512.154 18.58 512.182 22.724 512.462 25.636ZM523.597 26.238C526.215 26.238 529.169 24.544 529.169 20.764C529.169 17.67 527.111 15.626 524.185 15.626C521.483 15.626 518.935 17.6 518.935 21.03C518.935 24.194 520.965 26.238 523.597 26.238ZM523.695 24.152C522.155 24.152 521.035 23.116 521.035 21.058C521.035 18.706 522.617 17.656 524.241 17.656C525.683 17.656 527.013 18.692 527.013 20.764C527.013 23.522 524.913 24.152 523.695 24.152ZM533.45 25.958C534.094 26.378 534.836 26.168 535.438 25.608L535.354 17.516C536.614 17.376 537.412 17.306 538.014 17.082C538.364 16.536 538.378 15.78 537.972 15.374C536.544 15.374 531.378 15.878 530.216 16.368C530.02 16.872 530.174 17.53 530.524 18.09C531.532 18.062 532.316 17.908 533.268 17.768C533.212 19.84 533.254 24.922 533.45 25.958ZM543.175 26.238C545.793 26.238 548.747 24.544 548.747 20.764C548.747 17.67 546.689 15.626 543.763 15.626C541.061 15.626 538.513 17.6 538.513 21.03C538.513 24.194 540.543 26.238 543.175 26.238ZM543.273 24.152C541.733 24.152 540.613 23.116 540.613 21.058C540.613 18.706 542.195 17.656 543.819 17.656C545.261 17.656 546.591 18.692 546.591 20.764C546.591 23.522 544.491 24.152 543.273 24.152ZM550.648 25.202C550.886 25.818 551.166 26.238 551.656 26.238C554.778 26.182 558.488 24.824 558.488 21.646C558.488 20.386 557.606 19.966 556.388 19.742C557.312 19.112 557.928 18.342 557.928 17.236C557.928 16.088 556.36 15.626 554.596 15.626C552.454 15.626 551.012 16.116 549.794 17.124C549.794 17.642 549.976 18.09 550.34 18.426C550.34 19.056 550.34 19.392 550.368 20.372C550.158 20.554 550.074 20.862 550.074 21.17C550.074 21.492 550.172 21.814 550.438 21.94C550.494 23.256 550.55 24.194 550.648 25.202ZM552.51 19.686C552.496 19.224 552.44 18.132 552.482 17.838C552.986 17.642 553.896 17.46 554.652 17.46C555.198 17.46 555.73 17.558 555.73 17.74C555.73 18.678 554.498 19.308 552.51 19.686ZM552.72 24.152C552.65 23.606 552.58 22.738 552.58 21.828C553.098 21.52 554.428 21.226 555.226 21.226C556.038 21.226 556.374 21.52 556.374 21.884C556.374 23.214 554.162 23.97 552.72 24.152ZM564.414 25.986C565.212 26.448 566.024 26.028 566.542 25.566C566.542 24.712 566.36 22.808 566.36 21.982C566.57 21.786 566.78 21.604 566.976 21.464L570.84 26.322C571.288 26.182 572.352 25.874 572.352 24.992C571.386 23.41 569.384 21.058 568.488 20.12C569.258 19.42 571.162 18.006 571.862 16.704C571.512 16.032 570.77 15.696 570.238 15.85L566.332 19.364C566.318 18.594 566.57 16.69 566.206 15.85C565.856 15.724 565.548 15.668 565.31 15.668C564.834 15.668 564.414 15.822 564.26 16.284C564.19 17.082 564.162 18.216 564.162 19.462C564.162 21.772 564.274 24.586 564.414 25.986ZM580.235 25.958C580.879 26.378 581.621 26.168 582.223 25.608L582.139 17.516C583.399 17.376 584.197 17.306 584.799 17.082C585.149 16.536 585.163 15.78 584.757 15.374C583.329 15.374 578.163 15.878 577.001 16.368C576.805 16.872 576.959 17.53 577.309 18.09C578.317 18.062 579.101 17.908 580.053 17.768C579.997 19.84 580.039 24.922 580.235 25.958ZM587.676 25.468C588.054 26.336 588.684 26.574 589.65 26.35C591.274 23.858 593.808 18.692 594.816 16.186C594.438 15.486 593.598 15.304 593.08 15.416C592.198 16.858 591.288 19.154 590.434 20.666C589.538 19.238 588.502 17.054 587.676 15.626C587.088 15.136 585.954 15.57 585.772 16.102C585.954 17.404 588.306 20.848 589.37 22.64L587.676 25.468ZM595.695 21.422C595.695 23.76 597.487 26.21 600.189 26.21C601.883 26.21 603.815 25.272 604.893 23.648C604.963 22.85 604.277 22.206 603.577 22.15C602.247 23.774 601.505 24.208 600.273 24.208C599.139 24.208 597.851 23.2 597.851 21.548C597.851 18.636 599.489 17.67 600.945 17.67C602.121 17.67 602.709 18.188 603.199 18.776C603.913 18.664 604.585 18.16 604.613 17.544C604.319 16.536 602.709 15.752 601.085 15.752C598.005 15.752 595.695 17.852 595.695 21.422ZM607.081 25.37C607.501 25.958 607.711 26.14 608.285 26.364C610.315 26.294 612.821 26.168 614.641 25.314C614.767 25.006 614.809 24.754 614.809 24.586C614.809 24.012 614.515 23.522 613.927 23.48C612.387 23.914 610.539 24.166 609.251 24.236C609.251 23.228 609.279 22.444 609.321 21.842C609.685 21.814 609.979 21.814 610.539 21.772C611.519 21.716 612.709 21.632 613.605 21.52C614.011 21.338 614.235 20.848 614.235 20.4C614.235 20.078 614.095 19.7 613.717 19.462C612.317 19.63 610.357 19.784 609.419 19.826C609.391 19.28 609.405 18.622 609.419 18.076C610.735 17.908 612.737 17.908 614.039 17.656C614.431 17.516 614.655 17.068 614.655 16.634C614.655 16.382 614.571 16.074 614.375 15.794C613.703 15.64 609.545 15.948 607.991 16.032C607.445 16.298 607.179 16.438 606.745 16.802C606.745 17.348 606.913 17.81 607.277 18.118C607.277 18.482 607.263 19 607.207 20.26C607.025 20.456 606.899 20.792 606.899 21.1C606.899 21.394 606.983 21.674 607.193 21.87L607.081 25.37ZM616.72 22.542C617.112 22.794 618.19 22.654 618.47 22.332C618.806 20.204 619.114 17.348 619.296 15.878C618.778 15.234 617.056 15.78 617.042 16.06C616.832 18.986 616.538 22.206 616.72 22.542ZM616.118 24.95C616.118 25.58 616.398 26.056 617.224 26.266C617.798 26.252 618.666 26.028 618.904 25.048C618.834 24.124 618.162 23.774 617.658 23.774C616.58 23.774 616.258 24.32 616.118 24.95Z" fill="white"/>
<circle cx="383" cy="6" r="1" fill="#9D0000"/>
<circle cx="748" cy="6" r="1" fill="#9D0000"/>
<circle cx="383" cy="34" r="1" fill="#9D0000"/>
<circle cx="748" cy="34" r="1" fill="#9D0000"/>
</svg>
