<svg width="125" height="17" viewBox="0 0 125 17" fill="none" xmlns="http://www.w3.org/2000/svg">
<path d="M1.30206 13.65C1.27406 13.5287 1.25539 13.2673 1.24606 12.866C1.23673 12.4647 1.22739 11.9933 1.21806 11.452C1.20873 10.9013 1.19939 10.3133 1.19006 9.688C1.19006 9.06267 1.19006 8.47 1.19006 7.91C1.19006 7.34067 1.18539 6.83667 1.17606 6.398C1.17606 5.95 1.17139 5.63733 1.16206 5.46C1.07806 5.32933 1.01739 5.20333 0.980061 5.082C0.952061 4.95133 0.928728 4.79267 0.910061 4.606C0.975394 4.45667 1.07806 4.32133 1.21806 4.2C1.35806 4.06933 1.50273 3.95733 1.65206 3.864C1.81073 3.77067 1.96006 3.70067 2.10006 3.654C2.24939 3.60733 2.35673 3.584 2.42206 3.584C2.55273 3.612 2.64606 3.64 2.70206 3.668C2.75806 3.68667 2.81406 3.71467 2.87006 3.752C3.27139 3.68667 3.96673 3.60267 4.95606 3.5C5.94539 3.388 7.19139 3.32267 8.69406 3.304C8.86206 3.35067 9.01606 3.42533 9.15606 3.528C9.29606 3.63067 9.42673 3.77533 9.54806 3.962C9.5854 4.12067 9.61339 4.40533 9.63206 4.816C9.65073 5.22667 9.66473 5.71667 9.67406 6.286C9.68339 6.846 9.68806 7.45733 9.68806 8.12C9.68806 8.77333 9.68806 9.41733 9.68806 10.052C9.68806 10.6867 9.68339 11.2887 9.67406 11.858C9.67406 12.418 9.67873 12.8847 9.68806 13.258C9.61339 13.5007 9.46873 13.6873 9.25406 13.818C9.04873 13.9393 8.82473 14 8.58206 14C8.37673 14 8.17606 13.9533 7.98006 13.86C7.78406 13.7667 7.61606 13.6267 7.47606 13.44C7.47606 13.2907 7.47606 13.02 7.47606 12.628C7.48539 12.236 7.49006 11.7833 7.49006 11.27C7.49939 10.7473 7.50873 10.192 7.51806 9.604C7.52739 9.00667 7.52739 8.43267 7.51806 7.882C7.51806 7.33133 7.51339 6.832 7.50406 6.384C7.49473 5.936 7.48073 5.59533 7.46206 5.362C7.15406 5.37133 6.78539 5.38533 6.35606 5.404C5.93606 5.42267 5.52073 5.446 5.11006 5.474C4.70873 5.502 4.34473 5.53467 4.01806 5.572C3.69139 5.6 3.47206 5.63267 3.36006 5.67C3.36006 5.85667 3.36006 6.15533 3.36006 6.566C3.36939 6.96733 3.37406 7.42467 3.37406 7.938C3.38339 8.45133 3.39273 8.99267 3.40206 9.562C3.41139 10.1313 3.42073 10.6773 3.43006 11.2C3.43939 11.7133 3.44873 12.18 3.45806 12.6C3.46739 13.02 3.47206 13.3373 3.47206 13.552C3.33206 13.776 3.15006 13.944 2.92606 14.056C2.70206 14.168 2.48273 14.224 2.26806 14.224C2.07206 14.224 1.89006 14.182 1.72206 14.098C1.56339 14.014 1.42339 13.8647 1.30206 13.65ZM12.0345 14.042C12.0065 13.7247 11.9831 13.3747 11.9645 12.992C11.9551 12.6093 11.9458 12.2173 11.9365 11.816C11.9271 11.4053 11.9178 10.9947 11.9085 10.584C11.9085 10.1733 11.9085 9.77667 11.9085 9.394C11.9085 8.75 11.9085 8.19467 11.9085 7.728C11.9178 7.26133 11.9271 6.88333 11.9365 6.594C11.7498 6.44467 11.6285 6.26733 11.5725 6.062C11.5258 5.85667 11.5585 5.60467 11.6705 5.306C11.9785 4.92333 12.3238 4.62467 12.7065 4.41C13.0985 4.186 13.4998 4.02267 13.9105 3.92C14.3211 3.808 14.7365 3.738 15.1565 3.71C15.5765 3.682 15.9685 3.668 16.3325 3.668C16.7431 3.668 17.1725 3.724 17.6205 3.836C18.0685 3.93867 18.4791 4.09733 18.8525 4.312C19.2258 4.51733 19.5338 4.774 19.7765 5.082C20.0192 5.39 20.1405 5.74933 20.1405 6.16C20.1405 6.62667 20.0332 7.056 19.8185 7.448C19.6038 7.83067 19.3238 8.18067 18.9785 8.498C18.6332 8.81533 18.2365 9.09533 17.7885 9.338C17.3498 9.58067 16.9018 9.79067 16.4445 9.968C15.9871 10.1453 15.5391 10.2853 15.1005 10.388C14.6618 10.4907 14.2791 10.5607 13.9525 10.598C13.9618 11.1767 13.9758 11.7367 13.9945 12.278C14.0225 12.8193 14.0411 13.3887 14.0505 13.986C13.8265 14.1447 13.6071 14.252 13.3925 14.308C13.1871 14.3733 13.0051 14.406 12.8465 14.406C12.6971 14.406 12.5525 14.378 12.4125 14.322C12.2818 14.2753 12.1558 14.182 12.0345 14.042ZM13.9525 8.666C14.1298 8.64733 14.3538 8.61 14.6245 8.554C14.8951 8.498 15.1751 8.42333 15.4645 8.33C15.7631 8.23667 16.0571 8.12933 16.3465 8.008C16.6451 7.87733 16.9111 7.728 17.1445 7.56C17.3871 7.392 17.5785 7.20533 17.7185 7C17.8678 6.79467 17.9425 6.566 17.9425 6.314C17.9425 6.16467 17.8818 6.03867 17.7605 5.936C17.6391 5.83333 17.4851 5.754 17.2985 5.698C17.1118 5.63267 16.9018 5.59067 16.6685 5.572C16.4445 5.544 16.2251 5.53 16.0105 5.53C15.8611 5.53 15.6931 5.544 15.5065 5.572C15.3291 5.6 15.1471 5.63733 14.9605 5.684C14.7831 5.72133 14.6151 5.768 14.4565 5.824C14.2978 5.87067 14.1671 5.91733 14.0645 5.964C14.0458 6.132 14.0318 6.33267 14.0225 6.566C14.0131 6.79 14.0038 7.02333 13.9945 7.266C13.9851 7.50867 13.9758 7.75133 13.9665 7.994C13.9665 8.23667 13.9618 8.46067 13.9525 8.666ZM21.6966 13.552C21.6686 13.2813 21.6452 12.9127 21.6266 12.446C21.6172 11.9793 21.6079 11.4567 21.5986 10.878C21.5986 10.2993 21.5986 9.68333 21.5986 9.03C21.5986 8.37667 21.5986 7.73267 21.5986 7.098C21.5986 6.46333 21.5986 5.85667 21.5986 5.278C21.6079 4.69933 21.6126 4.19067 21.6126 3.752C21.7246 3.612 21.8646 3.50467 22.0326 3.43C22.2006 3.346 22.3779 3.28533 22.5646 3.248C22.7606 3.21067 22.9566 3.192 23.1526 3.192C23.3486 3.18267 23.5306 3.192 23.6986 3.22C23.7266 3.472 23.7452 3.794 23.7546 4.186C23.7732 4.56867 23.7826 4.98867 23.7826 5.446C23.7919 5.894 23.7966 6.36533 23.7966 6.86C23.7966 7.34533 23.7919 7.812 23.7826 8.26C23.7826 8.69867 23.7826 9.10933 23.7826 9.492C23.7826 9.86533 23.7826 10.164 23.7826 10.388C23.9879 10.0707 24.2259 9.67867 24.4966 9.212C24.7766 8.74533 25.0706 8.25533 25.3786 7.742C25.6959 7.21933 26.0179 6.70133 26.3446 6.188C26.6712 5.67467 26.9839 5.208 27.2826 4.788C27.5906 4.368 27.8752 4.02267 28.1366 3.752C28.3979 3.48133 28.6219 3.32733 28.8086 3.29C28.9019 3.318 29.0092 3.35067 29.1306 3.388C29.2612 3.42533 29.3919 3.472 29.5226 3.528C29.6532 3.584 29.7746 3.64933 29.8866 3.724C30.0079 3.78933 30.1059 3.86867 30.1806 3.962C30.2086 4.074 30.2272 4.312 30.2366 4.676C30.2552 5.03067 30.2599 5.45533 30.2506 5.95C30.2506 6.43533 30.2459 6.958 30.2366 7.518C30.2366 8.06867 30.2272 8.60067 30.2086 9.114C30.1992 9.62733 30.1899 10.0893 30.1806 10.5C30.1806 10.9013 30.1806 11.1953 30.1806 11.382C30.1806 11.7647 30.1852 12.11 30.1946 12.418C30.2039 12.726 30.2226 13.0013 30.2506 13.244C30.2039 13.4027 30.1106 13.5427 29.9706 13.664C29.8306 13.776 29.6719 13.8647 29.4946 13.93C29.3172 13.986 29.1399 14.014 28.9626 14.014C28.7852 14.0233 28.6359 13.9953 28.5146 13.93C28.3932 13.846 28.2906 13.72 28.2066 13.552C28.1319 13.3747 28.0666 13.1647 28.0106 12.922C27.9639 12.67 27.9312 12.3947 27.9126 12.096C27.8939 11.7973 27.8846 11.48 27.8846 11.144C27.8846 10.668 27.8986 10.1313 27.9266 9.534C27.9639 8.93667 28.0059 8.20867 28.0526 7.35C27.8286 7.714 27.5719 8.12933 27.2826 8.596C27.0026 9.05333 26.7086 9.52933 26.4006 10.024C26.0926 10.5093 25.7799 10.9947 25.4626 11.48C25.1452 11.956 24.8466 12.39 24.5666 12.782C24.2866 13.1647 24.0346 13.4867 23.8106 13.748C23.5959 14 23.4279 14.154 23.3066 14.21C23.1199 14.1727 22.9566 14.14 22.8166 14.112C22.6859 14.0933 22.5599 14.0653 22.4386 14.028C22.3266 13.9907 22.2099 13.9393 22.0886 13.874C21.9766 13.7993 21.8459 13.692 21.6966 13.552ZM31.743 12.194C31.883 12.1193 32.0556 12.0727 32.261 12.054C32.4663 12.026 32.681 12.0027 32.905 11.984C33.0636 11.7787 33.2036 11.5173 33.325 11.2C33.4463 10.8827 33.5536 10.5373 33.647 10.164C33.7496 9.78133 33.8336 9.38467 33.899 8.974C33.9643 8.554 34.0203 8.148 34.067 7.756C34.1136 7.35467 34.151 6.98133 34.179 6.636C34.207 6.29067 34.2303 5.992 34.249 5.74C34.1836 5.74933 34.081 5.75867 33.941 5.768C33.801 5.77733 33.7123 5.782 33.675 5.782C33.4603 5.62333 33.3016 5.446 33.199 5.25C33.1056 5.04467 33.059 4.844 33.059 4.648C33.059 4.508 33.0823 4.36333 33.129 4.214C33.185 4.06467 33.2736 3.92467 33.395 3.794C33.7403 3.71933 34.179 3.654 34.711 3.598C35.2523 3.53267 35.8123 3.47667 36.391 3.43C36.979 3.38333 37.5483 3.346 38.099 3.318C38.659 3.29 39.1303 3.26667 39.513 3.248C39.6903 3.31333 39.8396 3.402 39.961 3.514C40.0916 3.61667 40.1943 3.76133 40.269 3.948C40.3063 4.27467 40.3343 4.67133 40.353 5.138C40.3717 5.59533 40.381 6.13667 40.381 6.762C40.3903 7.38733 40.395 8.09667 40.395 8.89C40.395 9.68333 40.3903 10.57 40.381 11.55C40.6423 11.5033 40.913 11.508 41.193 11.564C41.473 11.6107 41.7577 11.69 42.047 11.802C42.047 11.9887 42.0423 12.222 42.033 12.502C42.0236 12.782 42.0097 13.076 41.991 13.384C41.9816 13.692 41.9723 13.9953 41.963 14.294C41.963 14.602 41.9676 14.8727 41.977 15.106C41.865 15.2927 41.7483 15.4327 41.627 15.526C41.5056 15.6193 41.3703 15.6847 41.221 15.722C41.081 15.7687 40.927 15.792 40.759 15.792C40.591 15.8013 40.4137 15.806 40.227 15.806C40.1243 15.694 40.0403 15.5447 39.975 15.358C39.919 15.1713 39.877 14.9753 39.849 14.77C39.821 14.574 39.807 14.378 39.807 14.182C39.807 13.986 39.8163 13.818 39.835 13.678C39.5083 13.6967 39.1537 13.7153 38.771 13.734C38.3976 13.7527 37.9683 13.776 37.483 13.804C37.007 13.832 36.4656 13.8647 35.859 13.902C35.2523 13.93 34.557 13.9627 33.773 14C33.7916 14.1867 33.8103 14.4013 33.829 14.644C33.857 14.896 33.8756 15.1153 33.885 15.302C33.829 15.4327 33.7216 15.5447 33.563 15.638C33.4043 15.7313 33.227 15.8107 33.031 15.876C32.8443 15.9507 32.6483 16.002 32.443 16.03C32.247 16.0673 32.0743 16.086 31.925 16.086C31.7663 15.386 31.6636 14.7233 31.617 14.098C31.5703 13.4727 31.6123 12.838 31.743 12.194ZM38.211 11.704C38.239 11.3307 38.2576 10.864 38.267 10.304C38.2856 9.744 38.2996 9.16067 38.309 8.554C38.3183 7.94733 38.3136 7.35933 38.295 6.79C38.2856 6.22067 38.267 5.74467 38.239 5.362C38.071 5.37133 37.8843 5.38067 37.679 5.39C37.483 5.39933 37.287 5.40867 37.091 5.418C36.9043 5.42733 36.7363 5.44133 36.587 5.46C36.4376 5.46933 36.3256 5.47867 36.251 5.488C36.195 7.028 36.0783 8.33 35.901 9.394C35.733 10.4487 35.523 11.284 35.271 11.9L38.211 11.704ZM45.5056 10.64C45.3283 10.3413 45.1183 10.0053 44.8756 9.632C44.6423 9.24933 44.395 8.85267 44.1336 8.442C43.8816 8.03133 43.6296 7.616 43.3776 7.196C43.1256 6.76667 42.8923 6.36067 42.6776 5.978C42.4723 5.59533 42.2996 5.24067 42.1596 4.914C42.0196 4.58733 41.9356 4.31667 41.9076 4.102C41.9543 3.97133 42.0523 3.85 42.2016 3.738C42.351 3.626 42.519 3.542 42.7056 3.486C42.8923 3.43 43.0836 3.41133 43.2796 3.43C43.485 3.43933 43.6623 3.50467 43.8116 3.626C44.017 3.98067 44.2316 4.37733 44.4556 4.816C44.689 5.25467 44.9223 5.698 45.1556 6.146C45.3983 6.594 45.6363 7.03733 45.8696 7.476C46.1123 7.91467 46.3456 8.31133 46.5696 8.666C46.7843 8.29267 46.999 7.87733 47.2136 7.42C47.4376 6.95333 47.6616 6.48667 47.8856 6.02C48.1096 5.544 48.329 5.082 48.5436 4.634C48.7676 4.186 48.9916 3.78 49.2156 3.416C49.3463 3.388 49.491 3.37867 49.6496 3.388C49.8083 3.39733 49.967 3.43467 50.1256 3.5C50.2936 3.556 50.4476 3.64 50.5876 3.752C50.737 3.864 50.8583 4.00867 50.9516 4.186C50.7836 4.606 50.5736 5.09133 50.3216 5.642C50.079 6.18333 49.813 6.762 49.5236 7.378C49.2343 7.994 48.9263 8.62867 48.5996 9.282C48.273 9.926 47.9463 10.556 47.6196 11.172C47.293 11.7787 46.971 12.3573 46.6536 12.908C46.3456 13.4587 46.0563 13.9393 45.7856 14.35C45.3003 14.462 44.8943 14.4527 44.5676 14.322C44.2503 14.1913 43.9983 13.9067 43.8116 13.468L45.5056 10.64ZM52.1386 13.972C52.0826 13.5427 52.0592 13.076 52.0686 12.572C52.0779 12.0587 52.1106 11.5313 52.1666 10.99C52.2226 10.4487 52.2926 9.90267 52.3766 9.352C52.4699 8.80133 52.5679 8.27867 52.6706 7.784C52.7826 7.28933 52.8992 6.832 53.0206 6.412C53.1419 5.992 53.2586 5.63733 53.3706 5.348L53.2306 4.69C53.3706 4.44733 53.5572 4.23267 53.7906 4.046C54.0239 3.85 54.3179 3.752 54.6726 3.752C54.8406 3.752 54.9806 3.794 55.0926 3.878C55.2139 3.962 55.3119 4.06467 55.3866 4.186C55.4612 4.298 55.5172 4.41 55.5546 4.522C55.5919 4.634 55.6199 4.718 55.6386 4.774C55.6759 4.96067 55.7366 5.21733 55.8206 5.544C55.9046 5.86133 56.0119 6.26733 56.1426 6.762C56.2826 7.24733 56.4459 7.83067 56.6326 8.512C56.8286 9.184 57.0619 9.968 57.3326 10.864C57.4259 10.584 57.5286 10.2433 57.6406 9.842C57.7619 9.44067 57.8832 9.016 58.0046 8.568C58.1352 8.11067 58.2659 7.65333 58.3966 7.196C58.5272 6.72933 58.6579 6.29067 58.7886 5.88C58.9192 5.46933 59.0452 5.10533 59.1666 4.788C59.2879 4.47067 59.3999 4.23267 59.5026 4.074C59.5866 4.018 59.7172 3.95733 59.8946 3.892C60.0719 3.82667 60.2586 3.78 60.4546 3.752C60.6599 3.71467 60.8512 3.70533 61.0286 3.724C61.2152 3.74267 61.3506 3.79867 61.4346 3.892C61.6212 4.18133 61.7706 4.53133 61.8826 4.942C62.0039 5.35267 62.0972 5.80533 62.1626 6.3C62.2279 6.78533 62.2746 7.30333 62.3026 7.854C62.3399 8.39533 62.3726 8.93667 62.4006 9.478C62.4379 10.1687 62.4799 10.8407 62.5266 11.494C62.5732 12.138 62.6479 12.7213 62.7506 13.244C62.7226 13.412 62.6386 13.5847 62.4986 13.762C62.3679 13.93 62.2046 14.0653 62.0086 14.168C61.8126 14.2707 61.6026 14.3313 61.3786 14.35C61.1546 14.3687 60.9399 14.308 60.7346 14.168C60.5759 13.5893 60.4639 12.782 60.3986 11.746C60.3332 10.7007 60.2632 9.39867 60.1886 7.84C59.9366 8.77333 59.6426 9.744 59.3066 10.752C58.9706 11.76 58.6066 12.7353 58.2146 13.678C58.1306 13.818 58.0046 13.9253 57.8366 14C57.6779 14.0747 57.5099 14.1213 57.3326 14.14C57.1552 14.168 56.9872 14.168 56.8286 14.14C56.6699 14.1213 56.5579 14.0793 56.4926 14.014C56.3059 13.65 56.1239 13.2113 55.9466 12.698C55.7786 12.1847 55.6106 11.6527 55.4426 11.102C55.2839 10.5513 55.1299 10.0053 54.9806 9.464C54.8312 8.91333 54.6912 8.42333 54.5606 7.994C54.4486 8.582 54.3692 9.156 54.3226 9.716C54.2759 10.2667 54.2432 10.7847 54.2246 11.27C54.2059 11.7553 54.1966 12.194 54.1966 12.586C54.1966 12.978 54.1966 13.3047 54.1966 13.566C54.1219 13.678 54.0099 13.7993 53.8606 13.93C53.7206 14.0513 53.5572 14.1447 53.3706 14.21C53.1932 14.2753 52.9972 14.2987 52.7826 14.28C52.5772 14.2613 52.3626 14.1587 52.1386 13.972ZM64.0584 13.706C64.0397 13.622 64.077 13.4307 64.1704 13.132C64.2637 12.824 64.3897 12.4507 64.5484 12.012C64.707 11.564 64.8937 11.0693 65.1084 10.528C65.3324 9.97733 65.5657 9.422 65.8084 8.862C66.051 8.29267 66.2937 7.742 66.5364 7.21C66.779 6.66867 67.0077 6.17867 67.2224 5.74C67.2224 5.73067 67.2177 5.726 67.2084 5.726C67.199 5.71667 67.1944 5.70733 67.1944 5.698C67.1477 5.60467 67.0964 5.51133 67.0404 5.418C66.9937 5.32467 66.933 5.18467 66.8584 4.998C67.017 4.634 67.2037 4.34933 67.4184 4.144C67.633 3.92933 67.927 3.808 68.3004 3.78C68.5057 3.836 68.7297 3.99933 68.9724 4.27C69.215 4.54067 69.4577 4.87667 69.7004 5.278C69.9524 5.67933 70.2044 6.132 70.4564 6.636C70.7084 7.14 70.951 7.658 71.1844 8.19C71.427 8.722 71.6557 9.254 71.8704 9.786C72.085 10.3087 72.2764 10.794 72.4444 11.242C72.6217 11.69 72.7664 12.082 72.8784 12.418C72.9997 12.7447 73.0884 12.9827 73.1444 13.132C73.0884 13.2627 72.9904 13.3933 72.8504 13.524C72.7197 13.6453 72.5657 13.7573 72.3884 13.86C72.2204 13.9533 72.043 14.0233 71.8564 14.07C71.679 14.126 71.5204 14.14 71.3804 14.112C71.203 13.7667 71.0444 13.4307 70.9044 13.104C70.7737 12.7773 70.6524 12.488 70.5404 12.236V12.18C69.9337 12.2547 69.2804 12.334 68.5804 12.418C67.8897 12.4927 67.2317 12.5673 66.6064 12.642C66.5877 12.6607 66.569 12.6887 66.5504 12.726C66.541 12.754 66.5177 12.81 66.4804 12.894C66.4524 12.978 66.4057 13.0993 66.3404 13.258C66.275 13.4167 66.1864 13.636 66.0744 13.916C66.009 14.0467 65.9017 14.1447 65.7524 14.21C65.603 14.2847 65.435 14.322 65.2484 14.322C65.071 14.322 64.8797 14.2847 64.6744 14.21C64.4784 14.1447 64.3057 14.042 64.1564 13.902L64.0584 13.706ZM69.8124 10.248C69.7377 10.0427 69.649 9.81867 69.5464 9.576C69.453 9.33333 69.3504 9.09067 69.2384 8.848C69.1264 8.60533 69.0144 8.372 68.9024 8.148C68.7997 7.91467 68.7017 7.70467 68.6084 7.518C68.5804 7.58333 68.5477 7.66733 68.5104 7.77C68.473 7.86333 68.4077 8.01733 68.3144 8.232C68.221 8.44667 68.095 8.74533 67.9364 9.128C67.7777 9.50133 67.5677 10.0007 67.3064 10.626L69.8124 10.248ZM79.1144 3.276C78.6104 3.276 78.1997 3.18733 77.8824 3.01C77.5651 2.83267 77.3224 2.62733 77.1544 2.394C76.9957 2.15133 76.8977 1.91333 76.8604 1.68C76.8324 1.43733 76.8464 1.26 76.9024 1.148C76.9677 1.092 77.0611 1.036 77.1824 0.979999C77.3037 0.914666 77.4344 0.872666 77.5744 0.853999C77.7237 0.825999 77.8684 0.830666 78.0084 0.868C78.1577 0.905333 78.2884 0.998666 78.4004 1.148C78.4284 1.26933 78.4704 1.36733 78.5264 1.442C78.5824 1.51667 78.6431 1.57267 78.7084 1.61C78.7831 1.64733 78.8531 1.67067 78.9184 1.68C78.9931 1.68933 79.0584 1.694 79.1144 1.694C79.3291 1.694 79.5157 1.63333 79.6744 1.512C79.8331 1.39067 79.9497 1.19 80.0244 0.909999C80.1271 0.779332 80.2624 0.704666 80.4304 0.686C80.5984 0.657999 80.7617 0.662666 80.9204 0.699999C81.0977 0.737333 81.2891 0.802666 81.4944 0.895999C81.5224 1.24133 81.4804 1.55867 81.3684 1.848C81.2564 2.13733 81.0931 2.38933 80.8784 2.604C80.6637 2.80933 80.4024 2.97267 80.0944 3.094C79.7957 3.21533 79.4691 3.276 79.1144 3.276ZM74.6204 13.552C74.5924 13.2813 74.5691 12.9127 74.5504 12.446C74.5411 11.9793 74.5317 11.4567 74.5224 10.878C74.5224 10.2993 74.5224 9.68333 74.5224 9.03C74.5224 8.37667 74.5224 7.73267 74.5224 7.098C74.5224 6.46333 74.5224 5.85667 74.5224 5.278C74.5317 4.69933 74.5364 4.19067 74.5364 3.752C74.6484 3.612 74.7884 3.50467 74.9564 3.43C75.1244 3.346 75.3017 3.28533 75.4884 3.248C75.6844 3.21067 75.8804 3.192 76.0764 3.192C76.2724 3.18267 76.4544 3.192 76.6224 3.22C76.6504 3.472 76.6691 3.794 76.6784 4.186C76.6971 4.56867 76.7064 4.98867 76.7064 5.446C76.7157 5.894 76.7204 6.36533 76.7204 6.86C76.7204 7.34533 76.7157 7.812 76.7064 8.26C76.7064 8.69867 76.7064 9.10933 76.7064 9.492C76.7064 9.86533 76.7064 10.164 76.7064 10.388C76.9117 10.0707 77.1497 9.67867 77.4204 9.212C77.7004 8.74533 77.9944 8.25533 78.3024 7.742C78.6197 7.21933 78.9417 6.70133 79.2684 6.188C79.5951 5.67467 79.9077 5.208 80.2064 4.788C80.5144 4.368 80.7991 4.02267 81.0604 3.752C81.3217 3.48133 81.5457 3.32733 81.7324 3.29C81.8257 3.318 81.9331 3.35067 82.0544 3.388C82.1851 3.42533 82.3157 3.472 82.4464 3.528C82.5771 3.584 82.6984 3.64933 82.8104 3.724C82.9317 3.78933 83.0297 3.86867 83.1044 3.962C83.1324 4.074 83.1511 4.312 83.1604 4.676C83.1791 5.03067 83.1837 5.45533 83.1744 5.95C83.1744 6.43533 83.1697 6.958 83.1604 7.518C83.1604 8.06867 83.1511 8.60067 83.1324 9.114C83.1231 9.62733 83.1137 10.0893 83.1044 10.5C83.1044 10.9013 83.1044 11.1953 83.1044 11.382C83.1044 11.7647 83.1091 12.11 83.1184 12.418C83.1277 12.726 83.1464 13.0013 83.1744 13.244C83.1277 13.4027 83.0344 13.5427 82.8944 13.664C82.7544 13.776 82.5957 13.8647 82.4184 13.93C82.2411 13.986 82.0637 14.014 81.8864 14.014C81.7091 14.0233 81.5597 13.9953 81.4384 13.93C81.3171 13.846 81.2144 13.72 81.1304 13.552C81.0557 13.3747 80.9904 13.1647 80.9344 12.922C80.8877 12.67 80.8551 12.3947 80.8364 12.096C80.8177 11.7973 80.8084 11.48 80.8084 11.144C80.8084 10.668 80.8224 10.1313 80.8504 9.534C80.8877 8.93667 80.9297 8.20867 80.9764 7.35C80.7524 7.714 80.4957 8.12933 80.2064 8.596C79.9264 9.05333 79.6324 9.52933 79.3244 10.024C79.0164 10.5093 78.7037 10.9947 78.3864 11.48C78.0691 11.956 77.7704 12.39 77.4904 12.782C77.2104 13.1647 76.9584 13.4867 76.7344 13.748C76.5197 14 76.3517 14.154 76.2304 14.21C76.0437 14.1727 75.8804 14.14 75.7404 14.112C75.6097 14.0933 75.4837 14.0653 75.3624 14.028C75.2504 13.9907 75.1337 13.9393 75.0124 13.874C74.9004 13.7993 74.7697 13.692 74.6204 13.552ZM89.2493 13.552C89.2213 13.2813 89.198 12.9127 89.1793 12.446C89.17 11.9793 89.1606 11.4567 89.1513 10.878C89.1513 10.2993 89.1513 9.68333 89.1513 9.03C89.1513 8.37667 89.1513 7.73267 89.1513 7.098C89.1513 6.46333 89.1513 5.85667 89.1513 5.278C89.1606 4.69933 89.1653 4.19067 89.1653 3.752C89.2773 3.612 89.4173 3.50467 89.5853 3.43C89.7533 3.346 89.9306 3.28533 90.1173 3.248C90.3133 3.21067 90.5093 3.192 90.7053 3.192C90.9013 3.18267 91.0833 3.192 91.2513 3.22C91.2793 3.472 91.298 3.794 91.3073 4.186C91.326 4.56867 91.3353 4.98867 91.3353 5.446C91.3446 5.894 91.3493 6.36533 91.3493 6.86C91.3493 7.34533 91.3446 7.812 91.3353 8.26C91.3353 8.69867 91.3353 9.10933 91.3353 9.492C91.3353 9.86533 91.3353 10.164 91.3353 10.388C91.5406 10.0707 91.7786 9.67867 92.0493 9.212C92.3293 8.74533 92.6233 8.25533 92.9313 7.742C93.2486 7.21933 93.5706 6.70133 93.8973 6.188C94.224 5.67467 94.5366 5.208 94.8353 4.788C95.1433 4.368 95.428 4.02267 95.6893 3.752C95.9506 3.48133 96.1746 3.32733 96.3613 3.29C96.4546 3.318 96.562 3.35067 96.6833 3.388C96.814 3.42533 96.9446 3.472 97.0753 3.528C97.206 3.584 97.3273 3.64933 97.4393 3.724C97.5606 3.78933 97.6586 3.86867 97.7333 3.962C97.7613 4.074 97.78 4.312 97.7893 4.676C97.808 5.03067 97.8126 5.45533 97.8033 5.95C97.8033 6.43533 97.7986 6.958 97.7893 7.518C97.7893 8.06867 97.78 8.60067 97.7613 9.114C97.752 9.62733 97.7426 10.0893 97.7333 10.5C97.7333 10.9013 97.7333 11.1953 97.7333 11.382C97.7333 11.7647 97.738 12.11 97.7473 12.418C97.7566 12.726 97.7753 13.0013 97.8033 13.244C97.7566 13.4027 97.6633 13.5427 97.5233 13.664C97.3833 13.776 97.2246 13.8647 97.0473 13.93C96.87 13.986 96.6926 14.014 96.5153 14.014C96.338 14.0233 96.1886 13.9953 96.0673 13.93C95.946 13.846 95.8433 13.72 95.7593 13.552C95.6846 13.3747 95.6193 13.1647 95.5633 12.922C95.5166 12.67 95.484 12.3947 95.4653 12.096C95.4466 11.7973 95.4373 11.48 95.4373 11.144C95.4373 10.668 95.4513 10.1313 95.4793 9.534C95.5166 8.93667 95.5586 8.20867 95.6053 7.35C95.3813 7.714 95.1246 8.12933 94.8353 8.596C94.5553 9.05333 94.2613 9.52933 93.9533 10.024C93.6453 10.5093 93.3326 10.9947 93.0153 11.48C92.698 11.956 92.3993 12.39 92.1193 12.782C91.8393 13.1647 91.5873 13.4867 91.3633 13.748C91.1486 14 90.9806 14.154 90.8593 14.21C90.6726 14.1727 90.5093 14.14 90.3693 14.112C90.2386 14.0933 90.1126 14.0653 89.9913 14.028C89.8793 13.9907 89.7626 13.9393 89.6413 13.874C89.5293 13.7993 89.3986 13.692 89.2493 13.552ZM99.7577 13.972C99.7017 13.5427 99.6784 13.076 99.6877 12.572C99.6971 12.0587 99.7297 11.5313 99.7857 10.99C99.8417 10.4487 99.9117 9.90267 99.9957 9.352C100.089 8.80133 100.187 8.27867 100.29 7.784C100.402 7.28933 100.518 6.832 100.64 6.412C100.761 5.992 100.878 5.63733 100.99 5.348L100.85 4.69C100.99 4.44733 101.176 4.23267 101.41 4.046C101.643 3.85 101.937 3.752 102.292 3.752C102.46 3.752 102.6 3.794 102.712 3.878C102.833 3.962 102.931 4.06467 103.006 4.186C103.08 4.298 103.136 4.41 103.174 4.522C103.211 4.634 103.239 4.718 103.258 4.774C103.295 4.96067 103.356 5.21733 103.44 5.544C103.524 5.86133 103.631 6.26733 103.762 6.762C103.902 7.24733 104.065 7.83067 104.252 8.512C104.448 9.184 104.681 9.968 104.952 10.864C105.045 10.584 105.148 10.2433 105.26 9.842C105.381 9.44067 105.502 9.016 105.624 8.568C105.754 8.11067 105.885 7.65333 106.016 7.196C106.146 6.72933 106.277 6.29067 106.408 5.88C106.538 5.46933 106.664 5.10533 106.786 4.788C106.907 4.47067 107.019 4.23267 107.122 4.074C107.206 4.018 107.336 3.95733 107.514 3.892C107.691 3.82667 107.878 3.78 108.074 3.752C108.279 3.71467 108.47 3.70533 108.648 3.724C108.834 3.74267 108.97 3.79867 109.054 3.892C109.24 4.18133 109.39 4.53133 109.502 4.942C109.623 5.35267 109.716 5.80533 109.782 6.3C109.847 6.78533 109.894 7.30333 109.922 7.854C109.959 8.39533 109.992 8.93667 110.02 9.478C110.057 10.1687 110.099 10.8407 110.146 11.494C110.192 12.138 110.267 12.7213 110.37 13.244C110.342 13.412 110.258 13.5847 110.118 13.762C109.987 13.93 109.824 14.0653 109.628 14.168C109.432 14.2707 109.222 14.3313 108.998 14.35C108.774 14.3687 108.559 14.308 108.354 14.168C108.195 13.5893 108.083 12.782 108.018 11.746C107.952 10.7007 107.882 9.39867 107.808 7.84C107.556 8.77333 107.262 9.744 106.926 10.752C106.59 11.76 106.226 12.7353 105.834 13.678C105.75 13.818 105.624 13.9253 105.456 14C105.297 14.0747 105.129 14.1213 104.952 14.14C104.774 14.168 104.606 14.168 104.448 14.14C104.289 14.1213 104.177 14.0793 104.112 14.014C103.925 13.65 103.743 13.2113 103.566 12.698C103.398 12.1847 103.23 11.6527 103.062 11.102C102.903 10.5513 102.749 10.0053 102.6 9.464C102.45 8.91333 102.31 8.42333 102.18 7.994C102.068 8.582 101.988 9.156 101.942 9.716C101.895 10.2667 101.862 10.7847 101.844 11.27C101.825 11.7553 101.816 12.194 101.816 12.586C101.816 12.978 101.816 13.3047 101.816 13.566C101.741 13.678 101.629 13.7993 101.48 13.93C101.34 14.0513 101.176 14.1447 100.99 14.21C100.812 14.2753 100.616 14.2987 100.402 14.28C100.196 14.2613 99.9817 14.1587 99.7577 13.972ZM112.42 12.81C112.728 12.67 113.017 12.4833 113.288 12.25C113.568 12.0073 113.82 11.7553 114.044 11.494C114.277 11.2233 114.482 10.9527 114.66 10.682C114.837 10.402 114.977 10.1547 115.08 9.94C114.762 9.86533 114.436 9.744 114.1 9.576C113.773 9.39867 113.474 9.17933 113.204 8.918C112.942 8.65667 112.723 8.358 112.546 8.022C112.378 7.686 112.294 7.31733 112.294 6.916C112.294 6.244 112.438 5.69333 112.728 5.264C113.017 4.83467 113.395 4.494 113.862 4.242C114.328 3.99 114.856 3.81733 115.444 3.724C116.032 3.63067 116.62 3.584 117.208 3.584C117.618 3.584 118.024 3.60267 118.426 3.64C118.827 3.67733 119.2 3.71933 119.546 3.766C119.788 3.878 119.998 4.032 120.176 4.228C120.362 4.424 120.465 4.68067 120.484 4.998C120.502 5.29667 120.516 5.768 120.526 6.412C120.535 7.056 120.54 7.77467 120.54 8.568C120.54 9.03467 120.535 9.51533 120.526 10.01C120.526 10.4953 120.521 10.9713 120.512 11.438C120.502 11.9047 120.488 12.3573 120.47 12.796C120.451 13.2253 120.428 13.6173 120.4 13.972C120.194 14.1773 119.933 14.28 119.616 14.28C119.466 14.28 119.289 14.2473 119.084 14.182C118.878 14.126 118.664 14.0233 118.44 13.874L118.524 9.87C118.318 9.91667 118.104 9.954 117.88 9.982C117.656 10.01 117.436 10.0333 117.222 10.052C117.063 10.4627 116.848 10.9107 116.578 11.396C116.307 11.872 115.999 12.3247 115.654 12.754C115.318 13.1833 114.958 13.5473 114.576 13.846C114.193 14.1447 113.815 14.308 113.442 14.336C113.339 14.3267 113.218 14.2847 113.078 14.21C112.938 14.1353 112.807 14.0327 112.686 13.902C112.564 13.7713 112.471 13.6173 112.406 13.44C112.35 13.2533 112.354 13.0433 112.42 12.81ZM114.31 6.916C114.31 7.168 114.375 7.38267 114.506 7.56C114.636 7.728 114.804 7.868 115.01 7.98C115.224 8.092 115.467 8.17133 115.738 8.218C116.008 8.26467 116.284 8.288 116.564 8.288C116.974 8.288 117.366 8.26467 117.74 8.218C118.122 8.17133 118.388 8.12933 118.538 8.092L118.454 5.544C118.211 5.488 117.964 5.446 117.712 5.418C117.46 5.38067 117.203 5.362 116.942 5.362C116.615 5.362 116.293 5.39 115.976 5.446C115.668 5.502 115.388 5.59067 115.136 5.712C114.893 5.83333 114.692 5.99667 114.534 6.202C114.384 6.398 114.31 6.636 114.31 6.916ZM123.303 8.386C122.883 8.28333 122.594 8.12 122.435 7.896C122.276 7.66267 122.197 7.38733 122.197 7.07C122.234 6.91133 122.281 6.762 122.337 6.622C122.402 6.482 122.491 6.36067 122.603 6.258C122.724 6.146 122.874 6.05733 123.051 5.992C123.238 5.92667 123.466 5.894 123.737 5.894C123.858 5.894 123.989 5.91733 124.129 5.964C124.269 6.01067 124.4 6.08533 124.521 6.188C124.642 6.29067 124.745 6.42133 124.829 6.58C124.913 6.73867 124.964 6.93467 124.983 7.168C124.927 7.41067 124.834 7.61133 124.703 7.77C124.572 7.92867 124.428 8.05467 124.269 8.148C124.11 8.232 123.942 8.29267 123.765 8.33C123.597 8.36733 123.443 8.386 123.303 8.386ZM122.197 12.95C122.234 12.7913 122.281 12.642 122.337 12.502C122.402 12.362 122.491 12.2407 122.603 12.138C122.724 12.026 122.874 11.9373 123.051 11.872C123.238 11.8067 123.466 11.774 123.737 11.774C123.858 11.774 123.989 11.7973 124.129 11.844C124.269 11.8907 124.4 11.9653 124.521 12.068C124.642 12.1707 124.745 12.3013 124.829 12.46C124.913 12.6187 124.964 12.8147 124.983 13.048C124.927 13.2907 124.834 13.4913 124.703 13.65C124.572 13.8087 124.428 13.93 124.269 14.014C124.11 14.1073 123.942 14.1727 123.765 14.21C123.597 14.2473 123.443 14.266 123.303 14.266C122.883 14.1633 122.594 14 122.435 13.776C122.276 13.5427 122.197 13.2673 122.197 12.95Z" fill="#9E9E9E"/>
</svg>
