<svg width="54" height="59" viewBox="0 0 54 59" fill="none" xmlns="http://www.w3.org/2000/svg">
<path d="M27.02 57.5727C41.3904 57.5727 53.04 45.9232 53.04 31.5527C53.04 17.1823 41.3904 5.53271 27.02 5.53271C12.6496 5.53271 1 17.1823 1 31.5527C1 45.9232 12.6496 57.5727 27.02 57.5727Z" fill="#F05A5C"/>
<path d="M15.42 16.2529C15.0199 17.7677 14.7456 19.313 14.6 20.8729C14.6 22.2829 14.82 24.4029 14.82 24.4029C13.9969 25.0691 13.3769 25.9525 13.03 26.9529C12.7508 28.3794 12.9808 29.8586 13.68 31.1329C14.2758 31.8641 15.0662 32.4119 15.96 32.7129C16.7018 34.7436 17.6856 36.6776 18.89 38.4729C20.1889 40.0891 21.7069 41.5161 23.4 42.7129C23.4 42.7129 23.07 45.7129 19.05 48.7129C16.2608 49.2981 13.5516 50.2146 10.98 51.4429C13.1404 52.9715 15.4023 54.3514 17.75 55.5729C21.4014 57.027 25.3257 57.6685 29.25 57.4529C33.3624 57.0607 37.3135 55.6555 40.75 53.3629C40.75 53.3629 37.29 51.4929 35.5 50.2429C33.71 48.9929 33 48.2429 32.93 47.4529C32.8031 46.4409 32.9162 45.4132 33.26 44.4529C33.26 44.4529 36.89 43.5729 37.75 42.4029C38.61 41.2329 41.07 37.7329 41.34 35.0629C41.5794 32.0994 41.6695 29.1256 41.61 26.1529C41.4661 22.1817 40.6408 18.2646 39.17 14.5729C38.17 12.1829 37.17 11.1529 35.58 10.5729C33.99 9.99294 18.3 10.2829 15.42 16.2529Z" fill="#F8C2A0"/>
<path d="M33 27.4128C33.5178 26.5886 33.7949 25.6361 33.8 24.6628C33.3907 23.5859 32.8784 22.5511 32.27 21.5728L25.46 20.3428C24.6732 21.2076 24.08 22.2304 23.72 23.3428C23.57 24.5028 23.88 26.8928 25.1 27.8328C25.9713 28.4169 26.9573 28.8082 27.992 28.9806C29.0267 29.1531 30.0863 29.1027 31.1 28.8328C31.4966 28.7377 31.8696 28.5627 32.1963 28.3185C32.523 28.0744 32.7964 27.7662 33 27.4128Z" fill="white"/>
<path d="M36.26 21.1831C36.26 20.5231 38.26 17.7031 39.88 17.7031C41.04 17.7031 42.56 22.7731 42.49 23.5731C42.42 24.3731 42.35 26.1831 40.24 25.8231C38.13 25.4631 36.18 22.4931 36.26 21.1831Z" fill="white"/>
<path d="M35.3 10.7929C36.38 6.57289 31.57 0.85289 29.86 1.00289C28.15 1.15289 28.46 5.66289 28.46 5.66289C28.46 5.66289 21.16 0.57289 16.04 2.09289C12.36 3.20289 19.45 6.28289 19.45 6.28289C13.22 6.47289 5.45001 8.76289 9.82001 11.2829C13.15 13.1629 19.75 11.5729 19.75 11.5729C19.75 11.5729 11.83 13.5029 11.83 16.0729C11.83 17.9329 20.74 16.4029 20.74 16.4029C20.74 16.4029 30.32 15.8329 33.35 13.9429C35.68 12.4929 35.3 10.7929 35.3 10.7929Z" fill="#FA428C"/>
<path d="M10.87 51.493C10.87 51.493 14.87 50.243 15.5 49.873C16.3615 49.5119 17.2556 49.2339 18.17 49.043C18.17 49.043 22.05 51.413 23.67 51.663C25.29 51.913 28.8 52.163 30.8 51.293C32.8 50.423 33.93 49.793 33.93 49.793C33.93 49.793 35.64 50.503 36.93 51.003C38.2816 51.7371 39.5607 52.5976 40.75 53.573C40.75 53.573 35.75 56.863 31.04 57.363C28.54 57.623 21.79 57.243 18.29 55.993C15.6116 54.8605 13.1122 53.3447 10.87 51.493Z" fill="#324265"/>
<path d="M25.34 43.3727C21.15 41.8227 17.89 38.5727 15.75 32.7627" stroke="black" stroke-linecap="round" stroke-linejoin="round"/>
<path d="M41.61 26.0928C41.69 27.8828 41.67 29.7428 41.61 31.6728C41.3 38.8228 38.81 43.6728 33.38 44.2528" stroke="black" stroke-linecap="round" stroke-linejoin="round"/>
<path d="M35.75 10.6729C38.08 11.7629 39.59 15.1629 40.19 17.8429" stroke="black" stroke-linecap="round" stroke-linejoin="round"/>
<path d="M14.75 23.913C14.4866 21.6179 14.6976 19.2932 15.37 17.083" stroke="black" stroke-linecap="round" stroke-linejoin="round"/>
<path d="M11.12 51.5728C11.12 51.5728 12.87 50.3228 18.28 49.0328C19.5598 48.3808 20.6901 47.4699 21.599 46.3578C22.508 45.2457 23.1758 43.9567 23.56 42.5728" stroke="black" stroke-linecap="round" stroke-linejoin="round"/>
<path d="M33.19 44.4131C33.19 44.4131 31.79 46.8831 34.26 49.7631C36.6377 50.8618 38.9306 52.1353 41.12 53.5731" stroke="black" stroke-linecap="round" stroke-linejoin="round"/>
<path d="M23.56 20.1831C23.56 20.1831 31.48 20.4931 32.73 22.0431" stroke="black" stroke-linecap="round" stroke-linejoin="round"/>
<path d="M36.21 20.8028C36.21 20.8028 38.49 17.3828 40.93 17.3828" stroke="black" stroke-linecap="round" stroke-linejoin="round"/>
<path d="M36.11 21.2729C36.11 21.2729 39.84 27.6129 40.22 29.8529C40.6 32.0929 36.86 31.3429 36.86 31.3429" stroke="black" stroke-linecap="round" stroke-linejoin="round"/>
<path d="M26.67 34.4727C26.67 34.4727 28.21 36.9027 32.57 36.9627" stroke="black" stroke-linecap="round" stroke-linejoin="round"/>
<path d="M16.11 23.9131C16.11 23.9131 12.69 24.5331 13 28.9131C13.31 33.2931 17 32.9131 17 32.9131" stroke="black" stroke-linecap="round" stroke-linejoin="round"/>
<path d="M35.37 10.8627C36.46 6.6727 31.64 0.9227 29.93 1.0727C28.22 1.2227 28.53 5.7327 28.53 5.7327C28.53 5.7327 21.23 0.5727 16.11 2.1627C12.44 3.2727 19.53 6.3527 19.53 6.3527C13.3 6.5427 5.53 8.8427 9.9 11.3527C13.23 13.2527 19.84 11.6627 19.84 11.6627C19.84 11.6627 11.92 13.5927 11.92 16.1627C11.92 18.0227 20.83 16.4927 20.83 16.4927C20.83 16.4927 30.41 15.9227 33.44 14.0327C35.75 12.5727 35.37 10.8627 35.37 10.8627Z" stroke="black" stroke-linecap="round" stroke-linejoin="round"/>
<path d="M25.89 20.3428C24.03 20.9628 22.71 24.7228 24.8 27.3428C25.8091 28.3544 27.1462 28.9727 28.5706 29.0863C29.995 29.2 31.4132 28.8016 32.57 27.9628C34.47 26.4028 33.66 23.3028 32.57 22.0628" stroke="black" stroke-linecap="round" stroke-linejoin="round"/>
<path d="M40.04 17.6929C41.0326 18.8097 41.7606 20.1359 42.17 21.5729C42.7 23.7429 42.52 25.4529 41.46 25.7629C37.91 26.7629 36.15 20.9429 36.15 20.9429" stroke="black" stroke-linecap="round" stroke-linejoin="round"/>
<path d="M10.39 11.7529C6.01054 15.4927 2.99664 20.5806 1.82125 26.2184C0.645851 31.8561 1.37548 37.7245 3.89565 42.9028C6.41581 48.081 10.5839 52.276 15.7458 54.8295C20.9077 57.3829 26.7713 58.1504 32.4165 57.0113C38.0617 55.8722 43.1689 52.8912 46.9368 48.5359C50.7047 44.1806 52.92 38.6976 53.235 32.9473C53.5501 27.197 51.947 21.5048 48.6775 16.7639C45.408 12.0231 40.657 8.50189 35.17 6.75293" stroke="black" stroke-linecap="round" stroke-linejoin="round"/>
<path d="M28.19 23.7031L28.12 24.8131" stroke="black" stroke-linecap="round" stroke-linejoin="round"/>
<path d="M28.74 24.293H27.73" stroke="black" stroke-linecap="round" stroke-linejoin="round"/>
<path d="M28.51 23.8931L27.76 24.6631" stroke="black" stroke-linecap="round" stroke-linejoin="round"/>
<path d="M28.57 24.7331L27.76 23.8931" stroke="black" stroke-linecap="round" stroke-linejoin="round"/>
<path d="M39.15 21.6528L39.08 22.7628" stroke="black" stroke-linecap="round" stroke-linejoin="round"/>
<path d="M39.71 22.2427H38.69" stroke="black" stroke-linecap="round" stroke-linejoin="round"/>
<path d="M39.47 21.8428L38.73 22.6228" stroke="black" stroke-linecap="round" stroke-linejoin="round"/>
<path d="M39.54 22.6828L38.73 21.8428" stroke="black" stroke-linecap="round" stroke-linejoin="round"/>
<path d="M18.28 49.0728C20.5431 50.6682 23.1907 51.6313 25.95 51.8628C28.8647 51.9801 31.751 51.2507 34.26 49.7628" stroke="black" stroke-linecap="round" stroke-linejoin="round"/>
</svg>
