<svg width="25" height="27" viewBox="0 0 25 27" fill="none" xmlns="http://www.w3.org/2000/svg">
<path d="M25 12.3657C25 15.7657 8.32999 26.3657 4.32999 26.3657C0.329988 26.3657 -1.00001 1.69572 2.32999 1.03572C5.65999 0.375722 25 9.03572 25 12.3657Z" fill="#D3BB39"/>
<path d="M25 11.3657C25 14.7657 8.32999 25.3657 4.32999 25.3657C0.329988 25.3657 -1.00001 0.695723 2.32999 0.0357226C5.65999 -0.624278 25 8.03572 25 11.3657Z" fill="#FFE23F"/>
<path d="M4.32999 24.8657C4.74166 24.8657 5.37353 24.7244 6.19993 24.4322C7.01397 24.1444 7.9743 23.726 9.02624 23.2078C11.1294 22.1719 13.5699 20.7516 15.8899 19.2232C18.2112 17.6939 20.3974 16.0658 21.9972 14.617C22.7982 13.8916 23.4395 13.2225 23.8766 12.6425C24.3305 12.0402 24.5 11.6164 24.5 11.3657C24.5 11.2763 24.4661 11.1349 24.3492 10.9329C24.2338 10.7334 24.0534 10.5025 23.8028 10.2431C23.3015 9.72406 22.5645 9.13726 21.6447 8.51106C19.8087 7.26108 17.3122 5.89947 14.6989 4.65596C12.0875 3.41335 9.37623 2.29662 7.11692 1.53299C5.98658 1.15095 4.97793 0.860212 4.15621 0.68556C3.31219 0.506166 2.73439 0.465296 2.42719 0.526182C2.37351 0.536823 2.27824 0.579964 2.15135 0.739815C2.02392 0.900356 1.89163 1.14605 1.7644 1.48798C1.51024 2.17102 1.31043 3.14329 1.17176 4.33C0.895291 6.69608 0.8733 9.80943 1.08013 12.915C1.28704 16.0217 1.7209 19.0898 2.344 21.3689C2.65663 22.5123 3.00886 23.4265 3.38577 24.0438C3.7791 24.688 4.10748 24.8657 4.32999 24.8657Z" stroke="#D3BB39" stroke-linecap="round" stroke-linejoin="round"/>
</svg>
