<svg width="54" height="60" viewBox="0 0 54 60" fill="none" xmlns="http://www.w3.org/2000/svg">
<path d="M27.0129 58.9503C41.3453 58.9503 52.964 47.3317 52.964 32.9993C52.964 18.667 41.3453 7.04834 27.0129 7.04834C12.6806 7.04834 1.06201 18.667 1.06201 32.9993C1.06201 47.3317 12.6806 58.9503 27.0129 58.9503Z" fill="#6AFE7C"/>
<path d="M6.37793 49.3925C6.37793 49.3925 8.624 46.6625 8.927 46.0545C9.231 45.4475 11.416 42.2905 11.416 42.2905C11.416 42.2905 26.287 50.7285 25.255 52.3065C24.224 53.8845 23.252 56.0096 23.252 56.0096L22.22 58.7395C22.22 58.7395 16.393 57.7085 13.54 55.7045C10.688 53.7025 6.37793 49.3925 6.37793 49.3925Z" fill="#3A3A3D"/>
<path d="M46.8631 21.9576C46.8631 21.9576 50.445 19.1656 50.87 18.0726C51.295 16.9796 51.957 14.1266 49.636 13.5806C47.915 13.1756 45.65 15.1586 45.65 15.1586C45.65 15.1586 41.34 18.4366 40.37 21.1676C40.37 21.1676 37.82 20.0146 36.546 20.4996C36.546 20.4996 35.13 18.6386 33.552 18.1526C31.974 17.6666 29.828 17.5056 29.828 17.5056L34.239 9.5136C34.239 9.5136 35.615 8.23861 36.343 6.66061C37.071 5.08261 38.103 1.42061 35.068 1.23861C32.034 1.05661 31.183 2.57358 30.031 3.60558C28.878 4.63758 27.683 5.50659 26.469 7.75259C25.255 9.99859 23.313 12.9116 22.463 14.4296C21.613 15.9476 20.2171 19.2856 20.2171 19.2856C20.2171 19.2856 16.332 20.2566 15.422 21.2276C14.512 22.1986 12.205 25.1126 12.267 27.6616C12.327 30.2116 12.751 35.7956 12.751 35.7956C12.751 35.7956 13.055 37.3136 12.872 38.5256C12.69 39.7406 11.78 41.5006 11.78 41.5006C11.78 41.5006 10.748 43.6866 12.386 45.3856C14.024 47.0846 16.635 50.4856 19.731 51.4556C22.827 52.4256 24.162 53.3366 25.254 52.3056C25.254 52.3056 26.832 49.4516 28.229 48.4206C29.625 47.3896 31.992 46.6606 33.449 45.9926C34.906 45.3246 38.002 42.7156 38.669 41.4396C39.337 40.1656 41.219 37.1916 41.947 34.6416C42.675 32.0916 46.8631 21.9576 46.8631 21.9576Z" fill="#F8C2A0"/>
<path d="M49.405 20.1703C51.629 23.9963 52.901 28.4433 52.901 33.1873C52.901 47.5193 41.2829 59.1383 26.9509 59.1383C12.6189 59.1383 1 47.5193 1 33.1873C1 18.8553 12.6189 7.2373 26.9509 7.2373" stroke="black" stroke-miterlimit="10" stroke-linecap="round" stroke-linejoin="round"/>
<path d="M34.952 8.49365C38.814 9.74365 42.279 11.8757 45.111 14.6507" stroke="black" stroke-miterlimit="10" stroke-linecap="round" stroke-linejoin="round"/>
<path d="M6.60095 49.0287C6.60095 49.0287 13.512 40.7437 13.075 37.5367C12.59 33.9747 11.619 28.6347 12.752 25.3967C14.14 21.4337 17.932 18.5987 22.626 19.7307C27.32 20.8627 33.719 26.6807 32.823 28.4717C32.013 30.0897 22.787 27.0147 22.787 27.0147" stroke="black" stroke-miterlimit="10" stroke-linecap="round" stroke-linejoin="round"/>
<path d="M21.6539 25.8823C21.6539 25.8823 24.6689 28.8033 24.9299 33.1253C25.1729 37.1313 23.838 39.8023 23.838 39.8023" stroke="black" stroke-miterlimit="10" stroke-linecap="round" stroke-linejoin="round"/>
<path d="M20.197 19.0836C20.197 19.0836 23.08 12.4626 27.671 6.35057C31.34 1.46457 34.102 0.401547 35.817 1.27855C37.557 2.16855 37.617 6.44855 33.429 10.0596C31.244 13.8226 28.614 19.8926 28.614 19.8926" stroke="black" stroke-miterlimit="10" stroke-linecap="round" stroke-linejoin="round"/>
<path d="M36.626 20.4594C38.285 20.3374 41.0629 21.3214 41.8459 22.8874C42.8169 24.8294 41.8209 28.9294 40.4299 31.7094C38.0019 36.5654 35.762 37.8624 34.28 37.6984C32.823 37.5364 33.6329 33.6514 33.6329 33.6514" stroke="black" stroke-miterlimit="10" stroke-linecap="round" stroke-linejoin="round"/>
<path d="M29.868 17.5865C29.868 17.5865 35.0879 17.4655 36.5449 20.7025C37.6419 23.1365 37.1789 27.0435 35.7359 29.9295C33.1449 35.1095 30.525 36.8025 29.26 36.2425C27.804 35.5955 28.775 30.2535 29.26 28.7975" stroke="black" stroke-miterlimit="10" stroke-linecap="round" stroke-linejoin="round"/>
<path d="M40.2679 21.1875C40.2679 21.1875 41.652 18.5835 43.83 16.4935C46.091 14.3225 48.9159 12.9535 49.8989 13.5795C51.6799 14.7125 52.085 18.1116 47.009 22.0006C45.299 24.7796 44.42 27.9936 44.153 28.7946C43.506 30.7356 41.0129 39.6686 36.3829 44.0096C33.7939 46.4376 30.8369 46.7675 29.7469 47.4075C28.4779 48.1535 27.004 49.7255 25.782 51.2025C24.354 52.9305 22.302 57.9295 22.302 57.9295" stroke="black" stroke-miterlimit="10" stroke-linecap="round" stroke-linejoin="round"/>
<path d="M30.556 24.4254L31.041 23.1304" stroke="black" stroke-miterlimit="10" stroke-linecap="round" stroke-linejoin="round"/>
<path d="M25.6999 52.1035C25.8609 53.7225 20.52 52.7515 15.665 48.8675C13.25 46.9355 10.971 44.1735 11.618 42.2305" stroke="black" stroke-miterlimit="10" stroke-linecap="round" stroke-linejoin="round"/>
</svg>
