<svg width="421" height="258" viewBox="0 0 421 258" fill="none" xmlns="http://www.w3.org/2000/svg">
<path d="M322.7 134.189C322.127 134.669 321.514 135.1 320.87 135.479C320.48 135.609 319.5 134.889 319.11 134.169C318.539 132.96 318.2 131.654 318.11 130.319C318.014 128.477 317.796 126.643 317.46 124.829C317.26 124.049 314.98 118.099 314.98 118.099L312.04 110.719C312.04 110.719 312.76 107.059 313.04 105.429C313.32 103.799 314.35 96.5493 314.35 95.1093C314.35 93.6693 314.87 86.9493 314.87 85.6393C314.87 84.3293 314.22 76.9493 313.3 74.9293L320.16 72.3193C320.16 72.3193 323.95 78.4593 324.8 79.6993C325.65 80.9393 329.82 88.3393 330.5 89.4793C331.18 90.6193 334.68 97.3193 335.5 99.0193C336.512 101.495 337.383 104.026 338.11 106.599C338.461 108.388 338.918 110.155 339.48 111.889C340.471 113.754 341.629 115.524 342.94 117.179C343.85 118.289 345.03 120.509 344.94 121.559C344.978 122.305 344.801 123.046 344.43 123.695C344.06 124.344 343.512 124.873 342.85 125.219C340.79 126.479 322.7 134.189 322.7 134.189Z" fill="#FF0000"/>
<path d="M293.4 68.0791C293.4 68.0791 289.87 69.1591 288.06 68.6691C286.25 68.1791 285.71 67.2491 285.61 66.7591C285.585 65.828 285.618 64.8961 285.71 63.9691C285.71 63.9691 281.4 64.8991 279.78 64.6591C278.16 64.4191 275.03 64.2191 273.9 62.3591C273.331 61.4671 272.967 60.4605 272.832 59.4113C272.697 58.362 272.795 57.296 273.12 56.2891C273.748 54.2599 274.544 52.2864 275.5 50.3891C275.5 50.3891 272.07 50.3891 270.85 49.5091C269.63 48.6291 268.25 48.4291 267.62 44.9991C266.99 41.5691 268.91 39.2191 269.2 38.4791C269.49 37.7391 272.38 35.2491 272.38 35.2491C272.38 35.2491 266.89 34.9591 265.96 34.2491C265.03 33.5391 262.48 33.3691 261.36 30.7691C260.96 30.0509 260.85 29.2073 261.05 28.4102C261.251 27.6132 261.748 26.9226 262.44 26.4791C264.248 25.2354 266.207 24.2272 268.27 23.4791C269.69 23.0891 274.27 22.0091 274.27 22.0091C274.27 22.0091 271.5 19.5791 271.02 17.4791C270.769 16.478 270.848 15.4228 271.244 14.4699C271.64 13.517 272.333 12.7172 273.22 12.1891C275.13 11.0591 280.32 10.0791 280.32 10.0791L283.85 9.53914C283.85 9.53914 282.92 6.30914 283.26 5.22914C283.6 4.14914 284.05 2.47914 287.67 2.77914C290.028 3.08004 292.226 4.13191 293.94 5.77914C295.013 6.73526 296.016 7.76797 296.94 8.86914C298.612 8.32279 300.333 7.94426 302.08 7.73914C304.08 7.63914 306.49 7.93914 307.76 9.30914C309.03 10.6791 309.38 11.9591 308.76 13.2291C308.37 14.036 307.819 14.7542 307.14 15.3391C307.14 15.3391 310.86 16.6591 311.79 17.1991C313.247 18.052 314.622 19.0361 315.9 20.1391C317.071 21.3176 317.838 22.8372 318.09 24.4791C318.19 26.4791 318.43 28.3991 317.85 29.8191C317.85 29.8191 315.5 53.8191 314.23 56.0291C312.96 58.2391 293.4 68.0791 293.4 68.0791Z" fill="#3A3A3D"/>
<path d="M321.26 139.679C321.393 140.938 321.634 142.182 321.98 143.399C322.618 144.753 323.385 146.043 324.27 147.249L321.59 159.139L315.5 182.979L313.02 192.649L311.26 196.649C311.26 196.649 307.34 194.169 304.99 192.339C302.64 190.509 287.99 178.339 287.99 178.339L280.57 172.479L276.72 169.929C276.72 169.929 275.28 170.059 273.91 172.799C273.91 172.799 272.08 175.669 272.6 177.309C273.086 177.909 273.611 178.477 274.17 179.009C274.95 179.729 290.82 192.859 290.82 192.859L304.82 204.029C304.82 204.029 309.26 207.689 310.37 208.279C311.011 208.724 311.78 208.945 312.559 208.909C313.338 208.873 314.083 208.581 314.68 208.079C316.25 206.709 318.34 200.079 318.34 200.079L325.07 181.079C325.07 181.079 328.92 168.669 329.32 167.949C329.72 167.229 332.72 156.449 332.72 155.799C332.72 155.149 334.48 146.259 334.48 146.259L335.33 142.669L341.08 139.989L354.08 134.989C354.08 134.989 366.08 131.529 369.23 130.739C372.38 129.949 384.5 127.139 384.5 127.139L389.33 126.139L389.98 139.719L390.83 153.959L391.35 164.279C392.065 164.512 392.824 164.58 393.57 164.479L393.5 163.479C394.194 163.053 394.94 162.717 395.72 162.479C396.694 162.342 397.676 162.275 398.66 162.279V162.929C398.66 162.929 399.44 162.729 399.57 162.469C399.701 161.65 399.745 160.818 399.7 159.989C399.7 158.989 399.05 145.989 399.05 145.989L398.33 134.169L397.5 121.259C397.5 121.259 396.85 117.599 395.08 116.819C393.648 116.762 392.216 116.917 390.83 117.279C388.74 117.869 382.27 118.979 382.27 118.979C382.27 118.979 371.62 121.399 370.97 121.529C370.32 121.659 363.07 123.359 361.57 123.879C360.07 124.399 352.43 126.559 352.43 126.559L348.12 127.929C347.034 128.3 345.921 128.584 344.79 128.779L344.07 127.929C344.07 127.929 339.43 128.929 337.54 129.559C334.258 130.836 331.09 132.389 328.07 134.199C325.666 135.852 323.389 137.684 321.26 139.679Z" fill="#682527"/>
<path d="M271.5 165.869C271.58 165.195 271.393 164.517 270.98 163.979C270.26 162.869 268.3 159.469 268.3 159.469C267.29 159.343 266.266 159.524 265.36 159.989C263.73 160.769 258.89 162.929 256.74 164.689C254.59 166.449 251.74 168.409 251.06 169.589C251.06 169.589 248.84 172.589 248.19 173.379C247.54 174.169 247.34 174.949 247.93 175.079C249.189 175.205 250.457 175.228 251.72 175.149C252.72 175.079 258.12 174.149 259.82 173.839C261.862 173.378 263.868 172.766 265.82 172.009C266.712 171.544 267.58 171.033 268.42 170.479C268.42 170.479 267.42 169.479 267.31 169.169C267.2 168.859 267.31 167.929 268.55 167.169C269.79 166.409 270.58 165.669 271.5 165.869Z" fill="#3A3A3D"/>
<path d="M275.87 170.109L271.5 165.869C270.883 165.914 270.283 166.091 269.74 166.389C269.02 166.849 266.74 167.759 267.32 169.129L270.19 171.939L273.19 174.359C273.519 173.471 273.934 172.617 274.43 171.809C274.82 171.419 275.87 170.109 275.87 170.109Z" fill="white"/>
<path d="M393.04 173.309C393.852 172.328 394.822 171.49 395.91 170.829C397.098 170.026 398.341 169.307 399.63 168.679C400.35 168.479 404.53 167.179 405.12 166.919C407.643 166.159 410.221 165.591 412.83 165.219C414.07 165.219 419.17 165.019 420.15 165.679C421.13 166.339 418.78 168.229 418.78 168.229L413.49 172.229L407.09 176.609L401.02 180.329L396.32 183.009C396.32 183.009 394.17 184.009 393.12 183.599C392.908 183.445 392.741 183.236 392.637 182.995C392.533 182.754 392.496 182.489 392.53 182.229C392.58 181.279 392.19 175.529 393.04 173.309Z" fill="#3A3A3D"/>
<path d="M393.5 163.479C393.977 163.031 394.563 162.717 395.2 162.569C395.98 162.499 398.34 161.719 398.66 162.309L398.86 169.099L396.31 170.669L393.5 172.669V163.479Z" fill="white"/>
<path d="M321.39 134.189C322.356 132.972 323.527 131.933 324.85 131.119C326.55 130.269 332.69 127.119 334.52 126.609C334.94 127.841 335.244 129.11 335.43 130.399C335.43 130.399 331.64 132.099 329.49 133.339C327.225 134.751 325.063 136.322 323.02 138.039L321.26 139.669L321.39 134.189Z" fill="#5D6F5B"/>
<path d="M340.13 124.789L342.29 124.399L344.05 127.929L341.57 128.579C341.508 127.901 341.378 127.231 341.18 126.579C340.882 125.953 340.531 125.354 340.13 124.789Z" fill="#5D6F5B"/>
<path d="M334.5 126.679C335.397 126.199 336.338 125.807 337.31 125.509C338.55 125.179 340.18 124.789 340.18 124.789C340.693 125.573 341.131 126.404 341.49 127.269L341.62 128.579C340.627 128.764 339.646 129.005 338.68 129.299C337.5 129.689 335.48 130.409 335.48 130.409C335.48 130.409 334.78 127.479 334.5 126.679Z" fill="#FBF86E"/>
<path d="M293.7 58.2793C293.069 57.6217 292.585 56.8378 292.28 55.9793C291.239 56.1295 290.181 56.1295 289.14 55.9793C288.451 55.8797 287.803 55.5876 287.273 55.1365C286.742 54.6854 286.349 54.0936 286.14 53.4293C285.884 52.8623 285.781 52.2383 285.841 51.6191C285.9 50.9999 286.121 50.4071 286.48 49.8993C287.208 48.9666 288.047 48.1269 288.98 47.3993C288.222 45.798 287.632 44.1223 287.22 42.3993C286.98 40.6393 286.44 36.9593 286.98 34.2693C287.326 32.123 288.039 30.0525 289.09 28.1493C290.028 26.7956 291.13 25.5629 292.37 24.4793C293.146 24.5336 293.922 24.3818 294.62 24.0393C295.143 23.7816 295.576 23.3734 295.865 22.8673C296.153 22.3612 296.284 21.7803 296.24 21.1993C297.021 21.6913 297.84 22.1194 298.69 22.4793C299.62 22.8193 300.99 23.0693 301.69 22.5793C302.032 22.3511 302.27 21.9973 302.352 21.5947C302.434 21.1922 302.355 20.7734 302.13 20.4293C303.227 20.354 304.33 20.4212 305.41 20.6293C307.345 21.091 309.152 21.9793 310.7 23.2293C311.53 24.0093 313.79 26.7593 313.93 26.9493C314.07 27.1393 320.39 37.4793 320.39 37.4793C320.381 38.5243 320.233 39.5634 319.95 40.5693C319.95 40.5693 320.78 42.9193 321.22 44.2893C321.594 45.6684 321.891 47.0672 322.11 48.4793C320.623 48.001 319.05 47.8509 317.5 48.0393C317.35 48.235 317.158 48.3943 316.938 48.5051C316.718 48.616 316.476 48.6755 316.23 48.6793C315.611 48.6633 315.002 48.5149 314.445 48.2441C313.888 47.9733 313.395 47.5863 313 47.1093C312.126 46.7794 311.191 46.6463 310.26 46.7193C309.792 46.7872 309.354 46.9898 308.999 47.3022C308.643 47.6147 308.387 48.0236 308.26 48.4793L308.06 48.7293C308.06 48.7293 305.99 48.4793 304.72 48.4793C303.103 48.4575 301.523 48.9553 300.21 49.8993C299.791 50.2607 299.497 50.7466 299.373 51.2862C299.249 51.8258 299.301 52.3909 299.52 52.8993C298.568 52.8924 297.617 52.9727 296.68 53.1393C296.138 53.1921 295.623 53.4005 295.198 53.7395C294.772 54.0784 294.453 54.5333 294.28 55.0493C294.423 56.0427 294.738 57.0036 295.21 57.8893L293.7 58.2793Z" fill="#F8C2A0"/>
<path d="M300.5 43.8291C299.567 42.7971 298.834 41.5999 298.34 40.2991C297.697 37.9083 297.697 35.3899 298.34 32.9991C298.69 31.9232 299.353 30.9759 300.243 30.2779C301.134 29.5798 302.212 29.1625 303.34 29.0791C305.1 29.0791 306.28 29.6191 307.65 31.6791C308.811 33.4788 309.499 35.5426 309.65 37.6791C309.65 38.8591 309.36 41.7991 309.36 41.7991C307.917 41.75 306.473 41.8472 305.05 42.0891C303.467 42.4773 301.938 43.0619 300.5 43.8291Z" fill="white"/>
<path d="M312.5 39.1792C311.823 37.791 311.313 36.3274 310.98 34.8192C310.83 33.3492 309.98 31.1492 310.98 29.1392C311.221 28.46 311.689 27.8846 312.304 27.5095C312.92 27.1344 313.646 26.9825 314.36 27.0792C315.44 27.0792 317.36 28.4992 318.13 29.9692C318.971 31.4514 319.581 33.0531 319.94 34.7192C320.036 35.6472 320.186 36.5688 320.39 37.4792C319.384 37.6558 318.399 37.9339 317.45 38.3092C316.203 38.9186 315.102 39.7882 314.22 40.8592L312.5 39.1792Z" fill="white"/>
<path d="M296 72.4793C295.147 72.5905 294.279 72.4552 293.5 72.0893C293.121 71.8341 292.808 71.4925 292.587 71.0926C292.367 70.6926 292.244 70.2459 292.23 69.7893C292.23 69.0493 293.7 66.7893 293.7 66.7893C292.764 66.5739 291.87 66.2093 291.05 65.7093C290.51 65.1693 289.05 64.0393 289.05 62.7693C289.236 61.5704 289.886 60.4929 290.86 59.7693C292.276 59.0944 293.732 58.5067 295.22 58.0093C295.22 58.0093 294.22 56.2493 294.39 55.3593C294.56 54.4693 294.83 53.4493 296.15 53.2493C297.47 53.0493 299.5 52.8893 299.5 52.8893C299.35 52.504 299.282 52.0919 299.299 51.6789C299.317 51.2659 299.419 50.8609 299.6 50.4893C300.038 49.9271 300.585 49.4598 301.209 49.1159C301.833 48.7721 302.521 48.5589 303.23 48.4893C304.36 48.4893 308.09 48.8093 308.09 48.8093C308.301 48.1138 308.751 47.5152 309.36 47.1193C309.933 46.8731 310.551 46.7461 311.175 46.7461C311.799 46.7461 312.417 46.8731 312.99 47.1193C313.494 47.7074 314.109 48.19 314.8 48.5393C315.251 48.721 315.745 48.7705 316.223 48.6819C316.701 48.5934 317.144 48.3705 317.5 48.0393C318.661 47.9589 319.826 47.9924 320.98 48.1393C322.273 48.3405 323.471 48.938 324.41 49.8493C325.05 50.6293 325.54 51.1693 325.14 52.3493C324.801 53.1713 324.218 53.8694 323.47 54.3493C324.031 55.0848 324.492 55.8919 324.84 56.7493C324.99 57.4893 325.43 59.3493 325.43 59.3493L320.5 61.8093C319.81 62.1493 312.86 64.3093 312.17 64.4093C311.48 64.5093 306.54 66.1193 305.07 66.6193C303.185 67.3677 301.379 68.3023 299.68 69.4093C298.361 70.3168 297.129 71.3445 296 72.4793Z" fill="#3A3A3D"/>
<path d="M325.78 17.0789L325.29 15.8989C324.134 16.2117 322.953 16.4258 321.76 16.5389C320.44 16.5389 319.41 16.9289 318.14 16.1489C317.675 15.854 317.297 15.4394 317.048 14.9485C316.798 14.4576 316.685 13.9086 316.72 13.3589C316.772 13.0363 316.887 12.7272 317.058 12.4492C317.23 12.1711 317.455 11.9298 317.72 11.7389C318.11 11.4989 319.63 10.6089 319.63 10.6089C318.856 9.54486 318.144 8.43629 317.5 7.28893C317.21 6.55893 316.67 5.81893 317.21 4.83893C317.75 3.85893 319.9 4.19893 319.9 4.19893C319.9 4.19893 320.83 2.13893 322.01 1.84893C322.427 1.8015 322.85 1.84683 323.247 1.98167C323.645 2.11651 324.008 2.33753 324.31 2.62893C324.31 2.62893 325.78 1.47893 326.5 1.10893C327.22 0.738929 327.92 1.49893 328.02 1.83893C328.15 2.18748 328.314 2.52242 328.51 2.83893C328.51 2.83893 330.13 1.26893 331.2 1.56893C331.618 1.7274 331.978 2.00941 332.231 2.37741C332.485 2.74542 332.621 3.18196 332.62 3.62893C332.62 4.16893 333.26 8.62893 333.11 9.55893C332.948 10.5819 332.687 11.5867 332.33 12.5589C332.107 12.8137 331.843 13.0299 331.55 13.1989L331.99 14.9089C331.99 14.9089 329.2 15.4989 328.71 15.4989C327.577 15.6634 326.54 16.2231 325.78 17.0789Z" fill="#F8C2A0"/>
<path d="M292.39 28.919C293.768 26.8893 295.867 25.4594 298.26 24.919C300.98 24.659 300.6 25.919 299.87 26.649C298.097 28.1198 296.23 29.4727 294.28 30.699C293.62 31.139 291.87 29.669 292.39 28.919Z" fill="#3A3A3D"/>
<path d="M306.17 25.799C307.658 25.7475 309.122 25.4079 310.48 24.799C313.41 23.699 314.19 22.409 313.39 22.089C311.024 21.6534 308.581 21.9536 306.39 22.949C305.5 23.479 305.5 25.779 306.17 25.799Z" fill="#3A3A3D"/>
<path d="M306.19 51.479C304.656 52.0824 303.194 52.8538 301.83 53.779C300.02 55.099 298.74 56.469 299.14 57.209C299.54 57.949 300.95 56.869 301.44 56.429C301.93 55.989 304.13 53.639 304.13 53.639L306.19 51.479Z" fill="#DA4F4D"/>
<path d="M310.01 54.6491C309.756 54.8236 309.465 54.937 309.159 54.9804C308.854 55.0237 308.543 54.9959 308.25 54.8991C307.5 54.4791 308.5 53.4791 308.78 53.0891C309.06 52.6991 310.84 50.7891 310.84 50.7891C310.84 50.7891 313.93 51.3791 315.2 52.6991C314.86 53.4601 314.416 54.1703 313.88 54.8091C313.34 55.2491 312.95 56.0391 312.17 55.8091C312.077 55.8011 311.989 55.7689 311.912 55.7158C311.836 55.6627 311.775 55.5905 311.736 55.5064C311.696 55.4224 311.68 55.3294 311.687 55.2368C311.695 55.1443 311.727 55.0554 311.78 54.9791C311.78 54.9791 310.16 58.3091 309.58 59.0891C309 59.8691 307.71 61.7591 306.87 61.4791C306.03 61.1991 306.87 59.6191 307.11 59.1791C307.35 58.7391 310.01 54.6491 310.01 54.6491Z" fill="#6AFE7C"/>
<path d="M301.29 64.1589C300.7 64.0789 301.09 62.7889 302.02 62.3489C302.95 61.9089 303.49 62.0989 303.39 62.5489C303.29 62.9989 302.02 64.2589 301.29 64.1589Z" fill="#6AFE7C"/>
<path d="M286.97 126.809L285.6 124.649C284.799 124.783 284.026 125.046 283.31 125.429C282.531 125.758 281.844 126.273 281.31 126.929L281.83 129.149L282.74 129.539C283.823 128.201 285.305 127.245 286.97 126.809Z" fill="#FF0000"/>
<path d="M293.44 131.709C293.855 130.592 294.14 129.431 294.29 128.249C294.22 127.399 293.38 126.249 291.55 126.879C289.72 127.509 287.7 128.379 287.7 128.379L286.98 126.809C285.349 127.338 283.884 128.282 282.73 129.549C282.73 129.549 285.41 130.659 286.39 130.919C287.37 131.179 291.75 132.089 291.75 132.089L292.47 132.289L293.44 131.709Z" fill="#F8C2A0"/>
<path d="M326.5 19.4792L325.73 17.1292C326.489 16.2554 327.529 15.6722 328.67 15.4792C330.4 15.2692 331.9 15.1392 331.9 15.1392L332.9 18.0092C331.873 17.9046 330.835 17.9721 329.83 18.2092C328.682 18.5263 327.567 18.9516 326.5 19.4792Z" fill="#FF0000"/>
<path d="M325.44 20.6093C326.01 19.7899 326.805 19.1541 327.73 18.7793C329.36 18.0593 332.11 17.6093 333.48 18.1293C333.48 18.1293 337.73 26.3593 338.31 27.7293C338.89 29.0993 341.9 37.8493 342.23 38.6393C342.56 39.4293 345.09 47.4093 345.09 47.4093C345.871 49.4405 346.382 51.5653 346.61 53.7293C346.61 53.7293 347.25 56.6693 346.61 57.7993C345.97 58.9293 345.24 60.9793 343.13 62.0093C341.02 63.0393 340.78 63.4793 339.36 64.0093C337.94 64.5393 333.19 66.5093 333.19 66.5093L327.36 69.1993L323.29 71.1093C323.29 71.1093 324.76 76.8893 325 77.8693C325.199 78.8609 325.346 79.8623 325.44 80.8693L321.5 74.4793L320.11 72.3193L313.25 74.9293C313.682 76.4023 314.016 77.9022 314.25 79.4193C314.25 80.2993 315.25 84.9093 314.64 89.6093L313.32 102.739L312.24 109.839C311.511 112.712 310.596 115.535 309.5 118.289C308.28 120.889 305.19 126.229 304.26 127.009C303.33 127.789 298.92 132.399 295.26 133.009C291.6 133.619 294.43 131.199 295.16 130.609C296.946 128.839 298.601 126.941 300.11 124.929C300.7 123.929 303.05 118.559 303.11 116.549C303.17 114.539 304.29 109.009 304.11 104.989C303.993 102.571 304.06 100.147 304.31 97.7393L303.97 94.2093C303.485 92.0924 302.847 90.0136 302.06 87.9893C301.522 86.8973 301.064 85.7676 300.69 84.6093C300.69 84.6093 298.5 81.6493 297.96 80.4793C297.42 79.3093 295.9 77.1993 295.56 75.7293C295.22 74.2593 295.22 73.0393 296.34 71.9093C298.086 70.2539 300.068 68.8656 302.22 67.7893C303.74 67.2493 306.29 66.0293 306.97 65.7893C307.65 65.5493 312.8 64.2993 314.5 63.7193C316.2 63.1393 320.5 61.8093 320.5 61.8093L327.95 58.1393L335.79 54.2193L337 53.4793C336.926 52.1277 336.611 50.8002 336.07 49.5593C335.24 47.8893 333.96 44.5593 333.96 44.5593L332.64 39.8093C332.64 39.8093 331.12 35.5493 330.64 34.4693C330.16 33.3893 328.34 29.1793 328.14 28.4693C327.94 27.7593 326.43 24.0093 326.43 24.0093L325.44 20.6093Z" fill="white"/>
<path d="M286.74 126.479L285.6 124.669C283.976 125.01 282.482 125.804 281.29 126.959L281.81 129.179L279.59 128.249L278.81 127.859L275.92 115.859C275.92 115.859 274.45 109.539 273.92 107.919C273.452 106.339 273.157 104.713 273.04 103.069C272.968 101.477 273.433 99.9061 274.36 98.6091C275.91 96.6781 277.649 94.906 279.55 93.3191L286.16 87.1991L291.79 82.4791L296.39 77.8691L297.96 80.4791L300.85 84.4791L300.61 84.8691L295.42 88.8691L288.7 94.4791L283.7 99.2291L280.37 102.999L282.43 109.809L285.5 118.969L287.41 124.309L287.85 125.239C287.644 125.774 287.249 126.215 286.74 126.479Z" fill="white"/>
<path d="M296.88 129.209C296.88 129.209 295.61 130.209 295.17 130.629C294.35 131.184 293.498 131.691 292.62 132.149C290.823 131.911 289.041 131.577 287.28 131.149C285.91 130.709 279.1 128.499 278.61 127.819C278.12 127.139 271.51 124.099 269.99 123.699C266.906 122.919 263.755 122.426 260.58 122.229C257.79 122.229 253.58 122.469 251.47 122.719C248.38 123.338 245.394 124.392 242.6 125.849C240.05 127.169 236.6 128.979 235.99 129.479C235.38 129.979 231.5 132.589 230.65 134.009C229.8 135.429 227.27 137.339 226.83 139.249C226.39 141.159 225.21 142.679 224.23 145.619C223.665 147.439 223.286 149.312 223.1 151.209L223.49 150.969C223.49 150.969 225.69 147.539 226.23 146.759C227.473 145.134 228.809 143.581 230.23 142.109C230.87 141.569 234.15 138.629 235.32 138.239C236.49 137.849 239.97 136.579 240.66 136.379C241.35 136.179 246.98 134.959 248.01 134.809C250.13 134.913 252.233 135.248 254.28 135.809C256.522 136.449 258.714 137.251 260.84 138.209C261.97 138.899 265.64 140.419 266.91 141.349C268.18 142.279 273.15 145.149 273.96 145.609C275.18 146.299 281.26 150.169 281.96 150.509C282.66 150.849 286.47 153.299 289.7 154.039C292.263 154.7 294.87 155.181 297.5 155.479C300.255 155.725 303.025 155.725 305.78 155.479C307.944 155.163 310.087 154.722 312.2 154.159C314.445 153.39 316.511 152.172 318.27 150.579C319.69 149.209 322.38 145.979 322.63 144.899C322.121 143.884 321.742 142.809 321.5 141.699C321.5 140.699 321.3 135.189 321.3 135.189C321.3 135.189 320.76 135.629 320.42 135.429C319.431 134.711 318.692 133.7 318.31 132.539C318.16 131.369 317.58 126.119 317.58 126.119C317.449 125.255 317.252 124.403 316.99 123.569C316.6 122.399 312.04 111.079 312.04 111.079L296.88 129.209Z" fill="white"/>
<path fill-rule="evenodd" clip-rule="evenodd" d="M330.68 98.7592C329.12 98.9392 328.21 100.329 326.68 100.429C326.52 100.059 326.34 99.6692 326.19 99.2792C325.96 98.6992 325.79 98.0892 325.51 97.5292C324.87 96.2292 324.51 94.8392 323.96 93.5292C323.41 92.2192 322.83 90.5292 322.15 89.1392C321.03 86.8015 320.028 84.4084 319.15 81.9692C318.71 80.7492 318.15 79.5692 317.68 78.3692C317.554 78.1134 317.467 77.8405 317.42 77.5592C317.428 77.4674 317.457 77.3786 317.506 77.3004C317.554 77.2221 317.621 77.1566 317.7 77.1092C317.784 77.0834 317.872 77.079 317.958 77.0964C318.043 77.1139 318.123 77.1527 318.19 77.2092C318.393 77.479 318.557 77.775 318.68 78.0892C319.46 79.9492 320.22 81.8192 320.99 83.6892C321.052 83.8189 321.106 83.9525 321.15 84.0892C321.8 86.1036 322.616 88.0603 323.59 89.9392C324.32 91.5592 324.92 93.2292 325.59 94.8792C325.703 95.1963 325.833 95.5067 325.98 95.8092C326.458 96.6415 326.805 97.5419 327.01 98.4792C327.085 98.6708 327.19 98.8496 327.32 99.0092C328.322 98.814 329.251 98.343 330 97.6492C329.748 96.7662 329.414 95.909 329 95.0892C328.69 94.3892 328.3 93.7192 328 93.0292C327.822 92.6907 327.688 92.3312 327.6 91.9592C327.6 91.8092 327.79 91.6092 327.95 91.3292C328.55 92.2139 329.069 93.1511 329.5 94.1292C329.958 95.1115 330.489 96.0575 331.09 96.9592C331.54 96.7292 331.94 96.4792 332.38 96.3092C332.448 96.2769 332.522 96.2611 332.597 96.2633C332.672 96.2654 332.745 96.2854 332.81 96.3216C332.876 96.3578 332.932 96.4092 332.974 96.4714C333.015 96.5336 333.041 96.6048 333.05 96.6792C332.79 97.2692 332.11 97.4492 331.65 98.0192C331.772 98.3598 331.912 98.6936 332.07 99.0192C333.13 100.899 334.21 102.769 335.28 104.649C335.463 104.932 335.608 105.238 335.71 105.559C335.742 105.784 335.688 106.012 335.56 106.199C335.43 106.389 334.95 106.309 334.78 106.109C334.63 105.921 334.496 105.72 334.38 105.509L331.04 99.4492C330.98 99.2092 330.84 99.0092 330.68 98.7592Z" fill="white"/>
<path d="M317.94 29.4789C318.546 27.196 318.427 24.7812 317.6 22.5689C315.32 17.4989 307.3 15.3289 307.3 15.3289C307.3 15.3289 311.18 11.8989 307.66 9.03887C303.79 5.89887 297.01 8.91887 297.01 8.91887C297.01 8.91887 292.01 1.47887 285.29 2.91887C281.72 3.68887 283.94 9.67887 283.94 9.67887C283.94 9.67887 274.16 10.0289 271.5 13.9189C268.84 17.8089 274.35 22.0889 274.35 22.0889C274.35 22.0889 260.25 24.2789 260.96 29.6489C261.67 35.0189 272.43 35.3089 272.43 35.3089C272.43 35.3089 266.89 38.8689 267.57 44.9189C268.25 50.9689 275.5 50.3889 275.5 50.3889C273.61 53.6489 271.84 59.0889 273.59 61.8089C276.59 66.5289 285.8 63.9889 285.8 63.9889C285.8 63.9889 284.44 67.4789 287.5 68.4789C289.146 68.9454 290.899 68.8718 292.5 68.2689" stroke="black" stroke-linecap="round" stroke-linejoin="round"/>
<path d="M287.98 22.8093C289.444 23.7506 291.131 24.2887 292.87 24.3693C296.6 24.1693 296.25 21.1693 296.25 21.1693C297.428 22.0386 298.802 22.6052 300.25 22.8193C302.56 23.0793 303.05 21.1693 301.6 19.8193" stroke="black" stroke-linecap="round" stroke-linejoin="round"/>
<path d="M312.98 47.059C308.75 45.669 308.1 48.799 308.1 48.799C308.1 48.799 302.85 47.489 300.22 49.799C299.796 50.2075 299.502 50.7315 299.374 51.3058C299.246 51.8801 299.29 52.4794 299.5 53.029C299.5 53.029 295.13 52.739 294.5 54.339C293.87 55.939 295.23 57.989 295.23 57.989C295.23 57.989 290.42 58.579 289.23 61.669C288.23 64.409 292.01 66.599 293.91 66.599C293.358 67.0706 292.933 67.6725 292.673 68.3501C292.413 69.0276 292.326 69.7594 292.42 70.479C292.6 71.329 293.42 72.539 295.57 72.419" stroke="black" stroke-linecap="round" stroke-linejoin="round"/>
<path d="M317.7 48.0291C319.89 47.9491 322.1 48.2391 323.14 48.8791C327.95 51.8791 323.42 54.1991 323.42 54.1991C324.517 55.5419 325.21 57.1681 325.42 58.8891" stroke="black" stroke-linecap="round" stroke-linejoin="round"/>
<path d="M311.17 38.0591C311.17 38.0591 316.73 42.5891 317.61 46.4691C317.705 46.7572 317.723 47.0654 317.66 47.3623C317.598 47.6593 317.458 47.9345 317.255 48.1599C317.052 48.3854 316.793 48.5531 316.504 48.646C316.215 48.7389 315.907 48.7538 315.61 48.6891C314.658 48.4107 313.795 47.8865 313.11 47.1691" stroke="black" stroke-linecap="round" stroke-linejoin="round"/>
<path d="M292.5 28.8292C293.878 26.7995 295.977 25.3696 298.37 24.8292C301.09 24.5692 300.71 25.8292 299.98 26.5592C298.208 28.0306 296.34 29.3835 294.39 30.6092C293.74 31.0392 291.98 29.5692 292.5 28.8292Z" stroke="black" stroke-linecap="round" stroke-linejoin="round"/>
<path d="M306.28 25.7091C307.768 25.6576 309.231 25.318 310.59 24.7091C313.52 23.6091 314.3 22.3191 313.5 21.9991C311.134 21.5628 308.69 21.863 306.5 22.8591C305.6 23.3791 305.61 25.6891 306.28 25.7091Z" stroke="black" stroke-linecap="round" stroke-linejoin="round"/>
<path d="M317.71 35.8291V37.8991" stroke="black" stroke-linecap="round" stroke-linejoin="round"/>
<path d="M318.81 36.8691L316.92 36.9891" stroke="black" stroke-linecap="round" stroke-linejoin="round"/>
<path d="M318.33 36.1489L317.03 37.6689" stroke="black" stroke-linecap="round" stroke-linejoin="round"/>
<path d="M318.55 37.709L316.94 36.229" stroke="black" stroke-linecap="round" stroke-linejoin="round"/>
<path d="M305.85 39.3691L306.53 40.6991" stroke="black" stroke-linecap="round" stroke-linejoin="round"/>
<path d="M306.86 39.5293L305.45 40.7993" stroke="black" stroke-linecap="round" stroke-linejoin="round"/>
<path d="M307.15 40.0889L305.2 40.1189" stroke="black" stroke-linecap="round" stroke-linejoin="round"/>
<path d="M306.44 39.1689L306 40.9589" stroke="black" stroke-linecap="round" stroke-linejoin="round"/>
<path d="M393.16 164.529C392.16 164.599 391.47 164.529 391.41 164.249C391.23 163.339 389.78 134.139 389.6 131.249C389.42 128.359 389.42 124.899 389.42 124.899" stroke="black" stroke-linecap="round" stroke-linejoin="round"/>
<path d="M342.25 124.159C342.25 124.159 344.25 128.159 344.61 128.699C344.97 129.239 353 126.319 356.04 125.439C368.581 121.88 381.298 118.972 394.14 116.729C395.77 116.549 397.22 118.179 397.41 121.989C397.6 125.799 400.49 160.989 399.59 162.439C399.42 162.719 399.52 162.549 398.98 162.799" stroke="black" stroke-linecap="round" stroke-linejoin="round"/>
<path d="M389.3 126.159C387.97 126.159 362.75 132.329 357.67 133.779C352.59 135.229 337.5 141.029 335.5 142.669" stroke="black" stroke-linecap="round" stroke-linejoin="round"/>
<path d="M335.5 142.479C334.59 144.289 333.5 151.899 332.78 155.179C329.51 170.779 316.92 203.939 316.19 205.749C315.46 207.559 313.47 210.099 310.57 208.289C307.67 206.479 273.78 179.169 272.7 177.539C271.62 175.909 275.24 169.739 276.7 169.919C278.16 170.099 300.79 188.519 303.33 190.919C305.758 192.995 308.302 194.932 310.95 196.719" stroke="black" stroke-linecap="round" stroke-linejoin="round"/>
<path d="M310.42 198.319C311.381 196.5 312.229 194.623 312.96 192.699C313.68 190.519 324.11 149.929 324.29 147.209C322.51 145.199 321.484 142.632 321.39 139.949C321.31 137.949 321.39 134.329 321.39 134.329" stroke="black" stroke-linecap="round" stroke-linejoin="round"/>
<path d="M275.82 170.099C275.82 170.099 272.25 166.699 271.53 165.979C270.81 165.259 266.45 167.979 267.36 169.249C268.27 170.519 272.2 173.369 273.1 174.249" stroke="black" stroke-linecap="round" stroke-linejoin="round"/>
<path d="M398.85 168.789C398.85 168.789 398.85 163.169 398.67 162.439C398.49 161.709 394.13 162.619 393.59 163.529C393.59 163.529 393.53 170.529 393.41 172.239" stroke="black" stroke-linecap="round" stroke-linejoin="round"/>
<path d="M393.05 173.319C393.65 171.869 398.13 169.319 399.82 168.599C401.51 167.879 409.74 165.459 412.88 165.209C416.02 164.959 420.13 165.209 420.38 165.819C420.74 166.669 418.56 168.529 414.82 171.259C410.35 174.519 397.4 183.109 394.38 183.719C392.45 184.109 392.57 182.869 392.57 181.899C392.57 180.929 392.41 174.839 393.05 173.319Z" stroke="black" stroke-linecap="round" stroke-linejoin="round"/>
<path d="M420.38 165.829C418.69 165.829 412.38 169.579 409.25 171.629C403.25 175.629 392.92 183.239 393.25 183.629" stroke="black" stroke-linecap="round" stroke-linejoin="round"/>
<path d="M321.45 134.139C322.84 131.779 325.73 130.439 331.37 127.849C334.832 126.22 338.488 125.04 342.25 124.339" stroke="black" stroke-linecap="round" stroke-linejoin="round"/>
<path d="M326.17 125.479C326.17 125.479 326.65 128.869 329.07 128.869" stroke="black" stroke-linecap="round" stroke-linejoin="round"/>
<path d="M338.26 122.889C338.26 122.889 338.74 124.339 338.26 125.069" stroke="black" stroke-linecap="round" stroke-linejoin="round"/>
<path d="M323.57 128.549C323.57 128.549 324.05 130.479 325.51 130.359" stroke="black" stroke-linecap="round" stroke-linejoin="round"/>
<path d="M343.94 127.849C343.94 127.849 339.03 129.079 336.32 130.029C331.48 131.719 321.56 138.029 321.38 139.949" stroke="black" stroke-linecap="round" stroke-linejoin="round"/>
<path d="M334.39 126.639C334.899 127.717 335.265 128.857 335.48 130.029" stroke="black" stroke-linecap="round" stroke-linejoin="round"/>
<path d="M340.2 124.829C340.96 125.82 341.458 126.985 341.65 128.219" stroke="black" stroke-linecap="round" stroke-linejoin="round"/>
<path d="M271.5 165.979C271.92 165.129 268.9 160.169 268.17 159.449C267.44 158.729 260.5 161.869 255.74 165.379C251.68 168.379 247.03 173.969 247.74 174.929C248.45 175.889 263.5 174.079 268.2 170.699" stroke="black" stroke-linecap="round" stroke-linejoin="round"/>
<path d="M342.98 125.069C343.579 124.711 344.077 124.206 344.426 123.603C344.776 122.999 344.967 122.316 344.98 121.619C344.98 119.259 341.17 115.819 339.54 112.009C338.79 110.269 337.32 103.429 335.91 100.009C333.52 94.7588 330.795 89.6682 327.75 84.7689C326.3 82.4089 321.94 74.9689 320.13 72.6089" stroke="black" stroke-linecap="round" stroke-linejoin="round"/>
<path d="M300.89 84.6189C298.35 81.1689 295.99 77.8789 295.45 75.3689C295.338 74.92 295.317 74.4531 295.389 73.9961C295.461 73.539 295.625 73.1012 295.87 72.7089C297.27 70.4589 301.98 67.7689 305.24 66.5489C309.59 64.9189 319.39 62.4989 321.02 61.5489C321.56 61.2489 323.47 60.3289 325.83 59.1789C330.58 56.8789 337.17 53.6889 338.26 52.8389" stroke="black" stroke-linecap="round" stroke-linejoin="round"/>
<path d="M321.21 135.229C321.21 135.229 320.48 136.319 319.03 133.959C317.58 131.599 317.94 126.159 317.22 123.959C316.5 121.759 313.67 115.069 312.22 111.439" stroke="black" stroke-linecap="round" stroke-linejoin="round"/>
<path d="M278.91 127.919C277.24 121.119 273.42 105.779 273.14 103.669C272.78 100.949 273.87 98.7691 276.22 96.5991C277.85 95.0991 288.22 85.3491 290.37 83.7191C292.478 81.9646 294.482 80.088 296.37 78.0991" stroke="black" stroke-linecap="round" stroke-linejoin="round"/>
<path d="M287.63 124.479C286.72 123.029 280.03 104.199 280.21 101.839" stroke="black" stroke-linecap="round" stroke-linejoin="round"/>
<path d="M300.89 84.6191C300.89 84.6191 298.04 86.6191 296.54 87.8891C293.09 90.7891 283.48 98.5891 280.54 102.769" stroke="black" stroke-linecap="round" stroke-linejoin="round"/>
<path d="M306.88 77.7192C306.88 77.7192 313.5 74.7892 315.4 74.0892C317.3 73.3892 322.05 71.6692 324.5 70.4792C326.73 69.4192 336.29 64.9792 339.01 64.0692C341.73 63.1592 346.39 60.5592 346.75 57.2992C346.97 55.2992 346.83 51.8492 344.81 46.2992C343.32 42.1792 339.88 31.2492 338.46 27.9792C337.22 25.1092 335.33 21.4392 333.59 18.1592C330.85 17.2792 326.24 19.0392 325.46 20.5092C325.82 22.6892 327.46 26.6792 329.18 30.9892C330.763 34.5055 332.1 38.1275 333.18 41.8292C334.34 46.3592 337.53 51.7492 336.99 53.5592" stroke="black" stroke-linecap="round" stroke-linejoin="round"/>
<path d="M332.82 18.0391C332.302 16.4043 331.907 14.7329 331.64 13.0391" stroke="black" stroke-linecap="round" stroke-linejoin="round"/>
<path d="M326.5 19.479C326.106 18.0401 325.621 16.6274 325.05 15.249" stroke="black" stroke-linecap="round" stroke-linejoin="round"/>
<path d="M331.86 15.0293C331.86 15.0293 326.73 15.2693 325.86 17.0893" stroke="black" stroke-linecap="round" stroke-linejoin="round"/>
<path d="M325.34 15.9093C325.34 15.9093 320.34 17.1893 318.79 16.4693C318.115 16.2289 317.549 15.755 317.193 15.1333C316.837 14.5115 316.715 13.7829 316.85 13.0793C317.31 11.4993 319.57 10.7793 319.57 10.7793" stroke="black" stroke-linecap="round" stroke-linejoin="round"/>
<path d="M319.76 13.0491L320.94 12.5991C320.94 12.5991 317.62 8.04911 317.1 6.40911C316.37 4.12911 318.43 4.01911 319.88 4.23911C319.88 4.23911 320.61 2.17911 321.94 1.84911C322.396 1.69701 322.892 1.71437 323.336 1.89803C323.781 2.08168 324.144 2.41933 324.36 2.84911C324.36 2.84911 326.17 0.849112 327.02 1.00911C327.87 1.16911 328.5 3.03911 328.5 3.03911C328.5 3.03911 329.92 1.30911 331 1.47911C332.08 1.64911 332.69 3.15911 332.81 4.56911C332.93 5.97911 333.54 11.3691 331.81 13.0091" stroke="black" stroke-linecap="round" stroke-linejoin="round"/>
<path d="M292.73 55.7689C292.73 55.7689 289.01 56.9489 286.93 54.6789C284.67 52.2189 286.57 48.5989 288.74 47.4189" stroke="black" stroke-linecap="round" stroke-linejoin="round"/>
<path d="M311.95 24.3589C312.623 25.0757 313.251 25.8338 313.83 26.6289" stroke="black" stroke-linecap="round" stroke-linejoin="round"/>
<path d="M302.34 20.3394C304.608 20.3408 306.84 20.9006 308.84 21.9694" stroke="black" stroke-linecap="round" stroke-linejoin="round"/>
<path d="M289.1 47.6094C287.251 43.7972 286.437 39.5656 286.74 35.3394C286.861 33.1906 287.447 31.0938 288.459 29.1943C289.471 27.2949 290.884 25.6383 292.6 24.3394" stroke="black" stroke-linecap="round" stroke-linejoin="round"/>
<path d="M319.85 40.709C321.028 43.2063 321.81 45.8714 322.17 48.609" stroke="black" stroke-linecap="round" stroke-linejoin="round"/>
<path d="M281.26 127.039L281.85 129.089" stroke="black" stroke-linecap="round" stroke-linejoin="round"/>
<path d="M287.71 128.329C287.105 127.08 286.437 125.862 285.71 124.679" stroke="black" stroke-linecap="round" stroke-linejoin="round"/>
<path d="M293.6 131.479C294.28 129.839 294.6 127.729 293.6 127.039C292.03 125.949 287.6 128.339 287.6 128.339" stroke="black" stroke-linecap="round" stroke-linejoin="round"/>
<path d="M290.5 131.739C290.687 131.202 290.785 130.638 290.79 130.069C290.29 130.61 289.722 131.084 289.1 131.479" stroke="black" stroke-linecap="round" stroke-linejoin="round"/>
<path d="M286.86 126.879C285.348 127.433 283.981 128.322 282.86 129.479" stroke="black" stroke-linecap="round" stroke-linejoin="round"/>
<path d="M302.16 45.2489C302.16 45.2489 299.35 44.0689 297.99 39.2489C297.46 37.3689 297.26 30.5389 302.16 29.2489C307.06 27.9589 308.85 33.7889 309.24 35.7789C310.15 40.4989 308.88 43.1289 308.88 43.1289" stroke="black" stroke-linecap="round" stroke-linejoin="round"/>
<path d="M312.67 39.259C311.422 36.9692 310.714 34.4244 310.6 31.819C310.42 28.369 313.05 25.409 316.31 27.949C319.9 30.739 321.03 37.749 319.94 40.469" stroke="black" stroke-linecap="round" stroke-linejoin="round"/>
<path d="M316.37 54.0792C315.617 53.0479 314.636 52.2052 313.503 51.617C312.37 51.0288 311.116 50.7112 309.84 50.6892C305.24 50.4492 298.35 56.0092 299.08 57.2192C299.38 57.7192 300.35 57.5792 301.66 56.3292C303.24 54.8092 304.53 52.8692 306.79 51.2392" stroke="black" stroke-linecap="round" stroke-linejoin="round"/>
<path d="M301.13 59.1593C301.13 59.1593 298.5 60.9693 297.38 60.3693C296.26 59.7693 297.02 56.2593 297.02 56.2593" stroke="black" stroke-linecap="round" stroke-linejoin="round"/>
<path d="M318.67 52.6289C318.67 52.6289 320.36 55.5289 319.67 56.7389C318.75 58.2689 316.4 56.6189 316.4 56.6189" stroke="black" stroke-linecap="round" stroke-linejoin="round"/>
<path d="M295.81 41.979C295.997 43.4312 296.708 44.7649 297.81 45.729C298.767 46.656 299.998 47.2488 301.32 47.419" stroke="black" stroke-linecap="round" stroke-linejoin="round"/>
<path d="M295.81 46.2793C296.066 46.7324 296.413 47.1273 296.83 47.4389C297.246 47.7505 297.723 47.972 298.23 48.0893" stroke="black" stroke-linecap="round" stroke-linejoin="round"/>
<path d="M300.65 43.6791C303.255 42.3013 306.175 41.6323 309.12 41.7391" stroke="black" stroke-linecap="round" stroke-linejoin="round"/>
<path d="M320.24 37.6289C317.97 37.8543 315.867 38.9252 314.35 40.6289" stroke="black" stroke-linecap="round" stroke-linejoin="round"/>
<path d="M315.16 52.8693C315.16 52.8693 313.47 55.8693 312.5 55.8693C311.53 55.8693 311.9 54.7793 311.9 54.7793C311.9 54.7793 308.63 61.7793 306.9 61.4293C305.17 61.0793 310.05 54.5393 310.05 54.5393C310.05 54.5393 308.48 55.5393 307.99 54.7793C307.5 54.0193 310.77 50.7793 310.77 50.7793" stroke="black" stroke-linecap="round" stroke-linejoin="round"/>
<path d="M303.07 62.0593C304.4 62.1793 301.86 64.5993 301.26 64.1093C300.66 63.6193 301.74 61.9393 303.07 62.0593Z" stroke="black" stroke-linecap="round" stroke-linejoin="round"/>
<path d="M292.3 55.8892C292.593 56.7423 293.045 57.5327 293.63 58.2192" stroke="black" stroke-linecap="round" stroke-linejoin="round"/>
<path d="M300.66 84.6191C300.66 84.6191 304.5 92.2591 304.25 98.2691C304 104.279 305.03 118.909 299.02 126.749C293.74 133.639 288.02 133.539 288.02 133.539" stroke="black" stroke-linecap="round" stroke-linejoin="round"/>
<path d="M292.62 132.129C292.62 132.129 286.22 132.229 274.72 125.699C267.1 121.369 252.25 121.259 245.46 124.699C238.67 128.139 225.61 131.969 223 151.819C223 151.819 228.75 140.589 237.37 137.449C245.99 134.309 257.75 133.009 270.81 135.099C283.87 137.189 294.03 134.569 300.81 130.099C306.04 126.699 310.74 116.509 311.81 111.809C312.97 106.609 316.81 84.899 313.38 75.499" stroke="black" stroke-linecap="round" stroke-linejoin="round"/>
<path d="M310 76.8389C309.593 80.264 308.432 83.5564 306.6 86.4789L311.83 89.3489C311.83 89.3489 308.96 93.7889 307.13 96.1389C307.13 96.1389 309.74 106.069 309.22 112.859" stroke="black" stroke-linecap="round" stroke-linejoin="round"/>
<path d="M322.7 144.839C321.15 147.749 317.9 151.989 313.7 153.659C307.15 156.229 293.84 157.579 282.09 150.519C270.34 143.459 258.32 134.319 246.82 134.839" stroke="black" stroke-linecap="round" stroke-linejoin="round"/>
<path d="M323.29 71.0889C324.38 74.3023 325.134 77.62 325.54 80.9889" stroke="black" stroke-linecap="round" stroke-linejoin="round"/>
<path d="M279.99 128.209C280.738 127.187 281.709 126.349 282.83 125.759C284.43 124.879 287.14 123.899 287.73 124.759C288.32 125.619 286.73 126.429 286.73 126.429" stroke="black" stroke-linecap="round" stroke-linejoin="round"/>
<path d="M5.77002 130.116L6.05002 127.766L6.40002 124.086L7.61002 117.346C7.69228 117.112 7.85861 116.916 8.07667 116.798C8.29474 116.68 8.54899 116.647 8.79002 116.706C9.79002 116.796 12.51 117.346 12.51 117.346L15.6 118.346C15.6 118.346 16.71 118.556 16.77 119.046C16.83 119.536 16.38 123.196 16.38 123.196L15.46 129.696L14.8 134.806L14.55 136.496C14.2628 136.684 13.9446 136.819 13.61 136.896C11.8669 136.624 10.1408 136.254 8.44002 135.786L5.84002 132.996L5.77002 130.116Z" fill="#3A3A3D"/>
<path d="M68.73 130.056C69.8715 130.401 70.9047 131.035 71.73 131.896C73.24 133.396 76.8 138.346 76.8 138.346L80.62 143.986C80.6645 144.108 80.6805 144.24 80.6666 144.37C80.6527 144.5 80.6094 144.625 80.54 144.736C80.3 145.006 78.86 146.216 78.86 146.216L74.5 149.316L72.43 150.496C72.43 150.496 72.5 157.356 72.43 158.246C72.36 159.136 71.94 167.756 71.94 167.756L71.16 175.366C71.16 175.366 70.47 179.366 70.34 180.786C70.21 182.206 69.23 185.376 69.14 186.196C69.05 187.016 67.99 187.196 67.99 187.196C67.99 187.196 64.49 187.436 63.23 187.336C61.97 187.236 56.9 186.926 56.1 186.776C55.3 186.626 50.2 185.416 49.1 185.076C48 184.736 44.19 183.586 42.96 183.296C41.9502 182.999 40.9721 182.604 40.04 182.116C40.04 182.116 39.58 181.836 39.63 181.586C39.68 181.336 40.7 174.806 40.7 174.806L41.91 166.966L42.31 164.796L42.66 158.456L42.99 151.536L43.06 148.086L42.37 139.756L41.26 140.896L38.52 143.896L37.25 145.196L35.8 146.076C35.1733 145.9 34.5742 145.637 34.02 145.296C33.16 144.746 30.65 142.746 30.65 142.746C30.0023 142.087 29.4289 141.359 28.94 140.576C28.89 140.186 30.15 138.876 30.15 138.876L33.41 134.806L35.96 131.806C35.96 131.806 37.59 129.936 37.91 129.606C38.23 129.276 39.79 128.096 40.91 128.306C42.03 128.516 68.73 130.056 68.73 130.056Z" fill="#F0306C"/>
<path d="M34.18 104.906C34.0987 103.454 34.1455 101.999 34.32 100.556C34.47 99.7655 35.16 96.2955 35.54 95.0155C35.92 93.7355 37.73 89.9455 37.73 89.9455L40.05 85.2355L41.99 80.9855C42.3919 80.0017 42.6934 78.9799 42.89 77.9355L44.19 79.7155C44.1158 78.9278 44.0858 78.1366 44.1 77.3455C44.1212 76.4653 44.2557 75.5914 44.5 74.7455L46.02 76.1355L47.87 77.4955C47.87 77.4955 47.55 75.6155 47.49 75.1655C47.3382 73.894 47.4784 72.6046 47.9 71.3955L50.34 73.5255C51.9052 74.6637 53.5383 75.7056 55.23 76.6455C56.23 77.0255 59.36 78.4655 59.36 78.4655C59.36 78.4655 66.04 81.3455 67.5 82.0955C68.96 82.8455 72.91 85.0255 73.71 85.6055C75.2833 86.7763 76.7552 88.0776 78.11 89.4955C78.55 90.2055 81.26 92.9655 82.24 96.4955C83.22 100.026 84.41 103.646 83.5 106.736C82.59 109.826 82.43 113.016 81.16 115.426C79.89 117.836 78.5 120.756 78.5 120.756L77.34 123.136L76.5 121.246L76.25 121.666L74.66 123.776L73.66 124.946L73.5 123.766L71.64 125.496L71.98 123.316H71.08L36.98 109.696L34.78 107.556C34.4803 106.698 34.279 105.809 34.18 104.906Z" fill="#FF7E35"/>
<path d="M34.61 116.266C34.61 116.266 34.08 116.356 32.97 115.446C32.97 115.446 32.39 115.146 31.82 113.696C31.4512 112.484 31.5365 111.179 32.06 110.026C32.3384 109.538 32.7357 109.13 33.2149 108.838C33.694 108.546 34.2394 108.38 34.8 108.356C34.8 108.356 35.25 105.626 35.55 104.356C36.0652 102.44 36.7547 100.576 37.61 98.7857C38.17 97.8657 40.1 94.7057 41.18 94.0757C42.26 93.4457 45.1 90.8957 46.87 90.3357C48.64 89.7757 51.87 88.7157 53.43 88.8057C55.5834 88.8293 57.7296 89.057 59.84 89.4857C62.6198 90.2216 65.3301 91.1986 67.94 92.4057C70.2895 93.8443 72.3985 95.6429 74.19 97.7357C75.846 100.041 77.0568 102.636 77.76 105.386C77.9 106.386 78.3 110.036 77.2 112.196C76.4286 114.267 75.5268 116.288 74.5 118.246C73.5 119.786 71.18 123.326 71.18 123.326H72.07L71.5 125.266C72.2222 124.916 72.8472 124.394 73.32 123.746L73.55 124.936L74.94 123.336L76.5 121.246C77.007 122.09 77.3465 123.023 77.5 123.996C77.5925 125.25 77.2383 126.497 76.5 127.516C75.679 128.255 74.6044 128.649 73.5 128.616C72.7171 128.61 71.9416 128.465 71.21 128.186L68.81 130.046L63.81 133.046C63.81 133.046 59.44 134.856 55.81 134.236C52.18 133.616 47.94 133.156 44.46 130.906C42.4549 129.611 40.655 128.023 39.12 126.196C37.9722 124.773 36.9484 123.254 36.06 121.656C35.81 121.166 34.61 116.266 34.61 116.266Z" fill="#F8C2A0"/>
<path d="M82.68 58.2155C82.62 53.7255 82.9 38.3455 89.36 37.8055C95.82 37.2655 111.12 37.7455 123.65 36.6655C136.18 35.5855 147.06 35.5555 150.19 38.5955C153.32 41.6355 159.48 50.6655 159.37 54.3455C159.26 58.0255 155.25 70.0455 147.97 70.9255C140.69 71.8055 116.06 73.2455 110.02 73.0555C103.98 72.8655 82.81 67.0555 82.68 58.2155Z" fill="#ECFB8F"/>
<path d="M99.22 54.6657C99.22 53.6657 99.22 52.5257 99.22 51.3457C99.2219 50.512 99.0587 49.6862 98.74 48.9157C98.5994 48.603 98.4178 48.3105 98.2 48.0457C97.6801 47.4006 96.9859 46.9182 96.2 46.6557C95.8814 46.5268 95.5433 46.4524 95.2 46.4357C94.773 46.4153 94.3471 46.4951 93.9564 46.6688C93.5657 46.8424 93.221 47.1051 92.95 47.4357L92.88 47.5157C92.7986 47.6096 92.7251 47.7099 92.66 47.8157C91.879 49.0966 91.3907 50.5342 91.23 52.0257C91.0736 53.4135 91.1038 54.816 91.32 56.1957C91.32 56.4157 91.39 56.6357 91.42 56.8557C91.4876 57.5393 91.6422 58.2114 91.88 58.8557C92.035 59.3925 92.3551 59.8669 92.7949 60.2115C93.2346 60.5562 93.7717 60.7536 94.33 60.7757H94.5H94.8H95.07H95.32C95.6322 60.7695 95.942 60.719 96.24 60.6257C96.7833 60.4281 97.3114 60.1908 97.82 59.9157C98.0732 59.7666 98.2887 59.5613 98.45 59.3157C98.4937 59.258 98.5222 59.1901 98.5327 59.1184C98.5431 59.0468 98.5354 58.9736 98.51 58.9057C98.4774 58.8342 98.4273 58.772 98.3644 58.7249C98.3015 58.6777 98.2278 58.647 98.15 58.6357C98.1252 58.6234 98.0978 58.617 98.07 58.617C98.0423 58.617 98.0149 58.6234 97.99 58.6357C97.5252 59.1255 96.944 59.4896 96.3006 59.6942C95.6571 59.8988 94.9723 59.9372 94.31 59.8057C93.9016 59.7455 93.5218 59.5603 93.2228 59.2756C92.9238 58.991 92.7202 58.6207 92.64 58.2157C92.3661 57.0318 92.2253 55.821 92.22 54.6057C92.22 54.3257 92.22 54.0357 92.22 53.7557C92.22 53.4757 92.22 53.1857 92.22 52.8957C92.22 52.8057 92.22 52.7157 92.22 52.6157C92.2116 52.1533 92.2484 51.6911 92.33 51.2357C92.5107 50.4584 92.7412 49.6935 93.02 48.9457C93.0865 48.6647 93.2094 48.4001 93.3813 48.168C93.5532 47.9359 93.7705 47.7412 94.02 47.5957C94.4002 47.3806 94.8241 47.2541 95.26 47.2257C95.4556 47.2326 95.6471 47.2839 95.82 47.3757C95.8762 47.3861 95.9338 47.3861 95.99 47.3757C96.5403 47.5291 97.0289 47.8505 97.3875 48.2952C97.7461 48.7398 97.9568 49.2855 97.99 49.8557V49.9257C97.9966 50.064 98.0167 50.2014 98.05 50.3357C98.3127 51.3911 98.3871 52.4845 98.27 53.5657C98.27 53.9457 98.27 54.3257 98.27 54.6957C98.27 54.8957 98.27 55.0857 98.27 55.2857C98.27 55.4857 98.27 55.4057 98.27 55.4557C98.2925 55.6216 98.2925 55.7898 98.27 55.9557C98.1991 56.2212 98.0878 56.4741 97.94 56.7057C97.9171 56.7396 97.8855 56.7667 97.8486 56.7842C97.8117 56.8018 97.7707 56.8092 97.73 56.8057C97.6713 56.8043 97.6142 56.7868 97.5648 56.755C97.5154 56.7233 97.4757 56.6785 97.45 56.6257C97.3954 56.5127 97.3616 56.3908 97.35 56.2657C97.35 56.1257 97.35 55.9857 97.35 55.8457C97.35 55.3757 97.27 54.8457 97.27 54.4057C97.27 53.4957 97.27 52.5757 97.34 51.6757C97.34 51.2957 97.34 50.9157 97.34 50.5357C97.353 50.4968 97.353 50.4547 97.34 50.4157L97.19 50.2357C97.08 50.1057 96.97 49.9657 96.86 49.8257C96.6959 49.601 96.4827 49.4166 96.2367 49.2867C95.9906 49.1567 95.7182 49.0846 95.44 49.0757C95.1852 49.064 94.931 49.109 94.6958 49.2076C94.4606 49.3062 94.2503 49.4558 94.08 49.6457C93.608 50.1274 93.3031 50.7478 93.21 51.4157C93.0761 52.6141 93.036 53.8211 93.09 55.0257C93.1088 55.396 93.159 55.764 93.24 56.1257C93.305 56.4344 93.4092 56.7335 93.55 57.0157C93.67 57.2823 93.8616 57.5104 94.1034 57.6746C94.3453 57.8388 94.628 57.9326 94.92 57.9457C95.2765 57.9524 95.6261 57.8475 95.92 57.6457L96.44 57.2857L96.6 57.1757C96.6816 57.2768 96.7684 57.3736 96.86 57.4657C97.0891 57.7041 97.3999 57.847 97.73 57.8657C97.9523 57.8674 98.1704 57.8051 98.3584 57.6863C98.5463 57.5675 98.6961 57.3973 98.79 57.1957C98.8855 57.0232 98.9562 56.838 99 56.6457C99.1413 55.9951 99.215 55.3316 99.22 54.6657ZM96.33 55.8157C96.3272 56.0419 96.2693 56.2639 96.1612 56.4625C96.0532 56.6612 95.8983 56.8305 95.71 56.9557C95.4881 57.1315 95.2131 57.2267 94.93 57.2257C94.43 57.2257 94.07 56.8157 93.93 56.1757C93.8658 55.7421 93.8357 55.3041 93.84 54.8657V54.4957C93.8283 53.7582 93.855 53.0205 93.92 52.2857C94.0004 51.7739 94.1519 51.2757 94.37 50.8057C94.4423 50.6417 94.5641 50.5044 94.7183 50.4129C94.8725 50.3215 95.0514 50.2805 95.23 50.2957H95.43C95.7287 50.345 95.9977 50.5053 96.1831 50.7445C96.3686 50.9838 96.4568 51.2842 96.43 51.5857C96.43 52.0857 96.43 52.5857 96.43 53.0757V53.6257C96.4192 53.6616 96.4192 53.6999 96.43 53.7357V54.3557C96.35 54.8457 96.33 55.3257 96.32 55.8157H96.33Z" fill="black"/>
<path d="M127.8 61.4153C127.64 60.9553 127.6 60.8853 127.22 60.7953L126.91 60.7253C126.61 60.6553 126.31 60.5953 126.02 60.4953C125.917 60.4484 125.822 60.3841 125.74 60.3053C126.061 59.6638 126.215 58.9521 126.19 58.2353C126.19 57.8253 126.19 57.4153 126.19 57.0053C126.184 56.9288 126.184 56.8519 126.19 56.7753C127.04 56.7153 127.1 56.7053 127.32 56.3953C127.334 56.3692 127.341 56.34 127.341 56.3103C127.341 56.2807 127.334 56.2515 127.32 56.2253C127.311 56.1974 127.295 56.172 127.274 56.1512C127.253 56.1304 127.228 56.1147 127.2 56.1053C126.708 55.9914 126.205 55.931 125.7 55.9253C125.282 55.9034 124.864 55.9235 124.45 55.9853C124.403 55.995 124.362 56.022 124.334 56.0609C124.306 56.0999 124.294 56.1479 124.3 56.1953C124.36 56.6553 124.7 56.6953 124.92 56.7153C125.03 56.7142 125.138 56.7455 125.23 56.8053C125.394 57.2301 125.418 57.6958 125.3 58.1353V58.3553C125.26 58.8176 125.101 59.2618 124.84 59.6453C124.42 59.3953 124.42 59.3953 124.29 59.1553C123.378 57.7276 122.769 56.128 122.5 54.4553V54.3753C123.499 52.92 124.18 51.271 124.5 49.5353C124.564 49.2494 124.57 48.9536 124.519 48.6652C124.467 48.3768 124.359 48.1015 124.2 47.8553C124.101 47.7009 123.968 47.5722 123.809 47.48C123.651 47.3879 123.473 47.3348 123.29 47.3253C123.041 47.3215 122.797 47.4026 122.6 47.5553C122.334 47.7472 122.115 47.9968 121.96 48.2853C121.789 48.6238 121.677 48.9891 121.63 49.3653L121.56 49.8953C121.341 51.1239 121.318 52.3794 121.49 53.6153C121.555 53.926 121.493 54.2496 121.32 54.5153C121.055 54.9585 120.815 55.4158 120.6 55.8853C120.127 56.8128 119.897 57.8448 119.93 58.8853C119.93 59.1947 119.992 59.501 120.112 59.786C120.232 60.0711 120.409 60.3293 120.63 60.5453C120.891 60.7991 121.165 61.0394 121.45 61.2653C121.886 61.6147 122.422 61.8145 122.98 61.8353C123.418 61.8422 123.854 61.7606 124.26 61.5953C124.454 61.5183 124.644 61.4315 124.83 61.3353L124.99 61.2553C125.364 61.5163 125.791 61.692 126.24 61.7697C126.689 61.8475 127.15 61.8255 127.59 61.7053C127.615 61.6992 127.639 61.6881 127.659 61.6727C127.68 61.6572 127.697 61.6377 127.71 61.6153C127.744 61.5954 127.771 61.5654 127.787 61.5296C127.803 61.4938 127.807 61.4539 127.8 61.4153ZM122.26 51.7653C122.32 51.1853 122.37 50.6053 122.42 50.0753C122.437 49.5894 122.546 49.1111 122.74 48.6653C122.9 48.3353 123.14 48.1153 123.33 48.1153H123.39C123.67 48.2053 123.8 48.4253 123.84 48.8853C123.845 49.1021 123.814 49.3183 123.75 49.5253C123.66 49.9053 123.55 50.2853 123.45 50.6553L123.31 51.1553C123.132 51.847 122.789 52.4852 122.31 53.0153C122.229 52.6038 122.209 52.1827 122.25 51.7653H122.26ZM121.85 55.3253C122.37 57.0847 123.123 58.7663 124.09 60.3253C124.035 60.4304 123.954 60.519 123.854 60.5822C123.753 60.6455 123.638 60.681 123.52 60.6853C123.35 60.7013 123.18 60.7013 123.01 60.6853C122.695 60.6769 122.387 60.5969 122.108 60.4513C121.829 60.3057 121.587 60.0985 121.4 59.8453C121.043 59.4178 120.861 58.8714 120.89 58.3153C120.933 57.247 121.265 56.2103 121.85 55.3153V55.3253Z" fill="black"/>
<path d="M111.15 51.5555C111.144 51.525 111.132 51.4963 111.112 51.4719C111.093 51.4474 111.068 51.4281 111.04 51.4155C110.804 51.3247 110.553 51.2772 110.3 51.2755H109.7C109.537 51.2751 109.376 51.2516 109.22 51.2055C109.22 51.2055 109.22 51.2055 109.22 51.1355C109.211 51.0057 109.211 50.8754 109.22 50.7455C109.22 50.4855 109.31 50.2255 109.36 49.9655C109.41 49.7055 109.46 49.4255 109.5 49.1555C109.57 48.7155 109.62 48.2555 109.66 47.8055C109.659 47.7213 109.64 47.6384 109.603 47.5624C109.567 47.4864 109.515 47.4192 109.45 47.3655C109.403 47.3237 109.343 47.2991 109.28 47.2955C109.09 47.2955 108.93 47.4755 108.89 47.7555L108.75 48.6055C108.637 49.2722 108.523 49.9389 108.41 50.6055C108.41 50.7555 108.34 50.9055 108.29 51.0655V51.1755H107.97H106.54H106.46C106.465 50.5448 106.525 49.9157 106.64 49.2955C106.758 48.6352 106.822 47.9663 106.83 47.2955C106.829 47.2633 106.819 47.2319 106.803 47.2043C106.786 47.1767 106.762 47.1538 106.734 47.1378C106.706 47.1218 106.675 47.1132 106.642 47.1128C106.61 47.1124 106.578 47.1202 106.55 47.1355L106.41 47.2055C106.3 47.2555 106.19 47.3155 106.15 47.4355C106.026 47.7834 105.932 48.1414 105.87 48.5055C105.81 48.9655 105.76 49.4255 105.71 49.8755C105.71 50.1355 105.66 50.3955 105.63 50.6455C105.6 50.8955 105.63 50.9055 105.56 51.0455H105.3H104.42C104.05 51.0455 103.66 51.0455 103.25 51.0455C103.166 51.0665 103.09 51.1136 103.035 51.1801C102.979 51.2466 102.946 51.329 102.94 51.4155C102.945 51.5005 102.976 51.5819 103.027 51.6495C103.079 51.7172 103.149 51.768 103.23 51.7955C103.527 51.8548 103.828 51.8982 104.13 51.9255H104.86H105.12C105.2 51.9148 105.28 51.9148 105.36 51.9255C105.355 52.8491 105.261 53.77 105.08 54.6755H104.77H103.64C103.359 54.6659 103.077 54.686 102.8 54.7355C102.66 54.7355 102.59 54.8955 102.51 55.0355L102.41 55.2155C102.393 55.2444 102.385 55.2772 102.385 55.3105C102.385 55.3439 102.393 55.3767 102.41 55.4055C102.425 55.4354 102.448 55.4605 102.476 55.4782C102.504 55.4958 102.537 55.5053 102.57 55.5055H103.2L104.72 55.5855C104.825 55.5952 104.929 55.6153 105.03 55.6455C105.036 55.7154 105.036 55.7857 105.03 55.8555C105.03 56.0955 104.97 56.3355 104.94 56.5755C104.828 57.6652 104.634 58.7449 104.36 59.8055C104.319 59.9527 104.319 60.1084 104.36 60.2555C104.418 60.4089 104.532 60.5342 104.68 60.6055H104.78C104.858 60.6044 104.934 60.5824 105.001 60.542C105.068 60.5016 105.123 60.4441 105.16 60.3755C105.268 60.1503 105.346 59.9115 105.39 59.6655C105.49 58.8955 105.58 58.1155 105.67 57.3655C105.73 56.8855 105.787 56.4055 105.84 55.9255C105.856 55.8174 105.879 55.7105 105.91 55.6055L107.69 55.6655C107.694 55.6988 107.694 55.7323 107.69 55.7655L107.49 57.1355C107.39 57.8655 107.28 58.5855 107.18 59.3155C107.142 59.6475 107.122 59.9814 107.12 60.3155V60.4955C107.127 60.591 107.17 60.6803 107.24 60.7455C107.258 60.7691 107.28 60.7884 107.306 60.8023C107.332 60.8161 107.361 60.824 107.39 60.8255H107.49C107.536 60.8258 107.582 60.8115 107.619 60.7846C107.657 60.7576 107.685 60.7195 107.7 60.6755C107.945 59.789 108.109 58.8819 108.19 57.9655C108.262 57.1843 108.389 56.409 108.57 55.6455C108.711 55.6108 108.859 55.6108 109 55.6455H109.42H110.21C110.301 55.6401 110.389 55.6103 110.465 55.5593C110.54 55.5083 110.601 55.4379 110.64 55.3555C110.66 55.3051 110.665 55.2499 110.655 55.1966C110.644 55.1433 110.618 55.0943 110.58 55.0555C110.47 54.9364 110.321 54.8617 110.16 54.8455H109.08C108.981 54.8369 108.884 54.8168 108.79 54.7855C108.709 53.8651 108.839 52.9383 109.17 52.0755H109.74C110.07 52.0755 110.41 52.0755 110.74 52.0755C110.798 52.0633 110.853 52.0392 110.901 52.0048C110.949 51.9703 110.99 51.9264 111.02 51.8755L111.1 51.7855C111.133 51.7584 111.156 51.7209 111.165 51.6792C111.174 51.6375 111.169 51.5939 111.15 51.5555ZM106.32 52.0255H106.4C106.798 51.9824 107.199 51.9624 107.6 51.9655C107.784 51.9728 107.968 51.9929 108.15 52.0255V52.4855C108.1 53.1255 108.05 53.7555 107.99 54.3855C107.975 54.4689 107.948 54.5497 107.91 54.6255V54.6855L106.12 54.6255C106.022 53.754 106.089 52.8717 106.32 52.0255Z" fill="black"/>
<path d="M117.5 58.0758C117.5 57.8158 117.5 57.5458 117.5 57.2858C117.5 57.0258 117.5 57.0258 117.5 56.8958C117.474 56.1581 117.195 55.4518 116.71 54.8958C116.543 54.6937 116.386 54.4835 116.24 54.2658L115.92 53.8258C115.728 53.5746 115.639 53.2601 115.67 52.9458C115.67 52.3058 115.67 51.6558 115.74 51.0358C115.74 50.5658 115.74 50.0958 115.74 49.6258C115.74 49.4358 115.74 49.2458 115.79 49.0458C115.84 48.8458 115.79 48.8458 115.79 48.7458L115.85 48.0958V47.9458C115.918 47.9357 115.988 47.9393 116.055 47.9565C116.122 47.9737 116.185 48.004 116.24 48.0458C116.368 48.1232 116.511 48.1711 116.66 48.1858C116.729 48.199 116.801 48.199 116.87 48.1858C116.899 48.1755 116.925 48.1582 116.946 48.1356C116.967 48.1129 116.982 48.0855 116.99 48.0558V47.9958C117.01 47.9552 117.02 47.9108 117.02 47.8658C117.02 47.8208 117.01 47.7763 116.99 47.7358C116.822 47.4735 116.572 47.2733 116.28 47.1658C116.113 47.0962 115.958 47.0018 115.82 46.8858L115.75 46.5758C115.747 46.5095 115.726 46.4453 115.691 46.3891C115.656 46.3329 115.607 46.2866 115.549 46.2546C115.491 46.2225 115.426 46.2058 115.359 46.2061C115.293 46.2063 115.228 46.2234 115.17 46.2558C115.141 46.2661 115.115 46.2833 115.094 46.3059C115.073 46.3286 115.058 46.356 115.05 46.3858L114.89 47.0158C114.385 47.1895 113.964 47.5463 113.71 48.0158C113.435 48.5793 113.295 49.1989 113.3 49.8258C113.341 50.3293 113.428 50.8281 113.56 51.3158C113.56 51.5058 113.65 51.6858 113.69 51.8758C113.802 52.4814 114.082 53.0431 114.5 53.4958C114.615 53.6224 114.704 53.7709 114.76 53.9323C114.817 54.0938 114.841 54.265 114.83 54.4358C114.83 55.5091 114.83 56.5791 114.83 57.6458C114.83 58.4591 114.83 59.2724 114.83 60.0858C114.837 60.1923 114.837 60.2992 114.83 60.4058C114.624 60.4849 114.397 60.4934 114.185 60.4301C113.974 60.3668 113.789 60.2352 113.66 60.0558C113.514 59.8844 113.346 59.7331 113.16 59.6058C113.066 59.5505 112.959 59.5228 112.85 59.5258H112.69C112.658 59.5224 112.626 59.5271 112.597 59.5393C112.567 59.5516 112.541 59.5711 112.522 59.596C112.502 59.6209 112.488 59.6504 112.483 59.6818C112.477 59.7133 112.48 59.7456 112.49 59.7758C112.687 60.2385 113.002 60.6411 113.404 60.9431C113.806 61.245 114.281 61.4357 114.78 61.4958H114.85V61.5758C114.85 61.7658 114.85 61.9458 114.93 62.1258C114.95 62.1913 114.989 62.2494 115.043 62.2922C115.096 62.335 115.162 62.3607 115.23 62.3658C115.33 62.3658 115.53 62.3058 115.56 62.1558C115.59 62.0058 115.64 61.7458 115.68 61.5158V61.3458L115.76 61.2858L116.04 61.0858C116.385 60.8808 116.681 60.6011 116.904 60.2671C117.127 59.9331 117.273 59.5534 117.33 59.1558C117.418 58.8014 117.475 58.44 117.5 58.0758ZM116.15 59.4958C116.055 59.7317 115.904 59.9411 115.71 60.1058C115.71 58.4058 115.71 56.6958 115.65 55.0158C115.954 55.2354 116.184 55.5423 116.31 55.8958C116.536 56.4737 116.639 57.0926 116.612 57.7127C116.584 58.3328 116.427 58.9402 116.15 59.4958ZM114.74 50.4958C114.74 50.9058 114.74 51.3358 114.74 51.7558C114.474 51.0804 114.309 50.3694 114.25 49.6458C114.224 49.3356 114.273 49.0237 114.394 48.7365C114.514 48.4493 114.701 48.1953 114.94 47.9958C114.945 48.0256 114.945 48.056 114.94 48.0858C114.783 48.8791 114.716 49.6875 114.74 50.4958Z" fill="black"/>
<path d="M135.73 50.8553C135.99 50.0753 136.26 49.2653 136.59 48.4953C136.624 48.4113 136.651 48.3242 136.67 48.2353V48.1553C136.682 48.1303 136.688 48.103 136.688 48.0753C136.688 48.0477 136.682 48.0204 136.67 47.9953V47.9353C136.636 47.8688 136.584 47.8132 136.52 47.7753C136.47 47.7656 136.42 47.7656 136.37 47.7753C136.325 47.7695 136.279 47.7756 136.237 47.7932C136.194 47.8107 136.158 47.8391 136.13 47.8753L136.07 47.9553C135.953 48.1024 135.856 48.2637 135.78 48.4353C135.52 49.0853 135.27 49.7453 135.01 50.4353L134.5 51.5853L134.4 51.8553C134.25 52.2353 134.11 52.6153 133.93 52.9853C133.41 54.1053 132.93 55.2753 132.46 56.4653C131.76 58.3453 131.12 59.8653 130.46 61.2553C130.412 61.3562 130.382 61.4644 130.37 61.5753C130.37 61.6753 130.37 61.8953 130.58 61.9253H130.71C130.802 61.9336 130.894 61.9088 130.97 61.8553C131.089 61.7614 131.184 61.6417 131.25 61.5053C131.78 60.3453 132.4 58.9853 133.02 57.5853C133.18 57.2253 133.33 56.8653 133.47 56.5053L133.71 55.9253L134.19 54.8053C134.55 53.9853 134.92 53.1353 135.19 52.2753C135.41 51.8153 135.57 51.3253 135.73 50.8553Z" fill="black"/>
<path d="M131.61 55.0456C131.844 54.9506 132.055 54.8057 132.228 54.6209C132.401 54.4361 132.531 54.2159 132.61 53.9756C132.711 53.6501 132.778 53.3149 132.81 52.9756C132.81 52.6756 132.81 52.3656 132.87 52.0756C132.886 51.3674 132.959 50.6617 133.09 49.9656C133.129 49.7641 133.129 49.557 133.09 49.3556C133.055 49.1526 132.973 48.9608 132.85 48.7956C132.568 48.4348 132.19 48.161 131.76 48.0056C131.628 47.9575 131.49 47.9305 131.35 47.9256C131.145 47.9172 130.943 47.9777 130.776 48.0973C130.61 48.2169 130.488 48.3887 130.43 48.5856C130.257 49.0713 130.119 49.5694 130.02 50.0756C129.94 50.4356 129.88 50.7956 129.83 51.1456C129.83 51.3256 129.77 51.4956 129.74 51.6756L129.59 52.5056L129.52 52.9056C129.502 52.9505 129.502 53.0006 129.52 53.0456C129.52 53.0456 129.52 53.0456 129.52 53.1156C129.52 53.1856 129.52 53.4056 129.52 53.5656C129.524 53.8024 129.579 54.0356 129.681 54.2494C129.783 54.4633 129.929 54.6529 130.11 54.8056C130.34 55.0189 130.637 55.146 130.95 55.1656C131.177 55.184 131.404 55.1426 131.61 55.0456ZM132.12 51.2056V51.6856C132.12 52.1756 132.04 52.6856 131.99 53.1656C131.976 53.329 131.942 53.4901 131.89 53.6456C131.863 53.7373 131.817 53.8225 131.756 53.8962C131.695 53.9699 131.62 54.0305 131.535 54.0744C131.45 54.1183 131.357 54.1446 131.262 54.1517C131.166 54.1587 131.071 54.1465 130.98 54.1156C130.911 54.1046 130.848 54.0728 130.798 54.0246C130.748 53.9763 130.713 53.9138 130.7 53.8456V53.7256C130.628 53.3973 130.594 53.0617 130.6 52.7256C130.64 52.0188 130.717 51.3145 130.83 50.6156C130.906 50.1298 131.023 49.6514 131.18 49.1856C131.28 48.9056 131.39 48.9056 131.46 48.9156C131.549 48.9217 131.637 48.942 131.72 48.9756L131.87 49.0356C132.25 49.2256 132.33 49.3456 132.3 49.7756C132.27 50.2056 132.25 50.3956 132.22 50.6956V51.1056C132.196 51.1127 132.175 51.1256 132.157 51.143C132.14 51.1605 132.127 51.182 132.12 51.2056Z" fill="black"/>
<path d="M137.5 57.6454V57.4254C137.519 57.1457 137.519 56.865 137.5 56.5854C137.48 56.2091 137.402 55.8382 137.27 55.4854C137.162 55.2195 136.974 54.9938 136.732 54.8396C136.49 54.6855 136.206 54.6106 135.92 54.6254C135.657 54.6151 135.398 54.6865 135.178 54.8298C134.957 54.973 134.787 55.1811 134.69 55.4254C134.519 55.764 134.408 56.1292 134.36 56.5054C134.29 57.5554 134.25 58.6754 134.24 60.0054C134.252 60.3465 134.316 60.6837 134.43 61.0054C134.48 61.163 134.568 61.3058 134.687 61.421C134.806 61.5362 134.951 61.6202 135.11 61.6654C135.279 61.7157 135.454 61.746 135.63 61.7554C135.939 61.7626 136.242 61.6689 136.493 61.4884C136.744 61.308 136.929 61.0506 137.02 60.7554C137.149 60.4684 137.239 60.1658 137.29 59.8554C137.37 59.3454 137.44 58.8554 137.5 58.3354L137.58 57.7254C137.563 57.6908 137.535 57.6627 137.5 57.6454ZM136.72 57.8254L136.67 58.2954C136.62 58.7754 136.56 59.2954 136.5 59.7554C136.464 59.9759 136.4 60.1909 136.31 60.3954C136.21 60.6454 135.99 60.6954 135.64 60.7654H135.55H135.5C135.34 60.7654 135.22 60.5754 135.17 60.4954C135.104 60.3653 135.07 60.2213 135.07 60.0754C135.07 59.6354 135.07 59.1854 135.07 58.7354V58.4954C135.07 58.0154 135.07 57.4954 135.16 57.0254C135.198 56.7083 135.259 56.3942 135.34 56.0854C135.371 55.9786 135.423 55.8792 135.494 55.7932C135.564 55.7073 135.651 55.6366 135.75 55.5854C135.856 55.5125 135.981 55.4709 136.11 55.4654C136.28 55.4654 136.41 55.5854 136.48 55.7954C136.645 56.3116 136.706 56.8554 136.66 57.3954C136.66 57.4854 136.66 57.5854 136.66 57.6754C136.662 57.707 136.672 57.7374 136.69 57.7638C136.707 57.7901 136.732 57.8114 136.76 57.8254H136.72Z" fill="black"/>
<path d="M147.86 58.1855C147.86 58.3955 147.86 58.6155 147.86 58.8255C147.86 58.8255 147.86 58.8755 147.86 58.9055C147.838 59.0399 147.861 59.1779 147.926 59.2975C147.991 59.4171 148.095 59.5115 148.22 59.5655H148.3H148.39C148.415 59.5526 148.437 59.5343 148.455 59.5118C148.472 59.4893 148.484 59.4632 148.49 59.4355C148.49 59.3555 148.49 59.2855 148.49 59.2155C148.535 59.0552 148.565 58.8912 148.58 58.7255C148.63 57.8055 148.68 56.8255 148.71 55.8555C148.71 55.6255 148.71 55.3955 148.71 55.1655C148.71 54.5155 148.71 53.8355 148.71 53.1655C148.713 52.2499 148.767 51.3352 148.87 50.4255L148.93 49.7855C148.982 49.2768 148.982 48.7641 148.93 48.2555C148.927 48.2241 148.916 48.194 148.899 48.1678C148.881 48.1417 148.858 48.1202 148.83 48.1055C148.762 48.0596 148.685 48.0303 148.604 48.0199C148.523 48.0095 148.441 48.0182 148.364 48.0455C148.287 48.0728 148.218 48.1177 148.161 48.1768C148.105 48.2359 148.064 48.3073 148.04 48.3855C147.959 48.6552 147.912 48.934 147.9 49.2155C147.9 49.3855 147.9 49.5555 147.9 49.7255C147.912 49.9119 147.912 50.099 147.9 50.2855C147.797 51.5694 147.764 52.8579 147.8 54.1455C147.8 54.8555 147.8 55.5855 147.8 56.3055C147.8 57.0255 147.85 57.5655 147.86 58.1855Z" fill="black"/>
<path d="M148.59 61.2956C148.535 61.232 148.465 61.1825 148.387 61.1512C148.308 61.1199 148.224 61.1077 148.14 61.1156C147.977 61.1494 147.834 61.2461 147.743 61.3847C147.651 61.5233 147.617 61.6926 147.65 61.8556C147.654 62.0004 147.712 62.1384 147.811 62.2435C147.911 62.3486 148.046 62.4134 148.19 62.4256C148.34 62.416 148.481 62.3515 148.586 62.2445C148.691 62.1375 148.753 61.9955 148.76 61.8456C148.777 61.6472 148.716 61.4501 148.59 61.2956Z" fill="black"/>
<path d="M144.95 49.9754C144.895 49.4904 144.697 49.033 144.379 48.6622C144.062 48.2914 143.641 48.0243 143.17 47.8954C143.059 47.8636 142.945 47.8468 142.83 47.8454C142.438 47.8355 142.052 47.9412 141.719 48.1492C141.387 48.3573 141.123 48.6585 140.96 49.0154C140.898 49.2637 140.882 49.5211 140.91 49.7754C140.91 49.8354 140.91 49.8954 140.91 49.9454C140.91 49.9954 141.14 50.2654 141.28 50.2754C141.359 50.2712 141.435 50.2469 141.501 50.2049C141.568 50.1629 141.623 50.1045 141.66 50.0354C141.697 49.9452 141.723 49.8513 141.74 49.7554C141.737 49.6987 141.737 49.642 141.74 49.5854C141.796 49.3709 141.918 49.1793 142.088 49.0376C142.258 48.8959 142.469 48.8112 142.69 48.7954C142.911 48.7734 143.134 48.8178 143.33 48.9229C143.526 49.028 143.686 49.189 143.79 49.3854C144.042 49.7462 144.15 50.189 144.09 50.6254C144.017 51.0908 143.917 51.5516 143.79 52.0054C143.79 52.1754 143.69 52.3354 143.63 52.5054C143.57 52.6754 143.51 52.8454 143.47 53.0254C143.307 53.6136 143.068 54.1783 142.76 54.7054C142.549 55.1078 142.368 55.5256 142.22 55.9554V56.0354C142.024 56.6567 141.923 57.3039 141.92 57.9554V58.1254V58.4254C141.92 58.7654 141.92 59.1154 142 59.4254C142.023 59.5077 142.071 59.5808 142.137 59.6346C142.203 59.6884 142.285 59.7201 142.37 59.7254C142.457 59.7207 142.54 59.6893 142.608 59.6356C142.676 59.5819 142.725 59.5085 142.75 59.4254C142.784 59.1598 142.784 58.891 142.75 58.6254C142.664 58.0288 142.73 57.4201 142.94 56.8554C143.55 55.1454 144.06 53.7054 144.64 52.2354C144.942 51.5228 145.049 50.7428 144.95 49.9754Z" fill="black"/>
<path d="M142.5 61.2354C142.422 61.238 142.346 61.2561 142.276 61.2888C142.205 61.3214 142.142 61.3679 142.09 61.4254C142.04 61.4787 142 61.5415 141.975 61.6102C141.949 61.6789 141.937 61.752 141.94 61.8254C141.953 61.9863 142.028 62.1359 142.149 62.2423C142.271 62.3488 142.429 62.4037 142.59 62.3954C142.616 62.3955 142.642 62.3903 142.666 62.38C142.69 62.3697 142.712 62.3545 142.73 62.3354L142.79 62.2754C142.9 62.1926 142.986 62.0822 143.04 61.9554C143.065 61.8785 143.071 61.7969 143.059 61.7171C143.047 61.6372 143.017 61.5613 142.97 61.4954C142.918 61.4173 142.849 61.3529 142.767 61.3077C142.685 61.2624 142.594 61.2376 142.5 61.2354Z" fill="black"/>
<path d="M39.3 104.095C39.4362 102.153 40.3324 100.343 41.7943 99.0566C43.2563 97.7706 45.1662 97.1126 47.11 97.2253C48.919 97.3259 50.6186 98.1241 51.8513 99.4519C53.084 100.78 53.7538 102.534 53.72 104.345C53.5767 106.085 52.8002 107.712 51.5377 108.917C50.2752 110.122 48.6144 110.823 46.87 110.885C43.72 110.865 39.34 109.715 39.3 104.095Z" fill="white"/>
<path d="M56.96 109.695C56.81 106.015 60.6 101.155 65.96 102.145C69.55 102.815 72.36 107.145 72.2 110.605C72.1829 111.6 71.956 112.581 71.5341 113.482C71.1121 114.383 70.5047 115.185 69.7514 115.836C68.9982 116.486 68.1161 116.97 67.1629 117.256C66.2097 117.542 65.2069 117.624 64.22 117.495C60.13 116.755 57.14 114.215 56.96 109.695Z" fill="white"/>
<path d="M42.79 127.296C41.01 126.296 40.9 122.296 43.52 120.646C46.14 118.996 51.21 119.256 55.21 121.156C59.21 123.056 61.01 126.466 60.72 128.716C60.43 130.966 57.87 131.646 56.28 131.216C54.69 130.786 52.5 128.086 49.5 127.256C46.5 126.426 45.23 128.646 42.79 127.296Z" fill="#CB4850"/>
<path d="M11.33 120.275C12.23 120.275 12.16 122.275 11.12 122.175C10.08 122.075 10.43 120.295 11.33 120.275Z" fill="#AED1E9"/>
<path d="M74.93 111.386C76.45 111.476 75.07 113.716 74.36 113.386C73.65 113.056 74.93 111.386 74.93 111.386Z" fill="#9AD8D7"/>
<path d="M38.38 116.106C37.68 115.826 38.94 113.906 38.94 113.906C38.94 113.906 39.8 116.666 38.38 116.106Z" fill="#9AD8D7"/>
<path d="M86.23 108.496C87.53 108.736 86.91 112.076 85.64 111.656C84.37 111.236 86.23 108.496 86.23 108.496Z" fill="#ECFB8F"/>
<path d="M76.67 135.956C76.2301 135.389 75.8732 134.763 75.61 134.096C74.9361 132.288 74.77 130.331 75.13 128.436C74.579 128.599 74.004 128.667 73.43 128.636L71.14 128.206L70.07 129.206L68.75 130.116C69.3567 130.368 69.9419 130.669 70.5 131.016C71.2133 131.536 71.8822 132.115 72.5 132.746L74.24 135.116C75.0028 135.517 75.8221 135.8 76.67 135.956Z" fill="#FF7E35"/>
<path d="M56.76 122.155C56.76 122.155 56.03 122.975 55.57 123.025C55.2669 123.06 54.9599 123.031 54.6688 122.94C54.3777 122.849 54.1089 122.697 53.88 122.495C53.6899 122.303 53.5545 122.064 53.4877 121.802C53.4209 121.54 53.4252 121.265 53.5 121.005C53.1436 121.334 52.7471 121.616 52.32 121.845C52.1342 121.894 51.937 121.875 51.7644 121.791C51.5918 121.706 51.4553 121.562 51.38 121.385C51.31 121.085 51.22 120.335 51.22 120.335C50.9323 120.729 50.5964 121.085 50.22 121.395C49.94 121.505 49.3 122.055 48.76 121.315C48.6053 121.137 48.5044 120.918 48.469 120.684C48.4336 120.451 48.4652 120.212 48.56 119.995C48.1651 120.503 47.734 120.981 47.27 121.425C46.43 121.975 45.93 121.725 45.73 121.265C45.53 120.805 45.95 119.925 45.95 119.925C47.0405 119.719 48.1508 119.635 49.26 119.675C50.8623 119.85 52.4374 120.219 53.95 120.775C54.92 121.205 56.76 122.155 56.76 122.155Z" fill="white"/>
<path d="M56.11 127.315C55.4421 126.245 54.5174 125.358 53.42 124.735C52.31 124.145 51.22 123.975 51.03 124.675C51.0036 125.447 51.2759 126.199 51.79 126.775C52.4449 127.368 53.1472 127.907 53.89 128.385L54.27 129.495L54.32 130.245C54.32 130.245 55.03 130.725 55.6 131.095C56.1032 131.328 56.6567 131.431 57.21 131.395C57.2301 130.758 57.1798 130.121 57.06 129.495C56.8011 128.745 56.4834 128.016 56.11 127.315Z" fill="#FF0000"/>
<path d="M19.61 153.116C19.8782 153.053 20.1135 152.892 20.27 152.666C20.46 152.316 23.41 149.216 23.41 149.216L28.5 143.496L29.84 141.826L32.5 144.186L34.83 145.776L31.5 149.826L25.15 157.096L21.91 160.716C21.2935 161.39 20.54 161.926 19.7 162.286C19.3306 162.336 18.9544 162.294 18.6053 162.163C18.2562 162.032 17.9451 161.817 17.7 161.536C16.7571 160.5 15.8692 159.415 15.04 158.286C14.78 157.986 11.94 153.286 11.94 153.286L8.84998 147.206L6.21998 140.376C5.19154 139.715 4.21534 138.976 3.29998 138.166C2.20998 137.166 1.09998 135.896 1.00998 134.986C0.978769 134.592 1.06954 134.199 1.26995 133.859C1.47036 133.519 1.77066 133.249 2.12998 133.086C2.12998 133.086 1.68998 132.366 2.99998 131.516C2.99998 131.516 3.09998 130.316 3.99998 130.106C5.32935 130.002 6.6666 130.134 7.94998 130.496C8.94998 130.756 10.47 131.736 10.48 132.056C10.4845 132.179 10.463 132.302 10.417 132.416C10.3709 132.531 10.3013 132.634 10.2127 132.72C10.124 132.806 10.0183 132.872 9.90244 132.914C9.78655 132.957 9.66306 132.974 9.53998 132.966C8.28298 132.863 7.03982 132.632 5.82998 132.276C6.56124 132.815 7.23183 133.432 7.82998 134.116C8.14571 134.547 8.37338 135.036 8.49998 135.556L10.35 136.286L12.8 136.876C12.8732 137.472 12.7833 138.077 12.54 138.626C12.2505 139.166 11.9017 139.673 11.5 140.136C11.5 140.136 12.84 143.586 13.5 144.736C14.16 145.886 16.8 149.736 16.8 149.736C17.6521 150.93 18.5913 152.06 19.61 153.116Z" fill="#F8C2A0"/>
<path d="M15.17 131.226L15.81 127.436C15.81 127.436 16.81 127.746 16.74 128.316C16.322 129.339 15.7956 130.314 15.17 131.226Z" fill="#F8C2A0"/>
<path d="M4.04 130.105C3.68831 129.471 3.40665 128.801 3.2 128.105C3.12 127.515 3.06 126.795 3.7 126.465C4.61298 125.944 5.64848 125.674 6.7 125.685C7.63 125.855 8.82 126.015 8.7 126.445C8.63619 126.695 8.49184 126.916 8.28934 127.075C8.08685 127.235 7.83751 127.322 7.58 127.325C6.93 127.395 5.05 127.815 5.05 127.815L5.28 128.625L5.8 129.625L5.71 130.125C5.15985 130.011 4.59274 130.004 4.04 130.105Z" fill="#F8C2A0"/>
<path d="M67.55 187.196C66.2029 187.355 64.8454 187.408 63.49 187.356C61.78 187.236 55.84 186.656 55.84 186.656C55.84 186.656 51.08 185.656 48.68 184.886C46.28 184.116 44.75 183.816 44.26 183.626L40.75 182.346L37.42 187.586L33.01 194.786C33.01 194.786 29.3 200.246 29.01 200.576C28.2864 201.688 27.6512 202.855 27.11 204.066C26.88 204.796 26 207.176 25.34 209.166C24.68 211.156 23.62 215.036 23.62 215.036L21.4 223.606L19.74 229.686L18.82 233.496L18.5 234.736C18.6816 235.098 18.9405 235.415 19.2585 235.666C19.5765 235.916 19.9457 236.094 20.34 236.186C21.5688 236.593 22.835 236.878 24.12 237.036C24.59 237.036 25.54 236.916 25.71 236.466C25.88 236.016 28.58 226.196 28.58 226.196L32.02 214.686L33.65 209.806L37.88 204.106L43.32 197.106L49.22 189.416L51.27 189.996C51.27 189.996 54.11 190.716 54.55 190.946C54.99 191.176 54.98 191.746 54.98 192.226C54.98 192.706 54.21 197.896 54.21 197.896L53.41 204.236L52.5 211.826L52.4 218.156C52.3411 218.971 52.3411 219.79 52.4 220.606C52.52 221.256 53.35 224.286 53.48 224.886C53.61 225.486 54.98 231.266 54.98 231.266L56.98 238.606L58.5 243.356C58.8292 244.062 59.2314 244.733 59.7 245.356C60.07 245.666 61.02 245.506 61.02 245.506L64.73 244.656C64.73 244.656 65.73 244.276 65.83 243.906C65.8746 243.554 65.8746 243.198 65.83 242.846L64.19 234.616L62.5 225.906L61.22 219.136L62.75 209.996L64.9 200.786L66.72 193.876C67.0277 192.891 67.2781 191.889 67.47 190.876C67.6639 189.658 67.6908 188.42 67.55 187.196Z" fill="#1FBA9A"/>
<path d="M24.15 239.966L24.86 236.966L22.35 236.786L19.68 235.906L19.01 238.226C19.5252 238.876 20.221 239.36 21.01 239.616C22.0074 240.008 23.0908 240.128 24.15 239.966Z" fill="white"/>
<path d="M60.6 248.406C61.2742 248.887 62.0929 249.124 62.92 249.076C63.8594 249.006 64.7848 248.808 65.67 248.486L66.2 247.956C66.5082 248.134 66.7582 248.398 66.92 248.716C67.12 249.186 68.09 251.956 68.09 251.956C68.3478 252.744 68.486 253.566 68.5 254.396C68.35 254.946 66.91 255.686 66.22 256.086C64.3903 256.752 62.4573 257.091 60.51 257.086C59.1 256.916 56.6 256.936 56.06 256.736C55.52 256.536 54.37 256.276 53.87 256.136C53.37 255.996 52.94 255.726 53.03 255.496C53.4461 254.759 54.0239 254.126 54.72 253.646C55.8042 253.12 56.9158 252.652 58.05 252.246L59.29 250.246L60.6 248.406Z" fill="#3A3A3D"/>
<path d="M60.35 245.576L62.55 245.116L65.11 244.536L65.65 246.536L66.25 248.236C65.6238 248.695 64.8907 248.988 64.12 249.086C63.21 249.086 61.51 248.936 61.51 248.936L60.87 248.526C60.8846 248.053 60.8444 247.579 60.75 247.116C60.6 246.576 60.35 245.576 60.35 245.576Z" fill="white"/>
<path d="M80.23 144.936L82.75 148.676L85.35 152.756L86.23 155.226L87.06 160.566L88.06 167.566L88.77 172.786L88.94 174.696C89.1731 175.262 89.5444 175.76 90.02 176.146C90.66 176.556 92.38 177.406 92.38 177.406C93.5728 177.948 94.7028 178.618 95.75 179.406C96.6547 180.299 97.4381 181.308 98.08 182.406C98.33 182.886 98.49 183.536 98.21 183.776C97.93 184.016 97.29 183.776 97.29 183.776C97.29 183.776 98.23 185.196 98.07 185.776C97.91 186.356 97.64 187.036 96.77 186.826C96.77 186.826 96.87 187.566 96.52 187.646C96.0133 187.662 95.508 187.584 95.03 187.416C94.5904 187.158 94.1783 186.857 93.8 186.516C93.8 186.516 93.57 187.006 93.33 186.956C92.6684 186.905 92.0521 186.6 91.61 186.106C91.0567 185.531 90.6247 184.851 90.34 184.106L89.22 182.366C88.8187 181.703 88.2308 181.175 87.53 180.846C86.62 180.576 86.29 181.046 86.21 181.466C86.13 181.886 85.77 183.596 85.71 183.916C85.65 184.236 85.21 185.066 84.54 184.756C84.3039 184.635 84.1027 184.456 83.9557 184.235C83.8086 184.015 83.7206 183.76 83.7 183.496C83.7159 182.622 83.7827 181.751 83.9 180.886C83.9 180.886 84.21 178.976 84.28 178.606C84.607 177.749 84.8058 176.85 84.87 175.936C84.7264 174.722 84.4856 173.521 84.15 172.346L81.42 163.286L79.42 156.816L78.9 155.226L74.69 149.226L77.15 147.376L80.23 144.936Z" fill="#F8C2A0"/>
<path d="M24.19 239.906L24.73 237.336C24.73 237.336 22.55 236.996 21.93 236.836C21.31 236.676 19.67 236.036 19.67 236.036C19.67 236.036 19.23 237.706 19.07 238.126C19.3384 238.546 19.7103 238.89 20.15 239.126C20.76 239.386 22.97 240.496 24.19 239.906Z" fill="white"/>
<path d="M18.43 239.645C17.99 240.015 15.09 242.375 14.74 242.835C14.39 243.295 11.95 245.295 11.58 245.835C11.21 246.375 10.21 247.325 9.98998 247.725C9.76998 248.125 9.54998 248.825 9.82998 249.015C11.1085 249.37 12.4345 249.521 13.76 249.465C14.92 249.355 19.35 249.045 20.56 248.895C22.0744 248.76 23.564 248.423 24.99 247.895C25.81 247.425 25.55 247.225 25.61 246.825C25.67 246.425 25.36 242.595 25.31 242.065C25.2173 241.278 25.0362 240.503 24.77 239.755C24.65 239.755 23.98 240.085 23.34 240.185C22.506 240.29 21.6602 240.249 20.84 240.065C20.2072 239.858 19.5973 239.587 19.02 239.255C18.68 238.945 18.43 239.645 18.43 239.645Z" fill="#3A3A3D"/>
<path d="M60.87 105.485L60.7 106.665" stroke="black" stroke-linecap="round" stroke-linejoin="round"/>
<path d="M60.04 105.976L61.36 106.136" stroke="black" stroke-linecap="round" stroke-linejoin="round"/>
<path d="M60.31 105.516L61.18 106.566" stroke="black" stroke-linecap="round" stroke-linejoin="round"/>
<path d="M60.36 106.355L61.16 105.625" stroke="black" stroke-linecap="round" stroke-linejoin="round"/>
<path d="M43.04 101.475L43.42 100.295" stroke="black" stroke-linecap="round" stroke-linejoin="round"/>
<path d="M42.59 100.715L43.87 101.055" stroke="black" stroke-linecap="round" stroke-linejoin="round"/>
<path d="M43.02 100.436L43.45 101.346" stroke="black" stroke-linecap="round" stroke-linejoin="round"/>
<path d="M43.64 100.656L42.82 101.116" stroke="black" stroke-linecap="round" stroke-linejoin="round"/>
<path d="M75.16 128.275C74.8398 129.613 74.819 131.005 75.099 132.352C75.3791 133.698 75.9531 134.966 76.78 136.065C76.78 136.065 74.71 135.595 74.16 134.925" stroke="black" stroke-linecap="round" stroke-linejoin="round"/>
<path d="M65.15 244.706C65.15 244.706 65.61 246.446 66.21 248.206" stroke="black" stroke-linecap="round" stroke-linejoin="round"/>
<path d="M60.39 245.625C60.6545 246.518 60.8189 247.437 60.88 248.365" stroke="black" stroke-linecap="round" stroke-linejoin="round"/>
<path d="M58.12 252.096C59.12 250.486 59.71 249.766 60.63 248.266C60.82 248.806 62.31 249.266 63.99 249.056C64.8956 249.033 65.7552 248.652 66.38 247.996C67.48 248.996 68.38 252.996 68.57 254.106C68.76 255.216 65.93 256.506 63.29 256.906C59.61 257.456 53.62 256.606 53.04 255.596C52.83 255.226 54.83 252.856 58.67 252.166" stroke="black" stroke-linecap="round" stroke-linejoin="round"/>
<path d="M24.86 237.056L24.22 239.866" stroke="black" stroke-linecap="round" stroke-linejoin="round"/>
<path d="M19.64 235.965C19.64 235.965 19.07 238.285 18.79 238.965" stroke="black" stroke-linecap="round" stroke-linejoin="round"/>
<path d="M22.4 240.196C23.1993 240.207 23.9923 240.054 24.73 239.746C25.48 241.466 25.73 247.006 25.53 247.466C24.99 248.716 12.75 250.216 9.94001 249.016C8.03001 248.206 17.14 240.736 18.94 239.136C19.39 239.716 21.13 240.196 22.4 240.196Z" stroke="black" stroke-linecap="round" stroke-linejoin="round"/>
<path d="M40.95 128.236C40.95 128.236 39.07 128.016 37.08 130.456C35.09 132.896 29.35 139.646 28.94 140.456C28.53 141.266 34.42 146.086 35.71 146.076C37 146.066 41.19 140.696 42.39 139.766" stroke="black" stroke-linecap="round" stroke-linejoin="round"/>
<path d="M42.11 138.176C42.11 138.176 43.11 146.306 43 148.846C42.89 151.386 42.67 163.006 42.09 166.096C41.51 169.186 39.8 180.496 39.61 181.496C39.42 182.496 47.38 184.496 52.61 185.966C57.84 187.436 67.92 187.666 68.85 186.816C69.78 185.966 71.48 174.756 71.85 170.206C72.22 165.656 72.85 152.976 72.43 150.586" stroke="black" stroke-linecap="round" stroke-linejoin="round"/>
<path d="M68.97 130.116C68.97 130.116 71.05 130.636 73.25 133.606C74.79 135.686 80.64 143.436 80.73 144.346C80.82 145.256 73.56 150.156 72.41 150.486C71.6 150.716 68.69 145.696 68.03 144.416C67.4604 143.414 66.7902 142.472 66.03 141.606" stroke="black" stroke-linecap="round" stroke-linejoin="round"/>
<path d="M40.68 182.496C40.68 182.496 36.8 188.636 34.24 192.826C30.65 198.686 28.09 201.216 26.43 205.826C24.07 212.306 19.05 233.216 18.59 234.666C18.13 236.116 25.45 238.056 25.76 236.386C26.07 234.716 32.84 211.626 33.76 209.876C34.68 208.126 48.14 191.036 49.16 189.686" stroke="black" stroke-linecap="round" stroke-linejoin="round"/>
<path d="M67.62 187.246C67.8475 189.193 67.6111 191.167 66.93 193.006C65.79 196.376 62.76 210.416 62.01 213.476C61.3955 215.757 61.096 218.113 61.12 220.476" stroke="black" stroke-linecap="round" stroke-linejoin="round"/>
<path d="M61.35 219.235C61.35 219.235 62.67 227.295 63.67 232.235C64.14 234.555 65.86 243.235 65.99 243.905C66.12 244.575 60.66 245.725 59.79 245.565C58.92 245.405 55.96 235.145 55.25 232.065C54.54 228.985 52.5 221.175 52.41 219.745C52.4191 214.424 52.7833 209.109 53.5 203.835C53.86 201.345 54.96 192.575 54.96 192.575C55.1 191.835 54.96 191.165 54.62 190.975C53.92 190.585 49.74 189.685 48.69 189.105" stroke="black" stroke-linecap="round" stroke-linejoin="round"/>
<path d="M39.3 104.095C39.4362 102.153 40.3324 100.343 41.7943 99.0566C43.2563 97.7706 45.1662 97.1126 47.11 97.2253C48.919 97.3259 50.6186 98.1241 51.8513 99.4519C53.084 100.78 53.7538 102.534 53.72 104.345C53.5767 106.085 52.8002 107.712 51.5377 108.917C50.2752 110.122 48.6144 110.823 46.87 110.885C43.72 110.865 39.34 109.715 39.3 104.095Z" stroke="black" stroke-linecap="round" stroke-linejoin="round"/>
<path d="M56.96 109.695C56.81 106.015 60.6 101.155 65.96 102.145C69.55 102.815 72.36 107.145 72.2 110.605C72.1829 111.6 71.956 112.581 71.5341 113.482C71.1121 114.383 70.5047 115.185 69.7514 115.836C68.9982 116.486 68.1161 116.97 67.1629 117.256C66.2097 117.542 65.2069 117.624 64.22 117.495C60.13 116.755 57.14 114.215 56.96 109.695Z" stroke="black" stroke-linecap="round" stroke-linejoin="round"/>
<path d="M53.5 91.8857C53.5 91.8857 52.5 93.2357 50 92.7757C48.3729 92.5294 46.7098 92.705 45.17 93.2857" stroke="black" stroke-linecap="round" stroke-linejoin="round"/>
<path d="M64.5 95.2256C64.5737 95.6031 64.7315 95.9592 64.9618 96.2674C65.1921 96.5756 65.4888 96.8279 65.83 97.0056C67 97.6056 69.95 98.2856 70.83 99.7256" stroke="black" stroke-linecap="round" stroke-linejoin="round"/>
<path d="M52.65 112.866C52.65 112.866 49.65 113.966 50.05 115.866C50.59 118.286 54.68 116.476 54.68 116.476" stroke="black" stroke-linecap="round" stroke-linejoin="round"/>
<path d="M37.5 106.976C37.5296 108.341 38.0932 109.641 39.07 110.596C40.0209 111.184 41.0894 111.556 42.2 111.686" stroke="black" stroke-linecap="round" stroke-linejoin="round"/>
<path d="M69.04 119.116C68.6038 119.518 68.0856 119.821 67.5212 120.004C66.9567 120.187 66.3593 120.246 65.77 120.176C64.7618 120.042 63.7762 119.773 62.84 119.376" stroke="black" stroke-linecap="round" stroke-linejoin="round"/>
<path d="M42.77 127.415C40.99 126.415 40.88 122.415 43.5 120.765C46.12 119.115 51.19 119.385 55.19 121.275C59.19 123.165 60.99 126.585 60.7 128.835C60.41 131.085 57.85 131.765 56.26 131.335C54.67 130.905 52.48 128.205 49.44 127.335C46.4 126.465 45.21 128.765 42.77 127.415Z" stroke="black" stroke-linecap="round" stroke-linejoin="round"/>
<path d="M46 119.886C46 119.886 45.09 121.156 46.15 121.646C47.21 122.136 48.62 119.706 48.62 119.706C48.62 119.706 48.31 121.376 49.22 121.646C50.13 121.916 51.35 120.026 51.35 120.026C51.35 120.026 51.06 121.606 51.87 121.856C52.68 122.106 53.6 120.856 53.6 120.856C53.4661 121.267 53.4952 121.714 53.6813 122.105C53.8673 122.496 54.1962 122.8 54.6 122.956C54.9897 123.115 55.424 123.126 55.8216 122.988C56.2192 122.85 56.5528 122.572 56.76 122.206" stroke="black" stroke-linecap="round" stroke-linejoin="round"/>
<path d="M57.24 131.196C57.2041 129.856 56.862 128.543 56.24 127.356C55.24 125.836 52.58 123.596 51.24 124.356C50.12 125.036 52.44 127.876 54.06 128.466" stroke="black" stroke-linecap="round" stroke-linejoin="round"/>
<path d="M54.38 130.095C54.3725 129.568 54.2388 129.05 53.99 128.585" stroke="black" stroke-linecap="round" stroke-linejoin="round"/>
<path d="M34.67 108.355C33.919 108.38 33.2021 108.675 32.6509 109.185C32.0998 109.696 31.7515 110.389 31.67 111.135C31.01 115.365 34.06 116.195 34.06 116.195" stroke="black" stroke-linecap="round" stroke-linejoin="round"/>
<path d="M70.93 128.045C72.1095 128.655 73.4696 128.819 74.76 128.505C77.76 127.405 77.68 124.505 77.31 123.085C77.1265 122.466 76.8536 121.876 76.5 121.335" stroke="black" stroke-linecap="round" stroke-linejoin="round"/>
<path d="M80.45 145.246C80.45 145.246 84.66 151.436 85.72 153.606C86.78 155.776 88.84 173.496 89 174.496C89.16 175.496 89.84 176.186 91.13 176.816C92.42 177.446 95.96 178.736 98.04 182.326C99.2 184.326 97.27 183.716 97.27 183.716" stroke="black" stroke-linecap="round" stroke-linejoin="round"/>
<path d="M74.86 149.406C74.86 149.406 78.63 154.136 79.07 155.596C79.51 157.056 84.85 174.066 84.95 175.596C84.9635 176.66 84.7235 177.712 84.25 178.666C84.25 178.666 82.96 184.576 84.63 184.886C86.3 185.196 85.63 181.616 86.53 180.886C87.19 180.356 88.7 181.286 89.72 183.016C90.74 184.746 92.25 187.326 93.48 186.916C94.71 186.506 92.23 182.266 90.87 180.286" stroke="black" stroke-linecap="round" stroke-linejoin="round"/>
<path d="M34.84 107.625C34.84 107.625 32.56 102.495 36.26 93.2853C38.9 86.7353 42.39 81.7153 42.91 77.8753L44.35 79.9653C44.35 79.9653 43.82 76.6053 44.58 74.6253C45.5853 75.7919 46.758 76.8029 48.06 77.6253C47.3893 75.629 47.3232 73.4791 47.87 71.4453C49.8448 73.2859 52.0299 74.887 54.38 76.2153C60.66 79.8053 75.9 83.2153 81.27 94.1553C87.03 105.855 80.76 116.855 77.45 122.905" stroke="black" stroke-linecap="round" stroke-linejoin="round"/>
<path d="M76.3 121.366C75.4641 122.636 74.5524 123.855 73.57 125.016L73.5 123.556C72.9965 124.335 72.3522 125.013 71.6 125.556L72.11 123.346L71.04 123.436C71.9919 122.178 72.8636 120.863 73.65 119.496C74.65 117.786 78.11 112.386 77.95 107.746C77.79 103.106 75.13 94.6657 63.95 90.6657C52.77 86.6657 45.56 89.6657 40.2 95.0757C34.84 100.486 33.81 113.076 34.53 116.566C35.14 119.496 35.26 121.566 39.33 126.566C43.4 131.566 50.01 134.566 59.04 134.206C64.94 133.966 71.04 128.206 71.04 128.206" stroke="black" stroke-linecap="round" stroke-linejoin="round"/>
<path d="M82.5 58.2055C82.44 53.7155 82.72 38.3255 89.18 37.7955C95.64 37.2655 110.94 37.7455 123.5 36.6655C136.06 35.5855 146.87 35.5555 150 38.5955C153.13 41.6355 159.29 50.6655 159.18 54.3455C159.07 58.0255 155.06 70.0455 147.78 70.9255C140.5 71.8055 115.87 73.2455 109.83 73.0555C103.79 72.8655 82.62 67.0455 82.5 58.2055Z" stroke="black" stroke-linecap="round" stroke-linejoin="round"/>
<path d="M104.21 69.9258C104.21 69.9258 97.76 75.9858 98.04 78.9258C98.32 81.8658 99.4 82.6458 93.41 85.7758" stroke="black" stroke-linecap="round" stroke-linejoin="round"/>
<path d="M11.5 140.286C13.02 145.186 19.28 153.286 19.68 153.206C20.08 153.126 20.79 152.066 22.84 150.016C23.48 149.376 29.84 141.906 29.84 141.906" stroke="black" stroke-linecap="round" stroke-linejoin="round"/>
<path d="M6.28998 140.605C8.42196 146.945 11.4095 152.964 15.17 158.495C15.17 158.495 17.28 161.825 19.07 162.295C19.92 162.515 20.83 161.785 22.25 160.295C26.68 155.745 34.71 145.835 34.71 145.835" stroke="black" stroke-linecap="round" stroke-linejoin="round"/>
<path d="M92.5 179.835C93.695 180.969 94.707 182.282 95.5 183.725C96.29 185.495 97.2 187.495 96.5 187.635C96.0131 187.654 95.5285 187.56 95.0831 187.363C94.6377 187.165 94.2433 186.869 93.93 186.495" stroke="black" stroke-linecap="round" stroke-linejoin="round"/>
<path d="M94.18 179.646C95.5738 181.18 96.8038 182.856 97.85 184.646C98.38 185.826 97.93 186.966 97.19 186.826" stroke="black" stroke-linecap="round" stroke-linejoin="round"/>
<path d="M6.33002 125.626C6.79002 122.126 7.22002 118.916 7.60002 117.206C7.91002 115.826 16.5 118.056 16.74 118.866C16.98 119.676 14.64 135.606 14.55 136.396C14.4768 136.571 14.3479 136.716 14.1834 136.81C14.0188 136.904 13.8278 136.941 13.64 136.916C11.9544 136.633 10.2853 136.259 8.64002 135.796" stroke="black" stroke-linecap="round" stroke-linejoin="round"/>
<path d="M5.84998 129.735C5.90998 129.415 5.90998 128.365 5.99998 127.735" stroke="black" stroke-linecap="round" stroke-linejoin="round"/>
<path d="M12.86 136.956C12.9189 137.59 12.8105 138.228 12.5456 138.807C12.2806 139.386 11.8683 139.886 11.35 140.256" stroke="black" stroke-linecap="round" stroke-linejoin="round"/>
<path d="M11.42 120.346C12.32 120.346 12.25 122.346 11.21 122.246C10.17 122.146 10.5 120.366 11.42 120.346Z" stroke="black" stroke-linecap="round" stroke-linejoin="round"/>
<path d="M2.17002 133.176C1.74002 132.066 3.17002 131.306 3.78002 131.426C5.14578 131.718 6.38044 132.444 7.30002 133.496C8.11002 134.326 8.90002 135.206 8.46002 135.886C8.15002 136.356 6.98002 135.886 6.08002 135.246" stroke="black" stroke-linecap="round" stroke-linejoin="round"/>
<path d="M3.41 135.495C3.41 135.495 5.09 137.495 6.41 137.205C6.96 137.095 6.47 135.975 5.99 135.335C5.3962 134.376 4.52899 133.617 3.5 133.155C3.24039 133.046 2.95892 132.999 2.67798 133.018C2.39703 133.037 2.12435 133.121 1.88162 133.264C1.63889 133.407 1.43281 133.604 1.27976 133.84C1.12671 134.077 1.03092 134.346 1 134.625C1 135.515 1.77 136.685 2.84 137.785C3.81748 138.694 4.86027 139.529 5.96 140.285" stroke="black" stroke-linecap="round" stroke-linejoin="round"/>
<path d="M3.01001 131.495C3.0628 131.062 3.28234 130.666 3.62208 130.392C3.96183 130.117 4.39508 129.986 4.83001 130.025C6.50621 130.1 8.14969 130.515 9.66001 131.245C10.78 131.985 10.6 132.415 10.32 132.745C10.04 133.075 8.55001 132.985 7.68001 132.835C6.91604 132.656 6.16972 132.408 5.45001 132.095" stroke="black" stroke-linecap="round" stroke-linejoin="round"/>
<path d="M15.42 119.676C15.4513 120.937 15.344 122.198 15.1 123.436C14.73 125.956 14.68 126.346 14.4 128.016" stroke="black" stroke-linecap="round" stroke-linejoin="round"/>
<path d="M3.98003 129.986C3.98003 129.986 2.11003 127.136 3.90003 126.316C5.69003 125.496 8.15003 125.506 8.72003 126.256C9.29003 127.006 6.92003 127.646 5.07003 127.786L5.69003 129.496" stroke="black" stroke-linecap="round" stroke-linejoin="round"/>
<path d="M15.97 127.496C15.97 127.496 16.84 127.656 16.69 128.496C16.48 129.606 15.29 131.176 15.19 131.736" stroke="black" stroke-linecap="round" stroke-linejoin="round"/>
<path d="M74.95 111.445C76.47 111.535 75.09 113.775 74.38 113.445C73.67 113.115 74.95 111.445 74.95 111.445Z" stroke="black" stroke-linecap="round" stroke-linejoin="round"/>
<path d="M38.31 116.126C37.61 115.846 38.87 113.926 38.87 113.926C38.87 113.926 39.72 116.676 38.31 116.126Z" stroke="black" stroke-linecap="round" stroke-linejoin="round"/>
<path d="M86.25 108.556C87.55 108.796 86.93 112.136 85.66 111.716C84.39 111.296 86.25 108.556 86.25 108.556Z" stroke="black" stroke-linecap="round" stroke-linejoin="round"/>
<path d="M50.32 159.786L53.45 153.246L50.32 153.366L53.69 144.186L54.66 147.126L58.49 144.756L55.15 151.586L57.13 151.706L52.84 158.636L55.89 158.276L50.57 166.616L52.6 159.536L50.32 159.786Z" fill="#FFE23F"/>
<path d="M50.35 159.725L53.48 153.185L50.35 153.305L53.73 144.125L54.69 147.065L58.52 144.695L55.19 151.525L57.17 151.645L52.88 158.575L55.93 158.215L50.61 166.555L52.64 159.475L50.35 159.725Z" stroke="black" stroke-linecap="round" stroke-linejoin="round"/>
</svg>
