<svg width="15" height="21" viewBox="0 0 15 21" fill="none" xmlns="http://www.w3.org/2000/svg">
<path fill-rule="evenodd" clip-rule="evenodd" d="M13.5779 0.653922C14.1024 1.29509 14.719 2.07918 14.0778 2.60377C14.0778 2.60377 11.9988 4.91216 10.128 6.44284C8.25717 7.97351 4.49677 10.4428 4.49677 10.4428C4.49677 10.4428 8 12.8624 9.5 14.3624C11 15.8624 13 17.3646 13 17.3646C13.6412 17.8892 14.0778 18.3646 13.5779 19.614C13.0533 20.2552 12.8193 21.1284 12.1781 20.6038C12.1781 20.6038 7.14789 16.1197 5 14.3624C2.85212 12.605 2 12.1038 2 12.1038C1.6518 11.8189 0 10.8927 0 10.4428C0 9.99294 0.829931 9.56679 1.17813 9.2819C1.17813 9.2819 4.92996 6.41128 7.07785 4.65392C9.22573 2.89656 12.1781 0.281901 12.1781 0.281901C12.8193 -0.24269 13.0533 0.0127552 13.5779 0.653922Z" fill="#9E9E9E"/>
</svg>
