<svg width="327" height="64" viewBox="0 0 327 64" fill="none" xmlns="http://www.w3.org/2000/svg">
<g filter="url(#filter0_d)">
<rect x="10.5" y="10.5" width="306" height="39" rx="5.5" fill="#9D0000" stroke="#9D0000"/>
<rect x="10.5" y="6.5" width="306" height="41" rx="5.5" fill="#E53935" stroke="#9D0000"/>
<path d="M73.4489 32.238C72.7862 32.238 72.1702 32.1167 71.6009 31.874C71.0409 31.622 70.5509 31.272 70.1309 30.824C69.7109 30.3667 69.3795 29.8207 69.1369 29.186C68.9035 28.542 68.7869 27.8233 68.7869 27.03C68.7869 26.1713 68.9315 25.4107 69.2209 24.748C69.5195 24.076 69.9115 23.5113 70.3969 23.054C70.8822 22.5873 71.4422 22.2327 72.0769 21.99C72.7115 21.7473 73.3649 21.626 74.0369 21.626C74.7649 21.626 75.4322 21.752 76.0389 22.004C76.6549 22.2467 77.1822 22.592 77.6209 23.04C78.0689 23.488 78.4142 24.0293 78.6569 24.664C78.8995 25.2893 79.0209 25.9893 79.0209 26.764C79.0209 27.7067 78.8529 28.5233 78.5169 29.214C78.1809 29.9047 77.7469 30.474 77.2149 30.922C76.6829 31.37 76.0855 31.7013 75.4229 31.916C74.7602 32.1307 74.1022 32.238 73.4489 32.238ZM73.5469 30.152C73.8549 30.152 74.2002 30.1053 74.5829 30.012C74.9655 29.9187 75.3249 29.746 75.6609 29.494C75.9969 29.242 76.2815 28.8967 76.5149 28.458C76.7482 28.0193 76.8649 27.4547 76.8649 26.764C76.8649 26.2507 76.7855 25.798 76.6269 25.406C76.4775 25.014 76.2722 24.692 76.0109 24.44C75.7589 24.1787 75.4649 23.9827 75.1289 23.852C74.8022 23.7213 74.4569 23.656 74.0929 23.656C73.6822 23.656 73.2855 23.726 72.9029 23.866C72.5202 23.9967 72.1795 24.202 71.8809 24.482C71.5822 24.7527 71.3395 25.1027 71.1529 25.532C70.9755 25.9613 70.8869 26.47 70.8869 27.058C70.8869 27.5713 70.9522 28.024 71.0829 28.416C71.2135 28.7987 71.3955 29.1207 71.6289 29.382C71.8715 29.634 72.1562 29.8253 72.4829 29.956C72.8095 30.0867 73.1642 30.152 73.5469 30.152ZM80.7258 27.842C80.5298 27.7207 80.3898 27.5807 80.3058 27.422C80.2311 27.2633 80.1938 27.1047 80.1938 26.946C80.1938 26.722 80.2451 26.5027 80.3478 26.288C80.4598 26.0733 80.6185 25.9193 80.8238 25.826C81.0571 25.8167 81.2811 25.812 81.4958 25.812C81.7198 25.812 81.9531 25.8073 82.1958 25.798C82.4385 25.7887 82.6951 25.7793 82.9658 25.77C83.2458 25.7513 83.5631 25.7187 83.9178 25.672C84.1045 25.7933 84.2351 25.9427 84.3098 26.12C84.3938 26.288 84.4358 26.4513 84.4358 26.61C84.4358 26.834 84.3798 27.0533 84.2678 27.268C84.1651 27.4827 84.0111 27.6367 83.8058 27.73C83.4885 27.7673 83.2085 27.7907 82.9658 27.8C82.7325 27.8093 82.5038 27.814 82.2798 27.814C82.0558 27.814 81.8178 27.814 81.5658 27.814C81.3231 27.814 81.0431 27.8233 80.7258 27.842ZM90.0192 32.238C89.3565 32.238 88.7405 32.1167 88.1712 31.874C87.6112 31.622 87.1212 31.272 86.7012 30.824C86.2812 30.3667 85.9498 29.8207 85.7072 29.186C85.4738 28.542 85.3572 27.8233 85.3572 27.03C85.3572 26.1713 85.5018 25.4107 85.7912 24.748C86.0898 24.076 86.4818 23.5113 86.9672 23.054C87.4525 22.5873 88.0125 22.2327 88.6472 21.99C89.2818 21.7473 89.9352 21.626 90.6072 21.626C91.3352 21.626 92.0025 21.752 92.6092 22.004C93.2252 22.2467 93.7525 22.592 94.1912 23.04C94.6392 23.488 94.9845 24.0293 95.2272 24.664C95.4698 25.2893 95.5912 25.9893 95.5912 26.764C95.5912 27.7067 95.4232 28.5233 95.0872 29.214C94.7512 29.9047 94.3172 30.474 93.7852 30.922C93.2532 31.37 92.6558 31.7013 91.9932 31.916C91.3305 32.1307 90.6725 32.238 90.0192 32.238ZM90.1172 30.152C90.4252 30.152 90.7705 30.1053 91.1532 30.012C91.5358 29.9187 91.8952 29.746 92.2312 29.494C92.5672 29.242 92.8518 28.8967 93.0852 28.458C93.3185 28.0193 93.4352 27.4547 93.4352 26.764C93.4352 26.2507 93.3558 25.798 93.1972 25.406C93.0478 25.014 92.8425 24.692 92.5812 24.44C92.3292 24.1787 92.0352 23.9827 91.6992 23.852C91.3725 23.7213 91.0272 23.656 90.6632 23.656C90.2525 23.656 89.8558 23.726 89.4732 23.866C89.0905 23.9967 88.7498 24.202 88.4512 24.482C88.1525 24.7527 87.9098 25.1027 87.7232 25.532C87.5458 25.9613 87.4572 26.47 87.4572 27.058C87.4572 27.5713 87.5225 28.024 87.6532 28.416C87.7838 28.7987 87.9658 29.1207 88.1992 29.382C88.4418 29.634 88.7265 29.8253 89.0532 29.956C89.3798 30.0867 89.7345 30.152 90.1172 30.152ZM97.2961 27.842C97.1001 27.7207 96.9601 27.5807 96.8761 27.422C96.8014 27.2633 96.7641 27.1047 96.7641 26.946C96.7641 26.722 96.8154 26.5027 96.9181 26.288C97.0301 26.0733 97.1888 25.9193 97.3941 25.826C97.6274 25.8167 97.8514 25.812 98.0661 25.812C98.2901 25.812 98.5234 25.8073 98.7661 25.798C99.0088 25.7887 99.2654 25.7793 99.5361 25.77C99.8161 25.7513 100.133 25.7187 100.488 25.672C100.675 25.7933 100.805 25.9427 100.88 26.12C100.964 26.288 101.006 26.4513 101.006 26.61C101.006 26.834 100.95 27.0533 100.838 27.268C100.735 27.4827 100.581 27.6367 100.376 27.73C100.059 27.7673 99.7788 27.7907 99.5361 27.8C99.3028 27.8093 99.0741 27.814 98.8501 27.814C98.6261 27.814 98.3881 27.814 98.1361 27.814C97.8934 27.814 97.6134 27.8233 97.2961 27.842ZM106.589 32.238C105.927 32.238 105.311 32.1167 104.741 31.874C104.181 31.622 103.691 31.272 103.271 30.824C102.851 30.3667 102.52 29.8207 102.277 29.186C102.044 28.542 101.927 27.8233 101.927 27.03C101.927 26.1713 102.072 25.4107 102.361 24.748C102.66 24.076 103.052 23.5113 103.537 23.054C104.023 22.5873 104.583 22.2327 105.217 21.99C105.852 21.7473 106.505 21.626 107.177 21.626C107.905 21.626 108.573 21.752 109.179 22.004C109.795 22.2467 110.323 22.592 110.761 23.04C111.209 23.488 111.555 24.0293 111.797 24.664C112.04 25.2893 112.161 25.9893 112.161 26.764C112.161 27.7067 111.993 28.5233 111.657 29.214C111.321 29.9047 110.887 30.474 110.355 30.922C109.823 31.37 109.226 31.7013 108.563 31.916C107.901 32.1307 107.243 32.238 106.589 32.238ZM106.687 30.152C106.995 30.152 107.341 30.1053 107.723 30.012C108.106 29.9187 108.465 29.746 108.801 29.494C109.137 29.242 109.422 28.8967 109.655 28.458C109.889 28.0193 110.005 27.4547 110.005 26.764C110.005 26.2507 109.926 25.798 109.767 25.406C109.618 25.014 109.413 24.692 109.151 24.44C108.899 24.1787 108.605 23.9827 108.269 23.852C107.943 23.7213 107.597 23.656 107.233 23.656C106.823 23.656 106.426 23.726 106.043 23.866C105.661 23.9967 105.32 24.202 105.021 24.482C104.723 24.7527 104.48 25.1027 104.293 25.532C104.116 25.9613 104.027 26.47 104.027 27.058C104.027 27.5713 104.093 28.024 104.223 28.416C104.354 28.7987 104.536 29.1207 104.769 29.382C105.012 29.634 105.297 29.8253 105.623 29.956C105.95 30.0867 106.305 30.152 106.687 30.152ZM113.264 30.95C113.302 30.7913 113.348 30.642 113.404 30.502C113.47 30.362 113.558 30.2407 113.67 30.138C113.792 30.026 113.941 29.9373 114.118 29.872C114.305 29.8067 114.534 29.774 114.804 29.774C114.926 29.774 115.056 29.7973 115.196 29.844C115.336 29.8907 115.467 29.9653 115.588 30.068C115.71 30.1707 115.812 30.3013 115.896 30.46C115.98 30.6187 116.032 30.8147 116.05 31.048C115.994 31.2907 115.901 31.4913 115.77 31.65C115.64 31.8087 115.495 31.93 115.336 32.014C115.178 32.1073 115.01 32.1727 114.832 32.21C114.664 32.2473 114.51 32.266 114.37 32.266C113.95 32.1633 113.661 32 113.502 31.776C113.344 31.5427 113.264 31.2673 113.264 30.95ZM117.024 30.95C117.062 30.7913 117.108 30.642 117.164 30.502C117.23 30.362 117.318 30.2407 117.43 30.138C117.552 30.026 117.701 29.9373 117.878 29.872C118.065 29.8067 118.294 29.774 118.564 29.774C118.686 29.774 118.816 29.7973 118.956 29.844C119.096 29.8907 119.227 29.9653 119.348 30.068C119.47 30.1707 119.572 30.3013 119.656 30.46C119.74 30.6187 119.792 30.8147 119.81 31.048C119.754 31.2907 119.661 31.4913 119.53 31.65C119.4 31.8087 119.255 31.93 119.096 32.014C118.938 32.1073 118.77 32.1727 118.592 32.21C118.424 32.2473 118.27 32.266 118.13 32.266C117.71 32.1633 117.421 32 117.262 31.776C117.104 31.5427 117.024 31.2673 117.024 30.95ZM120.784 30.95C120.821 30.7913 120.868 30.642 120.924 30.502C120.989 30.362 121.078 30.2407 121.19 30.138C121.311 30.026 121.461 29.9373 121.638 29.872C121.825 29.8067 122.053 29.774 122.324 29.774C122.445 29.774 122.576 29.7973 122.716 29.844C122.856 29.8907 122.987 29.9653 123.108 30.068C123.229 30.1707 123.332 30.3013 123.416 30.46C123.5 30.6187 123.551 30.8147 123.57 31.048C123.514 31.2907 123.421 31.4913 123.29 31.65C123.159 31.8087 123.015 31.93 122.856 32.014C122.697 32.1073 122.529 32.1727 122.352 32.21C122.184 32.2473 122.03 32.266 121.89 32.266C121.47 32.1633 121.181 32 121.022 31.776C120.863 31.5427 120.784 31.2673 120.784 30.95ZM128.398 30.194C128.538 30.1193 128.711 30.0727 128.916 30.054C129.122 30.026 129.336 30.0027 129.56 29.984C129.719 29.7787 129.859 29.5173 129.98 29.2C130.102 28.8827 130.209 28.5373 130.302 28.164C130.405 27.7813 130.489 27.3847 130.554 26.974C130.62 26.554 130.676 26.148 130.722 25.756C130.769 25.3547 130.806 24.9813 130.834 24.636C130.862 24.2907 130.886 23.992 130.904 23.74C130.839 23.7493 130.736 23.7587 130.596 23.768C130.456 23.7773 130.368 23.782 130.33 23.782C130.116 23.6233 129.957 23.446 129.854 23.25C129.761 23.0447 129.714 22.844 129.714 22.648C129.714 22.508 129.738 22.3633 129.784 22.214C129.84 22.0647 129.929 21.9247 130.05 21.794C130.396 21.7193 130.834 21.654 131.366 21.598C131.908 21.5327 132.468 21.4767 133.046 21.43C133.634 21.3833 134.204 21.346 134.754 21.318C135.314 21.29 135.786 21.2667 136.168 21.248C136.346 21.3133 136.495 21.402 136.616 21.514C136.747 21.6167 136.85 21.7613 136.924 21.948C136.962 22.2747 136.99 22.6713 137.008 23.138C137.027 23.5953 137.036 24.1367 137.036 24.762C137.046 25.3873 137.05 26.0967 137.05 26.89C137.05 27.6833 137.046 28.57 137.036 29.55C137.298 29.5033 137.568 29.508 137.848 29.564C138.128 29.6107 138.413 29.69 138.702 29.802C138.702 29.9887 138.698 30.222 138.688 30.502C138.679 30.782 138.665 31.076 138.646 31.384C138.637 31.692 138.628 31.9953 138.618 32.294C138.618 32.602 138.623 32.8727 138.632 33.106C138.52 33.2927 138.404 33.4327 138.282 33.526C138.161 33.6193 138.026 33.6847 137.876 33.722C137.736 33.7687 137.582 33.792 137.414 33.792C137.246 33.8013 137.069 33.806 136.882 33.806C136.78 33.694 136.696 33.5447 136.63 33.358C136.574 33.1713 136.532 32.9753 136.504 32.77C136.476 32.574 136.462 32.378 136.462 32.182C136.462 31.986 136.472 31.818 136.49 31.678C136.164 31.6967 135.809 31.7153 135.426 31.734C135.053 31.7527 134.624 31.776 134.138 31.804C133.662 31.832 133.121 31.8647 132.514 31.902C131.908 31.93 131.212 31.9627 130.428 32C130.447 32.1867 130.466 32.4013 130.484 32.644C130.512 32.896 130.531 33.1153 130.54 33.302C130.484 33.4327 130.377 33.5447 130.218 33.638C130.06 33.7313 129.882 33.8107 129.686 33.876C129.5 33.9507 129.304 34.002 129.098 34.03C128.902 34.0673 128.73 34.086 128.58 34.086C128.422 33.386 128.319 32.7233 128.272 32.098C128.226 31.4727 128.268 30.838 128.398 30.194ZM134.866 29.704C134.894 29.3307 134.913 28.864 134.922 28.304C134.941 27.744 134.955 27.1607 134.964 26.554C134.974 25.9473 134.969 25.3593 134.95 24.79C134.941 24.2207 134.922 23.7447 134.894 23.362C134.726 23.3713 134.54 23.3807 134.334 23.39C134.138 23.3993 133.942 23.4087 133.746 23.418C133.56 23.4273 133.392 23.4413 133.242 23.46C133.093 23.4693 132.981 23.4787 132.906 23.488C132.85 25.028 132.734 26.33 132.556 27.394C132.388 28.4487 132.178 29.284 131.926 29.9L134.866 29.704ZM139.645 31.706C139.627 31.622 139.664 31.4307 139.757 31.132C139.851 30.824 139.977 30.4507 140.135 30.012C140.294 29.564 140.481 29.0693 140.695 28.528C140.919 27.9773 141.153 27.422 141.395 26.862C141.638 26.2927 141.881 25.742 142.123 25.21C142.366 24.6687 142.595 24.1787 142.809 23.74C142.809 23.7307 142.805 23.726 142.795 23.726C142.786 23.7167 142.781 23.7073 142.781 23.698C142.735 23.6047 142.683 23.5113 142.627 23.418C142.581 23.3247 142.52 23.1847 142.445 22.998C142.604 22.634 142.791 22.3493 143.005 22.144C143.22 21.9293 143.514 21.808 143.887 21.78C144.093 21.836 144.317 21.9993 144.559 22.27C144.802 22.5407 145.045 22.8767 145.287 23.278C145.539 23.6793 145.791 24.132 146.043 24.636C146.295 25.14 146.538 25.658 146.771 26.19C147.014 26.722 147.243 27.254 147.457 27.786C147.672 28.3087 147.863 28.794 148.031 29.242C148.209 29.69 148.353 30.082 148.465 30.418C148.587 30.7447 148.675 30.9827 148.731 31.132C148.675 31.2627 148.577 31.3933 148.437 31.524C148.307 31.6453 148.153 31.7573 147.975 31.86C147.807 31.9533 147.63 32.0233 147.443 32.07C147.266 32.126 147.107 32.14 146.967 32.112C146.79 31.7667 146.631 31.4307 146.491 31.104C146.361 30.7773 146.239 30.488 146.127 30.236V30.18C145.521 30.2547 144.867 30.334 144.167 30.418C143.477 30.4927 142.819 30.5673 142.193 30.642C142.175 30.6607 142.156 30.6887 142.137 30.726C142.128 30.754 142.105 30.81 142.067 30.894C142.039 30.978 141.993 31.0993 141.927 31.258C141.862 31.4167 141.773 31.636 141.661 31.916C141.596 32.0467 141.489 32.1447 141.339 32.21C141.19 32.2847 141.022 32.322 140.835 32.322C140.658 32.322 140.467 32.2847 140.261 32.21C140.065 32.1447 139.893 32.042 139.743 31.902L139.645 31.706ZM145.399 28.248C145.325 28.0427 145.236 27.8187 145.133 27.576C145.04 27.3333 144.937 27.0907 144.825 26.848C144.713 26.6053 144.601 26.372 144.489 26.148C144.387 25.9147 144.289 25.7047 144.195 25.518C144.167 25.5833 144.135 25.6673 144.097 25.77C144.06 25.8633 143.995 26.0173 143.901 26.232C143.808 26.4467 143.682 26.7453 143.523 27.128C143.365 27.5013 143.155 28.0007 142.893 28.626L145.399 28.248ZM157.963 30.95C158.001 30.7913 158.047 30.642 158.103 30.502C158.169 30.362 158.257 30.2407 158.369 30.138C158.491 30.026 158.64 29.9373 158.817 29.872C159.004 29.8067 159.233 29.774 159.503 29.774C159.625 29.774 159.755 29.7973 159.895 29.844C160.035 29.8907 160.166 29.9653 160.287 30.068C160.409 30.1707 160.511 30.3013 160.595 30.46C160.679 30.6187 160.731 30.8147 160.749 31.048C160.693 31.2907 160.6 31.4913 160.469 31.65C160.339 31.8087 160.194 31.93 160.035 32.014C159.877 32.1073 159.709 32.1727 159.531 32.21C159.363 32.2473 159.209 32.266 159.069 32.266C158.649 32.1633 158.36 32 158.201 31.776C158.043 31.5427 157.963 31.2673 157.963 30.95ZM153.763 30.95C153.801 30.7913 153.847 30.642 153.903 30.502C153.969 30.362 154.057 30.2407 154.169 30.138C154.291 30.026 154.44 29.9373 154.617 29.872C154.804 29.8067 155.033 29.774 155.303 29.774C155.425 29.774 155.555 29.7973 155.695 29.844C155.835 29.8907 155.966 29.9653 156.087 30.068C156.209 30.1707 156.311 30.3013 156.395 30.46C156.479 30.6187 156.531 30.8147 156.549 31.048C156.493 31.2907 156.4 31.4913 156.269 31.65C156.139 31.8087 155.994 31.93 155.835 32.014C155.677 32.1073 155.509 32.1727 155.331 32.21C155.163 32.2473 155.009 32.266 154.869 32.266C154.449 32.1633 154.16 32 154.001 31.776C153.843 31.5427 153.763 31.2673 153.763 30.95ZM149.563 30.95C149.601 30.7913 149.647 30.642 149.703 30.502C149.769 30.362 149.857 30.2407 149.969 30.138C150.091 30.026 150.24 29.9373 150.417 29.872C150.604 29.8067 150.833 29.774 151.103 29.774C151.225 29.774 151.355 29.7973 151.495 29.844C151.635 29.8907 151.766 29.9653 151.887 30.068C152.009 30.1707 152.111 30.3013 152.195 30.46C152.279 30.6187 152.331 30.8147 152.349 31.048C152.293 31.2907 152.2 31.4913 152.069 31.65C151.939 31.8087 151.794 31.93 151.635 32.014C151.477 32.1073 151.309 32.1727 151.131 32.21C150.963 32.2473 150.809 32.266 150.669 32.266C150.249 32.1633 149.96 32 149.801 31.776C149.643 31.5427 149.563 31.2673 149.563 30.95ZM166.44 31.65C166.412 31.5287 166.393 31.2673 166.384 30.866C166.374 30.4647 166.365 29.9933 166.356 29.452C166.346 28.9013 166.337 28.3133 166.328 27.688C166.328 27.0627 166.328 26.47 166.328 25.91C166.328 25.3407 166.323 24.8367 166.314 24.398C166.314 23.95 166.309 23.6373 166.3 23.46C166.216 23.3293 166.155 23.2033 166.118 23.082C166.09 22.9513 166.066 22.7927 166.048 22.606C166.113 22.4567 166.216 22.3213 166.356 22.2C166.496 22.0693 166.64 21.9573 166.79 21.864C166.948 21.7707 167.098 21.7007 167.238 21.654C167.387 21.6073 167.494 21.584 167.56 21.584C167.69 21.612 167.784 21.64 167.84 21.668C167.896 21.6867 167.952 21.7147 168.008 21.752C168.409 21.6867 169.104 21.6027 170.094 21.5C171.083 21.388 172.329 21.3227 173.832 21.304C174 21.3507 174.154 21.4253 174.294 21.528C174.434 21.6307 174.564 21.7753 174.686 21.962C174.723 22.1207 174.751 22.4053 174.77 22.816C174.788 23.2267 174.802 23.7167 174.812 24.286C174.821 24.846 174.826 25.4573 174.826 26.12C174.826 26.7733 174.826 27.4173 174.826 28.052C174.826 28.6867 174.821 29.2887 174.812 29.858C174.812 30.418 174.816 30.8847 174.826 31.258C174.751 31.5007 174.606 31.6873 174.392 31.818C174.186 31.9393 173.962 32 173.72 32C173.514 32 173.314 31.9533 173.118 31.86C172.922 31.7667 172.754 31.6267 172.614 31.44C172.614 31.2907 172.614 31.02 172.614 30.628C172.623 30.236 172.628 29.7833 172.628 29.27C172.637 28.7473 172.646 28.192 172.656 27.604C172.665 27.0067 172.665 26.4327 172.656 25.882C172.656 25.3313 172.651 24.832 172.642 24.384C172.632 23.936 172.618 23.5953 172.6 23.362C172.292 23.3713 171.923 23.3853 171.494 23.404C171.074 23.4227 170.658 23.446 170.248 23.474C169.846 23.502 169.482 23.5347 169.156 23.572C168.829 23.6 168.61 23.6327 168.498 23.67C168.498 23.8567 168.498 24.1553 168.498 24.566C168.507 24.9673 168.512 25.4247 168.512 25.938C168.521 26.4513 168.53 26.9927 168.54 27.562C168.549 28.1313 168.558 28.6773 168.568 29.2C168.577 29.7133 168.586 30.18 168.596 30.6C168.605 31.02 168.61 31.3373 168.61 31.552C168.47 31.776 168.288 31.944 168.064 32.056C167.84 32.168 167.62 32.224 167.406 32.224C167.21 32.224 167.028 32.182 166.86 32.098C166.701 32.014 166.561 31.8647 166.44 31.65ZM180.896 32.238C180.233 32.238 179.617 32.1167 179.048 31.874C178.488 31.622 177.998 31.272 177.578 30.824C177.158 30.3667 176.827 29.8207 176.584 29.186C176.351 28.542 176.234 27.8233 176.234 27.03C176.234 26.1713 176.379 25.4107 176.668 24.748C176.967 24.076 177.359 23.5113 177.844 23.054C178.329 22.5873 178.889 22.2327 179.524 21.99C180.159 21.7473 180.812 21.626 181.484 21.626C182.212 21.626 182.879 21.752 183.486 22.004C184.102 22.2467 184.629 22.592 185.068 23.04C185.516 23.488 185.861 24.0293 186.104 24.664C186.347 25.2893 186.468 25.9893 186.468 26.764C186.468 27.7067 186.3 28.5233 185.964 29.214C185.628 29.9047 185.194 30.474 184.662 30.922C184.13 31.37 183.533 31.7013 182.87 31.916C182.207 32.1307 181.549 32.238 180.896 32.238ZM180.994 30.152C181.302 30.152 181.647 30.1053 182.03 30.012C182.413 29.9187 182.772 29.746 183.108 29.494C183.444 29.242 183.729 28.8967 183.962 28.458C184.195 28.0193 184.312 27.4547 184.312 26.764C184.312 26.2507 184.233 25.798 184.074 25.406C183.925 25.014 183.719 24.692 183.458 24.44C183.206 24.1787 182.912 23.9827 182.576 23.852C182.249 23.7213 181.904 23.656 181.54 23.656C181.129 23.656 180.733 23.726 180.35 23.866C179.967 23.9967 179.627 24.202 179.328 24.482C179.029 24.7527 178.787 25.1027 178.6 25.532C178.423 25.9613 178.334 26.47 178.334 27.058C178.334 27.5713 178.399 28.024 178.53 28.416C178.661 28.7987 178.843 29.1207 179.076 29.382C179.319 29.634 179.603 29.8253 179.93 29.956C180.257 30.0867 180.611 30.152 180.994 30.152ZM188.383 32.042C188.355 31.7247 188.332 31.3747 188.313 30.992C188.304 30.6093 188.294 30.2173 188.285 29.816C188.276 29.4053 188.266 28.9947 188.257 28.584C188.257 28.1733 188.257 27.7767 188.257 27.394C188.257 26.75 188.257 26.1947 188.257 25.728C188.266 25.2613 188.276 24.8833 188.285 24.594C188.098 24.4447 187.977 24.2673 187.921 24.062C187.874 23.8567 187.907 23.6047 188.019 23.306C188.327 22.9233 188.672 22.6247 189.055 22.41C189.447 22.186 189.848 22.0227 190.259 21.92C190.67 21.808 191.085 21.738 191.505 21.71C191.925 21.682 192.317 21.668 192.681 21.668C193.092 21.668 193.521 21.724 193.969 21.836C194.417 21.9387 194.828 22.0973 195.201 22.312C195.574 22.5173 195.882 22.774 196.125 23.082C196.368 23.39 196.489 23.7493 196.489 24.16C196.489 24.6267 196.382 25.056 196.167 25.448C195.952 25.8307 195.672 26.1807 195.327 26.498C194.982 26.8153 194.585 27.0953 194.137 27.338C193.698 27.5807 193.25 27.7907 192.793 27.968C192.336 28.1453 191.888 28.2853 191.449 28.388C191.01 28.4907 190.628 28.5607 190.301 28.598C190.31 29.1767 190.324 29.7367 190.343 30.278C190.371 30.8193 190.39 31.3887 190.399 31.986C190.175 32.1447 189.956 32.252 189.741 32.308C189.536 32.3733 189.354 32.406 189.195 32.406C189.046 32.406 188.901 32.378 188.761 32.322C188.63 32.2753 188.504 32.182 188.383 32.042ZM190.301 26.666C190.478 26.6473 190.702 26.61 190.973 26.554C191.244 26.498 191.524 26.4233 191.813 26.33C192.112 26.2367 192.406 26.1293 192.695 26.008C192.994 25.8773 193.26 25.728 193.493 25.56C193.736 25.392 193.927 25.2053 194.067 25C194.216 24.7947 194.291 24.566 194.291 24.314C194.291 24.1647 194.23 24.0387 194.109 23.936C193.988 23.8333 193.834 23.754 193.647 23.698C193.46 23.6327 193.25 23.5907 193.017 23.572C192.793 23.544 192.574 23.53 192.359 23.53C192.21 23.53 192.042 23.544 191.855 23.572C191.678 23.6 191.496 23.6373 191.309 23.684C191.132 23.7213 190.964 23.768 190.805 23.824C190.646 23.8707 190.516 23.9173 190.413 23.964C190.394 24.132 190.38 24.3327 190.371 24.566C190.362 24.79 190.352 25.0233 190.343 25.266C190.334 25.5087 190.324 25.7513 190.315 25.994C190.315 26.2367 190.31 26.4607 190.301 26.666ZM197.149 31.706C197.13 31.622 197.168 31.4307 197.261 31.132C197.354 30.824 197.48 30.4507 197.639 30.012C197.798 29.564 197.984 29.0693 198.199 28.528C198.423 27.9773 198.656 27.422 198.899 26.862C199.142 26.2927 199.384 25.742 199.627 25.21C199.87 24.6687 200.098 24.1787 200.313 23.74C200.313 23.7307 200.308 23.726 200.299 23.726C200.29 23.7167 200.285 23.7073 200.285 23.698C200.238 23.6047 200.187 23.5113 200.131 23.418C200.084 23.3247 200.024 23.1847 199.949 22.998C200.108 22.634 200.294 22.3493 200.509 22.144C200.724 21.9293 201.018 21.808 201.391 21.78C201.596 21.836 201.82 21.9993 202.063 22.27C202.306 22.5407 202.548 22.8767 202.791 23.278C203.043 23.6793 203.295 24.132 203.547 24.636C203.799 25.14 204.042 25.658 204.275 26.19C204.518 26.722 204.746 27.254 204.961 27.786C205.176 28.3087 205.367 28.794 205.535 29.242C205.712 29.69 205.857 30.082 205.969 30.418C206.09 30.7447 206.179 30.9827 206.235 31.132C206.179 31.2627 206.081 31.3933 205.941 31.524C205.81 31.6453 205.656 31.7573 205.479 31.86C205.311 31.9533 205.134 32.0233 204.947 32.07C204.77 32.126 204.611 32.14 204.471 32.112C204.294 31.7667 204.135 31.4307 203.995 31.104C203.864 30.7773 203.743 30.488 203.631 30.236V30.18C203.024 30.2547 202.371 30.334 201.671 30.418C200.98 30.4927 200.322 30.5673 199.697 30.642C199.678 30.6607 199.66 30.6887 199.641 30.726C199.632 30.754 199.608 30.81 199.571 30.894C199.543 30.978 199.496 31.0993 199.431 31.258C199.366 31.4167 199.277 31.636 199.165 31.916C199.1 32.0467 198.992 32.1447 198.843 32.21C198.694 32.2847 198.526 32.322 198.339 32.322C198.162 32.322 197.97 32.2847 197.765 32.21C197.569 32.1447 197.396 32.042 197.247 31.902L197.149 31.706ZM202.903 28.248C202.828 28.0427 202.74 27.8187 202.637 27.576C202.544 27.3333 202.441 27.0907 202.329 26.848C202.217 26.6053 202.105 26.372 201.993 26.148C201.89 25.9147 201.792 25.7047 201.699 25.518C201.671 25.5833 201.638 25.6673 201.601 25.77C201.564 25.8633 201.498 26.0173 201.405 26.232C201.312 26.4467 201.186 26.7453 201.027 27.128C200.868 27.5013 200.658 28.0007 200.397 28.626L202.903 28.248ZM71.3729 46.16C71.3542 45.488 71.3356 44.76 71.3169 43.976C71.3076 43.1827 71.3076 42.3753 71.3169 41.554C71.3262 40.7327 71.3542 39.9207 71.4009 39.118C71.4476 38.306 71.5269 37.5547 71.6389 36.864C71.8069 36.8173 71.9982 36.794 72.2129 36.794C72.4276 36.7847 72.6329 36.7987 72.8289 36.836C73.0342 36.8733 73.2209 36.934 73.3889 37.018C73.5569 37.102 73.6782 37.214 73.7529 37.354C73.7156 37.6247 73.6829 37.9607 73.6549 38.362C73.6362 38.754 73.6176 39.1833 73.5989 39.65C73.5802 40.1167 73.5616 40.6067 73.5429 41.12C73.5336 41.6333 73.5242 42.142 73.5149 42.646C73.5149 43.15 73.5149 43.6353 73.5149 44.102C73.5149 44.5593 73.5196 44.9747 73.5289 45.348C73.7996 45.3293 74.1262 45.3107 74.5089 45.292C74.8916 45.264 75.4142 45.2267 76.0769 45.18C76.0862 44.9373 76.0909 44.6153 76.0909 44.214C76.0909 43.8127 76.0862 43.374 76.0769 42.898C76.0769 42.422 76.0722 41.9273 76.0629 41.414C76.0629 40.8913 76.0582 40.3873 76.0489 39.902C76.0489 39.4167 76.0489 38.9733 76.0489 38.572C76.0582 38.1613 76.0722 37.8253 76.0909 37.564C76.1469 37.4333 76.2496 37.326 76.3989 37.242C76.5576 37.158 76.7349 37.0973 76.9309 37.06C77.1269 37.0133 77.3276 36.99 77.5329 36.99C77.7476 36.99 77.9342 37.004 78.0929 37.032C78.1396 37.4987 78.1722 38.0633 78.1909 38.726C78.2096 39.3793 78.2236 40.07 78.2329 40.798C78.2422 41.526 78.2422 42.2633 78.2329 43.01C78.2236 43.7473 78.2142 44.438 78.2049 45.082C78.6249 45.0633 79.0542 45.0493 79.4929 45.04C79.9316 45.0213 80.3049 44.9887 80.6129 44.942C80.6222 44.6247 80.6269 44.2467 80.6269 43.808C80.6269 43.3693 80.6222 42.9073 80.6129 42.422C80.6129 41.9273 80.6082 41.4233 80.5989 40.91C80.5989 40.3967 80.5942 39.9067 80.5849 39.44C80.5849 38.964 80.5896 38.5253 80.5989 38.124C80.6082 37.7227 80.6222 37.3913 80.6409 37.13C80.7249 36.934 80.8882 36.7893 81.1309 36.696C81.3736 36.6027 81.6209 36.556 81.8729 36.556C82.0409 36.556 82.2556 36.6027 82.5169 36.696C82.6009 36.9107 82.6662 37.2513 82.7129 37.718C82.7596 38.1753 82.7922 38.698 82.8109 39.286C82.8296 39.8647 82.8389 40.476 82.8389 41.12C82.8389 41.764 82.8296 42.3753 82.8109 42.954C82.8016 43.5233 82.7876 44.0273 82.7689 44.466C82.7502 44.9047 82.7362 45.2127 82.7269 45.39C82.7082 45.7353 82.6009 46.0387 82.4049 46.3C82.2089 46.5613 81.9802 46.7527 81.7189 46.874L72.4229 47.518C72.0309 47.3593 71.7649 47.1773 71.6249 46.972C71.4849 46.7573 71.4009 46.4867 71.3729 46.16ZM85.2148 46.202C85.1681 45.698 85.1261 45.194 85.0888 44.69C85.0608 44.186 85.0328 43.6027 85.0048 42.94C84.8741 42.8747 84.7808 42.772 84.7248 42.632C84.6688 42.4827 84.6408 42.3287 84.6408 42.17C84.6408 42.0113 84.6641 41.862 84.7108 41.722C84.7574 41.582 84.8321 41.4653 84.9348 41.372C84.9254 41.1293 84.9161 40.9193 84.9068 40.742C84.9068 40.5647 84.9068 40.406 84.9068 40.266C84.9068 40.126 84.9068 39.9907 84.9068 39.86C84.9068 39.7293 84.9068 39.5847 84.9068 39.426C84.5428 39.09 84.3608 38.656 84.3608 38.124C84.9674 37.62 85.6488 37.2467 86.4048 37.004C87.1701 36.752 88.0894 36.626 89.1628 36.626C89.6014 36.626 90.0214 36.6587 90.4228 36.724C90.8241 36.78 91.1788 36.8733 91.4868 37.004C91.7948 37.1347 92.0374 37.3027 92.2148 37.508C92.4014 37.704 92.4948 37.9467 92.4948 38.236C92.4948 38.796 92.3548 39.2767 92.0748 39.678C91.7948 40.07 91.4214 40.4247 90.9548 40.742C91.2628 40.798 91.5428 40.8727 91.7948 40.966C92.0561 41.05 92.2801 41.1667 92.4668 41.316C92.6534 41.456 92.7981 41.6333 92.9008 41.848C93.0034 42.0627 93.0548 42.3287 93.0548 42.646C93.0548 43.4393 92.8448 44.1253 92.4248 44.704C92.0048 45.2733 91.4634 45.7447 90.8008 46.118C90.1474 46.482 89.4148 46.7573 88.6028 46.944C87.8001 47.1307 87.0068 47.2287 86.2228 47.238C85.9801 47.238 85.7794 47.1447 85.6208 46.958C85.4714 46.762 85.3361 46.51 85.2148 46.202ZM87.0768 40.686C88.0754 40.4993 88.8594 40.2473 89.4288 39.93C90.0074 39.6127 90.2968 39.216 90.2968 38.74C90.2968 38.6467 90.1848 38.5767 89.9608 38.53C89.7368 38.4833 89.4894 38.46 89.2188 38.46C88.8361 38.46 88.4394 38.4973 88.0288 38.572C87.6274 38.6467 87.3008 38.7353 87.0488 38.838C87.0394 38.9127 87.0348 39.0293 87.0348 39.188C87.0348 39.3467 87.0348 39.5193 87.0348 39.706C87.0441 39.8833 87.0534 40.0653 87.0628 40.252C87.0721 40.4293 87.0768 40.574 87.0768 40.686ZM87.2868 45.152C87.6508 45.1053 88.0428 45.026 88.4628 44.914C88.8921 44.7927 89.2888 44.6387 89.6528 44.452C90.0168 44.2653 90.3201 44.0413 90.5628 43.78C90.8148 43.5187 90.9408 43.22 90.9408 42.884C90.9408 42.6973 90.8521 42.5433 90.6748 42.422C90.4974 42.2913 90.2034 42.226 89.7928 42.226C89.5968 42.226 89.3728 42.2447 89.1208 42.282C88.8688 42.31 88.6168 42.352 88.3648 42.408C88.1128 42.464 87.8794 42.5293 87.6648 42.604C87.4501 42.6787 87.2774 42.7533 87.1468 42.828C87.1468 43.2853 87.1608 43.7193 87.1888 44.13C87.2168 44.5407 87.2494 44.8813 87.2868 45.152ZM95.0002 46.552C94.9722 46.2813 94.9489 45.9127 94.9302 45.446C94.9209 44.9793 94.9115 44.4567 94.9022 43.878C94.9022 43.2993 94.9022 42.6833 94.9022 42.03C94.9022 41.3767 94.9022 40.7327 94.9022 40.098C94.9022 39.4633 94.9022 38.8567 94.9022 38.278C94.9115 37.6993 94.9162 37.1907 94.9162 36.752C95.0282 36.612 95.1682 36.5047 95.3362 36.43C95.5042 36.346 95.6815 36.2853 95.8682 36.248C96.0642 36.2107 96.2602 36.192 96.4562 36.192C96.6522 36.1827 96.8342 36.192 97.0022 36.22C97.0302 36.472 97.0489 36.794 97.0582 37.186C97.0769 37.5687 97.0862 37.9887 97.0862 38.446C97.0955 38.894 97.1002 39.3653 97.1002 39.86C97.1002 40.3453 97.0955 40.812 97.0862 41.26C97.0862 41.6987 97.0862 42.1093 97.0862 42.492C97.0862 42.8653 97.0862 43.164 97.0862 43.388C97.2915 43.0707 97.5295 42.6787 97.8002 42.212C98.0802 41.7453 98.3742 41.2553 98.6822 40.742C98.9995 40.2193 99.3215 39.7013 99.6482 39.188C99.9749 38.6747 100.288 38.208 100.586 37.788C100.894 37.368 101.179 37.0227 101.44 36.752C101.702 36.4813 101.926 36.3273 102.112 36.29C102.206 36.318 102.313 36.3507 102.434 36.388C102.565 36.4253 102.696 36.472 102.826 36.528C102.957 36.584 103.078 36.6493 103.19 36.724C103.312 36.7893 103.41 36.8687 103.484 36.962C103.512 37.074 103.531 37.312 103.54 37.676C103.559 38.0307 103.564 38.4553 103.554 38.95C103.554 39.4353 103.55 39.958 103.54 40.518C103.54 41.0687 103.531 41.6007 103.512 42.114C103.503 42.6273 103.494 43.0893 103.484 43.5C103.484 43.9013 103.484 44.1953 103.484 44.382C103.484 44.7647 103.489 45.11 103.498 45.418C103.508 45.726 103.526 46.0013 103.554 46.244C103.508 46.4027 103.414 46.5427 103.274 46.664C103.134 46.776 102.976 46.8647 102.798 46.93C102.621 46.986 102.444 47.014 102.266 47.014C102.089 47.0233 101.94 46.9953 101.818 46.93C101.697 46.846 101.594 46.72 101.51 46.552C101.436 46.3747 101.37 46.1647 101.314 45.922C101.268 45.67 101.235 45.3947 101.216 45.096C101.198 44.7973 101.188 44.48 101.188 44.144C101.188 43.668 101.202 43.1313 101.23 42.534C101.268 41.9367 101.31 41.2087 101.356 40.35C101.132 40.714 100.876 41.1293 100.586 41.596C100.306 42.0533 100.012 42.5293 99.7042 43.024C99.3962 43.5093 99.0835 43.9947 98.7662 44.48C98.4489 44.956 98.1502 45.39 97.8702 45.782C97.5902 46.1647 97.3382 46.4867 97.1142 46.748C96.8995 47 96.7315 47.154 96.6102 47.21C96.4235 47.1727 96.2602 47.14 96.1202 47.112C95.9895 47.0933 95.8635 47.0653 95.7422 47.028C95.6302 46.9907 95.5135 46.9393 95.3922 46.874C95.2802 46.7993 95.1495 46.692 95.0002 46.552ZM109.093 46.328C108.309 46.2907 107.651 46.1367 107.119 45.866C106.587 45.586 106.153 45.2407 105.817 44.83C105.49 44.4193 105.252 43.9667 105.103 43.472C104.963 42.9773 104.893 42.4873 104.893 42.002C104.893 41.3207 105.005 40.714 105.229 40.182C105.453 39.65 105.756 39.1973 106.139 38.824C106.531 38.4413 106.983 38.138 107.497 37.914C108.01 37.6807 108.561 37.522 109.149 37.438C109.13 37.3447 109.121 37.2747 109.121 37.228C109.121 37.1813 109.121 37.144 109.121 37.116C109.121 37.0787 109.116 37.0413 109.107 37.004C109.107 36.9573 109.097 36.892 109.079 36.808C109.172 36.556 109.391 36.3787 109.737 36.276C110.082 36.1733 110.507 36.122 111.011 36.122C111.067 36.3087 111.113 36.5 111.151 36.696C111.197 36.8827 111.23 37.06 111.249 37.228C111.818 37.228 112.364 37.3213 112.887 37.508C113.419 37.6947 113.885 37.9793 114.287 38.362C114.697 38.7447 115.024 39.2253 115.267 39.804C115.509 40.3827 115.631 41.0593 115.631 41.834C115.631 42.3287 115.533 42.8233 115.337 43.318C115.15 43.8127 114.87 44.2607 114.497 44.662C114.133 45.0633 113.675 45.3993 113.125 45.67C112.583 45.9407 111.958 46.0993 111.249 46.146C111.267 46.286 111.277 46.398 111.277 46.482C111.277 46.566 111.277 46.706 111.277 46.902C111.165 47.0607 110.997 47.1773 110.773 47.252C110.549 47.3267 110.334 47.364 110.129 47.364C109.989 47.364 109.849 47.3407 109.709 47.294C109.569 47.2473 109.447 47.1867 109.345 47.112C109.261 46.9813 109.2 46.8507 109.163 46.72C109.135 46.5893 109.111 46.4587 109.093 46.328ZM111.263 44.256C111.673 44.1907 112.019 44.0787 112.299 43.92C112.579 43.752 112.803 43.556 112.971 43.332C113.148 43.108 113.274 42.8607 113.349 42.59C113.423 42.3193 113.461 42.044 113.461 41.764C113.461 41.0173 113.265 40.4153 112.873 39.958C112.481 39.5007 111.972 39.2487 111.347 39.202L111.263 44.256ZM109.149 44.438C109.158 44.0553 109.163 43.696 109.163 43.36C109.172 43.024 109.177 42.6693 109.177 42.296C109.186 41.9133 109.191 41.4933 109.191 41.036C109.191 40.5693 109.191 40.0187 109.191 39.384C108.864 39.468 108.565 39.58 108.295 39.72C108.033 39.86 107.805 40.042 107.609 40.266C107.413 40.49 107.259 40.7653 107.147 41.092C107.044 41.4093 106.993 41.792 106.993 42.24C106.993 42.5387 107.049 42.814 107.161 43.066C107.273 43.318 107.427 43.542 107.623 43.738C107.819 43.9247 108.047 44.0787 108.309 44.2C108.57 44.3213 108.85 44.4007 109.149 44.438ZM119.683 46.958C119.645 46.7807 119.613 46.5053 119.585 46.132C119.566 45.7587 119.547 45.3293 119.529 44.844C119.519 44.3493 119.51 43.822 119.501 43.262C119.491 42.6927 119.482 42.1327 119.473 41.582C119.473 41.0313 119.473 40.5133 119.473 40.028C119.482 39.5333 119.491 39.1133 119.501 38.768C119.025 38.8427 118.572 38.9127 118.143 38.978C117.723 39.034 117.261 39.0713 116.757 39.09C116.579 38.81 116.458 38.516 116.393 38.208C116.327 37.9 116.346 37.62 116.449 37.368C116.645 37.284 116.939 37.2047 117.331 37.13C117.723 37.046 118.166 36.9667 118.661 36.892C119.155 36.8173 119.678 36.752 120.229 36.696C120.779 36.6307 121.307 36.5747 121.811 36.528C122.324 36.4813 122.791 36.444 123.211 36.416C123.631 36.388 123.962 36.374 124.205 36.374C124.307 36.4767 124.382 36.598 124.429 36.738C124.485 36.878 124.513 37.0273 124.513 37.186C124.513 37.3353 124.489 37.4893 124.443 37.648C124.396 37.7973 124.331 37.942 124.247 38.082C123.948 38.194 123.589 38.278 123.169 38.334C122.749 38.3807 122.221 38.4413 121.587 38.516L121.671 46.608C121.372 46.888 121.045 47.07 120.691 47.154C120.345 47.238 120.009 47.1727 119.683 46.958ZM123.745 46.706C123.726 46.622 123.764 46.4307 123.857 46.132C123.95 45.824 124.076 45.4507 124.235 45.012C124.394 44.564 124.58 44.0693 124.795 43.528C125.019 42.9773 125.252 42.422 125.495 41.862C125.738 41.2927 125.98 40.742 126.223 40.21C126.466 39.6687 126.694 39.1787 126.909 38.74C126.909 38.7307 126.904 38.726 126.895 38.726C126.886 38.7167 126.881 38.7073 126.881 38.698C126.834 38.6047 126.783 38.5113 126.727 38.418C126.68 38.3247 126.62 38.1847 126.545 37.998C126.704 37.634 126.89 37.3493 127.105 37.144C127.32 36.9293 127.614 36.808 127.987 36.78C128.192 36.836 128.416 36.9993 128.659 37.27C128.902 37.5407 129.144 37.8767 129.387 38.278C129.639 38.6793 129.891 39.132 130.143 39.636C130.395 40.14 130.638 40.658 130.871 41.19C131.114 41.722 131.342 42.254 131.557 42.786C131.772 43.3087 131.963 43.794 132.131 44.242C132.308 44.69 132.453 45.082 132.565 45.418C132.686 45.7447 132.775 45.9827 132.831 46.132C132.775 46.2627 132.677 46.3933 132.537 46.524C132.406 46.6453 132.252 46.7573 132.075 46.86C131.907 46.9533 131.73 47.0233 131.543 47.07C131.366 47.126 131.207 47.14 131.067 47.112C130.89 46.7667 130.731 46.4307 130.591 46.104C130.46 45.7773 130.339 45.488 130.227 45.236V45.18C129.62 45.2547 128.967 45.334 128.267 45.418C127.576 45.4927 126.918 45.5673 126.293 45.642C126.274 45.6607 126.256 45.6887 126.237 45.726C126.228 45.754 126.204 45.81 126.167 45.894C126.139 45.978 126.092 46.0993 126.027 46.258C125.962 46.4167 125.873 46.636 125.761 46.916C125.696 47.0467 125.588 47.1447 125.439 47.21C125.29 47.2847 125.122 47.322 124.935 47.322C124.758 47.322 124.566 47.2847 124.361 47.21C124.165 47.1447 123.992 47.042 123.843 46.902L123.745 46.706ZM129.499 43.248C129.424 43.0427 129.336 42.8187 129.233 42.576C129.14 42.3333 129.037 42.0907 128.925 41.848C128.813 41.6053 128.701 41.372 128.589 41.148C128.486 40.9147 128.388 40.7047 128.295 40.518C128.267 40.5833 128.234 40.6673 128.197 40.77C128.16 40.8633 128.094 41.0173 128.001 41.232C127.908 41.4467 127.782 41.7453 127.623 42.128C127.464 42.5013 127.254 43.0007 126.993 43.626L129.499 43.248ZM134.405 43.206C134.302 43.1127 134.228 42.9913 134.181 42.842C134.134 42.6927 134.111 42.5387 134.111 42.38C134.111 42.212 134.134 42.0533 134.181 41.904C134.237 41.7453 134.312 41.6147 134.405 41.512C134.405 41.344 134.396 41.0873 134.377 40.742C134.368 40.3873 134.354 40.0093 134.335 39.608C134.316 39.2067 134.302 38.8147 134.293 38.432C134.284 38.0493 134.284 37.7413 134.293 37.508C134.34 37.3587 134.428 37.2233 134.559 37.102C134.69 36.9713 134.844 36.8687 135.021 36.794C135.208 36.7193 135.408 36.6773 135.623 36.668C135.838 36.6493 136.052 36.6727 136.267 36.738C136.342 36.8687 136.398 37.074 136.435 37.354C136.482 37.634 136.514 37.9653 136.533 38.348C136.561 38.7307 136.58 39.1553 136.589 39.622C136.608 40.0793 136.622 40.56 136.631 41.064C137.042 41.0453 137.555 41.0127 138.171 40.966C138.787 40.91 139.529 40.8353 140.397 40.742C140.388 40.518 140.378 40.294 140.369 40.07C140.369 39.846 140.364 39.5987 140.355 39.328C140.355 39.0573 140.355 38.7587 140.355 38.432C140.355 38.1053 140.355 37.7273 140.355 37.298C140.439 37.0553 140.584 36.8733 140.789 36.752C140.994 36.6307 141.218 36.57 141.461 36.57C141.648 36.57 141.83 36.6167 142.007 36.71C142.184 36.794 142.324 36.9153 142.427 37.074C142.464 37.4473 142.497 37.8673 142.525 38.334C142.553 38.7913 142.572 39.2767 142.581 39.79C142.59 40.3033 142.595 40.8353 142.595 41.386C142.604 41.9273 142.609 42.464 142.609 42.996C142.609 43.612 142.609 44.2093 142.609 44.788C142.609 45.3667 142.618 45.894 142.637 46.37C142.59 46.6127 142.464 46.7993 142.259 46.93C142.054 47.0607 141.816 47.126 141.545 47.126C141.33 47.126 141.116 47.0747 140.901 46.972C140.696 46.8693 140.542 46.7013 140.439 46.468C140.439 46.188 140.439 45.8893 140.439 45.572C140.448 45.2453 140.453 44.914 140.453 44.578C140.462 44.242 140.467 43.9107 140.467 43.584C140.467 43.2573 140.467 42.9493 140.467 42.66C140.168 42.688 139.814 42.7253 139.403 42.772C139.002 42.8187 138.605 42.8653 138.213 42.912C137.83 42.9493 137.485 42.9913 137.177 43.038C136.869 43.0753 136.659 43.108 136.547 43.136C136.528 43.22 136.519 43.4067 136.519 43.696C136.528 43.976 136.538 44.2887 136.547 44.634C136.556 44.9793 136.566 45.3247 136.575 45.67C136.584 46.006 136.589 46.2673 136.589 46.454C136.589 46.594 136.556 46.7153 136.491 46.818C136.426 46.9207 136.342 47.0047 136.239 47.07C136.136 47.1447 136.02 47.196 135.889 47.224C135.758 47.2613 135.623 47.28 135.483 47.28C135.268 47.28 135.068 47.238 134.881 47.154C134.694 47.0793 134.564 46.9533 134.489 46.776L134.405 43.206ZM147.602 43.64C147.425 43.3413 147.215 43.0053 146.972 42.632C146.739 42.2493 146.492 41.8527 146.23 41.442C145.978 41.0313 145.726 40.616 145.474 40.196C145.222 39.7667 144.989 39.3607 144.774 38.978C144.569 38.5953 144.396 38.2407 144.256 37.914C144.116 37.5873 144.032 37.3167 144.004 37.102C144.051 36.9713 144.149 36.85 144.298 36.738C144.448 36.626 144.616 36.542 144.802 36.486C144.989 36.43 145.18 36.4113 145.376 36.43C145.582 36.4393 145.759 36.5047 145.908 36.626C146.114 36.9807 146.328 37.3773 146.552 37.816C146.786 38.2547 147.019 38.698 147.252 39.146C147.495 39.594 147.733 40.0373 147.966 40.476C148.209 40.9147 148.442 41.3113 148.666 41.666C148.881 41.2927 149.096 40.8773 149.31 40.42C149.534 39.9533 149.758 39.4867 149.982 39.02C150.206 38.544 150.426 38.082 150.64 37.634C150.864 37.186 151.088 36.78 151.312 36.416C151.443 36.388 151.588 36.3787 151.746 36.388C151.905 36.3973 152.064 36.4347 152.222 36.5C152.39 36.556 152.544 36.64 152.684 36.752C152.834 36.864 152.955 37.0087 153.048 37.186C152.88 37.606 152.67 38.0913 152.418 38.642C152.176 39.1833 151.91 39.762 151.62 40.378C151.331 40.994 151.023 41.6287 150.696 42.282C150.37 42.926 150.043 43.556 149.716 44.172C149.39 44.7787 149.068 45.3573 148.75 45.908C148.442 46.4587 148.153 46.9393 147.882 47.35C147.397 47.462 146.991 47.4527 146.664 47.322C146.347 47.1913 146.095 46.9067 145.908 46.468L147.602 43.64ZM156.993 46.958C156.956 46.7807 156.923 46.5053 156.895 46.132C156.877 45.7587 156.858 45.3293 156.839 44.844C156.83 44.3493 156.821 43.822 156.811 43.262C156.802 42.6927 156.793 42.1327 156.783 41.582C156.783 41.0313 156.783 40.5133 156.783 40.028C156.793 39.5333 156.802 39.1133 156.811 38.768C156.335 38.8427 155.883 38.9127 155.453 38.978C155.033 39.034 154.571 39.0713 154.067 39.09C153.89 38.81 153.769 38.516 153.703 38.208C153.638 37.9 153.657 37.62 153.759 37.368C153.955 37.284 154.249 37.2047 154.641 37.13C155.033 37.046 155.477 36.9667 155.971 36.892C156.466 36.8173 156.989 36.752 157.539 36.696C158.09 36.6307 158.617 36.5747 159.121 36.528C159.635 36.4813 160.101 36.444 160.521 36.416C160.941 36.388 161.273 36.374 161.515 36.374C161.618 36.4767 161.693 36.598 161.739 36.738C161.795 36.878 161.823 37.0273 161.823 37.186C161.823 37.3353 161.8 37.4893 161.753 37.648C161.707 37.7973 161.641 37.942 161.557 38.082C161.259 38.194 160.899 38.278 160.479 38.334C160.059 38.3807 159.532 38.4413 158.897 38.516L158.981 46.608C158.683 46.888 158.356 47.07 158.001 47.154C157.656 47.238 157.32 47.1727 156.993 46.958ZM163.762 46.146C163.724 45.894 163.696 45.53 163.678 45.054C163.668 44.578 163.659 44.0507 163.65 43.472C163.65 42.884 163.65 42.268 163.65 41.624C163.65 40.98 163.645 40.3593 163.636 39.762C163.636 39.1553 163.631 38.6 163.622 38.096C163.612 37.5827 163.598 37.172 163.58 36.864C163.748 36.6773 163.911 36.5513 164.07 36.486C164.228 36.4207 164.378 36.388 164.518 36.388C164.732 36.388 164.947 36.416 165.162 36.472C165.386 36.5187 165.563 36.6073 165.694 36.738L165.708 40.602C166.24 40.462 166.73 40.3547 167.178 40.28C167.626 40.2053 168.046 40.168 168.438 40.168C168.867 40.168 169.282 40.224 169.684 40.336C170.094 40.4387 170.458 40.602 170.776 40.826C171.093 41.05 171.345 41.3393 171.532 41.694C171.728 42.0393 171.826 42.4547 171.826 42.94C171.826 43.556 171.718 44.0927 171.504 44.55C171.289 44.998 171 45.3807 170.636 45.698C170.272 46.006 169.852 46.2627 169.376 46.468C168.909 46.664 168.419 46.8227 167.906 46.944C167.392 47.056 166.879 47.1307 166.366 47.168C165.852 47.2147 165.376 47.2427 164.938 47.252C164.676 47.1773 164.434 47.056 164.21 46.888C163.986 46.7107 163.836 46.4633 163.762 46.146ZM165.792 45.236C166.202 45.264 166.636 45.2453 167.094 45.18C167.551 45.1147 167.971 44.9933 168.354 44.816C168.746 44.6387 169.068 44.4053 169.32 44.116C169.572 43.8173 169.698 43.4533 169.698 43.024C169.698 42.6973 169.548 42.4687 169.25 42.338C168.951 42.198 168.564 42.128 168.088 42.128C167.836 42.128 167.584 42.142 167.332 42.17C167.08 42.198 166.842 42.2353 166.618 42.282C166.403 42.3193 166.216 42.3613 166.058 42.408C165.899 42.4547 165.792 42.4967 165.736 42.534L165.792 45.236ZM172.822 42.422C172.822 41.526 172.957 40.728 173.228 40.028C173.498 39.328 173.876 38.7353 174.362 38.25C174.847 37.7647 175.416 37.396 176.07 37.144C176.723 36.8827 177.437 36.752 178.212 36.752C178.613 36.752 179.01 36.7987 179.402 36.892C179.794 36.9853 180.148 37.1113 180.466 37.27C180.792 37.4287 181.068 37.62 181.292 37.844C181.516 38.0587 181.665 38.292 181.74 38.544C181.73 38.7027 181.684 38.852 181.6 38.992C181.525 39.1227 181.422 39.244 181.292 39.356C181.161 39.4587 181.012 39.5473 180.844 39.622C180.676 39.6967 180.503 39.748 180.326 39.776C180.204 39.6267 180.074 39.4867 179.934 39.356C179.794 39.2253 179.635 39.1087 179.458 39.006C179.28 38.9033 179.075 38.824 178.842 38.768C178.618 38.7027 178.361 38.67 178.072 38.67C177.708 38.67 177.339 38.7353 176.966 38.866C176.602 38.9967 176.27 39.216 175.972 39.524C175.682 39.8227 175.444 40.2193 175.258 40.714C175.071 41.2087 174.978 41.82 174.978 42.548C174.978 42.9587 175.048 43.332 175.188 43.668C175.337 43.9947 175.528 44.2747 175.762 44.508C175.995 44.732 176.256 44.9047 176.546 45.026C176.835 45.1473 177.12 45.208 177.4 45.208C177.708 45.208 177.988 45.18 178.24 45.124C178.501 45.0587 178.758 44.9467 179.01 44.788C179.262 44.6293 179.523 44.4193 179.794 44.158C180.064 43.8967 180.368 43.5607 180.704 43.15C180.881 43.1687 181.049 43.22 181.208 43.304C181.376 43.3787 181.52 43.486 181.642 43.626C181.772 43.7567 181.87 43.9107 181.936 44.088C182.01 44.2653 182.038 44.452 182.02 44.648C181.749 45.0587 181.432 45.4227 181.068 45.74C180.704 46.0573 180.312 46.3233 179.892 46.538C179.481 46.7527 179.052 46.916 178.604 47.028C178.165 47.1493 177.736 47.21 177.316 47.21C176.644 47.21 176.028 47.07 175.468 46.79C174.917 46.51 174.446 46.146 174.054 45.698C173.662 45.2407 173.358 44.7273 173.144 44.158C172.929 43.5887 172.822 43.01 172.822 42.422ZM184.096 45.81C184.404 45.67 184.694 45.4833 184.964 45.25C185.244 45.0073 185.496 44.7553 185.72 44.494C185.954 44.2233 186.159 43.9527 186.336 43.682C186.514 43.402 186.654 43.1547 186.756 42.94C186.439 42.8653 186.112 42.744 185.776 42.576C185.45 42.3987 185.151 42.1793 184.88 41.918C184.619 41.6567 184.4 41.358 184.222 41.022C184.054 40.686 183.97 40.3173 183.97 39.916C183.97 39.244 184.115 38.6933 184.404 38.264C184.694 37.8347 185.072 37.494 185.538 37.242C186.005 36.99 186.532 36.8173 187.12 36.724C187.708 36.6307 188.296 36.584 188.884 36.584C189.295 36.584 189.701 36.6027 190.102 36.64C190.504 36.6773 190.877 36.7193 191.222 36.766C191.465 36.878 191.675 37.032 191.852 37.228C192.039 37.424 192.142 37.6807 192.16 37.998C192.179 38.2967 192.193 38.768 192.202 39.412C192.212 40.056 192.216 40.7747 192.216 41.568C192.216 42.0347 192.212 42.5153 192.202 43.01C192.202 43.4953 192.198 43.9713 192.188 44.438C192.179 44.9047 192.165 45.3573 192.146 45.796C192.128 46.2253 192.104 46.6173 192.076 46.972C191.871 47.1773 191.61 47.28 191.292 47.28C191.143 47.28 190.966 47.2473 190.76 47.182C190.555 47.126 190.34 47.0233 190.116 46.874L190.2 42.87C189.995 42.9167 189.78 42.954 189.556 42.982C189.332 43.01 189.113 43.0333 188.898 43.052C188.74 43.4627 188.525 43.9107 188.254 44.396C187.984 44.872 187.676 45.3247 187.33 45.754C186.994 46.1833 186.635 46.5473 186.252 46.846C185.87 47.1447 185.492 47.308 185.118 47.336C185.016 47.3267 184.894 47.2847 184.754 47.21C184.614 47.1353 184.484 47.0327 184.362 46.902C184.241 46.7713 184.148 46.6173 184.082 46.44C184.026 46.2533 184.031 46.0433 184.096 45.81ZM185.986 39.916C185.986 40.168 186.052 40.3827 186.182 40.56C186.313 40.728 186.481 40.868 186.686 40.98C186.901 41.092 187.144 41.1713 187.414 41.218C187.685 41.2647 187.96 41.288 188.24 41.288C188.651 41.288 189.043 41.2647 189.416 41.218C189.799 41.1713 190.065 41.1293 190.214 41.092L190.13 38.544C189.888 38.488 189.64 38.446 189.388 38.418C189.136 38.3807 188.88 38.362 188.618 38.362C188.292 38.362 187.97 38.39 187.652 38.446C187.344 38.502 187.064 38.5907 186.812 38.712C186.57 38.8333 186.369 38.9967 186.21 39.202C186.061 39.398 185.986 39.636 185.986 39.916ZM193.874 45.95C193.911 45.7913 193.958 45.642 194.014 45.502C194.079 45.362 194.168 45.2407 194.28 45.138C194.401 45.026 194.55 44.9373 194.728 44.872C194.914 44.8067 195.143 44.774 195.414 44.774C195.535 44.774 195.666 44.7973 195.806 44.844C195.946 44.8907 196.076 44.9653 196.198 45.068C196.319 45.1707 196.422 45.3013 196.506 45.46C196.59 45.6187 196.641 45.8147 196.66 46.048C196.604 46.2907 196.51 46.4913 196.38 46.65C196.249 46.8087 196.104 46.93 195.946 47.014C195.787 47.1073 195.619 47.1727 195.442 47.21C195.274 47.2473 195.12 47.266 194.98 47.266C194.56 47.1633 194.27 47 194.112 46.776C193.953 46.5427 193.874 46.2673 193.874 45.95ZM197.634 45.95C197.671 45.7913 197.718 45.642 197.774 45.502C197.839 45.362 197.928 45.2407 198.04 45.138C198.161 45.026 198.31 44.9373 198.488 44.872C198.674 44.8067 198.903 44.774 199.174 44.774C199.295 44.774 199.426 44.7973 199.566 44.844C199.706 44.8907 199.836 44.9653 199.958 45.068C200.079 45.1707 200.182 45.3013 200.266 45.46C200.35 45.6187 200.401 45.8147 200.42 46.048C200.364 46.2907 200.27 46.4913 200.14 46.65C200.009 46.8087 199.864 46.93 199.706 47.014C199.547 47.1073 199.379 47.1727 199.202 47.21C199.034 47.2473 198.88 47.266 198.74 47.266C198.32 47.1633 198.03 47 197.872 46.776C197.713 46.5427 197.634 46.2673 197.634 45.95ZM201.393 45.95C201.431 45.7913 201.477 45.642 201.533 45.502C201.599 45.362 201.687 45.2407 201.799 45.138C201.921 45.026 202.07 44.9373 202.247 44.872C202.434 44.8067 202.663 44.774 202.933 44.774C203.055 44.774 203.185 44.7973 203.325 44.844C203.465 44.8907 203.596 44.9653 203.717 45.068C203.839 45.1707 203.941 45.3013 204.025 45.46C204.109 45.6187 204.161 45.8147 204.179 46.048C204.123 46.2907 204.03 46.4913 203.899 46.65C203.769 46.8087 203.624 46.93 203.465 47.014C203.307 47.1073 203.139 47.1727 202.961 47.21C202.793 47.2473 202.639 47.266 202.499 47.266C202.079 47.1633 201.79 47 201.631 46.776C201.473 46.5427 201.393 46.2673 201.393 45.95Z" fill="white"/>
<circle cx="16" cy="12" r="1" fill="#9D0000"/>
<circle cx="311" cy="12" r="1" fill="#9D0000"/>
<circle cx="16" cy="40" r="1" fill="#9D0000"/>
<circle cx="311" cy="40" r="1" fill="#9D0000"/>
</g>
<defs>
<filter id="filter0_d" x="0" y="0" width="327" height="64" filterUnits="userSpaceOnUse" color-interpolation-filters="sRGB">
<feFlood flood-opacity="0" result="BackgroundImageFix"/>
<feColorMatrix in="SourceAlpha" type="matrix" values="0 0 0 0 0 0 0 0 0 0 0 0 0 0 0 0 0 0 127 0"/>
<feOffset dy="4"/>
<feGaussianBlur stdDeviation="5"/>
<feColorMatrix type="matrix" values="0 0 0 0 0 0 0 0 0 0 0 0 0 0 0 0 0 0 0.25 0"/>
<feBlend mode="normal" in2="BackgroundImageFix" result="effect1_dropShadow"/>
<feBlend mode="normal" in="SourceGraphic" in2="effect1_dropShadow" result="shape"/>
</filter>
</defs>
</svg>
