<svg width="285" height="35" viewBox="0 0 285 35" fill="none" xmlns="http://www.w3.org/2000/svg">
<rect x="1.53608" y="7.87581" width="92" height="26" rx="13" transform="rotate(-1.77298 1.53608 7.87581)" fill="#E53935" stroke="#9D0000" stroke-width="2"/>
<rect x="0.959078" y="5.39249" width="93" height="27" rx="13.5" transform="rotate(-1.77298 0.959078 5.39249)" fill="#E53935" stroke="#9D0000"/>
<path fill-rule="evenodd" clip-rule="evenodd" d="M19.6905 14.3019C19.9509 14.5719 20.4004 15.2696 20.0997 15.5064C20.0997 15.5064 19.3012 16.368 18.4237 17.059C17.5462 17.7499 16.1736 18.6293 16.1736 18.6293C16.1736 18.6293 17.7801 19.5521 18.5203 20.1797C19.2605 20.8072 19.9062 21.272 19.9062 21.272C20.2211 21.4898 20.168 21.9672 19.9447 22.5159C19.7015 22.8014 19.6009 23.1832 19.2861 22.9654C19.2861 22.9654 16.8113 21.0976 15.7566 20.3682C14.702 19.6388 14.2862 19.4343 14.2862 19.4343C14.1152 19.316 13.3099 18.9393 13.3039 18.7444C13.2978 18.5495 13.6905 18.3526 13.8538 18.224C13.8538 18.224 15.6164 16.9246 16.6239 16.1314C17.6314 15.3381 19.0136 14.1615 19.0136 14.1615C19.3143 13.9247 19.4301 14.0319 19.6905 14.3019Z" fill="white"/>
<path d="M38.0116 18.3916C37.9287 18.3208 37.8671 18.2273 37.8269 18.1112C37.7866 17.995 37.7645 17.8746 37.7607 17.75C37.7566 17.6181 37.771 17.4929 37.8041 17.3745C37.8442 17.2485 37.8996 17.1441 37.9704 17.0612C37.9664 16.9293 37.9528 16.7279 37.9297 16.4572C37.9138 16.1789 37.8936 15.8824 37.8692 15.5676C37.8448 15.2529 37.8242 14.9454 37.8076 14.6451C37.791 14.3448 37.7835 14.1029 37.7852 13.9194C37.8182 13.801 37.8845 13.6926 37.9842 13.5941C38.0836 13.4883 38.2021 13.404 38.3395 13.341C38.4843 13.2778 38.6409 13.24 38.8092 13.2274C38.9774 13.2076 39.1465 13.2207 39.3167 13.2667C39.3785 13.3676 39.4275 13.5274 39.4636 13.7464C39.5071 13.9652 39.5408 14.2246 39.5647 14.5247C39.596 14.8245 39.621 15.1576 39.6397 15.5238C39.6655 15.8825 39.6881 16.2597 39.7077 16.6553C40.0298 16.6306 40.4321 16.5925 40.9148 16.5409C41.3972 16.4819 41.9781 16.4052 42.6575 16.3108C42.6447 16.1352 42.6319 15.9595 42.6192 15.7838C42.6137 15.6079 42.604 15.4137 42.5901 15.2014C42.5835 14.9888 42.5763 14.7543 42.5683 14.4977C42.5604 14.2412 42.5512 13.9443 42.5408 13.6072C42.6008 13.4145 42.71 13.2681 42.8683 13.1678C43.0266 13.0675 43.2011 13.0144 43.3917 13.0085C43.5383 13.004 43.6823 13.0362 43.8239 13.1052C43.9652 13.1669 44.0781 13.2588 44.1625 13.3809C44.2009 13.6732 44.2368 14.0022 44.2701 14.368C44.3032 14.7265 44.3297 15.1072 44.3495 15.5101C44.3693 15.913 44.3859 16.3307 44.3993 16.7632C44.4198 17.1881 44.4365 17.6094 44.4494 18.0272C44.4644 18.511 44.4789 18.9801 44.493 19.4345C44.5071 19.889 44.5272 20.3029 44.5534 20.6763C44.5227 20.868 44.4283 21.0176 44.2702 21.1253C44.1121 21.2329 43.9268 21.29 43.7142 21.2965C43.5457 21.3018 43.3758 21.2667 43.2047 21.1912C43.041 21.1156 42.916 20.9874 42.8297 20.8067C42.8229 20.5868 42.8156 20.3522 42.8079 20.103C42.8073 19.8462 42.8029 19.5859 42.7947 19.322C42.7939 19.0579 42.7895 18.7976 42.7815 18.5411C42.7736 18.2845 42.7661 18.0426 42.7591 17.8154C42.5252 17.8447 42.2476 17.8826 41.9262 17.9292C41.6122 17.9756 41.3018 18.0219 40.995 18.0681C40.6954 18.1067 40.4253 18.1481 40.1845 18.1923C39.9435 18.2291 39.7794 18.2598 39.6921 18.2845C39.6795 18.351 39.6767 18.4978 39.6837 18.725C39.6979 18.9447 39.7128 19.19 39.7285 19.461C39.7443 19.7319 39.76 20.0029 39.7757 20.2739C39.7912 20.5375 39.8012 20.7427 39.8058 20.8893C39.8092 20.9992 39.7865 21.0953 39.7377 21.1775C39.6888 21.2597 39.6249 21.3277 39.5459 21.3815C39.4671 21.4427 39.3767 21.4858 39.2747 21.511C39.173 21.5435 39.0672 21.5614 38.9573 21.5648C38.7887 21.5701 38.6301 21.542 38.4814 21.4805C38.333 21.4264 38.2273 21.3306 38.1644 21.1932L38.0116 18.3916ZM45.7125 20.9045C45.6958 20.839 45.7204 20.6878 45.7865 20.451C45.8523 20.2069 45.9421 19.9106 46.0561 19.5623C46.1698 19.2066 46.3044 18.8135 46.4598 18.3832C46.6223 17.9453 46.7921 17.5035 46.969 17.0578C47.1458 16.6048 47.323 16.1664 47.5006 15.7427C47.678 15.3117 47.8457 14.9213 48.0036 14.5716C48.0034 14.5643 47.9996 14.5607 47.9923 14.561C47.9847 14.5538 47.9808 14.5466 47.9806 14.5393C47.9417 14.4671 47.8991 14.3951 47.8529 14.3232C47.8139 14.251 47.7629 14.1425 47.6997 13.9977C47.8155 13.708 47.9551 13.4799 48.1187 13.3134C48.2821 13.1396 48.5101 13.0372 48.8026 13.0061C48.9652 13.0451 49.1451 13.168 49.3422 13.3746C49.5394 13.5813 49.7381 13.8393 49.9385 14.1485C50.1461 14.4576 50.355 14.807 50.5652 15.1967C50.7753 15.5863 50.9785 15.9872 51.1747 16.3994C51.3782 16.8113 51.5707 17.2235 51.7522 17.6361C51.9335 18.0413 52.0956 18.4178 52.2384 18.7656C52.3886 19.1131 52.5117 19.4174 52.6078 19.6786C52.7111 19.9322 52.7865 20.1169 52.8341 20.2329C52.7933 20.3368 52.7195 20.4418 52.6127 20.5479C52.5131 20.6463 52.3948 20.738 52.2581 20.823C52.1284 20.9004 51.9908 20.9596 51.8454 21.0008C51.7075 21.0491 51.5832 21.064 51.4726 21.0454C51.3249 20.7785 51.1921 20.5185 51.0742 20.2653C50.9637 20.012 50.8614 19.7877 50.7673 19.5925L50.7659 19.5485C50.2913 19.6219 49.7801 19.7001 49.2324 19.7831C48.6919 19.8585 48.1769 19.9331 47.6876 20.007C47.6734 20.0221 47.6594 20.0445 47.6457 20.0743C47.639 20.0965 47.6221 20.1411 47.5948 20.208C47.5749 20.2746 47.5412 20.371 47.4937 20.4972C47.4463 20.6234 47.382 20.7978 47.3008 21.0204C47.2527 21.1246 47.1708 21.2042 47.0551 21.2592C46.9396 21.3214 46.8086 21.3548 46.662 21.3594C46.5227 21.3637 46.3715 21.339 46.2085 21.2854C46.053 21.2388 45.9149 21.1624 45.7942 21.0561L45.7125 20.9045ZM50.1472 18.0489C50.0836 17.8895 50.0085 17.7157 49.922 17.5277C49.8428 17.3394 49.7563 17.1513 49.6624 16.9634C49.5686 16.7756 49.4749 16.5951 49.3815 16.4219C49.2952 16.2411 49.2132 16.0786 49.1353 15.9342C49.1149 15.9862 49.0913 16.053 49.0645 16.1345C49.0374 16.2087 48.9899 16.3313 48.9218 16.5021C48.8537 16.673 48.762 16.9106 48.6467 17.215C48.5312 17.512 48.3784 17.9093 48.1884 18.4067L50.1472 18.0489ZM53.5093 19.8488C53.4684 19.4759 53.5101 19.1664 53.6346 18.9205C53.7664 18.6743 53.9986 18.4727 54.3312 18.3156C54.497 18.4572 54.6627 18.5952 54.8283 18.7294C54.9936 18.8564 55.1623 18.9722 55.3342 19.077C55.5133 19.1741 55.6992 19.2528 55.8918 19.3128C56.0915 19.3653 56.3013 19.3882 56.5212 19.3814C56.7045 19.3757 56.9019 19.3549 57.1136 19.319C57.3323 19.2756 57.532 19.207 57.7125 19.1134C57.8928 19.0124 58.0428 18.8794 58.1624 18.7143C58.2818 18.5418 58.3374 18.3237 58.3292 18.0598C58.3244 17.9059 58.2764 17.7753 58.185 17.6681C58.1008 17.5533 57.9953 17.4649 57.8687 17.4027C57.7491 17.3331 57.6193 17.2857 57.4791 17.2607C57.346 17.2282 57.2318 17.2134 57.1365 17.2163C56.924 17.2229 56.7161 17.2623 56.5129 17.3347C56.317 17.4068 56.0814 17.4984 55.8061 17.6097C55.5995 17.572 55.406 17.4826 55.2255 17.3415C55.0524 17.2001 54.9622 17.0121 54.9549 16.7776C54.9522 16.6896 54.9638 16.5902 54.9897 16.4794C55.0227 16.361 55.0883 16.2269 55.1864 16.0771C55.5446 16.0367 55.8762 15.964 56.1811 15.8592C56.4933 15.7542 56.7608 15.6248 56.9835 15.4712C57.2135 15.3173 57.3915 15.1431 57.5176 14.9484C57.6434 14.7464 57.7029 14.5355 57.6961 14.3156C57.6897 14.1104 57.601 13.97 57.4299 13.8946C57.2659 13.8117 57.0557 13.7742 56.7991 13.7821C56.5499 13.7898 56.3168 13.8447 56.0999 13.9468C55.8829 14.0489 55.6851 14.1761 55.5064 14.3284C55.3277 14.4806 55.1642 14.6508 55.016 14.8388C54.8748 15.0192 54.7481 15.1919 54.6358 15.3568C54.5259 15.3602 54.404 15.3346 54.2703 15.2801C54.1363 15.2182 54.0092 15.1414 53.889 15.0497C53.7758 14.9505 53.6771 14.8435 53.5929 14.7288C53.5157 14.6064 53.4718 14.4904 53.461 14.3807C53.6554 14.0225 53.8808 13.7184 54.1371 13.4683C54.4006 13.2107 54.6767 13.0041 54.9654 12.8484C55.2611 12.6852 55.5619 12.5658 55.8677 12.4903C56.1733 12.4075 56.4763 12.3614 56.7769 12.3521C57.0921 12.3423 57.3975 12.3732 57.6932 12.4448C57.996 12.5088 58.2635 12.6179 58.4957 12.7721C58.7352 12.9261 58.9285 13.1256 59.0755 13.3705C59.2225 13.6154 59.3013 13.9101 59.3119 14.2546C59.3235 14.6284 59.2528 14.9497 59.0997 15.2186C58.9466 15.4875 58.7485 15.7247 58.5054 15.9303C58.7058 16.0048 58.896 16.1053 59.076 16.2318C59.2633 16.3581 59.4258 16.5108 59.5634 16.69C59.7008 16.8618 59.8097 17.0602 59.89 17.2851C59.9776 17.5099 60.0256 17.7542 60.0337 18.0181C60.0483 18.4872 59.9694 18.9041 59.7973 19.269C59.6252 19.6338 59.3816 19.9421 59.0666 20.194C58.7589 20.4457 58.3907 20.6405 57.9621 20.7785C57.5335 20.9165 57.0664 20.9933 56.5606 21.0089C56.0329 21.0253 55.5057 20.9425 54.9792 20.7607C54.4526 20.579 53.9627 20.275 53.5093 19.8488ZM60.6477 20.4422C60.631 20.3767 60.6557 20.2255 60.7217 19.9887C60.7875 19.7446 60.8774 19.4483 60.9913 19.0999C61.105 18.7443 61.2396 18.3512 61.395 17.9209C61.5576 17.483 61.7273 17.0412 61.9043 16.5955C62.081 16.1425 62.2582 15.7041 62.4358 15.2804C62.6133 14.8494 62.7809 14.459 62.9388 14.1093C62.9386 14.102 62.9348 14.0984 62.9275 14.0986C62.92 14.0915 62.9161 14.0843 62.9158 14.077C62.8769 14.0048 62.8343 13.9328 62.7881 13.8608C62.7492 13.7887 62.6981 13.6802 62.6349 13.5354C62.7507 13.2457 62.8904 13.0176 63.054 12.8511C63.2173 12.6773 63.4453 12.5749 63.7378 12.5438C63.9004 12.5828 64.0803 12.7056 64.2775 12.9123C64.4746 13.119 64.6734 13.377 64.8737 13.6862C65.0813 13.9953 65.2903 14.3447 65.5004 14.7343C65.7106 15.124 65.9137 15.5249 66.1099 15.9371C66.3134 16.349 66.5059 16.7612 66.6875 17.1738C66.8687 17.579 67.0308 17.9555 67.1736 18.3033C67.3238 18.6508 67.4469 18.9551 67.5431 19.2163C67.6463 19.4699 67.7217 19.6546 67.7693 19.7706C67.7285 19.8745 67.6547 19.9795 67.548 20.0856C67.4483 20.184 67.3301 20.2757 67.1933 20.3607C67.0636 20.438 66.9261 20.4973 66.7806 20.5385C66.6427 20.5868 66.5184 20.6017 66.4078 20.5831C66.2601 20.3162 66.1274 20.0562 66.0095 19.803C65.8989 19.5497 65.7966 19.3254 65.7025 19.1302L65.7011 19.0862C65.2265 19.1596 64.7154 19.2378 64.1677 19.3208C63.6271 19.3962 63.1121 19.4708 62.6229 19.5447C62.6087 19.5598 62.5947 19.5822 62.5809 19.612C62.5743 19.6342 62.5573 19.6788 62.53 19.7456C62.5101 19.8123 62.4764 19.9087 62.4289 20.0349C62.3815 20.1611 62.3172 20.3355 62.236 20.5581C62.1879 20.6623 62.106 20.7419 61.9903 20.7968C61.8748 20.8591 61.7438 20.8925 61.5972 20.8971C61.4579 20.9014 61.3068 20.8767 61.1437 20.8231C60.9882 20.7765 60.8501 20.7001 60.7294 20.5938L60.6477 20.4422ZM65.0825 17.5866C65.0188 17.4272 64.9437 17.2534 64.8572 17.0654C64.778 16.8771 64.6915 16.689 64.5976 16.5011C64.5038 16.3133 64.4102 16.1327 64.3167 15.9596C64.2304 15.7788 64.1484 15.6163 64.0705 15.4719C64.0501 15.5239 64.0265 15.5907 63.9997 15.6722C63.9727 15.7464 63.9251 15.869 63.857 16.0398C63.7889 16.2107 63.6972 16.4483 63.5819 16.7527C63.4664 17.0497 63.3136 17.447 63.1236 17.9444L65.0825 17.5866ZM68.3669 19.0147C68.4751 18.9527 68.6095 18.9118 68.7703 18.8922C68.9309 18.8652 69.0989 18.8416 69.2744 18.8215C69.394 18.6564 69.4976 18.4478 69.5852 18.1956C69.6728 17.9435 69.7487 17.6696 69.8129 17.3742C69.8842 17.0712 69.9405 16.7576 69.9819 16.4335C70.023 16.1021 70.0571 15.7819 70.0842 15.4729C70.1111 15.1566 70.1313 14.8625 70.1449 14.5906C70.1585 14.3187 70.1696 14.0836 70.1781 13.8852C70.127 13.8941 70.0466 13.904 69.9369 13.9147C69.8272 13.9254 69.7577 13.9312 69.7283 13.9322C69.5559 13.8128 69.427 13.6774 69.3416 13.5259C69.2633 13.3669 69.2218 13.2105 69.217 13.0566C69.2136 12.9466 69.2284 12.8324 69.2614 12.714C69.3018 12.5954 69.368 12.4833 69.4601 12.3777C69.7295 12.3107 70.0724 12.2487 70.4889 12.1918C70.9124 12.1273 71.3508 12.0697 71.8041 12.019C72.2648 11.9681 72.711 11.9249 73.1428 11.8895C73.5819 11.8539 73.9515 11.8241 74.2515 11.8002C74.3924 11.8472 74.5118 11.9132 74.6098 11.9982C74.715 12.0756 74.7991 12.1868 74.8623 12.3315C74.8995 12.5872 74.9312 12.898 74.9572 13.2641C74.983 13.6228 75.0034 14.0477 75.0186 14.5388C75.0412 15.0296 75.0621 15.5866 75.0814 16.2096C75.1007 16.8327 75.1185 17.5291 75.135 18.299C75.3391 18.256 75.5518 18.253 75.7731 18.2902C75.9941 18.3201 76.2196 18.3754 76.4495 18.4564C76.4541 18.603 76.4561 18.7863 76.4556 19.0064C76.455 19.2266 76.4512 19.4578 76.444 19.7001C76.4442 19.9422 76.4442 20.1807 76.4441 20.4155C76.4516 20.6574 76.4619 20.8698 76.4749 21.0528C76.3915 21.2021 76.3032 21.3149 76.2102 21.3912C76.1172 21.4674 76.0125 21.522 75.8961 21.555C75.7873 21.595 75.667 21.6171 75.535 21.6212C75.4033 21.6326 75.2642 21.6406 75.1176 21.6451C75.0342 21.5596 74.9646 21.4444 74.9088 21.2994C74.8602 21.1542 74.8225 21.0013 74.7955 20.8407C74.7688 20.6874 74.753 20.5339 74.7482 20.3799C74.7435 20.226 74.7467 20.0938 74.758 19.9834C74.5019 20.006 74.2238 20.0293 73.9237 20.0533C73.631 20.077 73.2944 20.1058 72.9139 20.1396C72.5408 20.1731 72.1164 20.2119 71.6409 20.256C71.1652 20.2927 70.6199 20.3353 70.0051 20.3837C70.0243 20.5298 70.0442 20.698 70.0647 20.8881C70.0928 21.0853 70.1128 21.2571 70.1247 21.4035C70.0839 21.5074 70.0023 21.598 69.88 21.6752C69.7576 21.7523 69.6203 21.8189 69.468 21.875C69.3232 21.9382 69.1705 21.9833 69.0099 22.0102C68.8569 22.0443 68.7218 22.0632 68.6045 22.0668C68.4629 21.5209 68.3661 21.003 68.3143 20.5131C68.2624 20.0231 68.28 19.5236 68.3669 19.0147ZM73.4346 18.4727C73.4475 18.1788 73.4508 17.8118 73.4445 17.3718C73.4456 16.9316 73.4424 16.4731 73.435 15.9965C73.4276 15.5198 73.4096 15.0581 73.3811 14.6115C73.3599 14.1646 73.3337 13.7912 73.3024 13.4914C73.1707 13.5028 73.0243 13.5146 72.8633 13.527C72.7096 13.5391 72.5559 13.5512 72.4022 13.5632C72.2558 13.5751 72.1242 13.5902 72.0074 13.6085C71.8904 13.6194 71.8026 13.6295 71.7442 13.6386C71.7377 14.8494 71.6777 15.8748 71.5643 16.7147C71.458 17.547 71.3134 18.2082 71.1305 18.6981L73.4346 18.4727Z" fill="white"/>
<rect x="190.536" y="7.76973" width="92" height="26" rx="13" transform="rotate(-1.77298 190.536 7.76973)" fill="#E53935" stroke="#9D0000" stroke-width="2"/>
<rect x="189.959" y="6.28641" width="93" height="27" rx="13.5" transform="rotate(-1.77298 189.959 6.28641)" fill="#BF2E2B" stroke="#9D0000"/>
<path fill-rule="evenodd" clip-rule="evenodd" d="M208.69 15.1958C208.951 15.4658 209.4 16.1635 209.099 16.4003C209.099 16.4003 208.301 17.262 207.423 17.9529C206.546 18.6438 205.173 19.5232 205.173 19.5232C205.173 19.5232 206.78 20.446 207.52 21.0736C208.26 21.7011 208.906 22.166 208.906 22.166C209.221 22.3837 209.168 22.8611 208.944 23.4098C208.701 23.6953 208.601 24.0771 208.286 23.8594C208.286 23.8594 205.811 21.9915 204.756 21.2621C203.702 20.5327 203.286 20.3282 203.286 20.3282C203.115 20.2099 202.31 19.8333 202.304 19.6384C202.298 19.4434 202.69 19.2465 202.854 19.1179C202.854 19.1179 204.616 17.8185 205.624 17.0253C206.631 16.232 208.013 15.0554 208.013 15.0554C208.314 14.8186 208.43 14.9258 208.69 15.1958Z" fill="white"/>
<path d="M227.164 22.0871C227.294 22.3582 227.627 22.469 227.957 22.4588C228.386 22.4455 228.819 22.212 228.806 21.7832C228.787 21.1895 228.656 19.4437 228.692 19.1785C229.03 19.0799 230.816 18.8376 231.759 18.7093C231.787 19.6219 231.813 20.8207 231.829 21.7006C232.006 22.0583 232.384 22.2007 232.714 22.1905C233.132 22.1775 233.499 21.9461 233.553 21.5702C233.508 20.8342 233.479 19.8777 233.449 18.9211C233.397 17.239 233.33 15.4362 233.162 14.2748C232.99 14.027 232.677 13.8936 232.391 13.9025C232.018 13.914 231.661 14.1122 231.541 14.5011C231.582 15.8424 231.614 16.5128 231.657 17.2048C230.309 17.3896 229.344 17.4965 228.707 17.5492C228.626 15.978 228.56 14.5713 228.316 14.1607C227.651 13.9832 226.913 14.3252 226.785 14.8134C226.775 15.551 226.954 17.4274 226.97 17.9551C226.684 18.2942 226.683 18.9875 227.011 19.2855L227.164 22.0871ZM234.794 21.95C235.032 22.1627 235.387 22.2618 235.662 22.2533C235.959 22.2441 236.208 22.1263 236.301 21.9144C236.626 21.0349 236.645 20.9682 236.687 20.9009C237.662 20.7497 238.824 20.5927 239.766 20.4424L239.767 20.4864C239.955 20.8768 240.181 21.4091 240.472 21.9393C240.925 22.0023 241.671 21.539 241.834 21.1268C241.475 20.2024 239.133 14.233 237.802 13.9001C237.221 13.9621 236.935 14.3121 236.699 14.8917C236.829 15.1738 236.899 15.2927 236.98 15.4332C236.981 15.4442 237.003 15.4545 237.003 15.4655C236.055 17.5419 234.623 21.416 234.712 21.7984L234.794 21.95ZM237.188 19.3006C237.963 17.3177 238.053 17.0288 238.135 16.8282C238.439 17.391 238.896 18.3013 239.147 18.9429L237.188 19.3006ZM242.509 20.7427C243.416 21.5951 244.505 21.9355 245.56 21.9029C247.572 21.8406 249.091 20.7811 249.033 18.912C249 17.8455 248.318 17.1293 247.505 16.8243C247.988 16.4131 248.335 15.8851 248.312 15.1485C248.269 13.7742 247.03 13.2072 245.777 13.246C244.589 13.2828 243.242 13.8417 242.461 15.2746C242.496 15.7137 243.185 16.2647 243.636 16.2507C244.077 15.5767 244.798 14.707 245.799 14.676C246.305 14.6604 246.683 14.8027 246.696 15.2095C246.723 16.0891 245.612 16.8168 244.186 16.971C243.997 17.263 243.949 17.4956 243.955 17.6715C243.969 18.1333 244.396 18.4282 244.806 18.5036C245.349 18.2777 245.708 18.1235 246.136 18.1102C246.532 18.098 247.31 18.327 247.329 18.9537C247.362 20.0092 246.258 20.2525 245.521 20.2753C244.63 20.3029 243.998 19.7722 243.331 19.2095C242.669 19.5272 242.431 20.0078 242.509 20.7427ZM249.729 21.4877C249.967 21.7004 250.322 21.7995 250.597 21.791C250.894 21.7818 251.143 21.664 251.236 21.4521C251.561 20.5726 251.581 20.5059 251.623 20.4386C252.597 20.2874 253.759 20.1303 254.701 19.9801L254.702 20.0241C254.89 20.4145 255.116 20.9468 255.408 21.477C255.861 21.54 256.606 21.0767 256.769 20.6645C256.41 19.7401 254.068 13.7707 252.738 13.4378C252.156 13.4998 251.87 13.8498 251.635 14.4293C251.764 14.7115 251.834 14.8304 251.916 14.9709C251.916 14.9819 251.938 14.9922 251.939 15.0032C250.99 17.0796 249.559 20.9537 249.647 21.3361L249.729 21.4877ZM252.123 18.8383C252.898 16.8554 252.988 16.5665 253.07 16.3659C253.374 16.9287 253.831 17.839 254.082 18.4806L252.123 18.8383ZM257.367 19.9086C257.2 20.9153 257.317 21.8691 257.604 22.9607C258.077 22.9461 258.95 22.699 259.124 22.2974C259.105 22.0119 259.036 21.5738 259.005 21.2776C261.464 21.0694 262.726 20.9643 263.758 20.8774C263.727 21.3075 263.777 22.1974 264.117 22.539C264.711 22.5206 265.151 22.529 265.475 21.9467C265.419 21.2221 265.467 19.933 265.449 19.3503C264.993 19.1883 264.54 19.1143 264.135 19.1929C264.061 16.1027 264.004 14.2446 263.862 13.2255C263.743 12.943 263.529 12.7846 263.251 12.6941C262.043 12.7755 259.541 12.996 258.46 13.2716C258.279 13.4863 258.21 13.7306 258.217 13.9505C258.226 14.2583 258.38 14.5947 258.728 14.8261C258.783 14.8244 259.079 14.7932 259.178 14.7791C259.137 15.947 258.992 18.7358 258.274 19.7155C257.923 19.7483 257.583 19.7809 257.367 19.9086ZM260.13 19.592C260.496 18.6232 260.73 16.9321 260.744 14.5326C260.974 14.4814 261.764 14.4239 262.302 14.3853C262.439 15.5916 262.475 18.1988 262.434 19.3666L260.13 19.592Z" fill="white"/>
<rect x="95.9777" y="7.76973" width="92" height="26" rx="13" transform="rotate(-1.77298 95.9777 7.76973)" fill="#9D0000" stroke="#9D0000" stroke-width="2"/>
<rect x="95.4007" y="4.28641" width="93" height="27" rx="13.5" transform="rotate(-1.77298 95.4007 4.28641)" fill="#FE504C" stroke="#9D0000"/>
<path fill-rule="evenodd" clip-rule="evenodd" d="M114.132 13.1958C114.393 13.4658 114.842 14.1635 114.541 14.4003C114.541 14.4003 113.743 15.262 112.865 15.9529C111.988 16.6438 110.615 17.5232 110.615 17.5232C110.615 17.5232 112.222 18.446 112.962 19.0736C113.702 19.7011 114.348 20.166 114.348 20.166C114.663 20.3837 114.61 20.8611 114.386 21.4098C114.143 21.6953 114.043 22.0771 113.728 21.8594C113.728 21.8594 111.253 19.9915 110.198 19.2621C109.144 18.5327 108.728 18.3282 108.728 18.3282C108.557 18.2099 107.752 17.8333 107.746 17.6384C107.739 17.4434 108.132 17.2465 108.295 17.1179C108.295 17.1179 110.058 15.8185 111.066 15.0253C112.073 14.232 113.455 13.0554 113.455 13.0554C113.756 12.8186 113.872 12.9258 114.132 13.1958Z" fill="white"/>
<path d="M132.606 20.0871C132.735 20.3582 133.069 20.469 133.399 20.4588C133.828 20.4455 134.261 20.212 134.247 19.7832C134.229 19.1895 134.098 17.4437 134.134 17.1785C134.472 17.0799 136.258 16.8376 137.201 16.7093C137.229 17.6219 137.255 18.8207 137.271 19.7006C137.447 20.0583 137.826 20.2007 138.156 20.1905C138.574 20.1775 138.941 19.9461 138.995 19.5702C138.95 18.8342 138.921 17.8777 138.891 16.9211C138.839 15.239 138.772 13.4362 138.604 12.2748C138.431 12.027 138.119 11.8936 137.833 11.9025C137.459 11.914 137.102 12.1122 136.982 12.5011C137.024 13.8424 137.056 14.5128 137.099 15.2048C135.751 15.3896 134.786 15.4965 134.149 15.5492C134.068 13.978 134.002 12.5713 133.758 12.1607C133.093 11.9832 132.355 12.3252 132.227 12.8134C132.217 13.551 132.396 15.4274 132.412 15.9551C132.125 16.2942 132.125 16.9875 132.453 17.2855L132.606 20.0871ZM140.236 19.95C140.474 20.1627 140.829 20.2618 141.104 20.2533C141.4 20.2441 141.65 20.1263 141.742 19.9144C142.067 19.0349 142.087 18.9682 142.129 18.9009C143.104 18.7497 144.266 18.5927 145.208 18.4424L145.209 18.4864C145.397 18.8768 145.623 19.4091 145.914 19.9393C146.367 20.0023 147.112 19.539 147.276 19.1268C146.917 18.2024 144.575 12.233 143.244 11.9001C142.663 11.9621 142.377 12.3121 142.141 12.8917C142.271 13.1738 142.341 13.2927 142.422 13.4332C142.423 13.4442 142.445 13.4545 142.445 13.4655C141.497 15.5419 140.065 19.416 140.154 19.7984L140.236 19.95ZM142.63 17.3006C143.405 15.3177 143.495 15.0288 143.577 14.8282C143.881 15.391 144.338 16.3013 144.589 16.9429L142.63 17.3006ZM147.951 18.7427C148.858 19.5951 149.947 19.9355 151.002 19.9029C153.014 19.8406 154.533 18.7811 154.475 16.912C154.442 15.8455 153.76 15.1293 152.947 14.8243C153.43 14.4131 153.776 13.8851 153.754 13.1485C153.711 11.7742 152.472 11.2072 151.219 11.246C150.031 11.2828 148.684 11.8417 147.903 13.2746C147.938 13.7137 148.627 14.2647 149.077 14.2507C149.519 13.5767 150.24 12.707 151.241 12.676C151.747 12.6604 152.125 12.8027 152.138 13.2095C152.165 14.0891 151.054 14.8168 149.628 14.971C149.439 15.263 149.391 15.4956 149.397 15.6715C149.411 16.1333 149.838 16.4282 150.248 16.5036C150.791 16.2777 151.149 16.1235 151.578 16.1102C151.974 16.098 152.751 16.327 152.771 16.9537C152.804 18.0092 151.7 18.2525 150.963 18.2753C150.072 18.3029 149.44 17.7722 148.773 17.2095C148.111 17.5272 147.873 18.0078 147.951 18.7427ZM155.171 19.4877C155.409 19.7004 155.764 19.7995 156.039 19.791C156.336 19.7818 156.585 19.664 156.678 19.4521C157.003 18.5726 157.023 18.5059 157.065 18.4386C158.039 18.2874 159.201 18.1303 160.143 17.9801L160.144 18.0241C160.332 18.4145 160.558 18.9468 160.849 19.477C161.303 19.54 162.048 19.0767 162.211 18.6645C161.852 17.7401 159.51 11.7707 158.179 11.4378C157.598 11.4998 157.312 11.8498 157.077 12.4293C157.206 12.7115 157.276 12.8304 157.357 12.9709C157.358 12.9819 157.38 12.9922 157.38 13.0032C156.432 15.0796 155 18.9537 155.089 19.3361L155.171 19.4877ZM157.565 16.8383C158.34 14.8554 158.43 14.5665 158.512 14.3659C158.816 14.9287 159.273 15.839 159.524 16.4806L157.565 16.8383ZM162.809 17.9086C162.642 18.9153 162.759 19.8691 163.046 20.9607C163.519 20.9461 164.392 20.699 164.566 20.2974C164.546 20.0119 164.478 19.5738 164.447 19.2776C166.905 19.0694 168.168 18.9643 169.2 18.8774C169.169 19.3075 169.218 20.1974 169.559 20.539C170.153 20.5206 170.593 20.529 170.917 19.9467C170.861 19.2221 170.909 17.933 170.891 17.3503C170.435 17.1883 169.981 17.1143 169.577 17.1929C169.503 14.1027 169.446 12.2446 169.304 11.2255C169.185 10.943 168.971 10.7846 168.693 10.6941C167.485 10.7755 164.983 10.996 163.902 11.2716C163.721 11.4863 163.652 11.7306 163.659 11.9505C163.668 12.2583 163.822 12.5947 164.17 12.8261C164.225 12.8244 164.521 12.7932 164.62 12.7791C164.579 13.947 164.434 16.7358 163.716 17.7155C163.365 17.7483 163.025 17.7809 162.809 17.9086ZM165.572 17.592C165.938 16.6232 166.172 14.9321 166.186 12.5326C166.415 12.4814 167.206 12.4239 167.744 12.3853C167.88 13.5916 167.917 16.1988 167.876 17.3666L165.572 17.592Z" fill="white"/>
</svg>
