<svg width="921" height="48" viewBox="0 0 921 48" fill="none" xmlns="http://www.w3.org/2000/svg">
<circle cx="301" cy="9.5" r="1" fill="#9D0000"/>
<rect x="0.5" y="8" width="306" height="39" rx="5.5" fill="#9D0000" stroke="#9D0000"/>
<rect x="0.5" y="4" width="306" height="41" rx="5.5" fill="#E53935" stroke="#9D0000"/>
<path d="M20.3375 29.738C22.9555 29.738 25.9095 28.044 25.9095 24.264C25.9095 21.17 23.8515 19.126 20.9255 19.126C18.2235 19.126 15.6755 21.1 15.6755 24.53C15.6755 27.694 17.7055 29.738 20.3375 29.738ZM20.4355 27.652C18.8955 27.652 17.7755 26.616 17.7755 24.558C17.7755 22.206 19.3575 21.156 20.9815 21.156C22.4235 21.156 23.7535 22.192 23.7535 24.264C23.7535 27.022 21.6535 27.652 20.4355 27.652ZM27.6145 25.342C28.9025 25.272 29.4345 25.384 30.6945 25.23C31.1005 25.048 31.3245 24.558 31.3245 24.11C31.3245 23.788 31.1845 23.41 30.8065 23.172C29.4065 23.34 28.6505 23.284 27.7125 23.326C27.3065 23.508 27.0825 23.998 27.0825 24.446C27.0825 24.768 27.2225 25.104 27.6145 25.342ZM36.9078 29.738C39.5258 29.738 42.4798 28.044 42.4798 24.264C42.4798 21.17 40.4218 19.126 37.4958 19.126C34.7938 19.126 32.2458 21.1 32.2458 24.53C32.2458 27.694 34.2758 29.738 36.9078 29.738ZM37.0058 27.652C35.4658 27.652 34.3458 26.616 34.3458 24.558C34.3458 22.206 35.9278 21.156 37.5518 21.156C38.9938 21.156 40.3238 22.192 40.3238 24.264C40.3238 27.022 38.2238 27.652 37.0058 27.652ZM44.1848 25.342C45.4728 25.272 46.0048 25.384 47.2648 25.23C47.6708 25.048 47.8948 24.558 47.8948 24.11C47.8948 23.788 47.7548 23.41 47.3768 23.172C45.9768 23.34 45.2208 23.284 44.2828 23.326C43.8768 23.508 43.6528 23.998 43.6528 24.446C43.6528 24.768 43.7928 25.104 44.1848 25.342ZM53.4781 29.738C56.0961 29.738 59.0501 28.044 59.0501 24.264C59.0501 21.17 56.9921 19.126 54.0661 19.126C51.3641 19.126 48.8161 21.1 48.8161 24.53C48.8161 27.694 50.8461 29.738 53.4781 29.738ZM53.5761 27.652C52.0361 27.652 50.9161 26.616 50.9161 24.558C50.9161 22.206 52.4981 21.156 54.1221 21.156C55.5641 21.156 56.8941 22.192 56.8941 24.264C56.8941 27.022 54.7941 27.652 53.5761 27.652ZM60.1531 28.45C60.1531 29.08 60.4331 29.556 61.2591 29.766C61.8331 29.752 62.7011 29.528 62.9391 28.548C62.8691 27.624 62.1971 27.274 61.6931 27.274C60.6151 27.274 60.2931 27.82 60.1531 28.45ZM63.9129 28.45C63.9129 29.08 64.1929 29.556 65.0189 29.766C65.5929 29.752 66.4609 29.528 66.6989 28.548C66.6289 27.624 65.9569 27.274 65.4529 27.274C64.3749 27.274 64.0529 27.82 63.9129 28.45ZM67.6726 28.45C67.6726 29.08 67.9526 29.556 68.7786 29.766C69.3526 29.752 70.2206 29.528 70.4586 28.548C70.3886 27.624 69.7166 27.274 69.2126 27.274C68.1346 27.274 67.8126 27.82 67.6726 28.45ZM75.2869 27.694C75.0349 28.968 75.1469 30.186 75.4689 31.586C76.0709 31.586 77.1909 31.306 77.4289 30.802C77.4149 30.438 77.3449 29.878 77.3169 29.5C80.4529 29.332 82.0629 29.248 83.3789 29.178C83.3229 29.724 83.3509 30.858 83.7709 31.306C84.5269 31.306 85.0869 31.334 85.5209 30.606C85.4789 29.682 85.5909 28.044 85.5909 27.302C85.0169 27.078 84.4429 26.966 83.9249 27.05C83.9529 23.116 83.9529 20.75 83.8129 19.448C83.6729 19.084 83.4069 18.874 83.0569 18.748C81.5169 18.804 78.3249 18.986 76.9389 19.294C76.7009 19.56 76.6029 19.868 76.6029 20.148C76.6029 20.54 76.7849 20.974 77.2189 21.282C77.2889 21.282 77.6669 21.254 77.7929 21.24C77.6949 22.724 77.4009 26.266 76.4489 27.484C76.0009 27.512 75.5669 27.54 75.2869 27.694ZM78.8149 27.4C79.3189 26.182 79.6829 24.04 79.7949 20.988C80.0889 20.932 81.0969 20.89 81.7829 20.862C81.9089 22.402 81.8529 25.72 81.7549 27.204L78.8149 27.4ZM86.6319 29.402C86.9259 29.682 87.3739 29.822 87.7239 29.822C88.1019 29.822 88.4239 29.682 88.5499 29.416C88.9979 28.31 89.0259 28.226 89.0819 28.142C90.3279 27.988 91.8119 27.834 93.0159 27.68V27.736C93.2399 28.24 93.5059 28.926 93.8559 29.612C94.4299 29.71 95.3959 29.15 95.6199 28.632C95.1999 27.442 92.4559 19.756 90.7759 19.28C90.0339 19.336 89.6559 19.77 89.3339 20.498C89.4879 20.862 89.5719 21.016 89.6699 21.198C89.6699 21.212 89.6979 21.226 89.6979 21.24C88.4099 23.844 86.4359 28.716 86.5339 29.206L86.6319 29.402ZM89.7819 26.126C90.8459 23.634 90.9719 23.27 91.0839 23.018C91.4479 23.746 91.9939 24.922 92.2879 25.748L89.7819 26.126ZM104.852 28.45C104.852 29.08 105.132 29.556 105.958 29.766C106.532 29.752 107.4 29.528 107.638 28.548C107.568 27.624 106.896 27.274 106.392 27.274C105.314 27.274 104.992 27.82 104.852 28.45ZM100.652 28.45C100.652 29.08 100.932 29.556 101.758 29.766C102.332 29.752 103.2 29.528 103.438 28.548C103.368 27.624 102.696 27.274 102.192 27.274C101.114 27.274 100.792 27.82 100.652 28.45ZM96.4519 28.45C96.4519 29.08 96.7319 29.556 97.5579 29.766C98.1319 29.752 98.9999 29.528 99.2379 28.548C99.1679 27.624 98.4959 27.274 97.9919 27.274C96.9139 27.274 96.5919 27.82 96.4519 28.45ZM113.328 29.15C113.566 29.584 113.902 29.724 114.294 29.724C114.714 29.724 115.218 29.5 115.498 29.052C115.484 27.764 115.372 22.318 115.386 21.17C115.82 21.016 118.27 20.89 119.488 20.862C119.628 22.262 119.488 28.058 119.502 28.94C119.782 29.318 120.202 29.5 120.608 29.5C121.084 29.5 121.574 29.248 121.714 28.758C121.686 26.504 121.798 20.386 121.574 19.462C121.336 19.084 121.056 18.888 120.72 18.804C117.738 18.832 115.694 19.126 114.896 19.252C114.784 19.182 114.7 19.14 114.448 19.084C114.182 19.084 113.188 19.49 112.936 20.106C112.978 20.47 113.02 20.694 113.188 20.96C113.244 22.038 113.188 28.422 113.328 29.15ZM127.785 29.738C130.403 29.738 133.357 28.044 133.357 24.264C133.357 21.17 131.299 19.126 128.373 19.126C125.671 19.126 123.123 21.1 123.123 24.53C123.123 27.694 125.153 29.738 127.785 29.738ZM127.883 27.652C126.343 27.652 125.223 26.616 125.223 24.558C125.223 22.206 126.805 21.156 128.429 21.156C129.871 21.156 131.201 22.192 131.201 24.264C131.201 27.022 129.101 27.652 127.883 27.652ZM135.272 29.542C135.51 29.822 135.79 29.906 136.084 29.906C136.392 29.906 136.84 29.794 137.288 29.486C137.274 28.296 137.204 27.246 137.19 26.098C139.178 25.888 143.378 24.432 143.378 21.66C143.378 20.022 141.222 19.168 139.57 19.168C138.1 19.168 136.14 19.266 134.908 20.806C134.684 21.408 134.81 21.8 135.174 22.094C135.16 22.668 135.146 23.62 135.146 24.894C135.146 26.406 135.174 28.254 135.272 29.542ZM137.19 24.166C137.218 23.34 137.246 22.15 137.302 21.464C137.722 21.268 138.646 21.03 139.248 21.03C140.116 21.03 141.18 21.212 141.18 21.814C141.18 23.312 138.282 24.026 137.19 24.166ZM144.136 29.402C144.43 29.682 144.878 29.822 145.228 29.822C145.606 29.822 145.928 29.682 146.054 29.416C146.502 28.31 146.53 28.226 146.586 28.142C147.832 27.988 149.316 27.834 150.52 27.68V27.736C150.744 28.24 151.01 28.926 151.36 29.612C151.934 29.71 152.9 29.15 153.124 28.632C152.704 27.442 149.96 19.756 148.28 19.28C147.538 19.336 147.16 19.77 146.838 20.498C146.992 20.862 147.076 21.016 147.174 21.198C147.174 21.212 147.202 21.226 147.202 21.24C145.914 23.844 143.94 28.716 144.038 29.206L144.136 29.402ZM147.286 26.126C148.35 23.634 148.476 23.27 148.588 23.018C148.952 23.746 149.498 24.922 149.792 25.748L147.286 26.126ZM158.398 28.66C158.454 29.304 158.678 29.696 159.448 30.018L168.744 29.374C169.262 29.136 169.71 28.576 169.752 27.89C169.808 26.84 170.06 20.456 169.542 19.196C169.304 19.112 169.066 19.056 168.898 19.056C168.394 19.056 167.834 19.238 167.666 19.63C167.54 21.212 167.708 25.524 167.638 27.442C167.022 27.54 166.056 27.554 165.23 27.582C165.272 25.02 165.3 21.408 165.118 19.532C164.474 19.406 163.34 19.546 163.116 20.064C163.018 21.604 163.172 26.224 163.102 27.68C161.786 27.764 161.086 27.82 160.554 27.848C160.498 25.622 160.582 21.464 160.778 19.854C160.47 19.308 159.35 19.182 158.664 19.364C158.216 22.136 158.328 25.986 158.398 28.66ZM172.24 28.702C172.478 29.318 172.758 29.738 173.248 29.738C176.37 29.682 180.08 28.324 180.08 25.146C180.08 23.886 179.198 23.466 177.98 23.242C178.904 22.612 179.52 21.842 179.52 20.736C179.52 19.588 177.952 19.126 176.188 19.126C174.046 19.126 172.604 19.616 171.386 20.624C171.386 21.142 171.568 21.59 171.932 21.926C171.932 22.556 171.932 22.892 171.96 23.872C171.75 24.054 171.666 24.362 171.666 24.67C171.666 24.992 171.764 25.314 172.03 25.44C172.086 26.756 172.142 27.694 172.24 28.702ZM174.102 23.186C174.088 22.724 174.032 21.632 174.074 21.338C174.578 21.142 175.488 20.96 176.244 20.96C176.79 20.96 177.322 21.058 177.322 21.24C177.322 22.178 176.09 22.808 174.102 23.186ZM174.312 27.652C174.242 27.106 174.172 26.238 174.172 25.328C174.69 25.02 176.02 24.726 176.818 24.726C177.63 24.726 177.966 25.02 177.966 25.384C177.966 26.714 175.754 27.47 174.312 27.652ZM182.026 29.052C182.628 29.612 182.894 29.556 183.636 29.71C184.364 29.388 187.066 25.02 188.382 22.85C188.298 24.558 188.214 25.692 188.214 26.644C188.214 27.974 188.368 29.108 188.844 29.43C189.334 29.682 190.398 29.388 190.58 28.744C190.524 28.268 190.51 27.638 190.51 26.882C190.496 25.762 190.692 20.148 190.51 19.462C190.216 19.098 189.502 18.888 189.138 18.79C188.046 18.986 185.344 23.956 184.112 25.888C184.098 24.516 184.196 20.218 184.028 18.72C183.342 18.622 182.404 18.706 181.942 19.252C181.942 21.856 181.872 27.456 182.026 29.052ZM196.118 28.828C196.146 29.08 196.202 29.36 196.37 29.612C196.566 29.766 196.874 29.864 197.154 29.864C197.56 29.864 198.078 29.724 198.302 29.402C198.302 29.01 198.302 28.926 198.274 28.646C201.116 28.45 202.656 26.322 202.656 24.334C202.656 21.226 200.556 19.728 198.274 19.728C198.246 19.392 198.148 19 198.036 18.622C197.028 18.622 196.286 18.804 196.104 19.308C196.174 19.658 196.118 19.56 196.174 19.938C193.836 20.26 191.918 21.758 191.918 24.502C191.918 26.434 192.996 28.674 196.118 28.828ZM198.288 26.756L198.372 21.702C199.618 21.786 200.486 22.78 200.486 24.264C200.486 25.384 199.926 26.49 198.288 26.756ZM196.174 26.938C194.984 26.784 194.018 25.93 194.018 24.74C194.018 22.962 194.928 22.206 196.216 21.884C196.216 24.418 196.216 25.398 196.174 26.938ZM206.708 29.458C207.352 29.878 208.094 29.668 208.696 29.108L208.612 21.016C209.872 20.876 210.67 20.806 211.272 20.582C211.622 20.036 211.636 19.28 211.23 18.874C209.802 18.874 204.636 19.378 203.474 19.868C203.278 20.372 203.432 21.03 203.782 21.59C204.79 21.562 205.574 21.408 206.526 21.268C206.47 23.34 206.512 28.422 206.708 29.458ZM210.868 29.402C211.162 29.682 211.61 29.822 211.96 29.822C212.338 29.822 212.66 29.682 212.786 29.416C213.234 28.31 213.262 28.226 213.318 28.142C214.564 27.988 216.048 27.834 217.252 27.68V27.736C217.476 28.24 217.742 28.926 218.092 29.612C218.666 29.71 219.632 29.15 219.856 28.632C219.436 27.442 216.692 19.756 215.012 19.28C214.27 19.336 213.892 19.77 213.57 20.498C213.724 20.862 213.808 21.016 213.906 21.198C213.906 21.212 213.934 21.226 213.934 21.24C212.646 23.844 210.672 28.716 210.77 29.206L210.868 29.402ZM214.018 26.126C215.082 23.634 215.208 23.27 215.32 23.018C215.684 23.746 216.23 24.922 216.524 25.748L214.018 26.126ZM221.514 29.276C221.668 29.626 222.088 29.78 222.508 29.78C223.054 29.78 223.614 29.5 223.614 28.954C223.614 28.198 223.516 25.972 223.572 25.636C224.006 25.524 226.288 25.286 227.492 25.16C227.492 26.322 227.478 27.848 227.464 28.968C227.674 29.43 228.15 29.626 228.57 29.626C229.102 29.626 229.578 29.346 229.662 28.87C229.634 27.932 229.634 26.714 229.634 25.496C229.634 23.354 229.62 21.058 229.452 19.574C229.242 19.252 228.85 19.07 228.486 19.07C228.01 19.07 227.548 19.308 227.38 19.798C227.38 21.506 227.394 22.36 227.422 23.242C225.7 23.424 224.468 23.522 223.656 23.564C223.614 21.562 223.586 19.77 223.292 19.238C222.452 18.986 221.5 19.392 221.318 20.008C221.276 20.946 221.43 23.34 221.43 24.012C221.052 24.432 221.024 25.314 221.43 25.706L221.514 29.276ZM232.934 28.968C233.312 29.836 233.942 30.074 234.908 29.85C236.532 27.358 239.066 22.192 240.074 19.686C239.696 18.986 238.856 18.804 238.338 18.916C237.456 20.358 236.546 22.654 235.692 24.166C234.796 22.738 233.76 20.554 232.934 19.126C232.346 18.636 231.212 19.07 231.03 19.602C231.212 20.904 233.564 24.348 234.628 26.14L232.934 28.968ZM244.019 29.458C244.663 29.878 245.405 29.668 246.007 29.108L245.923 21.016C247.183 20.876 247.981 20.806 248.583 20.582C248.933 20.036 248.947 19.28 248.541 18.874C247.113 18.874 241.947 19.378 240.785 19.868C240.589 20.372 240.743 21.03 241.093 21.59C242.101 21.562 242.885 21.408 243.837 21.268C243.781 23.34 243.823 28.422 244.019 29.458ZM250.787 28.646C250.941 29.276 251.445 29.598 251.963 29.752C254.623 29.71 258.851 29.136 258.851 25.44C258.851 23.508 257.171 22.668 255.463 22.668C254.693 22.668 253.797 22.822 252.733 23.102L252.719 19.238C252.453 18.972 251.977 18.888 251.543 18.888C251.263 18.888 250.941 19 250.605 19.364C250.745 21.226 250.591 27.106 250.787 28.646ZM252.817 27.736L252.761 25.034C252.999 24.88 254.119 24.628 255.113 24.628C256.051 24.628 256.723 24.866 256.723 25.524C256.723 27.232 254.469 27.862 252.817 27.736ZM259.847 24.922C259.847 27.26 261.639 29.71 264.341 29.71C266.035 29.71 267.967 28.772 269.045 27.148C269.115 26.35 268.429 25.706 267.729 25.65C266.399 27.274 265.657 27.708 264.425 27.708C263.291 27.708 262.003 26.7 262.003 25.048C262.003 22.136 263.641 21.17 265.097 21.17C266.273 21.17 266.861 21.688 267.351 22.276C268.065 22.164 268.737 21.66 268.765 21.044C268.471 20.036 266.861 19.252 265.237 19.252C262.157 19.252 259.847 21.352 259.847 24.922ZM271.122 28.31C270.87 29.234 271.752 29.794 272.144 29.836C273.642 29.71 275.294 27.176 275.924 25.552C276.358 25.524 276.82 25.454 277.226 25.37L277.142 29.374C277.59 29.668 278.024 29.78 278.318 29.78C278.612 29.78 278.892 29.682 279.102 29.472C279.214 28.058 279.242 25.93 279.242 24.068C279.242 22.5 279.214 21.086 279.186 20.498C279.144 19.868 278.724 19.49 278.248 19.266C277.562 19.168 276.722 19.084 275.91 19.084C273.544 19.084 270.996 19.728 270.996 22.416C270.996 24.012 272.508 25.146 273.782 25.44C273.362 26.308 272.354 27.736 271.122 28.31ZM273.012 22.416C273.012 21.282 274.356 20.862 275.644 20.862C276.162 20.862 276.68 20.932 277.156 21.044L277.24 23.592C276.946 23.662 276.078 23.788 275.266 23.788C274.132 23.788 273.012 23.424 273.012 22.416ZM280.899 28.45C280.899 29.08 281.179 29.556 282.005 29.766C282.579 29.752 283.447 29.528 283.685 28.548C283.615 27.624 282.943 27.274 282.439 27.274C281.361 27.274 281.039 27.82 280.899 28.45ZM284.659 28.45C284.659 29.08 284.939 29.556 285.765 29.766C286.339 29.752 287.207 29.528 287.445 28.548C287.375 27.624 286.703 27.274 286.199 27.274C285.121 27.274 284.799 27.82 284.659 28.45ZM288.419 28.45C288.419 29.08 288.699 29.556 289.525 29.766C290.099 29.752 290.967 29.528 291.205 28.548C291.135 27.624 290.463 27.274 289.959 27.274C288.881 27.274 288.559 27.82 288.419 28.45Z" fill="white"/>
<circle cx="6" cy="9.5" r="1" fill="#9D0000"/>
<circle cx="6" cy="37.5" r="1" fill="#9D0000"/>
<circle cx="301" cy="37.5" r="1" fill="#9D0000"/>
<rect x="614.5" y="8" width="306" height="39" rx="5.5" fill="#9D0000" stroke="#9D0000"/>
<rect x="614.5" y="5" width="306" height="41" rx="5.5" fill="#BF2E2B" stroke="#9D0000"/>
<path d="M634.338 31.738C636.956 31.738 639.91 30.044 639.91 26.264C639.91 23.17 637.852 21.126 634.926 21.126C632.224 21.126 629.676 23.1 629.676 26.53C629.676 29.694 631.706 31.738 634.338 31.738ZM634.436 29.652C632.896 29.652 631.776 28.616 631.776 26.558C631.776 24.206 633.358 23.156 634.982 23.156C636.424 23.156 637.754 24.192 637.754 26.264C637.754 29.022 635.654 29.652 634.436 29.652ZM641.614 27.342C642.902 27.272 643.434 27.384 644.694 27.23C645.1 27.048 645.324 26.558 645.324 26.11C645.324 25.788 645.184 25.41 644.806 25.172C643.406 25.34 642.65 25.284 641.712 25.326C641.306 25.508 641.082 25.998 641.082 26.446C641.082 26.768 641.222 27.104 641.614 27.342ZM650.908 31.738C653.526 31.738 656.48 30.044 656.48 26.264C656.48 23.17 654.422 21.126 651.496 21.126C648.794 21.126 646.246 23.1 646.246 26.53C646.246 29.694 648.276 31.738 650.908 31.738ZM651.006 29.652C649.466 29.652 648.346 28.616 648.346 26.558C648.346 24.206 649.928 23.156 651.552 23.156C652.994 23.156 654.324 24.192 654.324 26.264C654.324 29.022 652.224 29.652 651.006 29.652ZM658.185 27.342C659.473 27.272 660.005 27.384 661.265 27.23C661.671 27.048 661.895 26.558 661.895 26.11C661.895 25.788 661.755 25.41 661.377 25.172C659.977 25.34 659.221 25.284 658.283 25.326C657.877 25.508 657.653 25.998 657.653 26.446C657.653 26.768 657.793 27.104 658.185 27.342ZM667.478 31.738C670.096 31.738 673.05 30.044 673.05 26.264C673.05 23.17 670.992 21.126 668.066 21.126C665.364 21.126 662.816 23.1 662.816 26.53C662.816 29.694 664.846 31.738 667.478 31.738ZM667.576 29.652C666.036 29.652 664.916 28.616 664.916 26.558C664.916 24.206 666.498 23.156 668.122 23.156C669.564 23.156 670.894 24.192 670.894 26.264C670.894 29.022 668.794 29.652 667.576 29.652ZM674.153 30.45C674.153 31.08 674.433 31.556 675.259 31.766C675.833 31.752 676.701 31.528 676.939 30.548C676.869 29.624 676.197 29.274 675.693 29.274C674.615 29.274 674.293 29.82 674.153 30.45ZM677.913 30.45C677.913 31.08 678.193 31.556 679.019 31.766C679.593 31.752 680.461 31.528 680.699 30.548C680.629 29.624 679.957 29.274 679.453 29.274C678.375 29.274 678.053 29.82 677.913 30.45ZM681.673 30.45C681.673 31.08 681.953 31.556 682.779 31.766C683.353 31.752 684.221 31.528 684.459 30.548C684.389 29.624 683.717 29.274 683.213 29.274C682.135 29.274 681.813 29.82 681.673 30.45ZM689.287 29.694C689.035 30.968 689.147 32.186 689.469 33.586C690.071 33.586 691.191 33.306 691.429 32.802C691.415 32.438 691.345 31.878 691.317 31.5C694.453 31.332 696.063 31.248 697.379 31.178C697.323 31.724 697.351 32.858 697.771 33.306C698.527 33.306 699.087 33.334 699.521 32.606C699.479 31.682 699.591 30.044 699.591 29.302C699.017 29.078 698.443 28.966 697.925 29.05C697.953 25.116 697.953 22.75 697.813 21.448C697.673 21.084 697.407 20.874 697.057 20.748C695.517 20.804 692.325 20.986 690.939 21.294C690.701 21.56 690.603 21.868 690.603 22.148C690.603 22.54 690.785 22.974 691.219 23.282C691.289 23.282 691.667 23.254 691.793 23.24C691.695 24.724 691.401 28.266 690.449 29.484C690.001 29.512 689.567 29.54 689.287 29.694ZM692.815 29.4C693.319 28.182 693.683 26.04 693.795 22.988C694.089 22.932 695.097 22.89 695.783 22.862C695.909 24.402 695.853 27.72 695.755 29.204L692.815 29.4ZM700.632 31.402C700.926 31.682 701.374 31.822 701.724 31.822C702.102 31.822 702.424 31.682 702.55 31.416C702.998 30.31 703.026 30.226 703.082 30.142C704.328 29.988 705.812 29.834 707.016 29.68V29.736C707.24 30.24 707.506 30.926 707.856 31.612C708.43 31.71 709.396 31.15 709.62 30.632C709.2 29.442 706.456 21.756 704.776 21.28C704.034 21.336 703.656 21.77 703.334 22.498C703.488 22.862 703.572 23.016 703.67 23.198C703.67 23.212 703.698 23.226 703.698 23.24C702.41 25.844 700.436 30.716 700.534 31.206L700.632 31.402ZM703.782 28.126C704.846 25.634 704.972 25.27 705.084 25.018C705.448 25.746 705.994 26.922 706.288 27.748L703.782 28.126ZM718.852 30.45C718.852 31.08 719.132 31.556 719.958 31.766C720.532 31.752 721.4 31.528 721.638 30.548C721.568 29.624 720.896 29.274 720.392 29.274C719.314 29.274 718.992 29.82 718.852 30.45ZM714.652 30.45C714.652 31.08 714.932 31.556 715.758 31.766C716.332 31.752 717.2 31.528 717.438 30.548C717.368 29.624 716.696 29.274 716.192 29.274C715.114 29.274 714.792 29.82 714.652 30.45ZM710.452 30.45C710.452 31.08 710.732 31.556 711.558 31.766C712.132 31.752 713 31.528 713.238 30.548C713.168 29.624 712.496 29.274 711.992 29.274C710.914 29.274 710.592 29.82 710.452 30.45ZM727.328 31.15C727.566 31.584 727.902 31.724 728.294 31.724C728.714 31.724 729.218 31.5 729.498 31.052C729.484 29.764 729.372 24.318 729.386 23.17C729.82 23.016 732.27 22.89 733.488 22.862C733.628 24.262 733.488 30.058 733.502 30.94C733.782 31.318 734.202 31.5 734.608 31.5C735.084 31.5 735.574 31.248 735.714 30.758C735.686 28.504 735.798 22.386 735.574 21.462C735.336 21.084 735.056 20.888 734.72 20.804C731.738 20.832 729.694 21.126 728.896 21.252C728.784 21.182 728.7 21.14 728.448 21.084C728.182 21.084 727.188 21.49 726.936 22.106C726.978 22.47 727.02 22.694 727.188 22.96C727.244 24.038 727.188 30.422 727.328 31.15ZM741.785 31.738C744.403 31.738 747.357 30.044 747.357 26.264C747.357 23.17 745.299 21.126 742.373 21.126C739.671 21.126 737.123 23.1 737.123 26.53C737.123 29.694 739.153 31.738 741.785 31.738ZM741.883 29.652C740.343 29.652 739.223 28.616 739.223 26.558C739.223 24.206 740.805 23.156 742.429 23.156C743.871 23.156 745.201 24.192 745.201 26.264C745.201 29.022 743.101 29.652 741.883 29.652ZM749.272 31.542C749.51 31.822 749.79 31.906 750.084 31.906C750.392 31.906 750.84 31.794 751.288 31.486C751.274 30.296 751.204 29.246 751.19 28.098C753.178 27.888 757.378 26.432 757.378 23.66C757.378 22.022 755.222 21.168 753.57 21.168C752.1 21.168 750.14 21.266 748.908 22.806C748.684 23.408 748.81 23.8 749.174 24.094C749.16 24.668 749.146 25.62 749.146 26.894C749.146 28.406 749.174 30.254 749.272 31.542ZM751.19 26.166C751.218 25.34 751.246 24.15 751.302 23.464C751.722 23.268 752.646 23.03 753.248 23.03C754.116 23.03 755.18 23.212 755.18 23.814C755.18 25.312 752.282 26.026 751.19 26.166ZM758.136 31.402C758.43 31.682 758.878 31.822 759.228 31.822C759.606 31.822 759.928 31.682 760.054 31.416C760.502 30.31 760.53 30.226 760.586 30.142C761.832 29.988 763.316 29.834 764.52 29.68V29.736C764.744 30.24 765.01 30.926 765.36 31.612C765.934 31.71 766.9 31.15 767.124 30.632C766.704 29.442 763.96 21.756 762.28 21.28C761.538 21.336 761.16 21.77 760.838 22.498C760.992 22.862 761.076 23.016 761.174 23.198C761.174 23.212 761.202 23.226 761.202 23.24C759.914 25.844 757.94 30.716 758.038 31.206L758.136 31.402ZM761.286 28.126C762.35 25.634 762.476 25.27 762.588 25.018C762.952 25.746 763.498 26.922 763.792 27.748L761.286 28.126ZM772.398 30.66C772.454 31.304 772.678 31.696 773.448 32.018L782.744 31.374C783.262 31.136 783.71 30.576 783.752 29.89C783.808 28.84 784.06 22.456 783.542 21.196C783.304 21.112 783.066 21.056 782.898 21.056C782.394 21.056 781.834 21.238 781.666 21.63C781.54 23.212 781.708 27.524 781.638 29.442C781.022 29.54 780.056 29.554 779.23 29.582C779.272 27.02 779.3 23.408 779.118 21.532C778.474 21.406 777.34 21.546 777.116 22.064C777.018 23.604 777.172 28.224 777.102 29.68C775.786 29.764 775.086 29.82 774.554 29.848C774.498 27.622 774.582 23.464 774.778 21.854C774.47 21.308 773.35 21.182 772.664 21.364C772.216 24.136 772.328 27.986 772.398 30.66ZM786.24 30.702C786.478 31.318 786.758 31.738 787.248 31.738C790.37 31.682 794.08 30.324 794.08 27.146C794.08 25.886 793.198 25.466 791.98 25.242C792.904 24.612 793.52 23.842 793.52 22.736C793.52 21.588 791.952 21.126 790.188 21.126C788.046 21.126 786.604 21.616 785.386 22.624C785.386 23.142 785.568 23.59 785.932 23.926C785.932 24.556 785.932 24.892 785.96 25.872C785.75 26.054 785.666 26.362 785.666 26.67C785.666 26.992 785.764 27.314 786.03 27.44C786.086 28.756 786.142 29.694 786.24 30.702ZM788.102 25.186C788.088 24.724 788.032 23.632 788.074 23.338C788.578 23.142 789.488 22.96 790.244 22.96C790.79 22.96 791.322 23.058 791.322 23.24C791.322 24.178 790.09 24.808 788.102 25.186ZM788.312 29.652C788.242 29.106 788.172 28.238 788.172 27.328C788.69 27.02 790.02 26.726 790.818 26.726C791.63 26.726 791.966 27.02 791.966 27.384C791.966 28.714 789.754 29.47 788.312 29.652ZM796.026 31.052C796.628 31.612 796.894 31.556 797.636 31.71C798.364 31.388 801.066 27.02 802.382 24.85C802.298 26.558 802.214 27.692 802.214 28.644C802.214 29.974 802.368 31.108 802.844 31.43C803.334 31.682 804.398 31.388 804.58 30.744C804.524 30.268 804.51 29.638 804.51 28.882C804.496 27.762 804.692 22.148 804.51 21.462C804.216 21.098 803.502 20.888 803.138 20.79C802.046 20.986 799.344 25.956 798.112 27.888C798.098 26.516 798.196 22.218 798.028 20.72C797.342 20.622 796.404 20.706 795.942 21.252C795.942 23.856 795.872 29.456 796.026 31.052ZM810.118 30.828C810.146 31.08 810.202 31.36 810.37 31.612C810.566 31.766 810.874 31.864 811.154 31.864C811.56 31.864 812.078 31.724 812.302 31.402C812.302 31.01 812.302 30.926 812.274 30.646C815.116 30.45 816.656 28.322 816.656 26.334C816.656 23.226 814.556 21.728 812.274 21.728C812.246 21.392 812.148 21 812.036 20.622C811.028 20.622 810.286 20.804 810.104 21.308C810.174 21.658 810.118 21.56 810.174 21.938C807.836 22.26 805.918 23.758 805.918 26.502C805.918 28.434 806.996 30.674 810.118 30.828ZM812.288 28.756L812.372 23.702C813.618 23.786 814.486 24.78 814.486 26.264C814.486 27.384 813.926 28.49 812.288 28.756ZM810.174 28.938C808.984 28.784 808.018 27.93 808.018 26.74C808.018 24.962 808.928 24.206 810.216 23.884C810.216 26.418 810.216 27.398 810.174 28.938ZM820.708 31.458C821.352 31.878 822.094 31.668 822.696 31.108L822.612 23.016C823.872 22.876 824.67 22.806 825.272 22.582C825.622 22.036 825.636 21.28 825.23 20.874C823.802 20.874 818.636 21.378 817.474 21.868C817.278 22.372 817.432 23.03 817.782 23.59C818.79 23.562 819.574 23.408 820.526 23.268C820.47 25.34 820.512 30.422 820.708 31.458ZM824.868 31.402C825.162 31.682 825.61 31.822 825.96 31.822C826.338 31.822 826.66 31.682 826.786 31.416C827.234 30.31 827.262 30.226 827.318 30.142C828.564 29.988 830.048 29.834 831.252 29.68V29.736C831.476 30.24 831.742 30.926 832.092 31.612C832.666 31.71 833.632 31.15 833.856 30.632C833.436 29.442 830.692 21.756 829.012 21.28C828.27 21.336 827.892 21.77 827.57 22.498C827.724 22.862 827.808 23.016 827.906 23.198C827.906 23.212 827.934 23.226 827.934 23.24C826.646 25.844 824.672 30.716 824.77 31.206L824.868 31.402ZM828.018 28.126C829.082 25.634 829.208 25.27 829.32 25.018C829.684 25.746 830.23 26.922 830.524 27.748L828.018 28.126ZM835.514 31.276C835.668 31.626 836.088 31.78 836.508 31.78C837.054 31.78 837.614 31.5 837.614 30.954C837.614 30.198 837.516 27.972 837.572 27.636C838.006 27.524 840.288 27.286 841.492 27.16C841.492 28.322 841.478 29.848 841.464 30.968C841.674 31.43 842.15 31.626 842.57 31.626C843.102 31.626 843.578 31.346 843.662 30.87C843.634 29.932 843.634 28.714 843.634 27.496C843.634 25.354 843.62 23.058 843.452 21.574C843.242 21.252 842.85 21.07 842.486 21.07C842.01 21.07 841.548 21.308 841.38 21.798C841.38 23.506 841.394 24.36 841.422 25.242C839.7 25.424 838.468 25.522 837.656 25.564C837.614 23.562 837.586 21.77 837.292 21.238C836.452 20.986 835.5 21.392 835.318 22.008C835.276 22.946 835.43 25.34 835.43 26.012C835.052 26.432 835.024 27.314 835.43 27.706L835.514 31.276ZM846.934 30.968C847.312 31.836 847.942 32.074 848.908 31.85C850.532 29.358 853.066 24.192 854.074 21.686C853.696 20.986 852.856 20.804 852.338 20.916C851.456 22.358 850.546 24.654 849.692 26.166C848.796 24.738 847.76 22.554 846.934 21.126C846.346 20.636 845.212 21.07 845.03 21.602C845.212 22.904 847.564 26.348 848.628 28.14L846.934 30.968ZM858.019 31.458C858.663 31.878 859.405 31.668 860.007 31.108L859.923 23.016C861.183 22.876 861.981 22.806 862.583 22.582C862.933 22.036 862.947 21.28 862.541 20.874C861.113 20.874 855.947 21.378 854.785 21.868C854.589 22.372 854.743 23.03 855.093 23.59C856.101 23.562 856.885 23.408 857.837 23.268C857.781 25.34 857.823 30.422 858.019 31.458ZM864.787 30.646C864.941 31.276 865.445 31.598 865.963 31.752C868.623 31.71 872.851 31.136 872.851 27.44C872.851 25.508 871.171 24.668 869.463 24.668C868.693 24.668 867.797 24.822 866.733 25.102L866.719 21.238C866.453 20.972 865.977 20.888 865.543 20.888C865.263 20.888 864.941 21 864.605 21.364C864.745 23.226 864.591 29.106 864.787 30.646ZM866.817 29.736L866.761 27.034C866.999 26.88 868.119 26.628 869.113 26.628C870.051 26.628 870.723 26.866 870.723 27.524C870.723 29.232 868.469 29.862 866.817 29.736ZM873.847 26.922C873.847 29.26 875.639 31.71 878.341 31.71C880.035 31.71 881.967 30.772 883.045 29.148C883.115 28.35 882.429 27.706 881.729 27.65C880.399 29.274 879.657 29.708 878.425 29.708C877.291 29.708 876.003 28.7 876.003 27.048C876.003 24.136 877.641 23.17 879.097 23.17C880.273 23.17 880.861 23.688 881.351 24.276C882.065 24.164 882.737 23.66 882.765 23.044C882.471 22.036 880.861 21.252 879.237 21.252C876.157 21.252 873.847 23.352 873.847 26.922ZM885.122 30.31C884.87 31.234 885.752 31.794 886.144 31.836C887.642 31.71 889.294 29.176 889.924 27.552C890.358 27.524 890.82 27.454 891.226 27.37L891.142 31.374C891.59 31.668 892.024 31.78 892.318 31.78C892.612 31.78 892.892 31.682 893.102 31.472C893.214 30.058 893.242 27.93 893.242 26.068C893.242 24.5 893.214 23.086 893.186 22.498C893.144 21.868 892.724 21.49 892.248 21.266C891.562 21.168 890.722 21.084 889.91 21.084C887.544 21.084 884.996 21.728 884.996 24.416C884.996 26.012 886.508 27.146 887.782 27.44C887.362 28.308 886.354 29.736 885.122 30.31ZM887.012 24.416C887.012 23.282 888.356 22.862 889.644 22.862C890.162 22.862 890.68 22.932 891.156 23.044L891.24 25.592C890.946 25.662 890.078 25.788 889.266 25.788C888.132 25.788 887.012 25.424 887.012 24.416ZM894.899 30.45C894.899 31.08 895.179 31.556 896.005 31.766C896.579 31.752 897.447 31.528 897.685 30.548C897.615 29.624 896.943 29.274 896.439 29.274C895.361 29.274 895.039 29.82 894.899 30.45ZM898.659 30.45C898.659 31.08 898.939 31.556 899.765 31.766C900.339 31.752 901.207 31.528 901.445 30.548C901.375 29.624 900.703 29.274 900.199 29.274C899.121 29.274 898.799 29.82 898.659 30.45ZM902.419 30.45C902.419 31.08 902.699 31.556 903.525 31.766C904.099 31.752 904.967 31.528 905.205 30.548C905.135 29.624 904.463 29.274 903.959 29.274C902.881 29.274 902.559 29.82 902.419 30.45Z" fill="white"/>
<circle cx="620" cy="11.5" r="1" fill="#9D0000"/>
<circle cx="915" cy="11.5" r="1" fill="#9D0000"/>
<circle cx="620" cy="38.5" r="1" fill="#9D0000"/>
<circle cx="915" cy="38.5" r="1" fill="#9D0000"/>
<rect x="307.5" y="8" width="306" height="39" rx="5.5" fill="#9D0000" stroke="#9D0000"/>
<rect x="307.5" y="1" width="306" height="41" rx="5.5" fill="#FE514C" stroke="#9D0000"/>
<path d="M327.338 26.738C329.956 26.738 332.91 25.044 332.91 21.264C332.91 18.17 330.852 16.126 327.926 16.126C325.224 16.126 322.676 18.1 322.676 21.53C322.676 24.694 324.706 26.738 327.338 26.738ZM327.436 24.652C325.896 24.652 324.776 23.616 324.776 21.558C324.776 19.206 326.358 18.156 327.982 18.156C329.424 18.156 330.754 19.192 330.754 21.264C330.754 24.022 328.654 24.652 327.436 24.652ZM334.614 22.342C335.902 22.272 336.434 22.384 337.694 22.23C338.1 22.048 338.324 21.558 338.324 21.11C338.324 20.788 338.184 20.41 337.806 20.172C336.406 20.34 335.65 20.284 334.712 20.326C334.306 20.508 334.082 20.998 334.082 21.446C334.082 21.768 334.222 22.104 334.614 22.342ZM343.908 26.738C346.526 26.738 349.48 25.044 349.48 21.264C349.48 18.17 347.422 16.126 344.496 16.126C341.794 16.126 339.246 18.1 339.246 21.53C339.246 24.694 341.276 26.738 343.908 26.738ZM344.006 24.652C342.466 24.652 341.346 23.616 341.346 21.558C341.346 19.206 342.928 18.156 344.552 18.156C345.994 18.156 347.324 19.192 347.324 21.264C347.324 24.022 345.224 24.652 344.006 24.652ZM351.185 22.342C352.473 22.272 353.005 22.384 354.265 22.23C354.671 22.048 354.895 21.558 354.895 21.11C354.895 20.788 354.755 20.41 354.377 20.172C352.977 20.34 352.221 20.284 351.283 20.326C350.877 20.508 350.653 20.998 350.653 21.446C350.653 21.768 350.793 22.104 351.185 22.342ZM360.478 26.738C363.096 26.738 366.05 25.044 366.05 21.264C366.05 18.17 363.992 16.126 361.066 16.126C358.364 16.126 355.816 18.1 355.816 21.53C355.816 24.694 357.846 26.738 360.478 26.738ZM360.576 24.652C359.036 24.652 357.916 23.616 357.916 21.558C357.916 19.206 359.498 18.156 361.122 18.156C362.564 18.156 363.894 19.192 363.894 21.264C363.894 24.022 361.794 24.652 360.576 24.652ZM367.153 25.45C367.153 26.08 367.433 26.556 368.259 26.766C368.833 26.752 369.701 26.528 369.939 25.548C369.869 24.624 369.197 24.274 368.693 24.274C367.615 24.274 367.293 24.82 367.153 25.45ZM370.913 25.45C370.913 26.08 371.193 26.556 372.019 26.766C372.593 26.752 373.461 26.528 373.699 25.548C373.629 24.624 372.957 24.274 372.453 24.274C371.375 24.274 371.053 24.82 370.913 25.45ZM374.673 25.45C374.673 26.08 374.953 26.556 375.779 26.766C376.353 26.752 377.221 26.528 377.459 25.548C377.389 24.624 376.717 24.274 376.213 24.274C375.135 24.274 374.813 24.82 374.673 25.45ZM382.287 24.694C382.035 25.968 382.147 27.186 382.469 28.586C383.071 28.586 384.191 28.306 384.429 27.802C384.415 27.438 384.345 26.878 384.317 26.5C387.453 26.332 389.063 26.248 390.379 26.178C390.323 26.724 390.351 27.858 390.771 28.306C391.527 28.306 392.087 28.334 392.521 27.606C392.479 26.682 392.591 25.044 392.591 24.302C392.017 24.078 391.443 23.966 390.925 24.05C390.953 20.116 390.953 17.75 390.813 16.448C390.673 16.084 390.407 15.874 390.057 15.748C388.517 15.804 385.325 15.986 383.939 16.294C383.701 16.56 383.603 16.868 383.603 17.148C383.603 17.54 383.785 17.974 384.219 18.282C384.289 18.282 384.667 18.254 384.793 18.24C384.695 19.724 384.401 23.266 383.449 24.484C383.001 24.512 382.567 24.54 382.287 24.694ZM385.815 24.4C386.319 23.182 386.683 21.04 386.795 17.988C387.089 17.932 388.097 17.89 388.783 17.862C388.909 19.402 388.853 22.72 388.755 24.204L385.815 24.4ZM393.632 26.402C393.926 26.682 394.374 26.822 394.724 26.822C395.102 26.822 395.424 26.682 395.55 26.416C395.998 25.31 396.026 25.226 396.082 25.142C397.328 24.988 398.812 24.834 400.016 24.68V24.736C400.24 25.24 400.506 25.926 400.856 26.612C401.43 26.71 402.396 26.15 402.62 25.632C402.2 24.442 399.456 16.756 397.776 16.28C397.034 16.336 396.656 16.77 396.334 17.498C396.488 17.862 396.572 18.016 396.67 18.198C396.67 18.212 396.698 18.226 396.698 18.24C395.41 20.844 393.436 25.716 393.534 26.206L393.632 26.402ZM396.782 23.126C397.846 20.634 397.972 20.27 398.084 20.018C398.448 20.746 398.994 21.922 399.288 22.748L396.782 23.126ZM411.852 25.45C411.852 26.08 412.132 26.556 412.958 26.766C413.532 26.752 414.4 26.528 414.638 25.548C414.568 24.624 413.896 24.274 413.392 24.274C412.314 24.274 411.992 24.82 411.852 25.45ZM407.652 25.45C407.652 26.08 407.932 26.556 408.758 26.766C409.332 26.752 410.2 26.528 410.438 25.548C410.368 24.624 409.696 24.274 409.192 24.274C408.114 24.274 407.792 24.82 407.652 25.45ZM403.452 25.45C403.452 26.08 403.732 26.556 404.558 26.766C405.132 26.752 406 26.528 406.238 25.548C406.168 24.624 405.496 24.274 404.992 24.274C403.914 24.274 403.592 24.82 403.452 25.45ZM420.328 26.15C420.566 26.584 420.902 26.724 421.294 26.724C421.714 26.724 422.218 26.5 422.498 26.052C422.484 24.764 422.372 19.318 422.386 18.17C422.82 18.016 425.27 17.89 426.488 17.862C426.628 19.262 426.488 25.058 426.502 25.94C426.782 26.318 427.202 26.5 427.608 26.5C428.084 26.5 428.574 26.248 428.714 25.758C428.686 23.504 428.798 17.386 428.574 16.462C428.336 16.084 428.056 15.888 427.72 15.804C424.738 15.832 422.694 16.126 421.896 16.252C421.784 16.182 421.7 16.14 421.448 16.084C421.182 16.084 420.188 16.49 419.936 17.106C419.978 17.47 420.02 17.694 420.188 17.96C420.244 19.038 420.188 25.422 420.328 26.15ZM434.785 26.738C437.403 26.738 440.357 25.044 440.357 21.264C440.357 18.17 438.299 16.126 435.373 16.126C432.671 16.126 430.123 18.1 430.123 21.53C430.123 24.694 432.153 26.738 434.785 26.738ZM434.883 24.652C433.343 24.652 432.223 23.616 432.223 21.558C432.223 19.206 433.805 18.156 435.429 18.156C436.871 18.156 438.201 19.192 438.201 21.264C438.201 24.022 436.101 24.652 434.883 24.652ZM442.272 26.542C442.51 26.822 442.79 26.906 443.084 26.906C443.392 26.906 443.84 26.794 444.288 26.486C444.274 25.296 444.204 24.246 444.19 23.098C446.178 22.888 450.378 21.432 450.378 18.66C450.378 17.022 448.222 16.168 446.57 16.168C445.1 16.168 443.14 16.266 441.908 17.806C441.684 18.408 441.81 18.8 442.174 19.094C442.16 19.668 442.146 20.62 442.146 21.894C442.146 23.406 442.174 25.254 442.272 26.542ZM444.19 21.166C444.218 20.34 444.246 19.15 444.302 18.464C444.722 18.268 445.646 18.03 446.248 18.03C447.116 18.03 448.18 18.212 448.18 18.814C448.18 20.312 445.282 21.026 444.19 21.166ZM451.136 26.402C451.43 26.682 451.878 26.822 452.228 26.822C452.606 26.822 452.928 26.682 453.054 26.416C453.502 25.31 453.53 25.226 453.586 25.142C454.832 24.988 456.316 24.834 457.52 24.68V24.736C457.744 25.24 458.01 25.926 458.36 26.612C458.934 26.71 459.9 26.15 460.124 25.632C459.704 24.442 456.96 16.756 455.28 16.28C454.538 16.336 454.16 16.77 453.838 17.498C453.992 17.862 454.076 18.016 454.174 18.198C454.174 18.212 454.202 18.226 454.202 18.24C452.914 20.844 450.94 25.716 451.038 26.206L451.136 26.402ZM454.286 23.126C455.35 20.634 455.476 20.27 455.588 20.018C455.952 20.746 456.498 21.922 456.792 22.748L454.286 23.126ZM465.398 25.66C465.454 26.304 465.678 26.696 466.448 27.018L475.744 26.374C476.262 26.136 476.71 25.576 476.752 24.89C476.808 23.84 477.06 17.456 476.542 16.196C476.304 16.112 476.066 16.056 475.898 16.056C475.394 16.056 474.834 16.238 474.666 16.63C474.54 18.212 474.708 22.524 474.638 24.442C474.022 24.54 473.056 24.554 472.23 24.582C472.272 22.02 472.3 18.408 472.118 16.532C471.474 16.406 470.34 16.546 470.116 17.064C470.018 18.604 470.172 23.224 470.102 24.68C468.786 24.764 468.086 24.82 467.554 24.848C467.498 22.622 467.582 18.464 467.778 16.854C467.47 16.308 466.35 16.182 465.664 16.364C465.216 19.136 465.328 22.986 465.398 25.66ZM479.24 25.702C479.478 26.318 479.758 26.738 480.248 26.738C483.37 26.682 487.08 25.324 487.08 22.146C487.08 20.886 486.198 20.466 484.98 20.242C485.904 19.612 486.52 18.842 486.52 17.736C486.52 16.588 484.952 16.126 483.188 16.126C481.046 16.126 479.604 16.616 478.386 17.624C478.386 18.142 478.568 18.59 478.932 18.926C478.932 19.556 478.932 19.892 478.96 20.872C478.75 21.054 478.666 21.362 478.666 21.67C478.666 21.992 478.764 22.314 479.03 22.44C479.086 23.756 479.142 24.694 479.24 25.702ZM481.102 20.186C481.088 19.724 481.032 18.632 481.074 18.338C481.578 18.142 482.488 17.96 483.244 17.96C483.79 17.96 484.322 18.058 484.322 18.24C484.322 19.178 483.09 19.808 481.102 20.186ZM481.312 24.652C481.242 24.106 481.172 23.238 481.172 22.328C481.69 22.02 483.02 21.726 483.818 21.726C484.63 21.726 484.966 22.02 484.966 22.384C484.966 23.714 482.754 24.47 481.312 24.652ZM489.026 26.052C489.628 26.612 489.894 26.556 490.636 26.71C491.364 26.388 494.066 22.02 495.382 19.85C495.298 21.558 495.214 22.692 495.214 23.644C495.214 24.974 495.368 26.108 495.844 26.43C496.334 26.682 497.398 26.388 497.58 25.744C497.524 25.268 497.51 24.638 497.51 23.882C497.496 22.762 497.692 17.148 497.51 16.462C497.216 16.098 496.502 15.888 496.138 15.79C495.046 15.986 492.344 20.956 491.112 22.888C491.098 21.516 491.196 17.218 491.028 15.72C490.342 15.622 489.404 15.706 488.942 16.252C488.942 18.856 488.872 24.456 489.026 26.052ZM503.118 25.828C503.146 26.08 503.202 26.36 503.37 26.612C503.566 26.766 503.874 26.864 504.154 26.864C504.56 26.864 505.078 26.724 505.302 26.402C505.302 26.01 505.302 25.926 505.274 25.646C508.116 25.45 509.656 23.322 509.656 21.334C509.656 18.226 507.556 16.728 505.274 16.728C505.246 16.392 505.148 16 505.036 15.622C504.028 15.622 503.286 15.804 503.104 16.308C503.174 16.658 503.118 16.56 503.174 16.938C500.836 17.26 498.918 18.758 498.918 21.502C498.918 23.434 499.996 25.674 503.118 25.828ZM505.288 23.756L505.372 18.702C506.618 18.786 507.486 19.78 507.486 21.264C507.486 22.384 506.926 23.49 505.288 23.756ZM503.174 23.938C501.984 23.784 501.018 22.93 501.018 21.74C501.018 19.962 501.928 19.206 503.216 18.884C503.216 21.418 503.216 22.398 503.174 23.938ZM513.708 26.458C514.352 26.878 515.094 26.668 515.696 26.108L515.612 18.016C516.872 17.876 517.67 17.806 518.272 17.582C518.622 17.036 518.636 16.28 518.23 15.874C516.802 15.874 511.636 16.378 510.474 16.868C510.278 17.372 510.432 18.03 510.782 18.59C511.79 18.562 512.574 18.408 513.526 18.268C513.47 20.34 513.512 25.422 513.708 26.458ZM517.868 26.402C518.162 26.682 518.61 26.822 518.96 26.822C519.338 26.822 519.66 26.682 519.786 26.416C520.234 25.31 520.262 25.226 520.318 25.142C521.564 24.988 523.048 24.834 524.252 24.68V24.736C524.476 25.24 524.742 25.926 525.092 26.612C525.666 26.71 526.632 26.15 526.856 25.632C526.436 24.442 523.692 16.756 522.012 16.28C521.27 16.336 520.892 16.77 520.57 17.498C520.724 17.862 520.808 18.016 520.906 18.198C520.906 18.212 520.934 18.226 520.934 18.24C519.646 20.844 517.672 25.716 517.77 26.206L517.868 26.402ZM521.018 23.126C522.082 20.634 522.208 20.27 522.32 20.018C522.684 20.746 523.23 21.922 523.524 22.748L521.018 23.126ZM528.514 26.276C528.668 26.626 529.088 26.78 529.508 26.78C530.054 26.78 530.614 26.5 530.614 25.954C530.614 25.198 530.516 22.972 530.572 22.636C531.006 22.524 533.288 22.286 534.492 22.16C534.492 23.322 534.478 24.848 534.464 25.968C534.674 26.43 535.15 26.626 535.57 26.626C536.102 26.626 536.578 26.346 536.662 25.87C536.634 24.932 536.634 23.714 536.634 22.496C536.634 20.354 536.62 18.058 536.452 16.574C536.242 16.252 535.85 16.07 535.486 16.07C535.01 16.07 534.548 16.308 534.38 16.798C534.38 18.506 534.394 19.36 534.422 20.242C532.7 20.424 531.468 20.522 530.656 20.564C530.614 18.562 530.586 16.77 530.292 16.238C529.452 15.986 528.5 16.392 528.318 17.008C528.276 17.946 528.43 20.34 528.43 21.012C528.052 21.432 528.024 22.314 528.43 22.706L528.514 26.276ZM539.934 25.968C540.312 26.836 540.942 27.074 541.908 26.85C543.532 24.358 546.066 19.192 547.074 16.686C546.696 15.986 545.856 15.804 545.338 15.916C544.456 17.358 543.546 19.654 542.692 21.166C541.796 19.738 540.76 17.554 539.934 16.126C539.346 15.636 538.212 16.07 538.03 16.602C538.212 17.904 540.564 21.348 541.628 23.14L539.934 25.968ZM551.019 26.458C551.663 26.878 552.405 26.668 553.007 26.108L552.923 18.016C554.183 17.876 554.981 17.806 555.583 17.582C555.933 17.036 555.947 16.28 555.541 15.874C554.113 15.874 548.947 16.378 547.785 16.868C547.589 17.372 547.743 18.03 548.093 18.59C549.101 18.562 549.885 18.408 550.837 18.268C550.781 20.34 550.823 25.422 551.019 26.458ZM557.787 25.646C557.941 26.276 558.445 26.598 558.963 26.752C561.623 26.71 565.851 26.136 565.851 22.44C565.851 20.508 564.171 19.668 562.463 19.668C561.693 19.668 560.797 19.822 559.733 20.102L559.719 16.238C559.453 15.972 558.977 15.888 558.543 15.888C558.263 15.888 557.941 16 557.605 16.364C557.745 18.226 557.591 24.106 557.787 25.646ZM559.817 24.736L559.761 22.034C559.999 21.88 561.119 21.628 562.113 21.628C563.051 21.628 563.723 21.866 563.723 22.524C563.723 24.232 561.469 24.862 559.817 24.736ZM566.847 21.922C566.847 24.26 568.639 26.71 571.341 26.71C573.035 26.71 574.967 25.772 576.045 24.148C576.115 23.35 575.429 22.706 574.729 22.65C573.399 24.274 572.657 24.708 571.425 24.708C570.291 24.708 569.003 23.7 569.003 22.048C569.003 19.136 570.641 18.17 572.097 18.17C573.273 18.17 573.861 18.688 574.351 19.276C575.065 19.164 575.737 18.66 575.765 18.044C575.471 17.036 573.861 16.252 572.237 16.252C569.157 16.252 566.847 18.352 566.847 21.922ZM578.122 25.31C577.87 26.234 578.752 26.794 579.144 26.836C580.642 26.71 582.294 24.176 582.924 22.552C583.358 22.524 583.82 22.454 584.226 22.37L584.142 26.374C584.59 26.668 585.024 26.78 585.318 26.78C585.612 26.78 585.892 26.682 586.102 26.472C586.214 25.058 586.242 22.93 586.242 21.068C586.242 19.5 586.214 18.086 586.186 17.498C586.144 16.868 585.724 16.49 585.248 16.266C584.562 16.168 583.722 16.084 582.91 16.084C580.544 16.084 577.996 16.728 577.996 19.416C577.996 21.012 579.508 22.146 580.782 22.44C580.362 23.308 579.354 24.736 578.122 25.31ZM580.012 19.416C580.012 18.282 581.356 17.862 582.644 17.862C583.162 17.862 583.68 17.932 584.156 18.044L584.24 20.592C583.946 20.662 583.078 20.788 582.266 20.788C581.132 20.788 580.012 20.424 580.012 19.416ZM587.899 25.45C587.899 26.08 588.179 26.556 589.005 26.766C589.579 26.752 590.447 26.528 590.685 25.548C590.615 24.624 589.943 24.274 589.439 24.274C588.361 24.274 588.039 24.82 587.899 25.45ZM591.659 25.45C591.659 26.08 591.939 26.556 592.765 26.766C593.339 26.752 594.207 26.528 594.445 25.548C594.375 24.624 593.703 24.274 593.199 24.274C592.121 24.274 591.799 24.82 591.659 25.45ZM595.419 25.45C595.419 26.08 595.699 26.556 596.525 26.766C597.099 26.752 597.967 26.528 598.205 25.548C598.135 24.624 597.463 24.274 596.959 24.274C595.881 24.274 595.559 24.82 595.419 25.45Z" fill="white"/>
<circle cx="313" cy="6.5" r="1" fill="#9D0000"/>
<circle cx="608" cy="6.5" r="1" fill="#9D0000"/>
<circle cx="313" cy="34.5" r="1" fill="#9D0000"/>
<circle cx="608" cy="34.5" r="1" fill="#9D0000"/>
</svg>
