<svg width="395" height="290" viewBox="0 0 396 292" fill="none" xmlns="http://www.w3.org/2000/svg">
<path d="M89.48 209.234C89.48 209.234 83.74 234.794 74.83 243.884C65.92 252.974 37.36 247.264 31.49 259.324C25.62 271.384 27.26 286.324 7.81003 291.064" stroke="white" stroke-linecap="round" stroke-linejoin="round"/>
<path d="M378.088 30.3719C362.124 10.9872 310.685 -1.45739 273.239 2.28723C235.793 6.03185 149.117 25.3042 112.22 9.77647C76.6462 -5.20201 31.7108 9.77647 9.24301 39.7334C-13.2247 69.6904 20.4769 107.137 16.7323 137.094C12.9876 167.051 -1.99084 228.837 71.0293 225.092C144.049 221.348 203.951 195.135 248.886 206.369C293.822 217.603 353.736 236.326 376.203 208.241C398.671 180.157 391.182 157.689 391.182 140.838C391.182 123.987 404.288 62.2386 378.088 30.3719Z" fill="#ECFB8F"/>
<path d="M378.587 29.8328C362.569 10.4162 311.012 -2.08651 273.47 1.66429C235.929 5.41509 149.033 24.7192 112.042 9.16589C76.3775 -5.83731 31.3278 9.16589 8.80286 39.1723C-13.722 69.1787 20.0653 106.687 16.3112 136.693C12.557 166.699 -2.45959 228.588 70.7463 224.837C143.952 221.086 204.006 194.83 249.056 206.083C294.106 217.335 354.172 236.089 376.697 207.958C399.222 179.827 391.714 157.322 391.714 140.444C391.714 123.565 404.853 61.6771 378.587 29.8328Z" stroke="black" stroke-linecap="round" stroke-linejoin="round"/>
</svg>
