<svg width="432" height="283" viewBox="0 0 432 283" fill="none" xmlns="http://www.w3.org/2000/svg">
<g filter="url(#filter0_d)">
<path d="M5.49825 30.9514C3.78081 14.4559 18.2821 1.42451 34.8005 2.90661C79.0242 6.87456 161.592 13.5 219.872 13.5C278.548 13.5 337.618 5.94363 396.471 1.89279C414.238 0.669911 428.31 16.5573 426.286 34.2507C423.904 55.0753 421.511 83.0668 421.511 111.5C421.511 133.019 422.882 151.831 424.581 166.884C426.751 186.108 410.796 204.12 391.512 202.574C355.4 199.679 301.794 196 262.572 196C217.939 196 154.54 202.853 134.031 205.213C129.612 205.721 125.436 207.304 121.757 209.803L29.354 272.577C25.7259 275.042 21.3487 270.714 23.7724 267.058L62.1958 209.105C63.0772 207.776 62.1239 206 60.5288 206H32C16.536 206 3.28518 193.333 5.94101 178.098C8.83987 161.47 13.9633 156.506 13.9633 118C13.9633 73.0206 8.2801 57.6705 5.49825 30.9514Z" fill="white"/>
</g>
<path d="M31.2573 260.333L33.3343 261.725L31.2573 260.333C30.2331 261.862 30.6168 263.636 31.6141 264.693C32.4348 265.563 33.7701 266.046 35.097 265.654L27.9492 270.509C26.5887 271.434 24.9472 269.811 25.8561 268.44L64.2794 210.487C66.2558 207.506 64.1323 203.527 60.5654 203.5C60.567 203.5 60.5685 203.5 60.5699 203.5L60.895 203.5C63.7208 203.499 66.5786 203.498 68.4465 203.94C68.6488 203.988 68.8122 204.035 68.943 204.078C68.9355 204.09 68.9277 204.101 68.9197 204.114C68.9186 204.115 68.9175 204.117 68.9164 204.119L31.2573 260.333ZM133.746 202.729C132.95 202.821 132.161 202.944 131.381 203.099C146.195 199.466 200.634 191.069 249.555 189.999C262.159 189.724 272.624 188.861 282.462 188.05C309.975 185.781 332.59 183.917 383.402 196.428C389.49 197.926 395.936 197.652 401.906 195.053C407.89 192.448 413.227 187.581 417.202 180.183C419.089 176.673 419.781 172.655 419.856 168.283C419.93 163.923 419.389 159.027 418.669 153.685C418.448 152.042 418.208 150.35 417.962 148.606C416.593 138.926 415 127.666 415 114.5C415 110.76 414.986 107.116 414.972 103.552C414.871 77.3871 414.786 55.5957 420.428 32.5956C422.366 24.6936 419.495 17.9049 414.251 13.2205C409.081 8.60307 401.618 6 394 6C377.09 6 356.166 7.0524 334.546 11.0415C279.979 21.11 246.583 22.4792 215.779 19.0157C183.43 15.3783 153.137 14.4682 125.546 13.6393C123.393 13.5747 121.257 13.5105 119.137 13.4455C89.7872 12.5462 63.7503 11.5006 41.4903 7.04855L41.3579 7.02207L41.2234 7.01C33.8333 6.34693 27.5608 7.8825 22.5085 11.6265C17.4948 15.342 13.9457 21.0376 11.588 28.2203C9.28895 35.2245 10.5602 42.5113 12.3546 48.6722C13.1151 51.2832 13.998 53.7796 14.7841 56.0024C14.9298 56.4142 15.0721 56.8166 15.2097 57.2086C16.1183 59.797 16.7835 61.8339 17.0309 63.392C19.5043 78.9695 19.5038 82.8513 19.5003 111.067C19.5001 112.173 19.5 113.317 19.5 114.5C19.5 128.84 19.4856 136.482 18.9278 143.109C18.3741 149.688 17.2817 155.293 15.0568 165.55C14.9732 165.935 14.8869 166.328 14.7991 166.728C13.9021 170.811 12.8538 175.583 13.0013 180.082C13.2136 186.554 15.3961 192.285 19.319 196.488C23.2558 200.706 28.7968 203.223 35.3959 203.498C35.4133 203.499 35.4307 203.499 35.4481 203.5H32C17.7125 203.5 6.0755 191.884 8.40388 178.528C9.18161 174.067 10.1228 170.466 11.1048 166.713C13.7374 156.651 16.4633 146.15 16.4633 118C16.4633 86.8566 13.7499 69.7888 11.1551 53.4773C9.98318 46.1099 8.84423 38.947 7.98482 30.6926C6.45128 15.9633 19.4175 4.03643 34.5771 5.39662C78.7961 9.36415 161.467 16 219.872 16C260.074 16 300.441 12.4642 340.669 8.94049L340.724 8.93564C359.392 7.30049 378.03 5.668 396.643 4.3869C412.724 3.28006 425.663 17.6965 423.802 33.9666C421.414 54.8453 419.011 82.9385 419.011 111.5C419.011 133.125 420.388 152.03 422.097 167.165C424.107 184.98 409.277 201.49 391.712 200.082C355.598 197.187 301.903 193.5 262.572 193.5C217.776 193.5 154.242 200.371 133.746 202.729ZM60.5429 203.5L60.5453 203.5C60.5445 203.5 60.5437 203.5 60.5429 203.5ZM69.1956 203.592C69.197 203.592 69.1952 203.604 69.1859 203.63C69.1895 203.606 69.1941 203.593 69.1956 203.592Z" fill="#E0E0E0" stroke="#E0E0E0" stroke-width="5"/>
<defs>
<filter id="filter0_d" x="0.35968" y="0.826538" width="431.12" height="281.475" filterUnits="userSpaceOnUse" color-interpolation-filters="sRGB">
<feFlood flood-opacity="0" result="BackgroundImageFix"/>
<feColorMatrix in="SourceAlpha" type="matrix" values="0 0 0 0 0 0 0 0 0 0 0 0 0 0 0 0 0 0 127 0"/>
<feOffset dy="4"/>
<feGaussianBlur stdDeviation="2.5"/>
<feColorMatrix type="matrix" values="0 0 0 0 0 0 0 0 0 0 0 0 0 0 0 0 0 0 0.24 0"/>
<feBlend mode="normal" in2="BackgroundImageFix" result="effect1_dropShadow"/>
<feBlend mode="normal" in="SourceGraphic" in2="effect1_dropShadow" result="shape"/>
</filter>
</defs>
</svg>
