<svg width="295" height="35" viewBox="0 0 295 35" fill="none" xmlns="http://www.w3.org/2000/svg">
<rect x="1.53571" y="7.80324" width="92" height="26" rx="13" transform="rotate(-1.77298 1.53571 7.80324)" fill="#E53935" stroke="#9D0000" stroke-width="2"/>
<rect x="0.95859" y="5.31992" width="93" height="27" rx="13.5" transform="rotate(-1.77298 0.95859 5.31992)" fill="#E53935" stroke="#9D0000"/>
<path fill-rule="evenodd" clip-rule="evenodd" d="M19.6899 14.2293C19.9503 14.4993 20.3998 15.197 20.099 15.4338C20.099 15.4338 19.3006 16.2955 18.4231 16.9864C17.5456 17.6773 16.173 18.5568 16.173 18.5568C16.173 18.5568 17.7795 19.4795 18.5197 20.1071C19.2599 20.7346 19.9056 21.1995 19.9056 21.1995C20.2205 21.4172 20.1674 21.8946 19.9441 22.4433C19.7009 22.7289 19.6003 23.1106 19.2855 22.8929C19.2855 22.8929 16.8106 21.025 15.756 20.2956C14.7014 19.5662 14.2856 19.3617 14.2856 19.3617C14.1146 19.2435 13.3093 18.8668 13.3032 18.6719C13.2972 18.477 13.6899 18.28 13.8532 18.1514C13.8532 18.1514 15.6158 16.852 16.6233 16.0588C17.6308 15.2655 19.013 14.0889 19.013 14.0889C19.3137 13.8522 19.4295 13.9593 19.6899 14.2293Z" fill="white"/>
<path d="M38.011 18.319C37.9281 18.2482 37.8665 18.1547 37.8263 18.0386C37.786 17.9224 37.7639 17.8021 37.76 17.6775C37.756 17.5455 37.7704 17.4204 37.8035 17.3019C37.8436 17.176 37.899 17.0715 37.9698 16.9886C37.9658 16.8567 37.9522 16.6554 37.9291 16.3846C37.9132 16.1063 37.893 15.8098 37.8686 15.4951C37.8442 15.1803 37.8236 14.8728 37.807 14.5725C37.7904 14.2722 37.7829 14.0303 37.7845 13.8469C37.8176 13.7285 37.8839 13.62 37.9836 13.5216C38.083 13.4158 38.2015 13.3314 38.3389 13.2684C38.4837 13.2053 38.6403 13.1674 38.8086 13.1549C38.9768 13.135 39.1459 13.1481 39.3161 13.1942C39.3779 13.295 39.4269 13.4549 39.463 13.6739C39.5065 13.8926 39.5402 14.152 39.5641 14.4521C39.5954 14.7519 39.6204 15.085 39.6391 15.4513C39.6648 15.81 39.6875 16.1871 39.7071 16.5827C40.0292 16.5581 40.4315 16.5199 40.9141 16.4683C41.3966 16.4093 41.9775 16.3327 42.6569 16.2383C42.6441 16.0626 42.6313 15.8869 42.6185 15.7112C42.6131 15.5353 42.6034 15.3412 42.5895 15.1288C42.5829 14.9163 42.5757 14.6817 42.5677 14.4252C42.5598 14.1686 42.5506 13.8718 42.5402 13.5346C42.6002 13.342 42.7094 13.1955 42.8677 13.0952C43.026 12.995 43.2005 12.9419 43.391 12.936C43.5376 12.9314 43.6817 12.9637 43.8232 13.0327C43.9646 13.0943 44.0775 13.1862 44.1619 13.3083C44.2003 13.6006 44.2362 13.9296 44.2695 14.2954C44.3026 14.6539 44.3291 15.0346 44.3489 15.4375C44.3687 15.8405 44.3853 16.2581 44.3987 16.6906C44.4192 17.1155 44.4359 17.5369 44.4488 17.9547C44.4638 18.4384 44.4783 18.9075 44.4924 19.362C44.5065 19.8164 44.5266 20.2303 44.5528 20.6037C44.5221 20.7954 44.4277 20.9451 44.2696 21.0527C44.1115 21.1603 43.9262 21.2174 43.7136 21.224C43.545 21.2292 43.3752 21.1941 43.2041 21.1187C43.0404 21.043 42.9153 20.9148 42.829 20.7341C42.8222 20.5142 42.815 20.2796 42.8073 20.0304C42.8067 19.7737 42.8023 19.5133 42.7941 19.2495C42.7933 18.9854 42.7889 18.725 42.7809 18.4685C42.773 18.212 42.7655 17.9701 42.7585 17.7429C42.5246 17.7721 42.247 17.81 41.9256 17.8567C41.6115 17.9031 41.3012 17.9494 40.9944 17.9955C40.6948 18.0342 40.4246 18.0755 40.1839 18.1197C39.9429 18.1565 39.7788 18.1873 39.6915 18.212C39.6789 18.2784 39.6761 18.4252 39.6831 18.6524C39.6973 18.8721 39.7122 19.1174 39.7279 19.3884C39.7437 19.6594 39.7594 19.9304 39.7751 20.2013C39.7906 20.465 39.8006 20.6701 39.8052 20.8167C39.8086 20.9266 39.7859 21.0227 39.737 21.1049C39.6882 21.1872 39.6243 21.2552 39.5453 21.309C39.4664 21.3701 39.3761 21.4133 39.2741 21.4384C39.1724 21.4709 39.0666 21.4889 38.9566 21.4923C38.7881 21.4975 38.6295 21.4694 38.4808 21.408C38.3324 21.3539 38.2267 21.2581 38.1638 21.1206L38.011 18.319ZM45.7118 20.832C45.6951 20.7664 45.7198 20.6153 45.7858 20.3784C45.8517 20.1343 45.9415 19.838 46.0555 19.4897C46.1692 19.134 46.3038 18.741 46.4592 18.3106C46.6217 17.8727 46.7915 17.4309 46.9684 16.9852C47.1452 16.5322 47.3224 16.0939 47.5 15.6702C47.6774 15.2391 47.8451 14.8488 48.003 14.499C48.0028 14.4917 47.999 14.4882 47.9917 14.4884C47.9841 14.4813 47.9802 14.4741 47.98 14.4667C47.9411 14.3946 47.8985 14.3225 47.8522 14.2506C47.8133 14.1784 47.7623 14.0699 47.6991 13.9252C47.8149 13.6354 47.9545 13.4073 48.1181 13.2409C48.2815 13.0671 48.5094 12.9646 48.802 12.9336C48.9646 12.9726 49.1445 13.0954 49.3416 13.302C49.5388 13.5087 49.7375 13.7667 49.9378 14.076C50.1455 14.385 50.3544 14.7344 50.5646 15.1241C50.7747 15.5138 50.9779 15.9147 51.1741 16.3268C51.3776 16.7387 51.5701 17.1509 51.7516 17.5635C51.9329 17.9688 52.095 18.3453 52.2378 18.693C52.3879 19.0405 52.5111 19.3449 52.6072 19.606C52.7104 19.8596 52.7859 20.0444 52.8335 20.1603C52.7927 20.2643 52.7189 20.3693 52.6121 20.4753C52.5124 20.5738 52.3942 20.6655 52.2575 20.7504C52.1278 20.8278 51.9902 20.8871 51.8448 20.9283C51.7069 20.9765 51.5826 20.9914 51.472 20.9728C51.3243 20.7059 51.1915 20.4459 51.0736 20.1928C50.9631 19.9394 50.8608 19.7151 50.7667 19.5199L50.7653 19.476C50.2907 19.5493 49.7795 19.6275 49.2318 19.7105C48.6912 19.7859 48.1763 19.8606 47.687 19.9344C47.6728 19.9495 47.6588 19.972 47.6451 20.0017C47.6384 20.024 47.6215 20.0685 47.5942 20.1354C47.5742 20.202 47.5405 20.2985 47.4931 20.4246C47.4456 20.5508 47.3813 20.7252 47.3002 20.9479C47.2521 21.0521 47.1701 21.1316 47.0545 21.1866C46.939 21.2489 46.808 21.2823 46.6614 21.2868C46.5221 21.2911 46.3709 21.2664 46.2079 21.2128C46.0524 21.1662 45.9143 21.0898 45.7936 20.9835L45.7118 20.832ZM50.1466 17.9764C50.083 17.8169 50.0079 17.6432 49.9214 17.4551C49.8422 17.2668 49.7557 17.0787 49.6618 16.8909C49.5679 16.703 49.4743 16.5225 49.3809 16.3493C49.2946 16.1685 49.2125 16.006 49.1347 15.8617C49.1143 15.9137 49.0907 15.9804 49.0639 16.062C49.0368 16.1362 48.9893 16.2587 48.9212 16.4296C48.8531 16.6004 48.7614 16.838 48.6461 17.1424C48.5306 17.4395 48.3778 17.8367 48.1877 18.3342L50.1466 17.9764ZM53.5086 19.7762C53.4677 19.4033 53.5095 19.0939 53.634 18.8479C53.7658 18.6017 53.998 18.4001 54.3306 18.2431C54.4964 18.3847 54.6621 18.5226 54.8276 18.6569C54.993 18.7838 55.1616 18.8997 55.3336 19.0044C55.5127 19.1016 55.6986 19.1802 55.8912 19.2402C56.0909 19.2928 56.3007 19.3156 56.5206 19.3088C56.7039 19.3031 56.9013 19.2824 57.113 19.2465C57.3317 19.203 57.5314 19.1345 57.7119 19.0408C57.8922 18.9399 58.0422 18.8068 58.1618 18.6417C58.2812 18.4693 58.3368 18.2511 58.3286 17.9872C58.3238 17.8333 58.2758 17.7027 58.1844 17.5955C58.1002 17.4807 57.9947 17.3923 57.868 17.3302C57.7485 17.2605 57.6186 17.2132 57.4785 17.1882C57.3454 17.1556 57.2312 17.1408 57.1359 17.1437C56.9234 17.1503 56.7155 17.1898 56.5123 17.2621C56.3164 17.3342 56.0808 17.4258 55.8055 17.5371C55.5989 17.4995 55.4053 17.4101 55.2249 17.2689C55.0518 17.1275 54.9616 16.9396 54.9543 16.705C54.9516 16.6171 54.9632 16.5177 54.9891 16.4068C55.0221 16.2884 55.0877 16.1543 55.1857 16.0045C55.544 15.9641 55.8756 15.8915 56.1805 15.7866C56.4927 15.6816 56.7602 15.5523 56.9829 15.3986C57.2129 15.2448 57.3909 15.0705 57.5169 14.8759C57.6428 14.6739 57.7023 14.4629 57.6955 14.243C57.6891 14.0378 57.6004 13.8975 57.4293 13.8221C57.2653 13.7391 57.0551 13.7016 56.7985 13.7095C56.5493 13.7172 56.3162 13.7721 56.0993 13.8742C55.8823 13.9763 55.6845 14.1035 55.5058 14.2558C55.3271 14.4081 55.1636 14.5782 55.0154 14.7662C54.8742 14.9467 54.7475 15.1193 54.6352 15.2842C54.5253 15.2876 54.4034 15.262 54.2697 15.2075C54.1357 15.1456 54.0086 15.0688 53.8883 14.9772C53.7752 14.878 53.6765 14.771 53.5923 14.6562C53.5151 14.5338 53.4712 14.4178 53.4604 14.3081C53.6548 13.9499 53.8801 13.6458 54.1365 13.3957C54.4 13.1381 54.6761 12.9315 54.9647 12.7758C55.2605 12.6126 55.5613 12.4932 55.8671 12.4177C56.1727 12.3349 56.4757 12.2888 56.7763 12.2795C57.0914 12.2698 57.3969 12.3007 57.6926 12.3722C57.9954 12.4362 58.2629 12.5453 58.4951 12.6996C58.7346 12.8536 58.9279 13.053 59.0749 13.2979C59.2219 13.5428 59.3007 13.8375 59.3113 14.182C59.3229 14.5558 59.2521 14.8772 59.0991 15.146C58.946 15.4149 58.7479 15.6521 58.5048 15.8578C58.7052 15.9323 58.8954 16.0328 59.0754 16.1593C59.2627 16.2855 59.4252 16.4382 59.5628 16.6174C59.7002 16.7892 59.809 16.9876 59.8894 17.2126C59.977 17.4373 60.025 17.6816 60.0331 17.9455C60.0476 18.4146 59.9688 18.8316 59.7967 19.1964C59.6246 19.5612 59.381 19.8696 59.066 20.1214C58.7583 20.3731 58.3901 20.5679 57.9615 20.7059C57.5329 20.8439 57.0658 20.9207 56.56 20.9364C56.0322 20.9527 55.5051 20.87 54.9786 20.6882C54.452 20.5064 53.962 20.2024 53.5086 19.7762ZM60.6471 20.3696C60.6304 20.3041 60.655 20.153 60.7211 19.9161C60.7869 19.672 60.8768 19.3757 60.9907 19.0274C61.1044 18.6717 61.239 18.2787 61.3944 17.8483C61.557 17.4104 61.7267 16.9686 61.9037 16.5229C62.0804 16.0699 62.2576 15.6315 62.4352 15.2079C62.6126 14.7768 62.7803 14.3864 62.9382 14.0367C62.938 14.0294 62.9342 14.0258 62.9269 14.0261C62.9193 14.019 62.9155 14.0118 62.9152 14.0044C62.8763 13.9323 62.8337 13.8602 62.7875 13.7883C62.7486 13.7161 62.6975 13.6076 62.6343 13.4629C62.7501 13.1731 62.8898 12.945 63.0534 12.7786C63.2167 12.6048 63.4447 12.5023 63.7372 12.4713C63.8998 12.5102 64.0797 12.6331 64.2768 12.8397C64.474 13.0464 64.6727 13.3044 64.8731 13.6137C65.0807 13.9227 65.2896 14.2721 65.4998 14.6618C65.71 15.0515 65.9131 15.4524 66.1093 15.8645C66.3128 16.2764 66.5053 16.6886 66.6868 17.1012C66.8681 17.5065 67.0302 17.883 67.173 18.2307C67.3232 18.5782 67.4463 18.8826 67.5424 19.1437C67.6457 19.3973 67.7211 19.5821 67.7687 19.698C67.7279 19.802 67.6541 19.907 67.5473 20.013C67.4477 20.1115 67.3295 20.2032 67.1927 20.2881C67.063 20.3655 66.9255 20.4248 66.78 20.4659C66.6421 20.5142 66.5178 20.5291 66.4072 20.5105C66.2595 20.2436 66.1268 19.9836 66.0089 19.7305C65.8983 19.4771 65.796 19.2528 65.7019 19.0576L65.7005 19.0136C65.2259 19.087 64.7148 19.1652 64.1671 19.2482C63.6265 19.3236 63.1115 19.3983 62.6223 19.4721C62.608 19.4872 62.5941 19.5097 62.5803 19.5394C62.5737 19.5617 62.5567 19.6062 62.5294 19.6731C62.5095 19.7397 62.4758 19.8361 62.4283 19.9623C62.3809 20.0885 62.3166 20.2629 62.2354 20.4856C62.1873 20.5898 62.1054 20.6693 61.9897 20.7243C61.8742 20.7865 61.7432 20.8199 61.5966 20.8245C61.4573 20.8288 61.3062 20.8041 61.1431 20.7505C60.9876 20.7039 60.8495 20.6275 60.7288 20.5212L60.6471 20.3696ZM65.0818 17.5141C65.0182 17.3546 64.9431 17.1809 64.8566 16.9928C64.7774 16.8045 64.6909 16.6164 64.597 16.4286C64.5032 16.2407 64.4095 16.0602 64.3161 15.887C64.2298 15.7062 64.1478 15.5437 64.0699 15.3994C64.0495 15.4514 64.0259 15.5181 63.9991 15.5997C63.972 15.6739 63.9245 15.7964 63.8564 15.9672C63.7883 16.1381 63.6966 16.3757 63.5813 16.6801C63.4658 16.9771 63.313 17.3744 63.123 17.8718L65.0818 17.5141ZM68.3663 18.9421C68.4745 18.8801 68.6089 18.8392 68.7697 18.8196C68.9303 18.7926 69.0983 18.7691 69.2738 18.749C69.3934 18.5839 69.497 18.3752 69.5846 18.1231C69.6721 17.8709 69.748 17.5971 69.8123 17.3016C69.8836 16.9986 69.9399 16.685 69.9812 16.3609C70.0223 16.0295 70.0565 15.7093 70.0836 15.4003C70.1105 15.084 70.1307 14.7899 70.1443 14.518C70.1579 14.2461 70.169 14.011 70.1775 13.8126C70.1264 13.8216 70.046 13.8314 69.9363 13.8421C69.8266 13.8529 69.757 13.8587 69.7277 13.8596C69.5553 13.7402 69.4264 13.6048 69.341 13.4534C69.2627 13.2944 69.2212 13.1379 69.2164 12.984C69.213 12.874 69.2278 12.7599 69.2608 12.6414C69.3012 12.5228 69.3674 12.4107 69.4595 12.3051C69.7289 12.2381 70.0718 12.1761 70.4882 12.1192C70.9118 12.0547 71.3502 11.9972 71.8035 11.9464C72.2642 11.8955 72.7104 11.8523 73.1422 11.817C73.5813 11.7814 73.9509 11.7516 74.2509 11.7276C74.3918 11.7746 74.5112 11.8406 74.6092 11.9256C74.7143 12.0031 74.7985 12.1142 74.8617 12.259C74.8989 12.5146 74.9306 12.8254 74.9566 13.1915C74.9823 13.5502 75.0028 13.9751 75.018 14.4662C75.0406 14.9571 75.0615 15.514 75.0808 16.1371C75.1 16.7601 75.1179 17.4565 75.1344 18.2264C75.3385 18.1834 75.5512 18.1805 75.7725 18.2176C75.9935 18.2475 76.219 18.3029 76.4489 18.3838C76.4535 18.5304 76.4555 18.7138 76.4549 18.9339C76.4544 19.154 76.4506 19.3852 76.4434 19.6276C76.4436 19.8697 76.4436 20.1081 76.4435 20.3429C76.451 20.5848 76.4613 20.7972 76.4743 20.9803C76.3908 21.1296 76.3026 21.2424 76.2096 21.3186C76.1166 21.3949 76.0119 21.4495 75.8955 21.4824C75.7867 21.5225 75.6663 21.5445 75.5344 21.5486C75.4027 21.56 75.2635 21.568 75.1169 21.5725C75.0336 21.4871 74.964 21.3718 74.9081 21.2268C74.8596 21.0816 74.8219 20.9287 74.7949 20.7681C74.7681 20.6149 74.7524 20.4613 74.7476 20.3074C74.7429 20.1534 74.7461 20.0213 74.7574 19.9109C74.5013 19.9335 74.2232 19.9567 73.9231 19.9807C73.6304 20.0044 73.2938 20.0332 72.9133 20.067C72.5402 20.1006 72.1158 20.1394 71.6403 20.1834C71.1645 20.2202 70.6193 20.2627 70.0045 20.3111C70.0237 20.4572 70.0435 20.6254 70.0641 20.8155C70.0922 21.0127 70.1122 21.1845 70.1241 21.3309C70.0833 21.4349 70.0017 21.5254 69.8794 21.6026C69.757 21.6798 69.6197 21.7464 69.4674 21.8024C69.3226 21.8656 69.1699 21.9107 69.0093 21.9377C68.8563 21.9718 68.7212 21.9906 68.6039 21.9942C68.4622 21.4484 68.3655 20.9304 68.3137 20.4405C68.2618 19.9505 68.2794 19.4511 68.3663 18.9421ZM73.434 18.4001C73.4469 18.1062 73.4502 17.7393 73.4439 17.2993C73.445 16.859 73.4418 16.4006 73.4344 15.9239C73.427 15.4472 73.409 14.9856 73.3805 14.5389C73.3593 14.092 73.3331 13.7186 73.3018 13.4188C73.1701 13.4302 73.0237 13.4421 72.8627 13.4544C72.709 13.4665 72.5553 13.4786 72.4016 13.4907C72.2552 13.5025 72.1236 13.5176 72.0068 13.5359C71.8898 13.5469 71.802 13.5569 71.7436 13.5661C71.7371 14.7769 71.6771 15.8022 71.5637 16.6421C71.4574 17.4745 71.3128 18.1356 71.1299 18.6255L73.434 18.4001Z" fill="white"/>
<rect x="200.536" y="7.80336" width="92" height="26" rx="13" transform="rotate(-1.77298 200.536 7.80336)" fill="#E53935" stroke="#9D0000" stroke-width="2"/>
<rect x="199.959" y="6.32005" width="93" height="27" rx="13.5" transform="rotate(-1.77298 199.959 6.32005)" fill="#BF2E2B" stroke="#9D0000"/>
<path fill-rule="evenodd" clip-rule="evenodd" d="M218.69 15.2294C218.95 15.4994 219.4 16.1971 219.099 16.4339C219.099 16.4339 218.301 17.2956 217.423 17.9865C216.546 18.6774 215.173 19.5569 215.173 19.5569C215.173 19.5569 216.78 20.4797 217.52 21.1072C218.26 21.7348 218.906 22.1996 218.906 22.1996C219.22 22.4173 219.167 22.8947 218.944 23.4434C218.701 23.729 218.6 24.1107 218.285 23.893C218.285 23.893 215.811 22.0251 214.756 21.2957C213.701 20.5663 213.286 20.3618 213.286 20.3618C213.115 20.2436 212.309 19.8669 212.303 19.672C212.297 19.4771 212.69 19.2801 212.853 19.1515C212.853 19.1515 214.616 17.8522 215.623 17.0589C216.631 16.2657 218.013 15.0891 218.013 15.0891C218.314 14.8523 218.429 14.9595 218.69 15.2294Z" fill="white"/>
<path d="M237.164 22.1207C237.293 22.3919 237.627 22.5026 237.957 22.4924C238.385 22.4791 238.818 22.2456 238.805 21.8168C238.787 21.2231 238.656 19.4773 238.692 19.2121C239.03 19.1136 240.816 18.8712 241.758 18.743C241.787 19.6555 241.813 20.8543 241.829 21.7342C242.005 22.0919 242.384 22.2343 242.714 22.2241C243.131 22.2112 243.498 21.9797 243.553 21.6038C243.508 20.8679 243.478 19.9113 243.449 18.9548C243.397 17.2726 243.33 15.4698 243.162 14.3084C242.989 14.0607 242.677 13.9273 242.391 13.9361C242.017 13.9477 241.66 14.1458 241.54 14.5347C241.582 15.8761 241.613 16.5464 241.657 17.2384C240.309 17.4232 239.344 17.5301 238.707 17.5828C238.625 16.0116 238.56 14.605 238.316 14.1943C237.65 14.0168 236.913 14.3588 236.785 14.847C236.774 15.5847 236.954 17.461 236.97 17.9888C236.683 18.3278 236.683 19.0211 237.011 19.3191L237.164 22.1207ZM244.794 21.9836C245.031 22.1964 245.387 22.2954 245.661 22.2869C245.958 22.2777 246.208 22.16 246.3 21.948C246.625 21.0685 246.645 21.0019 246.687 20.9345C247.662 20.7833 248.824 20.6263 249.765 20.4761L249.767 20.5201C249.955 20.9104 250.18 21.4427 250.472 21.9729C250.925 22.0359 251.67 21.5727 251.833 21.1604C251.475 20.2361 249.133 14.2667 247.802 13.9337C247.221 13.9957 246.934 14.3457 246.699 14.9253C246.829 15.2074 246.899 15.3263 246.98 15.4669C246.98 15.4778 247.003 15.4882 247.003 15.4992C246.055 17.5755 244.623 21.4496 244.712 21.8321L244.794 21.9836ZM247.188 19.3343C247.963 17.3513 248.053 17.0624 248.135 16.8618C248.438 17.4247 248.896 18.335 249.147 18.9765L247.188 19.3343ZM252.509 20.7763C253.415 21.6287 254.505 21.9692 255.56 21.9365C257.572 21.8742 259.091 20.8147 259.033 18.9456C259 17.8791 258.318 17.1629 257.505 16.8579C257.987 16.4468 258.334 15.9188 258.311 15.1821C258.269 13.8078 257.03 13.2409 255.776 13.2797C254.589 13.3164 253.241 13.8754 252.46 15.3082C252.496 15.7473 253.184 16.2983 253.635 16.2843C254.077 15.6104 254.798 14.7406 255.799 14.7097C256.304 14.694 256.683 14.8364 256.695 15.2432C256.723 16.1227 255.612 16.8505 254.186 17.0046C253.997 17.2966 253.949 17.5292 253.954 17.7051C253.969 18.1669 254.396 18.4618 254.805 18.5372C255.349 18.3113 255.707 18.1571 256.136 18.1439C256.532 18.1316 257.309 18.3607 257.329 18.9874C257.361 20.0429 256.257 20.2861 255.521 20.3089C254.63 20.3365 253.997 19.8058 253.331 19.2432C252.669 19.5608 252.431 20.0414 252.509 20.7763ZM259.729 21.5213C259.966 21.7341 260.322 21.8331 260.597 21.8246C260.893 21.8154 261.143 21.6976 261.235 21.4857C261.56 20.6062 261.58 20.5396 261.622 20.4722C262.597 20.321 263.759 20.164 264.701 20.0138L264.702 20.0577C264.89 20.4481 265.116 20.9804 265.407 21.5106C265.86 21.5736 266.605 21.1104 266.769 20.6981C266.41 19.7738 264.068 13.8044 262.737 13.4714C262.156 13.5334 261.87 13.8834 261.634 14.463C261.764 14.7451 261.834 14.864 261.915 15.0045C261.916 15.0155 261.938 15.0259 261.938 15.0368C260.99 17.1132 259.558 20.9873 259.647 21.3698L259.729 21.5213ZM262.123 18.872C262.898 16.889 262.988 16.6001 263.07 16.3995C263.373 16.9624 263.831 17.8727 264.082 18.5142L262.123 18.872ZM267.366 19.9423C267.199 20.9489 267.317 21.9027 267.604 22.9944C268.077 22.9797 268.949 22.7326 269.124 22.331C269.104 22.0455 269.036 21.6074 269.004 21.3112C271.463 21.1031 272.726 20.998 273.757 20.911C273.727 21.3411 273.776 22.231 274.117 22.5727C274.711 22.5543 275.151 22.5627 275.474 21.9804C275.419 21.2557 275.467 19.9666 275.449 19.3839C274.993 19.222 274.539 19.148 274.134 19.2265C274.061 16.1363 274.003 14.2782 273.862 13.2591C273.743 12.9766 273.529 12.8182 273.251 12.7277C272.043 12.8092 269.54 13.0297 268.46 13.3053C268.279 13.5199 268.21 13.7642 268.216 13.9841C268.226 14.292 268.379 14.6284 268.728 14.8597C268.783 14.858 269.079 14.8268 269.177 14.8128C269.137 15.9806 268.992 18.7694 268.274 19.7491C267.923 19.782 267.582 19.8145 267.366 19.9423ZM270.13 19.6256C270.496 18.6568 270.73 16.9658 270.744 14.5662C270.973 14.5151 271.764 14.4576 272.302 14.4189C272.438 15.6253 272.475 18.2324 272.434 19.4002L270.13 19.6256Z" fill="white"/>
<rect x="101.536" y="7.80336" width="92" height="26" rx="13" transform="rotate(-1.77298 101.536 7.80336)" fill="#9D0000" stroke="#9D0000" stroke-width="2"/>
<rect x="100.959" y="4.32005" width="93" height="27" rx="13.5" transform="rotate(-1.77298 100.959 4.32005)" fill="#FE504C" stroke="#9D0000"/>
<path fill-rule="evenodd" clip-rule="evenodd" d="M119.69 13.2294C119.95 13.4994 120.4 14.1971 120.099 14.4339C120.099 14.4339 119.301 15.2956 118.423 15.9865C117.546 16.6774 116.173 17.5569 116.173 17.5569C116.173 17.5569 117.78 18.4797 118.52 19.1072C119.26 19.7348 119.906 20.1996 119.906 20.1996C120.22 20.4173 120.167 20.8947 119.944 21.4434C119.701 21.729 119.6 22.1107 119.285 21.893C119.285 21.893 116.811 20.0251 115.756 19.2957C114.701 18.5663 114.286 18.3618 114.286 18.3618C114.115 18.2436 113.309 17.8669 113.303 17.672C113.297 17.4771 113.69 17.2801 113.853 17.1515C113.853 17.1515 115.616 15.8522 116.623 15.0589C117.631 14.2657 119.013 13.0891 119.013 13.0891C119.314 12.8523 119.429 12.9595 119.69 13.2294Z" fill="white"/>
<path d="M138.164 20.1207C138.293 20.3919 138.627 20.5026 138.957 20.4924C139.385 20.4791 139.818 20.2456 139.805 19.8168C139.787 19.2231 139.656 17.4773 139.692 17.2121C140.03 17.1136 141.816 16.8712 142.758 16.743C142.787 17.6555 142.813 18.8543 142.829 19.7342C143.005 20.0919 143.384 20.2343 143.714 20.2241C144.131 20.2112 144.498 19.9797 144.553 19.6038C144.508 18.8679 144.478 17.9113 144.449 16.9548C144.397 15.2726 144.33 13.4698 144.162 12.3084C143.989 12.0607 143.677 11.9273 143.391 11.9361C143.017 11.9477 142.66 12.1458 142.54 12.5347C142.582 13.8761 142.613 14.5464 142.657 15.2384C141.309 15.4232 140.344 15.5301 139.707 15.5828C139.625 14.0116 139.56 12.605 139.316 12.1943C138.65 12.0168 137.913 12.3588 137.785 12.847C137.774 13.5847 137.954 15.461 137.97 15.9888C137.683 16.3278 137.683 17.0211 138.011 17.3191L138.164 20.1207ZM145.794 19.9836C146.031 20.1964 146.387 20.2954 146.661 20.2869C146.958 20.2777 147.208 20.16 147.3 19.948C147.625 19.0685 147.645 19.0019 147.687 18.9345C148.662 18.7833 149.824 18.6263 150.765 18.4761L150.767 18.5201C150.955 18.9104 151.18 19.4427 151.472 19.9729C151.925 20.0359 152.67 19.5727 152.833 19.1604C152.475 18.2361 150.133 12.2667 148.802 11.9337C148.221 11.9957 147.934 12.3457 147.699 12.9253C147.829 13.2074 147.899 13.3263 147.98 13.4669C147.98 13.4778 148.003 13.4882 148.003 13.4992C147.055 15.5755 145.623 19.4496 145.712 19.8321L145.794 19.9836ZM148.188 17.3343C148.963 15.3513 149.053 15.0624 149.135 14.8618C149.438 15.4247 149.896 16.335 150.147 16.9765L148.188 17.3343ZM153.509 18.7763C154.415 19.6287 155.505 19.9692 156.56 19.9365C158.572 19.8742 160.091 18.8147 160.033 16.9456C160 15.8791 159.318 15.1629 158.505 14.8579C158.987 14.4468 159.334 13.9188 159.311 13.1821C159.269 11.8078 158.03 11.2409 156.776 11.2797C155.589 11.3164 154.241 11.8754 153.46 13.3082C153.496 13.7473 154.184 14.2983 154.635 14.2843C155.077 13.6104 155.798 12.7406 156.799 12.7097C157.304 12.694 157.683 12.8364 157.695 13.2432C157.723 14.1227 156.612 14.8505 155.186 15.0046C154.997 15.2966 154.949 15.5292 154.954 15.7051C154.969 16.1669 155.396 16.4618 155.805 16.5372C156.349 16.3113 156.707 16.1571 157.136 16.1439C157.532 16.1316 158.309 16.3607 158.329 16.9874C158.361 18.0429 157.257 18.2861 156.521 18.3089C155.63 18.3365 154.997 17.8058 154.331 17.2432C153.669 17.5608 153.431 18.0414 153.509 18.7763ZM160.729 19.5213C160.966 19.7341 161.322 19.8331 161.597 19.8246C161.893 19.8154 162.143 19.6976 162.235 19.4857C162.56 18.6062 162.58 18.5396 162.622 18.4722C163.597 18.321 164.759 18.164 165.701 18.0138L165.702 18.0577C165.89 18.4481 166.116 18.9804 166.407 19.5106C166.86 19.5736 167.605 19.1104 167.769 18.6981C167.41 17.7738 165.068 11.8044 163.737 11.4714C163.156 11.5334 162.87 11.8834 162.634 12.463C162.764 12.7451 162.834 12.864 162.915 13.0045C162.916 13.0155 162.938 13.0259 162.938 13.0368C161.99 15.1132 160.558 18.9873 160.647 19.3698L160.729 19.5213ZM163.123 16.872C163.898 14.889 163.988 14.6001 164.07 14.3995C164.373 14.9624 164.831 15.8727 165.082 16.5142L163.123 16.872ZM168.366 17.9423C168.199 18.9489 168.317 19.9027 168.604 20.9944C169.077 20.9797 169.949 20.7326 170.124 20.331C170.104 20.0455 170.036 19.6074 170.004 19.3112C172.463 19.1031 173.726 18.998 174.757 18.911C174.727 19.3411 174.776 20.231 175.117 20.5727C175.711 20.5543 176.151 20.5627 176.474 19.9804C176.419 19.2557 176.467 17.9666 176.449 17.3839C175.993 17.222 175.539 17.148 175.134 17.2265C175.061 14.1363 175.003 12.2782 174.862 11.2591C174.743 10.9766 174.529 10.8182 174.251 10.7277C173.043 10.8092 170.54 11.0297 169.46 11.3053C169.279 11.5199 169.21 11.7642 169.216 11.9841C169.226 12.292 169.379 12.6284 169.728 12.8597C169.783 12.858 170.079 12.8268 170.177 12.8128C170.137 13.9806 169.992 16.7694 169.274 17.7491C168.923 17.782 168.582 17.8145 168.366 17.9423ZM171.13 17.6256C171.496 16.6568 171.73 14.9658 171.744 12.5662C171.973 12.5151 172.764 12.4576 173.302 12.4189C173.438 13.6253 173.475 16.2324 173.434 17.4002L171.13 17.6256Z" fill="white"/>
</svg>
