<svg width="637" height="22" viewBox="0 0 637 22" fill="none" xmlns="http://www.w3.org/2000/svg">
<path d="M4.65039 3.85156C4.0319 4.26172 3.48503 4.8737 3.00977 5.6875C2.47591 6.60547 2.20898 7.85221 2.20898 9.42773C2.20898 10.8796 2.51823 12.0807 3.13672 13.0312C3.63151 13.7799 4.29232 14.1738 5.11914 14.2129C6.29753 14.2715 7.20573 14.0924 7.84375 13.6758C8.76823 13.0833 9.41276 12.8262 9.77734 12.9043C10.4089 13.0215 10.6758 13.5195 10.5781 14.3984C10.526 14.8932 9.87174 15.3978 8.61523 15.9121C7.58008 16.3418 6.46354 16.5339 5.26562 16.4883C3.6901 16.4362 2.43359 15.7917 1.49609 14.5547C0.545573 13.3047 0.0735677 11.6738 0.0800781 9.66211C0.0800781 7.25977 0.516276 5.43685 1.38867 4.19336C2.66471 2.39648 4.01237 1.38411 5.43164 1.15625C6.78581 0.941406 8.00651 1.11068 9.09375 1.66406C9.92057 2.08724 10.347 2.48438 10.373 2.85547C10.3991 3.33073 10.2852 3.69206 10.0312 3.93945C9.56901 4.36914 9.09375 4.41471 8.60547 4.07617C8.15625 3.77018 7.64193 3.54883 7.0625 3.41211C6.19661 3.2168 5.39258 3.36328 4.65039 3.85156ZM16.9844 7.74805C16.1315 7.76758 15.4935 8.0638 15.0703 8.63672C14.4193 9.52214 14.0938 10.4954 14.0938 11.5566C14.0938 12.5788 14.3281 13.3438 14.7969 13.8516C15.2786 14.3724 15.832 14.6328 16.457 14.6328C17.1667 14.6328 17.7656 14.3724 18.2539 13.8516C18.7682 13.2982 19.0286 12.4095 19.0352 11.1855C19.0417 8.86784 18.3581 7.72201 16.9844 7.74805ZM16.9062 5.75586C19.543 5.77539 20.8581 7.65039 20.8516 11.3809C20.8451 12.9694 20.4935 14.1771 19.7969 15.0039C19.0156 16 17.8242 16.4915 16.2227 16.4785C15.0638 16.472 14.0807 15.9902 13.2734 15.0332C12.5443 14.1673 12.1797 12.9499 12.1797 11.3809C12.1797 9.89648 12.6159 8.58138 13.4883 7.43555C14.3477 6.30273 15.487 5.74284 16.9062 5.75586ZM27.7266 9.98438C26.9974 10.2057 26.6654 10.5703 26.7305 11.0781C26.776 11.4818 27.1732 11.7096 27.9219 11.7617C28.8919 11.8268 29.3932 12.3086 29.4258 13.207C29.4518 14.099 29.0091 14.5938 28.0977 14.6914C27.082 14.8021 26.3333 14.6589 25.8516 14.2617C25.3633 13.8581 24.9727 13.6628 24.6797 13.6758C24.1523 13.7018 23.8724 14.0143 23.8398 14.6133C23.8268 14.9258 24.0872 15.2708 24.6211 15.6484C25.8646 16.5273 27.2513 16.7617 28.7812 16.3516C30.2591 15.9479 31.0469 15.1276 31.1445 13.8906C31.2227 12.901 31.0729 12.1328 30.6953 11.5859C30.3828 11.1302 30.0638 10.8047 29.7383 10.6094C30.2591 10.0495 30.5456 9.69792 30.5977 9.55469C30.9818 8.63672 30.8906 7.8099 30.3242 7.07422C29.6927 6.25391 28.8203 5.81771 27.707 5.76562C26.7109 5.72005 25.8255 5.90885 25.0508 6.33203C24.4583 6.66406 24.1816 7.11003 24.2207 7.66992C24.2533 8.06706 24.4648 8.28841 24.8555 8.33398C25.0508 8.36003 25.5228 8.14193 26.2715 7.67969C26.6947 7.42578 27.2285 7.36393 27.873 7.49414C28.6608 7.6569 29.0547 7.9987 29.0547 8.51953C29.0547 9.22917 28.612 9.71745 27.7266 9.98438ZM40.998 5.60938C41.6621 5.59635 41.9941 5.90234 41.9941 6.52734L41.9648 14.1055C42.0299 14.1055 42.0983 14.1055 42.1699 14.1055C42.9577 14.1055 43.3581 14.431 43.3711 15.082C43.3711 15.1667 43.3646 15.2448 43.3516 15.3164C43.3711 15.4466 43.3809 15.5931 43.3809 15.7559V17.6016C43.3809 18.2461 43.0814 18.5618 42.4824 18.5488C41.8314 18.5358 41.5026 18.2493 41.4961 17.6895C41.4896 17.1165 41.4831 16.5469 41.4766 15.9805H34.2695V17.6016C34.2695 18.2461 33.9701 18.5618 33.3711 18.5488C32.7201 18.5358 32.3913 18.2493 32.3848 17.6895L32.3652 15.541C32.3652 15.4954 32.3652 15.4499 32.3652 15.4043C32.3457 15.3132 32.3359 15.2155 32.3359 15.1113C32.349 14.4342 32.6908 14.0957 33.3613 14.0957H33.3711C34.556 12.5853 35.1354 10.209 35.1094 6.9668C35.1094 6.68685 35.1517 6.45573 35.2363 6.27344C35.2559 6.01953 35.4382 5.85352 35.7832 5.77539C35.8939 5.73633 36.0208 5.71354 36.1641 5.70703C36.2747 5.70052 36.3757 5.70703 36.4668 5.72656L40.6367 5.6582C40.7409 5.62565 40.8613 5.60938 40.998 5.60938ZM37.0234 7.69922C36.9258 10.2318 36.3952 12.3639 35.4316 14.0957L40.002 14.1055L40.0312 7.64062L37.1309 7.69922C37.0918 7.69922 37.056 7.69922 37.0234 7.69922ZM48.7812 16.5469C45.8581 16.5534 44.3867 14.9909 44.3672 11.8594C44.3477 9.82161 45.0182 8.24609 46.3789 7.13281C47.9414 5.85026 49.5755 5.47917 51.2812 6.01953C51.4701 5.85677 51.763 5.82096 52.1602 5.91211C52.9414 6.08789 53.2572 6.59245 53.1074 7.42578C52.9577 8.23958 52.8665 9.6263 52.834 11.5859C52.8079 13.1484 52.9837 14.2552 53.3613 14.9062C53.9147 15.8568 53.8366 16.4036 53.127 16.5469C52.3132 16.7161 51.8411 16.3711 51.7109 15.5117C50.3633 16.1953 49.3867 16.5404 48.7812 16.5469ZM49.9141 14.584C50.1484 14.4993 50.5553 14.2194 51.1348 13.7441C50.9004 10.9447 50.9329 9.01758 51.2324 7.96289C50.6009 7.56576 49.9401 7.45182 49.25 7.62109C48.7682 7.73828 48.3841 7.9043 48.0977 8.11914C46.9388 8.95898 46.3301 10.1439 46.2715 11.6738C46.291 13.666 46.9746 14.7077 48.3223 14.7988C48.8887 14.8379 49.4193 14.7663 49.9141 14.584ZM60.0508 3.14844C61.444 3.18099 62.3034 2.70898 62.6289 1.73242C62.9219 0.840495 63.2995 0.475911 63.7617 0.638672C64.2565 0.814453 64.3737 1.2832 64.1133 2.04492C63.5273 3.73763 62.1602 4.57747 60.0117 4.56445C58.0065 4.55143 56.7077 3.79297 56.1152 2.28906C55.7246 1.30599 55.819 0.759115 56.3984 0.648438C56.9844 0.53776 57.3457 0.840495 57.4824 1.55664C57.6712 2.57878 58.5273 3.10938 60.0508 3.14844ZM55.9492 5.77539C56.6393 5.75586 56.9909 6.07487 57.0039 6.73242L57.209 13.1191L63.0195 6.2832C63.1497 6.12695 63.2865 6.00977 63.4297 5.93164C63.5664 5.83398 63.7487 5.7819 63.9766 5.77539C64.6667 5.75586 65.0182 6.07487 65.0312 6.73242L65.3047 15.1309C65.3307 16.0228 65.0182 16.4785 64.3672 16.498C63.6901 16.5176 63.3385 16.0814 63.3125 15.1895L63.1562 8.92969L57.0918 16.0977C57.0397 16.1823 56.9811 16.2507 56.916 16.3027C56.8965 16.3223 56.8802 16.3418 56.8672 16.3613C56.5938 16.6934 56.2878 16.7227 55.9492 16.4492C55.526 16.3125 55.3047 15.8926 55.2852 15.1895L55.0703 6.79102C55.0573 6.13346 55.3503 5.79492 55.9492 5.77539ZM80.7246 13.9395C81.2975 13.5553 81.7663 13.6693 82.1309 14.2812C82.3457 14.6458 82.1764 15.0723 81.623 15.5605C80.9069 16.1725 79.7806 16.4753 78.2441 16.4688C77.0332 16.4622 76.0273 16.0716 75.2266 15.2969C74.2305 14.3333 73.7324 13.1257 73.7324 11.6738C73.7324 10.0723 74.0872 8.76042 74.7969 7.73828C75.6562 6.49479 76.75 5.82422 78.0781 5.72656C78.8529 5.66797 79.5592 5.74284 80.1973 5.95117C80.985 6.2181 81.5091 6.55339 81.7695 6.95703C82.1667 7.58203 82.1439 8.05404 81.7012 8.37305C81.3952 8.5944 80.9264 8.4707 80.2949 8.00195C79.5332 7.43555 78.6706 7.30534 77.707 7.61133C77.1667 7.7806 76.6784 8.17773 76.2422 8.80273C75.7474 9.51888 75.4902 10.3392 75.4707 11.2637C75.4512 12.1361 75.7051 12.9336 76.2324 13.6562C76.7142 14.3008 77.3848 14.6393 78.2441 14.6719C79.1296 14.7044 79.9564 14.4603 80.7246 13.9395ZM86.1836 7.45508L86.0859 10.1699C87.8958 10.3587 89.0482 10.2057 89.543 9.71094C90.0638 9.1901 90.0898 8.66927 89.6211 8.14844C89.2826 7.77083 88.5143 7.54622 87.3164 7.47461L86.1836 7.45508ZM85.3828 5.7168C85.5065 5.7168 85.6172 5.72982 85.7148 5.75586C86.1641 5.67122 86.8184 5.69401 87.6777 5.82422C89.9694 6.15625 91.2357 6.86589 91.4766 7.95312C91.724 9.0599 91.457 9.95182 90.6758 10.6289C90.5521 10.7331 90.4154 10.8307 90.2656 10.9219C90.5521 11.013 90.7767 11.1172 90.9395 11.2344C92.209 12.1458 92.6159 13.207 92.1602 14.418C91.8997 15.1016 90.972 15.6419 89.377 16.0391C87.9121 16.3971 86.5319 16.5143 85.2363 16.3906C85.1842 16.3971 85.1257 16.4004 85.0605 16.4004C84.5723 16.3874 84.3379 16.0911 84.3574 15.5117L84.6211 6.46875C84.6406 5.96745 84.8945 5.7168 85.3828 5.7168ZM86.8379 11.7715C86.7272 11.778 86.6133 11.7845 86.4961 11.791C86.3333 11.7975 86.1836 11.7943 86.0469 11.7812L85.9688 14.9453C86.6133 14.9062 87.4987 14.7858 88.625 14.584C89.6406 14.3952 90.2461 14.2096 90.4414 14.0273C90.9818 13.4805 90.8092 12.9043 89.9238 12.2988C89.696 12.1426 88.7715 11.9798 87.1504 11.8105C87.0397 11.7975 86.9355 11.7845 86.8379 11.7715ZM98.7617 7.74805C97.9089 7.76758 97.2708 8.0638 96.8477 8.63672C96.1966 9.52214 95.8711 10.4954 95.8711 11.5566C95.8711 12.5788 96.1055 13.3438 96.5742 13.8516C97.056 14.3724 97.6094 14.6328 98.2344 14.6328C98.944 14.6328 99.543 14.3724 100.031 13.8516C100.546 13.2982 100.806 12.4095 100.812 11.1855C100.819 8.86784 100.135 7.72201 98.7617 7.74805ZM98.6836 5.75586C101.32 5.77539 102.635 7.65039 102.629 11.3809C102.622 12.9694 102.271 14.1771 101.574 15.0039C100.793 16 99.6016 16.4915 98 16.4785C96.8411 16.472 95.8581 15.9902 95.0508 15.0332C94.3216 14.1673 93.957 12.9499 93.957 11.3809C93.957 9.89648 94.3932 8.58138 95.2656 7.43555C96.125 6.30273 97.2643 5.74284 98.6836 5.75586ZM113.42 2.69922C114.221 2.69922 114.621 3.00195 114.621 3.60742C114.621 4.19987 114.214 4.49609 113.4 4.49609C112.645 4.49609 112.268 4.20964 112.268 3.63672C112.268 3.01172 112.652 2.69922 113.42 2.69922ZM108.488 2.69922C109.289 2.69922 109.689 3.00195 109.689 3.60742C109.689 4.19987 109.283 4.49609 108.469 4.49609C107.714 4.49609 107.336 4.20964 107.336 3.63672C107.336 3.01172 107.72 2.69922 108.488 2.69922ZM107.521 11.7715C107.554 12.5072 107.886 13.1517 108.518 13.7051C109.247 14.3496 110.067 14.6686 110.979 14.6621C112.307 14.6491 113.199 14.3887 113.654 13.8809C114.09 13.3926 114.449 13.1191 114.729 13.0605C115.041 12.9954 115.262 13.0931 115.393 13.3535C115.699 13.959 115.555 14.5254 114.963 15.0527C113.921 15.9772 112.554 16.4329 110.861 16.4199C109.618 16.4069 108.531 16.0163 107.6 15.248C106.441 14.2975 105.861 13.0085 105.861 11.3809C105.861 10.0397 106.226 8.84505 106.955 7.79688C107.867 6.48828 109.045 5.78841 110.49 5.69727C111.994 5.60612 113.169 5.97721 114.016 6.81055C114.816 7.5918 115.201 8.48047 115.168 9.47656C115.142 10.2773 114.781 10.7266 114.084 10.8242L107.521 11.7715ZM107.736 10.1602L113.479 9.32031C113.381 8.75391 113.085 8.3112 112.59 7.99219C112.017 7.6276 111.408 7.44857 110.764 7.45508C109.865 7.45508 109.09 7.85547 108.439 8.65625C108.153 9.01432 107.919 9.51562 107.736 10.1602ZM126.848 16.5469C123.924 16.5534 122.453 14.9909 122.434 11.8594C122.414 9.82161 123.085 8.24609 124.445 7.13281C126.008 5.85026 127.642 5.47917 129.348 6.01953C129.536 5.85677 129.829 5.82096 130.227 5.91211C131.008 6.08789 131.324 6.59245 131.174 7.42578C131.024 8.23958 130.933 9.6263 130.9 11.5859C130.874 13.1484 131.05 14.2552 131.428 14.9062C131.981 15.8568 131.903 16.4036 131.193 16.5469C130.38 16.7161 129.908 16.3711 129.777 15.5117C128.43 16.1953 127.453 16.5404 126.848 16.5469ZM127.98 14.584C128.215 14.4993 128.622 14.2194 129.201 13.7441C128.967 10.9447 128.999 9.01758 129.299 7.96289C128.667 7.56576 128.007 7.45182 127.316 7.62109C126.835 7.73828 126.451 7.9043 126.164 8.11914C125.005 8.95898 124.396 10.1439 124.338 11.6738C124.357 13.666 125.041 14.7077 126.389 14.7988C126.955 14.8379 127.486 14.7663 127.98 14.584ZM142.707 5.62891C143.358 5.64844 143.68 6 143.674 6.68359L143.713 14.9746C143.719 15.9056 143.387 16.3646 142.717 16.3516C142.105 16.3451 141.796 15.8763 141.789 14.9453L141.75 7.54297H137.248L137.277 11.4102C137.303 14.6458 136.132 16.293 133.762 16.3516C132.954 16.3711 132.512 16.1172 132.434 15.5898C132.316 14.8346 132.805 14.444 133.898 14.418C134.914 14.3919 135.412 13.3796 135.393 11.3809L135.344 6.625C135.337 5.94141 135.689 5.60938 136.398 5.62891C136.464 5.62891 136.522 5.63542 136.574 5.64844C138.456 5.64844 140.34 5.64518 142.229 5.63867C142.294 5.63867 142.359 5.64193 142.424 5.64844C142.515 5.63542 142.609 5.62891 142.707 5.62891ZM147.16 16.127C146.672 16.127 146.434 15.8763 146.447 15.375L146.643 6.33203C146.656 5.7526 146.906 5.45638 147.395 5.44336C148.033 5.43034 148.348 5.72005 148.342 6.3125L148.264 9.48633C148.674 9.43424 149.009 9.4082 149.27 9.4082C151.574 9.39518 152.98 9.83789 153.488 10.7363C154.23 11.9993 154.322 13.1647 153.762 14.2324C153.254 15.222 152.31 15.8112 150.93 16C150.005 16.1302 148.863 16.1595 147.502 16.0879C147.404 16.1139 147.29 16.127 147.16 16.127ZM148.156 14.3887C148.924 14.4017 149.517 14.4017 149.934 14.3887C151.431 14.3105 152.186 13.7962 152.199 12.8457C152.225 12.0449 151.88 11.5111 151.164 11.2441C150.591 11.0293 149.618 11 148.244 11.1562L148.156 14.3887ZM156.887 5.6875H162.512C163.358 5.6875 163.788 6.0293 163.801 6.71289C163.814 7.35091 163.384 7.67318 162.512 7.67969C161.913 7.67969 161.317 7.68294 160.725 7.68945C160.718 10.3197 160.708 12.9466 160.695 15.5703C160.695 16.2799 160.34 16.6283 159.631 16.6152C159.058 16.6022 158.771 16.2474 158.771 15.5508C158.785 12.9336 158.798 10.3164 158.811 7.69922L156.799 7.70898C155.979 7.71549 155.568 7.35091 155.568 6.61523C155.568 5.99674 156.008 5.6875 156.887 5.6875ZM166.916 11.7715C166.949 12.5072 167.281 13.1517 167.912 13.7051C168.641 14.3496 169.462 14.6686 170.373 14.6621C171.701 14.6491 172.593 14.3887 173.049 13.8809C173.485 13.3926 173.843 13.1191 174.123 13.0605C174.436 12.9954 174.657 13.0931 174.787 13.3535C175.093 13.959 174.95 14.5254 174.357 15.0527C173.316 15.9772 171.949 16.4329 170.256 16.4199C169.012 16.4069 167.925 16.0163 166.994 15.248C165.835 14.2975 165.256 13.0085 165.256 11.3809C165.256 10.0397 165.62 8.84505 166.35 7.79688C167.261 6.48828 168.439 5.78841 169.885 5.69727C171.389 5.60612 172.564 5.97721 173.41 6.81055C174.211 7.5918 174.595 8.48047 174.562 9.47656C174.536 10.2773 174.175 10.7266 173.479 10.8242L166.916 11.7715ZM167.131 10.1602L172.873 9.32031C172.775 8.75391 172.479 8.3112 171.984 7.99219C171.411 7.6276 170.803 7.44857 170.158 7.45508C169.26 7.45508 168.485 7.85547 167.834 8.65625C167.548 9.01432 167.313 9.51562 167.131 10.1602ZM177.551 21.5762C176.874 21.5762 176.542 21.2507 176.555 20.5996L176.867 6.46875C176.88 5.75911 177.235 5.41081 177.932 5.42383C178.27 5.43034 178.521 5.61914 178.684 5.99023C179.009 5.73633 179.771 5.61589 180.969 5.62891C182.128 5.63542 183.133 6.10091 183.986 7.02539C184.833 7.93034 185.256 8.98828 185.256 10.1992C185.262 11.9505 184.882 13.3047 184.113 14.2617C183.254 15.3294 182.193 15.9089 180.93 16C179.816 16.0846 179.042 15.9089 178.605 15.4727C178.599 15.4661 178.589 15.4596 178.576 15.4531L178.459 20.6582C178.446 21.2702 178.143 21.5762 177.551 21.5762ZM178.752 8.10938L178.635 13.168C179.266 13.8711 179.947 14.1966 180.676 14.1445C181.639 14.0794 182.368 13.679 182.863 12.9434C183.286 12.3249 183.505 11.5664 183.518 10.668C183.531 9.82812 183.286 9.0957 182.785 8.4707C182.355 7.93685 181.724 7.61458 180.891 7.50391C180.005 7.38672 179.292 7.58854 178.752 8.10938ZM187.844 9.94531L192.531 9.92578C193.143 9.92578 193.449 10.1732 193.449 10.668C193.449 11.1758 193.16 11.4297 192.58 11.4297L187.785 11.4199C187.355 11.4199 187.141 11.179 187.141 10.6973C187.141 10.196 187.375 9.94531 187.844 9.94531ZM197.15 14.3301C197.639 14.5384 198.381 14.597 199.377 14.5059C200.061 14.4473 200.695 14.0664 201.281 13.3633C201.594 12.9857 201.792 12.5267 201.877 11.9863L198.908 11.9277C198.218 11.9147 197.876 11.651 197.883 11.1367C197.896 10.4661 198.247 10.1374 198.938 10.1504L201.848 10.1992C201.763 9.54818 201.613 9.04036 201.398 8.67578C201.105 8.17448 200.676 7.86198 200.109 7.73828C199.139 7.52344 198.368 7.52344 197.795 7.73828C196.975 8.04427 196.389 8.11263 196.037 7.94336C195.646 7.76107 195.529 7.4681 195.686 7.06445C195.913 6.47201 196.47 6.07487 197.355 5.87305C198.202 5.67773 199.13 5.64518 200.139 5.77539C201.343 5.92513 202.271 6.5306 202.922 7.5918C203.488 8.50977 203.771 9.87695 203.771 11.6934C203.771 13.2038 203.277 14.3952 202.287 15.2676C201.558 15.9121 200.598 16.2734 199.406 16.3516C198.234 16.4297 197.268 16.3613 196.506 16.1465C195.705 15.9251 195.373 15.515 195.51 14.916C195.686 14.1348 196.232 13.9395 197.15 14.3301ZM206.926 5.78516C207.089 5.76562 207.229 5.77539 207.346 5.81445C209.123 5.7819 210.904 5.7526 212.688 5.72656C213.417 5.71354 213.794 6 213.82 6.58594C213.846 7.30208 213.495 7.66016 212.766 7.66016L207.902 7.64062L208.273 15.3359C208.312 16.0521 208 16.4232 207.336 16.4492C206.698 16.4622 206.366 16.1107 206.34 15.3945L206.008 6.99609C205.982 6.25391 206.288 5.85026 206.926 5.78516ZM219.68 7.74805C218.827 7.76758 218.189 8.0638 217.766 8.63672C217.115 9.52214 216.789 10.4954 216.789 11.5566C216.789 12.5788 217.023 13.3438 217.492 13.8516C217.974 14.3724 218.527 14.6328 219.152 14.6328C219.862 14.6328 220.461 14.3724 220.949 13.8516C221.464 13.2982 221.724 12.4095 221.73 11.1855C221.737 8.86784 221.053 7.72201 219.68 7.74805ZM219.602 5.75586C222.238 5.77539 223.553 7.65039 223.547 11.3809C223.54 12.9694 223.189 14.1771 222.492 15.0039C221.711 16 220.52 16.4915 218.918 16.4785C217.759 16.472 216.776 15.9902 215.969 15.0332C215.24 14.1673 214.875 12.9499 214.875 11.3809C214.875 9.89648 215.311 8.58138 216.184 7.43555C217.043 6.30273 218.182 5.74284 219.602 5.75586ZM230.383 14.75C230.839 14.9844 230.949 15.3522 230.715 15.8535L229.445 18.5977C229.159 19.2292 228.807 19.4538 228.391 19.2715C227.948 19.0697 227.837 18.6823 228.059 18.1094L229.191 15.2578C229.439 14.6328 229.836 14.4635 230.383 14.75ZM240.539 5.91211C240.591 5.91211 240.643 5.91211 240.695 5.91211C240.708 5.91211 240.721 5.91211 240.734 5.91211H247.844C247.876 5.91211 247.909 5.91211 247.941 5.91211C247.961 5.91211 247.98 5.91211 248 5.91211C248.625 5.88607 248.938 6.18555 248.938 6.81055L248.977 15.4043C248.977 16.0944 248.651 16.4395 248 16.4395C247.362 16.4395 247.043 16.0944 247.043 15.4043C247.036 12.8848 247.03 10.3652 247.023 7.8457H241.477L241.516 15.4043C241.516 16.0944 241.19 16.4395 240.539 16.4395C239.901 16.4395 239.582 16.0944 239.582 15.4043L239.562 6.88867C239.562 6.26367 239.888 5.93815 240.539 5.91211ZM252.59 21.5762C251.913 21.5762 251.581 21.2507 251.594 20.5996L251.906 6.46875C251.919 5.75911 252.274 5.41081 252.971 5.42383C253.309 5.43034 253.56 5.61914 253.723 5.99023C254.048 5.73633 254.81 5.61589 256.008 5.62891C257.167 5.63542 258.173 6.10091 259.025 7.02539C259.872 7.93034 260.295 8.98828 260.295 10.1992C260.301 11.9505 259.921 13.3047 259.152 14.2617C258.293 15.3294 257.232 15.9089 255.969 16C254.855 16.0846 254.081 15.9089 253.645 15.4727C253.638 15.4661 253.628 15.4596 253.615 15.4531L253.498 20.6582C253.485 21.2702 253.182 21.5762 252.59 21.5762ZM253.791 8.10938L253.674 13.168C254.305 13.8711 254.986 14.1966 255.715 14.1445C256.678 14.0794 257.408 13.679 257.902 12.9434C258.326 12.3249 258.544 11.5664 258.557 10.668C258.57 9.82812 258.326 9.0957 257.824 8.4707C257.395 7.93685 256.763 7.61458 255.93 7.50391C255.044 7.38672 254.331 7.58854 253.791 8.10938ZM262.941 5.77539C263.632 5.75586 263.983 6.07487 263.996 6.73242L264.201 13.1191L270.012 6.2832C270.142 6.12695 270.279 6.00977 270.422 5.93164C270.559 5.83398 270.741 5.7819 270.969 5.77539C271.659 5.75586 272.01 6.07487 272.023 6.73242L272.297 15.1309C272.323 16.0228 272.01 16.4785 271.359 16.498C270.682 16.5176 270.331 16.0814 270.305 15.1895L270.148 8.92969L264.084 16.0977C264.032 16.1823 263.973 16.2507 263.908 16.3027C263.889 16.3223 263.872 16.3418 263.859 16.3613C263.586 16.6934 263.28 16.7227 262.941 16.4492C262.518 16.3125 262.297 15.8926 262.277 15.1895L262.062 6.79102C262.049 6.13346 262.342 5.79492 262.941 5.77539ZM282.814 5.60938C283.479 5.59635 283.811 5.90234 283.811 6.52734L283.781 14.1055C283.846 14.1055 283.915 14.1055 283.986 14.1055C284.774 14.1055 285.174 14.431 285.188 15.082C285.188 15.1667 285.181 15.2448 285.168 15.3164C285.188 15.4466 285.197 15.5931 285.197 15.7559V17.6016C285.197 18.2461 284.898 18.5618 284.299 18.5488C283.648 18.5358 283.319 18.2493 283.312 17.6895C283.306 17.1165 283.299 16.5469 283.293 15.9805H276.086V17.6016C276.086 18.2461 275.786 18.5618 275.188 18.5488C274.536 18.5358 274.208 18.2493 274.201 17.6895L274.182 15.541C274.182 15.4954 274.182 15.4499 274.182 15.4043C274.162 15.3132 274.152 15.2155 274.152 15.1113C274.165 14.4342 274.507 14.0957 275.178 14.0957H275.188C276.372 12.5853 276.952 10.209 276.926 6.9668C276.926 6.68685 276.968 6.45573 277.053 6.27344C277.072 6.01953 277.255 5.85352 277.6 5.77539C277.71 5.73633 277.837 5.71354 277.98 5.70703C278.091 5.70052 278.192 5.70703 278.283 5.72656L282.453 5.6582C282.557 5.62565 282.678 5.60938 282.814 5.60938ZM278.84 7.69922C278.742 10.2318 278.212 12.3639 277.248 14.0957L281.818 14.1055L281.848 7.64062L278.947 7.69922C278.908 7.69922 278.872 7.69922 278.84 7.69922ZM295.051 5.95117C295.676 6.2181 295.822 6.73568 295.49 7.50391L289.914 20.3652C289.465 21.4069 288.954 21.8105 288.381 21.5762C287.697 21.2962 287.58 20.6387 288.029 19.6035L289.973 15.1113L285.91 7.5918C285.493 6.82357 285.572 6.28646 286.145 5.98047C286.75 5.65495 287.258 5.87956 287.668 6.6543L290.939 12.875L293.615 6.71289C293.947 5.94466 294.426 5.69076 295.051 5.95117ZM300.324 9.08594L298.254 15.6289C298.033 16.332 297.632 16.5924 297.053 16.4102C296.525 16.2474 296.372 15.8145 296.594 15.1113L299.279 6.55664C299.455 6.00326 299.803 5.73633 300.324 5.75586C300.845 5.73633 301.193 6.00326 301.369 6.55664L303.332 12.8066L305.295 6.55664C305.471 6.00326 305.819 5.73633 306.34 5.75586C306.861 5.73633 307.209 6.00326 307.385 6.55664L310.07 15.1113C310.292 15.8145 310.139 16.2474 309.611 16.4102C309.032 16.5924 308.632 16.332 308.41 15.6289L306.34 9.08594L304.27 15.6289C304.081 16.2214 303.768 16.498 303.332 16.459C302.896 16.4915 302.583 16.2148 302.395 15.6289L300.324 9.08594ZM315.695 16.5469C312.772 16.5534 311.301 14.9909 311.281 11.8594C311.262 9.82161 311.932 8.24609 313.293 7.13281C314.855 5.85026 316.49 5.47917 318.195 6.01953C318.384 5.85677 318.677 5.82096 319.074 5.91211C319.855 6.08789 320.171 6.59245 320.021 7.42578C319.872 8.23958 319.781 9.6263 319.748 11.5859C319.722 13.1484 319.898 14.2552 320.275 14.9062C320.829 15.8568 320.751 16.4036 320.041 16.5469C319.227 16.7161 318.755 16.3711 318.625 15.5117C317.277 16.1953 316.301 16.5404 315.695 16.5469ZM316.828 14.584C317.062 14.4993 317.469 14.2194 318.049 13.7441C317.814 10.9447 317.847 9.01758 318.146 7.96289C317.515 7.56576 316.854 7.45182 316.164 7.62109C315.682 7.73828 315.298 7.9043 315.012 8.11914C313.853 8.95898 313.244 10.1439 313.186 11.6738C313.205 13.666 313.889 14.7077 315.236 14.7988C315.803 14.8379 316.333 14.7663 316.828 14.584ZM326.965 3.14844C328.358 3.18099 329.217 2.70898 329.543 1.73242C329.836 0.840495 330.214 0.475911 330.676 0.638672C331.171 0.814453 331.288 1.2832 331.027 2.04492C330.441 3.73763 329.074 4.57747 326.926 4.56445C324.921 4.55143 323.622 3.79297 323.029 2.28906C322.639 1.30599 322.733 0.759115 323.312 0.648438C323.898 0.53776 324.26 0.840495 324.396 1.55664C324.585 2.57878 325.441 3.10938 326.965 3.14844ZM322.863 5.77539C323.553 5.75586 323.905 6.07487 323.918 6.73242L324.123 13.1191L329.934 6.2832C330.064 6.12695 330.201 6.00977 330.344 5.93164C330.48 5.83398 330.663 5.7819 330.891 5.77539C331.581 5.75586 331.932 6.07487 331.945 6.73242L332.219 15.1309C332.245 16.0228 331.932 16.4785 331.281 16.498C330.604 16.5176 330.253 16.0814 330.227 15.1895L330.07 8.92969L324.006 16.0977C323.954 16.1823 323.895 16.2507 323.83 16.3027C323.811 16.3223 323.794 16.3418 323.781 16.3613C323.508 16.6934 323.202 16.7227 322.863 16.4492C322.44 16.3125 322.219 15.8926 322.199 15.1895L321.984 6.79102C321.971 6.13346 322.264 5.79492 322.863 5.77539ZM341.574 5.77539C342.264 5.75586 342.616 6.07487 342.629 6.73242L342.834 13.1191L348.645 6.2832C348.775 6.12695 348.911 6.00977 349.055 5.93164C349.191 5.83398 349.374 5.7819 349.602 5.77539C350.292 5.75586 350.643 6.07487 350.656 6.73242L350.93 15.1309C350.956 16.0228 350.643 16.4785 349.992 16.498C349.315 16.5176 348.964 16.0814 348.938 15.1895L348.781 8.92969L342.717 16.0977C342.665 16.1823 342.606 16.2507 342.541 16.3027C342.521 16.3223 342.505 16.3418 342.492 16.3613C342.219 16.6934 341.913 16.7227 341.574 16.4492C341.151 16.3125 340.93 15.8926 340.91 15.1895L340.695 6.79102C340.682 6.13346 340.975 5.79492 341.574 5.77539ZM356.691 9.08594L354.621 15.6289C354.4 16.332 353.999 16.5924 353.42 16.4102C352.893 16.2474 352.74 15.8145 352.961 15.1113L355.646 6.55664C355.822 6.00326 356.171 5.73633 356.691 5.75586C357.212 5.73633 357.561 6.00326 357.736 6.55664L359.699 12.8066L361.662 6.55664C361.838 6.00326 362.186 5.73633 362.707 5.75586C363.228 5.73633 363.576 6.00326 363.752 6.55664L366.438 15.1113C366.659 15.8145 366.506 16.2474 365.979 16.4102C365.399 16.5924 364.999 16.332 364.777 15.6289L362.707 9.08594L360.637 15.6289C360.448 16.2214 360.135 16.498 359.699 16.459C359.263 16.4915 358.951 16.2148 358.762 15.6289L356.691 9.08594ZM368.215 16.3223C368.553 16.498 369.068 16.3027 369.758 15.7363L373.176 12.9531C373.404 12.9531 373.645 12.9596 373.898 12.9727C374.068 12.9792 374.221 12.9759 374.357 12.9629L374.406 15.5215C374.413 16.0814 374.719 16.3581 375.324 16.3516C375.826 16.3385 376.07 16.0586 376.057 15.5117L375.832 6.52734C375.819 6.05208 375.559 5.8112 375.051 5.80469C374.921 5.80469 374.807 5.81771 374.709 5.84375C374.247 5.76562 373.566 5.78841 372.668 5.91211C370.5 6.19206 369.1 7.04818 368.469 8.48047C367.915 9.75651 368.15 10.8698 369.172 11.8203C369.621 12.224 370.272 12.5137 371.125 12.6895L368.098 14.8867C367.355 15.4206 367.395 15.8991 368.215 16.3223ZM374.221 7.5625L374.328 11.4297C372.023 11.638 370.617 11.2083 370.109 10.1406C369.875 9.64583 370.038 9.07943 370.598 8.44141C371.066 7.91406 371.841 7.63411 372.922 7.60156C373.781 7.58203 374.214 7.56901 374.221 7.5625ZM385.09 5.77539C385.78 5.75586 386.132 6.07487 386.145 6.73242L386.35 13.1191L392.16 6.2832C392.29 6.12695 392.427 6.00977 392.57 5.93164C392.707 5.83398 392.889 5.7819 393.117 5.77539C393.807 5.75586 394.159 6.07487 394.172 6.73242L394.445 15.1309C394.471 16.0228 394.159 16.4785 393.508 16.498C392.831 16.5176 392.479 16.0814 392.453 15.1895L392.297 8.92969L386.232 16.0977C386.18 16.1823 386.122 16.2507 386.057 16.3027C386.037 16.3223 386.021 16.3418 386.008 16.3613C385.734 16.6934 385.428 16.7227 385.09 16.4492C384.667 16.3125 384.445 15.8926 384.426 15.1895L384.211 6.79102C384.198 6.13346 384.491 5.79492 385.09 5.77539ZM410.939 5.60938C411.604 5.59635 411.936 5.90234 411.936 6.52734L411.906 14.1055C411.971 14.1055 412.04 14.1055 412.111 14.1055C412.899 14.1055 413.299 14.431 413.312 15.082C413.312 15.1667 413.306 15.2448 413.293 15.3164C413.312 15.4466 413.322 15.5931 413.322 15.7559V17.6016C413.322 18.2461 413.023 18.5618 412.424 18.5488C411.773 18.5358 411.444 18.2493 411.438 17.6895C411.431 17.1165 411.424 16.5469 411.418 15.9805H404.211V17.6016C404.211 18.2461 403.911 18.5618 403.312 18.5488C402.661 18.5358 402.333 18.2493 402.326 17.6895L402.307 15.541C402.307 15.4954 402.307 15.4499 402.307 15.4043C402.287 15.3132 402.277 15.2155 402.277 15.1113C402.29 14.4342 402.632 14.0957 403.303 14.0957H403.312C404.497 12.5853 405.077 10.209 405.051 6.9668C405.051 6.68685 405.093 6.45573 405.178 6.27344C405.197 6.01953 405.38 5.85352 405.725 5.77539C405.835 5.73633 405.962 5.71354 406.105 5.70703C406.216 5.70052 406.317 5.70703 406.408 5.72656L410.578 5.6582C410.682 5.62565 410.803 5.60938 410.939 5.60938ZM406.965 7.69922C406.867 10.2318 406.337 12.3639 405.373 14.0957L409.943 14.1055L409.973 7.64062L407.072 7.69922C407.033 7.69922 406.997 7.69922 406.965 7.69922ZM418.723 16.5469C415.799 16.5534 414.328 14.9909 414.309 11.8594C414.289 9.82161 414.96 8.24609 416.32 7.13281C417.883 5.85026 419.517 5.47917 421.223 6.01953C421.411 5.85677 421.704 5.82096 422.102 5.91211C422.883 6.08789 423.199 6.59245 423.049 7.42578C422.899 8.23958 422.808 9.6263 422.775 11.5859C422.749 13.1484 422.925 14.2552 423.303 14.9062C423.856 15.8568 423.778 16.4036 423.068 16.5469C422.255 16.7161 421.783 16.3711 421.652 15.5117C420.305 16.1953 419.328 16.5404 418.723 16.5469ZM419.855 14.584C420.09 14.4993 420.497 14.2194 421.076 13.7441C420.842 10.9447 420.874 9.01758 421.174 7.96289C420.542 7.56576 419.882 7.45182 419.191 7.62109C418.71 7.73828 418.326 7.9043 418.039 8.11914C416.88 8.95898 416.271 10.1439 416.213 11.6738C416.232 13.666 416.916 14.7077 418.264 14.7988C418.83 14.8379 419.361 14.7663 419.855 14.584ZM427.141 7.45508L427.043 10.1699C428.853 10.3587 430.005 10.2057 430.5 9.71094C431.021 9.1901 431.047 8.66927 430.578 8.14844C430.24 7.77083 429.471 7.54622 428.273 7.47461L427.141 7.45508ZM426.34 5.7168C426.464 5.7168 426.574 5.72982 426.672 5.75586C427.121 5.67122 427.775 5.69401 428.635 5.82422C430.926 6.15625 432.193 6.86589 432.434 7.95312C432.681 9.0599 432.414 9.95182 431.633 10.6289C431.509 10.7331 431.372 10.8307 431.223 10.9219C431.509 11.013 431.734 11.1172 431.896 11.2344C433.166 12.1458 433.573 13.207 433.117 14.418C432.857 15.1016 431.929 15.6419 430.334 16.0391C428.869 16.3971 427.489 16.5143 426.193 16.3906C426.141 16.3971 426.083 16.4004 426.018 16.4004C425.529 16.3874 425.295 16.0911 425.314 15.5117L425.578 6.46875C425.598 5.96745 425.852 5.7168 426.34 5.7168ZM427.795 11.7715C427.684 11.778 427.57 11.7845 427.453 11.791C427.29 11.7975 427.141 11.7943 427.004 11.7812L426.926 14.9453C427.57 14.9062 428.456 14.7858 429.582 14.584C430.598 14.3952 431.203 14.2096 431.398 14.0273C431.939 13.4805 431.766 12.9043 430.881 12.2988C430.653 12.1426 429.729 11.9798 428.107 11.8105C427.997 11.7975 427.893 11.7845 427.795 11.7715ZM439.035 16.5469C436.112 16.5534 434.641 14.9909 434.621 11.8594C434.602 9.82161 435.272 8.24609 436.633 7.13281C438.195 5.85026 439.829 5.47917 441.535 6.01953C441.724 5.85677 442.017 5.82096 442.414 5.91211C443.195 6.08789 443.511 6.59245 443.361 7.42578C443.212 8.23958 443.12 9.6263 443.088 11.5859C443.062 13.1484 443.238 14.2552 443.615 14.9062C444.169 15.8568 444.09 16.4036 443.381 16.5469C442.567 16.7161 442.095 16.3711 441.965 15.5117C440.617 16.1953 439.641 16.5404 439.035 16.5469ZM440.168 14.584C440.402 14.4993 440.809 14.2194 441.389 13.7441C441.154 10.9447 441.187 9.01758 441.486 7.96289C440.855 7.56576 440.194 7.45182 439.504 7.62109C439.022 7.73828 438.638 7.9043 438.352 8.11914C437.193 8.95898 436.584 10.1439 436.525 11.6738C436.545 13.666 437.229 14.7077 438.576 14.7988C439.143 14.8379 439.673 14.7663 440.168 14.584ZM450.305 3.14844C451.698 3.18099 452.557 2.70898 452.883 1.73242C453.176 0.840495 453.553 0.475911 454.016 0.638672C454.51 0.814453 454.628 1.2832 454.367 2.04492C453.781 3.73763 452.414 4.57747 450.266 4.56445C448.26 4.55143 446.962 3.79297 446.369 2.28906C445.979 1.30599 446.073 0.759115 446.652 0.648438C447.238 0.53776 447.6 0.840495 447.736 1.55664C447.925 2.57878 448.781 3.10938 450.305 3.14844ZM446.203 5.77539C446.893 5.75586 447.245 6.07487 447.258 6.73242L447.463 13.1191L453.273 6.2832C453.404 6.12695 453.54 6.00977 453.684 5.93164C453.82 5.83398 454.003 5.7819 454.23 5.77539C454.921 5.75586 455.272 6.07487 455.285 6.73242L455.559 15.1309C455.585 16.0228 455.272 16.4785 454.621 16.498C453.944 16.5176 453.592 16.0814 453.566 15.1895L453.41 8.92969L447.346 16.0977C447.294 16.1823 447.235 16.2507 447.17 16.3027C447.15 16.3223 447.134 16.3418 447.121 16.3613C446.848 16.6934 446.542 16.7227 446.203 16.4492C445.78 16.3125 445.559 15.8926 445.539 15.1895L445.324 6.79102C445.311 6.13346 445.604 5.79492 446.203 5.77539ZM465.305 16.1855C464.81 16.1855 464.562 15.9479 464.562 15.4727L464.504 6.27344C464.504 5.86328 464.781 5.6582 465.334 5.6582C465.913 5.6582 466.2 5.86328 466.193 6.27344L466.174 9.37891C467.697 9.35286 468.547 9.09896 468.723 8.61719C469.413 6.72917 470.223 5.81771 471.154 5.88281C471.968 5.94141 472.339 6.17253 472.268 6.57617C472.176 7.08398 472.02 7.33464 471.799 7.32812C471.311 7.3151 470.725 8.07682 470.041 9.61328C469.885 9.95833 469.631 10.2546 469.279 10.502C470.301 11.1855 471.219 12.2956 472.033 13.832C472.717 15.1276 472.691 15.8796 471.955 16.0879C471.363 16.2572 470.852 15.9154 470.422 15.0625C469.374 12.9857 468.273 11.7194 467.121 11.2637C466.828 11.3092 466.509 11.3451 466.164 11.3711C466.158 12.7383 466.151 14.1055 466.145 15.4727C466.138 15.9479 465.858 16.1855 465.305 16.1855ZM480.695 5.24805C481.366 5.26107 481.698 5.58008 481.691 6.20508L481.633 10.0234C483.404 9.9974 485.174 9.97135 486.945 9.94531L486.975 6.16602C486.981 5.54102 487.3 5.23503 487.932 5.24805C488.602 5.26107 488.934 5.58008 488.928 6.20508L488.791 15.6387C488.785 16.2507 488.426 16.5436 487.717 16.5176C487.163 16.498 486.89 16.179 486.896 15.5605L486.926 11.8105L481.613 11.918C481.594 13.1549 481.574 14.3952 481.555 15.6387C481.548 16.2507 481.19 16.5436 480.48 16.5176C479.927 16.498 479.654 16.179 479.66 15.5605L479.738 6.16602C479.745 5.54102 480.064 5.23503 480.695 5.24805ZM494.992 16.5469C492.069 16.5534 490.598 14.9909 490.578 11.8594C490.559 9.82161 491.229 8.24609 492.59 7.13281C494.152 5.85026 495.786 5.47917 497.492 6.01953C497.681 5.85677 497.974 5.82096 498.371 5.91211C499.152 6.08789 499.468 6.59245 499.318 7.42578C499.169 8.23958 499.077 9.6263 499.045 11.5859C499.019 13.1484 499.195 14.2552 499.572 14.9062C500.126 15.8568 500.048 16.4036 499.338 16.5469C498.524 16.7161 498.052 16.3711 497.922 15.5117C496.574 16.1953 495.598 16.5404 494.992 16.5469ZM496.125 14.584C496.359 14.4993 496.766 14.2194 497.346 13.7441C497.111 10.9447 497.144 9.01758 497.443 7.96289C496.812 7.56576 496.151 7.45182 495.461 7.62109C494.979 7.73828 494.595 7.9043 494.309 8.11914C493.15 8.95898 492.541 10.1439 492.482 11.6738C492.502 13.666 493.186 14.7077 494.533 14.7988C495.1 14.8379 495.63 14.7663 496.125 14.584ZM504.543 9.08594L502.473 15.6289C502.251 16.332 501.851 16.5924 501.271 16.4102C500.744 16.2474 500.591 15.8145 500.812 15.1113L503.498 6.55664C503.674 6.00326 504.022 5.73633 504.543 5.75586C505.064 5.73633 505.412 6.00326 505.588 6.55664L507.551 12.8066L509.514 6.55664C509.689 6.00326 510.038 5.73633 510.559 5.75586C511.079 5.73633 511.428 6.00326 511.604 6.55664L514.289 15.1113C514.51 15.8145 514.357 16.2474 513.83 16.4102C513.251 16.5924 512.85 16.332 512.629 15.6289L510.559 9.08594L508.488 15.6289C508.299 16.2214 507.987 16.498 507.551 16.459C507.115 16.4915 506.802 16.2148 506.613 15.6289L504.543 9.08594ZM522.785 5.24805C523.456 5.26107 523.788 5.58008 523.781 6.20508L523.723 10.0234C525.493 9.9974 527.264 9.97135 529.035 9.94531L529.064 6.16602C529.071 5.54102 529.39 5.23503 530.021 5.24805C530.692 5.26107 531.024 5.58008 531.018 6.20508L530.881 15.6387C530.874 16.2507 530.516 16.5436 529.807 16.5176C529.253 16.498 528.98 16.179 528.986 15.5605L529.016 11.8105L523.703 11.918C523.684 13.1549 523.664 14.3952 523.645 15.6387C523.638 16.2507 523.28 16.5436 522.57 16.5176C522.017 16.498 521.743 16.179 521.75 15.5605L521.828 6.16602C521.835 5.54102 522.154 5.23503 522.785 5.24805ZM537.082 16.5469C534.159 16.5534 532.688 14.9909 532.668 11.8594C532.648 9.82161 533.319 8.24609 534.68 7.13281C536.242 5.85026 537.876 5.47917 539.582 6.01953C539.771 5.85677 540.064 5.82096 540.461 5.91211C541.242 6.08789 541.558 6.59245 541.408 7.42578C541.258 8.23958 541.167 9.6263 541.135 11.5859C541.109 13.1484 541.285 14.2552 541.662 14.9062C542.215 15.8568 542.137 16.4036 541.428 16.5469C540.614 16.7161 540.142 16.3711 540.012 15.5117C538.664 16.1953 537.688 16.5404 537.082 16.5469ZM538.215 14.584C538.449 14.4993 538.856 14.2194 539.436 13.7441C539.201 10.9447 539.234 9.01758 539.533 7.96289C538.902 7.56576 538.241 7.45182 537.551 7.62109C537.069 7.73828 536.685 7.9043 536.398 8.11914C535.24 8.95898 534.631 10.1439 534.572 11.6738C534.592 13.666 535.275 14.7077 536.623 14.7988C537.189 14.8379 537.72 14.7663 538.215 14.584ZM551.477 5.91211C551.529 5.91211 551.581 5.91211 551.633 5.91211C551.646 5.91211 551.659 5.91211 551.672 5.91211H558.781C558.814 5.91211 558.846 5.91211 558.879 5.91211C558.898 5.91211 558.918 5.91211 558.938 5.91211C559.562 5.88607 559.875 6.18555 559.875 6.81055L559.914 15.4043C559.914 16.0944 559.589 16.4395 558.938 16.4395C558.299 16.4395 557.98 16.0944 557.98 15.4043C557.974 12.8848 557.967 10.3652 557.961 7.8457H552.414L552.453 15.4043C552.453 16.0944 552.128 16.4395 551.477 16.4395C550.839 16.4395 550.52 16.0944 550.52 15.4043L550.5 6.88867C550.5 6.26367 550.826 5.93815 551.477 5.91211ZM563.527 21.5762C562.85 21.5762 562.518 21.2507 562.531 20.5996L562.844 6.46875C562.857 5.75911 563.212 5.41081 563.908 5.42383C564.247 5.43034 564.497 5.61914 564.66 5.99023C564.986 5.73633 565.747 5.61589 566.945 5.62891C568.104 5.63542 569.11 6.10091 569.963 7.02539C570.809 7.93034 571.232 8.98828 571.232 10.1992C571.239 11.9505 570.858 13.3047 570.09 14.2617C569.23 15.3294 568.169 15.9089 566.906 16C565.793 16.0846 565.018 15.9089 564.582 15.4727C564.576 15.4661 564.566 15.4596 564.553 15.4531L564.436 20.6582C564.423 21.2702 564.12 21.5762 563.527 21.5762ZM564.729 8.10938L564.611 13.168C565.243 13.8711 565.923 14.1966 566.652 14.1445C567.616 14.0794 568.345 13.679 568.84 12.9434C569.263 12.3249 569.481 11.5664 569.494 10.668C569.507 9.82812 569.263 9.0957 568.762 8.4707C568.332 7.93685 567.701 7.61458 566.867 7.50391C565.982 7.38672 565.269 7.58854 564.729 8.10938ZM576.945 16.5469C574.022 16.5534 572.551 14.9909 572.531 11.8594C572.512 9.82161 573.182 8.24609 574.543 7.13281C576.105 5.85026 577.74 5.47917 579.445 6.01953C579.634 5.85677 579.927 5.82096 580.324 5.91211C581.105 6.08789 581.421 6.59245 581.271 7.42578C581.122 8.23958 581.031 9.6263 580.998 11.5859C580.972 13.1484 581.148 14.2552 581.525 14.9062C582.079 15.8568 582.001 16.4036 581.291 16.5469C580.477 16.7161 580.005 16.3711 579.875 15.5117C578.527 16.1953 577.551 16.5404 576.945 16.5469ZM578.078 14.584C578.312 14.4993 578.719 14.2194 579.299 13.7441C579.064 10.9447 579.097 9.01758 579.396 7.96289C578.765 7.56576 578.104 7.45182 577.414 7.62109C576.932 7.73828 576.548 7.9043 576.262 8.11914C575.103 8.95898 574.494 10.1439 574.436 11.6738C574.455 13.666 575.139 14.7077 576.486 14.7988C577.053 14.8379 577.583 14.7663 578.078 14.584ZM586.77 9.98438C586.04 10.2057 585.708 10.5703 585.773 11.0781C585.819 11.4818 586.216 11.7096 586.965 11.7617C587.935 11.8268 588.436 12.3086 588.469 13.207C588.495 14.099 588.052 14.5938 587.141 14.6914C586.125 14.8021 585.376 14.6589 584.895 14.2617C584.406 13.8581 584.016 13.6628 583.723 13.6758C583.195 13.7018 582.915 14.0143 582.883 14.6133C582.87 14.9258 583.13 15.2708 583.664 15.6484C584.908 16.5273 586.294 16.7617 587.824 16.3516C589.302 15.9479 590.09 15.1276 590.188 13.8906C590.266 12.901 590.116 12.1328 589.738 11.5859C589.426 11.1302 589.107 10.8047 588.781 10.6094C589.302 10.0495 589.589 9.69792 589.641 9.55469C590.025 8.63672 589.934 7.8099 589.367 7.07422C588.736 6.25391 587.863 5.81771 586.75 5.76562C585.754 5.72005 584.868 5.90885 584.094 6.33203C583.501 6.66406 583.225 7.11003 583.264 7.66992C583.296 8.06706 583.508 8.28841 583.898 8.33398C584.094 8.36003 584.566 8.14193 585.314 7.67969C585.738 7.42578 586.271 7.36393 586.916 7.49414C587.704 7.6569 588.098 7.9987 588.098 8.51953C588.098 9.22917 587.655 9.71745 586.77 9.98438ZM600.041 5.60938C600.705 5.59635 601.037 5.90234 601.037 6.52734L601.008 14.1055C601.073 14.1055 601.141 14.1055 601.213 14.1055C602.001 14.1055 602.401 14.431 602.414 15.082C602.414 15.1667 602.408 15.2448 602.395 15.3164C602.414 15.4466 602.424 15.5931 602.424 15.7559V17.6016C602.424 18.2461 602.124 18.5618 601.525 18.5488C600.874 18.5358 600.546 18.2493 600.539 17.6895C600.533 17.1165 600.526 16.5469 600.52 15.9805H593.312V17.6016C593.312 18.2461 593.013 18.5618 592.414 18.5488C591.763 18.5358 591.434 18.2493 591.428 17.6895L591.408 15.541C591.408 15.4954 591.408 15.4499 591.408 15.4043C591.389 15.3132 591.379 15.2155 591.379 15.1113C591.392 14.4342 591.734 14.0957 592.404 14.0957H592.414C593.599 12.5853 594.178 10.209 594.152 6.9668C594.152 6.68685 594.195 6.45573 594.279 6.27344C594.299 6.01953 594.481 5.85352 594.826 5.77539C594.937 5.73633 595.064 5.71354 595.207 5.70703C595.318 5.70052 595.419 5.70703 595.51 5.72656L599.68 5.6582C599.784 5.62565 599.904 5.60938 600.041 5.60938ZM596.066 7.69922C595.969 10.2318 595.438 12.3639 594.475 14.0957L599.045 14.1055L599.074 7.64062L596.174 7.69922C596.135 7.69922 596.099 7.69922 596.066 7.69922ZM604.719 5.24805C605.389 5.26107 605.721 5.58008 605.715 6.20508L605.656 10.0234C607.427 9.9974 609.198 9.97135 610.969 9.94531L610.998 6.16602C611.005 5.54102 611.324 5.23503 611.955 5.24805C612.626 5.26107 612.958 5.58008 612.951 6.20508L612.814 15.6387C612.808 16.2507 612.45 16.5436 611.74 16.5176C611.187 16.498 610.913 16.179 610.92 15.5605L610.949 11.8105L605.637 11.918C605.617 13.1549 605.598 14.3952 605.578 15.6387C605.572 16.2507 605.214 16.5436 604.504 16.5176C603.951 16.498 603.677 16.179 603.684 15.5605L603.762 6.16602C603.768 5.54102 604.087 5.23503 604.719 5.24805ZM615.949 5.77539C616.639 5.75586 616.991 6.07487 617.004 6.73242L617.209 13.1191L623.02 6.2832C623.15 6.12695 623.286 6.00977 623.43 5.93164C623.566 5.83398 623.749 5.7819 623.977 5.77539C624.667 5.75586 625.018 6.07487 625.031 6.73242L625.305 15.1309C625.331 16.0228 625.018 16.4785 624.367 16.498C623.69 16.5176 623.339 16.0814 623.312 15.1895L623.156 8.92969L617.092 16.0977C617.04 16.1823 616.981 16.2507 616.916 16.3027C616.896 16.3223 616.88 16.3418 616.867 16.3613C616.594 16.6934 616.288 16.7227 615.949 16.4492C615.526 16.3125 615.305 15.8926 615.285 15.1895L615.07 6.79102C615.057 6.13346 615.35 5.79492 615.949 5.77539ZM629.074 16.1855C628.579 16.1855 628.332 15.9479 628.332 15.4727L628.273 6.27344C628.273 5.86328 628.55 5.6582 629.104 5.6582C629.683 5.6582 629.969 5.86328 629.963 6.27344L629.943 9.37891C631.467 9.35286 632.316 9.09896 632.492 8.61719C633.182 6.72917 633.993 5.81771 634.924 5.88281C635.738 5.94141 636.109 6.17253 636.037 6.57617C635.946 7.08398 635.79 7.33464 635.568 7.32812C635.08 7.3151 634.494 8.07682 633.811 9.61328C633.654 9.95833 633.4 10.2546 633.049 10.502C634.071 11.1855 634.989 12.2956 635.803 13.832C636.486 15.1276 636.46 15.8796 635.725 16.0879C635.132 16.2572 634.621 15.9154 634.191 15.0625C633.143 12.9857 632.043 11.7194 630.891 11.2637C630.598 11.3092 630.279 11.3451 629.934 11.3711C629.927 12.7383 629.921 14.1055 629.914 15.4727C629.908 15.9479 629.628 16.1855 629.074 16.1855Z" fill="white"/>
</svg>
