<svg width="188" height="131" viewBox="0 0 88 31" fill="none" xmlns="http://www.w3.org/2000/svg">
<rect x="61" y="3.12451" width="26" height="26" rx="13" fill="#E53935" stroke="#9D0000" stroke-width="2"/>
<rect x="61" y="1.12451" width="26" height="26" rx="13" fill="#E53935" stroke="#9D0000" stroke-width="2"/>
<path fill-rule="evenodd" clip-rule="evenodd" d="M71.479 17.8411C71.227 17.5632 70.7993 16.8519 71.1073 16.6245C71.1073 16.6245 71.932 15.788 72.8305 15.1245C73.729 14.4611 75.128 13.6245 75.128 13.6245C75.128 13.6245 73.5509 12.6525 72.8305 12.0023C72.1101 11.3522 71.479 10.8676 71.479 10.8676C71.171 10.6402 71.2388 10.1647 71.479 9.62316C71.7309 9.34526 71.8433 8.9668 72.1512 9.19417C72.1512 9.19417 74.5671 11.1377 75.5987 11.8994C76.6302 12.6611 77.0395 12.8783 77.0395 12.8783C77.2067 13.0018 78 13.4032 78 13.5982C78 13.7932 77.6014 13.978 77.4342 14.1014C77.4342 14.1014 75.6323 15.3457 74.6007 16.1073C73.5692 16.869 72.1512 18.0023 72.1512 18.0023C71.8433 18.2297 71.7309 18.119 71.479 17.8411Z" fill="white"/>
<path d="M0.448 17.3185C0.588 17.2438 0.760667 17.1972 0.966 17.1785C1.17133 17.1505 1.386 17.1272 1.61 17.1085C1.76867 16.9032 1.90867 16.6418 2.03 16.3245C2.15133 16.0072 2.25867 15.6618 2.352 15.2885C2.45467 14.9058 2.53867 14.5092 2.604 14.0985C2.66933 13.6785 2.72533 13.2725 2.772 12.8805C2.81867 12.4792 2.856 12.1058 2.884 11.7605C2.912 11.4152 2.93533 11.1165 2.954 10.8645C2.88867 10.8738 2.786 10.8832 2.646 10.8925C2.506 10.9018 2.41733 10.9065 2.38 10.9065C2.16533 10.7478 2.00667 10.5705 1.904 10.3745C1.81067 10.1692 1.764 9.96851 1.764 9.77251C1.764 9.63251 1.78733 9.48784 1.834 9.33851C1.89 9.18918 1.97867 9.04918 2.1 8.91851C2.44533 8.84384 2.884 8.77851 3.416 8.72251C3.95733 8.65718 4.51733 8.60118 5.096 8.55451C5.684 8.50784 6.25333 8.47051 6.804 8.44251C7.364 8.41451 7.83533 8.39118 8.218 8.37251C8.39533 8.43784 8.54467 8.52651 8.666 8.63851C8.79667 8.74118 8.89933 8.88584 8.974 9.07251C9.01133 9.39918 9.03933 9.79584 9.058 10.2625C9.07667 10.7198 9.086 11.2612 9.086 11.8865C9.09533 12.5118 9.1 13.2212 9.1 14.0145C9.1 14.8078 9.09533 15.6945 9.086 16.6745C9.34733 16.6278 9.618 16.6325 9.898 16.6885C10.178 16.7352 10.4627 16.8145 10.752 16.9265C10.752 17.1132 10.7473 17.3465 10.738 17.6265C10.7287 17.9065 10.7147 18.2005 10.696 18.5085C10.6867 18.8165 10.6773 19.1198 10.668 19.4185C10.668 19.7265 10.6727 19.9972 10.682 20.2305C10.57 20.4172 10.4533 20.5572 10.332 20.6505C10.2107 20.7438 10.0753 20.8092 9.926 20.8465C9.786 20.8932 9.632 20.9165 9.464 20.9165C9.296 20.9258 9.11867 20.9305 8.932 20.9305C8.82933 20.8185 8.74533 20.6692 8.68 20.4825C8.624 20.2958 8.582 20.0998 8.554 19.8945C8.526 19.6985 8.512 19.5025 8.512 19.3065C8.512 19.1105 8.52133 18.9425 8.54 18.8025C8.21333 18.8212 7.85867 18.8398 7.476 18.8585C7.10267 18.8772 6.67333 18.9005 6.188 18.9285C5.712 18.9565 5.17067 18.9892 4.564 19.0265C3.95733 19.0545 3.262 19.0872 2.478 19.1245C2.49667 19.3112 2.51533 19.5258 2.534 19.7685C2.562 20.0205 2.58067 20.2398 2.59 20.4265C2.534 20.5572 2.42667 20.6692 2.268 20.7625C2.10933 20.8558 1.932 20.9352 1.736 21.0005C1.54933 21.0752 1.35333 21.1265 1.148 21.1545C0.952 21.1918 0.779333 21.2105 0.63 21.2105C0.471333 20.5105 0.368667 19.8478 0.322 19.2225C0.275333 18.5972 0.317333 17.9625 0.448 17.3185ZM6.916 16.8285C6.944 16.4552 6.96267 15.9885 6.972 15.4285C6.99067 14.8685 7.00467 14.2852 7.014 13.6785C7.02333 13.0718 7.01867 12.4838 7 11.9145C6.99067 11.3452 6.972 10.8692 6.944 10.4865C6.776 10.4958 6.58933 10.5052 6.384 10.5145C6.188 10.5238 5.992 10.5332 5.796 10.5425C5.60933 10.5518 5.44133 10.5658 5.292 10.5845C5.14267 10.5938 5.03067 10.6032 4.956 10.6125C4.9 12.1525 4.78333 13.4545 4.606 14.5185C4.438 15.5732 4.228 16.4085 3.976 17.0245L6.916 16.8285ZM11.695 18.8305C11.6764 18.7465 11.7137 18.5552 11.807 18.2565C11.9004 17.9485 12.0264 17.5752 12.185 17.1365C12.3437 16.6885 12.5304 16.1938 12.745 15.6525C12.969 15.1018 13.2024 14.5465 13.445 13.9865C13.6877 13.4172 13.9304 12.8665 14.173 12.3345C14.4157 11.7932 14.6444 11.3032 14.859 10.8645C14.859 10.8552 14.8544 10.8505 14.845 10.8505C14.8357 10.8412 14.831 10.8318 14.831 10.8225C14.7844 10.7292 14.733 10.6358 14.677 10.5425C14.6304 10.4492 14.5697 10.3092 14.495 10.1225C14.6537 9.75851 14.8404 9.47384 15.055 9.26851C15.2697 9.05384 15.5637 8.93251 15.937 8.90451C16.1424 8.96051 16.3664 9.12384 16.609 9.39451C16.8517 9.66518 17.0944 10.0012 17.337 10.4025C17.589 10.8038 17.841 11.2565 18.093 11.7605C18.345 12.2645 18.5877 12.7825 18.821 13.3145C19.0637 13.8465 19.2924 14.3785 19.507 14.9105C19.7217 15.4332 19.913 15.9185 20.081 16.3665C20.2584 16.8145 20.403 17.2065 20.515 17.5425C20.6364 17.8692 20.725 18.1072 20.781 18.2565C20.725 18.3872 20.627 18.5178 20.487 18.6485C20.3564 18.7698 20.2024 18.8818 20.025 18.9845C19.857 19.0778 19.6797 19.1478 19.493 19.1945C19.3157 19.2505 19.157 19.2645 19.017 19.2365C18.8397 18.8912 18.681 18.5552 18.541 18.2285C18.4104 17.9018 18.289 17.6125 18.177 17.3605V17.3045C17.5704 17.3792 16.917 17.4585 16.217 17.5425C15.5264 17.6172 14.8684 17.6918 14.243 17.7665C14.2244 17.7852 14.2057 17.8132 14.187 17.8505C14.1777 17.8785 14.1544 17.9345 14.117 18.0185C14.089 18.1025 14.0424 18.2238 13.977 18.3825C13.9117 18.5412 13.823 18.7605 13.711 19.0405C13.6457 19.1712 13.5384 19.2692 13.389 19.3345C13.2397 19.4092 13.0717 19.4465 12.885 19.4465C12.7077 19.4465 12.5164 19.4092 12.311 19.3345C12.115 19.2692 11.9424 19.1665 11.793 19.0265L11.695 18.8305ZM17.449 15.3725C17.3744 15.1672 17.2857 14.9432 17.183 14.7005C17.0897 14.4578 16.987 14.2152 16.875 13.9725C16.763 13.7298 16.651 13.4965 16.539 13.2725C16.4364 13.0392 16.3384 12.8292 16.245 12.6425C16.217 12.7078 16.1844 12.7918 16.147 12.8945C16.1097 12.9878 16.0444 13.1418 15.951 13.3565C15.8577 13.5712 15.7317 13.8698 15.573 14.2525C15.4144 14.6258 15.2044 15.1252 14.943 15.7505L17.449 15.3725ZM21.403 17.8505C21.487 17.7852 21.5897 17.6872 21.711 17.5565C21.8417 17.4258 21.9724 17.2765 22.103 17.1085C22.243 16.9405 22.3784 16.7632 22.509 16.5765C22.6397 16.3805 22.7517 16.1798 22.845 15.9745C23.0597 15.4985 23.2277 15.0318 23.349 14.5745C23.4797 14.1172 23.5777 13.6692 23.643 13.2305C23.7084 12.7918 23.7457 12.3672 23.755 11.9565C23.7644 11.5458 23.7597 11.1492 23.741 10.7665C23.573 10.7572 23.419 10.7198 23.279 10.6545C23.139 10.5892 23.0177 10.5098 22.915 10.4165C22.8124 10.3138 22.733 10.2065 22.677 10.0945C22.621 9.97318 22.593 9.85184 22.593 9.73051C22.593 9.61851 22.6164 9.48318 22.663 9.32451C22.719 9.15651 22.7797 9.00718 22.845 8.87651C23.2277 8.82984 23.699 8.78318 24.259 8.73651C24.819 8.68051 25.3884 8.62918 25.967 8.58251C26.555 8.53584 27.115 8.49851 27.647 8.47051C28.1884 8.44251 28.6317 8.42384 28.977 8.41451C29.1637 8.41451 29.355 8.48451 29.551 8.62451C29.747 8.75518 29.8824 8.90918 29.957 9.08651C30.0224 9.68384 30.0644 10.3932 30.083 11.2145C30.111 12.0358 30.125 12.8852 30.125 13.7625C30.125 14.6398 30.125 15.5032 30.125 16.3525C30.125 17.1925 30.139 17.9392 30.167 18.5925C30.0924 18.8072 29.9337 18.9798 29.691 19.1105C29.4577 19.2412 29.2244 19.3065 28.991 19.3065C28.7577 19.3065 28.5337 19.2505 28.319 19.1385C28.1137 19.0358 27.9737 18.8678 27.899 18.6345C27.899 18.4012 27.899 18.0838 27.899 17.6825C27.9084 17.2812 27.9177 16.8332 27.927 16.3385C27.9364 15.8345 27.9457 15.3072 27.955 14.7565C27.9737 14.1965 27.983 13.6552 27.983 13.1325C27.9924 12.6005 27.997 12.1058 27.997 11.6485C27.997 11.1818 27.9924 10.7945 27.983 10.4865C27.5817 10.4958 27.1757 10.5098 26.765 10.5285C26.3544 10.5378 26.023 10.5565 25.771 10.5845C25.771 10.8925 25.7664 11.2798 25.757 11.7465C25.7477 12.2038 25.715 12.6985 25.659 13.2305C25.603 13.7532 25.519 14.2992 25.407 14.8685C25.295 15.4285 25.141 15.9698 24.945 16.4925C24.8237 16.8098 24.6744 17.1318 24.497 17.4585C24.3197 17.7852 24.133 18.0885 23.937 18.3685C23.741 18.6485 23.5357 18.8865 23.321 19.0825C23.1157 19.2785 22.9244 19.4045 22.747 19.4605C22.2524 19.3952 21.907 19.2412 21.711 18.9985C21.515 18.7558 21.4124 18.3732 21.403 17.8505ZM32.3485 14.9945C32.2459 14.8918 32.1712 14.7752 32.1245 14.6445C32.0779 14.5138 32.0545 14.3738 32.0545 14.2245C32.0545 14.0658 32.0825 13.9118 32.1385 13.7625C32.1945 13.6132 32.2692 13.4872 32.3625 13.3845C32.3719 13.0672 32.3812 12.7965 32.3905 12.5725C32.3999 12.3392 32.4092 12.1432 32.4185 11.9845C32.4279 11.8165 32.4325 11.6765 32.4325 11.5645C32.4325 11.4432 32.4325 11.3358 32.4325 11.2425C32.2459 11.0838 32.1105 10.8925 32.0265 10.6685C31.9425 10.4445 31.9005 10.1972 31.9005 9.92651C32.1152 9.74918 32.3065 9.60918 32.4745 9.50651C32.6519 9.40384 32.8759 9.28718 33.1465 9.15651C33.4079 9.14718 33.7299 9.12851 34.1125 9.10051C34.4952 9.07251 34.9059 9.04918 35.3445 9.03051C35.7832 9.00251 36.2265 8.97918 36.6745 8.96051C37.1225 8.93251 37.5379 8.91384 37.9205 8.90451C38.3125 8.88584 38.6485 8.87651 38.9285 8.87651C39.2179 8.87651 39.4185 8.89051 39.5305 8.91851C39.6332 9.05851 39.7032 9.20318 39.7405 9.35251C39.7872 9.49251 39.8105 9.62784 39.8105 9.75851C39.8105 9.97318 39.7545 10.1785 39.6425 10.3745C39.5399 10.5705 39.3905 10.7058 39.1945 10.7805C38.8679 10.8458 38.5039 10.8972 38.1025 10.9345C37.7105 10.9625 37.3045 10.9905 36.8845 11.0185C36.4739 11.0465 36.0679 11.0745 35.6665 11.1025C35.2652 11.1305 34.9012 11.1632 34.5745 11.2005C34.5652 11.4712 34.5559 11.7652 34.5465 12.0825C34.5465 12.3905 34.5559 12.6798 34.5745 12.9505C34.8079 12.9412 35.0972 12.9272 35.4425 12.9085C35.7879 12.8805 36.1565 12.8525 36.5485 12.8245C36.9405 12.7872 37.3372 12.7498 37.7385 12.7125C38.1399 12.6752 38.5179 12.6332 38.8725 12.5865C39.0592 12.7078 39.1899 12.8572 39.2645 13.0345C39.3485 13.2025 39.3905 13.3658 39.3905 13.5245C39.3905 13.7485 39.3345 13.9678 39.2225 14.1825C39.1199 14.3972 38.9659 14.5512 38.7605 14.6445C38.3125 14.7005 37.8132 14.7518 37.2625 14.7985C36.7119 14.8358 36.1892 14.8685 35.6945 14.8965C35.4145 14.9152 35.1859 14.9292 35.0085 14.9385C34.8405 14.9385 34.6632 14.9478 34.4765 14.9665C34.4579 15.2652 34.4392 15.6152 34.4205 16.0165C34.4112 16.4085 34.4065 16.8565 34.4065 17.3605C34.7239 17.3418 35.0739 17.3138 35.4565 17.2765C35.8485 17.2392 36.2452 17.1878 36.6465 17.1225C37.0572 17.0572 37.4679 16.9825 37.8785 16.8985C38.2985 16.8145 38.6999 16.7165 39.0825 16.6045C39.3812 16.6232 39.6005 16.7398 39.7405 16.9545C39.8899 17.1692 39.9645 17.4212 39.9645 17.7105C39.9645 17.7945 39.9505 17.8972 39.9225 18.0185C39.9039 18.1398 39.8619 18.2798 39.7965 18.4385C39.3392 18.6532 38.8445 18.8258 38.3125 18.9565C37.7899 19.0872 37.2485 19.1852 36.6885 19.2505C36.1379 19.3252 35.5825 19.3765 35.0225 19.4045C34.4719 19.4418 33.9445 19.4698 33.4405 19.4885C33.3005 19.4325 33.1745 19.3765 33.0625 19.3205C32.9599 19.2645 32.8619 19.1992 32.7685 19.1245C32.6845 19.0498 32.6005 18.9658 32.5165 18.8725C32.4325 18.7698 32.3392 18.6438 32.2365 18.4945L32.3485 14.9945ZM41.9872 14.9945C41.8845 14.8918 41.8099 14.7752 41.7632 14.6445C41.7165 14.5138 41.6932 14.3738 41.6932 14.2245C41.6932 14.0658 41.7212 13.9118 41.7772 13.7625C41.8332 13.6132 41.9079 13.4872 42.0012 13.3845C42.0105 13.0672 42.0199 12.7965 42.0292 12.5725C42.0385 12.3392 42.0479 12.1432 42.0572 11.9845C42.0665 11.8165 42.0712 11.6765 42.0712 11.5645C42.0712 11.4432 42.0712 11.3358 42.0712 11.2425C41.8845 11.0838 41.7492 10.8925 41.6652 10.6685C41.5812 10.4445 41.5392 10.1972 41.5392 9.92651C41.7539 9.74918 41.9452 9.60918 42.1132 9.50651C42.2905 9.40384 42.5145 9.28718 42.7852 9.15651C43.0465 9.14718 43.3685 9.12851 43.7512 9.10051C44.1339 9.07251 44.5445 9.04918 44.9832 9.03051C45.4219 9.00251 45.8652 8.97918 46.3132 8.96051C46.7612 8.93251 47.1765 8.91384 47.5592 8.90451C47.9512 8.88584 48.2872 8.87651 48.5672 8.87651C48.8565 8.87651 49.0572 8.89051 49.1692 8.91851C49.2719 9.05851 49.3419 9.20318 49.3792 9.35251C49.4259 9.49251 49.4492 9.62784 49.4492 9.75851C49.4492 9.97318 49.3932 10.1785 49.2812 10.3745C49.1785 10.5705 49.0292 10.7058 48.8332 10.7805C48.5065 10.8458 48.1425 10.8972 47.7412 10.9345C47.3492 10.9625 46.9432 10.9905 46.5232 11.0185C46.1125 11.0465 45.7065 11.0745 45.3052 11.1025C44.9039 11.1305 44.5399 11.1632 44.2132 11.2005C44.2039 11.4712 44.1945 11.7652 44.1852 12.0825C44.1852 12.3905 44.1945 12.6798 44.2132 12.9505C44.4465 12.9412 44.7359 12.9272 45.0812 12.9085C45.4265 12.8805 45.7952 12.8525 46.1872 12.8245C46.5792 12.7872 46.9759 12.7498 47.3772 12.7125C47.7785 12.6752 48.1565 12.6332 48.5112 12.5865C48.6979 12.7078 48.8285 12.8572 48.9032 13.0345C48.9872 13.2025 49.0292 13.3658 49.0292 13.5245C49.0292 13.7485 48.9732 13.9678 48.8612 14.1825C48.7585 14.3972 48.6045 14.5512 48.3992 14.6445C47.9512 14.7005 47.4519 14.7518 46.9012 14.7985C46.3505 14.8358 45.8279 14.8685 45.3332 14.8965C45.0532 14.9152 44.8245 14.9292 44.6472 14.9385C44.4792 14.9385 44.3019 14.9478 44.1152 14.9665C44.0965 15.2652 44.0779 15.6152 44.0592 16.0165C44.0499 16.4085 44.0452 16.8565 44.0452 17.3605C44.3625 17.3418 44.7125 17.3138 45.0952 17.2765C45.4872 17.2392 45.8839 17.1878 46.2852 17.1225C46.6959 17.0572 47.1065 16.9825 47.5172 16.8985C47.9372 16.8145 48.3385 16.7165 48.7212 16.6045C49.0199 16.6232 49.2392 16.7398 49.3792 16.9545C49.5285 17.1692 49.6032 17.4212 49.6032 17.7105C49.6032 17.7945 49.5892 17.8972 49.5612 18.0185C49.5425 18.1398 49.5005 18.2798 49.4352 18.4385C48.9779 18.6532 48.4832 18.8258 47.9512 18.9565C47.4285 19.0872 46.8872 19.1852 46.3272 19.2505C45.7765 19.3252 45.2212 19.3765 44.6612 19.4045C44.1105 19.4418 43.5832 19.4698 43.0792 19.4885C42.9392 19.4325 42.8132 19.3765 42.7012 19.3205C42.5985 19.2645 42.5005 19.1992 42.4072 19.1245C42.3232 19.0498 42.2392 18.9658 42.1552 18.8725C42.0712 18.7698 41.9779 18.6438 41.8752 18.4945L41.9872 14.9945Z" fill="#212121"/>
</svg>
