<svg width="192" height="70" viewBox="0 0 96 35" fill="none" xmlns="http://www.w3.org/2000/svg">
<rect x="1.46771" y="1.99719" width="94" height="28" rx="14" transform="rotate(3.00478 1.46771 1.99719)" fill="#125100"/>
<rect x="2.04567" y="0.525522" width="93" height="27" rx="13.5" transform="rotate(3.00478 2.04567 0.525522)" fill="#48AB53" stroke="#125100"/>
<path fill-rule="evenodd" clip-rule="evenodd" d="M75.9667 22.6473C75.7296 22.3566 75.3398 21.6239 75.6592 21.413C75.6592 21.413 76.5266 20.6208 77.4587 20.0054C78.3907 19.3899 79.8317 18.6279 79.8317 18.6279C79.8317 18.6279 78.3077 17.5745 77.6223 16.8875C76.937 16.2004 76.3322 15.6834 76.3322 15.6834C76.0366 15.4402 76.1293 14.9689 76.3974 14.4407C76.6636 14.1764 76.7957 13.8044 77.0913 14.0476C77.0913 14.0476 79.4019 16.1151 80.3921 16.9298C81.3824 17.7445 81.7797 17.9829 81.7797 17.9829C81.9402 18.115 82.7114 18.5574 82.7011 18.7522C82.6909 18.9469 82.2832 19.1105 82.1097 19.225C82.1097 19.225 80.2451 20.3731 79.175 21.0796C78.1049 21.7862 76.6295 22.8436 76.6295 22.8436C76.3101 23.0545 76.2037 22.9381 75.9667 22.6473Z" fill="white"/>
<path d="M18.6696 18.5026C18.7825 18.4498 18.9199 18.4203 19.0818 18.4141C19.244 18.4006 19.4134 18.3911 19.59 18.3857C19.7229 18.2311 19.8435 18.0318 19.9518 17.7878C20.0601 17.5438 20.1585 17.2773 20.2471 16.9882C20.3434 16.6922 20.4257 16.3844 20.4939 16.0649C20.5624 15.738 20.6231 15.4218 20.6758 15.1161C20.729 14.8031 20.7737 14.5117 20.8099 14.2419C20.846 13.9721 20.8767 13.7387 20.9017 13.5418C20.85 13.5464 20.7691 13.5495 20.6589 13.5511C20.5486 13.5526 20.4789 13.5526 20.4496 13.5511C20.2877 13.4178 20.1705 13.2721 20.098 13.1141C20.0332 12.9491 20.0049 12.7897 20.0129 12.636C20.0187 12.5261 20.043 12.4136 20.0857 12.2983C20.1358 12.1834 20.2112 12.0772 20.3118 11.9797C20.5858 11.9354 20.9327 11.9022 21.3524 11.8801C21.7798 11.8512 22.2215 11.8303 22.6775 11.8175C23.1408 11.8051 23.589 11.7993 24.0223 11.8C24.4628 11.8011 24.8336 11.8022 25.1346 11.8033C25.2711 11.8619 25.3846 11.9376 25.4752 12.0305C25.5735 12.1164 25.6481 12.2341 25.699 12.3837C25.7148 12.6415 25.7205 12.9539 25.7159 13.3208C25.7117 13.6804 25.6967 14.1056 25.671 14.5962C25.6525 15.0873 25.627 15.644 25.5943 16.2665C25.5616 16.889 25.5214 17.5845 25.4738 18.3531C25.6807 18.3272 25.8929 18.342 26.1103 18.3975C26.3281 18.4456 26.5482 18.5196 26.7706 18.6194C26.7629 18.7659 26.7496 18.9488 26.7308 19.1681C26.7119 19.3874 26.6888 19.6175 26.6615 19.8584C26.6415 20.0997 26.6217 20.3373 26.602 20.5713C26.5893 20.8129 26.5819 21.0255 26.5796 21.209C26.484 21.3508 26.3867 21.4559 26.2877 21.5241C26.1886 21.5923 26.0797 21.638 25.961 21.6612C25.8493 21.692 25.7275 21.704 25.5956 21.6971C25.4634 21.6975 25.3241 21.6938 25.1776 21.6861C25.1017 21.594 25.0419 21.4734 24.9984 21.3242C24.9621 21.1755 24.9372 21.0199 24.9237 20.8577C24.9098 20.7027 24.9069 20.5484 24.915 20.3946C24.923 20.2408 24.9373 20.1094 24.9577 20.0003C24.7006 20.0015 24.4216 20.0015 24.1205 20.0004C23.8268 19.9997 23.489 20.0003 23.1071 20.0023C22.7324 20.0046 22.3063 20.008 21.8288 20.0123C21.3516 20.0093 20.8047 20.0063 20.188 20.0033C20.1949 20.1505 20.2008 20.3197 20.2054 20.5109C20.217 20.7098 20.2226 20.8826 20.2222 21.0295C20.1729 21.1297 20.0841 21.2131 19.9558 21.2798C19.8274 21.3465 19.685 21.4015 19.5285 21.4447C19.379 21.4956 19.2231 21.5278 19.0608 21.5413C18.9055 21.5625 18.7692 21.57 18.6521 21.5639C18.5564 21.0081 18.5031 20.4839 18.4923 19.9914C18.4814 19.4988 18.5405 19.0025 18.6696 18.5026ZM23.7648 18.3845C23.8021 18.0928 23.836 17.7274 23.8664 17.2883C23.9041 16.8497 23.9391 16.3926 23.9714 15.917C24.0037 15.4413 24.0243 14.9798 24.0331 14.5323C24.0492 14.0852 24.0541 13.7109 24.0479 13.4095C23.9157 13.4099 23.7689 13.4096 23.6074 13.4084C23.4532 13.4077 23.299 13.4069 23.1449 13.4062C22.998 13.4058 22.8656 13.4099 22.7477 13.4184C22.6301 13.4196 22.5419 13.4223 22.4829 13.4265C22.3755 14.6325 22.2304 15.6493 22.0474 16.4769C21.8721 17.2975 21.673 17.9443 21.4499 18.4172L23.7648 18.3845ZM27.4321 20.1522C27.4209 20.0855 27.4581 19.9369 27.5436 19.7064C27.6295 19.4686 27.7438 19.1809 27.8863 18.8432C28.0293 18.4982 28.1961 18.1178 28.3869 17.7019C28.5853 17.279 28.7912 16.8529 29.0047 16.4235C29.2186 15.9868 29.4317 15.5647 29.644 15.1573C29.8567 14.7425 30.0563 14.3675 30.2428 14.0321C30.2432 14.0248 30.2397 14.0209 30.2324 14.0206C30.2254 14.0128 30.2221 14.0053 30.2225 13.998C30.1898 13.9229 30.1533 13.8475 30.1132 13.772C30.0805 13.6968 30.0386 13.5845 29.9877 13.4349C30.1272 13.1559 30.2854 12.9402 30.4623 12.7879C30.6396 12.6283 30.8752 12.5452 31.1693 12.5386C31.3281 12.591 31.4972 12.7284 31.6764 12.9508C31.8557 13.1731 32.0322 13.4468 32.2061 13.7717C32.3873 14.097 32.5664 14.4625 32.7434 14.8683C32.9203 15.2742 33.0894 15.6906 33.2506 16.1177C33.4191 16.5451 33.5766 16.9719 33.7231 17.3982C33.87 17.8171 34.0002 18.2058 34.1135 18.5642C34.2342 18.9231 34.3316 19.2366 34.4056 19.5049C34.4874 19.7662 34.5471 19.9566 34.5849 20.076C34.5356 20.1763 34.4533 20.2747 34.3381 20.3715C34.2306 20.4613 34.1051 20.5429 33.9618 20.6161C33.8261 20.6824 33.6841 20.73 33.5357 20.759C33.3942 20.7956 33.2692 20.8001 33.1605 20.7723C33.0355 20.4941 32.9249 20.2239 32.8285 19.9618C32.7394 19.7001 32.6561 19.4681 32.5786 19.2658L32.5809 19.2218C32.1019 19.2554 31.586 19.2908 31.0333 19.3278C30.4883 19.358 29.9689 19.3895 29.4752 19.4223C29.4598 19.4362 29.444 19.4574 29.4278 19.4859C29.4193 19.5075 29.3987 19.5505 29.3659 19.6148C29.3405 19.6796 29.2989 19.7729 29.2411 19.8947C29.1833 20.0165 29.1047 20.1849 29.0053 20.4C28.9486 20.4998 28.8604 20.5723 28.7405 20.6174C28.6203 20.6699 28.4869 20.6922 28.3404 20.6845C28.2013 20.6772 28.0527 20.6401 27.8947 20.573C27.7436 20.5137 27.6123 20.426 27.5009 20.31L27.4321 20.1522ZM32.0893 17.6759C32.0392 17.5117 31.9788 17.3323 31.9083 17.1377C31.845 16.9434 31.7745 16.7488 31.6966 16.5538C31.6187 16.3588 31.5404 16.1711 31.4618 15.9907C31.3908 15.8034 31.3226 15.6346 31.257 15.4843C31.2324 15.5344 31.2033 15.599 31.1698 15.678C31.1366 15.7497 31.079 15.8678 30.997 16.0324C30.9149 16.197 30.8037 16.4261 30.6635 16.7199C30.5236 17.0063 30.3382 17.3894 30.1074 17.8693L32.0893 17.6759ZM35.0897 19.7831C35.1583 19.7353 35.2429 19.6626 35.3435 19.5651C35.4514 19.468 35.5601 19.3562 35.6695 19.2297C35.7863 19.1037 35.8998 18.9701 36.01 18.829C36.1206 18.6806 36.2167 18.5278 36.2984 18.3705C36.4864 18.0059 36.6375 17.6466 36.7515 17.2928C36.8729 16.9393 36.9682 16.5918 37.0376 16.2503C37.1069 15.9088 37.1537 15.5772 37.1779 15.2553C37.2021 14.9335 37.2148 14.6221 37.2159 14.321C37.0845 14.3068 36.9652 14.2712 36.8581 14.2141C36.7509 14.1571 36.659 14.0899 36.5822 14.0124C36.5059 13.9276 36.4481 13.8401 36.4088 13.7499C36.3698 13.6524 36.3529 13.5561 36.3578 13.4609C36.3625 13.373 36.3863 13.2678 36.4295 13.1452C36.4804 13.0157 36.5341 12.901 36.5908 12.8012C36.8929 12.7803 37.2647 12.7631 37.706 12.7496C38.1477 12.7287 38.5965 12.7119 39.0525 12.6991C39.5158 12.6867 39.9567 12.6805 40.3753 12.6804C40.8012 12.6807 41.1498 12.6843 41.4212 12.6912C41.5676 12.6989 41.7149 12.7617 41.8629 12.8797C42.0113 12.9902 42.1111 13.1167 42.1624 13.2589C42.1891 13.7303 42.1928 14.2885 42.1736 14.9338C42.1618 15.5794 42.1378 16.2464 42.1016 16.9347C42.0655 17.6231 42.03 18.3005 41.995 18.9669C41.9604 19.626 41.9406 20.2125 41.9357 20.7263C41.8682 20.8916 41.7366 21.0206 41.5409 21.1131C41.3524 21.206 41.1666 21.2477 40.9835 21.238C40.8005 21.2284 40.627 21.1753 40.4632 21.0786C40.3063 20.9895 40.2034 20.852 40.1544 20.6658C40.164 20.4827 40.1771 20.2337 40.1936 19.9188C40.2175 19.6043 40.2432 19.2532 40.2709 18.8654C40.299 18.4704 40.328 18.057 40.3581 17.6253C40.3958 17.1867 40.4254 16.7623 40.4469 16.3522C40.4761 15.9352 40.5002 15.5472 40.519 15.1884C40.5382 14.8222 40.5505 14.5181 40.5559 14.2761C40.2406 14.2669 39.9215 14.2611 39.5985 14.2588C39.2759 14.2493 39.0151 14.2503 38.8162 14.2618C38.8036 14.5035 38.7839 14.8072 38.7574 15.173C38.7312 15.5315 38.6852 15.9183 38.6194 16.3334C38.5539 16.7412 38.4655 17.1661 38.3542 17.6082C38.2432 18.043 38.1001 18.4614 37.9248 18.8634C37.8165 19.1074 37.6861 19.3539 37.5335 19.603C37.3809 19.852 37.2219 20.0823 37.0566 20.2939C36.8913 20.5055 36.7204 20.6838 36.5439 20.8288C36.3747 20.9741 36.2194 21.0651 36.0779 21.1017C35.6925 21.0301 35.4279 20.895 35.2841 20.6965C35.1403 20.4981 35.0755 20.1936 35.0897 19.7831ZM43.7955 17.993C43.7192 17.9082 43.6654 17.8136 43.6342 17.7091C43.603 17.6047 43.5904 17.4939 43.5966 17.3767C43.6031 17.2522 43.6314 17.1325 43.6815 17.0177C43.7316 16.9028 43.7954 16.807 43.8728 16.7303C43.8932 16.4817 43.9117 16.2697 43.9282 16.0943C43.9452 15.9116 43.9606 15.7582 43.9744 15.6341C43.9887 15.5027 43.9981 15.393 44.0027 15.3052C44.0077 15.21 44.0121 15.1257 44.016 15.0525C43.876 14.9203 43.7777 14.7646 43.721 14.5854C43.6644 14.4062 43.6416 14.2104 43.6527 13.998C43.8285 13.8677 43.9844 13.7657 44.1204 13.6921C44.2638 13.6189 44.4444 13.5365 44.6621 13.4452C44.8675 13.4486 45.121 13.4472 45.4224 13.441C45.7238 13.4348 46.047 13.4334 46.3919 13.4368C46.7373 13.4329 47.0861 13.4329 47.4384 13.4367C47.791 13.4332 48.1177 13.4356 48.4183 13.4441C48.7267 13.4456 48.9907 13.4521 49.2104 13.4636C49.4374 13.4755 49.5943 13.4948 49.681 13.5214C49.7558 13.6354 49.8048 13.7518 49.8279 13.8705C49.8588 13.9823 49.8715 14.0895 49.8661 14.192C49.8573 14.3604 49.8049 14.5192 49.7089 14.6684C49.6203 14.818 49.4976 14.918 49.3407 14.9685C49.0817 15.0063 48.794 15.0316 48.4775 15.0444C48.1688 15.0502 47.8491 15.0554 47.5184 15.0601C47.195 15.0652 46.8753 15.0704 46.5592 15.0759C46.2432 15.0813 45.9562 15.0919 45.6984 15.1078C45.6799 15.3198 45.6605 15.5501 45.6401 15.7987C45.6274 16.0403 45.6228 16.2677 45.6263 16.4809C45.8098 16.4832 46.0374 16.4841 46.3091 16.4837C46.5812 16.4759 46.8716 16.4691 47.1804 16.4633C47.4895 16.4502 47.8023 16.4372 48.1187 16.4244C48.4351 16.4117 48.7335 16.3943 49.0137 16.3723C49.1551 16.4752 49.2515 16.5977 49.3028 16.74C49.3618 16.8752 49.388 17.0051 49.3815 17.1296C49.3722 17.3054 49.3193 17.4752 49.2225 17.639C49.1331 17.8032 49.006 17.9177 48.841 17.9825C48.4872 18.0079 48.0933 18.0277 47.6593 18.0416C47.2257 18.0482 46.8142 18.0523 46.4249 18.0539C46.2045 18.057 46.0245 18.0586 45.885 18.0586C45.7531 18.0517 45.6136 18.0517 45.4664 18.0587C45.4394 18.2922 45.4104 18.5661 45.3792 18.8802C45.3557 19.1874 45.3336 19.5387 45.3129 19.9342C45.5626 19.9326 45.8384 19.9251 46.1402 19.9115C46.4493 19.8984 46.7626 19.8744 47.0802 19.8397C47.4052 19.8054 47.7305 19.7637 48.0561 19.7147C48.3891 19.6661 48.7081 19.6057 49.0129 19.5336C49.2465 19.5605 49.4138 19.6611 49.5148 19.8353C49.6231 20.0099 49.6714 20.2107 49.6594 20.4377C49.656 20.5036 49.6408 20.5836 49.6138 20.6777C49.5942 20.7721 49.5554 20.8802 49.4976 21.002C49.13 21.1516 48.7347 21.2667 48.3119 21.3473C47.8964 21.4283 47.4676 21.4829 47.0255 21.5111C46.5904 21.547 46.1526 21.5645 45.712 21.5634C45.2784 21.57 44.8635 21.5702 44.4673 21.5641C44.3597 21.5144 44.2632 21.4653 44.1776 21.4167C44.0993 21.3686 44.0251 21.3133 43.955 21.2508C43.8921 21.1888 43.8297 21.1194 43.7676 21.0427C43.7059 20.9587 43.6379 20.856 43.5635 20.7346L43.7955 17.993ZM51.3584 18.39C51.282 18.3052 51.2282 18.2106 51.197 18.1061C51.1658 18.0017 51.1532 17.8909 51.1594 17.7737C51.1659 17.6492 51.1942 17.5295 51.2443 17.4147C51.2944 17.2998 51.3582 17.204 51.4357 17.1273C51.456 16.8787 51.4745 16.6667 51.4911 16.4913C51.508 16.3086 51.5234 16.1552 51.5373 16.0311C51.5515 15.8997 51.5609 15.79 51.5655 15.7021C51.5705 15.6069 51.575 15.5227 51.5788 15.4495C51.4389 15.3173 51.3406 15.1616 51.2839 14.9824C51.2272 14.8032 51.2044 14.6074 51.2156 14.395C51.3913 14.2647 51.5472 14.1627 51.6833 14.0891C51.8266 14.0158 52.0072 13.9335 52.2249 13.8421C52.4304 13.8456 52.6838 13.8442 52.9852 13.838C53.2866 13.8318 53.6098 13.8304 53.9548 13.8338C54.3001 13.8299 54.6489 13.8299 55.0012 13.8337C55.3539 13.8301 55.6805 13.8326 55.9812 13.841C56.2895 13.8425 56.5535 13.8491 56.7732 13.8606C57.0003 13.8725 57.1571 13.8918 57.2439 13.9183C57.3186 14.0324 57.3676 14.1488 57.3907 14.2675C57.4216 14.3793 57.4343 14.4864 57.429 14.589C57.4201 14.7574 57.3677 14.9162 57.2718 15.0654C57.1831 15.2149 57.0604 15.315 56.9035 15.3655C56.6445 15.4033 56.3568 15.4286 56.0404 15.4413C55.7316 15.4472 55.4119 15.4524 55.0812 15.4571C54.7578 15.4621 54.4381 15.4674 54.1221 15.4728C53.806 15.4783 53.5191 15.4889 53.2612 15.5048C53.2427 15.7167 53.2233 15.947 53.2029 16.1956C53.1902 16.4373 53.1856 16.6647 53.1891 16.8779C53.3726 16.8801 53.6002 16.8811 53.8719 16.8807C54.144 16.8729 54.4345 16.8661 54.7432 16.8603C55.0523 16.8472 55.3651 16.8342 55.6815 16.8214C55.998 16.8087 56.2963 16.7913 56.5765 16.7693C56.718 16.8722 56.8143 16.9947 56.8656 17.1369C56.9246 17.2722 56.9508 17.4021 56.9443 17.5266C56.9351 17.7024 56.8821 17.8721 56.7854 18.036C56.696 18.2002 56.5688 18.3147 56.4038 18.3794C56.05 18.4049 55.6561 18.4246 55.2221 18.4386C54.7885 18.4452 54.3771 18.4493 53.9878 18.4509C53.7673 18.454 53.5873 18.4556 53.4478 18.4556C53.316 18.4487 53.1764 18.4487 53.0292 18.4556C53.0023 18.6892 52.9732 18.9631 52.942 19.2772C52.9186 19.5844 52.8964 19.9357 52.8757 20.3312C53.1254 20.3296 53.4012 20.322 53.703 20.3085C54.0121 20.2954 54.3255 20.2714 54.6431 20.2367C54.968 20.2023 55.2933 20.1607 55.619 20.1117C55.952 20.0631 56.2709 20.0027 56.5758 19.9306C56.8093 19.9575 56.9766 20.0581 57.0776 20.2323C57.186 20.4069 57.2342 20.6077 57.2223 20.8347C57.2188 20.9006 57.2036 20.9806 57.1766 21.0747C57.157 21.1691 57.1183 21.2772 57.0605 21.399C56.6928 21.5486 56.2975 21.6637 55.8747 21.7443C55.4593 21.8253 55.0305 21.8799 54.5884 21.9081C54.1532 21.944 53.7154 21.9614 53.2748 21.9603C52.8412 21.967 52.4263 21.9672 52.0301 21.9611C51.9225 21.9114 51.826 21.8623 51.7404 21.8137C51.6622 21.7655 51.588 21.7102 51.5178 21.6478C51.455 21.5858 51.3925 21.5164 51.3305 21.4397C51.2688 21.3557 51.2007 21.253 51.1263 21.1316L51.3584 18.39Z" fill="white"/>
</svg>
