<svg width="720" height="530" viewBox="0 0 719 528" fill="none" xmlns="http://www.w3.org/2000/svg">
<path d="M476.21 302.924L517 307.674C517 307.674 555 311.424 562.5 310.674C570 309.924 570.75 311.424 585.75 305.674C600.75 299.924 630.75 287.424 630.75 287.424L671.5 268.424C671.5 268.424 669.75 260.174 668 257.424C666.25 254.674 661 245.674 658 245.924C655 246.174 626.75 258.924 626.75 258.924L568.75 281.174L524.5 278.424C524.5 278.424 484 274.924 476.75 272.424C476.75 272.424 466.5 273.344 463.75 278.844C461 284.344 461.63 290.124 465 295.424C468.37 300.724 476.21 302.924 476.21 302.924Z" fill="white"/>
<path d="M659.63 246.674L669 242.344C669 242.344 672.5 247.514 674.17 250.174C675.84 252.834 678.5 257.504 677.67 260.174L670.84 264.344C668.874 257.502 664.983 251.368 659.63 246.674Z" fill="#FF0000"/>
<path d="M673.79 238.514C674.53 236.514 675.12 232.684 674.46 230.844C673.532 228.102 673.417 225.15 674.13 222.344C674.96 218.344 678.8 207.014 678.8 207.014C678.8 207.014 680.13 203.684 681.63 203.344C683.13 203.004 684.3 205.844 684.63 207.514C684.96 209.184 685.63 212.684 685.13 214.844C684.63 217.004 682.3 221.014 683.8 221.844C685.3 220.38 686.641 218.761 687.8 217.014C689.97 213.844 693.97 207.684 695.47 205.014C696.97 202.344 702.8 195.184 707.47 192.184C712.14 189.184 714.3 188.354 716.3 189.684C718.3 191.014 715.8 195.184 714.8 195.854C713.8 196.524 705.13 205.524 705.13 205.524L697.13 213.194C697.13 213.194 702.96 210.694 705.96 210.364C708.96 210.034 711.63 210.534 711.13 214.364C712.953 214.406 714.711 215.049 716.13 216.194C718.13 218.024 717.8 220.194 717.13 222.194C716.46 224.194 713.8 227.024 713.8 227.024C713.8 227.024 716.8 227.854 717.63 230.194C718.46 232.534 717.46 233.024 715.46 234.864C713.46 236.704 708.63 240.194 705.63 240.194C705.63 240.194 702.96 245.194 699.3 247.694C696.131 249.624 692.782 251.241 689.3 252.524L680.63 256.854L677.8 258.354C677.8 258.354 675.13 250.024 672.8 247.854L669.97 243.854C671.649 242.402 672.958 240.572 673.79 238.514Z" fill="#F8C2A0"/>
<path d="M476.93 272.304C498.6 276.974 563.39 282.124 568.66 281.194C573.93 280.264 651.13 248.884 657.3 246.344C662.97 244.014 673.63 267.344 670.97 268.674C668.31 270.004 592.79 305.354 571.28 309.964C566.61 310.964 557.61 310.634 547.61 309.964" stroke="black" stroke-linecap="round" stroke-linejoin="round"/>
<path d="M659.46 246.514L668.63 242.344C668.63 242.344 678.96 253.844 677.46 260.344L670.96 264.344" stroke="black" stroke-linecap="round" stroke-linejoin="round"/>
<path d="M696.63 214.014C696.63 214.014 709.3 206.684 711.14 212.214C713.47 219.214 698.34 227.924 698.34 227.924C690.76 230.924 696.56 220.924 700.34 217.354" stroke="black" stroke-linecap="round" stroke-linejoin="round"/>
<path d="M696.63 214.014C700.91 209.474 708.1 202.504 714 196.374C719.06 191.124 717.41 185.704 708.25 191.494C698.93 197.394 691.74 210.994 691.74 210.994C690.55 213.724 684.02 221.754 684.02 221.754" stroke="black" stroke-linecap="round" stroke-linejoin="round"/>
<path d="M712.06 214.264C712.06 214.264 716.72 214.964 717.33 218.524C718.27 224.004 711.11 229.954 704.33 233.054C698.89 235.524 693.39 231.694 698.38 227.924" stroke="black" stroke-linecap="round" stroke-linejoin="round"/>
<path d="M713.73 227.024C713.73 227.024 718.23 228.314 717.79 231.454C717.35 234.594 710.69 239.134 706.62 239.674C701.62 240.344 703.62 235.674 703.62 235.674L705.95 232.674" stroke="black" stroke-linecap="round" stroke-linejoin="round"/>
<path d="M678 258.344C682.67 255.014 693.43 251.634 699.58 247.344C702.334 245.328 704.561 242.676 706.07 239.614" stroke="black" stroke-linecap="round" stroke-linejoin="round"/>
<path d="M689.63 231.344C687.98 220.684 681.43 223.874 683.91 218.074C687.32 210.074 683.56 202.414 681.12 203.794C679.83 204.524 676.64 209.924 673.9 223.444C672.81 228.864 677.15 234.724 673.41 239.854C670.41 243.944 669.41 243.474 669.41 243.474" stroke="black" stroke-linecap="round" stroke-linejoin="round"/>
<path d="M547.6 309.964L527.27 308.484C499.39 306.704 474.93 302.634 474.93 302.634" stroke="black" stroke-linecap="round" stroke-linejoin="round"/>
<path d="M352.83 324.474L366.7 323.974L399 323.844L421.21 342.224L446.33 362.124L457.58 371.254C457.58 371.254 464.08 369.504 466.95 367.504C469.82 365.504 474.07 363.004 473.57 360.254L445.32 328.634L423.57 305.384C423.57 305.384 416.32 297.134 411.19 295.264C406.06 293.394 400.08 292.724 396 292.124C391.92 291.524 365.25 289.504 365.25 289.504L319.83 287.124C319.83 287.124 288.45 289.374 285.95 300.124C283.45 310.874 310.35 322.244 317.32 323.004C329.12 324.155 340.975 324.645 352.83 324.474Z" fill="#1FBA9A"/>
<path d="M464.71 377.264L458.71 370.724C458.71 370.724 463.08 369.854 465.08 368.354C466.846 367.124 468.682 365.999 470.58 364.984L475.7 369.364C475.7 369.364 473.46 376.174 464.71 377.264Z" fill="white"/>
<path d="M485.34 372.644C493.48 368.044 506.14 368.874 507 369.464C509.41 371.124 500.43 380.034 489.84 385.304C483.67 388.374 472.14 392.104 470.77 390.834C468.77 388.974 463.96 380.454 464.28 377.144C466.07 377.544 468.09 376.754 470.42 375.344C473.9 373.244 475.72 370.164 475.15 368.954C479.37 370.114 481.66 370.464 486.23 371.694L485.34 372.644Z" fill="#3A3A3D"/>
<path d="M470.43 365.264C470.43 365.264 473.14 367.544 475.01 369.434" stroke="black" stroke-linecap="round" stroke-linejoin="round"/>
<path d="M486.39 371.614C481.83 370.394 479.53 370.034 475.31 368.874C475.89 370.084 474.06 373.164 470.58 375.264C468.25 376.674 466.23 377.464 464.44 377.064C464.12 380.374 468.91 388.894 470.93 390.754C472.3 392.014 483.83 388.294 490 385.224C500.59 379.954 509.57 371.044 507.16 369.384C506.3 368.794 493.64 367.954 485.5 372.564" stroke="black" stroke-linecap="round" stroke-linejoin="round"/>
<path d="M458.83 370.644L464.72 377.294" stroke="black" stroke-linecap="round" stroke-linejoin="round"/>
<path d="M359.63 324.014C367.91 324.364 398.96 324.014 398.96 324.014L457.59 371.294C457.59 371.294 464.59 369.504 468.42 366.464C475.11 361.104 473.6 360.304 473.6 360.304C473.6 360.304 452.23 335.584 435.89 318.374C435.89 318.374 420.99 302.714 417.89 299.634C412.22 293.964 403.61 293.164 399.89 292.634C392.89 291.634 379.04 290.524 362.59 289.354C352.59 288.644 319.92 287.354 319.92 287.354" stroke="black" stroke-linecap="round" stroke-linejoin="round"/>
<path d="M43.6499 151.314L38.9399 148.044" stroke="black" stroke-linecap="round" stroke-linejoin="round"/>
<path d="M38.29 76.0144C38.29 76.0144 39.62 78.6844 44.29 78.6844" stroke="black" stroke-linecap="round" stroke-linejoin="round"/>
<path d="M180.29 2.0145C180.29 2.0145 186.29 -1.3155 189.62 4.0145" stroke="black" stroke-linecap="round" stroke-linejoin="round"/>
<path d="M533.63 42.6744C533.63 42.6744 530.96 38.0044 526.3 38.6744" stroke="black" stroke-linecap="round" stroke-linejoin="round"/>
<path d="M318.21 353.844L341.21 351.594C356.76 349.764 377.81 347.134 377.81 347.134C377.81 347.134 391.73 342.554 398.23 338.554C404.73 334.554 417.31 325.554 421.48 318.554C439.67 287.994 436.48 268.804 437.65 260.304C437.65 260.304 453.32 261.304 455.65 262.474C457.98 263.644 460.12 276.564 459.98 278.554C458.98 293.304 455.71 303.424 450.48 313.304C443.73 326.054 415.65 347.884 412.98 349.554C410.31 351.224 378.56 366.474 374.23 368.304C373.577 368.476 372.895 368.503 372.23 368.384L365.74 370.304C356.11 374.184 338.74 376.304 330.49 377.434C322.24 378.564 311.36 375.934 308.24 375.314C305.12 374.694 302.11 372.694 297.99 370.444C293.87 368.194 291.74 365.074 290.11 361.324C288.48 357.574 287.61 354.824 287.61 354.824L318.21 353.844Z" fill="#FF0000"/>
<path d="M477.46 272.344C469.46 267.344 459.46 267.774 459.46 271.844C459.46 284.844 455.38 299.674 453.63 302.924C451.88 306.174 447.38 317.674 438.88 325.924C430.38 334.174 417.63 348.674 397.13 357.424L380.21 365.844L376.88 366.844C376.88 366.844 363.55 371.014 348.38 374.514C339.548 376.328 330.565 377.305 321.55 377.434C314.8 377.434 303.88 374.184 303.88 374.184C301.914 374.938 299.772 375.112 297.71 374.684C294.46 373.934 292.88 373.514 292.88 373.514L288.55 381.184L298.88 416.924L299.88 416.674C310.13 414.424 344.63 398.924 344.63 398.924L370.75 385.174L396.54 369.844L415.88 357.924C415.88 357.924 440.13 343.424 447.13 338.174C454.13 332.924 464.38 323.674 464.38 323.674L462.88 319.174C462.88 319.174 472.38 310.174 476.13 302.674C476.13 302.674 490.44 280.454 477.46 272.344Z" fill="white"/>
<path d="M111.93 469.635C114.6 469.975 127.59 484.865 127.35 487.265C121.5 488.835 115.92 496.805 112.6 504.635C109.74 506.365 77.42 528.955 74.6 525.965C71.78 522.975 82.93 497.965 94.6 482.965C100.11 475.885 109.26 469.295 111.93 469.635Z" fill="#3A3A3D"/>
<path d="M64.19 230.044L73.1 232.644C82.46 227.324 92.64 231.964 92.64 231.964C92.64 231.964 96.64 217.964 94.37 211.854C92.1 205.744 66.23 211.074 56.06 214.184C56.06 214.184 39.37 219.724 40.25 223.624C42.24 232.444 64.19 230.044 64.19 230.044Z" fill="#3A3A3D"/>
<path d="M74.29 244.344L73.1 232.634C75.1661 231.729 77.291 230.964 79.4601 230.344C82.1301 229.674 90.9601 231.344 90.9601 231.344L91.4601 242.344L92.29 248.674C92.29 248.674 85.79 245.504 82.29 245.004C78.79 244.504 75.46 243.674 74.29 244.344Z" fill="white"/>
<path d="M274.79 424.514L268.29 397.514L262.79 372.844L259.62 367.344C259.62 367.344 254.29 358.014 247.12 358.344L220.79 363.844L195.62 369.674C195.62 369.674 195.79 377.504 198.45 380.174C202.339 384.421 207.58 387.188 213.28 388.004L229.11 391.834C229.11 391.834 239.94 394.834 241.94 396.164C243.94 397.494 247.77 401.834 250.77 408.334C253.77 414.834 254.1 424.334 254.1 424.334L254.93 430.164L274.79 424.514Z" fill="white"/>
<path d="M74.2899 244.344C76.2899 243.844 76.9599 243.844 80.2899 244.344C83.6199 244.844 92.2899 248.674 92.2899 248.674C92.2899 248.674 96.4599 251.174 97.2899 252.844C97.2899 252.844 98.96 258.514 98.62 260.014C98.28 261.514 95.6199 269.514 95.2899 270.344C94.9599 271.174 96.96 273.674 96.96 276.014V280.014C96.96 280.014 98.63 289.684 98.63 293.684C98.63 297.684 97.63 310.184 98.46 316.184C99.29 322.184 100.46 332.514 101.63 337.854C102.8 343.194 102.96 361.854 102.96 361.854L120.29 357.854L147.29 351.184L179 343.014C179.33 348.684 183.67 357.014 183.67 357.014C183.67 357.014 203.84 355.514 208.34 355.684C211.87 355.814 229.01 355.324 238.67 355.014L256.34 354.844L274.67 355.344C274.67 355.344 277 359.514 278.34 362.174C279.68 364.834 283.67 369.004 285.84 370.504C288.117 371.8 290.519 372.862 293.01 373.674L288.68 381.344L303.35 431.344L314.52 470.674C314.52 470.674 320.69 493.844 320.52 501.174C320.35 508.504 315.85 511.504 312.35 514.504C308.85 517.504 301.35 517.674 301.35 517.674V517.594L300.04 517.674C293.54 518.004 257.37 517.504 257.37 517.504L225.7 516.834L165.2 515.504L139.7 514.004C134.53 511.174 134.53 501.334 134.87 494.334C135.21 487.334 136.37 486.164 138.87 484.834C141.37 483.504 148.54 484.004 151.04 484.664C153.54 485.324 158.71 487.164 160.87 487.334C163.03 487.504 168.2 486.164 169.87 486.004C171.54 485.844 188.54 487.334 188.54 487.334L226.87 489.164L274.7 491.834L293.43 493.124L293.29 492.694L274.79 424.524L265.79 386.354L262.79 372.854L260.29 368.024C258.46 365.194 253.79 360.194 250.46 358.854C249.431 358.434 248.34 358.184 247.23 358.114L247.13 358.354L235.13 360.854L192.8 370.354L141.47 382.024C141.47 382.024 114.8 387.694 107.64 389.694C103.529 390.875 99.2766 391.487 95 391.514C85 391.514 81.83 382.514 81.67 380.514C81.5099 378.514 81 369.844 81 369.844L78.17 334.014L75.17 294.184C75.17 294.184 72.34 250.354 72.17 248.854C72 247.354 72.2899 244.844 74.2899 244.344Z" fill="#682527"/>
<path d="M135.58 489.345L131.58 489.095L126.58 488.595L125.58 487.845C125.58 487.845 120.83 491.095 119.45 492.975C118.07 494.855 112.7 504.225 112.7 504.225C114.556 503.885 116.434 503.677 118.32 503.605C119.57 503.735 130.69 503.985 134.94 505.105C135 505.125 133.33 494.975 135.58 489.345Z" fill="white"/>
<path d="M274.63 355.344L287.63 354.844C287.63 354.844 289.38 361.474 291.88 364.974C291.88 364.974 287.5 365.724 286.13 365.724C284.76 365.724 280.75 365.854 280.75 365.854C280.75 365.854 274.79 356.974 274.63 355.344Z" fill="#FBF86E"/>
<path d="M304 374.344C304 374.344 298.87 371.474 297.37 370.594C295.87 369.714 291.87 364.974 291.87 364.974C290.132 365.276 288.38 365.487 286.62 365.604C285.12 365.604 280.74 365.854 280.74 365.854C280.74 365.854 284.61 370.604 287.49 371.734C290.37 372.864 292.99 373.734 292.99 373.734C292.99 373.734 299.46 375.724 304 374.344Z" fill="#5D6F5B"/>
<path d="M181.46 323.014C184.13 315.844 188.46 309.014 191.79 308.014C195.12 307.014 224.46 311.514 224.46 311.514C224.46 311.514 245.13 314.684 250.13 315.184C255.13 315.684 280.96 316.684 280.96 316.684C280.96 316.684 302.65 316.324 305.46 315.854C306.46 315.684 315.96 312.354 315.96 312.354L334.29 303.434L357.63 290.184C357.63 290.184 366.89 284.824 372.3 281.514C377.46 278.354 378.74 277.294 379.97 274.844C382.47 269.844 388.22 262.344 393.97 258.844C399.72 255.344 410.97 250.594 414.47 250.844C417.97 251.094 430.47 252.094 435.14 252.674C439.81 253.254 439.64 258.844 439.64 258.844L439.47 263.594C439.47 263.594 438.97 268.344 438.97 271.844C438.97 275.344 436.47 289.844 434.72 295.844C432.97 301.844 426.72 316.844 419.22 324.844C411.72 332.844 390.47 343.344 390.47 343.344L373.72 347.844C373.72 347.844 346.85 351.004 337.19 351.934L324.8 353.684L302.97 354.514L268.47 355.344L238.64 355.014L197.47 356.344C197.47 356.344 184.14 357.014 183.64 357.014C183.14 357.014 179.14 346.184 178.97 343.014C178.8 339.844 178.79 330.174 181.46 323.014Z" fill="white"/>
<path d="M289 381.845C291.54 390.395 299.06 417.775 305.23 437.735C312.4 460.975 318.64 486.105 320.16 497.735C321.68 509.365 312.08 517.075 302.16 517.735C292.24 518.395 231.88 516.915 215.93 516.655C199.98 516.395 147.93 514.955 140.71 514.125C133.49 513.295 133.64 496.185 136.06 487.615C137.21 483.515 143.98 484.005 149.84 484.435C152.77 484.655 156.56 487.135 160.21 487.435C163.86 487.735 167.63 485.785 171.79 486.095L185.98 487.095C199.2 488.095 211.12 488.875 215.27 489.025C225.93 489.395 295.35 492.685 297.17 493.025" stroke="black" stroke-linecap="round" stroke-linejoin="round"/>
<path d="M293.29 492.074C293.29 492.074 280.09 448.694 269.15 401.184C267.83 395.454 263.49 375.984 262.45 372.574" stroke="black" stroke-linecap="round" stroke-linejoin="round"/>
<path d="M246.55 358.194C246.55 358.194 117.55 387.194 102.02 390.994C94.3001 392.884 82.02 391.254 81.42 377.774C80.82 364.294 70.85 252.144 72.42 246.044C73.99 239.944 97.0201 249.304 97.5601 253.364C97.6701 254.204 99.4001 258.434 97.6901 263.364C96.8795 265.577 96.1852 267.83 95.61 270.114C95.36 271.944 97.4101 274.964 97.1201 276.994C96.7501 279.624 98.7501 292.404 98.3301 295.294C97.9401 297.964 97.7701 313.494 98.3301 316.294C102.83 338.794 103.16 358.444 102.83 361.294" stroke="black" stroke-linecap="round" stroke-linejoin="round"/>
<path d="M98.6 363.124C98.6 363.124 168.72 345.724 178.1 343.124" stroke="black" stroke-linecap="round" stroke-linejoin="round"/>
<path d="M274.33 354.844C275.83 358.974 276.02 359.124 278.45 362.974C283.45 370.854 292.9 373.784 292.9 373.784" stroke="black" stroke-linecap="round" stroke-linejoin="round"/>
<path d="M291.6 364.964C291.6 364.964 284.79 366.314 280.93 365.634" stroke="black" stroke-linecap="round" stroke-linejoin="round"/>
<path d="M247.26 357.964C256.26 359.634 259.94 368.054 264.26 375.134" stroke="black" stroke-linecap="round" stroke-linejoin="round"/>
<path d="M135.07 489.505C135.07 489.505 123.66 488.645 126.27 488.295" stroke="black" stroke-linecap="round" stroke-linejoin="round"/>
<path d="M134.89 504.915C134.89 504.915 117.31 502.495 112.89 504.305" stroke="black" stroke-linecap="round" stroke-linejoin="round"/>
<path d="M92.1 248.634C92.1 248.634 91.1 239.634 90.75 231.184" stroke="black" stroke-linecap="round" stroke-linejoin="round"/>
<path d="M74.13 244.464C74.0433 240.527 73.7093 236.6 73.13 232.704" stroke="black" stroke-linecap="round" stroke-linejoin="round"/>
<path d="M111.6 469.965C114.27 470.305 127.26 485.195 127.02 487.595C121.17 489.165 115.59 497.135 112.27 504.965C109.41 506.695 77.09 529.285 74.27 526.295C71.45 523.305 82.6 498.295 94.27 483.295C99.77 476.215 108.92 469.625 111.6 469.965Z" stroke="black" stroke-linecap="round" stroke-linejoin="round"/>
<path d="M64.19 230.044L73.1 232.644C82.46 227.324 92.64 231.964 92.64 231.964C92.64 231.964 96.64 217.964 94.37 211.854C92.1 205.744 66.23 211.074 56.06 214.184C56.06 214.184 39.37 219.724 40.25 223.624C42.24 232.444 64.19 230.044 64.19 230.044Z" stroke="black" stroke-linecap="round" stroke-linejoin="round"/>
<path d="M304 374.344C298.64 375.844 291.32 373.344 291.32 373.344" stroke="black" stroke-linecap="round" stroke-linejoin="round"/>
<path d="M287.33 354.974C287.33 354.974 289.44 365.444 298.54 371.204C317.54 383.204 345.95 376.354 376.95 367.354C376.95 367.354 411.23 351.764 416.95 346.354C416.95 346.354 441.62 328.354 450.95 309.684C457.37 296.854 458.95 280.354 458.95 280.354" stroke="black" stroke-linecap="round" stroke-linejoin="round"/>
<path d="M274.46 424.594C264.4 427.684 257.58 429.474 254.6 430.134C254.6 430.134 254.1 400.134 238.6 394.634C223.1 389.134 209.1 389.134 200.1 382.134C195.83 378.814 195.6 369.634 195.6 369.634" stroke="black" stroke-linecap="round" stroke-linejoin="round"/>
<path d="M299 416.844C311.57 412.684 321.75 409.344 324.64 408.134C358.1 394.124 396 370.674 396 370.674L427.83 350.844C451.5 337.844 464.97 323.634 464.97 323.634L458.97 311.634L468.64 309.634L469.5 280.844" stroke="black" stroke-linecap="round" stroke-linejoin="round"/>
<path d="M463.1 319.124C468.353 314.72 472.709 309.346 475.93 303.294" stroke="black" stroke-linecap="round" stroke-linejoin="round"/>
<path d="M439.63 262.674C439.63 262.674 438.96 278.844 436.46 288.844C433.03 302.564 428.46 312.284 422.29 320.674C414.46 331.344 393.67 343.494 383.46 345.674C363.96 349.844 350.22 350.204 343.63 351.174C322.13 354.344 308.46 354.344 288.63 354.674C241.63 355.464 195.04 355.394 183.46 356.844C171.46 334.844 185.93 308.304 192.6 307.964C199.27 307.624 249.6 315.344 249.6 315.344C249.6 315.344 289.6 317.624 303.6 316.014C320.93 314.014 377.6 278.434 377.6 278.434C377.6 278.434 388.28 253.974 414.28 250.974L435 252.844" stroke="black" stroke-linecap="round" stroke-linejoin="round"/>
<path d="M288.46 381.345L292.91 373.785" stroke="black" stroke-linecap="round" stroke-linejoin="round"/>
<path d="M432 257.844L417 293.844L425 305.844L414.5 309.844C411.459 318.466 406.095 326.079 399 331.844" stroke="black" stroke-linecap="round" stroke-linejoin="round"/>
<path d="M1.00006 256.674C1.00006 256.674 3.67008 262.674 6.33008 262.004" stroke="black" stroke-linecap="round" stroke-linejoin="round"/>
<path d="M179.63 256.674C182.122 257.849 184.892 258.31 187.63 258.004" stroke="black" stroke-linecap="round" stroke-linejoin="round"/>
<path d="M301.46 366.844C301.46 366.844 297.21 368.094 293.96 367.094" stroke="black" stroke-linecap="round" stroke-linejoin="round"/>
<path d="M305 372.344C303.587 372.558 302.148 372.517 300.75 372.224" stroke="black" stroke-linecap="round" stroke-linejoin="round"/>
<path d="M518.86 206.904C518.86 206.904 528.69 206.904 528.53 199.734C528.39 193.884 519.18 190.274 519.18 190.274C519.18 190.274 530.79 182.074 526.59 170.764C522.89 160.764 508.89 157.244 508.89 157.244C508.89 157.244 521.11 151.534 515.82 137.814C510.53 124.094 488.23 112.514 488.23 112.514C488.23 112.514 493.98 105.514 486.8 95.8244C479.62 86.1344 462.18 93.1244 462.18 93.1244C462.18 93.1244 441.53 75.4544 431.55 77.7744C416.12 81.3644 418.29 97.4344 418.29 97.4344C418.29 97.4344 390.77 96.9844 382.38 107.024C373.99 117.064 388.38 129.084 388.38 129.084C388.38 129.084 360.03 135.344 360.7 149.714C361.37 164.084 386.7 160.154 386.7 160.154C386.7 160.154 370.26 168.964 370.7 185.154C371.14 201.344 391.47 200.674 391.47 200.674C385.37 209.104 384.14 223.674 389.17 230.594C399.46 244.824 418.46 239.124 418.46 239.124C418.46 239.124 416.87 246.584 421.25 248.904C425.63 251.224 433.25 244.714 433.25 244.714C433.25 244.714 471.71 216.594 480.21 213.124C488.71 209.654 518.86 206.904 518.86 206.904Z" fill="#3A3A3D"/>
<path d="M513 204.514C513 204.514 510 183.344 509.33 180.344C508.66 177.344 499.33 148.344 496.16 144.174C492.99 140.004 492.16 134.674 486.49 131.174C480.82 127.674 473.16 119.004 454.32 123.004C454.32 123.004 442.49 126.004 434.49 133.004C426.49 140.004 422.99 149.674 421.82 153.334C420.65 156.994 419.65 169.164 422.32 183.504C422.32 183.504 425.32 199.674 428.32 206.674C425.045 209.353 422.757 213.048 421.82 217.174C420.32 224.004 427.15 230.174 428.82 231.004C430.49 231.834 438.32 233.004 439.82 233.004C441.32 233.004 476.99 222.504 488.15 218.504C499.31 214.504 513 204.514 513 204.514Z" fill="#F8C2A0"/>
<path d="M435.13 252.674L437.13 248.674C438.643 249.544 440.399 249.895 442.13 249.674C443.946 249.355 445.786 249.187 447.63 249.174C447.63 249.174 445.13 251.504 443.3 253.504C441.907 255.158 440.678 256.943 439.63 258.834C439.63 258.834 435.29 255.844 435.13 252.674Z" fill="#F8C2A0"/>
<path d="M437 158.674C440 150.794 448.27 146.304 452.33 145.434C459.95 143.804 459.33 147.434 457.46 149.814C455.59 152.194 448.75 160.814 442.94 163.144C439.7 164.494 435.86 161.824 437 158.674Z" fill="#3A3A3D"/>
<path d="M482 144.204C485.66 146.204 490.18 146.674 493 146.954C501.06 147.774 504.55 145.684 503.19 144.004C501.63 142.094 493.14 137.764 486.33 137.934C483.59 138.014 480.48 143.374 482 144.204Z" fill="#3A3A3D"/>
<path d="M499.7 207.494C504.7 205.164 508.37 204.664 512.78 205.294C524.84 207.034 519.61 216.954 519.61 216.954C524.23 219.374 529.39 227.664 530.33 234.954C531.27 242.244 523.33 241.884 523.33 241.884C523.33 241.884 523.15 260.024 513.66 265.054C508.02 268.054 505.88 257.154 505.88 257.154C505.88 257.154 495.12 271.224 488.43 272.424C481.74 273.624 481.88 266.054 481.88 266.054C481.88 266.054 470.96 280.914 460.68 280.524C450.4 280.134 455.39 267.754 455.39 267.754C450.7 269.124 440.27 268.314 439.01 262.654C437.75 256.994 448.1 248.864 448.1 248.864C448.1 248.864 437.04 253.314 434.1 245.554C431.16 237.794 439.1 229.064 445.04 225.804C445.04 225.804 438.57 219.074 445.74 213.544C452.91 208.014 471.28 212.124 471.28 212.124C471.28 212.124 467.79 199.654 489.08 207.184C490.637 208.373 492.425 209.225 494.33 209.684C497.33 210.384 499.7 207.494 499.7 207.494Z" fill="#3A3A3D"/>
<path d="M444.37 184.324C441.53 176.024 445.96 165.624 455.94 162.324C465.92 159.024 473.94 163.484 477.34 173.754C480.34 182.974 476.8 192.584 467.67 195.864C459 199.044 447.67 193.954 444.37 184.324Z" fill="white"/>
<path d="M492.08 186.974C495.58 188.474 500.7 189.074 503.53 188.344C512.95 185.904 517.12 176.734 514.81 168.264C512.38 159.374 505.21 154.994 496.03 156.264C494.03 156.554 488.25 159.604 485.85 162.464C482.91 165.964 482.21 170.914 483.55 176.464L492.08 186.974Z" fill="white"/>
<path d="M480.31 225.844C475.82 223.984 469.88 216.954 462.98 217.774C454.34 218.774 447.86 228.774 452.75 237.144C457.64 245.514 470.75 251.934 484.75 248.694C500.46 245.074 510.34 236.604 513.43 227.474C516.52 218.344 513.53 212.934 506.98 213.254C500.43 213.574 496.85 219.054 495.05 221.804C492.4 225.914 485.59 228.034 480.31 225.844Z" fill="#CB4850"/>
<path d="M471.71 220.344C471.71 220.344 468.24 224.454 469.33 226.864C470.42 229.274 476.53 223.864 476.53 223.864C476.53 223.864 474.53 230.584 476.05 231.084C477.57 231.584 481.82 227.264 481.82 227.264C481.82 227.264 480.82 233.264 483.38 233.074C485.94 232.884 488.28 226.744 488.28 226.744C488.28 226.744 491.28 232.854 493.4 230.944C495.52 229.034 495.51 222.024 495.51 222.024C495.51 222.024 500.45 225.824 501.81 223.514C503.17 221.204 499.66 217.004 499.66 217.004C499.66 217.004 497.33 218.634 496.96 219.764C496.59 220.894 493.33 224.644 491.08 225.764C488.83 226.884 482.66 227.634 480.31 225.884C477.96 224.134 471.71 220.344 471.71 220.344Z" fill="white"/>
<path d="M506 238.674C506 238.674 504 236.174 501.67 236.674C499.34 237.174 501.5 242.004 501.5 242.004C501.5 242.004 497.33 238.504 496 239.334C494.67 240.164 495 245.504 495 245.504C495 245.504 492.33 239.834 490 240.504C487.67 241.174 488.67 247.674 488.67 247.674C488.67 247.674 486.17 242.504 483.67 243.174C481.17 243.844 480.84 249.504 480.84 249.504C480.84 249.504 480.67 244.334 478.17 244.674C475.67 245.014 474.63 249.344 474.63 249.344C474.63 249.344 484.63 250.844 493.5 246.474C502.37 242.104 506 238.674 506 238.674Z" fill="white"/>
<path d="M461.33 245.124C461.33 245.124 466.58 241.004 471.2 239.374C475.82 237.744 481.7 237.004 485.2 237.504C488.7 238.004 486.7 240.004 486.07 240.134C485.44 240.264 480.19 243.264 480.19 243.264L472.69 245.644L471.31 248.894C471.31 248.894 462.83 247.124 461.33 245.124Z" fill="#FF0000"/>
<path d="M433.44 244.594C433.44 244.594 425.77 251.104 421.44 248.784C417.11 246.464 418.65 239.004 418.65 239.004C418.65 239.004 399.65 244.704 389.36 230.474C384.36 223.474 385.56 208.974 391.66 200.554C391.66 200.554 371.34 201.194 370.89 185.034C370.44 168.874 386.89 160.034 386.89 160.034C386.89 160.034 361.52 163.954 360.89 149.594C360.26 135.234 388.57 128.964 388.57 128.964C388.57 128.964 374.18 116.964 382.57 106.904C390.96 96.8444 418.48 97.3144 418.48 97.3144C418.48 97.3144 416.31 81.2444 431.74 77.6544C441.74 75.3344 462.37 93.0044 462.37 93.0044C462.37 93.0044 479.81 86.0044 486.99 95.6844C494.17 105.364 488.42 112.374 488.42 112.374C488.42 112.374 510.72 123.964 516.01 137.674C521.3 151.384 509 157.124 509 157.124C509 157.124 523 160.684 526.7 170.644C530.9 181.954 519.29 190.154 519.29 190.154C519.29 190.154 528.5 193.764 528.64 199.614C528.81 206.784 518.97 206.784 518.97 206.784" stroke="black" stroke-linecap="round" stroke-linejoin="round"/>
<path d="M483.61 176.604C483.61 176.604 498.61 192.724 500.17 203.974C500.92 209.454 496.17 210.394 493.93 209.794C490.4 208.854 485.26 203.964 485.26 203.964" stroke="black" stroke-linecap="round" stroke-linejoin="round"/>
<path d="M436.94 158.484C439.94 150.604 448.21 146.114 452.27 145.244C459.89 143.614 459.27 147.244 457.4 149.624C455.53 152.004 448.69 160.624 442.88 162.954C439.6 164.304 435.76 161.634 436.94 158.484Z" stroke="black" stroke-linecap="round" stroke-linejoin="round"/>
<path d="M481.87 144.014C485.53 146.014 490.05 146.484 492.87 146.764C500.93 147.584 504.42 145.494 503.06 143.814C501.5 141.904 493.01 137.574 486.2 137.744C483.49 137.824 480.38 143.184 481.87 144.014Z" stroke="black" stroke-linecap="round" stroke-linejoin="round"/>
<path d="M508.42 173.444L510 176.934" stroke="black" stroke-linecap="round" stroke-linejoin="round"/>
<path d="M511.09 174.344L507.98 175.994" stroke="black" stroke-linecap="round" stroke-linejoin="round"/>
<path d="M509.71 173.494L508.69 177.074" stroke="black" stroke-linecap="round" stroke-linejoin="round"/>
<path d="M511.29 175.964L507.43 174.704" stroke="black" stroke-linecap="round" stroke-linejoin="round"/>
<path d="M468.21 179.674L470.67 181.634" stroke="black" stroke-linecap="round" stroke-linejoin="round"/>
<path d="M470.3 179.104L468.69 182.774" stroke="black" stroke-linecap="round" stroke-linejoin="round"/>
<path d="M471.34 179.934L467.61 181.684" stroke="black" stroke-linecap="round" stroke-linejoin="round"/>
<path d="M469.16 178.774L469.88 182.604" stroke="black" stroke-linecap="round" stroke-linejoin="round"/>
<path d="M499.93 207.304C504.93 204.974 508.6 204.474 513.01 205.104C525.07 206.844 519.84 216.774 519.84 216.774C524.46 219.194 529.62 227.484 530.56 234.774C531.5 242.064 523.56 241.704 523.56 241.704C523.56 241.704 523.38 259.844 513.89 264.874C508.25 267.874 506.11 256.974 506.11 256.974C506.11 256.974 495.35 271.044 488.66 272.244C481.97 273.444 482.11 265.874 482.11 265.874C482.11 265.874 471.19 280.734 460.91 280.344C450.63 279.954 455.62 267.574 455.62 267.574C450.93 268.944 440.5 268.134 439.24 262.474C437.98 256.814 448.33 248.684 448.33 248.684C448.33 248.684 437.27 253.134 434.33 245.374C431.39 237.614 439.33 228.884 445.27 225.624C445.27 225.624 438.8 218.894 445.97 213.364C453.14 207.834 471.51 212.014 471.51 212.014C471.51 212.014 467.8 199.644 489.09 207.174" stroke="black" stroke-linecap="round" stroke-linejoin="round"/>
<path d="M444.61 184.474C441.77 176.174 446.2 165.774 456.18 162.474C466.16 159.174 474.18 163.634 477.58 173.904C480.58 183.124 477.04 192.734 467.91 196.014C459.22 199.194 447.91 194.124 444.61 184.474Z" stroke="black" stroke-linecap="round" stroke-linejoin="round"/>
<path d="M493.08 187.844C496.526 188.974 500.204 189.194 503.76 188.484C513.18 186.044 517.35 176.874 515.04 168.404C512.61 159.514 505.44 155.134 496.26 156.404C494.26 156.694 488.48 159.744 486.08 162.604C483.14 166.104 482.44 171.054 483.79 176.604" stroke="black" stroke-linecap="round" stroke-linejoin="round"/>
<path d="M441.33 195.434C443.44 198.904 446.677 201.544 450.5 202.914C455.858 204.712 461.682 204.534 466.92 202.414" stroke="black" stroke-linecap="round" stroke-linejoin="round"/>
<path d="M502.63 195.454C502.63 195.454 508.86 195.404 510.71 191.524" stroke="black" stroke-linecap="round" stroke-linejoin="round"/>
<path d="M480.55 225.984C476.06 224.124 470.12 217.094 463.22 217.914C454.58 218.914 448.1 228.914 452.99 237.284C457.88 245.654 470.99 252.074 484.99 248.834C500.7 245.214 510.58 236.744 513.67 227.614C516.76 218.484 513.77 213.074 507.22 213.394C500.67 213.714 497.09 219.194 495.29 221.944C492.63 226.054 485.83 228.184 480.55 225.984Z" stroke="black" stroke-linecap="round" stroke-linejoin="round"/>
<path d="M499.47 216.924C499.47 216.924 502.99 221.124 501.62 223.434C500.25 225.744 495.32 221.944 495.32 221.944C495.32 221.944 495.32 228.944 493.21 230.864C491.1 232.784 488.09 226.664 488.09 226.664C488.09 226.664 485.78 232.784 483.19 232.994C480.6 233.204 481.63 227.184 481.63 227.184C481.63 227.184 477.43 231.504 475.86 231.004C474.29 230.504 476.34 223.784 476.34 223.784C476.34 223.784 470.23 229.214 469.14 226.784C468.05 224.354 471.68 220.564 471.68 220.564" stroke="black" stroke-linecap="round" stroke-linejoin="round"/>
<path d="M461.43 245.124C464.619 242.285 468.366 240.143 472.43 238.834C477.97 236.934 487.49 236.294 486.98 238.704C486.47 241.114 471.18 246.284 471.18 246.284" stroke="black" stroke-linecap="round" stroke-linejoin="round"/>
<path d="M473.93 245.304C473.256 245.554 472.664 245.985 472.219 246.549C471.774 247.114 471.494 247.791 471.41 248.504" stroke="black" stroke-linecap="round" stroke-linejoin="round"/>
<path d="M428.15 206.624C428.15 206.624 418.67 179.174 420.73 159.454C423.34 134.524 445.59 122.634 461.86 121.964C475.08 121.414 488.33 130.264 493.26 138.634" stroke="black" stroke-linecap="round" stroke-linejoin="round"/>
<path d="M501 155.764C500.199 152.745 499.006 149.843 497.45 147.134" stroke="black" stroke-linecap="round" stroke-linejoin="round"/>
<path d="M510 185.774C510 185.774 512.55 199.444 513 205.104" stroke="black" stroke-linecap="round" stroke-linejoin="round"/>
<path d="M429.46 206.384C429.46 206.384 420.31 211.294 421.94 221.544C423.57 231.794 435.39 233.634 437.94 232.544" stroke="black" stroke-linecap="round" stroke-linejoin="round"/>
<path d="M505.76 238.634C505.76 238.634 503.76 236.134 501.43 236.634C499.1 237.134 501.26 241.964 501.26 241.964C501.26 241.964 497.09 238.464 495.76 239.294C494.43 240.124 494.76 245.464 494.76 245.464C494.76 245.464 492.09 239.794 489.76 240.464C487.43 241.134 488.43 247.634 488.43 247.634C488.43 247.634 485.93 242.464 483.43 243.134C480.93 243.804 480.6 249.464 480.6 249.464C480.6 249.464 480.43 244.294 477.93 244.634C475.43 244.974 474.6 249.134 474.6 249.134" stroke="black" stroke-linecap="round" stroke-linejoin="round"/>
<path d="M439.46 258.844C436.46 257.344 434.96 252.844 434.96 252.844L436.96 248.844" stroke="black" stroke-linecap="round" stroke-linejoin="round"/>
<path d="M416.46 437.975L413.33 430.855C411.572 431.89 409.61 432.531 407.58 432.735C404.7 432.865 399.83 432.985 399.83 432.985L402.83 442.985C402.83 442.985 409.58 443.365 410.95 442.235C412.32 441.105 416 439.725 416.46 437.975Z" fill="white"/>
<path d="M418.21 427.474C418.21 427.474 413.33 410.724 412.71 408.224C412.09 405.724 403.71 380.974 403.71 380.974C403.71 380.974 396.08 359.474 394.96 356.104C393.84 352.734 390.71 343.984 389.08 342.234C387.45 340.484 383.58 335.234 379.33 333.114C375.08 330.994 349.7 319.744 349.7 319.744L321.45 306.624C321.45 306.624 301.2 298.124 293.7 296.124C284.614 293.868 275.343 292.435 266 291.844C248.25 291.094 246.75 302.344 246.75 302.344C248.517 309.037 252.058 315.128 257 319.974C265.37 328.354 281.62 334.724 285.12 336.224C288.62 337.724 315.49 347.604 315.49 347.604L341.24 356.604L352.49 360.354C352.49 360.354 357.61 362.484 358.74 363.484C359.87 364.484 366.24 375.614 366.24 375.614L381.74 402.994L393.36 423.994L398.23 433.244C401.659 433.378 405.092 433.171 408.48 432.624C412.71 431.724 417.58 429.124 418.21 427.474Z" fill="#1FBA9A"/>
<path d="M424.75 444.695C434.51 442.695 446.44 448.235 447.03 449.195C448.69 451.865 436.36 458.195 423.94 460.005C416.71 461.065 404.02 460.865 403.21 459.005C402.01 456.255 400.84 445.315 402.51 441.855C404.08 442.935 406.36 442.855 409.2 442.165C413.42 441.165 416.45 438.515 416.38 437.005C419.99 439.795 422.07 441.005 426 444.005L424.75 444.695Z" fill="#3A3A3D"/>
<path d="M413.21 431.305C413.21 431.305 414.9 434.755 415.95 437.475" stroke="black" stroke-linecap="round" stroke-linejoin="round"/>
<path d="M426.08 443.995C422.16 440.995 420.08 439.785 416.46 436.995C416.52 438.515 413.46 441.175 409.27 442.155C406.44 442.815 404.16 442.935 402.58 441.845C400.92 445.295 402.08 456.245 403.28 458.995C404.09 460.855 416.78 461.055 424.01 459.995C436.42 458.185 448.75 451.855 447.1 449.185C446.51 448.185 434.58 442.695 424.82 444.685" stroke="black" stroke-linecap="round" stroke-linejoin="round"/>
<path d="M399.77 432.865L402.77 442.195" stroke="black" stroke-linecap="round" stroke-linejoin="round"/>
<path d="M325 307.844L376 331.454C376 331.454 386.88 335.964 391.62 347.014C395.62 356.344 397.29 364.014 402.62 378.344C408.26 393.484 418.31 427.124 418.31 427.124C418.31 427.124 419.44 428.544 410.77 431.874C405.85 433.764 398.3 433.124 398.3 433.124C398.3 433.124 366 373.014 359 364.014C356.38 360.644 337.72 355.864 327.33 352.014C304.89 343.694 285.89 337.344 271.22 330.014C248.59 318.704 246.96 302.184 246.96 302.184" stroke="black" stroke-linecap="round" stroke-linejoin="round"/>
<path d="M353.13 221.174C353.13 221.174 358.21 214.594 357.96 212.094L346.21 199.094L328 180.344C328 180.344 321.25 174.094 320 173.844C318.75 173.594 309 170.844 309 170.844L232.5 171.344C232.5 171.344 202.58 164.124 200.33 164.124C198.08 164.124 193.7 171.374 193.45 175.374C193.2 179.374 189 189.124 191 192.594C193.012 193.737 195.1 194.739 197.25 195.594C199 196.124 229 205.344 229 205.344L233 232.124C233 232.124 236.25 260.624 236.25 264.124C236.25 267.624 240.75 285.624 242.5 290.124C244.25 294.624 245.25 299.874 247.25 301.374C249.25 302.874 261 303.374 264.5 302.874C268 302.374 291 301.374 297 299.374C303 297.374 320.5 291.624 326.25 285.374L314.5 245.624L311.25 229.874L311.5 217.374L353.13 221.174Z" fill="#F0306C"/>
<path d="M325.46 120.475C326.653 116.45 327.611 112.36 328.33 108.225C328.83 104.225 329.08 98.2245 328.2 94.2245C327.32 90.2245 326.7 84.6045 325.95 80.9745C325.2 77.3445 321.32 63.9745 321.32 63.9745C321.32 63.9745 318.57 55.9745 318.32 53.7245C318.07 51.4745 317.44 46.2245 317.69 44.7245L315.94 46.3545L313.44 48.7345C313.44 48.7345 315.94 41.3645 314.81 35.4845C313.153 36.8244 311.399 38.0379 309.56 39.1145C307.93 39.8645 305.06 41.3645 305.06 41.3645C306.073 38.6609 306.948 35.9074 307.68 33.1145C308.062 30.8861 308.186 28.6212 308.05 26.3645C308.05 26.3645 299.55 30.9945 297.17 31.9945C294.79 32.9945 284.67 37.2445 279.92 37.7445C275.17 38.2445 265.54 40.7445 261.29 41.4945C257.04 42.2445 246.79 46.1245 242.41 47.6245C238.03 49.1245 227.03 54.2445 222.41 58.8745C217.79 63.5045 212.78 67.5045 209.03 75.3745C205.28 83.2445 203.28 94.5045 203.15 96.7545C203.02 99.0045 202.52 110.884 204.02 116.884C205.52 122.884 209.39 137.634 210.39 140.634L212.64 139.634L221.01 153.384L227.63 160.264C227.63 160.264 325.21 121.345 325.46 120.475Z" fill="#FF7E35"/>
<path d="M218.08 120.725C217.77 117.425 216.7 107.605 221.08 99.7245C225.46 91.8445 230.08 86.3545 232.83 84.7245C235.58 83.0945 243.83 76.1045 252.7 74.1045C261.57 72.1045 272.32 71.1045 276.07 71.2345C279.82 71.3645 291.82 72.7345 298.44 76.9845C305.06 81.2345 312.81 90.1145 314.81 93.4845C316.81 96.8545 321.06 102.735 322.31 110.735C323.56 118.735 324.68 122.985 324.68 127.865C324.68 132.745 324.3 143.615 322.8 149.365C321.3 155.115 318.17 159.245 317.3 161.615C316.43 163.985 310.17 169.365 308.92 170.865C307.67 172.365 304.54 174.244 301.92 175.744C299.3 177.244 293.67 180.244 293.67 180.244C289.558 183.161 284.704 184.853 279.67 185.125C271.42 185.505 266.54 186.875 259.04 184.755C251.54 182.635 241.41 179.135 238.04 175.505C234.67 171.875 229.29 169.505 226.41 165.255C223.53 161.005 222.66 161.134 222.66 161.134C222.66 161.134 217.03 161.265 213.66 159.265C210.29 157.265 207.28 152.485 206.78 149.645C206.28 146.805 208.4 142.645 210.4 140.645C212.4 138.645 212.65 139.645 212.65 139.645L221.02 153.395L221.77 150.024L225.77 155.524L226 150.125L228.25 150.755C228.25 150.755 224.25 142.385 223.25 139.255C222.25 136.125 218.58 126.125 218.08 120.725Z" fill="#F8C2A0"/>
<path d="M305.79 207.174C309.707 209.283 313.841 210.959 318.12 212.174C324.45 213.844 334.45 218.174 340.95 218.674C345.09 219.032 349.174 219.871 353.12 221.174L357 215.344C357 215.344 363.67 220.344 367.67 225.674C371.67 231.004 372.67 236.344 371.17 239.344C369.67 242.344 362.5 243.674 358.67 243.014C354.84 242.354 341.5 238.344 337.34 235.844C333.18 233.344 317.34 226.174 317.34 226.174L311.34 223.174L298.51 215.504C295.579 215.705 292.647 215.129 290.01 213.834C290.01 213.834 285.84 216.164 282.51 214.834C279.18 213.504 276.51 213.004 276.51 208.004C276.51 208.004 273.84 206.674 273.84 205.174V202.174C273.84 202.174 271.34 200.674 272.67 196.504C274 192.334 278.67 189.504 281.17 189.334C283.67 189.164 289.67 188.664 289.67 188.664C289.67 188.664 286.84 183.494 283.17 181.994C279.5 180.494 274.34 179.324 272.5 178.324C270.66 177.324 270.33 174.824 272.83 173.824C275.33 172.824 281.83 172.994 286.5 175.324C291.17 177.654 296.33 183.324 298 186.994C299.67 190.664 302.33 199.494 302.33 199.494L305.79 207.174Z" fill="#F8C2A0"/>
<path d="M266.72 125.054C270.8 116.054 266.72 100.144 254.9 97.9144C243.08 95.6844 234.44 100.774 230.9 108.134C228.03 114.204 228.4 130.134 243.73 134.254C259.06 138.374 265.12 128.564 266.72 125.054Z" fill="white"/>
<path d="M312.39 122.814C314.03 117.474 311.39 103.974 298.98 100.144C286.57 96.3144 279.68 105.454 278.54 111.004C276.94 118.744 282.37 131.444 289.72 133.674C297.07 135.904 308.79 134.554 312.39 122.814Z" fill="white"/>
<path d="M332.58 131.594C333.06 126.344 330.33 122.724 325.45 120.474L324.32 120.854C324.32 120.854 324.94 129.854 324.82 133.234C324.7 136.614 324.07 141.864 324.07 141.864C324.07 141.864 331.71 141.124 332.58 131.594Z" fill="#F8C2A0"/>
<path d="M94.38 75.9245C96.55 74.8445 98.96 78.4245 98.96 78.4245C98.96 78.4245 98.21 74.8445 98.04 73.7545C97.87 72.6645 97.96 70.5045 99.62 70.1745C101.28 69.8445 103.45 74.0045 104.12 75.2545C104.79 76.5045 108.04 82.6745 108.79 83.7545C109.54 84.8345 114.87 90.7545 114.87 90.7545L116.54 90.3345C116.54 90.3345 110.71 80.0145 110 78.1245C109.29 76.2345 108.17 72.3745 108.58 70.5445C108.99 68.7145 110.25 69.1245 111.58 70.3745C112.91 71.6245 114.66 75.7945 115.08 76.9545C115.5 78.1145 116.83 80.7845 116.83 80.7845L120.66 87.7845L127.83 88.9545L128.75 86.7045L126.17 83.2845C126.17 83.2845 124 77.9545 123.84 76.4545C123.68 74.9545 124.34 74.2045 125.76 73.7845C127.18 73.3645 129.76 78.7045 130.34 79.7845C130.92 80.8645 134.76 85.6145 134.76 85.6145C134.76 85.6145 138.84 90.3645 139.76 91.5345C140.68 92.7045 141.43 96.2845 141.93 98.1145C141.93 98.2245 141.93 98.3345 141.99 98.4345C142.05 98.5345 141.99 98.4345 141.99 98.4845C141.99 98.5345 141.99 98.5345 141.99 98.5645C142.026 98.7695 142.05 98.9766 142.06 99.1845C142.38 101.324 143.64 106.844 143.86 107.614C144.08 108.384 147.98 115.494 147.98 115.494L162.08 140.724C162.08 140.724 171.83 156.854 172.58 157.354C173.33 157.854 185.2 161.484 185.2 161.484L198 165.124C196.5 167.504 195.37 171.124 193.87 174.374C192.37 177.624 191 186.124 191 186.124L174 181.254C174 181.254 166.87 179.004 161.25 176.874C155.63 174.744 153.75 168.874 153.75 168.874L146.62 150.624C146.62 150.624 134.91 123.544 132.26 116.424L131.02 112.854C130.87 112.614 129.53 110.504 128.69 109.344L128.42 109.014L128.22 108.764C127.55 108.014 124.55 107.014 124.55 107.014C124.55 107.014 114.3 104.594 111.55 104.184C108.8 103.774 104.72 100.434 104.72 100.434C104.72 100.434 97.8 94.5145 95.8 92.1845C93.8 89.8545 93.47 86.1845 94.13 85.1845C94.3331 84.906 94.6249 84.7048 94.9574 84.6139C95.2899 84.5231 95.6435 84.548 95.96 84.6845C95.96 84.6845 93.54 80.4345 93.38 79.9345C93.22 79.4345 92.21 77.0145 94.38 75.9245Z" fill="#F8C2A0"/>
<path d="M137.21 61.4244C138.51 60.0844 137.13 58.7544 135.13 58.0044C132.937 57.3102 130.711 56.7261 128.46 56.2544L127.71 58.4244C125.224 59.0011 122.682 59.3096 120.13 59.3444C117.3 59.1744 110.71 58.6744 110.71 58.6744C109.439 58.2447 108.199 57.7268 107 57.1244C106.593 56.6628 106.281 56.126 106.08 55.5444C106.08 55.5444 100.83 55.8744 100 56.6244C99.1701 57.3744 98.9201 58.7044 101.08 60.0444C103.24 61.3844 113.83 63.9644 118.83 63.7944C123.83 63.6244 134.54 64.1744 137.21 61.4244Z" fill="#FBF86E"/>
<path d="M124.38 41.4245C124.38 41.4245 128.55 41.6745 130.3 43.6745C130.3 43.6745 131.22 44.6745 130.63 47.0945C130.04 49.5145 128.21 57.4245 128.05 58.0945C127.89 58.7645 125.22 59.3445 124.3 59.3445C123.38 59.3445 112.3 58.9245 110.72 58.6745C109.14 58.4245 106.97 57.5945 106.47 56.6745C105.97 55.7545 100.55 42.6745 100.55 42.6745C100.55 42.6745 99.97 41.4245 100.55 40.6745C101.13 39.9245 102.8 39.8445 102.8 39.8445C102.8 39.8445 121 40.7645 124.38 41.4245Z" fill="#AED1E9"/>
<path d="M120.88 32.7645C119.37 31.9445 113.88 30.9345 110.96 30.8445C108.04 30.7545 103.96 31.3445 103.46 32.5945C102.96 33.8445 102.79 38.7645 102.79 39.8445C102.79 40.9245 103.04 43.1745 103.04 43.1745C103.04 43.1745 108.04 46.4245 112.71 46.5045C117.38 46.5845 124.46 47.0845 126.54 46.0845C126.54 46.0845 126.12 41.7545 125.87 41.0845C125.62 40.4145 124.54 34.7645 120.88 32.7645Z" fill="#E48F4C"/>
<path d="M111.29 34.1245L106 18.6745C106 18.6745 106.58 17.3445 109 17.7545C109 17.7545 114 28.8345 115.33 33.9245L111.29 34.1245Z" fill="#F3EFEC"/>
<path d="M106 15.4245C106 15.4245 105.5 11.1745 102.25 10.0945C100.16 9.39452 98.42 10.1745 97.5 10.1745C96.4101 9.99683 95.3457 9.68791 94.33 9.25452C94.33 9.25452 97.41 13.0845 98.33 13.5045C99.8827 13.9079 101.476 14.1327 103.08 14.1745C104.172 14.2251 105.209 14.6691 106 15.4245Z" fill="#DA4F4D"/>
<path d="M239.09 122.934L238.97 125.954" stroke="black" stroke-linecap="round" stroke-linejoin="round"/>
<path d="M240.94 124.564L237.58 124.324" stroke="black" stroke-linecap="round" stroke-linejoin="round"/>
<path d="M240.48 123.284L237.81 125.494" stroke="black" stroke-linecap="round" stroke-linejoin="round"/>
<path d="M239.96 125.344L238.3 123.164" stroke="black" stroke-linecap="round" stroke-linejoin="round"/>
<path d="M284.59 121.944L284.18 118.834" stroke="black" stroke-linecap="round" stroke-linejoin="round"/>
<path d="M286.05 120.274L282.72 120.504" stroke="black" stroke-linecap="round" stroke-linejoin="round"/>
<path d="M285.13 119.354L283.64 121.424" stroke="black" stroke-linecap="round" stroke-linejoin="round"/>
<path d="M283.46 119.615L285.3 121.164" stroke="black" stroke-linecap="round" stroke-linejoin="round"/>
<path d="M315.84 129.125C314.883 131.986 313.063 134.48 310.63 136.265C308.164 138.175 305.051 139.05 301.95 138.705" stroke="black" stroke-linecap="round" stroke-linejoin="round"/>
<path d="M233.95 134.224C234.674 135.543 235.674 136.689 236.883 137.585C238.091 138.48 239.478 139.105 240.95 139.414C243.478 139.909 246.061 140.06 248.63 139.864" stroke="black" stroke-linecap="round" stroke-linejoin="round"/>
<path d="M210.5 140.685C205.07 124.075 194.5 93.7445 214.33 67.2345C232.78 42.5445 272.33 41.0045 289.69 34.9845C296.167 32.7662 302.359 29.7923 308.14 26.1245C309.14 34.2645 304.79 41.4545 304.79 41.4545C308.62 40.4545 314.85 35.7045 314.85 35.7045C315.85 40.9745 312.93 49.1145 312.93 49.1145L317.48 44.5645C317 54.3845 323.37 68.5645 326.9 86.0745C331.85 110.665 324.9 120.665 324.9 120.665" stroke="black" stroke-linecap="round" stroke-linejoin="round"/>
<path d="M285.53 184.004C275.76 186.804 263.07 186.414 252.97 183.164C234.86 177.344 223.43 161.764 223.43 161.764" stroke="black" stroke-linecap="round" stroke-linejoin="round"/>
<path d="M212.7 139.664C212.7 139.664 219.36 151.224 221.04 153.664L222.04 150.074C222.04 150.074 223.96 154.384 225.87 155.824L225.63 150.074L228.26 150.794C226.434 147.232 224.834 143.558 223.47 139.794C221.83 135.074 215.65 119.994 218.2 108.494C220.75 96.9945 231.26 77.1245 261 72.3445C290.74 67.5645 305.87 78.4145 316.88 96.6145C326.88 113.134 325.75 142.174 322.31 150.614C319.44 157.614 319.03 162.154 306.57 172.694C303.82 175.014 297.5 178.334 294.24 180.024" stroke="black" stroke-linecap="round" stroke-linejoin="round"/>
<path d="M309 170.884C309 170.884 319.63 171.884 325.29 177.594C334.87 187.174 356.29 209.594 357.59 211.594C358.13 212.404 356.79 216.724 353.59 220.714" stroke="black" stroke-linecap="round" stroke-linejoin="round"/>
<path d="M311.2 224.004C310.9 234.444 312.81 237.194 314.6 245.004C318.27 261.004 325.19 282.754 325.95 285.194C326.71 287.634 313 295.294 299.6 298.404C276.91 303.664 249.7 303.244 247.1 301.404C244.5 299.564 237.25 275.124 235.6 259.124C232.1 225.124 229.3 209.564 229.7 203.404" stroke="black" stroke-linecap="round" stroke-linejoin="round"/>
<path d="M311.45 201.414C311.312 204.22 311.339 207.032 311.53 209.834" stroke="black" stroke-linecap="round" stroke-linejoin="round"/>
<path d="M266.39 124.714C270.47 115.714 266.39 99.8045 254.57 97.5745C242.75 95.3445 234.1 100.434 230.57 107.794C227.7 113.864 228.07 129.794 243.4 133.914C258.73 138.034 264.79 128.234 266.39 124.714Z" stroke="black" stroke-linecap="round" stroke-linejoin="round"/>
<path d="M312.05 122.484C313.69 117.144 311.05 103.644 298.64 99.8145C286.23 95.9845 279.34 105.124 278.2 110.674C276.6 118.414 282.03 131.114 289.38 133.344C296.73 135.574 308.46 134.214 312.05 122.484Z" stroke="black" stroke-linecap="round" stroke-linejoin="round"/>
<path d="M286.7 150.124C286.7 150.124 290.34 155.654 287.14 157.564C283.94 159.474 281.39 151.174 281.39 151.174C281.39 151.174 281.39 158.834 277.32 157.174C273.45 155.584 275.96 147.034 275.96 147.034" stroke="black" stroke-linecap="round" stroke-linejoin="round"/>
<path d="M274.05 91.1844C274.05 91.1844 276.05 97.6445 280.44 99.4845C284.83 101.324 289.53 99.3244 289.53 99.3244" stroke="black" stroke-linecap="round" stroke-linejoin="round"/>
<path d="M261.28 92.4645C261.28 92.4645 262.28 97.3245 249.87 97.0045" stroke="black" stroke-linecap="round" stroke-linejoin="round"/>
<path d="M280 128.704C280 128.704 288.6 131.224 287.75 135.754C287.1 139.204 280.95 139.754 276.41 136.604" stroke="black" stroke-linecap="round" stroke-linejoin="round"/>
<path d="M324 142.124C324 142.124 332.62 140.204 332.62 130.124C332.62 123.874 325.43 120.544 325.43 120.544" stroke="black" stroke-linecap="round" stroke-linejoin="round"/>
<path d="M223.92 160.804C223.92 160.804 212.42 162.244 208.59 154.574C203.78 144.944 211.46 139.724 211.46 139.724" stroke="black" stroke-linecap="round" stroke-linejoin="round"/>
<path d="M232.53 171.334C232.53 171.334 201.88 163.654 199.76 164.174C193.7 165.664 189.32 191.174 191.14 192.914C192.96 194.654 229.46 205.374 229.46 205.374" stroke="black" stroke-linecap="round" stroke-linejoin="round"/>
<path d="M305.53 207.124C327.78 218.234 358.53 221.724 358.53 221.724" stroke="black" stroke-linecap="round" stroke-linejoin="round"/>
<path d="M298 215.124C305.25 220.624 345.92 241.954 359.58 242.954C369.18 243.654 372.91 239.284 371.98 235.124C371.05 230.964 367.83 224.264 357.61 215.324" stroke="black" stroke-linecap="round" stroke-linejoin="round"/>
<path d="M290.7 189.004C290.7 189.004 283.87 188.084 279.47 189.754C273.54 192.004 270.63 198.854 273.54 202.174" stroke="black" stroke-linecap="round" stroke-linejoin="round"/>
<path d="M287.05 202.834C287.05 202.834 276.67 201.354 276.35 208.474C276.18 212.104 280.66 215.234 285.53 214.994C287.162 215.019 288.772 214.615 290.2 213.824" stroke="black" stroke-linecap="round" stroke-linejoin="round"/>
<path d="M283.54 209.854C287.93 213.445 293.347 215.546 299.01 215.854" stroke="black" stroke-linecap="round" stroke-linejoin="round"/>
<path d="M276 208.124C276 208.124 271.67 204.794 274.81 200.324C278.32 195.324 285.19 195.434 289.76 195.584" stroke="black" stroke-linecap="round" stroke-linejoin="round"/>
<path d="M289.43 188.314C287.504 184.841 284.347 182.215 280.58 180.954C276.58 179.654 270.98 179.294 271.09 176.224C271.25 171.684 281.22 172.894 285.97 175.224C289.61 177.034 297.11 182.004 299.63 191.564C300.73 195.744 304.14 204.804 305.78 206.854" stroke="black" stroke-linecap="round" stroke-linejoin="round"/>
<path d="M283.22 247.524L273.43 231.014L281.71 230.594L270.65 207.194L268.79 215.174L258.14 209.814L268.54 227.054L263.35 227.824L276.29 245.084L268.16 244.864L284.15 265.594L277.14 247.404L283.22 247.524Z" fill="#FFE23F"/>
<path d="M283.11 247.364L273.32 230.864L281.6 230.444L270.54 207.044L268.69 215.014L258.03 209.664L268.43 226.894L263.24 227.674L276.18 244.934L268.06 244.714L284.04 265.444L277.03 247.254L283.11 247.364Z" stroke="black" stroke-linecap="round" stroke-linejoin="round"/>
<path d="M105.6 55.5945C103.81 55.9245 98.96 55.5945 99.21 58.0945C99.46 60.5945 106.71 63.0945 118.21 63.5945C125.92 63.9345 137.71 63.3445 137.71 60.5945C137.71 58.8445 134.96 57.3445 128.57 56.2745" stroke="black" stroke-linecap="round" stroke-linejoin="round"/>
<path d="M102.67 39.8845C102.67 39.8845 99.8801 40.4145 100.18 41.6945C100.48 42.9745 106.63 56.8745 106.63 56.8745C106.63 56.8745 107.78 58.6745 111.96 58.8745C114.22 59.0445 127 60.1245 128 58.1245L130.82 45.2245C130.82 45.2245 130.4 42.3945 125.82 41.6345" stroke="black" stroke-linecap="round" stroke-linejoin="round"/>
<path d="M102.66 42.9745C102.66 42.9745 104.05 44.7745 109.14 45.7845C115.65 47.0745 127.2 47.2645 128.85 44.9345" stroke="black" stroke-linecap="round" stroke-linejoin="round"/>
<path d="M109.37 31.1245C106.3 31.2845 103.76 31.8645 103.43 33.1245C102.749 36.1139 102.643 39.2057 103.12 42.2345" stroke="black" stroke-linecap="round" stroke-linejoin="round"/>
<path d="M126.54 45.4645C126.75 43.5745 123.93 32.8445 119.32 31.8345C117.802 31.5274 116.265 31.3236 114.72 31.2245" stroke="black" stroke-linecap="round" stroke-linejoin="round"/>
<path d="M115.36 33.9044C115.36 33.9044 109.54 17.6644 108.73 17.6644C107.92 17.6644 105.86 17.8444 105.9 18.6644C105.94 19.4844 111.48 33.8744 111.48 33.8744" stroke="black" stroke-linecap="round" stroke-linejoin="round"/>
<path d="M117.48 34.3245C117.48 34.3245 111.48 33.4845 110.04 34.3245" stroke="black" stroke-linecap="round" stroke-linejoin="round"/>
<path d="M106.25 15.7045C106.25 15.7045 104.73 8.49446 99.4 9.89446C94.07 11.2945 93.18 6.82446 93.18 6.82446C93.18 6.82446 95.93 11.9745 97.53 12.9945C100.75 15.0345 105.73 13.4745 106.25 15.7045Z" stroke="black" stroke-linecap="round" stroke-linejoin="round"/>
<path d="M106.46 48.3445L108.92 55.7045" stroke="black" stroke-linecap="round" stroke-linejoin="round"/>
<path d="M125.39 46.7545L125.12 56.7245" stroke="black" stroke-linecap="round" stroke-linejoin="round"/>
<path d="M116.72 90.5144C116.72 90.5144 111.83 91.0144 109.57 94.0144" stroke="black" stroke-linecap="round" stroke-linejoin="round"/>
<path d="M105.8 95.0144C103.54 93.5144 99.02 88.5144 97.89 86.7644C96.76 85.0144 93.89 83.0144 93.75 86.2644C93.61 89.5144 96.11 93.1544 99.75 96.1844C106.15 101.434 107.44 103.934 114.97 104.934C120.48 105.664 125.11 106.764 127.56 108.264C130.01 109.764 131.38 114.044 131.38 114.044C131.38 114.044 150.28 159.244 153.1 167.044C155.92 174.844 159 176.104 165.87 178.544C172.74 180.984 191.1 186.204 191.1 186.204" stroke="black" stroke-linecap="round" stroke-linejoin="round"/>
<path d="M96 84.5145C96 84.5145 91.75 78.8445 93.45 76.6845C95.15 74.5245 97.74 76.9145 99.76 79.7645C101.11 81.6845 106.64 89.7645 110.76 92.0145" stroke="black" stroke-linecap="round" stroke-linejoin="round"/>
<path d="M99.2101 78.7645C99.2101 78.7645 96.4601 71.3445 99.2101 70.2645C101.53 69.3445 104.21 75.7745 105.42 78.0145C108.29 83.5145 112.53 88.9345 114.79 90.6845" stroke="black" stroke-linecap="round" stroke-linejoin="round"/>
<path d="M116.15 89.7645C116.15 89.7645 110.55 80.4145 109.75 77.7645C108.62 74.0145 107.49 70.0145 109.37 69.2645C111.25 68.5145 114.27 74.5145 115.02 77.0145C115.77 79.5145 120.86 87.7645 120.86 87.7645C120.86 87.7645 125.19 88.2645 127.86 88.7645" stroke="black" stroke-linecap="round" stroke-linejoin="round"/>
<path d="M127.82 95.2645C127.079 92.4119 127.414 89.3863 128.76 86.7645C127.63 86.2645 122.76 78.3445 123.95 75.5145C124.95 73.0945 126.95 73.6845 128.57 77.0145C131.3 82.6345 133.84 84.5145 136.86 87.7645C139.452 90.7537 141.205 94.3768 141.94 98.2645C142.342 101.936 143.185 105.545 144.45 109.014C145.93 112.514 170.28 155.844 172.45 157.184C174.62 158.524 197.83 165.184 197.83 165.184" stroke="black" stroke-linecap="round" stroke-linejoin="round"/>
<path d="M115.45 97.9245C115.45 97.9245 126.37 96.4245 129.95 100.174" stroke="black" stroke-linecap="round" stroke-linejoin="round"/>
<path d="M111.96 51.3445L113.71 58.5945" stroke="black" stroke-linecap="round" stroke-linejoin="round"/>
<path d="M578.79 332.174L570.46 325.844L562.63 320.344L552.63 321.674L534.13 327.174C534.13 327.174 524.13 330.004 521.3 330.504C518.47 331.004 515.63 331.674 514.13 331.834C512.63 331.994 508.46 334.834 508.63 338.004C507.854 339.764 507.293 341.61 506.96 343.504C506.96 343.504 504.13 349.004 500.13 351.004C501.202 352.822 502.685 354.363 504.46 355.504C506.96 356.834 509.79 358.674 509.79 358.674C511.77 357.929 513.849 357.48 515.96 357.344C518.63 357.344 521.79 357.514 521.79 357.514C522.575 358.151 523.487 358.614 524.464 358.872C525.442 359.131 526.463 359.179 527.46 359.014C530.63 358.344 551.79 352.344 551.79 352.344L579.29 344.514L578.79 332.174Z" fill="#D5CABF"/>
<path d="M481.63 354.514C481.63 354.514 487.13 352.344 488.3 351.014C489.47 349.684 494.8 345.844 496.13 344.844C497.46 343.844 501.46 342.844 504.96 346.844L500.63 351.344C500.63 351.344 502.63 354.514 504.46 355.514C506.29 356.514 509.79 358.684 509.79 358.684C511.748 357.866 513.839 357.416 515.96 357.354C517.302 357.263 518.651 357.374 519.96 357.684C519.96 357.684 524.29 360.854 524.96 363.684C525.63 366.514 522.13 368.684 522.13 368.684C522.49 369.83 522.541 371.05 522.278 372.221C522.014 373.393 521.446 374.474 520.63 375.354C520.504 376.877 520.05 378.354 519.3 379.684C518.619 380.769 517.544 381.547 516.3 381.854C516.175 382.894 515.827 383.893 515.28 384.786C514.733 385.678 513.999 386.442 513.13 387.024C510.752 388.369 508.019 388.952 505.3 388.694C503.3 388.524 498.97 386.524 496.8 385.024C494.63 383.524 487.3 378.194 485.97 377.694C484.64 377.194 476.47 373.364 476.47 373.364C476.47 373.364 481 362.174 481.63 354.514Z" fill="#F8C2A0"/>
<path d="M552.79 327.674C552.79 327.674 551.46 315.504 550.29 311.174C549.12 306.844 547.12 296.844 541.46 294.844C535.8 292.844 530.13 295.174 529.79 301.344C529.867 305.102 530.313 308.843 531.12 312.514C532.014 316.917 533.183 321.258 534.62 325.514C535.29 327.014 536.12 329.184 536.12 329.184C536.12 329.184 540.95 332.514 544.12 331.514C547.29 330.514 552.13 329.674 552.79 327.674Z" fill="#49E61D"/>
<path d="M533.46 337.674L527.96 332.344L520.46 334.174L526.46 340.014L533.46 337.674Z" fill="#FF0000"/>
<path d="M517.63 343.014C518.14 340.564 516.8 339.184 514.46 338.184C512.12 337.184 509.96 336.514 507.96 338.854C505.96 341.194 507.96 345.024 507.96 345.024C507.96 345.024 509.13 348.354 510.79 348.524C512.371 348.463 513.89 347.894 515.122 346.902C516.354 345.909 517.234 344.546 517.63 343.014Z" fill="#3A3A3D"/>
<path d="M471.79 351.594C468.79 350.594 419.54 343.844 419.54 343.844L382.29 338.844L348.54 337.594C348.54 337.594 344.54 345.594 343.54 348.594C342.54 351.594 344.04 356.594 347.54 357.344C351.04 358.094 376.29 363.594 376.29 363.594L420.29 370.344L453.54 374.594L463.79 375.844C463.79 375.844 467 373.594 468 371.124C469 368.654 471.5 359.374 472.25 357.124C473 354.874 471.79 351.594 471.79 351.594Z" fill="white"/>
<path d="M374.29 349.014L382.29 338.844L409.29 287.014C409.29 287.014 411.66 276.354 406.29 271.344C396.29 262.014 378.96 275.674 378.96 275.674L358.29 316.344C358.29 316.344 345.29 343.674 343.96 347.014C343.538 347.994 343.324 349.051 343.334 350.118C343.343 351.185 343.575 352.238 344.014 353.21C344.454 354.183 345.091 355.052 345.886 355.764C346.681 356.476 347.615 357.014 348.63 357.344C353.96 359.344 372.96 362.674 372.96 362.674L374.29 349.014Z" fill="white"/>
<path d="M481 353.974L476.5 353.354L472 352.734C472.192 355.461 471.979 358.2 471.37 360.864C470.37 364.864 466.62 373.114 466.62 373.114L474.74 375.114C476.139 373.127 477.313 370.991 478.24 368.744C479.17 366.124 481.54 357.474 481 353.974Z" fill="#FF0000"/>
<path d="M375.43 338.124C375.43 338.124 461.93 349.124 470.93 351.624C475.05 352.764 467.93 376.624 462.93 375.624C457.93 374.624 369.26 364.954 348.26 357.294C343.32 355.494 341.97 351.404 345.43 343.624C354.93 322.294 379.26 275.954 379.26 275.954" stroke="black" stroke-linecap="round" stroke-linejoin="round"/>
<path d="M407 292.344C402.67 299.674 382.47 338.634 382.47 338.634" stroke="black" stroke-linecap="round" stroke-linejoin="round"/>
<path d="M471.93 352.634L481.29 353.844C481.29 353.844 480.43 368.134 474.93 375.134L466.93 373.134" stroke="black" stroke-linecap="round" stroke-linejoin="round"/>
<path d="M500.26 351.304C503.59 348.974 506.46 345.084 506.89 343.794" stroke="black" stroke-linecap="round" stroke-linejoin="round"/>
<path d="M553.11 321.584C556.241 320.872 559.409 320.335 562.6 319.974C562.6 319.974 578.28 331.184 578.76 332.234C579.24 333.284 579.36 344.634 579.36 344.634C579.36 344.634 532.62 357.634 528.23 358.844C523.84 360.054 521.95 357.404 521.95 357.404C521.95 357.404 515.26 356.654 510.26 358.314" stroke="black" stroke-linecap="round" stroke-linejoin="round"/>
<path d="M508.76 337.304C508.76 337.304 510.08 332.304 515.03 331.784C517.18 331.544 525.55 329.334 534.32 326.904" stroke="black" stroke-linecap="round" stroke-linejoin="round"/>
<path d="M520.84 353.964C520 349.774 522.38 347.664 525.25 346.294C528.12 344.924 576.86 333.524 576.86 333.524" stroke="black" stroke-linecap="round" stroke-linejoin="round"/>
<path d="M553.43 327.124C553.43 327.124 555.27 328.124 553.97 331.294C553.4 332.664 550.33 334.564 546.05 335.394C539.6 336.654 536 333.794 535.19 332.244C534.38 330.694 536.09 329.054 536.09 329.054C536.09 329.054 538.27 332.324 545.44 330.984C548.434 330.541 551.222 329.195 553.43 327.124Z" fill="#AED1E9" stroke="black" stroke-linecap="round" stroke-linejoin="round"/>
<path d="M527.92 332.224L520.55 334.014L526.5 340.064L533.36 337.824L527.92 332.224Z" stroke="black" stroke-linecap="round" stroke-linejoin="round"/>
<path d="M515.24 339.774C514.89 337.684 511.77 336.594 509.59 337.774C506.43 339.474 506.53 343.904 508.26 345.204C509.99 346.504 516.17 345.404 515.24 339.774Z" stroke="black" stroke-linecap="round" stroke-linejoin="round"/>
<path d="M552.6 327.464C552.6 320.634 548.77 301.794 544.96 297.184C542.31 293.984 538.96 293.894 535.44 294.654C531.92 295.414 530.15 298.134 529.54 301.154C529.04 303.644 533.14 325.384 536.27 328.794" stroke="black" stroke-linecap="round" stroke-linejoin="round"/>
<path d="M507.6 344.964C507.6 344.964 508.6 347.294 509.6 347.964C511.28 349.084 515.03 348.464 517.39 344.094C518.39 342.144 517.1 338.674 514.99 338.854" stroke="black" stroke-linecap="round" stroke-linejoin="round"/>
<path d="M504.26 346.304C504.26 346.304 500.15 340.554 493.26 346.844C485.26 354.164 481.26 354.674 481.26 354.674" stroke="black" stroke-linecap="round" stroke-linejoin="round"/>
<path d="M498.93 350.124C498.93 350.124 504.43 357.124 509.93 358.624" stroke="black" stroke-linecap="round" stroke-linejoin="round"/>
<path d="M519.6 357.304C519.6 357.304 526.93 361.634 524.43 366.134C521.93 370.634 511.43 369.634 511.43 369.634" stroke="black" stroke-linecap="round" stroke-linejoin="round"/>
<path d="M522.1 368.464C522.1 368.464 525.73 377.964 510.6 377.964" stroke="black" stroke-linecap="round" stroke-linejoin="round"/>
<path d="M476.6 373.304C481.234 375.16 485.656 377.507 489.79 380.304C495.79 384.474 501.93 389.304 507.26 388.594C512.59 387.884 515.93 385.264 516.26 382.264" stroke="black" stroke-linecap="round" stroke-linejoin="round"/>
<path d="M505.93 383.304C505.93 383.304 513.26 384.304 518.26 380.304C518.942 379.798 519.505 379.147 519.908 378.399C520.31 377.651 520.543 376.823 520.59 375.974" stroke="black" stroke-linecap="round" stroke-linejoin="round"/>
<path d="M548.29 329.844C548.29 329.844 540.29 311.594 542.04 306.594C543.79 301.594 546.54 304.594 544.79 308.594C543.04 312.594 537.29 312.594 535.04 309.844C532.79 307.094 534.04 305.844 536.04 306.594C538.04 307.344 542.29 326.844 542.54 330.594" stroke="black" stroke-linecap="round" stroke-linejoin="round"/>
</svg>
