<svg width="192" height="68" viewBox="0 0 96 34" fill="none" xmlns="http://www.w3.org/2000/svg">
<rect x="1.37238" y="6.87209" width="92" height="26" rx="13" transform="rotate(-1.77298 1.37238 6.87209)" fill="#E53935" stroke="#9D0000" stroke-width="2"/>
<rect x="0.79526" y="4.38874" width="93" height="27" rx="13.5" transform="rotate(-1.77298 0.79526 4.38874)" fill="#E53935" stroke="#9D0000"/>
<path fill-rule="evenodd" clip-rule="evenodd" d="M19.5266 14.2981C19.787 14.5681 20.2365 15.2658 19.9358 15.5026C19.9358 15.5026 19.1374 16.3643 18.2598 17.0552C17.3823 17.7461 16.0098 18.6256 16.0098 18.6256C16.0098 18.6256 17.6163 19.5484 18.3564 20.1759C19.0966 20.8034 19.7424 21.2683 19.7424 21.2683C20.0572 21.486 20.0041 21.9634 19.7809 22.5121C19.5376 22.7977 19.437 23.1794 19.1222 22.9617C19.1222 22.9617 16.6474 21.0938 15.5927 20.3644C14.5381 19.635 14.1223 19.4305 14.1223 19.4305C13.9514 19.3123 13.146 18.9356 13.14 18.7407C13.1339 18.5458 13.5266 18.3488 13.69 18.2202C13.69 18.2202 15.4525 16.9209 16.46 16.1276C17.4675 15.3344 18.8497 14.1578 18.8497 14.1578C19.1505 13.921 19.2662 14.0282 19.5266 14.2981Z" fill="white"/>
<path d="M37.8477 18.3878C37.7649 18.317 37.7033 18.2236 37.663 18.1074C37.6227 17.9913 37.6006 17.8709 37.5968 17.7463C37.5927 17.6143 37.6072 17.4892 37.6402 17.3708C37.6803 17.2448 37.7358 17.1404 37.8066 17.0575C37.8025 16.9255 37.7889 16.7242 37.7659 16.4534C37.7499 16.1751 37.7297 15.8786 37.7053 15.5639C37.6809 15.2492 37.6604 14.9416 37.6437 14.6413C37.6271 14.341 37.6196 14.0992 37.6213 13.9157C37.6543 13.7973 37.7206 13.6888 37.8203 13.5904C37.9197 13.4846 38.0382 13.4002 38.1756 13.3373C38.3204 13.2741 38.477 13.2362 38.6454 13.2237C38.8135 13.2038 38.9826 13.2169 39.1528 13.263C39.2146 13.3638 39.2636 13.5237 39.2997 13.7427C39.3432 13.9614 39.3769 14.2209 39.4009 14.5209C39.4321 14.8208 39.4571 15.1538 39.4758 15.5201C39.5016 15.8788 39.5243 16.2559 39.5438 16.6515C39.8659 16.6269 40.2682 16.5887 40.7509 16.5371C41.2333 16.4782 41.8142 16.4015 42.4936 16.3071C42.4808 16.1314 42.468 15.9557 42.4553 15.78C42.4498 15.6041 42.4401 15.41 42.4262 15.1976C42.4197 14.9851 42.4124 14.7505 42.4045 14.494C42.3965 14.2374 42.3873 13.9406 42.3769 13.6034C42.437 13.4108 42.5461 13.2643 42.7045 13.1641C42.8628 13.0638 43.0372 13.0107 43.2278 13.0048C43.3744 13.0003 43.5184 13.0325 43.66 13.1015C43.8013 13.1631 43.9142 13.255 43.9987 13.3771C44.0371 13.6694 44.0729 13.9985 44.1063 14.3643C44.1394 14.7227 44.1658 15.1034 44.1856 15.5064C44.2054 15.9093 44.222 16.327 44.2354 16.7594C44.2559 17.1843 44.2726 17.6057 44.2856 18.0235C44.3005 18.5072 44.3151 18.9763 44.3291 19.4308C44.3432 19.8852 44.3633 20.2992 44.3896 20.6725C44.3588 20.8642 44.2644 21.0139 44.1063 21.1215C43.9482 21.2291 43.7629 21.2862 43.5504 21.2928C43.3818 21.298 43.2119 21.2629 43.0409 21.1875C42.8771 21.1119 42.7521 20.9837 42.6658 20.8029C42.659 20.583 42.6517 20.3485 42.644 20.0993C42.6434 19.8425 42.639 19.5822 42.6308 19.3183C42.63 19.0542 42.6256 18.7939 42.6177 18.5373C42.6097 18.2808 42.6022 18.0389 42.5952 17.8117C42.3613 17.8409 42.0837 17.8789 41.7623 17.9255C41.4483 17.9719 41.1379 18.0182 40.8312 18.0644C40.5316 18.103 40.2614 18.1444 40.0206 18.1885C39.7796 18.2253 39.6155 18.2561 39.5282 18.2808C39.5156 18.3472 39.5128 18.494 39.5199 18.7213C39.534 18.9409 39.5489 19.1862 39.5647 19.4572C39.5804 19.7282 39.5961 19.9992 39.6118 20.2701C39.6273 20.5338 39.6373 20.7389 39.6419 20.8855C39.6453 20.9955 39.6226 21.0915 39.5738 21.1738C39.525 21.256 39.461 21.324 39.382 21.3778C39.3032 21.4389 39.2128 21.4821 39.1109 21.5072C39.0092 21.5397 38.9033 21.5577 38.7934 21.5611C38.6248 21.5663 38.4662 21.5382 38.3175 21.4768C38.1691 21.4227 38.0635 21.3269 38.0005 21.1894L37.8477 18.3878ZM45.5486 20.9008C45.5319 20.8353 45.5565 20.6841 45.6226 20.4473C45.6884 20.2031 45.7783 19.9069 45.8922 19.5585C46.0059 19.2028 46.1405 18.8098 46.2959 18.3794C46.4585 17.9415 46.6282 17.4997 46.8052 17.0541C46.9819 16.601 47.1591 16.1627 47.3367 15.739C47.5141 15.3079 47.6818 14.9176 47.8397 14.5679C47.8395 14.5605 47.8357 14.557 47.8284 14.5572C47.8208 14.5501 47.817 14.5429 47.8167 14.5355C47.7778 14.4634 47.7352 14.3913 47.689 14.3194C47.6501 14.2472 47.599 14.1388 47.5358 13.994C47.6516 13.7043 47.7913 13.4762 47.9549 13.3097C48.1182 13.1359 48.3462 13.0334 48.6387 13.0024C48.8013 13.0414 48.9812 13.1642 49.1783 13.3709C49.3755 13.5775 49.5742 13.8355 49.7746 14.1448C49.9822 14.4538 50.1911 14.8032 50.4013 15.1929C50.6115 15.5826 50.8146 15.9835 51.0108 16.3956C51.2143 16.8075 51.4068 17.2198 51.5883 17.6323C51.7696 18.0376 51.9317 18.4141 52.0745 18.7618C52.2247 19.1094 52.3478 19.4137 52.4439 19.6748C52.5472 19.9284 52.6226 20.1132 52.6702 20.2291C52.6294 20.3331 52.5556 20.4381 52.4488 20.5441C52.3492 20.6426 52.231 20.7343 52.0942 20.8192C51.9645 20.8966 51.827 20.9559 51.6815 20.9971C51.5436 21.0454 51.4193 21.0602 51.3087 21.0416C51.161 20.7747 51.0283 20.5147 50.9104 20.2616C50.7998 20.0082 50.6975 19.7839 50.6034 19.5887L50.602 19.5448C50.1274 19.6182 49.6163 19.6963 49.0686 19.7793C48.528 19.8548 48.013 19.9294 47.5238 20.0032C47.5095 20.0183 47.4956 20.0408 47.4818 20.0706C47.4752 20.0928 47.4582 20.1373 47.4309 20.2042C47.411 20.2708 47.3773 20.3673 47.3298 20.4935C47.2824 20.6197 47.2181 20.7941 47.1369 21.0167C47.0888 21.1209 47.0069 21.2005 46.8912 21.2554C46.7757 21.3177 46.6447 21.3511 46.4981 21.3556C46.3588 21.3599 46.2077 21.3353 46.0446 21.2816C45.8891 21.2351 45.751 21.1586 45.6303 21.0523L45.5486 20.9008ZM49.9833 18.0452C49.9197 17.8858 49.8446 17.712 49.7581 17.5239C49.6789 17.3356 49.5924 17.1475 49.4985 16.9597C49.4047 16.7718 49.311 16.5913 49.2176 16.4181C49.1313 16.2374 49.0493 16.0748 48.9714 15.9305C48.951 15.9825 48.9274 16.0492 48.9006 16.1308C48.8735 16.205 48.826 16.3275 48.7579 16.4984C48.6898 16.6692 48.5981 16.9068 48.4828 17.2112C48.3673 17.5083 48.2145 17.9055 48.0245 18.403L49.9833 18.0452ZM53.3454 19.845C53.3045 19.4721 53.3463 19.1627 53.4707 18.9167C53.6025 18.6705 53.8347 18.4689 54.1673 18.3119C54.3331 18.4535 54.4988 18.5914 54.6644 18.7257C54.8297 18.8526 54.9984 18.9685 55.1704 19.0732C55.3495 19.1704 55.5353 19.249 55.7279 19.3091C55.9276 19.3616 56.1375 19.3844 56.3574 19.3776C56.5406 19.372 56.738 19.3512 56.9497 19.3153C57.1685 19.2718 57.3681 19.2033 57.5486 19.1096C57.7289 19.0087 57.8789 18.8756 57.9985 18.7105C58.1179 18.5381 58.1735 18.3199 58.1653 18.0561C58.1606 17.9021 58.1125 17.7716 58.0211 17.6643C57.9369 17.5495 57.8314 17.4611 57.7048 17.399C57.5852 17.3293 57.4554 17.282 57.3152 17.257C57.1821 17.2244 57.0679 17.2096 56.9727 17.2126C56.7601 17.2191 56.5522 17.2586 56.349 17.3309C56.1532 17.403 55.9176 17.4947 55.6422 17.6059C55.4356 17.5683 55.2421 17.4789 55.0616 17.3377C54.8885 17.1964 54.7983 17.0084 54.791 16.7738C54.7883 16.6859 54.7999 16.5865 54.8258 16.4756C54.8589 16.3572 54.9244 16.2231 55.0225 16.0733C55.3807 16.0329 55.7123 15.9603 56.0172 15.8555C56.3294 15.7504 56.5969 15.6211 56.8196 15.4675C57.0496 15.3136 57.2276 15.1393 57.3537 14.9447C57.4795 14.7427 57.539 14.5317 57.5322 14.3119C57.5258 14.1066 57.4371 13.9663 57.266 13.8909C57.1021 13.8079 56.8918 13.7704 56.6352 13.7783C56.386 13.7861 56.153 13.841 55.936 13.9431C55.7191 14.0452 55.5212 14.1723 55.3425 14.3246C55.1638 14.4769 55.0003 14.647 54.8521 14.835C54.7109 15.0155 54.5842 15.1881 54.4719 15.353C54.362 15.3564 54.2401 15.3309 54.1064 15.2763C53.9724 15.2144 53.8453 15.1376 53.7251 15.046C53.6119 14.9468 53.5133 14.8398 53.429 14.725C53.3518 14.6027 53.3079 14.4866 53.2972 14.3769C53.4915 14.0187 53.7169 13.7146 53.9733 13.4646C54.2368 13.2069 54.5128 13.0003 54.8015 12.8446C55.0972 12.6814 55.398 12.562 55.7038 12.4865C56.0094 12.4037 56.3125 12.3577 56.613 12.3484C56.9282 12.3386 57.2336 12.3695 57.5293 12.441C57.8321 12.505 58.0996 12.6141 58.3318 12.7684C58.5714 12.9224 58.7646 13.1218 58.9116 13.3667C59.0586 13.6116 59.1374 13.9063 59.1481 14.2508C59.1596 14.6246 59.0889 14.946 58.9358 15.2149C58.7827 15.4837 58.5846 15.721 58.3415 15.9266C58.5419 16.0011 58.7321 16.1016 58.9121 16.2281C59.0995 16.3543 59.2619 16.5071 59.3995 16.6862C59.5369 16.858 59.6458 17.0564 59.7261 17.2814C59.8138 17.5061 59.8617 17.7504 59.8699 18.0143C59.8844 18.4834 59.8056 18.9004 59.6334 19.2652C59.4613 19.63 59.2177 19.9384 58.9027 20.1903C58.595 20.4419 58.2269 20.6367 57.7983 20.7747C57.3697 20.9127 56.9025 20.9895 56.3967 21.0052C55.869 21.0215 55.3418 20.9388 54.8153 20.757C54.2887 20.5752 53.7988 20.2712 53.3454 19.845ZM60.4838 20.4385C60.4671 20.3729 60.4918 20.2218 60.5578 19.985C60.6236 19.7408 60.7135 19.4445 60.8274 19.0962C60.9412 18.7405 61.0757 18.3475 61.2312 17.9171C61.3937 17.4792 61.5634 17.0374 61.7404 16.5917C61.9171 16.1387 62.0943 15.7004 62.272 15.2767C62.4494 14.8456 62.617 14.4553 62.775 14.1055C62.7747 14.0982 62.771 14.0947 62.7636 14.0949C62.7561 14.0878 62.7522 14.0806 62.752 14.0732C62.713 14.0011 62.6705 13.929 62.6242 13.8571C62.5853 13.7849 62.5342 13.6765 62.4711 13.5317C62.5868 13.242 62.7265 13.0139 62.8901 12.8474C63.0535 12.6736 63.2814 12.5711 63.5739 12.5401C63.7365 12.5791 63.9164 12.7019 64.1136 12.9086C64.3107 13.1152 64.5095 13.3732 64.7098 13.6825C64.9175 13.9915 65.1264 14.3409 65.3365 14.7306C65.5467 15.1203 65.7499 15.5212 65.946 15.9333C66.1495 16.3452 66.3421 16.7575 66.5236 17.17C66.7049 17.5753 66.8669 17.9518 67.0098 18.2995C67.1599 18.6471 67.2831 18.9514 67.3792 19.2125C67.4824 19.4661 67.5578 19.6509 67.6054 19.7668C67.5646 19.8708 67.4908 19.9758 67.3841 20.0818C67.2844 20.1803 67.1662 20.272 67.0294 20.3569C66.8997 20.4343 66.7622 20.4936 66.6167 20.5348C66.4788 20.5831 66.3545 20.5979 66.2439 20.5793C66.0963 20.3124 65.9635 20.0524 65.8456 19.7993C65.735 19.5459 65.6327 19.3216 65.5386 19.1264L65.5373 19.0825C65.0626 19.1558 64.5515 19.234 64.0038 19.317C63.4632 19.3924 62.9483 19.4671 62.459 19.5409C62.4448 19.556 62.4308 19.5785 62.417 19.6083C62.4104 19.6305 62.3934 19.675 62.3662 19.7419C62.3462 19.8085 62.3125 19.905 62.2651 20.0312C62.2176 20.1574 62.1533 20.3318 62.0722 20.5544C62.024 20.6586 61.9421 20.7382 61.8264 20.7931C61.711 20.8554 61.5799 20.8888 61.4333 20.8933C61.2941 20.8976 61.1429 20.8729 60.9798 20.8193C60.8243 20.7728 60.6862 20.6963 60.5655 20.59L60.4838 20.4385ZM64.9186 17.5829C64.8549 17.4234 64.7799 17.2497 64.6933 17.0616C64.6141 16.8733 64.5276 16.6852 64.4338 16.4974C64.3399 16.3095 64.2463 16.129 64.1529 15.9558C64.0666 15.775 63.9845 15.6125 63.9067 15.4682C63.8863 15.5202 63.8627 15.5869 63.8358 15.6685C63.8088 15.7427 63.7612 15.8652 63.6931 16.0361C63.6251 16.2069 63.5334 16.4445 63.4181 16.7489C63.3025 17.046 63.1497 17.4432 62.9597 17.9407L64.9186 17.5829ZM68.2031 19.011C68.3112 18.9489 68.4457 18.9081 68.6065 18.8884C68.767 18.8614 68.9351 18.8379 69.1105 18.8178C69.2301 18.6527 69.3337 18.444 69.4213 18.1919C69.5089 17.9397 69.5848 17.6659 69.649 17.3704C69.7203 17.0674 69.7766 16.7539 69.818 16.4298C69.8591 16.0983 69.8932 15.7781 69.9203 15.4691C69.9472 15.1528 69.9674 14.8587 69.981 14.5868C69.9946 14.3149 70.0057 14.0798 70.0142 13.8815C69.9631 13.8904 69.8827 13.9002 69.773 13.9109C69.6633 13.9217 69.5938 13.9275 69.5645 13.9284C69.392 13.809 69.2631 13.6736 69.1777 13.5222C69.0994 13.3632 69.0579 13.2067 69.0531 13.0528C69.0497 12.9429 69.0645 12.8287 69.0975 12.7103C69.1379 12.5916 69.2041 12.4795 69.2962 12.374C69.5656 12.3069 69.9085 12.2449 70.325 12.188C70.7485 12.1236 71.1869 12.066 71.6403 12.0153C72.1009 11.9643 72.5471 11.9212 72.9789 11.8858C73.418 11.8502 73.7876 11.8204 74.0877 11.7964C74.2285 11.8434 74.348 11.9094 74.446 11.9944C74.5511 12.0719 74.6352 12.183 74.6984 12.3278C74.7357 12.5834 74.7673 12.8943 74.7933 13.2603C74.8191 13.619 74.8396 14.0439 74.8548 14.535C74.8773 15.0259 74.8982 15.5828 74.9175 16.2059C74.9368 16.8289 74.9547 17.5254 74.9712 18.2952C75.1753 18.2522 75.3879 18.2493 75.6092 18.2865C75.8302 18.3163 76.0557 18.3717 76.2857 18.4526C76.2902 18.5992 76.2922 18.7826 76.2917 19.0027C76.2912 19.2228 76.2873 19.454 76.2801 19.6964C76.2803 19.9385 76.2803 20.1769 76.2803 20.4117C76.2878 20.6536 76.298 20.8661 76.311 21.0491C76.2276 21.1984 76.1394 21.3112 76.0463 21.3874C75.9533 21.4637 75.8486 21.5183 75.7323 21.5512C75.6234 21.5913 75.5031 21.6133 75.3711 21.6174C75.2394 21.6288 75.1003 21.6368 74.9537 21.6414C74.8703 21.5559 74.8007 21.4407 74.7449 21.2956C74.6964 21.1504 74.6586 20.9975 74.6316 20.8369C74.6049 20.6837 74.5891 20.5301 74.5844 20.3762C74.5796 20.2222 74.5828 20.0901 74.5941 19.9797C74.338 20.0023 74.0599 20.0256 73.7599 20.0495C73.4671 20.0733 73.1305 20.102 72.75 20.1358C72.3769 20.1694 71.9526 20.2082 71.477 20.2523C71.0013 20.289 70.456 20.3315 69.8412 20.3799C69.8604 20.5261 69.8803 20.6942 69.9008 20.8843C69.9289 21.0815 69.9489 21.2533 69.9608 21.3997C69.92 21.5037 69.8384 21.5943 69.7161 21.6714C69.5938 21.7486 69.4564 21.8152 69.3041 21.8713C69.1593 21.9344 69.0066 21.9795 68.846 22.0065C68.693 22.0406 68.5579 22.0594 68.4406 22.0631C68.299 21.5172 68.2022 20.9993 68.1504 20.5093C68.0985 20.0193 68.1161 19.5199 68.2031 19.011ZM73.2707 18.4689C73.2836 18.175 73.2869 17.8081 73.2807 17.3681C73.2817 16.9278 73.2785 16.4694 73.2711 15.9927C73.2637 15.516 73.2457 15.0544 73.2172 14.6077C73.1961 14.1608 73.1698 13.7874 73.1385 13.4876C73.0068 13.499 72.8605 13.5109 72.6994 13.5232C72.5457 13.5353 72.392 13.5474 72.2383 13.5595C72.092 13.5714 71.9604 13.5864 71.8435 13.6047C71.7265 13.6157 71.6388 13.6257 71.5803 13.6349C71.5738 14.8457 71.5138 15.871 71.4004 16.7109C71.2941 17.5433 71.1495 18.2044 70.9666 18.6943L73.2707 18.4689Z" fill="white"/>
</svg>
