<svg width="295" height="36" viewBox="0 0 295 36" fill="none" xmlns="http://www.w3.org/2000/svg">
<rect x="1.46777" y="1.99725" width="94" height="28" rx="14" transform="rotate(3.00478 1.46777 1.99725)" fill="#125100"/>
<rect x="2.04573" y="0.525522" width="93" height="27" rx="13.5" transform="rotate(3.00478 2.04573 0.525522)" fill="#48AB53" stroke="#125100"/>
<path fill-rule="evenodd" clip-rule="evenodd" d="M75.9667 21.6474C75.7296 21.3567 75.3398 20.6239 75.6592 20.413C75.6592 20.413 76.5266 19.6208 77.4587 19.0054C78.3907 18.39 79.8317 17.6279 79.8317 17.6279C79.8317 17.6279 78.3077 16.5745 77.6223 15.8875C76.937 15.2005 76.3322 14.6835 76.3322 14.6835C76.0366 14.4403 76.1293 13.969 76.3974 13.4408C76.6636 13.1765 76.7957 12.8044 77.0913 13.0476C77.0913 13.0476 79.4019 15.1151 80.3921 15.9298C81.3824 16.7446 81.7797 16.983 81.7797 16.983C81.9402 17.115 82.7114 17.5575 82.7011 17.7522C82.6909 17.947 82.2832 18.1105 82.1097 18.2251C82.1097 18.2251 80.2451 19.3731 79.175 20.0797C78.1049 20.7863 76.6295 21.8437 76.6295 21.8437C76.3101 22.0546 76.2037 21.9381 75.9667 21.6474Z" fill="white"/>
<path d="M18.6697 17.5027C18.4195 18.4919 18.4572 19.4522 18.6522 20.564C19.1245 20.5888 20.0149 20.4152 20.2224 20.0295C20.2264 19.7433 20.1945 19.3011 20.1881 19.0033C22.6556 19.0007 23.9224 19.0011 24.9578 19.0003C24.8914 19.4264 24.8667 20.3174 25.1778 20.6862C25.7709 20.7173 26.2092 20.7624 26.5797 20.209C26.5848 19.4823 26.7401 18.2017 26.7707 17.6195C26.3295 17.4201 25.8838 17.3086 25.4739 17.3531C25.6579 14.2675 25.7553 12.4111 25.6991 11.3837C25.6042 11.0924 25.4042 10.9166 25.1348 10.8033C23.9241 10.7839 21.4121 10.7952 20.3119 10.9798C20.1142 11.1787 20.0246 11.4163 20.0131 11.636C19.9969 11.9436 20.1218 12.2916 20.4497 12.5512C20.5046 12.554 20.8024 12.5476 20.9018 12.5418C20.7638 13.7022 20.3872 16.4693 19.5901 17.3857C19.2374 17.3893 18.8957 17.3934 18.6697 17.5027ZM21.45 17.4173C21.8956 16.4824 22.2694 14.8167 22.483 12.4266C22.716 12.3947 23.5086 12.4033 24.0481 12.4096C24.0835 13.6231 23.9029 16.2242 23.7649 17.3846L21.45 17.4173ZM27.501 19.3101C27.7202 19.5419 28.0659 19.6702 28.3406 19.6846C28.6372 19.7002 28.8956 19.6036 29.0054 19.4001C29.4025 18.5507 29.4279 18.486 29.4753 18.4224C30.4593 18.3528 31.63 18.2931 32.5811 18.2219L32.5788 18.2658C32.7338 18.6705 32.9142 19.2197 33.1606 19.7724C33.6069 19.8729 34.388 19.4733 34.585 19.0761C34.3045 18.1251 32.468 11.9814 31.1695 11.5387C30.5849 11.5521 30.2705 11.877 29.9878 12.435C30.0937 12.7269 30.1533 12.8512 30.2227 12.9981C30.2221 13.0091 30.2435 13.0212 30.2429 13.0322C29.125 15.0223 27.3755 18.7638 27.4322 19.1523L27.501 19.3101ZM30.1076 16.8694C31.0451 14.9579 31.1589 14.6775 31.2572 14.4843C31.5128 15.0705 31.8928 16.0158 32.0894 16.676L30.1076 16.8694ZM35.0898 18.7832C35.0691 19.5972 35.3033 19.962 36.0781 20.1018C36.6585 19.956 37.4886 18.832 37.9249 17.8635C38.637 16.2596 38.765 14.2396 38.8164 13.2619C39.2141 13.2387 39.9293 13.2542 40.556 13.2761C40.5233 14.7394 40.211 18.5893 40.1545 19.6659C40.2453 20.0341 40.6212 20.2191 40.9837 20.2381C41.3571 20.2577 41.7971 20.0605 41.9358 19.7263C41.9552 17.6785 42.2836 14.1489 42.1625 12.2589C42.0561 11.978 41.7069 11.7063 41.4213 11.6913C40.3326 11.6562 37.8073 11.7109 36.5909 11.8012C36.4811 12.0048 36.3672 12.2852 36.358 12.4609C36.3384 12.8344 36.7021 13.2501 37.2161 13.3211C37.2191 14.5219 37.0464 15.9228 36.2985 17.3706C35.9795 17.9927 35.354 18.5767 35.0898 18.7832ZM43.5636 19.7347C43.8689 20.2133 44.0262 20.3648 44.4674 20.5642C46.0631 20.5929 48.0346 20.5972 49.4978 20.0021C49.6093 19.7656 49.6526 19.5696 49.6596 19.4378C49.6832 18.9874 49.4727 18.5908 49.0131 18.5337C47.7869 18.8108 46.3265 18.9324 45.313 18.9343C45.3545 18.1433 45.4088 17.5293 45.4665 17.0587C45.7533 17.0517 45.9839 17.0639 46.4251 17.054C47.1963 17.0504 48.1335 17.0335 48.8411 16.9825C49.1672 16.8564 49.3631 16.4812 49.3816 16.1297C49.3948 15.877 49.3006 15.5747 49.0138 15.3724C47.9084 15.4465 46.3641 15.4866 45.6264 15.4809C45.6269 15.0514 45.665 14.5357 45.6985 14.1078C46.738 14.0302 48.3088 14.1127 49.3408 13.9686C49.6542 13.8749 49.8484 13.5326 49.8662 13.192C49.8766 12.9943 49.8234 12.7492 49.6811 12.5214C49.1602 12.3729 45.885 12.4433 44.6622 12.4452C44.2229 12.6314 44.0084 12.7303 43.6529 12.9981C43.6304 13.4265 43.7432 13.7959 44.0161 14.0526C44.0011 14.3382 43.9688 14.744 43.8729 15.7304C43.7221 15.8767 43.6094 16.1351 43.5967 16.3768C43.5846 16.6075 43.6389 16.8306 43.7956 16.993L43.5636 19.7347ZM51.1264 20.1316C51.4318 20.6103 51.5891 20.7618 52.0302 20.9612C53.6259 20.9898 55.5974 20.9942 57.0606 20.3991C57.1721 20.1626 57.2155 19.9666 57.2224 19.8348C57.246 19.3844 57.0355 18.9878 56.5759 18.9306C55.3497 19.2077 53.8893 19.3294 52.8758 19.3312C52.9173 18.5403 52.9716 17.9263 53.0293 17.4557C53.3161 17.4487 53.5468 17.4608 53.9879 17.451C54.7591 17.4474 55.6963 17.4305 56.404 17.3795C56.73 17.2534 56.926 16.8782 56.9444 16.5267C56.9577 16.274 56.8634 15.9716 56.5766 15.7693C55.4712 15.8435 53.927 15.8836 53.1893 15.8779C53.1898 15.4484 53.2279 14.9326 53.2613 14.5048C54.3008 14.4272 55.8717 14.5097 56.9036 14.3655C57.217 14.2718 57.4112 13.9296 57.4291 13.589C57.4395 13.3913 57.3862 13.1462 57.244 12.9184C56.723 12.7699 53.4478 12.8403 52.2251 12.8422C51.7857 13.0284 51.5712 13.1273 51.2157 13.3951C51.1932 13.8235 51.306 14.1929 51.5789 14.4495C51.5639 14.7352 51.5316 15.141 51.4358 16.1273C51.2849 16.2736 51.1722 16.5321 51.1595 16.7738C51.1474 17.0044 51.2018 17.2276 51.3585 17.39L51.1264 20.1316Z" fill="white"/>
<rect x="200.468" y="0.997253" width="94" height="28" rx="14" transform="rotate(3.00478 200.468 0.997253)" fill="#125100"/>
<rect x="201.046" y="0.525522" width="93" height="27" rx="13.5" transform="rotate(3.00478 201.046 0.525522)" fill="#36823E" stroke="#125100"/>
<path fill-rule="evenodd" clip-rule="evenodd" d="M274.967 21.6474C274.73 21.3567 274.34 20.6239 274.659 20.413C274.659 20.413 275.527 19.6208 276.459 19.0054C277.391 18.39 278.832 17.6279 278.832 17.6279C278.832 17.6279 277.308 16.5745 276.622 15.8875C275.937 15.2005 275.332 14.6835 275.332 14.6835C275.037 14.4403 275.129 13.969 275.397 13.4408C275.664 13.1765 275.796 12.8044 276.091 13.0476C276.091 13.0476 278.402 15.1151 279.392 15.9298C280.382 16.7446 280.78 16.983 280.78 16.983C280.94 17.115 281.711 17.5575 281.701 17.7522C281.691 17.947 281.283 18.1105 281.11 18.2251C281.11 18.2251 279.245 19.3731 278.175 20.0797C277.105 20.7863 275.63 21.8437 275.63 21.8437C275.31 22.0546 275.204 21.9381 274.967 21.6474Z" fill="white"/>
<path d="M217.67 17.5027C217.419 18.4919 217.457 19.4522 217.652 20.564C218.125 20.5888 219.015 20.4152 219.222 20.0295C219.226 19.7433 219.195 19.3011 219.188 19.0033C221.656 19.0007 222.922 19.0011 223.958 19.0003C223.891 19.4264 223.867 20.3174 224.178 20.6862C224.771 20.7173 225.209 20.7624 225.58 20.209C225.585 19.4823 225.74 18.2017 225.771 17.6195C225.33 17.4201 224.884 17.3086 224.474 17.3531C224.658 14.2675 224.755 12.4111 224.699 11.3837C224.604 11.0924 224.404 10.9166 224.135 10.8033C222.924 10.7839 220.412 10.7952 219.312 10.9798C219.114 11.1787 219.025 11.4163 219.013 11.636C218.997 11.9436 219.122 12.2916 219.45 12.5512C219.505 12.554 219.802 12.5476 219.902 12.5418C219.764 13.7022 219.387 16.4693 218.59 17.3857C218.237 17.3893 217.896 17.3934 217.67 17.5027ZM220.45 17.4173C220.896 16.4824 221.269 14.8167 221.483 12.4266C221.716 12.3947 222.509 12.4033 223.048 12.4096C223.083 13.6231 222.903 16.2242 222.765 17.3846L220.45 17.4173ZM226.501 19.3101C226.72 19.5419 227.066 19.6702 227.341 19.6846C227.637 19.7002 227.896 19.6036 228.005 19.4001C228.402 18.5507 228.428 18.486 228.475 18.4224C229.459 18.3528 230.63 18.2931 231.581 18.2219L231.579 18.2658C231.734 18.6705 231.914 19.2197 232.161 19.7724C232.607 19.8729 233.388 19.4733 233.585 19.0761C233.305 18.1251 231.468 11.9814 230.169 11.5387C229.585 11.5521 229.27 11.877 228.988 12.435C229.094 12.7269 229.153 12.8512 229.223 12.9981C229.222 13.0091 229.243 13.0212 229.243 13.0322C228.125 15.0223 226.376 18.7638 226.432 19.1523L226.501 19.3101ZM229.108 16.8694C230.045 14.9579 230.159 14.6775 230.257 14.4843C230.513 15.0705 230.893 16.0158 231.089 16.676L229.108 16.8694ZM234.09 18.7832C234.069 19.5972 234.303 19.962 235.078 20.1018C235.658 19.956 236.489 18.832 236.925 17.8635C237.637 16.2596 237.765 14.2396 237.816 13.2619C238.214 13.2387 238.929 13.2542 239.556 13.2761C239.523 14.7394 239.211 18.5893 239.155 19.6659C239.245 20.0341 239.621 20.2191 239.984 20.2381C240.357 20.2577 240.797 20.0605 240.936 19.7263C240.955 17.6785 241.284 14.1489 241.163 12.2589C241.056 11.978 240.707 11.7063 240.421 11.6913C239.333 11.6562 236.807 11.7109 235.591 11.8012C235.481 12.0048 235.367 12.2852 235.358 12.4609C235.338 12.8344 235.702 13.2501 236.216 13.3211C236.219 14.5219 236.046 15.9228 235.299 17.3706C234.979 17.9927 234.354 18.5767 234.09 18.7832ZM242.564 19.7347C242.869 20.2133 243.026 20.3648 243.467 20.5642C245.063 20.5929 247.035 20.5972 248.498 20.0021C248.609 19.7656 248.653 19.5696 248.66 19.4378C248.683 18.9874 248.473 18.5908 248.013 18.5337C246.787 18.8108 245.326 18.9324 244.313 18.9343C244.354 18.1433 244.409 17.5293 244.467 17.0587C244.753 17.0517 244.984 17.0639 245.425 17.054C246.196 17.0504 247.133 17.0335 247.841 16.9825C248.167 16.8564 248.363 16.4812 248.382 16.1297C248.395 15.877 248.301 15.5747 248.014 15.3724C246.908 15.4465 245.364 15.4866 244.626 15.4809C244.627 15.0514 244.665 14.5357 244.699 14.1078C245.738 14.0302 247.309 14.1127 248.341 13.9686C248.654 13.8749 248.848 13.5326 248.866 13.192C248.877 12.9943 248.823 12.7492 248.681 12.5214C248.16 12.3729 244.885 12.4433 243.662 12.4452C243.223 12.6314 243.008 12.7303 242.653 12.9981C242.63 13.4265 242.743 13.7959 243.016 14.0526C243.001 14.3382 242.969 14.744 242.873 15.7304C242.722 15.8767 242.609 16.1351 242.597 16.3768C242.585 16.6075 242.639 16.8306 242.796 16.993L242.564 19.7347ZM250.126 20.1316C250.432 20.6103 250.589 20.7618 251.03 20.9612C252.626 20.9898 254.597 20.9942 256.061 20.3991C256.172 20.1626 256.215 19.9666 256.222 19.8348C256.246 19.3844 256.036 18.9878 255.576 18.9306C254.35 19.2077 252.889 19.3294 251.876 19.3312C251.917 18.5403 251.972 17.9263 252.029 17.4557C252.316 17.4487 252.547 17.4608 252.988 17.4509C253.759 17.4474 254.696 17.4305 255.404 17.3795C255.73 17.2534 255.926 16.8782 255.944 16.5267C255.958 16.274 255.863 15.9716 255.577 15.7693C254.471 15.8435 252.927 15.8836 252.189 15.8779C252.19 15.4484 252.228 14.9326 252.261 14.5048C253.301 14.4272 254.872 14.5097 255.904 14.3655C256.217 14.2718 256.411 13.9296 256.429 13.589C256.439 13.3913 256.386 13.1462 256.244 12.9184C255.723 12.7699 252.448 12.8403 251.225 12.8422C250.786 13.0284 250.571 13.1273 250.216 13.3951C250.193 13.8235 250.306 14.1929 250.579 14.4495C250.564 14.7352 250.532 15.141 250.436 16.1273C250.285 16.2736 250.172 16.5321 250.16 16.7738C250.147 17.0044 250.202 17.2276 250.358 17.39L250.126 20.1316Z" fill="white"/>
<rect x="101.468" y="2.99725" width="94" height="28" rx="14" transform="rotate(3.00478 101.468 2.99725)" fill="#125100"/>
<rect x="102.046" y="0.525522" width="93" height="27" rx="13.5" transform="rotate(3.00478 102.046 0.525522)" fill="#59CB66" stroke="#125100"/>
<path fill-rule="evenodd" clip-rule="evenodd" d="M175.967 21.6474C175.73 21.3567 175.34 20.6239 175.659 20.413C175.659 20.413 176.527 19.6208 177.459 19.0054C178.391 18.39 179.832 17.6279 179.832 17.6279C179.832 17.6279 178.308 16.5745 177.622 15.8875C176.937 15.2005 176.332 14.6835 176.332 14.6835C176.037 14.4403 176.129 13.969 176.397 13.4408C176.664 13.1765 176.796 12.8044 177.091 13.0476C177.091 13.0476 179.402 15.1151 180.392 15.9298C181.382 16.7446 181.78 16.983 181.78 16.983C181.94 17.115 182.711 17.5575 182.701 17.7522C182.691 17.947 182.283 18.1105 182.11 18.2251C182.11 18.2251 180.245 19.3731 179.175 20.0797C178.105 20.7863 176.63 21.8437 176.63 21.8437C176.31 22.0546 176.204 21.9381 175.967 21.6474Z" fill="white"/>
<path d="M119.172 17.4829C118.923 18.472 118.962 19.4325 119.158 20.5445C119.63 20.5698 120.52 20.3972 120.727 20.0117C120.731 19.7255 120.699 19.2831 120.692 18.9853C123.159 18.9852 124.426 18.9869 125.461 18.9873C125.395 19.4133 125.371 20.3043 125.683 20.6735C126.276 20.7053 126.714 20.7508 127.084 20.1977C127.089 19.4709 127.243 18.1903 127.273 17.6081C126.831 17.4082 126.385 17.2962 125.976 17.3404C126.157 14.2547 126.252 12.3981 126.195 11.3706C126.1 11.0791 125.899 10.9031 125.63 10.7896C124.419 10.7688 121.908 10.7776 120.808 10.9611C120.61 11.1598 120.521 11.3973 120.51 11.6171C120.494 11.9247 120.619 12.2728 120.947 12.5328C121.002 12.5357 121.3 12.5296 121.399 12.5239C121.262 13.6842 120.889 16.4512 120.093 17.367C119.74 17.3701 119.398 17.3739 119.172 17.4829ZM121.952 17.4004C122.397 16.4659 122.769 14.8004 122.98 12.4102C123.213 12.3787 124.006 12.388 124.545 12.3949C124.582 13.6086 124.404 16.2098 124.267 17.3701L121.952 17.4004ZM128.005 19.2997C128.224 19.5317 128.57 19.6604 128.844 19.6751C129.141 19.691 129.399 19.5946 129.509 19.3912C129.905 18.5422 129.93 18.4774 129.978 18.4139C130.962 18.3454 132.132 18.2868 133.083 18.2166L133.081 18.2605C133.236 18.6654 133.417 19.2148 133.664 19.7678C134.11 19.8688 134.891 19.47 135.088 19.0729C134.806 18.1215 132.964 11.9753 131.665 11.5312C131.08 11.544 130.766 11.8687 130.484 12.4264C130.59 12.7185 130.65 12.8428 130.72 12.9898C130.719 13.0008 130.74 13.0129 130.74 13.0239C129.624 15.0131 127.878 18.7531 127.936 19.1417L128.005 19.2997ZM130.608 16.8614C131.544 14.9506 131.657 14.6703 131.755 14.4773C132.012 15.0638 132.392 16.0095 132.59 16.67L130.608 16.8614ZM135.592 18.7805C135.572 19.5946 135.807 19.9596 136.581 20.1003C137.162 19.9551 137.991 18.8318 138.426 17.8637C139.136 16.2603 139.262 14.2402 139.313 13.2625C139.71 13.2397 140.425 13.256 141.052 13.2785C141.021 14.7419 140.712 18.5919 140.657 19.6685C140.748 20.0369 141.124 20.2223 141.487 20.2417C141.86 20.2617 142.3 20.0649 142.438 19.7308C142.455 17.6828 142.78 14.1531 142.657 12.2628C142.551 11.9817 142.201 11.7097 141.916 11.6944C140.827 11.6581 138.302 11.7103 137.086 11.7994C136.976 12.0028 136.863 12.2831 136.854 12.4589C136.834 12.8324 137.198 13.2485 137.712 13.32C137.717 14.521 137.546 15.9218 136.799 17.369C136.481 17.9909 135.856 18.5743 135.592 18.7805ZM144.066 19.7408C144.372 20.2198 144.529 20.3715 144.97 20.5713C146.566 20.6017 148.537 20.6081 150 20.0144C150.111 19.778 150.154 19.582 150.161 19.4502C150.184 18.9998 149.973 18.603 149.513 18.5453C148.288 18.8212 146.828 18.9413 145.814 18.9421C145.855 18.1512 145.909 17.5372 145.966 17.0666C146.253 17.0599 146.483 17.0722 146.924 17.0628C147.695 17.06 148.632 17.0441 149.34 16.9938C149.666 16.8681 149.861 16.493 149.88 16.1414C149.893 15.8888 149.798 15.5863 149.511 15.3837C148.406 15.4567 146.862 15.4952 146.124 15.4888C146.124 15.0592 146.162 14.5434 146.195 14.1156C147.234 14.039 148.805 14.1231 149.837 13.9801C150.15 13.8867 150.344 13.5445 150.361 13.204C150.371 13.0062 150.318 12.761 150.175 12.5331C149.654 12.384 146.38 12.4511 145.157 12.4517C144.718 12.6375 144.503 12.7362 144.148 13.0036C144.126 13.432 144.239 13.8016 144.513 14.0586C144.498 14.3442 144.466 14.7501 144.371 15.7364C144.22 15.8826 144.108 16.1409 144.096 16.3826C144.084 16.6133 144.138 16.8365 144.295 16.9992L144.066 19.7408ZM151.628 20.1456C151.934 20.6247 152.091 20.7763 152.533 20.9762C154.128 21.0065 156.1 21.0129 157.562 20.4192C157.673 20.1828 157.716 19.9868 157.723 19.855C157.746 19.4046 157.536 19.0078 157.076 18.9501C155.85 19.226 154.39 19.3461 153.377 19.3469C153.417 18.556 153.471 17.942 153.528 17.4714C153.815 17.4647 154.046 17.477 154.487 17.4676C155.258 17.4648 156.195 17.4489 156.902 17.3986C157.228 17.2729 157.424 16.8978 157.442 16.5462C157.455 16.2936 157.36 15.9911 157.073 15.7885C155.968 15.8615 154.424 15.9 153.687 15.8936C153.687 15.464 153.724 14.9482 153.757 14.5204C154.797 14.4438 156.367 14.5279 157.399 14.3849C157.712 14.2915 157.906 13.9493 157.924 13.6088C157.934 13.4111 157.88 13.1659 157.738 12.9379C157.217 12.7889 153.942 12.8559 152.719 12.8565C152.28 13.0423 152.066 13.141 151.711 13.4084C151.689 13.8368 151.802 14.2064 152.075 14.4634C152.06 14.749 152.028 15.1549 151.934 16.1412C151.783 16.2874 151.67 16.5457 151.658 16.7874C151.646 17.0181 151.701 17.2413 151.857 17.404L151.628 20.1456Z" fill="white"/>
</svg>
