<svg width="284" height="37" viewBox="0 0 284 37" fill="none" xmlns="http://www.w3.org/2000/svg">
<rect x="1.46777" y="3.03851" width="94" height="28" rx="14" transform="rotate(3.00478 1.46777 3.03851)" fill="#125100"/>
<rect x="2.04573" y="1.56678" width="93" height="27" rx="13.5" transform="rotate(3.00478 2.04573 1.56678)" fill="#48AB53" stroke="#125100"/>
<path fill-rule="evenodd" clip-rule="evenodd" d="M75.9667 22.6887C75.7296 22.3979 75.3398 21.6652 75.6592 21.4543C75.6592 21.4543 76.5266 20.6621 77.4587 20.0467C78.3907 19.4312 79.8317 18.6692 79.8317 18.6692C79.8317 18.6692 78.3077 17.6158 77.6223 16.9288C76.937 16.2418 76.3322 15.7248 76.3322 15.7248C76.0366 15.4816 76.1293 15.0103 76.3974 14.482C76.6636 14.2177 76.7957 13.8457 77.0913 14.0889C77.0913 14.0889 79.4019 16.1564 80.3921 16.9711C81.3824 17.7858 81.7797 18.0242 81.7797 18.0242C81.9402 18.1563 82.7114 18.5988 82.7011 18.7935C82.6909 18.9882 82.2832 19.1518 82.1097 19.2663C82.1097 19.2663 80.2451 20.4144 79.175 21.121C78.1049 21.8275 76.6295 22.8849 76.6295 22.8849C76.3101 23.0958 76.2037 22.9794 75.9667 22.6887Z" fill="white"/>
<path d="M18.6697 18.5439C18.4195 19.5332 18.4572 20.4935 18.6522 21.6052C19.1245 21.63 20.0149 21.4564 20.2224 21.0708C20.2264 20.7846 20.1945 20.3423 20.1881 20.0446C22.6556 20.0419 23.9224 20.0423 24.9578 20.0416C24.8914 20.4677 24.8667 21.3586 25.1778 21.7274C25.7709 21.7586 26.2092 21.8036 26.5797 21.2503C26.5848 20.5236 26.7401 19.2429 26.7707 18.6607C26.3295 18.4613 25.8838 18.3498 25.4739 18.3944C25.6579 15.3088 25.7553 13.4523 25.6991 12.425C25.6042 12.1336 25.4042 11.9579 25.1348 11.8446C23.9241 11.8251 21.4121 11.8365 20.3119 12.021C20.1142 12.2199 20.0246 12.4576 20.0131 12.6773C19.9969 12.9849 20.1218 13.3329 20.4497 13.5924C20.5046 13.5953 20.8024 13.5889 20.9018 13.5831C20.7638 14.7435 20.3872 17.5105 19.5901 18.427C19.2374 18.4305 18.8957 18.4346 18.6697 18.5439ZM21.45 18.4585C21.8956 17.5236 22.2694 15.8579 22.483 13.4678C22.716 13.436 23.5086 13.4446 24.0481 13.4509C24.0835 14.6644 23.9029 17.2655 23.7649 18.4258L21.45 18.4585ZM27.501 20.3513C27.7202 20.5831 28.0659 20.7114 28.3406 20.7259C28.6372 20.7414 28.8956 20.6448 29.0054 20.4413C29.4025 19.592 29.4279 19.5272 29.4753 19.4636C30.4593 19.3941 31.63 19.3344 32.5811 19.2631L32.5788 19.3071C32.7338 19.7118 32.9142 20.261 33.1606 20.8136C33.6069 20.9142 34.388 20.5146 34.585 20.1174C34.3045 19.1663 32.468 13.0226 31.1695 12.58C30.5849 12.5933 30.2705 12.9183 29.9878 13.4762C30.0937 13.7682 30.1533 13.8925 30.2227 14.0393C30.2221 14.0503 30.2435 14.0625 30.2429 14.0734C29.125 16.0636 27.3755 19.805 27.4322 20.1935L27.501 20.3513ZM30.1076 17.9106C31.0451 15.9991 31.1589 15.7187 31.2572 15.5256C31.5128 16.1118 31.8928 17.057 32.0894 17.7172L30.1076 17.9106ZM35.0898 19.8244C35.0691 20.6385 35.3033 21.0032 36.0781 21.143C36.6585 20.9973 37.4886 19.8732 37.9249 18.9048C38.637 17.3009 38.765 15.2808 38.8164 14.3032C39.2141 14.28 39.9293 14.2955 40.556 14.3174C40.5233 15.7807 40.211 19.6306 40.1545 20.7071C40.2453 21.0754 40.6212 21.2603 40.9837 21.2794C41.3571 21.299 41.7971 21.1018 41.9358 20.7676C41.9552 18.7198 42.2836 15.1901 42.1625 13.3002C42.0561 13.0192 41.7069 12.7475 41.4213 12.7326C40.3326 12.6974 37.8073 12.7521 36.5909 12.8425C36.4811 13.046 36.3672 13.3264 36.358 13.5022C36.3384 13.8757 36.7021 14.2913 37.2161 14.3624C37.2191 15.5632 37.0464 16.964 36.2985 18.4118C35.9795 19.034 35.354 19.618 35.0898 19.8244ZM43.5636 20.7759C43.8689 21.2546 44.0262 21.406 44.4674 21.6054C46.0631 21.6341 48.0346 21.6385 49.4978 21.0433C49.6093 20.8069 49.6526 20.6109 49.6596 20.4791C49.6832 20.0287 49.4727 19.6321 49.0131 19.5749C47.7869 19.852 46.3265 19.9736 45.313 19.9755C45.3545 19.1846 45.4088 18.5706 45.4665 18.1C45.7533 18.093 45.9839 18.1051 46.4251 18.0952C47.1963 18.0916 48.1335 18.0748 48.8411 18.0238C49.1672 17.8977 49.3631 17.5224 49.3816 17.1709C49.3948 16.9183 49.3006 16.6159 49.0138 16.4136C47.9084 16.4878 46.3641 16.5279 45.6264 16.5222C45.6269 16.0926 45.665 15.5769 45.6985 15.1491C46.738 15.0715 48.3088 15.1539 49.3408 15.0098C49.6542 14.9161 49.8484 14.5738 49.8662 14.2333C49.8766 14.0356 49.8234 13.7904 49.6811 13.5627C49.1602 13.4142 45.885 13.4846 44.6622 13.4865C44.2229 13.6727 44.0084 13.7716 43.6529 14.0393C43.6304 14.4677 43.7432 14.8372 44.0161 15.0938C44.0011 15.3794 43.9688 15.7853 43.8729 16.7716C43.7221 16.9179 43.6094 17.1764 43.5967 17.418C43.5846 17.6487 43.6389 17.8719 43.7956 18.0343L43.5636 20.7759ZM51.1264 21.1729C51.4318 21.6516 51.5891 21.803 52.0302 22.0024C53.6259 22.0311 55.5974 22.0354 57.0606 21.4403C57.1721 21.2039 57.2155 21.0079 57.2224 20.876C57.246 20.4257 57.0355 20.0291 56.5759 19.9719C55.3497 20.249 53.8893 20.3706 52.8758 20.3725C52.9173 19.5816 52.9716 18.9676 53.0293 18.497C53.3161 18.49 53.5468 18.5021 53.9879 18.4922C54.7591 18.4886 55.6963 18.4717 56.404 18.4208C56.73 18.2947 56.926 17.9194 56.9444 17.5679C56.9577 17.3153 56.8634 17.0129 56.5766 16.8106C55.4712 16.8848 53.927 16.9249 53.1893 16.9192C53.1898 16.4896 53.2279 15.9739 53.2613 15.5461C54.3008 15.4685 55.8717 15.5509 56.9036 15.4068C57.217 15.3131 57.4112 14.9708 57.4291 14.6303C57.4395 14.4326 57.3862 14.1874 57.244 13.9597C56.723 13.8111 53.4478 13.8816 52.2251 13.8835C51.7857 14.0697 51.5712 14.1686 51.2157 14.4363C51.1932 14.8647 51.306 15.2341 51.5789 15.4908C51.5639 15.7764 51.5316 16.1823 51.4358 17.1686C51.2849 17.3149 51.1722 17.5733 51.1595 17.815C51.1474 18.0457 51.2018 18.2689 51.3585 18.4313L51.1264 21.1729Z" fill="white"/>
<rect x="189.911" y="3.92468" width="94" height="28" rx="14" transform="rotate(3.00478 189.911 3.92468)" fill="#125100"/>
<rect x="190.489" y="3.45295" width="93" height="27" rx="13.5" transform="rotate(3.00478 190.489 3.45295)" fill="#36823E" stroke="#125100"/>
<path fill-rule="evenodd" clip-rule="evenodd" d="M264.41 24.5748C264.173 24.2841 263.783 23.5514 264.103 23.3405C264.103 23.3405 264.97 22.5483 265.902 21.9328C266.834 21.3174 268.275 20.5553 268.275 20.5553C268.275 20.5553 266.751 19.502 266.066 18.8149C265.38 18.1279 264.776 17.6109 264.776 17.6109C264.48 17.3677 264.573 16.8964 264.841 16.3682C265.107 16.1039 265.239 15.7319 265.535 15.9751C265.535 15.9751 267.845 18.0426 268.835 18.8573C269.826 19.672 270.223 19.9104 270.223 19.9104C270.384 20.0425 271.155 20.4849 271.144 20.6797C271.134 20.8744 270.727 21.038 270.553 21.1525C270.553 21.1525 268.688 22.3006 267.618 23.0071C266.548 23.7137 265.073 24.7711 265.073 24.7711C264.753 24.982 264.647 24.8656 264.41 24.5748Z" fill="white"/>
<path d="M207.113 20.4301C206.863 21.4193 206.901 22.3796 207.096 23.4914C207.568 23.5162 208.458 23.3426 208.666 22.957C208.67 22.6708 208.638 22.2285 208.631 21.9308C211.099 21.9281 212.366 21.9285 213.401 21.9278C213.335 22.3539 213.31 23.2448 213.621 23.6136C214.214 23.6448 214.653 23.6898 215.023 23.1365C215.028 22.4097 215.184 21.1291 215.214 20.5469C214.773 20.3475 214.327 20.236 213.917 20.2806C214.101 17.195 214.199 15.3385 214.142 14.3112C214.048 14.0198 213.848 13.8441 213.578 13.7308C212.367 13.7113 209.855 13.7226 208.755 13.9072C208.558 14.1061 208.468 14.3437 208.456 14.5634C208.44 14.871 208.565 15.219 208.893 15.4786C208.948 15.4815 209.246 15.4751 209.345 15.4693C209.207 16.6296 208.831 19.3967 208.033 20.3132C207.681 20.3167 207.339 20.3208 207.113 20.4301ZM209.893 20.3447C210.339 19.4098 210.713 17.7441 210.926 15.354C211.159 15.3222 211.952 15.3307 212.491 15.337C212.527 16.5505 212.346 19.1517 212.208 20.312L209.893 20.3447ZM215.944 22.2375C216.164 22.4693 216.509 22.5976 216.784 22.612C217.081 22.6276 217.339 22.531 217.449 22.3275C217.846 21.4781 217.871 21.4134 217.919 21.3498C218.903 21.2803 220.073 21.2206 221.024 21.1493L221.022 21.1932C221.177 21.5979 221.358 22.1471 221.604 22.6998C222.05 22.8004 222.831 22.4007 223.028 22.0035C222.748 21.0525 220.911 14.9088 219.613 14.4661C219.028 14.4795 218.714 14.8045 218.431 15.3624C218.537 15.6544 218.597 15.7787 218.666 15.9255C218.665 15.9365 218.687 15.9486 218.686 15.9596C217.568 17.9497 215.819 21.6912 215.876 22.0797L215.944 22.2375ZM218.551 19.7968C219.488 17.8853 219.602 17.6049 219.701 17.4118C219.956 17.998 220.336 18.9432 220.533 19.6034L218.551 19.7968ZM223.533 21.7106C223.512 22.5246 223.747 22.8894 224.521 23.0292C225.102 22.8834 225.932 21.7594 226.368 20.7909C227.08 19.1871 227.208 17.167 227.26 16.1893C227.657 16.1662 228.373 16.1817 228.999 16.2035C228.967 17.6668 228.654 21.5168 228.598 22.5933C228.689 22.9616 229.065 23.1465 229.427 23.1655C229.801 23.1851 230.24 22.9879 230.379 22.6537C230.399 20.6059 230.727 17.0763 230.606 15.1864C230.499 14.9054 230.15 14.6337 229.865 14.6187C228.776 14.5836 226.251 14.6383 225.034 14.7287C224.924 14.9322 224.811 15.2126 224.801 15.3884C224.782 15.7619 225.145 16.1775 225.659 16.2485C225.662 17.4493 225.49 18.8502 224.742 20.298C224.423 20.9201 223.797 21.5042 223.533 21.7106ZM232.007 22.6621C232.312 23.1407 232.47 23.2922 232.911 23.4916C234.506 23.5203 236.478 23.5246 237.941 22.9295C238.053 22.693 238.096 22.497 238.103 22.3652C238.127 21.9148 237.916 21.5183 237.456 21.4611C236.23 21.7382 234.77 21.8598 233.756 21.8617C233.798 21.0708 233.852 20.4568 233.91 19.9862C234.197 19.9792 234.427 19.9913 234.868 19.9814C235.64 19.9778 236.577 19.9609 237.284 19.9099C237.611 19.7839 237.806 19.4086 237.825 19.0571C237.838 18.8045 237.744 18.5021 237.457 18.2998C236.352 18.3739 234.808 18.414 234.07 18.4084C234.07 17.9788 234.108 17.4631 234.142 17.0353C235.181 16.9576 236.752 17.0401 237.784 16.896C238.098 16.8023 238.292 16.46 238.31 16.1195C238.32 15.9217 238.267 15.6766 238.125 15.4488C237.604 15.3003 234.328 15.3707 233.106 15.3727C232.666 15.5589 232.452 15.6578 232.096 15.9255C232.074 16.3539 232.187 16.7233 232.459 16.98C232.444 17.2656 232.412 17.6715 232.316 18.6578C232.165 18.8041 232.053 19.0625 232.04 19.3042C232.028 19.5349 232.082 19.758 232.239 19.9205L232.007 22.6621ZM239.57 23.0591C239.875 23.5377 240.032 23.6892 240.474 23.8886C242.069 23.9173 244.041 23.9216 245.504 23.3265C245.615 23.09 245.659 22.894 245.666 22.7622C245.689 22.3118 245.479 21.9152 245.019 21.8581C243.793 22.1352 242.333 22.2568 241.319 22.2587C241.361 21.4678 241.415 20.8538 241.473 20.3831C241.759 20.3762 241.99 20.3883 242.431 20.3784C243.203 20.3748 244.14 20.3579 244.847 20.3069C245.173 20.1808 245.369 19.8056 245.388 19.4541C245.401 19.2014 245.307 18.8991 245.02 18.6968C243.915 18.7709 242.37 18.811 241.633 18.8054C241.633 18.3758 241.671 17.8601 241.705 17.4322C242.744 17.3546 244.315 17.4371 245.347 17.293C245.66 17.1993 245.855 16.857 245.872 16.5165C245.883 16.3187 245.83 16.0736 245.687 15.8458C245.166 15.6973 241.891 15.7677 240.668 15.7696C240.229 15.9559 240.015 16.0548 239.659 16.3225C239.637 16.7509 239.749 17.1203 240.022 17.377C240.007 17.6626 239.975 18.0684 239.879 19.0548C239.728 19.2011 239.616 19.4595 239.603 19.7012C239.591 19.9319 239.645 20.155 239.802 20.3175L239.57 23.0591Z" fill="white"/>
<rect x="95.7943" y="3.92468" width="94" height="28" rx="14" transform="rotate(3.00478 95.7943 3.92468)" fill="#125100"/>
<rect x="96.3723" y="1.45295" width="93" height="27" rx="13.5" transform="rotate(3.00478 96.3723 1.45295)" fill="#59CB66" stroke="#125100"/>
<path fill-rule="evenodd" clip-rule="evenodd" d="M170.293 22.5748C170.056 22.2841 169.666 21.5514 169.986 21.3405C169.986 21.3405 170.853 20.5483 171.785 19.9328C172.717 19.3174 174.158 18.5553 174.158 18.5553C174.158 18.5553 172.634 17.502 171.949 16.8149C171.264 16.1279 170.659 15.6109 170.659 15.6109C170.363 15.3677 170.456 14.8964 170.724 14.3682C170.99 14.1039 171.122 13.7319 171.418 13.9751C171.418 13.9751 173.728 16.0426 174.719 16.8573C175.709 17.672 176.106 17.9104 176.106 17.9104C176.267 18.0425 177.038 18.4849 177.028 18.6797C177.017 18.8744 176.61 19.038 176.436 19.1525C176.436 19.1525 174.572 20.3006 173.502 21.0071C172.431 21.7137 170.956 22.7711 170.956 22.7711C170.637 22.982 170.53 22.8656 170.293 22.5748Z" fill="white"/>
<path d="M113.499 18.4104C113.25 19.3995 113.288 20.3599 113.484 21.472C113.957 21.4973 114.847 21.3246 115.054 20.9391C115.058 20.6529 115.025 20.2105 115.019 19.9128C117.486 19.9126 118.752 19.9143 119.788 19.9147C119.722 20.3408 119.698 21.2318 120.009 21.6009C120.603 21.6327 121.041 21.6782 121.411 21.1252C121.415 20.3984 121.569 19.1178 121.599 18.5355C121.158 18.3357 120.712 18.2237 120.302 18.2678C120.483 15.1821 120.579 13.3256 120.521 12.298C120.426 12.0065 120.226 11.8306 119.956 11.717C118.746 11.6963 116.234 11.705 115.134 11.8885C114.937 12.0872 114.847 12.3248 114.836 12.5445C114.82 12.8521 114.946 13.2003 115.274 13.4602C115.329 13.4631 115.626 13.457 115.726 13.4513C115.589 14.6117 115.215 17.3786 114.419 18.2944C114.066 18.2976 113.725 18.3013 113.499 18.4104ZM116.279 18.3279C116.723 17.3933 117.096 15.7278 117.307 13.3377C117.54 13.3061 118.332 13.3155 118.872 13.3223C118.908 14.536 118.73 17.1372 118.593 18.2975L116.279 18.3279ZM122.331 20.2271C122.55 20.4591 122.896 20.5878 123.171 20.6025C123.467 20.6184 123.726 20.5221 123.835 20.3186C124.232 19.4696 124.257 19.4048 124.304 19.3413C125.288 19.2728 126.459 19.2143 127.409 19.144L127.407 19.1879C127.563 19.5928 127.744 20.1423 127.991 20.6953C128.437 20.7963 129.217 20.3974 129.414 20.0004C129.133 19.049 127.29 12.9027 125.991 12.4586C125.407 12.4714 125.093 12.7961 124.811 13.3538C124.917 13.6459 124.977 13.7703 125.046 13.9172C125.045 13.9282 125.067 13.9403 125.066 13.9513C123.951 15.9405 122.205 19.6806 122.262 20.0692L122.331 20.2271ZM124.935 17.7888C125.87 15.8781 125.984 15.5977 126.082 15.4047C126.338 15.9912 126.719 16.9369 126.916 17.5974L124.935 17.7888ZM129.919 19.7079C129.899 20.522 130.133 20.8871 130.908 21.0277C131.488 20.8825 132.317 19.7592 132.752 18.7911C133.463 17.1878 133.589 15.1676 133.639 14.1899C134.037 14.1671 134.752 14.1834 135.379 14.2059C135.347 15.6693 135.039 19.5194 134.984 20.5959C135.075 20.9643 135.451 21.1497 135.813 21.1691C136.187 21.1891 136.626 20.9923 136.765 20.6582C136.782 18.6102 137.107 15.0806 136.984 13.1903C136.877 12.9092 136.528 12.6371 136.242 12.6218C135.154 12.5856 132.629 12.6377 131.412 12.7268C131.303 12.9302 131.189 13.2106 131.18 13.3863C131.161 13.7598 131.525 14.1759 132.039 14.2475C132.043 15.4484 131.872 16.8493 131.126 18.2964C130.807 18.9183 130.182 19.5017 129.919 19.7079ZM138.392 20.6682C138.698 21.1473 138.856 21.2989 139.297 21.4988C140.892 21.5291 142.864 21.5355 144.326 20.9418C144.437 20.7054 144.481 20.5094 144.487 20.3776C144.511 19.9272 144.3 19.5304 143.84 19.4727C142.614 19.7486 141.154 19.8687 140.141 19.8696C140.181 19.0786 140.235 18.4646 140.292 17.994C140.579 17.9873 140.81 17.9996 141.251 17.9902C142.022 17.9874 142.959 17.9715 143.667 17.9212C143.992 17.7955 144.188 17.4204 144.206 17.0689C144.219 16.8162 144.125 16.5137 143.838 16.3111C142.732 16.3841 141.188 16.4226 140.451 16.4162C140.451 15.9866 140.488 15.4709 140.521 15.043C141.561 14.9665 143.131 15.0505 144.163 14.9075C144.476 14.8141 144.67 14.472 144.688 14.1314C144.698 13.9337 144.644 13.6885 144.502 13.4605C143.981 13.3115 140.706 13.3785 139.484 13.3792C139.044 13.565 138.83 13.6636 138.475 13.931C138.453 14.3595 138.566 14.729 138.839 14.986C138.824 15.2716 138.792 15.6775 138.698 16.6638C138.547 16.81 138.434 17.0684 138.422 17.31C138.41 17.5407 138.465 17.764 138.622 17.9266L138.392 20.6682ZM145.955 21.0731C146.261 21.5521 146.418 21.7037 146.859 21.9036C148.455 21.9339 150.426 21.9403 151.889 21.3466C152 21.1102 152.043 20.9143 152.05 20.7824C152.073 20.332 151.862 19.9352 151.402 19.8775C150.177 20.1534 148.717 20.2735 147.703 20.2744C147.744 19.4834 147.797 18.8694 147.855 18.3988C148.141 18.3921 148.372 18.4045 148.813 18.395C149.584 18.3922 150.521 18.3763 151.229 18.3261C151.555 18.2003 151.75 17.8252 151.768 17.4737C151.781 17.221 151.687 16.9185 151.4 16.7159C150.295 16.7889 148.751 16.8274 148.013 16.821C148.013 16.3914 148.051 15.8757 148.084 15.4478C149.123 15.3713 150.694 15.4554 151.726 15.3123C152.039 15.2189 152.233 14.8768 152.25 14.5362C152.26 14.3385 152.207 14.0933 152.064 13.8653C151.543 13.7163 148.269 13.7833 147.046 13.784C146.607 13.9698 146.392 14.0684 146.037 14.3358C146.015 14.7643 146.128 15.1339 146.401 15.3908C146.387 15.6764 146.355 16.0823 146.26 17.0687C146.109 17.2148 145.997 17.4732 145.984 17.7148C145.973 17.9455 146.027 18.1688 146.184 18.3314L145.955 21.0731Z" fill="white"/>
</svg>
