<svg width="326" height="222" viewBox="0 0 163 111" fill="none" xmlns="http://www.w3.org/2000/svg">
<g filter="url(#filter0_d)">
<path d="M5.3835 14.2539C4.50341 7.20128 10.7319 1.60988 17.8118 2.23412C34.2617 3.68454 62.6722 5.89613 82.9682 5.89613C103.515 5.89613 124.195 3.34577 144.809 1.84671C152.422 1.29311 158.456 8.0938 157.646 15.6836C156.871 22.9393 156.163 32.1235 156.163 41.4384C156.163 48.049 156.52 53.955 157.004 58.9251C157.807 67.1776 150.938 74.9066 142.671 74.2633C129.686 73.2529 111.791 72.0845 98.4682 72.0845C84.6773 72.0845 65.9514 73.8852 56.0923 74.9489C51.6728 75.4258 47.4665 77.0133 43.7885 79.5098L11.9117 101.146C11.0044 101.762 9.91057 100.679 10.5169 99.7658L24.4183 78.8171C25.3004 77.4877 24.3473 75.7113 22.7518 75.7113H16.6071C9.97963 75.7113 4.22016 70.2469 5.67401 63.7809C6.74073 59.0366 8.22372 56.2663 8.22372 43.7958C8.22372 28.6538 6.44626 22.7703 5.3835 14.2539Z" fill="white"/>
<path d="M5.87965 14.192C5.04505 7.50389 10.9548 2.13147 17.7678 2.73219C34.2173 4.18256 62.6477 6.39613 82.9682 6.39613C97.5446 6.39613 112.199 5.11364 126.825 3.83373C132.839 3.3074 138.849 2.7815 144.846 2.3454C152.119 1.81648 157.929 8.32161 157.148 15.6305C156.373 22.897 155.663 32.1 155.663 41.4384C155.663 48.0669 156.02 53.9892 156.506 58.9735C157.283 66.9505 150.634 74.3814 142.71 73.7648C129.724 72.7543 111.812 71.5845 98.4682 71.5845C84.6476 71.5845 65.8975 73.3881 56.0387 74.4518C51.5346 74.9378 47.2508 76.5554 43.5077 79.0961L11.6309 100.732C11.1773 101.04 10.6303 100.499 10.9335 100.042L24.8349 79.0936C25.9376 77.4318 24.7461 75.2113 22.7518 75.2113H16.6071C10.2007 75.2113 4.79854 69.9538 6.16183 63.8906C6.35469 63.0328 6.56687 62.2215 6.78328 61.394C7.14799 59.9994 7.52472 58.5589 7.84121 56.7729C8.35184 53.8916 8.72372 50.0507 8.72372 43.7958C8.72372 32.5263 7.73905 26.342 6.79932 20.44C6.47297 18.3903 6.15204 16.3747 5.87965 14.192Z" stroke="black"/>
</g>
<defs>
<filter id="filter0_d" x="0.300232" y="0.814941" width="162.418" height="109.512" filterUnits="userSpaceOnUse" color-interpolation-filters="sRGB">
<feFlood flood-opacity="0" result="BackgroundImageFix"/>
<feColorMatrix in="SourceAlpha" type="matrix" values="0 0 0 0 0 0 0 0 0 0 0 0 0 0 0 0 0 0 127 0"/>
<feOffset dy="4"/>
<feGaussianBlur stdDeviation="2.5"/>
<feColorMatrix type="matrix" values="0 0 0 0 0 0 0 0 0 0 0 0 0 0 0 0 0 0 0.24 0"/>
<feBlend mode="normal" in2="BackgroundImageFix" result="effect1_dropShadow"/>
<feBlend mode="normal" in="SourceGraphic" in2="effect1_dropShadow" result="shape"/>
</filter>
</defs>
</svg>
