<svg width="749" height="985" viewBox="0 0 749 985" fill="none" xmlns="http://www.w3.org/2000/svg">
<rect width="749" height="984" fill="white"/>
<path d="M0 0H749V7.5C749 7.5 746.766 7.5 716.5 7.5C699.865 7.5 668.372 5.15901 648 5C609.307 4.69798 579.465 5 548 5C430.5 5 436 8.125 243 7.5C231.032 7.46124 172.949 4.2483 122 5C94.1915 5.41029 68.8595 10 53.5 10C30.5 10 0 7.5 0 7.5V0Z" fill="#E0E0E0"/>
<path d="M749 985L0 985L-6.55675e-07 977.5C-6.55675e-07 977.5 2.23437 977.5 32.5 977.5C49.1345 977.5 80.6284 979.841 101 980C139.693 980.302 169.535 980 201 980C318.5 980 313 976.875 506 977.5C517.968 977.539 576.051 980.752 627 980C654.809 979.59 680.141 975 695.5 975C718.5 975 749 977.5 749 977.5L749 985Z" fill="#E0E0E0"/>
<path d="M0 984L-4.3012e-05 0L7.49999 -3.27837e-07C7.49999 -3.27837e-07 7.49999 2.93536 7.49999 42.6969C7.49999 64.5505 5.15899 105.926 4.99998 132.689C4.69797 183.522 4.99999 222.727 4.99999 264.064C5 418.43 8.12501 411.204 7.50002 664.758C7.46126 680.481 4.24831 756.788 5.00001 823.722C5.41031 860.256 10 893.536 10 913.714C10 943.931 7.50003 984 7.50003 984L0 984Z" fill="#E0E0E0"/>
<path d="M749 0L749 984L741.5 984C741.5 984 741.5 981.065 741.5 941.303C741.5 919.449 743.841 878.074 744 851.311C744.302 800.478 744 761.273 744 719.936C744 565.57 740.875 572.796 741.5 319.242C741.539 303.519 744.752 227.212 744 160.278C743.59 123.744 739 90.4642 739 70.2857C739 40.0694 741.5 8.94367e-08 741.5 8.94367e-08L749 0Z" fill="#E0E0E0"/>
<path d="M455 192.754C455 192.754 468.197 193.828 478.55 192.754C518.054 188.655 539.705 192.754 579.209 194.803C607.818 196.287 624.791 194.291 654.419 192.754C682.137 191.316 702.189 192.754 730 192.754C739.872 192.754 749 192.754 749 192.754V200.438C749 200.438 748.123 200.438 736.243 200.438C729.714 200.438 717.351 198.04 709.355 197.877C694.167 197.567 666.769 197.877 654.419 197.877C608.297 197.877 664.126 195.933 588.5 200.438C545.5 203 539.499 197.107 519.5 197.877C508.585 198.297 490.529 197.877 484.5 197.877C475.472 197.877 455 200.438 455 200.438V192.754Z" fill="#E0E0E0"/>
<path d="M455 387.754C455 387.754 468.197 388.828 478.55 387.754C518.054 383.655 539.705 387.754 579.209 389.803C607.818 391.287 624.791 389.291 654.419 387.754C682.137 386.316 701.977 385.795 729.628 388.778C739.124 389.803 749 387.754 749 387.754V395.438C749 395.438 748.123 395.438 736.243 395.438C729.714 395.438 717.351 393.04 709.355 392.877C694.167 392.567 689.94 392.877 677.589 392.877C631.468 392.877 626.14 396.079 550.383 395.438C545.686 395.399 522.886 392.107 502.888 392.877C491.972 393.297 482.029 398 476 398C466.972 398 455 395.438 455 395.438V387.754Z" fill="#E0E0E0"/>
<path d="M455 584.768C455 584.768 461.647 585.842 472 584.768C511.504 580.669 539.705 584.768 579.209 586.817C607.818 588.301 635.872 584.051 665.5 582.514C693.219 581.076 701.977 582.809 729.628 585.792C739.124 586.817 749 584.768 749 584.768V592.453C749 592.453 748.88 594.514 737 594.514C730.471 594.514 715.5 592.453 702.5 591.014C685.033 589.081 669.833 590.357 657.5 591.014C630.5 592.453 638 592.453 582 593.514C577.303 593.603 556.409 590.794 533 589.514C521.081 588.862 507.5 588.514 491.5 589.514C482.49 590.077 455 592.453 455 592.453V584.768Z" fill="#E0E0E0"/>
<path d="M455 781.213C455 781.213 491.647 784.336 502 783.262C545 778.801 541.996 779.163 581.5 781.213C610.108 782.697 624.791 782.75 654.419 781.213C682.137 779.775 692.349 774.976 720 777.959C729.496 778.984 749 781.213 749 781.213V788.897C749 788.897 743.88 786.336 732 786.336C725.471 786.336 717.351 786.499 709.355 786.336C694.167 786.026 686 787.959 673.5 788.897C627.508 792.35 665.757 792.099 590 791.459C585.302 791.419 547.499 788.127 527.5 788.897C516.585 789.318 482.029 791.459 476 791.459C466.972 791.459 455 788.897 455 788.897V781.213Z" fill="#E0E0E0"/>
<path d="M458.246 -7.66555e-08C458.246 -7.66555e-08 457.172 44.1704 458.246 78.8217C462.345 211.039 458.246 283.504 456.197 415.721C454.713 511.471 456.709 568.279 458.246 667.442C459.684 760.215 460.205 826.617 457.222 919.163C456.197 950.946 458.246 984 458.246 984L450.562 984C450.562 984 450.562 981.065 450.562 941.303C450.562 919.449 452.96 878.074 453.123 851.311C453.433 800.478 453.123 786.329 453.123 744.992C453.123 590.626 449.921 572.796 450.562 319.242C450.601 303.519 453.893 227.212 453.123 160.278C452.703 123.744 448 90.4642 448 70.2857C448 40.0694 450.562 -4.12565e-07 450.562 -4.12565e-07L458.246 -7.66555e-08Z" fill="#E0E0E0"/>
</svg>
