<svg width="2640" height="1625" viewBox="0 0 2640 1625" fill="none" xmlns="http://www.w3.org/2000/svg">
<path opacity="0.7" d="M2640 0H0V1625H2640V0Z" fill="#231F20"/>
<path d="M1782.43 675.143L1799.11 685.864L1781.24 693.013" stroke="white" stroke-width="3" stroke-miterlimit="10" stroke-linecap="round" stroke-linejoin="round"/>
<path d="M1699.82 684.08C1718.89 682.89 1651.23 686.328 1691.87 684.67C1750.26 682.289 1799.11 685.864 1799.11 685.864" stroke="white" stroke-width="3" stroke-miterlimit="10" stroke-linecap="round" stroke-linejoin="round"/>
<path d="M1998.92 238.665L2015.6 249.386L1997.72 256.536" stroke="white" stroke-width="3" stroke-miterlimit="10" stroke-linecap="round" stroke-linejoin="round"/>
<path d="M1916.31 247.602C1935.37 246.412 1867.72 249.85 1908.36 248.192C1966.74 245.811 2015.6 249.386 2015.6 249.386" stroke="white" stroke-width="3" stroke-miterlimit="10" stroke-linecap="round" stroke-linejoin="round"/>
<path d="M2089.29 580.148L2078.57 596.831L2071.42 578.957" stroke="white" stroke-width="3" stroke-miterlimit="10" stroke-linecap="round" stroke-linejoin="round"/>
<path d="M2080.35 497.542C2081.54 516.606 2078.1 448.952 2079.76 489.591C2082.14 547.976 2078.56 596.831 2078.56 596.831" stroke="white" stroke-width="3" stroke-miterlimit="10" stroke-linecap="round" stroke-linejoin="round"/>
<path d="M1503.65 656.844C1503.64 656.023 1504.1 655.613 1505.01 655.613H1521.41C1522.45 655.613 1522.98 656.008 1522.99 656.797C1523 657.625 1522.49 658.039 1521.44 658.039H1520.66C1520.66 663.086 1520.68 668.137 1520.69 673.191C1520.69 674.012 1520.29 674.434 1519.5 674.457C1518.73 674.48 1518.34 674.082 1518.34 673.262L1518.23 658.039H1508.96C1508.97 663.086 1508.98 668.137 1509 673.191C1509 674.012 1508.6 674.434 1507.8 674.457C1507.04 674.48 1506.65 674.082 1506.64 673.262L1506.54 658.039H1505.02C1504.11 658.039 1503.65 657.641 1503.65 656.844ZM1527.24 668.926C1527.28 669.809 1527.68 670.582 1528.44 671.246C1529.31 672.02 1530.3 672.402 1531.39 672.395C1532.98 672.379 1534.05 672.066 1534.6 671.457C1535.12 670.871 1535.55 670.543 1535.89 670.473C1536.27 670.395 1536.53 670.512 1536.69 670.824C1537.05 671.551 1536.88 672.23 1536.17 672.863C1534.92 673.973 1533.28 674.52 1531.25 674.504C1529.76 674.488 1528.45 674.02 1527.34 673.098C1525.95 671.957 1525.25 670.41 1525.25 668.457C1525.25 666.848 1525.69 665.414 1526.56 664.156C1527.66 662.586 1529.07 661.746 1530.8 661.637C1532.61 661.527 1534.02 661.973 1535.04 662.973C1536 663.91 1536.46 664.977 1536.42 666.172C1536.39 667.133 1535.95 667.672 1535.12 667.789L1527.24 668.926ZM1527.5 666.992L1534.39 665.984C1534.27 665.305 1533.92 664.773 1533.32 664.391C1532.64 663.953 1531.91 663.738 1531.13 663.746C1530.05 663.746 1529.12 664.227 1528.34 665.188C1528 665.617 1527.72 666.219 1527.5 666.992ZM1540 680.691C1539.19 680.691 1538.79 680.301 1538.81 679.52L1539.18 662.562C1539.2 661.711 1539.62 661.293 1540.46 661.309C1540.87 661.316 1541.17 661.543 1541.36 661.988C1541.75 661.684 1542.67 661.539 1544.11 661.555C1545.5 661.562 1546.7 662.121 1547.73 663.23C1548.74 664.316 1549.25 665.586 1549.25 667.039C1549.26 669.141 1548.8 670.766 1547.88 671.914C1546.85 673.195 1545.57 673.891 1544.06 674C1542.72 674.102 1541.79 673.891 1541.27 673.367C1541.26 673.359 1541.25 673.352 1541.23 673.344L1541.09 679.59C1541.08 680.324 1540.71 680.691 1540 680.691ZM1541.45 664.531L1541.3 670.602C1542.06 671.445 1542.88 671.836 1543.75 671.773C1544.91 671.695 1545.79 671.215 1546.38 670.332C1546.89 669.59 1547.15 668.68 1547.16 667.602C1547.18 666.594 1546.89 665.715 1546.29 664.965C1545.77 664.324 1545.01 663.938 1544.01 663.805C1542.95 663.664 1542.09 663.906 1541.45 664.531ZM1553.23 668.926C1553.27 669.809 1553.67 670.582 1554.43 671.246C1555.3 672.02 1556.29 672.402 1557.38 672.395C1558.98 672.379 1560.05 672.066 1560.59 671.457C1561.12 670.871 1561.55 670.543 1561.88 670.473C1562.26 670.395 1562.52 670.512 1562.68 670.824C1563.05 671.551 1562.88 672.23 1562.16 672.863C1560.91 673.973 1559.27 674.52 1557.24 674.504C1555.75 674.488 1554.45 674.02 1553.33 673.098C1551.94 671.957 1551.24 670.41 1551.24 668.457C1551.24 666.848 1551.68 665.414 1552.55 664.156C1553.65 662.586 1555.06 661.746 1556.8 661.637C1558.6 661.527 1560.01 661.973 1561.03 662.973C1561.99 663.91 1562.45 664.977 1562.41 666.172C1562.38 667.133 1561.95 667.672 1561.11 667.789L1553.23 668.926ZM1553.49 666.992L1560.38 665.984C1560.27 665.305 1559.91 664.773 1559.32 664.391C1558.63 663.953 1557.9 663.738 1557.12 663.746C1556.05 663.746 1555.12 664.227 1554.34 665.188C1553.99 665.617 1553.71 666.219 1553.49 666.992ZM1566.04 674.223C1565.45 674.223 1565.15 673.938 1565.15 673.367L1565.08 662.328C1565.08 661.836 1565.41 661.59 1566.08 661.59C1566.77 661.59 1567.12 661.836 1567.11 662.328L1567.09 666.055C1568.91 666.023 1569.93 665.719 1570.14 665.141C1570.97 662.875 1571.95 661.781 1573.06 661.859C1574.04 661.93 1574.48 662.207 1574.4 662.691C1574.29 663.301 1574.1 663.602 1573.84 663.594C1573.25 663.578 1572.55 664.492 1571.73 666.336C1571.54 666.75 1571.23 667.105 1570.81 667.402C1572.04 668.223 1573.14 669.555 1574.12 671.398C1574.94 672.953 1574.91 673.855 1574.02 674.105C1573.31 674.309 1572.7 673.898 1572.18 672.875C1570.93 670.383 1569.61 668.863 1568.22 668.316C1567.87 668.371 1567.49 668.414 1567.07 668.445C1567.07 670.086 1567.06 671.727 1567.05 673.367C1567.04 673.938 1566.71 674.223 1566.04 674.223ZM1587.82 661.555C1588.6 661.578 1588.98 662 1588.98 662.82L1589.02 672.77C1589.03 673.887 1588.63 674.438 1587.83 674.422C1587.09 674.414 1586.72 673.852 1586.71 672.734L1586.67 663.852H1581.27L1581.3 668.492C1581.33 672.375 1579.93 674.352 1577.08 674.422C1576.11 674.445 1575.58 674.141 1575.49 673.508C1575.35 672.602 1575.93 672.133 1577.25 672.102C1578.46 672.07 1579.06 670.855 1579.04 668.457L1578.98 662.75C1578.97 661.93 1579.39 661.531 1580.25 661.555C1580.32 661.555 1580.39 661.562 1580.46 661.578C1582.71 661.578 1584.98 661.574 1587.24 661.566C1587.32 661.566 1587.4 661.57 1587.48 661.578C1587.59 661.562 1587.7 661.555 1587.82 661.555ZM1605.63 661.238C1609.45 661.27 1611.36 663.574 1611.36 668.152C1611.35 669.887 1610.62 671.52 1609.17 673.051C1608.1 674.152 1606.59 674.703 1604.63 674.703C1603.05 674.703 1601.62 674.051 1600.36 672.746C1599.51 671.879 1599 670.727 1598.83 669.289H1593.91L1593.79 673.355C1593.76 674.207 1593.38 674.625 1592.64 674.609C1591.93 674.594 1591.59 674.168 1591.62 673.332L1591.94 661.93C1591.97 661.219 1592.34 660.855 1593.04 660.84C1593.76 660.84 1594.11 661.227 1594.1 662L1593.97 667.133H1598.83C1599.04 665.789 1599.64 664.535 1600.66 663.371C1601.95 661.934 1603.61 661.223 1605.63 661.238ZM1605.75 663.746C1604.5 663.77 1603.57 664.145 1602.96 664.871C1602.01 665.988 1601.54 667.156 1601.54 668.375C1601.54 669.672 1601.88 670.637 1602.57 671.27C1603.24 671.895 1604.01 672.207 1604.87 672.207C1605.72 672.207 1606.6 671.879 1607.5 671.223C1608.32 670.629 1608.72 669.523 1608.72 667.906C1608.72 665.094 1607.73 663.707 1605.75 663.746ZM1622.62 674.598C1621.81 674.598 1621.41 674.211 1621.43 673.438C1621.43 672.219 1621.45 671 1621.46 669.781C1620.71 670.203 1619.76 670.422 1618.61 670.438C1615.19 670.484 1613.45 669.117 1613.39 666.336L1613.29 662.785C1613.26 661.848 1613.64 661.344 1614.42 661.273C1615.17 661.203 1615.56 661.637 1615.59 662.574L1615.68 665.516C1615.75 667.398 1616.54 668.297 1618.07 668.211C1619.81 668.109 1620.95 667.527 1621.48 666.465C1621.49 665.137 1621.5 663.809 1621.52 662.48C1621.54 661.629 1621.96 661.207 1622.81 661.215C1623.5 661.23 1623.84 661.66 1623.83 662.504L1623.72 673.508C1623.71 674.234 1623.34 674.598 1622.62 674.598ZM1627.4 661.73C1628.23 661.707 1628.65 662.09 1628.67 662.879L1628.91 670.543L1635.89 662.34C1636.04 662.152 1636.21 662.012 1636.38 661.918C1636.54 661.801 1636.76 661.738 1637.04 661.73C1637.86 661.707 1638.29 662.09 1638.3 662.879L1638.63 672.957C1638.66 674.027 1638.29 674.574 1637.5 674.598C1636.69 674.621 1636.27 674.098 1636.24 673.027L1636.05 665.516L1628.77 674.117C1628.71 674.219 1628.64 674.301 1628.56 674.363C1628.54 674.387 1628.52 674.41 1628.5 674.434C1628.18 674.832 1627.81 674.867 1627.4 674.539C1626.89 674.375 1626.63 673.871 1626.61 673.027L1626.35 662.949C1626.33 662.16 1626.68 661.754 1627.4 661.73ZM1642.78 661.625H1649.53C1650.54 661.625 1651.06 662.035 1651.07 662.855C1651.09 663.621 1650.57 664.008 1649.53 664.016C1648.81 664.016 1648.09 664.02 1647.38 664.027C1647.38 667.184 1647.36 670.336 1647.35 673.484C1647.35 674.336 1646.92 674.754 1646.07 674.738C1645.38 674.723 1645.04 674.297 1645.04 673.461C1645.05 670.32 1645.07 667.18 1645.09 664.039L1642.67 664.051C1641.69 664.059 1641.2 663.621 1641.2 662.738C1641.2 661.996 1641.72 661.625 1642.78 661.625ZM1654.24 674.152C1653.65 674.152 1653.37 673.852 1653.38 673.25L1653.62 662.398C1653.63 661.703 1653.93 661.348 1654.52 661.332C1655.29 661.316 1655.66 661.664 1655.66 662.375L1655.56 666.184C1656.05 666.121 1656.46 666.09 1656.77 666.09C1659.54 666.074 1661.22 666.605 1661.83 667.684C1662.72 669.199 1662.83 670.598 1662.16 671.879C1661.55 673.066 1660.42 673.773 1658.76 674C1657.65 674.156 1656.28 674.191 1654.65 674.105C1654.53 674.137 1654.39 674.152 1654.24 674.152ZM1655.43 672.066C1656.36 672.082 1657.07 672.082 1657.57 672.066C1659.36 671.973 1660.27 671.355 1660.29 670.215C1660.32 669.254 1659.9 668.613 1659.04 668.293C1658.36 668.035 1657.19 668 1655.54 668.188L1655.43 672.066ZM1546.11 695.703L1543.62 703.555C1543.36 704.398 1542.88 704.711 1542.18 704.492C1541.55 704.297 1541.37 703.777 1541.63 702.934L1544.86 692.668C1545.07 692.004 1545.48 691.684 1546.11 691.707C1546.73 691.684 1547.15 692.004 1547.36 692.668L1549.72 700.168L1552.07 692.668C1552.29 692.004 1552.7 691.684 1553.33 691.707C1553.95 691.684 1554.37 692.004 1554.58 692.668L1557.8 702.934C1558.07 703.777 1557.89 704.297 1557.25 704.492C1556.56 704.711 1556.08 704.398 1555.81 703.555L1553.33 695.703L1550.84 703.555C1550.62 704.266 1550.24 704.598 1549.72 704.551C1549.2 704.59 1548.82 704.258 1548.59 703.555L1546.11 695.703ZM1569.9 691.941C1570.65 692.262 1570.82 692.883 1570.43 693.805L1563.73 709.238C1563.2 710.488 1562.58 710.973 1561.89 710.691C1561.07 710.355 1560.93 709.566 1561.47 708.324L1563.8 702.934L1558.93 693.91C1558.43 692.988 1558.52 692.344 1559.21 691.977C1559.94 691.586 1560.55 691.855 1561.04 692.785L1564.96 700.25L1568.18 692.855C1568.57 691.934 1569.15 691.629 1569.9 691.941ZM1576.55 696.781C1575.68 697.047 1575.28 697.484 1575.36 698.094C1575.41 698.578 1575.89 698.852 1576.79 698.914C1577.95 698.992 1578.55 699.57 1578.59 700.648C1578.62 701.719 1578.09 702.312 1577 702.43C1575.78 702.562 1574.88 702.391 1574.3 701.914C1573.72 701.43 1573.25 701.195 1572.9 701.211C1572.27 701.242 1571.93 701.617 1571.89 702.336C1571.88 702.711 1572.19 703.125 1572.83 703.578C1574.32 704.633 1575.98 704.914 1577.82 704.422C1579.59 703.938 1580.54 702.953 1580.66 701.469C1580.75 700.281 1580.57 699.359 1580.12 698.703C1579.74 698.156 1579.36 697.766 1578.97 697.531C1579.59 696.859 1579.94 696.438 1580 696.266C1580.46 695.164 1580.35 694.172 1579.67 693.289C1578.91 692.305 1577.87 691.781 1576.53 691.719C1575.34 691.664 1574.27 691.891 1573.34 692.398C1572.63 692.797 1572.3 693.332 1572.35 694.004C1572.39 694.48 1572.64 694.746 1573.11 694.801C1573.34 694.832 1573.91 694.57 1574.81 694.016C1575.32 693.711 1575.96 693.637 1576.73 693.793C1577.68 693.988 1578.15 694.398 1578.15 695.023C1578.15 695.875 1577.62 696.461 1576.55 696.781ZM1593.37 691.754H1598.48C1599.25 691.754 1599.65 692.117 1599.66 692.844C1599.68 693.5 1599.29 693.832 1598.48 693.84L1597.33 693.852C1597.32 696.562 1597.31 699.27 1597.3 701.973H1598.48C1599.25 701.973 1599.65 702.336 1599.66 703.062C1599.68 703.719 1599.29 704.051 1598.48 704.059L1593.27 704.094C1592.53 704.102 1592.16 703.75 1592.16 703.039C1592.16 702.328 1592.57 701.973 1593.37 701.973H1594.99C1595 699.27 1595.02 696.566 1595.05 693.863L1593.27 693.875C1592.53 693.883 1592.16 693.531 1592.16 692.82C1592.16 692.109 1592.57 691.754 1593.37 691.754ZM1584.15 704.152C1583.56 704.152 1583.28 703.852 1583.29 703.25L1583.53 692.398C1583.54 691.703 1583.84 691.348 1584.43 691.332C1585.2 691.316 1585.57 691.664 1585.57 692.375L1585.47 696.184C1585.96 696.121 1586.37 696.09 1586.68 696.09C1589.45 696.074 1591.13 696.605 1591.74 697.684C1592.63 699.199 1592.74 700.598 1592.07 701.879C1591.46 703.066 1590.33 703.773 1588.67 704C1587.56 704.156 1586.19 704.191 1584.56 704.105C1584.44 704.137 1584.3 704.152 1584.15 704.152ZM1585.34 702.066C1586.27 702.082 1586.98 702.082 1587.48 702.066C1589.27 701.973 1590.18 701.355 1590.2 700.215C1590.23 699.254 1589.81 698.613 1588.95 698.293C1588.27 698.035 1587.1 698 1585.45 698.188L1585.34 702.066ZM1603.37 704.223C1602.77 704.223 1602.48 703.938 1602.48 703.367L1602.41 692.328C1602.41 691.836 1602.74 691.59 1603.4 691.59C1604.1 691.59 1604.44 691.836 1604.43 692.328L1604.41 696.055C1606.24 696.023 1607.26 695.719 1607.47 695.141C1608.3 692.875 1609.27 691.781 1610.39 691.859C1611.36 691.93 1611.81 692.207 1611.72 692.691C1611.61 693.301 1611.43 693.602 1611.16 693.594C1610.57 693.578 1609.87 694.492 1609.05 696.336C1608.86 696.75 1608.56 697.105 1608.14 697.402C1609.36 698.223 1610.46 699.555 1611.44 701.398C1612.26 702.953 1612.23 703.855 1611.35 704.105C1610.64 704.309 1610.02 703.898 1609.51 702.875C1608.25 700.383 1606.93 698.863 1605.55 698.316C1605.2 698.371 1604.81 698.414 1604.4 698.445C1604.39 700.086 1604.38 701.727 1604.38 703.367C1604.37 703.938 1604.03 704.223 1603.37 704.223ZM1623.73 691.941C1624.48 692.262 1624.66 692.883 1624.26 693.805L1617.57 709.238C1617.03 710.488 1616.42 710.973 1615.73 710.691C1614.91 710.355 1614.77 709.566 1615.31 708.324L1617.64 702.934L1612.77 693.91C1612.27 692.988 1612.36 692.344 1613.05 691.977C1613.77 691.586 1614.38 691.855 1614.88 692.785L1618.8 700.25L1622.01 692.855C1622.41 691.934 1622.98 691.629 1623.73 691.941Z" fill="white"/>
<path d="M2010.44 408.844C2010.43 408.023 2010.89 407.613 2011.8 407.613H2028.2C2029.24 407.613 2029.77 408.008 2029.78 408.797C2029.79 409.625 2029.28 410.039 2028.23 410.039H2027.45C2027.45 415.086 2027.46 420.137 2027.48 425.191C2027.48 426.012 2027.08 426.434 2026.29 426.457C2025.52 426.48 2025.13 426.082 2025.12 425.262L2025.02 410.039H2015.75C2015.76 415.086 2015.77 420.137 2015.79 425.191C2015.79 426.012 2015.39 426.434 2014.59 426.457C2013.82 426.48 2013.44 426.082 2013.43 425.262L2013.32 410.039H2011.81C2010.9 410.039 2010.44 409.641 2010.44 408.844ZM2037.72 416.098C2036.7 416.121 2035.93 416.477 2035.43 417.164C2034.64 418.227 2034.25 419.395 2034.25 420.668C2034.25 421.895 2034.54 422.812 2035.1 423.422C2035.68 424.047 2036.34 424.359 2037.09 424.359C2037.94 424.359 2038.66 424.047 2039.25 423.422C2039.86 422.758 2040.18 421.691 2040.18 420.223C2040.19 417.441 2039.37 416.066 2037.72 416.098ZM2037.63 413.707C2040.79 413.73 2042.37 415.98 2042.36 420.457C2042.36 422.363 2041.93 423.812 2041.1 424.805C2040.16 426 2038.73 426.59 2036.81 426.574C2035.42 426.566 2034.24 425.988 2033.27 424.84C2032.39 423.801 2031.96 422.34 2031.96 420.457C2031.96 418.676 2032.48 417.098 2033.53 415.723C2034.56 414.363 2035.93 413.691 2037.63 413.707ZM2054.7 423.527C2055.39 423.066 2055.95 423.203 2056.39 423.938C2056.65 424.375 2056.45 424.887 2055.78 425.473C2054.92 426.207 2053.57 426.57 2051.73 426.562C2050.27 426.555 2049.07 426.086 2048.11 425.156C2046.91 424 2046.31 422.551 2046.31 420.809C2046.31 418.887 2046.74 417.312 2047.59 416.086C2048.62 414.594 2049.93 413.789 2051.53 413.672C2052.46 413.602 2053.3 413.691 2054.07 413.941C2055.02 414.262 2055.64 414.664 2055.96 415.148C2056.43 415.898 2056.41 416.465 2055.88 416.848C2055.51 417.113 2054.95 416.965 2054.19 416.402C2053.27 415.723 2052.24 415.566 2051.08 415.934C2050.43 416.137 2049.85 416.613 2049.32 417.363C2048.73 418.223 2048.42 419.207 2048.4 420.316C2048.38 421.363 2048.68 422.32 2049.31 423.188C2049.89 423.961 2050.7 424.367 2051.73 424.406C2052.79 424.445 2053.78 424.152 2054.7 423.527ZM2062.61 417.703L2060.13 425.555C2059.86 426.398 2059.38 426.711 2058.69 426.492C2058.05 426.297 2057.87 425.777 2058.14 424.934L2061.36 414.668C2061.57 414.004 2061.99 413.684 2062.61 413.707C2063.24 413.684 2063.66 414.004 2063.87 414.668L2066.22 422.168L2068.58 414.668C2068.79 414.004 2069.21 413.684 2069.83 413.707C2070.46 413.684 2070.88 414.004 2071.09 414.668L2074.31 424.934C2074.57 425.777 2074.39 426.297 2073.76 426.492C2073.06 426.711 2072.58 426.398 2072.32 425.555L2069.83 417.703L2067.35 425.555C2067.12 426.266 2066.75 426.598 2066.22 426.551C2065.7 426.59 2065.32 426.258 2065.1 425.555L2062.61 417.703ZM2081.88 416.098C2080.86 416.121 2080.09 416.477 2079.58 417.164C2078.8 418.227 2078.41 419.395 2078.41 420.668C2078.41 421.895 2078.69 422.812 2079.25 423.422C2079.83 424.047 2080.5 424.359 2081.25 424.359C2082.1 424.359 2082.82 424.047 2083.4 423.422C2084.02 422.758 2084.33 421.691 2084.34 420.223C2084.35 417.441 2083.53 416.066 2081.88 416.098ZM2081.79 413.707C2084.95 413.73 2086.53 415.98 2086.52 420.457C2086.51 422.363 2086.09 423.812 2085.25 424.805C2084.32 426 2082.89 426.59 2080.96 426.574C2079.57 426.566 2078.39 425.988 2077.43 424.84C2076.55 423.801 2076.11 422.34 2076.11 420.457C2076.11 418.676 2076.64 417.098 2077.68 415.723C2078.71 414.363 2080.08 413.691 2081.79 413.707ZM2091.68 413.625H2098.43C2099.44 413.625 2099.96 414.035 2099.97 414.855C2099.99 415.621 2099.47 416.008 2098.43 416.016C2097.71 416.016 2096.99 416.02 2096.28 416.027C2096.27 419.184 2096.26 422.336 2096.25 425.484C2096.25 426.336 2095.82 426.754 2094.97 426.738C2094.28 426.723 2093.94 426.297 2093.94 425.461C2093.95 422.32 2093.97 419.18 2093.98 416.039L2091.57 416.051C2090.59 416.059 2090.09 415.621 2090.09 414.738C2090.09 413.996 2090.62 413.625 2091.68 413.625ZM2103.32 432.691C2102.51 432.691 2102.11 432.301 2102.13 431.52L2102.5 414.562C2102.52 413.711 2102.95 413.293 2103.78 413.309C2104.19 413.316 2104.49 413.543 2104.68 413.988C2105.07 413.684 2105.99 413.539 2107.43 413.555C2108.82 413.562 2110.02 414.121 2111.05 415.23C2112.06 416.316 2112.57 417.586 2112.57 419.039C2112.58 421.141 2112.12 422.766 2111.2 423.914C2110.17 425.195 2108.89 425.891 2107.38 426C2106.04 426.102 2105.11 425.891 2104.59 425.367C2104.58 425.359 2104.57 425.352 2104.55 425.344L2104.41 431.59C2104.4 432.324 2104.04 432.691 2103.32 432.691ZM2104.77 416.531L2104.62 422.602C2105.38 423.445 2106.2 423.836 2107.07 423.773C2108.23 423.695 2109.11 423.215 2109.7 422.332C2110.21 421.59 2110.47 420.68 2110.48 419.602C2110.5 418.594 2110.21 417.715 2109.61 416.965C2109.09 416.324 2108.33 415.938 2107.33 415.805C2106.27 415.664 2105.41 415.906 2104.77 416.531ZM2116.55 420.926C2116.59 421.809 2116.99 422.582 2117.75 423.246C2118.62 424.02 2119.61 424.402 2120.7 424.395C2122.3 424.379 2123.37 424.066 2123.91 423.457C2124.44 422.871 2124.87 422.543 2125.2 422.473C2125.58 422.395 2125.84 422.512 2126 422.824C2126.37 423.551 2126.2 424.23 2125.48 424.863C2124.23 425.973 2122.59 426.52 2120.56 426.504C2119.07 426.488 2117.77 426.02 2116.65 425.098C2115.26 423.957 2114.56 422.41 2114.56 420.457C2114.56 418.848 2115 417.414 2115.88 416.156C2116.97 414.586 2118.38 413.746 2120.12 413.637C2121.92 413.527 2123.33 413.973 2124.35 414.973C2125.31 415.91 2125.77 416.977 2125.73 418.172C2125.7 419.133 2125.27 419.672 2124.43 419.789L2116.55 420.926ZM2116.81 418.992L2123.7 417.984C2123.59 417.305 2123.23 416.773 2122.64 416.391C2121.95 415.953 2121.22 415.738 2120.45 415.746C2119.37 415.746 2118.44 416.227 2117.66 417.188C2117.31 417.617 2117.03 418.219 2116.81 418.992ZM2128.99 413.625H2135.74C2136.75 413.625 2137.27 414.035 2137.29 414.855C2137.3 415.621 2136.79 416.008 2135.74 416.016C2135.02 416.016 2134.3 416.02 2133.59 416.027C2133.59 419.184 2133.57 422.336 2133.56 425.484C2133.56 426.336 2133.13 426.754 2132.28 426.738C2131.59 426.723 2131.25 426.297 2131.25 425.461C2131.27 422.32 2131.28 419.18 2131.3 416.039L2128.88 416.051C2127.9 416.059 2127.41 415.621 2127.41 414.738C2127.41 413.996 2127.93 413.625 2128.99 413.625ZM2140.45 426.152C2139.86 426.152 2139.58 425.852 2139.59 425.25L2139.83 414.398C2139.84 413.703 2140.14 413.348 2140.73 413.332C2141.5 413.316 2141.88 413.664 2141.87 414.375L2141.77 418.184C2142.27 418.121 2142.67 418.09 2142.98 418.09C2145.75 418.074 2147.43 418.605 2148.04 419.684C2148.93 421.199 2149.04 422.598 2148.37 423.879C2147.76 425.066 2146.63 425.773 2144.97 426C2143.86 426.156 2142.49 426.191 2140.86 426.105C2140.74 426.137 2140.61 426.152 2140.45 426.152ZM2141.64 424.066C2142.57 424.082 2143.28 424.082 2143.78 424.066C2145.57 423.973 2146.48 423.355 2146.5 422.215C2146.53 421.254 2146.11 420.613 2145.25 420.293C2144.57 420.035 2143.4 420 2141.75 420.188L2141.64 424.066ZM2039.87 462.68C2039.05 462.68 2038.65 462.293 2038.65 461.52C2038.65 459.66 2038.64 457.801 2038.64 455.941C2037.79 456.277 2036.95 456.414 2036.09 456.352C2034.55 456.258 2033.33 455.664 2032.44 454.57C2031.34 453.234 2030.84 451.488 2030.94 449.332C2031.01 447.762 2031.65 446.414 2032.86 445.289C2033.84 444.375 2034.96 443.934 2036.2 443.965C2037.04 443.996 2037.85 444.234 2038.61 444.68C2038.61 444.641 2038.61 444.602 2038.61 444.562C2038.61 443.711 2039.03 443.293 2039.87 443.309C2040.57 443.324 2040.92 443.75 2040.92 444.586V444.727C2041.72 444.25 2042.55 443.996 2043.42 443.965C2044.64 443.926 2045.76 444.367 2046.76 445.289C2047.97 446.414 2048.61 447.762 2048.68 449.332C2048.77 451.34 2048.27 453.086 2047.18 454.57C2046.4 455.641 2045.18 456.234 2043.52 456.352C2042.65 456.414 2041.79 456.27 2040.93 455.918V461.59C2040.93 462.301 2040.58 462.664 2039.87 462.68ZM2040.92 447.328L2040.93 453.246C2041.68 453.934 2042.48 454.242 2043.35 454.172C2044.33 454.078 2045.12 453.656 2045.7 452.906C2046.3 452.125 2046.61 451.121 2046.61 449.895C2046.6 448.824 2046.3 447.977 2045.7 447.352C2044.91 446.508 2044 446.129 2043 446.215C2042.24 446.277 2041.55 446.648 2040.92 447.328ZM2038.64 453.305L2038.61 447.246C2038.01 446.621 2037.35 446.277 2036.62 446.215C2035.61 446.129 2034.71 446.508 2033.91 447.352C2033.32 447.977 2033.02 448.824 2033.01 449.895C2033.01 451.113 2033.31 452.117 2033.91 452.906C2034.5 453.656 2035.29 454.078 2036.27 454.172C2037.12 454.242 2037.91 453.953 2038.64 453.305ZM2056.13 446.098C2055.11 446.121 2054.34 446.477 2053.84 447.164C2053.05 448.227 2052.66 449.395 2052.66 450.668C2052.66 451.895 2052.95 452.812 2053.51 453.422C2054.09 454.047 2054.75 454.359 2055.5 454.359C2056.35 454.359 2057.07 454.047 2057.66 453.422C2058.27 452.758 2058.59 451.691 2058.59 450.223C2058.6 447.441 2057.78 446.066 2056.13 446.098ZM2056.04 443.707C2059.2 443.73 2060.78 445.98 2060.77 450.457C2060.77 452.363 2060.34 453.812 2059.51 454.805C2058.57 456 2057.14 456.59 2055.22 456.574C2053.83 456.566 2052.65 455.988 2051.68 454.84C2050.8 453.801 2050.37 452.34 2050.37 450.457C2050.37 448.676 2050.89 447.098 2051.94 445.723C2052.97 444.363 2054.34 443.691 2056.04 443.707ZM2065.93 443.625H2072.68C2073.7 443.625 2074.21 444.035 2074.23 444.855C2074.24 445.621 2073.73 446.008 2072.68 446.016C2071.96 446.016 2071.25 446.02 2070.54 446.027C2070.53 449.184 2070.52 452.336 2070.5 455.484C2070.5 456.336 2070.07 456.754 2069.22 456.738C2068.54 456.723 2068.19 456.297 2068.19 455.461C2068.21 452.32 2068.22 449.18 2068.24 446.039L2065.82 446.051C2064.84 446.059 2064.35 445.621 2064.35 444.738C2064.35 443.996 2064.88 443.625 2065.93 443.625ZM2081.66 446.098C2080.63 446.121 2079.87 446.477 2079.36 447.164C2078.58 448.227 2078.19 449.395 2078.19 450.668C2078.19 451.895 2078.47 452.812 2079.03 453.422C2079.61 454.047 2080.27 454.359 2081.02 454.359C2081.88 454.359 2082.59 454.047 2083.18 453.422C2083.8 452.758 2084.11 451.691 2084.12 450.223C2084.12 447.441 2083.3 446.066 2081.66 446.098ZM2081.56 443.707C2084.73 443.73 2086.3 445.98 2086.3 450.457C2086.29 452.363 2085.87 453.812 2085.03 454.805C2084.09 456 2082.66 456.59 2080.74 456.574C2079.35 456.566 2078.17 455.988 2077.2 454.84C2076.33 453.801 2075.89 452.34 2075.89 450.457C2075.89 448.676 2076.41 447.098 2077.46 445.723C2078.49 444.363 2079.86 443.691 2081.56 443.707ZM2099.4 456.598C2098.59 456.598 2098.19 456.211 2098.2 455.438C2098.21 454.219 2098.22 453 2098.24 451.781C2097.49 452.203 2096.54 452.422 2095.39 452.438C2091.97 452.484 2090.23 451.117 2090.16 448.336L2090.07 444.785C2090.04 443.848 2090.41 443.344 2091.2 443.273C2091.95 443.203 2092.34 443.637 2092.37 444.574L2092.46 447.516C2092.52 449.398 2093.32 450.297 2094.85 450.211C2096.59 450.109 2097.72 449.527 2098.26 448.465C2098.27 447.137 2098.28 445.809 2098.3 444.48C2098.31 443.629 2098.74 443.207 2099.59 443.215C2100.28 443.23 2100.62 443.66 2100.61 444.504L2100.5 455.508C2100.48 456.234 2100.12 456.598 2099.4 456.598ZM2104.65 456.223C2104.05 456.223 2103.76 455.938 2103.76 455.367L2103.69 444.328C2103.69 443.836 2104.02 443.59 2104.68 443.59C2105.38 443.59 2105.72 443.836 2105.71 444.328L2105.69 448.055C2107.52 448.023 2108.54 447.719 2108.75 447.141C2109.58 444.875 2110.55 443.781 2111.67 443.859C2112.64 443.93 2113.09 444.207 2113 444.691C2112.89 445.301 2112.71 445.602 2112.44 445.594C2111.86 445.578 2111.15 446.492 2110.33 448.336C2110.14 448.75 2109.84 449.105 2109.42 449.402C2110.64 450.223 2111.75 451.555 2112.72 453.398C2113.54 454.953 2113.51 455.855 2112.63 456.105C2111.92 456.309 2111.3 455.898 2110.79 454.875C2109.53 452.383 2108.21 450.863 2106.83 450.316C2106.48 450.371 2106.09 450.414 2105.68 450.445C2105.67 452.086 2105.66 453.727 2105.66 455.367C2105.65 455.938 2105.31 456.223 2104.65 456.223ZM2115.99 443.73C2116.82 443.707 2117.24 444.09 2117.26 444.879L2117.5 452.543L2124.48 444.34C2124.63 444.152 2124.8 444.012 2124.97 443.918C2125.13 443.801 2125.35 443.738 2125.62 443.73C2126.45 443.707 2126.88 444.09 2126.89 444.879L2127.22 454.957C2127.25 456.027 2126.88 456.574 2126.09 456.598C2125.28 456.621 2124.86 456.098 2124.83 455.027L2124.64 447.516L2117.36 456.117C2117.3 456.219 2117.23 456.301 2117.15 456.363C2117.13 456.387 2117.11 456.41 2117.09 456.434C2116.77 456.832 2116.4 456.867 2115.99 456.539C2115.48 456.375 2115.22 455.871 2115.2 455.027L2114.94 444.949C2114.92 444.16 2115.27 443.754 2115.99 443.73Z" fill="white"/>
<path d="M1784.31 227.41C1785.02 226.988 1785.61 227.164 1786.07 227.938L1791.49 236.996L1795.28 228.395C1795.75 227.309 1796.39 226.945 1797.18 227.305C1797.87 227.625 1797.98 228.328 1797.49 229.414L1792.43 240.734C1791.03 243.859 1788.83 245.43 1785.82 245.445C1785.09 245.445 1784.71 245.129 1784.66 244.496C1784.59 243.582 1784.92 243.125 1785.64 243.125C1787.75 243.133 1789.26 242.09 1790.18 239.996L1790.4 239.504C1790.29 239.371 1790.18 239.219 1790.07 239.047L1784.06 229.133C1783.59 228.359 1783.68 227.785 1784.31 227.41ZM1805.84 229.578C1807.51 229.617 1808.54 229.051 1808.93 227.879C1809.28 226.809 1809.73 226.371 1810.29 226.566C1810.88 226.777 1811.02 227.34 1810.71 228.254C1810.01 230.285 1808.37 231.293 1805.79 231.277C1803.38 231.262 1801.82 230.352 1801.11 228.547C1800.64 227.367 1800.76 226.711 1801.45 226.578C1802.16 226.445 1802.59 226.809 1802.75 227.668C1802.98 228.895 1804.01 229.531 1805.84 229.578ZM1800.91 232.73C1801.74 232.707 1802.16 233.09 1802.18 233.879L1802.43 241.543L1809.4 233.34C1809.55 233.152 1809.72 233.012 1809.89 232.918C1810.05 232.801 1810.27 232.738 1810.55 232.73C1811.38 232.707 1811.8 233.09 1811.81 233.879L1812.14 243.957C1812.17 245.027 1811.8 245.574 1811.02 245.598C1810.2 245.621 1809.78 245.098 1809.75 244.027L1809.56 236.516L1802.29 245.117C1802.22 245.219 1802.15 245.301 1802.07 245.363C1802.05 245.387 1802.03 245.41 1802.02 245.434C1801.69 245.832 1801.32 245.867 1800.91 245.539C1800.41 245.375 1800.14 244.871 1800.12 244.027L1799.86 233.949C1799.84 233.16 1800.2 232.754 1800.91 232.73ZM1816.29 232.625H1823.04C1824.05 232.625 1824.57 233.035 1824.59 233.855C1824.6 234.621 1824.09 235.008 1823.04 235.016C1822.32 235.016 1821.61 235.02 1820.89 235.027C1820.89 238.184 1820.88 241.336 1820.86 244.484C1820.86 245.336 1820.43 245.754 1819.58 245.738C1818.89 245.723 1818.55 245.297 1818.55 244.461C1818.57 241.32 1818.58 238.18 1818.6 235.039L1816.18 235.051C1815.2 235.059 1814.71 234.621 1814.71 233.738C1814.71 232.996 1815.23 232.625 1816.29 232.625ZM1827.52 232.73C1828.34 232.707 1828.77 233.09 1828.78 233.879L1829.03 241.543L1836 233.34C1836.16 233.152 1836.32 233.012 1836.49 232.918C1836.66 232.801 1836.88 232.738 1837.15 232.73C1837.98 232.707 1838.4 233.09 1838.41 233.879L1838.74 243.957C1838.77 245.027 1838.4 245.574 1837.62 245.598C1836.8 245.621 1836.38 245.098 1836.35 244.027L1836.16 236.516L1828.89 245.117C1828.82 245.219 1828.75 245.301 1828.68 245.363C1828.65 245.387 1828.63 245.41 1828.62 245.434C1828.29 245.832 1827.92 245.867 1827.52 245.539C1827.01 245.375 1826.74 244.871 1826.72 244.027L1826.46 233.949C1826.45 233.16 1826.8 232.754 1827.52 232.73ZM1751.82 272.527C1752.51 272.066 1753.07 272.203 1753.51 272.938C1753.77 273.375 1753.57 273.887 1752.9 274.473C1752.04 275.207 1750.69 275.57 1748.85 275.562C1747.39 275.555 1746.19 275.086 1745.23 274.156C1744.03 273 1743.43 271.551 1743.43 269.809C1743.43 267.887 1743.86 266.312 1744.71 265.086C1745.74 263.594 1747.05 262.789 1748.65 262.672C1749.58 262.602 1750.43 262.691 1751.19 262.941C1752.14 263.262 1752.77 263.664 1753.08 264.148C1753.55 264.898 1753.53 265.465 1753 265.848C1752.63 266.113 1752.07 265.965 1751.31 265.402C1750.39 264.723 1749.36 264.566 1748.2 264.934C1747.55 265.137 1746.97 265.613 1746.45 266.363C1745.85 267.223 1745.54 268.207 1745.52 269.316C1745.5 270.363 1745.8 271.32 1746.43 272.188C1747.01 272.961 1747.82 273.367 1748.85 273.406C1749.91 273.445 1750.9 273.152 1751.82 272.527ZM1765.55 264.746L1765.43 268.004C1767.6 268.23 1768.98 268.047 1769.58 267.453C1770.2 266.828 1770.23 266.203 1769.67 265.578C1769.27 265.125 1768.34 264.855 1766.91 264.77L1765.55 264.746ZM1764.59 262.66C1764.73 262.66 1764.87 262.676 1764.98 262.707C1765.52 262.605 1766.31 262.633 1767.34 262.789C1770.09 263.188 1771.61 264.039 1771.9 265.344C1772.2 266.672 1771.88 267.742 1770.94 268.555C1770.79 268.68 1770.62 268.797 1770.45 268.906C1770.79 269.016 1771.06 269.141 1771.25 269.281C1772.78 270.375 1773.27 271.648 1772.72 273.102C1772.41 273.922 1771.29 274.57 1769.38 275.047C1767.62 275.477 1765.96 275.617 1764.41 275.469C1764.35 275.477 1764.28 275.48 1764.2 275.48C1763.61 275.465 1763.33 275.109 1763.36 274.414L1763.67 263.562C1763.7 262.961 1764 262.66 1764.59 262.66ZM1766.33 269.926C1766.2 269.934 1766.06 269.941 1765.92 269.949C1765.73 269.957 1765.55 269.953 1765.38 269.938L1765.29 273.734C1766.06 273.688 1767.12 273.543 1768.48 273.301C1769.7 273.074 1770.42 272.852 1770.66 272.633C1771.3 271.977 1771.1 271.285 1770.04 270.559C1769.76 270.371 1768.65 270.176 1766.71 269.973C1766.57 269.957 1766.45 269.941 1766.33 269.926ZM1776.95 269.926C1776.99 270.809 1777.39 271.582 1778.14 272.246C1779.02 273.02 1780 273.402 1781.1 273.395C1782.69 273.379 1783.76 273.066 1784.31 272.457C1784.83 271.871 1785.26 271.543 1785.6 271.473C1785.97 271.395 1786.24 271.512 1786.39 271.824C1786.76 272.551 1786.59 273.23 1785.88 273.863C1784.63 274.973 1782.99 275.52 1780.96 275.504C1779.46 275.488 1778.16 275.02 1777.04 274.098C1775.65 272.957 1774.96 271.41 1774.96 269.457C1774.96 267.848 1775.39 266.414 1776.27 265.156C1777.36 263.586 1778.78 262.746 1780.51 262.637C1782.32 262.527 1783.73 262.973 1784.74 263.973C1785.7 264.91 1786.16 265.977 1786.12 267.172C1786.09 268.133 1785.66 268.672 1784.82 268.789L1776.95 269.926ZM1777.21 267.992L1784.1 266.984C1783.98 266.305 1783.62 265.773 1783.03 265.391C1782.34 264.953 1781.61 264.738 1780.84 264.746C1779.76 264.746 1778.83 265.227 1778.05 266.188C1777.71 266.617 1777.43 267.219 1777.21 267.992ZM1797.33 275.598C1796.52 275.598 1796.12 275.211 1796.13 274.438C1796.14 273.219 1796.15 272 1796.17 270.781C1795.42 271.203 1794.47 271.422 1793.32 271.438C1789.9 271.484 1788.16 270.117 1788.09 267.336L1788 263.785C1787.97 262.848 1788.34 262.344 1789.12 262.273C1789.88 262.203 1790.27 262.637 1790.3 263.574L1790.39 266.516C1790.45 268.398 1791.25 269.297 1792.78 269.211C1794.52 269.109 1795.65 268.527 1796.19 267.465C1796.2 266.137 1796.21 264.809 1796.23 263.48C1796.24 262.629 1796.67 262.207 1797.52 262.215C1798.21 262.23 1798.55 262.66 1798.54 263.504L1798.43 274.508C1798.41 275.234 1798.05 275.598 1797.33 275.598ZM1802.92 269.926C1802.96 270.809 1803.36 271.582 1804.11 272.246C1804.99 273.02 1805.97 273.402 1807.07 273.395C1808.66 273.379 1809.73 273.066 1810.28 272.457C1810.8 271.871 1811.23 271.543 1811.57 271.473C1811.94 271.395 1812.21 271.512 1812.36 271.824C1812.73 272.551 1812.56 273.23 1811.85 273.863C1810.6 274.973 1808.96 275.52 1806.93 275.504C1805.43 275.488 1804.13 275.02 1803.01 274.098C1801.62 272.957 1800.93 271.41 1800.93 269.457C1800.93 267.848 1801.36 266.414 1802.24 265.156C1803.33 263.586 1804.75 262.746 1806.48 262.637C1808.29 262.527 1809.7 262.973 1810.71 263.973C1811.67 264.91 1812.13 265.977 1812.09 267.172C1812.06 268.133 1811.63 268.672 1810.79 268.789L1802.92 269.926ZM1803.18 267.992L1810.07 266.984C1809.95 266.305 1809.59 265.773 1809 265.391C1808.31 264.953 1807.58 264.738 1806.81 264.746C1805.73 264.746 1804.8 265.227 1804.02 266.188C1803.68 266.617 1803.39 267.219 1803.18 267.992ZM1815.68 281.691C1814.87 281.691 1814.47 281.301 1814.48 280.52L1814.86 263.562C1814.88 262.711 1815.3 262.293 1816.14 262.309C1816.54 262.316 1816.84 262.543 1817.04 262.988C1817.43 262.684 1818.34 262.539 1819.78 262.555C1821.17 262.562 1822.38 263.121 1823.4 264.23C1824.42 265.316 1824.93 266.586 1824.93 268.039C1824.93 270.141 1824.48 271.766 1823.55 272.914C1822.52 274.195 1821.25 274.891 1819.73 275C1818.4 275.102 1817.47 274.891 1816.95 274.367C1816.94 274.359 1816.93 274.352 1816.91 274.344L1816.77 280.59C1816.75 281.324 1816.39 281.691 1815.68 281.691ZM1817.12 265.531L1816.98 271.602C1817.74 272.445 1818.55 272.836 1819.43 272.773C1820.59 272.695 1821.46 272.215 1822.05 271.332C1822.56 270.59 1822.82 269.68 1822.84 268.602C1822.86 267.594 1822.56 266.715 1821.96 265.965C1821.45 265.324 1820.69 264.938 1819.69 264.805C1818.62 264.664 1817.77 264.906 1817.12 265.531ZM1828.1 262.73C1828.93 262.707 1829.35 263.09 1829.37 263.879L1829.61 271.543L1836.59 263.34C1836.74 263.152 1836.91 263.012 1837.08 262.918C1837.24 262.801 1837.46 262.738 1837.73 262.73C1838.56 262.707 1838.98 263.09 1839 263.879L1839.33 273.957C1839.36 275.027 1838.98 275.574 1838.2 275.598C1837.39 275.621 1836.97 275.098 1836.94 274.027L1836.75 266.516L1829.47 275.117C1829.41 275.219 1829.34 275.301 1829.26 275.363C1829.24 275.387 1829.22 275.41 1829.2 275.434C1828.88 275.832 1828.51 275.867 1828.1 275.539C1827.59 275.375 1827.33 274.871 1827.3 274.027L1827.05 263.949C1827.03 263.16 1827.38 262.754 1828.1 262.73ZM1843.34 262.098C1844.14 262.113 1844.54 262.496 1844.53 263.246L1844.46 267.828C1846.59 267.797 1848.71 267.766 1850.84 267.734L1850.87 263.199C1850.88 262.449 1851.26 262.082 1852.02 262.098C1852.82 262.113 1853.22 262.496 1853.21 263.246L1853.05 274.566C1853.04 275.301 1852.61 275.652 1851.76 275.621C1851.1 275.598 1850.77 275.215 1850.78 274.473L1850.81 269.973L1844.44 270.102C1844.41 271.586 1844.39 273.074 1844.37 274.566C1844.36 275.301 1843.93 275.652 1843.08 275.621C1842.41 275.598 1842.09 275.215 1842.09 274.473L1842.19 263.199C1842.2 262.449 1842.58 262.082 1843.34 262.098ZM1857.28 275.223C1856.69 275.223 1856.39 274.938 1856.39 274.367L1856.32 263.328C1856.32 262.836 1856.65 262.59 1857.32 262.59C1858.01 262.59 1858.36 262.836 1858.35 263.328L1858.32 267.055C1860.15 267.023 1861.17 266.719 1861.38 266.141C1862.21 263.875 1863.18 262.781 1864.3 262.859C1865.28 262.93 1865.72 263.207 1865.64 263.691C1865.53 264.301 1865.34 264.602 1865.07 264.594C1864.49 264.578 1863.79 265.492 1862.96 267.336C1862.78 267.75 1862.47 268.105 1862.05 268.402C1863.28 269.223 1864.38 270.555 1865.36 272.398C1866.18 273.953 1866.14 274.855 1865.26 275.105C1864.55 275.309 1863.94 274.898 1863.42 273.875C1862.16 271.383 1860.84 269.863 1859.46 269.316C1859.11 269.371 1858.73 269.414 1858.31 269.445C1858.3 271.086 1858.3 272.727 1858.29 274.367C1858.28 274.938 1857.95 275.223 1857.28 275.223ZM1868.62 262.73C1869.45 262.707 1869.88 263.09 1869.89 263.879L1870.14 271.543L1877.11 263.34C1877.27 263.152 1877.43 263.012 1877.6 262.918C1877.77 262.801 1877.98 262.738 1878.26 262.73C1879.09 262.707 1879.51 263.09 1879.52 263.879L1879.85 273.957C1879.88 275.027 1879.51 275.574 1878.73 275.598C1877.91 275.621 1877.49 275.098 1877.46 274.027L1877.27 266.516L1870 275.117C1869.93 275.219 1869.86 275.301 1869.79 275.363C1869.76 275.387 1869.74 275.41 1869.73 275.434C1869.4 275.832 1869.03 275.867 1868.62 275.539C1868.12 275.375 1867.85 274.871 1867.83 274.027L1867.57 263.949C1867.55 263.16 1867.91 262.754 1868.62 262.73Z" fill="white"/>
<path d="M798.737 958.646L815.421 969.367L797.547 976.516" stroke="white" stroke-width="3" stroke-miterlimit="10" stroke-linecap="round" stroke-linejoin="round"/>
<path d="M766.246 967.48C795.656 967.92 815.421 969.367 815.421 969.367" stroke="white" stroke-width="3" stroke-miterlimit="10" stroke-linecap="round" stroke-linejoin="round"/>
<path d="M722.355 744.844C722.348 744.023 722.801 743.613 723.715 743.613H740.109C741.156 743.613 741.684 744.008 741.691 744.797C741.707 745.625 741.191 746.039 740.145 746.039H739.359C739.367 751.086 739.379 756.137 739.395 761.191C739.395 762.012 738.996 762.434 738.199 762.457C737.434 762.48 737.047 762.082 737.039 761.262L736.934 746.039H727.664C727.672 751.086 727.684 756.137 727.699 761.191C727.699 762.012 727.301 762.434 726.504 762.457C725.738 762.48 725.352 762.082 725.344 761.262L725.238 746.039H723.727C722.812 746.039 722.355 745.641 722.355 744.844ZM745.945 756.926C745.984 757.809 746.383 758.582 747.141 759.246C748.016 760.02 749 760.402 750.094 760.395C751.688 760.379 752.758 760.066 753.305 759.457C753.828 758.871 754.258 758.543 754.594 758.473C754.969 758.395 755.234 758.512 755.391 758.824C755.758 759.551 755.586 760.23 754.875 760.863C753.625 761.973 751.984 762.52 749.953 762.504C748.461 762.488 747.156 762.02 746.039 761.098C744.648 759.957 743.953 758.41 743.953 756.457C743.953 754.848 744.391 753.414 745.266 752.156C746.359 750.586 747.773 749.746 749.508 749.637C751.312 749.527 752.723 749.973 753.738 750.973C754.699 751.91 755.16 752.977 755.121 754.172C755.09 755.133 754.656 755.672 753.82 755.789L745.945 756.926ZM746.203 754.992L753.094 753.984C752.977 753.305 752.621 752.773 752.027 752.391C751.34 751.953 750.609 751.738 749.836 751.746C748.758 751.746 747.828 752.227 747.047 753.188C746.703 753.617 746.422 754.219 746.203 754.992ZM758.707 768.691C757.895 768.691 757.496 768.301 757.512 767.52L757.887 750.562C757.902 749.711 758.328 749.293 759.164 749.309C759.57 749.316 759.871 749.543 760.066 749.988C760.457 749.684 761.371 749.539 762.809 749.555C764.199 749.562 765.406 750.121 766.43 751.23C767.445 752.316 767.953 753.586 767.953 755.039C767.961 757.141 767.504 758.766 766.582 759.914C765.551 761.195 764.277 761.891 762.762 762C761.426 762.102 760.496 761.891 759.973 761.367C759.965 761.359 759.953 761.352 759.938 761.344L759.797 767.59C759.781 768.324 759.418 768.691 758.707 768.691ZM760.148 752.531L760.008 758.602C760.766 759.445 761.582 759.836 762.457 759.773C763.613 759.695 764.488 759.215 765.082 758.332C765.59 757.59 765.852 756.68 765.867 755.602C765.883 754.594 765.59 753.715 764.988 752.965C764.473 752.324 763.715 751.938 762.715 751.805C761.652 751.664 760.797 751.906 760.148 752.531ZM771.938 756.926C771.977 757.809 772.375 758.582 773.133 759.246C774.008 760.02 774.992 760.402 776.086 760.395C777.68 760.379 778.75 760.066 779.297 759.457C779.82 758.871 780.25 758.543 780.586 758.473C780.961 758.395 781.227 758.512 781.383 758.824C781.75 759.551 781.578 760.23 780.867 760.863C779.617 761.973 777.977 762.52 775.945 762.504C774.453 762.488 773.148 762.02 772.031 761.098C770.641 759.957 769.945 758.41 769.945 756.457C769.945 754.848 770.383 753.414 771.258 752.156C772.352 750.586 773.766 749.746 775.5 749.637C777.305 749.527 778.715 749.973 779.73 750.973C780.691 751.91 781.152 752.977 781.113 754.172C781.082 755.133 780.648 755.672 779.812 755.789L771.938 756.926ZM772.195 754.992L779.086 753.984C778.969 753.305 778.613 752.773 778.02 752.391C777.332 751.953 776.602 751.738 775.828 751.746C774.75 751.746 773.82 752.227 773.039 753.188C772.695 753.617 772.414 754.219 772.195 754.992ZM787.137 753.703L784.652 761.555C784.387 762.398 783.906 762.711 783.211 762.492C782.578 762.297 782.395 761.777 782.66 760.934L785.883 750.668C786.094 750.004 786.512 749.684 787.137 749.707C787.762 749.684 788.18 750.004 788.391 750.668L790.746 758.168L793.102 750.668C793.312 750.004 793.73 749.684 794.355 749.707C794.98 749.684 795.398 750.004 795.609 750.668L798.832 760.934C799.098 761.777 798.914 762.297 798.281 762.492C797.586 762.711 797.105 762.398 796.84 761.555L794.355 753.703L791.871 761.555C791.645 762.266 791.27 762.598 790.746 762.551C790.223 762.59 789.848 762.258 789.621 761.555L787.137 753.703ZM802.711 756.926C802.75 757.809 803.148 758.582 803.906 759.246C804.781 760.02 805.766 760.402 806.859 760.395C808.453 760.379 809.523 760.066 810.07 759.457C810.594 758.871 811.023 758.543 811.359 758.473C811.734 758.395 812 758.512 812.156 758.824C812.523 759.551 812.352 760.23 811.641 760.863C810.391 761.973 808.75 762.52 806.719 762.504C805.227 762.488 803.922 762.02 802.805 761.098C801.414 759.957 800.719 758.41 800.719 756.457C800.719 754.848 801.156 753.414 802.031 752.156C803.125 750.586 804.539 749.746 806.273 749.637C808.078 749.527 809.488 749.973 810.504 750.973C811.465 751.91 811.926 752.977 811.887 754.172C811.855 755.133 811.422 755.672 810.586 755.789L802.711 756.926ZM802.969 754.992L809.859 753.984C809.742 753.305 809.387 752.773 808.793 752.391C808.105 751.953 807.375 751.738 806.602 751.746C805.523 751.746 804.594 752.227 803.812 753.188C803.469 753.617 803.188 754.219 802.969 754.992ZM822.328 759.527C823.016 759.066 823.578 759.203 824.016 759.938C824.273 760.375 824.07 760.887 823.406 761.473C822.547 762.207 821.195 762.57 819.352 762.562C817.898 762.555 816.691 762.086 815.73 761.156C814.535 760 813.938 758.551 813.938 756.809C813.938 754.887 814.363 753.312 815.215 752.086C816.246 750.594 817.559 749.789 819.152 749.672C820.082 749.602 820.93 749.691 821.695 749.941C822.641 750.262 823.27 750.664 823.582 751.148C824.059 751.898 824.031 752.465 823.5 752.848C823.133 753.113 822.57 752.965 821.812 752.402C820.898 751.723 819.863 751.566 818.707 751.934C818.059 752.137 817.473 752.613 816.949 753.363C816.355 754.223 816.047 755.207 816.023 756.316C816 757.363 816.305 758.32 816.938 759.188C817.516 759.961 818.32 760.367 819.352 760.406C820.414 760.445 821.406 760.152 822.328 759.527ZM827.473 749.625H834.223C835.238 749.625 835.754 750.035 835.77 750.855C835.785 751.621 835.27 752.008 834.223 752.016C833.504 752.016 832.789 752.02 832.078 752.027C832.07 755.184 832.059 758.336 832.043 761.484C832.043 762.336 831.617 762.754 830.766 762.738C830.078 762.723 829.734 762.297 829.734 761.461C829.75 758.32 829.766 755.18 829.781 752.039L827.367 752.051C826.383 752.059 825.891 751.621 825.891 750.738C825.891 749.996 826.418 749.625 827.473 749.625ZM838.699 749.73C839.527 749.707 839.949 750.09 839.965 750.879L840.211 758.543L847.184 750.34C847.34 750.152 847.504 750.012 847.676 749.918C847.84 749.801 848.059 749.738 848.332 749.73C849.16 749.707 849.582 750.09 849.598 750.879L849.926 760.957C849.957 762.027 849.582 762.574 848.801 762.598C847.988 762.621 847.566 762.098 847.535 761.027L847.348 753.516L840.07 762.117C840.008 762.219 839.938 762.301 839.859 762.363C839.836 762.387 839.816 762.41 839.801 762.434C839.473 762.832 839.105 762.867 838.699 762.539C838.191 762.375 837.926 761.871 837.902 761.027L837.645 750.949C837.629 750.16 837.98 749.754 838.699 749.73ZM854.074 749.625H860.824C861.84 749.625 862.355 750.035 862.371 750.855C862.387 751.621 861.871 752.008 860.824 752.016C860.105 752.016 859.391 752.02 858.68 752.027C858.672 755.184 858.66 758.336 858.645 761.484C858.645 762.336 858.219 762.754 857.367 762.738C856.68 762.723 856.336 762.297 856.336 761.461C856.352 758.32 856.367 755.18 856.383 752.039L853.969 752.051C852.984 752.059 852.492 751.621 852.492 750.738C852.492 749.996 853.02 749.625 854.074 749.625ZM865.535 762.152C864.949 762.152 864.664 761.852 864.68 761.25L864.914 750.398C864.93 749.703 865.23 749.348 865.816 749.332C866.582 749.316 866.961 749.664 866.953 750.375L866.859 754.184C867.352 754.121 867.754 754.09 868.066 754.09C870.832 754.074 872.52 754.605 873.129 755.684C874.02 757.199 874.129 758.598 873.457 759.879C872.848 761.066 871.715 761.773 870.059 762C868.949 762.156 867.578 762.191 865.945 762.105C865.828 762.137 865.691 762.152 865.535 762.152ZM866.73 760.066C867.652 760.082 868.363 760.082 868.863 760.066C870.66 759.973 871.566 759.355 871.582 758.215C871.613 757.254 871.199 756.613 870.34 756.293C869.652 756.035 868.484 756 866.836 756.188L866.73 760.066ZM740.508 779.895C740.57 779.895 740.633 779.895 740.695 779.895C740.711 779.895 740.727 779.895 740.742 779.895H749.273C749.312 779.895 749.352 779.895 749.391 779.895C749.414 779.895 749.438 779.895 749.461 779.895C750.211 779.863 750.586 780.223 750.586 780.973L750.633 791.285C750.633 792.113 750.242 792.527 749.461 792.527C748.695 792.527 748.312 792.113 748.312 791.285C748.305 788.262 748.297 785.238 748.289 782.215H741.633L741.68 791.285C741.68 792.113 741.289 792.527 740.508 792.527C739.742 792.527 739.359 792.113 739.359 791.285L739.336 781.066C739.336 780.316 739.727 779.926 740.508 779.895ZM755.355 786.926C755.395 787.809 755.793 788.582 756.551 789.246C757.426 790.02 758.41 790.402 759.504 790.395C761.098 790.379 762.168 790.066 762.715 789.457C763.238 788.871 763.668 788.543 764.004 788.473C764.379 788.395 764.645 788.512 764.801 788.824C765.168 789.551 764.996 790.23 764.285 790.863C763.035 791.973 761.395 792.52 759.363 792.504C757.871 792.488 756.566 792.02 755.449 791.098C754.059 789.957 753.363 788.41 753.363 786.457C753.363 784.848 753.801 783.414 754.676 782.156C755.77 780.586 757.184 779.746 758.918 779.637C760.723 779.527 762.133 779.973 763.148 780.973C764.109 781.91 764.57 782.977 764.531 784.172C764.5 785.133 764.066 785.672 763.23 785.789L755.355 786.926ZM755.613 784.992L762.504 783.984C762.387 783.305 762.031 782.773 761.438 782.391C760.75 781.953 760.02 781.738 759.246 781.746C758.168 781.746 757.238 782.227 756.457 783.188C756.113 783.617 755.832 784.219 755.613 784.992ZM768.117 798.691C767.305 798.691 766.906 798.301 766.922 797.52L767.297 780.562C767.312 779.711 767.738 779.293 768.574 779.309C768.98 779.316 769.281 779.543 769.477 779.988C769.867 779.684 770.781 779.539 772.219 779.555C773.609 779.562 774.816 780.121 775.84 781.23C776.855 782.316 777.363 783.586 777.363 785.039C777.371 787.141 776.914 788.766 775.992 789.914C774.961 791.195 773.688 791.891 772.172 792C770.836 792.102 769.906 791.891 769.383 791.367C769.375 791.359 769.363 791.352 769.348 791.344L769.207 797.59C769.191 798.324 768.828 798.691 768.117 798.691ZM769.559 782.531L769.418 788.602C770.176 789.445 770.992 789.836 771.867 789.773C773.023 789.695 773.898 789.215 774.492 788.332C775 787.59 775.262 786.68 775.277 785.602C775.293 784.594 775 783.715 774.398 782.965C773.883 782.324 773.125 781.938 772.125 781.805C771.062 781.664 770.207 781.906 769.559 782.531ZM787.816 789.527C788.504 789.066 789.066 789.203 789.504 789.938C789.762 790.375 789.559 790.887 788.895 791.473C788.035 792.207 786.684 792.57 784.84 792.562C783.387 792.555 782.18 792.086 781.219 791.156C780.023 790 779.426 788.551 779.426 786.809C779.426 784.887 779.852 783.312 780.703 782.086C781.734 780.594 783.047 779.789 784.641 779.672C785.57 779.602 786.418 779.691 787.184 779.941C788.129 780.262 788.758 780.664 789.07 781.148C789.547 781.898 789.52 782.465 788.988 782.848C788.621 783.113 788.059 782.965 787.301 782.402C786.387 781.723 785.352 781.566 784.195 781.934C783.547 782.137 782.961 782.613 782.438 783.363C781.844 784.223 781.535 785.207 781.512 786.316C781.488 787.363 781.793 788.32 782.426 789.188C783.004 789.961 783.809 790.367 784.84 790.406C785.902 790.445 786.895 790.152 787.816 789.527ZM797.367 782.098C796.344 782.121 795.578 782.477 795.07 783.164C794.289 784.227 793.898 785.395 793.898 786.668C793.898 787.895 794.18 788.812 794.742 789.422C795.32 790.047 795.984 790.359 796.734 790.359C797.586 790.359 798.305 790.047 798.891 789.422C799.508 788.758 799.82 787.691 799.828 786.223C799.836 783.441 799.016 782.066 797.367 782.098ZM797.273 779.707C800.438 779.73 802.016 781.98 802.008 786.457C802 788.363 801.578 789.812 800.742 790.805C799.805 792 798.375 792.59 796.453 792.574C795.062 792.566 793.883 791.988 792.914 790.84C792.039 789.801 791.602 788.34 791.602 786.457C791.602 784.676 792.125 783.098 793.172 781.723C794.203 780.363 795.57 779.691 797.273 779.707ZM807.023 779.098C807.828 779.113 808.227 779.496 808.219 780.246L808.148 784.828C810.273 784.797 812.398 784.766 814.523 784.734L814.559 780.199C814.566 779.449 814.949 779.082 815.707 779.098C816.512 779.113 816.91 779.496 816.902 780.246L816.738 791.566C816.73 792.301 816.301 792.652 815.449 792.621C814.785 792.598 814.457 792.215 814.465 791.473L814.5 786.973L808.125 787.102C808.102 788.586 808.078 790.074 808.055 791.566C808.047 792.301 807.617 792.652 806.766 792.621C806.102 792.598 805.773 792.215 805.781 791.473L805.875 780.199C805.883 779.449 806.266 779.082 807.023 779.098ZM824.18 792.656C820.672 792.664 818.906 790.789 818.883 787.031C818.859 784.586 819.664 782.695 821.297 781.359C823.172 779.82 825.133 779.375 827.18 780.023C827.406 779.828 827.758 779.785 828.234 779.895C829.172 780.105 829.551 780.711 829.371 781.711C829.191 782.688 829.082 784.352 829.043 786.703C829.012 788.578 829.223 789.906 829.676 790.688C830.34 791.828 830.246 792.484 829.395 792.656C828.418 792.859 827.852 792.445 827.695 791.414C826.078 792.234 824.906 792.648 824.18 792.656ZM825.539 790.301C825.82 790.199 826.309 789.863 827.004 789.293C826.723 785.934 826.762 783.621 827.121 782.355C826.363 781.879 825.57 781.742 824.742 781.945C824.164 782.086 823.703 782.285 823.359 782.543C821.969 783.551 821.238 784.973 821.168 786.809C821.191 789.199 822.012 790.449 823.629 790.559C824.309 790.605 824.945 790.52 825.539 790.301ZM838.523 792.223C837.93 792.223 837.633 791.938 837.633 791.367C837.625 789.641 837.613 787.914 837.598 786.188C836.543 786.234 835.09 788.027 833.238 791.566C832.957 792.098 832.531 792.277 831.961 792.105C831.289 791.895 831.109 791.426 831.422 790.699C832.531 788.098 833.82 786.316 835.289 785.355C834.828 785.043 834.488 784.641 834.27 784.148C833.457 782.344 832.816 781.449 832.348 781.465C831.926 781.473 831.672 781.215 831.586 780.691C831.5 780.207 831.945 779.93 832.922 779.859C833.914 779.789 834.746 780.77 835.418 782.801C835.668 783.566 836.391 783.98 837.586 784.043C837.578 782.801 837.57 781.562 837.562 780.328C837.562 779.836 837.895 779.59 838.559 779.59C839.254 779.59 839.598 779.836 839.59 780.328C839.582 781.562 839.574 782.801 839.566 784.043C840.73 783.965 841.438 783.551 841.688 782.801C842.352 780.777 843.18 779.797 844.172 779.859C845.148 779.93 845.594 780.207 845.508 780.691C845.422 781.215 845.168 781.473 844.746 781.465C844.285 781.449 843.648 782.344 842.836 784.148C842.609 784.648 842.266 785.055 841.805 785.367C843.273 786.328 844.562 788.105 845.672 790.699C845.984 791.426 845.805 791.895 845.133 792.105C844.57 792.277 844.145 792.098 843.855 791.566C842.027 788.066 840.594 786.27 839.555 786.176L839.531 791.367C839.523 791.938 839.188 792.223 838.523 792.223ZM852.844 792.656C849.336 792.664 847.57 790.789 847.547 787.031C847.523 784.586 848.328 782.695 849.961 781.359C851.836 779.82 853.797 779.375 855.844 780.023C856.07 779.828 856.422 779.785 856.898 779.895C857.836 780.105 858.215 780.711 858.035 781.711C857.855 782.688 857.746 784.352 857.707 786.703C857.676 788.578 857.887 789.906 858.34 790.688C859.004 791.828 858.91 792.484 858.059 792.656C857.082 792.859 856.516 792.445 856.359 791.414C854.742 792.234 853.57 792.648 852.844 792.656ZM854.203 790.301C854.484 790.199 854.973 789.863 855.668 789.293C855.387 785.934 855.426 783.621 855.785 782.355C855.027 781.879 854.234 781.742 853.406 781.945C852.828 782.086 852.367 782.285 852.023 782.543C850.633 783.551 849.902 784.973 849.832 786.809C849.855 789.199 850.676 790.449 852.293 790.559C852.973 790.605 853.609 790.52 854.203 790.301Z" fill="white"/>
<path d="M179.871 662.8L169.15 679.484L162 661.61" stroke="white" stroke-width="3" stroke-miterlimit="10" stroke-linecap="round" stroke-linejoin="round"/>
<path d="M170.934 580.194C172.124 599.258 168.686 531.604 170.344 572.243C172.725 630.628 169.15 679.483 169.15 679.483" stroke="white" stroke-width="3" stroke-miterlimit="10" stroke-linecap="round" stroke-linejoin="round"/>
<path d="M118.105 487.402L117.965 493.391C120.605 493.68 122.258 493.332 122.922 492.348C123.68 491.215 123.82 490.172 123.344 489.219C122.773 488.086 121.574 487.492 119.746 487.438C119.199 487.422 118.652 487.41 118.105 487.402ZM116.945 485.094C117.125 485.094 117.285 485.113 117.426 485.152C117.832 485.074 118.781 485.105 120.273 485.246C123.172 485.527 124.984 486.703 125.711 488.773C126.328 490.547 125.914 492.262 124.469 493.918C124.305 494.105 124.105 494.277 123.871 494.434C124.395 494.59 124.766 494.75 124.984 494.914C127.031 496.445 127.645 498.32 126.824 500.539C126.324 501.852 125.039 502.762 122.969 503.27C120.836 503.793 118.746 503.957 116.699 503.762C116.637 503.77 116.566 503.773 116.488 503.773C115.785 503.758 115.445 503.332 115.469 502.496L115.855 486.184C115.871 485.457 116.234 485.094 116.945 485.094ZM117.918 495.699L117.789 501.547C118.594 501.609 119.367 501.598 120.109 501.512C120.984 501.402 121.91 501.172 122.887 500.82C123.98 500.422 124.602 499.824 124.75 499.027C124.922 498.051 124.547 497.254 123.625 496.637C122.914 496.168 121.941 495.875 120.707 495.758C119.551 495.656 118.621 495.637 117.918 495.699ZM131.348 497.926C131.387 498.809 131.785 499.582 132.543 500.246C133.418 501.02 134.402 501.402 135.496 501.395C137.09 501.379 138.16 501.066 138.707 500.457C139.23 499.871 139.66 499.543 139.996 499.473C140.371 499.395 140.637 499.512 140.793 499.824C141.16 500.551 140.988 501.23 140.277 501.863C139.027 502.973 137.387 503.52 135.355 503.504C133.863 503.488 132.559 503.02 131.441 502.098C130.051 500.957 129.355 499.41 129.355 497.457C129.355 495.848 129.793 494.414 130.668 493.156C131.762 491.586 133.176 490.746 134.91 490.637C136.715 490.527 138.125 490.973 139.141 491.973C140.102 492.91 140.562 493.977 140.523 495.172C140.492 496.133 140.059 496.672 139.223 496.789L131.348 497.926ZM131.605 495.992L138.496 494.984C138.379 494.305 138.023 493.773 137.43 493.391C136.742 492.953 136.012 492.738 135.238 492.746C134.16 492.746 133.23 493.227 132.449 494.188C132.105 494.617 131.824 495.219 131.605 495.992ZM144.109 509.691C143.297 509.691 142.898 509.301 142.914 508.52L143.289 491.562C143.305 490.711 143.73 490.293 144.566 490.309C144.973 490.316 145.273 490.543 145.469 490.988C145.859 490.684 146.773 490.539 148.211 490.555C149.602 490.562 150.809 491.121 151.832 492.23C152.848 493.316 153.355 494.586 153.355 496.039C153.363 498.141 152.906 499.766 151.984 500.914C150.953 502.195 149.68 502.891 148.164 503C146.828 503.102 145.898 502.891 145.375 502.367C145.367 502.359 145.355 502.352 145.34 502.344L145.199 508.59C145.184 509.324 144.82 509.691 144.109 509.691ZM145.551 493.531L145.41 499.602C146.168 500.445 146.984 500.836 147.859 500.773C149.016 500.695 149.891 500.215 150.484 499.332C150.992 498.59 151.254 497.68 151.27 496.602C151.285 495.594 150.992 494.715 150.391 493.965C149.875 493.324 149.117 492.938 148.117 492.805C147.055 492.664 146.199 492.906 145.551 493.531ZM156.484 490.098C157.289 490.113 157.688 490.496 157.68 491.246L157.609 495.828C159.734 495.797 161.859 495.766 163.984 495.734L164.02 491.199C164.027 490.449 164.41 490.082 165.168 490.098C165.973 490.113 166.371 490.496 166.363 491.246L166.199 502.566C166.191 503.301 165.762 503.652 164.91 503.621C164.246 503.598 163.918 503.215 163.926 502.473L163.961 497.973L157.586 498.102C157.562 499.586 157.539 501.074 157.516 502.566C157.508 503.301 157.078 503.652 156.227 503.621C155.562 503.598 155.234 503.215 155.242 502.473L155.336 491.199C155.344 490.449 155.727 490.082 156.484 490.098ZM178.984 490.941C179.734 491.262 179.91 491.883 179.512 492.805L172.82 508.238C172.281 509.488 171.668 509.973 170.98 509.691C170.16 509.355 170.02 508.566 170.559 507.324L172.891 501.934L168.016 492.91C167.516 491.988 167.609 491.344 168.297 490.977C169.023 490.586 169.633 490.855 170.125 491.785L174.051 499.25L177.262 491.855C177.66 490.934 178.234 490.629 178.984 490.941ZM182.547 490.625H189.297C190.312 490.625 190.828 491.035 190.844 491.855C190.859 492.621 190.344 493.008 189.297 493.016C188.578 493.016 187.863 493.02 187.152 493.027C187.145 496.184 187.133 499.336 187.117 502.484C187.117 503.336 186.691 503.754 185.84 503.738C185.152 503.723 184.809 503.297 184.809 502.461C184.824 499.32 184.84 496.18 184.855 493.039L182.441 493.051C181.457 493.059 180.965 492.621 180.965 491.738C180.965 490.996 181.492 490.625 182.547 490.625ZM194.008 503.152C193.422 503.152 193.137 502.852 193.152 502.25L193.387 491.398C193.402 490.703 193.703 490.348 194.289 490.332C195.055 490.316 195.434 490.664 195.426 491.375L195.332 495.184C195.824 495.121 196.227 495.09 196.539 495.09C199.305 495.074 200.992 495.605 201.602 496.684C202.492 498.199 202.602 499.598 201.93 500.879C201.32 502.066 200.188 502.773 198.531 503C197.422 503.156 196.051 503.191 194.418 503.105C194.301 503.137 194.164 503.152 194.008 503.152ZM195.203 501.066C196.125 501.082 196.836 501.082 197.336 501.066C199.133 500.973 200.039 500.355 200.055 499.215C200.086 498.254 199.672 497.613 198.812 497.293C198.125 497.035 196.957 497 195.309 497.188L195.203 501.066ZM212.863 500.527C213.551 500.066 214.113 500.203 214.551 500.938C214.809 501.375 214.605 501.887 213.941 502.473C213.082 503.207 211.73 503.57 209.887 503.562C208.434 503.555 207.227 503.086 206.266 502.156C205.07 501 204.473 499.551 204.473 497.809C204.473 495.887 204.898 494.312 205.75 493.086C206.781 491.594 208.094 490.789 209.688 490.672C210.617 490.602 211.465 490.691 212.23 490.941C213.176 491.262 213.805 491.664 214.117 492.148C214.594 492.898 214.566 493.465 214.035 493.848C213.668 494.113 213.105 493.965 212.348 493.402C211.434 492.723 210.398 492.566 209.242 492.934C208.594 493.137 208.008 493.613 207.484 494.363C206.891 495.223 206.582 496.207 206.559 497.316C206.535 498.363 206.84 499.32 207.473 500.188C208.051 500.961 208.855 501.367 209.887 501.406C210.949 501.445 211.941 501.152 212.863 500.527ZM216.977 503.387C217.383 503.598 218 503.363 218.828 502.684L222.93 499.344C223.203 499.344 223.492 499.352 223.797 499.367C224 499.375 224.184 499.371 224.348 499.355L224.406 502.426C224.414 503.098 224.781 503.43 225.508 503.422C226.109 503.406 226.402 503.07 226.387 502.414L226.117 491.633C226.102 491.062 225.789 490.773 225.18 490.766C225.023 490.766 224.887 490.781 224.77 490.812C224.215 490.719 223.398 490.746 222.32 490.895C219.719 491.23 218.039 492.258 217.281 493.977C216.617 495.508 216.898 496.844 218.125 497.984C218.664 498.469 219.445 498.816 220.469 499.027L216.836 501.664C215.945 502.305 215.992 502.879 216.977 503.387ZM224.184 492.875L224.312 497.516C221.547 497.766 219.859 497.25 219.25 495.969C218.969 495.375 219.164 494.695 219.836 493.93C220.398 493.297 221.328 492.961 222.625 492.922C223.656 492.898 224.176 492.883 224.184 492.875ZM88.1523 533.223C87.5586 533.223 87.2617 532.938 87.2617 532.367L87.1914 521.328C87.1914 520.836 87.5234 520.59 88.1875 520.59C88.8828 520.59 89.2266 520.836 89.2188 521.328L89.1953 525.055C91.0234 525.023 92.043 524.719 92.2539 524.141C93.082 521.875 94.0547 520.781 95.1719 520.859C96.1484 520.93 96.5938 521.207 96.5078 521.691C96.3984 522.301 96.2109 522.602 95.9453 522.594C95.3594 522.578 94.6562 523.492 93.8359 525.336C93.6484 525.75 93.3438 526.105 92.9219 526.402C94.1484 527.223 95.25 528.555 96.2266 530.398C97.0469 531.953 97.0156 532.855 96.1328 533.105C95.4219 533.309 94.8086 532.898 94.293 531.875C93.0352 529.383 91.7148 527.863 90.332 527.316C89.9805 527.371 89.5977 527.414 89.1836 527.445C89.1758 529.086 89.168 530.727 89.1602 532.367C89.1523 532.938 88.8164 533.223 88.1523 533.223ZM107.137 533.223C106.543 533.223 106.246 532.938 106.246 532.367L106.176 521.328C106.176 520.836 106.508 520.59 107.172 520.59C107.867 520.59 108.211 520.836 108.203 521.328L108.18 525.055C110.008 525.023 111.027 524.719 111.238 524.141C112.066 521.875 113.039 520.781 114.156 520.859C115.133 520.93 115.578 521.207 115.492 521.691C115.383 522.301 115.195 522.602 114.93 522.594C114.344 522.578 113.641 523.492 112.82 525.336C112.633 525.75 112.328 526.105 111.906 526.402C113.133 527.223 114.234 528.555 115.211 530.398C116.031 531.953 116 532.855 115.117 533.105C114.406 533.309 113.793 532.898 113.277 531.875C112.02 529.383 110.699 527.863 109.316 527.316C108.965 527.371 108.582 527.414 108.168 527.445C108.16 529.086 108.152 530.727 108.145 532.367C108.137 532.938 107.801 533.223 107.137 533.223ZM122.98 523.098C121.957 523.121 121.191 523.477 120.684 524.164C119.902 525.227 119.512 526.395 119.512 527.668C119.512 528.895 119.793 529.812 120.355 530.422C120.934 531.047 121.598 531.359 122.348 531.359C123.199 531.359 123.918 531.047 124.504 530.422C125.121 529.758 125.434 528.691 125.441 527.223C125.449 524.441 124.629 523.066 122.98 523.098ZM122.887 520.707C126.051 520.73 127.629 522.98 127.621 527.457C127.613 529.363 127.191 530.812 126.355 531.805C125.418 533 123.988 533.59 122.066 533.574C120.676 533.566 119.496 532.988 118.527 531.84C117.652 530.801 117.215 529.34 117.215 527.457C117.215 525.676 117.738 524.098 118.785 522.723C119.816 521.363 121.184 520.691 122.887 520.707ZM132.637 520.098C133.441 520.113 133.84 520.496 133.832 521.246L133.762 525.828C135.887 525.797 138.012 525.766 140.137 525.734L140.172 521.199C140.18 520.449 140.562 520.082 141.32 520.098C142.125 520.113 142.523 520.496 142.516 521.246L142.352 532.566C142.344 533.301 141.914 533.652 141.062 533.621C140.398 533.598 140.07 533.215 140.078 532.473L140.113 527.973L133.738 528.102C133.715 529.586 133.691 531.074 133.668 532.566C133.66 533.301 133.23 533.652 132.379 533.621C131.715 533.598 131.387 533.215 131.395 532.473L131.488 521.199C131.496 520.449 131.879 520.082 132.637 520.098ZM153.391 530.527C154.078 530.066 154.641 530.203 155.078 530.938C155.336 531.375 155.133 531.887 154.469 532.473C153.609 533.207 152.258 533.57 150.414 533.562C148.961 533.555 147.754 533.086 146.793 532.156C145.598 531 145 529.551 145 527.809C145 525.887 145.426 524.312 146.277 523.086C147.309 521.594 148.621 520.789 150.215 520.672C151.145 520.602 151.992 520.691 152.758 520.941C153.703 521.262 154.332 521.664 154.645 522.148C155.121 522.898 155.094 523.465 154.562 523.848C154.195 524.113 153.633 523.965 152.875 523.402C151.961 522.723 150.926 522.566 149.77 522.934C149.121 523.137 148.535 523.613 148.012 524.363C147.418 525.223 147.109 526.207 147.086 527.316C147.062 528.363 147.367 529.32 148 530.188C148.578 530.961 149.383 531.367 150.414 531.406C151.477 531.445 152.469 531.152 153.391 530.527ZM158.535 520.625H165.285C166.301 520.625 166.816 521.035 166.832 521.855C166.848 522.621 166.332 523.008 165.285 523.016C164.566 523.016 163.852 523.02 163.141 523.027C163.133 526.184 163.121 529.336 163.105 532.484C163.105 533.336 162.68 533.754 161.828 533.738C161.141 533.723 160.797 533.297 160.797 532.461C160.812 529.32 160.828 526.18 160.844 523.039L158.43 523.051C157.445 523.059 156.953 522.621 156.953 521.738C156.953 520.996 157.48 520.625 158.535 520.625ZM170.184 539.691C169.371 539.691 168.973 539.301 168.988 538.52L169.363 521.562C169.379 520.711 169.805 520.293 170.641 520.309C171.047 520.316 171.348 520.543 171.543 520.988C171.934 520.684 172.848 520.539 174.285 520.555C175.676 520.562 176.883 521.121 177.906 522.23C178.922 523.316 179.43 524.586 179.43 526.039C179.438 528.141 178.98 529.766 178.059 530.914C177.027 532.195 175.754 532.891 174.238 533C172.902 533.102 171.973 532.891 171.449 532.367C171.441 532.359 171.43 532.352 171.414 532.344L171.273 538.59C171.258 539.324 170.895 539.691 170.184 539.691ZM171.625 523.531L171.484 529.602C172.242 530.445 173.059 530.836 173.934 530.773C175.09 530.695 175.965 530.215 176.559 529.332C177.066 528.59 177.328 527.68 177.344 526.602C177.359 525.594 177.066 524.715 176.465 523.965C175.949 523.324 175.191 522.938 174.191 522.805C173.129 522.664 172.273 522.906 171.625 523.531ZM191.629 520.941C192.379 521.262 192.555 521.883 192.156 522.805L185.465 538.238C184.926 539.488 184.312 539.973 183.625 539.691C182.805 539.355 182.664 538.566 183.203 537.324L185.535 531.934L180.66 522.91C180.16 521.988 180.254 521.344 180.941 520.977C181.668 520.586 182.277 520.855 182.77 521.785L186.695 529.25L189.906 521.855C190.305 520.934 190.879 520.629 191.629 520.941ZM195.566 533.223C194.973 533.223 194.676 532.938 194.676 532.367L194.605 521.328C194.605 520.836 194.938 520.59 195.602 520.59C196.297 520.59 196.641 520.836 196.633 521.328L196.609 525.055C198.438 525.023 199.457 524.719 199.668 524.141C200.496 521.875 201.469 520.781 202.586 520.859C203.562 520.93 204.008 521.207 203.922 521.691C203.812 522.301 203.625 522.602 203.359 522.594C202.773 522.578 202.07 523.492 201.25 525.336C201.062 525.75 200.758 526.105 200.336 526.402C201.562 527.223 202.664 528.555 203.641 530.398C204.461 531.953 204.43 532.855 203.547 533.105C202.836 533.309 202.223 532.898 201.707 531.875C200.449 529.383 199.129 527.863 197.746 527.316C197.395 527.371 197.012 527.414 196.598 527.445C196.59 529.086 196.582 530.727 196.574 532.367C196.566 532.938 196.23 533.223 195.566 533.223ZM207.004 520.625H213.754C214.77 520.625 215.285 521.035 215.301 521.855C215.316 522.621 214.801 523.008 213.754 523.016C213.035 523.016 212.32 523.02 211.609 523.027C211.602 526.184 211.59 529.336 211.574 532.484C211.574 533.336 211.148 533.754 210.297 533.738C209.609 533.723 209.266 533.297 209.266 532.461C209.281 529.32 209.297 526.18 209.312 523.039L206.898 523.051C205.914 523.059 205.422 522.621 205.422 521.738C205.422 520.996 205.949 520.625 207.004 520.625ZM222.73 523.098C221.707 523.121 220.941 523.477 220.434 524.164C219.652 525.227 219.262 526.395 219.262 527.668C219.262 528.895 219.543 529.812 220.105 530.422C220.684 531.047 221.348 531.359 222.098 531.359C222.949 531.359 223.668 531.047 224.254 530.422C224.871 529.758 225.184 528.691 225.191 527.223C225.199 524.441 224.379 523.066 222.73 523.098ZM222.637 520.707C225.801 520.73 227.379 522.98 227.371 527.457C227.363 529.363 226.941 530.812 226.105 531.805C225.168 533 223.738 533.59 221.816 533.574C220.426 533.566 219.246 532.988 218.277 531.84C217.402 530.801 216.965 529.34 216.965 527.457C216.965 525.676 217.488 524.098 218.535 522.723C219.566 521.363 220.934 520.691 222.637 520.707ZM232.855 539.691C232.043 539.691 231.645 539.301 231.66 538.52L232.035 521.562C232.051 520.711 232.477 520.293 233.312 520.309C233.719 520.316 234.02 520.543 234.215 520.988C234.605 520.684 235.52 520.539 236.957 520.555C238.348 520.562 239.555 521.121 240.578 522.23C241.594 523.316 242.102 524.586 242.102 526.039C242.109 528.141 241.652 529.766 240.73 530.914C239.699 532.195 238.426 532.891 236.91 533C235.574 533.102 234.645 532.891 234.121 532.367C234.113 532.359 234.102 532.352 234.086 532.344L233.945 538.59C233.93 539.324 233.566 539.691 232.855 539.691ZM234.297 523.531L234.156 529.602C234.914 530.445 235.73 530.836 236.605 530.773C237.762 530.695 238.637 530.215 239.23 529.332C239.738 528.59 240 527.68 240.016 526.602C240.031 525.594 239.738 524.715 239.137 523.965C238.621 523.324 237.863 522.938 236.863 522.805C235.801 522.664 234.945 522.906 234.297 523.531ZM254.301 520.941C255.051 521.262 255.227 521.883 254.828 522.805L248.137 538.238C247.598 539.488 246.984 539.973 246.297 539.691C245.477 539.355 245.336 538.566 245.875 537.324L248.207 531.934L243.332 522.91C242.832 521.988 242.926 521.344 243.613 520.977C244.34 520.586 244.949 520.855 245.441 521.785L249.367 529.25L252.578 521.855C252.977 520.934 253.551 520.629 254.301 520.941Z" fill="white"/>
<path d="M1926.72 748.774C1925.86 751.403 1922.96 753.333 1922.96 753.333C1922.96 753.333 1924.5 755.446 1925.92 758.538" stroke="white" stroke-width="3" stroke-linecap="round" stroke-linejoin="round"/>
<path d="M1928.29 770.345C1928.21 783.837 1927.63 837.616 1927.63 841.333C1927.63 845.333 1926.96 849.332 1922.3 852.666C1917.63 856 1886.96 870.666 1883.63 872.666C1880.3 874.666 1872.3 874.667 1866.96 872C1861.63 869.333 1806.96 843.332 1800.96 840.666C1794.96 838 1794.3 831.332 1794.3 826.666C1794.3 822 1793.63 795.999 1794.3 792.666C1794.96 789.333 1796.3 780 1799.63 774C1802.96 768 1810.96 742.667 1811.63 740C1812.3 737.333 1816.96 733.333 1816.96 733.333C1816.96 733.333 1818.3 731.332 1817.63 728.666C1817.63 728.666 1816.3 635.332 1816.3 622.666C1816.3 610 1815.63 608 1824.96 602C1834.3 596 1848.3 588 1853.63 588C1858.96 588 1916.3 614 1920.3 617.333C1924.3 620.666 1926.96 624.666 1926.3 637.333C1925.71 648.517 1926.68 723.102 1926.91 742.709" stroke="white" stroke-width="3" stroke-linecap="round" stroke-linejoin="round" stroke-dasharray="12.17 12.17"/>
<path d="M1954.77 562.56L2194.1 682.56V877.894L1954.77 759.894V562.56Z" stroke="white" stroke-width="3" stroke-miterlimit="10" stroke-linecap="round" stroke-linejoin="round" stroke-dasharray="12 12"/>
<path d="M754.33 1134.98C754.434 1134.71 754.432 1134.44 754.316 1134.19C753.989 1133.48 752.868 1133.15 752.817 1133.14L752.192 1132.97L749.867 1132.15C745.969 1130.62 742.33 1127.54 742.079 1125.58C741.812 1123.48 741.924 1120.82 741.925 1120.78C741.925 1120.42 742.108 1115.31 742.361 1108.25C743.085 1088.07 744.43 1050.51 744.258 1047.23C744.028 1042.86 744.179 1028.8 744.181 1028.66C744.181 1028.53 744.181 1024.22 744.177 1018.42C744.226 1018.44 744.274 1018.46 744.327 1018.48C744.458 1018.52 744.592 1018.54 744.721 1018.54C745 1018.54 745.252 1018.46 745.38 1018.38C745.643 1018.21 745.877 1017.92 746.089 1017.5C746.173 1017.55 746.263 1017.58 746.362 1017.58C746.425 1017.58 746.491 1017.57 746.557 1017.55C747.124 1017.4 747.797 1016.62 748.233 1015.59C748.515 1014.93 748.75 1014.22 748.941 1013.49C749.005 1014 749.14 1014.37 749.383 1014.59C749.542 1014.73 749.735 1014.81 749.959 1014.81C750.014 1014.81 750.07 1014.8 750.128 1014.79C752.607 1014.42 751.147 1000.88 751.129 1000.74C750.369 994.9 750.632 991.701 750.807 989.583L750.85 989.037C750.933 987.961 751.033 986.744 751.142 985.42C751.913 976.003 753.205 960.242 751.854 950.345L751.785 949.84C751.085 944.721 751.072 944.623 751.163 938.081C751.218 934.137 751.169 930.135 751.042 926.117C751.076 925.257 751.099 924.7 751.099 924.7L750.924 922.791C750.565 914.594 749.838 906.377 748.758 898.483C748.709 898.121 748.677 897.889 748.668 897.797C748.566 896.802 748.443 896.2 748.438 896.178C748.321 895.584 748.096 895.087 747.743 894.642C747.214 892.807 746.106 891.343 744.764 890.721C743.839 890.293 742.456 889.849 740.853 889.333L738.87 888.693C736.463 887.916 733.735 887.034 730.94 886.028C730.935 886.026 730.414 885.848 730.414 884.465L730.413 879.815C736.113 878.709 739.922 875.627 741.755 870.585C743.035 867.066 743.12 863.722 743.117 861.348C743.555 861.288 744.824 861.06 746.314 860.25C747.338 859.693 748.341 858.041 747.793 855.216C747.24 852.371 744.367 851.785 743.508 851.672C743.483 849.239 743.327 847.608 743.324 847.577C743.318 847.514 743.286 847.461 743.24 847.424C744.139 846.096 744.706 844.514 744.836 842.841C745.05 840.084 744.259 837.715 742.659 835.981C742.658 835.976 742.66 835.973 742.66 835.968C742.436 834.257 742.136 832.61 741.765 831.058L741.101 828.796L741.323 828.851C741.342 828.855 741.361 828.859 741.38 828.859C741.484 828.859 741.579 828.788 741.606 828.681C741.637 828.556 741.561 828.429 741.437 828.398L740.949 828.276L740.698 827.418C740.108 825.749 739.411 824.232 738.626 822.906L738.596 822.853C738.033 821.905 736.745 819.733 735.603 818.9L735.996 817.983C736.047 817.865 735.992 817.729 735.873 817.677C735.755 817.626 735.618 817.681 735.567 817.8L735.225 818.599C734.468 817.982 732.025 816.146 728.986 815.486C725.414 814.709 719.966 815.226 719.751 815.247C719.728 815.249 718.918 815.284 717.66 815.465V814.937C717.66 814.807 717.556 814.704 717.427 814.704C717.298 814.704 717.193 814.808 717.193 814.937V815.536C715.213 815.849 712.361 816.499 709.649 817.819L709 817.387C708.893 817.316 708.748 817.344 708.677 817.452C708.606 817.558 708.635 817.704 708.741 817.775L709.17 818.06C708.53 818.391 707.902 818.762 707.3 819.176C704.806 820.895 703.021 822.94 701.767 825.162L701.209 824.844C701.097 824.781 700.954 824.82 700.891 824.931C700.827 825.043 700.866 825.186 700.977 825.248L701.547 825.574C700.04 828.42 699.37 831.531 699.197 834.612H698.916C698.786 834.612 698.683 834.716 698.683 834.845C698.683 834.974 698.787 835.078 698.916 835.078H699.177C699.024 838.876 699.59 842.593 700.226 845.664L700.205 845.66C700.079 845.636 699.956 845.717 699.931 845.843C699.906 845.97 699.988 846.093 700.115 846.117L700.329 846.161C700.562 847.253 700.8 848.256 701.009 849.14C701.168 849.811 701.311 850.416 701.427 850.953C701.424 850.955 701.421 850.953 701.418 850.955C701.374 850.968 696.935 852.34 696.935 856.894C696.935 861.009 701.685 861.586 702.746 861.665C703.638 865.348 705.067 869.465 706.698 871.806C707.496 872.952 711.57 878.232 719.634 879.807C719.565 881.143 719.451 883.503 719.451 884.389C719.451 885.457 719.425 886.119 718.951 886.257C718.851 886.272 708.92 887.679 704.514 889.302C700.107 890.925 699.544 892.576 698.838 894.842C698.641 894.887 698.526 894.944 698.504 894.956C698.452 894.982 698.412 895.028 698.393 895.083C697.196 898.437 689.703 935.186 689.703 951.429C689.703 962.324 691.006 980.385 692.238 993.797C692.214 993.832 692.195 993.87 692.191 993.914C692.188 993.966 691.803 999.088 691.803 1005.09C691.803 1008.22 691.155 1012.26 690.732 1013.25C690.221 1014.44 689.366 1015.55 689.049 1015.59C688.369 1015.69 687.812 1016.24 687.693 1016.96C687.582 1017.62 687.896 1018.22 688.509 1018.52C688.725 1018.63 688.955 1018.68 689.196 1018.68C690.252 1018.68 691.512 1017.66 692.7 1015.79C693.123 1015.13 693.496 1014.09 693.797 1013.06C693.611 1014.76 693.174 1016.01 692.486 1016.76C692.339 1016.92 692.161 1017.08 691.977 1017.25C691.294 1017.89 690.52 1018.61 690.889 1019.42C691.065 1019.81 691.305 1020.05 691.605 1020.15C691.7 1020.18 691.8 1020.2 691.904 1020.2C692.161 1020.2 692.448 1020.1 692.773 1019.92C692.995 1019.79 693.313 1019.59 693.683 1019.31C693.734 1019.65 693.915 1019.93 694.204 1020.1C694.405 1020.22 694.638 1020.28 694.892 1020.28C695.335 1020.28 695.843 1020.1 696.365 1019.76C696.694 1019.53 697.105 1019.09 697.507 1018.52C697.615 1018.64 697.763 1018.76 697.962 1018.81C698.043 1018.84 698.128 1018.85 698.216 1018.85C698.576 1018.85 698.982 1018.65 699.425 1018.26C700.399 1017.39 701.046 1015.86 701.39 1013.61C701.576 1013.71 701.913 1013.85 702.251 1013.85C702.407 1013.85 702.563 1013.82 702.703 1013.74C703.004 1013.57 703.157 1013.22 703.157 1012.72C703.157 1011.15 701.659 1005.14 701.595 1004.88C701.585 1004.84 701.561 1004.81 701.532 1004.78C701.464 1003.98 701.379 1003.28 701.287 1002.72C700.981 1000.89 700.439 994.139 700.435 994.09L700.434 992.961C700.434 990.401 700.609 986.768 700.81 982.561C701.258 973.209 701.873 960.406 700.903 950.507C701.18 949.006 702.06 943.751 703.092 937.53C703.481 942.232 703.832 946.625 704.078 949.7C704.245 951.803 704.372 953.382 704.439 954.172C704.539 955.355 704.378 957.318 704.209 959.398C703.885 963.363 703.719 966.142 704.336 967.218C704.134 967.408 703.969 967.628 703.839 967.893C703.835 967.902 703.836 967.91 703.833 967.917C703.83 967.924 703.825 967.931 703.822 967.939C702.594 972.851 702.322 980.734 703.994 985.418C703.996 985.423 704.001 985.425 704.003 985.43L704.826 1020.43C704.886 1021.35 705.093 1032.35 705.425 1052.24C705.447 1053.55 705.572 1055.95 705.704 1058.48C705.835 1060.99 705.97 1063.59 705.993 1064.98C706.041 1067.88 706.342 1083.38 706.616 1087.01C707.691 1101.23 708.32 1122.64 708.326 1122.85C708.372 1126.27 707.729 1128.06 707.163 1129.63C706.794 1130.66 706.446 1131.62 706.382 1132.86C706.32 1134.07 706.757 1135.52 710.509 1136.21C710.513 1136.21 710.517 1136.21 710.521 1136.21C711.828 1136.56 712.858 1137.09 713.855 1137.61C714.826 1138.11 715.744 1138.59 716.76 1138.78C718.797 1139.17 720.18 1139.18 720.583 1139.18C721.044 1139.71 721.815 1140 722.437 1140C722.612 1140 722.776 1139.98 722.918 1139.93C723.096 1139.87 723.235 1139.78 723.334 1139.65C723.366 1139.68 723.404 1139.71 723.45 1139.72C723.583 1139.74 723.717 1139.75 723.849 1139.75C724.371 1139.75 724.868 1139.58 725.173 1139.37C725.261 1139.31 725.333 1139.24 725.394 1139.17C725.73 1139.31 726.053 1139.38 726.351 1139.38C726.868 1139.38 727.302 1139.17 727.606 1138.77C727.615 1138.78 727.622 1138.78 727.63 1138.78C727.701 1138.8 727.99 1138.85 728.342 1138.85C728.877 1138.85 729.558 1138.73 729.833 1138.19C729.866 1138.13 729.888 1138.06 729.905 1138C729.92 1138 729.932 1138.01 729.948 1138.01C729.976 1138.01 730.005 1138 730.032 1137.99C731.246 1137.53 731.635 1136.49 731.482 1135.66C731.327 1134.83 730.68 1134.28 729.87 1134.28C729.869 1134.28 729.868 1134.28 729.868 1134.28C726.472 1134.28 724.884 1133.45 723.834 1132.9C718.433 1130.09 717.799 1128.67 716.88 1126.52L716.804 1125.01C716.641 1120.67 719.797 1058.26 719.837 1057.85C721.19 1043.84 724.098 1000.6 724.363 994.409C724.83 994.532 725.801 994.742 727.024 994.742C727.63 994.742 728.3 994.687 728.998 994.547C728.621 1001.4 729.316 1020.5 729.99 1038.98C730.327 1048.23 730.676 1057.78 730.882 1065.61L730.978 1069.36C731.225 1079.16 731.479 1089.29 732.516 1102.76C733.072 1109.98 733.795 1120.17 733.767 1121.29C733.765 1121.3 733.759 1121.32 733.759 1121.33C733.805 1124.75 733.163 1126.54 732.595 1128.12C732.226 1129.14 731.878 1130.11 731.815 1131.35C731.773 1132.17 731.968 1133.11 733.302 1133.85C733.634 1134.08 734.038 1134.25 734.546 1134.36C734.953 1134.48 735.423 1134.59 735.956 1134.69C735.965 1134.7 735.973 1134.7 735.982 1134.7C736.033 1134.71 736.081 1134.72 736.132 1134.72C736.237 1134.74 736.335 1134.76 736.445 1134.78C736.457 1134.78 736.469 1134.78 736.482 1134.78C736.489 1134.78 736.495 1134.78 736.503 1134.78C739.628 1135.25 741.7 1135.97 743.971 1136.96C745.052 1137.43 745.98 1137.56 746.672 1137.56C747.474 1137.56 747.959 1137.39 747.996 1137.37C748.023 1137.36 748.045 1137.35 748.066 1137.33C748.504 1137.64 749.359 1138.16 750.236 1138.2C750.311 1138.21 750.384 1138.21 750.456 1138.21C751.346 1138.21 752.062 1137.93 752.49 1137.41C752.646 1137.22 752.751 1137 752.807 1136.78C752.902 1136.73 753.058 1136.71 753.224 1136.7C753.682 1136.65 754.448 1136.57 754.448 1135.52C754.448 1135.31 754.406 1135.13 754.33 1134.98ZM748.512 900.222L748.413 899.455C748.413 899.455 748.413 899.445 748.414 899.442C748.448 899.702 748.479 899.962 748.512 900.222Z" stroke="white" stroke-width="3" stroke-miterlimit="10" stroke-linecap="round" stroke-linejoin="round"/>
<path d="M2193.82 202.039C2192.73 198.271 2185.91 187.092 2186.07 186.168C2186.22 185.246 2186.99 177.867 2186.68 175.867C2186.38 173.869 2183.92 168.794 2182.84 165.104C2181.76 161.414 2182.84 159.263 2182.38 157.111C2181.92 154.959 2178.4 148.039 2177.77 145.734C2177.36 144.252 2173 138.046 2173 136.201C2173 134.356 2172.54 131.127 2169.77 127.437C2167 123.747 2159.93 123.44 2158.09 122.671C2156.24 121.901 2155.16 118.673 2153.17 116.521C2151.17 114.369 2144.4 107.757 2143.48 106.835C2142.56 105.912 2136.71 103.145 2134.25 102.837C2131.79 102.53 2125.95 102.376 2123.65 102.376C2121.34 102.376 2117.96 102.991 2114.27 103.452C2110.58 103.913 2104.12 100.992 2101.97 102.376C2099.81 103.76 2095.05 104.988 2093.05 105.45C2091.05 105.911 2089.05 109.14 2087.67 112.523C2086.28 115.905 2080.68 119.252 2079.86 121.712C2078.82 124.063 2062.23 146.203 2061.4 148.121C2060.57 150.037 2057.23 151.95 2056.46 153.88C2055.54 156.185 2052 168.576 2052 168.947C2052 170.121 2049.94 175.712 2049.25 176.94C2048.57 178.17 2048.91 189.702 2049.08 190.932C2049.24 192.045 2050.59 198.861 2050.46 200.003C2050.23 202.12 2049.85 209.228 2049.69 210.612C2049.54 211.995 2048.48 213.524 2047.4 215.37C2046.32 217.216 2047.69 220.298 2048.31 223.833C2048.8 226.642 2049.85 238.196 2049.85 239.054C2049.82 243.452 2051.02 246.986 2051.15 248.536C2051.23 249.47 2051.82 255.286 2052.9 258.702C2053.98 262.12 2054.15 270.095 2054.27 270.413C2054.28 271.364 2056.77 281.642 2057.53 282.872C2058.3 284.102 2059.82 288.452 2063.07 291.481C2064.02 292.37 2070.02 299.67 2070.48 300.286C2071.48 301.62 2073.15 304.62 2073.68 306.856C2073.92 307.903 2074.45 311.006 2075.83 313.004C2077.21 315.004 2082.51 317.127 2084.75 318.539C2086.98 319.951 2090.92 321.684 2092.28 322.229C2095.35 323.458 2104.89 328.533 2106.89 329.455C2112.4 332.035 2121.18 329.609 2122.87 330.07C2124.57 330.531 2126.85 330.656 2128.41 330.84C2135.73 331.701 2147.23 327.2 2149.17 326.38C2154.06 324.302 2158.39 315.926 2158.7 315.158C2159.01 314.388 2168.36 296.186 2169 295.169C2170.82 292.284 2180.9 279.619 2181.3 274.107C2181.48 271.654 2184.53 265.037 2184.53 263.345C2184.53 261.653 2186.68 261.653 2186.99 259.039C2187.3 256.424 2188.23 253.45 2188.22 250.276C2188.21 249.046 2190.68 236.131 2190.68 233.21C2190.68 230.289 2192.22 219.562 2191.73 216.284C2191.22 212.832 2195.32 207.205 2193.82 202.039Z" stroke="white" stroke-width="3" stroke-miterlimit="10" stroke-linecap="round" stroke-linejoin="round" stroke-dasharray="12 12"/>
<path d="M847.692 1019.35C850.442 1017.7 850.478 1013.56 850.478 1013.56C850.478 1012.06 848.752 1004.34 848.661 1003.79C848.355 1001.96 847.762 994.984 847.758 994.936L847.757 993.807C847.757 991.246 847.932 987.614 848.133 983.407C848.581 974.055 849.196 961.251 848.226 951.352C848.503 949.852 849.383 944.596 850.415 938.375C850.804 943.078 851.155 947.471 851.401 950.545C851.568 952.649 851.695 954.227 851.762 955.018C851.862 956.2 851.701 958.164 851.532 960.243C851.208 964.208 851.042 966.987 851.659 968.063C851.457 968.254 851.292 968.473 851.162 968.739C851.158 968.747 851.159 968.755 851.156 968.762C851.153 968.769 851.148 968.776 851.145 968.785C849.917 973.697 849.645 981.58 851.317 986.264C851.319 986.27 851.324 986.272 851.326 986.276L852.149 1021.28C852.209 1022.2 852.416 1033.2 852.748 1053.08C852.77 1054.4 852.895 1056.79 853.027 1059.33C853.158 1061.84 853.293 1064.43 853.316 1065.83C853.364 1068.73 853.665 1084.23 853.939 1087.85C855.014 1102.07 855.643 1123.48 855.649 1123.69C855.695 1127.12 855.052 1128.9 854.486 1130.48C854.117 1131.5 853.769 1132.47 853.705 1133.71C853.643 1134.91 855.191 1136.45 857.253 1136.95C858.166 1137.17 860.188 1137.94 861.178 1138.46C862.149 1138.96 863.067 1139.44 864.083 1139.63C866.12 1140.01 872.641 1140.62 875.035 1140.26C878.129 1139.79 878.918 1137.42 878.805 1136.51C878.692 1135.6 878.003 1135.12 877.193 1135.12C877.192 1135.12 877.191 1135.12 877.191 1135.12C873.795 1135.12 872.207 1134.3 871.157 1133.75C865.756 1130.93 865.122 1129.51 864.203 1127.37L864.127 1125.86C863.964 1121.52 867.12 1059.11 867.16 1058.69C868.513 1044.69 871.421 1001.44 871.686 995.255C872.153 995.378 875.623 995.534 876.321 995.394C875.944 1002.24 876.639 1021.34 877.313 1039.83C877.65 1049.07 878.301 1070.21 878.301 1070.21C878.548 1080.01 881.118 1121.02 881.09 1122.13C881.088 1122.15 881.082 1122.16 881.082 1122.18C881.128 1125.6 880.486 1127.39 879.918 1128.96C879.549 1129.98 879.201 1130.95 879.138 1132.2C879.096 1133.02 879.291 1133.96 880.625 1134.69C880.957 1134.93 889.022 1136.82 891.293 1137.8C892.374 1138.28 897.007 1138.94 900.098 1138.6C902.129 1138.38 902.553 1136.19 901.638 1135.04C900.723 1133.89 897.189 1133 897.189 1133C893.291 1131.47 889.652 1128.39 889.401 1126.42C889.134 1124.33 889.246 1121.66 889.247 1121.63C889.247 1121.26 889.43 1116.16 889.683 1109.09C890.407 1088.92 891.752 1051.36 891.58 1048.08C891.35 1043.71 891.501 1029.65 891.503 1029.51C891.503 1029.38 891.507 1025.16 891.503 1019.35L897.451 1015.64C900.097 1012.57 898.47 1001.72 898.452 1001.58C897.692 995.746 897.955 992.547 898.13 990.43L898.173 989.883C898.256 988.807 898.356 987.59 898.465 986.266C899.236 976.85 899.109 950.686 899.109 950.686C898.409 945.567 898.396 945.469 898.487 938.928C898.542 934.983 898.248 923.637 898.248 923.637C897.889 915.44 895.767 897.047 895.762 897.026C895.645 896.432 893.429 892.19 892.088 891.569C891.163 891.141 886.193 889.542 886.193 889.542C883.786 888.765 881.058 887.882 878.263 886.876C878.258 886.874 877.737 886.696 877.737 885.313L877.736 880.663C883.436 879.556 887.245 876.475 889.078 871.433C890.358 867.913 890.443 864.57 890.44 862.195C894.285 861.543 895.664 858.888 895.116 856.064C894.563 853.218 891.69 852.632 890.831 852.519C890.806 850.087 890.753 849.199 890.563 848.271C891.462 846.943 892.029 845.361 892.159 843.689C892.373 840.931 891.582 838.562 889.982 836.828C889.981 836.824 889.983 836.82 889.983 836.816C889.759 835.105 889.314 831.839 888.424 829.644C887.534 827.449 879.346 816.994 876.308 816.333C872.736 815.556 864.515 816.382 864.515 816.382C862.535 816.695 859.683 817.345 856.971 818.665L856.492 818.907C855.852 819.237 855.224 819.608 854.622 820.022C852.128 821.741 848.87 826.42 848.87 826.42C847.363 829.266 846.5 835.926 846.5 835.926C846.347 839.723 848.633 851.264 848.749 851.799C848.746 851.801 848.743 851.799 848.74 851.801C848.696 851.815 844.257 853.186 844.257 857.74C844.257 861.855 849.007 862.433 850.068 862.511C850.96 866.193 852.389 870.31 854.02 872.652C854.818 873.797 858.892 879.078 866.956 880.652C867.005 882.478 866.943 884.154 866.943 885.041C866.943 886.109 866.747 886.965 866.274 887.104C866.174 887.118 856.243 888.526 851.837 890.149C847.43 891.772 846.712 893.463 846.006 895.729C845.663 896.706 837.026 936.032 837.026 952.276C837.026 963.171 838.329 981.231 839.561 994.643C839.537 994.678 839.126 999.934 839.126 1005.94C839.126 1009.06 838.478 1013.11 838.055 1014.09C837.544 1015.29 836.689 1016.4 836.372 1016.44C835.692 1016.53 835.135 1017.09 835.016 1017.8C834.905 1018.46 835.372 1018.93 836.519 1019.53C838.099 1020.35 844.942 1021.01 847.692 1019.35Z" stroke="white" stroke-width="3" stroke-miterlimit="10" stroke-linecap="round" stroke-linejoin="round" stroke-dasharray="12 12"/>
<path d="M222.768 748.559V1011.23L137.435 969.226V704.559L222.768 748.559Z" stroke="white" stroke-width="3" stroke-miterlimit="10" stroke-linecap="round" stroke-linejoin="round" stroke-dasharray="12 12"/>
</svg>
