<svg width="2640" height="1625" viewBox="0 0 2640 1625" fill="none" xmlns="http://www.w3.org/2000/svg">
<g clip-path="url(#clip0)">
<path opacity="0.7" d="M2640 0H0V1625H2640V0Z" fill="#231F20"/>
<path d="M1754.43 675.143L1771.11 685.864L1753.24 693.013" stroke="white" stroke-width="3" stroke-miterlimit="10" stroke-linecap="round" stroke-linejoin="round"/>
<path d="M1671.82 684.08C1690.89 682.89 1623.23 686.328 1663.87 684.67C1722.26 682.289 1771.11 685.864 1771.11 685.864" stroke="white" stroke-width="3" stroke-miterlimit="10" stroke-linecap="round" stroke-linejoin="round"/>
<path d="M1998.91 238.665L2015.6 249.386L1997.72 256.536" stroke="white" stroke-width="3" stroke-miterlimit="10" stroke-linecap="round" stroke-linejoin="round"/>
<path d="M1916.31 247.602C1935.37 246.412 1867.72 249.85 1908.36 248.192C1966.74 245.811 2015.6 249.386 2015.6 249.386" stroke="white" stroke-width="3" stroke-miterlimit="10" stroke-linecap="round" stroke-linejoin="round"/>
<path d="M2089.29 580.148L2078.57 596.831L2071.42 578.957" stroke="white" stroke-width="3" stroke-miterlimit="10" stroke-linecap="round" stroke-linejoin="round"/>
<path d="M2080.35 497.542C2081.54 516.606 2078.1 448.952 2079.76 489.591C2082.14 547.976 2078.57 596.831 2078.57 596.831" stroke="white" stroke-width="3" stroke-miterlimit="10" stroke-linecap="round" stroke-linejoin="round"/>
<path d="M1479.92 660.851H1475.21V629.162H1457.68V660.851H1452.99V625.304H1479.92V660.851ZM1498.72 661.339C1495.14 661.339 1492.23 660.167 1489.98 657.824C1487.73 655.464 1486.61 652.314 1486.61 648.375V647.545C1486.61 644.925 1487.11 642.589 1488.1 640.539C1489.11 638.471 1490.51 636.86 1492.3 635.705C1494.11 634.533 1496.06 633.947 1498.16 633.947C1501.59 633.947 1504.26 635.078 1506.17 637.34C1508.07 639.603 1509.02 642.842 1509.02 647.057V648.937H1491.13C1491.19 651.541 1491.95 653.649 1493.4 655.26C1494.86 656.855 1496.72 657.653 1498.96 657.653C1500.56 657.653 1501.91 657.327 1503.02 656.676C1504.12 656.025 1505.09 655.163 1505.92 654.088L1508.68 656.237C1506.47 659.638 1503.15 661.339 1498.72 661.339ZM1498.16 637.658C1496.34 637.658 1494.81 638.325 1493.57 639.66C1492.33 640.978 1491.57 642.833 1491.27 645.226H1504.51V644.884C1504.38 642.589 1503.76 640.815 1502.65 639.562C1501.54 638.292 1500.05 637.658 1498.16 637.658ZM1536.59 647.936C1536.59 651.956 1535.67 655.195 1533.83 657.653C1531.99 660.11 1529.5 661.339 1526.36 661.339C1523.15 661.339 1520.63 660.322 1518.79 658.288V671.007H1514.27V634.435H1518.4L1518.62 637.365C1520.46 635.086 1523.01 633.947 1526.28 633.947C1529.46 633.947 1531.96 635.143 1533.8 637.536C1535.66 639.928 1536.59 643.257 1536.59 647.521V647.936ZM1532.07 647.423C1532.07 644.445 1531.43 642.093 1530.16 640.368C1528.9 638.642 1527.15 637.78 1524.94 637.78C1522.21 637.78 1520.16 638.992 1518.79 641.417V654.039C1520.14 656.448 1522.21 657.653 1524.99 657.653C1527.15 657.653 1528.87 656.798 1530.14 655.089C1531.43 653.364 1532.07 650.809 1532.07 647.423ZM1553.31 661.339C1549.73 661.339 1546.82 660.167 1544.57 657.824C1542.32 655.464 1541.2 652.314 1541.2 648.375V647.545C1541.2 644.925 1541.7 642.589 1542.69 640.539C1543.7 638.471 1545.1 636.86 1546.89 635.705C1548.7 634.533 1550.65 633.947 1552.75 633.947C1556.18 633.947 1558.85 635.078 1560.76 637.34C1562.66 639.603 1563.61 642.842 1563.61 647.057V648.937H1545.72C1545.78 651.541 1546.54 653.649 1547.99 655.26C1549.45 656.855 1551.31 657.653 1553.55 657.653C1555.15 657.653 1556.5 657.327 1557.61 656.676C1558.71 656.025 1559.68 655.163 1560.51 654.088L1563.27 656.237C1561.06 659.638 1557.74 661.339 1553.31 661.339ZM1552.75 637.658C1550.92 637.658 1549.39 638.325 1548.16 639.66C1546.92 640.978 1546.16 642.833 1545.86 645.226H1559.1V644.884C1558.97 642.589 1558.35 640.815 1557.24 639.562C1556.13 638.292 1554.64 637.658 1552.75 637.658ZM1577.09 649.596H1573.79V660.851H1569.25V634.435H1573.79V645.617H1576.75L1585.63 634.435H1591.1L1580.65 647.13L1591.98 660.851H1586.24L1577.09 649.596ZM1617.52 634.435V660.851H1612.98V638.17H1603.99L1603.46 648.058C1603.16 652.599 1602.4 655.846 1601.16 657.799C1599.94 659.752 1598 660.77 1595.33 660.851H1593.52V656.872L1594.81 656.774C1596.28 656.611 1597.33 655.765 1597.96 654.235C1598.6 652.705 1599 649.873 1599.18 645.739L1599.67 634.435H1617.52ZM1629.7 645.641H1636.05C1636.39 642.125 1637.64 639.302 1639.78 637.169C1641.95 635.021 1644.67 633.947 1647.96 633.947C1651.41 633.947 1654.24 635.11 1656.43 637.438C1658.63 639.765 1659.82 642.793 1660 646.52L1660.02 647.936C1660.02 650.508 1659.52 652.827 1658.51 654.894C1657.5 656.961 1656.08 658.556 1654.26 659.679C1652.44 660.786 1650.36 661.339 1648.01 661.339C1644.61 661.339 1641.83 660.233 1639.66 658.019C1637.5 655.789 1636.28 652.9 1636.02 649.352H1629.7V660.851H1625.18V634.435H1629.7V645.641ZM1640.49 647.936C1640.49 650.866 1641.17 653.218 1642.52 654.992C1643.89 656.766 1645.72 657.653 1648.01 657.653C1650.31 657.653 1652.12 656.749 1653.46 654.943C1654.81 653.136 1655.48 650.622 1655.48 647.399C1655.48 644.518 1654.8 642.174 1653.43 640.368C1652.06 638.561 1650.24 637.658 1647.96 637.658C1645.72 637.658 1643.91 638.545 1642.54 640.319C1641.18 642.093 1640.49 644.632 1640.49 647.936ZM1685.54 660.851H1680.99V651.281C1679.01 651.802 1676.97 652.062 1674.89 652.062C1671.59 652.062 1669.06 651.216 1667.32 649.523C1665.6 647.83 1664.72 645.421 1664.69 642.296V634.411H1669.2V642.443C1669.28 646.382 1671.18 648.351 1674.89 648.351C1676.97 648.351 1679.01 648.091 1680.99 647.57V634.435H1685.54V660.851ZM1709.88 634.435H1714.39V660.851H1709.88V641.588L1697.69 660.851H1693.18V634.435H1697.69V653.722L1709.88 634.435ZM1741.27 638.097H1732.41V660.851H1727.89V638.097H1719.2V634.435H1741.27V638.097ZM1750.6 643.541H1757.46C1760.45 643.574 1762.82 644.355 1764.56 645.885C1766.31 647.415 1767.18 649.49 1767.18 652.111C1767.18 654.747 1766.28 656.863 1764.49 658.458C1762.7 660.053 1760.29 660.851 1757.26 660.851H1746.08V634.435H1750.6V643.541ZM1750.6 647.228V657.164H1757.31C1759.01 657.164 1760.32 656.733 1761.24 655.871C1762.17 654.992 1762.64 653.795 1762.64 652.282C1762.64 650.817 1762.18 649.621 1761.27 648.693C1760.37 647.749 1759.11 647.261 1757.48 647.228H1750.6ZM1800.43 654.87L1809.41 634.435H1815.05V660.851H1810.54V641.637L1801.99 660.851H1798.87L1790.15 641.222V660.851H1785.63V634.435H1791.49L1800.43 654.87ZM1830.97 654.235L1837.12 634.435H1841.96L1831.34 664.928C1829.69 669.323 1827.08 671.52 1823.5 671.52L1822.65 671.447L1820.96 671.129V667.467L1822.18 667.565C1823.71 667.565 1824.9 667.256 1825.75 666.637C1826.61 666.019 1827.32 664.887 1827.87 663.244L1828.87 660.558L1819.45 634.435H1824.38L1830.97 654.235ZM1860.54 641.662C1860.54 640.425 1860.06 639.448 1859.12 638.732C1858.18 637.999 1856.88 637.633 1855.24 637.633C1853.64 637.633 1852.31 638.048 1851.23 638.878C1850.18 639.708 1849.65 640.685 1849.65 641.808H1845.16C1845.16 639.513 1846.12 637.633 1848.04 636.168C1849.96 634.704 1852.36 633.971 1855.24 633.971C1858.33 633.971 1860.74 634.638 1862.46 635.973C1864.19 637.291 1865.05 639.179 1865.05 641.637C1865.05 642.825 1864.69 643.916 1863.98 644.909C1863.26 645.901 1862.24 646.691 1860.93 647.277C1864 648.318 1865.54 650.369 1865.54 653.429C1865.54 655.854 1864.6 657.775 1862.73 659.191C1860.86 660.607 1858.36 661.315 1855.24 661.315C1852.19 661.315 1849.68 660.574 1847.69 659.093C1845.72 657.596 1844.74 655.578 1844.74 653.039H1849.23C1849.23 654.324 1849.8 655.431 1850.94 656.359C1852.1 657.27 1853.53 657.726 1855.24 657.726C1856.96 657.726 1858.35 657.327 1859.41 656.53C1860.47 655.732 1861 654.699 1861 653.429C1861 651.948 1860.55 650.89 1859.66 650.255C1858.78 649.604 1857.4 649.279 1855.53 649.279H1851.01V645.47H1855.92C1859 645.389 1860.54 644.119 1860.54 641.662ZM1876.33 643.541H1883.19C1886.19 643.574 1888.56 644.355 1890.3 645.885C1892.04 647.415 1892.91 649.49 1892.91 652.111C1892.91 654.747 1892.01 656.863 1890.22 658.458C1888.43 660.053 1886.02 660.851 1883 660.851H1871.82V634.435H1876.33V643.541ZM1902.33 660.851H1897.79V634.435H1902.33V660.851ZM1876.33 647.228V657.164H1883.05C1884.74 657.164 1886.05 656.733 1886.98 655.871C1887.9 654.992 1888.37 653.795 1888.37 652.282C1888.37 650.817 1887.91 649.621 1887 648.693C1886.11 647.749 1884.84 647.261 1883.22 647.228H1876.33ZM1918.45 649.596H1915.15V660.851H1910.61V634.435H1915.15V645.617H1918.1L1926.99 634.435H1932.46L1922.01 647.13L1933.34 660.851H1927.6L1918.45 649.596ZM1945.86 654.235L1952.02 634.435H1956.85L1946.23 664.928C1944.59 669.323 1941.97 671.52 1938.39 671.52L1937.54 671.447L1935.85 671.129V667.467L1937.07 667.565C1938.6 667.565 1939.79 667.256 1940.64 666.637C1941.5 666.019 1942.21 664.887 1942.76 663.244L1943.76 660.558L1934.34 634.435H1939.27L1945.86 654.235Z" fill="white"/>
<path d="M1900.92 447.35H1896.21V415.661H1878.68V447.35H1874V411.803H1900.92V447.35ZM1907.57 433.898C1907.57 431.31 1908.07 428.982 1909.08 426.915C1910.1 424.848 1911.52 423.253 1913.33 422.13C1915.15 421.007 1917.23 420.446 1919.55 420.446C1923.15 420.446 1926.05 421.691 1928.27 424.181C1930.5 426.671 1931.61 429.983 1931.61 434.118V434.435C1931.61 437.007 1931.12 439.318 1930.12 441.369C1929.15 443.403 1927.74 444.99 1925.9 446.129C1924.08 447.269 1921.98 447.838 1919.6 447.838C1916.02 447.838 1913.12 446.593 1910.89 444.103C1908.67 441.613 1907.57 438.317 1907.57 434.215V433.898ZM1912.11 434.435C1912.11 437.365 1912.78 439.717 1914.13 441.491C1915.5 443.265 1917.32 444.152 1919.6 444.152C1921.9 444.152 1923.72 443.257 1925.07 441.466C1926.42 439.66 1927.1 437.137 1927.1 433.898C1927.1 431.001 1926.4 428.657 1925.02 426.867C1923.65 425.06 1921.83 424.157 1919.55 424.157C1917.32 424.157 1915.52 425.044 1914.16 426.818C1912.79 428.592 1912.11 431.131 1912.11 434.435ZM1947.87 444.152C1949.48 444.152 1950.89 443.663 1952.1 442.687C1953.3 441.71 1953.97 440.49 1954.1 439.025H1958.37C1958.29 440.538 1957.77 441.979 1956.81 443.346C1955.85 444.713 1954.56 445.804 1952.95 446.618C1951.36 447.431 1949.66 447.838 1947.87 447.838C1944.28 447.838 1941.41 446.642 1939.28 444.249C1937.16 441.841 1936.11 438.553 1936.11 434.386V433.629C1936.11 431.058 1936.58 428.771 1937.52 426.769C1938.47 424.767 1939.82 423.213 1941.57 422.106C1943.35 420.999 1945.44 420.446 1947.85 420.446C1950.81 420.446 1953.27 421.333 1955.22 423.107C1957.19 424.881 1958.24 427.184 1958.37 430.016H1954.1C1953.97 428.307 1953.32 426.907 1952.15 425.817C1950.99 424.71 1949.56 424.157 1947.85 424.157C1945.55 424.157 1943.77 424.987 1942.5 426.647C1941.25 428.291 1940.62 430.675 1940.62 433.8V434.655C1940.62 437.698 1941.25 440.042 1942.5 441.686C1943.75 443.33 1945.55 444.152 1947.87 444.152ZM1978.66 441.369L1987.64 420.934H1993.28V447.35H1988.77V428.136L1980.22 447.35H1977.1L1968.38 427.721V447.35H1963.86V420.934H1969.72L1978.66 441.369ZM1999.36 433.898C1999.36 431.31 1999.87 428.982 2000.88 426.915C2001.9 424.848 2003.32 423.253 2005.12 422.13C2006.95 421.007 2009.02 420.446 2011.35 420.446C2014.95 420.446 2017.85 421.691 2020.07 424.181C2022.3 426.671 2023.41 429.983 2023.41 434.118V434.435C2023.41 437.007 2022.91 439.318 2021.92 441.369C2020.94 443.403 2019.54 444.99 2017.7 446.129C2015.87 447.269 2013.77 447.838 2011.4 447.838C2007.82 447.838 2004.91 446.593 2002.68 444.103C2000.47 441.613 1999.36 438.317 1999.36 434.215V433.898ZM2003.9 434.435C2003.9 437.365 2004.58 439.717 2005.93 441.491C2007.3 443.265 2009.12 444.152 2011.4 444.152C2013.69 444.152 2015.52 443.257 2016.87 441.466C2018.22 439.66 2018.89 437.137 2018.89 433.898C2018.89 431.001 2018.2 428.657 2016.82 426.867C2015.45 425.06 2013.63 424.157 2011.35 424.157C2009.12 424.157 2007.32 425.044 2005.95 426.818C2004.59 428.592 2003.9 431.131 2003.9 434.435ZM2048.17 424.596H2039.3V447.35H2034.79V424.596H2026.1V420.934H2048.17V424.596ZM2074.87 434.435C2074.87 438.455 2073.96 441.694 2072.12 444.152C2070.28 446.609 2067.79 447.838 2064.65 447.838C2061.44 447.838 2058.92 446.821 2057.08 444.786V457.506H2052.56V420.934H2056.69L2056.91 423.864C2058.75 421.585 2061.3 420.446 2064.57 420.446C2067.75 420.446 2070.25 421.642 2072.09 424.035C2073.95 426.427 2074.87 429.756 2074.87 434.02V434.435ZM2070.36 433.922C2070.36 430.944 2069.72 428.592 2068.45 426.867C2067.18 425.141 2065.44 424.279 2063.23 424.279C2060.49 424.279 2058.44 425.491 2057.08 427.916V440.538C2058.43 442.947 2060.49 444.152 2063.28 444.152C2065.44 444.152 2067.16 443.297 2068.43 441.588C2069.72 439.863 2070.36 437.308 2070.36 433.922ZM2091.6 447.838C2088.02 447.838 2085.1 446.666 2082.86 444.323C2080.61 441.963 2079.49 438.813 2079.49 434.874V434.044C2079.49 431.424 2079.99 429.088 2080.98 427.037C2081.99 424.97 2083.39 423.359 2085.18 422.203C2086.98 421.032 2088.94 420.446 2091.04 420.446C2094.47 420.446 2097.14 421.577 2099.04 423.839C2100.95 426.102 2101.9 429.341 2101.9 433.556V435.436H2084.01C2084.07 438.04 2084.83 440.148 2086.28 441.759C2087.74 443.354 2089.6 444.152 2091.84 444.152C2093.44 444.152 2094.79 443.826 2095.9 443.175C2097 442.524 2097.97 441.661 2098.8 440.587L2101.56 442.736C2099.35 446.137 2096.03 447.838 2091.6 447.838ZM2091.04 424.157C2089.21 424.157 2087.68 424.824 2086.45 426.159C2085.21 427.477 2084.45 429.332 2084.15 431.725H2097.38V431.383C2097.25 429.088 2096.64 427.314 2095.53 426.061C2094.42 424.791 2092.92 424.157 2091.04 424.157ZM2126.49 424.596H2117.62V447.35H2113.11V424.596H2104.42V420.934H2126.49V424.596ZM2135.81 430.04H2142.67C2145.67 430.073 2148.04 430.854 2149.78 432.384C2151.52 433.914 2152.39 435.989 2152.39 438.61C2152.39 441.246 2151.49 443.362 2149.7 444.957C2147.91 446.552 2145.5 447.35 2142.48 447.35H2131.3V420.934H2135.81V430.04ZM2135.81 433.727V443.663H2142.53C2144.22 443.663 2145.53 443.232 2146.46 442.37C2147.38 441.491 2147.85 440.294 2147.85 438.781C2147.85 437.316 2147.39 436.12 2146.48 435.192C2145.59 434.248 2144.32 433.759 2142.7 433.727H2135.81ZM2169.45 434.63C2169.45 430.219 2170.31 426.753 2172.02 424.23C2173.73 421.707 2176.07 420.446 2179.05 420.446C2180.43 420.446 2181.65 420.682 2182.69 421.154V409.85H2187.2V421.3C2188.34 420.731 2189.68 420.446 2191.21 420.446C2194.2 420.446 2196.55 421.707 2198.26 424.23C2199.97 426.753 2200.83 430.39 2200.83 435.143C2200.83 439.033 2199.97 442.125 2198.26 444.42C2196.57 446.715 2194.24 447.863 2191.26 447.863C2189.68 447.863 2188.33 447.602 2187.2 447.081V457.506H2182.69V447.155C2181.61 447.627 2180.38 447.863 2179 447.863C2176.04 447.863 2173.7 446.715 2171.99 444.42C2170.3 442.125 2169.45 438.984 2169.45 434.996V434.63ZM2196.31 434.63C2196.31 431.31 2195.74 428.738 2194.6 426.915C2193.46 425.076 2191.89 424.157 2189.89 424.157C2188.86 424.157 2187.97 424.319 2187.2 424.645V443.761C2187.94 444.038 2188.85 444.176 2189.94 444.176C2191.96 444.176 2193.52 443.395 2194.63 441.832C2195.75 440.27 2196.31 437.869 2196.31 434.63ZM2173.97 435.143C2173.97 438.105 2174.5 440.351 2175.56 441.881C2176.62 443.411 2178.14 444.176 2180.12 444.176C2181.07 444.176 2181.92 444.03 2182.69 443.737V424.572C2182 424.295 2181.17 424.157 2180.17 424.157C2178.19 424.157 2176.66 425.044 2175.58 426.818C2174.51 428.592 2173.97 431.367 2173.97 435.143ZM2205.51 433.898C2205.51 431.31 2206.02 428.982 2207.03 426.915C2208.05 424.848 2209.47 423.253 2211.28 422.13C2213.1 421.007 2215.17 420.446 2217.5 420.446C2221.1 420.446 2224 421.691 2226.22 424.181C2228.45 426.671 2229.56 429.983 2229.56 434.118V434.435C2229.56 437.007 2229.07 439.318 2228.07 441.369C2227.1 443.403 2225.69 444.99 2223.85 446.129C2222.03 447.269 2219.93 447.838 2217.55 447.838C2213.97 447.838 2211.06 446.593 2208.83 444.103C2206.62 441.613 2205.51 438.317 2205.51 434.215V433.898ZM2210.06 434.435C2210.06 437.365 2210.73 439.717 2212.08 441.491C2213.45 443.265 2215.27 444.152 2217.55 444.152C2219.85 444.152 2221.67 443.257 2223.02 441.466C2224.37 439.66 2225.05 437.137 2225.05 433.898C2225.05 431.001 2224.35 428.657 2222.97 426.867C2221.6 425.06 2219.78 424.157 2217.5 424.157C2215.27 424.157 2213.47 425.044 2212.11 426.818C2210.74 428.592 2210.06 431.131 2210.06 434.435ZM2254.32 424.596H2245.46V447.35H2240.94V424.596H2232.25V420.934H2254.32V424.596ZM2256.49 433.898C2256.49 431.31 2257 428.982 2258 426.915C2259.03 424.848 2260.45 423.253 2262.25 422.13C2264.08 421.007 2266.15 420.446 2268.48 420.446C2272.08 420.446 2274.98 421.691 2277.19 424.181C2279.42 426.671 2280.54 429.983 2280.54 434.118V434.435C2280.54 437.007 2280.04 439.318 2279.05 441.369C2278.07 443.403 2276.67 444.99 2274.83 446.129C2273 447.269 2270.9 447.838 2268.53 447.838C2264.95 447.838 2262.04 446.593 2259.81 444.103C2257.6 441.613 2256.49 438.317 2256.49 434.215V433.898ZM2261.03 434.435C2261.03 437.365 2261.71 439.717 2263.06 441.491C2264.43 443.265 2266.25 444.152 2268.53 444.152C2270.82 444.152 2272.64 443.257 2274 441.466C2275.35 439.66 2276.02 437.137 2276.02 433.898C2276.02 431.001 2275.33 428.657 2273.95 426.867C2272.58 425.06 2270.76 424.157 2268.48 424.157C2266.25 424.157 2264.45 425.044 2263.08 426.818C2261.72 428.592 2261.03 431.131 2261.03 434.435ZM2306.15 447.35H2301.61V437.78C2299.62 438.3 2297.59 438.561 2295.5 438.561C2292.2 438.561 2289.68 437.715 2287.94 436.022C2286.21 434.329 2285.33 431.92 2285.3 428.795V420.91H2289.82V428.942C2289.9 432.881 2291.79 434.85 2295.5 434.85C2297.59 434.85 2299.62 434.59 2301.61 434.069V420.934H2306.15V447.35ZM2321.63 436.095H2318.33V447.35H2313.79V420.934H2318.33V432.116H2321.29L2330.17 420.934H2335.64L2325.19 433.629L2336.52 447.35H2330.78L2321.63 436.095ZM2357.49 420.934H2362.01V447.35H2357.49V428.087L2345.31 447.35H2340.79V420.934H2345.31V440.221L2357.49 420.934Z" fill="white"/>
<path d="M1705.99 232.944L1714.17 212.314H1719.61L1707.04 241.929C1706.19 243.817 1705.4 245.16 1704.67 245.957C1703.94 246.738 1703.07 247.34 1702.08 247.764C1701.1 248.171 1699.88 248.374 1698.39 248.374C1697.11 248.374 1696.29 248.301 1695.93 248.154L1696.07 244.443L1698.3 244.541C1700.01 244.541 1701.28 243.719 1702.11 242.075L1702.72 240.806L1703.64 238.633L1691.53 212.314H1696.78L1705.99 232.944ZM1739.12 221.445H1743.63V247.861H1739.12V228.599L1726.93 247.861H1722.42V221.445H1726.93V240.732L1739.12 221.445ZM1740.34 211.826C1740.34 213.796 1739.66 215.382 1738.31 216.587C1736.98 217.775 1735.22 218.369 1733.04 218.369C1730.86 218.369 1729.09 217.767 1727.74 216.562C1726.39 215.358 1725.71 213.779 1725.71 211.826H1729.4C1729.4 212.965 1729.71 213.861 1730.33 214.512C1730.95 215.146 1731.85 215.464 1733.04 215.464C1734.18 215.464 1735.06 215.146 1735.7 214.512C1736.35 213.877 1736.68 212.982 1736.68 211.826H1740.34ZM1770.51 225.107H1761.65V247.861H1757.13V225.107H1748.44V221.445H1770.51V225.107ZM1792 221.445H1796.51V247.861H1792V228.599L1779.82 247.861H1775.3V221.445H1779.82V240.732L1792 221.445ZM1826.76 244.663C1828.37 244.663 1829.78 244.175 1830.99 243.198C1832.19 242.222 1832.86 241.001 1832.99 239.536H1837.26C1837.18 241.05 1836.66 242.49 1835.7 243.857C1834.74 245.225 1833.45 246.315 1831.84 247.129C1830.25 247.943 1828.55 248.35 1826.76 248.35C1823.17 248.35 1820.3 247.153 1818.17 244.761C1816.05 242.352 1815 239.064 1815 234.897V234.141C1815 231.569 1815.47 229.282 1816.41 227.28C1817.36 225.278 1818.71 223.724 1820.46 222.617C1822.24 221.51 1824.33 220.957 1826.74 220.957C1829.7 220.957 1832.16 221.844 1834.11 223.618C1836.08 225.392 1837.13 227.695 1837.26 230.527H1832.99C1832.86 228.818 1832.21 227.419 1831.04 226.328C1829.88 225.221 1828.45 224.668 1826.74 224.668C1824.44 224.668 1822.66 225.498 1821.39 227.158C1820.14 228.802 1819.51 231.187 1819.51 234.312V235.166C1819.51 238.21 1820.14 240.553 1821.39 242.197C1822.65 243.841 1824.44 244.663 1826.76 244.663ZM1842.75 247.861V221.445H1853.06C1856.57 221.445 1859.27 222.064 1861.14 223.301C1863.03 224.521 1863.97 226.32 1863.97 228.696C1863.97 229.917 1863.6 231.024 1862.87 232.017C1862.14 232.993 1861.06 233.742 1859.62 234.263C1861.22 234.637 1862.5 235.369 1863.46 236.46C1864.43 237.55 1864.92 238.853 1864.92 240.366C1864.92 242.791 1864.03 244.647 1862.24 245.933C1860.46 247.218 1857.95 247.861 1854.69 247.861H1842.75ZM1847.27 236.265V244.224H1854.74C1856.63 244.224 1858.04 243.874 1858.97 243.174C1859.91 242.474 1860.38 241.489 1860.38 240.22C1860.38 237.583 1858.44 236.265 1854.57 236.265H1847.27ZM1847.27 232.651H1853.11C1857.34 232.651 1859.45 231.414 1859.45 228.94C1859.45 226.466 1857.45 225.189 1853.45 225.107H1847.27V232.651ZM1881.87 248.35C1878.29 248.35 1875.37 247.178 1873.13 244.834C1870.88 242.474 1869.76 239.325 1869.76 235.386V234.556C1869.76 231.935 1870.25 229.6 1871.25 227.549C1872.25 225.482 1873.65 223.87 1875.45 222.715C1877.25 221.543 1879.2 220.957 1881.3 220.957C1884.74 220.957 1887.41 222.088 1889.31 224.351C1891.22 226.613 1892.17 229.852 1892.17 234.067V235.947H1874.27C1874.34 238.551 1875.1 240.659 1876.54 242.271C1878.01 243.866 1879.86 244.663 1882.11 244.663C1883.71 244.663 1885.06 244.338 1886.16 243.687C1887.27 243.035 1888.24 242.173 1889.07 241.099L1891.83 243.247C1889.61 246.649 1886.29 248.35 1881.87 248.35ZM1881.3 224.668C1879.48 224.668 1877.95 225.335 1876.71 226.67C1875.48 227.988 1874.71 229.844 1874.42 232.236H1887.65V231.895C1887.52 229.6 1886.9 227.826 1885.8 226.572C1884.69 225.303 1883.19 224.668 1881.3 224.668ZM1917.36 247.861H1912.82V238.291C1910.84 238.812 1908.8 239.072 1906.72 239.072C1903.42 239.072 1900.89 238.226 1899.15 236.533C1897.43 234.84 1896.55 232.432 1896.51 229.307V221.421H1901.03V229.453C1901.11 233.392 1903.01 235.361 1906.72 235.361C1908.8 235.361 1910.84 235.101 1912.82 234.58V221.445H1917.36V247.861ZM1935.58 248.35C1932 248.35 1929.08 247.178 1926.84 244.834C1924.59 242.474 1923.47 239.325 1923.47 235.386V234.556C1923.47 231.935 1923.96 229.6 1924.96 227.549C1925.97 225.482 1927.37 223.87 1929.16 222.715C1930.96 221.543 1932.92 220.957 1935.02 220.957C1938.45 220.957 1941.12 222.088 1943.02 224.351C1944.93 226.613 1945.88 229.852 1945.88 234.067V235.947H1927.98C1928.05 238.551 1928.81 240.659 1930.25 242.271C1931.72 243.866 1933.57 244.663 1935.82 244.663C1937.42 244.663 1938.77 244.338 1939.87 243.687C1940.98 243.035 1941.95 242.173 1942.78 241.099L1945.54 243.247C1943.32 246.649 1940 248.35 1935.58 248.35ZM1935.02 224.668C1933.19 224.668 1931.66 225.335 1930.43 226.67C1929.19 227.988 1928.42 229.844 1928.13 232.236H1941.36V231.895C1941.23 229.6 1940.61 227.826 1939.51 226.572C1938.4 225.303 1936.9 224.668 1935.02 224.668ZM1973.44 234.946C1973.44 238.966 1972.52 242.205 1970.68 244.663C1968.85 247.121 1966.35 248.35 1963.21 248.35C1960.01 248.35 1957.48 247.332 1955.65 245.298V258.018H1951.13V221.445H1955.25L1955.47 224.375C1957.31 222.096 1959.87 220.957 1963.14 220.957C1966.31 220.957 1968.82 222.153 1970.66 224.546C1972.52 226.938 1973.44 230.267 1973.44 234.531V234.946ZM1968.93 234.434C1968.93 231.455 1968.29 229.103 1967.02 227.378C1965.75 225.653 1964.01 224.79 1961.8 224.79C1959.06 224.79 1957.01 226.003 1955.65 228.428V241.05C1957 243.459 1959.06 244.663 1961.85 244.663C1964.01 244.663 1965.73 243.809 1967 242.1C1968.28 240.374 1968.93 237.819 1968.93 234.434ZM1996.29 221.445H2000.81V247.861H1996.29V228.599L1984.11 247.861H1979.6V221.445H1984.11V240.732L1996.29 221.445ZM2029.64 247.861H2025.13V236.582H2012.99V247.861H2008.45V221.445H2012.99V232.896H2025.13V221.445H2029.64V247.861ZM2045.15 236.606H2041.85V247.861H2037.31V221.445H2041.85V232.627H2044.81L2053.69 221.445H2059.16L2048.71 234.141L2060.04 247.861H2054.3L2045.15 236.606ZM2081.01 221.445H2085.53V247.861H2081.01V228.599L2068.83 247.861H2064.31V221.445H2068.83V240.732L2081.01 221.445Z" fill="white"/>
<path d="M798.737 958.646L815.421 969.367L797.547 976.516" stroke="white" stroke-width="3" stroke-miterlimit="10" stroke-linecap="round" stroke-linejoin="round"/>
<path d="M766.246 967.48C795.656 967.92 815.421 969.367 815.421 969.367" stroke="white" stroke-width="3" stroke-miterlimit="10" stroke-linecap="round" stroke-linejoin="round"/>
<path d="M565.993 756.353H561.281V724.664H543.752V756.353H539.064V720.806H565.993V756.353ZM584.792 756.841C581.211 756.841 578.297 755.669 576.051 753.326C573.805 750.966 572.682 747.816 572.682 743.877V743.047C572.682 740.427 573.179 738.091 574.172 736.041C575.181 733.973 576.58 732.362 578.371 731.207C580.177 730.035 582.13 729.449 584.23 729.449C587.664 729.449 590.334 730.58 592.238 732.842C594.142 735.105 595.094 738.344 595.094 742.559V744.439H577.199C577.264 747.043 578.021 749.151 579.469 750.762C580.934 752.357 582.79 753.155 585.036 753.155C586.631 753.155 587.982 752.829 589.089 752.178C590.195 751.527 591.164 750.665 591.994 749.59L594.753 751.739C592.539 755.14 589.219 756.841 584.792 756.841ZM584.23 733.16C582.407 733.16 580.877 733.827 579.64 735.162C578.403 736.48 577.638 738.335 577.345 740.728H590.578V740.386C590.448 738.091 589.829 736.317 588.722 735.064C587.616 733.794 586.118 733.16 584.23 733.16ZM622.658 743.438C622.658 747.458 621.738 750.697 619.899 753.155C618.06 755.612 615.57 756.841 612.428 756.841C609.222 756.841 606.699 755.824 604.86 753.79V766.509H600.343V729.937H604.469L604.689 732.867C606.528 730.588 609.084 729.449 612.355 729.449C615.529 729.449 618.035 730.645 619.875 733.038C621.73 735.43 622.658 738.759 622.658 743.023V743.438ZM618.141 742.925C618.141 739.947 617.506 737.595 616.237 735.87C614.967 734.144 613.226 733.282 611.012 733.282C608.278 733.282 606.227 734.494 604.86 736.919V749.542C606.211 751.95 608.278 753.155 611.061 753.155C613.226 753.155 614.943 752.3 616.213 750.591C617.498 748.866 618.141 746.311 618.141 742.925ZM639.381 756.841C635.801 756.841 632.887 755.669 630.641 753.326C628.395 750.966 627.272 747.816 627.272 743.877V743.047C627.272 740.427 627.769 738.091 628.761 736.041C629.77 733.973 631.17 732.362 632.961 731.207C634.767 730.035 636.72 729.449 638.82 729.449C642.254 729.449 644.923 730.58 646.828 732.842C648.732 735.105 649.684 738.344 649.684 742.559V744.439H631.789C631.854 747.043 632.611 749.151 634.059 750.762C635.524 752.357 637.38 753.155 639.626 753.155C641.221 753.155 642.572 752.829 643.678 752.178C644.785 751.527 645.754 750.665 646.584 749.59L649.342 751.739C647.129 755.14 643.809 756.841 639.381 756.841ZM638.82 733.16C636.997 733.16 635.467 733.827 634.23 735.162C632.993 736.48 632.228 738.335 631.935 740.728H645.168V740.386C645.037 738.091 644.419 736.317 643.312 735.064C642.205 733.794 640.708 733.16 638.82 733.16ZM670.143 750.372L679.128 729.937H684.767V756.353H680.251V737.139L671.706 756.353H668.581L659.865 736.724V756.353H655.348V729.937H661.208L670.143 750.372ZM703.005 756.841C699.424 756.841 696.51 755.669 694.264 753.326C692.018 750.966 690.895 747.816 690.895 743.877V743.047C690.895 740.427 691.392 738.091 692.384 736.041C693.394 733.973 694.793 732.362 696.584 731.207C698.39 730.035 700.343 729.449 702.443 729.449C705.877 729.449 708.547 730.58 710.451 732.842C712.355 735.105 713.307 738.344 713.307 742.559V744.439H695.412C695.477 747.043 696.234 749.151 697.682 750.762C699.147 752.357 701.003 753.155 703.249 753.155C704.844 753.155 706.195 752.829 707.301 752.178C708.408 751.527 709.377 750.665 710.207 749.59L712.965 751.739C710.752 755.14 707.432 756.841 703.005 756.841ZM702.443 733.16C700.62 733.16 699.09 733.827 697.853 735.162C696.616 736.48 695.851 738.335 695.558 740.728H708.791V740.386C708.66 738.091 708.042 736.317 706.935 735.064C705.828 733.794 704.331 733.16 702.443 733.16ZM729.152 753.155C730.763 753.155 732.171 752.667 733.376 751.69C734.58 750.713 735.247 749.493 735.378 748.028H739.65C739.569 749.542 739.048 750.982 738.088 752.349C737.127 753.716 735.841 754.807 734.23 755.621C732.635 756.434 730.942 756.841 729.152 756.841C725.555 756.841 722.69 755.645 720.558 753.252C718.442 750.844 717.384 747.556 717.384 743.389V742.632C717.384 740.061 717.856 737.774 718.8 735.772C719.744 733.77 721.095 732.216 722.853 731.109C724.627 730.002 726.719 729.449 729.128 729.449C732.09 729.449 734.547 730.336 736.501 732.11C738.47 733.884 739.52 736.187 739.65 739.019H735.378C735.247 737.31 734.596 735.91 733.424 734.82C732.269 733.713 730.837 733.16 729.128 733.16C726.833 733.16 725.05 733.99 723.781 735.65C722.528 737.294 721.901 739.678 721.901 742.803V743.658C721.901 746.701 722.528 749.045 723.781 750.689C725.034 752.333 726.825 753.155 729.152 753.155ZM764.357 733.599H755.495V756.353H750.978V733.599H742.287V729.937H764.357V733.599ZM785.841 729.937H790.358V756.353H785.841V737.09L773.659 756.353H769.142V729.937H773.659V749.224L785.841 729.937ZM817.238 733.599H808.376V756.353H803.859V733.599H795.168V729.937H817.238V733.599ZM826.564 739.043H833.424C836.419 739.076 838.787 739.857 840.529 741.387C842.27 742.917 843.141 744.992 843.141 747.613C843.141 750.25 842.246 752.365 840.456 753.96C838.665 755.556 836.256 756.353 833.229 756.353H822.047V729.937H826.564V739.043ZM826.564 742.73V752.667H833.278C834.971 752.667 836.281 752.235 837.209 751.373C838.136 750.494 838.6 749.297 838.6 747.784C838.6 746.319 838.144 745.123 837.233 744.195C836.338 743.251 835.076 742.763 833.449 742.73H826.564ZM882.79 756.353H878.273V733.672H866.115V756.353H861.574V729.937H882.79V756.353ZM901.003 756.841C897.422 756.841 894.508 755.669 892.262 753.326C890.016 750.966 888.893 747.816 888.893 743.877V743.047C888.893 740.427 889.39 738.091 890.382 736.041C891.392 733.973 892.791 732.362 894.582 731.207C896.388 730.035 898.341 729.449 900.441 729.449C903.875 729.449 906.545 730.58 908.449 732.842C910.353 735.105 911.305 738.344 911.305 742.559V744.439H893.41C893.475 747.043 894.232 749.151 895.68 750.762C897.145 752.357 899.001 753.155 901.247 753.155C902.842 753.155 904.193 752.829 905.299 752.178C906.406 751.527 907.375 750.665 908.205 749.59L910.964 751.739C908.75 755.14 905.43 756.841 901.003 756.841ZM900.441 733.16C898.618 733.16 897.088 733.827 895.851 735.162C894.614 736.48 893.849 738.335 893.556 740.728H906.789V740.386C906.658 738.091 906.04 736.317 904.933 735.064C903.826 733.794 902.329 733.16 900.441 733.16ZM938.869 743.438C938.869 747.458 937.949 750.697 936.11 753.155C934.271 755.612 931.781 756.841 928.639 756.841C925.433 756.841 922.91 755.824 921.071 753.79V766.509H916.554V729.937H920.68L920.9 732.867C922.739 730.588 925.295 729.449 928.566 729.449C931.74 729.449 934.246 730.645 936.086 733.038C937.941 735.43 938.869 738.759 938.869 743.023V743.438ZM934.352 742.925C934.352 739.947 933.717 737.595 932.448 735.87C931.178 734.144 929.437 733.282 927.223 733.282C924.489 733.282 922.438 734.494 921.071 736.919V749.542C922.422 751.95 924.489 753.155 927.272 753.155C929.437 753.155 931.154 752.3 932.423 750.591C933.709 748.866 934.352 746.311 934.352 742.925ZM955.226 753.155C956.838 753.155 958.245 752.667 959.45 751.69C960.654 750.713 961.322 749.493 961.452 748.028H965.724C965.643 749.542 965.122 750.982 964.162 752.349C963.201 753.716 961.916 754.807 960.304 755.621C958.709 756.434 957.017 756.841 955.226 756.841C951.629 756.841 948.765 755.645 946.632 753.252C944.517 750.844 943.459 747.556 943.459 743.389V742.632C943.459 740.061 943.931 737.774 944.875 735.772C945.819 733.77 947.17 732.216 948.927 731.109C950.701 730.002 952.793 729.449 955.202 729.449C958.164 729.449 960.622 730.336 962.575 732.11C964.544 733.884 965.594 736.187 965.724 739.019H961.452C961.322 737.31 960.671 735.91 959.499 734.82C958.343 733.713 956.911 733.16 955.202 733.16C952.907 733.16 951.125 733.99 949.855 735.65C948.602 737.294 947.975 739.678 947.975 742.803V743.658C947.975 746.701 948.602 749.045 949.855 750.689C951.108 752.333 952.899 753.155 955.226 753.155ZM969.606 742.901C969.606 740.313 970.111 737.986 971.12 735.918C972.145 733.851 973.561 732.256 975.368 731.133C977.191 730.01 979.266 729.449 981.593 729.449C985.19 729.449 988.096 730.694 990.309 733.184C992.539 735.674 993.654 738.986 993.654 743.121V743.438C993.654 746.01 993.158 748.321 992.165 750.372C991.188 752.406 989.78 753.993 987.941 755.132C986.118 756.272 984.019 756.841 981.642 756.841C978.061 756.841 975.156 755.596 972.926 753.106C970.713 750.616 969.606 747.32 969.606 743.218V742.901ZM974.147 743.438C974.147 746.368 974.823 748.72 976.173 750.494C977.541 752.268 979.364 753.155 981.642 753.155C983.937 753.155 985.76 752.26 987.111 750.469C988.462 748.663 989.137 746.14 989.137 742.901C989.137 740.004 988.446 737.66 987.062 735.87C985.695 734.063 983.872 733.16 981.593 733.16C979.364 733.16 977.565 734.047 976.198 735.821C974.831 737.595 974.147 740.134 974.147 743.438ZM1020.9 756.353H1016.38V745.074H1004.25V756.353H999.709V729.937H1004.25V741.387H1016.38V729.937H1020.9V756.353ZM1044.48 756.353C1044.22 755.832 1044.01 754.904 1043.85 753.57C1041.75 755.751 1039.24 756.841 1036.33 756.841C1033.73 756.841 1031.59 756.109 1029.91 754.644C1028.25 753.163 1027.42 751.291 1027.42 749.029C1027.42 746.278 1028.46 744.146 1030.54 742.632C1032.64 741.102 1035.59 740.337 1039.38 740.337H1043.78V738.262C1043.78 736.683 1043.3 735.43 1042.36 734.502C1041.42 733.558 1040.02 733.086 1038.19 733.086C1036.57 733.086 1035.22 733.493 1034.13 734.307C1033.04 735.121 1032.5 736.106 1032.5 737.261H1027.96C1027.96 735.943 1028.42 734.673 1029.35 733.453C1030.29 732.216 1031.56 731.239 1033.16 730.523C1034.77 729.807 1036.53 729.449 1038.45 729.449C1041.5 729.449 1043.88 730.214 1045.61 731.744C1047.33 733.257 1048.23 735.349 1048.29 738.018V750.176C1048.29 752.601 1048.6 754.53 1049.22 755.962V756.353H1044.48ZM1036.99 752.911C1038.4 752.911 1039.75 752.544 1041.02 751.812C1042.29 751.08 1043.21 750.127 1043.78 748.956V743.536H1040.24C1034.7 743.536 1031.94 745.155 1031.94 748.394C1031.94 749.81 1032.41 750.917 1033.35 751.714C1034.3 752.512 1035.51 752.911 1036.99 752.911ZM1076.44 744.878H1073.27V756.353H1068.75V744.878H1065.58L1058.18 756.353H1052.47L1061.92 742.681L1053.37 729.937H1058.84L1065.65 740.875H1068.75V729.937H1073.27V740.875H1076.34L1083.2 729.937H1088.67L1080.1 742.706L1089.55 756.353H1083.84L1076.44 744.878ZM1109.96 756.353C1109.7 755.832 1109.49 754.904 1109.33 753.57C1107.23 755.751 1104.72 756.841 1101.81 756.841C1099.2 756.841 1097.06 756.109 1095.39 754.644C1093.73 753.163 1092.9 751.291 1092.9 749.029C1092.9 746.278 1093.94 744.146 1096.02 742.632C1098.12 741.102 1101.07 740.337 1104.86 740.337H1109.25V738.262C1109.25 736.683 1108.78 735.43 1107.84 734.502C1106.89 733.558 1105.5 733.086 1103.66 733.086C1102.05 733.086 1100.7 733.493 1099.61 734.307C1098.52 735.121 1097.98 736.106 1097.98 737.261H1093.43C1093.43 735.943 1093.9 734.673 1094.83 733.453C1095.77 732.216 1097.04 731.239 1098.63 730.523C1100.25 729.807 1102.01 729.449 1103.93 729.449C1106.98 729.449 1109.36 730.214 1111.09 731.744C1112.81 733.257 1113.71 735.349 1113.77 738.018V750.176C1113.77 752.601 1114.08 754.53 1114.7 755.962V756.353H1109.96ZM1102.47 752.911C1103.88 752.911 1105.23 752.544 1106.5 751.812C1107.77 751.08 1108.68 750.127 1109.25 748.956V743.536H1105.71C1100.18 743.536 1097.41 745.155 1097.41 748.394C1097.41 749.81 1097.89 750.917 1098.83 751.714C1099.77 752.512 1100.99 752.911 1102.47 752.911Z" fill="white"/>
<path d="M199.381 659.645L188.66 676.329L181.51 658.455" stroke="white" stroke-width="3" stroke-miterlimit="10" stroke-linecap="round" stroke-linejoin="round"/>
<path d="M190.444 577.039C191.634 596.103 188.196 528.449 189.854 569.088C192.235 627.473 188.66 676.328 188.66 676.328" stroke="white" stroke-width="3" stroke-miterlimit="10" stroke-linecap="round" stroke-linejoin="round"/>
<path d="M69.3625 491.85V456.304H80.9836C84.8411 456.304 87.7382 457.101 89.675 458.696C91.6282 460.291 92.6047 462.651 92.6047 465.776C92.6047 467.436 92.1327 468.909 91.1887 470.195C90.2447 471.465 88.9589 472.449 87.3313 473.149C89.2519 473.686 90.7655 474.712 91.8723 476.225C92.9954 477.723 93.5569 479.513 93.5569 481.597C93.5569 484.787 92.5234 487.293 90.4563 489.116C88.3892 490.939 85.4677 491.85 81.6917 491.85H69.3625ZM74.05 475.224V488.017H81.7893C83.9703 488.017 85.6874 487.456 86.9407 486.333C88.2102 485.194 88.845 483.631 88.845 481.645C88.845 477.365 86.5175 475.224 81.8625 475.224H74.05ZM74.05 471.465H81.1301C83.1809 471.465 84.8167 470.952 86.0374 469.927C87.2743 468.901 87.8928 467.51 87.8928 465.752C87.8928 463.799 87.3232 462.383 86.1838 461.504C85.0445 460.609 83.3111 460.161 80.9836 460.161H74.05V471.465ZM110.769 492.339C107.188 492.339 104.275 491.167 102.029 488.823C99.7825 486.463 98.6594 483.314 98.6594 479.375V478.545C98.6594 475.924 99.1558 473.589 100.149 471.538C101.158 469.471 102.558 467.86 104.348 466.704C106.155 465.532 108.108 464.946 110.207 464.946C113.642 464.946 116.311 466.077 118.215 468.34C120.119 470.602 121.072 473.841 121.072 478.057V479.936H103.176C103.241 482.541 103.998 484.648 105.447 486.26C106.911 487.855 108.767 488.652 111.013 488.652C112.608 488.652 113.959 488.327 115.066 487.676C116.172 487.025 117.141 486.162 117.971 485.088L120.73 487.236C118.516 490.638 115.196 492.339 110.769 492.339ZM110.207 468.657C108.384 468.657 106.854 469.324 105.617 470.659C104.38 471.977 103.615 473.833 103.323 476.225H116.555V475.884C116.425 473.589 115.806 471.815 114.699 470.561C113.593 469.292 112.095 468.657 110.207 468.657ZM148.635 478.935C148.635 482.956 147.715 486.195 145.876 488.652C144.037 491.11 141.547 492.339 138.406 492.339C135.199 492.339 132.676 491.321 130.837 489.287V502.007H126.321V465.434H130.447L130.666 468.364C132.505 466.085 135.061 464.946 138.332 464.946C141.506 464.946 144.013 466.142 145.852 468.535C147.707 470.928 148.635 474.256 148.635 478.52V478.935ZM144.118 478.423C144.118 475.444 143.484 473.092 142.214 471.367C140.945 469.642 139.203 468.779 136.99 468.779C134.255 468.779 132.204 469.992 130.837 472.417V485.039C132.188 487.448 134.255 488.652 137.038 488.652C139.203 488.652 140.92 487.798 142.19 486.089C143.476 484.363 144.118 481.808 144.118 478.423ZM175.979 491.85H171.462V480.571H159.328V491.85H154.787V465.434H159.328V476.885H171.462V465.434H175.979V491.85ZM191.897 485.234L198.049 465.434H202.883L192.263 495.928C190.619 500.322 188.007 502.519 184.426 502.519L183.572 502.446L181.887 502.129V498.467L183.108 498.564C184.638 498.564 185.826 498.255 186.672 497.637C187.535 497.018 188.243 495.887 188.796 494.243L189.797 491.557L180.373 465.434H185.305L191.897 485.234ZM226.565 469.097H217.702V491.85H213.186V469.097H204.494V465.434H226.565V469.097ZM235.891 474.541H242.751C245.746 474.573 248.114 475.355 249.856 476.885C251.597 478.415 252.468 480.49 252.468 483.11C252.468 485.747 251.573 487.863 249.782 489.458C247.992 491.053 245.583 491.85 242.556 491.85H231.374V465.434H235.891V474.541ZM235.891 478.227V488.164H242.605C244.297 488.164 245.608 487.733 246.535 486.87C247.463 485.991 247.927 484.795 247.927 483.281C247.927 481.816 247.471 480.62 246.56 479.692C245.665 478.748 244.403 478.26 242.776 478.227H235.891ZM268.703 488.652C270.315 488.652 271.723 488.164 272.927 487.187C274.131 486.211 274.799 484.99 274.929 483.525H279.201C279.12 485.039 278.599 486.479 277.639 487.847C276.679 489.214 275.393 490.304 273.781 491.118C272.186 491.932 270.494 492.339 268.703 492.339C265.106 492.339 262.242 491.142 260.11 488.75C257.994 486.341 256.936 483.053 256.936 478.887V478.13C256.936 475.558 257.408 473.271 258.352 471.269C259.296 469.267 260.647 467.713 262.405 466.606C264.179 465.5 266.27 464.946 268.679 464.946C271.641 464.946 274.099 465.833 276.052 467.607C278.021 469.381 279.071 471.684 279.201 474.516H274.929C274.799 472.807 274.148 471.408 272.976 470.317C271.82 469.21 270.388 468.657 268.679 468.657C266.384 468.657 264.602 469.487 263.332 471.147C262.079 472.791 261.452 475.176 261.452 478.301V479.155C261.452 482.199 262.079 484.543 263.332 486.186C264.586 487.83 266.376 488.652 268.703 488.652ZM304.47 465.434V491.85H299.929V481.572H293.117L286.892 491.85H282.009L288.65 480.889C286.957 480.27 285.655 479.318 284.743 478.032C283.848 476.73 283.401 475.216 283.401 473.491C283.401 471.082 284.304 469.145 286.111 467.681C287.917 466.199 290.334 465.451 293.362 465.434H304.47ZM287.942 473.54C287.942 474.826 288.381 475.867 289.26 476.665C290.139 477.446 291.303 477.845 292.751 477.861H299.929V469.097H293.435C291.758 469.097 290.424 469.512 289.431 470.342C288.438 471.155 287.942 472.222 287.942 473.54ZM332.351 480.596H329.055V491.85H324.514V465.434H329.055V476.616H332.009L340.896 465.434H346.365L335.915 478.13L347.243 491.85H341.506L332.351 480.596ZM349.392 478.398C349.392 475.81 349.896 473.483 350.906 471.416C351.931 469.349 353.347 467.754 355.154 466.631C356.976 465.508 359.052 464.946 361.379 464.946C364.976 464.946 367.881 466.191 370.095 468.682C372.325 471.172 373.44 474.484 373.44 478.618V478.935C373.44 481.507 372.943 483.818 371.95 485.869C370.974 487.904 369.566 489.49 367.727 490.63C365.904 491.769 363.804 492.339 361.428 492.339C357.847 492.339 354.942 491.094 352.712 488.603C350.499 486.113 349.392 482.817 349.392 478.716V478.398ZM353.933 478.935C353.933 481.865 354.608 484.217 355.959 485.991C357.326 487.765 359.149 488.652 361.428 488.652C363.723 488.652 365.546 487.757 366.897 485.967C368.248 484.16 368.923 481.637 368.923 478.398C368.923 475.501 368.231 473.157 366.848 471.367C365.481 469.56 363.658 468.657 361.379 468.657C359.149 468.657 357.351 469.544 355.984 471.318C354.616 473.092 353.933 475.631 353.933 478.935ZM400.686 491.85H396.169V480.571H384.035V491.85H379.494V465.434H384.035V476.885H396.169V465.434H400.686V491.85ZM418.557 488.652C420.168 488.652 421.576 488.164 422.781 487.187C423.985 486.211 424.652 484.99 424.782 483.525H429.055C428.974 485.039 428.453 486.479 427.492 487.847C426.532 489.214 425.246 490.304 423.635 491.118C422.04 491.932 420.347 492.339 418.557 492.339C414.96 492.339 412.095 491.142 409.963 488.75C407.847 486.341 406.789 483.053 406.789 478.887V478.13C406.789 475.558 407.261 473.271 408.205 471.269C409.149 469.267 410.5 467.713 412.258 466.606C414.032 465.5 416.124 464.946 418.532 464.946C421.495 464.946 423.952 465.833 425.906 467.607C427.875 469.381 428.925 471.684 429.055 474.516H424.782C424.652 472.807 424.001 471.408 422.829 470.317C421.674 469.21 420.241 468.657 418.532 468.657C416.238 468.657 414.455 469.487 413.186 471.147C411.933 472.791 411.306 475.176 411.306 478.301V479.155C411.306 482.199 411.933 484.543 413.186 486.186C414.439 487.83 416.229 488.652 418.557 488.652ZM453.762 469.097H444.9V491.85H440.383V469.097H431.692V465.434H453.762V469.097ZM480.471 478.935C480.471 482.956 479.551 486.195 477.712 488.652C475.873 491.11 473.383 492.339 470.241 492.339C467.035 492.339 464.512 491.321 462.673 489.287V502.007H458.156V465.434H462.282L462.502 468.364C464.341 466.085 466.897 464.946 470.168 464.946C473.342 464.946 475.849 466.142 477.688 468.535C479.543 470.928 480.471 474.256 480.471 478.52V478.935ZM475.954 478.423C475.954 475.444 475.32 473.092 474.05 471.367C472.781 469.642 471.039 468.779 468.825 468.779C466.091 468.779 464.04 469.992 462.673 472.417V485.039C464.024 487.448 466.091 488.652 468.874 488.652C471.039 488.652 472.756 487.798 474.026 486.089C475.311 484.363 475.954 481.808 475.954 478.423ZM494.582 485.234L500.735 465.434H505.569L494.948 495.928C493.305 500.322 490.692 502.519 487.112 502.519L486.257 502.446L484.573 502.129V498.467L485.793 498.564C487.323 498.564 488.511 498.255 489.358 497.637C490.22 497.018 490.928 495.887 491.482 494.243L492.483 491.557L483.059 465.434H487.99L494.582 485.234ZM517.849 480.596H514.553V491.85H510.012V465.434H514.553V476.616H517.507L526.394 465.434H531.863L521.413 478.13L532.741 491.85H527.004L517.849 480.596ZM556.252 469.097H547.39V491.85H542.873V469.097H534.182V465.434H556.252V469.097ZM558.425 478.398C558.425 475.81 558.93 473.483 559.939 471.416C560.964 469.349 562.38 467.754 564.187 466.631C566.01 465.508 568.085 464.946 570.412 464.946C574.009 464.946 576.915 466.191 579.128 468.682C581.358 471.172 582.473 474.484 582.473 478.618V478.935C582.473 481.507 581.976 483.818 580.984 485.869C580.007 487.904 578.599 489.49 576.76 490.63C574.937 491.769 572.837 492.339 570.461 492.339C566.88 492.339 563.975 491.094 561.745 488.603C559.532 486.113 558.425 482.817 558.425 478.716V478.398ZM562.966 478.935C562.966 481.865 563.642 484.217 564.992 485.991C566.36 487.765 568.183 488.652 570.461 488.652C572.756 488.652 574.579 487.757 575.93 485.967C577.281 484.16 577.956 481.637 577.956 478.398C577.956 475.501 577.265 473.157 575.881 471.367C574.514 469.56 572.691 468.657 570.412 468.657C568.183 468.657 566.384 469.544 565.017 471.318C563.65 473.092 562.966 475.631 562.966 478.935ZM610.451 478.935C610.451 482.956 609.532 486.195 607.693 488.652C605.853 491.11 603.363 492.339 600.222 492.339C597.016 492.339 594.493 491.321 592.654 489.287V502.007H588.137V465.434H592.263L592.483 468.364C594.322 466.085 596.877 464.946 600.149 464.946C603.323 464.946 605.829 466.142 607.668 468.535C609.524 470.928 610.451 474.256 610.451 478.52V478.935ZM605.935 478.423C605.935 475.444 605.3 473.092 604.031 471.367C602.761 469.642 601.019 468.779 598.806 468.779C596.072 468.779 594.021 469.992 592.654 472.417V485.039C594.004 487.448 596.072 488.652 598.855 488.652C601.019 488.652 602.737 487.798 604.006 486.089C605.292 484.363 605.935 481.808 605.935 478.423ZM624.563 485.234L630.715 465.434H635.549L624.929 495.928C623.285 500.322 620.673 502.519 617.092 502.519L616.238 502.446L614.553 502.129V498.467L615.774 498.564C617.304 498.564 618.492 498.255 619.338 497.637C620.201 497.018 620.909 495.887 621.462 494.243L622.463 491.557L613.039 465.434H617.971L624.563 485.234Z" fill="white"/>
<path d="M1920.53 752.001C1919.66 754.63 1916.77 756.56 1916.77 756.56C1916.77 756.56 1918.31 758.673 1919.73 761.765" stroke="white" stroke-width="3" stroke-linecap="round" stroke-linejoin="round"/>
<path d="M1922.09 773.572C1922.01 787.064 1921.43 840.843 1921.43 844.56C1921.43 848.56 1920.77 852.559 1916.1 855.893C1911.43 859.227 1880.77 873.893 1877.43 875.893C1874.1 877.893 1866.1 877.894 1860.77 875.227C1855.43 872.56 1800.77 846.559 1794.77 843.893C1788.77 841.227 1788.1 834.559 1788.1 829.893C1788.1 825.227 1787.43 799.226 1788.1 795.893C1788.77 792.56 1790.1 783.227 1793.43 777.227C1796.77 771.227 1804.77 745.894 1805.43 743.227C1806.1 740.56 1810.77 736.56 1810.77 736.56C1810.77 736.56 1812.1 734.559 1811.43 731.893C1811.43 731.893 1810.1 638.559 1810.1 625.893C1810.1 613.227 1809.43 611.227 1818.77 605.227C1828.1 599.227 1842.1 591.227 1847.43 591.227C1852.77 591.227 1910.1 617.227 1914.1 620.56C1918.1 623.893 1920.77 627.893 1920.1 640.56C1919.51 651.744 1920.48 726.329 1920.72 745.936" stroke="white" stroke-width="3" stroke-linecap="round" stroke-linejoin="round" stroke-dasharray="12.17 12.17"/>
<path d="M1954.77 562.56L2194.1 682.56V877.894L1954.77 759.894V562.56Z" stroke="white" stroke-width="3" stroke-miterlimit="10" stroke-linecap="round" stroke-linejoin="round" stroke-dasharray="12 12"/>
<path d="M754.33 1134.98C754.434 1134.71 754.432 1134.44 754.316 1134.19C753.989 1133.48 752.868 1133.15 752.817 1133.14L752.192 1132.97L749.867 1132.15C745.969 1130.62 742.33 1127.54 742.079 1125.57C741.812 1123.48 741.924 1120.82 741.925 1120.78C741.925 1120.42 742.108 1115.31 742.361 1108.25C743.085 1088.07 744.43 1050.51 744.258 1047.23C744.028 1042.86 744.179 1028.8 744.181 1028.66C744.181 1028.53 744.181 1024.22 744.177 1018.42C744.226 1018.44 744.274 1018.46 744.327 1018.48C744.458 1018.52 744.592 1018.54 744.721 1018.54C745 1018.54 745.252 1018.46 745.38 1018.38C745.643 1018.21 745.877 1017.92 746.089 1017.5C746.173 1017.55 746.263 1017.57 746.362 1017.57C746.425 1017.57 746.491 1017.57 746.557 1017.55C747.124 1017.4 747.797 1016.61 748.233 1015.59C748.515 1014.93 748.75 1014.22 748.941 1013.49C749.005 1014 749.14 1014.36 749.383 1014.59C749.542 1014.73 749.735 1014.81 749.959 1014.81C750.014 1014.81 750.07 1014.8 750.128 1014.79C752.607 1014.42 751.147 1000.87 751.129 1000.74C750.369 994.9 750.632 991.701 750.807 989.583L750.85 989.037C750.933 987.961 751.033 986.744 751.142 985.42C751.913 976.003 753.205 960.242 751.854 950.345L751.785 949.84C751.085 944.721 751.072 944.623 751.163 938.081C751.218 934.137 751.169 930.135 751.042 926.117C751.076 925.257 751.099 924.7 751.099 924.7L750.924 922.791C750.565 914.594 749.838 906.377 748.758 898.483C748.709 898.121 748.677 897.889 748.668 897.797C748.566 896.802 748.443 896.2 748.438 896.178C748.321 895.584 748.096 895.087 747.743 894.642C747.214 892.807 746.106 891.343 744.764 890.721C743.839 890.293 742.456 889.849 740.853 889.333L738.87 888.693C736.463 887.916 733.735 887.034 730.94 886.028C730.935 886.026 730.414 885.848 730.414 884.465L730.413 879.815C736.113 878.709 739.922 875.627 741.755 870.585C743.035 867.066 743.12 863.722 743.117 861.348C743.555 861.288 744.824 861.06 746.314 860.25C747.338 859.693 748.341 858.041 747.793 855.216C747.24 852.371 744.367 851.785 743.508 851.672C743.483 849.239 743.327 847.608 743.324 847.577C743.318 847.514 743.286 847.461 743.24 847.424C744.139 846.096 744.706 844.514 744.836 842.841C745.05 840.084 744.259 837.715 742.659 835.981C742.658 835.976 742.66 835.973 742.66 835.968C742.436 834.257 742.136 832.61 741.765 831.058L741.101 828.796L741.323 828.851C741.342 828.855 741.361 828.859 741.38 828.859C741.484 828.859 741.579 828.788 741.606 828.681C741.637 828.556 741.561 828.429 741.437 828.398L740.949 828.276L740.698 827.418C740.108 825.749 739.411 824.232 738.626 822.906L738.596 822.853C738.033 821.905 736.745 819.733 735.603 818.9L735.996 817.983C736.047 817.865 735.992 817.729 735.873 817.677C735.755 817.626 735.618 817.681 735.567 817.8L735.225 818.599C734.468 817.982 732.025 816.146 728.986 815.486C725.414 814.709 719.966 815.226 719.751 815.247C719.728 815.249 718.918 815.284 717.66 815.465V814.937C717.66 814.807 717.556 814.704 717.427 814.704C717.298 814.704 717.193 814.808 717.193 814.937V815.536C715.213 815.849 712.361 816.499 709.649 817.819L709 817.387C708.893 817.316 708.748 817.344 708.677 817.452C708.606 817.558 708.635 817.704 708.741 817.775L709.17 818.06C708.53 818.391 707.902 818.762 707.3 819.176C704.806 820.895 703.021 822.94 701.767 825.162L701.209 824.844C701.097 824.781 700.954 824.82 700.891 824.931C700.827 825.043 700.866 825.186 700.977 825.248L701.547 825.574C700.04 828.42 699.37 831.531 699.197 834.612H698.916C698.786 834.612 698.683 834.716 698.683 834.845C698.683 834.974 698.787 835.078 698.916 835.078H699.177C699.024 838.876 699.59 842.593 700.226 845.664L700.205 845.66C700.079 845.636 699.956 845.717 699.931 845.843C699.906 845.97 699.988 846.093 700.115 846.117L700.329 846.161C700.562 847.253 700.8 848.256 701.009 849.14C701.168 849.811 701.311 850.416 701.427 850.953C701.424 850.955 701.421 850.953 701.418 850.955C701.374 850.968 696.935 852.34 696.935 856.894C696.935 861.009 701.685 861.586 702.746 861.665C703.638 865.348 705.067 869.465 706.698 871.806C707.496 872.952 711.57 878.232 719.634 879.807C719.565 881.143 719.451 883.503 719.451 884.389C719.451 885.457 719.425 886.119 718.951 886.257C718.851 886.272 708.92 887.679 704.514 889.302C700.107 890.925 699.544 892.576 698.838 894.842C698.641 894.887 698.526 894.944 698.504 894.956C698.452 894.982 698.412 895.028 698.393 895.083C697.196 898.437 689.703 935.186 689.703 951.429C689.703 962.324 691.006 980.385 692.238 993.797C692.214 993.832 692.195 993.87 692.191 993.914C692.188 993.966 691.803 999.088 691.803 1005.09C691.803 1008.21 691.155 1012.26 690.732 1013.24C690.221 1014.44 689.366 1015.55 689.049 1015.59C688.369 1015.69 687.812 1016.24 687.693 1016.95C687.582 1017.61 687.896 1018.22 688.509 1018.52C688.725 1018.63 688.955 1018.68 689.196 1018.68C690.252 1018.68 691.512 1017.66 692.7 1015.79C693.123 1015.13 693.496 1014.09 693.797 1013.06C693.611 1014.76 693.174 1016.01 692.486 1016.75C692.339 1016.92 692.161 1017.08 691.977 1017.25C691.294 1017.89 690.52 1018.61 690.889 1019.42C691.065 1019.81 691.305 1020.05 691.605 1020.15C691.7 1020.18 691.8 1020.19 691.904 1020.19C692.161 1020.19 692.448 1020.1 692.773 1019.92C692.995 1019.79 693.313 1019.59 693.683 1019.31C693.734 1019.65 693.915 1019.93 694.204 1020.1C694.405 1020.22 694.638 1020.28 694.892 1020.28C695.335 1020.28 695.843 1020.1 696.365 1019.75C696.694 1019.53 697.105 1019.09 697.507 1018.51C697.615 1018.64 697.763 1018.76 697.962 1018.81C698.043 1018.84 698.128 1018.85 698.216 1018.85C698.576 1018.85 698.982 1018.65 699.425 1018.26C700.399 1017.39 701.046 1015.86 701.39 1013.61C701.576 1013.71 701.913 1013.85 702.251 1013.85C702.407 1013.85 702.563 1013.82 702.703 1013.74C703.004 1013.57 703.157 1013.22 703.157 1012.72C703.157 1011.15 701.659 1005.14 701.595 1004.88C701.585 1004.84 701.561 1004.81 701.532 1004.78C701.464 1003.98 701.379 1003.28 701.287 1002.72C700.981 1000.89 700.439 994.139 700.435 994.09L700.434 992.961C700.434 990.401 700.609 986.768 700.81 982.561C701.258 973.209 701.873 960.406 700.903 950.507C701.18 949.006 702.06 943.751 703.092 937.53C703.481 942.232 703.832 946.625 704.078 949.7C704.245 951.803 704.372 953.382 704.439 954.172C704.539 955.355 704.378 957.318 704.209 959.398C703.885 963.363 703.719 966.142 704.336 967.218C704.134 967.408 703.969 967.628 703.839 967.893C703.835 967.902 703.836 967.91 703.833 967.917C703.83 967.924 703.825 967.931 703.822 967.939C702.594 972.851 702.322 980.734 703.994 985.418C703.996 985.423 704.001 985.425 704.003 985.43L704.826 1020.43C704.886 1021.35 705.093 1032.35 705.425 1052.24C705.447 1053.55 705.572 1055.95 705.704 1058.48C705.835 1060.99 705.97 1063.58 705.993 1064.98C706.041 1067.88 706.342 1083.38 706.616 1087.01C707.691 1101.23 708.32 1122.64 708.326 1122.85C708.372 1126.27 707.729 1128.06 707.163 1129.63C706.794 1130.66 706.446 1131.62 706.382 1132.86C706.32 1134.07 706.757 1135.52 710.509 1136.21C710.513 1136.21 710.517 1136.21 710.521 1136.21C711.828 1136.56 712.858 1137.09 713.855 1137.61C714.826 1138.11 715.744 1138.59 716.76 1138.78C718.797 1139.17 720.18 1139.18 720.583 1139.18C721.044 1139.71 721.815 1140 722.437 1140C722.612 1140 722.776 1139.98 722.918 1139.93C723.096 1139.87 723.235 1139.78 723.334 1139.65C723.366 1139.68 723.404 1139.71 723.45 1139.72C723.583 1139.74 723.717 1139.75 723.849 1139.75C724.371 1139.75 724.868 1139.58 725.173 1139.37C725.261 1139.3 725.333 1139.24 725.394 1139.17C725.73 1139.31 726.053 1139.38 726.351 1139.38C726.868 1139.38 727.302 1139.17 727.606 1138.77C727.615 1138.78 727.622 1138.78 727.63 1138.78C727.701 1138.8 727.99 1138.85 728.342 1138.85C728.877 1138.85 729.558 1138.73 729.833 1138.19C729.866 1138.13 729.888 1138.06 729.905 1138C729.92 1138 729.932 1138.01 729.948 1138.01C729.976 1138.01 730.005 1138 730.032 1137.99C731.246 1137.53 731.635 1136.49 731.482 1135.66C731.327 1134.83 730.68 1134.27 729.87 1134.27C729.869 1134.27 729.868 1134.27 729.868 1134.27C726.472 1134.27 724.884 1133.45 723.834 1132.9C718.433 1130.09 717.799 1128.67 716.88 1126.52L716.804 1125.01C716.641 1120.67 719.797 1058.26 719.837 1057.84C721.19 1043.84 724.098 1000.6 724.363 994.409C724.83 994.532 725.801 994.742 727.024 994.742C727.63 994.742 728.3 994.687 728.998 994.547C728.621 1001.4 729.316 1020.5 729.99 1038.98C730.327 1048.23 730.676 1057.78 730.882 1065.61L730.978 1069.36C731.225 1079.16 731.479 1089.29 732.516 1102.76C733.072 1109.98 733.795 1120.17 733.767 1121.29C733.765 1121.3 733.759 1121.31 733.759 1121.33C733.805 1124.75 733.163 1126.54 732.595 1128.11C732.226 1129.14 731.878 1130.11 731.815 1131.35C731.773 1132.17 731.968 1133.11 733.302 1133.85C733.634 1134.08 734.038 1134.25 734.546 1134.36C734.953 1134.48 735.423 1134.59 735.956 1134.69C735.965 1134.69 735.973 1134.7 735.982 1134.7C736.033 1134.71 736.081 1134.72 736.132 1134.72C736.237 1134.74 736.335 1134.76 736.445 1134.78C736.457 1134.78 736.469 1134.78 736.482 1134.78C736.489 1134.78 736.495 1134.78 736.503 1134.78C739.628 1135.25 741.7 1135.97 743.971 1136.96C745.052 1137.43 745.98 1137.56 746.672 1137.56C747.474 1137.56 747.959 1137.38 747.996 1137.37C748.023 1137.36 748.045 1137.35 748.066 1137.33C748.504 1137.64 749.359 1138.16 750.236 1138.2C750.311 1138.21 750.384 1138.21 750.456 1138.21C751.346 1138.21 752.062 1137.93 752.49 1137.41C752.646 1137.22 752.751 1137 752.807 1136.78C752.902 1136.73 753.058 1136.71 753.224 1136.69C753.682 1136.65 754.448 1136.57 754.448 1135.52C754.448 1135.31 754.406 1135.13 754.33 1134.98ZM748.512 900.222L748.413 899.455C748.413 899.455 748.413 899.445 748.414 899.442C748.448 899.702 748.479 899.962 748.512 900.222Z" stroke="white" stroke-width="3" stroke-miterlimit="10" stroke-linecap="round" stroke-linejoin="round"/>
<path d="M899.583 1134.98C899.687 1134.71 899.685 1134.44 899.569 1134.19C899.242 1133.48 898.121 1133.15 898.07 1133.14L897.445 1132.97L895.12 1132.15C891.222 1130.62 887.583 1127.54 887.332 1125.57C887.065 1123.48 887.177 1120.82 887.178 1120.78C887.178 1120.42 887.361 1115.31 887.614 1108.25C888.338 1088.07 889.683 1050.51 889.511 1047.23C889.281 1042.86 889.432 1028.8 889.434 1028.66C889.434 1028.53 889.434 1024.22 889.43 1018.42C889.479 1018.44 889.527 1018.46 889.58 1018.48C889.711 1018.52 889.845 1018.54 889.974 1018.54C890.253 1018.54 890.505 1018.46 890.633 1018.38C890.896 1018.21 891.13 1017.92 891.342 1017.5C891.426 1017.55 891.516 1017.57 891.615 1017.57C891.678 1017.57 891.744 1017.57 891.81 1017.55C892.377 1017.4 893.05 1016.61 893.486 1015.59C893.768 1014.93 894.003 1014.22 894.194 1013.49C894.258 1014 894.393 1014.36 894.636 1014.59C894.795 1014.73 894.988 1014.81 895.212 1014.81C895.267 1014.81 895.323 1014.8 895.381 1014.79C897.86 1014.42 896.4 1000.87 896.382 1000.74C895.622 994.9 895.885 991.701 896.06 989.583L896.103 989.037C896.186 987.961 896.286 986.744 896.395 985.42C897.166 976.003 898.458 960.242 897.107 950.345L897.038 949.84C896.338 944.721 896.325 944.623 896.416 938.081C896.471 934.137 896.422 930.135 896.295 926.117C896.329 925.257 896.352 924.7 896.352 924.7L896.177 922.791C895.818 914.594 895.091 906.377 894.011 898.483C893.962 898.121 893.93 897.889 893.921 897.797C893.819 896.802 893.696 896.2 893.691 896.178C893.574 895.584 893.349 895.087 892.996 894.642C892.467 892.807 891.359 891.343 890.017 890.721C889.092 890.293 887.709 889.849 886.106 889.333L884.123 888.693C881.716 887.916 878.988 887.034 876.193 886.028C876.188 886.026 875.667 885.848 875.667 884.465L875.666 879.815C881.366 878.709 885.175 875.627 887.008 870.585C888.288 867.066 888.373 863.722 888.37 861.348C888.808 861.288 890.077 861.06 891.567 860.25C892.591 859.693 893.594 858.041 893.046 855.216C892.493 852.371 889.62 851.785 888.761 851.672C888.736 849.239 888.58 847.608 888.577 847.577C888.571 847.514 888.539 847.461 888.493 847.424C889.392 846.096 889.959 844.514 890.089 842.841C890.303 840.084 889.512 837.715 887.912 835.981C887.911 835.976 887.913 835.973 887.913 835.968C887.689 834.257 887.389 832.61 887.018 831.058L886.354 828.796L886.576 828.851C886.595 828.855 886.614 828.859 886.633 828.859C886.737 828.859 886.832 828.788 886.859 828.681C886.89 828.556 886.814 828.429 886.69 828.398L886.202 828.276L885.951 827.418C885.361 825.749 884.664 824.232 883.879 822.906L883.849 822.853C883.286 821.905 881.998 819.733 880.856 818.9L881.249 817.983C881.3 817.865 881.245 817.729 881.126 817.677C881.008 817.626 880.871 817.681 880.82 817.8L880.478 818.599C879.721 817.982 877.278 816.146 874.239 815.486C870.667 814.709 865.219 815.226 865.004 815.247C864.981 815.249 864.171 815.284 862.913 815.465V814.937C862.913 814.807 862.809 814.704 862.68 814.704C862.551 814.704 862.446 814.808 862.446 814.937V815.536C860.466 815.849 857.614 816.499 854.902 817.819L854.253 817.387C854.146 817.316 854.001 817.344 853.93 817.452C853.859 817.558 853.888 817.704 853.994 817.775L854.423 818.06C853.783 818.391 853.155 818.762 852.553 819.176C850.059 820.895 848.274 822.94 847.02 825.162L846.462 824.844C846.35 824.781 846.207 824.82 846.144 824.931C846.08 825.043 846.119 825.186 846.23 825.248L846.8 825.574C845.293 828.42 844.623 831.531 844.45 834.612H844.169C844.039 834.612 843.936 834.716 843.936 834.845C843.936 834.974 844.04 835.078 844.169 835.078H844.43C844.277 838.876 844.843 842.593 845.479 845.664L845.458 845.66C845.332 845.636 845.209 845.717 845.184 845.843C845.159 845.97 845.241 846.093 845.368 846.117L845.582 846.161C845.815 847.253 846.053 848.256 846.262 849.14C846.421 849.811 846.564 850.416 846.68 850.953C846.677 850.955 846.674 850.953 846.671 850.955C846.627 850.968 842.188 852.34 842.188 856.894C842.188 861.009 846.938 861.586 847.999 861.665C848.891 865.348 850.32 869.465 851.951 871.806C852.749 872.952 856.823 878.232 864.887 879.807C864.818 881.143 864.704 883.503 864.704 884.389C864.704 885.457 864.678 886.119 864.204 886.257C864.104 886.272 854.173 887.679 849.767 889.302C845.36 890.925 844.797 892.576 844.091 894.842C843.894 894.887 843.779 894.944 843.757 894.956C843.705 894.982 843.665 895.028 843.646 895.083C842.449 898.437 834.956 935.186 834.956 951.429C834.956 962.324 836.259 980.385 837.491 993.797C837.467 993.832 837.448 993.87 837.444 993.914C837.441 993.966 837.056 999.088 837.056 1005.09C837.056 1008.21 836.408 1012.26 835.985 1013.24C835.474 1014.44 834.619 1015.55 834.302 1015.59C833.622 1015.69 833.065 1016.24 832.946 1016.95C832.835 1017.61 833.149 1018.22 833.762 1018.52C833.978 1018.63 834.208 1018.68 834.449 1018.68C835.505 1018.68 836.765 1017.66 837.953 1015.79C838.376 1015.13 838.749 1014.09 839.05 1013.06C838.864 1014.76 838.427 1016.01 837.739 1016.75C837.592 1016.92 837.414 1017.08 837.23 1017.25C836.547 1017.89 835.773 1018.61 836.142 1019.42C836.318 1019.81 836.558 1020.05 836.858 1020.15C836.953 1020.18 837.053 1020.19 837.157 1020.19C837.414 1020.19 837.701 1020.1 838.026 1019.92C838.248 1019.79 838.566 1019.59 838.936 1019.31C838.987 1019.65 839.168 1019.93 839.457 1020.1C839.658 1020.22 839.891 1020.28 840.145 1020.28C840.588 1020.28 841.096 1020.1 841.618 1019.75C841.947 1019.53 842.358 1019.09 842.76 1018.51C842.868 1018.64 843.016 1018.76 843.215 1018.81C843.296 1018.84 843.381 1018.85 843.469 1018.85C843.829 1018.85 844.235 1018.65 844.678 1018.26C845.652 1017.39 846.299 1015.86 846.643 1013.61C846.829 1013.71 847.166 1013.85 847.504 1013.85C847.66 1013.85 847.816 1013.82 847.956 1013.74C848.257 1013.57 848.41 1013.22 848.41 1012.72C848.41 1011.15 846.912 1005.14 846.848 1004.88C846.838 1004.84 846.814 1004.81 846.785 1004.78C846.717 1003.98 846.632 1003.28 846.54 1002.72C846.234 1000.89 845.692 994.139 845.688 994.09L845.687 992.961C845.687 990.401 845.862 986.768 846.063 982.561C846.511 973.209 847.126 960.406 846.156 950.507C846.433 949.006 847.313 943.751 848.345 937.53C848.734 942.232 849.085 946.625 849.331 949.7C849.498 951.803 849.625 953.382 849.692 954.172C849.792 955.355 849.631 957.318 849.462 959.398C849.138 963.363 848.972 966.142 849.589 967.218C849.387 967.408 849.222 967.628 849.092 967.893C849.088 967.902 849.089 967.91 849.086 967.917C849.083 967.924 849.078 967.931 849.075 967.939C847.847 972.851 847.575 980.734 849.247 985.418C849.249 985.423 849.254 985.425 849.256 985.43L850.079 1020.43C850.139 1021.35 850.346 1032.35 850.678 1052.24C850.7 1053.55 850.825 1055.95 850.957 1058.48C851.088 1060.99 851.223 1063.58 851.246 1064.98C851.294 1067.88 851.595 1083.38 851.869 1087.01C852.944 1101.23 853.573 1122.64 853.579 1122.85C853.625 1126.27 852.982 1128.06 852.416 1129.63C852.047 1130.66 851.699 1131.62 851.635 1132.86C851.573 1134.07 852.01 1135.52 855.762 1136.21C855.766 1136.21 855.77 1136.21 855.774 1136.21C857.081 1136.56 858.111 1137.09 859.108 1137.61C860.079 1138.11 860.997 1138.59 862.013 1138.78C864.05 1139.17 865.433 1139.18 865.836 1139.18C866.297 1139.71 867.068 1140 867.69 1140C867.865 1140 868.029 1139.98 868.171 1139.93C868.349 1139.87 868.488 1139.78 868.587 1139.65C868.619 1139.68 868.657 1139.71 868.703 1139.72C868.836 1139.74 868.97 1139.75 869.102 1139.75C869.624 1139.75 870.121 1139.58 870.426 1139.37C870.514 1139.3 870.586 1139.24 870.647 1139.17C870.983 1139.31 871.306 1139.38 871.604 1139.38C872.121 1139.38 872.555 1139.17 872.859 1138.77C872.868 1138.78 872.875 1138.78 872.883 1138.78C872.954 1138.8 873.243 1138.85 873.595 1138.85C874.13 1138.85 874.811 1138.73 875.086 1138.19C875.119 1138.13 875.141 1138.06 875.158 1138C875.173 1138 875.185 1138.01 875.201 1138.01C875.229 1138.01 875.258 1138 875.285 1137.99C876.499 1137.53 876.888 1136.49 876.735 1135.66C876.58 1134.83 875.933 1134.27 875.123 1134.27C875.122 1134.27 875.121 1134.27 875.121 1134.27C871.725 1134.27 870.137 1133.45 869.087 1132.9C863.686 1130.09 863.052 1128.67 862.133 1126.52L862.057 1125.01C861.894 1120.67 865.05 1058.26 865.09 1057.84C866.443 1043.84 869.351 1000.6 869.616 994.409C870.083 994.532 871.054 994.742 872.277 994.742C872.883 994.742 873.553 994.687 874.251 994.547C873.874 1001.4 874.569 1020.5 875.243 1038.98C875.58 1048.23 875.929 1057.78 876.135 1065.61L876.231 1069.36C876.478 1079.16 876.732 1089.29 877.769 1102.76C878.325 1109.98 879.048 1120.17 879.02 1121.29C879.018 1121.3 879.012 1121.31 879.012 1121.33C879.058 1124.75 878.416 1126.54 877.848 1128.11C877.479 1129.14 877.131 1130.11 877.068 1131.35C877.026 1132.17 877.221 1133.11 878.555 1133.85C878.887 1134.08 879.291 1134.25 879.799 1134.36C880.206 1134.48 880.676 1134.59 881.209 1134.69C881.218 1134.69 881.226 1134.7 881.235 1134.7C881.286 1134.71 881.334 1134.72 881.385 1134.72C881.49 1134.74 881.588 1134.76 881.698 1134.78C881.71 1134.78 881.722 1134.78 881.735 1134.78C881.742 1134.78 881.748 1134.78 881.756 1134.78C884.881 1135.25 886.953 1135.97 889.224 1136.96C890.305 1137.43 891.233 1137.56 891.925 1137.56C892.727 1137.56 893.212 1137.38 893.249 1137.37C893.276 1137.36 893.298 1137.35 893.319 1137.33C893.757 1137.64 894.612 1138.16 895.489 1138.2C895.564 1138.21 895.637 1138.21 895.709 1138.21C896.599 1138.21 897.315 1137.93 897.743 1137.41C897.899 1137.22 898.004 1137 898.06 1136.78C898.155 1136.73 898.311 1136.71 898.477 1136.69C898.935 1136.65 899.701 1136.57 899.701 1135.52C899.701 1135.31 899.658 1135.13 899.583 1134.98ZM893.764 900.222L893.665 899.455C893.665 899.455 893.665 899.445 893.666 899.442C893.7 899.702 893.731 899.962 893.764 900.222Z" stroke="white" stroke-width="3" stroke-miterlimit="10" stroke-linecap="round" stroke-linejoin="round" stroke-dasharray="12 12"/>
<path d="M2179.92 251.538C2178.84 250.461 2178.84 246.618 2179 244.157C2179.15 241.698 2179.77 239.852 2179.46 237.854C2179.15 235.855 2179 232.934 2177.61 231.396C2176.23 229.859 2177.15 228.475 2177.77 227.091C2178.38 225.707 2177.46 221.557 2177.46 221.557C2177.46 221.557 2175.61 218.943 2175.77 218.02C2175.92 217.098 2176.69 209.718 2176.38 207.719C2176.08 205.721 2173.61 200.647 2172.54 196.957C2171.46 193.267 2172.54 191.114 2172.08 188.962C2171.62 186.81 2167.93 182.658 2167.93 182.658C2167.93 182.658 2167.47 179.122 2167.47 177.585C2167.47 176.047 2165.78 174.356 2165.16 173.895C2164.54 173.434 2162.7 169.898 2162.7 168.053C2162.7 166.208 2162.24 162.979 2159.47 159.289C2156.7 155.599 2149.63 155.292 2147.79 154.523C2145.94 153.753 2144.86 150.525 2142.87 148.373C2140.87 146.221 2134.1 139.609 2133.18 138.687C2132.26 137.764 2129.18 138.072 2128.26 137.764C2127.34 137.456 2126.41 134.996 2123.95 134.689C2121.49 134.382 2120.88 136.227 2120.42 136.074C2119.96 135.92 2115.65 134.228 2113.35 134.228C2111.04 134.228 2107.66 134.843 2103.97 135.304C2100.28 135.765 2097.05 133.92 2096.89 133.459C2096.74 132.998 2093.82 132.844 2091.67 134.228C2089.51 135.612 2088.59 136.996 2086.75 137.611C2084.9 138.226 2084.75 136.841 2082.75 137.303C2080.75 137.764 2078.75 140.992 2077.37 144.375C2075.98 147.757 2073.37 148.68 2073.37 148.68L2071.68 148.219C2071.68 148.219 2070.38 151.105 2069.56 153.565C2068.51 155.958 2065.27 158.655 2062.61 162.211C2062.06 162.945 2061.31 163.817 2060.46 164.753C2060.19 164.852 2059.93 165.02 2059.69 165.285C2059.39 165.618 2059.13 166.025 2058.88 166.466C2057.14 168.309 2055.25 170.24 2053.82 171.823C2053.23 172.172 2052.9 172.576 2052.15 173.8C2051.84 174.22 2051.62 174.569 2051.54 174.818C2051.29 175.574 2050.99 177.774 2050.72 180.362C2049.53 181.985 2046.93 183.805 2046.16 185.734C2045.24 188.04 2046.47 192.653 2045.24 195.112L2044.62 196.958C2044.62 196.958 2044.49 196.996 2044.28 197.086C2044.07 196.798 2043.88 196.719 2043.75 197.111C2043.72 197.226 2043.66 197.343 2043.6 197.462C2042.98 197.875 2042.26 198.58 2042.01 199.718C2041.82 200.069 2041.7 200.43 2041.7 200.802C2041.7 202.185 2041.35 205.875 2041.35 205.875C2041.35 205.875 2039.64 207.566 2038.96 208.796C2038.27 210.026 2039.47 212.794 2039.98 214.792C2040.5 216.791 2040.15 217.867 2039.64 218.482C2039.13 219.096 2038.61 221.557 2038.79 222.787C2038.94 223.901 2038.68 225.641 2040.03 226.304C2040.34 227.181 2040.66 228.054 2040.92 228.782C2040.17 228.89 2040.16 230.71 2040.16 231.859C2040.16 232.705 2040.16 233.333 2040.16 233.942C2039.94 234.546 2039.75 235.116 2039.7 235.548C2039.55 236.932 2039.55 241.083 2039.4 242.467C2039.24 243.851 2038.47 244.004 2037.4 245.849C2036.32 247.695 2037.4 252.153 2038.01 255.689C2038.5 258.498 2039.47 259.076 2039.85 259.81C2039.81 260.64 2039.4 262.384 2039.4 263.992C2039.4 264.752 2039.52 265.418 2039.75 265.922C2039.65 267.998 2039.55 270.053 2039.55 270.91C2039.55 271.494 2039.7 272.125 2039.91 272.767C2039.92 273.609 2040.08 274.642 2040.16 275.676C2040.24 276.632 2040.66 277.095 2041.09 277.521C2041.09 278.806 2041.11 279.815 2041.24 281.365C2041.32 282.3 2041.71 283.194 2042.08 284.01C2042.14 284.249 2042.22 284.494 2042.32 284.748C2042.94 286.358 2042.36 287.969 2042.35 289.58C2042.23 290.733 2042.19 291.91 2042.47 292.742C2042.92 294.096 2043.7 296.693 2044.03 298.405C2043.79 299.205 2043.51 299.968 2043.7 301.198C2043.76 301.599 2043.86 301.95 2043.97 302.269C2043.98 303.22 2044.1 304.326 2044.47 305.502C2044.79 306.539 2045.31 307.685 2045.83 308.768C2045.76 309.058 2045.7 309.308 2045.7 309.499C2045.7 310.269 2046.47 313.497 2047.24 314.727C2048.01 315.957 2049.7 317.648 2050.46 318.11C2050.66 318.229 2050.93 318.42 2051.23 318.623C2051.62 320.117 2051.95 322.517 2052.77 323.338C2053.69 324.26 2057.54 326.259 2057.84 326.874C2058.15 327.488 2060.3 332.102 2060.76 332.716C2061.23 333.331 2063.38 337.636 2063.38 338.712C2063.38 339.788 2064.15 342.863 2065.53 344.861C2066.91 346.86 2070.3 346.399 2071.22 347.475C2072.14 348.551 2071.83 349.935 2074.45 350.396C2074.92 351.148 2076.71 351.728 2078.46 352.206C2079.51 352.851 2080.62 353.543 2081.98 354.087C2085.06 355.316 2086.75 357.162 2087.83 357.316C2088.9 357.47 2094.59 360.391 2096.59 361.313C2097.27 361.751 2097.85 361.961 2098.42 362.023C2099.66 362.401 2100.87 362.544 2102.43 362.544C2104.74 362.544 2110.89 361.468 2112.58 361.929C2114.27 362.39 2116.58 363.005 2118.11 362.698C2119.65 362.391 2131.03 360.699 2134.26 360.085C2135.3 359.885 2136.66 359.249 2138.04 358.445C2138.31 358.379 2138.58 358.31 2138.87 358.24C2144.03 356.949 2144.51 354.188 2145.05 352.949C2145.74 351.876 2146.25 350.553 2146.25 350.553C2146.25 350.553 2148.09 347.785 2148.4 347.017C2148.71 346.249 2149.94 343.02 2150.55 341.329C2151.17 339.638 2154.09 336.255 2155.01 335.179C2155.93 334.103 2157.78 327.799 2158.7 327.031C2159.62 326.262 2161.47 323.957 2161.93 321.958C2162.39 319.959 2164.85 318.422 2166.39 316.423C2167.93 314.424 2171 308.428 2171 305.969C2171 303.508 2172.38 302.432 2173.31 301.202C2174.23 299.973 2174.23 296.897 2174.23 295.206C2174.23 293.515 2176.38 293.515 2176.69 290.901C2177 288.287 2177.15 284.905 2177.15 284.905C2177.15 284.905 2177.92 283.367 2177.92 282.137C2177.92 280.907 2179.3 278.447 2180.07 277.832C2180.84 277.217 2181.15 276.448 2181.15 276.448C2181.15 276.448 2181.15 276.448 2181.46 274.296C2181.76 272.144 2180.38 267.992 2180.38 265.071C2180.38 262.149 2181.61 256.153 2181.92 254.616C2182.23 253.079 2181 252.615 2179.92 251.538Z" stroke="white" stroke-width="3" stroke-miterlimit="10" stroke-linecap="round" stroke-linejoin="round" stroke-dasharray="12 12"/>
<path d="M2164.39 321.185C2164.39 321.185 2167.16 322.107 2167.77 319.033C2168.39 315.957 2165.01 320.262 2164.39 321.185Z" stroke="white" stroke-width="3" stroke-miterlimit="10" stroke-linecap="round" stroke-linejoin="round" stroke-dasharray="12 12"/>
<path d="M222.768 748.559V1011.23L137.435 969.226V704.559L222.768 748.559Z" stroke="white" stroke-width="3" stroke-miterlimit="10" stroke-linecap="round" stroke-linejoin="round" stroke-dasharray="12 12"/>
</g>
<defs>
<clipPath id="clip0">
<rect width="2640" height="1625" fill="white"/>
</clipPath>
</defs>
</svg>
