<?xml version="1.0" encoding="utf-8"?>
<!-- Generator: Adobe Illustrator 16.0.0, SVG Export Plug-In . SVG Version: 6.00 Build 0)  -->
<!DOCTYPE svg PUBLIC "-//W3C//DTD SVG 1.1//EN" "http://www.w3.org/Graphics/SVG/1.1/DTD/svg11.dtd">
<svg version="1.1" id="Layer_1" xmlns="http://www.w3.org/2000/svg" xmlns:xlink="http://www.w3.org/1999/xlink" x="0px" y="0px"
	 width="2640px" height="1625px" viewBox="-923.935 -618.226 2640 1625" enable-background="new -923.935 -618.226 2640 1625"
	 xml:space="preserve">
<rect x="-923.935" y="-618.226" opacity="0.7" fill="#231F20" width="2640" height="1625"/>
<g>
	
		<polyline fill="none" stroke="#FFFFFF" stroke-width="3" stroke-linecap="round" stroke-linejoin="round" stroke-miterlimit="10" points="
		830.492,56.917 847.176,67.638 829.302,74.787 	"/>
	<path fill="none" stroke="#FFFFFF" stroke-width="3" stroke-linecap="round" stroke-linejoin="round" stroke-miterlimit="10" d="
		M747.887,65.854c19.064-1.19-48.59,2.248-7.951,0.59c58.385-2.381,107.24,1.194,107.24,1.194"/>
</g>
<g>
	
		<polyline fill="none" stroke="#FFFFFF" stroke-width="3" stroke-linecap="round" stroke-linejoin="round" stroke-miterlimit="10" points="
		1074.98,-379.561 1091.662,-368.84 1073.789,-361.69 	"/>
	<path fill="none" stroke="#FFFFFF" stroke-width="3" stroke-linecap="round" stroke-linejoin="round" stroke-miterlimit="10" d="
		M992.373-370.624c19.066-1.19-48.588,2.248-7.951,0.59c58.385-2.381,107.24,1.194,107.24,1.194"/>
</g>
<g>
	
		<polyline fill="none" stroke="#FFFFFF" stroke-width="3" stroke-linecap="round" stroke-linejoin="round" stroke-miterlimit="10" points="
		1165.351,-38.078 1154.63,-21.395 1147.481,-39.269 	"/>
	<path fill="none" stroke="#FFFFFF" stroke-width="3" stroke-linecap="round" stroke-linejoin="round" stroke-miterlimit="10" d="
		M1156.414-120.684c1.19,19.064-2.248-48.59-0.59-7.951c2.381,58.385-1.194,107.24-1.194,107.24"/>
</g>
<g>
	
		<circle fill="none" stroke="#FFFFFF" stroke-width="3" stroke-linecap="round" stroke-linejoin="round" stroke-miterlimit="10" cx="1645.501" cy="939.074" r="22"/>
	<g>
		<path fill="#FFFFFF" d="M1645.482,925.627c4.763,0,7.772,3.199,8.153,6.973c0.343,3.16-1.296,6.818-5.297,8.418V943
			c0,3.049-4.838,3.238-4.838,0c0-3.658,0-1.258,0-3.277c0-1.369,0.724-2.057,1.639-2.4c2.324-0.838,3.695-1.713,3.695-4
			c0-1.676-1.676-2.971-3.353-2.971c-1.601,0-2.972,0.456-4.001,2.171c-1.6,2.363-5.258,0-4-2.514
			C1638.853,927.95,1640.528,925.627,1645.482,925.627z M1643.5,949.667c0-3.085,4.99-3.049,4.99,0v0.647c0,3.049-4.99,3.087-4.99,0
			V949.667z"/>
	</g>
</g>
<g>
	
		<line fill="none" stroke="#FFFFFF" stroke-width="3" stroke-linecap="round" stroke-linejoin="round" stroke-miterlimit="10" x1="1634.665" y1="-573.498" x2="1678.665" y2="-529.498"/>
	
		<line fill="none" stroke="#FFFFFF" stroke-width="3" stroke-linecap="round" stroke-linejoin="round" stroke-miterlimit="10" x1="1678.665" y1="-573.498" x2="1634.667" y2="-529.498"/>
</g>
<rect x="524.711" y="11.125" fill="none" width="344.982" height="155.992"/>
<text transform="matrix(1 0 0 1 524.7112 46.625)"><tspan x="0" y="0" fill="#FFFFFF" font-family="'MyriadPro-Regular'" font-size="50">Переключить </tspan><tspan x="0" y="42" fill="#FFFFFF" font-family="'MyriadPro-Regular'" font-size="50">музыку</tspan></text>
<rect x="945.715" y="-202.376" fill="none" width="599.789" height="78.376"/>
<text transform="matrix(1 0 0 1 945.7151 -166.876)" fill="#FFFFFF" font-family="'MyriadPro-Regular'" font-size="50">Посмотреть фоточки</text>
<rect x="765.719" y="-401.865" fill="none" width="267.968" height="122.337"/>
<text transform="matrix(1 0 0 1 765.719 -366.3647)"><tspan x="0" y="0" fill="#FFFFFF" font-family="'MyriadPro-Regular'" font-size="50">Уйти с</tspan><tspan x="0" y="40" fill="#FFFFFF" font-family="'MyriadPro-Regular'" font-size="50">вечеринки</tspan></text>
<g>
	
		<polyline fill="none" stroke="#FFFFFF" stroke-width="3" stroke-linecap="round" stroke-linejoin="round" stroke-miterlimit="10" points="
		-125.198,340.42 -108.514,351.141 -126.388,358.29 	"/>
	<path fill="none" stroke="#FFFFFF" stroke-width="3" stroke-linecap="round" stroke-linejoin="round" stroke-miterlimit="10" d="
		M-157.689,349.254c29.41,0.44,49.175,1.887,49.175,1.887"/>
</g>
<rect x="-389.217" y="106.627" fill="none" width="599.79" height="78.376"/>
<text transform="matrix(1 0 0 1 -389.2166 142.127)" fill="#FFFFFF" font-family="'MyriadPro-Regular'" font-size="50">Переместить персонажа</text>
<g>
	
		<polyline fill="none" stroke="#FFFFFF" stroke-width="3" stroke-linecap="round" stroke-linejoin="round" stroke-miterlimit="10" points="
		-724.554,41.419 -735.275,58.103 -742.425,40.229 	"/>
	<path fill="none" stroke="#FFFFFF" stroke-width="3" stroke-linecap="round" stroke-linejoin="round" stroke-miterlimit="10" d="
		M-733.491-41.187c1.19,19.064-2.248-48.59-0.59-7.951c2.381,58.385-1.194,107.24-1.194,107.24"/>
</g>
<rect x="-858.698" y="-157.875" fill="none" width="355.2" height="218.878"/>
<text transform="matrix(1 0 0 1 -858.6985 -122.3755)"><tspan x="0" y="0" fill="#FFFFFF" font-family="'MyriadPro-Regular'" font-size="50">Вернуться </tspan><tspan x="0" y="40" fill="#FFFFFF" font-family="'MyriadPro-Regular'" font-size="50">конструктору</tspan></text>
<g>
	<g>
		<path fill="none" stroke="#FFFFFF" stroke-width="3" stroke-linecap="round" stroke-linejoin="round" d="M996.593,133.775
			c-0.864,2.629-3.759,4.559-3.759,4.559s1.537,2.113,2.96,5.205"/>
		
			<path fill="none" stroke="#FFFFFF" stroke-width="3" stroke-linecap="round" stroke-linejoin="round" stroke-dasharray="12.1712,12.1712" d="
			M998.157,155.346c-0.081,13.492-0.657,67.271-0.657,70.988c0,4-0.666,7.999-5.333,11.333s-35.334,18-38.667,20
			s-11.333,2.001-16.666-0.666c-5.334-2.667-60-28.668-66-31.334s-6.667-9.334-6.667-14s-0.667-30.667,0-34
			s1.999-12.666,5.333-18.666s11.333-31.333,12-34s5.334-6.667,5.334-6.667s1.332-2.001,0.666-4.667c0,0-1.333-93.334-1.333-106
			s-0.667-14.666,8.667-20.666c9.333-6,23.332-14,28.666-14s62.667,26,66.667,29.333s6.667,7.333,6,20
			c-0.589,11.184,0.382,85.769,0.617,105.376"/>
	</g>
</g>
<polygon fill="none" stroke="#FFFFFF" stroke-width="3" stroke-linecap="round" stroke-linejoin="round" stroke-miterlimit="10" stroke-dasharray="12" points="
	1030.833,-55.666 1270.166,64.334 1270.166,259.668 1030.833,141.668 "/>
<path fill="none" stroke="#FFFFFF" stroke-width="3" stroke-linecap="round" stroke-linejoin="round" stroke-miterlimit="10" d="
	M-169.605,516.75c0.104-0.268,0.102-0.537-0.014-0.787c-0.327-0.705-1.448-1.036-1.499-1.051l-0.625-0.171l-2.325-0.813
	c-3.898-1.536-7.537-4.61-7.788-6.579c-0.267-2.095-0.155-4.757-0.154-4.793c0-0.365,0.183-5.47,0.436-12.534
	c0.724-20.178,2.069-57.738,1.897-61.014c-0.23-4.375-0.079-18.432-0.077-18.575c0-0.126,0-4.439-0.004-10.243
	c0.049,0.022,0.097,0.047,0.15,0.064c0.131,0.04,0.265,0.056,0.394,0.056c0.279,0,0.531-0.078,0.659-0.16
	c0.263-0.17,0.497-0.455,0.709-0.872c0.084,0.042,0.174,0.071,0.273,0.071c0.063,0,0.129-0.009,0.195-0.027
	c0.567-0.147,1.24-0.933,1.676-1.955c0.282-0.666,0.517-1.376,0.708-2.103c0.064,0.506,0.199,0.875,0.442,1.098
	c0.159,0.145,0.352,0.219,0.576,0.219c0.055,0,0.111-0.005,0.169-0.014c2.479-0.373,1.019-13.918,1.001-14.055
	c-0.76-5.838-0.497-9.037-0.322-11.155l0.043-0.546c0.083-1.076,0.183-2.293,0.292-3.617c0.771-9.417,2.063-25.178,0.712-35.075
	l-0.069-0.505c-0.7-5.119-0.713-5.217-0.622-11.759c0.055-3.944,0.006-7.946-0.121-11.964c0.034-0.86,0.057-1.417,0.057-1.417
	l-0.175-1.909c-0.359-8.197-1.086-16.414-2.166-24.308c-0.049-0.362-0.081-0.594-0.09-0.686c-0.102-0.995-0.225-1.597-0.23-1.619
	c-0.117-0.594-0.342-1.091-0.695-1.536c-0.529-1.835-1.637-3.299-2.979-3.921c-0.925-0.428-2.308-0.872-3.911-1.388l-1.983-0.64
	c-2.407-0.777-5.135-1.659-7.93-2.665c-0.005-0.002-0.526-0.18-0.526-1.563l-0.001-4.65c5.7-1.106,9.509-4.188,11.342-9.23
	c1.28-3.519,1.365-6.863,1.362-9.237c0.438-0.06,1.707-0.288,3.197-1.098c1.024-0.557,2.027-2.209,1.479-5.034
	c-0.553-2.845-3.426-3.431-4.285-3.544c-0.025-2.433-0.181-4.064-0.184-4.095c-0.006-0.063-0.038-0.116-0.084-0.153
	c0.899-1.328,1.466-2.91,1.596-4.583c0.214-2.757-0.577-5.126-2.177-6.86c-0.001-0.005,0.001-0.008,0.001-0.013
	c-0.224-1.711-0.524-3.358-0.895-4.91l-0.664-2.262l0.222,0.055c0.019,0.004,0.038,0.008,0.057,0.008
	c0.104,0,0.199-0.071,0.226-0.178c0.031-0.125-0.045-0.252-0.169-0.283l-0.488-0.122l-0.251-0.858
	c-0.59-1.669-1.287-3.186-2.072-4.512l-0.03-0.053c-0.563-0.948-1.851-3.12-2.993-3.953l0.393-0.917
	c0.051-0.118-0.004-0.254-0.123-0.306c-0.118-0.051-0.255,0.004-0.306,0.123l-0.342,0.799c-0.757-0.617-3.2-2.453-6.239-3.113
	c-3.572-0.777-9.02-0.26-9.235-0.239c-0.023,0.002-0.833,0.037-2.091,0.218v-0.528c0-0.13-0.104-0.233-0.233-0.233
	s-0.234,0.104-0.234,0.233v0.599c-1.98,0.313-4.832,0.963-7.544,2.283l-0.649-0.432c-0.107-0.071-0.252-0.043-0.323,0.065
	c-0.071,0.106-0.042,0.252,0.064,0.323l0.429,0.285c-0.64,0.331-1.268,0.702-1.87,1.116c-2.494,1.719-4.279,3.764-5.533,5.986
	l-0.558-0.318c-0.112-0.063-0.255-0.024-0.318,0.087c-0.064,0.112-0.025,0.255,0.086,0.317l0.57,0.326
	c-1.507,2.846-2.177,5.957-2.35,9.038h-0.281c-0.13,0-0.233,0.104-0.233,0.233s0.104,0.233,0.233,0.233h0.261
	c-0.153,3.798,0.413,7.515,1.049,10.586l-0.021-0.004c-0.126-0.024-0.249,0.057-0.274,0.183c-0.025,0.127,0.057,0.25,0.184,0.274
	l0.214,0.044c0.233,1.092,0.471,2.095,0.68,2.979c0.159,0.671,0.302,1.276,0.418,1.813c-0.003,0.002-0.006,0-0.009,0.002
	c-0.044,0.013-4.483,1.385-4.483,5.939c0,4.115,4.75,4.692,5.811,4.771c0.892,3.683,2.321,7.8,3.952,10.141
	c0.798,1.146,4.872,6.426,12.936,8.001c-0.069,1.336-0.183,3.696-0.183,4.582c0,1.068-0.026,1.73-0.5,1.868
	c-0.1,0.015-10.031,1.422-14.437,3.045c-4.407,1.623-4.97,3.274-5.676,5.54c-0.197,0.045-0.312,0.102-0.334,0.114
	c-0.052,0.026-0.092,0.072-0.111,0.127c-1.197,3.354-8.69,40.103-8.69,56.346c0,10.895,1.303,28.956,2.535,42.368
	c-0.024,0.035-0.043,0.073-0.047,0.117c-0.003,0.052-0.388,5.174-0.388,11.18c0,3.121-0.648,7.165-1.071,8.151
	c-0.511,1.193-1.366,2.308-1.683,2.349c-0.68,0.092-1.237,0.65-1.356,1.361c-0.111,0.66,0.203,1.262,0.816,1.568
	c0.216,0.107,0.446,0.16,0.687,0.16c1.056,0,2.316-1.021,3.504-2.889c0.423-0.665,0.796-1.7,1.097-2.734
	c-0.186,1.703-0.623,2.946-1.311,3.695c-0.147,0.161-0.325,0.327-0.509,0.498c-0.683,0.636-1.457,1.355-1.088,2.168
	c0.176,0.387,0.416,0.631,0.716,0.728c0.095,0.03,0.195,0.046,0.299,0.046c0.257,0,0.544-0.093,0.869-0.278
	c0.222-0.127,0.54-0.327,0.91-0.61c0.051,0.339,0.232,0.624,0.521,0.796c0.201,0.118,0.434,0.177,0.688,0.177
	c0.443,0,0.951-0.179,1.473-0.525c0.329-0.221,0.74-0.668,1.142-1.24c0.108,0.125,0.256,0.242,0.455,0.299
	c0.081,0.023,0.166,0.036,0.254,0.036c0.36,0,0.766-0.198,1.209-0.593c0.974-0.866,1.621-2.396,1.965-4.643
	c0.186,0.094,0.523,0.235,0.861,0.235c0.156,0,0.312-0.03,0.452-0.11c0.301-0.171,0.454-0.515,0.454-1.023
	c0-1.566-1.498-7.579-1.562-7.834c-0.01-0.042-0.034-0.075-0.063-0.104c-0.068-0.799-0.153-1.501-0.245-2.055
	c-0.306-1.836-0.848-8.584-0.852-8.633l-0.001-1.129c0-2.56,0.175-6.193,0.376-10.4c0.448-9.352,1.063-22.155,0.093-32.054
	c0.277-1.501,1.157-6.756,2.189-12.977c0.389,4.702,0.74,9.095,0.986,12.17c0.167,2.103,0.294,3.682,0.361,4.472
	c0.1,1.183-0.061,3.146-0.23,5.226c-0.324,3.965-0.49,6.744,0.127,7.82c-0.202,0.19-0.367,0.41-0.497,0.675
	c-0.004,0.009-0.003,0.017-0.006,0.024s-0.008,0.014-0.011,0.022c-1.228,4.912-1.5,12.795,0.172,17.479
	c0.002,0.005,0.007,0.007,0.009,0.012l0.823,35c0.06,0.921,0.267,11.92,0.599,31.807c0.022,1.315,0.147,3.709,0.279,6.244
	c0.131,2.509,0.266,5.104,0.289,6.502c0.048,2.901,0.349,18.4,0.623,22.024c1.075,14.219,1.704,35.629,1.71,35.84
	c0.046,3.423-0.597,5.209-1.163,6.784c-0.369,1.025-0.717,1.992-0.781,3.233c-0.062,1.204,0.375,2.651,4.127,3.343
	c0.004,0,0.008,0.005,0.012,0.005c1.307,0.347,2.337,0.881,3.334,1.398c0.971,0.504,1.889,0.98,2.905,1.173
	c2.037,0.383,3.42,0.396,3.823,0.396c0.461,0.535,1.232,0.824,1.854,0.824c0.175,0,0.339-0.023,0.481-0.07
	c0.178-0.06,0.317-0.156,0.416-0.281c0.032,0.031,0.07,0.056,0.116,0.065c0.133,0.024,0.267,0.035,0.399,0.035
	c0.522,0,1.019-0.176,1.324-0.386c0.088-0.061,0.16-0.127,0.221-0.194c0.336,0.137,0.659,0.204,0.957,0.204
	c0.517,0,0.951-0.211,1.255-0.604c0.009,0.003,0.016,0.008,0.024,0.011c0.071,0.013,0.36,0.063,0.712,0.063
	c0.535,0,1.216-0.116,1.491-0.654c0.033-0.064,0.055-0.129,0.072-0.196c0.015,0.002,0.027,0.014,0.043,0.014
	c0.028,0,0.057-0.006,0.084-0.016c1.214-0.467,1.603-1.507,1.45-2.33c-0.155-0.83-0.802-1.389-1.612-1.389c-0.001,0-0.002,0-0.002,0
	c-3.396,0-4.984-0.825-6.034-1.372c-5.401-2.816-6.035-4.236-6.954-6.38l-0.076-1.512c-0.163-4.339,2.993-66.75,3.033-67.166
	c1.353-14.006,4.261-57.248,4.526-63.436c0.467,0.123,1.438,0.333,2.661,0.333c0.606,0,1.276-0.055,1.974-0.195
	c-0.377,6.851,0.318,25.949,0.992,44.437c0.337,9.242,0.686,18.8,0.892,26.623l0.096,3.757c0.247,9.796,0.501,19.924,1.538,33.392
	c0.556,7.223,1.279,17.414,1.251,18.531c-0.002,0.014-0.008,0.028-0.008,0.043c0.046,3.424-0.596,5.209-1.164,6.785
	c-0.369,1.023-0.717,1.992-0.78,3.233c-0.042,0.825,0.153,1.765,1.487,2.498c0.332,0.237,0.736,0.408,1.244,0.511
	c0.407,0.125,0.877,0.236,1.41,0.335c0.009,0.003,0.017,0.007,0.026,0.009c0.051,0.007,0.099,0.015,0.15,0.022
	c0.105,0.018,0.203,0.038,0.313,0.055c0.012,0.001,0.024,0.003,0.037,0.003c0.007,0,0.013-0.004,0.021-0.004
	c3.125,0.474,5.197,1.192,7.468,2.182c1.081,0.471,2.009,0.6,2.701,0.6c0.802,0,1.287-0.174,1.324-0.187
	c0.027-0.009,0.049-0.024,0.07-0.044c0.438,0.312,1.293,0.831,2.17,0.875c0.075,0.004,0.148,0.005,0.22,0.005
	c0.89,0,1.606-0.279,2.034-0.801c0.156-0.189,0.261-0.405,0.317-0.63c0.095-0.046,0.251-0.063,0.417-0.082
	c0.458-0.049,1.224-0.13,1.224-1.176C-169.487,517.083-169.529,516.903-169.605,516.75z M-175.423,281.996l-0.099-0.767
	c0,0,0-0.01,0.001-0.013C-175.487,281.476-175.456,281.736-175.423,281.996z"/>
<path fill="none" stroke="#FFFFFF" stroke-width="3" stroke-linecap="round" stroke-linejoin="round" stroke-miterlimit="10" stroke-dasharray="12" d="
	M-24.352,516.75c0.104-0.268,0.102-0.537-0.014-0.787c-0.327-0.705-1.448-1.036-1.499-1.051l-0.625-0.171l-2.325-0.813
	c-3.898-1.536-7.537-4.61-7.788-6.579c-0.267-2.095-0.155-4.757-0.154-4.793c0-0.365,0.183-5.47,0.436-12.534
	c0.724-20.178,2.069-57.738,1.897-61.014c-0.23-4.375-0.079-18.432-0.077-18.575c0-0.126,0-4.439-0.004-10.243
	c0.049,0.022,0.097,0.047,0.15,0.064c0.131,0.04,0.265,0.056,0.394,0.056c0.279,0,0.531-0.078,0.659-0.16
	c0.263-0.17,0.497-0.455,0.709-0.872c0.084,0.042,0.174,0.071,0.273,0.071c0.063,0,0.129-0.009,0.195-0.027
	c0.567-0.147,1.24-0.933,1.676-1.955c0.282-0.666,0.517-1.376,0.708-2.103c0.064,0.506,0.199,0.875,0.442,1.098
	c0.159,0.145,0.352,0.219,0.576,0.219c0.055,0,0.111-0.005,0.169-0.014c2.479-0.373,1.019-13.918,1.001-14.055
	c-0.76-5.838-0.497-9.037-0.322-11.155l0.043-0.546c0.083-1.076,0.183-2.293,0.292-3.617c0.771-9.417,2.063-25.178,0.712-35.075
	l-0.069-0.505c-0.7-5.119-0.713-5.217-0.622-11.759c0.055-3.944,0.006-7.946-0.121-11.964c0.034-0.86,0.057-1.417,0.057-1.417
	l-0.175-1.909c-0.359-8.197-1.086-16.414-2.166-24.308c-0.049-0.362-0.081-0.594-0.09-0.686c-0.102-0.995-0.225-1.597-0.23-1.619
	c-0.117-0.594-0.342-1.091-0.695-1.536c-0.529-1.835-1.637-3.299-2.979-3.921c-0.925-0.428-2.308-0.872-3.911-1.388l-1.983-0.64
	c-2.407-0.777-5.135-1.659-7.93-2.665c-0.005-0.002-0.526-0.18-0.526-1.563l-0.001-4.65c5.7-1.106,9.509-4.188,11.342-9.23
	c1.28-3.519,1.365-6.863,1.362-9.237c0.438-0.06,1.707-0.288,3.197-1.098c1.024-0.557,2.027-2.209,1.479-5.034
	c-0.553-2.845-3.426-3.431-4.285-3.544c-0.025-2.433-0.181-4.064-0.184-4.095c-0.006-0.063-0.038-0.116-0.084-0.153
	c0.899-1.328,1.466-2.91,1.596-4.583c0.214-2.757-0.577-5.126-2.177-6.86c-0.001-0.005,0.001-0.008,0.001-0.013
	c-0.224-1.711-0.524-3.358-0.895-4.91l-0.664-2.262l0.222,0.055c0.019,0.004,0.038,0.008,0.057,0.008
	c0.104,0,0.199-0.071,0.226-0.178c0.031-0.125-0.045-0.252-0.169-0.283l-0.488-0.122l-0.251-0.858
	c-0.59-1.669-1.287-3.186-2.072-4.512l-0.03-0.053c-0.563-0.948-1.851-3.12-2.993-3.953l0.393-0.917
	c0.051-0.118-0.004-0.254-0.123-0.306c-0.118-0.051-0.255,0.004-0.306,0.123l-0.342,0.799c-0.757-0.617-3.2-2.453-6.239-3.113
	c-3.572-0.777-9.02-0.26-9.235-0.239c-0.023,0.002-0.833,0.037-2.091,0.218v-0.528c0-0.13-0.104-0.233-0.233-0.233
	s-0.234,0.104-0.234,0.233v0.599c-1.98,0.313-4.832,0.963-7.544,2.283l-0.649-0.432c-0.107-0.071-0.252-0.043-0.323,0.065
	c-0.071,0.106-0.042,0.252,0.064,0.323l0.429,0.285c-0.64,0.331-1.268,0.702-1.87,1.116c-2.494,1.719-4.279,3.764-5.533,5.986
	l-0.558-0.318c-0.112-0.063-0.255-0.024-0.318,0.087c-0.064,0.112-0.025,0.255,0.086,0.317l0.57,0.326
	c-1.507,2.846-2.177,5.957-2.35,9.038h-0.281c-0.13,0-0.233,0.104-0.233,0.233s0.104,0.233,0.233,0.233h0.261
	c-0.153,3.798,0.413,7.515,1.049,10.586l-0.021-0.004c-0.126-0.024-0.249,0.057-0.274,0.183c-0.025,0.127,0.057,0.25,0.184,0.274
	l0.214,0.044c0.233,1.092,0.471,2.095,0.68,2.979c0.159,0.671,0.302,1.276,0.418,1.813c-0.003,0.002-0.006,0-0.009,0.002
	c-0.044,0.013-4.483,1.385-4.483,5.939c0,4.115,4.75,4.692,5.811,4.771c0.892,3.683,2.321,7.8,3.952,10.141
	c0.798,1.146,4.872,6.426,12.936,8.001c-0.069,1.336-0.183,3.696-0.183,4.582c0,1.068-0.026,1.73-0.5,1.868
	c-0.1,0.015-10.031,1.422-14.437,3.045c-4.407,1.623-4.97,3.274-5.676,5.54c-0.197,0.045-0.312,0.102-0.334,0.114
	c-0.052,0.026-0.092,0.072-0.111,0.127c-1.197,3.354-8.69,40.103-8.69,56.346c0,10.895,1.303,28.956,2.535,42.368
	c-0.024,0.035-0.043,0.073-0.047,0.117c-0.003,0.052-0.388,5.174-0.388,11.18c0,3.121-0.648,7.165-1.071,8.151
	c-0.511,1.193-1.366,2.308-1.683,2.349c-0.68,0.092-1.237,0.65-1.356,1.361c-0.111,0.66,0.203,1.262,0.816,1.568
	c0.216,0.107,0.446,0.16,0.687,0.16c1.056,0,2.316-1.021,3.504-2.889c0.423-0.665,0.796-1.7,1.097-2.734
	c-0.186,1.703-0.623,2.946-1.311,3.695c-0.147,0.161-0.325,0.327-0.509,0.498c-0.683,0.636-1.457,1.355-1.088,2.168
	c0.176,0.387,0.416,0.631,0.716,0.728c0.095,0.03,0.195,0.046,0.299,0.046c0.257,0,0.544-0.093,0.869-0.278
	c0.222-0.127,0.54-0.327,0.91-0.61c0.051,0.339,0.232,0.624,0.521,0.796c0.201,0.118,0.434,0.177,0.688,0.177
	c0.443,0,0.951-0.179,1.473-0.525c0.329-0.221,0.74-0.668,1.142-1.24c0.108,0.125,0.256,0.242,0.455,0.299
	c0.081,0.023,0.166,0.036,0.254,0.036c0.36,0,0.766-0.198,1.209-0.593c0.974-0.866,1.621-2.396,1.965-4.643
	c0.186,0.094,0.523,0.235,0.861,0.235c0.156,0,0.312-0.03,0.452-0.11c0.301-0.171,0.454-0.515,0.454-1.023
	c0-1.566-1.498-7.579-1.562-7.834c-0.01-0.042-0.034-0.075-0.063-0.104c-0.068-0.799-0.153-1.501-0.245-2.055
	c-0.306-1.836-0.848-8.584-0.852-8.633l-0.001-1.129c0-2.56,0.175-6.193,0.376-10.4c0.448-9.352,1.063-22.155,0.093-32.054
	c0.277-1.501,1.157-6.756,2.189-12.977c0.389,4.702,0.74,9.095,0.986,12.17c0.167,2.103,0.294,3.682,0.361,4.472
	c0.1,1.183-0.061,3.146-0.23,5.226c-0.324,3.965-0.49,6.744,0.127,7.82c-0.202,0.19-0.367,0.41-0.497,0.675
	c-0.004,0.009-0.003,0.017-0.006,0.024s-0.008,0.014-0.011,0.022c-1.228,4.912-1.5,12.795,0.172,17.479
	c0.002,0.005,0.007,0.007,0.009,0.012l0.823,35c0.06,0.921,0.267,11.92,0.599,31.807c0.022,1.315,0.147,3.709,0.279,6.244
	c0.131,2.509,0.266,5.104,0.289,6.502c0.048,2.901,0.349,18.4,0.623,22.024c1.075,14.219,1.704,35.629,1.71,35.84
	c0.046,3.423-0.597,5.209-1.163,6.784c-0.369,1.025-0.717,1.992-0.781,3.233c-0.062,1.204,0.375,2.651,4.127,3.343
	c0.004,0,0.008,0.005,0.012,0.005c1.307,0.347,2.337,0.881,3.334,1.398c0.971,0.504,1.889,0.98,2.905,1.173
	c2.037,0.383,3.42,0.396,3.823,0.396c0.461,0.535,1.232,0.824,1.854,0.824c0.175,0,0.339-0.023,0.481-0.07
	c0.178-0.06,0.317-0.156,0.416-0.281c0.032,0.031,0.07,0.056,0.116,0.065c0.133,0.024,0.267,0.035,0.399,0.035
	c0.522,0,1.019-0.176,1.324-0.386c0.088-0.061,0.16-0.127,0.221-0.194c0.336,0.137,0.659,0.204,0.957,0.204
	c0.517,0,0.951-0.211,1.255-0.604c0.009,0.003,0.016,0.008,0.024,0.011c0.071,0.013,0.36,0.063,0.712,0.063
	c0.535,0,1.216-0.116,1.491-0.654c0.033-0.064,0.055-0.129,0.072-0.196c0.015,0.002,0.027,0.014,0.043,0.014
	c0.028,0,0.057-0.006,0.084-0.016c1.214-0.467,1.603-1.507,1.45-2.33c-0.155-0.83-0.802-1.389-1.612-1.389c-0.001,0-0.002,0-0.002,0
	c-3.396,0-4.984-0.825-6.034-1.372c-5.401-2.816-6.035-4.236-6.954-6.38l-0.076-1.512c-0.163-4.339,2.993-66.75,3.033-67.166
	c1.353-14.006,4.261-57.248,4.526-63.436c0.467,0.123,1.438,0.333,2.661,0.333c0.606,0,1.276-0.055,1.974-0.195
	c-0.377,6.851,0.318,25.949,0.992,44.437c0.337,9.242,0.686,18.8,0.892,26.623l0.096,3.757c0.247,9.796,0.501,19.924,1.538,33.392
	c0.556,7.223,1.279,17.414,1.251,18.531c-0.002,0.014-0.008,0.028-0.008,0.043c0.046,3.424-0.596,5.209-1.164,6.785
	c-0.369,1.023-0.717,1.992-0.78,3.233c-0.042,0.825,0.153,1.765,1.487,2.498c0.332,0.237,0.736,0.408,1.244,0.511
	c0.407,0.125,0.877,0.236,1.41,0.335c0.009,0.003,0.017,0.007,0.026,0.009c0.051,0.007,0.099,0.015,0.15,0.022
	c0.105,0.018,0.203,0.038,0.313,0.055c0.012,0.001,0.024,0.003,0.037,0.003c0.007,0,0.013-0.004,0.021-0.004
	c3.125,0.474,5.197,1.192,7.468,2.182c1.081,0.471,2.009,0.6,2.701,0.6c0.802,0,1.287-0.174,1.324-0.187
	c0.027-0.009,0.049-0.024,0.07-0.044c0.438,0.312,1.293,0.831,2.17,0.875c0.075,0.004,0.148,0.005,0.22,0.005
	c0.89,0,1.606-0.279,2.034-0.801c0.156-0.189,0.261-0.405,0.317-0.63c0.095-0.046,0.251-0.063,0.417-0.082
	c0.458-0.049,1.224-0.13,1.224-1.176C-24.234,517.083-24.277,516.903-24.352,516.75z M-30.171,281.996l-0.099-0.767
	c0,0,0-0.01,0.001-0.013C-30.235,281.476-30.204,281.736-30.171,281.996z"/>
<g>
	
		<path fill="none" stroke="#FFFFFF" stroke-width="3" stroke-linecap="round" stroke-linejoin="round" stroke-miterlimit="10" stroke-dasharray="12" d="
		M1255.985-366.688c-1.076-1.077-1.076-4.92-0.923-7.381c0.153-2.459,0.769-4.305,0.461-6.303c-0.308-1.999-0.461-4.92-1.845-6.458
		c-1.384-1.537-0.461-2.921,0.153-4.305c0.615-1.384-0.308-5.534-0.308-5.534s-1.845-2.614-1.691-3.537
		c0.154-0.922,0.923-8.302,0.615-10.301c-0.307-1.998-2.768-7.072-3.844-10.762s0-5.843-0.461-7.995s-4.15-6.304-4.15-6.304
		s-0.462-3.536-0.462-5.073c0-1.538-1.69-3.229-2.306-3.69c-0.615-0.461-2.461-3.997-2.461-5.842s-0.461-5.074-3.229-8.764
		s-9.84-3.997-11.684-4.766c-1.846-0.77-2.922-3.998-4.92-6.15c-1.999-2.152-8.764-8.764-9.687-9.686
		c-0.923-0.923-3.997-0.615-4.92-0.923s-1.845-2.768-4.305-3.075c-2.46-0.307-3.075,1.538-3.536,1.385
		c-0.461-0.154-4.766-1.846-7.072-1.846s-5.689,0.615-9.379,1.076s-6.918-1.384-7.072-1.845c-0.153-0.461-3.074-0.615-5.227,0.769
		s-3.075,2.768-4.92,3.383c-1.846,0.615-1.999-0.77-3.998-0.308c-1.998,0.461-3.997,3.689-5.381,7.072
		c-1.384,3.382-3.998,4.305-3.998,4.305l-1.69-0.461c0,0-1.299,2.886-2.116,5.346c-1.059,2.393-4.289,5.09-6.955,8.646
		c-0.551,0.734-1.301,1.606-2.148,2.542c-0.27,0.099-0.533,0.267-0.772,0.532c-0.3,0.333-0.563,0.74-0.813,1.181
		c-1.735,1.843-3.624,3.774-5.057,5.357c-0.594,0.349-0.923,0.753-1.666,1.977c-0.313,0.42-0.529,0.769-0.612,1.018
		c-0.252,0.756-0.556,2.956-0.826,5.544c-1.19,1.623-3.784,3.443-4.556,5.372c-0.922,2.306,0.309,6.919-0.922,9.378l-0.615,1.846
		c0,0-0.133,0.038-0.339,0.128c-0.212-0.288-0.405-0.367-0.53,0.025c-0.037,0.115-0.092,0.232-0.156,0.351
		c-0.621,0.413-1.34,1.118-1.586,2.256c-0.188,0.351-0.314,0.712-0.314,1.084c0,1.383-0.343,5.073-0.343,5.073
		s-1.714,1.691-2.398,2.921c-0.686,1.23,0.514,3.998,1.028,5.996c0.514,1.999,0.171,3.075-0.344,3.69
		c-0.514,0.614-1.027,3.075-0.855,4.305c0.154,1.114-0.106,2.854,1.242,3.517c0.312,0.877,0.636,1.75,0.891,2.478
		c-0.753,0.108-0.754,1.928-0.754,3.077c0,0.846,0,1.474,0,2.083c-0.229,0.604-0.412,1.174-0.461,1.606
		c-0.153,1.384-0.153,5.535-0.307,6.919c-0.154,1.384-0.923,1.537-1.999,3.382c-1.077,1.846,0,6.304,0.614,9.84
		c0.488,2.809,1.461,3.387,1.842,4.121c-0.041,0.83-0.457,2.574-0.457,4.182c0,0.76,0.125,1.426,0.359,1.93
		c-0.106,2.076-0.206,4.131-0.206,4.988c0,0.584,0.154,1.215,0.364,1.857c0.011,0.842,0.171,1.875,0.25,2.909
		c0.074,0.956,0.5,1.419,0.924,1.845c0.004,1.285,0.023,2.294,0.152,3.844c0.078,0.935,0.472,1.829,0.841,2.645
		c0.062,0.239,0.139,0.484,0.235,0.738c0.62,1.61,0.043,3.221,0.035,4.832c-0.122,1.153-0.158,2.33,0.119,3.162
		c0.451,1.354,1.234,3.951,1.558,5.663c-0.241,0.8-0.517,1.563-0.327,2.793c0.062,0.401,0.155,0.752,0.271,1.071
		c0.01,0.951,0.13,2.057,0.498,3.233c0.324,1.037,0.839,2.183,1.362,3.266c-0.075,0.29-0.133,0.54-0.133,0.731
		c0,0.77,0.77,3.998,1.537,5.228c0.77,1.23,2.461,2.921,3.229,3.383c0.198,0.119,0.469,0.31,0.763,0.513
		c0.389,1.494,0.723,3.894,1.543,4.715c0.923,0.922,4.767,2.921,5.074,3.536c0.307,0.614,2.459,5.228,2.921,5.842
		c0.461,0.615,2.614,4.92,2.614,5.996s0.768,4.151,2.152,6.149c1.383,1.999,4.766,1.538,5.688,2.614
		c0.923,1.076,0.615,2.46,3.229,2.921c0.471,0.752,2.264,1.332,4.008,1.81c1.051,0.645,2.168,1.337,3.526,1.881
		c3.075,1.229,4.767,3.075,5.843,3.229s6.764,3.075,8.764,3.997c0.676,0.438,1.26,0.648,1.828,0.71
		c1.24,0.378,2.45,0.521,4.014,0.521c2.307,0,8.456-1.076,10.146-0.615c1.691,0.461,3.998,1.076,5.535,0.769
		s12.915-1.999,16.144-2.613c1.046-0.2,2.399-0.836,3.782-1.64c0.27-0.066,0.545-0.135,0.83-0.205
		c5.162-1.291,5.644-4.052,6.184-5.291c0.688-1.073,1.196-2.396,1.196-2.396s1.845-2.768,2.152-3.536s1.538-3.997,2.152-5.688
		c0.615-1.691,3.536-5.074,4.459-6.15s2.767-7.38,3.69-8.148c0.922-0.769,2.767-3.074,3.229-5.073
		c0.461-1.999,2.92-3.536,4.458-5.535s4.612-7.995,4.612-10.454c0-2.461,1.384-3.537,2.307-4.767
		c0.922-1.229,0.922-4.305,0.922-5.996s2.152-1.691,2.46-4.305c0.308-2.614,0.462-5.996,0.462-5.996s0.768-1.538,0.768-2.768
		s1.385-3.69,2.153-4.305c0.769-0.615,1.076-1.384,1.076-1.384s0,0,0.308-2.152c0.307-2.152-1.076-6.304-1.076-9.225
		c0-2.922,1.229-8.918,1.537-10.455S1257.061-365.611,1255.985-366.688z"/>
	
		<path fill="none" stroke="#FFFFFF" stroke-width="3" stroke-linecap="round" stroke-linejoin="round" stroke-miterlimit="10" stroke-dasharray="12" d="
		M1240.455-297.041c0,0,2.768,0.922,3.383-2.152C1244.453-302.269,1241.071-297.964,1240.455-297.041z"/>
</g>
<polygon fill="none" stroke="#FFFFFF" stroke-width="3" stroke-linecap="round" stroke-linejoin="round" stroke-miterlimit="10" stroke-dasharray="12" points="
	-701.167,130.333 -701.167,393 -786.5,351 -786.5,86.333 "/>
</svg>
