<svg width="375" height="165" viewBox="0 0 275 64" fill="none" xmlns="http://www.w3.org/2000/svg">
<g filter="url(#filter0_d)">
<rect x="10" y="10" width="255" height="40" rx="6" fill="#9D0000"/>
<rect x="11" y="7" width="253" height="40" rx="5" fill="#E53935" stroke="#9D0000" stroke-width="2"/>
<path d="M26.5552 30.81C26.8632 30.67 27.1525 30.4833 27.4232 30.25C27.7032 30.0073 27.9552 29.7553 28.1792 29.494C28.4125 29.2233 28.6179 28.9527 28.7952 28.682C28.9725 28.402 29.1125 28.1547 29.2152 27.94C28.8979 27.8653 28.5712 27.744 28.2352 27.576C27.9085 27.3987 27.6099 27.1793 27.3392 26.918C27.0779 26.6567 26.8585 26.358 26.6812 26.022C26.5132 25.686 26.4292 25.3173 26.4292 24.916C26.4292 24.244 26.5739 23.6933 26.8632 23.264C27.1525 22.8347 27.5305 22.494 27.9972 22.242C28.4639 21.99 28.9912 21.8173 29.5792 21.724C30.1672 21.6307 30.7552 21.584 31.3432 21.584C31.7539 21.584 32.1599 21.6027 32.5612 21.64C32.9625 21.6773 33.3359 21.7193 33.6812 21.766C33.9239 21.878 34.1339 22.032 34.3112 22.228C34.4979 22.424 34.6005 22.6807 34.6192 22.998C34.6379 23.2967 34.6519 23.768 34.6612 24.412C34.6705 25.056 34.6752 25.7747 34.6752 26.568C34.6752 27.0347 34.6705 27.5153 34.6612 28.01C34.6612 28.4953 34.6565 28.9713 34.6472 29.438C34.6379 29.9047 34.6239 30.3573 34.6052 30.796C34.5865 31.2253 34.5632 31.6173 34.5352 31.972C34.3299 32.1773 34.0685 32.28 33.7512 32.28C33.6019 32.28 33.4245 32.2473 33.2192 32.182C33.0139 32.126 32.7992 32.0233 32.5752 31.874L32.6592 27.87C32.4539 27.9167 32.2392 27.954 32.0152 27.982C31.7912 28.01 31.5719 28.0333 31.3572 28.052C31.1985 28.4627 30.9839 28.9107 30.7132 29.396C30.4425 29.872 30.1345 30.3247 29.7892 30.754C29.4532 31.1833 29.0939 31.5473 28.7112 31.846C28.3285 32.1447 27.9505 32.308 27.5772 32.336C27.4745 32.3267 27.3532 32.2847 27.2132 32.21C27.0732 32.1353 26.9425 32.0327 26.8212 31.902C26.6999 31.7713 26.6065 31.6173 26.5412 31.44C26.4852 31.2533 26.4899 31.0433 26.5552 30.81ZM28.4452 24.916C28.4452 25.168 28.5105 25.3827 28.6412 25.56C28.7719 25.728 28.9399 25.868 29.1452 25.98C29.3599 26.092 29.6025 26.1713 29.8732 26.218C30.1439 26.2647 30.4192 26.288 30.6992 26.288C31.1099 26.288 31.5019 26.2647 31.8752 26.218C32.2579 26.1713 32.5239 26.1293 32.6732 26.092L32.5892 23.544C32.3465 23.488 32.0992 23.446 31.8472 23.418C31.5952 23.3807 31.3385 23.362 31.0772 23.362C30.7505 23.362 30.4285 23.39 30.1112 23.446C29.8032 23.502 29.5232 23.5907 29.2712 23.712C29.0285 23.8333 28.8279 23.9967 28.6692 24.202C28.5199 24.398 28.4452 24.636 28.4452 24.916ZM41.0413 31.65C41.0133 31.5287 40.9946 31.2673 40.9853 30.866C40.9759 30.4647 40.9666 29.9933 40.9573 29.452C40.9479 28.9013 40.9386 28.3133 40.9293 27.688C40.9293 27.0627 40.9293 26.47 40.9293 25.91C40.9293 25.3407 40.9246 24.8367 40.9153 24.398C40.9153 23.95 40.9106 23.6373 40.9013 23.46C40.8173 23.3293 40.7566 23.2033 40.7193 23.082C40.6913 22.9513 40.6679 22.7927 40.6493 22.606C40.7146 22.4567 40.8173 22.3213 40.9573 22.2C41.0973 22.0693 41.2419 21.9573 41.3913 21.864C41.5499 21.7707 41.6993 21.7007 41.8393 21.654C41.9886 21.6073 42.0959 21.584 42.1613 21.584C42.2919 21.612 42.3853 21.64 42.4413 21.668C42.4973 21.6867 42.5533 21.7147 42.6093 21.752C43.0106 21.6867 43.7059 21.6027 44.6953 21.5C45.6846 21.388 46.9306 21.3227 48.4333 21.304C48.6013 21.3507 48.7553 21.4253 48.8953 21.528C49.0353 21.6307 49.1659 21.7753 49.2873 21.962C49.3246 22.1207 49.3526 22.4053 49.3713 22.816C49.3899 23.2267 49.4039 23.7167 49.4133 24.286C49.4226 24.846 49.4273 25.4573 49.4273 26.12C49.4273 26.7733 49.4273 27.4173 49.4273 28.052C49.4273 28.6867 49.4226 29.2887 49.4133 29.858C49.4133 30.418 49.4179 30.8847 49.4273 31.258C49.3526 31.5007 49.2079 31.6873 48.9933 31.818C48.7879 31.9393 48.5639 32 48.3213 32C48.1159 32 47.9153 31.9533 47.7193 31.86C47.5233 31.7667 47.3553 31.6267 47.2153 31.44C47.2153 31.2907 47.2153 31.02 47.2153 30.628C47.2246 30.236 47.2293 29.7833 47.2293 29.27C47.2386 28.7473 47.2479 28.192 47.2573 27.604C47.2666 27.0067 47.2666 26.4327 47.2573 25.882C47.2573 25.3313 47.2526 24.832 47.2433 24.384C47.2339 23.936 47.2199 23.5953 47.2013 23.362C46.8933 23.3713 46.5246 23.3853 46.0953 23.404C45.6753 23.4227 45.2599 23.446 44.8493 23.474C44.4479 23.502 44.0839 23.5347 43.7573 23.572C43.4306 23.6 43.2113 23.6327 43.0993 23.67C43.0993 23.8567 43.0993 24.1553 43.0993 24.566C43.1086 24.9673 43.1133 25.4247 43.1133 25.938C43.1226 26.4513 43.1319 26.9927 43.1413 27.562C43.1506 28.1313 43.1599 28.6773 43.1693 29.2C43.1786 29.7133 43.1879 30.18 43.1973 30.6C43.2066 31.02 43.2113 31.3373 43.2113 31.552C43.0713 31.776 42.8893 31.944 42.6653 32.056C42.4413 32.168 42.2219 32.224 42.0073 32.224C41.8113 32.224 41.6293 32.182 41.4613 32.098C41.3026 32.014 41.1626 31.8647 41.0413 31.65ZM55.4977 32.238C54.835 32.238 54.219 32.1167 53.6497 31.874C53.0897 31.622 52.5997 31.272 52.1797 30.824C51.7597 30.3667 51.4283 29.8207 51.1857 29.186C50.9523 28.542 50.8357 27.8233 50.8357 27.03C50.8357 26.1713 50.9803 25.4107 51.2697 24.748C51.5683 24.076 51.9603 23.5113 52.4457 23.054C52.931 22.5873 53.491 22.2327 54.1257 21.99C54.7603 21.7473 55.4137 21.626 56.0857 21.626C56.8137 21.626 57.481 21.752 58.0877 22.004C58.7037 22.2467 59.231 22.592 59.6697 23.04C60.1177 23.488 60.463 24.0293 60.7057 24.664C60.9483 25.2893 61.0697 25.9893 61.0697 26.764C61.0697 27.7067 60.9017 28.5233 60.5657 29.214C60.2297 29.9047 59.7957 30.474 59.2637 30.922C58.7317 31.37 58.1343 31.7013 57.4717 31.916C56.809 32.1307 56.151 32.238 55.4977 32.238ZM55.5957 30.152C55.9037 30.152 56.249 30.1053 56.6317 30.012C57.0143 29.9187 57.3737 29.746 57.7097 29.494C58.0457 29.242 58.3303 28.8967 58.5637 28.458C58.797 28.0193 58.9137 27.4547 58.9137 26.764C58.9137 26.2507 58.8343 25.798 58.6757 25.406C58.5263 25.014 58.321 24.692 58.0597 24.44C57.8077 24.1787 57.5137 23.9827 57.1777 23.852C56.851 23.7213 56.5057 23.656 56.1417 23.656C55.731 23.656 55.3343 23.726 54.9517 23.866C54.569 23.9967 54.2283 24.202 53.9297 24.482C53.631 24.7527 53.3883 25.1027 53.2017 25.532C53.0243 25.9613 52.9357 26.47 52.9357 27.058C52.9357 27.5713 53.001 28.024 53.1317 28.416C53.2623 28.7987 53.4443 29.1207 53.6777 29.382C53.9203 29.634 54.205 29.8253 54.5317 29.956C54.8583 30.0867 55.213 30.152 55.5957 30.152ZM62.9146 28.206C62.812 28.1127 62.7373 27.9913 62.6906 27.842C62.644 27.6927 62.6206 27.5387 62.6206 27.38C62.6206 27.212 62.644 27.0533 62.6906 26.904C62.7466 26.7453 62.8213 26.6147 62.9146 26.512C62.9146 26.344 62.9053 26.0873 62.8866 25.742C62.8773 25.3873 62.8633 25.0093 62.8446 24.608C62.826 24.2067 62.812 23.8147 62.8026 23.432C62.7933 23.0493 62.7933 22.7413 62.8026 22.508C62.8493 22.3587 62.938 22.2233 63.0686 22.102C63.1993 21.9713 63.3533 21.8687 63.5306 21.794C63.7173 21.7193 63.918 21.6773 64.1326 21.668C64.3473 21.6493 64.562 21.6727 64.7766 21.738C64.8513 21.8687 64.9073 22.074 64.9446 22.354C64.9913 22.634 65.024 22.9653 65.0426 23.348C65.0706 23.7307 65.0893 24.1553 65.0986 24.622C65.1173 25.0793 65.1313 25.56 65.1406 26.064C65.5513 26.0453 66.0646 26.0127 66.6806 25.966C67.2966 25.91 68.0386 25.8353 68.9066 25.742C68.8973 25.518 68.888 25.294 68.8786 25.07C68.8786 24.846 68.874 24.5987 68.8646 24.328C68.8646 24.0573 68.8646 23.7587 68.8646 23.432C68.8646 23.1053 68.8646 22.7273 68.8646 22.298C68.9486 22.0553 69.0933 21.8733 69.2986 21.752C69.504 21.6307 69.728 21.57 69.9706 21.57C70.1573 21.57 70.3393 21.6167 70.5166 21.71C70.694 21.794 70.834 21.9153 70.9366 22.074C70.974 22.4473 71.0066 22.8673 71.0346 23.334C71.0626 23.7913 71.0813 24.2767 71.0906 24.79C71.1 25.3033 71.1046 25.8353 71.1046 26.386C71.114 26.9273 71.1186 27.464 71.1186 27.996C71.1186 28.612 71.1186 29.2093 71.1186 29.788C71.1186 30.3667 71.128 30.894 71.1466 31.37C71.1 31.6127 70.974 31.7993 70.7686 31.93C70.5633 32.0607 70.3253 32.126 70.0546 32.126C69.84 32.126 69.6253 32.0747 69.4106 31.972C69.2053 31.8693 69.0513 31.7013 68.9486 31.468C68.9486 31.188 68.9486 30.8893 68.9486 30.572C68.958 30.2453 68.9626 29.914 68.9626 29.578C68.972 29.242 68.9766 28.9107 68.9766 28.584C68.9766 28.2573 68.9766 27.9493 68.9766 27.66C68.678 27.688 68.3233 27.7253 67.9126 27.772C67.5113 27.8187 67.1146 27.8653 66.7226 27.912C66.34 27.9493 65.9946 27.9913 65.6866 28.038C65.3786 28.0753 65.1686 28.108 65.0566 28.136C65.038 28.22 65.0286 28.4067 65.0286 28.696C65.038 28.976 65.0473 29.2887 65.0566 29.634C65.066 29.9793 65.0753 30.3247 65.0846 30.67C65.094 31.006 65.0986 31.2673 65.0986 31.454C65.0986 31.594 65.066 31.7153 65.0006 31.818C64.9353 31.9207 64.8513 32.0047 64.7486 32.07C64.646 32.1447 64.5293 32.196 64.3986 32.224C64.268 32.2613 64.1326 32.28 63.9926 32.28C63.778 32.28 63.5773 32.238 63.3906 32.154C63.204 32.0793 63.0733 31.9533 62.9986 31.776L62.9146 28.206ZM73.354 30.81C73.662 30.67 73.9514 30.4833 74.222 30.25C74.502 30.0073 74.754 29.7553 74.978 29.494C75.2114 29.2233 75.4167 28.9527 75.594 28.682C75.7714 28.402 75.9114 28.1547 76.014 27.94C75.6967 27.8653 75.37 27.744 75.034 27.576C74.7074 27.3987 74.4087 27.1793 74.138 26.918C73.8767 26.6567 73.6574 26.358 73.48 26.022C73.312 25.686 73.228 25.3173 73.228 24.916C73.228 24.244 73.3727 23.6933 73.662 23.264C73.9514 22.8347 74.3294 22.494 74.796 22.242C75.2627 21.99 75.79 21.8173 76.378 21.724C76.966 21.6307 77.554 21.584 78.142 21.584C78.5527 21.584 78.9587 21.6027 79.36 21.64C79.7614 21.6773 80.1347 21.7193 80.48 21.766C80.7227 21.878 80.9327 22.032 81.11 22.228C81.2967 22.424 81.3994 22.6807 81.418 22.998C81.4367 23.2967 81.4507 23.768 81.46 24.412C81.4694 25.056 81.474 25.7747 81.474 26.568C81.474 27.0347 81.4694 27.5153 81.46 28.01C81.46 28.4953 81.4554 28.9713 81.446 29.438C81.4367 29.9047 81.4227 30.3573 81.404 30.796C81.3854 31.2253 81.362 31.6173 81.334 31.972C81.1287 32.1773 80.8674 32.28 80.55 32.28C80.4007 32.28 80.2234 32.2473 80.018 32.182C79.8127 32.126 79.598 32.0233 79.374 31.874L79.458 27.87C79.2527 27.9167 79.038 27.954 78.814 27.982C78.59 28.01 78.3707 28.0333 78.156 28.052C77.9974 28.4627 77.7827 28.9107 77.512 29.396C77.2414 29.872 76.9334 30.3247 76.588 30.754C76.252 31.1833 75.8927 31.5473 75.51 31.846C75.1274 32.1447 74.7494 32.308 74.376 32.336C74.2734 32.3267 74.152 32.2847 74.012 32.21C73.872 32.1353 73.7414 32.0327 73.62 31.902C73.4987 31.7713 73.4054 31.6173 73.34 31.44C73.284 31.2533 73.2887 31.0433 73.354 30.81ZM75.244 24.916C75.244 25.168 75.3094 25.3827 75.44 25.56C75.5707 25.728 75.7387 25.868 75.944 25.98C76.1587 26.092 76.4014 26.1713 76.672 26.218C76.9427 26.2647 77.218 26.288 77.498 26.288C77.9087 26.288 78.3007 26.2647 78.674 26.218C79.0567 26.1713 79.3227 26.1293 79.472 26.092L79.388 23.544C79.1454 23.488 78.898 23.446 78.646 23.418C78.394 23.3807 78.1374 23.362 77.876 23.362C77.5494 23.362 77.2274 23.39 76.91 23.446C76.602 23.502 76.322 23.5907 76.07 23.712C75.8274 23.8333 75.6267 23.9967 75.468 24.202C75.3187 24.398 75.244 24.636 75.244 24.916ZM82.9216 30.726C83.0056 30.6607 83.1083 30.5627 83.2296 30.432C83.3603 30.3013 83.4909 30.152 83.6216 29.984C83.7616 29.816 83.8969 29.6387 84.0276 29.452C84.1583 29.256 84.2703 29.0553 84.3636 28.85C84.5783 28.374 84.7463 27.9073 84.8676 27.45C84.9983 26.9927 85.0963 26.5447 85.1616 26.106C85.2269 25.6673 85.2643 25.2427 85.2736 24.832C85.2829 24.4213 85.2783 24.0247 85.2596 23.642C85.0916 23.6327 84.9376 23.5953 84.7976 23.53C84.6576 23.4647 84.5363 23.3853 84.4336 23.292C84.3309 23.1893 84.2516 23.082 84.1956 22.97C84.1396 22.8487 84.1116 22.7273 84.1116 22.606C84.1116 22.494 84.1349 22.3587 84.1816 22.2C84.2376 22.032 84.2983 21.8827 84.3636 21.752C84.7463 21.7053 85.2176 21.6587 85.7776 21.612C86.3376 21.556 86.9069 21.5047 87.4856 21.458C88.0736 21.4113 88.6336 21.374 89.1656 21.346C89.7069 21.318 90.1503 21.2993 90.4956 21.29C90.6823 21.29 90.8736 21.36 91.0696 21.5C91.2656 21.6307 91.4009 21.7847 91.4756 21.962C91.5409 22.5593 91.5829 23.2687 91.6016 24.09C91.6296 24.9113 91.6436 25.7607 91.6436 26.638C91.6436 27.5153 91.6436 28.3787 91.6436 29.228C91.6436 30.068 91.6576 30.8147 91.6856 31.468C91.6109 31.6827 91.4523 31.8553 91.2096 31.986C90.9763 32.1167 90.7429 32.182 90.5096 32.182C90.2763 32.182 90.0523 32.126 89.8376 32.014C89.6323 31.9113 89.4923 31.7433 89.4176 31.51C89.4176 31.2767 89.4176 30.9593 89.4176 30.558C89.4269 30.1567 89.4363 29.7087 89.4456 29.214C89.4549 28.71 89.4643 28.1827 89.4736 27.632C89.4923 27.072 89.5016 26.5307 89.5016 26.008C89.5109 25.476 89.5156 24.9813 89.5156 24.524C89.5156 24.0573 89.5109 23.67 89.5016 23.362C89.1003 23.3713 88.6943 23.3853 88.2836 23.404C87.8729 23.4133 87.5416 23.432 87.2896 23.46C87.2896 23.768 87.2849 24.1553 87.2756 24.622C87.2663 25.0793 87.2336 25.574 87.1776 26.106C87.1216 26.6287 87.0376 27.1747 86.9256 27.744C86.8136 28.304 86.6596 28.8453 86.4636 29.368C86.3423 29.6853 86.1929 30.0073 86.0156 30.334C85.8383 30.6607 85.6516 30.964 85.4556 31.244C85.2596 31.524 85.0543 31.762 84.8396 31.958C84.6343 32.154 84.4429 32.28 84.2656 32.336C83.7709 32.2707 83.4256 32.1167 83.2296 31.874C83.0336 31.6313 82.9309 31.2487 82.9216 30.726ZM93.2231 30.936C93.2604 30.628 93.3958 30.3573 93.6291 30.124C93.8624 29.8813 94.2311 29.76 94.7351 29.76C94.8751 29.76 95.0198 29.7927 95.1691 29.858C95.3184 29.9233 95.4538 30.012 95.5751 30.124C95.6964 30.236 95.7944 30.3667 95.8691 30.516C95.9438 30.6653 95.9811 30.8193 95.9811 30.978C95.9811 31.314 95.9484 31.622 95.8831 31.902C95.8178 32.182 95.7151 32.4527 95.5751 32.714C95.4444 32.9847 95.2718 33.2553 95.0571 33.526C94.8518 33.7967 94.6091 34.0813 94.3291 34.38C94.1984 34.4173 94.0678 34.4173 93.9371 34.38C93.8158 34.352 93.6991 34.3007 93.5871 34.226C93.4844 34.1607 93.3911 34.0813 93.3071 33.988C93.2324 33.8947 93.1811 33.8013 93.1531 33.708C93.2278 33.6147 93.3118 33.512 93.4051 33.4C93.4984 33.288 93.5871 33.162 93.6711 33.022C93.7551 32.8913 93.8298 32.742 93.8951 32.574C93.9698 32.4153 94.0211 32.2333 94.0491 32.028C93.4984 31.8133 93.2231 31.4493 93.2231 30.936ZM101.606 28.206C101.503 28.1127 101.429 27.9913 101.382 27.842C101.335 27.6927 101.312 27.5387 101.312 27.38C101.312 27.212 101.335 27.0533 101.382 26.904C101.438 26.7453 101.513 26.6147 101.606 26.512C101.606 26.344 101.597 26.0873 101.578 25.742C101.569 25.3873 101.555 25.0093 101.536 24.608C101.517 24.2067 101.503 23.8147 101.494 23.432C101.485 23.0493 101.485 22.7413 101.494 22.508C101.541 22.3587 101.629 22.2233 101.76 22.102C101.891 21.9713 102.045 21.8687 102.222 21.794C102.409 21.7193 102.609 21.6773 102.824 21.668C103.039 21.6493 103.253 21.6727 103.468 21.738C103.543 21.8687 103.599 22.074 103.636 22.354C103.683 22.634 103.715 22.9653 103.734 23.348C103.762 23.7307 103.781 24.1553 103.79 24.622C103.809 25.0793 103.823 25.56 103.832 26.064C104.243 26.0453 104.756 26.0127 105.372 25.966C105.988 25.91 106.73 25.8353 107.598 25.742C107.589 25.518 107.579 25.294 107.57 25.07C107.57 24.846 107.565 24.5987 107.556 24.328C107.556 24.0573 107.556 23.7587 107.556 23.432C107.556 23.1053 107.556 22.7273 107.556 22.298C107.64 22.0553 107.785 21.8733 107.99 21.752C108.195 21.6307 108.419 21.57 108.662 21.57C108.849 21.57 109.031 21.6167 109.208 21.71C109.385 21.794 109.525 21.9153 109.628 22.074C109.665 22.4473 109.698 22.8673 109.726 23.334C109.754 23.7913 109.773 24.2767 109.782 24.79C109.791 25.3033 109.796 25.8353 109.796 26.386C109.805 26.9273 109.81 27.464 109.81 27.996C109.81 28.612 109.81 29.2093 109.81 29.788C109.81 30.3667 109.819 30.894 109.838 31.37C109.791 31.6127 109.665 31.7993 109.46 31.93C109.255 32.0607 109.017 32.126 108.746 32.126C108.531 32.126 108.317 32.0747 108.102 31.972C107.897 31.8693 107.743 31.7013 107.64 31.468C107.64 31.188 107.64 30.8893 107.64 30.572C107.649 30.2453 107.654 29.914 107.654 29.578C107.663 29.242 107.668 28.9107 107.668 28.584C107.668 28.2573 107.668 27.9493 107.668 27.66C107.369 27.688 107.015 27.7253 106.604 27.772C106.203 27.8187 105.806 27.8653 105.414 27.912C105.031 27.9493 104.686 27.9913 104.378 28.038C104.07 28.0753 103.86 28.108 103.748 28.136C103.729 28.22 103.72 28.4067 103.72 28.696C103.729 28.976 103.739 29.2887 103.748 29.634C103.757 29.9793 103.767 30.3247 103.776 30.67C103.785 31.006 103.79 31.2673 103.79 31.454C103.79 31.594 103.757 31.7153 103.692 31.818C103.627 31.9207 103.543 32.0047 103.44 32.07C103.337 32.1447 103.221 32.196 103.09 32.224C102.959 32.2613 102.824 32.28 102.684 32.28C102.469 32.28 102.269 32.238 102.082 32.154C101.895 32.0793 101.765 31.9533 101.69 31.776L101.606 28.206ZM112.199 31.552C112.171 31.2813 112.148 30.9127 112.129 30.446C112.12 29.9793 112.111 29.4567 112.101 28.878C112.101 28.2993 112.101 27.6833 112.101 27.03C112.101 26.3767 112.101 25.7327 112.101 25.098C112.101 24.4633 112.101 23.8567 112.101 23.278C112.111 22.6993 112.115 22.1907 112.115 21.752C112.227 21.612 112.367 21.5047 112.535 21.43C112.703 21.346 112.881 21.2853 113.067 21.248C113.263 21.2107 113.459 21.192 113.655 21.192C113.851 21.1827 114.033 21.192 114.201 21.22C114.229 21.472 114.248 21.794 114.257 22.186C114.276 22.5687 114.285 22.9887 114.285 23.446C114.295 23.894 114.299 24.3653 114.299 24.86C114.299 25.3453 114.295 25.812 114.285 26.26C114.285 26.6987 114.285 27.1093 114.285 27.492C114.285 27.8653 114.285 28.164 114.285 28.388C114.491 28.0707 114.729 27.6787 114.999 27.212C115.279 26.7453 115.573 26.2553 115.881 25.742C116.199 25.2193 116.521 24.7013 116.847 24.188C117.174 23.6747 117.487 23.208 117.785 22.788C118.093 22.368 118.378 22.0227 118.639 21.752C118.901 21.4813 119.125 21.3273 119.311 21.29C119.405 21.318 119.512 21.3507 119.633 21.388C119.764 21.4253 119.895 21.472 120.025 21.528C120.156 21.584 120.277 21.6493 120.389 21.724C120.511 21.7893 120.609 21.8687 120.683 21.962C120.711 22.074 120.73 22.312 120.739 22.676C120.758 23.0307 120.763 23.4553 120.753 23.95C120.753 24.4353 120.749 24.958 120.739 25.518C120.739 26.0687 120.73 26.6007 120.711 27.114C120.702 27.6273 120.693 28.0893 120.683 28.5C120.683 28.9013 120.683 29.1953 120.683 29.382C120.683 29.7647 120.688 30.11 120.697 30.418C120.707 30.726 120.725 31.0013 120.753 31.244C120.707 31.4027 120.613 31.5427 120.473 31.664C120.333 31.776 120.175 31.8647 119.997 31.93C119.82 31.986 119.643 32.014 119.465 32.014C119.288 32.0233 119.139 31.9953 119.017 31.93C118.896 31.846 118.793 31.72 118.709 31.552C118.635 31.3747 118.569 31.1647 118.513 30.922C118.467 30.67 118.434 30.3947 118.415 30.096C118.397 29.7973 118.387 29.48 118.387 29.144C118.387 28.668 118.401 28.1313 118.429 27.534C118.467 26.9367 118.509 26.2087 118.555 25.35C118.331 25.714 118.075 26.1293 117.785 26.596C117.505 27.0533 117.211 27.5293 116.903 28.024C116.595 28.5093 116.283 28.9947 115.965 29.48C115.648 29.956 115.349 30.39 115.069 30.782C114.789 31.1647 114.537 31.4867 114.313 31.748C114.099 32 113.931 32.154 113.809 32.21C113.623 32.1727 113.459 32.14 113.319 32.112C113.189 32.0933 113.063 32.0653 112.941 32.028C112.829 31.9907 112.713 31.9393 112.591 31.874C112.479 31.7993 112.349 31.692 112.199 31.552ZM126.296 27.422C126.296 26.526 126.432 25.728 126.702 25.028C126.973 24.328 127.351 23.7353 127.836 23.25C128.322 22.7647 128.891 22.396 129.544 22.144C130.198 21.8827 130.912 21.752 131.686 21.752C132.088 21.752 132.484 21.7987 132.876 21.892C133.268 21.9853 133.623 22.1113 133.94 22.27C134.267 22.4287 134.542 22.62 134.766 22.844C134.99 23.0587 135.14 23.292 135.214 23.544C135.205 23.7027 135.158 23.852 135.074 23.992C135 24.1227 134.897 24.244 134.766 24.356C134.636 24.4587 134.486 24.5473 134.318 24.622C134.15 24.6967 133.978 24.748 133.8 24.776C133.679 24.6267 133.548 24.4867 133.408 24.356C133.268 24.2253 133.11 24.1087 132.932 24.006C132.755 23.9033 132.55 23.824 132.316 23.768C132.092 23.7027 131.836 23.67 131.546 23.67C131.182 23.67 130.814 23.7353 130.44 23.866C130.076 23.9967 129.745 24.216 129.446 24.524C129.157 24.8227 128.919 25.2193 128.732 25.714C128.546 26.2087 128.452 26.82 128.452 27.548C128.452 27.9587 128.522 28.332 128.662 28.668C128.812 28.9947 129.003 29.2747 129.236 29.508C129.47 29.732 129.731 29.9047 130.02 30.026C130.31 30.1473 130.594 30.208 130.874 30.208C131.182 30.208 131.462 30.18 131.714 30.124C131.976 30.0587 132.232 29.9467 132.484 29.788C132.736 29.6293 132.998 29.4193 133.268 29.158C133.539 28.8967 133.842 28.5607 134.178 28.15C134.356 28.1687 134.524 28.22 134.682 28.304C134.85 28.3787 134.995 28.486 135.116 28.626C135.247 28.7567 135.345 28.9107 135.41 29.088C135.485 29.2653 135.513 29.452 135.494 29.648C135.224 30.0587 134.906 30.4227 134.542 30.74C134.178 31.0573 133.786 31.3233 133.366 31.538C132.956 31.7527 132.526 31.916 132.078 32.028C131.64 32.1493 131.21 32.21 130.79 32.21C130.118 32.21 129.502 32.07 128.942 31.79C128.392 31.51 127.92 31.146 127.528 30.698C127.136 30.2407 126.833 29.7273 126.618 29.158C126.404 28.5887 126.296 28.01 126.296 27.422ZM136.871 30.726C136.955 30.6607 137.057 30.5627 137.179 30.432C137.309 30.3013 137.44 30.152 137.571 29.984C137.711 29.816 137.846 29.6387 137.977 29.452C138.107 29.256 138.219 29.0553 138.313 28.85C138.527 28.374 138.695 27.9073 138.817 27.45C138.947 26.9927 139.045 26.5447 139.111 26.106C139.176 25.6673 139.213 25.2427 139.223 24.832C139.232 24.4213 139.227 24.0247 139.209 23.642C139.041 23.6327 138.887 23.5953 138.747 23.53C138.607 23.4647 138.485 23.3853 138.383 23.292C138.28 23.1893 138.201 23.082 138.145 22.97C138.089 22.8487 138.061 22.7273 138.061 22.606C138.061 22.494 138.084 22.3587 138.131 22.2C138.187 22.032 138.247 21.8827 138.313 21.752C138.695 21.7053 139.167 21.6587 139.727 21.612C140.287 21.556 140.856 21.5047 141.435 21.458C142.023 21.4113 142.583 21.374 143.115 21.346C143.656 21.318 144.099 21.2993 144.445 21.29C144.631 21.29 144.823 21.36 145.019 21.5C145.215 21.6307 145.35 21.7847 145.425 21.962C145.49 22.5593 145.532 23.2687 145.551 24.09C145.579 24.9113 145.593 25.7607 145.593 26.638C145.593 27.5153 145.593 28.3787 145.593 29.228C145.593 30.068 145.607 30.8147 145.635 31.468C145.56 31.6827 145.401 31.8553 145.159 31.986C144.925 32.1167 144.692 32.182 144.459 32.182C144.225 32.182 144.001 32.126 143.787 32.014C143.581 31.9113 143.441 31.7433 143.367 31.51C143.367 31.2767 143.367 30.9593 143.367 30.558C143.376 30.1567 143.385 29.7087 143.395 29.214C143.404 28.71 143.413 28.1827 143.423 27.632C143.441 27.072 143.451 26.5307 143.451 26.008C143.46 25.476 143.465 24.9813 143.465 24.524C143.465 24.0573 143.46 23.67 143.451 23.362C143.049 23.3713 142.643 23.3853 142.233 23.404C141.822 23.4133 141.491 23.432 141.239 23.46C141.239 23.768 141.234 24.1553 141.225 24.622C141.215 25.0793 141.183 25.574 141.127 26.106C141.071 26.6287 140.987 27.1747 140.875 27.744C140.763 28.304 140.609 28.8453 140.413 29.368C140.291 29.6853 140.142 30.0073 139.965 30.334C139.787 30.6607 139.601 30.964 139.405 31.244C139.209 31.524 139.003 31.762 138.789 31.958C138.583 32.154 138.392 32.28 138.215 32.336C137.72 32.2707 137.375 32.1167 137.179 31.874C136.983 31.6313 136.88 31.2487 136.871 30.726ZM151.638 32.238C150.976 32.238 150.36 32.1167 149.79 31.874C149.23 31.622 148.74 31.272 148.32 30.824C147.9 30.3667 147.569 29.8207 147.326 29.186C147.093 28.542 146.976 27.8233 146.976 27.03C146.976 26.1713 147.121 25.4107 147.41 24.748C147.709 24.076 148.101 23.5113 148.586 23.054C149.072 22.5873 149.632 22.2327 150.266 21.99C150.901 21.7473 151.554 21.626 152.226 21.626C152.954 21.626 153.622 21.752 154.228 22.004C154.844 22.2467 155.372 22.592 155.81 23.04C156.258 23.488 156.604 24.0293 156.846 24.664C157.089 25.2893 157.21 25.9893 157.21 26.764C157.21 27.7067 157.042 28.5233 156.706 29.214C156.37 29.9047 155.936 30.474 155.404 30.922C154.872 31.37 154.275 31.7013 153.612 31.916C152.95 32.1307 152.292 32.238 151.638 32.238ZM151.736 30.152C152.044 30.152 152.39 30.1053 152.772 30.012C153.155 29.9187 153.514 29.746 153.85 29.494C154.186 29.242 154.471 28.8967 154.704 28.458C154.938 28.0193 155.054 27.4547 155.054 26.764C155.054 26.2507 154.975 25.798 154.816 25.406C154.667 25.014 154.462 24.692 154.2 24.44C153.948 24.1787 153.654 23.9827 153.318 23.852C152.992 23.7213 152.646 23.656 152.282 23.656C151.872 23.656 151.475 23.726 151.092 23.866C150.71 23.9967 150.369 24.202 150.07 24.482C149.772 24.7527 149.529 25.1027 149.342 25.532C149.165 25.9613 149.076 26.47 149.076 27.058C149.076 27.5713 149.142 28.024 149.272 28.416C149.403 28.7987 149.585 29.1207 149.818 29.382C150.061 29.634 150.346 29.8253 150.672 29.956C150.999 30.0867 151.354 30.152 151.736 30.152ZM159.111 31.202C159.065 30.698 159.023 30.194 158.985 29.69C158.957 29.186 158.929 28.6027 158.901 27.94C158.771 27.8747 158.677 27.772 158.621 27.632C158.565 27.4827 158.537 27.3287 158.537 27.17C158.537 27.0113 158.561 26.862 158.607 26.722C158.654 26.582 158.729 26.4653 158.831 26.372C158.822 26.1293 158.813 25.9193 158.803 25.742C158.803 25.5647 158.803 25.406 158.803 25.266C158.803 25.126 158.803 24.9907 158.803 24.86C158.803 24.7293 158.803 24.5847 158.803 24.426C158.439 24.09 158.257 23.656 158.257 23.124C158.864 22.62 159.545 22.2467 160.301 22.004C161.067 21.752 161.986 21.626 163.059 21.626C163.498 21.626 163.918 21.6587 164.319 21.724C164.721 21.78 165.075 21.8733 165.383 22.004C165.691 22.1347 165.934 22.3027 166.111 22.508C166.298 22.704 166.391 22.9467 166.391 23.236C166.391 23.796 166.251 24.2767 165.971 24.678C165.691 25.07 165.318 25.4247 164.851 25.742C165.159 25.798 165.439 25.8727 165.691 25.966C165.953 26.05 166.177 26.1667 166.363 26.316C166.55 26.456 166.695 26.6333 166.797 26.848C166.9 27.0627 166.951 27.3287 166.951 27.646C166.951 28.4393 166.741 29.1253 166.321 29.704C165.901 30.2733 165.36 30.7447 164.697 31.118C164.044 31.482 163.311 31.7573 162.499 31.944C161.697 32.1307 160.903 32.2287 160.119 32.238C159.877 32.238 159.676 32.1447 159.517 31.958C159.368 31.762 159.233 31.51 159.111 31.202ZM160.973 25.686C161.972 25.4993 162.756 25.2473 163.325 24.93C163.904 24.6127 164.193 24.216 164.193 23.74C164.193 23.6467 164.081 23.5767 163.857 23.53C163.633 23.4833 163.386 23.46 163.115 23.46C162.733 23.46 162.336 23.4973 161.925 23.572C161.524 23.6467 161.197 23.7353 160.945 23.838C160.936 23.9127 160.931 24.0293 160.931 24.188C160.931 24.3467 160.931 24.5193 160.931 24.706C160.941 24.8833 160.95 25.0653 160.959 25.252C160.969 25.4293 160.973 25.574 160.973 25.686ZM161.183 30.152C161.547 30.1053 161.939 30.026 162.359 29.914C162.789 29.7927 163.185 29.6387 163.549 29.452C163.913 29.2653 164.217 29.0413 164.459 28.78C164.711 28.5187 164.837 28.22 164.837 27.884C164.837 27.6973 164.749 27.5433 164.571 27.422C164.394 27.2913 164.1 27.226 163.689 27.226C163.493 27.226 163.269 27.2447 163.017 27.282C162.765 27.31 162.513 27.352 162.261 27.408C162.009 27.464 161.776 27.5293 161.561 27.604C161.347 27.6787 161.174 27.7533 161.043 27.828C161.043 28.2853 161.057 28.7193 161.085 29.13C161.113 29.5407 161.146 29.8813 161.183 30.152ZM167.577 31.706C167.558 31.622 167.596 31.4307 167.689 31.132C167.782 30.824 167.908 30.4507 168.067 30.012C168.226 29.564 168.412 29.0693 168.627 28.528C168.851 27.9773 169.084 27.422 169.327 26.862C169.57 26.2927 169.812 25.742 170.055 25.21C170.298 24.6687 170.526 24.1787 170.741 23.74C170.741 23.7307 170.736 23.726 170.727 23.726C170.718 23.7167 170.713 23.7073 170.713 23.698C170.666 23.6047 170.615 23.5113 170.559 23.418C170.512 23.3247 170.452 23.1847 170.377 22.998C170.536 22.634 170.722 22.3493 170.937 22.144C171.152 21.9293 171.446 21.808 171.819 21.78C172.024 21.836 172.248 21.9993 172.491 22.27C172.734 22.5407 172.976 22.8767 173.219 23.278C173.471 23.6793 173.723 24.132 173.975 24.636C174.227 25.14 174.47 25.658 174.703 26.19C174.946 26.722 175.174 27.254 175.389 27.786C175.604 28.3087 175.795 28.794 175.963 29.242C176.14 29.69 176.285 30.082 176.397 30.418C176.518 30.7447 176.607 30.9827 176.663 31.132C176.607 31.2627 176.509 31.3933 176.369 31.524C176.238 31.6453 176.084 31.7573 175.907 31.86C175.739 31.9533 175.562 32.0233 175.375 32.07C175.198 32.126 175.039 32.14 174.899 32.112C174.722 31.7667 174.563 31.4307 174.423 31.104C174.292 30.7773 174.171 30.488 174.059 30.236V30.18C173.452 30.2547 172.799 30.334 172.099 30.418C171.408 30.4927 170.75 30.5673 170.125 30.642C170.106 30.6607 170.088 30.6887 170.069 30.726C170.06 30.754 170.036 30.81 169.999 30.894C169.971 30.978 169.924 31.0993 169.859 31.258C169.794 31.4167 169.705 31.636 169.593 31.916C169.528 32.0467 169.42 32.1447 169.271 32.21C169.122 32.2847 168.954 32.322 168.767 32.322C168.59 32.322 168.398 32.2847 168.193 32.21C167.997 32.1447 167.824 32.042 167.675 31.902L167.577 31.706ZM173.331 28.248C173.256 28.0427 173.168 27.8187 173.065 27.576C172.972 27.3333 172.869 27.0907 172.757 26.848C172.645 26.6053 172.533 26.372 172.421 26.148C172.318 25.9147 172.22 25.7047 172.127 25.518C172.099 25.5833 172.066 25.6673 172.029 25.77C171.992 25.8633 171.926 26.0173 171.833 26.232C171.74 26.4467 171.614 26.7453 171.455 27.128C171.296 27.5013 171.086 28.0007 170.825 28.626L173.331 28.248ZM182.273 31.09C182.245 30.9313 182.222 30.684 182.203 30.348C182.194 30.0027 182.185 29.6107 182.175 29.172C182.166 28.724 182.161 28.2527 182.161 27.758C182.161 27.254 182.161 26.7733 182.161 26.316C182.161 25.8493 182.161 25.4247 182.161 25.042C182.161 24.65 182.157 24.3467 182.147 24.132C182.017 24.0013 181.914 23.8473 181.839 23.67C181.774 23.4927 181.741 23.3247 181.741 23.166C181.741 23.0073 181.769 22.8627 181.825 22.732C181.881 22.592 181.975 22.4707 182.105 22.368C182.292 22.284 182.553 22.1953 182.889 22.102C183.225 21.9993 183.599 21.9013 184.009 21.808C184.429 21.7147 184.868 21.6307 185.325 21.556C185.783 21.472 186.217 21.4067 186.627 21.36C187.047 21.304 187.43 21.2667 187.775 21.248C188.13 21.22 188.405 21.22 188.601 21.248C188.76 21.3507 188.881 21.486 188.965 21.654C189.059 21.8127 189.105 21.976 189.105 22.144C189.105 22.368 189.04 22.592 188.909 22.816C188.779 23.0307 188.606 23.18 188.391 23.264C188.195 23.264 187.915 23.278 187.551 23.306C187.197 23.3247 186.819 23.3573 186.417 23.404C186.016 23.4413 185.624 23.488 185.241 23.544C184.859 23.6 184.546 23.6607 184.303 23.726C184.303 23.9033 184.294 24.0667 184.275 24.216C184.266 24.3653 184.257 24.5147 184.247 24.664C184.238 24.804 184.229 24.9487 184.219 25.098C184.219 25.2473 184.224 25.4107 184.233 25.588C184.765 25.4387 185.255 25.3313 185.703 25.266C186.161 25.1913 186.581 25.154 186.963 25.154C187.393 25.154 187.813 25.21 188.223 25.322C188.634 25.4247 188.998 25.588 189.315 25.812C189.633 26.036 189.885 26.3253 190.071 26.68C190.267 27.0253 190.365 27.436 190.365 27.912C190.365 28.528 190.253 29.0647 190.029 29.522C189.815 29.97 189.525 30.3573 189.161 30.684C188.797 31.0013 188.377 31.2627 187.901 31.468C187.435 31.664 186.945 31.8227 186.431 31.944C185.918 32.056 185.405 32.1307 184.891 32.168C184.378 32.2147 183.902 32.2427 183.463 32.252C183.202 32.1773 182.955 32.0513 182.721 31.874C182.497 31.6873 182.348 31.426 182.273 31.09ZM184.317 30.222C184.728 30.2687 185.162 30.2593 185.619 30.194C186.086 30.1193 186.511 29.9933 186.893 29.816C187.285 29.6293 187.607 29.3867 187.859 29.088C188.121 28.7893 188.251 28.43 188.251 28.01C188.251 27.6833 188.097 27.45 187.789 27.31C187.481 27.17 187.089 27.1 186.613 27.1C186.361 27.1 186.109 27.114 185.857 27.142C185.605 27.17 185.372 27.2073 185.157 27.254C184.943 27.2913 184.751 27.3333 184.583 27.38C184.425 27.4267 184.313 27.4687 184.247 27.506L184.317 30.222ZM196.004 32.238C195.341 32.238 194.725 32.1167 194.156 31.874C193.596 31.622 193.106 31.272 192.686 30.824C192.266 30.3667 191.934 29.8207 191.692 29.186C191.458 28.542 191.342 27.8233 191.342 27.03C191.342 26.1713 191.486 25.4107 191.776 24.748C192.074 24.076 192.466 23.5113 192.952 23.054C193.437 22.5873 193.997 22.2327 194.632 21.99C195.266 21.7473 195.92 21.626 196.592 21.626C197.32 21.626 197.987 21.752 198.594 22.004C199.21 22.2467 199.737 22.592 200.176 23.04C200.624 23.488 200.969 24.0293 201.212 24.664C201.454 25.2893 201.576 25.9893 201.576 26.764C201.576 27.7067 201.408 28.5233 201.072 29.214C200.736 29.9047 200.302 30.474 199.77 30.922C199.238 31.37 198.64 31.7013 197.978 31.916C197.315 32.1307 196.657 32.238 196.004 32.238ZM196.102 30.152C196.41 30.152 196.755 30.1053 197.138 30.012C197.52 29.9187 197.88 29.746 198.216 29.494C198.552 29.242 198.836 28.8967 199.07 28.458C199.303 28.0193 199.42 27.4547 199.42 26.764C199.42 26.2507 199.34 25.798 199.182 25.406C199.032 25.014 198.827 24.692 198.566 24.44C198.314 24.1787 198.02 23.9827 197.684 23.852C197.357 23.7213 197.012 23.656 196.648 23.656C196.237 23.656 195.84 23.726 195.458 23.866C195.075 23.9967 194.734 24.202 194.436 24.482C194.137 24.7527 193.894 25.1027 193.708 25.532C193.53 25.9613 193.442 26.47 193.442 27.058C193.442 27.5713 193.507 28.024 193.638 28.416C193.768 28.7987 193.95 29.1207 194.184 29.382C194.426 29.634 194.711 29.8253 195.038 29.956C195.364 30.0867 195.719 30.152 196.102 30.152ZM202.468 30.726C202.552 30.6607 202.655 30.5627 202.776 30.432C202.907 30.3013 203.038 30.152 203.168 29.984C203.308 29.816 203.444 29.6387 203.574 29.452C203.705 29.256 203.817 29.0553 203.91 28.85C204.125 28.374 204.293 27.9073 204.414 27.45C204.545 26.9927 204.643 26.5447 204.708 26.106C204.774 25.6673 204.811 25.2427 204.82 24.832C204.83 24.4213 204.825 24.0247 204.806 23.642C204.638 23.6327 204.484 23.5953 204.344 23.53C204.204 23.4647 204.083 23.3853 203.98 23.292C203.878 23.1893 203.798 23.082 203.742 22.97C203.686 22.8487 203.658 22.7273 203.658 22.606C203.658 22.494 203.682 22.3587 203.728 22.2C203.784 22.032 203.845 21.8827 203.91 21.752C204.293 21.7053 204.764 21.6587 205.324 21.612C205.884 21.556 206.454 21.5047 207.032 21.458C207.62 21.4113 208.18 21.374 208.712 21.346C209.254 21.318 209.697 21.2993 210.042 21.29C210.229 21.29 210.42 21.36 210.616 21.5C210.812 21.6307 210.948 21.7847 211.022 21.962C211.088 22.5593 211.13 23.2687 211.148 24.09C211.176 24.9113 211.19 25.7607 211.19 26.638C211.19 27.5153 211.19 28.3787 211.19 29.228C211.19 30.068 211.204 30.8147 211.232 31.468C211.158 31.6827 210.999 31.8553 210.756 31.986C210.523 32.1167 210.29 32.182 210.056 32.182C209.823 32.182 209.599 32.126 209.384 32.014C209.179 31.9113 209.039 31.7433 208.964 31.51C208.964 31.2767 208.964 30.9593 208.964 30.558C208.974 30.1567 208.983 29.7087 208.992 29.214C209.002 28.71 209.011 28.1827 209.02 27.632C209.039 27.072 209.048 26.5307 209.048 26.008C209.058 25.476 209.062 24.9813 209.062 24.524C209.062 24.0573 209.058 23.67 209.048 23.362C208.647 23.3713 208.241 23.3853 207.83 23.404C207.42 23.4133 207.088 23.432 206.836 23.46C206.836 23.768 206.832 24.1553 206.822 24.622C206.813 25.0793 206.78 25.574 206.724 26.106C206.668 26.6287 206.584 27.1747 206.472 27.744C206.36 28.304 206.206 28.8453 206.01 29.368C205.889 29.6853 205.74 30.0073 205.562 30.334C205.385 30.6607 205.198 30.964 205.002 31.244C204.806 31.524 204.601 31.762 204.386 31.958C204.181 32.154 203.99 32.28 203.812 32.336C203.318 32.2707 202.972 32.1167 202.776 31.874C202.58 31.6313 202.478 31.2487 202.468 30.726ZM213.582 31.146C213.545 30.894 213.517 30.53 213.498 30.054C213.489 29.578 213.479 29.0507 213.47 28.472C213.47 27.884 213.47 27.268 213.47 26.624C213.47 25.98 213.465 25.3593 213.456 24.762C213.456 24.1553 213.451 23.6 213.442 23.096C213.433 22.5827 213.419 22.172 213.4 21.864C213.568 21.6773 213.731 21.5513 213.89 21.486C214.049 21.4207 214.198 21.388 214.338 21.388C214.553 21.388 214.767 21.416 214.982 21.472C215.206 21.5187 215.383 21.6073 215.514 21.738L215.528 25.602C216.06 25.462 216.55 25.3547 216.998 25.28C217.446 25.2053 217.866 25.168 218.258 25.168C218.687 25.168 219.103 25.224 219.504 25.336C219.915 25.4387 220.279 25.602 220.596 25.826C220.913 26.05 221.165 26.3393 221.352 26.694C221.548 27.0393 221.646 27.4547 221.646 27.94C221.646 28.556 221.539 29.0927 221.324 29.55C221.109 29.998 220.82 30.3807 220.456 30.698C220.092 31.006 219.672 31.2627 219.196 31.468C218.729 31.664 218.239 31.8227 217.726 31.944C217.213 32.056 216.699 32.1307 216.186 32.168C215.673 32.2147 215.197 32.2427 214.758 32.252C214.497 32.1773 214.254 32.056 214.03 31.888C213.806 31.7107 213.657 31.4633 213.582 31.146ZM215.612 30.236C216.023 30.264 216.457 30.2453 216.914 30.18C217.371 30.1147 217.791 29.9933 218.174 29.816C218.566 29.6387 218.888 29.4053 219.14 29.116C219.392 28.8173 219.518 28.4533 219.518 28.024C219.518 27.6973 219.369 27.4687 219.07 27.338C218.771 27.198 218.384 27.128 217.908 27.128C217.656 27.128 217.404 27.142 217.152 27.17C216.9 27.198 216.662 27.2353 216.438 27.282C216.223 27.3193 216.037 27.3613 215.878 27.408C215.719 27.4547 215.612 27.4967 215.556 27.534L215.612 30.236ZM223.076 31.16C223.057 30.488 223.039 29.76 223.02 28.976C223.011 28.1827 223.011 27.3753 223.02 26.554C223.029 25.7327 223.057 24.9207 223.104 24.118C223.151 23.306 223.23 22.5547 223.342 21.864C223.51 21.8173 223.701 21.794 223.916 21.794C224.131 21.7847 224.336 21.7987 224.532 21.836C224.737 21.8733 224.924 21.934 225.092 22.018C225.26 22.102 225.381 22.214 225.456 22.354C225.419 22.6247 225.386 22.9607 225.358 23.362C225.339 23.754 225.321 24.1833 225.302 24.65C225.283 25.1167 225.265 25.6067 225.246 26.12C225.237 26.6333 225.227 27.142 225.218 27.646C225.218 28.15 225.218 28.6353 225.218 29.102C225.218 29.5593 225.223 29.9747 225.232 30.348C225.503 30.3293 225.829 30.3107 226.212 30.292C226.595 30.264 227.117 30.2267 227.78 30.18C227.789 29.9373 227.794 29.6153 227.794 29.214C227.794 28.8127 227.789 28.374 227.78 27.898C227.78 27.422 227.775 26.9273 227.766 26.414C227.766 25.8913 227.761 25.3873 227.752 24.902C227.752 24.4167 227.752 23.9733 227.752 23.572C227.761 23.1613 227.775 22.8253 227.794 22.564C227.85 22.4333 227.953 22.326 228.102 22.242C228.261 22.158 228.438 22.0973 228.634 22.06C228.83 22.0133 229.031 21.99 229.236 21.99C229.451 21.99 229.637 22.004 229.796 22.032C229.843 22.4987 229.875 23.0633 229.894 23.726C229.913 24.3793 229.927 25.07 229.936 25.798C229.945 26.526 229.945 27.2633 229.936 28.01C229.927 28.7473 229.917 29.438 229.908 30.082C230.328 30.0633 230.757 30.0493 231.196 30.04C231.635 30.0213 232.008 29.9887 232.316 29.942C232.325 29.6247 232.33 29.2467 232.33 28.808C232.33 28.3693 232.325 27.9073 232.316 27.422C232.316 26.9273 232.311 26.4233 232.302 25.91C232.302 25.3967 232.297 24.9067 232.288 24.44C232.288 23.964 232.293 23.5253 232.302 23.124C232.311 22.7227 232.325 22.3913 232.344 22.13C232.428 21.934 232.591 21.7893 232.834 21.696C233.077 21.6027 233.324 21.556 233.576 21.556C233.744 21.556 233.959 21.6027 234.22 21.696C234.304 21.9107 234.369 22.2513 234.416 22.718C234.463 23.1753 234.495 23.698 234.514 24.286C234.533 24.8647 234.542 25.476 234.542 26.12C234.542 26.764 234.533 27.3753 234.514 27.954C234.505 28.5233 234.491 29.0273 234.472 29.466C234.453 29.9047 234.439 30.2127 234.43 30.39C234.411 30.7353 234.304 31.0387 234.108 31.3C233.912 31.5613 233.683 31.7527 233.422 31.874L224.126 32.518C223.734 32.3593 223.468 32.1773 223.328 31.972C223.188 31.7573 223.104 31.4867 223.076 31.16ZM236.834 27.87C236.731 27.7673 236.657 27.6507 236.61 27.52C236.563 27.3893 236.54 27.2493 236.54 27.1C236.54 26.9413 236.568 26.7873 236.624 26.638C236.68 26.4887 236.755 26.3627 236.848 26.26C236.857 25.9427 236.867 25.672 236.876 25.448C236.885 25.2147 236.895 25.0187 236.904 24.86C236.913 24.692 236.918 24.552 236.918 24.44C236.918 24.3187 236.918 24.2113 236.918 24.118C236.731 23.9593 236.596 23.768 236.512 23.544C236.428 23.32 236.386 23.0727 236.386 22.802C236.601 22.6247 236.792 22.4847 236.96 22.382C237.137 22.2793 237.361 22.1627 237.632 22.032C237.893 22.0227 238.215 22.004 238.598 21.976C238.981 21.948 239.391 21.9247 239.83 21.906C240.269 21.878 240.712 21.8547 241.16 21.836C241.608 21.808 242.023 21.7893 242.406 21.78C242.798 21.7613 243.134 21.752 243.414 21.752C243.703 21.752 243.904 21.766 244.016 21.794C244.119 21.934 244.189 22.0787 244.226 22.228C244.273 22.368 244.296 22.5033 244.296 22.634C244.296 22.8487 244.24 23.054 244.128 23.25C244.025 23.446 243.876 23.5813 243.68 23.656C243.353 23.7213 242.989 23.7727 242.588 23.81C242.196 23.838 241.79 23.866 241.37 23.894C240.959 23.922 240.553 23.95 240.152 23.978C239.751 24.006 239.387 24.0387 239.06 24.076C239.051 24.3467 239.041 24.6407 239.032 24.958C239.032 25.266 239.041 25.5553 239.06 25.826C239.293 25.8167 239.583 25.8027 239.928 25.784C240.273 25.756 240.642 25.728 241.034 25.7C241.426 25.6627 241.823 25.6253 242.224 25.588C242.625 25.5507 243.003 25.5087 243.358 25.462C243.545 25.5833 243.675 25.7327 243.75 25.91C243.834 26.078 243.876 26.2413 243.876 26.4C243.876 26.624 243.82 26.8433 243.708 27.058C243.605 27.2727 243.451 27.4267 243.246 27.52C242.798 27.576 242.299 27.6273 241.748 27.674C241.197 27.7113 240.675 27.744 240.18 27.772C239.9 27.7907 239.671 27.8047 239.494 27.814C239.326 27.814 239.149 27.8233 238.962 27.842C238.943 28.1407 238.925 28.4907 238.906 28.892C238.897 29.284 238.892 29.732 238.892 30.236C239.209 30.2173 239.559 30.1893 239.942 30.152C240.334 30.1147 240.731 30.0633 241.132 29.998C241.543 29.9327 241.953 29.858 242.364 29.774C242.784 29.69 243.185 29.592 243.568 29.48C243.867 29.4987 244.086 29.6153 244.226 29.83C244.375 30.0447 244.45 30.2967 244.45 30.586C244.45 30.67 244.436 30.7727 244.408 30.894C244.389 31.0153 244.347 31.1553 244.282 31.314C243.825 31.5287 243.33 31.7013 242.798 31.832C242.275 31.9627 241.734 32.0607 241.174 32.126C240.623 32.2007 240.068 32.252 239.508 32.28C238.957 32.3173 238.43 32.3453 237.926 32.364C237.786 32.308 237.66 32.252 237.548 32.196C237.445 32.14 237.347 32.0747 237.254 32C237.17 31.9253 237.086 31.8413 237.002 31.748C236.918 31.6453 236.825 31.5193 236.722 31.37L236.834 27.87ZM246.361 28.542C246.314 28.458 246.295 28.2107 246.305 27.8C246.314 27.3893 246.337 26.8807 246.375 26.274C246.412 25.6673 246.459 24.9953 246.515 24.258C246.571 23.5207 246.627 22.788 246.683 22.06C246.683 22.0133 246.725 21.962 246.809 21.906C246.902 21.85 247.019 21.7987 247.159 21.752C247.299 21.696 247.453 21.654 247.621 21.626C247.789 21.5887 247.957 21.5747 248.125 21.584C248.293 21.584 248.447 21.6073 248.587 21.654C248.736 21.7007 248.853 21.7753 248.937 21.878C248.89 22.242 248.834 22.6853 248.769 23.208C248.713 23.7307 248.647 24.2813 248.573 24.86C248.507 25.4387 248.433 26.0313 248.349 26.638C248.274 27.2353 248.195 27.8 248.111 28.332C248.036 28.416 247.919 28.486 247.761 28.542C247.611 28.598 247.448 28.6353 247.271 28.654C247.103 28.6727 246.93 28.6773 246.753 28.668C246.585 28.6493 246.454 28.6073 246.361 28.542ZM245.759 30.95C245.796 30.7913 245.843 30.642 245.899 30.502C245.964 30.362 246.053 30.2407 246.165 30.138C246.286 30.026 246.435 29.9373 246.613 29.872C246.799 29.8067 247.028 29.774 247.299 29.774C247.42 29.774 247.551 29.7973 247.691 29.844C247.831 29.8907 247.961 29.9653 248.083 30.068C248.204 30.1707 248.307 30.3013 248.391 30.46C248.475 30.6187 248.526 30.8147 248.545 31.048C248.489 31.2907 248.395 31.4913 248.265 31.65C248.134 31.8087 247.989 31.93 247.831 32.014C247.672 32.1073 247.504 32.1727 247.327 32.21C247.159 32.2473 247.005 32.266 246.865 32.266C246.445 32.1633 246.155 32 245.997 31.776C245.838 31.5427 245.759 31.2673 245.759 30.95Z" fill="white"/>
<circle cx="16" cy="12" r="1" fill="#9D0000"/>
<circle cx="259" cy="12" r="1" fill="#9D0000"/>
<circle cx="16" cy="40" r="1" fill="#9D0000"/>
<circle cx="259" cy="40" r="1" fill="#9D0000"/>
</g>
<defs>
<filter id="filter0_d" x="0" y="0" width="275" height="64" filterUnits="userSpaceOnUse" color-interpolation-filters="sRGB">
<feFlood flood-opacity="0" result="BackgroundImageFix"/>
<feColorMatrix in="SourceAlpha" type="matrix" values="0 0 0 0 0 0 0 0 0 0 0 0 0 0 0 0 0 0 127 0"/>
<feOffset dy="4"/>
<feGaussianBlur stdDeviation="5"/>
<feColorMatrix type="matrix" values="0 0 0 0 0 0 0 0 0 0 0 0 0 0 0 0 0 0 0.25 0"/>
<feBlend mode="normal" in2="BackgroundImageFix" result="effect1_dropShadow"/>
<feBlend mode="normal" in="SourceGraphic" in2="effect1_dropShadow" result="shape"/>
</filter>
</defs>
</svg>
