<svg width="765" height="47" viewBox="0 0 765 47" fill="none" xmlns="http://www.w3.org/2000/svg">
<rect x="0.5" y="7.5" width="254" height="39" rx="5.5" fill="#9D0000" stroke="#9D0000"/>
<rect x="0.5" y="3.5" width="254" height="41" rx="5.5" fill="#E53935" stroke="#9D0000"/>
<path d="M16.5552 27.81C16.3032 28.734 17.1852 29.294 17.5772 29.336C19.0752 29.21 20.7272 26.676 21.3572 25.052C21.7912 25.024 22.2532 24.954 22.6592 24.87L22.5752 28.874C23.0232 29.168 23.4572 29.28 23.7512 29.28C24.0452 29.28 24.3252 29.182 24.5352 28.972C24.6472 27.558 24.6752 25.43 24.6752 23.568C24.6752 22 24.6472 20.586 24.6192 19.998C24.5772 19.368 24.1572 18.99 23.6812 18.766C22.9952 18.668 22.1552 18.584 21.3432 18.584C18.9772 18.584 16.4292 19.228 16.4292 21.916C16.4292 23.512 17.9412 24.646 19.2152 24.94C18.7952 25.808 17.7872 27.236 16.5552 27.81ZM18.4452 21.916C18.4452 20.782 19.7892 20.362 21.0772 20.362C21.5952 20.362 22.1132 20.432 22.5892 20.544L22.6732 23.092C22.3792 23.162 21.5112 23.288 20.6992 23.288C19.5652 23.288 18.4452 22.924 18.4452 21.916ZM31.0413 28.65C31.2793 29.084 31.6153 29.224 32.0073 29.224C32.4273 29.224 32.9313 29 33.2113 28.552C33.1973 27.264 33.0853 21.818 33.0993 20.67C33.5333 20.516 35.9833 20.39 37.2013 20.362C37.3413 21.762 37.2013 27.558 37.2153 28.44C37.4953 28.818 37.9153 29 38.3213 29C38.7973 29 39.2873 28.748 39.4273 28.258C39.3993 26.004 39.5113 19.886 39.2873 18.962C39.0493 18.584 38.7693 18.388 38.4333 18.304C35.4513 18.332 33.4073 18.626 32.6093 18.752C32.4973 18.682 32.4133 18.64 32.1613 18.584C31.8953 18.584 30.9013 18.99 30.6493 19.606C30.6913 19.97 30.7333 20.194 30.9013 20.46C30.9573 21.538 30.9013 27.922 31.0413 28.65ZM45.4977 29.238C48.1157 29.238 51.0697 27.544 51.0697 23.764C51.0697 20.67 49.0117 18.626 46.0857 18.626C43.3837 18.626 40.8357 20.6 40.8357 24.03C40.8357 27.194 42.8657 29.238 45.4977 29.238ZM45.5957 27.152C44.0557 27.152 42.9357 26.116 42.9357 24.058C42.9357 21.706 44.5177 20.656 46.1417 20.656C47.5837 20.656 48.9137 21.692 48.9137 23.764C48.9137 26.522 46.8137 27.152 45.5957 27.152ZM52.9986 28.776C53.1526 29.126 53.5726 29.28 53.9926 29.28C54.5386 29.28 55.0986 29 55.0986 28.454C55.0986 27.698 55.0006 25.472 55.0566 25.136C55.4906 25.024 57.7726 24.786 58.9766 24.66C58.9766 25.822 58.9626 27.348 58.9486 28.468C59.1586 28.93 59.6346 29.126 60.0546 29.126C60.5866 29.126 61.0626 28.846 61.1466 28.37C61.1186 27.432 61.1186 26.214 61.1186 24.996C61.1186 22.854 61.1046 20.558 60.9366 19.074C60.7266 18.752 60.3346 18.57 59.9706 18.57C59.4946 18.57 59.0326 18.808 58.8646 19.298C58.8646 21.006 58.8786 21.86 58.9066 22.742C57.1846 22.924 55.9526 23.022 55.1406 23.064C55.0986 21.062 55.0706 19.27 54.7766 18.738C53.9366 18.486 52.9846 18.892 52.8026 19.508C52.7606 20.446 52.9146 22.84 52.9146 23.512C52.5366 23.932 52.5086 24.814 52.9146 25.206L52.9986 28.776ZM63.354 27.81C63.102 28.734 63.984 29.294 64.376 29.336C65.874 29.21 67.526 26.676 68.156 25.052C68.59 25.024 69.052 24.954 69.458 24.87L69.374 28.874C69.822 29.168 70.256 29.28 70.55 29.28C70.844 29.28 71.124 29.182 71.334 28.972C71.446 27.558 71.474 25.43 71.474 23.568C71.474 22 71.446 20.586 71.418 19.998C71.376 19.368 70.956 18.99 70.48 18.766C69.794 18.668 68.954 18.584 68.142 18.584C65.776 18.584 63.228 19.228 63.228 21.916C63.228 23.512 64.74 24.646 66.014 24.94C65.594 25.808 64.586 27.236 63.354 27.81ZM65.244 21.916C65.244 20.782 66.588 20.362 67.876 20.362C68.394 20.362 68.912 20.432 69.388 20.544L69.472 23.092C69.178 23.162 68.31 23.288 67.498 23.288C66.364 23.288 65.244 22.924 65.244 21.916ZM72.9216 27.726C72.9496 28.762 73.2716 29.21 74.2656 29.336C74.9936 29.112 75.9736 27.628 76.4636 26.368C77.2616 24.282 77.2896 21.706 77.2896 20.46C77.7936 20.404 78.7036 20.376 79.5016 20.362C79.5576 22.224 79.4176 27.138 79.4176 28.51C79.5576 28.972 80.0476 29.182 80.5096 29.182C80.9856 29.182 81.5316 28.902 81.6856 28.468C81.5736 25.864 81.7556 21.356 81.4756 18.962C81.3216 18.612 80.8596 18.29 80.4956 18.29C79.1096 18.318 75.9036 18.556 74.3636 18.752C74.2376 19.018 74.1116 19.382 74.1116 19.606C74.1116 20.082 74.6016 20.586 75.2596 20.642C75.3436 22.168 75.2176 23.96 74.3636 25.85C73.9996 26.662 73.2436 27.446 72.9216 27.726ZM83.2231 27.936C83.2231 28.426 83.5031 28.818 84.0491 29.028C83.9371 29.84 83.4611 30.33 83.1531 30.708C83.2791 31.072 83.8251 31.534 84.3291 31.38C85.4631 30.176 85.9811 29.308 85.9811 27.978C85.9811 27.334 85.3091 26.76 84.7351 26.76C83.7271 26.76 83.3071 27.32 83.2231 27.936ZM91.69 28.776C91.844 29.126 92.264 29.28 92.684 29.28C93.23 29.28 93.79 29 93.79 28.454C93.79 27.698 93.692 25.472 93.748 25.136C94.182 25.024 96.464 24.786 97.668 24.66C97.668 25.822 97.654 27.348 97.64 28.468C97.85 28.93 98.326 29.126 98.746 29.126C99.278 29.126 99.754 28.846 99.838 28.37C99.81 27.432 99.81 26.214 99.81 24.996C99.81 22.854 99.796 20.558 99.628 19.074C99.418 18.752 99.026 18.57 98.662 18.57C98.186 18.57 97.724 18.808 97.556 19.298C97.556 21.006 97.57 21.86 97.598 22.742C95.876 22.924 94.644 23.022 93.832 23.064C93.79 21.062 93.762 19.27 93.468 18.738C92.628 18.486 91.676 18.892 91.494 19.508C91.452 20.446 91.606 22.84 91.606 23.512C91.228 23.932 91.2 24.814 91.606 25.206L91.69 28.776ZM102.199 28.552C102.801 29.112 103.067 29.056 103.809 29.21C104.537 28.888 107.239 24.52 108.555 22.35C108.471 24.058 108.387 25.192 108.387 26.144C108.387 27.474 108.541 28.608 109.017 28.93C109.507 29.182 110.571 28.888 110.753 28.244C110.697 27.768 110.683 27.138 110.683 26.382C110.669 25.262 110.865 19.648 110.683 18.962C110.389 18.598 109.675 18.388 109.311 18.29C108.219 18.486 105.517 23.456 104.285 25.388C104.271 24.016 104.369 19.718 104.201 18.22C103.515 18.122 102.577 18.206 102.115 18.752C102.115 21.356 102.045 26.956 102.199 28.552ZM116.296 24.422C116.296 26.76 118.088 29.21 120.79 29.21C122.484 29.21 124.416 28.272 125.494 26.648C125.564 25.85 124.878 25.206 124.178 25.15C122.848 26.774 122.106 27.208 120.874 27.208C119.74 27.208 118.452 26.2 118.452 24.548C118.452 21.636 120.09 20.67 121.546 20.67C122.722 20.67 123.31 21.188 123.8 21.776C124.514 21.664 125.186 21.16 125.214 20.544C124.92 19.536 123.31 18.752 121.686 18.752C118.606 18.752 116.296 20.852 116.296 24.422ZM126.871 27.726C126.899 28.762 127.221 29.21 128.215 29.336C128.943 29.112 129.923 27.628 130.413 26.368C131.211 24.282 131.239 21.706 131.239 20.46C131.743 20.404 132.653 20.376 133.451 20.362C133.507 22.224 133.367 27.138 133.367 28.51C133.507 28.972 133.997 29.182 134.459 29.182C134.935 29.182 135.481 28.902 135.635 28.468C135.523 25.864 135.705 21.356 135.425 18.962C135.271 18.612 134.809 18.29 134.445 18.29C133.059 18.318 129.853 18.556 128.313 18.752C128.187 19.018 128.061 19.382 128.061 19.606C128.061 20.082 128.551 20.586 129.209 20.642C129.293 22.168 129.167 23.96 128.313 25.85C127.949 26.662 127.193 27.446 126.871 27.726ZM141.638 29.238C144.256 29.238 147.21 27.544 147.21 23.764C147.21 20.67 145.152 18.626 142.226 18.626C139.524 18.626 136.976 20.6 136.976 24.03C136.976 27.194 139.006 29.238 141.638 29.238ZM141.736 27.152C140.196 27.152 139.076 26.116 139.076 24.058C139.076 21.706 140.658 20.656 142.282 20.656C143.724 20.656 145.054 21.692 145.054 23.764C145.054 26.522 142.954 27.152 141.736 27.152ZM149.111 28.202C149.349 28.818 149.629 29.238 150.119 29.238C153.241 29.182 156.951 27.824 156.951 24.646C156.951 23.386 156.069 22.966 154.851 22.742C155.775 22.112 156.391 21.342 156.391 20.236C156.391 19.088 154.823 18.626 153.059 18.626C150.917 18.626 149.475 19.116 148.257 20.124C148.257 20.642 148.439 21.09 148.803 21.426C148.803 22.056 148.803 22.392 148.831 23.372C148.621 23.554 148.537 23.862 148.537 24.17C148.537 24.492 148.635 24.814 148.901 24.94C148.957 26.256 149.013 27.194 149.111 28.202ZM150.973 22.686C150.959 22.224 150.903 21.132 150.945 20.838C151.449 20.642 152.359 20.46 153.115 20.46C153.661 20.46 154.193 20.558 154.193 20.74C154.193 21.678 152.961 22.308 150.973 22.686ZM151.183 27.152C151.113 26.606 151.043 25.738 151.043 24.828C151.561 24.52 152.891 24.226 153.689 24.226C154.501 24.226 154.837 24.52 154.837 24.884C154.837 26.214 152.625 26.97 151.183 27.152ZM157.675 28.902C157.969 29.182 158.417 29.322 158.767 29.322C159.145 29.322 159.467 29.182 159.593 28.916C160.041 27.81 160.069 27.726 160.125 27.642C161.371 27.488 162.855 27.334 164.059 27.18V27.236C164.283 27.74 164.549 28.426 164.899 29.112C165.473 29.21 166.439 28.65 166.663 28.132C166.243 26.942 163.499 19.256 161.819 18.78C161.077 18.836 160.699 19.27 160.377 19.998C160.531 20.362 160.615 20.516 160.713 20.698C160.713 20.712 160.741 20.726 160.741 20.74C159.453 23.344 157.479 28.216 157.577 28.706L157.675 28.902ZM160.825 25.626C161.889 23.134 162.015 22.77 162.127 22.518C162.491 23.246 163.037 24.422 163.331 25.248L160.825 25.626ZM172.273 28.09C172.427 28.762 172.945 29.098 173.463 29.252C176.123 29.21 180.365 28.622 180.365 24.912C180.365 22.994 178.699 22.154 176.963 22.154C176.207 22.154 175.283 22.294 174.233 22.588C174.205 21.874 174.289 21.426 174.303 20.726C175.283 20.46 177.593 20.264 178.391 20.264C178.825 20.096 179.105 19.592 179.105 19.144C179.105 18.808 178.923 18.444 178.601 18.248C177.411 18.094 173.211 18.836 172.105 19.368C171.839 19.564 171.741 19.858 171.741 20.166C171.741 20.474 171.881 20.88 172.147 21.132C172.189 22.434 172.105 27.152 172.273 28.09ZM174.317 27.222L174.247 24.506C174.513 24.366 175.619 24.1 176.613 24.1C177.565 24.1 178.251 24.352 178.251 25.01C178.251 26.704 175.969 27.39 174.317 27.222ZM186.004 29.238C188.622 29.238 191.576 27.544 191.576 23.764C191.576 20.67 189.518 18.626 186.592 18.626C183.89 18.626 181.342 20.6 181.342 24.03C181.342 27.194 183.372 29.238 186.004 29.238ZM186.102 27.152C184.562 27.152 183.442 26.116 183.442 24.058C183.442 21.706 185.024 20.656 186.648 20.656C188.09 20.656 189.42 21.692 189.42 23.764C189.42 26.522 187.32 27.152 186.102 27.152ZM192.468 27.726C192.496 28.762 192.818 29.21 193.812 29.336C194.54 29.112 195.52 27.628 196.01 26.368C196.808 24.282 196.836 21.706 196.836 20.46C197.34 20.404 198.25 20.376 199.048 20.362C199.104 22.224 198.964 27.138 198.964 28.51C199.104 28.972 199.594 29.182 200.056 29.182C200.532 29.182 201.078 28.902 201.232 28.468C201.12 25.864 201.302 21.356 201.022 18.962C200.868 18.612 200.406 18.29 200.042 18.29C198.656 18.318 195.45 18.556 193.91 18.752C193.784 19.018 193.658 19.382 193.658 19.606C193.658 20.082 194.148 20.586 194.806 20.642C194.89 22.168 194.764 23.96 193.91 25.85C193.546 26.662 192.79 27.446 192.468 27.726ZM203.582 28.146C203.736 28.776 204.24 29.098 204.758 29.252C207.418 29.21 211.646 28.636 211.646 24.94C211.646 23.008 209.966 22.168 208.258 22.168C207.488 22.168 206.592 22.322 205.528 22.602L205.514 18.738C205.248 18.472 204.772 18.388 204.338 18.388C204.058 18.388 203.736 18.5 203.4 18.864C203.54 20.726 203.386 26.606 203.582 28.146ZM205.612 27.236L205.556 24.534C205.794 24.38 206.914 24.128 207.908 24.128C208.846 24.128 209.518 24.366 209.518 25.024C209.518 26.732 207.264 27.362 205.612 27.236ZM213.076 28.16C213.132 28.804 213.356 29.196 214.126 29.518L223.422 28.874C223.94 28.636 224.388 28.076 224.43 27.39C224.486 26.34 224.738 19.956 224.22 18.696C223.982 18.612 223.744 18.556 223.576 18.556C223.072 18.556 222.512 18.738 222.344 19.13C222.218 20.712 222.386 25.024 222.316 26.942C221.7 27.04 220.734 27.054 219.908 27.082C219.95 24.52 219.978 20.908 219.796 19.032C219.152 18.906 218.018 19.046 217.794 19.564C217.696 21.104 217.85 25.724 217.78 27.18C216.464 27.264 215.764 27.32 215.232 27.348C215.176 25.122 215.26 20.964 215.456 19.354C215.148 18.808 214.028 18.682 213.342 18.864C212.894 21.636 213.006 25.486 213.076 28.16ZM226.722 28.37C227.142 28.958 227.352 29.14 227.926 29.364C229.956 29.294 232.462 29.168 234.282 28.314C234.408 28.006 234.45 27.754 234.45 27.586C234.45 27.012 234.156 26.522 233.568 26.48C232.028 26.914 230.18 27.166 228.892 27.236C228.892 26.228 228.92 25.444 228.962 24.842C229.326 24.814 229.62 24.814 230.18 24.772C231.16 24.716 232.35 24.632 233.246 24.52C233.652 24.338 233.876 23.848 233.876 23.4C233.876 23.078 233.736 22.7 233.358 22.462C231.958 22.63 229.998 22.784 229.06 22.826C229.032 22.28 229.046 21.622 229.06 21.076C230.376 20.908 232.378 20.908 233.68 20.656C234.072 20.516 234.296 20.068 234.296 19.634C234.296 19.382 234.212 19.074 234.016 18.794C233.344 18.64 229.186 18.948 227.632 19.032C227.086 19.298 226.82 19.438 226.386 19.802C226.386 20.348 226.554 20.81 226.918 21.118C226.918 21.482 226.904 22 226.848 23.26C226.666 23.456 226.54 23.792 226.54 24.1C226.54 24.394 226.624 24.674 226.834 24.87L226.722 28.37ZM236.361 25.542C236.753 25.794 237.831 25.654 238.111 25.332C238.447 23.204 238.755 20.348 238.937 18.878C238.419 18.234 236.697 18.78 236.683 19.06C236.473 21.986 236.179 25.206 236.361 25.542ZM235.759 27.95C235.759 28.58 236.039 29.056 236.865 29.266C237.439 29.252 238.307 29.028 238.545 28.048C238.475 27.124 237.803 26.774 237.299 26.774C236.221 26.774 235.899 27.32 235.759 27.95Z" fill="white"/>
<circle cx="6" cy="9" r="1" fill="#9D0000"/>
<circle cx="249" cy="9" r="1" fill="#9D0000"/>
<circle cx="6" cy="37" r="1" fill="#9D0000"/>
<circle cx="249" cy="37" r="1" fill="#9D0000"/>
<rect x="510.5" y="7.5" width="254" height="39" rx="5.5" fill="#9D0000" stroke="#9D0000"/>
<rect x="510.5" y="4.5" width="254" height="41" rx="5.5" fill="#BF2E2B" stroke="#9D0000"/>
<path d="M526.555 29.81C526.303 30.734 527.185 31.294 527.577 31.336C529.075 31.21 530.727 28.676 531.357 27.052C531.791 27.024 532.253 26.954 532.659 26.87L532.575 30.874C533.023 31.168 533.457 31.28 533.751 31.28C534.045 31.28 534.325 31.182 534.535 30.972C534.647 29.558 534.675 27.43 534.675 25.568C534.675 24 534.647 22.586 534.619 21.998C534.577 21.368 534.157 20.99 533.681 20.766C532.995 20.668 532.155 20.584 531.343 20.584C528.977 20.584 526.429 21.228 526.429 23.916C526.429 25.512 527.941 26.646 529.215 26.94C528.795 27.808 527.787 29.236 526.555 29.81ZM528.445 23.916C528.445 22.782 529.789 22.362 531.077 22.362C531.595 22.362 532.113 22.432 532.589 22.544L532.673 25.092C532.379 25.162 531.511 25.288 530.699 25.288C529.565 25.288 528.445 24.924 528.445 23.916ZM541.041 30.65C541.279 31.084 541.615 31.224 542.007 31.224C542.427 31.224 542.931 31 543.211 30.552C543.197 29.264 543.085 23.818 543.099 22.67C543.533 22.516 545.983 22.39 547.201 22.362C547.341 23.762 547.201 29.558 547.215 30.44C547.495 30.818 547.915 31 548.321 31C548.797 31 549.287 30.748 549.427 30.258C549.399 28.004 549.511 21.886 549.287 20.962C549.049 20.584 548.769 20.388 548.433 20.304C545.451 20.332 543.407 20.626 542.609 20.752C542.497 20.682 542.413 20.64 542.161 20.584C541.895 20.584 540.901 20.99 540.649 21.606C540.691 21.97 540.733 22.194 540.901 22.46C540.957 23.538 540.901 29.922 541.041 30.65ZM555.498 31.238C558.116 31.238 561.07 29.544 561.07 25.764C561.07 22.67 559.012 20.626 556.086 20.626C553.384 20.626 550.836 22.6 550.836 26.03C550.836 29.194 552.866 31.238 555.498 31.238ZM555.596 29.152C554.056 29.152 552.936 28.116 552.936 26.058C552.936 23.706 554.518 22.656 556.142 22.656C557.584 22.656 558.914 23.692 558.914 25.764C558.914 28.522 556.814 29.152 555.596 29.152ZM562.999 30.776C563.153 31.126 563.573 31.28 563.993 31.28C564.539 31.28 565.099 31 565.099 30.454C565.099 29.698 565.001 27.472 565.057 27.136C565.491 27.024 567.773 26.786 568.977 26.66C568.977 27.822 568.963 29.348 568.949 30.468C569.159 30.93 569.635 31.126 570.055 31.126C570.587 31.126 571.063 30.846 571.147 30.37C571.119 29.432 571.119 28.214 571.119 26.996C571.119 24.854 571.105 22.558 570.937 21.074C570.727 20.752 570.335 20.57 569.971 20.57C569.495 20.57 569.033 20.808 568.865 21.298C568.865 23.006 568.879 23.86 568.907 24.742C567.185 24.924 565.953 25.022 565.141 25.064C565.099 23.062 565.071 21.27 564.777 20.738C563.937 20.486 562.985 20.892 562.803 21.508C562.761 22.446 562.915 24.84 562.915 25.512C562.537 25.932 562.509 26.814 562.915 27.206L562.999 30.776ZM573.354 29.81C573.102 30.734 573.984 31.294 574.376 31.336C575.874 31.21 577.526 28.676 578.156 27.052C578.59 27.024 579.052 26.954 579.458 26.87L579.374 30.874C579.822 31.168 580.256 31.28 580.55 31.28C580.844 31.28 581.124 31.182 581.334 30.972C581.446 29.558 581.474 27.43 581.474 25.568C581.474 24 581.446 22.586 581.418 21.998C581.376 21.368 580.956 20.99 580.48 20.766C579.794 20.668 578.954 20.584 578.142 20.584C575.776 20.584 573.228 21.228 573.228 23.916C573.228 25.512 574.74 26.646 576.014 26.94C575.594 27.808 574.586 29.236 573.354 29.81ZM575.244 23.916C575.244 22.782 576.588 22.362 577.876 22.362C578.394 22.362 578.912 22.432 579.388 22.544L579.472 25.092C579.178 25.162 578.31 25.288 577.498 25.288C576.364 25.288 575.244 24.924 575.244 23.916ZM582.922 29.726C582.95 30.762 583.272 31.21 584.266 31.336C584.994 31.112 585.974 29.628 586.464 28.368C587.262 26.282 587.29 23.706 587.29 22.46C587.794 22.404 588.704 22.376 589.502 22.362C589.558 24.224 589.418 29.138 589.418 30.51C589.558 30.972 590.048 31.182 590.51 31.182C590.986 31.182 591.532 30.902 591.686 30.468C591.574 27.864 591.756 23.356 591.476 20.962C591.322 20.612 590.86 20.29 590.496 20.29C589.11 20.318 585.904 20.556 584.364 20.752C584.238 21.018 584.112 21.382 584.112 21.606C584.112 22.082 584.602 22.586 585.26 22.642C585.344 24.168 585.218 25.96 584.364 27.85C584 28.662 583.244 29.446 582.922 29.726ZM593.223 29.936C593.223 30.426 593.503 30.818 594.049 31.028C593.937 31.84 593.461 32.33 593.153 32.708C593.279 33.072 593.825 33.534 594.329 33.38C595.463 32.176 595.981 31.308 595.981 29.978C595.981 29.334 595.309 28.76 594.735 28.76C593.727 28.76 593.307 29.32 593.223 29.936ZM601.69 30.776C601.844 31.126 602.264 31.28 602.684 31.28C603.23 31.28 603.79 31 603.79 30.454C603.79 29.698 603.692 27.472 603.748 27.136C604.182 27.024 606.464 26.786 607.668 26.66C607.668 27.822 607.654 29.348 607.64 30.468C607.85 30.93 608.326 31.126 608.746 31.126C609.278 31.126 609.754 30.846 609.838 30.37C609.81 29.432 609.81 28.214 609.81 26.996C609.81 24.854 609.796 22.558 609.628 21.074C609.418 20.752 609.026 20.57 608.662 20.57C608.186 20.57 607.724 20.808 607.556 21.298C607.556 23.006 607.57 23.86 607.598 24.742C605.876 24.924 604.644 25.022 603.832 25.064C603.79 23.062 603.762 21.27 603.468 20.738C602.628 20.486 601.676 20.892 601.494 21.508C601.452 22.446 601.606 24.84 601.606 25.512C601.228 25.932 601.2 26.814 601.606 27.206L601.69 30.776ZM612.199 30.552C612.801 31.112 613.067 31.056 613.809 31.21C614.537 30.888 617.239 26.52 618.555 24.35C618.471 26.058 618.387 27.192 618.387 28.144C618.387 29.474 618.541 30.608 619.017 30.93C619.507 31.182 620.571 30.888 620.753 30.244C620.697 29.768 620.683 29.138 620.683 28.382C620.669 27.262 620.865 21.648 620.683 20.962C620.389 20.598 619.675 20.388 619.311 20.29C618.219 20.486 615.517 25.456 614.285 27.388C614.271 26.016 614.369 21.718 614.201 20.22C613.515 20.122 612.577 20.206 612.115 20.752C612.115 23.356 612.045 28.956 612.199 30.552ZM626.296 26.422C626.296 28.76 628.088 31.21 630.79 31.21C632.484 31.21 634.416 30.272 635.494 28.648C635.564 27.85 634.878 27.206 634.178 27.15C632.848 28.774 632.106 29.208 630.874 29.208C629.74 29.208 628.452 28.2 628.452 26.548C628.452 23.636 630.09 22.67 631.546 22.67C632.722 22.67 633.31 23.188 633.8 23.776C634.514 23.664 635.186 23.16 635.214 22.544C634.92 21.536 633.31 20.752 631.686 20.752C628.606 20.752 626.296 22.852 626.296 26.422ZM636.871 29.726C636.899 30.762 637.221 31.21 638.215 31.336C638.943 31.112 639.923 29.628 640.413 28.368C641.211 26.282 641.239 23.706 641.239 22.46C641.743 22.404 642.653 22.376 643.451 22.362C643.507 24.224 643.367 29.138 643.367 30.51C643.507 30.972 643.997 31.182 644.459 31.182C644.935 31.182 645.481 30.902 645.635 30.468C645.523 27.864 645.705 23.356 645.425 20.962C645.271 20.612 644.809 20.29 644.445 20.29C643.059 20.318 639.853 20.556 638.313 20.752C638.187 21.018 638.061 21.382 638.061 21.606C638.061 22.082 638.551 22.586 639.209 22.642C639.293 24.168 639.167 25.96 638.313 27.85C637.949 28.662 637.193 29.446 636.871 29.726ZM651.638 31.238C654.256 31.238 657.21 29.544 657.21 25.764C657.21 22.67 655.152 20.626 652.226 20.626C649.524 20.626 646.976 22.6 646.976 26.03C646.976 29.194 649.006 31.238 651.638 31.238ZM651.736 29.152C650.196 29.152 649.076 28.116 649.076 26.058C649.076 23.706 650.658 22.656 652.282 22.656C653.724 22.656 655.054 23.692 655.054 25.764C655.054 28.522 652.954 29.152 651.736 29.152ZM659.111 30.202C659.349 30.818 659.629 31.238 660.119 31.238C663.241 31.182 666.951 29.824 666.951 26.646C666.951 25.386 666.069 24.966 664.851 24.742C665.775 24.112 666.391 23.342 666.391 22.236C666.391 21.088 664.823 20.626 663.059 20.626C660.917 20.626 659.475 21.116 658.257 22.124C658.257 22.642 658.439 23.09 658.803 23.426C658.803 24.056 658.803 24.392 658.831 25.372C658.621 25.554 658.537 25.862 658.537 26.17C658.537 26.492 658.635 26.814 658.901 26.94C658.957 28.256 659.013 29.194 659.111 30.202ZM660.973 24.686C660.959 24.224 660.903 23.132 660.945 22.838C661.449 22.642 662.359 22.46 663.115 22.46C663.661 22.46 664.193 22.558 664.193 22.74C664.193 23.678 662.961 24.308 660.973 24.686ZM661.183 29.152C661.113 28.606 661.043 27.738 661.043 26.828C661.561 26.52 662.891 26.226 663.689 26.226C664.501 26.226 664.837 26.52 664.837 26.884C664.837 28.214 662.625 28.97 661.183 29.152ZM667.675 30.902C667.969 31.182 668.417 31.322 668.767 31.322C669.145 31.322 669.467 31.182 669.593 30.916C670.041 29.81 670.069 29.726 670.125 29.642C671.371 29.488 672.855 29.334 674.059 29.18V29.236C674.283 29.74 674.549 30.426 674.899 31.112C675.473 31.21 676.439 30.65 676.663 30.132C676.243 28.942 673.499 21.256 671.819 20.78C671.077 20.836 670.699 21.27 670.377 21.998C670.531 22.362 670.615 22.516 670.713 22.698C670.713 22.712 670.741 22.726 670.741 22.74C669.453 25.344 667.479 30.216 667.577 30.706L667.675 30.902ZM670.825 27.626C671.889 25.134 672.015 24.77 672.127 24.518C672.491 25.246 673.037 26.422 673.331 27.248L670.825 27.626ZM682.273 30.09C682.427 30.762 682.945 31.098 683.463 31.252C686.123 31.21 690.365 30.622 690.365 26.912C690.365 24.994 688.699 24.154 686.963 24.154C686.207 24.154 685.283 24.294 684.233 24.588C684.205 23.874 684.289 23.426 684.303 22.726C685.283 22.46 687.593 22.264 688.391 22.264C688.825 22.096 689.105 21.592 689.105 21.144C689.105 20.808 688.923 20.444 688.601 20.248C687.411 20.094 683.211 20.836 682.105 21.368C681.839 21.564 681.741 21.858 681.741 22.166C681.741 22.474 681.881 22.88 682.147 23.132C682.189 24.434 682.105 29.152 682.273 30.09ZM684.317 29.222L684.247 26.506C684.513 26.366 685.619 26.1 686.613 26.1C687.565 26.1 688.251 26.352 688.251 27.01C688.251 28.704 685.969 29.39 684.317 29.222ZM696.004 31.238C698.622 31.238 701.576 29.544 701.576 25.764C701.576 22.67 699.518 20.626 696.592 20.626C693.89 20.626 691.342 22.6 691.342 26.03C691.342 29.194 693.372 31.238 696.004 31.238ZM696.102 29.152C694.562 29.152 693.442 28.116 693.442 26.058C693.442 23.706 695.024 22.656 696.648 22.656C698.09 22.656 699.42 23.692 699.42 25.764C699.42 28.522 697.32 29.152 696.102 29.152ZM702.468 29.726C702.496 30.762 702.818 31.21 703.812 31.336C704.54 31.112 705.52 29.628 706.01 28.368C706.808 26.282 706.836 23.706 706.836 22.46C707.34 22.404 708.25 22.376 709.048 22.362C709.104 24.224 708.964 29.138 708.964 30.51C709.104 30.972 709.594 31.182 710.056 31.182C710.532 31.182 711.078 30.902 711.232 30.468C711.12 27.864 711.302 23.356 711.022 20.962C710.868 20.612 710.406 20.29 710.042 20.29C708.656 20.318 705.45 20.556 703.91 20.752C703.784 21.018 703.658 21.382 703.658 21.606C703.658 22.082 704.148 22.586 704.806 22.642C704.89 24.168 704.764 25.96 703.91 27.85C703.546 28.662 702.79 29.446 702.468 29.726ZM713.582 30.146C713.736 30.776 714.24 31.098 714.758 31.252C717.418 31.21 721.646 30.636 721.646 26.94C721.646 25.008 719.966 24.168 718.258 24.168C717.488 24.168 716.592 24.322 715.528 24.602L715.514 20.738C715.248 20.472 714.772 20.388 714.338 20.388C714.058 20.388 713.736 20.5 713.4 20.864C713.54 22.726 713.386 28.606 713.582 30.146ZM715.612 29.236L715.556 26.534C715.794 26.38 716.914 26.128 717.908 26.128C718.846 26.128 719.518 26.366 719.518 27.024C719.518 28.732 717.264 29.362 715.612 29.236ZM723.076 30.16C723.132 30.804 723.356 31.196 724.126 31.518L733.422 30.874C733.94 30.636 734.388 30.076 734.43 29.39C734.486 28.34 734.738 21.956 734.22 20.696C733.982 20.612 733.744 20.556 733.576 20.556C733.072 20.556 732.512 20.738 732.344 21.13C732.218 22.712 732.386 27.024 732.316 28.942C731.7 29.04 730.734 29.054 729.908 29.082C729.95 26.52 729.978 22.908 729.796 21.032C729.152 20.906 728.018 21.046 727.794 21.564C727.696 23.104 727.85 27.724 727.78 29.18C726.464 29.264 725.764 29.32 725.232 29.348C725.176 27.122 725.26 22.964 725.456 21.354C725.148 20.808 724.028 20.682 723.342 20.864C722.894 23.636 723.006 27.486 723.076 30.16ZM736.722 30.37C737.142 30.958 737.352 31.14 737.926 31.364C739.956 31.294 742.462 31.168 744.282 30.314C744.408 30.006 744.45 29.754 744.45 29.586C744.45 29.012 744.156 28.522 743.568 28.48C742.028 28.914 740.18 29.166 738.892 29.236C738.892 28.228 738.92 27.444 738.962 26.842C739.326 26.814 739.62 26.814 740.18 26.772C741.16 26.716 742.35 26.632 743.246 26.52C743.652 26.338 743.876 25.848 743.876 25.4C743.876 25.078 743.736 24.7 743.358 24.462C741.958 24.63 739.998 24.784 739.06 24.826C739.032 24.28 739.046 23.622 739.06 23.076C740.376 22.908 742.378 22.908 743.68 22.656C744.072 22.516 744.296 22.068 744.296 21.634C744.296 21.382 744.212 21.074 744.016 20.794C743.344 20.64 739.186 20.948 737.632 21.032C737.086 21.298 736.82 21.438 736.386 21.802C736.386 22.348 736.554 22.81 736.918 23.118C736.918 23.482 736.904 24 736.848 25.26C736.666 25.456 736.54 25.792 736.54 26.1C736.54 26.394 736.624 26.674 736.834 26.87L736.722 30.37ZM746.361 27.542C746.753 27.794 747.831 27.654 748.111 27.332C748.447 25.204 748.755 22.348 748.937 20.878C748.419 20.234 746.697 20.78 746.683 21.06C746.473 23.986 746.179 27.206 746.361 27.542ZM745.759 29.95C745.759 30.58 746.039 31.056 746.865 31.266C747.439 31.252 748.307 31.028 748.545 30.048C748.475 29.124 747.803 28.774 747.299 28.774C746.221 28.774 745.899 29.32 745.759 29.95Z" fill="white"/>
<circle cx="516" cy="11" r="1" fill="#9D0000"/>
<circle cx="759" cy="11" r="1" fill="#9D0000"/>
<circle cx="516" cy="38" r="1" fill="#9D0000"/>
<circle cx="759" cy="38" r="1" fill="#9D0000"/>
<rect x="255.5" y="7.5" width="254" height="39" rx="5.5" fill="#9D0000" stroke="#9D0000"/>
<rect x="255.5" y="0.5" width="254" height="41" rx="5.5" fill="#FE514C" stroke="#9D0000"/>
<path d="M271.555 24.81C271.303 25.734 272.185 26.294 272.577 26.336C274.075 26.21 275.727 23.676 276.357 22.052C276.791 22.024 277.253 21.954 277.659 21.87L277.575 25.874C278.023 26.168 278.457 26.28 278.751 26.28C279.045 26.28 279.325 26.182 279.535 25.972C279.647 24.558 279.675 22.43 279.675 20.568C279.675 19 279.647 17.586 279.619 16.998C279.577 16.368 279.157 15.99 278.681 15.766C277.995 15.668 277.155 15.584 276.343 15.584C273.977 15.584 271.429 16.228 271.429 18.916C271.429 20.512 272.941 21.646 274.215 21.94C273.795 22.808 272.787 24.236 271.555 24.81ZM273.445 18.916C273.445 17.782 274.789 17.362 276.077 17.362C276.595 17.362 277.113 17.432 277.589 17.544L277.673 20.092C277.379 20.162 276.511 20.288 275.699 20.288C274.565 20.288 273.445 19.924 273.445 18.916ZM286.041 25.65C286.279 26.084 286.615 26.224 287.007 26.224C287.427 26.224 287.931 26 288.211 25.552C288.197 24.264 288.085 18.818 288.099 17.67C288.533 17.516 290.983 17.39 292.201 17.362C292.341 18.762 292.201 24.558 292.215 25.44C292.495 25.818 292.915 26 293.321 26C293.797 26 294.287 25.748 294.427 25.258C294.399 23.004 294.511 16.886 294.287 15.962C294.049 15.584 293.769 15.388 293.433 15.304C290.451 15.332 288.407 15.626 287.609 15.752C287.497 15.682 287.413 15.64 287.161 15.584C286.895 15.584 285.901 15.99 285.649 16.606C285.691 16.97 285.733 17.194 285.901 17.46C285.957 18.538 285.901 24.922 286.041 25.65ZM300.498 26.238C303.116 26.238 306.07 24.544 306.07 20.764C306.07 17.67 304.012 15.626 301.086 15.626C298.384 15.626 295.836 17.6 295.836 21.03C295.836 24.194 297.866 26.238 300.498 26.238ZM300.596 24.152C299.056 24.152 297.936 23.116 297.936 21.058C297.936 18.706 299.518 17.656 301.142 17.656C302.584 17.656 303.914 18.692 303.914 20.764C303.914 23.522 301.814 24.152 300.596 24.152ZM307.999 25.776C308.153 26.126 308.573 26.28 308.993 26.28C309.539 26.28 310.099 26 310.099 25.454C310.099 24.698 310.001 22.472 310.057 22.136C310.491 22.024 312.773 21.786 313.977 21.66C313.977 22.822 313.963 24.348 313.949 25.468C314.159 25.93 314.635 26.126 315.055 26.126C315.587 26.126 316.063 25.846 316.147 25.37C316.119 24.432 316.119 23.214 316.119 21.996C316.119 19.854 316.105 17.558 315.937 16.074C315.727 15.752 315.335 15.57 314.971 15.57C314.495 15.57 314.033 15.808 313.865 16.298C313.865 18.006 313.879 18.86 313.907 19.742C312.185 19.924 310.953 20.022 310.141 20.064C310.099 18.062 310.071 16.27 309.777 15.738C308.937 15.486 307.985 15.892 307.803 16.508C307.761 17.446 307.915 19.84 307.915 20.512C307.537 20.932 307.509 21.814 307.915 22.206L307.999 25.776ZM318.354 24.81C318.102 25.734 318.984 26.294 319.376 26.336C320.874 26.21 322.526 23.676 323.156 22.052C323.59 22.024 324.052 21.954 324.458 21.87L324.374 25.874C324.822 26.168 325.256 26.28 325.55 26.28C325.844 26.28 326.124 26.182 326.334 25.972C326.446 24.558 326.474 22.43 326.474 20.568C326.474 19 326.446 17.586 326.418 16.998C326.376 16.368 325.956 15.99 325.48 15.766C324.794 15.668 323.954 15.584 323.142 15.584C320.776 15.584 318.228 16.228 318.228 18.916C318.228 20.512 319.74 21.646 321.014 21.94C320.594 22.808 319.586 24.236 318.354 24.81ZM320.244 18.916C320.244 17.782 321.588 17.362 322.876 17.362C323.394 17.362 323.912 17.432 324.388 17.544L324.472 20.092C324.178 20.162 323.31 20.288 322.498 20.288C321.364 20.288 320.244 19.924 320.244 18.916ZM327.922 24.726C327.95 25.762 328.272 26.21 329.266 26.336C329.994 26.112 330.974 24.628 331.464 23.368C332.262 21.282 332.29 18.706 332.29 17.46C332.794 17.404 333.704 17.376 334.502 17.362C334.558 19.224 334.418 24.138 334.418 25.51C334.558 25.972 335.048 26.182 335.51 26.182C335.986 26.182 336.532 25.902 336.686 25.468C336.574 22.864 336.756 18.356 336.476 15.962C336.322 15.612 335.86 15.29 335.496 15.29C334.11 15.318 330.904 15.556 329.364 15.752C329.238 16.018 329.112 16.382 329.112 16.606C329.112 17.082 329.602 17.586 330.26 17.642C330.344 19.168 330.218 20.96 329.364 22.85C329 23.662 328.244 24.446 327.922 24.726ZM338.223 24.936C338.223 25.426 338.503 25.818 339.049 26.028C338.937 26.84 338.461 27.33 338.153 27.708C338.279 28.072 338.825 28.534 339.329 28.38C340.463 27.176 340.981 26.308 340.981 24.978C340.981 24.334 340.309 23.76 339.735 23.76C338.727 23.76 338.307 24.32 338.223 24.936ZM346.69 25.776C346.844 26.126 347.264 26.28 347.684 26.28C348.23 26.28 348.79 26 348.79 25.454C348.79 24.698 348.692 22.472 348.748 22.136C349.182 22.024 351.464 21.786 352.668 21.66C352.668 22.822 352.654 24.348 352.64 25.468C352.85 25.93 353.326 26.126 353.746 26.126C354.278 26.126 354.754 25.846 354.838 25.37C354.81 24.432 354.81 23.214 354.81 21.996C354.81 19.854 354.796 17.558 354.628 16.074C354.418 15.752 354.026 15.57 353.662 15.57C353.186 15.57 352.724 15.808 352.556 16.298C352.556 18.006 352.57 18.86 352.598 19.742C350.876 19.924 349.644 20.022 348.832 20.064C348.79 18.062 348.762 16.27 348.468 15.738C347.628 15.486 346.676 15.892 346.494 16.508C346.452 17.446 346.606 19.84 346.606 20.512C346.228 20.932 346.2 21.814 346.606 22.206L346.69 25.776ZM357.199 25.552C357.801 26.112 358.067 26.056 358.809 26.21C359.537 25.888 362.239 21.52 363.555 19.35C363.471 21.058 363.387 22.192 363.387 23.144C363.387 24.474 363.541 25.608 364.017 25.93C364.507 26.182 365.571 25.888 365.753 25.244C365.697 24.768 365.683 24.138 365.683 23.382C365.669 22.262 365.865 16.648 365.683 15.962C365.389 15.598 364.675 15.388 364.311 15.29C363.219 15.486 360.517 20.456 359.285 22.388C359.271 21.016 359.369 16.718 359.201 15.22C358.515 15.122 357.577 15.206 357.115 15.752C357.115 18.356 357.045 23.956 357.199 25.552ZM371.296 21.422C371.296 23.76 373.088 26.21 375.79 26.21C377.484 26.21 379.416 25.272 380.494 23.648C380.564 22.85 379.878 22.206 379.178 22.15C377.848 23.774 377.106 24.208 375.874 24.208C374.74 24.208 373.452 23.2 373.452 21.548C373.452 18.636 375.09 17.67 376.546 17.67C377.722 17.67 378.31 18.188 378.8 18.776C379.514 18.664 380.186 18.16 380.214 17.544C379.92 16.536 378.31 15.752 376.686 15.752C373.606 15.752 371.296 17.852 371.296 21.422ZM381.871 24.726C381.899 25.762 382.221 26.21 383.215 26.336C383.943 26.112 384.923 24.628 385.413 23.368C386.211 21.282 386.239 18.706 386.239 17.46C386.743 17.404 387.653 17.376 388.451 17.362C388.507 19.224 388.367 24.138 388.367 25.51C388.507 25.972 388.997 26.182 389.459 26.182C389.935 26.182 390.481 25.902 390.635 25.468C390.523 22.864 390.705 18.356 390.425 15.962C390.271 15.612 389.809 15.29 389.445 15.29C388.059 15.318 384.853 15.556 383.313 15.752C383.187 16.018 383.061 16.382 383.061 16.606C383.061 17.082 383.551 17.586 384.209 17.642C384.293 19.168 384.167 20.96 383.313 22.85C382.949 23.662 382.193 24.446 381.871 24.726ZM396.638 26.238C399.256 26.238 402.21 24.544 402.21 20.764C402.21 17.67 400.152 15.626 397.226 15.626C394.524 15.626 391.976 17.6 391.976 21.03C391.976 24.194 394.006 26.238 396.638 26.238ZM396.736 24.152C395.196 24.152 394.076 23.116 394.076 21.058C394.076 18.706 395.658 17.656 397.282 17.656C398.724 17.656 400.054 18.692 400.054 20.764C400.054 23.522 397.954 24.152 396.736 24.152ZM404.111 25.202C404.349 25.818 404.629 26.238 405.119 26.238C408.241 26.182 411.951 24.824 411.951 21.646C411.951 20.386 411.069 19.966 409.851 19.742C410.775 19.112 411.391 18.342 411.391 17.236C411.391 16.088 409.823 15.626 408.059 15.626C405.917 15.626 404.475 16.116 403.257 17.124C403.257 17.642 403.439 18.09 403.803 18.426C403.803 19.056 403.803 19.392 403.831 20.372C403.621 20.554 403.537 20.862 403.537 21.17C403.537 21.492 403.635 21.814 403.901 21.94C403.957 23.256 404.013 24.194 404.111 25.202ZM405.973 19.686C405.959 19.224 405.903 18.132 405.945 17.838C406.449 17.642 407.359 17.46 408.115 17.46C408.661 17.46 409.193 17.558 409.193 17.74C409.193 18.678 407.961 19.308 405.973 19.686ZM406.183 24.152C406.113 23.606 406.043 22.738 406.043 21.828C406.561 21.52 407.891 21.226 408.689 21.226C409.501 21.226 409.837 21.52 409.837 21.884C409.837 23.214 407.625 23.97 406.183 24.152ZM412.675 25.902C412.969 26.182 413.417 26.322 413.767 26.322C414.145 26.322 414.467 26.182 414.593 25.916C415.041 24.81 415.069 24.726 415.125 24.642C416.371 24.488 417.855 24.334 419.059 24.18V24.236C419.283 24.74 419.549 25.426 419.899 26.112C420.473 26.21 421.439 25.65 421.663 25.132C421.243 23.942 418.499 16.256 416.819 15.78C416.077 15.836 415.699 16.27 415.377 16.998C415.531 17.362 415.615 17.516 415.713 17.698C415.713 17.712 415.741 17.726 415.741 17.74C414.453 20.344 412.479 25.216 412.577 25.706L412.675 25.902ZM415.825 22.626C416.889 20.134 417.015 19.77 417.127 19.518C417.491 20.246 418.037 21.422 418.331 22.248L415.825 22.626ZM427.273 25.09C427.427 25.762 427.945 26.098 428.463 26.252C431.123 26.21 435.365 25.622 435.365 21.912C435.365 19.994 433.699 19.154 431.963 19.154C431.207 19.154 430.283 19.294 429.233 19.588C429.205 18.874 429.289 18.426 429.303 17.726C430.283 17.46 432.593 17.264 433.391 17.264C433.825 17.096 434.105 16.592 434.105 16.144C434.105 15.808 433.923 15.444 433.601 15.248C432.411 15.094 428.211 15.836 427.105 16.368C426.839 16.564 426.741 16.858 426.741 17.166C426.741 17.474 426.881 17.88 427.147 18.132C427.189 19.434 427.105 24.152 427.273 25.09ZM429.317 24.222L429.247 21.506C429.513 21.366 430.619 21.1 431.613 21.1C432.565 21.1 433.251 21.352 433.251 22.01C433.251 23.704 430.969 24.39 429.317 24.222ZM441.004 26.238C443.622 26.238 446.576 24.544 446.576 20.764C446.576 17.67 444.518 15.626 441.592 15.626C438.89 15.626 436.342 17.6 436.342 21.03C436.342 24.194 438.372 26.238 441.004 26.238ZM441.102 24.152C439.562 24.152 438.442 23.116 438.442 21.058C438.442 18.706 440.024 17.656 441.648 17.656C443.09 17.656 444.42 18.692 444.42 20.764C444.42 23.522 442.32 24.152 441.102 24.152ZM447.468 24.726C447.496 25.762 447.818 26.21 448.812 26.336C449.54 26.112 450.52 24.628 451.01 23.368C451.808 21.282 451.836 18.706 451.836 17.46C452.34 17.404 453.25 17.376 454.048 17.362C454.104 19.224 453.964 24.138 453.964 25.51C454.104 25.972 454.594 26.182 455.056 26.182C455.532 26.182 456.078 25.902 456.232 25.468C456.12 22.864 456.302 18.356 456.022 15.962C455.868 15.612 455.406 15.29 455.042 15.29C453.656 15.318 450.45 15.556 448.91 15.752C448.784 16.018 448.658 16.382 448.658 16.606C448.658 17.082 449.148 17.586 449.806 17.642C449.89 19.168 449.764 20.96 448.91 22.85C448.546 23.662 447.79 24.446 447.468 24.726ZM458.582 25.146C458.736 25.776 459.24 26.098 459.758 26.252C462.418 26.21 466.646 25.636 466.646 21.94C466.646 20.008 464.966 19.168 463.258 19.168C462.488 19.168 461.592 19.322 460.528 19.602L460.514 15.738C460.248 15.472 459.772 15.388 459.338 15.388C459.058 15.388 458.736 15.5 458.4 15.864C458.54 17.726 458.386 23.606 458.582 25.146ZM460.612 24.236L460.556 21.534C460.794 21.38 461.914 21.128 462.908 21.128C463.846 21.128 464.518 21.366 464.518 22.024C464.518 23.732 462.264 24.362 460.612 24.236ZM468.076 25.16C468.132 25.804 468.356 26.196 469.126 26.518L478.422 25.874C478.94 25.636 479.388 25.076 479.43 24.39C479.486 23.34 479.738 16.956 479.22 15.696C478.982 15.612 478.744 15.556 478.576 15.556C478.072 15.556 477.512 15.738 477.344 16.13C477.218 17.712 477.386 22.024 477.316 23.942C476.7 24.04 475.734 24.054 474.908 24.082C474.95 21.52 474.978 17.908 474.796 16.032C474.152 15.906 473.018 16.046 472.794 16.564C472.696 18.104 472.85 22.724 472.78 24.18C471.464 24.264 470.764 24.32 470.232 24.348C470.176 22.122 470.26 17.964 470.456 16.354C470.148 15.808 469.028 15.682 468.342 15.864C467.894 18.636 468.006 22.486 468.076 25.16ZM481.722 25.37C482.142 25.958 482.352 26.14 482.926 26.364C484.956 26.294 487.462 26.168 489.282 25.314C489.408 25.006 489.45 24.754 489.45 24.586C489.45 24.012 489.156 23.522 488.568 23.48C487.028 23.914 485.18 24.166 483.892 24.236C483.892 23.228 483.92 22.444 483.962 21.842C484.326 21.814 484.62 21.814 485.18 21.772C486.16 21.716 487.35 21.632 488.246 21.52C488.652 21.338 488.876 20.848 488.876 20.4C488.876 20.078 488.736 19.7 488.358 19.462C486.958 19.63 484.998 19.784 484.06 19.826C484.032 19.28 484.046 18.622 484.06 18.076C485.376 17.908 487.378 17.908 488.68 17.656C489.072 17.516 489.296 17.068 489.296 16.634C489.296 16.382 489.212 16.074 489.016 15.794C488.344 15.64 484.186 15.948 482.632 16.032C482.086 16.298 481.82 16.438 481.386 16.802C481.386 17.348 481.554 17.81 481.918 18.118C481.918 18.482 481.904 19 481.848 20.26C481.666 20.456 481.54 20.792 481.54 21.1C481.54 21.394 481.624 21.674 481.834 21.87L481.722 25.37ZM491.361 22.542C491.753 22.794 492.831 22.654 493.111 22.332C493.447 20.204 493.755 17.348 493.937 15.878C493.419 15.234 491.697 15.78 491.683 16.06C491.473 18.986 491.179 22.206 491.361 22.542ZM490.759 24.95C490.759 25.58 491.039 26.056 491.865 26.266C492.439 26.252 493.307 26.028 493.545 25.048C493.475 24.124 492.803 23.774 492.299 23.774C491.221 23.774 490.899 24.32 490.759 24.95Z" fill="white"/>
<circle cx="261" cy="6" r="1" fill="#9D0000"/>
<circle cx="504" cy="6" r="1" fill="#9D0000"/>
<circle cx="261" cy="34" r="1" fill="#9D0000"/>
<circle cx="504" cy="34" r="1" fill="#9D0000"/>
</svg>
