<svg width="848" height="250" viewBox="0 0 848 250" fill="none" xmlns="http://www.w3.org/2000/svg">
<path d="M721.092 129.888C721.092 129.888 732.441 123.811 735.719 123.057C738.996 122.303 748.82 118.024 752.159 117.759C755.497 117.494 758.832 117.52 761.723 120.52C764.613 123.521 767.498 132.173 768.368 135.51C769.238 138.847 772.7 156.798 772.7 156.798L779.703 154.13C781.59 153.413 788.345 151.551 790.399 152.292C792.452 153.034 794.594 158.102 795.543 160.108C796.491 162.113 800.701 172.963 800.701 172.963C800.701 172.963 806.781 172.419 808.109 172.185C809.437 171.951 812.962 171.928 814.345 173.405C815.729 174.883 818.658 184.912 818.658 184.912L824.956 186.621C824.956 186.621 819.161 189.287 817.164 188.721C815.166 188.154 810.994 180.837 810.994 180.837L803.99 183.505C803.99 183.505 796.791 187.446 795.095 186.577C793.4 185.708 787.352 176.514 787.352 176.514L782.033 168.756C782.033 168.756 772.788 176.369 771.203 176.782C769.618 177.196 758.623 184.974 755.712 184.085C752.8 183.197 750.44 177.412 749.616 174.556C748.793 171.7 742.85 153.557 742.85 153.557C742.85 153.557 730.102 160.29 726.941 161.103C723.779 161.916 710.11 168.341 706.841 168.185C703.573 168.028 701.119 170.138 698.137 164.638C695.155 159.139 691.154 147.024 691.116 145.028C691.078 143.032 687.269 129.935 687.269 129.935L675.98 136.501L656.99 147.665C656.99 147.665 653.541 153.216 648.302 154.191C644.565 154.72 640.764 154.581 637.075 153.78C637.075 153.78 627.691 157.808 623.551 158.138C620.635 158.364 619.175 158.036 618.772 156.75C618.37 155.464 622.939 153.085 622.939 153.085C622.939 153.085 612.917 154.499 610.665 154.717C608.412 154.935 606.712 155.289 606.485 153.947C606.258 152.605 619.419 147.456 619.419 147.456C619.419 147.456 609.954 147.179 606.861 146.966C603.767 146.753 597.887 146.337 598.077 144.752C598.268 143.166 606.603 142.113 606.603 142.113L614.137 141.089C614.137 141.089 605.042 139.483 601.902 138.789C598.763 138.094 594.217 136.825 593.687 135.181C593.157 133.537 597.336 133.703 597.336 133.703L608.316 133.988C608.316 133.988 598.762 130.921 596.723 128.045C595.107 125.771 598.884 124.615 600.636 124.873C605.091 125.664 609.438 126.971 613.59 128.768C613.59 128.768 612.066 123.101 614.042 119.246C616.018 115.391 617.207 111.572 623.296 110.118C629.384 108.664 632.163 109.777 632.163 109.777L648.925 99.9236C648.925 99.9236 653.778 99.6663 656.073 101.758C656.073 101.758 670.172 93.8874 674.008 92.6513C677.844 91.4152 693.55 86.6563 697.015 86.1448C700.479 85.6332 704.915 85.6194 707.136 87.8193C709.357 90.0191 712.214 96.3694 713.163 98.3745C714.111 100.38 717.899 110.555 718.223 113.778C718.548 117 721.092 129.888 721.092 129.888Z" fill="#FF0000"/>
<path d="M655.006 132.687C652.653 126.961 644.347 130.884 638.306 128.391C632.264 125.898 636.468 117.695 630.407 116.418C624.345 115.141 618.723 120.183 619.374 127.233C620.024 134.282 626.629 143.102 634.972 145.604C649.255 149.869 658.803 141.953 655.006 132.687Z" fill="#DA4F4D"/>
<path d="M641.365 146.518C641.365 146.518 640.705 140.379 639.022 138.308C636.844 136.125 634.32 134.318 631.552 132.96C629.74 132.032 625.257 130.96 624.641 132.163C624.024 133.366 628.46 138.385 633.787 139.596C633.787 139.596 635.505 143.99 634.76 145.731C634.774 145.738 638.625 147.401 641.365 146.518Z" fill="#FF0000"/>
<path d="M691.087 145.012C691.087 145.012 698.644 147.513 698.988 149.52C699.332 151.526 694.195 154.694 694.195 154.694L691.087 145.012Z" fill="#FBF86E"/>
<path d="M718.32 164.462C718.32 164.462 720.076 158.646 721.683 156.725C723.29 154.804 725.721 152.701 726.74 154.285C727.758 155.868 725.746 161.864 725.746 161.864L718.32 164.462Z" fill="#FBF86E"/>
<path d="M674.985 92.5288C674.985 92.5288 682.179 89.8114 684.86 89.0444C687.54 88.2774 694.472 86.963 694.472 86.963C694.472 86.963 700.045 88.3006 701.659 90.793C703.273 93.2854 704.283 94.8832 701.729 95.4039C699.175 95.9245 693.554 92.8968 693.554 92.8968C693.554 92.8968 697.933 97.7402 696.522 98.9933C695.111 100.246 688.544 96.4226 688.544 96.4226L684.557 93.7754C684.557 93.7754 686.821 98.2844 684.806 99.5387C682.79 100.793 675.751 94.6049 674.985 92.5288Z" fill="#FBF86E"/>
<path d="M636.938 115.884C635.026 114.374 633.454 112.477 632.325 110.318C631.383 107.693 632.388 103.341 635.462 100.342C638.536 97.343 643.37 98.3018 645.67 99.1696C646.901 99.7538 647.996 100.589 648.885 101.621C649.774 102.654 650.437 103.86 650.832 105.164C651.019 106.941 651.021 108.733 650.837 110.51L650.386 112.567L647.698 114.849C646.3 115.177 644.874 115.365 643.439 115.41C641.996 115.479 640.554 115.256 639.199 114.756C639.199 114.756 637.491 114.484 636.938 115.884Z" fill="white"/>
<path d="M649.872 124.602C648.525 123.125 645.877 117.687 649.344 113.352C651.77 110.332 656.489 108.194 660.23 109.215C662.448 109.943 664.36 111.393 665.66 113.332C666.96 115.272 667.575 117.591 667.406 119.92C667.03 124.009 661.654 128.427 658.291 128.313C655.136 128.101 652.156 126.788 649.872 124.602Z" fill="white"/>
<path d="M651.698 92.8719C651.698 92.8719 648.372 83.1157 649.296 82.4913C650.558 81.6009 654.17 87.4416 654.17 87.4416C654.17 87.4416 656.275 80.9079 657.686 81.0823C659.097 81.2566 657.756 89.2983 657.756 89.2983C657.756 89.2983 662.703 84.1113 663.861 84.8148C665.475 85.8433 660.186 92.5199 658.674 93.6846C657.162 94.8493 651.698 92.8719 651.698 92.8719Z" fill="#61EA67"/>
<path d="M633.099 118.804C633.099 118.804 629.06 119.259 629.395 122.175C629.73 125.092 634.196 124.875 634.196 124.875C634.196 124.875 630.177 126.932 631.794 129.133C633.411 131.334 638.355 129.293 638.355 129.293C638.355 129.293 636.03 133.829 639.222 134.313C642.414 134.796 644.273 130.277 644.273 130.277C644.273 130.277 645.778 134.946 647.323 135.501C648.869 136.055 649.561 130.243 649.561 130.243L649.313 129.549C649.313 129.549 643.764 129.449 642.031 129.476C640.911 129.613 639.775 129.456 638.733 129.022C637.692 128.588 636.781 127.89 636.091 126.998C634.917 125.125 634.16 123.021 633.873 120.829L633.099 118.804Z" fill="white"/>
<path d="M738.887 131.086C741.381 127.863 748.959 131.071 744.557 134.304C740.155 137.537 736.179 134.584 738.887 131.086Z" fill="#FBF86E"/>
<path d="M757.273 162.012C758.671 161.283 766.459 166.117 764.149 167.055C761.838 167.993 753.136 164.156 757.273 162.012Z" fill="#FBF86E"/>
<path d="M657.899 117.975L655.533 118.592" stroke="black" stroke-width="0.75" stroke-linecap="round" stroke-linejoin="round"/>
<path d="M656.379 117.014L656.816 119.232" stroke="black" stroke-width="0.75" stroke-linecap="round" stroke-linejoin="round"/>
<path d="M657.352 117.363L655.993 119.302" stroke="black" stroke-width="0.75" stroke-linecap="round" stroke-linejoin="round"/>
<path d="M655.507 117.57L657.678 118.976" stroke="black" stroke-width="0.75" stroke-linecap="round" stroke-linejoin="round"/>
<path d="M642.047 107.416L639.696 108.041" stroke="black" stroke-width="0.75" stroke-linecap="round" stroke-linejoin="round"/>
<path d="M640.528 106.452L640.965 108.671" stroke="black" stroke-width="0.75" stroke-linecap="round" stroke-linejoin="round"/>
<path d="M641.522 106.797L640.155 108.75" stroke="black" stroke-width="0.75" stroke-linecap="round" stroke-linejoin="round"/>
<path d="M639.656 107.014L641.826 108.419" stroke="black" stroke-width="0.75" stroke-linecap="round" stroke-linejoin="round"/>
<path d="M650.098 124.588C648.751 123.111 646.104 117.673 649.57 113.338C651.996 110.318 656.715 108.18 660.456 109.201C662.674 109.93 664.586 111.379 665.886 113.319C667.186 115.258 667.801 117.577 667.632 119.906C667.256 123.995 661.88 128.413 658.517 128.3C655.362 128.088 652.383 126.774 650.098 124.588V124.588Z" stroke="black" stroke-width="0.75" stroke-linecap="round" stroke-linejoin="round"/>
<path d="M651.789 93.158C651.789 93.158 648.464 83.4018 649.388 82.7775C650.65 81.887 654.262 87.7278 654.262 87.7278C654.262 87.7278 656.366 81.1941 657.778 81.3684C659.189 81.5428 657.848 89.5844 657.848 89.5844C657.848 89.5844 662.772 84.4409 663.887 85.1585C665.5 86.187 660.212 92.8636 658.7 94.0283C657.188 95.1931 651.789 93.158 651.789 93.158Z" stroke="black" stroke-width="0.75" stroke-linecap="round" stroke-linejoin="round"/>
<path d="M773.062 159.199C772.122 156.283 768.897 124.126 759.36 118.706C751.299 114.19 721.125 130.217 721.125 130.217C721.125 130.217 714.927 88.0439 703.356 86.3404C693.176 84.7818 667.986 94.0486 656.386 101.827C654.034 100.151 651.134 99.4294 648.271 99.8088" stroke="black" stroke-width="0.75" stroke-linecap="round" stroke-linejoin="round"/>
<path d="M656.907 147.935C656.907 147.935 687.609 130.129 689.82 128.207" stroke="black" stroke-width="0.75" stroke-linecap="round" stroke-linejoin="round"/>
<path d="M687.616 130.114C687.616 130.114 694.109 163.251 701.2 167.874C707.104 171.743 739.141 155.902 745.236 152.329" stroke="black" stroke-width="0.75" stroke-linecap="round" stroke-linejoin="round"/>
<path d="M743.253 153.986C743.253 153.986 749.996 180.993 754.569 183.959C759.142 186.926 783.616 167.739 783.616 167.739" stroke="black" stroke-width="0.75" stroke-linecap="round" stroke-linejoin="round"/>
<path d="M811.162 180.796C812.56 182.958 814.005 187.743 817.404 188.717C819.176 189.222 825.196 186.617 825.196 186.617L818.772 185.154C818.772 185.154 816.335 173.987 813.428 172.661C810.521 171.336 800.791 173.503 800.791 173.503C800.791 173.503 794.348 155.049 790.812 152.523C787.276 149.997 772.884 157.296 772.884 157.296" stroke="black" stroke-width="0.75" stroke-linecap="round" stroke-linejoin="round"/>
<path d="M782.612 169.126C782.612 169.126 792.676 184.587 794.821 186.364C796.966 188.14 809.418 180.341 811.141 180.693" stroke="black" stroke-width="0.75" stroke-linecap="round" stroke-linejoin="round"/>
<path d="M654.91 132.875C652.556 127.149 644.251 131.071 638.209 128.578C632.167 126.085 636.372 117.883 630.31 116.606C624.249 115.329 618.627 120.371 619.277 127.42C619.928 134.469 626.533 143.29 634.876 145.791C649.159 150.056 658.706 142.141 654.91 132.875Z" stroke="black" stroke-width="0.75" stroke-linecap="round" stroke-linejoin="round"/>
<path d="M636.388 115.492C635.145 114.667 634.097 113.58 633.318 112.308C629.977 106.936 632.842 97.2783 643.266 98.5042C651.239 99.4435 651.786 108.05 650.435 111.329" stroke="black" stroke-width="0.75" stroke-linecap="round" stroke-linejoin="round"/>
<path d="M642.697 122.57C637.977 122.603 634.637 119.445 636.937 115.958C639.237 112.47 642.708 117.086 648.67 114.487" stroke="black" stroke-width="0.75" stroke-linecap="round" stroke-linejoin="round"/>
<path d="M633.384 118.712C633.384 118.712 629.345 119.167 629.68 122.084C630.015 125 634.482 124.783 634.482 124.783C634.482 124.783 630.463 126.84 632.079 129.041C633.696 131.242 638.64 129.201 638.64 129.201C638.64 129.201 636.315 133.737 639.507 134.221C642.699 134.704 644.558 130.186 644.558 130.186C644.558 130.186 646.063 134.855 647.609 135.409C649.154 135.963 649.846 130.151 649.846 130.151" stroke="black" stroke-width="0.75" stroke-linecap="round" stroke-linejoin="round"/>
<path d="M641.453 146.418C641.103 143.085 639.901 139.898 637.963 137.163C634.998 133.594 626.037 130.904 625.273 131.574C622.79 133.741 628.942 138.267 635.296 140.152" stroke="black" stroke-width="0.75" stroke-linecap="round" stroke-linejoin="round"/>
<path d="M634.875 145.79C634.875 145.79 635.486 141.528 633.321 139.504" stroke="black" stroke-width="0.75" stroke-linecap="round" stroke-linejoin="round"/>
<path d="M631.126 110.015C631.126 110.015 623.044 108.361 617.899 113.043C615.859 114.858 614.382 117.22 613.645 119.849C612.907 122.477 612.939 125.263 613.738 127.874" stroke="black" stroke-width="0.75" stroke-linecap="round" stroke-linejoin="round"/>
<path d="M657.199 146.472C657.199 146.472 655.628 152.072 647.929 154.311C641.844 156.078 633.571 152.441 633.571 152.441" stroke="black" stroke-width="0.75" stroke-linecap="round" stroke-linejoin="round"/>
<path d="M637.882 153.955C637.882 153.955 624.35 159.828 619.732 157.699C615.114 155.57 627.254 151.948 627.254 151.948C627.254 151.948 608.73 155.957 606.206 154.206C603.681 152.455 621.676 146.801 621.676 146.801C621.676 146.801 600.907 148.05 598.392 145.388C595.877 142.726 617.38 140.939 617.38 140.939C617.38 140.939 595.913 139.085 593.858 135.525C591.804 131.965 614.807 135.283 614.807 135.283C614.807 135.283 595.095 131.364 596.598 126.645C598.102 121.926 615.325 129.382 615.325 129.382" stroke="black" stroke-width="0.75" stroke-linecap="round" stroke-linejoin="round"/>
<path d="M692.983 127.997C694.116 127.974 695.215 128.375 696.068 129.12" stroke="black" stroke-width="0.75" stroke-linecap="round" stroke-linejoin="round"/>
<path d="M748.005 151.389C748.005 151.389 750.298 150.057 751.284 151.239" stroke="black" stroke-width="0.75" stroke-linecap="round" stroke-linejoin="round"/>
<path d="M718.937 163.937C718.937 163.937 722.091 152.964 725.872 153.548C728.418 153.938 726.542 159.381 725.79 161.741" stroke="black" stroke-width="0.75" stroke-linecap="round" stroke-linejoin="round"/>
<path d="M694.143 87.0351C698.508 86.8385 703.777 91.5888 703.293 94.7812C702.81 97.9737 692.703 91.9513 692.703 91.9513C692.703 91.9513 698.166 97.6431 696.734 98.8305C694.796 100.399 683.859 93.6035 683.859 93.6035C683.859 93.6035 687.232 99.3763 684.562 99.8375C681.432 100.374 675.711 93.4709 675.711 93.4709" stroke="black" stroke-width="0.75" stroke-linecap="round" stroke-linejoin="round"/>
<path d="M726.186 83.7145C723.571 81.2592 720.101 79.9207 716.515 79.9834" stroke="black" stroke-width="0.75" stroke-linecap="round" stroke-linejoin="round"/>
<path d="M758.788 196.221C758.283 196.72 757.626 197.035 756.921 197.116C756.216 197.196 755.505 197.036 754.901 196.663" stroke="black" stroke-width="0.75" stroke-linecap="round" stroke-linejoin="round"/>
<path d="M670.097 113.742L668.012 115.418" stroke="black" stroke-width="0.75" stroke-linecap="round" stroke-linejoin="round"/>
<path d="M668.33 107.655L665.131 111.505" stroke="black" stroke-width="0.75" stroke-linecap="round" stroke-linejoin="round"/>
<path d="M659.126 105.978L658.855 108.291" stroke="black" stroke-width="0.75" stroke-linecap="round" stroke-linejoin="round"/>
<path d="M670.358 123.336L667.938 122.096" stroke="black" stroke-width="0.75" stroke-linecap="round" stroke-linejoin="round"/>
<path d="M632.825 102.561L629.674 101.568" stroke="black" stroke-width="0.75" stroke-linecap="round" stroke-linejoin="round"/>
<path d="M637.83 98.7194L636.165 94.8281" stroke="black" stroke-width="0.75" stroke-linecap="round" stroke-linejoin="round"/>
<path d="M644.067 94.9092L643.259 98.4844" stroke="black" stroke-width="0.75" stroke-linecap="round" stroke-linejoin="round"/>
<path d="M648.503 100.533L649.849 98.4782" stroke="black" stroke-width="0.75" stroke-linecap="round" stroke-linejoin="round"/>
<path d="M691.508 145.156C691.508 145.156 699.975 147.666 699.108 150.57C698.242 153.475 693.962 154.648 693.962 154.648" stroke="black" stroke-width="0.75" stroke-linecap="round" stroke-linejoin="round"/>
<path d="M738.989 131.067C741.483 127.844 749.061 131.051 744.659 134.285C740.257 137.518 736.251 134.623 738.989 131.067Z" stroke="black" stroke-width="0.75" stroke-linecap="round" stroke-linejoin="round"/>
<path d="M757.364 162.443C758.776 161.721 766.55 166.548 764.239 167.486C761.928 168.424 753.213 164.579 757.364 162.443Z" stroke="black" stroke-width="0.75" stroke-linecap="round" stroke-linejoin="round"/>
<path d="M693.003 62.734C692.321 63.3722 691.882 64.2279 691.762 65.1541" stroke="black" stroke-width="0.75" stroke-linecap="round" stroke-linejoin="round"/>
<path d="M64.9986 181.211C64.6566 178.491 60.4063 157.37 60.4063 157.37L54.2833 126.43L47.5903 100.325C47.5903 100.325 45.5548 91.4665 46.0596 88.5678C46.5644 85.6692 54.7393 82.4285 54.7393 82.4285L70.2423 76.6312C70.2423 76.6312 84.3773 72.8857 90.5166 72.8857C96.6559 72.8857 105.336 73.9117 110.449 77.6571C115.562 81.4026 122.206 88.2096 123.9 94.8537C125.594 101.498 127.825 113.418 125.268 120.225C122.711 127.032 118.966 133.513 113.869 136.07C108.772 138.627 97.0142 142.779 97.0142 142.779L86.7874 145.157L90.0443 165.594L92.0799 181.097C92.201 183.605 92.0316 186.119 91.5751 188.588C90.8911 190.216 85.6149 194.206 80.5016 194.385C75.3882 194.564 71.1379 193.359 69.6072 190.982C67.8992 187.809 66.3608 184.547 64.9986 181.211Z" fill="#FF0000"/>
<path d="M105.824 108.957C106.097 104.891 104.751 100.882 102.078 97.8065C99.4046 94.7307 95.623 92.838 91.5589 92.5416C82.5372 91.9065 76.7236 97.427 76.0885 107.051C75.5186 115.666 80.5179 123.173 88.8394 124.004C96.7211 124.867 105.108 117.962 105.824 108.957Z" fill="white"/>
<path d="M57.3611 141.02C57.3611 141.02 53.8762 150.547 52.4757 149.407C51.0752 148.267 49.9678 140.678 49.9678 140.678C49.9678 140.678 39.2363 156.23 35.8165 154.113C32.3967 151.996 42.884 141.395 42.884 141.395C42.884 141.395 19.9064 155.676 16.6495 152.778C13.3926 149.879 38.2592 135.532 38.2592 135.532C38.2592 135.532 1.03257 148.234 1 140.743C1 135.451 38.9106 127.862 38.9106 127.862C38.9106 127.862 13.018 127.488 11.7641 122.553C10.5102 117.619 30.8171 119.427 37.5753 121.071C56.1723 125.599 62.8815 139.522 62.8815 139.522L57.3611 141.02Z" fill="#FF0000"/>
<path d="M87.4226 144.651C87.4226 144.651 88.644 149.048 91.8195 148.673C94.995 148.299 95.4347 143.283 95.4347 143.283C95.4347 143.283 98.1868 147.403 100.581 146.996C102.974 146.589 102.6 141.785 102.6 141.785C102.6 141.785 105.629 145.661 107.762 144.733C109.895 143.804 109.472 138.512 109.472 138.512C109.472 138.512 111.947 143.055 114.911 141.15C117.875 139.245 115.383 135.206 115.383 135.206C111.679 137.418 107.762 139.251 103.691 140.678C100.141 141.932 87.4226 144.651 87.4226 144.651Z" fill="white"/>
<path d="M58.6802 81.0772C59.3695 79.5387 60.2683 78.1029 61.3509 76.8106C62.9105 75.3645 64.8567 74.4028 66.9528 74.0422C66.9528 74.0422 54.0554 73.2931 55.9932 70.0199C57.9311 66.7467 71.5776 70.5247 71.5776 70.5247C69.1349 69.2708 61.1066 60.4771 68.6627 61.4868C76.2187 62.4964 77.9123 74.0422 77.9123 74.0422L67.8973 77.4294C65.5035 78.2274 58.6802 81.0772 58.6802 81.0772Z" fill="#F5D233"/>
<path d="M131.587 98.2709C131.427 96.2742 130.805 94.342 129.771 92.6266C128.736 90.9112 127.318 89.4595 125.626 88.3862C121.197 85.5038 119.503 85.7806 119.503 85.7806C119.503 85.7806 123.591 92.5876 123.933 94.8023C124.275 97.017 126.489 105.876 126.31 107.911C126.131 109.947 125.805 115.402 125.805 115.402C125.805 115.402 129.73 112.341 130.691 109.263C131.572 105.67 131.874 101.959 131.587 98.2709Z" fill="white"/>
<path d="M61.1394 160.138C61.1394 160.138 67.2461 154.568 69.2817 154.568C71.3173 154.568 71.187 155.513 70.7799 156.734C69.5446 158.751 68.139 160.657 66.5785 162.434C66.5785 162.434 72.962 159.861 73.4994 161.147C74.0368 162.434 71.0567 166.782 71.0567 166.782L67.6695 171.26C67.6695 171.26 72.1478 171.944 72.5549 173.573C72.962 175.201 69.298 175.478 69.298 175.478L64.2823 176.292L62.2468 165.837L61.1394 160.138Z" fill="#F5D233"/>
<path d="M54.7394 129.394C51.2056 111.334 45.4897 90.1802 45.8317 88.5843C46.4017 85.881 61.9861 79.3346 66.8226 77.8527C75.2743 75.2797 97.226 66.9257 113.397 79.644C127.955 91.0433 129.681 115.763 121.897 128.498C114.113 141.232 86.7875 144.783 86.7875 144.783C86.7875 144.783 90.3213 164.487 90.533 168.916C90.7447 173.346 93.1223 183.035 91.3961 188.458C89.6699 193.881 78.2218 194.972 74.4438 193.783C64.0868 190.347 63.6634 170.984 61.6929 163.021C61.2044 161.018 58.7291 149.814 57.4101 143.252" stroke="black" stroke-width="0.75" stroke-linecap="round" stroke-linejoin="round"/>
<path d="M94.7506 107.521L96.5582 109.964" stroke="black" stroke-width="0.75" stroke-linecap="round" stroke-linejoin="round"/>
<path d="M94.3925 109.754L96.656 108.19" stroke="black" stroke-width="0.75" stroke-linecap="round" stroke-linejoin="round"/>
<path d="M94.3108 108.45L97.1443 109.085" stroke="black" stroke-width="0.75" stroke-linecap="round" stroke-linejoin="round"/>
<path d="M95.4346 110.503L95.972 107.295" stroke="black" stroke-width="0.75" stroke-linecap="round" stroke-linejoin="round"/>
<path d="M126.033 99.3486L127.971 101.97" stroke="black" stroke-width="0.75" stroke-linecap="round" stroke-linejoin="round"/>
<path d="M125.643 101.741L128.085 100.048" stroke="black" stroke-width="0.75" stroke-linecap="round" stroke-linejoin="round"/>
<path d="M125.561 100.34L128.59 101.024" stroke="black" stroke-width="0.75" stroke-linecap="round" stroke-linejoin="round"/>
<path d="M126.75 102.54L127.353 99.1035" stroke="black" stroke-width="0.75" stroke-linecap="round" stroke-linejoin="round"/>
<path d="M101.46 91.0898L100.581 92.7997" stroke="black" stroke-width="0.75" stroke-linecap="round" stroke-linejoin="round"/>
<path d="M92.1776 86.3525L91.8031 90.5051" stroke="black" stroke-width="0.75" stroke-linecap="round" stroke-linejoin="round"/>
<path d="M82.3418 91.1074L84.1331 93.7781" stroke="black" stroke-width="0.75" stroke-linecap="round" stroke-linejoin="round"/>
<path d="M74.0856 95.5205L76.056 97.3607" stroke="black" stroke-width="0.75" stroke-linecap="round" stroke-linejoin="round"/>
<path d="M70.0471 106.968L72.6363 106.691" stroke="black" stroke-width="0.75" stroke-linecap="round" stroke-linejoin="round"/>
<path d="M106.003 108.956C106.272 104.888 104.918 100.879 102.239 97.8055C99.5595 94.7324 95.7722 92.8455 91.7053 92.5572C82.6836 91.9221 76.87 97.4426 76.2349 107.067C75.6649 115.681 80.6643 123.189 88.9858 124.019C96.9001 124.866 105.27 117.961 106.003 108.956Z" stroke="black" stroke-width="0.75" stroke-linecap="round" stroke-linejoin="round"/>
<path d="M110.091 110.959C110.091 110.959 110.612 119.981 103.447 125.355" stroke="black" stroke-width="0.75" stroke-linecap="round" stroke-linejoin="round"/>
<path d="M73.4341 119.377C73.9563 121.226 74.8551 122.947 76.0741 124.433C77.2931 125.918 78.8061 127.135 80.5179 128.008C88.1228 131.379 93.1874 128.61 93.1874 128.61" stroke="black" stroke-width="0.75" stroke-linecap="round" stroke-linejoin="round"/>
<path d="M63.0446 139.523C63.0446 139.523 56.3516 125.599 37.8197 121.072C31.0616 119.444 10.8035 117.62 12.0086 122.554C13.2136 127.488 39.1062 127.863 39.1062 127.863C39.1062 127.863 1.16301 135.452 1.1793 140.744C1.1793 148.235 38.4222 135.533 38.4222 135.533C38.4222 135.533 13.5882 149.88 16.8451 152.778C20.102 155.677 43.1448 141.379 43.1448 141.379C43.1448 141.379 32.6575 151.997 36.0935 154.098C39.5296 156.198 50.2448 140.663 50.2448 140.663C50.2448 140.663 51.3685 148.235 52.7527 149.391C54.1369 150.547 57.6381 141.005 57.6381 141.005" stroke="black" stroke-width="0.75" stroke-linecap="round" stroke-linejoin="round"/>
<path d="M81.8531 145.303L86.7874 144.896" stroke="black" stroke-width="0.75" stroke-linecap="round" stroke-linejoin="round"/>
<path d="M17.464 108.955L14.0605 107.945" stroke="black" stroke-width="0.75" stroke-linecap="round" stroke-linejoin="round"/>
<path d="M29.156 188.798L32.071 186.795" stroke="black" stroke-width="0.75" stroke-linecap="round" stroke-linejoin="round"/>
<path d="M115.627 135.206C115.627 135.206 118.119 139.245 115.155 141.15C112.191 143.055 109.716 138.512 109.716 138.512C109.716 138.512 110.058 143.804 107.925 144.733C105.792 145.661 102.763 141.785 102.763 141.785C102.763 141.785 103.121 146.573 100.743 146.996C98.3657 147.42 95.5973 143.283 95.5973 143.283C95.5973 143.283 95.1577 148.299 91.9822 148.673C88.8067 149.048 87.6179 145.417 87.6179 145.417" stroke="black" stroke-width="0.75" stroke-linecap="round" stroke-linejoin="round"/>
<path d="M78.0753 74.0422C78.0753 74.0422 76.4469 62.4964 68.8257 61.4868C61.2045 60.4771 69.3142 69.2708 71.7406 70.5247C71.7406 70.5247 58.1104 66.763 56.1725 70.0199C54.2347 73.2768 67.1321 74.0422 67.1321 74.0422C65.0363 74.4037 63.0904 75.3653 61.5302 76.8106C60.4482 78.1034 59.5495 79.5391 58.8595 81.0772" stroke="black" stroke-width="0.75" stroke-linecap="round" stroke-linejoin="round"/>
<path d="M119.324 85.6846C119.324 85.6846 129.372 86.5151 131.359 98.0934C131.97 100.996 131.92 104 131.212 106.881C130.504 109.762 129.158 112.447 127.271 114.736" stroke="black" stroke-width="0.75" stroke-linecap="round" stroke-linejoin="round"/>
<path d="M125.008 81.4658L123.412 84.967" stroke="black" stroke-width="0.75" stroke-linecap="round" stroke-linejoin="round"/>
<path d="M116.898 78.8789L116.979 82.1684" stroke="black" stroke-width="0.75" stroke-linecap="round" stroke-linejoin="round"/>
<path d="M64.1844 176.161C64.1844 176.161 72.5384 175.966 72.3267 173.719C72.115 171.471 67.4414 171.276 67.4414 171.276C67.4414 171.276 74.574 162.531 73.3527 161.31C72.1313 160.088 65.6175 163.411 65.6175 163.411C65.6175 163.411 73.1573 156.213 70.5029 154.796C67.8485 153.379 61.5463 160.496 61.5463 160.496" stroke="black" stroke-width="0.75" stroke-linecap="round" stroke-linejoin="round"/>
<path d="M567.623 63.2789C567.428 60.2337 562.949 49.6487 562.949 49.6487C564.581 47.2995 565.946 44.7761 567.021 42.1252C568.242 38.6728 566.011 35.4159 565.197 33.7875C564.382 32.159 556.859 26.4594 552.381 25.6452C547.902 24.8309 541.6 27.4853 541.6 27.4853C541.6 27.4853 538.148 25.4497 536.112 24.4401C534.221 23.702 532.238 23.2253 530.217 23.0233C530.217 23.0233 530.429 21.1995 530.624 19.571C530.77 18.8443 530.734 18.093 530.521 17.3832C530.308 16.6733 529.924 16.0266 529.403 15.4998C528.393 14.6856 523.101 13.676 518.216 12.65C513.33 11.6241 508.249 12.2429 504.992 15.0927C501.735 17.9425 502.957 23.0396 502.957 23.0396C493.186 24.4727 482.813 33.2175 477.52 39.3242C472.228 45.431 468.157 59.4846 467.342 63.7512C466.528 68.0177 466.43 80.0358 466.74 85.7354C466.952 89.5948 470.404 100.587 473.254 103.844C476.103 107.101 484.865 119.119 499.114 122.376C513.363 125.633 519.665 123.809 523.948 124.004C528.231 124.2 540.851 119.738 549.596 112.605C558.341 105.472 563.65 91.8421 565.685 86.5496C567.721 81.2571 567.818 66.3404 567.623 63.2789ZM537.285 81.8108C534.647 87.9175 529.143 91.777 524.469 94.2197C519.795 96.6624 509.813 95.441 507.582 93.8126C505.351 92.1841 496.801 89.546 495.58 78.1468C494.359 66.7475 499.26 61.9599 501.28 59.8266C504.825 56.095 509.334 53.4177 514.307 52.0914C517.272 51.6199 520.29 51.587 523.264 51.9937C523.394 53.513 523.831 54.9902 524.547 56.3364C525.264 57.6825 526.245 58.8697 527.433 59.8266C528.347 60.6282 529.522 61.0701 530.738 61.0701C531.955 61.0701 533.129 60.6282 534.044 59.8266C535.354 61.771 536.514 63.8125 537.513 65.9333C537.904 67.3501 539.939 75.7041 537.285 81.8108Z" fill="#FF0000"/>
<path d="M503.494 91.3692C503.494 91.3692 505.334 99.1044 505.937 102.768C506.54 106.432 510.204 110.911 512.239 110.715C514.275 110.52 517.336 103.794 517.336 103.794C517.336 103.794 520.398 110.308 521.815 112.963C523.231 115.617 526.293 117.245 528.328 116.838C530.364 116.431 530.169 111.953 530.169 109.51C529.766 106.469 529.084 103.471 528.133 100.554C528.133 100.554 534.044 106.465 535.461 106.872C536.878 107.279 540.346 105.048 539.337 101.58C538.327 98.1111 532.823 89.3662 532.823 89.3662C532.823 89.3662 526.521 93.8445 522.857 94.8704C519.568 95.7232 516.134 95.8517 512.791 95.2472C509.448 94.6427 506.276 93.3196 503.494 91.3692Z" fill="#F5D233"/>
<path d="M538.213 42.2535C537.904 40.0225 540.916 33.4761 544.808 31.4731C546.999 30.6069 549.405 30.441 551.694 30.998C553.983 31.5549 556.044 32.8075 557.592 34.5835C560.23 38.0684 560.409 45.5593 557.445 49.1256C555.543 51.2324 552.923 52.5536 550.098 52.8306C547.273 53.1077 544.446 52.3208 542.17 50.6238C538.913 48.3277 538.522 44.4845 538.213 42.2535Z" fill="white"/>
<path d="M509.194 36.212C507.677 34.4287 506.746 32.2217 506.528 29.8908C506.309 27.56 506.814 25.2184 507.972 23.1843C510.415 19.5528 517.499 16.8496 521.782 18.6246C523.156 19.202 524.393 20.0636 525.411 21.1528C526.428 22.242 527.204 23.5342 527.687 24.9445C528.17 26.3548 528.349 27.8513 528.213 29.3358C528.076 30.8202 527.627 32.259 526.895 33.5576C521.847 42.3187 512.548 39.5992 509.194 36.212Z" fill="white"/>
<path d="M530.803 133.709C532.204 130.452 539.092 133.709 537.317 137.796C535.542 141.884 528.833 138.187 530.803 133.709Z" fill="#F5D233"/>
<path d="M478.09 156.067C474.003 154.943 483.318 135.89 486.379 140.58C489.441 145.27 482.927 157.386 478.09 156.067Z" fill="#FF0000"/>
<path d="M523.133 82.0062C523.247 80.6872 521.603 78.5539 517.645 77.8374C513.688 77.1208 508.901 77.4302 506.458 78.6516C504.015 79.8729 499.944 83.6347 499.439 86.4845L500.97 89.3343L505.351 92.4935C506.091 90.8249 506.974 89.2231 507.989 87.7058C509.015 86.4845 510.839 84.3512 510.839 84.3512C512.963 84.6789 515.122 84.7117 517.255 84.4489C519.583 83.9441 523.036 83.2276 523.133 82.0062Z" fill="#FF0000"/>
<path d="M496.068 70.1022C496.068 70.1022 498.723 71.9261 500.351 69.9068C501.98 67.8875 498.316 64.826 498.316 64.826C498.316 64.826 502.794 65.6402 503.608 64.2235C504.422 62.8067 502.387 59.9569 502.387 59.9569C502.387 59.9569 506.246 60.9665 507.272 60.5594C508.298 60.1523 506.67 56.0811 506.67 56.0811C506.67 56.0811 509.927 58.1167 511.555 57.4979C513.184 56.8791 511.962 52.8242 511.962 52.8242C511.962 52.8242 508.201 53.329 503.413 57.7096C499.715 60.959 497.143 65.2981 496.068 70.1022Z" fill="white"/>
<path d="M522.726 94.9359C522.726 94.9359 521.505 91.679 523.948 90.8648C524.689 90.6458 525.475 90.6253 526.226 90.8053C526.978 90.9854 527.669 91.3597 528.231 91.8907C528.231 91.8907 527.009 89.2526 528.638 88.0313C530.266 86.8099 533.93 87.4287 533.93 87.4287C533.93 87.4287 530.885 84.986 531.487 83.5693C532.09 82.1525 536.373 82.7551 536.373 82.7551C536.373 82.7551 532.921 80.5241 534.549 78.4885C534.763 78.2263 535.032 78.015 535.338 77.8698C535.643 77.7247 535.978 77.6494 536.316 77.6494C536.654 77.6494 536.988 77.7247 537.294 77.8698C537.599 78.015 537.869 78.2263 538.083 78.4885C537.343 82.1917 535.661 85.6414 533.197 88.5035C530.182 91.3388 526.619 93.5277 522.726 94.9359Z" fill="white"/>
<path d="M531.015 23.1846C536.715 24.4385 537.041 24.3896 542.643 27.8094" stroke="black" stroke-width="0.75" stroke-linecap="round" stroke-linejoin="round"/>
<path d="M562.282 49.1249C565.912 54.749 567.836 61.3046 567.819 67.9987C567.933 90.6832 559.383 102.082 550.703 111.56C542.024 121.038 525.658 125.777 507.256 124.148C489.75 122.52 476.478 109.492 472.244 102.164C458.712 78.6326 468.987 43.1159 485.402 31.6026C491.558 27.2872 495.792 24.2908 503.103 22.7764" stroke="black" stroke-width="0.75" stroke-linecap="round" stroke-linejoin="round"/>
<path d="M534.549 60.3306C538.032 65.6068 539.334 72.0277 538.18 78.2437C537.565 81.3279 536.288 84.2417 534.436 86.7834C532.584 89.3251 530.201 91.434 527.454 92.9642C524.706 94.4944 521.659 95.4093 518.523 95.6456C515.387 95.882 512.237 95.4341 509.291 94.3329C501.882 91.8577 491.867 81.8752 496.264 68.2775C498.576 61.0797 508.184 48.736 523.182 52.1232" stroke="black" stroke-width="0.75" stroke-linecap="round" stroke-linejoin="round"/>
<path d="M544.32 41.374L542.512 43.0025" stroke="black" stroke-width="0.75" stroke-linecap="round" stroke-linejoin="round"/>
<path d="M542.545 41.2119L543.929 42.9707" stroke="black" stroke-width="0.75" stroke-linecap="round" stroke-linejoin="round"/>
<path d="M543.571 41.0654L543.229 43.4267" stroke="black" stroke-width="0.75" stroke-linecap="round" stroke-linejoin="round"/>
<path d="M542.007 42.1084L544.58 42.3689" stroke="black" stroke-width="0.75" stroke-linecap="round" stroke-linejoin="round"/>
<path d="M538.408 42.0434C538.451 39.8292 539.087 37.667 540.25 35.7822C541.413 33.8975 543.06 32.3593 545.02 31.3282C547.208 30.4582 549.611 30.2871 551.9 30.8382C554.189 31.3893 556.251 32.6356 557.803 34.406C560.441 37.8909 560.621 45.3818 557.657 48.9481C555.754 51.0549 553.134 52.376 550.309 52.6531C547.484 52.9302 544.657 52.1433 542.382 50.4463C541.065 49.4941 540.01 48.2245 539.316 46.7554C538.621 45.2863 538.309 43.6654 538.408 42.0434Z" stroke="black" stroke-width="0.75" stroke-linecap="round" stroke-linejoin="round"/>
<path d="M510.855 30.0742L512.988 31.263" stroke="black" stroke-width="0.75" stroke-linecap="round" stroke-linejoin="round"/>
<path d="M511.278 31.8168L512.5 29.9277" stroke="black" stroke-width="0.75" stroke-linecap="round" stroke-linejoin="round"/>
<path d="M510.806 30.8886L513.151 30.4326" stroke="black" stroke-width="0.75" stroke-linecap="round" stroke-linejoin="round"/>
<path d="M512.288 32.028L511.702 29.5039" stroke="black" stroke-width="0.75" stroke-linecap="round" stroke-linejoin="round"/>
<path d="M509.405 36.0177C507.889 34.2344 506.958 32.0273 506.739 29.6965C506.521 27.3657 507.025 25.0241 508.184 22.99C510.627 19.3585 517.711 16.6553 521.993 18.4303C523.368 19.0077 524.604 19.8693 525.622 20.9585C526.64 22.0477 527.416 23.3399 527.899 24.7502C528.381 26.1605 528.561 27.657 528.424 29.1414C528.288 30.6259 527.839 32.0646 527.107 33.3633C522.059 42.1081 512.825 39.47 509.405 36.0177Z" stroke="black" stroke-width="0.75" stroke-linecap="round" stroke-linejoin="round"/>
<path d="M503.738 91.5811C503.738 91.5811 506.376 108.533 511.457 110.65C516.001 112.539 517.206 102.508 517.206 102.508C517.206 102.508 521.293 117.62 527.53 116.904C533.767 116.187 527.53 99.528 527.53 99.528C527.53 99.528 534.923 109.885 538.278 106.042C542.3 101.401 532.741 89.5781 532.741 89.5781" stroke="black" stroke-width="0.75" stroke-linecap="round" stroke-linejoin="round"/>
<path d="M531.015 133.709C532.416 130.452 539.304 133.709 537.529 137.796C535.754 141.884 529.028 138.187 531.015 133.709Z" stroke="black" stroke-width="0.75" stroke-linecap="round" stroke-linejoin="round"/>
<path d="M533.425 47.6113C533.23 50.8683 534.956 54.0275 535.461 56.4702C535.966 58.9129 534.435 60.9973 530.885 61.1438C526.097 61.3555 523.378 53.8158 523.264 51.0148" stroke="black" stroke-width="0.75" stroke-linecap="round" stroke-linejoin="round"/>
<path d="M502.859 22.4531C502.859 22.4531 501.589 14.4248 508.884 12.9429C515.398 11.6402 527.465 13.2849 529.11 15.5159C529.975 16.6115 530.532 17.9179 530.723 19.3005C530.915 20.683 530.735 22.0917 530.201 23.3814" stroke="black" stroke-width="0.75" stroke-linecap="round" stroke-linejoin="round"/>
<path d="M540.118 28.738C540.118 28.738 549.759 22.5662 558.243 27.9889C574.837 38.5902 563.568 47.8073 561.256 51.1457" stroke="black" stroke-width="0.75" stroke-linecap="round" stroke-linejoin="round"/>
<path d="M476.185 81.6141C476.185 81.6141 476.934 79.3506 478.693 79.3506" stroke="black" stroke-width="0.75" stroke-linecap="round" stroke-linejoin="round"/>
<path d="M478.953 54.6621L482.976 55.4275" stroke="black" stroke-width="0.75" stroke-linecap="round" stroke-linejoin="round"/>
<path d="M472.407 40.5762L475.42 42.5792" stroke="black" stroke-width="0.75" stroke-linecap="round" stroke-linejoin="round"/>
<path d="M467.114 77.8369H464.59" stroke="black" stroke-width="0.75" stroke-linecap="round" stroke-linejoin="round"/>
<path d="M482.568 109.592L480.793 111.855" stroke="black" stroke-width="0.75" stroke-linecap="round" stroke-linejoin="round"/>
<path d="M489.261 95.4551L487.503 95.6993" stroke="black" stroke-width="0.75" stroke-linecap="round" stroke-linejoin="round"/>
<path d="M558.243 100.242L560.002 101.74" stroke="black" stroke-width="0.75" stroke-linecap="round" stroke-linejoin="round"/>
<path d="M547.169 87.1514L547.674 89.1544" stroke="black" stroke-width="0.75" stroke-linecap="round" stroke-linejoin="round"/>
<path d="M560.767 79.8408L562.282 80.8505" stroke="black" stroke-width="0.75" stroke-linecap="round" stroke-linejoin="round"/>
<path d="M515.447 123.645L515.203 126.169" stroke="black" stroke-width="0.75" stroke-linecap="round" stroke-linejoin="round"/>
<path d="M544.303 117.556L545.313 119.575" stroke="black" stroke-width="0.75" stroke-linecap="round" stroke-linejoin="round"/>
<path d="M567.818 73.5547L568.812 74.0595" stroke="black" stroke-width="0.75" stroke-linecap="round" stroke-linejoin="round"/>
<path d="M546.746 55.9337C549.206 56.8073 551.904 56.7201 554.302 55.6895" stroke="black" stroke-width="0.75" stroke-linecap="round" stroke-linejoin="round"/>
<path d="M505.888 37.3037C506.474 38.2286 507.248 39.0198 508.16 39.6258C509.072 40.2319 510.101 40.6392 511.181 40.8212" stroke="black" stroke-width="0.75" stroke-linecap="round" stroke-linejoin="round"/>
<path d="M478.351 156.067C474.263 154.943 483.578 135.89 486.64 140.58C489.701 145.27 483.122 157.386 478.351 156.067Z" stroke="black" stroke-width="0.75" stroke-linecap="round" stroke-linejoin="round"/>
<path d="M564.936 15.5166L568.73 16.5914" stroke="black" stroke-width="0.75" stroke-linecap="round" stroke-linejoin="round"/>
<path d="M508.184 22.9078L505.937 19.9277" stroke="black" stroke-width="0.75" stroke-linecap="round" stroke-linejoin="round"/>
<path d="M513.07 18.9027V16.46" stroke="black" stroke-width="0.75" stroke-linecap="round" stroke-linejoin="round"/>
<path d="M521.407 17.2739L522.222 15.2383" stroke="black" stroke-width="0.75" stroke-linecap="round" stroke-linejoin="round"/>
<path d="M526.293 20.7416L528.328 19.3086" stroke="black" stroke-width="0.75" stroke-linecap="round" stroke-linejoin="round"/>
<path d="M548.895 30.1076L549.091 27.2578" stroke="black" stroke-width="0.75" stroke-linecap="round" stroke-linejoin="round"/>
<path d="M556.826 33.1517L558.862 30.1064" stroke="black" stroke-width="0.75" stroke-linecap="round" stroke-linejoin="round"/>
<path d="M559.481 38.656L563.145 38.4443" stroke="black" stroke-width="0.75" stroke-linecap="round" stroke-linejoin="round"/>
<path d="M559.481 44.7627H561.516" stroke="black" stroke-width="0.75" stroke-linecap="round" stroke-linejoin="round"/>
<path d="M496.166 70.0022C496.166 70.0022 498.82 71.8424 500.449 69.8068C502.077 67.7712 498.413 64.726 498.413 64.726C498.413 64.726 502.892 65.5403 503.706 64.1235C504.52 62.7067 502.485 59.8569 502.485 59.8569C502.485 59.8569 506.344 60.8829 507.37 60.4757C508.396 60.0686 506.767 55.9975 506.767 55.9975C506.767 55.9975 510.024 58.033 511.653 57.4305C513.281 56.828 512.06 52.7568 512.06 52.7568" stroke="black" stroke-width="0.75" stroke-linecap="round" stroke-linejoin="round"/>
<path d="M538.18 78.2912C537.967 78.029 537.697 77.8177 537.392 77.6726C537.086 77.5274 536.752 77.4521 536.414 77.4521C536.075 77.4521 535.741 77.5274 535.436 77.6726C535.13 77.8177 534.861 78.029 534.647 78.2912C533.018 80.3268 536.487 82.5741 536.487 82.5741C536.487 82.5741 532.22 81.9715 531.602 83.3883C530.983 84.8051 534.044 87.264 534.044 87.264C534.044 87.264 530.38 86.6615 528.752 87.8829C527.123 89.1042 528.345 91.7423 528.345 91.7423C527.783 91.2169 527.094 90.8473 526.346 90.6702C525.597 90.4931 524.816 90.5146 524.078 90.7327C521.635 91.5469 522.857 94.8038 522.857 94.8038" stroke="black" stroke-width="0.75" stroke-linecap="round" stroke-linejoin="round"/>
<path d="M499.228 86.8911C500.268 83.717 502.442 81.0381 505.334 79.3676C511.555 75.7362 519.779 77.7392 521.814 79.3676C524.664 81.6149 522.645 83.0805 520.186 83.8459C516.639 84.8429 512.868 84.7005 509.406 83.4388" stroke="black" stroke-width="0.75" stroke-linecap="round" stroke-linejoin="round"/>
<path d="M505.53 92.3953C506.66 89.1615 508.627 86.2847 511.229 84.0576" stroke="black" stroke-width="0.75" stroke-linecap="round" stroke-linejoin="round"/>
<path d="M196.358 58.9509C195.625 57.1126 195.288 55.1405 195.369 53.1632C196.121 48.8007 198.181 44.7694 201.274 41.6026C205.216 37.9115 213.086 35.2095 219.361 35.5787C225.636 35.9478 227.6 37.3061 230.434 39.2698C233.269 41.2335 236.591 43.6992 237.329 47.2722C238.068 50.8452 239.293 57.6073 237.078 63.5132C236.036 66.0047 234.465 68.2402 232.474 70.0654C230.483 71.8906 228.12 73.2618 225.547 74.0846C220.83 75.406 215.897 75.7823 211.034 75.1919C206.486 74.3356 202.544 69.6552 200.448 66.9533C198.626 64.546 197.242 61.8374 196.358 58.9509Z" fill="#FF0000"/>
<path d="M208.908 157.873C207.623 157.223 213.219 150.491 213.219 150.491C213.219 150.491 209.528 151.347 209.04 150.86C208.553 150.373 211.255 147.051 211.255 147.051L218.756 142.252C218.756 142.252 221.221 140.406 221.339 139.299C221.457 138.192 221.708 132.537 221.708 132.537C223.551 132.575 225.386 132.285 227.127 131.681L227.245 137.217C227.347 138.624 227.554 140.02 227.865 141.396C228.234 142.503 229.342 145.205 228.854 146.194C227.303 148.426 225.617 150.561 223.805 152.587C222.698 153.813 219.627 156.16 218.756 156.16C217.884 156.16 219.745 152.1 219.745 152.1C219.745 152.1 215.935 154.802 214.09 156.042C212.244 157.282 209.897 158.36 208.908 157.873Z" fill="#F5D233"/>
<path d="M214.326 129.082C212.562 129.288 210.777 129.203 209.041 128.831L208.42 135.844C208.42 135.844 208.79 137.572 206.206 138.679C203.622 139.786 201.289 140.037 197.967 141.381C194.645 142.724 192.8 143.847 192.918 144.334C193.036 144.821 196.491 145.072 196.491 145.072C196.491 145.072 190.216 149.132 190.954 151.096C191.692 153.06 200.182 149.369 200.182 149.369C200.182 149.369 199.444 150.963 200.802 150.963C202.16 150.963 208.184 148.261 208.184 148.261C208.184 148.261 212.865 145.559 213.721 144.821C214.205 144.181 214.535 143.437 214.683 142.648C214.832 141.859 214.795 141.046 214.577 140.274C214.096 138.808 213.969 137.25 214.208 135.726C214.361 133.515 214.401 131.297 214.326 129.082Z" fill="#F5D233"/>
<path d="M216.91 130.19C216.039 129.319 216.792 110.258 216.792 110.258L219.376 75.5612C221.463 75.2043 223.524 74.7111 225.547 74.0847C227.532 73.2137 229.465 72.2278 231.335 71.1318C231.335 71.1318 230.597 84.9071 231.084 88.111C231.571 91.315 230.966 115.056 230.966 116.784C230.93 120.893 230.683 124.998 230.228 129.083C229.513 130 228.622 130.767 227.608 131.337C226.594 131.907 225.477 132.27 224.322 132.405C223.001 132.544 221.666 132.42 220.394 132.04C219.122 131.66 217.938 131.031 216.91 130.19Z" fill="#FF0000"/>
<path d="M210.886 129.199C208.553 128.948 204.493 127.841 204.493 125.877C204.493 123.913 207.446 100.039 207.446 100.039L210.517 74.8213C211.973 75.2036 213.453 75.4897 214.946 75.6776C216.424 75.7287 217.903 75.6893 219.376 75.5595C219.376 75.5595 217.279 103.125 217.279 106.078C217.279 109.031 216.423 128.225 216.423 128.225C214.656 128.899 212.777 129.229 210.886 129.199Z" fill="#FF0000"/>
<path d="M210.148 70.8813C209.159 71.8706 198.705 73.5833 197.229 73.7161C196.071 73.7477 194.914 73.6236 193.789 73.347C193.789 73.347 191.087 74.2034 190.467 73.598C189.847 72.9927 191.825 67.0721 192.932 64.8574C194.818 61.1105 196.954 57.4948 199.325 54.035C200.281 53.2637 201.432 52.7748 202.651 52.6235C203.869 52.4721 205.106 52.6644 206.22 53.1787C207.298 53.703 208.258 54.4405 209.042 55.3465C209.826 56.2525 210.418 57.3082 210.783 58.4496C211.27 60.4133 212.259 64.9755 212.377 65.8319C212.191 67.7095 211.41 69.4786 210.148 70.8813Z" fill="#49B6BB"/>
<path d="M201.407 45.4108C200.92 46.5181 200.049 48.2456 198.823 46.6362C197.598 45.0269 197.347 40.9814 197.465 37.2903C197.583 33.5991 200.787 23.013 204.109 18.4655C207.431 13.918 210.502 12.4416 211.742 13.1798C212.983 13.918 213.219 17.7273 213.219 19.4547C213.219 21.1822 212.363 27.3242 212.112 28.5644C211.861 29.8047 211.861 31.7683 212.732 31.1482C213.603 30.5281 215.315 26.3498 215.803 25.2424C216.29 24.1351 219.243 18.1111 221.59 17.1219C223.938 16.1327 224.174 16.8709 224.056 18.9675C223.702 21.745 223.169 24.4969 222.462 27.2061C222.092 28.6826 221.472 30.5281 222.831 30.41C224.189 30.2919 225.296 27.8262 227.009 27.088C228.722 26.3498 230.213 25.6115 230.818 26.4679C231.424 27.3242 231.069 28.4316 230.331 30.159C229.593 31.8865 227.865 35.4447 227.629 36.552C227.393 37.6594 226.404 37.1722 224.927 36.552C221.68 35.6528 218.266 35.5264 214.961 36.1829C210.281 36.9212 206.472 39.1358 204.995 40.9814L201.407 45.4108Z" fill="#324265"/>
<path d="M261.204 40.4963C260.68 39.1579 259.884 37.9423 258.868 36.926C257.852 35.9097 256.636 35.1145 255.298 34.5905C254.995 34.5079 254.712 34.3647 254.466 34.1696C254.221 33.9746 254.017 33.7316 253.868 33.4555C253.719 33.1794 253.627 32.8759 253.599 32.5634C253.571 32.2509 253.606 31.936 253.703 31.6376C254.19 30.5302 255.667 25.3626 254.692 22.1587C253.718 18.9548 249.51 16.5039 246.69 16.5039C245.059 16.5657 243.484 17.1149 242.168 18.0808C240.852 19.0467 239.856 20.3848 239.308 21.9225C238.451 25.1264 237.831 29.0981 239.057 30.8993C239.756 32.0066 240.692 32.945 241.798 33.6471C242.903 34.3491 244.15 34.7974 245.45 34.9596C245.45 34.9596 241.759 37.5434 240.4 38.5326C239.042 39.5218 234.007 42.2237 234.007 42.2237C236.842 43.9512 237.949 48.8678 237.949 48.8678L247.059 40.4963C247.319 43.6262 248.288 46.6558 249.894 49.355C251.001 50.9496 255.431 53.4152 258.635 50.5804C260.034 49.358 261.03 47.739 261.488 45.9381C261.947 44.1372 261.848 42.2394 261.204 40.4963ZM250.499 27.2082C250.248 28.6846 249.51 28.8028 248.285 29.6739C246.35 31.0322 244.963 28.4484 245.081 27.0901C245.199 25.7317 245.819 21.3024 248.285 22.0406C250.75 22.7788 250.75 25.7317 250.499 27.2082ZM255.18 46.284C253.954 46.033 252.345 42.1056 253.954 40.3781C254.973 39.2708 257.527 40.8654 257.645 42.5928C257.763 44.3203 256.405 46.5202 255.18 46.2692V46.284Z" fill="#F5D233"/>
<path d="M197.598 43.3164L198.218 45.9002C197.188 47.3214 196.316 48.8513 195.619 50.4624C195.31 53.1083 195.561 55.7898 196.358 58.3319L194.881 60.5466C194.881 60.5466 191.81 58.0809 191.441 55.4971C191.072 52.9134 191.072 49.2222 193.036 47.0075C194.373 45.5664 195.909 44.3235 197.598 43.3164Z" fill="white"/>
<path d="M214.356 43.7867C215.183 42.1183 220.764 38.2057 225.282 41.2324C227.672 42.7847 229.531 45.0313 230.608 47.6705C231.684 50.3098 231.928 53.2153 231.305 55.9969C229.977 62.5229 222.594 63.7483 218.165 61.2383C213.736 58.7284 211.093 50.4602 214.356 43.7867Z" fill="white"/>
<path d="M223.303 50.5654L221.679 53.0606" stroke="black" stroke-width="0.75" stroke-linecap="round" stroke-linejoin="round"/>
<path d="M221.103 50.9785L223.377 52.5583" stroke="black" stroke-width="0.75" stroke-linecap="round" stroke-linejoin="round"/>
<path d="M222.284 50.4756L222.698 53.2956" stroke="black" stroke-width="0.75" stroke-linecap="round" stroke-linejoin="round"/>
<path d="M220.778 52.188L223.938 51.627" stroke="black" stroke-width="0.75" stroke-linecap="round" stroke-linejoin="round"/>
<path d="M193.449 51.835L191.825 54.3302" stroke="black" stroke-width="0.75" stroke-linecap="round" stroke-linejoin="round"/>
<path d="M191.249 52.248L193.523 53.8131" stroke="black" stroke-width="0.75" stroke-linecap="round" stroke-linejoin="round"/>
<path d="M192.43 51.7451L192.844 54.5651" stroke="black" stroke-width="0.75" stroke-linecap="round" stroke-linejoin="round"/>
<path d="M190.924 53.4575L194.084 52.8965" stroke="black" stroke-width="0.75" stroke-linecap="round" stroke-linejoin="round"/>
<path d="M211.846 68.1777C211.516 69.4851 210.738 70.635 209.646 71.4259C207.918 72.5333 194.674 74.4822 193.242 73.6554" stroke="black" stroke-width="0.75" stroke-linecap="round" stroke-linejoin="round"/>
<path d="M199.576 47.3447C198.233 47.7138 196.83 42.1328 197.273 38.0725C198.75 24.1791 206.87 13.9768 210.709 13.2386C214.548 12.5004 213.012 23.81 211.861 28.4313" stroke="black" stroke-width="0.75" stroke-linecap="round" stroke-linejoin="round"/>
<path d="M211.86 30.2928C211.86 30.2928 212.052 32.3303 213.588 30.4847C214.356 29.5545 217.427 19.9133 221.265 17.5067C225.104 15.1001 224.336 19.1751 223.761 21.2126C222.965 24.0198 222.324 26.8688 221.841 29.7465C221.841 30.6766 223.318 30.4847 223.318 30.4847" stroke="black" stroke-width="0.75" stroke-linecap="round" stroke-linejoin="round"/>
<path d="M224.071 29.3638C224.071 29.3638 227.718 25.6579 229.977 26.219C232.236 26.78 229.829 30.6483 229.017 32.1248C227.097 35.8307 227.26 36.5541 227.26 36.5541" stroke="black" stroke-width="0.75" stroke-linecap="round" stroke-linejoin="round"/>
<path d="M200.787 46.6368C202.386 43.1705 204.958 40.2436 208.19 38.2121C211.422 36.1807 215.175 35.1322 218.992 35.1943C221.84 35.0604 224.675 35.6549 227.23 36.9217" stroke="black" stroke-width="0.75" stroke-linecap="round" stroke-linejoin="round"/>
<path d="M196.24 58.2561C195.408 56.1182 195.208 53.7864 195.664 51.5382C196.119 49.7311 196.856 48.007 197.849 46.4297" stroke="black" stroke-width="0.75" stroke-linecap="round" stroke-linejoin="round"/>
<path d="M227.969 37.3359C231.259 38.7098 234.066 41.0332 236.03 44.0095C239.116 48.9852 239.293 54.95 237.758 60.6934C237.05 63.3684 235.799 65.8687 234.081 68.0382C232.364 70.2076 230.218 71.9997 227.777 73.3023C224.647 74.956 213.573 77.7317 205.527 72.9332" stroke="black" stroke-width="0.75" stroke-linecap="round" stroke-linejoin="round"/>
<path d="M230.848 71.2646C230.848 71.2646 231.231 91.2854 231.04 96.4677C230.848 101.65 230.656 126.676 230.272 128.536C229.888 130.397 228.16 131.681 225.089 132.242C222.018 132.803 216.452 131.312 216.452 129.644C216.452 127.975 217.264 102.935 217.456 100.115C217.648 97.2945 219.316 75.3544 219.316 75.3544" stroke="black" stroke-width="0.75" stroke-linecap="round" stroke-linejoin="round"/>
<path d="M210.62 75.1777C210.62 75.1777 209.572 86.6055 207.49 101.754C206.604 108.191 204.404 123.901 204.537 125.599C204.729 127.636 206.84 128.552 210.679 128.935C212.527 129.267 214.431 129.052 216.157 128.315" stroke="black" stroke-width="0.75" stroke-linecap="round" stroke-linejoin="round"/>
<path d="M209.173 128.903C209.173 128.903 208.937 136.064 208.406 137.053C207.682 138.412 205.453 138.81 205.453 138.81C199.65 140.154 193.641 142.989 192.903 143.904C192.165 144.819 196.166 145.011 196.166 145.011" stroke="black" stroke-width="0.75" stroke-linecap="round" stroke-linejoin="round"/>
<path d="M201.924 142.002C201.924 142.002 194.246 146.077 192.135 148.306C190.024 150.536 190.659 151.82 193.863 151.259C196.245 150.742 198.542 149.886 200.684 148.72" stroke="black" stroke-width="0.75" stroke-linecap="round" stroke-linejoin="round"/>
<path d="M207.313 143.109C204.953 144.864 202.768 146.842 200.787 149.015C199.488 150.374 199.311 151.54 203.548 150.27C206.597 149.131 209.558 147.769 212.407 146.195" stroke="black" stroke-width="0.75" stroke-linecap="round" stroke-linejoin="round"/>
<path d="M214.444 129.186C214.444 129.186 213.957 136.14 213.957 137.439C213.957 138.738 215.256 142.858 213.957 144.984" stroke="black" stroke-width="0.75" stroke-linecap="round" stroke-linejoin="round"/>
<path d="M227.201 132.064V139.299C227.201 140.776 229.578 145.205 228.973 146.932C227.865 149.885 220.513 156.013 218.401 156.204C216.29 156.396 224.307 145.973 224.307 145.973" stroke="black" stroke-width="0.75" stroke-linecap="round" stroke-linejoin="round"/>
<path d="M219.715 151.702C217.025 153.886 214.133 155.809 211.078 157.446C208.007 158.745 208.125 157.136 210.118 154.493C212.714 151.152 215.515 147.977 218.505 144.984" stroke="black" stroke-width="0.75" stroke-linecap="round" stroke-linejoin="round"/>
<path d="M214.533 148.927C214.533 148.927 210.295 151.407 208.76 151.038C207.224 150.669 213.189 144.984 218.372 142.253L220.099 141.146C220.099 141.146 221.443 140.215 221.443 139.108C221.443 138.001 221.827 132.435 221.827 132.435" stroke="black" stroke-width="0.75" stroke-linecap="round" stroke-linejoin="round"/>
<path d="M205.335 60.8862L206.102 59.2178" stroke="black" stroke-width="0.75" stroke-linecap="round" stroke-linejoin="round"/>
<path d="M212.422 65.6968C212.422 65.6968 211.27 58.4622 209.159 55.6865C208.562 54.7361 207.744 53.9443 206.774 53.3786C205.805 52.813 204.713 52.4904 203.592 52.4383C202.42 52.4203 201.265 52.7213 200.251 53.3091C199.237 53.8968 198.401 54.7492 197.834 55.775C195.811 58.8313 190.349 69.949 190.068 72.7395C189.788 75.53 197.746 71.957 198.927 71.4993C202.72 69.8086 206.315 67.7042 209.646 65.2243" stroke="black" stroke-width="0.75" stroke-linecap="round" stroke-linejoin="round"/>
<path d="M195.162 60.5018C195.162 60.5018 190.733 57.5489 191.131 53.2672C191.825 45.5158 197.037 43.626 197.037 43.626" stroke="black" stroke-width="0.75" stroke-linecap="round" stroke-linejoin="round"/>
<path d="M213.411 55.0235C212.554 51.8344 211.609 43.3891 218.106 40.9972C222.919 39.2255 228.869 41.1744 231.217 48.3795C233.564 55.5846 229.652 60.6488 226.522 62.0514C225.204 62.5562 223.793 62.7713 222.384 62.6822C220.976 62.5931 219.603 62.2019 218.359 61.5352C217.115 60.8685 216.03 59.9419 215.176 58.8183C214.322 57.6947 213.72 56.4004 213.411 55.0235Z" stroke="black" stroke-width="0.75" stroke-linecap="round" stroke-linejoin="round"/>
<path d="M234.878 41.9715C234.878 41.9715 238.569 39.9783 241.936 37.7488C243.223 36.892 244.451 35.9499 245.612 34.9288C246.188 34.3678 241.803 34.6778 239.706 31.592C237.004 27.6942 237.979 19.1751 243.737 17.1376C249.495 15.1 254.294 19.7361 255.061 23.442C255.526 26.2125 255.124 29.0587 253.91 31.592C253.334 33.0685 254.294 33.9987 255.637 34.5449C257.276 35.2106 258.708 36.2996 259.787 37.7005C260.866 39.1014 261.554 40.7639 261.779 42.5178C262.355 47.7149 258.088 52.853 253.718 51.7899C247.812 50.3135 247 42.5178 247.384 40.4803" stroke="black" stroke-width="0.75" stroke-linecap="round" stroke-linejoin="round"/>
<path d="M248.875 39.0029C248.875 39.0029 242.748 44.3772 238.333 48.6442" stroke="black" stroke-width="0.75" stroke-linecap="round" stroke-linejoin="round"/>
<path d="M245.228 26.5876C245.066 24.7715 245.996 22.1582 247.724 22.1582C249.451 22.1582 251.149 24.5353 250.795 26.9714C250.662 27.8868 249.451 30.1163 247.724 30.1163C245.996 30.1163 245.42 28.8022 245.228 26.5876Z" stroke="black" stroke-width="0.75" stroke-linecap="round" stroke-linejoin="round"/>
<path d="M253.866 40.3028C255.032 39.3136 257.129 40.4948 257.512 42.5323C257.896 44.5698 256.937 46.2382 255.401 46.2382C253.866 46.2382 252.33 41.6021 253.866 40.3028Z" stroke="black" stroke-width="0.75" stroke-linecap="round" stroke-linejoin="round"/>
<path d="M213.337 46.8886L211.491 46.4014" stroke="black" stroke-width="0.75" stroke-linecap="round" stroke-linejoin="round"/>
<path d="M215.921 41.6024L214.075 39.5059" stroke="black" stroke-width="0.75" stroke-linecap="round" stroke-linejoin="round"/>
<path d="M220.35 39.8738L220.601 37.29" stroke="black" stroke-width="0.75" stroke-linecap="round" stroke-linejoin="round"/>
<path d="M226.876 40.9822L227.363 38.6494" stroke="black" stroke-width="0.75" stroke-linecap="round" stroke-linejoin="round"/>
<path d="M230.567 46.4004L232.413 45.1602" stroke="black" stroke-width="0.75" stroke-linecap="round" stroke-linejoin="round"/>
<path d="M194.881 44.4216L192.667 42.3398" stroke="black" stroke-width="0.75" stroke-linecap="round" stroke-linejoin="round"/>
<path d="M192.548 47.996L189.345 47.5088" stroke="black" stroke-width="0.75" stroke-linecap="round" stroke-linejoin="round"/>
<path d="M246.409 80.5068L246.911 83.9617" stroke="black" stroke-width="0.75" stroke-linecap="round" stroke-linejoin="round"/>
<path d="M261.573 1C262.091 1.38599 262.469 1.93162 262.648 2.55309C262.827 3.17456 262.796 3.83752 262.562 4.44014" stroke="black" stroke-width="0.75" stroke-linecap="round" stroke-linejoin="round"/>
<path d="M169.634 136.611C168.911 136.943 168.322 137.511 167.965 138.223C167.608 138.934 167.504 139.746 167.67 140.524" stroke="black" stroke-width="0.75" stroke-linecap="round" stroke-linejoin="round"/>
<path d="M308.892 71.7819C307.988 64.9081 308.263 57.9304 309.707 51.1493C311.335 44.2283 314.592 34.4575 318.256 29.849C321.92 25.2404 330.339 17.2284 335.355 14.5089C340.371 11.7893 351.102 6.77367 360.319 7.86474C370.396 9.0899 380.204 11.9559 389.355 16.349C397.302 16.7561 403.604 18.3846 404.223 28.5625C404.548 33.8387 394.989 39.3592 394.045 40.1734C393.1 40.9877 384.274 48.6577 381.017 48.1203C377.76 47.5829 374.503 47.1107 371.653 39.7826C365.243 37.2812 358.109 37.3805 351.77 40.0594C346.201 42.3718 340.371 48.7391 340.371 58.7867C340.371 68.8344 341.999 80.771 350.679 87.2848C359.358 93.7987 368.869 94.9223 371.572 94.4826C378.086 93.3915 380.121 90.8186 380.121 90.8186C378.807 87.4938 377.852 84.0381 377.272 80.5104C376.995 76.8464 377.809 71.0165 382.694 69.1112C385.4 67.9645 388.416 67.775 391.244 68.5738C391.244 68.5738 398.979 56.3603 400.2 54.6016C401.422 52.8429 407.398 45.6451 409.694 46.5896C411.99 47.5341 409.971 52.0123 409.825 53.5105C409.678 55.0087 403.881 67.043 403.881 67.043C405.966 67.4147 407.872 68.4619 409.303 70.0231C410.339 69.6898 411.451 69.6796 412.493 69.9937C413.534 70.3079 414.455 70.9316 415.133 71.7819C416.439 73.6096 417.191 75.775 417.299 78.0189C417.299 78.0189 420.279 74.8922 422.054 72.5961C423.829 70.3 426.94 66.8965 428.291 68.2481C429.643 69.5997 427.477 74.762 426.94 76.6673C426.402 78.5726 419.384 91.47 417.055 93.9127C414.726 96.3554 408.913 100.834 408.098 101.925C407.284 103.016 403.897 103.83 403.897 103.83C403.897 103.83 395.624 115.36 390.332 118.356C385.039 121.352 377.174 125.554 369.439 125.814C361.703 126.075 349.213 124.463 342.292 121.059C335.371 117.656 326.415 111.288 324.379 107.755C322.344 104.221 315.699 97.1696 313.664 90.9326C311.628 84.6956 309.984 76.537 308.892 71.7819Z" fill="#FF0000"/>
<path d="M320.422 103.408C322.208 102.282 323.931 101.058 325.584 99.7443C326.529 98.7998 327.62 96.8945 326.675 95.6731C325.731 94.4518 321.92 95.6731 321.92 95.6731C323.651 93.4045 325.193 90.9971 326.529 88.4753C327.213 86.57 326.936 84.8113 325.031 84.5345C322.792 84.5462 320.562 84.8194 318.386 85.3487C318.727 83.1513 318.82 80.9227 318.663 78.7046C318.52 78.3005 318.293 77.9309 317.998 77.6194C317.704 77.3079 317.347 77.0615 316.952 76.8959C316.556 76.7303 316.13 76.6493 315.701 76.6578C315.273 76.6664 314.85 76.7645 314.462 76.9458C313.24 77.7601 311.335 82.7757 311.335 82.7757C311.335 82.7757 314.315 91.0483 315.537 93.7678C316.758 96.4874 320.422 103.408 320.422 103.408Z" fill="#61EA67"/>
<path d="M341.217 64.7639C341.217 64.7639 345.158 65.171 345.158 62.8586C345.158 60.5462 340.957 57.6964 340.957 57.6964C340.957 57.6964 345.712 58.9177 345.712 56.6053C345.712 54.2929 342.732 51.3128 342.732 51.3128C342.732 51.3128 347.21 54.2929 347.894 51.5897C348.578 48.8864 345.582 45.6132 345.582 45.6132C345.582 45.6132 350.19 49.0004 351.151 46.9648C352.112 44.9292 350.988 41.1512 350.988 41.1512C350.988 41.1512 355.059 44.4081 356.965 43.5939C358.87 42.7797 356.834 38.9854 356.834 38.9854C356.834 38.9854 347.063 39.8647 344.214 45.9715C341.364 52.0782 339.817 59.3248 341.217 64.7639Z" fill="white"/>
<path d="M378.379 41.1845C374.454 32.2931 382.303 25.2582 387.482 23.8088C394.159 21.9361 401.128 24.8511 402.382 30.6321C403.636 36.4131 400.314 44.9137 390.592 46.7702C385.593 47.7309 380.056 44.9951 378.379 41.1845Z" fill="white"/>
<path d="M342.406 74.9085C344.658 75.5457 346.987 75.8636 349.327 75.853C351.242 75.7772 353.148 75.5485 355.027 75.169C355.027 75.169 354.896 68.7854 355.711 67.3035C356.818 65.2843 359.098 63.3627 361.541 69.2088C363.983 75.055 362.225 78.0351 360.726 78.7028C358.291 79.6567 355.729 80.2492 353.121 80.4615C350.312 80.6163 347.495 80.5237 344.702 80.1847C344.702 80.1847 343.09 76.5369 342.406 74.9085Z" fill="#FF0000"/>
<path d="M393.67 35.4512L395.803 36.6562" stroke="black" stroke-width="0.75" stroke-linecap="round" stroke-linejoin="round"/>
<path d="M394.093 37.195L395.315 35.3223" stroke="black" stroke-width="0.75" stroke-linecap="round" stroke-linejoin="round"/>
<path d="M393.621 36.2821L395.966 35.8262" stroke="black" stroke-width="0.75" stroke-linecap="round" stroke-linejoin="round"/>
<path d="M395.103 37.4063L394.517 34.8984" stroke="black" stroke-width="0.75" stroke-linecap="round" stroke-linejoin="round"/>
<path d="M381.668 93.0985C377.597 87.3989 375.154 76.6347 380.04 71.3259C383.834 67.1571 391.586 69.0135 391.586 69.0135" stroke="black" stroke-width="0.75" stroke-linecap="round" stroke-linejoin="round"/>
<path d="M387.107 76.5705C387.107 76.5705 403.913 45.2552 409.613 46.3462C415.312 47.4373 399.842 74.5675 399.842 74.5675" stroke="black" stroke-width="0.75" stroke-linecap="round" stroke-linejoin="round"/>
<path d="M403.718 67.3369C403.718 67.3369 410.004 67.3369 410.688 72.6783C410.922 75.9281 410.364 79.1864 409.059 82.1722" stroke="black" stroke-width="0.75" stroke-linecap="round" stroke-linejoin="round"/>
<path d="M409.89 69.4053C410.903 69.4251 411.902 69.6504 412.825 70.0675C413.749 70.4846 414.579 71.0847 415.264 71.8317C418.113 74.5675 417.934 81.6025 415.866 85.4293" stroke="black" stroke-width="0.75" stroke-linecap="round" stroke-linejoin="round"/>
<path d="M417.494 78.6381C417.494 78.6381 426.011 65.7081 428.421 68.4765C430.832 71.2449 420.409 89.1091 417.12 93.4083C411.811 100.329 405.818 103.602 402.806 103.798" stroke="black" stroke-width="0.75" stroke-linecap="round" stroke-linejoin="round"/>
<path d="M371.865 40.3697C363.723 35.0772 348.692 38.7412 344.637 45.8576C336.788 59.5856 340.403 78.4269 351.33 87.8719C357.844 93.5227 371.279 97.9033 380.268 91.3243" stroke="black" stroke-width="0.75" stroke-linecap="round" stroke-linejoin="round"/>
<path d="M403.1 104.499C403.1 104.499 393.133 122.054 373.787 125.05C354.441 128.047 324.82 122.054 312.72 87.0581C301.875 55.6451 312.313 24.2158 341.414 11.6766C355.451 5.63504 373.983 7.75204 387.532 15.5524C390.398 17.1808 392.661 16.2363 395.674 17.1808C401.781 19.021 406.259 24.7206 403.816 32.4558" stroke="black" stroke-width="0.75" stroke-linecap="round" stroke-linejoin="round"/>
<path d="M353.952 35.4199C353.952 35.4199 347.096 39.8656 344.637 45.8584" stroke="black" stroke-width="0.75" stroke-linecap="round" stroke-linejoin="round"/>
<path d="M311.498 83.6539C311.498 83.6539 312.719 75.9187 316.79 76.8144C320.861 77.71 318.012 85.7709 318.012 85.7709C318.012 85.7709 326.366 82.628 326.968 86.5851C327.473 89.8421 321.366 96.5676 321.366 96.5676C321.366 96.5676 326.936 93.3107 326.936 96.2908C326.936 99.8245 321.269 103.277 321.269 103.277" stroke="black" stroke-width="0.75" stroke-linecap="round" stroke-linejoin="round"/>
<path d="M356.395 38.8066C356.395 38.8066 358.43 42.6009 356.525 43.4152C354.62 44.2294 350.548 40.9725 350.548 40.9725C350.548 40.9725 351.639 44.7668 350.679 46.8024C349.718 48.838 345.109 45.4508 345.109 45.4508C345.109 45.4508 348.089 48.7077 347.422 51.4272C346.754 54.1468 342.26 51.1504 342.26 51.1504C342.26 51.1504 345.24 54.1305 345.24 56.4429C345.24 58.7553 340.484 57.534 340.484 57.534C340.484 57.534 344.686 60.3838 344.686 62.6962C344.686 65.0086 340.745 64.6015 340.745 64.6015" stroke="black" stroke-width="0.75" stroke-linecap="round" stroke-linejoin="round"/>
<path d="M345.402 80.2003C345.402 80.2003 356.802 81.6985 361.557 78.0345C364.374 75.8686 361.964 66.505 358.707 65.5442C355.45 64.5834 354.359 71.7812 355.45 76.6666" stroke="black" stroke-width="0.75" stroke-linecap="round" stroke-linejoin="round"/>
<path d="M342.683 75.04C346.799 75.8459 351.02 75.9615 355.173 75.382" stroke="black" stroke-width="0.75" stroke-linecap="round" stroke-linejoin="round"/>
<path d="M384.681 47.2914C384.681 47.2914 380.073 50.418 375.317 45.6629C373.747 44.1416 372.63 42.2134 372.092 40.094C371.555 37.9745 371.617 35.7473 372.272 33.6611" stroke="black" stroke-width="0.75" stroke-linecap="round" stroke-linejoin="round"/>
<path d="M378.802 41.2978C374.878 32.4064 382.727 25.3714 387.905 23.9221C394.582 22.0494 401.552 24.9643 402.806 30.7454C404.06 36.5264 400.738 45.027 391.016 46.8834C386.016 47.8442 380.479 45.1084 378.802 41.2978Z" stroke="black" stroke-width="0.75" stroke-linecap="round" stroke-linejoin="round"/>
<path d="M385.707 17.5703C385.707 17.5703 380.822 18.5962 379.193 21.2344" stroke="black" stroke-width="0.75" stroke-linecap="round" stroke-linejoin="round"/>
<path d="M395.478 20.2266L395.266 23.6789" stroke="black" stroke-width="0.75" stroke-linecap="round" stroke-linejoin="round"/>
<path d="M403.408 24.085L400.966 25.9251" stroke="black" stroke-width="0.75" stroke-linecap="round" stroke-linejoin="round"/>
<path d="M406.877 33.2529L403.62 33.66" stroke="black" stroke-width="0.75" stroke-linecap="round" stroke-linejoin="round"/>
<path d="M386.309 21.0391L387.482 23.8074" stroke="black" stroke-width="0.75" stroke-linecap="round" stroke-linejoin="round"/>
<path d="M380.007 28.3684L377.158 26.1211" stroke="black" stroke-width="0.75" stroke-linecap="round" stroke-linejoin="round"/>
<path d="M411.892 128.11C411.892 128.11 412.984 132.458 411.355 132.458" stroke="black" stroke-width="0.75" stroke-linecap="round" stroke-linejoin="round"/>
<path d="M414.612 11.9355V14.6551" stroke="black" stroke-width="0.75" stroke-linecap="round" stroke-linejoin="round"/>
</svg>
