<svg width="242" height="318" viewBox="0 0 242 318" fill="none" xmlns="http://www.w3.org/2000/svg">
<path d="M0 0L241.333 119.989V318L0 198.603V0Z" fill="url(#paint0_radial)"/>
<path d="M27 143.252C27.3898 147.034 30.2159 152.609 34.4063 154.6C38.8891 149.822 46.8801 138.871 51.3628 133.595L54.3838 137.975C54.3838 144.247 54.4813 152.709 55.066 159.578C56.0405 162.564 58.087 164.456 60.036 165.451C62.2774 166.546 64.7136 166.347 65.7856 164.058C65.7856 159.279 65.3958 149.025 64.9086 142.853C65.5907 142.455 66.955 141.559 68.3193 140.962C72.4123 149.225 78.4543 167.642 84.7886 178.592C87.6147 179.389 91.9025 179.488 92 174.411C88.6867 164.655 80.111 144.347 76.1154 136.183C81.5727 132.6 89.1739 128.618 92 122.545C91.2204 115.975 85.8606 113.088 83.5217 112.988C74.069 120.454 68.7091 124.835 64.9086 127.124C65.1035 114.481 65.2009 108.707 64.6162 105.223C63.1544 102.834 61.7901 101.54 60.5232 100.942C58.087 99.7478 55.8456 100.942 54.8711 102.635L53.994 121.749L36.4528 90.2904C34.7961 88.0008 28.5592 88.5981 28.3643 93.3765C30.9955 99.7478 39.961 113.984 44.054 121.649C39.961 125.83 31.4828 135.088 27 143.252Z" fill="#FF0000"/>
<path d="M97.2494 182.588C101.588 188.94 105.926 186.955 107.504 184.97C107.701 178.718 107.405 165.716 109.772 152.715C112.236 164.228 115.392 182.688 118.843 193.009C120.124 195.094 125.745 197.674 127.421 195.094C131.463 185.764 135.112 174.847 137.774 165.022C138.267 183.779 138.464 196.384 139.943 203.927C143.887 209.088 149.507 207.003 150 203.133C149.014 196.483 148.817 188.246 148.62 179.909C148.324 166.709 147.929 153.013 144.281 144.477C142.605 141.301 136.295 140.408 134.717 141.004C131.463 145.172 126.435 167.602 123.378 176.237C118.448 152.417 116.18 140.805 115.49 136.041C115.194 134.553 114.208 129.292 110.758 127.704C107.307 126.017 104.94 127.605 103.56 129.888L104.151 134.156C100.503 142.79 95.869 166.709 97.2494 182.588Z" fill="#FF0000"/>
<path d="M159.2 212.347C162.129 217.115 163.398 217.413 167.109 220.094C170.721 219.895 184.391 200.231 191.03 190.498C190.444 200.43 189.956 206.984 189.859 212.645C189.761 220.591 190.444 227.642 192.69 230.721C195.034 233.402 200.306 234.097 201.282 230.721C201.087 227.741 200.99 223.967 201.087 219.498C201.087 212.844 202.552 179.871 201.771 175.402C200.404 172.522 196.889 169.642 195.034 168.152C189.663 166.762 175.896 190.002 169.745 198.543C169.745 190.399 170.624 164.974 169.94 155.738C166.62 153.553 161.934 151.865 159.59 153.95C159.493 169.344 158.614 202.515 159.2 212.347Z" fill="#FF0000"/>
<defs>
<radialGradient id="paint0_radial" cx="0" cy="0" r="1" gradientUnits="userSpaceOnUse" gradientTransform="translate(120.667 159) rotate(126.174) scale(153.611 313.504)">
<stop offset="0.44647" stop-color="#9AD8D7"/>
<stop offset="1" stop-color="#567473"/>
</radialGradient>
</defs>
</svg>
