<svg width="208" height="120" viewBox="0 0 208 120" fill="none" xmlns="http://www.w3.org/2000/svg">
<path d="M27.4964 8.66567C26.6065 8.83474 23.0739 9.2663 22.7847 10.5521C22.362 11.3619 23.6122 13.8979 23.4521 15.0013C22.8292 19.3614 24.5377 29.937 26.7222 28.5578C27.612 28.0017 28.5286 25.8527 29.1425 20.4025C31.4027 19.9576 34.9264 19.0989 35.7807 14.7654C36.7506 9.75571 30.7932 8.05169 27.4964 8.66567ZM28.1459 15.5841L27.9235 12.7722C27.9235 12.7722 29.93 12.0871 30.148 13.3284C30.3661 14.5697 28.1459 15.5841 28.1459 15.5841Z" fill="#FF0000"/>
<path d="M38.7305 14.317C38.6104 12.613 43.0061 11.3584 43.7892 12.7376C44.5722 14.1168 43.7892 22.0141 43.6424 23.6825C43.4955 25.3509 39.0197 26.4232 38.9975 24.7414C38.9752 23.0596 38.8061 15.4471 38.7305 14.317Z" fill="#FF0000"/>
<path d="M57.23 6.4684C56.3669 5.25823 51.1525 4.49298 48.8701 7.55399C46.6455 10.5216 46.165 15.7048 47.7845 19.2108C49.404 22.7167 55.6461 23.4908 58.8361 22.2896C62.0262 21.0883 60.6158 17.2309 59.815 16.9506C59.0141 16.6703 52.6963 18.8326 51.7798 14.5214C51.2192 11.8519 54.209 9.33365 55.9264 10.0722C57.6438 10.8108 58.6671 8.46607 57.23 6.4684Z" fill="#FF0000"/>
<path d="M38.9663 8.94205C37.5826 7.44714 37.983 4.54185 40.2521 4.56854C42.3922 4.59079 43.1485 7.07341 42.6458 8.7107C42.143 10.348 39.914 9.94756 38.9663 8.94205Z" fill="#FF0000"/>
<path d="M94.4961 1.43618C94.2381 0.350584 90.0069 1.61859 89.2728 1.73872C88.5387 1.85884 85.7135 7.60269 85.7135 7.60269C85.7135 7.60269 82.1542 3.29592 81.7092 2.80651C81.2643 2.31711 78.1499 3.02007 77.4603 3.32261C76.7707 3.62516 77.834 16.9014 78.0965 18.4764C78.2523 19.3974 82.1008 18.7523 83.3821 18.5431C84.6635 18.334 83.6357 13.2442 83.6313 13.2264C84.5745 14.3654 85.7758 15.6646 86.5321 15.9448C87.373 16.2563 88.6499 14.2542 89.5308 12.608H89.74L90.5275 17.1684C90.7366 18.4497 95.6573 17.4487 95.902 16.6523C96.1467 15.8559 95.1101 3.97219 94.4961 1.43618Z" fill="#FF0000"/>
<path d="M66.6133 4.44355C62.1286 4.83063 60.8606 9.83592 60.9807 12.4075C61.1809 16.9101 64.54 20.9187 67.9436 20.8209C73.0868 20.674 75.3336 15.4819 74.7107 11.8247C73.8699 6.89948 70.5374 4.10542 66.6133 4.44355ZM69.4875 12.501C69.4029 13.2618 69.0692 15.0058 67.3474 14.1338C66.3019 13.6043 65.5188 11.2152 67.0182 10.6145C68.5175 10.0139 69.572 11.7135 69.4875 12.501Z" fill="#FF0000"/>
<path d="M193.49 106.65L196.706 91.5231L200.938 85.4679L200.742 84.9962L202.521 80.1022L205.542 68.5611L197.111 61.1844L182.18 48.7713L144.482 39.1967L81.0197 23.251L71.1737 26.5122L65.4432 28.4031L64.7224 29.0794L47.9491 28.0739L43.7225 32.4118L40.1631 36.416L30.6019 39.8285L14.8564 44.7537L15.3903 67.4755L16.2312 96.8399H16.1333L16.5248 106.236C16.5248 106.236 33.8765 104.937 39.7182 104.875C47.7267 104.786 64.0239 107.749 72.1703 107.767C98.4203 107.816 119.3 105.569 119.3 105.569H133.15L148.108 105.511L167.017 105.734L193.49 106.65Z" fill="#A8C7B6"/>
<path d="M103.061 106.867L103.216 52.0272L103.283 48.6992L158.622 59.3238L171.133 61.7708L205.542 68.5602L199.83 88.5102L195.38 103.749L194.744 106.725C194.744 106.725 180.627 108.149 176.156 107.784C157.54 106.253 151.049 107.032 145.804 106.614C137.915 105.982 131.691 105.599 126.561 105.724C118.642 105.875 103.061 106.867 103.061 106.867Z" fill="#768F89"/>
<path d="M110.357 60.9121L119.091 61.4816L118.757 81.8276L110.962 79.9901L110.357 60.9121Z" fill="#9AD8D7"/>
<path d="M127.086 62.1631L126.899 80.983L133.422 81.8862L134.712 62.9016L127.086 62.1631Z" fill="#324265"/>
<path d="M141.234 63.7998L146.969 64.4449L144.304 81.7566L140.149 81.6275L141.234 63.7998Z" fill="#FBF86E"/>
<path d="M158.199 65.3926L163.676 66.8252L162.461 81.2894L156.731 80.6487L158.199 65.3926Z" fill="#9AD8D7"/>
<path d="M168.254 67.2656L172.094 67.8218L170.034 81.6586L166.452 80.315L168.254 67.2656Z" fill="#324265"/>
<path d="M176.725 68.6318L179.831 69.2903L177.13 81.3475L174.865 81.3119L176.725 68.6318Z" fill="#324265"/>
<path d="M189.094 70.9092L191.096 71.7367L190.602 75.9456L188.765 76.2215L189.094 70.9092Z" fill="#324265"/>
<path d="M193.303 71.4082L196.039 72.1245L195.122 76.0175L192.804 75.6171L193.303 71.4082Z" fill="#61EA67"/>
<path d="M198.357 72.5244L200.252 72.6178L199.754 76.8267L197.383 76.057L198.357 72.5244Z" fill="#324265"/>
<path d="M108.333 102.832L109.73 92.1008L115.3 91.6426L114.949 101.84L108.333 102.832Z" fill="#324265"/>
<path d="M124.563 102.374L125.391 92.8574L132.229 93.3379L131.237 101.756L124.563 102.374Z" fill="#49B6BB"/>
<path d="M137.008 100.447L138.423 92.3408L144.78 92.1406L143.312 99.8777L137.008 100.447Z" fill="#324265"/>
<path d="M155.271 102.29L157.572 92.5459L161.874 91.1533L161.193 99.144L155.271 102.29Z" fill="#324265"/>
<path d="M166.199 97.4532L166.626 90.25L170.519 91.171L171.4 97.0527L166.199 97.4532Z" fill="#324265"/>
<path d="M174.745 90.5352L177.01 90.5752L177.468 96.1411L173.477 97.1154L174.745 90.5352Z" fill="#324265"/>
<path d="M41.351 56.0312L48.9769 56.7698L49.4351 77.3694L42.6012 76.8933L41.351 56.0312Z" fill="#AED1E9"/>
<path d="M55.3392 56.5654L62.965 57.304L63.4767 78.2728L55.7974 77.1694L55.3392 56.5654Z" fill="#324265"/>
<path d="M42.5034 101.337L42.708 85.1465L47.651 85.5291L48.2383 101.982L42.5034 101.337Z" fill="#AED1E9"/>
<path d="M55.1123 85.1641L61.2699 86.1206L60.9184 103.837L54.9655 101.724L55.1123 85.1641Z" fill="#61EA67"/>
<path d="M103.256 48.6326L70.8622 46.0299L48.0915 28.2733L63.5211 28.6248L81.0107 22.8721L150.471 40.553L182.18 48.3924L205.538 68.1955L192.827 66.1534L129.137 53.7091L103.256 48.6326Z" fill="#E48F4C"/>
<path d="M14.7985 45.0109L31.7765 44.8152L40.1409 36.0459L14.7985 45.0109Z" fill="#E48F4C"/>
<path d="M103.061 106.606L103.296 48.6289" stroke="black" stroke-linecap="round" stroke-linejoin="round"/>
<path d="M205.76 67.8535L194.744 106.735C194.744 106.735 183.083 107.78 183.417 107.656" stroke="black" stroke-linecap="round" stroke-linejoin="round"/>
<path d="M205.32 68.4143L103.297 48.6289" stroke="black" stroke-linecap="round" stroke-linejoin="round"/>
<path d="M71.1826 106.4L70.6665 46.0031L48.0648 28.0908L31.9011 44.7974L32.0879 102.899" stroke="black" stroke-linecap="round" stroke-linejoin="round"/>
<path d="M207.5 69.5886L182.264 48.3172L80.8773 22.7568" stroke="black" stroke-linecap="round" stroke-linejoin="round"/>
<path d="M78.1188 28.8477L70.6664 46.0036" stroke="black" stroke-linecap="round" stroke-linejoin="round"/>
<path d="M103.296 48.6279L70.6664 46.0029" stroke="black" stroke-linecap="round" stroke-linejoin="round"/>
<path d="M31.9011 44.7979L14.892 44.8423L16.4358 106.094L17.072 106.223C17.072 106.223 33.921 105.124 34.7574 105.084C39.7296 104.669 44.7331 104.836 49.6665 105.582C57.5682 106.792 71.2048 107.851 71.2048 107.851C71.2048 107.851 92.534 107.406 93.851 107.344C95.1679 107.282 122.357 105.702 131.531 105.747C140.705 105.791 145.492 107.015 149.661 106.766C153.83 106.516 161.727 107.264 165.233 107.064C168.739 106.863 178.95 108.559 183.586 107.451L187.056 66.6476L189.579 66.7722L190.264 64.6633" stroke="black" stroke-linecap="round" stroke-linejoin="round"/>
<path d="M78.19 29.3366L48.0648 28.0908" stroke="black" stroke-linecap="round" stroke-linejoin="round"/>
<path d="M63.8548 28.514L80.8772 22.7568" stroke="black" stroke-linecap="round" stroke-linejoin="round"/>
<path d="M12 45.7723L39.7983 36.2822" stroke="black" stroke-linecap="round" stroke-linejoin="round"/>
<path d="M104.115 48.5041L80.8773 22.7568" stroke="black" stroke-linecap="round" stroke-linejoin="round"/>
<path d="M57.2434 38.3643L57.3635 45.8655L67.8546 47.3026L68.3574 105.947" stroke="black" stroke-linecap="round" stroke-linejoin="round"/>
<path d="M39.7182 37.6123L39.5269 45.5318L34.8153 45.8655L34.7352 105.511" stroke="black" stroke-linecap="round" stroke-linejoin="round"/>
<path d="M157.856 55.9824L156.482 60.2002L153.959 60.0801L149.639 106.387" stroke="black" stroke-linecap="round" stroke-linejoin="round"/>
<path d="M151.97 101.969L153.696 85.9209" stroke="black" stroke-linecap="round" stroke-linejoin="round"/>
<path d="M176.156 102.854C175.097 103.229 174.009 103.518 172.903 103.718" stroke="black" stroke-linecap="round" stroke-linejoin="round"/>
<path d="M41.3688 56.1562L48.9947 56.8904L49.4529 77.4944L42.6146 77.0139L41.3688 56.1562Z" stroke="black" stroke-linecap="round" stroke-linejoin="round"/>
<path d="M55.3569 56.6904L62.9828 57.4245L63.4944 78.3978L55.8152 77.2944L55.3569 56.6904Z" stroke="black" stroke-linecap="round" stroke-linejoin="round"/>
<path d="M110.473 60.832L119.202 61.4015L118.869 81.7475L111.078 79.91L110.473 60.832Z" stroke="black" stroke-linecap="round" stroke-linejoin="round"/>
<path d="M127.197 62.082L127.01 80.9019L133.537 81.8051L134.823 62.8206L127.197 62.082Z" stroke="black" stroke-linecap="round" stroke-linejoin="round"/>
<path d="M141.35 63.7197L147.085 64.3649L144.416 81.6765L140.265 81.5475L141.35 63.7197Z" stroke="black" stroke-linecap="round" stroke-linejoin="round"/>
<path d="M158.128 65.3389L163.605 66.7759L162.39 81.2357L156.655 80.595L158.128 65.3389Z" stroke="black" stroke-linecap="round" stroke-linejoin="round"/>
<path d="M168.183 67.2119L172.023 67.7681L169.963 81.6049L166.381 80.2613L168.183 67.2119Z" stroke="black" stroke-linecap="round" stroke-linejoin="round"/>
<path d="M176.654 68.5732L179.76 69.2406L177.059 81.2934L174.799 81.2578L176.654 68.5732Z" stroke="black" stroke-linecap="round" stroke-linejoin="round"/>
<path d="M189.023 70.8564L191.029 71.684L190.531 75.8929L188.693 76.1687L189.023 70.8564Z" stroke="black" stroke-linecap="round" stroke-linejoin="round"/>
<path d="M193.232 71.3545L195.972 72.0708L195.051 75.9683L192.738 75.5634L193.232 71.3545Z" stroke="black" stroke-linecap="round" stroke-linejoin="round"/>
<path d="M198.286 72.4756L200.181 72.569L199.683 76.7735L197.311 76.0038L198.286 72.4756Z" stroke="black" stroke-linecap="round" stroke-linejoin="round"/>
<path d="M42.5212 101.457L42.7258 85.2666L47.6688 85.6537L48.2561 102.102L42.5212 101.457Z" stroke="black" stroke-linecap="round" stroke-linejoin="round"/>
<path d="M55.13 85.2852L61.2877 86.2417L60.9362 103.963L54.9832 101.849L55.13 85.2852Z" stroke="black" stroke-linecap="round" stroke-linejoin="round"/>
<path d="M108.391 102.841L109.788 92.1096L115.358 91.6514L115.007 101.849L108.391 102.841Z" stroke="black" stroke-linecap="round" stroke-linejoin="round"/>
<path d="M124.51 102.276L125.338 92.7549L132.176 93.2309L131.179 101.653L124.51 102.276Z" stroke="black" stroke-linecap="round" stroke-linejoin="round"/>
<path d="M137.008 100.515L138.423 92.4082L144.78 92.208L143.312 99.9451L137.008 100.515Z" stroke="black" stroke-linecap="round" stroke-linejoin="round"/>
<path d="M155.387 102.209L157.687 92.4698L161.985 91.0684L161.305 99.0635L155.387 102.209Z" stroke="black" stroke-linecap="round" stroke-linejoin="round"/>
<path d="M166.341 97.5606L166.764 90.3574L170.661 91.2739L171.542 97.1557L166.341 97.5606Z" stroke="black" stroke-linecap="round" stroke-linejoin="round"/>
<path d="M174.705 90.668L176.965 90.7036L177.424 96.2739L173.433 97.2438L174.705 90.668Z" stroke="black" stroke-linecap="round" stroke-linejoin="round"/>
<path d="M106.58 37.3584L107.59 39.0891" stroke="black" stroke-linecap="round" stroke-linejoin="round"/>
<path d="M118.895 39.2764C118.895 39.2764 125.364 39.8103 124.279 42.5999" stroke="black" stroke-linecap="round" stroke-linejoin="round"/>
<path d="M132.256 48.1697C132.256 48.1697 132.972 45.429 129.867 44.7705" stroke="black" stroke-linecap="round" stroke-linejoin="round"/>
<path d="M143.686 51.7201C143.686 51.7201 143.98 48.668 140.571 48.4277" stroke="black" stroke-linecap="round" stroke-linejoin="round"/>
<path d="M98.5359 31.4229C98.5359 31.4229 100.796 31.4584 101.072 33.2959" stroke="black" stroke-linecap="round" stroke-linejoin="round"/>
<path d="M139.993 42.124C139.993 42.124 143.041 42.4177 142.529 44.0016" stroke="black" stroke-linecap="round" stroke-linejoin="round"/>
<path d="M151.347 50.1943C151.347 50.1943 154.88 51.1687 153.207 52.5479" stroke="black" stroke-linecap="round" stroke-linejoin="round"/>
<path d="M160.997 46.8711C160.997 46.8711 165.153 47.0001 164.69 48.9488" stroke="black" stroke-linecap="round" stroke-linejoin="round"/>
<path d="M167.467 54.9189C167.467 54.9189 170.203 55.6353 170.003 56.792" stroke="black" stroke-linecap="round" stroke-linejoin="round"/>
<path d="M174.541 51.9785C174.541 51.9785 176.489 52.4234 176.765 54.2787" stroke="black" stroke-linecap="round" stroke-linejoin="round"/>
<path d="M184.52 58.3809C184.52 58.3809 188.106 59.7156 186.745 60.6722" stroke="black" stroke-linecap="round" stroke-linejoin="round"/>
<path d="M68.4819 38.938C68.4819 38.938 65.4832 39.0092 65.2652 37.541" stroke="black" stroke-linecap="round" stroke-linejoin="round"/>
<path d="M61.608 33.2031C61.608 33.2031 63.352 34.8182 64.7669 34.2309" stroke="black" stroke-linecap="round" stroke-linejoin="round"/>
<path d="M69.6921 31.9883C69.6921 31.9883 70.137 34.9292 71.9167 34.2885" stroke="black" stroke-linecap="round" stroke-linejoin="round"/>
<path d="M92.4984 53.7539L93.8287 105.707" stroke="black" stroke-linecap="round" stroke-linejoin="round"/>
<path d="M78.1633 55.9023L80.2588 106.093" stroke="black" stroke-linecap="round" stroke-linejoin="round"/>
<path d="M25.3074 51.7959L25.383 103.068" stroke="black" stroke-linecap="round" stroke-linejoin="round"/>
<path d="M41.9205 37.2783L47.6555 37.9234" stroke="black" stroke-linecap="round" stroke-linejoin="round"/>
<path d="M27.7055 8.82158C26.8157 8.99064 23.283 9.42221 22.9983 10.708C22.5756 11.5178 23.8214 14.0538 23.6612 15.1794C23.0383 19.5351 24.7468 30.1107 26.9358 28.736C27.8256 28.1754 28.7154 26.0309 29.3517 20.5762C31.6118 20.1313 35.1356 19.2726 35.9942 14.9347C36.9597 9.91162 31.0067 8.1987 27.7055 8.82158ZM28.3595 15.74L28.137 12.9459C28.137 12.9459 30.1436 12.2608 30.3616 13.5021C30.5796 14.7434 28.3595 15.74 28.3595 15.74V15.74Z" stroke="black" stroke-linecap="round" stroke-linejoin="round"/>
<path d="M38.9396 14.4765C38.8239 12.7636 43.2196 11.5134 43.9982 12.8926C44.7768 14.2718 43.9982 22.1691 43.8514 23.8375C43.7046 25.5059 39.2332 26.5782 39.2065 24.8964C39.1798 23.2146 39.0152 15.6155 38.9396 14.4765Z" stroke="black" stroke-linecap="round" stroke-linejoin="round"/>
<path d="M57.4436 6.62388C56.5538 5.41371 51.3661 4.65736 49.0792 7.71392C46.8546 10.6771 46.3786 15.8603 47.9936 19.3707C49.6086 22.8811 55.8597 23.6463 59.0453 22.4495C62.2309 21.2527 60.8249 17.3908 60.0285 17.1105C59.2321 16.8302 52.9099 18.997 51.9934 14.6813C51.4328 12.0118 54.4182 9.49803 56.1355 10.2321C57.8529 10.9663 58.8762 8.626 57.4436 6.62388Z" stroke="black" stroke-linecap="round" stroke-linejoin="round"/>
<path d="M39.1799 9.08442C37.8051 7.6073 38.1966 4.70201 40.4523 4.71981C42.5968 4.7465 43.3487 7.23358 42.8504 8.86641C42.3521 10.4993 40.1275 10.1033 39.1799 9.08442Z" stroke="black" stroke-linecap="round" stroke-linejoin="round"/>
<path d="M83.8537 13.3911C83.8537 13.3911 84.8904 18.4943 83.609 18.7301C82.3277 18.9659 78.4747 19.5843 78.3235 18.6634C78.061 17.0884 76.9887 3.81657 77.6828 3.53627C78.3768 3.25598 81.4734 2.52632 81.9317 3.01572C82.39 3.50513 85.9359 7.81191 85.9359 7.81191C85.9359 7.81191 88.7523 2.0725 89.4953 1.94793C90.2383 1.82335 94.4472 0.488608 94.7097 1.592C95.3192 4.12801 96.3514 16.0117 96.1111 16.8081C95.8709 17.6045 90.9457 18.5877 90.7321 17.3242C90.5186 16.0606 89.9713 12.7416 89.9713 12.7416" stroke="black" stroke-linecap="round" stroke-linejoin="round"/>
<path d="M82.4255 11.5487C82.4255 11.5487 85.3575 15.5796 86.759 16.1002C88.1605 16.6207 90.7632 10.7256 90.7632 10.7256" stroke="black" stroke-linecap="round" stroke-linejoin="round"/>
<path d="M66.8224 4.59984C62.3376 4.98692 61.0741 9.99221 61.1898 12.5638C61.3944 17.0664 64.7491 21.075 68.1571 20.9772C73.3003 20.8303 75.5472 15.6382 74.9243 11.981C74.0656 7.05132 70.7465 4.2617 66.8224 4.59984ZM69.701 12.635C69.6165 13.3958 69.2783 15.1399 67.5609 14.2723C66.5154 13.7428 65.7323 11.3492 67.2317 10.7486C68.7311 10.1479 69.7811 11.8697 69.701 12.635V12.635Z" stroke="black" stroke-linecap="round" stroke-linejoin="round"/>
<path d="M29.9301 40.0188L28.6843 26.6758" stroke="black" stroke-linecap="round" stroke-linejoin="round"/>
<path d="M29.1114 24.54L43.7535 31.9301" stroke="black" stroke-linecap="round" stroke-linejoin="round"/>
<path d="M51.2059 22.7344L51.7398 27.5395" stroke="black" stroke-linecap="round" stroke-linejoin="round"/>
<path d="M55.7841 23.1748L59.5747 28.4337" stroke="black" stroke-linecap="round" stroke-linejoin="round"/>
<path d="M69.5364 20.9277L69.7232 28.4157" stroke="black" stroke-linecap="round" stroke-linejoin="round"/>
<path d="M72.6552 19.1436L80.6103 29.6035" stroke="black" stroke-linecap="round" stroke-linejoin="round"/>
<path d="M82.0919 19.4199L84.1474 35.6504" stroke="black" stroke-linecap="round" stroke-linejoin="round"/>
<path d="M93.3838 18.2939L94.4427 34.1062" stroke="black" stroke-linecap="round" stroke-linejoin="round"/>
<path d="M41.8938 25.8223L41.5379 34.7072" stroke="black" stroke-linecap="round" stroke-linejoin="round"/>
<path d="M44.7635 18.6279L49.6621 27.4773" stroke="black" stroke-linecap="round" stroke-linejoin="round"/>
<path d="M40.6837 10.2188L40.519 12.8749" stroke="black" stroke-linecap="round" stroke-linejoin="round"/>
<path d="M17.5 106.5C15 106.334 8.2 106.9 1 110.5" stroke="black" stroke-linecap="round" stroke-linejoin="round"/>
<path d="M55.4554 114.262C56.93 112.985 61.0328 111.488 65.6472 115.72" stroke="black" stroke-linecap="round" stroke-linejoin="round"/>
<path d="M42 116.001C47 112.5 56.2 111.501 59 117.501" stroke="black" stroke-linecap="round" stroke-linejoin="round"/>
<path d="M194 107C194.333 106.667 196.2 106.4 199 108" stroke="black" stroke-linecap="round" stroke-linejoin="round"/>
<path d="M194 109.676C196.167 108.509 200.5 106.5 204.177 109.675" stroke="black" stroke-linecap="round" stroke-linejoin="round"/>
</svg>
