<svg width="206" height="301" viewBox="0 0 206 301" fill="none" xmlns="http://www.w3.org/2000/svg">
<path d="M17.207 91.031C18.514 87.8494 16.5541 82.2103 17.4918 79.2488C18.4294 76.2873 22.6411 73.2763 23.2378 70.9185C23.8345 68.5607 22.1869 67.1402 23.6998 64.1361C25.2127 61.1321 25.2411 61.5156 27.8263 59.9746C30.4115 58.4336 30.8947 54.5418 32.4786 52.4965C34.0624 50.4512 36.9031 52.3618 36.9031 52.3618C36.9031 52.3618 39.2114 49.6845 40.0567 48.0795C40.9019 46.4745 43.3452 43.016 43.1607 40.5232C42.9762 38.0303 45.86 30.1047 45.86 30.1047L48.0119 30.5238C48.0119 30.5238 51.1866 29.132 52.6002 24.7857C54.0137 20.4394 56.2085 16.228 58.6587 15.4682C61.1089 14.7085 61.4284 16.4201 63.6727 15.4827C65.917 14.5454 66.9398 12.7345 69.4966 10.81C72.0535 8.88548 75.711 8.80758 75.9453 9.36865C76.1797 9.92972 80.3768 11.9327 84.9363 11.0168C89.4959 10.101 93.6577 9.0217 96.534 8.80881C99.4104 8.59592 104.936 10.3078 105.525 10.457C106.115 10.6062 106.711 8.24836 109.808 8.40478C112.904 8.56121 114.282 11.5441 115.461 11.8425C116.64 12.1408 120.446 11.4735 121.682 12.5388C122.918 13.6042 131.965 21.2252 134.657 23.7253C137.348 26.2253 138.988 30.1528 141.36 30.9413C143.733 31.7297 152.582 31.4604 156.374 35.807C160.166 40.1537 161.039 44.1379 161.21 46.439C161.38 48.7401 164.007 52.9801 164.817 53.4986C165.627 54.0171 167.892 55.9703 168.034 57.8878C168.176 59.8054 169.078 64.1731 169.078 64.1731C169.078 64.1731 174.063 69.0099 174.837 71.6519C175.611 74.2939 174.467 77.0778 176.15 81.5806C177.833 86.0833 181.369 92.1841 181.938 94.6486C182.506 97.113 182.228 106.388 182.121 107.553C182.015 108.718 184.557 111.807 184.557 111.807C184.557 111.807 186.091 116.899 185.452 118.682C184.812 120.464 183.79 122.275 185.657 124.065C187.525 125.855 187.986 129.484 188.554 131.949C189.122 134.413 188.526 136.771 188.561 139.853C188.596 142.935 188.951 147.729 190.393 148.972C191.834 150.215 193.411 150.677 193.169 152.623C192.928 154.569 191.947 162.161 192.217 165.804C192.487 169.447 194.596 174.497 194.411 177.21C194.226 179.923 194.226 179.923 194.226 179.923C194.226 179.923 193.913 180.91 193.011 181.748C192.109 182.586 190.611 185.782 190.724 187.316C190.838 188.85 190.021 190.838 190.021 190.838C190.021 190.838 190.141 195.071 189.999 198.359C189.857 201.648 187.172 201.846 187.329 203.956C187.485 206.065 187.769 209.9 186.732 211.519C185.695 213.138 184.068 214.608 184.295 217.677C184.522 220.745 181.241 228.507 179.508 231.142C177.775 233.776 174.848 235.921 174.458 238.456C174.067 240.992 171.979 244.038 170.899 245.082C169.82 246.126 168.1 254.159 167.049 255.586C165.998 257.013 162.667 261.502 162.056 263.668C161.445 265.834 160.209 269.974 159.897 270.961C159.584 271.949 157.539 275.57 157.539 275.57C157.539 275.57 156.764 278.134 155.713 279.562C154.662 280.989 147.432 287.501 143.462 288.566C139.492 289.631 125.458 292.791 123.569 293.316C121.68 293.842 118.746 293.288 116.595 292.868C114.443 292.449 106.872 294.359 103.996 294.572C101.119 294.785 99.1733 294.543 96.5953 293.577C94.0173 292.611 86.6528 289.493 85.2963 289.401C83.9398 289.308 81.6602 287.163 77.7116 285.913C73.7629 284.663 71.2774 282.341 67.9749 282.007C64.6725 281.673 64.9283 279.918 63.6784 278.661C62.4286 277.404 58.2525 278.292 56.3422 275.927C54.4319 273.562 53.1893 269.797 53.09 268.455C52.9906 267.113 49.9087 261.942 49.2766 261.218C48.6446 260.494 45.5343 254.94 45.094 254.201C44.6537 253.462 39.6753 251.324 38.4396 250.259C37.204 249.194 36.5508 245.579 35.8478 243.895C35.1448 242.212 31.6153 238.81 30.9123 237.127C30.2093 235.444 27.6244 231.779 26.4385 228.782C25.2527 225.785 25.4375 223.072 25.5299 221.715C25.6223 220.359 23.7051 215.295 22.7677 213.051C21.8304 210.806 22.6545 206.311 22.541 204.777C22.4274 203.243 20.5455 201.261 20.1834 198.974C19.8214 196.688 19.722 195.345 19.5659 193.236C19.4098 191.127 17.2794 188.392 17.109 186.091C16.9387 183.79 16.8328 174.543 16.7192 173.009C16.6057 171.475 14.8799 171.603 13.7864 167.249C12.693 162.896 10.9391 157.434 12.1111 155.034C13.2831 152.633 14.2276 152.371 14.2917 150.631C14.3557 148.891 13.9725 143.713 14.0365 141.973C14.1005 140.233 15.7626 136.64 15.6774 135.489C15.5923 134.339 12.0133 127.663 11.8572 125.553C11.701 123.444 13.4057 120.426 13.5407 119.645C13.6757 118.864 12.7885 109.482 12.4974 108.154C12.2063 106.826 13.3852 107.124 13.7759 104.589C14.1667 102.053 13.2294 99.8088 13.6059 97.0817C13.9825 94.3545 16.6103 93.3888 16.6103 93.3888L17.207 91.031Z" fill="#49E61D"/>
<path d="M132.895 41.594C129.216 38.7814 122.938 37.318 119.146 32.9714C115.353 28.6247 108.877 24.4768 106.959 24.6187C105.042 24.7606 95.3119 23.5527 95.3119 23.5527L89.6873 20.4985C89.6873 20.4985 59.4184 23.1245 57.5577 24.0334C55.6969 24.9423 44.7593 33.4641 43.8359 36.6173C42.9124 39.7706 38.9493 43.5344 35.8383 48.392C32.7274 53.2495 23.7925 62.7799 23.1958 65.1377C22.5991 67.4955 22.4136 80.62 22.7543 85.2221C23.0949 89.8242 19.7133 106.656 19.9972 110.491C20.2811 114.326 25.9189 133.189 29.1579 124.852C31.6254 118.5 26.9571 110.747 27.5822 108.773C28.2073 106.798 33.2787 97.1683 33.1084 94.8672C32.9381 92.5662 30.637 92.7365 33.3077 87.1403C35.9784 81.5441 38.2656 75.9762 38.9191 74.3854C39.5725 72.7946 40.9791 65.7495 42.0445 64.5139C43.1099 63.2782 47.3714 58.3354 49.5589 56.6311C51.7464 54.9267 60.738 46.1634 61.8318 45.3112C62.9256 44.4591 63.0536 40.9791 69.8716 39.3176C76.6896 37.6562 83.1241 36.0231 88.1098 35.6541C93.0954 35.2851 104.529 38.6805 105.793 40.1294C107.058 41.5783 113.889 45.3143 117.838 46.5645C121.787 47.8147 130.067 50.2867 132.752 50.088C135.437 49.8893 136.573 44.4066 132.895 41.594ZM64.3606 37.7975C64.119 39.7434 56.6475 42.9957 56.3775 44.5581C56.1075 46.1205 54.3887 48.947 51.4625 51.0916C48.5364 53.2363 43.0821 52.4831 42.4999 49.827C41.9177 47.1708 45.4689 43.0518 47.5997 40.5805C49.7304 38.1091 56.79 34.5017 59.0911 34.3314C61.3921 34.1611 64.6449 35.5075 64.3606 37.7975ZM116.489 43.9651C116.489 43.9651 110.594 42.4733 109.714 40.9961C108.833 39.5188 107.484 36.9194 107.484 36.9194C106.191 35.087 111.816 38.1412 114.941 38.6811C118.066 39.2211 122.867 41.565 122.98 43.099C123.094 44.6331 116.489 43.9651 116.489 43.9651Z" fill="#62EF24"/>
<path d="M52.2754 228.798C52.1004 231.371 33.9528 220.899 33.9528 220.899C33.9528 220.899 29.4503 217.376 28.783 213.569C28.1156 209.763 26.369 201.794 26.369 201.794C26.369 201.794 27.4772 195.928 26.4547 192.533C25.4323 189.138 23.5576 184.65 23.5576 184.65C23.5576 184.65 24.6091 178.017 25.1774 175.275C25.7457 172.534 28.8422 172.69 30.4046 172.96C31.967 173.23 37.989 181.654 38.898 183.514C39.8069 185.375 42.5338 190.958 43.1727 194.381C43.8117 197.804 43.584 205.147 44.6065 208.542C45.629 211.937 52.4603 226.085 52.2754 228.798Z" fill="#8EF42F"/>
<path d="M59.1128 256.056C57.5152 254.336 54.6031 255.04 53.5592 253.96C52.5153 252.881 54.1417 251.411 53.0836 250.139C52.0255 248.868 51.0736 251.638 49.5894 249.819C48.1052 248.001 46.8553 246.744 46.6992 244.635C46.5431 242.526 47.8501 239.344 47.1187 237.277C46.3873 235.21 47.9002 232.206 49.9669 231.475C52.0336 230.744 53.873 232.15 53.873 232.15L54.3773 231.149C54.3773 231.149 56.0034 234.884 57.4734 236.511C58.9435 238.137 60.0583 240.176 60.9036 238.571C61.7488 236.966 64.8737 237.506 65.8819 240.709C66.8902 243.912 67.0747 246.404 70.3346 246.163C73.5944 245.922 73.2393 246.334 74.5248 245.467C75.8103 244.601 73.2112 240.745 74.7452 240.631C76.2793 240.517 78.7078 247.279 79.1338 247.826C79.5599 248.372 80.9874 249.424 79.5811 251.263C78.1748 253.102 79.318 255.524 79.9643 256.44C80.6105 257.357 81.7963 260.354 79.19 259.004C76.5836 257.655 74.4318 257.235 73.7215 258.059C73.0113 258.883 69.794 259.7 69.794 259.7C69.794 259.7 68.1603 263.677 67.2441 264.323C66.3279 264.969 61.0938 264.585 59.9363 261.972C58.7788 259.358 59.9508 256.958 59.1128 256.056Z" fill="#8EF42F"/>
<path d="M67.8608 92.0378C67.9962 90.3719 66.0997 89.0832 66.0854 87.1562C66.0712 85.2292 74.2486 79.3539 74.7834 77.9006C75.3187 76.447 75.7309 73.3312 75.693 72.8204C75.6552 72.3088 72.4736 71.0018 72.2509 69.7331C72.0286 68.4643 74.4908 66.9964 75.845 64.4541C77.1993 61.9118 80.5282 56.5237 82.5451 55.9888C84.5619 55.4539 79.851 56.0594 79.7281 54.398C79.605 52.7359 88.6244 51.2971 90.7978 51.1362C92.9711 50.9754 100.864 51.6769 104.358 50.2614C107.852 48.8459 107.757 47.5673 111.365 47.6859C114.973 47.8045 116.09 49.0074 116.09 49.0074C116.09 49.0074 121.038 48.1268 121.123 49.2773C121.209 50.4279 118.945 51.1098 119.13 51.8673C119.315 52.6249 124.741 52.9945 127.122 55.6459C129.503 58.2974 132.784 62.6819 134.503 63.3259C136.222 63.9699 140.469 64.0411 141.037 64.7703C141.605 65.4995 155.376 93.5297 156.441 95.7646C157.506 97.9994 158.307 100.125 158.392 101.276C158.477 102.426 156.095 103.245 156.848 104.732C157.601 106.219 158.477 105.897 159.083 107.137C159.689 108.378 160.65 112.677 160.389 114.367C160.129 116.057 159.352 115.986 159.456 117.392C159.56 118.799 160.677 120.001 160.682 121.801C160.687 123.6 160.052 125.446 159.157 125.512C158.262 125.579 156.908 124.651 156.672 121.455C156.435 118.259 156.691 114.769 156.109 112.113C155.527 109.457 153.392 99.7176 151.73 99.8406C150.068 99.9636 150.328 108.685 151.048 111.459C151.767 114.234 152.804 116.086 152.113 117.165C151.421 118.244 149.698 119.272 150.067 120.787C150.436 122.302 153.287 122.605 153.949 124.613C154.612 126.62 156.155 133.576 155.317 134.409C154.479 135.242 153.934 136.568 153.963 136.951C153.991 137.335 153.167 140.095 154.1 140.54C155.033 140.985 156.727 139.574 157.012 139.939C157.296 140.303 157.688 147.344 157.409 148.778C157.129 150.213 155.619 152.381 155.235 152.41C154.852 152.438 154.241 149.398 153.711 149.181C153.181 148.963 153.304 154.095 151.514 154.228C149.724 154.36 150.454 146.851 150.255 144.167C150.056 141.482 148.376 123.997 147.079 120.365C145.782 116.734 142.857 108.467 140.523 106.454C138.189 104.442 133.341 94.5183 130.879 95.9853C128.417 97.4532 138.297 114.589 138.761 117.382C139.225 120.175 140.758 133.944 142.429 133.949C144.101 133.953 144.082 130.227 145.242 130.27C146.402 130.313 146.269 142.405 145.563 145.028C144.857 147.651 144.464 151.022 142.326 150.795C140.189 150.567 144.408 139.844 142.405 138.835C140.402 137.826 140.189 140.156 138.847 140.255C137.505 140.355 135.19 129.922 132.108 129.957C129.026 129.992 134.088 148.898 132.987 157.463C131.885 166.028 125.685 173.428 122.617 173.655C119.549 173.882 113.299 172.802 109.607 164.592C105.914 156.382 106.966 149.749 106.767 147.064C106.568 144.38 109.381 140.701 107.882 138.691C106.384 136.681 102.968 140.019 101.469 143.214C99.9703 146.41 98.1231 157.923 95.0408 157.958C91.9585 157.993 92.3638 150.444 93.4648 147.085C94.5658 143.725 96.5761 137.021 94.4384 136.794C92.3007 136.566 90.2901 148.476 89.5868 151.999C88.8835 155.522 89.6424 173.589 92.5111 181.089C95.3799 188.589 100.372 196.124 102.652 198.269C104.931 200.414 108.425 205.94 111.99 207.218C115.555 208.497 120.591 211.402 119.362 213.035C118.133 214.669 114.305 212.445 110.634 212.332C106.962 212.218 102.971 210.392 100.35 208.851C97.7295 207.31 94.0152 206.621 92.5452 204.994C91.0752 203.368 89.5844 193.645 87.3048 191.5C85.0251 189.355 82.5538 187.224 82.1349 184.171C81.7161 181.117 80.5454 162.694 80.9219 159.967C81.2985 157.24 81.0648 146.267 82.2368 143.867C83.4087 141.466 85.4688 132.83 84.1123 132.738C82.7559 132.646 81.2994 141.622 79.5452 141.367C77.7911 141.111 81.3215 128.896 82.7776 125.125C84.2337 121.354 89.653 113.819 91.0167 111.404C92.3805 108.989 92.2669 107.455 89.0071 107.697C85.7473 107.938 79.9092 112.419 77.8279 118.164C75.7467 123.91 75.3629 129.144 73.8147 129.066C72.2664 128.987 72.3021 126.864 70.7822 127.169C69.2624 127.475 69.1839 134.229 67.8274 134.136C66.4709 134.044 65.8244 138.333 66.4066 140.989C66.9888 143.646 65.2271 151.103 65.8376 154.142C66.4482 157.182 68.8622 168.957 67.3708 169.646C65.8793 170.335 64.2323 158.503 62.123 158.659C60.0137 158.815 61.4551 165.264 62.3924 167.508C63.3297 169.752 64.8278 176.968 64.9057 180.626C64.9836 184.283 66.7375 189.745 66.787 193.019C66.8365 196.293 66.0197 198.281 66.2042 200.774C66.3887 203.267 70.9826 221.051 72.7081 226.129C74.4336 231.207 80.1856 241.192 82.3873 239.68C84.589 238.167 81.9332 233.544 80.4348 231.534C78.9364 229.524 73.6104 220.085 73.2484 217.798C72.8863 215.511 77.9709 221.69 79.0575 223.345C80.144 225 85.0296 233.7 87.3518 236.42C89.674 239.14 99.1334 247.117 100.781 248.537C102.429 249.958 106.285 252.564 106.967 251.357C107.648 250.15 112.485 250.37 113.678 250.86C114.871 251.35 118.969 252.011 119.196 249.873C119.424 247.736 112.059 244.617 109.701 244.021C107.344 243.424 104.758 244.965 102.031 244.588C99.304 244.212 93.6368 240.582 93.8358 238.061C94.0348 235.54 102.074 239.958 103.196 239.489C104.318 239.021 99.6525 235.895 101.251 234.042C102.849 232.188 109.588 237.281 111.797 238.467C114.005 239.653 124.26 242.75 126.476 241.429C128.692 240.109 132.463 241.565 132.911 239.796C133.358 238.028 132.861 236.522 135.447 234.981C138.032 233.44 145.915 230.543 148.117 229.031C150.319 227.518 154.971 220.04 156.299 219.749C157.627 219.458 157.698 225.622 158.834 225.345C159.97 225.068 159.445 217.974 160.631 215.765C161.818 213.556 166.242 208.216 167.301 209.487C168.359 210.758 169.459 212.605 167.655 214.281C165.851 215.957 164.559 219.33 164.771 222.207C164.984 225.083 166.923 227.832 165.737 230.04C164.551 232.249 157.413 237.404 157.555 239.322C157.697 241.24 159.508 242.262 159.06 244.031C158.613 245.799 153.421 245.991 151.383 247.105C149.344 248.22 149.77 248.767 151.731 249.201C153.691 249.634 155.502 250.657 155.189 251.644C154.877 252.631 150.551 254.108 150.31 256.054C150.068 258 148.143 260.649 143.47 260.031C138.797 259.412 136.198 260.762 132.484 260.073C128.769 259.383 124.643 258.339 123.152 259.028C121.66 259.717 120.616 263.843 118.549 264.574C116.482 265.306 107.456 260.575 103.522 259.517C99.5872 258.458 95.6175 254.318 90.9942 251.768C86.371 249.218 86.3353 251.341 84.1551 250.539C81.9748 249.736 81.8329 247.819 78.9638 245.524C76.0948 243.23 74.0709 239.331 71.4788 238.173C68.8866 237.016 67.0113 242.939 64.0287 239.11C61.0461 235.282 66.9763 234.651 65.9822 231.639C64.9881 228.628 60.7629 221.036 58.7743 220.219C56.7858 219.402 57.4106 222.633 58.0994 224.125C58.7882 225.616 57.4387 228.223 58.8236 228.699C60.2084 229.175 62.3887 229.977 62.4596 230.936C62.5306 231.895 60.5065 233.201 57.9143 232.044C55.3222 230.886 51.0897 225.801 50.8768 222.924C50.6639 220.048 52.624 220.481 52.688 218.741C52.7521 217.001 52.6032 212.385 51.2965 210.361C49.9899 208.337 44.9333 207.747 44.8128 203.514C44.6923 199.281 48.4849 198.422 48.0234 194.793C47.562 191.164 44.5368 186.761 42.5344 180.546C40.532 174.332 45.0853 160.306 45.4334 157.195C45.7816 154.084 46.4635 152.877 45.4054 151.606C44.3472 150.334 41.4567 150.356 41.4498 147.657C41.4428 144.958 43.7795 142.664 45.4413 144.276C47.1031 145.889 47.3015 153.779 49.489 152.075C51.6765 150.37 51.3649 135.74 53.1761 131.557C54.9874 127.374 59.6182 122.211 59.9948 119.484C60.3713 116.757 57.9709 115.585 60.4852 113.085C62.9994 110.586 64.1358 110.309 65.3929 109.059C66.65 107.809 67.9642 102.12 67.8933 101.162C67.8223 100.203 63.8879 99.1444 63.7743 97.6104C63.6608 96.0763 67.6927 94.1067 67.8608 92.0378Z" fill="#37971C"/>
<path d="M71.7088 189.183C73.3095 188.814 75.9838 194.844 77.1413 197.458C78.2988 200.071 81.6293 205.994 81.7712 207.912C81.9131 209.83 81.5435 215.255 79.4484 215.603C77.3533 215.951 74.9816 209.957 73.8383 207.535C72.695 205.113 69.4639 200.532 69.4995 198.409C69.5351 196.285 69.2443 189.751 71.7088 189.183Z" fill="#37971C"/>
<path d="M112.468 179.806C112.34 178.08 109.13 176.389 108.015 174.351C106.901 172.313 103.08 167.582 103.037 167.007C102.995 166.432 100.367 167.398 100.921 169.67C101.475 171.943 104.471 175.963 104.471 175.963C104.471 175.963 107.163 178.463 108.576 179.322C109.989 180.182 112.525 180.573 112.468 179.806Z" fill="#37971C"/>
<path d="M165.248 205.204C162.904 205.085 167.926 197.101 169.24 196.618C170.554 196.135 171.008 197.066 170.93 198.614C170.852 200.162 166.796 205.282 165.248 205.204Z" fill="#37971C"/>
<path d="M157.962 200.539C157.665 198.582 153.594 201.441 152.216 203.664C150.838 205.886 144.333 211.766 141.513 212.746C138.693 213.726 132.841 218.016 128.864 216.382C124.887 214.748 122.629 215.494 121.109 215.799C119.589 216.104 117.089 218.796 113.566 218.093C110.044 217.389 107.161 214.903 105.627 215.017C104.092 215.13 102.04 216.054 103.276 217.119C104.511 218.184 105.861 220.784 105.861 220.784C105.861 220.784 102.587 220.833 101.578 222.836C100.569 224.839 101.613 231.124 105.988 232.921C110.362 234.718 119.616 237.311 123.75 235.848C127.883 234.385 131.683 231.019 135.639 229.762C139.595 228.506 149.46 223.727 151.193 221.092C152.926 218.457 156.974 215.844 156.924 212.57C156.875 209.296 156.186 207.804 156.25 206.064C156.314 204.324 158.338 203.018 157.962 200.539Z" fill="#37971C"/>
<path d="M46.5638 138.603C47.7852 138.006 47.4087 142.204 46.4357 142.083C45.4628 141.962 44.703 139.512 46.5638 138.603Z" fill="#37971C"/>
<path d="M38.3617 129.376C36.5445 130.525 35.0454 123.645 34.8751 121.344C34.7048 119.042 39.655 115.591 40.5145 114.178C41.3739 112.765 44.6763 113.099 45.3509 114.398C46.0255 115.698 45.1377 116.728 45.3648 119.796C45.5919 122.864 44.8034 125.236 43.2978 125.733C41.7921 126.23 40.9188 122.246 39.96 122.317C39.0013 122.388 41.1244 127.629 38.3617 129.376Z" fill="#37971C"/>
<path d="M54.1165 81.7437C52.7426 80.8636 51.901 77.8588 53.4706 75.6218C55.0403 73.3847 58.4635 72.7457 59.678 70.9206C60.8926 69.0955 63.5491 63.3075 65.6868 63.5349C67.8245 63.7623 65.928 66.7947 66.972 67.8743C68.0159 68.9538 65.5086 74.1524 64.6066 74.9903C63.7046 75.8283 62.4758 77.4617 61.0768 76.794C59.6777 76.1264 61.8511 74.2303 61.1764 72.9306C60.5018 71.6309 57.6892 75.3095 57.817 77.0353C57.9447 78.7611 55.7357 82.7807 54.1165 81.7437Z" fill="#37971C"/>
<path d="M160.076 127.501C159.91 125.256 163.201 128.041 164.5 127.367C165.8 126.692 165.41 124.022 168.137 124.398C170.864 124.775 166.517 128.567 167.028 130.264C167.54 131.962 170.245 134.654 168.676 136.891C167.106 139.128 163.725 140.342 162.227 138.332C160.729 136.322 160.147 128.46 160.076 127.501Z" fill="#36961B"/>
<path d="M162.184 142.962C163.481 142.601 162.632 146.399 163.583 148.836C164.535 151.272 165.799 152.72 165.259 155.845C164.719 158.97 162.602 161.633 163.156 163.906C163.71 166.179 165.925 170.064 164.271 171.15C162.616 172.237 162.318 168.21 161.252 169.445C160.187 170.681 162.445 175.141 162.125 178.635C161.806 182.13 159.483 184.615 158.801 191.028C158.119 197.441 152.224 201.155 150.171 202.078C148.119 203.002 145.299 203.981 145.186 202.447C145.072 200.913 151.557 197.349 149.057 194.834C146.557 192.32 143.524 200.835 140.868 201.417C138.212 202 130.421 203.54 129.782 200.117C129.143 196.694 135.584 197.759 135.371 194.883C135.158 192.007 122.346 196.04 122.119 192.972C121.892 189.904 129.96 189.5 132.943 188.122C135.926 186.744 140.258 182.76 142.225 180.687C144.193 178.613 144.406 181.489 143.22 183.698C142.033 185.907 144.91 185.694 146.288 183.471C147.666 181.248 147.048 175.51 148.398 172.903C149.747 170.297 151.231 172.115 152.979 169.672C154.726 167.229 155.543 165.241 157.297 165.496C159.051 165.752 157.005 169.374 158.348 169.275C159.69 169.175 160.883 164.46 161.601 161.129C162.318 157.798 161.452 151.307 160.636 148.09C159.819 144.872 161.24 143.225 162.184 142.962Z" fill="#37971C"/>
<path d="M139.953 170.83C139.794 169.609 137.133 171.81 136.274 173.223C135.415 174.636 131.054 178.237 130.961 179.593C130.869 180.949 133.61 181.518 135.855 180.58C138.099 179.643 140.4 174.267 139.953 170.83Z" fill="#3F9726"/>
<path d="M81.7011 201.747C81.4118 200.63 82.3262 199.773 83.9028 200.235C85.4794 200.696 85.7775 204.723 87.7802 205.732C89.7829 206.741 90.5852 209.766 91.8777 211.598C93.1701 213.431 92.0625 208.885 95.6276 210.164C99.1927 211.443 100.847 215.562 103.276 217.117C105.705 218.673 108.766 220.953 113.261 221.777C117.757 222.601 124.319 222.694 125.043 222.062C125.768 221.43 130.761 218.554 134.788 218.256C138.814 217.957 142.884 218.235 142.955 219.193C143.026 220.152 137.131 223.866 135.242 224.392C133.353 224.917 123.608 228.723 119.113 227.899C114.617 227.075 105.634 222.92 103.496 222.692C101.358 222.465 100.421 220.221 100.165 221.975C99.9093 223.729 106.017 228.097 106.514 229.603C107.011 231.109 109.908 233.786 108.019 234.312C106.13 234.837 100.882 229.056 98.439 227.308C95.996 225.561 92.0758 224.695 90.1229 221.754C88.17 218.814 89.1928 217.003 86.8848 214.474C84.5768 211.946 80.8199 210.682 80.4295 208.011C80.039 205.341 83.3698 206.058 83.313 205.291C83.2563 204.524 82.2407 203.828 81.7011 201.747Z" fill="#8EF42F"/>
<path d="M129.351 144.814C130.438 144.12 130.544 140.098 129.373 137.293C128.201 134.488 123.287 125.404 121.753 125.518C120.219 125.631 113.323 128.841 111.845 129.721C110.368 130.602 107.066 135.474 109.7 137.207C112.335 138.94 112.563 131.596 114.921 132.193C117.278 132.79 118.301 136.185 118.429 137.91C118.556 139.636 117.633 142.789 118.954 145.005C120.275 147.221 124.72 149.977 124.777 150.744C124.834 151.511 123.008 155.502 123.008 155.502C123.008 155.502 123.051 150.872 121.652 150.204C120.253 149.536 121.29 153.123 120.345 153.386C119.401 153.648 118.861 151.568 117.575 152.434C116.29 153.3 119.841 154.387 119.805 156.511C119.77 158.634 119.954 161.127 121.176 162C122.397 162.874 124.18 163.513 124.18 163.513C124.18 163.513 123.995 166.226 121.033 165.289C118.072 164.351 116.083 163.534 114.968 161.496C113.854 159.458 113.35 155.253 113.35 155.253C113.35 155.253 114.088 154.813 114.784 153.797C115.48 152.782 117.27 150.914 115.459 149.891C113.648 148.868 112.555 149.721 111.134 151.368C109.714 153.016 110.48 158.165 111.638 160.778C112.795 163.392 115.614 167.618 119.123 168.129C122.631 168.641 125.721 166.099 126.992 165.04C128.263 163.982 129.599 161.184 129.457 159.267C129.315 157.349 128.136 151.845 127.256 150.368C126.375 148.891 123.769 147.541 122.725 146.461C121.681 145.382 120.289 142.207 120.41 141.234C120.531 140.261 120.758 138.124 120.41 136.028C120.062 133.933 121.078 129.424 122.669 130.077C124.26 130.731 125.289 136.824 125.68 139.495C126.07 142.165 126.958 146.341 129.351 144.814Z" fill="#49E721"/>
<path d="M128.93 188.613C128.941 187.381 119.519 189.116 118.703 191.105C117.886 193.093 119.739 194.691 119.206 195.309C118.674 195.927 113.717 196.679 111.671 195.096C109.626 193.512 105.841 191.864 104.619 190.99C103.398 190.117 100.302 184.754 99.6696 184.03C99.0375 183.306 95.146 177.617 95.1034 177.041C95.0608 176.466 92.1135 175.72 92.1135 175.72C92.1135 175.72 91.1336 172.901 90.1607 172.78C89.1877 172.659 92.0987 185.94 93.874 189.086C95.6494 192.233 96.686 195.819 100.855 197.439C105.024 199.058 108.504 199.186 109.725 200.06C110.947 200.933 118.389 202.503 120.499 202.347C122.608 202.191 123.957 199.585 122.53 198.534C121.103 197.482 120.989 195.948 120.989 195.948C120.989 195.948 122.622 197.177 123.141 196.368C123.659 195.558 123.006 191.943 124.704 191.432C126.401 190.921 128.908 190.928 128.93 188.613Z" fill="#B3FE31"/>
<path d="M122.815 186.751C122.014 185.112 120.28 186.36 116.608 186.246C112.936 186.133 106.41 183.916 104.627 183.277C102.844 182.638 100.778 183.369 103.086 185.898C105.394 188.426 108.135 188.994 110.82 188.796C113.504 188.597 116.572 188.37 117.957 188.846C119.342 189.322 123.269 187.681 122.815 186.751Z" fill="#B3FE31"/>
<path d="M96.6809 167.091C99.23 167.531 97.7961 163.924 97.2281 161.459C96.6601 158.995 95.7937 157.709 95.1333 156.601C94.4729 155.493 92.0583 154.13 92.4774 151.978C92.8966 149.826 95.3118 140.778 95.5817 139.216C95.8517 137.653 95.5537 133.626 92.9968 135.551C90.44 137.475 88.4367 146.878 88.5146 150.536C88.5925 154.193 88.7694 164.399 88.812 164.974C88.8546 165.549 89.7351 167.027 91.0774 166.927C92.4197 166.828 90.7087 156.736 92.4771 157.183C94.2455 157.631 92.7748 166.416 96.6809 167.091Z" fill="#B3FE31"/>
<path d="M80.3116 162.133C78.0782 162.712 77.2792 160.237 76.6828 157.389C76.0864 154.541 74.6305 153.106 75.6108 150.72C76.591 148.334 76.9533 145.415 77.7204 145.358C78.4874 145.301 78.1818 148.987 78.963 149.122C79.7442 149.257 77.82 141.495 78.2959 140.11C78.7718 138.725 79.3042 143.313 80.8597 140.884C82.4152 138.455 81.4283 132.937 83.1541 132.809C84.8799 132.681 84.2618 137.354 84.006 139.109C83.7502 140.863 81.669 146.608 81.8393 148.909C82.0096 151.21 82.3925 161.593 80.3116 162.133Z" fill="#8DF12F"/>
<path d="M64.9573 152.665C65.871 151.605 68.6218 155.286 69.133 156.984C69.6443 158.681 70.6027 163.816 69.4166 166.025C68.2304 168.233 68.2872 169 67.2291 167.729C66.1709 166.458 66.9099 160.812 66.3986 159.114C65.8874 157.417 64.0695 153.695 64.9573 152.665Z" fill="#8AF533"/>
<path d="M81.947 126.922C81.7985 126.244 80.8892 120.444 82.544 119.358C84.1988 118.271 86.99 116.908 87.1177 118.634C87.2455 120.36 84.5038 124.997 84.2197 126.368C83.9355 127.738 82.2381 128.25 81.947 126.922Z" fill="#8BED28"/>
<path d="M122.356 136.27C120.917 136.934 119.615 135.702 118.557 134.43C117.499 133.159 112.016 132.022 111.043 131.901C110.07 131.781 105.979 128.613 109.523 127.001C113.067 125.389 117.187 123.735 118.586 124.402C119.985 125.07 125.339 134.892 122.356 136.27Z" fill="#62EF24"/>
<path d="M119.173 160.992C117.953 160.573 117.547 157.257 119.805 156.511C122.064 155.765 123.527 154.693 123.591 152.953C123.655 151.213 124.443 148.841 126.197 149.097C127.952 149.353 130.181 153.429 129.556 155.404C128.931 157.378 125.7 158.003 125.622 159.551C125.543 161.099 125.188 161.511 123.257 161.461C121.325 161.411 120.558 161.468 119.173 160.992Z" fill="#8DF42B"/>
<path d="M106.993 160.543C105.697 160.133 104.181 159.016 103.996 156.524C103.812 154.031 104.359 148.399 104.643 147.028C104.927 145.658 105.758 143.861 107.157 144.529C108.556 145.196 107.725 146.993 108.798 148.456C109.87 149.919 110.694 150.629 109.451 152.071C108.208 153.513 108.13 155.061 108.641 156.758C109.152 158.456 107.98 160.856 106.993 160.543Z" fill="#8FF530"/>
<path d="M115.594 154.316C115.147 156.085 114.38 156.142 112.27 156.298C110.161 156.454 107.832 156.241 107.746 155.09C107.661 153.94 108.343 152.732 108.613 151.17C108.883 149.607 107.576 147.583 108.727 147.498C109.877 147.413 110.971 151.767 112.001 152.654C113.03 153.542 114.302 152.484 114.785 153.798C115.267 155.112 115.594 154.316 115.594 154.316Z" fill="#BBFF1C"/>
<path d="M115.807 151.987C114.857 151.746 115.331 148.166 116.745 149.025C118.158 149.885 116.986 152.285 115.807 151.987Z" fill="#AFF429"/>
<path d="M62.2867 153.056C61.3279 153.127 61.8821 150.193 62.6917 150.712C63.5012 151.23 63.629 152.956 62.2867 153.056Z" fill="#5CF11B"/>
<path d="M62.5711 146.479C61.6385 145.675 61.4634 141.934 61.5842 140.961C61.705 139.988 63.2958 140.642 63.3668 141.6C63.4377 142.559 62.777 146.657 62.5711 146.479Z" fill="#5CF11B"/>
<path d="M62.9907 139.121C61.8728 139.204 61.2154 135.975 61.7979 133.425C62.3804 130.876 64.831 124.91 64.76 123.951C64.6891 122.993 66.4079 120.166 66.4079 120.166C66.4079 120.166 65.6406 125.429 65.7399 126.771C65.8393 128.113 64.9083 138.979 62.9907 139.121Z" fill="#5CF11B"/>
<path d="M66.8901 131.892C67.7472 131.828 67.7918 136.259 67.8627 137.218C67.9337 138.177 68.4945 143.148 67.5641 143.603C66.6337 144.057 66.5842 140.783 66.2647 139.072C65.9452 137.36 66.1231 131.948 66.8901 131.892Z" fill="#5FEF2D"/>
<path d="M68.2109 128.902C66.9977 128.692 67.2452 126.274 68.2324 126.587C69.2195 126.899 68.9922 129.037 68.2109 128.902Z" fill="#49E61D"/>
<path d="M71.6216 107.248C72.5996 107.176 72.6656 108.328 71.657 110.331C70.6484 112.333 69.8599 114.705 70.151 116.034C70.4421 117.362 71.4788 120.948 70.385 121.8C69.2913 122.653 67.9137 119.67 67.8285 118.519C67.7434 117.369 68.3047 111.928 68.9866 110.721C69.6685 109.514 70.8546 107.305 71.6216 107.248Z" fill="#62EB1F"/>
<path d="M91.6996 99.785C91.1712 99.1065 92.2395 96.6601 94.1429 96.3264C96.0462 95.9928 97.5235 95.1122 97.8146 96.4403C98.1057 97.7684 96.2307 98.4856 94.9594 99.5437C93.6881 100.602 92.5518 100.879 91.6996 99.785Z" fill="#47DF1A"/>
<path d="M70.7701 90.5368C71.3312 90.3025 71.5157 92.7953 71.5157 92.7953C71.5157 92.7953 73.3692 94.3933 73.1419 96.531C72.9145 98.6687 70.0236 103.896 69.1926 105.692C68.3616 107.489 68.2477 111.161 66.9338 111.644C65.6199 112.127 62.701 111.764 62.005 112.78C61.3089 113.795 61.2594 110.521 62.8149 108.092C64.3704 105.664 66.5011 103.192 66.7711 101.63C67.041 100.067 68.5893 100.146 68.8734 98.775C69.1576 97.4043 69.0869 91.2398 70.7701 90.5368Z" fill="#91F12B"/>
<path d="M57.9197 138.34C57.2735 138.757 55.8249 133.482 56.4358 131.316C57.0467 129.15 60.9178 121.537 62.4449 118.724C63.972 115.912 64.4126 111.445 64.9736 111.211C65.5347 110.976 65.8684 112.88 66.2021 114.783C66.5357 116.686 67.6081 118.149 67.5157 119.506C67.4232 120.862 67.5652 122.78 66.0311 122.893C64.4971 123.007 65.2856 120.635 64.135 120.72C62.9845 120.805 62.3238 124.903 61.3861 127.865C60.4485 130.826 59.9439 137.033 57.9197 138.34Z" fill="#91F428"/>
<path d="M74.6258 103.555C73.5079 103.638 74.0225 98.0082 75.5707 98.0865C77.1189 98.1647 76.8916 100.302 76.8916 100.302C76.8916 100.302 75.2011 103.512 74.6258 103.555Z" fill="#AEFF26"/>
<path d="M71.5301 87.7812C70.876 87.3325 73.8242 84.9121 73.8242 84.9121C73.8242 84.9121 72.5456 88.4772 71.5301 87.7812Z" fill="#B9FF30"/>
<path d="M77.4038 86.3832C76.1182 85.9412 76.3103 82.0296 77.9011 82.6831C79.492 83.3366 81.2319 83.4006 81.1112 84.3735C80.9904 85.3465 78.7887 86.8591 77.4038 86.3832Z" fill="#AFF727"/>
<path d="M81.8851 81.8089C83.4352 81.8345 80.3722 84.8129 79.6052 84.8697C78.8382 84.9265 77.6381 81.7376 81.8851 81.8089Z" fill="#62EF24"/>
<path d="M146.207 104.234C144.914 102.402 143.949 94.5685 143.409 92.4876C142.87 90.4066 140.519 87.3029 139.241 85.6623C137.963 84.0217 138.602 82.2391 139.617 82.9352C140.633 83.6312 142.38 86.394 143.118 85.9537C143.857 85.5134 144.02 85.1157 142.771 83.8586C141.521 82.6015 140.129 79.4268 138.41 77.0475C136.692 74.6683 134.505 71.1668 133.162 71.2662C131.82 71.3655 133.922 73.7164 132.814 74.3768C131.706 75.0373 131.905 72.5161 131.124 72.3811C130.343 72.2461 130.03 73.2333 130.144 74.7673C130.257 76.3013 134.305 78.8938 135.349 79.9734C136.393 81.0529 138.239 85.158 137.955 86.5287C137.671 87.8993 135.058 83.851 132.239 79.6252C129.419 75.3993 122.488 70.321 119.292 68.8223C116.096 67.3236 114.619 68.2041 112.318 68.3744C110.017 68.5448 105.614 66.3642 104.137 67.2447C102.659 68.1253 102.936 69.2616 102.681 71.0158C102.425 72.77 99.7402 72.9687 97.8369 73.3024C95.9335 73.6361 97.1481 71.8109 96.2675 70.3336C95.3869 68.8564 91.7647 72.0166 90.9195 73.6216C90.0743 75.2266 91.3383 76.6754 92.709 76.9596C94.0797 77.2438 102.027 77.8124 103.809 78.4517C105.592 79.091 107.019 80.1421 106.884 80.9234C106.749 81.7046 105.173 81.2428 103.39 80.6036C101.608 79.9643 96.5511 79.3745 94.6193 79.3247C92.6876 79.2748 91.814 80.4963 91.8849 81.4551C91.9559 82.4139 89.1221 83.202 88.2059 83.8483C87.2897 84.4945 87.595 86.0143 87.0766 86.8239C86.5581 87.6335 86.1957 90.5524 84.1148 91.0921C82.0339 91.6317 81.7711 90.6871 80.8266 90.9498C79.882 91.2125 79.0367 92.8175 78.1915 94.4225C77.3463 96.0275 75.1659 98.1301 75.5066 99.827C75.8119 101.347 80.6913 96.9368 82.8788 95.2324C85.0663 93.5281 87.6657 92.1789 89.8816 90.858C92.0975 89.5372 96.2309 88.0744 99.9311 88.5718C103.631 89.0691 107.466 88.7853 110.144 91.0936C112.821 93.4019 113.581 95.8521 114.774 96.3422C115.967 96.8324 118.275 99.3608 118.609 101.264C118.942 103.168 122.94 107.692 123.97 108.58C125 109.467 127.35 112.571 126.562 114.943C125.774 117.315 124.744 116.427 125.298 118.7C125.851 120.973 127.769 126.036 128.422 129.651C129.075 133.266 131.93 135.369 132.37 136.107C132.81 136.846 139.166 141.967 139.792 139.993C140.417 138.018 137.349 133.04 137.001 130.944C136.653 128.849 137.499 122.039 134.502 118.019C131.505 113.999 132.109 114.34 131.441 110.533C130.774 106.726 130.078 102.536 127.003 100.064C123.928 97.5927 123.744 95.0999 122.118 91.3642C120.491 87.6284 121.393 86.7905 123.737 87.1954C126.081 87.6004 129.717 89.8377 130.654 92.082C131.591 94.3263 142.094 113.793 142.669 113.751C143.245 113.708 142.627 107.97 143.352 107.338C144.076 106.706 145.489 107.565 146.64 107.48C147.79 107.395 147.499 106.067 146.207 104.234ZM117.516 76.0875C113.454 78.5091 109.946 72.7917 110.258 71.8046C111.204 68.8202 119.45 74.9353 117.516 76.0875Z" fill="#62EF24"/>
<path d="M149.58 115.939C148.928 116.89 147.172 112.068 145.468 109.881C143.764 107.693 141.072 105.193 141.094 102.878C141.115 100.563 142.486 100.847 142.344 98.9293C142.202 97.0118 141.357 93.411 140.86 91.9054C140.363 90.3997 137.87 85.3785 139.241 85.6626C140.612 85.9468 143.182 89.4198 143.722 91.5007C144.262 93.5817 146.094 97.495 146.839 99.7534C147.585 102.012 148.139 104.285 148.558 107.338C148.976 110.392 150.276 114.924 149.58 115.939Z" fill="#B3FF31"/>
<path d="M131.542 85.8465C131.254 84.5317 133.091 85.9247 134.724 87.1535C136.357 88.3822 138.204 92.4873 139.084 93.9645C139.965 95.4418 140.192 98.5099 142.223 99.902C144.254 101.294 144.275 104.185 142.919 104.092C141.562 104 140.582 101.18 139.496 99.5254C138.409 97.8706 138.8 95.3352 137.649 95.4204C136.499 95.5055 135.526 95.3847 134.631 93.7157C133.736 92.0467 133.168 89.5823 133.083 88.4317C132.998 87.2812 131.833 87.1746 131.542 85.8465Z" fill="#8EF62D"/>
<path d="M127.749 86.7053C128.31 85.4668 130.867 89.7522 131.967 91.5988C133.068 93.4454 134.524 94.8801 133.814 95.7039C133.103 96.5277 130.675 94.9722 129.233 93.7292C127.791 92.4863 126.755 88.8997 127.749 86.7053Z" fill="#E6FC37"/>
<path d="M127.31 80.7613C127.864 81.5467 124.227 80.7967 121.99 79.227C119.753 77.6573 115.073 74.3404 116.977 74.0067C118.88 73.6731 120.414 73.5595 122.679 75.5127C124.945 77.4659 126.017 78.929 127.31 80.7613Z" fill="#92F330"/>
<path d="M99.427 84.3676C98.3207 83.9871 97.5662 85.2765 96.5791 84.964C95.5919 84.6514 95.6559 82.9114 94.8463 82.3929C94.0367 81.8744 92.3961 83.1527 91.8848 81.4553C91.3736 79.7579 93.9446 78.0251 96.1249 78.8278C98.3052 79.6305 98.4471 81.548 99.7894 81.4487C101.132 81.3493 103.163 82.7414 102.644 83.551C102.126 84.3606 100.812 84.8435 99.427 84.3676Z" fill="#8AF52B"/>
<path d="M89.3416 88.7768C89.5688 89.908 84.782 89.6927 84.4768 88.1729C84.1715 86.653 86.5223 84.551 88.66 84.7784C90.7977 85.0058 91.0393 83.0598 92.8219 83.6991C94.6044 84.3384 92.8004 86.0144 91.87 86.4688C90.9396 86.9233 89.0363 87.257 89.3416 88.7768Z" fill="#8AF52B"/>
<path d="M80.2011 98.1302C78.5471 98.1018 77.1545 96.042 78.1915 94.4228C79.2285 92.8036 83.2837 92.8891 85.3504 92.1577C87.4171 91.4263 89.0578 90.1481 89.8816 90.8583C90.7053 91.5686 86.4227 93.6208 85.1088 94.1036C83.7949 94.5865 82.3246 98.1658 80.2011 98.1302Z" fill="#8AF52B"/>
<path d="M102.529 97.634C101.853 95.8343 104.575 94.0121 106.109 93.8986C107.643 93.785 111.315 93.8989 112.7 94.3748C114.085 94.8507 117.756 94.9646 117.65 96.1293C117.543 97.294 114.021 96.5907 112.281 96.5267C110.541 96.4626 110.299 98.4086 111.89 99.0621C113.481 99.7155 116.371 99.6944 118.608 101.264C120.845 102.834 122.237 106.008 123.65 106.868C125.063 107.727 127.123 109.503 125.205 109.645C123.288 109.787 118.778 103.565 116.598 102.762C114.418 101.96 103.73 100.823 102.529 97.634Z" fill="#ACFD1A"/>
<path d="M129.906 131.47C129.02 132.208 127.087 127.244 125.695 124.069C124.304 120.895 123.352 118.459 124.006 116.868C124.659 115.277 124.588 114.318 126.562 114.943C128.537 115.568 129.069 114.951 130.483 115.81C131.896 116.669 132.72 117.38 133.806 119.035C134.893 120.689 137.875 124.517 135.766 124.674C133.657 124.83 133.33 120.419 131.178 120C129.026 119.581 130.006 122.401 131.682 124.205C133.358 126.009 132.556 128.189 133.862 130.213C135.169 132.237 135.993 132.947 137.051 134.219C138.109 135.49 137.619 136.683 136.234 136.207C134.849 135.731 135.361 132.223 133.635 132.351C131.909 132.478 133.053 129.695 132.172 128.217C131.292 126.74 130.269 123.345 129.424 124.95C128.579 126.555 131.178 130.412 129.906 131.47Z" fill="#8FF42C"/>
<path d="M152.264 110.534C151.178 108.879 150.581 106.032 150.482 104.689C150.383 103.347 149.921 99.7178 151.235 99.235C152.549 98.7521 153.28 100.819 153.806 102.708C154.331 104.597 154.885 106.87 153.862 108.681C152.84 110.492 152.264 110.534 152.264 110.534Z" fill="#8EF427"/>
<path d="M12.9739 91.152C12.0592 93.0687 12.193 85.8113 13.1376 85.5485C14.0822 85.2858 14.9769 86.9548 12.9739 91.152Z" fill="#8EF42F"/>
<path d="M187.021 116.445C187.021 116.445 185.913 111.899 186.787 110.678C187.66 109.456 188.498 115.564 187.021 116.445Z" fill="#8BF52F"/>
<path d="M193.091 148.965C193.091 148.965 192.175 144.406 193.944 144.853C195.712 145.301 195.023 149.015 193.091 148.965Z" fill="#8BF52F"/>
<path d="M84.5715 295.24C81.61 294.303 83.8899 291.242 85.7009 292.265C87.5118 293.287 89.7489 294.857 88.6267 295.326C87.5046 295.794 84.5715 295.24 84.5715 295.24Z" fill="#49E61D"/>
<path d="M47.9765 267.098C47.4551 269.157 42.4086 264.811 42.842 262.851C43.2753 260.891 48.2748 265.919 47.9765 267.098Z" fill="#B4FF32"/>
<path d="M20.2889 213.426C20.0406 211.79 23.2788 214.747 22.2134 215.983C21.148 217.218 20.6652 215.905 20.2889 213.426Z" fill="#49E61D"/>
<path d="M12.2873 175.651C12.187 172.546 15.4049 178.698 14.9289 180.082C14.453 181.467 12.4361 180.267 12.2873 175.651Z" fill="#63F621"/>
<path d="M46.9894 27.129C46.9894 27.129 47.7923 19.743 48.3392 19.3169C48.8861 18.8908 51.4713 17.3498 51.9542 18.6637C52.437 19.9776 50.7891 23.7629 50.2422 24.189C49.6954 24.615 46.9894 27.129 46.9894 27.129Z" fill="#49E61D"/>
<path d="M46.4446 113.546C46.3027 111.628 46.7505 104.654 47.198 102.886C47.6456 101.118 49.7839 90.9335 51.8008 92.1338C53.8177 93.3342 48.9664 103.333 48.9664 103.333C48.9664 103.333 48.9021 110.279 48.4262 111.664C47.9502 113.049 46.4446 113.546 46.4446 113.546Z" fill="#98F630"/>
<path d="M45.0105 99.3847C46.5064 99.5215 44.9251 103.44 44.6693 105.194C44.4135 106.948 41.693 114.476 41.693 114.476C41.693 114.476 40.2514 113.233 40.4788 111.096C40.7062 108.958 41.3385 104.477 42.0204 103.269C42.7022 102.062 43.8458 99.2781 45.0105 99.3847Z" fill="#98F630"/>
<path d="M38.1423 108.183C37.2409 107.674 38.9595 100.989 39.1087 100.4C39.2578 99.8102 40.4371 94.9028 40.9414 93.9014C41.4457 92.9001 42.2272 87.8293 43.186 87.7583C44.1447 87.6874 45.5719 93.9443 45.5719 93.9443C45.5719 93.9443 48.1855 92.7868 48.6898 91.7855C49.1941 90.7841 50.501 87.6025 50.4584 87.0272C50.4159 86.452 50.5723 83.3555 50.5723 83.3555C50.5723 83.3555 53.4063 77.3616 54.4222 72.8519C55.438 68.3422 56.816 66.1194 59.7563 64.1665C62.6966 62.2136 65.2109 59.7139 65.765 56.7808C66.3192 53.8477 66.2838 50.7654 66.1703 49.2314C66.0568 47.6973 67.2145 45.1052 68.5568 45.0058C69.8991 44.9065 73.1163 44.0899 74.693 44.5517C76.2696 45.0134 81.8163 44.41 82.1783 46.6969C82.5404 48.9838 81.5034 50.603 79.1598 50.198C76.8161 49.7931 77.498 48.5858 76.5109 48.2732C75.5237 47.9607 76.2765 47.7121 74.2666 49.2105C72.2566 50.7089 69.6288 51.6747 69.0536 51.7172C68.4783 51.7598 67.5476 57.42 67.2634 58.7907C66.9793 60.1614 62.6042 63.5701 60.9636 64.8483C59.323 66.1266 58.1794 68.9105 56.7731 70.7498C55.3668 72.5892 53.3565 79.2933 53.6618 80.8132C53.9671 82.333 56.5949 81.3673 56.7794 83.8601C56.9639 86.3529 53.981 87.7305 53.0222 87.8015C52.0634 87.8725 51.8077 89.6267 51.2892 90.4363C50.7707 91.2458 49.13 92.5241 48.6399 93.7172C48.1498 94.9103 48.6753 96.7995 46.2108 97.3675C43.7464 97.9355 41.4097 100.229 40.9764 102.189C40.543 104.15 38.746 108.524 38.1423 108.183Z" fill="#86F22B"/>
<path d="M68.4416 74.7057C68.3707 73.7469 63.7559 75.1925 63.5128 75.8417C62.5468 78.4197 65.1746 77.454 66.2825 76.7936C67.3905 76.1331 68.541 76.048 68.4416 74.7057Z" fill="#8BF428"/>
<path d="M68.6125 66.5962C70.3361 67.5695 65.1322 71.6739 64.4219 72.4977C63.7117 73.3215 62.277 74.7773 61.0981 74.4789C59.9192 74.1806 61.0202 70.8214 62.8384 69.3372C64.6566 67.853 68.0088 66.2552 68.6125 66.5962Z" fill="#BAF833"/>
<path d="M71.723 61.7386C70.5234 61.9373 70.047 59.9346 71.7019 58.8481C73.3567 57.7615 76.3254 56.1922 77.0073 54.9849C77.6891 53.7776 80.2034 51.2778 82.3127 51.1217C84.422 50.9656 85.9418 50.6603 89.7769 50.3764C93.612 50.0926 96.6801 49.8655 99.8617 51.1725C103.043 52.4794 105.529 54.8019 105.081 56.5703C104.634 58.3387 101.204 56.2789 99.5561 54.8584C97.9085 53.4379 94.8477 51.158 93.1219 51.2857C91.3961 51.4134 91.538 53.331 88.1148 53.97C84.6917 54.6089 83.0725 53.5719 80.7714 53.7423C78.4703 53.9126 78.6265 56.0219 77.3835 57.4635C76.1406 58.9051 73.8181 61.3907 71.723 61.7386Z" fill="#A9FF33"/>
<path d="M111.985 66.4709C110.572 65.6115 108.512 63.8359 104.897 64.4891C101.282 65.1422 99.3504 65.0924 96.7085 65.8664C94.0665 66.6403 90.9558 66.2921 87.9729 67.6697C84.99 69.0474 82.6602 74.0399 82.3619 75.2188C82.0635 76.3977 76.9782 80.6302 77.0208 81.2055C77.106 82.356 81.0193 80.5239 81.9355 79.8777C82.8517 79.2315 85.3233 76.1565 87.0349 75.837C88.7465 75.5175 92.1839 75.0703 94.3856 73.5577C96.5874 72.0451 98.4339 70.9444 100.501 70.213C102.567 69.4816 104.307 69.5456 107.915 71.3995C111.523 73.2533 115.365 75.6682 116.018 74.0774C116.672 72.4866 111.033 69.2406 111.033 69.2406C111.033 69.2406 115.337 70.0789 115.855 69.2693C116.374 68.4597 113.398 67.3304 111.985 66.4709ZM97.4824 68.5083C95.7566 68.6361 92.8021 70.3972 92.511 69.0691C92.2199 67.741 100.259 66.9532 100.259 66.9532C102.22 67.3865 99.2082 68.3806 97.4824 68.5083Z" fill="#B4FF30"/>
<path d="M107.333 58.3316C107.151 57.5842 109.059 58.2038 108.952 59.3686C108.845 60.5333 107.61 59.4679 107.333 58.3316Z" fill="#B8F52B"/>
<path d="M95.5371 57.8551C95.9643 56.1669 98.3283 56.4917 102.142 58.5231C105.956 60.5545 110.401 63.3104 111.104 64.9936C111.807 66.6768 109.314 66.8613 107.34 66.2362C105.366 65.6111 101.083 62.4576 99.0666 61.2572C97.0497 60.0569 95.0896 59.6235 95.5371 57.8551Z" fill="#8CF828"/>
<path d="M51.906 239.429C50.4039 239.433 47.6662 236.851 45.0883 235.885C42.5103 234.919 40.7347 236.979 38.2775 235.04C35.8203 233.101 35.2592 233.335 35.2665 230.828C35.2737 228.321 36.4457 225.921 35.6361 225.402C34.8265 224.884 33.2641 224.614 33.2641 224.614L33.5057 222.668C33.5057 222.668 32.973 223.286 32 223.165C31.0271 223.044 31.4462 220.892 32.1848 220.452C32.9235 220.012 34.7417 218.527 34.1096 217.803C33.4776 217.078 31.1056 216.29 31.4039 215.111C31.7023 213.932 32.6043 213.094 32.7535 212.505C32.9027 211.915 32.0505 210.821 31.4326 210.289C30.8148 209.756 30.6085 214.784 30.0333 214.827C29.458 214.869 28.6058 213.776 28.4355 211.475C28.2652 209.174 30.5521 208.812 30.7013 208.222C30.8504 207.633 28.4216 206.077 28.9117 204.884C29.4019 203.691 31.0494 205.111 31.3904 204.508C31.7313 203.904 33.5637 202.612 33.2726 201.284C32.9815 199.955 33.3082 199.16 32.1009 198.478C30.8936 197.796 31.6181 197.164 29.7431 197.882C27.8681 198.599 28.2018 200.502 26.9661 199.437C25.7304 198.371 24.7149 197.675 26.107 195.644C27.4991 193.613 29.0757 194.075 29.0757 194.075C29.0757 194.075 30.3259 190.126 30.2124 188.592C30.0988 187.058 29.4668 186.334 28.8915 186.376C28.3163 186.419 26.7327 183.258 26.6476 182.108C26.5624 180.957 27.0314 176.874 27.0314 176.874C27.0314 176.874 25.6607 176.589 25.0996 176.824C24.5386 177.058 22.7276 176.035 22.3797 173.94C22.0319 171.845 22.018 166.448 21.7411 165.311C21.4642 164.175 19.4189 162.591 19.6605 160.645C19.9021 158.699 19.5185 158.728 22.2529 156.597C24.9873 154.467 26.7488 152.216 26.7488 152.216L29.199 151.456C29.199 151.456 32.3525 147.173 32.2958 146.406C32.239 145.639 32.8499 143.473 31.5716 141.833C30.2934 140.192 31.7779 136.804 33.7096 136.854C35.6414 136.904 36.8556 140.285 36.0104 141.89C35.1651 143.495 34.7318 145.455 34.9021 147.756C35.0724 150.057 37.9273 152.159 38.126 154.844C38.3247 157.528 36.6131 157.848 37.1811 160.312C37.7491 162.777 39.6383 162.251 39.5459 163.608C39.4535 164.964 36.6481 166.136 36.6481 166.136C36.6481 166.136 38.1254 165.255 38.3525 168.324C38.5795 171.392 37.9403 173.174 38.2739 175.078C38.6076 176.981 40.3618 177.237 40.4044 177.812C40.447 178.387 40.8727 184.14 39.8641 186.143C38.8555 188.145 38.8057 190.077 39.4945 191.568C40.1833 193.06 38.8836 193.734 38.777 194.899C38.6704 196.064 38.8477 201.064 39.2097 203.351C39.5718 205.637 37.5404 209.451 37.8243 213.286C38.1081 217.121 38.25 219.039 39.5567 221.063C40.8633 223.087 42.2482 223.563 44.3859 223.79C46.5236 224.018 45.8344 227.732 47.4962 229.344C49.158 230.957 50.0316 229.735 50.1524 228.762C50.2732 227.789 49.691 225.133 50.458 225.076C51.225 225.019 52.6168 228.194 52.0059 230.36C51.395 232.526 52.6733 234.167 52.9786 235.687C53.2839 237.207 54.6047 239.423 51.906 239.429Z" fill="#B6FE30"/>
<path d="M92.065 274.055C90.5515 272.112 89.5936 271.924 89.5936 271.924C89.5936 271.924 88.1239 265.092 87.4493 263.792C86.7747 262.492 85.5179 258.536 84.6799 257.634C83.8419 256.732 84.1832 250.923 85.497 250.44C86.8109 249.957 91.0721 250.22 92.0662 253.232C93.0603 256.243 92.2365 255.533 94.8429 256.882C97.4492 258.232 100.077 257.266 103.259 258.573C106.44 259.88 107.818 262.863 110.247 264.418C112.675 265.974 116.333 265.896 116.915 268.552C117.497 271.208 115.338 273.296 113.918 274.944C112.497 276.591 111.219 274.951 110.033 277.159C108.847 279.368 109.521 280.668 107.22 280.838C104.919 281.008 104.188 278.942 102.64 278.863C101.091 278.785 100.701 281.321 99.1665 281.434C97.6325 281.548 93.7693 276.242 92.065 274.055Z" fill="#62EF24"/>
<path d="M38.6456 245.231C38.507 246.182 36.0818 244.457 35.0805 243.952C34.0791 243.448 31.8137 241.495 30.7414 240.032C29.6691 238.569 28.4122 234.613 28.3413 233.654C28.2703 232.695 29.2647 230.501 28.164 228.654C27.0633 226.808 25.6501 225.948 25.0821 223.484C24.5141 221.02 25.5936 219.976 25.4375 217.866C25.2814 215.757 23.3427 213.008 22.5829 210.558C21.8232 208.108 22.9809 205.516 21.8377 203.094C20.6944 200.672 21.1277 198.712 20.9574 196.411C20.7871 194.11 18.692 194.458 18.3157 191.979C17.9395 189.5 17.1797 187.05 18.2735 186.198C19.3672 185.346 21.6043 186.916 21.732 188.641C21.8597 190.367 21.2488 192.533 21.7175 193.655C22.1862 194.778 24.7212 200.374 24.849 202.1C24.9767 203.826 24.2381 204.266 24.3516 205.8C24.4652 207.334 25.1325 211.141 25.8071 212.44C26.4817 213.74 28.0584 214.202 28.5696 215.899C29.0808 217.597 29.9614 219.074 29.3079 220.665C28.6544 222.256 27.5465 222.916 28.5264 225.735C29.5063 228.555 30.3229 231.772 30.4222 233.115C30.5215 234.457 32.6305 239.506 34.4557 240.721C36.2808 241.936 38.9014 243.477 38.6456 245.231Z" fill="#ADFD2A"/>
<path d="M28.9257 199.871C28.6506 200.958 26.1418 198.727 26.8094 197.328C27.4771 195.929 29.224 198.692 28.9257 199.871Z" fill="#EFFC4D"/>
<path d="M25.936 193.343C25.936 193.343 25.233 191.659 24.7218 189.962C24.2105 188.265 23.9053 186.745 25.0558 186.66C26.2063 186.574 26.8383 187.299 26.9519 188.833C27.0654 190.367 27.6618 193.215 25.936 193.343Z" fill="#B3F929"/>
<path d="M22.2293 184.941C21.4199 184.013 20.4966 182.37 22.0306 182.256C23.5647 182.143 24.2251 183.251 24.1185 184.415C24.0119 185.58 22.8614 185.665 22.2293 184.941Z" fill="#B3FF2B"/>
<path d="M18.6573 180.964C17.315 181.063 16.4344 179.586 16.2783 177.477C16.1222 175.367 16.5271 173.024 16.4562 172.065C16.3852 171.106 14.2122 167.797 14.4112 165.275C14.6102 162.754 13.1049 158.045 13.3465 156.1C13.588 154.154 15.5838 152.463 15.4844 151.121C15.3851 149.779 15.4633 148.231 14.9379 146.341C14.4124 144.452 14.6256 142.123 14.5405 140.972C14.4553 139.822 14.3844 138.863 14.2708 137.329C14.1573 135.795 13.9728 133.302 15.1375 133.409C16.3022 133.515 16.0464 135.27 16.5719 137.159C17.0973 139.048 18.1129 139.744 18.1838 140.703C18.2548 141.661 16.6782 141.2 16.7917 142.734C16.9053 144.268 18.5103 145.113 18.432 146.661C18.3538 148.209 17.6152 148.65 17.5086 149.814C17.402 150.979 17.8565 151.91 17.9842 153.635C18.1119 155.361 16.4003 155.681 16.4003 155.681C16.4003 155.681 15.8957 161.888 16.0093 163.422C16.1228 164.956 17.7133 170.815 18.1678 171.745C18.6223 172.676 18.118 173.677 18.2315 175.211C18.345 176.745 20.2979 179.686 19.8078 180.879C19.3177 182.072 18.6573 180.964 18.6573 180.964Z" fill="#B4F527"/>
<path d="M14.1899 130.587C11.7964 130.186 12.0395 127.661 11.7124 126.143C11.3852 124.625 11.799 121.509 12.3834 120.695C12.9679 119.88 13.2958 118.506 12.47 116.061C11.6443 113.616 9.89314 110.275 10.6344 108.678C11.3757 107.08 13.3565 104.813 13.3565 104.813C13.3565 104.813 13.4432 100.179 13.3154 98.4532C13.1877 96.7274 15.2114 95.0352 15.5397 93.6613C15.868 92.2873 17.1631 95.2763 17.6475 96.0117C18.1319 96.7471 19.6847 97.4034 20.4679 99.2735C21.251 101.144 21.6634 103.812 20.0104 104.706C18.3575 105.599 18.7717 102.484 17.5329 100.262C16.2941 98.0399 14.7839 97.9589 14.9968 100.835C15.2096 103.712 13.1863 105.404 13.385 108.088C13.5837 110.773 14.1812 113.042 14.3373 115.152C14.4934 117.261 13.4948 121.191 13.651 123.3C13.8071 125.41 16.7126 129.822 15.9142 130.652C15.1161 131.482 14.1899 130.587 14.1899 130.587Z" fill="#B0FA27"/>
<path d="M33.7614 88.0707C32.6224 87.6028 31.1194 88.8447 29.1593 88.4114C27.1991 87.978 23.8472 84.37 23.201 83.4538C22.5548 82.5376 22.1214 84.4977 21.5673 87.4308C21.0132 90.3639 18.854 92.4518 20.8851 93.8439C22.9162 95.236 24.4503 95.1225 24.5638 96.6565C24.6773 98.1905 22.433 99.1279 21.1333 99.8025C19.8336 100.477 17.1775 101.059 18.1716 104.071C19.1657 107.082 19.3218 109.191 18.8317 110.384C18.3416 111.577 16.6085 114.212 16.9138 115.732C17.2191 117.252 17.1478 121.499 18.1918 122.578C19.2357 123.658 19.5978 125.945 18.9017 126.96C18.2057 127.976 18.8803 129.276 19.1146 129.837C19.3489 130.398 20.741 128.367 20.9539 131.243C21.1668 134.119 20.279 135.149 19.3912 136.179C18.5034 137.209 18.2404 141.47 19.1067 142.755C19.9731 144.041 21.6491 145.845 21.9118 146.789C22.1745 147.734 20.1929 149.616 20.3207 151.342C20.4484 153.067 21.1798 155.134 20.9524 157.272C20.725 159.409 20.725 159.409 22.1524 160.461C23.5799 161.512 28.1183 157.705 27.9764 155.788C27.8344 153.87 28.2605 154.417 27.6783 151.761C27.0961 149.105 26.3789 147.23 26.237 145.312C26.0951 143.395 28.3961 143.225 30.1219 143.097C31.8477 142.969 33.4032 140.54 33.8933 139.347C34.3834 138.154 34.6748 134.276 34.05 131.045C33.4252 127.813 29.3208 119.248 28.902 116.194C28.4831 113.14 26.9279 110.363 28.4408 107.359C29.9537 104.355 31.7082 99.4054 32.3333 97.4311C32.9584 95.4568 35.8064 94.8604 35.6502 92.7511C35.4941 90.6418 34.9545 88.5608 33.7614 88.0707Z" fill="#8EF42F"/>
<path d="M49.6519 39.6573C48.2528 38.9897 50.1423 33.2585 52.3298 31.5541C54.5173 29.8498 55.9022 30.3257 56.1721 28.7633C56.4421 27.2008 54.7519 25.2051 56.7903 24.0902C58.8286 22.9753 58.6012 25.113 60.4194 23.6288C62.2376 22.1446 62.1881 18.8705 64.0489 17.9616C65.9097 17.0527 70.0999 16.3569 74.4677 15.4552C78.8354 14.5535 81.5768 15.1218 83.6861 14.9657C85.7954 14.8096 86.6264 13.0129 87.8621 14.0782C89.0978 15.1436 89.1404 15.7189 89.1829 16.2941C89.2255 16.8694 90.8236 15.0159 91.9599 14.739C93.0962 14.462 96.8389 15.5347 97.5776 15.0944C98.3162 14.6541 98.2027 13.1201 101.491 13.2623C104.779 13.4045 104.232 13.8306 109.963 15.7201C115.695 17.6096 115.737 18.1848 118.244 18.1921C120.751 18.1993 119.842 16.3385 121.952 16.1824C124.061 16.0263 127.285 17.9085 128.343 19.1799C129.401 20.4512 137.298 28.1573 138.427 30.3874C139.556 32.6175 139.173 32.6459 141.36 36.1473C143.547 39.6487 144.648 41.4953 147.567 41.8577C150.486 42.22 155.699 44.9191 155.699 44.9191C155.699 44.9191 158.767 44.692 160.144 47.6749C161.522 50.6579 165.229 59.0597 165.782 61.3324C166.336 63.6051 164.589 66.0481 166.883 68.3847C169.177 70.7214 169.652 69.3366 171.442 72.6746C173.232 76.0127 175.909 78.321 176.278 83.3066C176.647 88.2922 177.897 89.5493 178.798 93.9171C179.7 98.2849 179.792 102.134 178.677 105.302C177.562 108.469 180.964 110.145 181.368 113.007C181.773 115.87 180.984 118.242 180.729 119.996C180.473 121.75 182.277 120.074 183.931 124.193C185.586 128.312 186.026 129.051 185.926 132.915C185.827 136.778 187.255 132.623 184.719 137.438C182.183 142.253 183.142 147.388 182.666 148.773C182.19 150.158 177.417 153.403 176.927 154.596C176.437 155.79 178.624 164.497 177.771 168.609C176.919 172.721 178.922 173.729 175.143 174.78C171.365 175.831 170.278 174.176 169.518 176.932C168.758 179.687 168.786 185.277 168.474 186.264C168.161 187.251 167.415 190.198 167.529 191.732C167.642 193.266 169.041 193.934 169.539 195.44C170.036 196.945 164.332 200.645 164.332 200.645C164.332 200.645 162.699 199.416 163.09 196.881C163.481 194.346 162.827 195.936 162.245 193.28C161.663 190.624 164.944 188.067 164.667 186.931C164.39 185.795 162.267 185.759 162.672 183.416C163.077 181.072 165.25 179.176 166.23 176.79C167.21 174.403 168.056 172.798 168.184 169.318C168.312 165.838 170.62 168.367 171.955 165.569C173.29 162.771 175.186 164.944 173.752 161.194C172.318 157.444 172.779 155.867 174.512 153.233C176.245 150.598 177.843 148.744 175.905 145.996C173.966 143.247 173.072 136.372 171.495 135.911C169.918 135.449 169.876 140.08 170.593 141.955C171.31 143.829 174.087 147.48 171.899 149.184C169.712 150.889 168.355 156.002 168.099 157.756C167.843 159.51 166.806 166.335 165.3 166.832C163.795 167.33 162.31 165.511 162.318 163.004C162.325 160.497 165.976 157.721 165.258 155.846C164.541 153.971 164.52 151.08 164.939 148.928C165.358 146.776 166.111 141.322 165.97 139.405C165.828 137.487 165.068 135.037 166.652 132.992C168.236 130.946 171.162 128.802 169.102 127.026C167.043 125.25 165.857 122.253 165.949 120.897C166.042 119.54 165.971 113.376 165.524 109.938C165.077 106.501 166.234 103.909 164.147 101.75C162.059 99.5906 162.847 97.2186 161.981 95.9331C161.114 94.6476 159.651 95.7199 159.467 93.2271C159.282 90.7343 159.566 89.3636 159.41 87.2543C159.254 85.145 158.921 83.2416 158.068 82.1479C157.216 81.0541 155.732 79.2359 156.059 78.4405C156.385 77.6451 159.645 77.4039 158.722 75.3513C157.799 73.2988 154.859 64.8401 153.624 63.7748C152.388 62.7094 150.89 60.6994 150.854 62.8229C150.818 64.9464 152.324 69.6551 153.289 72.2829C154.255 74.9107 155.086 78.3197 155.022 80.0597C154.958 81.7997 153.097 82.7087 154.226 84.9387C155.355 87.1688 156.193 88.0708 156.072 89.0438C155.952 90.0168 152.237 89.3277 152.237 89.3277C152.237 89.3277 154.95 94.7182 154.474 96.1031C153.998 97.488 154.012 97.6797 152.088 95.1229C150.163 92.566 149.659 88.3616 149.105 86.089C148.552 83.8163 145.853 78.6175 145.434 75.5636C145.015 72.5097 143.389 68.774 141.167 67.396C138.944 66.0181 136.806 60.585 135.159 59.1645C133.511 57.744 132.865 56.8278 133.298 54.8677C133.732 52.9075 135.877 50.6279 135.777 49.2856C135.678 47.9434 131.417 42.4746 128.455 41.5369C125.494 40.5993 123.676 36.8777 123.797 35.9048C123.918 34.9318 120.992 31.8707 119.976 31.1746C118.961 30.4786 119.394 28.5184 119.103 27.1904C118.812 25.8623 114.11 24.8606 112.683 23.8094C111.256 22.7582 112.484 21.1249 109.743 20.5565C107.002 19.9882 99.9849 18.9651 97.6555 18.7519C95.326 18.5387 93.2593 19.2701 94.1399 20.7474C95.0204 22.2246 98.1737 23.1481 97.8611 24.1352C97.5486 25.1224 97.2076 25.726 93.8768 25.0085C90.5461 24.291 88.4367 24.4472 87.5347 25.2852C86.6327 26.1231 88.1028 27.7496 88.7632 28.8575C89.4236 29.9655 90.2758 31.0592 87.4562 32.0391C84.6367 33.019 81.5686 33.2461 78.5431 34.0485C75.5176 34.8508 72.4921 35.6532 70.8515 36.9314C69.2108 38.2097 68.6498 38.444 66.5405 38.6001C64.4312 38.7563 62.2651 38.1454 61.2212 37.0658C60.1772 35.9862 60.8165 34.2037 57.1233 36.4051C53.4302 38.6065 51.7895 39.8847 51.7895 39.8847L49.6519 39.6573Z" fill="#8BF52F"/>
<path d="M118.854 42.0549C118.972 40.3178 120.899 38.433 121.986 40.0879C123.072 41.7427 123.939 43.0282 123.939 43.0282C123.939 43.0282 124.869 42.5737 126.169 41.8991C127.468 41.2245 130.955 44.0513 131.687 46.118C132.418 48.1847 134.122 50.3723 134.208 51.5228C134.293 52.6733 133.405 53.7031 130.578 51.9842C127.752 50.2654 125.387 46.9699 124.18 46.288C122.973 45.6062 118.761 43.4114 118.854 42.0549Z" fill="#8EF42F"/>
<path d="M109.422 44.874C107.297 44.3361 110.785 42.4595 107.575 40.769C104.365 39.0785 103.03 36.6709 101.262 36.2233C99.4937 35.7758 98.0022 36.4646 95.9213 37.0042C93.8404 37.5439 90.9215 37.1815 90.1261 36.8548C89.3307 36.528 89.0465 37.8987 88.1019 38.1614C87.1574 38.4241 87.0864 37.4653 85.0979 36.6485C83.1094 35.8317 75.7871 38.4945 72.3922 39.517C68.9974 40.5394 68.4506 40.9655 68.5641 42.4996C68.6776 44.0336 69.3948 45.9086 70.382 46.2211C71.3691 46.5337 73.7554 47.5139 72.8606 45.8449C71.9659 44.1758 70.2117 43.9201 71.483 42.8619C72.7543 41.8038 70.7516 40.7952 76.1917 41.3566C81.6318 41.918 84.018 42.8982 84.0962 41.35C84.1744 39.8017 86.0636 39.2763 87.8887 40.4908C89.7139 41.7054 91.809 41.3575 92.4836 42.6572C93.1582 43.9569 97.2204 46.7411 100.288 46.5141C103.357 46.287 106.325 44.7176 106.325 44.7176C106.325 44.7176 108.576 46.479 110.686 46.3229C112.795 46.1668 110.011 45.0232 109.422 44.874Z" fill="#8DF12D"/>
<path d="M157.601 60.2026C158.614 58.1919 156.614 54.6843 155.57 53.6047C154.526 52.5252 150.408 48.9739 148.803 48.1287C147.198 47.2835 145.451 44.5207 143.725 44.6484C141.999 44.7761 142.965 47.4039 144.435 49.0304C145.905 50.6568 146.949 51.7364 146.949 51.7364C146.949 51.7364 144.811 51.509 144.896 52.6595C144.981 53.8101 147.012 55.2022 148.958 55.4438C150.904 55.6853 153.326 54.5421 154.029 56.2253C154.732 57.9085 157.097 61.2039 157.601 60.2026Z" fill="#49E11A"/>
<path d="M161.719 74.1653C163.417 73.654 164.226 79.3783 165.824 82.7305C167.422 86.0828 167.826 88.9449 166.101 89.0726C164.375 89.2004 164.013 86.9135 162.663 84.3141C161.314 81.7147 161.343 76.8924 160.903 76.1538C160.462 75.4152 161.719 74.1653 161.719 74.1653Z" fill="#49E520"/>
<path d="M65.965 278.299C62.2649 277.802 61.9454 276.09 59.339 274.741C56.7327 273.391 54.8224 271.026 54.1478 269.726C53.4732 268.427 55.5613 265.38 58.6363 267.852C61.7114 270.323 62.1586 273.761 64.353 274.755C66.5475 275.749 69.4024 277.852 71.3483 278.093C73.2942 278.335 75.226 278.385 77.6831 280.324C80.1403 282.263 84.3305 281.567 88.0732 282.64C91.8159 283.712 93.712 285.886 97.0854 287.178C100.459 288.471 98.0227 289.423 104.677 288.159C111.332 286.895 111.041 285.567 118.619 286.356C126.196 287.145 128.831 288.878 132.141 286.705C135.451 284.532 132.091 283.431 137.766 284.553C143.44 285.675 143.675 286.237 147.488 283.062C151.302 279.888 154.122 278.908 155.202 277.864C156.281 276.82 156.075 276.642 155.138 274.398C154.201 272.154 155.514 271.671 156.182 270.272C156.85 268.873 155.621 265.301 156.36 264.86C157.099 264.42 159.549 263.66 159.549 263.66C159.549 263.66 157.78 263.213 157.816 261.089C157.852 258.966 160.451 257.617 161.317 258.902C162.184 260.188 163.171 260.5 162.056 263.668C160.941 266.835 158.334 270.691 158.05 272.062C157.766 273.432 157.062 276.955 156.395 278.354C155.727 279.753 155.819 283.602 149.044 285.839C142.268 288.076 139.229 288.686 135.244 289.56C131.26 290.433 131.402 292.351 123.796 291.178C116.19 290.006 112.014 290.894 106.701 292.058C101.389 293.222 100.011 295.445 96.595 293.577C93.179 291.709 89.969 290.019 86.9792 288.698C83.9893 287.376 79.2027 285.224 76.8449 284.628C74.487 284.031 69.0469 283.469 67.9746 282.006C66.9023 280.543 65.965 278.299 65.965 278.299Z" fill="#B4FF32"/>
<path d="M125.304 254.242C121.194 254.304 119.984 252.708 120.666 251.5C121.348 250.293 125.091 251.366 124.402 249.874C123.713 248.383 119.793 247.516 119.843 245.584C119.893 243.653 116.022 240.854 121.739 242.552C127.456 244.25 129.005 244.328 132.321 244.854C135.638 245.379 137.804 245.99 138.784 243.604C139.764 241.218 142.854 238.675 143.578 238.043C144.303 237.411 144.92 237.944 147.534 236.787C150.148 235.629 152.016 232.213 152.698 231.006C153.379 229.799 155.361 227.917 155.83 229.039C156.298 230.161 156.483 232.654 153.94 234.77C151.398 236.886 151.603 237.064 148.173 240.21C144.743 243.356 143.784 243.427 140.68 245.777C137.576 248.128 138.741 248.234 132.555 250.62C126.369 253.006 128.578 254.192 125.304 254.242Z" fill="#49E520"/>
<path d="M137.506 241.963C137.023 240.649 132.606 238.277 131.583 240.088C130.56 241.899 131.647 243.554 133.564 243.412C135.482 243.27 137.506 241.963 137.506 241.963Z" fill="#90F140"/>
<path d="M151.217 166.717C152.056 163.852 153.888 161.121 153.171 159.246C152.453 157.371 151.533 156.218 151.514 154.227C151.495 152.236 151.233 146.086 153.044 147.109C154.855 148.132 156.246 151.306 156.445 153.991C156.644 156.675 157.276 157.4 157.389 158.934C157.503 160.468 155.805 160.979 155.393 165.83C154.981 170.68 155.613 171.405 154.761 175.517C153.908 179.629 150.676 185.459 149.739 188.421C148.801 191.382 146.947 194.99 145.157 196.858C143.368 198.725 143.041 199.521 140.868 201.417C138.694 203.313 135.079 203.966 133.737 204.066C132.395 204.165 130.981 203.305 132.608 201.835C134.234 200.365 135.676 201.608 138.659 200.231C141.642 198.853 143.659 194.848 144.696 193.229C145.733 191.609 147.161 187.455 148.375 185.63C149.59 183.805 150.151 178.364 150.052 177.022C149.953 175.68 150.294 169.87 151.217 166.717Z" fill="#8FF42E"/>
<path d="M132.729 185.247C130.832 186.457 129.086 185.516 130.3 183.691C131.515 181.866 132.005 180.673 131.934 179.714C131.863 178.756 130.819 177.676 132.09 176.618C133.362 175.56 135.663 170.184 135.784 169.211C135.905 168.238 135.592 164.019 134.492 162.173C133.391 160.326 133.91 159.516 134.535 157.542C135.16 155.568 135.856 149.346 135.771 148.196C135.686 147.045 136.46 144.482 137.298 145.384C138.136 146.286 139.279 148.707 138.803 150.092C138.327 151.477 137.979 154.588 137.887 155.944C137.794 157.301 138.924 159.531 139.826 158.693C140.728 157.855 141.168 153.388 141.715 152.962C142.262 152.536 143.988 152.408 144.044 153.175C144.101 153.942 143.156 159.41 142.666 160.603C142.176 161.797 142.325 166.413 140.642 167.116C138.959 167.819 137.73 169.452 137.211 170.262C136.693 171.071 134.704 175.46 134.803 176.803C134.903 178.145 135.123 183.72 132.729 185.247Z" fill="#B5FF2A"/>
<path d="M172.498 110.386C173.158 111.494 174.969 112.517 174.628 113.12C174.287 113.724 173.797 114.917 172.235 114.647C170.672 114.377 169.877 114.05 169.515 111.764C169.153 109.477 169.423 107.914 168.897 106.025C168.372 104.136 169.026 102.545 167.293 99.9741C165.56 97.403 165.582 95.0878 165.44 93.1703C165.298 91.2527 165.163 86.8282 166.711 86.9064C168.259 86.9846 168.529 90.6279 168.614 91.7784C168.699 92.929 170.865 93.5399 170.865 93.5399C170.865 93.5399 169.665 95.5568 169.424 97.5027C169.182 99.4486 170.382 102.637 170.375 105.145C170.368 107.652 172.498 110.386 172.498 110.386Z" fill="#AFFD2F"/>
<path d="M150.619 77.8791C151.272 76.2883 149.234 72.1975 147.998 71.1321C146.763 70.0667 146.031 68 144.561 66.3735C143.091 64.7471 143.084 62.0483 141.635 63.3124C140.187 64.5765 140.108 66.1247 141.99 68.1063C143.872 70.0878 145.094 70.9615 145.811 72.8364C146.528 74.7114 147.764 75.7768 148.424 76.8847C149.085 77.9927 150.619 77.8791 150.619 77.8791Z" fill="#B3FC30"/>
<path d="M106.652 54.3334C107.469 54.0635 106.602 51.0593 105.175 50.0081C103.747 48.957 104.514 48.9002 102.498 47.6998C100.481 46.4995 98.8047 44.6955 98.8047 44.6955C98.8047 44.6955 101.155 47.7992 102.228 49.2623C103.3 50.7253 103.946 51.6415 104.607 52.7495C105.267 53.8574 105.899 54.5819 106.652 54.3334Z" fill="#61E833"/>
<path d="M171.681 240.011C173.705 238.704 172.306 238.036 172.505 235.515C172.704 232.994 177.498 232.639 173.414 232.17C169.331 231.701 167.001 231.488 164.224 233.043C161.447 234.598 154.679 234.328 156.497 238.05C158.315 241.771 161.22 241.942 159.061 244.03C156.901 246.117 153.783 248.276 153.911 250.002C154.039 251.728 150.808 252.353 154.415 254.206C158.023 256.06 159.365 255.961 159.479 257.495C159.592 259.029 157.625 261.103 155.189 262.054C152.753 263.006 149.543 261.315 146.105 261.763C142.668 262.21 143.3 262.934 140.246 263.353C137.192 263.772 134.458 260.697 132.541 260.838C130.623 260.98 132.313 262.976 129.643 263.367C126.973 263.757 126.163 263.239 124.054 263.395C121.944 263.551 118.954 267.435 119.345 270.106C119.735 272.776 120.402 276.583 117.817 278.124C115.232 279.665 110.978 282.101 110.679 283.279C110.381 284.458 108.719 288.052 112.391 288.166C116.062 288.28 121.091 288.486 123.129 287.371C125.167 286.256 127.113 286.498 125.764 283.898C124.415 281.299 123.634 281.164 124.081 279.395C124.529 277.627 124.976 275.859 127.76 277.002C130.544 278.146 131.084 280.227 133.086 281.235C135.089 282.244 135.16 283.203 138.995 282.919C142.83 282.635 146.168 280.846 149.577 280.015C152.986 279.184 155.55 274.753 155.38 272.452C155.21 270.151 156.197 265.257 158.015 263.773C159.834 262.289 161.886 261.366 162.348 259.789C162.81 258.213 161.098 258.532 162.625 255.72C164.152 252.907 166.07 252.765 166.858 250.393C167.647 248.021 167.05 245.173 168.059 243.171C169.067 241.168 171.681 240.011 171.681 240.011Z" fill="#8EF42F"/>
<path d="M175.836 225.822C175.126 226.118 169.834 225.495 170.637 223.314C171.44 221.134 173.485 222.718 172.775 218.336C172.065 213.954 172.122 214.721 171.76 212.434C171.398 210.147 171.504 208.983 171.831 208.187C172.158 207.392 171.824 205.489 172.385 205.254C172.946 205.02 176.426 205.148 176.284 203.23C176.142 201.313 173.444 201.32 172.009 202.776C170.574 204.231 168.28 207.1 167.953 207.896C167.627 208.691 167.137 209.884 165.667 208.258C164.197 206.632 166.313 203.968 167.009 202.953C167.705 201.937 169.658 199.672 169.943 198.301C170.227 196.931 170.617 194.395 170.518 193.053C170.419 191.711 171.548 188.735 171.847 187.556C172.145 186.377 170.654 181.86 172.955 181.69C175.256 181.52 175.838 184.176 177.642 182.5C179.446 180.824 179.389 180.057 180.398 178.054C181.406 176.051 180.796 173.012 181.336 169.887C181.876 166.762 183.702 157.565 183.616 156.414C183.531 155.264 185.058 152.452 184.931 150.726C184.803 149 185.016 146.671 186.167 146.585C187.317 146.5 188.226 148.361 188.425 151.046C188.623 153.73 188.794 156.031 189.667 160.016C190.54 164 192.55 167.707 191.243 170.889C189.936 174.07 189.524 173.715 188.146 175.938C186.768 178.161 184.936 179.453 186.477 182.039C188.018 184.624 188.678 185.732 188.849 188.033C189.019 190.334 188.586 192.294 187.002 194.339C185.418 196.385 186 199.041 186.213 201.917C186.426 204.793 185.779 209.083 184.508 210.141C183.237 211.199 183.691 217.335 183.08 219.501C182.469 221.668 182.469 221.668 182.469 221.668C182.469 221.668 183.357 225.844 181.247 226C179.138 226.156 180.367 224.522 179.159 223.841C177.952 223.159 177.519 225.119 175.836 225.822Z" fill="#8EF42E"/>
<path d="M182.849 172.09C181.891 172.161 180.875 171.465 180.513 169.178C180.151 166.891 182.147 165.201 180.201 164.959C178.255 164.717 177.516 165.158 177.168 163.063C176.82 160.968 175.407 160.108 176.87 159.036C178.333 157.963 179.597 159.412 179.597 159.412C179.597 159.412 181.806 160.599 181.487 158.887C181.167 157.175 181.096 156.217 181.039 155.45C180.983 154.683 180.542 153.944 180.855 152.957C181.167 151.97 183.511 152.375 183.802 153.703C184.093 155.031 185.329 156.096 184.377 158.866C183.425 161.636 182.467 161.706 183.61 164.128C184.753 166.55 185.946 167.04 185.158 169.412C184.369 171.784 182.849 172.09 182.849 172.09Z" fill="#EEFB49"/>
<path d="M183.185 137.552C182.789 138.702 177.482 136.046 177.163 134.334C176.843 132.623 175.87 132.502 177.085 130.677C178.299 128.852 177.156 126.43 178.91 126.686C180.664 126.941 181.616 129.377 181.616 129.377C181.616 129.377 180.813 131.558 180.898 132.708C180.983 133.859 183.661 136.167 183.185 137.552Z" fill="#B9F838"/>
<path d="M144.526 58.0856C143.695 59.8823 141.402 57.5456 140.549 56.4519C139.697 55.3581 139.058 51.9349 138.192 50.6494C137.326 49.3639 135.976 46.7645 133.81 46.1536C131.644 45.5427 129.265 42.0555 129.265 42.0555C129.265 42.0555 127.476 38.7174 127.703 36.5797C127.93 34.442 131.19 34.2008 131.453 35.1454C131.716 36.0899 132.71 39.1012 132.71 39.1012C132.71 39.1012 130.572 38.8738 130.821 39.6267C131.069 40.3795 133.583 43.0855 135.586 44.0941C137.589 45.1027 139.549 45.536 140.784 46.6014C142.02 47.6668 141.956 49.4068 141.892 51.1468C141.828 52.8867 143.93 55.2376 144.811 56.7149C145.691 58.1922 144.526 58.0856 144.526 58.0856Z" fill="#C8FB30"/>
<path d="M46.8835 135.108C46.4253 135.508 44.831 136.031 44.1705 134.923C43.5101 133.815 43.418 129.966 43.418 129.966L41.9695 126.024C41.9695 126.024 41.5503 128.176 41.6355 129.327C41.7206 130.477 41.9619 133.737 40.6622 134.412C39.3625 135.086 39.8031 130.619 39.1001 128.936C38.3971 127.253 39.7182 124.263 39.9598 122.317C40.2014 120.371 41.3519 120.286 43.1771 121.5C45.0022 122.715 46.1455 125.137 45.6838 126.713C45.222 128.29 46.5287 130.314 46.5855 131.081C46.6422 131.848 47.6079 134.476 46.8835 135.108Z" fill="#B6FC3A"/>
<path d="M148.725 156.491C147.054 156.001 148.1 153.259 148.029 152.301C147.959 151.342 149.251 147.969 148.151 146.122C147.05 144.275 145.786 142.826 146.823 141.207C147.86 139.588 149.238 137.365 149.884 138.281C150.53 139.198 150.828 143.224 150.423 145.568C150.018 147.912 150.054 150.994 150.21 153.103C150.366 155.213 150.302 156.953 148.725 156.491Z" fill="#89ED2B"/>
<path d="M37.0749 151.065C35.4515 152.113 35.3778 146.37 35.3778 146.37C35.3778 146.37 39.099 149.758 37.0749 151.065Z" fill="white"/>
<path d="M29.0708 144.523C27.4094 143.771 26.0242 142.435 25.8965 140.71C25.7687 138.984 24.9806 136.15 27.2816 135.98C29.5827 135.809 31.6352 134.886 32.8709 135.952C34.1066 137.017 35.7542 138.437 34.4188 141.236C33.0835 144.034 31.2653 145.518 29.0708 144.523Z" fill="white"/>
<path d="M41.7773 131.244C40.504 130.447 39.1142 129.127 38.5746 127.046C38.0349 124.965 38.4825 123.197 37.4101 121.734C36.3378 120.271 34.3919 120.029 34.3992 117.522C34.4064 115.015 34.6338 112.877 37.0058 113.666C39.3778 114.454 42.3109 115.009 42.4103 116.351C42.5096 117.693 42.1614 120.804 43.0136 121.897C43.8658 122.991 46.1028 124.561 46.2306 126.287C46.3583 128.012 44.8098 133.14 41.7773 131.244Z" fill="white"/>
<path d="M32.9052 165.063C32.5151 163.96 32.8557 161.788 34.4181 162.058C35.9805 162.328 37.5997 163.365 37.3013 164.544C37.003 165.723 36.8964 166.888 35.9518 167.151C35.0072 167.413 33.6366 167.129 32.9052 165.063Z" fill="white"/>
<path d="M41.0227 167.933C40.7827 166.837 39.1124 165.568 40.1635 164.14C41.2147 162.713 43.4732 161.967 43.8069 163.871C44.1406 165.774 43.2739 169.694 42.3435 170.149C41.4131 170.603 41.3138 169.261 41.0227 167.933Z" fill="white"/>
<path d="M46.2913 181.81C45.219 180.347 45.0771 178.429 46.2276 178.344C47.3781 178.259 49.2601 180.24 48.1805 181.284C47.1009 182.328 46.2913 181.81 46.2913 181.81Z" fill="white"/>
<path d="M25.8448 179.082C24.1774 179.546 22.8123 177.186 22.7272 176.035C22.642 174.885 24.2543 173.223 25.5183 174.672C26.7824 176.121 26.7893 178.82 25.8448 179.082Z" fill="white"/>
<path d="M34.5869 190.389C33.8727 189.013 34.1255 186.76 35.3826 185.51C36.6397 184.26 38.8629 180.432 40.2052 180.333C41.5475 180.233 42.6482 182.08 41.9947 183.671C41.3412 185.262 39.8923 186.526 39.388 187.527C38.8837 188.528 39.7927 190.389 41.2415 189.125C42.6904 187.861 42.6125 184.204 43.7489 183.927C44.8852 183.65 46.6678 184.289 47.0298 186.576C47.3919 188.863 48.0523 189.971 46.6886 192.385C45.3249 194.8 45.2041 195.773 43.2297 195.148C41.2554 194.523 38.5497 191.831 38.5497 191.831C38.5497 191.831 35.2615 191.689 34.5869 190.389Z" fill="white"/>
<path d="M37.2351 202.725C36.8588 204.059 34.8346 201.553 34.9696 200.771C35.1046 199.99 37.846 200.558 37.2351 202.725Z" fill="white"/>
<path d="M51.8023 193.742C50.955 193.595 50.2471 190.965 51.1633 190.319C52.0795 189.673 54.2739 190.667 54.004 192.23C53.734 193.792 52.5835 193.877 51.8023 193.742Z" fill="white"/>
<path d="M48.3994 207.683C48.1969 209.313 48.0797 211.177 45.6651 209.813C43.2505 208.45 44.1455 204.913 45.296 204.828C46.4466 204.743 48.5202 206.71 48.3994 207.683Z" fill="white"/>
<path d="M54.7977 208.173C54.2523 207.156 54.3079 204.16 55.636 203.869C56.9641 203.578 58.1572 204.068 58.3133 206.178C58.4694 208.287 55.6924 209.842 54.7977 208.173Z" fill="white"/>
<path d="M35.0745 230.842C32.8733 230.413 32.8589 226.958 35.1174 226.212C37.3758 225.466 40.4865 225.815 43.0787 226.972C45.6708 228.13 45.3867 229.501 45.3084 231.049C45.2302 232.597 45.358 234.323 44.179 234.025C43.0001 233.726 41.1324 231.937 39.7334 231.269C38.3343 230.601 37.2264 231.262 35.0745 230.842Z" fill="white"/>
<path d="M54.7828 223.598C54.7828 223.598 55.131 220.488 55.9406 221.006C56.7502 221.525 56.5228 223.662 54.7828 223.598Z" fill="white"/>
<path d="M56.8273 240.801C56.4562 238.684 59.0363 236.782 59.8601 237.492C60.6839 238.202 61.3087 241.434 60.0373 242.492C58.766 243.55 57.161 242.705 56.8273 240.801Z" fill="white"/>
<path d="M46.4367 248.896C46.278 246.752 47.0974 244.798 48.2763 245.096C49.4552 245.395 51.1738 247.774 51.6566 249.088C52.1395 250.402 51.7062 252.362 51.1309 252.404C50.5556 252.447 46.5786 250.813 46.4367 248.896Z" fill="white"/>
<path d="M64.064 242.193C63.0892 240.557 62.722 237.086 63.4749 236.838C64.2277 236.589 65.8043 237.051 66.6707 238.336C67.537 239.622 68.5526 240.318 68.0909 241.895C67.6291 243.471 64.7244 243.301 64.064 242.193Z" fill="white"/>
<path d="M19.9823 115.504C17.9804 115.653 17.8377 112.578 18.1077 111.016C18.3776 109.453 20.2526 108.736 20.8064 111.009C21.3603 113.281 22.0279 111.882 22.6883 112.99C23.3488 114.098 21.8999 115.362 19.9823 115.504Z" fill="white"/>
<path d="M24.1948 102.082C23.1149 100.844 21.7449 97.636 23.0872 97.5366C24.4295 97.4373 27.0286 101.294 27.0286 101.294C27.0286 101.294 24.8268 102.806 24.1948 102.082Z" fill="white"/>
<path d="M29.8912 90.4774C28.815 89.9107 26.1699 87.0895 26.2482 85.5413C26.3264 83.993 28.0947 84.4406 29.8631 84.8881C31.6315 85.3356 33.2365 86.1809 32.9807 87.935C32.7249 89.6892 31.4962 91.3226 29.8912 90.4774Z" fill="white"/>
<path d="M51.4178 81.7498C50.9917 81.2029 49.7276 79.754 50.3953 78.3549C51.063 76.9559 52.7746 76.6364 53.5842 77.1549C54.3938 77.6734 54.7984 80.5355 54.2941 81.5369C53.7898 82.5382 51.8439 82.2966 51.4178 81.7498Z" fill="white"/>
<path d="M35.0345 66.1893C33.7585 66.6581 33.4011 64.9605 34.2747 63.739C35.1483 62.5175 37.7477 61.1683 38.1738 61.7152C38.5999 62.2621 36.3484 65.7064 35.0345 66.1893Z" fill="white"/>
<path d="M45.1979 65.4372C44.5753 64.3924 43.1315 60.9628 43.0463 59.8123C42.9612 58.6618 41.8888 57.1987 43.3235 55.7429C44.7582 54.287 46.0223 55.7359 47.0094 56.0485C47.9966 56.361 48.4016 54.0174 50.7878 54.9976C53.174 55.9778 54.4381 57.4267 53.4011 59.0459C52.3641 60.6651 48.5148 60.7572 48.6709 62.8665C48.827 64.9758 47.5841 66.4174 47.5841 66.4174C47.5841 66.4174 45.418 65.8065 45.1979 65.4372Z" fill="white"/>
<path d="M56.6963 51.4748C56.0975 50.4698 56.5332 46.6667 57.7405 47.3486C58.9478 48.0304 59.2389 49.3585 59.3241 50.509C59.4093 51.6596 57.3567 52.5827 56.6963 51.4748Z" fill="white"/>
<path d="M53.4085 46.1275C53.4085 46.1275 52.7411 42.3208 54.2894 42.399C55.8376 42.4772 56.2637 43.0241 55.9937 44.5865C55.7237 46.1489 53.4369 46.511 53.4085 46.1275Z" fill="white"/>
<path d="M54.2615 31.6034C54.2615 31.6034 54.6239 28.6845 55.746 28.2159C56.8682 27.7472 59.1976 27.9604 59.5029 29.4803C59.8082 31.0001 59.0838 31.6321 57.7983 32.4985C56.5128 33.3649 54.9361 32.9031 54.2615 31.6034Z" fill="white"/>
<path d="M69.3318 32.0306C69.3318 32.0306 68.1886 29.6088 69.1331 29.346C70.0777 29.0833 71.5976 28.778 71.6827 29.9285C71.7679 31.0791 69.9355 32.3715 69.3318 32.0306Z" fill="white"/>
<path d="M77.0802 35.1199C77.0377 34.5446 74.8788 31.4267 74.9429 29.6867C75.0069 27.9467 74.5313 24.1258 76.0511 23.8205C77.571 23.5152 80.1064 23.906 81.5622 25.3407C83.018 26.7754 84.6728 25.6889 85.6102 27.9332C86.5475 30.1774 86.796 30.9303 87.563 30.8735C88.3301 30.8167 90.3826 29.8936 90.8938 31.591C91.4051 33.2884 89.3525 34.2115 86.4762 34.4244C83.5999 34.6373 80.0843 36.6328 78.9338 36.7179C77.7832 36.8031 77.0802 35.1199 77.0802 35.1199Z" fill="white"/>
<path d="M88.9039 46.3917C87.4701 45.8026 86.1982 43.6999 86.0988 42.3576C85.9995 41.0154 87.0365 39.3962 88.5847 39.4744C90.1329 39.5526 92.0716 42.3012 91.9792 43.6577C91.8868 45.0141 90.4947 47.0452 88.9039 46.3917Z" fill="white"/>
<path d="M92.7892 38.9707C92.6721 37.3895 95.5378 37.032 96.7309 37.5221C97.924 38.0122 100.431 38.0195 99.7491 39.2268C99.0673 40.4341 92.9595 41.2718 92.7892 38.9707Z" fill="white"/>
<path d="M100.893 31.2368C98.4341 31.1123 98.33 25.2568 100.056 25.1291C101.782 25.0013 102.236 25.9317 102.35 27.4658C102.463 28.9998 102.442 31.315 100.893 31.2368Z" fill="white"/>
<path d="M107.13 21.7132C107.13 21.7132 109.289 19.6253 109.921 20.3497C110.553 21.0742 107.506 24.1918 107.13 21.7132Z" fill="white"/>
<path d="M114.003 31.2308C111.96 30.0764 115.992 26.8419 117.199 27.5237C118.406 28.2056 116.418 32.5945 114.003 31.2308Z" fill="white"/>
<path d="M120.538 30.9397C121.563 29.4432 124.714 30.0522 124.856 31.9697C124.997 33.8872 125.565 36.3517 123.385 35.549C121.205 34.7464 119.841 31.9552 120.538 30.9397Z" fill="white"/>
<path d="M127.014 40.2931C127.211 39.156 127.625 38.127 129.188 38.397C130.75 38.6669 131.865 40.7053 131.169 41.7208C130.473 42.7363 126.879 41.0743 127.014 40.2931Z" fill="white"/>
<path d="M133.384 56.0181C132.447 53.7738 132.113 51.8704 133.647 51.7569C135.181 51.6434 139.499 52.6734 139.066 54.6335C138.632 56.5936 137.965 57.9927 136.445 58.298C134.925 58.6033 134.087 57.7013 133.384 56.0181Z" fill="white"/>
<path d="M137.561 49.9238C137.474 48.7572 139.528 47.8502 140.337 48.3687C141.147 48.8872 143.278 51.6216 142.198 52.6655C141.118 53.7094 137.717 52.0331 137.561 49.9238Z" fill="white"/>
<path d="M155.329 50.344C154.63 49.6554 156.046 47.0133 156.664 47.5459C157.282 48.0786 156.784 51.7787 155.329 50.344Z" fill="white"/>
<path d="M150.18 61.5223C149.898 60.0096 151.501 58.5324 152.928 59.5836C154.356 60.6348 156.152 61.4658 156.238 62.6164C156.323 63.7669 156.081 65.7128 154.093 64.896C152.104 64.0791 150.499 63.2339 150.18 61.5223Z" fill="white"/>
<path d="M173.941 90.8053C172.197 88.5657 173.764 85.8055 174.616 86.8993C175.468 87.993 176.775 90.0172 176.079 91.0327C175.383 92.0483 174.794 91.8991 173.941 90.8053Z" fill="white"/>
<path d="M176.538 120.691C175.92 118.468 177.831 117.318 179.23 117.985C180.629 118.653 182.745 121.196 182.092 122.787C181.438 124.377 179.152 124.739 178.505 123.823C177.859 122.907 177.064 122.58 176.538 120.691Z" fill="white"/>
<path d="M169.208 136.272C167.482 136.4 166.701 131.059 167.411 130.236C168.122 129.412 170.167 130.996 170.65 132.309C171.133 133.623 170.167 136.201 169.208 136.272Z" fill="white"/>
<path d="M173.257 128.454C172.854 127.58 174.649 126.422 175.104 127.353C175.558 128.283 173.946 129.945 173.257 128.454Z" fill="white"/>
<path d="M177.624 137.963C175.877 137.66 175.65 132.132 177.802 132.551C179.954 132.97 179.187 138.233 177.624 137.963Z" fill="white"/>
<path d="M185.209 141.451C183.815 141.323 181.857 137.843 184.172 137.864C186.487 137.886 186.374 141.558 185.209 141.451Z" fill="white"/>
<path d="M178.262 151.797C176.3 152.059 175.166 146.435 177.51 146.84C179.853 147.245 181.508 151.364 178.262 151.797Z" fill="white"/>
<path d="M174.639 175.781C172.399 176.455 172.125 173.075 173.439 172.592C174.752 172.109 176.336 175.269 174.639 175.781Z" fill="white"/>
<path d="M178.084 167.621C176.646 167.187 176.792 160.583 178.617 161.797C180.442 163.012 180.648 168.395 178.084 167.621Z" fill="white"/>
<path d="M185.221 172.878C183.724 172.988 183.112 167.828 184.589 166.947C186.067 166.067 187.139 167.53 186.897 169.476C186.656 171.422 186.18 172.807 185.221 172.878Z" fill="white"/>
<path d="M170.788 201.903C168.644 200.691 168.821 198.77 169.943 198.302C171.065 197.833 172.273 198.515 172.94 197.116C173.608 195.717 172.521 194.062 173.367 192.457C174.212 190.852 175.938 190.724 176.84 189.886C177.742 189.048 179.34 187.195 179.418 185.647C179.496 184.098 179.546 182.167 179.858 181.179C180.171 180.192 181.755 178.147 183.126 178.431C184.496 178.715 183.63 182.636 183.168 184.212C182.706 185.789 179.773 190.44 179.283 191.634C178.792 192.827 176.442 194.929 176.186 196.683C175.93 198.437 175.866 200.177 174.197 201.072C172.528 201.967 172.599 202.925 170.788 201.903Z" fill="white"/>
<path d="M179.239 206.676C178.142 206.448 178.231 203.473 179.396 203.579C180.56 203.686 180.61 206.96 179.239 206.676Z" fill="white"/>
<path d="M167.079 229.941C164.952 229.631 164.778 224.906 165.063 223.535C165.347 222.164 165.269 218.507 166.64 218.791C168.01 219.075 168.898 223.251 169.736 224.153C170.574 225.055 168.833 230.197 167.079 229.941Z" fill="white"/>
<path d="M179.394 224.401C178.191 224.225 178.386 221.198 180.033 222.619C181.681 224.039 181.148 224.657 179.394 224.401Z" fill="white"/>
<path d="M134.634 164.088C134.132 163.246 134.776 160.8 135.032 159.046C135.288 157.292 134.471 154.075 136.197 153.947C137.923 153.819 138.69 153.762 139.066 156.241C139.442 158.72 135.735 165.935 134.634 164.088Z" fill="white"/>
<path d="M125.706 181.524C124.077 180.12 128.667 177.256 129.612 176.993C130.557 176.731 134.314 172.789 134.804 171.596C135.294 170.403 137.737 166.945 138.597 165.531C139.456 164.118 141.253 159.743 141.729 158.358C142.205 156.974 142.567 154.055 143.555 154.367C144.542 154.68 143.654 160.915 143.206 162.684C142.758 164.452 140.017 169.089 138.76 170.339C137.503 171.589 135.961 174.21 134.953 176.212C133.944 178.215 130.265 180.608 129.349 181.255C128.433 181.901 126.941 182.59 125.706 181.524Z" fill="white"/>
<path d="M123.752 199.407C124.569 200.931 121.742 200.905 121.813 201.864C121.884 202.823 125.463 204.293 125.506 204.868C125.548 205.444 124.746 207.624 121.429 207.098C118.112 206.572 113.532 204.598 111.188 204.193C108.844 203.788 108.262 201.132 109.122 199.718C109.981 198.305 112.765 199.449 114.874 199.293C116.984 199.136 122.857 197.738 123.752 199.407Z" fill="white"/>
<path d="M122.955 225.108C121.672 224.978 123.758 222.928 124.361 223.269C124.965 223.61 126.258 225.442 122.955 225.108Z" fill="white"/>
<path d="M152.519 241.622C150.992 240.644 152.427 237.773 154.373 238.014C156.319 238.256 155.829 239.449 155.325 240.45C154.82 241.452 154.138 242.659 152.519 241.622Z" fill="white"/>
<path d="M144.124 253.233C142.494 253.031 142.129 249.718 143.237 249.057C144.345 248.397 146.632 248.035 146.745 249.569C146.859 251.103 146.07 253.475 144.124 253.233Z" fill="white"/>
<path d="M148.194 258.716C146.441 258.446 148.57 255.989 149.557 256.302C150.544 256.614 150.729 259.107 148.194 258.716Z" fill="white"/>
<path d="M139.855 265.889C138.639 265.877 138.449 262.522 140.587 262.75C142.725 262.977 142.17 265.91 139.855 265.889Z" fill="white"/>
<path d="M128.713 242.998C127.428 242.897 126.377 240.087 127.883 239.589C129.388 239.092 131.718 239.306 131.803 240.456C131.888 241.607 131.235 243.197 128.713 242.998Z" fill="white"/>
<path d="M163.535 241.963C162.479 241.459 164.664 238.988 165.353 240.479C166.042 241.971 164.934 242.631 163.535 241.963Z" fill="white"/>
<path d="M103.096 253.764C102.179 252.778 105.035 251.307 106.526 250.618C108.018 249.929 110.965 250.675 111.036 251.634C111.107 252.592 111.071 254.716 108.77 254.886C106.469 255.057 105.795 253.757 105.795 253.757C105.795 253.757 103.934 254.666 103.096 253.764Z" fill="white"/>
<path d="M119.259 258.544C118.147 258.406 117.392 256.755 117.867 255.37C118.343 253.985 119.956 252.323 121.667 252.004C123.379 251.684 124.053 252.984 123.194 254.397C122.335 255.81 121.205 258.786 119.259 258.544Z" fill="white"/>
<path d="M125.253 276.997C123.857 277.1 123.286 273.865 123.173 272.331C123.059 270.796 125.474 266.954 126.035 266.72C126.596 266.486 127.739 268.908 127.853 270.442C127.966 271.976 126.787 276.883 125.253 276.997Z" fill="white"/>
<path d="M127.326 284.17C125.745 284.287 125.48 280.065 125.48 280.065C125.48 280.065 128.576 280.221 128.676 281.563C128.775 282.906 129.052 284.042 127.326 284.17Z" fill="white"/>
<path d="M128.782 275.191C128.189 273.772 129.138 269.574 130.601 268.501C132.064 267.429 135.75 267.735 138.079 267.948C140.409 268.161 139.542 266.875 142.518 268.005C145.493 269.134 148.973 269.262 150.316 269.163C151.658 269.064 154.563 269.234 154.747 271.727C154.932 274.22 150.763 277.806 148.93 279.099C147.098 280.391 144.03 280.618 140.55 280.49C137.07 280.362 134.272 279.027 132.503 278.579C130.735 278.132 129.251 276.313 128.782 275.191Z" fill="white"/>
<path d="M114.103 277.435C112.374 277.347 112.015 275.276 111.93 274.125C111.844 272.975 111.248 270.127 112.384 269.85C113.521 269.573 115.509 270.39 116.006 271.896C116.503 273.401 115.651 277.513 114.103 277.435Z" fill="white"/>
<path d="M105.566 276.717C104.287 277.139 104.017 276.639 103.371 275.723C102.725 274.807 101.937 271.973 101.937 271.973C101.937 271.973 104.252 271.995 105.09 272.897C105.928 273.799 106.318 276.469 105.566 276.717Z" fill="white"/>
<path d="M103.891 269.708C102.914 268.865 102.307 266.547 102.854 266.121C103.401 265.695 105.226 266.909 106.241 267.606C107.257 268.302 108.89 269.53 108.194 270.546C107.498 271.561 105.126 270.773 103.891 269.708Z" fill="white"/>
<path d="M93.0316 266.269C90.7328 265.934 89.9708 263.989 89.8431 262.263C89.7153 260.538 91.015 259.863 91.988 259.984C92.961 260.105 94.4524 259.416 94.8927 260.154C95.333 260.893 96.0927 263.343 95.766 264.139C95.4393 264.934 94.7858 266.525 93.0316 266.269Z" fill="white"/>
<path d="M97.7193 261.874C96.9585 261.473 95.9866 259.303 96.4625 257.918C96.9384 256.533 98.5648 255.063 99.7721 255.745C100.979 256.427 101.725 258.685 101.235 259.878C100.745 261.072 99.3243 262.719 97.7193 261.874Z" fill="white"/>
<path d="M88.6504 256.568C87.5234 256.815 85.483 255.453 85.0285 254.522C84.574 253.592 84.6665 252.235 86.0087 252.136C87.351 252.037 89.5811 250.907 89.9006 252.619C90.2201 254.331 89.9785 256.277 88.6504 256.568Z" fill="white"/>
<path d="M89.0914 246.895C87.8339 246.378 88.8644 243.827 89.8231 243.756C90.7819 243.685 92.0318 244.942 91.7334 246.121C91.4351 247.3 89.8869 247.221 89.0914 246.895Z" fill="white"/>
<path d="M82.6975 275.133C81.5828 274.78 80.2262 273.002 81.2915 271.767C82.3569 270.531 85.0273 270.141 85.1266 271.483C85.226 272.825 83.6847 275.446 82.6975 275.133Z" fill="white"/>
<path d="M90.1043 284.032C90.2101 283.179 91.6456 281.412 92.3061 282.52C92.9665 283.627 93.3285 285.914 92.3982 286.369C91.4678 286.823 89.8628 285.978 90.1043 284.032Z" fill="white"/>
<path d="M71.7763 252.61C70.2434 252.843 70.0578 250.231 69.9443 248.697C69.8307 247.163 68.73 245.316 69.8663 245.039C71.0027 244.762 72.977 245.387 73.5948 245.92C74.2127 246.453 75.7041 245.764 76.5421 246.666C77.3801 247.568 78.8359 249.003 77.593 250.444C76.3501 251.886 74.3332 250.686 73.5662 250.742C72.7991 250.799 74.255 252.234 71.7763 252.61Z" fill="white"/>
<path d="M80.428 228.834C80.1511 227.697 80.2152 225.957 80.9822 225.901C81.7492 225.844 83.9578 227.03 83.3044 228.621C82.6509 230.212 80.428 228.834 80.428 228.834Z" fill="white"/>
<path d="M22.4471 109.731C22.3336 108.197 20.9276 104.831 19.1661 107.082C17.4047 109.333 15.0254 111.052 17.646 112.593C20.2665 114.134 20.9484 112.927 21.2893 112.323C21.6303 111.72 22.4471 109.731 22.4471 109.731Z" fill="#EEFF45"/>
<path d="M177.454 237.271C178.136 236.064 181.957 230.382 181.474 234.274C180.991 238.166 177.454 237.271 177.454 237.271Z" fill="#49E61D"/>
<path d="M164.215 266.786C162.685 263.474 166.417 260.068 168.093 261.872C169.769 263.676 166.118 271.658 164.967 271.743C163.817 271.828 165.592 269.769 164.215 266.786Z" fill="#B4FF32"/>
<path d="M106.175 246.851C106.383 245.279 105.2 244.095 103.32 244.749C101.44 245.402 99.859 244.876 100.138 246.913C100.418 248.948 105.763 249.967 106.175 246.851Z" fill="#F2EC20"/>
<path d="M97.9932 250.928C99.2256 250.141 97.6384 247.869 96.6156 247.945C95.5928 248.02 93.6563 247.907 94.1533 249.412C94.6504 250.918 96.3977 251.945 97.9932 250.928Z" fill="#F2EC20"/>
<path d="M105.409 246.391C104.564 245.854 101.657 246.479 101.988 247.724C102.32 248.969 103.12 249.099 104.512 248.874C105.904 248.648 106.711 247.219 105.409 246.391Z" fill="#FFFAC2"/>
<path d="M98.1568 249.74C97.6708 249.034 95.819 249.309 95.5081 250.34C95.1968 251.37 99.5873 251.817 98.1568 249.74Z" fill="#FFFAC2"/>
</svg>
