<svg width="48" height="47" viewBox="0 0 48 47" fill="none" xmlns="http://www.w3.org/2000/svg">
<path d="M23.5 47C10.542 47 0 36.458 0 23.5C0 10.542 10.542 0 23.5 0C36.459 0 47.001 10.542 47.001 23.5C47.001 36.458 36.459 47 23.5 47ZM23.5 3C12.196 3 3 12.196 3 23.5C3 34.804 12.196 44 23.5 44C34.805 44 44.001 34.804 44.001 23.5C44.001 12.196 34.805 3 23.5 3Z" fill="#231F20"/>
<path d="M23.482 10.0527C28.245 10.0527 31.2541 13.2517 31.6351 17.0257C31.9781 20.1857 30.3391 23.8437 26.3381 25.4437V27.4257C26.3381 30.4747 21.5 30.6637 21.5 27.4257C21.5 23.7677 21.5 26.1677 21.5 24.1487C21.5 22.7797 22.224 22.0917 23.138 21.7487C25.463 20.9107 26.8341 20.0357 26.8341 17.7487C26.8341 16.0727 25.158 14.7777 23.481 14.7777C21.88 14.7777 20.5091 15.2337 19.4801 16.9487C17.8811 19.3117 14.2231 16.9487 15.4801 14.4347C16.8531 12.3757 18.528 10.0527 23.482 10.0527ZM21.5 34.0927C21.5 31.0077 26.49 31.0437 26.49 34.0927V34.7397C26.49 37.7887 21.5 37.8267 21.5 34.7397V34.0927Z" fill="#231F20"/>
</svg>
