<svg width="64" height="64" viewBox="0 0 64 64" fill="none" xmlns="http://www.w3.org/2000/svg">
<g filter="url(#filter0_d)">
<rect x="10" y="10" width="44" height="40" rx="6" fill="#2D425C"/>
<rect x="10.5" y="6.5" width="43" height="41" rx="5.5" fill="#45668E" stroke="#2D425C"/>
<path d="M41.1602 22.3984C41.0898 22.75 40.8086 23.3477 40.3164 24.1562C39.9648 24.7539 39.543 25.4219 39.0508 26.1953C38.6289 26.8281 38.3828 27.1445 38.3828 27.1445C38.2422 27.3555 38.1719 27.5312 38.1719 27.6367C38.1719 27.7773 38.2422 27.918 38.3828 28.0586L38.6992 28.4102C40.3867 30.168 41.3359 31.3633 41.5469 31.9961C41.6172 32.2773 41.582 32.5234 41.4414 32.6641C41.3008 32.8047 41.125 32.875 40.8438 32.875H38.7695C38.4883 32.875 38.2773 32.8047 38.0664 32.6289C37.9258 32.5586 37.6445 32.3125 37.293 31.8906C36.9414 31.4688 36.625 31.1172 36.3438 30.8359C35.3945 29.957 34.6914 29.5 34.2695 29.5C34.0586 29.5 33.918 29.5352 33.8477 29.6055C33.7773 29.6758 33.7422 29.8516 33.7422 30.0625C33.707 30.2383 33.707 30.5898 33.707 31.1523V32.0664C33.707 32.3477 33.6367 32.5586 33.4961 32.6641C33.2852 32.8047 32.8633 32.875 32.2305 32.875C31.1055 32.875 30.0156 32.5586 28.8906 31.8906C27.7656 31.2578 26.7812 30.3086 25.9375 29.0781C25.1289 28.0234 24.4609 26.9336 23.9336 25.8086C23.5117 24.9648 23.1602 24.1914 22.9141 23.4531C22.7383 22.8906 22.668 22.4688 22.668 22.2227C22.668 21.8359 22.8789 21.625 23.3711 21.625H25.4453C25.6914 21.625 25.8672 21.6953 26.0078 21.8008C26.1484 21.9414 26.2539 22.1523 26.3594 22.4336C26.6758 23.3828 27.0625 24.2969 27.5547 25.1758C27.9766 26.0195 28.3984 26.6875 28.8203 27.1797C29.2422 27.707 29.5586 27.9531 29.8047 27.9531C29.9453 27.9531 30.0156 27.918 30.0859 27.8125C30.1562 27.707 30.1914 27.4961 30.1914 27.1797V24.1211C30.1562 23.7695 30.0859 23.418 29.9453 23.1367C29.875 22.9961 29.7344 22.8203 29.5938 22.6094C29.418 22.3984 29.3477 22.2578 29.3477 22.1172C29.3477 21.9766 29.3828 21.8711 29.4883 21.7656C29.5938 21.6953 29.7344 21.625 29.875 21.625H33.1445C33.3555 21.625 33.4961 21.6953 33.5664 21.8008C33.6367 21.9414 33.707 22.1172 33.707 22.3984V26.4766C33.707 26.6875 33.7422 26.8633 33.8125 26.9336C33.8828 27.0391 33.9531 27.0742 34.0586 27.0742C34.1641 27.0742 34.3047 27.0391 34.4453 26.9688C34.5859 26.8984 34.7617 26.7227 35.0078 26.4414C35.4297 25.9492 35.8867 25.3516 36.3438 24.6133C36.625 24.1211 36.9414 23.5586 37.2227 22.9258L37.5742 22.2227C37.7148 21.8359 38.0312 21.625 38.4531 21.625H40.5273C41.0898 21.625 41.3008 21.9062 41.1602 22.3984Z" fill="white"/>
<circle cx="16" cy="12" r="1" fill="#2D425C"/>
<circle cx="48" cy="12" r="1" fill="#2D425C"/>
<circle cx="16" cy="40" r="1" fill="#2D425C"/>
<circle cx="48" cy="40" r="1" fill="#2D425C"/>
</g>
<defs>
<filter id="filter0_d" x="0" y="0" width="64" height="64" filterUnits="userSpaceOnUse" color-interpolation-filters="sRGB">
<feFlood flood-opacity="0" result="BackgroundImageFix"/>
<feColorMatrix in="SourceAlpha" type="matrix" values="0 0 0 0 0 0 0 0 0 0 0 0 0 0 0 0 0 0 127 0"/>
<feOffset dy="4"/>
<feGaussianBlur stdDeviation="5"/>
<feColorMatrix type="matrix" values="0 0 0 0 0 0 0 0 0 0 0 0 0 0 0 0 0 0 0.25 0"/>
<feBlend mode="normal" in2="BackgroundImageFix" result="effect1_dropShadow"/>
<feBlend mode="normal" in="SourceGraphic" in2="effect1_dropShadow" result="shape"/>
</filter>
</defs>
</svg>
