<svg width="64" height="64" viewBox="0 0 64 64" fill="none" xmlns="http://www.w3.org/2000/svg">
<g filter="url(#filter0_d)">
<rect x="10" y="10" width="44" height="40" rx="6" fill="#BA6522"/>
<rect x="10.5" y="6.5" width="43" height="41" rx="5.5" fill="#ED812B" stroke="#BA6522"/>
<path d="M36.168 29.9922C36.8008 29.5703 37.1875 29.2539 37.3633 29.0078C37.5742 28.7266 37.5742 28.3398 37.3984 27.918C37.2227 27.6367 36.9766 27.4258 36.6953 27.3555C36.2734 27.2852 35.8867 27.3906 35.4648 27.707L35.043 27.9883C34.6914 28.1992 34.3047 28.3398 33.918 28.4805C33.3203 28.6562 32.7227 28.7266 32.125 28.7266C31.4922 28.7266 30.8945 28.6562 30.332 28.4805C29.9102 28.3398 29.5586 28.1992 29.207 27.9883L28.7852 27.707C28.3633 27.3906 27.9414 27.2852 27.5898 27.3555C27.2383 27.4258 27.0273 27.6367 26.8867 27.918C26.6758 28.3398 26.6758 28.7266 26.8867 29.0078C27.0273 29.2539 27.4492 29.5703 28.082 29.9922C28.8203 30.4844 29.875 30.8008 31.2812 30.9414L27.8711 34.3516C27.5195 34.668 27.4492 35.0195 27.5898 35.4062C27.7305 35.793 27.9766 36.0391 28.3984 36.1797C28.7852 36.3203 29.1367 36.25 29.4531 35.9336L32.125 33.2617L34.832 35.9688C35.1133 36.2852 35.4648 36.3555 35.8516 36.2148C36.2383 36.0742 36.5195 35.793 36.6602 35.4062C36.8008 35.0195 36.6953 34.668 36.4141 34.3516L33.0039 30.9414C34.3398 30.8008 35.3945 30.4844 36.168 29.9922ZM27.5547 22.8203C27.5547 23.6641 27.7305 24.4023 28.1523 25.1055C28.5742 25.8086 29.1367 26.3359 29.8398 26.7578C30.543 27.1797 31.2812 27.3555 32.125 27.3555C32.9336 27.3555 33.707 27.1797 34.4102 26.7578C35.1133 26.3359 35.6406 25.8086 36.0625 25.1055C36.4844 24.4023 36.6953 23.6641 36.6953 22.8203C36.6953 21.9766 36.4844 21.2383 36.0625 20.5352C35.6406 19.832 35.1133 19.3047 34.4102 18.8828C33.707 18.4609 32.9336 18.25 32.125 18.25C31.2812 18.25 30.543 18.4609 29.8398 18.8828C29.1367 19.3047 28.5742 19.832 28.1523 20.5352C27.7305 21.2383 27.5547 21.9766 27.5547 22.8203ZM29.875 22.8203C29.875 22.1875 30.0859 21.6602 30.543 21.2383C30.9648 20.8164 31.4922 20.5703 32.125 20.5703C32.7227 20.5703 33.25 20.8164 33.707 21.2383C34.1289 21.6602 34.375 22.1875 34.375 22.8203C34.375 23.4531 34.1289 23.9805 33.707 24.4023C33.25 24.8242 32.7227 25.0352 32.125 25.0352C31.4922 25.0352 30.9648 24.8242 30.543 24.4023C30.0859 23.9805 29.875 23.4531 29.875 22.8203Z" fill="white"/>
<circle cx="16" cy="12" r="1" fill="#BA6522"/>
<circle cx="48" cy="12" r="1" fill="#BA6522"/>
<circle cx="16" cy="40" r="1" fill="#BA6522"/>
<circle cx="48" cy="40" r="1" fill="#BA6522"/>
</g>
<defs>
<filter id="filter0_d" x="0" y="0" width="64" height="64" filterUnits="userSpaceOnUse" color-interpolation-filters="sRGB">
<feFlood flood-opacity="0" result="BackgroundImageFix"/>
<feColorMatrix in="SourceAlpha" type="matrix" values="0 0 0 0 0 0 0 0 0 0 0 0 0 0 0 0 0 0 127 0"/>
<feOffset dy="4"/>
<feGaussianBlur stdDeviation="5"/>
<feColorMatrix type="matrix" values="0 0 0 0 0 0 0 0 0 0 0 0 0 0 0 0 0 0 0.25 0"/>
<feBlend mode="normal" in2="BackgroundImageFix" result="effect1_dropShadow"/>
<feBlend mode="normal" in="SourceGraphic" in2="effect1_dropShadow" result="shape"/>
</filter>
</defs>
</svg>
