<svg width="64" height="64" viewBox="0 0 64 64" fill="none" xmlns="http://www.w3.org/2000/svg">
<g filter="url(#filter0_d)">
<rect x="10" y="10" width="44" height="40" rx="6" fill="#177FBF"/>
<rect x="10.5" y="6.5" width="43" height="41" rx="5.5" fill="#1DA1F2" stroke="#177FBF"/>
<path d="M39.2617 23.5938C39.9648 23.0664 40.5977 22.4336 41.125 21.6602C40.4219 21.9766 39.7188 22.1875 39.0156 22.2578C39.7891 21.7656 40.3516 21.0977 40.6328 20.2188C39.8945 20.6406 39.1211 20.957 38.2773 21.0977C37.9258 20.7461 37.5039 20.4648 37.0469 20.2539C36.5898 20.043 36.0977 19.9375 35.5703 19.9375C34.9023 19.9375 34.3047 20.1133 33.7422 20.4297C33.1797 20.7812 32.7227 21.2383 32.4062 21.8008C32.0547 22.3633 31.9141 22.9961 31.9141 23.6289C31.9141 23.9102 31.9141 24.1914 31.9844 24.4727C30.4727 24.4023 29.0664 24.0508 27.7305 23.3477C26.3945 22.6797 25.3047 21.7656 24.3906 20.6055C24.0391 21.2031 23.8633 21.8359 23.8633 22.4688C23.8633 23.1016 24.0039 23.6992 24.3203 24.2266C24.6016 24.7891 25.0234 25.2109 25.5156 25.5625C24.918 25.5625 24.3555 25.3867 23.8633 25.0703V25.1406C23.8633 26.0195 24.1445 26.793 24.707 27.4609C25.2695 28.1641 25.9727 28.5859 26.8164 28.7617C26.4648 28.832 26.1484 28.8672 25.832 28.8672C25.6211 28.8672 25.375 28.8672 25.1641 28.832C25.375 29.5703 25.7969 30.168 26.4297 30.6602C27.0625 31.1523 27.7656 31.3633 28.6094 31.3633C27.2383 32.418 25.6914 32.9453 24.0039 32.9453C23.6523 32.9453 23.3711 32.9453 23.125 32.9102C24.8125 34.0352 26.7109 34.5625 28.7852 34.5625C30.9297 34.5625 32.8281 34.0352 34.5156 32.9102C36.0273 31.9258 37.2227 30.625 38.0664 28.9375C38.875 27.3906 39.2969 25.7383 39.2969 24.0508C39.2969 23.8398 39.2617 23.6992 39.2617 23.5938Z" fill="white"/>
<circle cx="16" cy="12" r="1" fill="#177FBF"/>
<circle cx="48" cy="12" r="1" fill="#177FBF"/>
<circle cx="16" cy="40" r="1" fill="#177FBF"/>
<circle cx="48" cy="40" r="1" fill="#177FBF"/>
</g>
<defs>
<filter id="filter0_d" x="0" y="0" width="64" height="64" filterUnits="userSpaceOnUse" color-interpolation-filters="sRGB">
<feFlood flood-opacity="0" result="BackgroundImageFix"/>
<feColorMatrix in="SourceAlpha" type="matrix" values="0 0 0 0 0 0 0 0 0 0 0 0 0 0 0 0 0 0 127 0"/>
<feOffset dy="4"/>
<feGaussianBlur stdDeviation="5"/>
<feColorMatrix type="matrix" values="0 0 0 0 0 0 0 0 0 0 0 0 0 0 0 0 0 0 0.25 0"/>
<feBlend mode="normal" in2="BackgroundImageFix" result="effect1_dropShadow"/>
<feBlend mode="normal" in="SourceGraphic" in2="effect1_dropShadow" result="shape"/>
</filter>
</defs>
</svg>
