<svg width="132" height="46" viewBox="0 0 132 46" fill="none" xmlns="http://www.w3.org/2000/svg">
<rect y="6" width="44" height="40" rx="6" fill="#2D425C"/>
<rect x="0.5" y="2.5" width="43" height="41" rx="5.5" fill="#45668E" stroke="#2D425C"/>
<path d="M31.1602 18.3984C31.3008 17.8828 31.0898 17.625 30.5273 17.625H28.4531C28.0312 17.625 27.7383 17.8242 27.5742 18.2227L27.2227 18.9258C26.9414 19.5352 26.6484 20.0977 26.3438 20.6133C25.8984 21.3398 25.4531 21.9492 25.0078 22.4414C24.7734 22.6992 24.5859 22.875 24.4453 22.9688C24.3047 23.0391 24.1758 23.0742 24.0586 23.0742C23.9648 23.0742 23.8828 23.0273 23.8125 22.9336C23.7422 22.8398 23.707 22.6875 23.707 22.4766V18.3984C23.707 18.1172 23.6602 17.918 23.5664 17.8008C23.4961 17.6836 23.3555 17.625 23.1445 17.625H19.875C19.7344 17.625 19.6055 17.6719 19.4883 17.7656C19.3945 17.8594 19.3477 17.9766 19.3477 18.1172C19.3477 18.2344 19.4297 18.3984 19.5938 18.6094C19.7578 18.7969 19.875 18.9727 19.9453 19.1367C20.0859 19.418 20.168 19.7461 20.1914 20.1211V23.1797C20.1914 23.4844 20.1562 23.6953 20.0859 23.8125C20.0391 23.9062 19.9453 23.9531 19.8047 23.9531C19.5703 23.9531 19.2422 23.6953 18.8203 23.1797C18.3984 22.6641 17.9766 21.9961 17.5547 21.1758C17.0859 20.2852 16.6875 19.3711 16.3594 18.4336C16.2656 18.1289 16.1484 17.918 16.0078 17.8008C15.8906 17.6836 15.7031 17.625 15.4453 17.625H13.3711C12.9023 17.625 12.668 17.8242 12.668 18.2227C12.668 18.457 12.75 18.8672 12.9141 19.4531C13.1719 20.1797 13.5117 20.9648 13.9336 21.8086C14.4727 22.9102 15.1406 24 15.9375 25.0781C16.7812 26.2969 17.7656 27.2344 18.8906 27.8906C20.0156 28.5469 21.1289 28.875 22.2305 28.875C22.8633 28.875 23.2852 28.8047 23.4961 28.6641C23.6602 28.5469 23.7305 28.3477 23.707 28.0664V27.1523C23.707 26.5898 23.7188 26.2266 23.7422 26.0625C23.7422 25.8281 23.7773 25.6758 23.8477 25.6055C23.9414 25.5352 24.082 25.5 24.2695 25.5C24.7148 25.5 25.4062 25.9453 26.3438 26.8359C26.625 27.1172 26.9414 27.4688 27.293 27.8906C27.668 28.2891 27.9258 28.5352 28.0664 28.6289C28.2773 28.793 28.5117 28.875 28.7695 28.875H30.8438C31.125 28.875 31.3242 28.8047 31.4414 28.6641C31.582 28.5 31.6172 28.2773 31.5469 27.9961C31.3359 27.3398 30.3867 26.1445 28.6992 24.4102L28.3828 24.0586C28.2422 23.8945 28.1719 23.7539 28.1719 23.6367C28.1719 23.5195 28.2422 23.3555 28.3828 23.1445C28.4062 23.1211 28.6289 22.8047 29.0508 22.1953C29.543 21.4219 29.9648 20.7422 30.3164 20.1562C30.8086 19.3359 31.0898 18.75 31.1602 18.3984Z" fill="white"/>
<circle cx="6" cy="8" r="1" fill="#2D425C"/>
<circle cx="38" cy="8" r="1" fill="#2D425C"/>
<circle cx="6" cy="36" r="1" fill="#2D425C"/>
<circle cx="38" cy="36" r="1" fill="#2D425C"/>
<rect x="88.5" y="6.5" width="43" height="39" rx="5.5" fill="#2D425C" stroke="#2D425C"/>
<rect x="88.5" y="3.5" width="43" height="41" rx="5.5" fill="#3B5998" stroke="#2D425C"/>
<path d="M119.16 19.3984C119.301 18.8828 119.09 18.625 118.527 18.625H116.453C116.031 18.625 115.738 18.8242 115.574 19.2227L115.223 19.9258C114.941 20.5352 114.648 21.0977 114.344 21.6133C113.898 22.3398 113.453 22.9492 113.008 23.4414C112.773 23.6992 112.586 23.875 112.445 23.9688C112.305 24.0391 112.176 24.0742 112.059 24.0742C111.965 24.0742 111.883 24.0273 111.812 23.9336C111.742 23.8398 111.707 23.6875 111.707 23.4766V19.3984C111.707 19.1172 111.66 18.918 111.566 18.8008C111.496 18.6836 111.355 18.625 111.145 18.625H107.875C107.734 18.625 107.605 18.6719 107.488 18.7656C107.395 18.8594 107.348 18.9766 107.348 19.1172C107.348 19.2344 107.43 19.3984 107.594 19.6094C107.758 19.7969 107.875 19.9727 107.945 20.1367C108.086 20.418 108.168 20.7461 108.191 21.1211V24.1797C108.191 24.4844 108.156 24.6953 108.086 24.8125C108.039 24.9062 107.945 24.9531 107.805 24.9531C107.57 24.9531 107.242 24.6953 106.82 24.1797C106.398 23.6641 105.977 22.9961 105.555 22.1758C105.086 21.2852 104.688 20.3711 104.359 19.4336C104.266 19.1289 104.148 18.918 104.008 18.8008C103.891 18.6836 103.703 18.625 103.445 18.625H101.371C100.902 18.625 100.668 18.8242 100.668 19.2227C100.668 19.457 100.75 19.8672 100.914 20.4531C101.172 21.1797 101.512 21.9648 101.934 22.8086C102.473 23.9102 103.141 25 103.938 26.0781C104.781 27.2969 105.766 28.2344 106.891 28.8906C108.016 29.5469 109.129 29.875 110.23 29.875C110.863 29.875 111.285 29.8047 111.496 29.6641C111.66 29.5469 111.73 29.3477 111.707 29.0664V28.1523C111.707 27.5898 111.719 27.2266 111.742 27.0625C111.742 26.8281 111.777 26.6758 111.848 26.6055C111.941 26.5352 112.082 26.5 112.27 26.5C112.715 26.5 113.406 26.9453 114.344 27.8359C114.625 28.1172 114.941 28.4688 115.293 28.8906C115.668 29.2891 115.926 29.5352 116.066 29.6289C116.277 29.793 116.512 29.875 116.77 29.875H118.844C119.125 29.875 119.324 29.8047 119.441 29.6641C119.582 29.5 119.617 29.2773 119.547 28.9961C119.336 28.3398 118.387 27.1445 116.699 25.4102L116.383 25.0586C116.242 24.8945 116.172 24.7539 116.172 24.6367C116.172 24.5195 116.242 24.3555 116.383 24.1445C116.406 24.1211 116.629 23.8047 117.051 23.1953C117.543 22.4219 117.965 21.7422 118.316 21.1562C118.809 20.3359 119.09 19.75 119.16 19.3984Z" fill="white"/>
<circle cx="94" cy="10" r="1" fill="#2D425C"/>
<circle cx="126" cy="10" r="1" fill="#2D425C"/>
<circle cx="94" cy="37" r="1" fill="#2D425C"/>
<circle cx="126" cy="37" r="1" fill="#2D425C"/>
<rect x="44.5" y="6.5" width="43" height="39" rx="5.5" fill="#2D425C" stroke="#2D425C"/>
<rect x="44.5" y="0.5" width="43" height="41" rx="5.5" fill="#5680B2" stroke="#2D425C"/>
<path d="M75.1602 15.3984C75.3008 14.8828 75.0898 14.625 74.5273 14.625H72.4531C72.0312 14.625 71.7383 14.8242 71.5742 15.2227L71.2227 15.9258C70.9414 16.5352 70.6484 17.0977 70.3438 17.6133C69.8984 18.3398 69.4531 18.9492 69.0078 19.4414C68.7734 19.6992 68.5859 19.875 68.4453 19.9688C68.3047 20.0391 68.1758 20.0742 68.0586 20.0742C67.9648 20.0742 67.8828 20.0273 67.8125 19.9336C67.7422 19.8398 67.707 19.6875 67.707 19.4766V15.3984C67.707 15.1172 67.6602 14.918 67.5664 14.8008C67.4961 14.6836 67.3555 14.625 67.1445 14.625H63.875C63.7344 14.625 63.6055 14.6719 63.4883 14.7656C63.3945 14.8594 63.3477 14.9766 63.3477 15.1172C63.3477 15.2344 63.4297 15.3984 63.5938 15.6094C63.7578 15.7969 63.875 15.9727 63.9453 16.1367C64.0859 16.418 64.168 16.7461 64.1914 17.1211V20.1797C64.1914 20.4844 64.1562 20.6953 64.0859 20.8125C64.0391 20.9062 63.9453 20.9531 63.8047 20.9531C63.5703 20.9531 63.2422 20.6953 62.8203 20.1797C62.3984 19.6641 61.9766 18.9961 61.5547 18.1758C61.0859 17.2852 60.6875 16.3711 60.3594 15.4336C60.2656 15.1289 60.1484 14.918 60.0078 14.8008C59.8906 14.6836 59.7031 14.625 59.4453 14.625H57.3711C56.9023 14.625 56.668 14.8242 56.668 15.2227C56.668 15.457 56.75 15.8672 56.9141 16.4531C57.1719 17.1797 57.5117 17.9648 57.9336 18.8086C58.4727 19.9102 59.1406 21 59.9375 22.0781C60.7812 23.2969 61.7656 24.2344 62.8906 24.8906C64.0156 25.5469 65.1289 25.875 66.2305 25.875C66.8633 25.875 67.2852 25.8047 67.4961 25.6641C67.6602 25.5469 67.7305 25.3477 67.707 25.0664V24.1523C67.707 23.5898 67.7188 23.2266 67.7422 23.0625C67.7422 22.8281 67.7773 22.6758 67.8477 22.6055C67.9414 22.5352 68.082 22.5 68.2695 22.5C68.7148 22.5 69.4062 22.9453 70.3438 23.8359C70.625 24.1172 70.9414 24.4688 71.293 24.8906C71.668 25.2891 71.9258 25.5352 72.0664 25.6289C72.2773 25.793 72.5117 25.875 72.7695 25.875H74.8438C75.125 25.875 75.3242 25.8047 75.4414 25.6641C75.582 25.5 75.6172 25.2773 75.5469 24.9961C75.3359 24.3398 74.3867 23.1445 72.6992 21.4102L72.3828 21.0586C72.2422 20.8945 72.1719 20.7539 72.1719 20.6367C72.1719 20.5195 72.2422 20.3555 72.3828 20.1445C72.4062 20.1211 72.6289 19.8047 73.0508 19.1953C73.543 18.4219 73.9648 17.7422 74.3164 17.1562C74.8086 16.3359 75.0898 15.75 75.1602 15.3984Z" fill="white"/>
<circle cx="50" cy="6" r="1" fill="#2D425C"/>
<circle cx="82" cy="6" r="1" fill="#2D425C"/>
<circle cx="50" cy="34" r="1" fill="#2D425C"/>
<circle cx="82" cy="34" r="1" fill="#2D425C"/>
</svg>
