<svg width="64" height="63" viewBox="0 0 64 63" fill="none" xmlns="http://www.w3.org/2000/svg">
<g filter="url(#filter0_d)">
<rect x="10.5" y="9.5" width="43" height="39" rx="5.5" fill="#2D425C" stroke="#2D425C"/>
<rect x="10.5" y="6.5" width="43" height="41" rx="5.5" fill="#3B5998" stroke="#2D425C"/>
<path d="M41.1602 22.3984C41.3008 21.8828 41.0898 21.625 40.5273 21.625H38.4531C38.0312 21.625 37.7383 21.8242 37.5742 22.2227L37.2227 22.9258C36.9414 23.5352 36.6484 24.0977 36.3438 24.6133C35.8984 25.3398 35.4531 25.9492 35.0078 26.4414C34.7734 26.6992 34.5859 26.875 34.4453 26.9688C34.3047 27.0391 34.1758 27.0742 34.0586 27.0742C33.9648 27.0742 33.8828 27.0273 33.8125 26.9336C33.7422 26.8398 33.707 26.6875 33.707 26.4766V22.3984C33.707 22.1172 33.6602 21.918 33.5664 21.8008C33.4961 21.6836 33.3555 21.625 33.1445 21.625H29.875C29.7344 21.625 29.6055 21.6719 29.4883 21.7656C29.3945 21.8594 29.3477 21.9766 29.3477 22.1172C29.3477 22.2344 29.4297 22.3984 29.5938 22.6094C29.7578 22.7969 29.875 22.9727 29.9453 23.1367C30.0859 23.418 30.168 23.7461 30.1914 24.1211V27.1797C30.1914 27.4844 30.1562 27.6953 30.0859 27.8125C30.0391 27.9062 29.9453 27.9531 29.8047 27.9531C29.5703 27.9531 29.2422 27.6953 28.8203 27.1797C28.3984 26.6641 27.9766 25.9961 27.5547 25.1758C27.0859 24.2852 26.6875 23.3711 26.3594 22.4336C26.2656 22.1289 26.1484 21.918 26.0078 21.8008C25.8906 21.6836 25.7031 21.625 25.4453 21.625H23.3711C22.9023 21.625 22.668 21.8242 22.668 22.2227C22.668 22.457 22.75 22.8672 22.9141 23.4531C23.1719 24.1797 23.5117 24.9648 23.9336 25.8086C24.4727 26.9102 25.1406 28 25.9375 29.0781C26.7812 30.2969 27.7656 31.2344 28.8906 31.8906C30.0156 32.5469 31.1289 32.875 32.2305 32.875C32.8633 32.875 33.2852 32.8047 33.4961 32.6641C33.6602 32.5469 33.7305 32.3477 33.707 32.0664V31.1523C33.707 30.5898 33.7188 30.2266 33.7422 30.0625C33.7422 29.8281 33.7773 29.6758 33.8477 29.6055C33.9414 29.5352 34.082 29.5 34.2695 29.5C34.7148 29.5 35.4062 29.9453 36.3438 30.8359C36.625 31.1172 36.9414 31.4688 37.293 31.8906C37.668 32.2891 37.9258 32.5352 38.0664 32.6289C38.2773 32.793 38.5117 32.875 38.7695 32.875H40.8438C41.125 32.875 41.3242 32.8047 41.4414 32.6641C41.582 32.5 41.6172 32.2773 41.5469 31.9961C41.3359 31.3398 40.3867 30.1445 38.6992 28.4102L38.3828 28.0586C38.2422 27.8945 38.1719 27.7539 38.1719 27.6367C38.1719 27.5195 38.2422 27.3555 38.3828 27.1445C38.4062 27.1211 38.6289 26.8047 39.0508 26.1953C39.543 25.4219 39.9648 24.7422 40.3164 24.1562C40.8086 23.3359 41.0898 22.75 41.1602 22.3984Z" fill="white"/>
<circle cx="16" cy="13" r="1" fill="#2D425C"/>
<circle cx="48" cy="13" r="1" fill="#2D425C"/>
<circle cx="16" cy="40" r="1" fill="#2D425C"/>
<circle cx="48" cy="40" r="1" fill="#2D425C"/>
</g>
<defs>
<filter id="filter0_d" x="0" y="0" width="64" height="63" filterUnits="userSpaceOnUse" color-interpolation-filters="sRGB">
<feFlood flood-opacity="0" result="BackgroundImageFix"/>
<feColorMatrix in="SourceAlpha" type="matrix" values="0 0 0 0 0 0 0 0 0 0 0 0 0 0 0 0 0 0 127 0"/>
<feOffset dy="4"/>
<feGaussianBlur stdDeviation="5"/>
<feColorMatrix type="matrix" values="0 0 0 0 0 0 0 0 0 0 0 0 0 0 0 0 0 0 0.25 0"/>
<feBlend mode="normal" in2="BackgroundImageFix" result="effect1_dropShadow"/>
<feBlend mode="normal" in="SourceGraphic" in2="effect1_dropShadow" result="shape"/>
</filter>
</defs>
</svg>
