<svg width="64" height="63" viewBox="0 0 64 63" fill="none" xmlns="http://www.w3.org/2000/svg">
<g filter="url(#filter0_d)">
<rect x="10.5" y="9.5" width="43" height="39" rx="5.5" fill="#177FBF" stroke="#177FBF"/>
<rect x="10.5" y="6.5" width="43" height="41" rx="5.5" fill="#218ED1" stroke="#177FBF"/>
<path d="M39.2617 23.5938C39.2852 23.6875 39.2969 23.8398 39.2969 24.0508C39.2969 25.7383 38.8867 27.3672 38.0664 28.9375C37.2227 30.6016 36.0391 31.9258 34.5156 32.9102C32.8516 34.0117 30.9414 34.5625 28.7852 34.5625C26.7227 34.5625 24.8359 34.0117 23.125 32.9102C23.3828 32.9336 23.6758 32.9453 24.0039 32.9453C25.7148 32.9453 27.25 32.418 28.6094 31.3633C27.7891 31.3633 27.0625 31.1289 26.4297 30.6602C25.8203 30.168 25.3984 29.5586 25.1641 28.832C25.3984 28.8555 25.6211 28.8672 25.832 28.8672C26.1602 28.8672 26.4883 28.832 26.8164 28.7617C25.9727 28.5742 25.2695 28.1406 24.707 27.4609C24.1445 26.7812 23.8633 26.0078 23.8633 25.1406V25.0703C24.3789 25.375 24.9297 25.5391 25.5156 25.5625C25.0234 25.2109 24.625 24.7656 24.3203 24.2266C24.0156 23.6875 23.8633 23.1016 23.8633 22.4688C23.8633 21.8125 24.0391 21.1914 24.3906 20.6055C25.3047 21.7539 26.418 22.668 27.7305 23.3477C29.0664 24.0273 30.4844 24.4023 31.9844 24.4727C31.9375 24.1914 31.9141 23.9102 31.9141 23.6289C31.9141 22.9727 32.0781 22.3633 32.4062 21.8008C32.7344 21.2148 33.1797 20.7578 33.7422 20.4297C34.3047 20.1016 34.9141 19.9375 35.5703 19.9375C36.1094 19.9375 36.6016 20.043 37.0469 20.2539C37.5156 20.4648 37.9258 20.7461 38.2773 21.0977C39.1211 20.9336 39.9062 20.6406 40.6328 20.2188C40.3516 21.0859 39.8125 21.7656 39.0156 22.2578C39.7188 22.1641 40.4219 21.9648 41.125 21.6602C40.6094 22.4102 39.9883 23.0547 39.2617 23.5938Z" fill="white"/>
<circle cx="16" cy="13" r="1" fill="#177FBF"/>
<circle cx="48" cy="13" r="1" fill="#177FBF"/>
<circle cx="16" cy="40" r="1" fill="#177FBF"/>
<circle cx="48" cy="40" r="1" fill="#177FBF"/>
</g>
<defs>
<filter id="filter0_d" x="0" y="0" width="64" height="63" filterUnits="userSpaceOnUse" color-interpolation-filters="sRGB">
<feFlood flood-opacity="0" result="BackgroundImageFix"/>
<feColorMatrix in="SourceAlpha" type="matrix" values="0 0 0 0 0 0 0 0 0 0 0 0 0 0 0 0 0 0 127 0"/>
<feOffset dy="4"/>
<feGaussianBlur stdDeviation="5"/>
<feColorMatrix type="matrix" values="0 0 0 0 0 0 0 0 0 0 0 0 0 0 0 0 0 0 0.25 0"/>
<feBlend mode="normal" in2="BackgroundImageFix" result="effect1_dropShadow"/>
<feBlend mode="normal" in="SourceGraphic" in2="effect1_dropShadow" result="shape"/>
</filter>
</defs>
</svg>
