<svg width="132" height="46" viewBox="0 0 132 46" fill="none" xmlns="http://www.w3.org/2000/svg">
<rect y="6" width="44" height="40" rx="6" fill="#283C66"/>
<rect x="0.5" y="2.5" width="43" height="41" rx="5.5" fill="#3B5998" stroke="#283C66"/>
<path d="M20.1914 32.25V24.1992H17.4844V21H20.1914V18.4688C20.1914 17.1328 20.5664 16.1016 21.3164 15.375C22.0664 14.625 23.0625 14.25 24.3047 14.25C25.3125 14.25 26.1328 14.2969 26.7656 14.3906V17.2383H25.0781C24.4453 17.2383 24.0117 17.3789 23.7773 17.6602C23.5898 17.8945 23.4961 18.2695 23.4961 18.7852V21H26.4844L26.0625 24.1992H23.4961V32.25H20.1914Z" fill="white"/>
<circle cx="6" cy="8" r="1" fill="#283C66"/>
<circle cx="38" cy="8" r="1" fill="#283C66"/>
<circle cx="6" cy="36" r="1" fill="#283C66"/>
<circle cx="38" cy="36" r="1" fill="#283C66"/>
<rect x="88.5" y="6.5" width="43" height="39" rx="5.5" fill="#283C66" stroke="#283C66"/>
<rect x="88.5" y="3.5" width="43" height="41" rx="5.5" fill="#284582" stroke="#283C66"/>
<path d="M108.191 33.25V25.1992H105.484V22H108.191V19.4688C108.191 18.1328 108.566 17.1016 109.316 16.375C110.066 15.625 111.062 15.25 112.305 15.25C113.312 15.25 114.133 15.2969 114.766 15.3906V18.2383H113.078C112.445 18.2383 112.012 18.3789 111.777 18.6602C111.59 18.8945 111.496 19.2695 111.496 19.7852V22H114.484L114.062 25.1992H111.496V33.25H108.191Z" fill="white"/>
<circle cx="94" cy="10" r="1" fill="#283C66"/>
<circle cx="126" cy="10" r="1" fill="#283C66"/>
<circle cx="94" cy="37" r="1" fill="#283C66"/>
<circle cx="126" cy="37" r="1" fill="#283C66"/>
<rect x="44.5" y="6.5" width="43" height="39" rx="5.5" fill="#283C66" stroke="#283C66"/>
<rect x="44.5" y="0.5" width="43" height="41" rx="5.5" fill="#496FBE" stroke="#283C66"/>
<path d="M64.1914 29.25V21.1992H61.4844V18H64.1914V15.4688C64.1914 14.1328 64.5664 13.1016 65.3164 12.375C66.0664 11.625 67.0625 11.25 68.3047 11.25C69.3125 11.25 70.1328 11.2969 70.7656 11.3906V14.2383H69.0781C68.4453 14.2383 68.0117 14.3789 67.7773 14.6602C67.5898 14.8945 67.4961 15.2695 67.4961 15.7852V18H70.4844L70.0625 21.1992H67.4961V29.25H64.1914Z" fill="white"/>
<circle cx="50" cy="6" r="1" fill="#283C66"/>
<circle cx="82" cy="6" r="1" fill="#283C66"/>
<circle cx="50" cy="34" r="1" fill="#283C66"/>
<circle cx="82" cy="34" r="1" fill="#283C66"/>
</svg>
