<svg width="64" height="66" viewBox="0 0 64 66" fill="none" xmlns="http://www.w3.org/2000/svg">
<g filter="url(#filter0_d)">
<rect x="10.5" y="12.5" width="43" height="39" rx="5.5" fill="#177FBF" stroke="#177FBF"/>
<rect x="10.5" y="6.5" width="43" height="41" rx="5.5" fill="#4EBCFF" stroke="#177FBF"/>
<path d="M39.2617 22.5938C39.2852 22.6875 39.2969 22.8398 39.2969 23.0508C39.2969 24.7383 38.8867 26.3672 38.0664 27.9375C37.2227 29.6016 36.0391 30.9258 34.5156 31.9102C32.8516 33.0117 30.9414 33.5625 28.7852 33.5625C26.7227 33.5625 24.8359 33.0117 23.125 31.9102C23.3828 31.9336 23.6758 31.9453 24.0039 31.9453C25.7148 31.9453 27.25 31.418 28.6094 30.3633C27.7891 30.3633 27.0625 30.1289 26.4297 29.6602C25.8203 29.168 25.3984 28.5586 25.1641 27.832C25.3984 27.8555 25.6211 27.8672 25.832 27.8672C26.1602 27.8672 26.4883 27.832 26.8164 27.7617C25.9727 27.5742 25.2695 27.1406 24.707 26.4609C24.1445 25.7812 23.8633 25.0078 23.8633 24.1406V24.0703C24.3789 24.375 24.9297 24.5391 25.5156 24.5625C25.0234 24.2109 24.625 23.7656 24.3203 23.2266C24.0156 22.6875 23.8633 22.1016 23.8633 21.4688C23.8633 20.8125 24.0391 20.1914 24.3906 19.6055C25.3047 20.7539 26.418 21.668 27.7305 22.3477C29.0664 23.0273 30.4844 23.4023 31.9844 23.4727C31.9375 23.1914 31.9141 22.9102 31.9141 22.6289C31.9141 21.9727 32.0781 21.3633 32.4062 20.8008C32.7344 20.2148 33.1797 19.7578 33.7422 19.4297C34.3047 19.1016 34.9141 18.9375 35.5703 18.9375C36.1094 18.9375 36.6016 19.043 37.0469 19.2539C37.5156 19.4648 37.9258 19.7461 38.2773 20.0977C39.1211 19.9336 39.9062 19.6406 40.6328 19.2188C40.3516 20.0859 39.8125 20.7656 39.0156 21.2578C39.7188 21.1641 40.4219 20.9648 41.125 20.6602C40.6094 21.4102 39.9883 22.0547 39.2617 22.5938Z" fill="white"/>
<circle cx="16" cy="12" r="1" fill="#177FBF"/>
<circle cx="48" cy="12" r="1" fill="#177FBF"/>
<circle cx="16" cy="40" r="1" fill="#177FBF"/>
<circle cx="48" cy="40" r="1" fill="#177FBF"/>
</g>
<defs>
<filter id="filter0_d" x="0" y="0" width="64" height="66" filterUnits="userSpaceOnUse" color-interpolation-filters="sRGB">
<feFlood flood-opacity="0" result="BackgroundImageFix"/>
<feColorMatrix in="SourceAlpha" type="matrix" values="0 0 0 0 0 0 0 0 0 0 0 0 0 0 0 0 0 0 127 0"/>
<feOffset dy="4"/>
<feGaussianBlur stdDeviation="5"/>
<feColorMatrix type="matrix" values="0 0 0 0 0 0 0 0 0 0 0 0 0 0 0 0 0 0 0.25 0"/>
<feBlend mode="normal" in2="BackgroundImageFix" result="effect1_dropShadow"/>
<feBlend mode="normal" in="SourceGraphic" in2="effect1_dropShadow" result="shape"/>
</filter>
</defs>
</svg>
