<svg width="64" height="64" viewBox="0 0 64 64" fill="none" xmlns="http://www.w3.org/2000/svg">
<g filter="url(#filter0_d)">
<rect x="10" y="10" width="44" height="40" rx="6" fill="#283C66"/>
<rect x="10.5" y="6.5" width="43" height="41" rx="5.5" fill="#3B5998" stroke="#283C66"/>
<path d="M30.1914 36.25H33.4961V28.1992H36.0625L36.4844 25H33.4961V22.7852C33.4961 22.293 33.5664 21.9062 33.7773 21.6602C33.9883 21.3789 34.4453 21.2383 35.0781 21.2383H36.7656V18.3906C36.1328 18.3203 35.2891 18.25 34.3047 18.25C33.0391 18.25 32.0547 18.6367 31.3164 19.375C30.543 20.1133 30.1914 21.1328 30.1914 22.4688V25H27.4844V28.1992H30.1914V36.25Z" fill="white"/>
<circle cx="16" cy="12" r="1" fill="#283C66"/>
<circle cx="48" cy="12" r="1" fill="#283C66"/>
<circle cx="16" cy="40" r="1" fill="#283C66"/>
<circle cx="48" cy="40" r="1" fill="#283C66"/>
</g>
<defs>
<filter id="filter0_d" x="0" y="0" width="64" height="64" filterUnits="userSpaceOnUse" color-interpolation-filters="sRGB">
<feFlood flood-opacity="0" result="BackgroundImageFix"/>
<feColorMatrix in="SourceAlpha" type="matrix" values="0 0 0 0 0 0 0 0 0 0 0 0 0 0 0 0 0 0 127 0"/>
<feOffset dy="4"/>
<feGaussianBlur stdDeviation="5"/>
<feColorMatrix type="matrix" values="0 0 0 0 0 0 0 0 0 0 0 0 0 0 0 0 0 0 0.25 0"/>
<feBlend mode="normal" in2="BackgroundImageFix" result="effect1_dropShadow"/>
<feBlend mode="normal" in="SourceGraphic" in2="effect1_dropShadow" result="shape"/>
</filter>
</defs>
</svg>
