<svg width="64" height="66" viewBox="0 0 64 66" fill="none" xmlns="http://www.w3.org/2000/svg">
<g filter="url(#filter0_d)">
<rect x="10.5" y="12.5" width="43" height="39" rx="5.5" fill="#2D425C" stroke="#2D425C"/>
<rect x="10.5" y="6.5" width="43" height="41" rx="5.5" fill="#5680B2" stroke="#2D425C"/>
<path d="M41.1602 21.3984C41.3008 20.8828 41.0898 20.625 40.5273 20.625H38.4531C38.0312 20.625 37.7383 20.8242 37.5742 21.2227L37.2227 21.9258C36.9414 22.5352 36.6484 23.0977 36.3438 23.6133C35.8984 24.3398 35.4531 24.9492 35.0078 25.4414C34.7734 25.6992 34.5859 25.875 34.4453 25.9688C34.3047 26.0391 34.1758 26.0742 34.0586 26.0742C33.9648 26.0742 33.8828 26.0273 33.8125 25.9336C33.7422 25.8398 33.707 25.6875 33.707 25.4766V21.3984C33.707 21.1172 33.6602 20.918 33.5664 20.8008C33.4961 20.6836 33.3555 20.625 33.1445 20.625H29.875C29.7344 20.625 29.6055 20.6719 29.4883 20.7656C29.3945 20.8594 29.3477 20.9766 29.3477 21.1172C29.3477 21.2344 29.4297 21.3984 29.5938 21.6094C29.7578 21.7969 29.875 21.9727 29.9453 22.1367C30.0859 22.418 30.168 22.7461 30.1914 23.1211V26.1797C30.1914 26.4844 30.1562 26.6953 30.0859 26.8125C30.0391 26.9062 29.9453 26.9531 29.8047 26.9531C29.5703 26.9531 29.2422 26.6953 28.8203 26.1797C28.3984 25.6641 27.9766 24.9961 27.5547 24.1758C27.0859 23.2852 26.6875 22.3711 26.3594 21.4336C26.2656 21.1289 26.1484 20.918 26.0078 20.8008C25.8906 20.6836 25.7031 20.625 25.4453 20.625H23.3711C22.9023 20.625 22.668 20.8242 22.668 21.2227C22.668 21.457 22.75 21.8672 22.9141 22.4531C23.1719 23.1797 23.5117 23.9648 23.9336 24.8086C24.4727 25.9102 25.1406 27 25.9375 28.0781C26.7812 29.2969 27.7656 30.2344 28.8906 30.8906C30.0156 31.5469 31.1289 31.875 32.2305 31.875C32.8633 31.875 33.2852 31.8047 33.4961 31.6641C33.6602 31.5469 33.7305 31.3477 33.707 31.0664V30.1523C33.707 29.5898 33.7188 29.2266 33.7422 29.0625C33.7422 28.8281 33.7773 28.6758 33.8477 28.6055C33.9414 28.5352 34.082 28.5 34.2695 28.5C34.7148 28.5 35.4062 28.9453 36.3438 29.8359C36.625 30.1172 36.9414 30.4688 37.293 30.8906C37.668 31.2891 37.9258 31.5352 38.0664 31.6289C38.2773 31.793 38.5117 31.875 38.7695 31.875H40.8438C41.125 31.875 41.3242 31.8047 41.4414 31.6641C41.582 31.5 41.6172 31.2773 41.5469 30.9961C41.3359 30.3398 40.3867 29.1445 38.6992 27.4102L38.3828 27.0586C38.2422 26.8945 38.1719 26.7539 38.1719 26.6367C38.1719 26.5195 38.2422 26.3555 38.3828 26.1445C38.4062 26.1211 38.6289 25.8047 39.0508 25.1953C39.543 24.4219 39.9648 23.7422 40.3164 23.1562C40.8086 22.3359 41.0898 21.75 41.1602 21.3984Z" fill="white"/>
<circle cx="16" cy="12" r="1" fill="#2D425C"/>
<circle cx="48" cy="12" r="1" fill="#2D425C"/>
<circle cx="16" cy="40" r="1" fill="#2D425C"/>
<circle cx="48" cy="40" r="1" fill="#2D425C"/>
</g>
<defs>
<filter id="filter0_d" x="0" y="0" width="64" height="66" filterUnits="userSpaceOnUse" color-interpolation-filters="sRGB">
<feFlood flood-opacity="0" result="BackgroundImageFix"/>
<feColorMatrix in="SourceAlpha" type="matrix" values="0 0 0 0 0 0 0 0 0 0 0 0 0 0 0 0 0 0 127 0"/>
<feOffset dy="4"/>
<feGaussianBlur stdDeviation="5"/>
<feColorMatrix type="matrix" values="0 0 0 0 0 0 0 0 0 0 0 0 0 0 0 0 0 0 0.25 0"/>
<feBlend mode="normal" in2="BackgroundImageFix" result="effect1_dropShadow"/>
<feBlend mode="normal" in="SourceGraphic" in2="effect1_dropShadow" result="shape"/>
</filter>
</defs>
</svg>
