<svg width="132" height="46" viewBox="0 0 132 46" fill="none" xmlns="http://www.w3.org/2000/svg">
<rect y="6" width="44" height="40" rx="6" fill="#177FBF"/>
<rect x="0.5" y="2.5" width="43" height="41" rx="5.5" fill="#1DA1F2" stroke="#177FBF"/>
<path d="M29.2617 19.5938C29.2852 19.6875 29.2969 19.8398 29.2969 20.0508C29.2969 21.7383 28.8867 23.3672 28.0664 24.9375C27.2227 26.6016 26.0391 27.9258 24.5156 28.9102C22.8516 30.0117 20.9414 30.5625 18.7852 30.5625C16.7227 30.5625 14.8359 30.0117 13.125 28.9102C13.3828 28.9336 13.6758 28.9453 14.0039 28.9453C15.7148 28.9453 17.25 28.418 18.6094 27.3633C17.7891 27.3633 17.0625 27.1289 16.4297 26.6602C15.8203 26.168 15.3984 25.5586 15.1641 24.832C15.3984 24.8555 15.6211 24.8672 15.832 24.8672C16.1602 24.8672 16.4883 24.832 16.8164 24.7617C15.9727 24.5742 15.2695 24.1406 14.707 23.4609C14.1445 22.7812 13.8633 22.0078 13.8633 21.1406V21.0703C14.3789 21.375 14.9297 21.5391 15.5156 21.5625C15.0234 21.2109 14.625 20.7656 14.3203 20.2266C14.0156 19.6875 13.8633 19.1016 13.8633 18.4688C13.8633 17.8125 14.0391 17.1914 14.3906 16.6055C15.3047 17.7539 16.418 18.668 17.7305 19.3477C19.0664 20.0273 20.4844 20.4023 21.9844 20.4727C21.9375 20.1914 21.9141 19.9102 21.9141 19.6289C21.9141 18.9727 22.0781 18.3633 22.4062 17.8008C22.7344 17.2148 23.1797 16.7578 23.7422 16.4297C24.3047 16.1016 24.9141 15.9375 25.5703 15.9375C26.1094 15.9375 26.6016 16.043 27.0469 16.2539C27.5156 16.4648 27.9258 16.7461 28.2773 17.0977C29.1211 16.9336 29.9062 16.6406 30.6328 16.2188C30.3516 17.0859 29.8125 17.7656 29.0156 18.2578C29.7188 18.1641 30.4219 17.9648 31.125 17.6602C30.6094 18.4102 29.9883 19.0547 29.2617 19.5938Z" fill="white"/>
<circle cx="6" cy="8" r="1" fill="#177FBF"/>
<circle cx="38" cy="8" r="1" fill="#177FBF"/>
<circle cx="6" cy="36" r="1" fill="#177FBF"/>
<circle cx="38" cy="36" r="1" fill="#177FBF"/>
<rect x="88.5" y="6.5" width="43" height="39" rx="5.5" fill="#177FBF" stroke="#177FBF"/>
<rect x="88.5" y="3.5" width="43" height="41" rx="5.5" fill="#218ED1" stroke="#177FBF"/>
<path d="M117.262 20.5938C117.285 20.6875 117.297 20.8398 117.297 21.0508C117.297 22.7383 116.887 24.3672 116.066 25.9375C115.223 27.6016 114.039 28.9258 112.516 29.9102C110.852 31.0117 108.941 31.5625 106.785 31.5625C104.723 31.5625 102.836 31.0117 101.125 29.9102C101.383 29.9336 101.676 29.9453 102.004 29.9453C103.715 29.9453 105.25 29.418 106.609 28.3633C105.789 28.3633 105.062 28.1289 104.43 27.6602C103.82 27.168 103.398 26.5586 103.164 25.832C103.398 25.8555 103.621 25.8672 103.832 25.8672C104.16 25.8672 104.488 25.832 104.816 25.7617C103.973 25.5742 103.27 25.1406 102.707 24.4609C102.145 23.7812 101.863 23.0078 101.863 22.1406V22.0703C102.379 22.375 102.93 22.5391 103.516 22.5625C103.023 22.2109 102.625 21.7656 102.32 21.2266C102.016 20.6875 101.863 20.1016 101.863 19.4688C101.863 18.8125 102.039 18.1914 102.391 17.6055C103.305 18.7539 104.418 19.668 105.73 20.3477C107.066 21.0273 108.484 21.4023 109.984 21.4727C109.938 21.1914 109.914 20.9102 109.914 20.6289C109.914 19.9727 110.078 19.3633 110.406 18.8008C110.734 18.2148 111.18 17.7578 111.742 17.4297C112.305 17.1016 112.914 16.9375 113.57 16.9375C114.109 16.9375 114.602 17.043 115.047 17.2539C115.516 17.4648 115.926 17.7461 116.277 18.0977C117.121 17.9336 117.906 17.6406 118.633 17.2188C118.352 18.0859 117.812 18.7656 117.016 19.2578C117.719 19.1641 118.422 18.9648 119.125 18.6602C118.609 19.4102 117.988 20.0547 117.262 20.5938Z" fill="white"/>
<circle cx="94" cy="10" r="1" fill="#177FBF"/>
<circle cx="126" cy="10" r="1" fill="#177FBF"/>
<circle cx="94" cy="37" r="1" fill="#177FBF"/>
<circle cx="126" cy="37" r="1" fill="#177FBF"/>
<rect x="44.5" y="6.5" width="43" height="39" rx="5.5" fill="#177FBF" stroke="#177FBF"/>
<rect x="44.5" y="0.5" width="43" height="41" rx="5.5" fill="#4EBCFF" stroke="#177FBF"/>
<path d="M73.2617 16.5938C73.2852 16.6875 73.2969 16.8398 73.2969 17.0508C73.2969 18.7383 72.8867 20.3672 72.0664 21.9375C71.2227 23.6016 70.0391 24.9258 68.5156 25.9102C66.8516 27.0117 64.9414 27.5625 62.7852 27.5625C60.7227 27.5625 58.8359 27.0117 57.125 25.9102C57.3828 25.9336 57.6758 25.9453 58.0039 25.9453C59.7148 25.9453 61.25 25.418 62.6094 24.3633C61.7891 24.3633 61.0625 24.1289 60.4297 23.6602C59.8203 23.168 59.3984 22.5586 59.1641 21.832C59.3984 21.8555 59.6211 21.8672 59.832 21.8672C60.1602 21.8672 60.4883 21.832 60.8164 21.7617C59.9727 21.5742 59.2695 21.1406 58.707 20.4609C58.1445 19.7812 57.8633 19.0078 57.8633 18.1406V18.0703C58.3789 18.375 58.9297 18.5391 59.5156 18.5625C59.0234 18.2109 58.625 17.7656 58.3203 17.2266C58.0156 16.6875 57.8633 16.1016 57.8633 15.4688C57.8633 14.8125 58.0391 14.1914 58.3906 13.6055C59.3047 14.7539 60.418 15.668 61.7305 16.3477C63.0664 17.0273 64.4844 17.4023 65.9844 17.4727C65.9375 17.1914 65.9141 16.9102 65.9141 16.6289C65.9141 15.9727 66.0781 15.3633 66.4062 14.8008C66.7344 14.2148 67.1797 13.7578 67.7422 13.4297C68.3047 13.1016 68.9141 12.9375 69.5703 12.9375C70.1094 12.9375 70.6016 13.043 71.0469 13.2539C71.5156 13.4648 71.9258 13.7461 72.2773 14.0977C73.1211 13.9336 73.9062 13.6406 74.6328 13.2188C74.3516 14.0859 73.8125 14.7656 73.0156 15.2578C73.7188 15.1641 74.4219 14.9648 75.125 14.6602C74.6094 15.4102 73.9883 16.0547 73.2617 16.5938Z" fill="white"/>
<circle cx="50" cy="6" r="1" fill="#177FBF"/>
<circle cx="82" cy="6" r="1" fill="#177FBF"/>
<circle cx="50" cy="34" r="1" fill="#177FBF"/>
<circle cx="82" cy="34" r="1" fill="#177FBF"/>
</svg>
