<svg width="107" height="106" viewBox="0 0 107 106" fill="none" xmlns="http://www.w3.org/2000/svg">
<path d="M7.50304 48.1638C7.50304 48.1638 0.293037 43.2638 1.09304 41.3038C1.89304 39.3438 10.283 39.0838 10.283 39.0838L15.753 29.2638C15.753 29.2638 21.663 19.3438 25.503 18.0038C25.503 18.0038 23.323 5.74379 26.023 5.15379C28.723 4.56379 34.923 9.64379 34.923 9.64379C34.923 9.64379 41.923 7.64379 45.773 7.01379C49.623 6.38379 64.983 8.08379 64.983 8.08379C64.983 8.08379 69.633 0.373788 71.903 1.08379C74.173 1.79379 73.063 10.5938 73.063 10.5938C73.063 10.5938 83.503 18.0238 89.003 24.5038C89.003 24.5038 89.193 25.4038 92.293 25.3038C95.393 25.2038 101.763 24.5738 102.423 25.2338C103.083 25.8938 95.833 37.2338 95.833 37.2338C95.833 37.2338 99.173 46.9838 98.913 54.7238C98.913 54.7238 105.913 60.9038 106.303 62.2738C106.693 63.6438 97.883 65.5038 97.883 65.5038C97.883 65.5038 94.073 76.2238 91.503 79.1738C88.933 82.1238 83.793 88.0138 83.793 88.0138C83.793 88.0138 84.373 97.4638 83.253 98.3638C82.133 99.2638 74.983 94.8238 74.983 94.8238C74.983 94.8238 66.503 98.7338 61.933 99.2638C57.363 99.7938 48.323 98.9538 48.323 98.9538C48.323 98.9538 43.323 105.454 41.763 105.274C40.203 105.094 39.023 95.4438 39.023 95.4438C39.023 95.4438 31.743 92.3038 29.453 90.4438C27.163 88.5838 21.003 81.8938 21.003 81.8938C21.003 81.8938 8.92304 85.1238 7.00304 82.8938C5.08304 80.6638 13.163 70.5038 13.163 70.5038C13.163 70.5038 7.00304 58.3738 7.50304 48.1638Z" fill="#49B6BB"/>
<path d="M20.603 68.0639C18.863 64.7239 16.153 56.4339 18.163 46.0639C21.163 30.6639 34.083 16.8339 51.103 15.6339C64.993 14.6339 73.2229 21.8339 74.103 25.1839C75.103 29.1139 74.713 32.4339 69.783 37.9139C65.353 42.8339 48.0129 46.9139 42.2629 52.2239C37.7629 56.4039 37.263 70.3539 33.103 73.0739C27.363 76.8839 22.793 72.2639 20.603 68.0639Z" fill="#58CDC8"/>
<path d="M75.303 94.5036C75.303 94.5036 63.303 101.354 53.853 99.8036C44.403 98.2536 30.503 94.0836 20.813 81.9336" stroke="black" stroke-linecap="round" stroke-linejoin="round"/>
<path d="M12.9431 70.974C12.9431 70.974 6.50306 56.354 7.73306 48.384C8.96306 40.414 18.3931 22.384 24.9231 17.854" stroke="black" stroke-linecap="round" stroke-linejoin="round"/>
<path d="M88.813 24.7637C88.813 24.7637 77.963 11.8737 69.893 9.24374C61.823 6.61374 48.503 4.50374 35.733 10.2137" stroke="black" stroke-linecap="round" stroke-linejoin="round"/>
<path d="M95.933 36.874C95.933 36.874 100.443 52.074 98.313 62.874C95.583 76.584 84.503 87.304 84.063 87.994" stroke="black" stroke-linecap="round" stroke-linejoin="round"/>
<path d="M22.953 81.1438C22.953 81.1438 10.863 83.7238 7.72296 83.2138C4.58296 82.7038 14.023 70.1538 14.023 70.1538" stroke="black" stroke-linecap="round" stroke-linejoin="round"/>
<path d="M10.693 39.124C10.693 39.124 2.40301 38.504 1.02301 41.314C0.543007 42.314 7.73301 48.374 7.73301 48.374" stroke="black" stroke-linecap="round" stroke-linejoin="round"/>
<path d="M39.313 96.0938C39.313 96.0938 40.693 105.014 41.953 105.404C43.213 105.794 48.383 98.5038 48.383 98.5038" stroke="black" stroke-linecap="round" stroke-linejoin="round"/>
<path d="M45.503 73.4336C45.503 73.4336 45.123 83.4336 46.843 83.4336C48.563 83.4336 54.403 75.5036 54.403 75.5036" stroke="black" stroke-linecap="round" stroke-linejoin="round"/>
<path d="M29.903 52.0139C29.903 52.0139 23.083 47.8139 23.173 47.0139C23.263 46.2139 31.043 42.5039 31.043 42.5039" stroke="black" stroke-linecap="round" stroke-linejoin="round"/>
<path d="M52.2631 50.6641C52.2631 50.6641 53.0131 54.1941 53.6231 54.5841C54.2331 54.9741 57.2231 51.7041 57.2231 51.7041" stroke="black" stroke-linecap="round" stroke-linejoin="round"/>
<path d="M55.663 28.3438C55.663 28.3438 63.093 20.5738 64.003 21.1638C64.913 21.7538 65.503 31.6538 65.503 31.6538" stroke="black" stroke-linecap="round" stroke-linejoin="round"/>
<path d="M81.023 51.5039C81.023 51.5039 89.323 57.1039 88.593 58.5739C87.863 60.0439 77.973 61.9039 77.973 61.9039" stroke="black" stroke-linecap="round" stroke-linejoin="round"/>
<path d="M82.793 83.2637C82.793 83.2637 84.923 95.7137 83.433 98.0037C81.943 100.294 70.363 91.0037 70.363 91.0037" stroke="black" stroke-linecap="round" stroke-linejoin="round"/>
<path d="M99.103 55.4238C99.103 55.4238 106.613 61.5938 106.423 62.5538C106.233 63.5138 97.373 65.8038 97.373 65.8038" stroke="black" stroke-linecap="round" stroke-linejoin="round"/>
<path d="M89.7729 25.2838C89.7729 25.2838 102.143 24.6238 102.453 25.4738C102.763 26.3238 95.143 38.0938 95.143 38.0938" stroke="black" stroke-linecap="round" stroke-linejoin="round"/>
<path d="M72.973 10.6938C72.973 10.6938 73.503 2.15383 72.243 1.10383C70.983 0.0538263 64.743 7.31383 64.743 7.31383" stroke="black" stroke-linecap="round" stroke-linejoin="round"/>
<path d="M25.503 20.2938C25.676 17.9367 25.6124 15.5682 25.313 13.2238C24.813 9.64376 25.073 5.90376 25.813 5.08376C26.553 4.26376 36.603 11.2138 37.373 11.7038C37.8376 12.0515 38.3758 12.2881 38.9461 12.3956C39.5163 12.5031 40.1037 12.4785 40.663 12.3238" stroke="black" stroke-linecap="round" stroke-linejoin="round"/>
</svg>
