<svg width="48" height="48" viewBox="0 0 48 48" fill="none" xmlns="http://www.w3.org/2000/svg">
<path d="M4.08557 24.0914C4.08557 24.0914 0.775566 22.3414 1.02557 21.5014C1.27557 20.6614 4.83557 20.1314 4.83557 20.1314L6.71557 15.6914C6.71557 15.6914 8.77557 11.1914 10.3356 10.4414C10.3356 10.4414 8.83557 5.32139 9.96557 4.94139C11.0956 4.56139 13.9656 6.44139 13.9656 6.44139C13.9656 6.44139 16.8356 5.22139 18.4956 4.78139C20.1556 4.34139 26.7456 4.34139 26.7456 4.34139C26.7456 4.34139 28.3356 0.841391 29.3356 1.03139C30.3356 1.22139 30.2756 5.03139 30.2756 5.03139C32.9216 6.51036 35.4138 8.24893 37.7156 10.2214C37.7156 10.2214 37.8356 10.5914 39.1556 10.4114C40.4756 10.2314 43.1556 9.66139 43.4656 9.91139C43.7756 10.1614 41.2156 15.3514 41.2156 15.3514C42.2837 17.6684 42.9983 20.1325 43.3356 22.6614C43.3356 22.6614 46.5856 24.9714 46.8356 25.5414C47.0856 26.1114 43.3956 27.2914 43.3956 27.2914C43.3956 27.2914 42.2756 32.0414 41.3356 33.4114C40.3956 34.7814 38.4956 37.5014 38.4956 37.5014C38.4956 37.5014 39.1856 41.5014 38.7456 41.9414C38.3056 42.3814 35.0556 40.8214 35.0556 40.8214C33.3655 41.8544 31.5641 42.6931 29.6856 43.3214C27.7639 43.6313 25.8219 43.7984 23.8756 43.8214C23.8756 43.8214 22.0656 46.8214 21.3756 46.8214C20.6856 46.8214 19.7556 42.7614 19.7556 42.7614C18.2734 42.3218 16.8315 41.7564 15.4456 41.0714C14.3856 40.3814 11.4456 37.8214 11.4456 37.8214C11.4456 37.8214 6.40557 39.7814 5.49557 38.9014C4.58557 38.0214 7.49557 33.3414 7.49557 33.3414C7.49557 33.3414 4.33557 28.5014 4.08557 24.0914Z" fill="#768F89"/>
<path d="M10.5855 31.9714C8.91891 29.1904 8.18649 25.9488 8.49552 22.7214C9.05552 16.0214 13.9255 9.52138 21.1255 8.22138C27.0055 7.16138 30.8455 9.83138 31.3755 11.2214C32.0055 12.8514 31.9755 14.2814 30.1255 16.8514C28.4655 19.1514 21.2655 21.6814 19.0655 24.2314C17.3455 26.2314 17.7555 32.2314 16.1255 33.5414C13.8755 35.4114 11.7155 33.6514 10.5855 31.9714Z" fill="#A8C7B6"/>
<path d="M35.1256 40.6811C35.1256 40.6811 30.3156 44.1611 26.2356 43.9411C22.1556 43.7211 16.0256 42.6011 11.3256 37.8711" stroke="black" stroke-linecap="round" stroke-linejoin="round"/>
<path d="M7.49558 33.5611C7.49558 33.5611 4.05558 27.6311 4.22558 24.1711C4.39558 20.7111 7.49558 12.6111 10.0956 10.3711" stroke="black" stroke-linecap="round" stroke-linejoin="round"/>
<path d="M37.6456 10.3414C37.6456 10.3414 32.4256 5.34138 28.8656 4.61138C25.3056 3.88138 19.5456 3.61138 14.3556 6.61138" stroke="black" stroke-linecap="round" stroke-linejoin="round"/>
<path d="M41.2455 15.1714C41.2455 15.1714 43.8755 21.4414 43.4655 26.1714C42.9455 32.1714 38.7155 37.2414 38.5555 37.5514" stroke="black" stroke-linecap="round" stroke-linejoin="round"/>
<path d="M12.1955 37.4311C12.1955 37.4311 7.19549 39.0911 5.80549 39.0211C4.41549 38.9511 7.88549 33.1611 7.88549 33.1611" stroke="black" stroke-linecap="round" stroke-linejoin="round"/>
<path d="M5.02555 20.0913C5.02555 20.0913 1.49555 20.2213 1.00555 21.5013C0.845554 21.9413 4.19555 24.2013 4.19555 24.2013" stroke="black" stroke-linecap="round" stroke-linejoin="round"/>
<path d="M19.8656 43.041C19.8656 43.041 20.8656 46.781 21.4256 46.881C21.9856 46.981 23.8456 43.641 23.8456 43.641" stroke="black" stroke-linecap="round" stroke-linejoin="round"/>
<path d="M21.4956 33.1011C21.4956 33.1011 21.7956 37.3611 22.4956 37.2911C23.1956 37.2211 25.3356 33.5611 25.3356 33.5611" stroke="black" stroke-linecap="round" stroke-linejoin="round"/>
<path d="M13.8056 24.6913C13.8056 24.6913 10.7056 23.2213 10.7056 22.8713C10.7056 22.5213 13.8556 20.6113 13.8556 20.6113" stroke="black" stroke-linecap="round" stroke-linejoin="round"/>
<path d="M23.2755 23.0811C23.2755 23.0811 23.7555 24.5511 24.0355 24.6911C24.3155 24.8311 25.4355 23.3011 25.4355 23.3011" stroke="black" stroke-linecap="round" stroke-linejoin="round"/>
<path d="M23.6855 13.4113C23.6855 13.4113 26.4955 9.75134 26.9055 9.96134C27.3155 10.1713 28.0055 14.3613 28.0055 14.3613" stroke="black" stroke-linecap="round" stroke-linejoin="round"/>
<path d="M35.5656 22.1011C35.5656 22.1011 39.3656 24.1011 39.1156 24.7611C38.8656 25.4211 34.7456 26.6711 34.7456 26.6711" stroke="black" stroke-linecap="round" stroke-linejoin="round"/>
<path d="M37.7955 35.5513C37.7955 35.5513 39.2855 40.7613 38.7955 41.8013C38.3055 42.8413 32.9055 39.4413 32.9055 39.4413" stroke="black" stroke-linecap="round" stroke-linejoin="round"/>
<path d="M43.4956 22.9312C43.4956 22.9312 46.9856 25.2112 46.9456 25.6312C46.9056 26.0512 43.2356 27.4312 43.2356 27.4312" stroke="black" stroke-linecap="round" stroke-linejoin="round"/>
<path d="M38.0756 10.5015C38.0756 10.5015 43.3156 9.64148 43.4856 9.99148C43.6556 10.3415 40.9556 15.7115 40.9556 15.7115" stroke="black" stroke-linecap="round" stroke-linejoin="round"/>
<path d="M30.2356 5.08124C30.2356 5.08124 30.0756 1.42124 29.4956 1.03124C28.9156 0.641243 26.5856 4.03124 26.5856 4.03124" stroke="black" stroke-linecap="round" stroke-linejoin="round"/>
<path d="M10.4956 11.3814C10.4592 10.3703 10.3219 9.36528 10.0856 8.38144C9.70558 6.88144 9.64558 5.27144 9.92558 4.89144C10.2056 4.51144 14.8056 7.00144 15.1556 7.18144C15.3698 7.30761 15.61 7.38311 15.8578 7.40217C16.1057 7.42124 16.3546 7.38336 16.5856 7.29144" stroke="black" stroke-linecap="round" stroke-linejoin="round"/>
</svg>
