<svg width="91" height="75" viewBox="0 0 91 75" fill="none" xmlns="http://www.w3.org/2000/svg">
<path d="M71.65 63.2298C73.0113 61.2877 74.1139 59.1767 74.93 56.9498C75.869 53.0062 76.2361 48.948 76.02 44.8998C75.6017 41.1468 74.6696 37.4691 73.25 33.9698C72.55 32.5198 68.14 23.9698 68.14 23.9698L64.77 20.1998C64.77 20.1998 60.18 14.1298 58.77 13.1998C55.947 11.5315 52.9941 10.0935 49.94 8.89982C46.974 7.98848 43.8652 7.63252 40.77 7.84982C37.77 8.02982 36.45 7.84982 34.63 8.75982C34.63 8.75982 33.86 7.62982 33.03 7.52982C32.2 7.42982 30.95 6.52982 29.24 6.79982C27.53 7.06982 27.19 7.57982 27.17 8.19982C27.2333 8.9467 27.3639 9.68636 27.56 10.4098C27.56 10.4098 26.19 10.8998 25.9 11.8598C25.61 12.8198 25.12 16.0698 25.12 16.0698C25.12 16.0698 23.5 18.4298 22.65 19.9798C21.8 21.5298 21.06 28.9798 21.14 30.3398C21.22 31.6998 21.07 41.5398 22.79 46.0398C24.8017 51.9705 27.89 57.4793 31.9 62.2898C37.25 68.6698 40.42 70.9198 43.02 71.9198C46.3414 72.9725 49.8057 73.5055 53.29 73.4998C55.7255 73.3198 58.1391 72.9148 60.5 72.2898C61.8444 71.7368 63.3183 71.5773 64.75 71.8298C66.95 72.1598 68.32 73.2098 70.89 70.9198C70.89 70.9198 72.32 70.1198 72.01 67.6898C71.7 65.2598 71.65 63.2298 71.65 63.2298Z" fill="#FBF86E"/>
<path d="M51.77 30.4998C52.32 28.1298 51.68 24.3198 49.54 22.2998C47.4 20.2798 43.07 20.1298 40.71 21.8798C38.35 23.6298 36.82 28.4298 38.06 31.2898C39.3 34.1498 43.91 36.4198 48.24 34.2898C52.57 32.1598 51.77 30.4998 51.77 30.4998Z" fill="white"/>
<path d="M60.45 13.96C62.71 14.9 64.59 17.43 64.8 18.96C65.06 20.96 64.72 23.86 62.89 25.25C61.4768 26.1456 59.8211 26.5822 58.15 26.5C58.1607 26.1147 58.0468 25.7363 57.8252 25.421C57.6036 25.1057 57.2861 24.8704 56.92 24.75C55.64 24.38 54.92 25.75 54.92 25.75C52.58 24.33 51.27 19.9 52.13 17.63C52.6806 16.262 53.6733 15.1179 54.95 14.38C56.7939 14.554 58.6539 14.412 60.45 13.96Z" fill="white"/>
<path d="M50.87 38.5002C48.45 39.4402 48.2 41.5002 48.97 43.5002C49.74 45.5002 52.23 47.6602 56.25 46.7502C60.27 45.8402 66.3 42.1302 67.32 39.1402C68.66 35.1402 66.71 31.6702 63.74 32.0902C60.1 32.6002 59.35 35.3902 56.46 37.0902C54.6 38.1002 52.74 37.7402 50.87 38.5002Z" fill="#682527"/>
<path d="M62.69 32.2998C62.8547 32.561 62.9134 32.8753 62.8539 33.1784C62.7944 33.4814 62.6213 33.7503 62.37 33.9298C61.45 34.6398 60.51 33.4098 60.51 33.4098C60.51 33.4098 61.46 34.7398 60.64 35.3298C59.82 35.9198 58.7 35.1398 58.7 35.1398C58.7 35.1398 59.7 36.3598 58.94 37.0498C58.18 37.7398 57.2 36.7398 57.2 36.7398C57.2 36.7398 57.7 37.7398 57.09 38.2498C56.48 38.7598 55.67 37.8098 55.67 37.8098C55.6569 38.1186 55.5725 38.4202 55.4232 38.6908C55.274 38.9615 55.0641 39.1939 54.81 39.3698C53.98 39.8498 53.54 38.0598 53.54 38.0598C55.1247 37.6917 56.6031 36.9628 57.86 35.9298C59.42 34.4198 60.81 32.6998 62.69 32.2998Z" fill="white"/>
<path d="M65.59 41.5001C65.59 41.5001 64.44 40.3601 63.49 41.1401C62.54 41.9201 63.35 43.3001 63.35 43.3001C63.35 43.3001 62.18 41.8101 61.22 42.4401C60.26 43.0701 61.57 44.4401 61.57 44.4401C61.57 44.4401 59.69 43.0601 59.21 43.3801C58.73 43.7001 59.15 45.6001 59.15 45.6001C59.15 45.6001 58.05 44.1001 57.22 44.5101C56.39 44.9201 57 46.5101 57 46.5101C57 46.5101 56.13 45.2101 55.29 45.5101C54.45 45.8101 54.74 46.9101 54.74 46.9101C56.7191 46.6906 58.6338 46.075 60.37 45.1001C62.1921 44.0237 63.9364 42.8207 65.59 41.5001Z" fill="white"/>
<path d="M53.09 46.7601C53.2515 45.9506 53.5747 45.1819 54.04 44.5001C55.77 42.2801 56.54 41.8701 57.68 41.3701C58.37 41.0701 60.34 41.3701 60.13 40.2501C59.92 39.1301 57.45 39.1301 54.77 40.5601C52.8697 41.5678 51.2403 43.0188 50.02 44.7901C50.02 44.7901 51.41 46.9501 53.09 46.7601Z" fill="#FF0000"/>
<path d="M61.36 21.6099L62.23 23.0099" stroke="black" stroke-linecap="round" stroke-linejoin="round"/>
<path d="M62.55 21.8398L61.32 22.7198" stroke="black" stroke-linecap="round" stroke-linejoin="round"/>
<path d="M61.91 21.5601L61.68 23.1401" stroke="black" stroke-linecap="round" stroke-linejoin="round"/>
<path d="M62.72 22.5202L61.01 22.2002" stroke="black" stroke-linecap="round" stroke-linejoin="round"/>
<path d="M45.52 31.1802L46.39 32.5802" stroke="black" stroke-linecap="round" stroke-linejoin="round"/>
<path d="M46.7 31.4199L45.47 32.2899" stroke="black" stroke-linecap="round" stroke-linejoin="round"/>
<path d="M46.07 31.1299L45.83 32.7099" stroke="black" stroke-linecap="round" stroke-linejoin="round"/>
<path d="M46.88 32.09L45.17 31.77" stroke="black" stroke-linecap="round" stroke-linejoin="round"/>
<path d="M57.01 28.9799C57.6783 28.2783 58.0691 27.358 58.11 26.3899C58.11 24.9599 56.49 23.9399 55.39 25.3899C54.29 26.8399 54.31 27.0399 54.31 27.0399" stroke="black" stroke-linecap="round" stroke-linejoin="round"/>
<path d="M51.73 30.3899C52.28 28.0199 51.64 24.2099 49.5 22.1899C47.36 20.1699 43.03 20.0199 40.67 21.7699C38.31 23.5199 36.78 28.3199 38.02 31.1799C39.26 34.0399 43.87 36.3099 48.2 34.1799C52.53 32.0499 51.73 30.3899 51.73 30.3899Z" stroke="black" stroke-linecap="round" stroke-linejoin="round"/>
<path d="M54.88 14.29C53.6063 15.016 52.6106 16.1454 52.05 17.5C51.2 19.77 52.5 24.2 54.84 25.62" stroke="black" stroke-linecap="round" stroke-linejoin="round"/>
<path d="M58.11 26.3899C59.7758 26.4871 61.4311 26.068 62.85 25.1899C64.68 23.7999 65.02 20.8799 64.76 18.8999C64.55 17.3299 62.69 14.8999 60.41 13.8999" stroke="black" stroke-linecap="round" stroke-linejoin="round"/>
<path d="M40.37 37.0602C41.7287 37.7799 43.2707 38.0793 44.8 37.9202C47.21 37.6002 47.66 36.6802 47.66 36.6802" stroke="black" stroke-linecap="round" stroke-linejoin="round"/>
<path d="M64.86 25.21C65.625 24.3952 66.2805 23.4842 66.81 22.5" stroke="black" stroke-linecap="round" stroke-linejoin="round"/>
<path d="M59.5 13.6902C59.5 13.6902 50.72 8.50016 46.77 8.01016C42.82 7.52016 35.95 7.85016 34.77 8.58016C34.0244 9.03954 33.3215 9.56499 32.67 10.1502" stroke="black" stroke-linecap="round" stroke-linejoin="round"/>
<path d="M53.59 13.8798C53.59 13.8798 58.06 15.0198 60.92 13.7798" stroke="black" stroke-linecap="round" stroke-linejoin="round"/>
<path d="M38.21 22.8101C38.3533 23.7911 38.2866 24.7915 38.0142 25.7448C37.7418 26.6982 37.27 27.5828 36.63 28.3401" stroke="black" stroke-linecap="round" stroke-linejoin="round"/>
<path d="M34.76 8.58013C33.6228 7.75504 32.3191 7.18848 30.94 6.92013C29.35 6.84013 27.43 6.52013 27.19 7.99013C26.95 9.46013 27.45 9.99013 27.45 9.99013" stroke="black" stroke-linecap="round" stroke-linejoin="round"/>
<path d="M28.73 9.81006C28.73 9.81006 26.5 10.3901 25.96 11.7601C25.4483 13.0884 25.148 14.4887 25.07 15.9101" stroke="black" stroke-linecap="round" stroke-linejoin="round"/>
<path d="M27.01 14.21C24.3419 16.6182 22.5394 19.8367 21.88 23.37C21.03 28.95 20.19 38.99 23.36 47.79C26.53 56.59 33.16 64.35 37.36 68.33C40.84 71.63 45.99 73.24 51.44 73.61C55.0134 73.638 58.5629 73.0249 61.92 71.8C63.28 71.19 66.35 72.66 67.76 72.47C68.7013 72.3962 69.5997 72.0453 70.3418 71.4616C71.0839 70.8779 71.6366 70.0874 71.93 69.19C72.5 66.96 71.76 63.45 72.03 62.26" stroke="black" stroke-linecap="round" stroke-linejoin="round"/>
<path d="M72.13 62.96C73.4475 60.7092 74.482 58.3043 75.21 55.8C76.5 51.5 76.34 43.57 74.86 38.87C73.38 34.17 69.94 25.55 65.5 20.96" stroke="black" stroke-linecap="round" stroke-linejoin="round"/>
<path d="M50.87 38.4099C48.45 39.3499 48.2 41.4099 48.97 43.4099C49.74 45.4099 52.23 47.5699 56.25 46.6599C60.27 45.7499 66.3 42.0399 67.32 39.0499C68.66 35.0499 66.71 31.5799 63.74 31.9999C60.1 32.5099 59.35 35.2999 56.46 36.9999C54.6 38.0499 52.73 37.6899 50.87 38.4099Z" stroke="black" stroke-linecap="round" stroke-linejoin="round"/>
<path d="M53.5 38.02C53.5 38.02 53.94 39.81 54.77 39.33C55.0241 39.1541 55.2341 38.9217 55.3833 38.651C55.5325 38.3804 55.6169 38.0788 55.63 37.77C55.63 37.77 56.44 38.68 57.05 38.21C57.66 37.74 57.16 36.7 57.16 36.7C57.16 36.7 58.09 37.7 58.9 37.01C59.71 36.32 58.66 35.1 58.66 35.1C58.66 35.1 59.79 35.88 60.6 35.29C61.41 34.7 60.5 33.36 60.5 33.36C60.5 33.36 61.44 34.58 62.36 33.88C62.6113 33.7005 62.7844 33.4316 62.8439 33.1286C62.9034 32.8255 62.8447 32.5112 62.68 32.25" stroke="black" stroke-linecap="round" stroke-linejoin="round"/>
<path d="M54.72 46.84C54.72 46.84 54.43 45.72 55.27 45.44C56.11 45.16 56.98 46.44 56.98 46.44C56.98 46.44 56.37 44.84 57.2 44.44C58.03 44.04 59.14 45.5 59.14 45.5C59.14 45.5 58.72 43.6 59.2 43.28C59.68 42.96 61.56 44.34 61.56 44.34C61.56 44.34 60.25 43 61.21 42.34C62.17 41.68 63.34 43.2 63.34 43.2C63.34 43.2 62.5 41.88 63.5 41.1C64.5 40.32 65.6 41.46 65.6 41.46" stroke="black" stroke-linecap="round" stroke-linejoin="round"/>
<path d="M50.03 44.86C51.2506 43.0889 52.8799 41.638 54.78 40.63C57.46 39.19 59.93 39.21 60.14 40.32C60.35 41.43 58.39 41.14 57.69 41.44C56.55 41.94 55.78 42.34 54.05 44.57C53.5842 45.2614 53.2644 46.0407 53.11 46.86" stroke="black" stroke-linecap="round" stroke-linejoin="round"/>
<path d="M68.98 32.98C69.5895 34.2585 69.8844 35.6643 69.84 37.08C69.5795 38.8965 68.7619 40.5876 67.5 41.92" stroke="black" stroke-linecap="round" stroke-linejoin="round"/>
<path d="M47.19 45.4502C47.19 45.4502 48.51 48.0802 50.64 48.6702C52.9481 49.3411 55.4154 49.2107 57.64 48.3002" stroke="black" stroke-linecap="round" stroke-linejoin="round"/>
<path d="M1 58.1802L3.93 58.6202" stroke="black" stroke-linecap="round" stroke-linejoin="round"/>
<path d="M7.70001 5.97998L9.17001 7.82998" stroke="black" stroke-linecap="round" stroke-linejoin="round"/>
<path d="M61.25 1L60.81 3.93" stroke="black" stroke-linecap="round" stroke-linejoin="round"/>
<path d="M89.51 62.99L86.63 62.96" stroke="black" stroke-linecap="round" stroke-linejoin="round"/>
<path d="M39.64 60.25C39.64 60.25 39.13 61.04 39.64 61.07" stroke="black" stroke-linecap="round" stroke-linejoin="round"/>
<path d="M57.95 59.79C57.95 59.79 58.38 59.94 58.02 60.29" stroke="black" stroke-linecap="round" stroke-linejoin="round"/>
<path d="M70.81 53.6899C70.81 53.6899 71.5 54.2199 71.1 54.3699" stroke="black" stroke-linecap="round" stroke-linejoin="round"/>
<path d="M66.36 65.98C66.36 65.98 66.97 66.72 66.61 67.08" stroke="black" stroke-linecap="round" stroke-linejoin="round"/>
<path d="M50.75 70.6001C50.75 70.6001 51.54 71.1101 50.96 71.3901" stroke="black" stroke-linecap="round" stroke-linejoin="round"/>
<path d="M41.86 50.6099C41.86 50.6099 42.37 51.3599 41.98 51.5199" stroke="black" stroke-linecap="round" stroke-linejoin="round"/>
<path d="M29.5 43.9199C29.5 43.9199 29.32 44.1499 29.58 44.5299" stroke="black" stroke-linecap="round" stroke-linejoin="round"/>
<path d="M32.67 35.29C32.7245 35.3157 32.7717 35.3546 32.8073 35.4032C32.8428 35.4518 32.8656 35.5085 32.8736 35.5682C32.8816 35.6279 32.8744 35.6887 32.8528 35.7449C32.8312 35.8011 32.7959 35.851 32.75 35.89" stroke="black" stroke-linecap="round" stroke-linejoin="round"/>
<path d="M32.32 20.9702C32.32 20.9702 31.42 21.9102 31.87 22.2602" stroke="black" stroke-linecap="round" stroke-linejoin="round"/>
<path d="M40.92 10.6001C40.92 10.6001 41.3 11.1701 40.92 11.3201" stroke="black" stroke-linecap="round" stroke-linejoin="round"/>
<path d="M23.82 27.3198C23.82 27.3198 23.32 28.2098 23.82 28.3198" stroke="black" stroke-linecap="round" stroke-linejoin="round"/>
<path d="M28.14 55.6001L27.93 56.3401" stroke="black" stroke-linecap="round" stroke-linejoin="round"/>
<path d="M51.48 9.72021L51.26 10.3702" stroke="black" stroke-linecap="round" stroke-linejoin="round"/>
</svg>
